<?xml version="1.0" encoding="utf-8"?>
<!-- Generator: Adobe Illustrator 25.2.0, SVG Export Plug-In . SVG Version: 6.00 Build 0)  -->
<svg version="1.1" id="Layer_1" xmlns="http://www.w3.org/2000/svg" xmlns:xlink="http://www.w3.org/1999/xlink" x="0px" y="0px"
	 width="970.9px" height="773.5px" viewBox="0 0 970.9 773.5" style="enable-background:new 0 0 970.9 773.5;" xml:space="preserve"
	>
<style type="text/css">
	.st0{fill:#E6E7E8;}
	.st1{fill:#A97C50;}
	.st2{fill:#8B5E3C;}
	.st3{fill:#231F20;}
</style>
<g>
	<path class="st0" d="M13.5,28.4c11.5,0,44.7-1.1,55,0s29.8,6.9,35.5-9.2c5.7-16,53.8-25.2,83.6-14.9c29.8,10.3,53.8,26.3,68.7,51.5
		c14.9,25.2,37.8,80.2,58.4,101.9c20.6,21.8,47,37.8,64.1,42.4c17.2,4.6,13.7,16,20.6,19.5c6.9,3.4,63,33.2,124.8,37.8
		c61.8,4.6,200.4,29.8,253.1,25.2c52.7-4.6,93.9-105.7,90.5-141c-3.4-35.3-56.1-60.5-42.4-80c13.7-19.5,28.6-25.2,69.9,10.3
		c41.2,35.5,49.2,55,21.8,112.2c-27.5,57.3-49.2,110.5-91.6,134.3c-13.7,10,11.5,35.2,22.9,37.5c11.4,2.3,18.3,44.7,24,93.9
		c5.7,49.2,17.2,90.5,40.1,103.1c22.9,12.6,42.4,22.9,45.8,32.1c13.7,9.2,14.9,21.8,10.3,44.7c-4.6,22.9-25.2,119.1-27.5,127.1
		c-2.3,8-19.5,21.8-37.8,14.9c0,0-40.1-1.1-40.1-11.4c0-10.3,0-33.2,16-32.1c-11.5-11.4,17.2-32.1,32.1-36.6
		c-1.1-17.2,6.9-25.2-3.4-38.9c-10.3-13.7-71-58.4-99.6-74.4c-28.6-16-44.7-45.8-58.4-71c-13.7-25.2-127.1-51.5-235.9-19.5
		c-108.8,32.1-137.4,37.8-143.1,32.1c-2.3,25.2,1.1,127.1,5.7,136.3c4.6,9.2,2.3,14.9-3.4,25.2c-5.7,10.3-12.6,53.8-14.9,68.7
		c-9.2,10.3-52.7,9.2-60.7,6.9c-8-2.3-36.6,2.3-26.3-19.5c-16-5.7-24-20.6-4.6-32.1c19.5-11.5,29.8-8,32.1-13.7
		c2.3-5.7,5.7-146.6-13.7-191.2c-37.8-20.6-90.5-69.9-82.4-152.3c6.9-77.9-90.5-177.5-104.2-179.8c-13.7-2.3-26.3-1.1-33.2-18.3
		C52.4,148.6-26.6,111.4,13.5,28.4z"/>
	<path class="st1" d="M867.7,151.8c-3.5,41.4-42.2,126.6-90.4,130.8c-11.1,1-25.9,0.7-43-0.6c-7.8-0.6,14.5,12.3,0,23.5
		c-14.5,11.2-37.9,36.1-1.7,75.6c36.2,39.5,48.2,36.1,69.7,31.8s30.1,2.6,36.9,13.7c6.9,11.2,46.4,9.4,14.6-36.1
		c-31.8-45.5-34.6-37.8-32.3-64.4s30.6-30.9,30.6-51.5c0-20.6,27.8-21.6,22.3-65.3C868.7,164.9,867.7,151.8,867.7,151.8z"/>
	<path class="st1" d="M434.1,235.4c-19.5-5.3-31.6-14.2-34.7-15.7c-6.9-3.4-3.4-14.9-20.6-19.5c-17.2-4.6-43.5-20.6-64.1-42.4
		c-8.4-8.8-17.1-23.1-25.5-38.6c-12.4-22.8-24-48.3-32.9-63.3c-14.9-25.2-38.9-41.2-68.7-51.5c-29.8-10.3-77.9-1.1-83.6,14.9
		c-1.1,3.2-2.8,5.5-4.8,7.1c0,0-22.1,26.6,2,43s-12,38.7,1.7,61.3c13.7,22.6,20.3,25.2,54.1,28.3c33.8,3.1,22.9,57.5,38.9,79.9
		c16,22.3,29.8,25.8,33.2,34.9c3.4,9.2-33.2,39.5-8.9,68.4c24.3,28.9,61.3,148.5,64.7,158c3.4,9.6,11,39.8,10.5,46.7
		c-0.5,6.9,65.1,2.3,73.9-61c0.3-32.4-4.9-33.8,4.3-36.6c9.2-2.9,50.5,5.7,97.9-20.9C538.6,390.8,495.4,252,434.1,235.4z"/>
	<path class="st2" d="M192.7,73.1c-7,11.9-45.2,73.9-47.5,89.9c-2.3,16-5.7,49.2,3.4,60.7c9.2,11.4,32.1,22.3,80.7-7.4
		c48.7-29.8,48.7-68.7,37.8-114.5c-10.9-45.8-57.3-67.6-61.8-57.8S197.4,65.1,192.7,73.1z"/>
	<path class="st3" d="M13.5,24.4C7.2,24.7-5,37.6,2.2,49c7.2,11.5,24.4-9.2,26.7-12.3C31.2,33.6,27.8,23.8,13.5,24.4z"/>
	<path class="st3" d="M289.1,119.2c0,0,17.2,29.8,25.5,38.6c20.6,21.8,47,37.8,64.1,42.4c17.2,4.6,13.7,16,20.6,19.5
		c6.9,3.4,63,33.2,124.8,37.8c38.5,2.9,106.7,13.7,165.4,20.4c0,0-30-0.6-21.4,25.2c8.6,25.8-6,18.9-8.6,44.7
		c-2.6,25.8-10.3,52.4,5.2,67c15.5,14.6,37.8,35.2-26.6,36.1c-64.4,0.9-123.7,36.9-116.8-20.6c6.9-57.5-76.4,40.4-105.6-25.8
		c-29.2-66.1,18.9-136.6-24.9-155.4c-43.8-18.9-0.9-38.6-33.5-28.3c-32.6,10.3-36.9,21.5-53.3-3.4
		C287.7,192.2,258.7,138,289.1,119.2z"/>
</g>
</svg>
