<?xml version="1.0" encoding="UTF-8"?>
<svg xmlns="http://www.w3.org/2000/svg" xmlns:xlink="http://www.w3.org/1999/xlink" width="1500pt" height="1500pt" viewBox="0 0 1500 1500" version="1.1">
<g id="surface1">
<path style=" stroke:none;fill-rule:nonzero;fill:rgb(0%,0%,0%);fill-opacity:1;" d="M 204 154 C 207.839844 161.585938 220.527344 166.554688 220.574219 176 C 220.628906 187.226563 204.640625 195.164063 197 201 C 181.71875 212.359375 168.460938 227.101563 167 247 C 165.78125 266.011719 173.722656 285.667969 180.601563 303 C 196 342.117188 223 382.078125 229.5625 424 C 233.589844 449.804688 196.234375 468.824219 209.441406 494 C 224.863281 523.390625 263 495 276.910156 480 C 292.828125 463 305 442 317.1875 422 C 323.246094 412.113281 329.28125 398.199219 341 394 C 353 389.578125 370.972656 398.050781 381 404.4375 C 387.722656 408.714844 393.867188 414.039063 399 420.015625 C 406.167969 428.003906 413.589844 438 417.289063 448 C 422 461.183594 406.644531 478 406 492 L 407 492 C 411 482.035156 417.5625 472.773438 425 465 C 427.234375 462.71875 430.316406 458.757813 433.699219 458.328125 C 442.488281 457.214844 443.269531 478.753906 442.910156 484 C 440.847656 514.3125 434.964844 545.722656 426.574219 575 C 424.675781 581.621094 420.894531 587.425781 419 594 C 424.421875 591.417969 437.734375 575.554688 443.667969 578.253906 C 446.414063 579.503906 445.292969 583.738281 445 586 C 443.929688 594.226563 444 601.769531 444.949219 610 C 447 629.394531 450.382813 649.007813 454.882813 668 C 458.21875 682.066406 463.394531 696.449219 463.960938 711 C 464.761719 731.5625 448.496094 753.234375 443 773 C 437.675781 793.238281 433.191406 814.109375 431.171875 835 C 430.308594 844 431.667969 853.324219 430.40625 862 C 428.222656 877.003906 420.527344 890.695313 418.273438 906 C 413.199219 940.425781 416.984375 975.109375 424 1009 C 427.394531 1025.378906 433.640625 1042.359375 435 1059 L 437 1059 C 435.65625 1042.128906 428.835938 1025.800781 426.429688 1009 C 423.941406 991.625 426 974.40625 426 957 L 427 957 C 427.761719 1049.019531 483.960938 1135.621094 522 1216 L 523 1216 C 522.988281 1199.125 517.835938 1182.621094 515.429688 1166 C 512 1142.691406 511 1118.519531 511 1095 L 512 1095 C 512.609375 1124.410156 531.9375 1157 544.21875 1183 C 563.910156 1224.714844 588.167969 1267.117188 621 1300 C 639 1318.089844 660 1333.519531 686 1337.5625 C 704 1340.371094 720.734375 1335 738 1331 C 730.238281 1355 719.238281 1378 700 1394.574219 C 695.460938 1398.519531 679.25 1411 681.816406 1418.398438 C 682.753906 1421.136719 689.816406 1420 692 1420 C 704.171875 1420 712.765625 1419.753906 724 1414.6875 C 750.941406 1402.542969 774.242188 1381.082031 793.425781 1359 C 800 1351.429688 809.851563 1343.578125 811 1333 L 812 1333 C 812.863281 1353.136719 813.460938 1371.773438 805.933594 1391 C 802.957031 1398.601563 796.804688 1404.351563 794 1412 C 816.679688 1402.398438 826.167969 1365.765625 835 1345 C 851.390625 1306.457031 866 1266.675781 890 1232 C 905.773438 1209.148438 922.90625 1187.394531 936.304688 1163 C 941.339844 1153.832031 948.195313 1144.472656 950 1134 L 951 1134 C 950.933594 1158.425781 943.726563 1184.527344 934.546875 1207 C 929.84375 1218.519531 920.863281 1229.566406 919 1242 C 935.21875 1234.480469 946.449219 1213.328125 956 1199 C 986.203125 1153.675781 1009.640625 1092 1012 1037 L 1013 1037 C 1013.429688 1042.25 1014.871094 1047.191406 1017 1052 C 1024.785156 1039.25 1027.238281 1018.542969 1030.871094 1004 C 1043.90625 952 1045.445313 899 1036.585938 846 C 1034.332031 832.5625 1031.308594 819.109375 1027.574219 806 C 1025.601563 799.085938 1021.570313 791.195313 1021.277344 784 C 1020.8125 772.488281 1030.703125 760.324219 1034.796875 750 C 1043.304688 728.542969 1049.730469 706.660156 1054 684 L 1055 684 C 1056.25 712.6875 1074.523438 738.671875 1081 766 L 1080 766 C 1076.902344 755.476563 1064.5 732.585938 1055 727 C 1061.402344 754.652344 1075.539063 781 1083.972656 808 C 1108.953125 888.390625 1127.644531 973.742188 1114.574219 1058 C 1109 1093.535156 1097.75 1128.191406 1083 1161 C 1075 1179.195313 1062.269531 1196.734375 1057 1216 C 1071.550781 1203.535156 1080.515625 1175.277344 1088.304688 1158 C 1105.703125 1119.402344 1117.8125 1078.210938 1121.828125 1036 C 1124.367188 1009.34375 1122 982.675781 1122 956 L 1123 956 C 1123.84375 975.347656 1133.261719 995.789063 1139.332031 1014 C 1152.851563 1054.558594 1171.335938 1093.34375 1187.199219 1133 C 1199.296875 1163.234375 1211 1196.035156 1211 1229 L 1210 1229 C 1209.632813 1211.230469 1200.75 1193.398438 1194.679688 1177 C 1192.59375 1171.355469 1190.894531 1161.675781 1186 1158 C 1188.636719 1178.402344 1193.492188 1198.699219 1196.917969 1219 C 1204.90625 1266.3125 1213 1314.542969 1228.859375 1360 C 1234.410156 1376.003906 1240.363281 1393.03125 1250 1407 C 1251.6875 1409.203125 1257.746094 1422.074219 1261.324219 1418.339844 C 1264.273438 1415.261719 1260 1407.304688 1259 1404 C 1254.734375 1390.183594 1251.222656 1376.074219 1247.882813 1362 C 1234.40625 1305.140625 1241.523438 1248 1228.652344 1191 C 1207 1095.714844 1163.785156 1008.167969 1135.71875 915 C 1114.773438 845.46875 1108.976563 772.816406 1089.574219 703 C 1078.515625 663.199219 1064.226563 624.433594 1051.972656 585 C 1044.53125 561.046875 1035 535.363281 1035 510 C 1043.589844 518.777344 1048.890625 531 1059 538.210938 C 1062.285156 540.566406 1068.476563 544.628906 1072.582031 542 C 1077.496094 538.785156 1076 529 1075.984375 524 C 1075.550781 506.238281 1070.339844 488.78125 1070.339844 471 C 1070.339844 434.570313 1098.710938 418.503906 1126 402.136719 C 1132.769531 398.074219 1139 389.109375 1147 387.359375 C 1152.746094 386.074219 1157.835938 392 1160.839844 396.003906 C 1169.25 407.386719 1171.839844 422.054688 1177 435 C 1192.390625 473.597656 1216.1875 545.167969 1269 540 C 1281 538.6875 1282.832031 525.710938 1281.246094 516 C 1277.304688 492 1262.921875 469.0625 1264.210938 444 C 1266.351563 402.324219 1287.277344 365.097656 1304.308594 328 C 1315 304.503906 1325.640625 281.316406 1324.984375 255 C 1324.453125 233.667969 1309.382813 212.628906 1292 201.4375 C 1283.242188 195.800781 1261.425781 189 1261.425781 176 C 1261.425781 167 1274.269531 160.695313 1279 154 C 1245 153.300781 1212.367188 141 1180 132.152344 C 1149.574219 124 1118.242188 119.253906 1088 110.277344 C 1074.609375 106.304688 1061 102.46875 1048 97.574219 C 1035 92.730469 1022.171875 86.417969 1008 87.039063 C 987.460938 88 971 102.53125 957 116 C 940 132.15625 921 150 898 156.574219 C 869.1875 164.832031 840.96875 149.304688 812 150.015625 C 791.335938 150.519531 771.871094 158.496094 751 158 C 726.421875 157.382813 703 149 678 150.039063 C 661.210938 150.773438 643.285156 160.679688 627 159.480469 C 605.265625 158 596.339844 136.71875 585.65625 121 C 572 101 549.535156 81.640625 524 81.015625 C 493 80.253906 465 94.269531 436 102.574219 C 390.433594 115.578125 343.632813 123.742188 298 136.425781 C 266.492188 145.179688 236.964844 158.164063 204 154 M 484 103 C 474.992188 116.171875 468 124.316406 452 121 C 459.335938 114.140625 474.339844 105.789063 484 103 M 1042 108 L 1042 109 C 1031 111 1022.882813 118.742188 1013 123 C 1016.996094 109.15625 1029.53125 108 1042 108 M 1058 122 L 1058 123 C 1041.828125 120.820313 1035.214844 121.664063 1020 128 C 1028 111.121094 1044.21875 118.8125 1058 122 M 412 179 C 414.964844 176.738281 432.566406 164.3125 435.863281 168.070313 C 437.605469 170.058594 434 173.664063 432.929688 175 C 428.273438 180.519531 423.703125 186 419.671875 192 C 404.386719 214.78125 392.195313 244.410156 390 272 L 391 272 C 394.472656 259.769531 401 249.289063 406.753906 238 C 415.761719 220 424.378906 202 437 186 C 441.882813 180 447.359375 173.800781 454 169.550781 C 456 168.195313 460.964844 165.074219 462.867188 168.359375 C 465.273438 172.515625 458.667969 179.105469 456.425781 182 C 447.664063 193.292969 437.835938 204 430 216 C 418.199219 234.480469 412 256.230469 402.679688 276 C 393.675781 295 381.867188 313.050781 369.574219 330 C 361.382813 341.296875 348.585938 360.382813 335 365 C 338 355.421875 347 348.8125 353 341 C 361.871094 329.46875 369 316 373.277344 302 C 386.234375 259.449219 381.390625 210.820313 398.871094 170 C 405.375 154.820313 416.277344 142.050781 431 134.320313 C 434 132.710938 446.328125 126.605469 448.289063 132.316406 C 450 137.59375 441 143.136719 438 146.023438 C 427.761719 155.566406 416 165 412 179 M 298 192 C 316.195313 181.378906 335.921875 171.753906 356 165.34375 C 358.453125 164.5625 381.253906 160.46875 375.289063 168.585938 C 372.90625 171.824219 366.59375 172.179688 363 173.152344 C 353.800781 175.640625 344.835938 178.636719 336 182.199219 C 310 192.660156 284 211.078125 272 237 C 297.875 209 331.460938 183.121094 371 180 C 367.902344 186.507813 360.71875 190.214844 355 194.289063 C 343.574219 202.4375 332.1875 210.660156 321 219.128906 C 296.871094 237.398438 275.835938 265.113281 266 294 L 267 294 C 273.191406 279.648438 286 268 297 257 C 320 234 347 206.113281 377 192 C 373.488281 218.070313 351.714844 235.375 336.425781 255 C 315.714844 281.582031 299.652344 311.347656 286 342 C 293.402344 335.238281 298.875 323.363281 304.71875 315 C 315.96875 299 328.484375 283.800781 340 268 C 346.636719 259.140625 351.859375 248.457031 361 242 C 357.632813 256 356.660156 277.453125 347.605469 289 C 335.3125 304.667969 313.707031 310.382813 302 327 C 322.328125 317.382813 339.519531 301.5625 360 292 C 357.574219 310 345.476563 327.460938 336.859375 343 C 315 382.328125 288.265625 439.382813 241 453 C 253.960938 430.25 265.503906 407.488281 277.246094 384 C 284.191406 370.113281 292.882813 356.050781 297 341 L 296 341 C 286.265625 368.199219 266 389.351563 254 415 L 253 415 C 259.699219 382.621094 277.527344 353.296875 285 321 L 284 321 C 276.777344 347.402344 258.515625 371.339844 247 396 L 246 396 C 251.371094 372.777344 261.5625 350.070313 270.398438 328 C 274.542969 317.652344 280.359375 307.117188 282 296 L 281 296 C 275.257813 313 264.28125 327.179688 256.371094 343 C 251.988281 351.765625 249 362.820313 241 369 C 225.347656 320.054688 263.546875 289 281 247 C 268.777344 263.8125 254.179688 279 242.34375 296 C 239.5625 300 232.832031 312.792969 227.300781 312.792969 C 224.351563 312.792969 223.980469 307.011719 223.613281 305 C 222 296.726563 221.679688 288.320313 220.574219 280 C 216 246.210938 220 206.589844 240.210938 178 C 249.824219 164.359375 260.824219 166.464844 275 162.277344 C 299.679688 155 323.808594 145.238281 349 139.789063 C 358.324219 137.773438 367.574219 135.289063 377 133.753906 C 379 133.410156 385 131.773438 385.453125 135.316406 C 386.265625 144.210938 370 147.789063 364 149.574219 C 339.238281 157 314.90625 172.453125 298 192 M 709 217 C 704.703125 213.480469 698.230469 213.050781 693 211.328125 C 679.324219 206.828125 657 199.457031 650 186 C 671.726563 186 693.269531 188 715 188 L 715 187 C 705.558594 183.804688 696.820313 179.03125 687 177 L 687 176 C 704.695313 176 722 177.609375 739 183 L 728 168 C 748.960938 172.339844 763.546875 187 764 209 L 765 209 C 766.367188 203.253906 767 196 766.535156 190 C 766.175781 186.085938 763.84375 180.046875 765.605469 176.316406 C 767.328125 172.679688 774.652344 173.050781 778 173.003906 C 789.261719 173 800.910156 172.066406 812 170 L 812 171 C 798.476563 180 785 189.511719 777 204 C 797.433594 186.203125 821.296875 179.148438 848 178 L 848 179 C 837.75 181.144531 823.398438 187.519531 816 195 C 829.789063 191.425781 843 186 857 183 L 857 184 C 843.53125 193.683594 833.617188 206 825 220 C 838.871094 208.003906 851.300781 197.339844 868 189.257813 C 884.367188 181.339844 913.988281 170.785156 932 176.75 C 953.398438 184 971 208.636719 985.28125 225 C 1010.167969 253.601563 1031.628906 284.808594 1051.574219 317 C 1069.222656 345.480469 1082 372.539063 1112 390 L 1112 391 C 1096.894531 392.320313 1086.976563 404.273438 1079 416 L 1078 416 C 1077.398438 402 1071.46875 389.207031 1059 382 C 1065.535156 399.453125 1058.472656 421.1875 1053 438 L 1052 438 C 1043 416.273438 1032.707031 398 1015.996094 381 C 1012.210938 377.171875 997.179688 367.339844 998.753906 361.226563 C 999.804688 357.121094 1007.652344 356.464844 1011 355.628906 C 1024.660156 352.210938 1037.953125 351 1052 351 C 1042 341.09375 1021.503906 336.46875 1008 335 C 970.304688 330.714844 930.6875 341 897 357.808594 C 885.507813 363.554688 875.59375 373 864 378 C 877.492188 321.058594 937.867188 286 993 286 C 986.382813 277.351563 975.179688 271.441406 965 268.003906 C 921.394531 253.285156 875.171875 283.261719 846.425781 314.089844 C 839 322 831.5 329.34375 825 338 C 817 349.097656 811.382813 362 805 374 L 804 374 C 804.910156 330 822.898438 296.433594 847 261 C 816.847656 275.097656 794.789063 301.019531 770 322.269531 C 761.484375 329.574219 752.320313 340.632813 742 345 C 742.292969 330.8125 747.664063 317.320313 752 304 L 751 304 C 745.46875 317.285156 737 330.492188 730 343 C 726 337.371094 728 327.609375 728 321 C 728 302.488281 725.972656 281.800781 732 264 C 716.953125 274.597656 704.351563 292.363281 693.375 307 C 690.992188 310.175781 684.726563 322 679.601563 320.25 C 677.472656 319.53125 677.660156 314.765625 677.425781 313 C 676.347656 305 677.367188 297.015625 678 289 C 670.804688 297.464844 669 308.058594 663 317 C 657.808594 304.773438 656.972656 293 648.332031 282 C 622 248.730469 571.859375 240.179688 532 241 C 535 232.769531 541.289063 226.316406 545.945313 219 C 555.347656 204.230469 564.265625 185.828125 564.960938 168 C 565.441406 155.664063 560 144.628906 557 133 C 564.675781 137 570.769531 146.003906 577 152 C 587 161.675781 598.476563 170.265625 610 178.277344 C 640.65625 199.601563 673.527344 208.550781 709 217 M 1148 264 L 1147 264 C 1141.976563 254.5625 1134.730469 246.148438 1131 236 C 1124.457031 217.515625 1126.417969 178.582031 1097 178.578125 C 1092.460938 178.578125 1088.21875 180.574219 1084 182 C 1087.667969 176.457031 1093.539063 171.570313 1095.359375 165 C 1098.25 154.554688 1087.507813 145.6875 1079 142.257813 C 1058.691406 134.066406 1034.460938 141.03125 1014 145 C 1022.167969 136.753906 1037.984375 135.164063 1049 134 C 1120.621094 125.273438 1141 209.285156 1148 264 M 1294 241 L 1293 241 C 1287.777344 223 1271.632813 216 1256 209 C 1263.503906 219.652344 1274 226.335938 1278.933594 239 C 1291.671875 272.550781 1279.972656 309.324219 1270.425781 342 C 1266.566406 355.210938 1263.847656 370 1257 382 C 1251.9375 375.664063 1250 365.449219 1246.691406 358 C 1239.726563 342.832031 1230.734375 329 1223.246094 314 C 1219.824219 307.199219 1217.238281 297.414063 1212 292 C 1222.339844 319.402344 1236.398438 348.472656 1243 377 L 1242 377 C 1232.703125 359.347656 1223.859375 341.105469 1213.601563 324 C 1210.378906 318.628906 1208 311.609375 1204 307 C 1214.585938 344.28125 1234.375 378.558594 1245 416 L 1244 416 C 1232.46875 399.050781 1216.636719 380.492188 1210 361 L 1209 361 C 1213.28125 379.019531 1224.988281 396.222656 1232.691406 413 C 1244.378906 438.453125 1252.574219 463 1259 490 C 1239.25 478.578125 1223 450.050781 1211.191406 431 C 1170.964844 366.117188 1153 284 1153 208 C 1161.863281 214.242188 1168.386719 223.375 1176 231 C 1191.304688 246.328125 1206.992188 261.347656 1221.960938 277 C 1230 285.5625 1237.597656 296 1248 302 C 1232.796875 284.433594 1218.789063 266.054688 1202.910156 249 C 1191 236.304688 1175.625 224.136719 1167 209 C 1176.777344 211.320313 1185.355469 217.800781 1194 222.71875 C 1213.453125 233.785156 1232 246 1253 254 C 1246.796875 247.714844 1237.304688 244.007813 1230 239 C 1215.816406 229.203125 1202.429688 218.285156 1188 209 C 1177.640625 202.097656 1165.292969 196.324219 1158 186 C 1188.753906 196.023438 1214.710938 219.441406 1246 228 L 1246 227 C 1235.800781 223.261719 1227.554688 214.59375 1219 208.128906 C 1204.652344 197.285156 1189.523438 187.097656 1174 178.011719 C 1162.996094 171.570313 1149.765625 166.113281 1144 154 C 1171.378906 161.085938 1195.191406 171.273438 1224 169 L 1224 168 C 1194.550781 159.640625 1165.367188 154.8125 1137 143 C 1141.699219 141.085938 1147.308594 143.378906 1152 144.710938 C 1161.917969 147.527344 1171.917969 150 1182 152 C 1195.902344 155 1209.886719 159 1224 160.714844 C 1230 161.488281 1239.675781 160.796875 1244.683594 165 C 1248.558594 168 1246.4375 174.703125 1247.96875 179 C 1250.558594 186.273438 1256.621094 191.738281 1262 197 C 1275.59375 210.246094 1292.351563 220.296875 1294 241 M 397 230 L 398 230 C 402.816406 219.136719 405.765625 207.621094 411.257813 197 C 415.375 189.046875 421.898438 182.46875 425 174 C 404.652344 180 398.507813 211.53125 397 230 M 614 200 C 618.433594 206.238281 624.910156 209.730469 631 214.152344 C 644.511719 224 658.304688 233.535156 674 239.539063 C 678.589844 241.296875 694.894531 245.488281 697.652344 238.828125 C 698.613281 236.511719 682.359375 228.519531 680 227.066406 C 661.953125 216 635 203 614 200 M 776 204 C 775 205.515625 774.613281 206.339844 774 208 L 775 208 C 775.800781 206.261719 776 205.804688 776 204 M 598 218 C 604 228.433594 616 234.269531 625 242 C 614.578125 239.523438 605.730469 232.585938 595 231 C 599.632813 241 611.175781 246.375 621 250 C 644.667969 258.546875 671 261 696 261 C 689.277344 254.503906 675.675781 254.203125 667 250.796875 C 650.6875 244.394531 635.582031 236.171875 620 228.242188 C 612.925781 224.644531 606 218.828125 598 218 M 823 221 L 823 224 L 824 224 L 825 221 L 823 221 M 626 242.332031 L 626.332031 242.667969 C 625.839844 242.832031 625.226563 242.332031 626 242.332031 M 519 250 C 532.265625 262.6875 550.273438 268.675781 563.960938 281.285156 C 567.445313 284.496094 576.464844 293.019531 574.300781 298.566406 C 572.222656 304 558 299.417969 554 299.085938 C 532.800781 297.378906 512.332031 293.304688 491 296 C 496.730469 289.089844 505.660156 288.082031 514 286.398438 C 516 286 521.902344 285.648438 521.949219 282.695313 C 522 279.003906 515.847656 273.316406 514 270 C 521.980469 273 528.367188 278.707031 537 280 C 530 272.820313 514 262.160156 519 250 M 717 292 L 718 292 C 706.566406 340.03125 725.25 388.488281 729 436 L 730 436 C 730.449219 414.296875 735.601563 392.316406 743 372 C 744.515625 368.011719 748.566406 353.453125 753.90625 353.347656 C 756.617188 353.292969 756.980469 358.195313 757.488281 360 C 759.523438 367.234375 763.996094 373.519531 769 379 C 769.214844 353.121094 785.808594 331.757813 800.628906 312 C 806.25 304.5 811.3125 295.527344 819 290 C 806.789063 318.335938 795 343.671875 792.171875 375 C 788.46875 413.824219 797 454.433594 781 492 C 806.898438 484.597656 844.300781 454.179688 869.910156 479.105469 C 874.589844 483.65625 878.777344 489.339844 882 495 C 859.984375 491.75 844.550781 483.664063 822 491 C 842 502.410156 865 506.351563 875 530 C 844.445313 526.136719 813.496094 539.519531 792 561 C 829.398438 538.484375 903 528.667969 915 586 C 909.242188 582 904.519531 577.273438 898 574.3125 C 874 563.429688 854.710938 575 833 584 L 833 585 C 853.183594 585 872 587.320313 892 590 L 892 591 C 880.65625 590.105469 870.289063 591.765625 859 592 L 859 594 C 887.445313 594.019531 916.269531 611.480469 929 637 C 933 645.078125 933.925781 653.394531 936 662 C 928.84375 658 923.597656 651.171875 916 647.371094 C 895.886719 637.304688 869.851563 637.0625 849 644 L 849 645 C 948 663.394531 993.511719 759.527344 1015.871094 849 C 1021.554688 871.730469 1026 895.535156 1026 919 C 1026 928.550781 1026.855469 938.039063 1023 947 L 1022 947 C 1020.507813 912.308594 998.335938 883.707031 988 852 L 987 852 C 987 899 1006 944.792969 1012 991 L 1011 991 C 1004.625 972.277344 995 955 989 936 L 988 936 C 991.527344 953.082031 997.167969 969.554688 998.828125 987 C 1001.453125 1014.554688 996.449219 1042 993 1069 L 992 1069 C 990.878906 1014.734375 967.546875 964 955.652344 912 C 951.214844 892.644531 953.25 873.550781 951.910156 854 C 949 813.6875 938.597656 772.210938 902 749.230469 C 892.539063 743.285156 881.898438 739.527344 871 737.210938 C 854.992188 733.808594 839 735.308594 823 736 L 823 738 C 892.335938 738 927.609375 804 940 864 C 928.574219 854.277344 921.507813 836 911.996094 824 C 886.464844 792 855.558594 763.058594 816 750 C 801.628906 745.257813 784.925781 741.539063 770 745.746094 C 766.515625 746.726563 757 749.824219 757 754.5 C 757 757 762.367188 757.113281 764 757.449219 C 771.410156 759 778.191406 762.484375 784 767.324219 C 799.179688 780 808 799.355469 809 819 L 808 819 C 804.191406 793.574219 778 771.824219 754 766.667969 C 742.6875 764.253906 731.273438 766.363281 720 764.699219 C 703.488281 762.261719 691.984375 751.246094 674 753.175781 C 633.25 757.539063 615.195313 806.53125 622.449219 842 C 631.1875 884.734375 665.214844 903.128906 703 916.003906 C 710.46875 918.546875 723.421875 927.332031 731 926.503906 C 739.734375 925.542969 749.265625 917.175781 757 913.242188 C 799 892 831 852.011719 822 803 C 833.464844 811.082031 840 824.757813 846.246094 837 C 862.925781 870.355469 875 915.535156 875 953 L 877 953 C 877 912.4375 873.277344 866.328125 859.304688 828 C 853.664063 812.523438 843.324219 799.191406 837 784 L 838 784 C 864.929688 824 876.742188 870.125 889 916 C 897.476563 946.769531 906.890625 977 914 1008 L 915 1008 C 911.320313 980.664063 901.78125 954.480469 894.425781 928 C 885 894.382813 877.804688 860.507813 864.800781 828 C 855.589844 805 843.894531 778.71875 823 764 L 823 763 C 864.265625 774.285156 897.273438 818.824219 917.28125 854 C 940 894.101563 954.371094 938.210938 964.652344 983 C 971.925781 1014.703125 978 1047.292969 975.910156 1080 C 974.238281 1104.421875 967.429688 1127.316406 962 1151 L 961 1151 C 961 1093.589844 967.953125 1040.144531 950 984 L 949 984 C 953.835938 1022.261719 959.632813 1061.335938 947.972656 1099 C 937.222656 1133.734375 912.945313 1163.480469 903 1198 L 902 1198 C 905 1174.492188 914.398438 1152.253906 918.738281 1129 C 930.949219 1063.609375 937.484375 997 926.414063 931 C 921 899.3125 913.363281 864.066406 892 839 C 898.726563 853.402344 906.734375 867 911.921875 882 C 923.964844 917.128906 927 954.167969 927 991 C 927 1018.769531 925 1047.78125 915 1074 L 914 1074 C 906.617188 1044.027344 897 1009.445313 882.679688 982 C 872 962 856.582031 944.410156 843.425781 926 C 836.398438 916.164063 831.933594 902.785156 824 894 C 825.367188 926 838.945313 954.503906 846 985 C 837.910156 979.300781 831.972656 970.644531 825.804688 963 C 810.972656 944.625 798.96875 926.007813 793 903 L 792 903 C 792 929.011719 801 946.640625 813 969 C 795.421875 965.609375 779.917969 946.429688 771.203125 932 C 767.726563 926.242188 765.480469 919 761 914 C 761 934.527344 769.589844 952.058594 776 971 C 758.867188 962.464844 751 941.15625 751 923 C 740 936.21875 748.871094 945.777344 751 960 C 742 954.371094 734.863281 946.234375 726 940.355469 C 723.398438 938.628906 718.867188 935 715.515625 935.390625 C 710 936.046875 713.238281 957 705.996094 954.652344 C 702.449219 953.539063 701 948.023438 699.800781 945 C 696.609375 937.058594 693.765625 927.605469 687 922 C 687 943.367188 676.988281 974.210938 656 984 C 663 959 683.171875 929.726563 663 906 C 667.175781 939.042969 650 970 616 978 C 618.6875 970.113281 626.796875 967 633 962 C 646.445313 951.449219 667 930 658 911 C 652 923.578125 640.597656 937.328125 629 945 C 636 932.664063 655 919 655 904 C 642.789063 916.769531 634.960938 933.042969 622.910156 946 C 605.855469 964.339844 583.777344 978 572.269531 1001 C 559.625 1026.289063 554.808594 1057 556 1085 C 556.480469 1095.078125 559.519531 1105 559.960938 1115 C 561 1141.40625 558.769531 1169.273438 566 1195 C 559 1189.59375 555.421875 1179 552 1171 C 545 1155.082031 538 1139.601563 532.972656 1123 C 522.703125 1090 514.6875 1055 517 1020 C 518.363281 1001.507813 526.269531 983.664063 531.289063 966 C 538.277344 941.40625 542.941406 916.199219 551.34375 892 C 555.554688 880 562.644531 869 567 857 L 566 857 C 546.535156 898.6875 523.742188 936 511.882813 981 C 500.828125 1023.050781 497.953125 1066.691406 499 1110 C 499.300781 1121.703125 501.992188 1133.273438 502 1145 L 501 1145 C 494.332031 1121.675781 480.863281 1100 472.691406 1077 C 453.996094 1024.519531 445 970.578125 445 915 C 445 882.328125 448.265625 848.199219 464.3125 819 C 473.949219 801.460938 489.285156 787.074219 504 773.832031 C 536 745.003906 575 720.011719 619 716 C 638 714.148438 670 714 684 730 C 661.460938 737 636.183594 731.761719 613 738 C 550.34375 754.433594 506.652344 799.765625 475 854 C 480.417969 848.75 483.761719 841.53125 489 836 C 520.523438 803.019531 559.546875 764.753906 606 756 L 606 757 C 589.507813 764 574.46875 774.46875 563.921875 789 C 555.636719 800.410156 550.734375 813.828125 541.984375 825 C 517.632813 856.09375 486.382813 881.363281 471.449219 919 C 456.9375 955.578125 464 996 464 1034 L 465 1034 C 469.238281 1016.195313 467.210938 996.316406 470.804688 978 C 480.789063 927.082031 505.652344 880 545 845.71875 C 559.710938 833 576.507813 816.675781 597 815 L 597 814 C 576.734375 813 560.9375 827.625 542 831 C 548 818.28125 559.578125 808.363281 568.835938 798 C 604.703125 757.832031 661.292969 725.191406 715 749 C 708.730469 739.519531 700.886719 730 692 722.808594 C 633.898438 676.25 551.402344 715.117188 502 755.613281 C 492.4375 763.453125 482.476563 772 474.171875 781 C 467 789 460.714844 799 452 805 C 479.714844 737.445313 532.183594 682.617188 601 658 L 601 657 C 585.605469 655.054688 568 652.8125 553 657.75 C 544.316406 660.59375 537.683594 667.445313 529 670 C 540.878906 628.136719 582.234375 610.003906 623 610 L 623 609 C 602.574219 605.207031 585.179688 608.394531 565 610 L 565 609 C 593.726563 597.214844 622.242188 584.460938 654 591.210938 C 666.519531 594 677.195313 600.421875 689 605 C 681.96875 595.183594 675.195313 584.449219 665 577.597656 C 656.375 571.800781 646 570.269531 636 568.585938 C 615.390625 565.128906 592 559.332031 573 571.070313 C 553 583.289063 544.359375 604.3125 534 624 L 533 624 C 533 615.566406 534.566406 607 537.34375 599 C 555.175781 548 620.191406 545.175781 661 567.730469 C 676.75 576.4375 698 592 701 611 L 702 611 C 701.964844 555.753906 635.457031 536.539063 591 533 C 594.910156 527.027344 605.171875 524.347656 612 524.039063 C 628.980469 523.269531 645 528.027344 660 536 C 659.984375 511.460938 639.269531 481.503906 614 477 L 614 476 C 651.644531 476 692.832031 485.578125 704.570313 527 C 706.929688 535.324219 707.976563 544.363281 708 553 L 709 553 C 715.589844 529.789063 716.324219 511.050781 696.996094 493.09375 C 689.746094 486.359375 679.777344 483.480469 674 475 C 662.234375 457.257813 661 433.648438 661 413 C 644.171875 431.617188 654 447.355469 659 468 C 640.371094 468 637.609375 459.753906 627.957031 446 C 624 440.535156 619 436 616 430 C 623.839844 432.257813 629.839844 437.4375 637 441 C 637 402.496094 651.644531 364.65625 615 337 C 608.601563 332.054688 601.453125 328.15625 594 325.203125 C 585 321.667969 575.582031 319.097656 566 318.171875 C 548.90625 316.515625 533.695313 324.28125 517 325 L 517 327 C 535.910156 327 554.382813 325.21875 573 330 C 624.621094 343 635 391.207031 635 438 L 634 438 C 621.5625 384.273438 554.421875 346.007813 502 346.007813 C 483.742188 346.007813 465.867188 351.492188 449 358 C 455.894531 348.214844 466.902344 341.691406 477 335.601563 C 503.195313 319.800781 533 309.6875 564 311.039063 C 579.9375 311.738281 595.175781 317.75 611 319 C 592.402344 297.511719 575.296875 263.617188 546 255 C 554.707031 251.382813 571.425781 258.101563 580 261.003906 C 625.515625 276.417969 641.886719 319.78125 654 362 C 656.953125 372.296875 657.324219 389.320313 663.703125 398 C 666.898438 402.183594 677.589844 405.40625 682.472656 402.140625 C 684.984375 400.460938 682 395.226563 681.667969 393 C 680 385.453125 681.515625 377.40625 683.234375 370 C 689.539063 343 701.628906 315.230469 717 292 M 964 278 L 964 279 C 907.46875 290 865.738281 324.339844 848 380 C 841.609375 400.183594 841.800781 420.832031 837 441 C 854.777344 436.785156 872 430.105469 890 426 L 890 427 L 843 447 C 851.953125 449.132813 860.242188 448.535156 868 454.527344 C 875.292969 460.167969 878.667969 470 887 474.164063 C 893.445313 477.480469 900 476.378906 907 477.617188 C 915 479.0625 922.222656 483 929 487.34375 C 985.460938 524.085938 1013.308594 594.265625 1005 660 L 1004 660 C 999.40625 626 978.945313 591.011719 955 567 C 963.425781 585.042969 974.570313 601.058594 981.308594 620 C 996.257813 662.046875 999 707.824219 999 752 L 998 752 C 991.472656 740.226563 978.679688 730 974.800781 717 C 969.613281 699.796875 976.863281 681.5 974.714844 664 C 972.96875 649.789063 963.332031 639.804688 958 627 L 957 627 C 957.96875 639.1875 962.664063 650.746094 963.828125 663 C 964.976563 675.03125 963 687.03125 963 699 C 947.1875 686 950.566406 665.070313 946.574219 647 C 939.871094 616.640625 927.742188 588.28125 915 560 C 910.753906 550.164063 905.558594 540.636719 900.753906 531 C 899 527.585938 895.324219 522.164063 896.695313 518.148438 C 899.285156 510.566406 908.777344 520.515625 911.171875 523.039063 C 921.773438 534.226563 936.46875 545.605469 941 561 C 942.175781 553 935 544.699219 931.28125 538 C 924 525.507813 915.789063 513.507813 905.714844 503.171875 C 898.753906 496.027344 890 490.699219 883.617188 483 C 875 472.679688 869 460.234375 855 456.664063 C 841.902344 453.339844 828 456 815 458.449219 C 811.671875 459.113281 802.609375 463 800 459.394531 C 797.335938 455.644531 802.648438 447.480469 804 444 C 810 430 812.53125 414.457031 817.332031 400 C 837.753906 338.519531 889.515625 262.628906 964 278 M 282 296 C 283.636719 295.453125 283.453125 295.636719 284 294 C 282.6875 294.769531 282.769531 294.6875 282 296 M 301 327 L 302 328 L 301 327 M 994 351 L 994 352 C 972.625 359 949.1875 373.425781 936 392 C 956.53125 386.214844 979.171875 378 1000 387.042969 C 1014 393.25 1021.699219 407 1028.246094 420 C 1042.867188 449.316406 1057.605469 485.355469 1062 518 L 1061 518 C 1040.613281 469.289063 996 429.765625 947 413 L 947 412 C 963.554688 410.683594 979.242188 408 996 408 L 996 406 C 973.585938 405.035156 954.886719 398.597656 932 402.433594 C 915.289063 405.238281 898.839844 410.125 883 416.050781 C 874 419.359375 865.402344 424.59375 856 426 C 861.9375 380.019531 921.738281 358.785156 961 353.425781 C 971.945313 352 983.179688 353.007813 994 351 M 371 367 C 382.265625 368.6875 394.78125 372.320313 406 375 C 398.203125 367.367188 388.476563 364.730469 385 353 C 396.1875 356.058594 409.304688 360.660156 420 365.132813 C 423.507813 366.601563 426.546875 369.21875 427.566406 373 C 429.617188 380.613281 423.460938 388.027344 419.695313 394 C 417.703125 397.15625 415.414063 407.460938 411.738281 408.539063 C 407.636719 409.738281 403.167969 401.425781 400.910156 399 C 390.804688 388.148438 377.5625 381 371 367 M 567 376 L 567 377 C 556.480469 374.121094 546.910156 369.160156 536 367.4375 C 509.816406 363.308594 480.992188 369.277344 458 382.425781 C 445.503906 389.574219 435.902344 400.128906 424 408 C 427.53125 395.734375 436.984375 386 447 378.476563 C 484.804688 350.390625 526.976563 359.335938 567 376 M 596 403 L 596 404 C 588.363281 402.425781 580.835938 399.386719 573 399.039063 C 542 397.671875 512.34375 412.3125 490 433.089844 C 478 444.167969 469.203125 460 457 470 C 464.402344 434.234375 496.242188 400.109375 534 395 L 534 394 C 506.457031 394.226563 476.753906 410.777344 455 426.429688 C 446.980469 432.195313 440.40625 439.742188 432 445 C 432.910156 434 438.390625 423.042969 444.722656 414 C 481.816406 361.011719 548.617188 375.34375 596 403 M 569 377 L 568 378 L 569 377 M 808 454 C 824 446.496094 832.789063 422.511719 834.84375 406 C 835.28125 402.480469 838.527344 386.46875 831.882813 386.347656 C 826.953125 386.253906 826.308594 398.675781 825.574219 402 C 821.605469 420 813 436.367188 808 454 M 598 404 L 597 405 L 598 404 M 911 418.4375 C 918.683594 416.265625 923.78125 427.777344 915.941406 429.667969 C 908.746094 431.398438 903.277344 420.6875 911 418.4375 M 594 422.832031 C 598.195313 421.824219 599.203125 428.246094 595 428.824219 C 591.339844 429.335938 590.589844 423.691406 594 422.832031 M 457 522 C 457.246094 492.003906 477.640625 463.261719 498 443 C 501.679688 439.339844 519.4375 420.0625 525.339844 426.617188 C 529.566406 431.316406 512 444 509 447 C 495.320313 460.742188 483.789063 477.289063 474 494 C 468.6875 503.097656 465.285156 515.136719 457 522 M 943.980469 433.414063 C 952.707031 431.753906 946.339844 443 944.300781 446 C 938.816406 454.46875 930.890625 461.589844 921 464.242188 C 910.714844 467 895 468 886 461.347656 C 882.835938 459.089844 875.910156 452 879.78125 447.742188 C 886.886719 440.015625 896.183594 453.117188 901 455.820313 C 906.734375 459 917.429688 456.550781 922.996094 454.144531 C 932.699219 450 932 435.679688 943.980469 433.414063 M 548 439 C 559.40625 440.714844 565.601563 451.1875 576 455.003906 C 582 457.253906 591.679688 454.625 598 453.566406 C 600.351563 453.171875 612.195313 449.464844 613.167969 452.617188 C 616 462 593.386719 465.75 588 466 C 569.359375 466.6875 554.628906 456.058594 548 439 M 996 491 C 980 485 974.753906 463 956 462 C 976.484375 482.480469 997.539063 501.824219 1012.546875 527 C 1051.179688 591.800781 1046.578125 672.617188 1024 742 C 1022.261719 737.152344 1024.738281 731.097656 1024.960938 726 C 1025.546875 712.660156 1026 699.371094 1026 686 C 1026 652 1020.652344 617.03125 1008.574219 585 C 998 557.386719 983.839844 530.613281 966 507 C 959.371094 498 940.675781 483.394531 940 472 C 939.816406 464.660156 957.703125 442.523438 965 445.730469 C 979.183594 452 993.796875 476.074219 996 491 M 562 475 C 540.539063 486.292969 522.4375 501 509.800781 522 C 506.433594 527.613281 500.9375 536.082031 502.613281 543 C 503 545.132813 505.527344 550 508.402344 549.367188 C 510.609375 549 510.914063 541.816406 511.429688 540 C 514 530.726563 519.21875 523.246094 525.429688 516 C 542.707031 495.832031 569.195313 481.554688 596 481 C 592.1875 489.007813 582.285156 493.03125 576 499.039063 C 564.585938 510 556.316406 522.800781 552 538 C 560 531.425781 565.5625 521.449219 573 514 C 581.570313 505.421875 591 497.035156 602 491.609375 C 604.515625 490.363281 615.304688 486.273438 613.914063 493.015625 C 612.433594 500.191406 595.445313 509.148438 590.429688 515 C 581.335938 525.609375 575.96875 540 566.671875 549.816406 C 554 563.144531 540 570.679688 531.371094 588 C 519 612.652344 514.753906 641 512.171875 668 C 510.503906 685.523438 513.886719 702.203125 495 712 C 497.691406 690.714844 496.28125 669.25 499.425781 648 C 506.527344 600.023438 523.828125 559.742188 551 520 C 541.492188 527.246094 534.734375 537.523438 527.628906 547 C 512.691406 567 496 589.113281 491 614 L 490 614 C 490.617188 599.636719 494.65625 585.347656 499.8125 572 C 501 568.769531 505.867188 560.789063 502.257813 557.753906 C 497.777344 554 490 573.070313 488.769531 576 C 478.613281 598.105469 476 621 476 645 C 467.867188 639 465.410156 628.386719 463 619 C 455.597656 588 466.800781 559.519531 484 534 C 469.386719 536 458.75 546.039063 445 550 C 462.269531 510 510.394531 489.167969 541 461 C 534 461.304688 527.46875 463.507813 521 466 C 523.816406 461.054688 530 450.042969 536.90625 450.546875 C 540.542969 450.816406 542.550781 455.507813 544.519531 458 C 549.628906 464.46875 556.886719 468.679688 562 475 M 785 455 C 755.734375 477.296875 742.949219 518.175781 737 553 C 735.550781 562.085938 734.984375 570.800781 735 580 C 735 582.089844 734.230469 588.460938 737.21875 589.078125 C 739.523438 589.554688 740.765625 585.488281 741.394531 584 C 744 577.683594 747 571.675781 751 566 C 766.386719 543.488281 785.929688 529.464844 809 516 L 809 515 C 784.3125 518.1875 765 534 748 551 C 748.460938 528.601563 758.398438 504.300781 769 485 C 773 478 786.558594 463 785 455 M 992 459 C 997.429688 463 1003 466.425781 1007.984375 471.089844 C 1015 478 1019.304688 485 1017.859375 495 C 1017.492188 497.558594 1016.613281 503.363281 1013 503.363281 C 1009.546875 503.363281 1008.507813 495.441406 1007.65625 493 C 1004.421875 483.753906 990.433594 468.40625 992 459 M 1035 509 L 1034 510 L 1035 509 M 551 519 L 552 520 L 551 519 M 1063 519 L 1062 520 L 1063 519 M 734 525 C 708.964844 559.464844 712.855469 603.175781 716 643 L 715 643 C 702.722656 609.515625 651.785156 591 619 595 L 619 596 C 633.316406 600.351563 647.402344 601.722656 661 609 C 684.664063 621.359375 705.261719 641.730469 714.933594 667 C 724.335938 691.554688 724.734375 720.148438 728 746 L 727 746 C 724.378906 731.289063 713.246094 716.371094 702.996094 706 C 669.214844 671.824219 617.332031 663.257813 572 676 L 572 677 C 583.660156 677 595.308594 675.054688 607 676.171875 C 653.414063 680.589844 697 702.414063 715.453125 747 C 718.28125 754 724.421875 758 729 750 C 735.417969 752.457031 736.824219 746 738.859375 741 C 744.5 727.378906 752.699219 715.414063 766 708.324219 C 797.988281 691.261719 833.773438 699.078125 864 715 C 856.324219 663.03125 784.996094 666.15625 751 686 C 754.613281 680.226563 759.304688 675 764 670.003906 C 767.492188 666.4375 779.792969 659.660156 779.792969 654.316406 C 779.792969 649 765.183594 654.296875 763 655.328125 C 751.625 660.695313 745.8125 671.574219 742 683 C 739.878906 689.355469 733.351563 702.644531 744 703 C 739.683594 707.410156 736.398438 712.769531 732 717 C 731.71875 703.285156 729.320313 691 731.285156 677 C 737.359375 634.148438 766.519531 604.816406 801 582 L 801 581 C 775 585 753.191406 609.625 739.34375 630 C 734.761719 636.742188 729.3125 644.132813 727 652 L 726 652 C 722 622.171875 720.417969 595.03125 724 565 C 725.195313 556.664063 727 548 730 540 C 731.796875 535.394531 735.46875 530 734 525 M 754 593 C 760.28125 590 763.621094 583.097656 768.175781 578 C 775.34375 570 783.390625 562.613281 791 555 C 793.792969 552.207031 803.34375 545.09375 798.523438 540.605469 C 793.300781 535.75 784.390625 544.699219 781 548.015625 C 767.953125 560.78125 759.597656 575.792969 754 593 M 748 551 L 747 552 L 748 551 M 954 566 L 955 567 L 954 566 M 747 658 L 748 658 C 766.324219 626.601563 791.359375 603.113281 827 593 C 819 587.609375 805 593.058594 797 596.203125 C 771.988281 606.03125 747.234375 629.46875 747 658 M 820 608 C 842 604 860.78125 615.140625 882 618 C 878.394531 598.085938 852.210938 599 837 601.4375 C 831.53125 602.320313 823.300781 603.179688 820 608 M 576 641 L 576 643 C 583 642.695313 589.929688 640.351563 597 640.039063 C 629.5 638.605469 679.703125 646.28125 696 679 C 699.742188 669.308594 683.726563 654.292969 677 649.015625 C 655.996094 632.53125 628.734375 628.425781 603 633.261719 C 593.761719 635 585.261719 639.632813 576 641 M 717 644 L 716 645 L 717 644 M 865 685 C 867.710938 688.609375 872.960938 689.144531 877 691 C 884.5625 694.113281 892 698.078125 899 702.425781 C 920 715.5625 939 732.214844 954 752 C 967.574219 769.644531 979 789.792969 985.804688 811 C 988.542969 819.558594 989.824219 839.5625 997 845 C 996.992188 772.730469 944.867188 685.21875 865 685 M 745 702 L 744 703 L 745 702 M 745 747 C 754 744.308594 761 736.773438 769 731.699219 C 778.738281 725.4375 790 721.296875 801 717.746094 C 803.703125 717 818.792969 714.054688 818.792969 710.714844 C 818.792969 703.308594 798.445313 707.28125 795 708.347656 C 774.804688 714.609375 755.367188 728.394531 745 747 M 729 747 L 729 750 L 728 750 C 728.25 748.546875 728.316406 748.246094 729 747 M 1081.667969 766.667969 C 1081.722656 766.722656 1081.777344 767.777344 1081.332031 767.332031 C 1081.277344 767.277344 1081.222656 766.222656 1081.667969 766.667969 M 805 856 C 801.660156 863.019531 795.960938 868.496094 790 873.382813 C 784.492188 878 773.820313 887.324219 766.210938 887.152344 C 762.914063 887.078125 759.871094 882.363281 756.996094 880.824219 C 745.644531 874.738281 737.695313 872 732.453125 859 C 727.519531 847 727.179688 826.488281 718 817 C 717.792969 827 713.25 835.503906 711 845 C 698 837.605469 691.660156 822.621094 677 816.464844 C 672.535156 814.589844 661.570313 814 659.648438 808.773438 C 658.25 805.050781 661.570313 800.742188 663.679688 798 C 670.21875 789.511719 679.710938 784 690 781.15625 C 713 775.109375 743.1875 774.199219 766 781.347656 C 777 784.816406 788.546875 791.574219 792.871094 803 C 793.925781 805.785156 794.625 809.023438 794.789063 812 C 796.238281 838 767.871094 824.160156 754 826.328125 C 744.320313 828 732 838.3125 736.933594 849 C 747.945313 873.515625 786.652344 860.246094 805 856 M 837 782 L 836 783 L 837 782 M 883 827 C 885.246094 831.515625 888 835.78125 892 839 C 890.496094 834 887.714844 829.523438 883 827 M 623 867 C 598.871094 891.328125 578.394531 919.679688 560.800781 949 C 550.847656 965.585938 540.695313 983 536.425781 1002 C 529 1034.734375 537.316406 1070.390625 546.289063 1102 C 549.382813 1113 551.519531 1124.585938 556 1135 L 557 1135 C 556.660156 1118.5625 551.761719 1102.453125 551 1086 C 549 1042 558.460938 999.425781 575.425781 959 C 585 936.046875 596 913.078125 609.320313 892 C 612.957031 886.230469 624.777344 873.773438 623 867 M 680 885 C 671.671875 880.253906 664.1875 874.027344 656 869 C 666.417969 861.105469 677.8125 876 680 885 M 765 1284 L 764 1284 C 767.214844 1259.109375 778 1235.730469 782.574219 1211 C 795.679688 1138.339844 792.226563 1056.378906 737 1001 C 745.257813 1022.285156 759 1041.097656 765.972656 1063 C 782.605469 1115.289063 781.394531 1171.457031 772.414063 1225 C 769.65625 1241.433594 766.320313 1257.75 762.652344 1274 C 761.644531 1278.457031 761.777344 1288.492188 757.574219 1291.246094 C 754.171875 1293.476563 751 1288.171875 749.347656 1286 C 742.992188 1278 736.585938 1269.734375 731 1261 C 709 1226.40625 693.261719 1184.746094 688 1144 L 687 1144 C 688.65625 1182.621094 700.804688 1220.257813 717.320313 1255 C 723.804688 1268.640625 734.792969 1280.292969 739 1295 C 724.605469 1288.289063 712.332031 1267 703.671875 1254 C 683.222656 1223.519531 667.546875 1186.460938 671.171875 1149 C 674 1119.34375 688.425781 1088.621094 699 1061 C 690 1070.269531 685.574219 1089.269531 679.753906 1101 C 670.9375 1118.753906 660.703125 1137.421875 656.664063 1157 C 653.832031 1170.738281 655.945313 1184.226563 656.910156 1198 C 659.960938 1241.539063 667.847656 1290 705 1318 C 681.886719 1336.652344 647.292969 1308.785156 632.871094 1292 C 593.777344 1246.511719 572.71875 1171.578125 577 1112 C 578.496094 1092.820313 594.539063 1091.085938 609 1084.691406 C 612.535156 1083.128906 622.480469 1077.03125 625.78125 1081.601563 C 628.308594 1085.105469 624.46875 1092.472656 623.34375 1096 C 619.460938 1108.183594 616.964844 1121.238281 616 1134 C 614.78125 1153.09375 615.566406 1172 617.84375 1191 C 621.230469 1219.300781 631.300781 1246.660156 639 1274 L 640 1274 C 629.484375 1219.78125 617.832031 1164.652344 633.425781 1110 C 639.636719 1088.246094 650.628906 1067.464844 662 1048 C 637.53125 1058.542969 610 1079.640625 583 1082 C 586.914063 1061.820313 594.324219 1041.226563 601.574219 1022 C 604.21875 1015 606.738281 1004.292969 613.183594 999.742188 C 618.277344 996.148438 631.6875 995.515625 638 995 C 635.46875 1001.082031 632 1006.746094 630 1013 C 653.671875 1002.507813 674.902344 978.679688 701 975.289063 C 710.796875 974.015625 719.417969 978.105469 729 978 C 739.230469 978 748.59375 973.144531 759 975.285156 C 774.90625 978.5625 787.183594 991.078125 803 995.105469 C 809 996.640625 821 995 825.488281 999.433594 C 828.804688 1003 829.386719 1009.578125 830.71875 1014 C 834.21875 1025.621094 837.808594 1037.136719 840.425781 1049 C 854.65625 1113.535156 835.550781 1180.105469 804.691406 1237 C 794.648438 1255.511719 775.949219 1266.496094 765 1284 M 768 996 L 768 997 C 777.574219 1004.097656 785.617188 1012.3125 792.570313 1022 C 833.613281 1079.171875 811.777344 1142.089844 799 1204 C 808.921875 1195 812 1170.757813 815.710938 1158 C 828.421875 1113.71875 839.375 1054.085938 803.960938 1017 C 794.527344 1007.121094 782.300781 996.652344 768 996 M 856 1258 C 856 1240.261719 854.234375 1220.03125 860 1203 C 850 1211.761719 848.617188 1227 845.625 1239 C 838.519531 1267.796875 828.359375 1298.375 826 1328 L 825 1328 L 825 1254 L 824 1254 C 813.265625 1306.007813 792.207031 1351 749 1383.371094 C 737.40625 1392.085938 723.8125 1403.78125 709 1406 C 715.304688 1397.757813 724 1392.140625 729.546875 1383 C 745.632813 1356.035156 754.484375 1325.714844 773 1300 C 789.789063 1277.078125 810.1875 1257.316406 827.574219 1235 C 852.390625 1203.148438 873.40625 1165.488281 882.871094 1126 C 890.910156 1092.453125 883.648438 1059 873 1027 C 870.59375 1019.78125 868.882813 1012.546875 867.871094 1005 C 867.539063 1002.542969 866.304688 998 869.429688 996.660156 C 875.570313 994.21875 879 1007.238281 880.34375 1011 C 886.710938 1029.15625 891.933594 1047 894.285156 1066 C 900.738281 1118.539063 899 1166.578125 878 1216 C 872.65625 1228.566406 866.460938 1249.03125 856 1258 M 824 1233 L 823 1233 C 826.726563 1217.28125 835.390625 1202.203125 840.945313 1187 C 853 1153.597656 863.992188 1117 863.992188 1081 C 863.992188 1055 854.945313 1032.476563 848 1008 C 870 1018.332031 872.5 1050 873 1071 C 873.984375 1110.550781 866.273438 1148.777344 849.691406 1185 C 842 1201.492188 830.941406 1216.328125 824 1233 M 915 1010 C 915.40625 1012.09375 915.21875 1012.019531 917 1013 C 916.308594 1011.613281 916 1011.140625 915 1010 M 726 1014 C 697.589844 1062.675781 709.886719 1126.140625 733.753906 1174 C 740.515625 1187.558594 748 1206.285156 760 1216 C 756.394531 1200.425781 746.574219 1186.664063 740.425781 1172 C 730 1147.183594 722.765625 1119.8125 720.171875 1093 C 718.480469 1075.5625 718 1057.304688 721.308594 1040 C 722.777344 1032.1875 729.238281 1021.796875 726 1014 M 1056 1217 L 1054 1221 C 1055.859375 1219.734375 1056.367188 1219.222656 1056 1217 M 708 1406 L 707 1407 L 708 1406 "/>
</g>
</svg>
