<?xml version="1.0" encoding="UTF-8"?>
<svg xmlns="http://www.w3.org/2000/svg" xmlns:xlink="http://www.w3.org/1999/xlink" width="1500pt" height="1500pt" viewBox="0 0 1500 1500" version="1.1">
<g id="surface1">
<path style=" stroke:none;fill-rule:nonzero;fill:rgb(0%,0%,0%);fill-opacity:1;" d="M 310 1070 C 307.871094 1053.511719 308 1038.589844 308 1022 L 309 1022 C 309.664063 1037.460938 316.898438 1053.121094 323.230469 1067 C 339.769531 1103.253906 366.460938 1147.453125 404 1165 C 399.875 1152.558594 387.25 1144.164063 382 1132 C 460.28125 1210.28125 552.847656 1283.59375 657 1324 C 654 1318.109375 647.503906 1315.367188 642 1312.140625 C 632.53125 1306.582031 623.382813 1300.492188 614 1294.796875 C 580.308594 1274.339844 546.859375 1252.566406 516 1228 C 446.285156 1172.496094 396.863281 1092.53125 361 1012 C 370.488281 1016 379.691406 1021.605469 390 1023 C 382 1011.757813 369.742188 1004.488281 360 995 C 331.765625 967.441406 294 925 294 883 L 295 883 C 300.339844 895.761719 310.605469 905.125 319.910156 915 C 346.214844 943 378.890625 965 416 975.574219 C 451.617188 985.734375 491.632813 989.320313 522 1012.503906 C 545.890625 1030.742188 555 1060.5 575 1082 C 590.988281 1099.011719 615 1106.527344 638 1107 L 638 1108 C 632.574219 1108.046875 614.476563 1111.03125 623.234375 1119.722656 C 636.226563 1132.609375 653.261719 1109 666 1110.371094 C 673.386719 1111.21875 680.871094 1116.523438 688 1118.804688 C 703 1123.625 718.214844 1126.269531 734 1127 C 758.625 1128.039063 785 1123.507813 809 1117.765625 C 816.46875 1116 823.386719 1111.386719 831 1110.339844 C 844 1108.546875 861.640625 1132.742188 874.765625 1119.722656 C 883.410156 1111.144531 865.402344 1108.113281 860 1108 L 860 1107 C 881.441406 1104.277344 903.40625 1100.769531 919.960938 1085.710938 C 943.992188 1064 951.714844 1029.691406 979 1010.4375 C 1009.292969 989.066406 1047.574219 986.628906 1082 976 C 1129.433594 961.292969 1177.71875 927.265625 1203 884 C 1206.769531 899.824219 1198.316406 917.425781 1190.855469 931 C 1178.722656 953.085938 1162.425781 972.746094 1144 990 C 1132.339844 1000.773438 1117.230469 1010 1108 1023 C 1118.78125 1022.058594 1128.382813 1016.46875 1138 1012 C 1131.460938 1035 1117.695313 1057.261719 1106.304688 1078 C 1070 1144 1021 1200.464844 960 1244.574219 C 932.699219 1264.289063 904.480469 1282.378906 876 1300.320313 C 865.742188 1306.78125 846.558594 1313.773438 840 1324 C 865 1318.074219 889.582031 1301.460938 912 1289.308594 C 988.371094 1248 1056.742188 1192.257813 1118 1131 C 1111.5625 1142.550781 1098 1152 1095 1165 C 1144.335938 1138.738281 1180.925781 1077.679688 1192 1024 L 1193 1024 C 1192.359375 1039 1191 1054.585938 1187 1069 C 1198.914063 1063 1205 1038.816406 1209.800781 1027 C 1227.3125 983.222656 1235 937.082031 1233.984375 890 C 1232.179688 816.316406 1219.941406 738.273438 1201 667 C 1196 648 1189 629.335938 1181.9375 611 C 1178.527344 602.246094 1172.597656 593.5 1171.554688 584 C 1170.726563 576.46875 1174.660156 568.417969 1175.714844 561 C 1178.199219 543.472656 1179.703125 525.636719 1180.910156 508 C 1182.667969 482.351563 1173 457.519531 1172.710938 432 C 1172.59375 422.054688 1176.804688 412.78125 1177.828125 403 C 1180 382.253906 1180.339844 360 1178.910156 339 C 1175.667969 291.636719 1167.390625 244.574219 1150.574219 200 C 1142.839844 179.488281 1132.988281 157.378906 1111 149.066406 C 1084.792969 139.15625 1058.84375 159 1041 175.828125 C 1013.191406 202.167969 992.542969 235.058594 973.425781 268 C 962.816406 286.277344 954.550781 310 937 322.570313 C 929.492188 328 918 339 909 340.566406 C 901.289063 342 891.53125 336.386719 884 334.804688 C 866.191406 331.058594 848 329 830 327.171875 C 776.804688 322.105469 720.324219 324.703125 667 327.039063 C 648.371094 328 629.199219 331 611 335.015625 C 603.195313 336.742188 593.9375 342.667969 586 339 C 541.664063 318.4375 527 265.46875 500.574219 228 C 495.582031 221 490.570313 214 485.371094 207 C 462.484375 176.535156 415.34375 123.757813 374 156.667969 C 353.851563 172.710938 345.523438 204.285156 338.710938 228 C 325.292969 274.691406 316.929688 327.371094 318 376 C 318.574219 394.121094 324.605469 411.226563 325.910156 429 C 327.390625 449.203125 318.917969 469 318 489 C 317 510.25 319.691406 532 322.285156 553 C 323.613281 563.78125 328 575.125 326.824219 586 C 325.492188 598.265625 317.445313 609.667969 313 621 C 304.773438 642.429688 298.183594 664.652344 292.882813 687 C 278.292969 748.546875 274.652344 811.546875 267.285156 874 C 261.527344 922.808594 270.285156 977 286 1023 C 289.902344 1034.441406 295.347656 1045.21875 300.753906 1056 C 303 1060.765625 305.445313 1067.027344 310 1070 M 404 187 C 408.1875 192 414.609375 193.023438 420 196.257813 C 426.386719 200.089844 431.890625 205.464844 436.824219 211 C 456 232.644531 468.371094 264.246094 481.246094 290 C 489.261719 306.03125 499.570313 323 502 341 C 496.367188 337.03125 491.785156 331.828125 486 328 C 490.441406 338.667969 498.535156 348.046875 502 359 C 495 357 489.277344 352.480469 483 349 C 489 360.339844 498 370.117188 503 382 C 495.308594 379.78125 489.1875 374.359375 482 371 C 488.566406 380.65625 497.664063 390.65625 501 402 L 481 395 C 484 400.660156 493.800781 410.402344 492.507813 417 C 491.496094 422.140625 484.816406 425.699219 481 428.652344 C 469.582031 437.484375 458.203125 445.351563 445 451.304688 C 440.796875 453.203125 434 457.527344 429.277344 455.394531 C 423 452.585938 423.351563 432.007813 422.910156 426 C 420.734375 396.285156 417.515625 364.535156 423 335 C 434.441406 339 445.417969 344.6875 457 348 C 448.355469 331.335938 424.5625 323.824219 409 315.136719 C 397 308.527344 389.949219 299.804688 381 290 C 383.734375 300.574219 385 312.117188 386 323 L 385 323 C 382 312.210938 377.886719 298.328125 365 297 C 378.648438 308.367188 372.222656 318.378906 378 333 C 381.554688 341.476563 389.839844 347 394 355 C 387.273438 350.550781 381.683594 345 374 342 C 380.996094 358.214844 391 371.683594 396 389 C 384 380.636719 374.582031 369.765625 362 362 C 366.933594 382.777344 384.472656 393.636719 396 410 C 386.277344 407.140625 379 399.28125 370 395 C 376.246094 409.496094 387.316406 420.515625 395 434 C 388.722656 431.566406 382.566406 428.554688 376 427 C 386 437.070313 400.824219 445.53125 405 460 C 394.371094 457.5625 384.339844 453.363281 374 450 C 407.816406 483.113281 445.585938 466.515625 483 452 C 478.484375 464.3125 467 474 459 484 C 439.679688 508.015625 418.996094 531 401 556 C 439.421875 529.042969 470.613281 491.582031 504 459.015625 C 528.980469 434.644531 556.863281 414.726563 583 392 C 590.269531 385.476563 597.199219 379.074219 602.640625 371 C 606.332031 365.523438 608.335938 357.753906 614 354 C 623.574219 347.710938 637 348 648 346.828125 C 674.558594 344.292969 701.292969 344 728 344 C 762.78125 344 797.335938 344.386719 832 346 C 847.414063 346.660156 868.898438 346.082031 882.996094 353 C 890.429688 356.523438 892.8125 366.574219 897.429688 373 C 904.710938 383.140625 914.472656 391 924 399 C 947 418.125 971.253906 436.246094 993 457.039063 C 1028.90625 491.375 1062.480469 530 1103 559 C 1085.917969 534.65625 1064.214844 511.53125 1044.71875 489 C 1035.253906 478.0625 1022 467 1017 453 C 1028 456.183594 1037.859375 463 1049 466.277344 C 1075.492188 474.140625 1103.730469 469.386719 1124 450 C 1116.722656 453.027344 1109.6875 456.558594 1102 458.523438 C 1100.328125 459 1094.664063 461 1093.828125 458.382813 C 1092.878906 455.476563 1097 451.027344 1098.667969 449.039063 C 1105.371094 441 1114.722656 434.738281 1122 427 L 1103 434 C 1108.359375 420 1120.867188 408.402344 1128 395 L 1101 412 C 1105.515625 403.296875 1114.375 397.515625 1120.535156 390 C 1127.507813 381.492188 1131.515625 371.398438 1137 362 C 1123.675781 368.636719 1114.816406 381.628906 1102 389 C 1108.363281 372.605469 1118.28125 358.136719 1125 342 C 1117.355469 344.25 1111.808594 350.121094 1105 354 C 1109 346.246094 1116.910156 341.125 1120.46875 333 C 1125.8125 320.792969 1119.503906 306 1134 299 L 1134 298 C 1121.613281 298.644531 1115.632813 311 1114 322 L 1113 322 C 1113 312 1114.4375 300.492188 1118 291 C 1109.9375 297.183594 1104.878906 306 1096 311.5625 C 1079.664063 322 1048.539063 329.539063 1041 349 C 1051.933594 342.617188 1064 339 1076 335 C 1076 365.050781 1078.371094 395.070313 1075 425 C 1074.46875 431.496094 1075.242188 451 1069.484375 455 C 1065 458.085938 1056 452.71875 1052 450.742188 C 1039.46875 444.679688 1027.828125 437.527344 1017 428.738281 C 1013.40625 425.820313 1007.386719 422.523438 1005.761719 418 C 1003.289063 411.027344 1014.179688 402 1017 396 L 997 402 C 1001.515625 391.160156 1008.875 381.269531 1016 372 C 1009 375 1003 379.535156 996 382 C 999.511719 370.066406 1009.773438 361.179688 1015 350 C 1008.359375 352.777344 1002.59375 357.15625 996 360 C 999.363281 348.328125 1007.363281 338.585938 1013 328 C 1006.9375 331.503906 1002.671875 337.003906 997 341 C 998.421875 324.726563 1008.585938 308.339844 1015.753906 294 C 1030.195313 265.113281 1043.304688 230.507813 1066 207.003906 C 1074.773438 198 1087.566406 195.183594 1096 187 C 1067.335938 192.402344 1053.339844 212.617188 1038.308594 236 C 1022 261.28125 1007.3125 287.492188 991.425781 313 C 982.988281 326.546875 973.765625 339.199219 963 351 C 959.648438 354.675781 955.609375 361.625 950 361.640625 C 946 361.648438 929.519531 353.71875 930.753906 349 C 931.890625 344.605469 939.539063 341.628906 943 339.332031 C 951.855469 333.460938 960.359375 327.472656 965.691406 318 C 991 273 1016.84375 220.175781 1056 185.285156 C 1072.28125 170.78125 1097.894531 153.140625 1116.699219 174.039063 C 1131 190.015625 1136.21875 213 1142 233 C 1156.941406 285 1165.964844 341.054688 1160.828125 395 C 1159.839844 405.414063 1159.351563 417.828125 1153.785156 427 C 1145.429688 440.773438 1122.710938 449.429688 1130.878906 469 C 1132.660156 473.273438 1135 477.125 1137.65625 481 C 1140 484.738281 1141.832031 489 1145 492 C 1141.277344 476.546875 1139 453.046875 1156 445 C 1160.34375 468.0625 1168.597656 495.652344 1157.742188 518 C 1150.167969 533.589844 1134.722656 545.28125 1117 538.53125 C 1098.484375 531.480469 1084.75 513.46875 1071 500 C 1090.289063 546.320313 1129.40625 579.824219 1157.5625 620 C 1164.417969 629.785156 1169 640.667969 1172.65625 652 C 1173.527344 654.734375 1176.480469 661.464844 1173.96875 664 C 1170.308594 667.617188 1160.222656 660.242188 1157 658.425781 C 1141 649.40625 1124.347656 641.121094 1109 631 C 1116.9375 646 1131 659.269531 1135 676 C 1106.273438 674.765625 1080.300781 654.832031 1057 640.054688 C 1004.425781 606.707031 950.324219 573.515625 888 604.753906 C 873.363281 612.089844 859.234375 622.550781 851 637 C 882.511719 605.746094 944.25 584.175781 979.710938 622.089844 C 988.285156 631.257813 994.175781 643.34375 998.574219 655 C 1001.90625 663.828125 1003.664063 673.273438 1012 679 C 1021.683594 685.421875 1033.464844 688.496094 1044 693.308594 C 1065.734375 703.234375 1086.398438 715.023438 1106 728.71875 C 1115.664063 735.472656 1126 742.238281 1133 752 L 1112 751 C 1121.710938 759.558594 1138.761719 761.4375 1150 768.699219 C 1167 779.738281 1177 797.460938 1188 814 C 1193.625 822.484375 1200.628906 830.269531 1204 840 C 1190.472656 840 1177.597656 842.636719 1165 836 C 1169.246094 842.03125 1174.941406 846.527344 1181 850.65625 C 1184 852.71875 1188.980469 855 1189.574219 859.039063 C 1190.25 863.675781 1185.246094 868 1182.589844 871 C 1174.621094 880.496094 1166.746094 890.210938 1158 899 C 1136.847656 920.253906 1113.386719 941.425781 1084 950.277344 C 1058.617188 958 1030.285156 955.082031 1006 966.488281 C 985.464844 976.136719 975.289063 998 956 1009 C 959 996.34375 968.730469 986.453125 972.464844 974 C 974.492188 967.230469 971.390625 959.609375 964 958 C 954 955.601563 946.238281 968.128906 943.914063 976 C 936 1002.621094 932.230469 1034.097656 905 1048.675781 C 883.914063 1060 865.1875 1048.121094 849 1034.269531 C 829.335938 1017.449219 810 1000.113281 789 985 L 789 984 C 800 985.503906 809.363281 992 820 995 C 810.738281 984.390625 800.417969 974.019531 793 962 C 808.246094 969.597656 819.886719 989.253906 839 980 C 833 977.074219 826.941406 973.339844 823 968 C 828.910156 969.402344 834 972.597656 840 974 C 832.953125 967.011719 818.273438 960.089844 819 949 C 819.878906 938.390625 826.28125 928 831.421875 919 C 832.382813 917.316406 837 911 834.292969 909.253906 C 831.566406 907.566406 826.816406 912.445313 825 914 C 816.925781 920.460938 808.171875 926 799 930.832031 C 771 945.632813 739.308594 948.695313 710 935.691406 C 697.875 930.3125 686.777344 923.390625 676 915.710938 C 673.726563 914.089844 666.78125 907.351563 663.707031 909.253906 C 660.804688 911.046875 666 918.226563 667 920 C 672.429688 929.257813 679.851563 941 679.722656 952 C 679.625 960 663.402344 969.597656 658 975 C 663.976563 972.515625 669.664063 969.5 676 968 C 671.683594 973.628906 665 977.105469 660 982 C 665 982.105469 670 983.605469 675 982.210938 C 687.183594 978.769531 694.976563 967.492188 706 962 C 699 974.464844 688.308594 984.34375 679 995 C 689.746094 992.511719 699 985.613281 710 984 L 710 985 C 687.234375 1000.359375 668 1019.589844 647 1037.078125 C 630.8125 1050.539063 612 1059.785156 592 1048 C 566.886719 1033 562 1002.820313 555 977 C 552.960938 969 546.226563 956 536 957.628906 C 528.746094 958.792969 525 966.25 526.53125 973 C 529.429688 986 539.921875 996.042969 543 1009 C 522.519531 999.269531 512.9375 975.820313 492 966.3125 C 468.484375 955.632813 441.589844 957.578125 417 951 C 386.335938 942.453125 359.410156 921.59375 338.714844 898 C 330.621094 888.773438 322.820313 879.34375 314.871094 870 C 312.332031 867.015625 307.3125 862.453125 309 858.039063 C 312.441406 850.042969 328.65625 843.289063 335 837 C 325.34375 839.214844 316.933594 840 307 840 C 304.640625 840 298.613281 841 297.253906 838.398438 C 296 836.085938 298.828125 832.8125 299.949219 831 C 303.9375 824.558594 308 818.183594 312.425781 812 C 329.429688 788 353.921875 755.800781 386 753 L 386 751 L 367 752 C 372.726563 741 385.207031 734.6875 395 727.710938 C 411.433594 716 428.734375 705.410156 447 696.78125 C 459.527344 691 473 686.792969 485 679.648438 C 494.261719 674.105469 496.199219 665.355469 499.8125 656 C 504.21875 644.582031 509.257813 633.378906 517.300781 624 C 544.324219 592.476563 590.679688 599.394531 623 618 C 632.339844 623.214844 639.351563 631 648 637 C 638.25 625.734375 629 615.390625 616 608 C 606.261719 602.304688 595.847656 598.011719 585 595.152344 C 517.183594 577.289063 464.503906 631.394531 409 660.214844 C 394.3125 668 378.832031 672.539063 363 677 C 369.835938 660.589844 383.945313 647.539063 390 631 C 375.738281 642 358.511719 652.507813 342 659.574219 C 339.222656 660.761719 327.851563 667 325.605469 663.355469 C 323.722656 660.328125 325.90625 654.144531 326.652344 651 C 329.511719 639 336 628 343.378906 618 C 372.414063 578.726563 404.828125 543.539063 428 500 C 418.828125 509.171875 410 519.308594 400 527.535156 C 374.46875 548.472656 343.351563 539.75 336.449219 506 C 332 484.761719 340.300781 465.804688 342 445 C 358.371094 453.5625 356.757813 476.75 353 492 C 356.175781 488.542969 359 485 361.644531 481 C 363.933594 477.550781 366 474 367.53125 470 C 375 450.035156 351.839844 441.355469 343.90625 427 C 338.886719 418 338 406.148438 337.171875 396 C 332.183594 343.621094 340.757813 290.578125 354 240 C 359.738281 218.714844 365.257813 193 380.183594 176 C 399.828125 153.683594 426.53125 168.742188 444 186.003906 C 481.796875 223.351563 505.996094 271 532.863281 316 C 538.210938 325 545.644531 331.71875 554 338 C 557.703125 340.5625 565 343.578125 566.824219 348.050781 C 568.796875 353 552 361.546875 548 361.652344 C 542.171875 361.800781 538.339844 354.769531 534.925781 351 C 523.8125 338.726563 514.3125 325.183594 505.800781 311 C 489.789063 284.320313 474.878906 257 457.667969 231 C 449.207031 218.246094 441 203.742188 428 195.109375 C 420.6875 190.304688 412 189.726563 404 187 M 387 259 C 387 290.070313 413.820313 308.570313 437 324.34375 C 445.464844 330.101563 453.851563 337.566406 464 340 C 458.835938 333.265625 450.609375 328.679688 444 323.398438 C 432.394531 314.128906 421.480469 304.53125 411 294 C 400.730469 283.679688 396.828125 268.726563 387 259 M 1111 259 C 1100.472656 281.511719 1085 297 1066 312.75 C 1056.3125 320.753906 1039.675781 329 1035 341 C 1058.378906 331.265625 1088.46875 311 1102.960938 290 C 1108.183594 282.480469 1116.386719 268.007813 1111 259 M 1113 323 L 1112 324 L 1113 323 M 387 324 L 386 325 L 387 324 M 718 360 C 718 375 720.613281 390.078125 719.960938 405 C 719.453125 416.605469 716.535156 427.589844 715 439 L 714 439 C 714 430.828125 715.972656 416.011719 708 411 C 708 431.269531 705.316406 453.515625 700 473 L 699 473 C 696 450.617188 687.21875 428.601563 678.425781 408 C 675.214844 400.46875 672.84375 390 665 386 C 673 421.566406 679.777344 457.601563 688.628906 493 C 694.949219 518.296875 702.496094 545.007813 717 567 L 718 567 C 717.515625 555.761719 712.890625 545.171875 712 534 L 713 534 C 714.902344 555.800781 727 577.285156 731.195313 599 C 737.433594 631.34375 739 664.320313 742.171875 697 C 744.398438 720.027344 748 742.824219 748 766 L 750 766 C 754 715 756.316406 662.519531 765.425781 612 C 770.476563 584 782.882813 557 787 529 L 788 529 C 786.328125 541.425781 782.585938 553.523438 781 566 C 792 557.382813 798.933594 537 803.808594 524 C 813.191406 499.089844 817.1875 471.050781 822.398438 445 C 826.328125 425.359375 832.410156 405 834 385 C 828 389 824.773438 399.660156 821.78125 406 C 811.753906 427.230469 805.273438 450.195313 800 473 L 799 473 C 796 453.691406 796.824219 429.21875 790 411 L 789 411 C 786.496094 419.234375 785.179688 429.386719 785 438 L 784 438 C 782 428.054688 778.789063 418.148438 778 408 C 776.988281 392.027344 780 376 780 360 L 779 360 C 759.59375 403.785156 750 461.332031 750 509 L 749 509 C 749 472.292969 742.765625 435.582031 733.871094 400 C 730.703125 387.320313 728.601563 368.785156 718 360 M 633 419 C 635.941406 426.773438 641.46875 433.550781 645.191406 441 C 652.734375 456.085938 657 472.148438 657 489 C 639.910156 474.070313 627.675781 448 604 443 C 607.277344 449.082031 614.171875 453.136719 618.226563 459 C 625.472656 469.472656 628.613281 481.6875 631 494 C 608.332031 484.5625 587.535156 479 563 477 L 563 479 C 578.195313 480.242188 590 490.261719 599 502 C 573.996094 502 537.578125 498.664063 521 522 C 532.816406 521.484375 543.976563 518 556 518 L 556 519 C 535 522.734375 523.878906 546.613281 508 558.472656 C 498.878906 565.285156 480.242188 566.546875 469 568 L 469 569 C 480 572.265625 493.527344 569.535156 505 570.039063 C 525.265625 571 549.570313 580.601563 569 572 L 569 571 C 561.65625 566.714844 553.292969 563 545 561 L 545 560 C 557 562.476563 568.820313 565.460938 581 567 C 577.585938 561 563.484375 557.753906 563.484375 550.015625 C 563.484375 544.03125 575.628906 539 580 536.425781 C 597.335938 526.511719 619.636719 517.273438 640 522 C 669.621094 528.601563 691.472656 558.519531 700.667969 586 C 703.667969 595 706.957031 604.394531 705.710938 614 C 702.515625 638.589844 684.914063 660.082031 668 677 C 668.648438 674.289063 668.941406 671.785156 669 669 C 666 671.394531 659.9375 683 655.675781 681 C 651.976563 679.214844 650.332031 672.429688 648.769531 669 C 644.882813 660.480469 641.554688 651.335938 633 646.363281 C 616.511719 636.777344 587.316406 639 571 648 C 564 651.742188 559.308594 658.785156 552 662.03125 C 538.363281 668.082031 522.78125 662.492188 516 680 C 528.773438 680 543.644531 673.566406 556 679 C 562.175781 681.496094 564.738281 688.070313 569.300781 692.5625 C 576.960938 700.101563 587.363281 704.246094 598 705 C 608 705.671875 617.847656 705.339844 628 704 C 631 703.605469 635.960938 702.421875 637.304688 706.230469 C 639.933594 713.695313 627.464844 725.109375 623.269531 730 C 609 746.609375 591.515625 760.324219 572 770.242188 C 565.421875 773.589844 556.730469 779.371094 549 777.4375 C 539.964844 775.179688 533.484375 765.261719 528.667969 758 C 516.257813 739.304688 508.273438 718.316406 497 699 L 496 699 C 496.46875 721.65625 507.8125 747.535156 516.863281 768 C 521.488281 778.464844 529.339844 789.210938 529.894531 801 C 530.171875 807 527.300781 812.378906 526 818 C 541 814.425781 552.6875 803.28125 567 798 C 561.679688 805.175781 556 812.425781 549.714844 818.710938 C 544.898438 823.464844 538.941406 826.691406 536 833 C 566.414063 824.433594 586 805 608 783 C 632 759 655 734 679 710 C 689.652344 699.347656 700 688.449219 711 678.039063 C 716.503906 672.777344 723.457031 668.480469 726 661 C 711 668 698.226563 678.660156 683 685 C 699 667.554688 716.769531 645.078125 720.5625 621 C 723.621094 601.558594 717.378906 580.253906 708.753906 563 C 700 545.738281 682.648438 528.472656 677.765625 510 C 675.722656 502.28125 676.785156 494 675.5625 486 C 671.753906 461.621094 659.324219 426.597656 633 419 M 816 685 C 800.898438 678.492188 788.222656 667.339844 773 661 C 775.871094 668.40625 782.488281 672.640625 788 678.015625 C 799 689 810 700.003906 821 711 C 838.949219 729 857.605469 746.425781 874.910156 765 C 901.464844 793.507813 925.265625 822.089844 964 833 C 961.242188 827.132813 955.632813 824.21875 951 819.828125 C 944.449219 813.410156 937.894531 806 933 798 C 946.769531 804.4375 958.929688 814.429688 974 818 C 972.636719 812.242188 969.722656 807.078125 970 801 C 970.820313 789.078125 978.570313 777.75 983 767 C 991.988281 746.246094 1002 721.796875 1003 699 L 1002 699 C 990.425781 718 982.820313 739.03125 971.1875 758 C 966.273438 766.019531 959 776.152344 949 777.65625 C 941.511719 778.777344 933.34375 773.566406 927 770.21875 C 907.789063 760.082031 890.644531 746.285156 876.285156 730 C 872 725.328125 858.917969 713.527344 862.214844 706.148438 C 863.933594 702.296875 868.785156 703.5625 872 704.078125 C 880.601563 705.46875 890.328125 706.71875 899 705.574219 C 909.226563 704.230469 917.792969 702.515625 926 695.675781 C 932 690.613281 936.601563 682 944 678.703125 C 955.777344 673.6875 970.757813 680 983 680 C 976 664.15625 961.363281 668.140625 948 662.519531 C 940.644531 659.425781 935.960938 652.230469 929 648.347656 C 911.695313 638.703125 883.574219 637.039063 866 646.800781 C 857.734375 651.394531 854.425781 661 850.691406 669 C 849.226563 672.191406 847.234375 678.527344 843.785156 680.078125 C 838.933594 682.261719 832.476563 670.566406 829 668 L 831 678 C 814.417969 661.066406 797.207031 640.132813 793.4375 616 C 791.898438 606.144531 795.246094 596.226563 798.332031 587 C 807.234375 560.402344 828.328125 530 857 522.664063 C 878 517.375 902 525.519531 920 536.683594 C 924.449219 539.449219 935.386719 544.035156 935.964844 550.003906 C 936.695313 557.550781 922.238281 561.25 919 567 C 932.214844 565.320313 944.613281 559.574219 958 559 L 958 560 C 950 561.175781 935 566 931 573 C 963.453125 573.003906 995.402344 570 1028 570 C 1021.691406 561.675781 1003.894531 565.148438 995 561 C 975 551.277344 966.660156 522.558594 943 519 L 943 518 C 955.367188 518 966.851563 521.46875 979 522 C 963.613281 500.664063 922.46875 498.644531 899 503 C 908.726563 490.390625 918.664063 481.109375 935 479 L 935 478 C 920.3125 474.816406 899.679688 481.832031 886 487.066406 C 882.679688 488.335938 872 495.238281 868.894531 492.097656 C 865.441406 488.765625 872 475.601563 873.605469 472 C 875.328125 467.75 877.402344 463.761719 880 460 C 884.367188 454 891.328125 449.386719 895 443 C 870.933594 448.570313 858 474.261719 841 490 C 841.222656 463.234375 853.429688 442.578125 866 420 C 839.21875 424.773438 826.320313 463.648438 823.289063 487 C 822.25 495.007813 823.460938 503.039063 821.472656 511 C 817 529 799.550781 545.4375 791.269531 562 C 787 570.242188 783.585938 579.109375 781 588 C 770.332031 627.53125 792.296875 655.792969 816 685 M 1124 449 L 1125 450 L 1124 449 M 788.667969 526.667969 C 788.722656 526.722656 788.777344 527.777344 788.332031 527.332031 C 788.277344 527.277344 788.222656 526.222656 788.667969 526.667969 M 712 529 L 712 534 L 711 534 C 711 532.035156 711.222656 530.769531 712 529 M 399 558 C 400.3125 557.230469 400.230469 557.3125 401 556 C 399.363281 556.546875 399.546875 556.363281 399 558 M 540 558.332031 C 540.773438 558.332031 540 558.832031 539.667969 558.667969 L 540 558.332031 M 960 558 L 959 559 L 960 558 M 545 559 L 545 560 L 542 560 C 543.246094 559.316406 543.546875 559.25 545 559 M 922 587 L 922 588 C 955.476563 588 985.714844 585.546875 1019 592 C 1014.921875 585.457031 1003.902344 584.492188 997 582.339844 C 980 577.085938 959.472656 572.1875 942 577 C 934.742188 579 928.890625 584.117188 922 587 M 478 591 L 478 592 C 493.683594 590.71875 509.183594 587.171875 525 586.089844 C 540.875 585.003906 557 587.320313 573 588 C 568.542969 580.652344 557.910156 578.320313 550 576.804688 C 527.335938 572.46875 497.796875 579.734375 478 591 M 594 657.34375 C 603.363281 655.210938 616.183594 661.738281 601 665.101563 C 596.472656 666.105469 586.703125 659.03125 594 657.34375 M 892.335938 657.601563 C 897.625 655 915.65625 658.117188 903.980469 664.425781 C 898.984375 667.128906 886.480469 660.648438 892.335938 657.601563 M 575 666 C 585.929688 675.300781 594.703125 688.328125 611 682.046875 C 615.886719 680.160156 624.394531 667.195313 628.679688 668.496094 C 633 670 640.8125 684.101563 635.679688 687.425781 C 631.878906 690 624.425781 689.765625 620 690 C 604.597656 690.636719 589.742188 692 579.789063 678 C 577.414063 674.6875 574.3125 670.132813 575 666 M 926 666 C 922 688.253906 902.195313 690.027344 884 690 C 878.542969 690 867.804688 690.59375 863.332031 687.0625 C 858.746094 683.4375 866.652344 669.6875 871 668.460938 C 875.214844 667.351563 885.265625 681.496094 891 683.070313 C 906.65625 687.378906 914.949219 673.785156 926 666 M 817 685 L 816 686 L 817 685 M 428 772 L 427 772 C 425.769531 762.316406 423 752.808594 423 743 C 418.796875 746.199219 419.242188 753.117188 418.574219 758 C 417 769.179688 416.726563 780.691406 409.472656 790 C 395 808.511719 366.679688 809 353 828 C 375.519531 824.121094 396 807.675781 417 799 C 409.683594 815.527344 399.640625 837.128906 397 855 L 398 855 C 404.1875 846 410.730469 837.058594 416.976563 828 C 418.832031 825.304688 421.425781 819.316406 425 818.78125 C 428 818.339844 430.425781 822.050781 432 824.003906 C 436.820313 829.601563 441.8125 834.8125 447 840 C 459.46875 852.464844 473.253906 863.445313 487 874.449219 C 495 881 502.515625 888.511719 512 893 C 509.855469 884 501.183594 876 495.269531 869 C 479.796875 851 456.339844 833.277344 446.878906 811 C 443.28125 802.527344 444.96875 792 445.828125 783 C 447.878906 761.816406 455.183594 742 458 721 C 437.921875 725.769531 429.5 753.652344 428 772 M 985 893 C 993.894531 891 1001 882.746094 1008 877.085938 C 1022.816406 865 1038.179688 853.335938 1051.960938 840 C 1057.386719 834.625 1062.585938 828.707031 1067.574219 823.003906 C 1069 821.261719 1071.566406 817.324219 1074.335938 817.78125 C 1077.949219 818.382813 1081 825.285156 1083 828 C 1088.492188 836 1094.746094 849.007813 1103 854 C 1098.683594 835.34375 1090.753906 815.488281 1083 798 C 1101.871094 808.042969 1123 825.085938 1145 827 C 1131.9375 811.195313 1107.585938 807.148438 1093 793 C 1082.3125 782.53125 1079 757.53125 1079 743 C 1072.917969 747.296875 1073 766.800781 1073 774 C 1070.191406 766.550781 1068.527344 758.582031 1066 751 C 1063.253906 742.761719 1061.46875 731.410156 1053.957031 726.105469 C 1052.179688 725 1043.40625 719 1042.488281 723.332031 C 1041 730.046875 1046.558594 740.515625 1048.265625 747 C 1052.570313 763.351563 1059.199219 793 1052.648438 809 C 1039 842.40625 1000.1875 861.074219 985 893 M 933 798 C 931.363281 797.453125 931.546875 797.636719 931 796 C 932.636719 796.546875 932.453125 796.363281 933 798 M 568 797 L 567 798 L 568 797 M 749 890 C 752.632813 901.484375 747.253906 920.527344 759 928.257813 C 770.597656 936 790 922.628906 800 917.140625 C 811.796875 910.597656 824.871094 904.621094 833.671875 894 C 846.574219 878.421875 847 845.023438 834.609375 829 C 823.734375 815.105469 806.753906 808.769531 790 805.398438 C 757.28125 798.816406 719.207031 798.070313 688 811.425781 C 660.554688 823.175781 646.796875 855.582031 658.257813 884 C 666.820313 905.238281 693.589844 915.003906 713 923.425781 C 719.941406 926.433594 730.195313 933 737.816406 928.542969 C 747.90625 922.78125 748.992188 900.214844 749 890 M 714 822.285156 C 734.507813 819.832031 756.925781 822.316406 777 826.660156 C 780.757813 827.476563 803.246094 834.464844 791.886719 840 C 784.1875 843.53125 773.328125 843 765 843 C 748.9375 843 733 842.738281 717 842.039063 C 709.632813 841.71875 697.582031 844.464844 691.242188 840 C 686.882813 836.777344 690 832 693 829.214844 C 698.671875 824.078125 706.757813 823.152344 714 822.285156 M 417 844 C 407.960938 853.445313 400 864 395 876 C 415.648438 877.6875 431.578125 894 453 894 L 453 893 C 441 888.257813 430 882.542969 419 876.011719 C 415.519531 874 408.996094 871.644531 408.53125 867 C 407.695313 858.539063 420 853 417 844 M 1080 844 C 1081 851.292969 1088.863281 861.015625 1087.867188 868 C 1087.183594 872.765625 1080.722656 875.300781 1077 877.253906 C 1066 883 1054.632813 888 1044 894 L 1044 895 C 1067.238281 893.164063 1085.777344 877 1109 877 C 1103.761719 864.480469 1092.632813 849.632813 1080 844 M 975 926 C 984.984375 924.730469 994.859375 921.582031 1005 922.039063 C 1013.566406 922.425781 1020.550781 928.101563 1029 928.8125 C 1044.171875 930.089844 1061.816406 921.824219 1075 915.246094 C 1079.9375 912.785156 1086.910156 910.71875 1090 906 C 1072 910.148438 1054.6875 918 1036 918 L 1036 917 C 1052.992188 914.488281 1071.8125 904.355469 1086 895 C 1078.660156 892.453125 1064.5625 901.121094 1057 903.117188 C 1035.492188 908.789063 1012.371094 904.746094 992 914.757813 C 986.339844 917.539063 978.199219 920.355469 975 926 M 415 895 C 417.503906 899.414063 422.683594 901.386719 427 904 C 438.570313 910.449219 451.410156 917 465 917 L 465 918 C 446.402344 918 428.996094 910.714844 411 907 C 415.238281 913.601563 426 916.761719 433 919.714844 C 443.691406 924.238281 457.203125 929.195313 469 928.738281 C 476.480469 928.445313 482.738281 923.539063 490 922.324219 C 501 920.480469 513.1875 924 524 926 C 509.683594 906.605469 479 910 458 906.5625 C 443.21875 904.1875 429.511719 898.328125 415 895 M 746 1001.285156 C 778.628906 997.382813 806.183594 1017.078125 828 1039 C 843 1054.109375 847.828125 1078.058594 828.960938 1093.609375 C 815.984375 1104.304688 794 1105.792969 778 1107.714844 C 750.328125 1111.035156 720.953125 1114 694 1105 C 686 1102.394531 677.445313 1100.265625 671 1094.671875 C 652.550781 1078.515625 656.546875 1056.238281 670.574219 1040 C 690 1017.511719 716.703125 1004.789063 746 1001.285156 M 747 1009.425781 C 722.570313 1012.554688 702.378906 1021.492188 684 1038.171875 C 678 1043.535156 665.375 1055.554688 674 1063.605469 C 683.214844 1072 702.453125 1071.390625 714 1072.035156 C 746 1073.824219 777 1075 809 1069.566406 C 812 1069.046875 815 1068.3125 818 1067.324219 C 838.304688 1060.523438 823.25 1044.277344 813 1035.285156 C 796 1020.433594 770.488281 1006.417969 747 1009.425781 M 1139 1011 L 1138 1012 L 1139 1011 M 1023 1023 C 1035.808594 1050.460938 1081.46875 1040 1105 1040 C 1101.222656 1034.171875 1088.265625 1037.425781 1082 1036.828125 C 1061.371094 1035 1042.214844 1031 1023 1023 M 394 1038 C 401.203125 1042.316406 411.953125 1041 420 1040.59375 C 439.359375 1040 465 1044.109375 477 1024 C 462 1026.644531 448.375 1033.476563 433 1035.574219 C 420.515625 1037.277344 405.929688 1034.472656 394 1038 M 454 1078 C 460.746094 1074.710938 464.515625 1067.125 468.433594 1061 C 476 1049.140625 485.523438 1038.085938 491 1025 C 474.863281 1030.484375 456.457031 1061.601563 454 1078 M 1009 1025 C 1012.910156 1034.074219 1019.382813 1041.660156 1024.574219 1050 C 1030.632813 1059.726563 1035.789063 1072 1046 1078 C 1041.933594 1061 1026 1031.5625 1009 1025 M 475 1071 C 464.820313 1092.761719 462.347656 1114.40625 471 1137 L 472 1137 C 471.996094 1122.121094 470.65625 1107.820313 473.664063 1093 C 474.980469 1086.519531 479 1077 475 1071 M 1023 1071 C 1023.453125 1093 1028 1114 1028 1136 L 1029 1136 C 1034.464844 1121.4375 1034.921875 1102.007813 1031 1087 C 1029.734375 1081.621094 1027.808594 1074.152344 1023 1071 M 513 1192 C 504.324219 1161.195313 488.945313 1129.605469 495 1097 C 489.710938 1098.132813 488.574219 1115.820313 487.917969 1121 C 485.324219 1141.367188 492.863281 1156.257813 501.777344 1174 C 504.28125 1179 507.953125 1189.804688 513 1192 M 1005 1097 C 1005 1110 1006 1123.289063 1003.339844 1136 C 999 1156 989 1174.070313 985 1194 C 990.449219 1190.28125 993.304688 1180 996.246094 1174 C 1005 1156.359375 1012.234375 1140.0625 1011.996094 1120 C 1011.90625 1112.355469 1010.886719 1102.382813 1005 1097 M 382 1132 C 380.363281 1131.453125 380.546875 1131.636719 380 1130 C 381.636719 1130.546875 381.453125 1130.363281 382 1132 M 1119 1130 L 1118 1131 L 1119 1130 M 594 1161 L 594 1163 C 612.636719 1163.386719 630 1173 649 1170.824219 C 665.554688 1169.046875 673.289063 1152.027344 689 1148.667969 C 699.460938 1146.433594 710.464844 1149 721 1149 L 793 1149 C 800.292969 1149 809.273438 1147.550781 816 1151 C 827 1156.207031 833.464844 1167.652344 846 1170.332031 C 863.761719 1174.125 886.210938 1165.261719 904 1163 L 904 1161 C 888.878906 1161.125 870.671875 1166.621094 856 1161.386719 C 849.382813 1159.023438 844.535156 1153 839 1148.761719 C 830.359375 1142.371094 820.464844 1137.417969 810 1135 C 783.546875 1128.527344 750.167969 1132.027344 723 1132.027344 C 705 1132.027344 685.964844 1133.546875 670 1142.3125 C 660.171875 1147.710938 652.648438 1158.367188 642 1161.777344 C 626.660156 1166.6875 609.648438 1161.042969 594 1161 M 665 1308 C 689.28125 1351.609375 747.246094 1363.644531 791 1345 C 806.386719 1338.242188 825.667969 1324.707031 831 1308 C 817.777344 1314.585938 807.28125 1326.535156 794 1333.691406 C 766 1348.722656 734.246094 1344.742188 706 1333 C 691.660156 1327.019531 679.6875 1311.453125 665 1308 "/>
</g>
</svg>
