<?xml version="1.0" encoding="UTF-8"?>
<svg xmlns="http://www.w3.org/2000/svg" xmlns:xlink="http://www.w3.org/1999/xlink" width="1500pt" height="1500pt" viewBox="0 0 1500 1500" version="1.1">
<g id="surface1">
<path style=" stroke:none;fill-rule:nonzero;fill:rgb(0%,0%,0%);fill-opacity:1;" d="M 924 351 C 921 347.519531 911.644531 328 905.617188 332.085938 C 902 334.535156 907.171875 343.777344 907.671875 347 C 908.902344 355 903.851563 362.820313 897 366.582031 C 872.320313 380.144531 833.476563 366.199219 807 365.039063 C 793.863281 364.464844 781.550781 369.023438 769 369 C 763.683594 369 759 365.609375 754 364.519531 C 747.320313 363.09375 738.761719 363.476563 732 364.285156 C 702.230469 368 672.476563 380.496094 643 368.546875 C 633.835938 364.832031 624.761719 358.644531 618.464844 351 C 613.671875 345.179688 611 337.648438 605 333 C 602 338.671875 600.726563 345 599 351 C 591 341.246094 588.558594 328.070313 580.550781 318 C 570.191406 305 557.226563 294.472656 546.285156 282 C 530.464844 264 516.621094 244.269531 502.371094 225 C 486.714844 203.832031 471 182.769531 453.714844 163 C 448.789063 157.414063 443.328125 152.214844 438 147.015625 C 416.796875 126.328125 370.796875 93 342.175781 120.300781 C 323.71875 138 320.90625 174.128906 316.75 198 C 312.59375 222 310.398438 246.285156 305.550781 270 C 302.84375 283.230469 295.714844 295.257813 295 309 C 294.523438 322.105469 300.167969 335 300.90625 348 C 301.738281 362.671875 297.289063 376.214844 300.898438 391 C 303.6875 402.421875 313.191406 412.636719 314.632813 424 C 315.917969 434.160156 306.820313 444.566406 306 455 C 304.960938 471.089844 312.503906 482.761719 314.699219 498 C 316.449219 510.140625 313 523.375 305.480469 533 C 302 537.386719 291 543.097656 290.832031 549.023438 C 290.527344 554.683594 304.183594 560 307.996094 563.300781 C 317.667969 571.675781 322.542969 583.214844 320.699219 596 C 317.375 619.066406 297 635.488281 294.285156 659 C 290.515625 691 319.640625 714.226563 302.21875 747 C 299 752.828125 294.742188 757.425781 290 762 C 283.300781 768.363281 275.894531 772.390625 268 777 L 268 778 C 276.320313 777 283 772.566406 290 768 C 296 764 301.796875 759.753906 306.332031 754 C 320 736.542969 319.390625 714.386719 313.574219 694 C 310.359375 682.734375 305.210938 672 306 660 C 307 647.230469 315.945313 637.542969 322 627 C 323.875 624.046875 325.941406 617.144531 328.992188 615.46875 C 332.730469 613.414063 342.269531 616.640625 346 618 L 346 619 C 326.726563 628.171875 314.429688 652.265625 314 673 C 316.796875 671.464844 317.824219 670 319 667 L 320 667 C 319.984375 692.5625 328.207031 729.554688 312.777344 752 C 304.613281 764 290.242188 767.496094 282 778 C 292.875 778 303.6875 775.296875 314 772 C 310.542969 788.703125 300.804688 802.324219 287 812.253906 C 282.820313 815.261719 265.441406 821.066406 264.632813 826.089844 C 264 829.300781 268.699219 831 271 831.554688 C 278.492188 834 286.238281 834 294 834 C 282.480469 853.53125 265.320313 872 241 873 L 241 872 C 256.273438 869.710938 277.929688 855.332031 284 841 C 276.578125 841 269 841.335938 262 838.523438 C 255.351563 836 249.953125 831.007813 243 829 L 243 828 C 261 827.171875 275.941406 813.0625 288 801 C 290.886719 798.109375 300.726563 790.550781 299.171875 785.601563 C 298.429688 783.242188 291.984375 783.566406 290 783.246094 C 281 781.796875 272 779.1875 263 779 C 270.566406 788.636719 284.992188 787 296 787 C 288.671875 794.308594 279.785156 798.664063 272 805.300781 C 264.695313 811.527344 257.734375 820.628906 248 823.058594 C 242.472656 824.4375 236.609375 822.117188 231 822 C 237.765625 835.039063 255.464844 844.691406 270 845 C 259.355469 860.109375 234.496094 876.71875 215 871.648438 C 207.796875 869.777344 203.242188 863.609375 197 860 C 201.847656 887.195313 238.777344 900.5 263 901 L 263 902 C 249.453125 902 236.410156 900.109375 223 900 L 223 901 C 235.445313 909.390625 248.59375 917 264 917 L 264 918 L 216 918 C 219 923.347656 225.644531 924.589844 231 927 C 245.648438 933.113281 259.808594 939 276 939 L 276 940 C 267.320313 942.503906 260 948 251 949.535156 C 235.589844 952.265625 220.207031 948 205 946 C 210.644531 960.558594 231 966.140625 245 969 L 245 970 C 240.921875 970.011719 237 970.488281 233 971 C 239.640625 981.816406 265.84375 980 277 980 L 277 981 C 263.335938 985 251.222656 994.578125 239 1001.574219 C 232.472656 1005.304688 225.597656 1007.773438 221 1014 C 246 1014 270.933594 1016 296 1016 L 296 1017 C 290 1018.632813 284.816406 1022 279 1023.796875 C 266.464844 1028 251.292969 1029.503906 243 1041 L 288 1040 L 288 1041 C 280.507813 1042.773438 272 1046.042969 267 1052 C 276.171875 1053.703125 284.828125 1052.394531 294 1052 C 288 1059.242188 280.863281 1067.011719 278 1076 C 288 1073.136719 296.449219 1068 306 1064 C 300.222656 1070.289063 295.289063 1077.394531 294 1086 L 299 1084 C 293.292969 1093.246094 286.632813 1102 285 1113 C 301.183594 1108 312.378906 1094.371094 330 1092 L 330 1093 C 309.871094 1096.015625 290.988281 1116.722656 287 1136 C 301 1130.589844 310.675781 1117.640625 326 1114 C 317.84375 1121.125 310 1128.613281 309 1140 C 315 1138.089844 320.242188 1134.054688 325 1130 C 318 1140.40625 308.535156 1149.730469 305 1162 C 319.730469 1159.371094 331 1148.179688 347 1147.089844 C 350 1147 359.199219 1145.554688 360.578125 1149.316406 C 362.324219 1154.070313 353.460938 1162.375 351 1166 C 342.902344 1178.441406 330.558594 1195.183594 328 1210 C 348.929688 1206.269531 364.632813 1185.105469 384 1177 C 374.46875 1191.011719 363.542969 1205.390625 359 1222 C 373 1218 385.238281 1205.730469 399 1200 C 391.980469 1207.339844 386.183594 1215.300781 383 1225 C 391 1223.574219 398 1218.183594 405 1214 C 400.25 1221 393.445313 1226.742188 391 1235 C 398.695313 1234.324219 405 1230 412 1227 C 403.503906 1235.503906 395.925781 1244.46875 392 1256 C 405.785156 1254.789063 419.441406 1245.511719 433 1242 C 427.558594 1246.753906 421.683594 1251.074219 419 1258 C 426 1257.671875 432.46875 1254.679688 439 1252 C 428.53125 1262.46875 414.265625 1273.21875 410 1288 C 420 1286.171875 428.839844 1278.296875 439 1275.429688 C 454.839844 1271 468 1273.738281 484 1275 C 476.480469 1284.828125 467.199219 1290.671875 463 1303 C 474.925781 1301 483.25 1296 496 1296 L 496 1297 C 490 1297.527344 484 1301.523438 493 1304 C 500.546875 1306 508.265625 1306 516 1306 L 516 1307 C 511.652344 1307.640625 507.183594 1308.675781 503 1310 C 512.640625 1321.207031 533.96875 1314.390625 546 1311 C 538.742188 1318.410156 530.484375 1326.640625 528 1337 C 535.722656 1334.769531 541.820313 1329.394531 549 1326 C 542.5625 1337.027344 537.554688 1351.160156 537 1364 C 548.199219 1358.191406 555 1338.328125 567 1335.347656 C 572.257813 1334.027344 576.371094 1343.363281 578.191406 1347 C 584.851563 1360.316406 587.878906 1376.175781 588 1391 C 602.371094 1378.636719 597.460938 1346 593 1330 C 595.535156 1332.761719 600.828125 1343.476563 604.28125 1344.078125 C 608.355469 1344.785156 613 1332.066406 614 1329 C 600.640625 1328.5625 613 1313 615 1306 C 610.269531 1306.636719 605.804688 1308 601 1308 C 604.652344 1301 611.664063 1296.152344 615 1289 C 606.175781 1292.402344 597.449219 1296.726563 588 1298 L 588 1297 C 593.585938 1294.410156 598.472656 1289.628906 601 1284 C 585.667969 1287.632813 572 1297 556 1297 C 566.773438 1286.691406 581.921875 1278.089844 588 1264 C 567.179688 1267.074219 548.980469 1281 527 1277.410156 C 523.753906 1277 506.820313 1274.617188 507.78125 1269.5625 C 508.515625 1265.714844 517 1262 520 1260 C 530.222656 1253.152344 541.714844 1246 548 1235 C 537.816406 1236.527344 528.886719 1242.785156 519 1245.570313 C 509.992188 1248.109375 501 1247.394531 492 1247 C 505 1235.683594 525.414063 1225.5 531 1208 C 518.953125 1209.777344 508 1216.652344 496 1218.5625 C 483.863281 1220.472656 472 1217.515625 460 1217 L 460 1216 C 476.824219 1213.515625 497.472656 1200.75 506 1186 C 497.820313 1187.414063 491.460938 1193 484 1196.125 C 471.730469 1201.480469 457.222656 1203.660156 444 1202 L 444 1201 C 451.695313 1197.433594 458.214844 1190.257813 465 1185.128906 C 480.742188 1173.226563 499.894531 1161.488281 510 1144 C 491.585938 1151 479 1167.351563 459 1172 L 459 1171 C 471.625 1167.816406 486.542969 1156.171875 493 1145 C 485 1147 478.398438 1152 471 1155.128906 C 453.878906 1162.480469 436 1166.101563 418 1161 L 418 1160 C 438.695313 1158.191406 461.679688 1144.40625 480 1135.246094 C 487.972656 1131.261719 496.675781 1127.398438 502 1120 C 480.492188 1124.4375 460 1132.726563 438 1134.828125 C 429.214844 1135.671875 420.71875 1133.375 412 1133 L 412 1132 C 428.328125 1131.253906 445.359375 1120 459 1111.800781 C 465.210938 1108.082031 471.625 1105 476 1099 C 447.6875 1105.554688 415.90625 1126.148438 389 1102 C 404.761719 1098 419.769531 1093 435 1087.191406 C 440.277344 1085.183594 448.722656 1083.789063 452 1079 C 424.222656 1086 397.953125 1082 370 1082 L 370 1081 C 396 1077.710938 420.226563 1067.0625 445 1059 C 444 1060.480469 444 1060.203125 444 1062 C 453.648438 1057.488281 462.632813 1051.324219 472 1046.230469 C 475.394531 1044.386719 479.886719 1040.605469 484 1041.285156 C 493 1042.792969 506.496094 1060.480469 513 1067 C 514.988281 1069 520.789063 1073.203125 519 1076.582031 C 517.804688 1079.101563 513.363281 1080 511 1081 C 504 1084 496.953125 1087 490 1090 L 490 1091 C 501.445313 1090.414063 509.90625 1081.105469 521 1079.574219 C 525.558594 1079 528.933594 1082.089844 531.996094 1085.039063 C 550.722656 1103.070313 524.222656 1113 518 1129 C 527 1127.375 536 1120.617188 543 1114.699219 C 545.179688 1113 550 1106 553.394531 1106.632813 C 557.773438 1107.558594 551.21875 1121.078125 550 1123 C 541.640625 1138 524.324219 1145 516 1159 C 539 1157 559.394531 1140.605469 575 1125 C 568.488281 1144.121094 549.683594 1157.722656 533 1167.796875 C 526.269531 1172 514.320313 1175.40625 510 1182 C 544.460938 1180.519531 569.875 1158.179688 598 1142 C 587.578125 1164 560.324219 1177.253906 541 1190 L 541 1191 C 570.195313 1190.398438 593.28125 1168.546875 615 1152 C 608.695313 1165.328125 596.855469 1175.714844 585 1184.085938 C 578.691406 1188.542969 569.945313 1191.0625 566 1198 C 592.5 1192.53125 618.324219 1180.832031 638 1162 C 633.550781 1177.417969 617.640625 1190.386719 605 1199.277344 C 598.957031 1203.53125 589.460938 1207.324219 586 1214 C 614.890625 1206.507813 640.953125 1191.046875 662 1170 C 661.238281 1177.640625 652 1185.457031 647 1191 C 638 1201.3125 628.378906 1211.679688 618 1220.710938 C 610.648438 1227.105469 601.6875 1232 596 1240 C 620 1236.386719 645.695313 1210.632813 661.910156 1194 C 667.75 1188 672 1181 679 1176 C 668.820313 1194.28125 653.652344 1211.234375 638 1225 C 629.953125 1232 617.675781 1237 613 1247 C 636 1241.515625 661.566406 1217.242188 678 1201 C 686.386719 1192.707031 692.90625 1182 704 1177 C 692.410156 1196 678.554688 1211.078125 662 1226 C 654.332031 1232.671875 641.558594 1238.644531 637 1248 C 660 1242.511719 684 1218.628906 699.960938 1202 C 707.792969 1193.796875 712.835938 1183.148438 724 1179 C 715 1191.269531 707.566406 1204.363281 697.726563 1216 C 689.816406 1225.355469 678.972656 1233.625 674 1245 C 693.964844 1237.691406 710 1216 722.902344 1200 C 727.898438 1193.808594 731 1185.308594 738 1181.003906 C 744.894531 1176.769531 754.277344 1178 762 1176.539063 C 781.21875 1173 799.761719 1166.304688 818 1159.425781 C 825.75 1156.503906 834.515625 1154.617188 840 1148 C 813.355469 1152 788.472656 1162.3125 761 1163 C 729.277344 1163.761719 699.253906 1154.003906 668 1154 C 673.898438 1148.226563 682 1140.542969 691 1141.226563 C 702 1142.070313 711.691406 1152.398438 723 1154.789063 C 743.957031 1159.21875 766.800781 1159.285156 788 1156.714844 C 797.597656 1155.550781 807.433594 1153.820313 816 1149.097656 C 822.59375 1145.460938 827.832031 1139.726563 835 1137.09375 C 853.570313 1130.269531 872.984375 1131.035156 891 1121.136719 C 899.75 1116.324219 908.179688 1110.523438 914.816406 1103 C 917.703125 1099.726563 921 1092.351563 925.996094 1091.769531 C 929 1091.390625 931.472656 1095 933.285156 1097.003906 C 938.960938 1103.335938 945.328125 1108.785156 949.945313 1116 C 955.875 1125.265625 964.617188 1132.550781 970 1142 C 979.296875 1157.738281 978.75 1175.558594 978 1193 L 977 1193 C 976 1172.363281 964 1144.46875 944 1136 C 946.597656 1144.148438 953.320313 1150.105469 956.546875 1158 C 964.695313 1178 959.652344 1196.464844 951 1215 L 950 1215 C 949.261719 1206 945.714844 1193.257813 937 1189 C 937.71875 1205.726563 934.355469 1216.078125 930 1232 L 929 1232 C 926.257813 1218.710938 924 1205.78125 919.320313 1193 C 917.59375 1188.34375 916.21875 1182 912 1179 C 915.308594 1205.171875 913 1228.125 895 1249 C 895 1236.226563 894.300781 1223.484375 891.347656 1211 C 890.226563 1206.269531 889.167969 1200 885 1197 C 891.285156 1230.355469 868 1257 846 1279 C 854.550781 1259.15625 863.546875 1241.261719 863.984375 1219 C 864.191406 1208.554688 861.308594 1198.292969 860 1188 L 858 1188 C 858 1228.585938 844.820313 1277.242188 807 1299 C 814.460938 1289.289063 820.230469 1278 823 1266 L 822 1266 C 799 1303.472656 758.5625 1331.746094 722 1355.308594 C 710.84375 1362.496094 699.527344 1369.414063 688 1376 C 681.988281 1379.433594 675.242188 1381.300781 671 1387 C 766 1360 861.929688 1325.132813 943 1267.140625 C 964.515625 1251.75 985.734375 1235.210938 1001.871094 1214 C 1008.449219 1205.347656 1015.351563 1196.011719 1017 1185 L 1018 1185 C 1018 1216.144531 998.398438 1234.539063 974 1251 L 974 1252 C 989.449219 1250.652344 1003.632813 1238.335938 1015 1228.726563 C 1048 1200.71875 1065.226563 1170 1073 1128 L 1074 1128 C 1074 1145.410156 1072.796875 1161.515625 1066.574219 1178 C 1061.707031 1191 1052.839844 1203 1049 1216 C 1066.324219 1203.761719 1078.21875 1176.808594 1087 1158 L 1088 1158 C 1086.359375 1178.765625 1075 1191.519531 1068 1210 C 1075 1206.824219 1080.613281 1200.511719 1085.984375 1195 C 1103.859375 1176.671875 1114.515625 1151.757813 1119.789063 1127 C 1121.898438 1117.101563 1121.6875 1106.710938 1124 1097 L 1125 1097 C 1125 1113.679688 1128.273438 1128.226563 1124.574219 1145 C 1121.457031 1159.144531 1112 1172.042969 1110 1186 L 1111 1186 C 1130.644531 1157 1154 1129 1154 1092 L 1155 1092 C 1155.796875 1102.101563 1157.609375 1111.777344 1156.910156 1122 C 1156.238281 1131.828125 1152.796875 1141.246094 1152 1151 C 1163 1142.773438 1169 1122.269531 1171 1109 L 1172 1109 C 1174 1126 1164.714844 1139.621094 1164 1156 L 1165 1156 C 1180 1130.347656 1190.722656 1102.175781 1189.984375 1072 C 1189.6875 1060 1185.953125 1048.054688 1185 1036 L 1186 1036 C 1188 1048.269531 1194.800781 1059.582031 1197.195313 1072 C 1200.816406 1090.773438 1198.808594 1108.1875 1198 1127 L 1199 1127 C 1216.429688 1086.503906 1219.847656 1050 1211 1007 L 1212 1007 C 1214.714844 1016.410156 1220.988281 1024.675781 1224.308594 1034 C 1231.867188 1055.242188 1234.273438 1082 1229 1104 C 1234 1100.570313 1235 1091.59375 1236.710938 1086 C 1242.613281 1065.433594 1239.898438 1047 1239 1026 C 1252 1039.453125 1254 1057 1254 1075 L 1256 1075 L 1259 1051 C 1285.792969 1072.816406 1299 1103.660156 1315.574219 1133 C 1322.621094 1145.5 1328 1164.503906 1342 1171 C 1330.988281 1144.550781 1320.253906 1113 1302.765625 1090 C 1295.6875 1080.738281 1287.855469 1071.175781 1279 1063.578125 C 1273 1058.539063 1263.746094 1054 1259.953125 1047 C 1255.839844 1039.53125 1257.507813 1026.515625 1255.265625 1018 C 1250.71875 1000.722656 1241.65625 985.019531 1237 968 C 1251 982.050781 1263 997.601563 1268.574219 1017 C 1271.167969 1026.054688 1269 1046.097656 1277 1052 C 1277.757813 1046.019531 1278.875 1040.035156 1279 1034 C 1294.550781 1052 1303.5625 1073.710938 1313.308594 1095 C 1318.5 1106.339844 1325 1118.546875 1327 1131 L 1329 1131 C 1327 1106.726563 1320.53125 1080.390625 1306.996094 1060 C 1299.832031 1049.207031 1287 1040.34375 1281.457031 1029 C 1278 1022.394531 1280.402344 1013.15625 1279.910156 1006 C 1279 994.335938 1276.5 982.128906 1272.972656 971 C 1265.894531 948.675781 1247.394531 930.714844 1242 908 L 1243 908 C 1246.394531 916.757813 1256 925.15625 1265 928 C 1259.523438 918.171875 1251.691406 910 1246.308594 900 C 1238.761719 886.070313 1233.875 871 1226 857 C 1218.710938 843.683594 1208.574219 831.078125 1205 816 L 1206 816 C 1211.355469 826.316406 1225.886719 836.730469 1237 840 C 1230.339844 825.058594 1212.824219 817 1212 799 C 1223 805.203125 1233.355469 812.074219 1246 815 C 1241.472656 806.269531 1232.679688 801.019531 1226 794 C 1218 785.4375 1211.515625 773.792969 1207 763 C 1225.550781 778.109375 1241.421875 796.601563 1264 806 C 1260.441406 799.496094 1251.574219 795.679688 1246 791 C 1235.210938 781.472656 1224.996094 770.558594 1218 758 C 1230.476563 770.371094 1244.414063 781.792969 1260 790 C 1255 779.769531 1239.253906 772.035156 1231 764 C 1212.945313 746.25 1202 726.675781 1197 702 L 1198 702 C 1206.8125 720.632813 1216.882813 745.664063 1235 757 C 1231.902344 750.046875 1225.84375 745 1222.375 738 C 1216.636719 726.695313 1214 713.824219 1209.574219 702 C 1206.253906 693.203125 1201 685.222656 1199 676 L 1200 676 L 1216 715 L 1217 715 C 1217 688.511719 1212.328125 662.820313 1207 637 L 1208 637 L 1210 642 L 1211 642 C 1210.496094 631.023438 1203 621.15625 1196.195313 613.039063 C 1193.695313 610.085938 1186 605.453125 1186.78125 601.09375 C 1188.433594 589.722656 1200.816406 605.574219 1202.625 608 C 1213.9375 623.15625 1216.53125 644.109375 1229 658 C 1226.335938 656.203125 1223.921875 654.332031 1221 653 C 1223.402344 661.164063 1237 674.796875 1244 663 C 1239.28125 663.738281 1235.511719 662.207031 1231 661 L 1231 660 C 1236 660 1240.664063 659.722656 1245 657 C 1239 655 1233.730469 654 1230.417969 648 C 1224.636719 637.546875 1225.6875 624.011719 1220.6875 613 C 1212.996094 596.054688 1191.476563 582.78125 1196.925781 562 C 1199.742188 551.25 1206.75 541.628906 1213.511719 533 C 1216.882813 528.695313 1223.167969 523.800781 1223.714844 518 C 1224.1875 513 1219 510.039063 1216 507 C 1211 502.125 1207.546875 496.734375 1205.898438 490 C 1201.921875 473.722656 1208.949219 458.230469 1207.910156 442 C 1207 429.128906 1199.414063 418.484375 1197.480469 406 C 1196.269531 398.203125 1201 390.277344 1203.277344 383 C 1206 373.824219 1206.382813 364.515625 1205.960938 355 C 1205.574219 346.277344 1202.492188 337.777344 1202.257813 329 C 1201.898438 315.460938 1205.335938 302.59375 1202.738281 289 C 1200.714844 278.410156 1194.355469 269.1875 1191 259 C 1186.632813 245.726563 1185 231.59375 1181.882813 218 C 1175.960938 192.25 1170.773438 165.769531 1161.425781 141 C 1155 124 1146.359375 111.203125 1127 109.300781 C 1108.816406 107.511719 1091.71875 120.644531 1079 132 C 1045.929688 161 1023.273438 201.230469 998.28125 237 C 978.480469 265.335938 951.800781 291 934.875 321 C 929.746094 330.101563 928 341.3125 924 351 M 1179 554 C 1167.941406 558.597656 1159 561 1147 561 C 1150.617188 554.710938 1155.867188 549.59375 1159 543 C 1152.222656 546.570313 1144.636719 548.402344 1137 549 C 1134.71875 549.0625 1129.625 549.6875 1128.828125 546.683594 C 1127.574219 542 1135.332031 534.367188 1138 531 C 1129.726563 535.351563 1121.539063 539.371094 1112 540 C 1102.585938 540.433594 1101.859375 533.804688 1106.363281 527 C 1107.773438 525 1109.363281 523 1111 521 C 1133.816406 496.285156 1168.425781 484 1180 450 C 1175.195313 455 1172.488281 461.074219 1167 465.675781 C 1153.664063 477 1138.492188 484.5625 1126 497 C 1112.78125 510.160156 1100.828125 529.273438 1084 538 C 1085 485 1124.992188 447.765625 1151 406 C 1130 427.347656 1112.492188 456.746094 1088 474 C 1104.414063 439 1135.738281 411.082031 1145 372 L 1144 372 C 1136 401.183594 1112.601563 427.097656 1096.34375 452 C 1088 464.636719 1081.21875 480.652344 1069 490 C 1072.605469 477.484375 1079.945313 465.613281 1085.753906 454 C 1097.453125 430.601563 1109.527344 407.421875 1119 383 C 1104.519531 392.015625 1091.921875 404.335938 1076 411 C 1083.382813 392 1108.203125 381.445313 1119.960938 365 C 1129.933594 351.054688 1133.792969 334.234375 1138.421875 318 C 1143.25 301.066406 1148.644531 284.3125 1152 267 C 1140 278.738281 1124.339844 284.3125 1111 294.15625 C 1092 308.0625 1071.378906 331.117188 1059 351 C 1070.582031 339.417969 1083.261719 324.523438 1098 317 C 1089.351563 337.769531 1072.351563 352.34375 1058 369 C 1072.777344 360.367188 1084.886719 350.113281 1097 338 C 1100 335 1106.683594 325.804688 1111.683594 327 C 1114.695313 327.53125 1114 332.804688 1113.960938 335 C 1113.613281 343.191406 1110.789063 351.441406 1107.796875 359 C 1094.707031 392.039063 1063.695313 411.039063 1044 439 C 1049.710938 434.058594 1055.898438 429.601563 1062 425.152344 C 1069 420 1076.273438 414.664063 1084 410.519531 C 1086.265625 409.300781 1090.835938 407 1092.96875 409.617188 C 1097.351563 415.070313 1086.859375 427.53125 1084.285156 432 C 1072.757813 452 1059.867188 472.703125 1051 494 L 1050 494 C 1050.722656 485.144531 1054.210938 476.679688 1056 468 C 1050.90625 473.039063 1049.839844 480.65625 1043 484 C 1044.855469 476.203125 1043.839844 469.371094 1041 462 C 1039.851563 464.710938 1039.253906 467.066406 1039 470 L 1038 470 C 1034 460.414063 1029.761719 451 1023 443 C 1023.769531 446.355469 1024.699219 449.558594 1025 453 L 1024 453 C 1017.285156 436.625 1015.195313 420.023438 1011 403 L 1010 403 C 1010 412.136719 1008.875 422.074219 1011 431 C 994.875 423.066406 1001.40625 395 1002 381 L 1001 381 C 995.238281 393.339844 991 405.136719 991 419 L 990 419 C 987.917969 393.507813 980.707031 372.066406 984 346 L 983 346 C 977.988281 361.402344 973 376.824219 977 393 C 963.882813 386 966.421875 365.476563 968 353 C 961.523438 360.4375 963 374.730469 963 384 L 962 384 C 954.488281 371.125 952 357.703125 952 343 L 951 343 C 948.5 353.148438 945.21875 364.550781 945 375 L 944 375 C 944 357.164063 946.882813 338.074219 954.96875 322 C 966.976563 298.144531 988.777344 278.046875 1003.972656 256 C 1024.679688 226 1040.34375 199.4375 1072 179.574219 C 1078.527344 175.480469 1084.507813 170.203125 1092 168 C 1091.382813 169.484375 1086.269531 178.742188 1090.332031 178.539063 C 1097.707031 178.164063 1102.757813 160.257813 1110.289063 162.324219 C 1117.429688 164.285156 1119.925781 170.585938 1125.277344 174.089844 C 1127.710938 175.679688 1131 174.441406 1133.257813 176.605469 C 1136.335938 179.71875 1134.296875 185.3125 1136.601563 189 C 1148.332031 207.734375 1154.914063 229.039063 1166.464844 248 C 1174.203125 260.710938 1186.863281 270.554688 1191.640625 285 C 1196.296875 299.074219 1193 314.472656 1194 329 C 1194.996094 342.269531 1199.628906 355.617188 1197.699219 369 C 1195.933594 381.25 1187 392.46875 1187.183594 405 C 1187.277344 415.824219 1197.824219 424.488281 1200.324219 435 C 1204.472656 452.445313 1196.519531 468.800781 1198.441406 486 C 1199.222656 493 1200.800781 500 1204.480469 506 C 1206.765625 509.789063 1211.328125 513.335938 1211.664063 518 C 1212 524.238281 1204.996094 529.667969 1201.464844 534 C 1195 542 1188.332031 552 1186.3125 562 C 1185.363281 566.777344 1186.242188 575 1180.890625 577.257813 C 1177.277344 578.804688 1160.367188 578.113281 1161.890625 572 C 1163.644531 565 1173.964844 558.820313 1179 554 M 409 182 C 411.222656 171.390625 418 183 423 184.761719 C 426.617188 186.070313 430.171875 183.726563 434 185.421875 C 444.316406 190 451.464844 201.394531 458 210 C 478.757813 236.6875 501.238281 263.058594 525 287 C 552.6875 314.507813 580.183594 335.699219 582 378 L 581 378 C 579.925781 365.710938 573.191406 354 565 345 C 569.414063 361.515625 568.515625 372.113281 562 388 L 561 388 C 560.46875 375.605469 556.929688 364.617188 553 353 L 552 353 C 553.925781 363 556.933594 376.40625 550 385 C 545.96875 376 544.558594 362.4375 538 355 C 541.867188 368.730469 543.652344 381 541 395 L 540 395 C 540 387 540 378.03125 534 372 C 534 387.441406 532 400.734375 530 416 L 529 416 C 529 402.445313 530.171875 388.285156 527 375 L 526 375 C 527 388.5625 529 407.457031 517 417 C 517.433594 415.179688 520 405.054688 516.6875 405.054688 C 511 405.054688 507.316406 421 506 425 C 499.222656 447 495.855469 468.398438 493 491 L 492 491 C 483.925781 431.035156 426.632813 398.632813 388 360 C 402.695313 387.613281 423.976563 413.132813 436 442 C 422 432.140625 411.828125 415.066406 400.921875 402 C 384.320313 382.113281 366.523438 365 347 348 C 363 371 385.28125 390.433594 403.246094 412 C 410 420.175781 418.835938 429.144531 423 439 C 399.726563 424.460938 380.269531 402.269531 361 383 C 369.753906 396.230469 382.355469 406.746094 392.386719 419 C 407.191406 437.089844 419 457.390625 428 479 C 409.5625 464.132813 393.835938 446.5625 374 433 C 402.804688 462.414063 437.179688 491.378906 446 534 C 439.769531 529.609375 435.300781 523.410156 430 518 C 434.644531 526.730469 440.617188 534.703125 440.957031 545 C 441 547.628906 441.207031 553.40625 437.722656 554.117188 C 432 555.253906 426.5625 545.535156 423.789063 542 C 413 528.273438 403.988281 512.195313 390.960938 500.425781 C 372.371094 483.632813 348.382813 473.824219 333.429688 453 C 329.585938 447.648438 325.640625 441.605469 324.472656 435 C 323.488281 429.441406 325.257813 424.5625 323.300781 419 C 319.316406 407.671875 311.761719 398 309.460938 386 C 306.632813 371.253906 310.238281 356.800781 308.828125 342 C 307.441406 327.425781 303.734375 312.542969 307.476563 298 C 310.855469 285 321.714844 275.269531 327 263 C 334.984375 245.253906 338.664063 225.78125 343 207 C 345.1875 198.25 345 189.265625 356 189 C 354.519531 183.738281 353.234375 178.472656 353 173 L 365 180 C 365 172.367188 369.929688 162.179688 379.960938 164.734375 C 383.382813 165.609375 384.832031 169.515625 388 170.789063 C 392.167969 172.429688 395.824219 169.539063 399.960938 172.519531 C 403.507813 175.074219 405.746094 179.109375 409 182 M 360 216 C 367 225.527344 379.839844 229.011719 390 234.257813 C 401.511719 240.199219 412.484375 249.394531 425 253 L 425 254 C 408.992188 250.296875 392.445313 245.175781 377 239.5625 C 367.878906 236.25 358.777344 231 349 230 L 349 231 C 378.621094 243.316406 408.839844 255 438 268.308594 C 453 275.246094 467.3125 285.660156 483 291 C 479.484375 279.160156 466.210938 271.140625 457 263.800781 C 434.242188 245.671875 408.210938 234.035156 381 224.308594 C 373.910156 221.773438 367.332031 217.742188 360 216 M 1011 354 C 1021.855469 349 1029.871094 335.542969 1038 327 C 1054.945313 309.316406 1072.203125 293.585938 1092 279.152344 C 1102.566406 271.445313 1121.3125 263.097656 1127 251 C 1111 259.503906 1096.609375 272 1080 279 C 1097.621094 261.378906 1113.644531 241.632813 1134 227 C 1129.476563 225.816406 1126.210938 230 1123 232.71875 C 1115.523438 239.171875 1107.710938 245.230469 1100 251.398438 C 1074 272.167969 1050.253906 294.421875 1030 321 C 1022.910156 330.535156 1012.269531 341.601563 1011 354 M 1049 343 C 1060.890625 337 1069.242188 325 1079 316.171875 C 1097 299.757813 1118.53125 287.066406 1135.984375 270 C 1144.589844 261.527344 1152.734375 251.5 1153 239 C 1142.359375 244.820313 1132.863281 262.136719 1124 271 C 1108.675781 286.324219 1092.347656 300.496094 1076 314.71875 C 1066.433594 323.042969 1054.921875 331.523438 1049 343 M 343 244 L 343 245 C 362.4375 258 384.859375 264.445313 406 274 C 415.953125 278.296875 424.242188 285.382813 434 290 L 434 291 C 410 281.0625 383.671875 276.460938 358 273 C 367.449219 284.105469 386.582031 287.335938 400 291.140625 C 419.644531 296.707031 436.984375 304.257813 454 315.671875 C 462.644531 321.46875 471 327.65625 479 334.429688 C 484.636719 339.257813 489.515625 345.242188 497 347 C 492.738281 332.203125 479.609375 317.742188 468.996094 307 C 451 289 431.777344 273.054688 408 263.453125 C 395.757813 258.507813 382.714844 256.628906 370 253.371094 C 360.78125 251.007813 352.375 245.40625 343 244 M 426 254.332031 L 426.332031 254.667969 C 425.839844 254.832031 425.226563 254.332031 426 254.332031 M 1080 279 L 1079 280 L 1080 279 M 1101 279 C 1078.628906 297.21875 1054.207031 318.484375 1040 344 C 1047.355469 340.5625 1053 332.070313 1058.425781 326 C 1067.242188 316 1076.914063 305.179688 1087 296.285156 C 1091.449219 292.359375 1101.882813 285.617188 1101 279 M 337 285 C 337.699219 301.066406 347.296875 325.039063 364 330 C 357.96875 316.007813 348.929688 294.710938 337 285 M 1161 287 C 1150.589844 309 1146.183594 332.828125 1139.277344 356 C 1134.882813 370.753906 1127.921875 384.460938 1123 399 C 1129.847656 394.8125 1133.917969 383.183594 1137 376 C 1145.570313 356.015625 1151.425781 336 1157 315 C 1159.460938 306.570313 1164.632813 295.660156 1161 287 M 435 291 L 440 294 L 440 295 L 434 292 L 435 291 M 380 294 C 395.976563 319.539063 431 326.136719 455 341.695313 C 468.390625 350.414063 480.335938 364.488281 496 369 C 473.617188 337.226563 438.277344 317 403 303.574219 C 395.234375 300.644531 388 296 380 294 M 442 295 L 441 296 L 442 295 M 365 299 C 370.816406 311.472656 387.394531 316.761719 396.996094 326.039063 C 404 333 409.527344 341.207031 417 347.710938 C 430 359.070313 444.832031 368.210938 458 379.425781 C 467.867188 388 477.9375 400 490 405 C 476.910156 382.023438 453 365.597656 434 348 C 451.628906 357.824219 466.625 376.824219 486 383 C 480.386719 371.203125 467.804688 363.101563 458 355 C 430 331.605469 396.992188 315.832031 365 299 M 340 316 C 344.984375 333.699219 352 357.128906 372 363 C 366.855469 352.171875 357.9375 343.332031 351.859375 333 C 348.535156 327.34375 345.921875 319.246094 340 316 M 377 333 C 387.316406 368.738281 430.335938 385.492188 455 409.039063 C 461.863281 415.59375 468.410156 422.394531 474 430 C 477.734375 435 480.554688 441.066406 486 444 C 479.507813 424.804688 467 410.136719 453 396 C 466.757813 405.101563 475.34375 420 489 429 C 478.367188 392.089844 433.746094 373.140625 404 354.574219 C 394 348.382813 386.816406 339.140625 377 333 M 1157 334 L 1158 335 L 1157 334 M 1156 336 C 1152.796875 348 1147 359.800781 1145 372 L 1146 372 C 1149.175781 362.613281 1159 345.824219 1156 336 M 1046 347 C 1047.457031 346 1047.894531 345.457031 1049 344 C 1046.875 345 1046.898438 345 1046 347 M 432 347 C 430.363281 346.453125 430.546875 346.636719 430 345 C 431.636719 345.546875 431.453125 345.363281 432 347 M 434 347 L 433 348 L 434 347 M 386.667969 359.332031 C 386.222656 359.777344 387.277344 359.722656 387.332031 359.667969 C 387.777344 359.222656 386.722656 359.277344 386.667969 359.332031 M 351 372 C 352.839844 376 355.457031 378.496094 359 381 C 357.203125 377 354.84375 374.167969 351 372 M 902 379 C 902 386.59375 901 395.125 905 402 C 913.953125 417.460938 933.554688 421 949 426 C 964.980469 431.28125 979.609375 439.605469 992 451.089844 C 1021.398438 478.328125 1041.398438 513.410156 1068.171875 543 C 1110.601563 590 1160.359375 625 1177 689 L 1176 689 C 1168.691406 678.832031 1159.703125 670 1148 665 C 1164.59375 681.59375 1175 696.464844 1178 720 C 1166.566406 712 1156.554688 703.605469 1144 697 C 1158.671875 711.660156 1175.535156 723.382813 1176 746 C 1168 742.304688 1161.613281 734 1155 728.160156 C 1147.441406 721.597656 1138.691406 716.335938 1130 711.425781 C 1098.378906 693.558594 1049.664063 688.035156 1029 655 C 1062.503906 668 1094 683 1129 692 C 1122.542969 686.691406 1110.820313 684.378906 1103 681 C 1083.839844 672.722656 1064.375 664.632813 1046 654.691406 C 1023 642.339844 1000.371094 618 974 614 L 974 613 C 997.628906 614.015625 1019.84375 628.789063 1040 639.691406 C 1062.53125 652 1084.261719 660 1110 660 L 1110 658 C 1065.488281 658 1033.414063 621.714844 993 608.746094 C 966.476563 600.234375 941.304688 605.238281 916 615 L 916 616 C 922.699219 616 929.84375 615.035156 936 618 C 931.945313 623.164063 925.507813 624.445313 921 629 C 927.523438 629 962.421875 631.53125 942 639.316406 L 935 642 L 935 643 C 950.394531 643 965.644531 641.003906 981 641 C 977.660156 647.226563 968.4375 648.523438 962 650 L 962 651 C 977.632813 652.234375 990.222656 657.773438 1005 662 L 1005 663 C 990.984375 663 977 661 963 661 L 963 662 C 970.601563 663.816406 978.566406 663.78125 986 666.4375 C 1003.484375 672.6875 1019.339844 688.484375 1029 704 C 1017.398438 701.574219 1007.589844 694.425781 996 692 C 1007.21875 701.316406 1020.472656 702.632813 1027 718 C 1031.664063 728.503906 1030.5 741.175781 1022.671875 750 C 1019.585938 753.347656 1013.960938 755.539063 1012.210938 760.015625 C 1009.386719 767.25 1013.460938 778.523438 1010.78125 787 C 1002.558594 813 980.710938 815 960 825 L 971 829 L 971 830 C 959 832.3125 948.8125 833.746094 937 830 C 941.351563 833.578125 946.355469 835.0625 951 838 C 945.234375 840.820313 939.316406 841 933 841 L 933 843 C 940 843.625 948.257813 846.46875 953 852 C 944.960938 852 936.644531 853 929 850 C 934.503906 856.402344 943.28125 856.730469 951 858.664063 C 957.480469 860.289063 963.292969 864.097656 970 864.824219 C 980.730469 866 990.753906 861.347656 1001 859 L 1001 858 L 978 858 L 978 857 C 1003 855.007813 1023.273438 837.722656 1048 836 L 1048 835 C 1026.226563 835 1008.183594 846.3125 987 848 L 987 847 C 1002.210938 841.820313 1014.875 832 1028 823.027344 C 1032 820.238281 1037.25 819.085938 1041 816 C 1023.527344 819.386719 1009.902344 830.378906 993 835 L 993 834 C 1008.644531 827.257813 1025.867188 815 1037 802 C 1025.242188 809 1012.367188 817 999 820 L 999 819 C 1011 813.8125 1028.546875 802 1037 792 C 1031.824219 794.292969 1026.363281 796.183594 1021 798 C 1024 781.734375 1040.734375 780.058594 1051 771 C 1038.824219 774.523438 1029.296875 781.71875 1018 787 C 1022.433594 773.394531 1030.425781 767.753906 1041 759 C 1033.476563 762 1026 765.335938 1018 766 C 1025.265625 750.550781 1048.558594 751 1063 751 L 1063 750 C 1056.332031 748.121094 1049.5 746.75 1043 744.304688 C 1041.363281 743.683594 1036.691406 742.132813 1037.75 739.496094 C 1039.179688 736 1056.675781 739.675781 1060 740.050781 C 1079.550781 742.246094 1115.722656 742.082031 1129 759 C 1123 757.480469 1117 756.476563 1111 756 C 1115.894531 761.710938 1123.757813 763 1130 766.707031 C 1143.773438 775.242188 1156.410156 788.074219 1161 804 C 1150 797.222656 1140.855469 788.054688 1128 785 C 1132.582031 789.042969 1139 790.773438 1144 794.667969 C 1153.425781 802.085938 1160.410156 812.496094 1166 823 C 1156 818.253906 1147.804688 810.21875 1138 805 C 1151 823.503906 1173.886719 832.636719 1186 852 C 1169.746094 849 1154.179688 831.363281 1140 823 C 1157.65625 848 1195.664063 862.3125 1203 894 C 1194.984375 890.1875 1188.394531 883.574219 1181 878.667969 C 1170.9375 872 1160 866.636719 1150 860 C 1165.484375 878 1191.386719 887.335938 1200 911 C 1183 899.128906 1169.984375 889.503906 1150 883 C 1154.667969 887.117188 1161.636719 888.753906 1167 892.066406 C 1180.457031 900.371094 1191.847656 911.222656 1198 926 C 1177.378906 916.199219 1161.648438 901.425781 1139 895 C 1151.296875 906 1169.625 908.578125 1180 923 C 1164 916.363281 1149.789063 908.011719 1132 908 L 1132 909 C 1150.546875 914.222656 1168.449219 920.070313 1184 932 C 1186.839844 934.058594 1198.214844 942.078125 1196.652344 946.300781 C 1195.480469 949.476563 1185.945313 951.777344 1183 953 C 1169.597656 958.503906 1155.773438 963.511719 1142 968 L 1142 969 C 1157.785156 968.320313 1173.773438 961 1189 957 C 1185.476563 964.214844 1176.441406 967.398438 1170 971.667969 C 1152.566406 983.226563 1134.75 996 1113 996 L 1113 998 C 1132.761719 998 1149.570313 991.234375 1168 985 C 1157.507813 1013.222656 1110.65625 1023.203125 1085 1015 C 1097.855469 1025.566406 1113.285156 1025 1129 1025 L 1129 1026 C 1106.984375 1037.582031 1082.980469 1045.464844 1058 1039 C 1070.863281 1049.570313 1090.253906 1049.011719 1106 1051 C 1094.660156 1073 1060.953125 1067.058594 1042 1061 C 1049.234375 1068 1057.554688 1070.191406 1066 1075 C 1051.910156 1083.441406 1038.421875 1067.230469 1029 1059 C 1036.34375 1073 1042.996094 1088 1040 1104 C 1032.992188 1098.296875 1027.96875 1089.695313 1021.714844 1083.089844 C 1013.535156 1074.449219 1003.804688 1067.613281 994 1061 C 1004.34375 1074.46875 1015.621094 1085.632813 1021.5625 1102 C 1024.308594 1109.558594 1024.171875 1117.320313 1026 1125 C 1019.839844 1122 1015.816406 1115 1010.996094 1110 C 1000.308594 1099.183594 988.933594 1087.59375 975 1081 C 995.320313 1098.75 1009.429688 1120.351563 1010 1148 C 1003.289063 1142.4375 1000.75 1133.054688 995.789063 1126 C 986.972656 1113.460938 975 1102.101563 962 1094 C 981.730469 1115.4375 990.796875 1137 996 1165 L 995 1165 C 984.695313 1140.257813 961.613281 1125.519531 944.574219 1106 C 939.59375 1100.296875 931 1095.574219 928.71875 1088 C 926.339844 1080.261719 937.566406 1067.535156 941.28125 1061 C 945.574219 1053.445313 950.769531 1034.316406 958.214844 1030.03125 C 962.523438 1027.550781 968.9375 1031 973 1032.605469 C 985.804688 1037.789063 997.585938 1045.300781 1009 1053 C 1000.660156 1043.460938 987.292969 1036.710938 976 1031.257813 C 972 1029.371094 962.433594 1028 960.644531 1023.605469 C 958.863281 1019.289063 963.355469 1013.050781 964.558594 1009 C 966.773438 1001.558594 965.59375 994.535156 965 987 C 961.761719 990.347656 960.859375 994.800781 959 999 L 958 999 C 955 995.582031 952 993.523438 948.996094 998.0625 C 944.625 1004.371094 946.902344 1014.320313 940.773438 1019.484375 C 935.636719 1023.820313 927 1021.476563 921 1022.4375 C 909.757813 1024.195313 900.351563 1028.691406 890 1033 L 890 1034 C 901.714844 1034 912.492188 1028.289063 924 1026.4375 C 927.257813 1026 933.714844 1024.066406 936.644531 1026.042969 C 940.335938 1028.535156 936.789063 1035 935.601563 1038 C 931.730469 1047.753906 927.476563 1057.320313 923.449219 1067 C 922.175781 1070.0625 920.828125 1075.398438 916.90625 1076.003906 C 912.65625 1076.65625 907.449219 1071.261719 904 1069.289063 C 895.648438 1064.511719 886.601563 1060.292969 877 1059 C 884.835938 1066.03125 894.808594 1068.535156 904 1073.257813 C 907.261719 1075 912.96875 1077.289063 914 1081.183594 C 916.621094 1090.203125 900.417969 1104.792969 894 1109 C 866.515625 1126.542969 831.875 1118.027344 802 1113.078125 C 794.542969 1112 787.496094 1110.234375 780 1112 C 777.441406 1112.601563 773 1114 771 1111.398438 C 766.519531 1105.402344 775 1090.320313 780 1087.132813 C 787.996094 1082 798.257813 1081.507813 807 1078.1875 C 826.40625 1070.8125 841.714844 1057 848.65625 1037 C 851.761719 1028.109375 853.757813 1018.4375 853.984375 1009 C 854.167969 1001.433594 853.277344 993.300781 851.253906 986 C 838.863281 941.296875 787.445313 939.167969 749 942.828125 C 725 945.113281 702 948.234375 686.515625 969 C 675.699219 983.410156 671.761719 1003.433594 675 1021 C 677 1031.113281 684.261719 1042.503906 679.992188 1053 C 676 1062.804688 665.515625 1062.03125 657 1064.492188 C 654 1065.34375 649.800781 1067.207031 651.753906 1071 C 656.773438 1080.691406 682.496094 1090.632813 693 1088.769531 C 698 1088 701.722656 1080.457031 707 1082.566406 C 717 1086.589844 720.921875 1102.53125 733 1103.140625 C 742.398438 1103.617188 745.8125 1090.050781 754.984375 1090.28125 C 761 1090.433594 768.765625 1109 764.382813 1113.0625 C 761.851563 1115.4375 757 1115 754 1115.089844 C 745.628906 1115.703125 737.40625 1117.703125 729 1118.011719 C 692.285156 1119.347656 658.214844 1116.078125 629 1091 C 620 1083.324219 613 1074.242188 605.789063 1065 C 603.742188 1062.390625 598 1057.183594 600 1053.429688 C 601.734375 1050.402344 607 1050.261719 610 1049.75 C 619.710938 1048.046875 629.347656 1046 639 1044 L 639 1043 C 624.945313 1040.390625 609.878906 1051 597 1047.679688 C 587.765625 1045.40625 580.265625 1021.441406 579 1013 C 586.910156 1015 595 1015 603 1017.152344 C 611.851563 1019.574219 620 1024 629 1026 C 619.359375 1017.804688 607.222656 1013.792969 595 1011.210938 C 589.28125 1010.003906 580.957031 1011.277344 576.226563 1007.4375 C 565.214844 998.496094 566.445313 977 551 971.273438 C 541 967.710938 536.585938 987.273438 530.269531 982.507813 C 528.664063 981.296875 527.363281 979.539063 526 978 C 512.488281 961.4375 540.566406 963.289063 552 964.089844 C 575.195313 965.714844 589.410156 981.691406 609 991 C 596.289063 973.320313 573.984375 960.628906 552 959.089844 C 543.527344 958.496094 535.300781 959.40625 527 961 C 523.425781 961.6875 518.535156 963.050781 515.429688 960.398438 C 507.761719 954 508.191406 933.410156 516 927.511719 C 522.46875 922.6875 531.882813 923.589844 539 926 C 526.375 908.460938 487.980469 905.644531 490.183594 935 C 490.746094 942.492188 493.632813 950.632813 497.53125 957 C 499 959.648438 503 964.132813 500.929688 967.441406 C 498.730469 971 490.605469 972.175781 487 973.71875 C 475.167969 978.785156 463.855469 985.0625 452 990 L 452 991 C 464.519531 987.394531 476.699219 980.214844 489 975.574219 C 494 973.65625 500.417969 970 506 971.71875 C 516.914063 975.144531 528.273438 992.3125 535.191406 1001 C 537.289063 1003.632813 542.578125 1009 541.976563 1012.582031 C 541.488281 1015.605469 535.359375 1016.570313 533 1017.28125 C 523.96875 1020.003906 512.355469 1027.535156 503 1027.484375 C 495 1027.445313 488.734375 1018.621094 483 1014.234375 C 472.3125 1006.0625 458.652344 998.113281 445 997 C 445.902344 995.078125 446 995 448 994 L 448 993 C 437.304688 997 428.84375 993.46875 418 993 L 418 994 C 422.390625 996.304688 423 1000.304688 426.585938 1003 C 430.539063 1006 437.433594 1007.796875 442 1010.550781 C 447.949219 1014.136719 454 1017.429688 460 1021.0625 C 465 1024.226563 479.226563 1030.234375 480 1037 C 480.539063 1040.585938 475.5 1042.5625 473 1044 C 464.183594 1049.0625 455 1053 445 1054.5625 C 412.875 1059.578125 381.878906 1042.089844 350 1042 L 350 1041 C 371.210938 1028.621094 393.429688 1029.621094 417 1028 L 417 1027 C 405 1026.753906 393.796875 1022.3125 382 1021.171875 C 368.445313 1020 353.195313 1021.820313 340 1025 C 347.261719 1006.308594 377.191406 1004.738281 394 1002.425781 C 399.925781 1001.605469 407.320313 1002.070313 412 998 C 385.195313 997.445313 362.589844 997.515625 336 1003 C 341 995 349 988.203125 358 984.464844 C 363.21875 982.257813 370 982.085938 374 978 C 360 978 346.59375 979.195313 333 982 C 339.742188 968.460938 354.417969 962.039063 369 962 C 358.941406 953.242188 340.589844 957.609375 329 960 L 329 959 C 341 952 354.929688 947.664063 369 949.175781 C 400.402344 952.535156 432 974 461 948 C 446.605469 953.554688 432.253906 955.636719 417 952.332031 C 394 947.378906 374 934 350 937 L 350 936 C 369.246094 929.449219 386.605469 920.394531 401 906 C 379 918.117188 360.328125 921 336 924 L 336 923 C 359.214844 915.445313 385.195313 902 399 881 C 376.429688 898.394531 351.378906 907.761719 323 910 L 323 909 C 350.539063 902.472656 376.523438 880.476563 396 861 C 372.964844 874 354.214844 891 328 898 L 328 897 C 345.609375 887.234375 362.808594 874 374 857 C 360.535156 867.148438 347.492188 881.417969 330 884 L 330 883 C 362.585938 869.363281 371.796875 833.207031 395 810 C 372.570313 825 364.191406 852.519531 340 866 C 343.738281 858.492188 349.738281 852.257813 353.988281 845 C 364.570313 827 374.351563 795.164063 399 793 L 399 791 C 386.285156 791.582031 379 800.6875 369 807 C 371.835938 790.527344 384.871094 778.109375 394 765 C 382.847656 774.742188 373.511719 788.171875 361 796 C 369.179688 776.355469 384.699219 753.035156 408 751 L 408 749 C 396 749.03125 385.863281 753.542969 375 758 C 381.757813 748.609375 393.480469 745.167969 404 741.667969 C 429.828125 733.066406 470.332031 724 495 740 L 495 741 C 485.207031 742.238281 470.730469 742.1875 463 749 C 481 749 498.785156 752.089844 510 768 C 499.898438 766.640625 490 763 480 761 C 487.882813 768 499.460938 768.78125 505 779 C 495.535156 779 480.429688 779.511719 473 786 C 491.609375 786 511.289063 787.378906 523 804 C 518.285156 803.363281 513.605469 802.191406 509 801 C 512.433594 805.003906 516.929688 806.796875 522 808 L 522 809 C 515.851563 808.207031 510 806.378906 504 805 C 510.40625 814.070313 519.730469 817.726563 529 823 L 529 824 C 522 824 514.78125 823.257813 508 822 C 516.527344 831.226563 530 833 542 833 L 542 834 C 535.3125 834.527344 528.726563 836 522 836 L 522 837 C 530.75 840 538.75 842 548 842 L 548 843 C 545.226563 843.410156 542.671875 844.148438 540 845 L 540 846 C 547.453125 846.609375 554.496094 849.632813 562 850 C 579.703125 850.734375 609.375 841.757813 622 829 C 609.648438 833.757813 598 835 585 835 C 588.925781 830.414063 594.894531 828.476563 599 824 C 549.4375 838 517.417969 770.214844 508 732 C 513.355469 732.679688 518.585938 734 524 734 L 524 732 C 517 731.683594 510.527344 729.203125 507 723 C 517.644531 723.457031 532.390625 726.625 539.609375 735.09375 C 544.894531 741.292969 545.265625 749.109375 552 754.480469 C 566.492188 766.039063 585.917969 770.539063 604 771.816406 C 624 773.230469 660.761719 760.148438 663.636719 737 C 664.5625 729.535156 660.472656 721.449219 657.246094 715 C 648 696.703125 634.492188 681.464844 615 674.066406 C 595.917969 666.824219 573.46875 667.5625 557 680.519531 C 541.777344 692.492188 534.84375 711 513 711 C 517.210938 704.269531 523.320313 699.28125 528 693 C 535.210938 683.65625 540.824219 673.542969 549 665 C 538 671.09375 529.960938 677 517 677 L 517 676 C 526.472656 671.519531 534.890625 664.640625 544 659.425781 C 549.691406 656.167969 557 654.292969 562 650 C 554.929688 650.058594 548 652 541 652 C 550.203125 639.613281 571 640.101563 585 639 L 585 638 C 578.761719 636.382813 572.859375 634.75 567 632 L 567 631 C 576.921875 628 587 628.363281 597 626 L 597 625 C 590.832031 624.734375 575.648438 625.160156 572 620 C 600.25 614.171875 626 628.546875 638 656 C 628.863281 654.371094 621 648.117188 612 646 C 630.832031 662.050781 643.242188 682.242188 661 700 C 661.859375 680.007813 672.960938 663.160156 682 646 C 676.1875 652 670.996094 658.175781 666.34375 665 C 664.65625 667.476563 662.371094 672.597656 659 673.078125 C 654.714844 673.695313 647.574219 658.152344 644.839844 655 C 634.230469 642.761719 622.433594 632 609 622.746094 C 602.359375 618.234375 590.773438 615.261719 587 608 C 594.6875 608.785156 601 613 609 613 C 603 608 596.359375 605 594 597 C 602.742188 599.386719 609.855469 601 619 601 C 612.765625 595 601.8125 594.464844 594 591 C 601.421875 586.523438 612.578125 587 621 587 L 621 585 C 614 584.449219 606.871094 583.277344 600 582 C 606.328125 574.644531 615.421875 576.824219 624 577 C 604.40625 559.308594 580.199219 553.785156 556 564.148438 C 550.527344 566.492188 544 568.558594 540 573 C 553.191406 566.050781 568.457031 565.148438 583 564 L 583 565 C 550 572.605469 528.328125 595 503 615.191406 C 495 621.511719 484.273438 624.582031 477 631 C 498.292969 626 516 611.316406 536 603 C 530.355469 610.664063 520.828125 615.757813 513 621 C 484.195313 640.285156 449.859375 647.339844 420 664.425781 C 405.175781 673 391.597656 683.492188 381 697 C 375.191406 704.433594 372.257813 715 365 721 C 352.421875 688.398438 363 659.648438 383.652344 633 C 411.179688 597.285156 448.863281 571 477.386719 536 C 500 508.25 515.460938 473.175781 543 449.578125 C 556.519531 438 571.492188 429.425781 588 422.800781 C 601.296875 417.464844 618 413 625 399 C 629 391.265625 627 383.144531 626 375 C 643 379.039063 657.867188 387.753906 676 387 C 701.722656 386 726 372.546875 752 373.054688 C 758.734375 373.1875 764.472656 377.035156 771 377.503906 C 783.234375 378.382813 795.542969 374.234375 808 375.089844 C 841 377.351563 868.765625 386 902 379 M 360 382 L 361 383 L 360 382 M 801 385 C 801.96875 397.289063 804 409.65625 804 422 L 806 422 C 806 411.25 809 393.378906 801 385 M 759 540 L 758 540 C 755.574219 526 747.4375 511.320313 742.203125 498 C 735.589844 481.171875 731.210938 464.144531 726 447 L 725 447 C 725 472.683594 735.804688 496.644531 742.574219 521 C 751.601563 553.46875 758.550781 589.277344 760 623 L 759 623 C 756.902344 609 749.847656 595 746.371094 581 C 735.589844 538 724.820313 496.570313 704 457 L 703 457 C 703.699219 472.265625 713 487.578125 717.65625 502 C 728.195313 535 739.902344 570.007813 740 605 L 739 605 C 738.226563 587.042969 727.878906 562.488281 713 552 C 718 574 730.527344 595.039063 731 618 L 730 618 C 729.5 606.53125 723.871094 595.394531 719.421875 585 C 708.699219 560 694.898438 536.3125 679.28125 514 C 672.425781 504.207031 665.179688 489.21875 654 484 C 675.867188 534.742188 721.484375 576.429688 724 635 L 723 635 C 721.34375 597 686.296875 565.148438 661 541 C 650.554688 531 640 518.53125 627 512 C 632.863281 526 646.550781 537.550781 657 548 C 674.554688 565.554688 693 583.808594 704.679688 606 C 725.847656 646.25 712 693.199219 712 736 C 719.179688 730.609375 720.839844 709.632813 722 701 L 723 701 C 723 708 725 714.238281 726 721 L 728 721 C 728 711.625 730.570313 698.144531 737 691 C 739 717.359375 754.738281 739.320313 758 765 C 753.464844 759.683594 749.789063 754.082031 744 750 C 745.308594 766 755 780.472656 758.765625 796 C 767.398438 832.472656 771 869.613281 771 907 L 773 907 C 773 863.269531 767.941406 819.773438 769 776 C 769.476563 757.113281 774.613281 738 775.910156 719 C 777.890625 690.109375 775 661 775 632 C 779.191406 631.421875 777.820313 625.441406 778.257813 622 C 779.574219 611.664063 780.714844 601.285156 782.40625 591 C 789.835938 546 793.476563 500.230469 799 455 C 789.574219 463.289063 788.507813 489 786.726563 501 C 780.527344 543.0625 776 586.488281 776 629 C 770.316406 617.1875 773 596.105469 773 583 C 773 558.308594 774.671875 534.441406 778.273438 510 C 781.539063 487.808594 786.976563 464.546875 784.828125 442 C 783.484375 428 781 413.332031 775.933594 400 C 775 397.765625 771.371094 387.789063 767.804688 389.347656 C 763.601563 391.175781 761.855469 406 760.882813 410 C 755.601563 432.285156 752.519531 457.101563 754 480 C 755.457031 500 759 520 759 540 M 736 391 C 736 401.117188 738.207031 411 739 421 L 741 421 C 740.699219 414 741.6875 395.328125 736 391 M 823 393 C 820.300781 406.050781 817 418.539063 817 432 L 819 432 C 820 419 824.726563 406.183594 825 393 L 823 393 M 832 393 C 829.296875 404.691406 825 415.804688 825 428 L 826 428 C 829 417 833 404.527344 834 393 L 832 393 M 842 394 C 837 403.277344 834.394531 414.644531 833 425 L 834 425 C 837.859375 417.675781 845.367188 402.101563 842 394 M 1159 394 C 1155.976563 397.816406 1153 401.59375 1151 406 C 1154.839844 403.289063 1160.359375 399.203125 1159 394 M 453 395 L 452 396 L 453 395 M 674 404 C 676.367188 412.683594 686.582031 422.144531 695 425 C 690 416.136719 682.808594 409.019531 674 404 M 485 511 C 478.664063 501 475.570313 488.433594 469.398438 478 C 456.621094 456.410156 438.761719 435 433 410 C 443.289063 412.074219 449.246094 424 454.671875 432 C 468.359375 452.3125 492.839844 484.472656 485 511 M 665 410 C 668.195313 418.429688 675.226563 426.507813 683 431 C 681 422.597656 672.710938 413.597656 665 410 M 651 413 C 654.714844 420.621094 664.757813 427 672 431 C 669 422.660156 659.644531 414.671875 651 413 M 861 448 C 866 445.421875 867.828125 440.234375 871.328125 436 C 876.339844 430 882.375 425.15625 889 421 C 875.898438 416.46875 863.746094 438.328125 861 448 M 628 424 C 633.242188 431.378906 642.96875 438.390625 652 440 C 647.636719 432 636.910156 425.589844 628 424 M 783 645 L 784 645 C 791.3125 614.636719 800 583.75 805.574219 553 C 809.601563 530.683594 810.226563 507.191406 819 486 C 824 473.796875 831.367188 462 840.175781 452 C 845.78125 445.71875 854.414063 440.671875 858 433 C 842.179688 437.585938 830.921875 449.566406 822 463 C 799.644531 496.6875 801.511719 535.828125 794 574 C 789.378906 597.476563 783 621 783 645 M 872 455 C 885.59375 450.667969 894.707031 441.128906 910 441 C 902.484375 429.410156 876.976563 448 872 455 M 1041.5 439.5 C 1040.871094 440.128906 1041.871094 441.128906 1042.5 440.5 C 1043 440 1042 439 1041.5 439.5 M 792 538 L 793 538 C 800.710938 520.082031 801.722656 499.46875 808 481 C 812.921875 467 823.910156 454.796875 828 441 C 820.246094 445.484375 814.867188 456.261719 810.78125 464 C 798.613281 487.042969 794 512.246094 792 538 M 919 451 C 925.835938 465.496094 949.367188 460.003906 961 455 C 955.902344 453 950.351563 456.046875 945 456 C 936.21875 455.777344 927.53125 452.761719 919 451 M 578 454 L 578 455 C 587 461 612.6875 472.53125 621 460 C 606.347656 460 592.585938 454.039063 578 454 M 553 466 C 559.917969 486.335938 592.636719 478.359375 607 472 L 607 471 C 587.949219 471.003906 571.347656 473.066406 553 466 M 790 716 C 789.425781 708.703125 789.425781 702.296875 790 695 L 791 695 C 791 702.824219 791.855469 716.277344 799 721 C 799 716 799.601563 711.046875 800 706 L 802 706 C 802 711.40625 802.175781 718.695313 807 722 C 807 718.347656 807.726563 698.757813 814.949219 702.753906 C 831.613281 712 828.378906 742.292969 847 751 C 843 739.359375 836.511719 728.734375 832.746094 717 C 822.8125 686.039063 822.597656 652 833 621 C 838.511719 604.679688 851.90625 592 857 576 C 847.5 580.730469 841.230469 590.15625 835.8125 599 C 820.757813 623.5625 817 652.691406 817 681 L 816 681 C 816 662 814 644.753906 819.425781 626 C 823.851563 610.496094 833.230469 597.078125 838 582 C 819.769531 595 804 628.804688 804 651 L 803 651 C 803 626.363281 812.933594 605.398438 819 582 C 831 536.828125 837.792969 479.21875 895 472.285156 C 903.660156 471.238281 912.597656 474.265625 921 476 C 917 468.199219 906 466.382813 898 466.039063 C 877.78125 465.183594 854.796875 473.550781 841.4375 489.015625 C 824.183594 509 820.988281 536.046875 816 561 C 809.292969 594.535156 801.199219 627.777344 789.691406 660 C 784.171875 675.464844 773.847656 703.316406 790 716 M 957 466 C 960.210938 482 979.566406 482 991 476 L 991 475 C 978.523438 475 968.417969 470.429688 957 466 M 372 514 C 372.335938 498.421875 383.316406 504.320313 391 512 C 402 523.078125 410.816406 536.441406 418.574219 550 C 420 552.539063 425.976563 561.109375 422.957031 564 C 418.914063 567.703125 405.941406 554.386719 403 552 C 404.535156 558.636719 407.425781 564.726563 410 571 C 400.550781 569.726563 391.824219 565.402344 383 562 L 392 577 C 376.632813 575.015625 364.542969 567.53125 352 559 C 356.285156 569.222656 364.804688 575.207031 371 584 C 361 581.148438 352.445313 574.699219 344 569 C 347.441406 577.265625 352.679688 584.238281 357 592 C 349.296875 590.058594 341.84375 585 335 581 C 336.480469 591.03125 342.191406 600 351 605 L 351 606 C 341.515625 606.007813 336.648438 608.699219 329 614 C 333 586.628906 335 560.007813 304 547 C 315.585938 536 328.949219 526.511719 330.824219 509 C 331.628906 501.511719 320.914063 479.128906 330 475.617188 C 335.355469 473.617188 341.328125 478.695313 344.996094 481.757813 C 355.9375 491 360.582031 505.785156 372 514 M 542 479 C 555.367188 498 583.777344 495.359375 602 485 C 594.453125 482 583.199219 486.1875 575 486 C 563.671875 485.707031 553 480.632813 542 479 M 921 481 C 925.351563 486.058594 931.753906 487.09375 938 488.625 C 952 492.085938 967.511719 494 982 494 C 977.257813 489.261719 970.289063 489 964 487.574219 C 950 484.519531 935.292969 481.039063 921 481 M 531 504 C 552.371094 500.03125 573.722656 504.683594 594 494 C 589.246094 491.207031 583.21875 493.039063 578 493.71875 C 566.957031 495.15625 555.964844 496.597656 545 498.574219 C 540 499.476563 534 499.453125 531 504 M 842 552 C 850.574219 548 855.980469 539 862.171875 532 C 869.394531 524 877.261719 518.769531 887 514.308594 C 924.601563 497.089844 970.929688 499.5625 1010 510 C 1022.648438 513.226563 1034.195313 522.082031 1047 524 C 1035.585938 508.132813 1011 503.050781 993 499.210938 C 941.867188 488.320313 859.625 490.820313 842 552 M 851 554 C 867.5625 546.277344 878.648438 531.195313 897 525.003906 C 937.203125 511.4375 984.835938 522.753906 1022 540.484375 C 1033.375 546 1043.449219 554.023438 1055 559 C 1047.929688 544 1022.753906 533.152344 1008 527.011719 C 961 507.519531 875.730469 495 851 554 M 428 515 C 428.683594 516.578125 428.804688 516.777344 430 518 C 429.308594 516.613281 429 516.140625 428 515 M 516 523 C 518.761719 527.027344 523.449219 527 528 527 L 528 528 C 518.242188 529 508.386719 533.105469 500 538 L 500 539 C 514.710938 539 532.289063 534.183594 546 529 C 551.808594 526.710938 557.984375 523.628906 561 518 C 545.816406 518.011719 531.179688 523 516 523 M 1013 522 L 1013 523 C 1023 529 1035.382813 538 1047 540 C 1039.5625 529.472656 1025.839844 522.558594 1013 522 M 532 526 L 532 527 L 529 527 C 530.246094 526.316406 530.546875 526.25 532 526 M 579 529 L 579 530 C 586.753906 532.453125 594.558594 533.667969 602 537.257813 C 615.53125 543.789063 628.214844 553.496094 643 557 C 628.675781 536.664063 604 521.558594 579 529 M 557 530 C 535.207031 542.71875 509.941406 541.34375 487 550 L 487 551 C 505.484375 551 524.730469 548.230469 542 541.398438 C 546.878906 539.46875 557.921875 536.703125 557 530 M 859 561 C 864.792969 558.242188 868.992188 552.359375 874 548.3125 C 884 540.144531 897.789063 532.574219 911 532 L 911 530 C 890 530.015625 867.371094 541.023438 859 561 M 862 572 C 877.453125 565.566406 889.761719 553.613281 906 548.722656 C 934.488281 540.140625 965.863281 544 994 552 C 1004.273438 555 1013.5625 560.585938 1024 563 C 1015.980469 552.136719 999.539063 546.738281 987 543.140625 C 955.566406 534.128906 920 531.515625 890 546.757813 C 879.4375 552.117188 866.441406 560.535156 862 572 M 553 549 C 584.664063 541.460938 608.695313 559.570313 636 571 C 626 549.265625 595.980469 540.085938 574 542.714844 C 567.246094 543.523438 557.195313 542.652344 553 549 M 896 595 C 906.394531 589 921 574.390625 927 564 C 914.414063 568.769531 900.628906 582.363281 896 595 M 902 599 C 909.488281 595.269531 915.1875 588.824219 922 584.035156 C 932.183594 577 943.410156 571.480469 954 565 C 948.441406 563.027344 942.753906 567.710938 938 570.21875 C 924.832031 577.167969 908.195313 584.367188 902 599 M 471 581 L 471 582 L 479 582 L 479 583 C 471.953125 584.039063 455.304688 587.265625 451 593 C 465.414063 593 480.53125 590.40625 494 585.1875 C 496.90625 584.0625 508.480469 580.085938 505 576 L 505 575 C 510.449219 574.0625 518.792969 571.703125 522 567 C 505 567.351563 486.972656 575.800781 471 581 M 1060 569 C 1068.789063 581.371094 1086.308594 587.6875 1100 593 C 1093.933594 580.023438 1073 572.5625 1060 569 M 535 574 L 535 575 L 540 574 C 538 573.378906 537 573.5625 535 574 M 910 602 C 930.171875 596.1875 945.964844 581.453125 968 581 C 963 577.6875 956.460938 579.621094 951 580.613281 C 936.804688 583.191406 917.226563 588.183594 910 602 M 1190 592 C 1183.777344 591.160156 1177.945313 589 1172 587 C 1180.820313 576.351563 1186.71875 580.523438 1190 592 M 1048 580 C 1051.636719 586 1060 588.652344 1066 592 C 1082.414063 601.316406 1101.832031 611.804688 1120 617 C 1108.84375 601.171875 1087 596.0625 1070 589.199219 C 1062.609375 586.234375 1055.796875 582 1048 580 M 481 581.332031 L 481.332031 581.667969 C 480.839844 581.832031 480.226563 581.332031 481 581.332031 M 920 608 C 937.832031 601.082031 955.667969 596.300781 975 598.171875 C 987.621094 599.390625 999.507813 604.316406 1012 606 C 1007.242188 601.195313 1000.328125 599.8125 994 598 C 976.84375 593.082031 958.390625 591.828125 941 596.128906 C 933.566406 598 923.589844 600.703125 920 608 M 1022 595 C 1046.207031 629.34375 1087 627.242188 1123 636.734375 C 1135 640 1145 647.195313 1156 653 C 1152.746094 643.441406 1141.699219 638.597656 1133 635 C 1110 625.035156 1083.667969 626.765625 1061 616.109375 C 1047.875 610 1036.730469 597.207031 1022 595 M 372 654 C 387.71875 650.230469 401.558594 637.695313 417 632.054688 C 444.777344 622 475 617.558594 502 605 C 494.214844 602 477.339844 608.542969 469 610.199219 C 445 615 421.828125 621.324219 400 632.246094 C 389.480469 637.511719 378.390625 643.8125 372 654 M 732 619 L 732 623 L 731 623 C 731.175781 621.316406 731.316406 620.507813 732 619 M 528 620 C 511.425781 646.617188 480.574219 651.113281 454 663 C 436.460938 670.613281 421.664063 682.757813 405 692 C 423.332031 662.695313 462 655.777344 491 641.742188 C 503.746094 635.570313 514.769531 625 528 620 M 761 624 L 761 627 L 760 627 C 760.25 625.546875 760.316406 625.246094 761 624 M 1206.667969 635.667969 C 1206.722656 635.722656 1206.777344 636.777344 1206.332031 636.332031 C 1206.277344 636.277344 1206.222656 635.222656 1206.667969 635.667969 M 725 636 L 725 643 L 724 643 C 724 640.457031 724 638.332031 725 636 M 682 645 L 683 646 L 682 645 M 782 646 L 782 649 L 783 649 C 782.75 647.546875 782.683594 647.246094 782 646 M 963.5 646.5 C 962.871094 647.128906 963.871094 648.128906 964.5 647.5 C 965 647 964 646 963.5 646.5 M 916 647 L 897 662 L 900 655 C 887.542969 660.8125 876.179688 680.492188 875 694 C 888.386719 686.261719 896.261719 671.242188 906.589844 660.171875 C 909.914063 656.609375 917 652.402344 916 647 M 959 651 C 960.457031 650 960.894531 649.457031 962 648 C 959.875 649 959.898438 649 959 651 M 508 651 C 501.9375 666.605469 478.851563 669.761719 465 675.066406 C 448.644531 681.324219 435 692.589844 420 701 C 437.722656 672.664063 478.949219 663 508 651 M 1231 660 C 1229.363281 659.453125 1229.546875 659.636719 1229 658 C 1230.636719 658.546875 1230.453125 658.363281 1231 660 M 897 662 L 896 663 L 897 662 M 549 664 L 550 665 L 549 664 M 321 666 L 320 667 L 321 666 M 1199 675 L 1198 676 L 1199 675 M 1247 675 C 1238.382813 680.679688 1231.816406 679.773438 1222 679 L 1222 680 C 1227.542969 683.21875 1252.589844 689.449219 1247 675 M 1018 731 C 1011.277344 727.074219 1003.660156 724.714844 998.171875 719 C 983.929688 704.023438 974.878906 680.597656 952 677.300781 C 914.171875 672 888 705 876.691406 737 C 874.265625 743.808594 865.484375 761.027344 869.195313 767.8125 C 874 777 894.875 779.203125 904 781 C 927.992188 785.71875 957.96875 786.003906 976.699219 767.5625 C 985.199219 759.195313 987.5 745.761719 997 738.417969 C 1003.277344 733.585938 1011.855469 735.570313 1018 731 M 1225 686 C 1228.402344 696 1237.808594 698.441406 1247 695 C 1241.796875 691.441406 1231.207031 688 1225 686 M 585 688 C 574.679688 706 564.316406 716.03125 570 738 L 571 738 C 570.582031 732.710938 570.226563 727.15625 569 722 L 570 722 C 571.882813 726.21875 573.34375 730.378906 576.328125 734 C 591.824219 752.777344 608.734375 743.574219 628 739 C 618.996094 756.355469 590.695313 761.695313 575 750.363281 C 568.644531 745.769531 566.21875 738.671875 562.738281 732 C 559.921875 726.601563 553.234375 720.59375 554.84375 714 C 557.699219 702.300781 574.683594 692.316406 585 688 M 1134 730 C 1125.480469 726.453125 1117.621094 721.367188 1109 718.066406 C 1089.941406 710.769531 1067.507813 706.757813 1055 689 C 1063.402344 692 1070.714844 697 1079 700.1875 C 1097.5625 707.378906 1121.871094 712.828125 1134 730 M 1140 693 C 1141 695.25 1141.75 696 1144 697 C 1142.671875 695.246094 1141.753906 694.328125 1140 693 M 612.335938 700.617188 C 618.988281 697.445313 630.976563 711 623.679688 715 C 618.242188 718 607 703.109375 612.335938 700.617188 M 802 704 L 801 705 L 802 704 M 948.609375 704.617188 C 953.484375 702 962.53125 711.632813 957.394531 715 C 953.269531 717.457031 944 707.132813 948.609375 704.617188 M 1238 706 L 1238 708 C 1248.757813 709.457031 1255.4375 717 1265 721 C 1260.734375 708.699219 1250 706.03125 1238 706 M 978 719 C 983.863281 732.0625 976.214844 748.207031 966 756.671875 C 950 770 924.816406 772 907 761.664063 C 892.699219 753.460938 884.875 731.089844 895.929688 717.09375 C 897.273438 715.386719 902.167969 710 904.257813 713.425781 C 906.171875 716.644531 904.835938 722.394531 905 726 C 905.628906 733.679688 908.304688 740.535156 914 745.816406 C 936.503906 766.488281 976.613281 749.316406 978 719 M 608 721 C 602.546875 720 599 716.445313 596 712 C 601.199219 713.496094 606.371094 715.503906 608 721 M 587.621094 721.65625 C 590.535156 720.226563 597.34375 725.613281 593.574219 727.355469 C 590.496094 728.777344 583.851563 723.511719 587.621094 721.65625 M 938 726 C 933.929688 725 930.84375 724.226563 928 721 C 931.945313 722.121094 935.171875 723 938 726 M 625 874 C 664.222656 855.710938 661.738281 775.605469 718 789 C 713 781.574219 698.199219 780.023438 690 780 L 690 779 C 698.390625 776.757813 704.429688 776.824219 713 777 L 713 776 C 707.914063 773.621094 702.539063 771 697 770 L 697 769 C 702.429688 769 707.644531 769.007813 713 770 C 710.828125 766.304688 707 764 704 761 C 710.175781 762 714.414063 765.652344 720 768 C 713.667969 753.324219 704.84375 745.066406 707 728 C 699.589844 732.28125 701.519531 743.308594 695.570313 748.398438 C 691.855469 751.574219 686.414063 749.261719 682.789063 753.277344 C 674.976563 762 671.613281 776 665.851563 786 C 650.777344 812.414063 627.558594 842.691406 625 874 M 920.335938 730.789063 C 923.273438 729.800781 930.222656 734.464844 925.664063 736.355469 C 922.246094 737.773438 915.972656 732.257813 920.335938 730.789063 M 884 743 C 890.253906 748.320313 896.46875 755.054688 899 763 C 889.402344 761.5625 879.542969 753.628906 884 743 M 1274 743 C 1278.53125 758.730469 1287.34375 775 1294 790 L 1295 790 C 1293.863281 776.097656 1286.816406 750.421875 1274 743 M 1218 758 C 1216.363281 757.453125 1216.546875 757.636719 1216 756 C 1217.636719 756.546875 1217.453125 756.363281 1218 758 M 827 779 L 838 777 C 835.390625 780.304688 831.296875 781.628906 829 785 C 835.203125 785.003906 840 786.386719 846 788 L 846 789 C 839 790.3125 832.328125 791.664063 826 795 L 826 796 C 848.847656 795.71875 857.375 809.667969 872 825 C 884 837.625 900.632813 851 918 855 C 912.875 846.28125 900.371094 841 893 834 C 880.683594 822.140625 870.367188 807.191406 862.753906 792 C 859.308594 785.128906 856 778.292969 853.667969 771 C 852.738281 768.25 851.863281 763.46875 848.789063 762.257813 C 843.648438 760.226563 829.730469 775.136719 827 779 M 1207 762 L 1206 763 L 1207 762 M 1250 767 C 1263.28125 786 1283 800.015625 1296.847656 819 C 1302.625 827 1307.265625 843.722656 1315 849 C 1309.273438 824.25 1293.609375 804.527344 1276 787 C 1268.648438 779.683594 1259.839844 770.730469 1250 767 M 874 795 C 878.460938 814.269531 895.3125 838.3125 916 842 C 911.597656 831.484375 903.964844 823 896 815 L 917 814 C 912 810.261719 903.828125 809.757813 898 807.394531 C 889.667969 804.019531 882.5 797.707031 874 795 M 1212 798 L 1211 799 L 1212 798 M 1205 815 L 1204 816 L 1205 815 M 1269 817 C 1276.277344 829.589844 1286.910156 839.757813 1293.742188 853 C 1298 861.46875 1299.640625 873.691406 1307 880 C 1307 857.144531 1296.78125 819.441406 1269 817 M 868 851 C 869.6875 872.195313 884.582031 887.292969 895.972656 904 C 903.527344 915.078125 908.671875 927.527344 913.425781 940 C 916.171875 947.207031 924.25 958.035156 922.640625 966 C 921.621094 971.058594 916 974.371094 914 979 C 926.335938 973.785156 926.238281 974.679688 932 987 L 933 987 C 932.316406 982.4375 928.375 976.546875 929.695313 972.003906 C 931.316406 966.4375 938.234375 964.304688 943 962.398438 C 956.203125 957.117188 969.824219 955 984 955.003906 C 1036.753906 955.632813 1082.214844 985.164063 1127 1009 C 1121.203125 999.167969 1102.796875 991.734375 1093 986.011719 C 1056.464844 964.667969 1015.695313 949.496094 973 950.003906 C 961.910156 950.136719 951 952.703125 941 957.308594 C 938 958.664063 930.898438 964.054688 927.601563 962.582031 C 925 961.492188 925.308594 955.242188 924.914063 953 C 923.300781 943.8125 920.296875 934.6875 916.9375 926 C 908.566406 904.335938 894.648438 889.019531 880.664063 871 C 876.230469 865.28125 873.644531 855.136719 868 851 M 1275.332031 857.667969 C 1275.277344 857.722656 1275.222656 858.777344 1275.667969 858.332031 C 1275.722656 858.277344 1275.777344 857.222656 1275.332031 857.667969 M 656 859 C 638.6875 874.125 618.972656 896 617 920 C 621.839844 917.042969 624.558594 910.660156 627.667969 906 C 634.589844 895.617188 641.574219 885.230469 648.71875 875 C 651.761719 870.644531 657.546875 864.640625 656 859 M 396 860 L 397 861 L 396 860 M 1276 860 C 1284.246094 879.808594 1299.304688 897.171875 1305 918 L 1304 918 C 1301.804688 910.382813 1295.878906 898.203125 1289 894 C 1294.28125 912 1307.890625 928.464844 1315 946 C 1330.515625 983.203125 1339 1023.746094 1339 1064 C 1344 1052 1339.28125 1030.554688 1337.246094 1018 C 1330.832031 978.453125 1318.507813 942 1303.398438 905 C 1297.863281 891.464844 1289.902344 866.777344 1276 860 M 1284.332031 885.667969 C 1284.277344 885.722656 1284.222656 886.777344 1284.667969 886.332031 C 1284.722656 886.277344 1284.777344 885.222656 1284.332031 885.667969 M 1285 888 C 1285.546875 889.636719 1285.363281 889.453125 1287 890 C 1286.230469 888.6875 1286.316406 888.769531 1285 888 M 1258 892 C 1266.855469 908.640625 1279 923.234375 1287.742188 940 C 1309 981.28125 1320 1023.617188 1320 1070 L 1322 1070 C 1322 1050.597656 1324.378906 1031.382813 1321.570313 1012 C 1317.167969 981.589844 1301.847656 954.410156 1285.34375 929 C 1277.878906 917.503906 1270.976563 898.101563 1258 892 M 1287.667969 892.332031 C 1287.222656 892.777344 1288.277344 892.722656 1288.332031 892.667969 C 1288.777344 892.222656 1287.722656 892.277344 1287.667969 892.332031 M 663 932 C 671.222656 932.171875 677 935 684 939.238281 C 686.816406 941.007813 690.640625 943 693.664063 940.40625 C 696 938.328125 694.832031 936 693.316406 933.828125 C 686.597656 924.289063 686.769531 918.113281 687 907 C 679.890625 911.347656 681.777344 920.308594 676.566406 925.570313 C 672.6875 929.488281 666.179688 927.496094 663 932 M 1242 907 L 1241 908 L 1242 907 M 1125 908 C 1126.539063 909.804688 1127.597656 909.832031 1130 910 C 1128.308594 909 1126.960938 908.480469 1125 908 M 1305.667969 918.667969 C 1305.722656 918.722656 1305.777344 919.777344 1305.332031 919.332031 C 1305.277344 919.277344 1305.222656 918.222656 1305.667969 918.667969 M 1307 921 L 1306 922 L 1307 921 M 1278 946 C 1283.171875 967.816406 1294.75 987.769531 1299.335938 1010 C 1300.882813 1017.511719 1299.558594 1030.695313 1307 1035 C 1301.300781 1011.125 1304.707031 988 1293.246094 965 C 1289.621094 957.753906 1285.640625 949.574219 1278 946 M 766 952.453125 C 779.617188 952.144531 794 956.550781 804.996094 964.761719 C 809.757813 968.351563 815 974.660156 811.820313 981 C 808.472656 987.394531 799.882813 989.15625 794 992.324219 C 783.390625 998.035156 775.671875 1012.277344 781.921875 1024 C 787.351563 1034.183594 801.902344 1040 813 1037.480469 C 817.292969 1036.570313 829.621094 1030.15625 831.683594 1037.148438 C 836.242188 1052.617188 813 1059.640625 802 1060.824219 C 789.871094 1062.121094 783.191406 1053.722656 776.199219 1045 C 773.289063 1041.367188 769.953125 1035.449219 764.996094 1034.492188 C 758.980469 1033.328125 754.460938 1040.226563 750.828125 1043.832031 C 738.992188 1055.585938 722 1063 707 1052.210938 C 703 1049.390625 693.605469 1041.167969 695.707031 1035.316406 C 697.40625 1030.59375 707.679688 1034.140625 711 1034.800781 C 722.832031 1037.148438 733.828125 1036.753906 741.351563 1026 C 748.320313 1016.039063 744.382813 1003.222656 735.824219 995.667969 C 730.871094 991.292969 723.605469 988.632813 721 982 C 713.277344 960.601563 752.433594 952.765625 766 952.453125 M 328 960 L 327 961 L 328 960 M 1237 967 L 1236 968 L 1237 967 M 912 1013 C 931.671875 1007.332031 946.964844 991.21875 967 985.027344 C 995 976.355469 1026.363281 980.222656 1052 994.3125 C 1063.269531 1000.503906 1072.863281 1010.554688 1085 1015 C 1078.472656 1005.761719 1067.617188 999.640625 1058 994.011719 C 1024.789063 974.582031 986.878906 970.402344 951 984.800781 C 937.597656 990.179688 917.566406 998.632813 912 1013 M 448 992 L 448 993 L 452 992 C 450.339844 991.59375 449.757813 991.691406 448 992 M 393 1021 L 393 1022 C 404.679688 1018.636719 413.855469 1009.664063 425 1005 C 416.804688 1002.164063 399.820313 1016.488281 393 1021 M 1210.667969 1005.667969 C 1210.722656 1005.722656 1210.777344 1006.777344 1210.332031 1006.332031 C 1210.277344 1006.277344 1210.222656 1005.222656 1210.667969 1005.667969 M 539 1018.324219 C 549.175781 1016.730469 551.402344 1028.582031 554.578125 1036 C 560.28125 1049.328125 571 1062.523438 550 1065.671875 C 538.910156 1067.332031 523 1048.222656 515 1041.410156 C 512.503906 1039.300781 505.265625 1034.40625 506.460938 1030.417969 C 507.226563 1028 511.863281 1027 514 1026 C 521.863281 1023 530.605469 1019.640625 539 1018.324219 M 1093 1022 C 1095.941406 1026.140625 1099.238281 1029.15625 1104 1031 C 1101 1027 1097.761719 1024 1093 1022 M 295 1051 L 294 1052 L 295 1051 M 1010 1053 C 1014.613281 1063 1026.902344 1071.335938 1036 1077 C 1031.753906 1067 1020.191406 1056.738281 1010 1053 M 437 1066 L 443 1063 C 440 1062.300781 438.578125 1063.488281 437 1066 M 307 1063 L 306 1064 L 307 1063 M 825 1129 C 814.488281 1151.089844 786.890625 1145 767 1145 C 753 1145.023438 739 1150.066406 725 1147.535156 C 711.882813 1145.175781 701.359375 1135.507813 688 1134.171875 C 679.625 1133.332031 671.34375 1136.105469 663 1136 C 643.507813 1135.570313 623.789063 1129.402344 607 1119.714844 C 590.417969 1110.148438 575.730469 1097.21875 562 1084 C 559 1081.246094 547.539063 1073.566406 550.816406 1068.636719 C 553.65625 1064.363281 564.691406 1061.789063 568.910156 1064.605469 C 575.28125 1069 578.667969 1078.148438 583.464844 1084 C 593 1095.65625 604.539063 1106.328125 617 1114.804688 C 630.863281 1124.238281 647.171875 1131.203125 664 1132.828125 C 672.933594 1133.695313 682.222656 1131.4375 691 1132.605469 C 701.425781 1134 709.789063 1141 720 1142.675781 C 731.648438 1144.621094 743.417969 1141.546875 755 1141.039063 C 770.171875 1140.375 786 1144.382813 801 1140.761719 C 809.976563 1138.585938 816.835938 1133 825 1129 M 1338 1065 L 1337 1074 C 1339.640625 1071.691406 1339.296875 1068.089844 1338 1065 M 411 1083 C 419.417969 1080 430.640625 1073.21875 436 1066 C 427.269531 1069.195313 416.464844 1075.40625 411 1083 M 1319.5 1073.5 C 1318.871094 1074.128906 1319.871094 1075.128906 1320.5 1074.5 C 1321 1074 1320 1073 1319.5 1073.5 M 1336 1076 L 1336 1081 L 1337 1081 C 1337.5625 1079.199219 1337.824219 1078 1338 1076 L 1336 1076 M 303 1080 C 301.671875 1081.753906 300.753906 1082.671875 299 1084 C 300.328125 1082.246094 301.246094 1081.328125 303 1080 M 1335 1082 C 1335.769531 1083.3125 1335.6875 1083.230469 1337 1084 C 1336.453125 1082.363281 1336.636719 1082.546875 1335 1082 M 1267 1087 C 1272.988281 1100 1286.335938 1109.351563 1293.574219 1122 C 1307 1145.464844 1313.835938 1171.460938 1322 1197 C 1306.253906 1185 1286.734375 1176.550781 1267 1174 C 1273 1181.714844 1284 1184 1292 1189.4375 C 1309.914063 1201.796875 1326.980469 1220.359375 1347 1229 C 1342.644531 1217.757813 1330 1211.503906 1325.96875 1200 C 1322.375 1190.003906 1323.609375 1177.496094 1321.339844 1167 C 1315.191406 1138.613281 1295.285156 1099 1267 1087 M 1334.332031 1088.667969 C 1334.277344 1088.722656 1334.222656 1089.777344 1334.667969 1089.332031 C 1334.722656 1089.277344 1334.777344 1088.222656 1334.332031 1088.667969 M 328 1113 L 327 1114 L 328 1113 M 599 1141 L 598 1142 L 599 1141 M 616 1151 L 615 1152 L 616 1151 M 458 1172.332031 C 458.773438 1172.332031 458 1172.832031 457.667969 1172.667969 L 458 1172.332031 M 680 1175 L 679 1176 L 680 1175 M 385 1176 L 384 1177 L 385 1176 M 1255 1210 C 1250.878906 1200.632813 1241.824219 1193 1232 1190 L 1232 1189 C 1243.273438 1190.519531 1254.851563 1194.734375 1265 1199.808594 C 1271.917969 1203.269531 1278.269531 1208.621094 1286 1210 C 1278.574219 1190.699219 1250.484375 1180.078125 1231 1183.324219 C 1222.824219 1184.6875 1215.242188 1185.273438 1207 1186.175781 C 1205.703125 1186.316406 1199 1187.0625 1200.347656 1189.578125 C 1201.511719 1192.015625 1206.703125 1193 1209 1193.65625 C 1216.929688 1196.195313 1225.339844 1197.535156 1233 1201 C 1240.542969 1204.164063 1246.632813 1209 1255 1210 M 1231 1188 L 1230 1189 L 1231 1188 M 726 1210 C 731.980469 1242.214844 719.324219 1272.5625 701.667969 1299 C 694.859375 1309.191406 682.710938 1319.382813 679 1331 C 684.785156 1327.65625 688.34375 1321.753906 693.859375 1318.347656 C 700.703125 1314.125 708.28125 1311.726563 715 1307 C 748 1283 767.765625 1254 776 1214 C 771.703125 1216.753906 771.667969 1223.339844 770.277344 1228 C 767.683594 1236.714844 763.710938 1245.257813 758.933594 1253 C 743.867188 1277.417969 721.40625 1299 697 1314 C 712.320313 1289.398438 726.984375 1268.722656 730 1239 C 731 1231.082031 733.328125 1215.507813 726 1210 M 1241 1210 C 1244.550781 1214.730469 1253.546875 1215.558594 1259 1217.328125 C 1277 1223.214844 1296.871094 1228 1316 1228 C 1312.273438 1223.085938 1302.671875 1223.171875 1297 1221.570313 C 1278.429688 1216.332031 1260.566406 1210.003906 1241 1210 M 407 1212 C 406.453125 1213.636719 406.636719 1213.453125 405 1214 C 405.546875 1212.363281 405.363281 1212.546875 407 1212 M 415 1225 L 414 1226 L 415 1225 M 413 1226 L 412 1227 L 413 1226 M 1319.5 1227.5 C 1318.871094 1228.128906 1319.871094 1229.128906 1320.5 1228.5 C 1321 1228 1320 1227 1319.5 1227.5 M 1214 1229 L 1214 1230 C 1216 1231.042969 1217.699219 1231.601563 1220 1232 L 1220 1233 L 1215 1233 C 1218.65625 1240 1228.933594 1240.273438 1236 1241.410156 C 1254.167969 1244.328125 1272 1244 1290 1239.371094 C 1295.425781 1238 1304.539063 1236.609375 1308 1232 C 1300.59375 1233 1293.574219 1236 1286 1236 C 1261.832031 1236 1238.214844 1229 1214 1229 M 1224 1233 L 1224 1234 L 1220 1234 C 1221.507813 1233.316406 1222.316406 1233.175781 1224 1233 M 788 1244 C 783.675781 1273.273438 761 1304.507813 737 1320.640625 C 723.167969 1330 707 1335.785156 692 1342.691406 C 676.511719 1349.785156 661.476563 1357.40625 647 1366.425781 C 639.71875 1371 631.46875 1375.828125 628 1384 C 643.675781 1384 660.234375 1379 675 1374 C 731.996094 1355.003906 784.941406 1307.574219 790 1244 L 788 1244 M 1206 1247 C 1214.589844 1259.546875 1243.773438 1256 1255 1250 C 1249.203125 1247.636719 1242 1251.761719 1236 1252 C 1226 1252.273438 1215.433594 1249.652344 1206 1247 M 1293 1248 C 1259.800781 1270 1216.707031 1278.660156 1178 1277 L 1178 1278 C 1190 1283.378906 1203.847656 1285 1217 1285 L 1217 1286 C 1206.1875 1287 1195.847656 1290.8125 1185 1291.828125 C 1175 1292.765625 1162.8125 1290.820313 1153 1289 C 1156.273438 1300.054688 1173.828125 1299 1183 1299 C 1211.597656 1299 1243.890625 1286.613281 1268 1271.574219 C 1274.660156 1267.421875 1294.210938 1257.078125 1293 1248 M 1182 1254 L 1182 1255 C 1193.703125 1259.539063 1213 1270.410156 1225 1261 C 1219.5625 1259.4375 1213.6875 1260.734375 1208 1259.75 C 1199.300781 1258.242188 1190.816406 1254.402344 1182 1254 M 604 1390 L 605 1390 C 616.246094 1354.824219 638.773438 1334.671875 667 1312 C 682 1300 708.320313 1281.390625 712 1261 C 700.34375 1267.742188 691 1283.582031 681 1293 C 652.820313 1319.160156 604.910156 1346.191406 604 1390 M 846 1279 L 845 1280 L 846 1279 M 1038 1285 C 1042.832031 1302.667969 1052.789063 1323.160156 1062 1339 L 1063 1339 C 1060.570313 1321 1053.289063 1296.261719 1038 1285 M 1117 1287 C 1124.324219 1302.664063 1140.625 1321.726563 1160 1316 C 1153.609375 1312.097656 1146.269531 1311 1140 1306.238281 C 1132 1300.378906 1125.984375 1291.1875 1117 1287 M 1076 1293 C 1077.511719 1298.246094 1080.550781 1302.816406 1082.25 1308 C 1085.433594 1317.710938 1084.527344 1333 1095 1338 C 1090.988281 1323.304688 1091.792969 1300 1076 1293 M 556 1297 L 555 1298 L 556 1297 M 1061 1297 C 1064.441406 1314.738281 1070 1334.234375 1079 1350 L 1080 1350 C 1078.730469 1334.441406 1073.515625 1307.371094 1061 1297 M 807 1299 C 806.453125 1300.636719 806.636719 1300.453125 805 1301 C 805.546875 1299.363281 805.363281 1299.546875 807 1299 M 1032 1310 C 1038 1324.660156 1052 1344 1065 1353 C 1060.453125 1337.214844 1046.71875 1317.625 1032 1310 M 697 1314 C 696.453125 1315.636719 696.636719 1315.453125 695 1316 C 695.546875 1314.363281 695.363281 1314.546875 697 1314 M 982 1333 C 995.605469 1332.414063 1006.652344 1331 1018 1340.324219 C 1024.480469 1345.71875 1028.535156 1355.351563 1036 1359 C 1031.769531 1338.769531 1000.605469 1308.015625 982 1333 M 967 1341 C 971.855469 1353.527344 988.363281 1365.027344 1002 1361 C 997 1358.003906 991 1357.066406 986 1354.125 C 979.300781 1350.253906 973.929688 1344.453125 967 1341 M 937 1345 C 941.617188 1357 956.761719 1370 970 1365 C 959.679688 1358.058594 947.835938 1351.171875 937 1345 "/>
</g>
</svg>
