<?xml version="1.0" encoding="UTF-8"?>
<svg xmlns="http://www.w3.org/2000/svg" xmlns:xlink="http://www.w3.org/1999/xlink" width="1500pt" height="1500pt" viewBox="0 0 1500 1500" version="1.1">
<g id="surface1">
<path style=" stroke:none;fill-rule:nonzero;fill:rgb(0%,0%,0%);fill-opacity:1;" d="M 489 218 C 488.59375 216 488.78125 216 487 215 C 489.640625 226.296875 478 219.183594 474 217 C 475.503906 220.105469 477.730469 222.398438 480 225 C 472 228.707031 471 230.714844 463 227 C 464.53125 229.207031 466 231.054688 468 233 C 465.28125 232.457031 463.402344 231.421875 461 230 C 461.472656 231.535156 464.433594 237.527344 461 235 L 460 235 C 459 243.074219 452.476563 236.476563 449 234 C 450.460938 237.164063 453 239.6875 454 243 C 451.75 240.808594 450 239.730469 447 239 L 447 240 L 452 244 C 445.253906 247.191406 443.183594 249 436 246 C 437.414063 248.476563 438.523438 249.585938 441 251 C 416.882813 265.765625 382.4375 270 364 292 C 340.492188 320.488281 338.597656 358.230469 320.398438 389 C 272 470.628906 228.382813 552.128906 194.574219 641 C 181.613281 675.074219 160.402344 714.582031 167.460938 752 C 171.574219 773.8125 184.171875 792.695313 192.394531 813 C 204 842 211 872.492188 228.21875 899 C 239.746094 917 257 930.550781 267.714844 949 C 280.816406 971.632813 261 999.246094 272.3125 1024 C 279.703125 1040.351563 297.375 1048.625 313 1055.425781 C 348.628906 1071 401.5625 1087.265625 438 1066 C 438 1097 442.753906 1147.015625 477 1160 C 473.472656 1152.433594 465.867188 1147 461 1140 C 450 1124.503906 444.324219 1105.480469 441.246094 1087 C 440.207031 1080.75 438.253906 1072.109375 440.730469 1066 C 444.507813 1056.652344 457 1043.636719 464 1036 C 464 1062.347656 474.589844 1088.734375 483.808594 1113 C 488 1124.222656 491 1136.175781 498.289063 1146 C 508.625 1160.132813 525 1168.28125 536.910156 1181 C 551.625 1196.777344 559.550781 1214.636719 570 1233 L 571 1233 C 564.753906 1211 553.871094 1190.644531 537.960938 1174 C 527.5625 1163.121094 514 1155.0625 505 1143 C 497.230469 1132.613281 494 1119.109375 489.996094 1107 C 480.441406 1079 467.183594 1044.8125 474 1015 L 475 1015 C 477.765625 1033.457031 487.453125 1056.304688 495.808594 1073 C 499.835938 1081.046875 505.390625 1088.25 507.957031 1097 C 510.203125 1104.65625 507.949219 1112.257813 508 1120 C 508 1129.035156 510 1138 510 1147 L 512 1147 L 511 1102 L 512 1102 C 518 1123.09375 534.636719 1143 546.667969 1161 C 563.394531 1186.089844 577.789063 1212 589 1240 C 594.550781 1254 599.34375 1268.007813 604.574219 1282 C 606.484375 1287.109375 607.332031 1294.804688 612 1298 C 603.765625 1262.074219 593.257813 1222.03125 576.753906 1189 C 569.90625 1175.296875 562.613281 1162 554.308594 1149 C 549.644531 1141.761719 542.507813 1134.585938 540.527344 1126 C 537 1111.21875 543.359375 1089.707031 546.195313 1075 C 546.804688 1072 547.265625 1060.414063 551.328125 1059.632813 C 554.574219 1059.007813 560.894531 1067.695313 564 1069.324219 C 568.613281 1071.75 577.296875 1072 579.878906 1077.214844 C 582 1081.589844 577.316406 1089.640625 576 1094 C 572.757813 1106.738281 572 1120 572 1133 L 574 1133 C 574 1119 575.925781 1105.621094 579.375 1092 C 580.214844 1088.6875 581.351563 1080 585.683594 1079.3125 C 590.625 1078.617188 596.402344 1086.644531 598.839844 1090 C 611.359375 1107.21875 601.511719 1123.476563 600 1142 L 601 1142 C 601.890625 1140.253906 602.453125 1139 603 1137 L 604 1137 C 603 1142.722656 600.480469 1148.175781 601 1154 C 602 1152.542969 602.4375 1151.753906 603 1150 L 604 1150 L 600 1163 L 605 1159 C 603.976563 1166.601563 600.71875 1173.566406 599 1181 C 600.796875 1181 600.519531 1181 602 1180 L 598 1192 C 599.796875 1192 599.523438 1192 601 1191 C 599.582031 1195.355469 598.210938 1199.394531 598 1204 L 599 1204 C 610.339844 1179.761719 620.269531 1152.8125 622.828125 1126 C 623.738281 1116.511719 623.28125 1106.394531 621.867188 1097 C 621.230469 1092.785156 618.589844 1087.148438 620.914063 1083.105469 C 623.429688 1078.726563 629.777344 1077.074219 634 1075 C 643 1070.199219 651.5625 1064.398438 660 1058.65625 C 662.804688 1056.75 668.878906 1050.492188 672.566406 1052.828125 C 675.582031 1054.738281 675.59375 1061 676.195313 1064 C 678.289063 1075 679.414063 1086 680.714844 1097 C 683.652344 1122 676.746094 1148 671.425781 1172 C 666.640625 1193.660156 663 1215.628906 657 1237 C 662 1233.488281 663.519531 1224 664 1218 L 665 1218 C 664.75 1224 661.65625 1231.671875 668 1235 C 669.480469 1230 672.199219 1225.351563 673 1220 L 674 1220 L 674 1228 L 676 1228 C 677.238281 1220.804688 680.675781 1214.433594 681 1207 L 682 1207 L 682 1217 L 684 1217 C 685.359375 1206.480469 688.992188 1196.707031 689 1186 L 690 1186 L 690 1194 L 692 1194 C 692.789063 1184.011719 693.585938 1174.042969 693 1164 L 694 1164 L 696 1175 L 698 1175 L 698 1153 L 699 1153 C 699.316406 1156 699.621094 1157.335938 702 1159 C 697.507813 1135.148438 696 1111.222656 696 1087 C 696 1081.585938 693.40625 1067 697 1062.644531 C 699 1060.230469 703.617188 1062.578125 706 1063.277344 C 713.449219 1065.472656 721.296875 1066.792969 729 1067.714844 C 737.710938 1068.757813 750 1065.210938 757.894531 1070.089844 C 764.308594 1074.132813 765.578125 1084.324219 767.660156 1091 C 774.699219 1113.585938 774 1137.609375 774 1161 L 775 1161 C 775 1138.734375 778.839844 1116 772.847656 1094 C 771.664063 1089.671875 762.554688 1072.703125 764.828125 1069.601563 C 766.722656 1067.015625 773 1068 776 1067.410156 C 785.714844 1066 795.976563 1064 805 1060 C 805 1077 805.441406 1094.085938 803.828125 1111 C 802.375 1126.277344 799 1141.632813 799 1157 C 801.472656 1155.121094 801.722656 1153.046875 802 1150 L 803 1150 L 802 1177 L 804 1177 L 806 1164 L 807 1164 C 807 1174.082031 807.570313 1184 808 1194 L 810 1194 L 810 1184 L 811 1184 C 811 1194.347656 814.636719 1204 816 1214 L 818 1214 L 818 1205 L 819 1205 C 819.335938 1212.339844 822.9375 1218.800781 824 1226 L 826 1226 L 826 1217 L 827 1217 C 827.625 1223.113281 830.304688 1230 835 1234 L 835 1229 L 836 1229 C 836.398438 1231.300781 836.957031 1233 838 1235 L 839 1235 L 838 1225 L 839 1225 C 839.636719 1229.300781 840.976563 1233.15625 843 1237 L 844 1237 C 837.738281 1190.488281 814.601563 1145.160156 820.285156 1097 C 821.59375 1086 822.617188 1075 824.800781 1064 C 825.425781 1061 825.40625 1054.746094 828.433594 1052.828125 C 832.195313 1050.445313 838.234375 1057 841 1059 C 849.226563 1064.753906 858 1070.136719 867 1075 C 871.285156 1077.300781 876.554688 1078.765625 879.394531 1083.042969 C 883.65625 1089.453125 878 1107.070313 878 1115 C 878 1138 884.605469 1160 892.8125 1181 C 895.175781 1187.089844 897.691406 1198.09375 903 1202 C 902.367188 1194.257813 901 1186.480469 899 1179 C 900.480469 1180 900.203125 1180 902 1180 C 899.625 1172.703125 896.730469 1165.476563 895 1158 L 896 1158 C 896.9375 1160 897.390625 1160.550781 899 1162 C 898.777344 1157.101563 897 1152.734375 896 1148 L 897 1148 C 897.898438 1150.125 897.878906 1150.101563 900 1151 C 898.511719 1145.710938 897 1140.382813 896 1135 L 897 1135 C 897.503906 1137.144531 898 1139 899 1141 L 900 1141 C 899.753906 1129.046875 893.300781 1117.023438 895.464844 1105 C 896.976563 1096.597656 901.570313 1089 908 1083.304688 C 910.246094 1081.375 914.695313 1077.328125 917.441406 1080.527344 C 920 1083.566406 920.632813 1089.242188 921.710938 1093 C 925.289063 1105.476563 927 1118.042969 927 1131 L 929 1131 C 929 1119 928 1106.726563 925 1095 C 923.9375 1090.359375 919.207031 1082.765625 921.199219 1078.054688 C 923.21875 1073.289063 929.839844 1073 934 1071.121094 C 940.835938 1068.183594 945.804688 1063.714844 949 1057 C 957.347656 1071.683594 957.605469 1089.640625 959.171875 1106 C 959.796875 1112.5625 962 1119.542969 959.894531 1126 C 952.886719 1147 935 1165 925.484375 1185 C 908.46875 1220.660156 896.972656 1259.355469 889 1298 C 892.949219 1295.296875 894 1289.394531 895.65625 1285 C 899.285156 1274.648438 903 1264.328125 906.691406 1254 C 913.871094 1234 922.167969 1214.179688 933.425781 1196 C 942.328125 1181.625 955.277344 1166.386719 960 1150 L 961 1150 L 960 1164 L 962 1164 C 962 1138.527344 979.742188 1124.234375 989 1102 L 990 1102 C 987.984375 1115.03125 989 1129 989 1142 L 991 1142 C 991 1133 992.648438 1124 992.871094 1115 C 993 1107.632813 991 1101.269531 993.710938 1094 C 1003.234375 1068.15625 1023.519531 1043.40625 1026 1015 L 1027 1015 C 1033.519531 1046.613281 1019.328125 1084.597656 1008.191406 1114 C 1003.332031 1126.832031 999.832031 1139 990 1149 L 990 1144 L 989 1144 C 985 1157.355469 973.460938 1162.4375 964.578125 1172.089844 C 949.863281 1188.082031 933.253906 1212 930 1234 L 931 1234 C 947.742188 1205.3125 961.390625 1182 987 1160 L 987 1164 L 988 1164 C 991 1156 997.9375 1152 1002.789063 1145 C 1008.71875 1136.621094 1011.957031 1126.515625 1015.574219 1117 C 1021 1102.320313 1026.835938 1087.332031 1030.347656 1072 C 1033 1060.429688 1033.269531 1048 1038 1037 C 1043.355469 1048.453125 1057 1056.582031 1060.976563 1068 C 1063.273438 1075 1059.972656 1084.148438 1058.601563 1091 C 1055 1108.308594 1048.78125 1125.179688 1039 1140 C 1034.34375 1147.359375 1026.691406 1153.03125 1023 1161 C 1055.714844 1145.4375 1063 1099.175781 1063 1067 C 1102.632813 1083.253906 1148.90625 1072.707031 1187 1056.28125 C 1203.488281 1049.171875 1221 1040.449219 1228.660156 1023 C 1239.566406 997.644531 1218.757813 970 1233.695313 947 C 1246 928 1264.429688 913.753906 1275.988281 894 C 1292.296875 866.128906 1299.671875 833.65625 1312 804 C 1321.375 781.5 1334.507813 761.679688 1334.507813 736.425781 C 1334.507813 708.488281 1320.882813 682.734375 1311.691406 657 C 1291.519531 600.507813 1267.757813 545.277344 1240.257813 492 C 1228.917969 470.027344 1217.613281 448.039063 1204.574219 427 C 1194.855469 411.3125 1182.949219 395.820313 1175.3125 379 C 1161.484375 348.542969 1157.996094 313.359375 1133.910156 288.015625 C 1120.710938 274.128906 1100.957031 271.183594 1084 264 C 1069 257.621094 1055.464844 247.019531 1042 238 C 994.824219 206.394531 947.542969 171.636719 894 151.425781 C 875.917969 144.601563 856.703125 142.550781 838 138.117188 C 805.78125 130.476563 774.449219 121.574219 741 123.039063 C 719.921875 124 699.460938 130.03125 679 134.574219 C 656.777344 139.511719 633.574219 142.65625 612 150.078125 C 567.949219 165.234375 527.355469 192.125 489 218 M 1164 509 C 1168.734375 504.640625 1170.238281 497 1172.601563 491 C 1180.65625 471 1182 449.449219 1182 428 L 1183 428 C 1198 455.277344 1215.398438 481.210938 1229.742188 509 C 1252.765625 553.609375 1271.695313 600.230469 1289.8125 647 C 1301.328125 676.730469 1320.398438 709.4375 1318.960938 742 C 1318.285156 757.324219 1310.167969 771.480469 1303.78125 785 C 1296.535156 800.339844 1290.378906 816.019531 1284.691406 832 C 1270.960938 870.585938 1253.558594 909.257813 1220 935 C 1217.730469 906.292969 1204.195313 879.320313 1199.433594 851 C 1192.667969 810.738281 1197.785156 769.085938 1209 730 C 1214.34375 711.386719 1220.171875 693 1227.714844 675 C 1229.414063 671 1231.191406 660 1236.210938 658.832031 C 1239.777344 658.035156 1242.816406 662.539063 1245 664.566406 C 1251.492188 670.269531 1258.527344 674 1266 678 C 1257.589844 668.082031 1247.5625 662.1875 1241.257813 650 C 1233 634.078125 1227.695313 608.570313 1215 596 C 1219.65625 608 1225.988281 620.808594 1224.90625 634 C 1224.289063 641.527344 1219.375 648.222656 1216.425781 655 C 1210.261719 669.164063 1203.988281 683.367188 1199 698 C 1184.496094 740.582031 1172.300781 788 1178 833 L 1177 833 C 1168.691406 818.695313 1171.394531 799 1166 783 C 1150 814.769531 1170 852 1182 881 C 1193.195313 907.757813 1200.730469 935.667969 1206.398438 964 C 1209.613281 980.070313 1216.574219 1001.21875 1209 1017 C 1204 1027.695313 1191 1033.429688 1181 1038.21875 C 1158.277344 1049 1133.816406 1053.6875 1109 1056.167969 C 1096.789063 1057.390625 1082.761719 1058 1072 1051 C 1060.519531 1043.347656 1053.484375 1030.621094 1046.851563 1019 C 1034.550781 997.453125 1022.273438 975 1015.425781 951 C 1004.410156 912.398438 1012.191406 872.722656 1018.410156 834 C 1021.554688 814.417969 1023.953125 794.714844 1025.828125 775 C 1027 761.65625 1025.8125 749.117188 1029.722656 736 C 1036.890625 712 1049 689.6875 1057.304688 666 C 1065.800781 641.621094 1070.328125 616 1076.882813 591 C 1081.320313 574.128906 1088.246094 556.550781 1089 539 L 1091 539 C 1091.605469 553.105469 1094 566.777344 1094 581 L 1096 581 C 1096 545.78125 1104.265625 513 1094.574219 478 C 1087.242188 451.621094 1074.601563 427.160156 1066.71875 401 C 1060.308594 379.722656 1058.964844 357 1052.253906 336 C 1045.574219 315.109375 1031 298 1031 275 C 1045.394531 281.332031 1053.867188 297.472656 1060.296875 311 C 1071 333.820313 1081.753906 356.03125 1094.28125 378 C 1102.574219 392.550781 1111 407 1116 423 C 1132.796875 477.292969 1125.785156 540.632813 1119 596 C 1115 629.507813 1111.320313 663.410156 1098.796875 695 C 1080.3125 741.621094 1045.554688 781.328125 1034.425781 831 C 1023.351563 880.414063 1033.988281 925.480469 1043 974 L 1044 974 C 1044 923.230469 1029.3125 875.746094 1042.886719 825 C 1047.953125 806.042969 1061.515625 789.660156 1071.398438 773 C 1087.40625 746 1102 718.039063 1113.988281 689 C 1138.5625 629.265625 1145.472656 560 1141 496 C 1139.378906 471.027344 1139.527344 446.328125 1132.277344 422 C 1124.878906 397.160156 1111.332031 375.484375 1098.859375 353 C 1081.300781 321.339844 1072.59375 272.171875 1035 257.464844 C 1023.296875 253 1010.296875 254 998 254 L 998 256 C 1007.210938 257.027344 1012.570313 265.816406 1015.25 274 C 1018.765625 284.730469 1016.863281 296.273438 1020.359375 307 C 1026.347656 325.375 1038 342.699219 1041 362 L 1040 362 C 1028.640625 328.691406 1000.707031 303 988 270 L 987 270 C 995.738281 307.773438 1024.3125 335 1040.742188 369 C 1047 382.292969 1048 397.722656 1051.210938 412 C 1058 443.636719 1064 475.441406 1061.910156 508 C 1059 548.5 1058.191406 592.25 1049.789063 632 C 1047.898438 641 1045.230469 650.082031 1040.546875 658 C 1035.847656 666 1028.644531 673 1026 682 C 1024 689.734375 1025 698.082031 1023.539063 706 C 1020.921875 719.652344 1014.492188 732.285156 1012 746 C 1008.429688 766.820313 1009.808594 788.078125 1006.871094 809 C 1001.972656 844 988.441406 882.671875 995 918 L 991 916 C 997 926.25 998 938.242188 998 950 C 984.371094 940.398438 977 925.679688 981 909 L 985 911 C 977.320313 899.347656 976.285156 885.554688 974.835938 872 C 971.628906 842.070313 975.597656 811.34375 985.691406 783 C 991.683594 766.179688 1000.226563 750.3125 1004.84375 733 C 1007.933594 721.414063 1006 709.199219 1010.871094 698 C 1019.617188 677.558594 1038 659.339844 1043.839844 638 C 1048.835938 619.542969 1041.796875 600 1043 581 C 1044.601563 559 1049.992188 537.152344 1050.960938 515 C 1052.917969 470.332031 1041.722656 409.492188 1011.710938 375 C 998 359.246094 980.847656 353.714844 964 343 C 943.167969 329.550781 931.960938 314 905 315.039063 C 886.789063 316 869.441406 326.164063 853 333 L 853 334 C 871.777344 329 889.863281 318.15625 910 320.171875 C 930.808594 322.253906 943.679688 338.761719 960 349.644531 C 976.460938 360.621094 994.480469 368.789063 1007.710938 384 C 1034.917969 415.28125 1047.71875 469.023438 1044.910156 510 C 1043.566406 529.597656 1037.675781 548.554688 1035.285156 568 C 1032.773438 588.46875 1037.714844 609.664063 1033.550781 630 C 1031.390625 640.550781 1025.707031 649.78125 1020.421875 659 C 1016.609375 665.648438 1013 673.246094 1007 678 C 1007 663.601563 1005 649.339844 1004 635 C 1003.511719 626.597656 1004.304688 616.828125 1001 609 C 994.328125 632.515625 992.417969 655.613281 993 680 C 993.371094 694.589844 996.488281 708.390625 993.550781 723 C 986.285156 759.117188 960.316406 788.34375 954.589844 825 C 951.8125 842.792969 956 861.789063 960.371094 879 C 961 882.039063 966 894.390625 961.679688 895.644531 C 956.207031 897.175781 945.855469 893.304688 943.742188 888 C 938.472656 874.714844 939.976563 854.308594 938.285156 840 C 934.757813 810.101563 940.964844 780 935.195313 750 C 927.472656 710 905.964844 673.378906 893 635 L 892 635 C 902.332031 673.652344 921.726563 710 926.714844 750 C 930.21875 778.164063 931.289063 807.640625 931.984375 836 C 932.363281 851.429688 930.175781 867.789063 933 883 L 932 883 C 927.445313 875.550781 926.402344 864.207031 921 858 C 924.511719 872.261719 932.839844 886.410156 934 901 C 930.632813 899.628906 927.636719 898.371094 924 898 C 934.507813 908.03125 935 912.636719 935 927 C 928.683594 924.6875 911.914063 908.003906 910 920 C 923.894531 913.472656 921.503906 932.75 921 940 C 913.382813 936.230469 905.828125 933.324219 898 930 C 898.996094 933 900.765625 941.164063 903.878906 942.363281 C 906 943.226563 909.539063 941.230469 912 941.394531 C 918.347656 941.816406 928.878906 947.40625 931.972656 953.09375 C 934.214844 957.21875 932.699219 975.8125 927.488281 977.652344 C 924.808594 978.601563 920.394531 974.105469 918 973 C 920.78125 978.5 926 981.128906 925.945313 988 C 925.917969 989.421875 925.671875 994.769531 922.996094 993.652344 C 919.878906 992.355469 918.535156 985.78125 917.21875 983 C 913.953125 976.101563 910 970.65625 904 966 C 905.816406 972.695313 922.851563 991.511719 908 992 C 911 995.351563 916 994 918.722656 997.316406 C 928.320313 1010.210938 909 1027.808594 906 1039 C 911.777344 1035.652344 915.792969 1030.753906 919 1025 C 920.773438 1022.152344 922.265625 1016.519531 925.351563 1015 C 929.785156 1012.625 934.515625 1025 935.363281 1028 C 938.355469 1038.605469 920.875 1061.449219 910 1056 C 909.621094 1071.648438 889 1068 879 1063.558594 C 848.273438 1050.023438 823.617188 1026.019531 792 1013.8125 C 783 1010.382813 773.609375 1007.117188 764 1007.003906 C 760.804688 1007 754.34375 1008.234375 752.601563 1004.683594 C 750.449219 1000.285156 753.28125 993.367188 754.371094 989 C 757.542969 976.324219 762 950.777344 775 944.574219 C 785 939.699219 797.503906 945.394531 808 940.367188 C 820.335938 934.457031 829.835938 923.128906 840 914.289063 C 850.855469 905 863.921875 897.816406 872.511719 886 C 886.578125 866.644531 888.277344 830.308594 877.621094 809 C 872 798 862 791.59375 853 783.710938 C 837.890625 770.566406 823.917969 755.289063 803 752.300781 C 785.261719 749.765625 767.65625 755.410156 750 755 C 736.261719 754.652344 722.796875 750.433594 709 751.039063 C 690.746094 752 674.933594 761 661 772.003906 C 636.636719 791.429688 613.9375 811.167969 616 845 C 617 859.332031 619.511719 875.296875 628.527344 887 C 637 898.207031 649.34375 905.449219 660 914.4375 C 669.816406 922.722656 678.554688 933 690 939.097656 C 701.492188 945.296875 714.601563 939.703125 725.984375 944.484375 C 738.4375 949.707031 743.597656 977.019531 746.347656 989 C 747.332031 993.28125 749.835938 999.476563 748.667969 1004 C 747.246094 1009.164063 736 1006.75 732 1007.289063 C 716.871094 1009.253906 701.316406 1016.105469 688 1023.308594 C 664.53125 1036 643.367188 1053.820313 619 1064.6875 C 612 1067.753906 595 1071 591.648438 1061 C 590.210938 1056.730469 593.984375 1051.539063 595.753906 1048 C 599.367188 1040.769531 601.933594 1034.167969 602 1026 L 600 1026 C 599.84375 1033.550781 596.386719 1053.179688 588.785156 1057 C 585.582031 1058.488281 582.296875 1055.449219 580 1053.554688 C 573.960938 1048.574219 564.945313 1040.488281 564.515625 1032 C 564 1025 570.566406 1016.824219 574 1011 C 581.957031 1021 583.597656 1033.566406 596 1040 C 585.386719 1021 574.507813 1007.714844 585.785156 986 C 588 981.550781 590.800781 974.046875 596 973 C 592.835938 969 589 979.195313 583 974 C 582.835938 982 580.597656 989 577 996 L 576 996 C 575.402344 991.550781 573.234375 986.503906 574.320313 982.003906 C 575.390625 977.578125 588.929688 965.070313 575 970 L 575 971 L 581 970 C 579.8125 972.484375 576.339844 978.085938 572.738281 976 C 570.425781 974.4375 570.210938 969.378906 569.625 967 C 566.984375 956.222656 568.730469 948.1875 581 946 C 580.675781 949.523438 581.476563 950.324219 585 950 C 579.902344 939.386719 591.707031 943.820313 596.210938 941.023438 C 598.960938 939.3125 600.421875 934.703125 602 932 C 594.386719 935.171875 586 938.273438 579 942.453125 C 576.453125 944 572.523438 947.617188 569.316406 947.003906 C 566.496094 946.460938 567 942.0625 567 940 C 566.953125 933.078125 567.191406 929.03125 574 926 C 574 932 573.917969 936.128906 579 940 C 576.867188 934.535156 574.710938 927.261719 579.320313 922.183594 C 582.921875 918.21875 587.46875 918.347656 590 913 C 587.757813 914 585.992188 915 584 916.230469 C 580.953125 918.324219 574.550781 919.28125 578 913.414063 C 581 908.253906 587.933594 907.550781 589 901 C 584.628906 904.820313 577.675781 908.785156 575 914.003906 C 573.296875 917.414063 575.335938 923.554688 570.871094 925.199219 C 565.65625 927.117188 566 920.070313 566 917 C 565.980469 906.683594 570.207031 905.507813 576 898 C 572.792969 898.570313 570 899.773438 567 901 C 567 885.511719 576.980469 875 579 860 L 577 860 C 576.363281 867.808594 574.207031 876 568 881 C 573.722656 835.714844 564.738281 787.792969 574.210938 743 C 579.539063 717.800781 588.464844 693.363281 596.667969 669 C 600.335938 658.101563 607.371094 646.773438 607 635 C 599.78125 652 593.777344 670 586.574219 687 C 577.671875 708.222656 567.722656 730.019531 564.429688 753 C 560.246094 782.1875 566.1875 812.554688 562.714844 842 C 561 855.609375 562.722656 876.433594 557.257813 889 C 555.507813 893 542.601563 897.40625 538.601563 895.355469 C 534.308594 893.15625 539 880.398438 539.871094 877 C 543.980469 860.050781 547.859375 840.472656 545.714844 823 C 541 786 512.449219 755.339844 506.4375 718 C 502 691.023438 510.4375 663.535156 505.921875 636 C 504.40625 626.765625 504 617.554688 498 610 C 496.257813 632.058594 497 655.214844 493 677 C 487 672.386719 484.207031 665.429688 480.574219 659 C 475.335938 649.722656 469.511719 640.578125 467.285156 630 C 463.210938 610.636719 468.179688 589.8125 465.714844 570 C 463.210938 550 457.480469 530.292969 456 510 C 453 466.125 466.238281 413.671875 496.285156 381.039063 C 509 367.089844 525.617188 359.691406 541 349.328125 C 558 338 571.335938 322.265625 593 320.171875 C 613.1875 318.214844 629.371094 329 648 334 L 648 333 C 629.925781 326 613 314.148438 593 314.003906 C 567.699219 313.824219 554.296875 331.234375 535 344 C 520.316406 353.574219 503.316406 359.632813 491.285156 373.015625 C 459.199219 408.699219 447.988281 469.171875 450 516 C 451 538 455.75 560.136719 457.828125 582 C 459.566406 600.226563 452 619.113281 456.761719 637 C 462.285156 658.175781 480.324219 676 489 696 C 494.222656 707.539063 493 720 495.898438 732 C 499.496094 747 506.683594 760.738281 512.1875 775 C 524.648438 807.269531 529.738281 842.683594 525.28125 877 C 523.800781 888.40625 524.65625 900.652344 517 910 L 520 909 C 520 919.472656 520.332031 929.621094 515 939 C 524.246094 939.492188 518.648438 958.355469 516 963 L 520 961 C 522 968.109375 525.605469 976.507813 523.566406 984 C 520.753906 994.347656 509.355469 1003.597656 505 1014 L 506 1014 C 510 1004.625 517 993.351563 526 988 C 529.578125 996.070313 536.75 1011.195313 535.632813 1020 C 534.753906 1027 529.226563 1033 526 1039 C 520.59375 1049.671875 515.550781 1061 514 1073 C 506 1066.347656 495.71875 1040.414063 497.21875 1030 C 498 1024.164063 502.703125 1019.324219 505 1014 L 504 1014 C 502.710938 1017 499 1025.792969 495 1025.792969 C 492.671875 1025.792969 491.5625 1019.714844 490.949219 1018 C 488 1010 484.613281 1000.691406 485.628906 992 C 486.910156 981.058594 494.921875 961.824219 501.636719 953.089844 C 505.71875 947.785156 511.53125 945 515 939 L 502 950 C 502.492188 938.675781 505.726563 926.421875 510 916 L 506 918 C 506 881 498 844.65625 493.28125 808 C 490.660156 788.066406 492 768 488.714844 748 C 486.191406 733 479 719.042969 476.464844 704 C 475 696.441406 476 688.492188 474 681 C 470.253906 667 457.675781 656.472656 453.425781 642 C 445 613.726563 445.640625 584.039063 442.828125 555 C 440.640625 532.363281 436 508.761719 437 486 C 438.191406 461.234375 444.535156 438.175781 449.398438 414 C 452.457031 398.808594 453.226563 383.042969 460.246094 369 C 476.554688 336.390625 507.433594 308.683594 513 271 L 512 271 C 501.5625 303.023438 477.550781 334.324219 460 363 L 459 363 C 464.648438 343 474.320313 324.703125 480.230469 305 C 482.964844 296 481.535156 286.121094 484.347656 277 C 487 268 492.554688 257.164063 503 256 L 503 254 C 488 254 472.441406 253.210938 459 261 C 433.367188 275.503906 424.382813 306.753906 413 332 C 405.292969 349.617188 394.855469 366.058594 385.691406 383 C 366.96875 417.613281 362.558594 450.328125 359.910156 489 C 354.738281 564.550781 365.917969 641.519531 396.859375 711 C 408.234375 736.542969 422.390625 761 436.425781 785 C 444.332031 798.617188 453.992188 811.558594 458 827 C 463 845.816406 463 865.679688 463 885 C 463 914.566406 461.980469 946.011719 456 975 L 457 975 C 474.972656 926.785156 478.75 861.570313 460.945313 813 C 446.511719 773.621094 420.613281 740 405.203125 701 C 387.679688 656.761719 381.214844 609.152344 377.910156 562 C 374.605469 515 370 464.765625 385.355469 419 C 390 404.765625 398 391.75 405.796875 379 C 421 354 430 326 445.203125 301 C 451.332031 291 459 278.546875 471 275 C 467.238281 295 455.652344 310.089844 449.355469 329 C 441.484375 352.628906 441.378906 378.179688 433.976563 402 C 424.949219 431.039063 410.46875 458.265625 403.652344 488 C 397 517 399 550.164063 406 579 L 407 579 C 407 565.191406 409.410156 551.730469 410 538 L 411 538 C 411.449219 559.675781 420.832031 581.328125 426.574219 602 C 432.964844 625 437.503906 648.417969 445.34375 671 C 452.757813 692.351563 462.867188 712.65625 470.304688 734 C 477.847656 755.648438 474.617188 778.683594 477.285156 801 C 483 849.09375 497.714844 897.652344 485.625 946 C 478.796875 973.304688 465.289063 999 451 1023 C 444.53125 1034.265625 437.300781 1047 425 1052.675781 C 414.363281 1057.621094 403.253906 1056.550781 392 1056.039063 C 365.992188 1055 340.265625 1048 317 1036.246094 C 302 1028.78125 289.328125 1021.117188 288 1003 C 287 988.175781 291.726563 972.308594 295 958 C 301.652344 930.429688 309.589844 903.3125 320.199219 877 C 326.910156 860.359375 335.761719 844 338.5625 826 C 340.574219 813.117188 337.632813 797 336 784 C 324.609375 795.28125 329 819.363281 323 834 L 322 834 C 330.632813 787.492188 314.925781 732.359375 298.574219 689 C 294.261719 677.566406 289.777344 666.03125 284.515625 655 C 281.421875 648.519531 276.699219 642.371094 276 635 C 274.84375 619.785156 282.636719 608.1875 286 594 L 285 594 C 276.703125 618.519531 265 645 248.535156 665 C 244.257813 670.1875 238.5625 673.289063 234 678 C 242 674.191406 249 670.308594 256 664.5625 C 258.210938 662.710938 261.527344 658.464844 264.785156 659 C 269.371094 659.5625 271 669.5 272.425781 673 C 278.171875 688.234375 283.699219 703.484375 288.65625 719 C 299.964844 754.398438 307.367188 793 303.828125 830 C 300.40625 866 286.839844 899.730469 280 935 C 274.566406 931 271.585938 925 266.960938 920 C 243 895 229.664063 869.328125 217.574219 837 C 210.789063 819 204.558594 800.667969 196.5625 783 C 189.976563 768.441406 181.179688 754.621094 181.179688 738 C 181.179688 704.625 200.4375 673.148438 212.398438 643 C 230 598.359375 248.210938 553.714844 270.257813 511 C 284.824219 482.78125 302.609375 456.644531 318 429 L 319 429 C 319 445.191406 319.957031 462.277344 324 478 C 326.90625 488.304688 332 497.738281 335 508 C 336.691406 500 330.648438 490.226563 329.425781 482 C 327 466.070313 327.335938 449.085938 328 433 C 329.316406 404 341.894531 375.171875 353.695313 349 C 360.519531 334 366.609375 318.125 375.425781 304 C 387.40625 284.800781 406.53125 284.09375 426 277.304688 C 437.980469 273.125 448.613281 266.132813 459 259 C 509 224.449219 560.457031 187.148438 618 166.054688 C 640 158 663.96875 155.15625 687 150.550781 C 716.597656 144.628906 744.519531 136.695313 775 141.425781 C 793.96875 144.367188 812.246094 150.113281 831 154 C 851.390625 158.222656 871.539063 160.53125 891 168.453125 C 947.535156 191.464844 997.300781 229.5 1048 262.65625 C 1057 268.589844 1066.617188 274.484375 1077 277.804688 C 1092.960938 283 1108.890625 284 1120.90625 297 C 1133.773438 311 1139.804688 331 1147 348 C 1168.359375 397.417969 1186.644531 456.367188 1164 509 M 697 179 L 698 180 L 697 179 M 803 179 L 804 180 L 803 179 M 699 180 L 699 181 C 727 193.460938 745.488281 215.210938 748 247 C 752 241.6875 750 231.261719 749 225 C 745 200.832031 724 180.519531 699 180 M 751 250 C 756.625 245.738281 757 232.566406 759.433594 226 C 766.488281 206.410156 779.519531 185.367188 802 182 L 802 180 C 763.71875 180.316406 751 218.308594 751 250 M 514 349 L 515 349 C 536 318 557.429688 282.226563 588 259.476563 C 602.234375 249 618.621094 241.648438 633 231.253906 C 643.671875 223.539063 651.5625 213 662 205 C 669.738281 199 684.789063 194 690 186 C 665.734375 191.074219 645.703125 212.277344 626 226 C 612.703125 235.191406 596.613281 240.277344 583 249.355469 C 558.332031 265.804688 540.832031 289.050781 527.167969 315 C 521.789063 325.207031 515 337.351563 514 349 M 810 186 L 810 187 C 820.660156 193.222656 831.382813 198.546875 841 206.464844 C 850.800781 214.535156 858.480469 224.710938 869 232 C 889.707031 246.273438 913.4375 256.328125 930.910156 275 C 945.742188 291 956.898438 309.703125 969.871094 327 C 974.761719 333.519531 980 343.773438 987 348 C 985.941406 336 978.390625 322.433594 972.421875 312 C 958.511719 287.683594 941.746094 264.683594 918 249.078125 C 904 240 887.710938 235.167969 874 225.5625 C 854.523438 212 834.652344 189.640625 810 186 M 904 199 C 909.324219 208.738281 923 216.207031 930.5625 225 C 943.734375 240.613281 953.296875 258.808594 965.652344 275 C 971.894531 283.171875 979 292.257813 989 296 C 984.453125 285.601563 975.53125 277.457031 969.34375 268 C 951.808594 241.1875 935 212 904 199 M 512 296 C 521 293 528 284.351563 533.765625 277 C 545.226563 262.078125 554.6875 245.722656 566.449219 231 C 575.277344 220 587.269531 211.792969 596 201 C 586.335938 202 579.949219 208.617188 573 214.714844 C 554.441406 231 542.347656 251.617188 528.921875 272 C 523.628906 280.03125 514.964844 286.714844 512 296 M 482 204 C 482.929688 206.742188 483.820313 208.105469 486 210 C 485 207.257813 484.179688 206 482 204 M 481 209 C 482 212.199219 483.347656 214 486 216 C 484.816406 213 483.519531 211.097656 481 209 M 473 212 C 475 214.832031 476.835938 216.519531 480 218 C 477.949219 215.167969 476 213.480469 473 212 M 469 221 C 470.535156 223.796875 472 224.824219 475 226 C 473.171875 223.652344 471.636719 222.382813 469 221 M 465 222 C 466.480469 225.164063 468.167969 227 471 229 C 469.519531 226 467.832031 224.050781 465 222 M 454 230 C 455.382813 232.421875 456.363281 233.0625 459 234 C 457.617188 231.578125 456.636719 231 454 230 M 465 234 L 464 235 L 465 234 M 442 239 C 443.175781 242 444.203125 243.464844 447 245 C 445.699219 242.238281 444.445313 241 442 239 M 673 239 L 673 241 C 689.746094 243.511719 703 258.382813 711.574219 272 C 727.832031 298.0625 733 329 736.167969 359 C 737.207031 369.382813 738.875 381.738281 737 392 C 745.398438 385.605469 739 360.429688 739 351 C 739 310 723.171875 243 673 239 M 762 392 L 764 392 C 764 349 768 294.757813 798.175781 261 C 807.59375 250.445313 817.691406 247.117188 829 240 C 812.195313 235.765625 792 255.425781 784 268 C 760.742188 304.53125 762 350.300781 762 392 M 830 239 L 831 240 L 830 239 M 437 240 C 438.492188 244 440.277344 246.179688 444 248 C 442.203125 244.546875 440 242.273438 437 240 M 513 270 L 514 271 L 513 270 M 567 313 C 586.410156 307.289063 600 288.703125 622 289.59375 C 676.414063 291.800781 695.898438 354 700.171875 398 C 701.3125 409.828125 703 424.328125 701 436 C 705.222656 432.585938 703 426.777344 703 422 C 702.742188 410.730469 703 399.296875 703 388 C 702.632813 357.816406 695.753906 327.324219 673.714844 305.285156 C 647.367188 279 612.179688 277.59375 583 299.375 C 577.679688 303.347656 570.402344 307.210938 567 313 M 798 433 L 799 433 C 799 385.191406 804.511719 325.359375 851 299.152344 C 860.753906 293.65625 871.6875 289.753906 883 290.015625 C 902.679688 290.464844 914.757813 305.6875 932 312 C 927.515625 304.574219 919.296875 299.609375 912 295.203125 C 882.605469 277.453125 850.59375 281.585938 826 306.089844 C 801.183594 331 797 368.546875 797 402 C 797 411.78125 795.222656 423.597656 798 433 M 1105 289 C 1105.640625 292.046875 1110 296.464844 1106 297 C 1110 302.832031 1115.339844 309.660156 1121 314 C 1120.589844 311.226563 1119.851563 308.671875 1119 306 C 1121 307.757813 1122.582031 309 1125 310 C 1121.464844 300.347656 1114.800781 292.398438 1105 289 M 377 309 C 379 308.121094 380.230469 307.347656 382 306 L 379 314 C 382.710938 312.644531 397.484375 298.425781 391 297 C 392.921875 294.742188 394.527344 292.570313 396 290 C 386.351563 291.046875 379.765625 300.261719 377 309 M 391 297 L 390 298 L 391 297 M 1110 297 L 1109 298 L 1110 297 M 1119 306 C 1117.363281 305.453125 1117.546875 305.636719 1117 304 C 1118.636719 304.546875 1118.453125 304.363281 1119 306 M 383 305 L 382 306 L 383 305 M 834 342 C 829.671875 360.707031 821 378.382813 816 397 C 808.359375 426.597656 807.828125 458.136719 814.425781 488 C 818.363281 506 823.800781 524.636719 835.667969 539 C 841.40625 546 853 550 858 540 C 839.308594 537.199219 832.5625 518.738281 827.332031 503 C 814.828125 465.351563 816.882813 426.351563 824.601563 388 C 826.828125 377 829.628906 366 832.710938 355 C 833.789063 351.183594 836.539063 345.425781 834 342 M 666 344 L 667 345 L 666 344 M 666 346 C 679.808594 395.023438 687.449219 440.53125 676.996094 491 C 672.949219 510.550781 666 537 643 540 C 646.757813 547.820313 654.394531 548 660.996094 543.199219 C 670.578125 536.429688 676 523.691406 679.945313 513 C 695 471.515625 693.859375 423.667969 680.328125 382 C 677 372 675.601563 352 666 346 M 869 386 C 871.417969 385 872.988281 383.757813 875 382 C 874 384.042969 873.464844 385.828125 873 388 C 881.808594 385.5 889.601563 381.496094 898 378 C 897 379.515625 896.613281 380.339844 896 382 L 899 381 C 897.242188 383.011719 896 384.582031 895 387 C 898.464844 385.558594 901.761719 384 905 382 C 902.570313 385.679688 899.726563 389 898 393 C 900.488281 392.222656 902.671875 391.183594 905 390 C 902.492188 397.730469 904.996094 404.265625 903 412 C 904.660156 411.386719 905.484375 411 907 410 C 897.714844 438.492188 882.574219 464.527344 870.871094 492 C 867.492188 500 864.367188 517.253906 854.984375 520.316406 C 847.351563 522.804688 843.226563 510 841 505 L 840 505 C 840 508.421875 840 511.707031 841 515 C 846.355469 531.359375 857.257813 528 866.710938 517 C 869 514.339844 874 505.589844 878.261719 510.28125 C 883.25 516 880.589844 528.007813 882 535 C 885.289063 551.242188 891.199219 568.371094 899 583 L 900 583 C 898.550781 564.683594 891.726563 543 905.214844 527 C 911.976563 519.054688 920.945313 515.613281 931 514 C 940.636719 512.296875 950.59375 512.101563 960 509.277344 C 976.433594 504.347656 990 493 1001.996094 481 C 1007 476 1013.335938 469.585938 1013.878906 462 C 1014.511719 453.25 1007.886719 444.5 1002.789063 438 C 997.332031 431.042969 991.308594 427.496094 984 422.714844 C 973.394531 415.621094 967.453125 408.121094 953 408 L 953 407 L 957 407 L 957 405 C 942.980469 405 932.589844 408.125 920 414 C 924.285156 409.710938 928.773438 405.742188 931 400 C 927 401.320313 923.617188 403.105469 920 405 C 932.667969 392.367188 946.945313 385.003906 965 385 L 965 383 C 950.695313 382.703125 939 382.769531 925 386 L 925 385 C 929.867188 383.230469 934.527344 380.613281 939 378 L 939 377 C 932.570313 377 926.386719 376.503906 920 376 L 920 375 C 924.730469 374.425781 925.878906 372.304688 929 370 C 923.691406 363.285156 915 363.003906 907 363 L 907 362 C 928 361.09375 944.527344 363 963 374.425781 C 975.980469 382.519531 987.496094 393.417969 997.421875 405 C 1008.222656 417.605469 1018.835938 431.230469 1024.5625 447 C 1037 481.546875 1014.949219 530 998.691406 560 C 990.753906 574.675781 981 588.382813 977.664063 605 C 972.53125 629.503906 978 655.304688 978 680 L 980 680 C 980.515625 655.023438 975.957031 626 985 602 C 989.71875 589.738281 999.734375 579.792969 1005.628906 568 C 1018.699219 542 1026.957031 513.8125 1031.425781 485 C 1033.480469 471.753906 1037.878906 457.078125 1032.933594 444 C 1017.804688 404 979.4375 360.5 936 352.613281 C 912.234375 348.300781 869 354.503906 869 386 M 522 682 L 523 682 C 524 655.195313 529 627.542969 522.765625 601 C 518.542969 583.078125 506.941406 568 498.308594 552 C 487.492188 532.046875 479.613281 510.34375 475.574219 488 C 473.25 475.125 470.195313 462.765625 474.699219 450 C 480.808594 432.675781 492.96875 416.507813 505.171875 403 C 515 392.023438 526.191406 381.390625 539 374 C 557.183594 363.171875 572.660156 362 593 362 L 593 363 C 588.445313 363.011719 566.628906 367.417969 580 371 L 580 372 C 576.976563 371.4375 574 371.0625 571 371 C 573.296875 374.503906 577 376 581 377 L 581 378 C 574.640625 377.195313 568.429688 376.019531 562 376 C 565 381.003906 573.355469 383.050781 578 387 C 563.433594 383.628906 551.882813 382.691406 537 383 L 537 385 C 555.175781 386.433594 569 392.027344 582 405 C 577.648438 403.1875 573.675781 400.832031 569 400 C 571.941406 406.304688 578 410.351563 582 416 C 569.800781 407.136719 557.796875 403.832031 543 405 L 543 407 L 548 407 L 548 408 C 540.648438 408.03125 533.375 410.339844 527 414 C 524.992188 415.152344 518.402344 418 522 420 L 522 421 C 511.6875 423 505.207031 431.355469 498.914063 439 C 493.847656 445.160156 486.183594 452.398438 486.1875 461 C 486.191406 470.003906 494.8125 477.832031 501 483.285156 C 516 496.542969 532.828125 508.734375 553 512.539063 C 568 515.371094 583.691406 513.445313 594.816406 526.003906 C 608.796875 541.785156 602.480469 564.265625 601 583 C 605.398438 580.09375 606.707031 573.738281 608.601563 569 C 613.738281 556.144531 618 542.789063 619.714844 529 C 620.289063 524.179688 617.691406 510.375 624.214844 508.613281 C 633.410156 506.125 638.34375 529.511719 650 527.324219 C 659.457031 525.546875 661.664063 511.800781 662 504 L 661 504 C 658.617188 509.027344 654.542969 522.558594 647 521.027344 C 637.304688 519.0625 634 500.523438 630.6875 493 C 617.535156 463.824219 599.941406 439 594 407 C 595.476563 408 595.203125 408 597 408 C 595.21875 401.105469 598.953125 396.125 595 389 C 597.355469 390 599.53125 390.574219 602 391 C 600.953125 388.125 599.585938 385.617188 598 383 L 607 387 C 605.742188 383.726563 603.835938 381 602 378 C 609.980469 381.554688 619.265625 386.125 628 387 L 627 384 C 628.769531 385.347656 629.984375 386.121094 632 387 C 631.722656 354 587.640625 348.660156 563 353.261719 C 518.699219 361.53125 482.585938 404.375 467.464844 445 C 462.320313 458.8125 467 474.109375 469.574219 488 C 474.601563 516 483.507813 542.703125 496.246094 568 C 502.203125 579.824219 511.539063 589.609375 516.386719 602 C 525.96875 626.519531 522 656.210938 522 682 M 1042 363 L 1041 364 L 1042 363 M 888 368 C 884.410156 373.117188 880 378.34375 875 382 C 877.710938 376 882.410156 371.496094 888 368 M 615 369 C 619.484375 373.519531 624.328125 378.167969 627 384 L 626 384 C 622.773438 379.277344 616.324219 374.488281 615 369 M 924 371 L 923 372 L 924 371 M 582 372 L 581 373 L 582 372 M 598 382 L 597 383 L 598 382 M 925 386 L 924 387 L 925 386 M 581 389 L 578 388 C 579.765625 387.597656 579.558594 387.710938 581 389 M 923 387 L 922 388 L 923 387 M 595 388 L 594 389 L 595 388 M 906 389 L 905 390 L 906 389 M 583 405 C 584.1875 406.1875 584.527344 406.585938 585 408 C 583.453125 406.738281 583.191406 406.804688 583 405 M 920 405 C 919.453125 406.636719 919.636719 406.453125 918 407 C 918.546875 405.363281 918.363281 405.546875 920 405 M 920 414 C 918.894531 415.457031 918.457031 416 917 417 C 918 415.542969 918.542969 415.101563 920 414 M 523 419.332031 C 523.773438 419.332031 523 419.832031 522.667969 419.667969 L 523 419.332031 M 551 433.433594 C 563 430.183594 567.699219 448.324219 555.996094 451.414063 C 544.335938 454.492188 539.355469 436.589844 551 433.433594 M 944 433.433594 C 955.460938 430.277344 961 448 949.984375 451.34375 C 938.6875 455 932.898438 436.5 944 433.433594 M 798 434 L 798 438 L 800 438 L 800 434 L 798 434 M 522 445 C 526.40625 464.039063 547.355469 482 567 470.632813 C 576 465.472656 580 456.519531 585 448 L 586 448 C 586.789063 454.386719 586.296875 459.203125 583.203125 465 C 575.90625 478.679688 560.21875 486.421875 545 482 C 531 478 515.441406 460.628906 522 445 M 980 446 C 979 458.28125 976.28125 469.621094 966 477.46875 C 942.226563 495.609375 915 473.648438 915 448 L 916 448 C 924 467.734375 944.679688 484.144531 964.910156 467.320313 C 971.929688 461.480469 973.273438 451.765625 980 446 M 989 447 C 994.371094 473.035156 970.796875 499.742188 944 501 C 927.457031 501.710938 912.320313 493.414063 896 498 L 896 497 C 909.980469 489.671875 923.757813 498.429688 938 499.828125 C 955.359375 501.535156 974.765625 488.199219 983.53125 474 C 989.1875 465 985.261719 456 989 447 M 513 448 C 508 474.242188 533.785156 500 560 500 C 575.929688 500 588.734375 491 605 496 L 605 497 C 600.355469 496.628906 595.667969 495 591 495.328125 C 577.957031 496.445313 566.449219 502.679688 553 500.699219 C 541.367188 499 530 491.105469 522 483 C 514.386719 475.273438 503.578125 458.015625 513 448 M 749 458 C 753 479.792969 749 505.679688 749 528 L 751 528 C 751 511.445313 749.960938 494.511719 751 478 C 751.496094 472.082031 754.488281 462.179688 749 458 M 596 464 C 594.203125 477.277344 584.96875 488.1875 572 492 L 572 491 C 585.296875 485.261719 588.691406 475.007813 596 464 M 906 464 C 910.464844 479.496094 923.417969 491.394531 939 495 L 939 496 C 927 494.382813 900.625 479.539063 906 464 M 902 468 C 902.914063 472 912.503906 486.570313 910.828125 489 C 909 491.378906 898 493 895 494 C 895.175781 485.550781 896.171875 474.527344 902 468 M 600 469 C 602 473 608.996094 487 604.972656 491 C 601.605469 494.367188 591.574219 490.515625 588 489 C 591.960938 482.574219 595.226563 474.761719 600 469 M 570 492.332031 C 570.773438 492.332031 570 492.832031 569.667969 492.667969 L 570 492.332031 M 567 493.332031 C 567.773438 493.332031 567 493.832031 566.667969 493.667969 L 567 493.332031 M 768 571 L 768 572 C 786.371094 572 805.761719 569.257813 823 577.324219 C 836.90625 583.832031 846.691406 597.578125 861 603 C 839.898438 573.292969 802.925781 560.675781 768 571 M 641 602 C 655.515625 597.726563 665.269531 583.210938 679 577 C 695.699219 569.226563 714.285156 572 732 572 C 725.878906 567.183594 715.386719 569 708 569 C 680.71875 569 657.472656 578.628906 641 602 M 577 589 C 578.636719 588.453125 578.453125 588.636719 579 587 C 577.6875 587.769531 577.769531 587.6875 577 589 M 610 662 C 630.230469 654.59375 638.425781 631.78125 652.285156 617.089844 C 669.574219 598.761719 697.503906 591 722 591 C 716.316406 583.535156 696.707031 590.40625 689 592.003906 C 673.796875 595.152344 656.707031 600.746094 646.328125 613.015625 C 639.53125 621.054688 635.828125 631.523438 629.523438 640 C 623.765625 647.734375 614.726563 653.746094 610 662 M 777 589 L 777 590 C 801.859375 591.066406 830 597.703125 847.960938 616.015625 C 862.824219 631.195313 869 653.25 890 662 C 885.792969 653 876.175781 646 870 638 C 863.226563 629 859 617.324219 850.824219 609.289063 C 836.355469 595.1875 812.707031 589.324219 793 589 C 787.496094 589 782.382813 587.410156 777 589 M 923.5 588.5 C 922.871094 589.128906 923.871094 590.128906 924.5 589.5 C 925 589 924 588 923.5 588.5 M 537 684 L 538 684 C 541.851563 668.011719 544.996094 653.007813 552.257813 638 C 559.960938 622.082031 571.554688 606.703125 577 590 C 569.851563 594 565.234375 605.0625 561.28125 612 C 548.894531 633.742188 537 658.464844 537 684 M 747 590 C 748.398438 595.195313 749.566406 597.777344 755 599 C 755.203125 595.800781 756 593.050781 757 590 C 753.179688 591.304688 750.820313 591.304688 747 590 M 925 591 C 929.902344 608.019531 941.304688 624 948.691406 640 C 954.824219 653.355469 957.867188 667.390625 963 681 L 964 681 C 963.511719 657.402344 950.535156 634.574219 940.246094 614 C 936.464844 606.4375 932.554688 595.441406 925 591 M 616 728 C 620.875 721 621.507813 709.21875 624 701 C 630.84375 678.734375 638.539063 650 654.183594 632 C 674 609.320313 703.457031 609.066406 730 601 C 720 597 699.796875 604.765625 690 608 C 678.183594 612 665.984375 615.800781 656 623.527344 C 633.175781 641.195313 625.457031 672 620.75 699 C 619 708.359375 614.960938 718.472656 616 728 M 775 600 C 775.980469 601.78125 775.90625 601.59375 778 602 C 776.777344 600.804688 776.578125 600.683594 775 600 M 780 601 L 780 603 C 801.65625 604.710938 829.378906 613.058594 844.699219 629.171875 C 856.203125 641.265625 863.679688 661.390625 868.996094 677 C 873 689.167969 876.34375 701.640625 879.859375 714 C 881.191406 718.675781 882 726 886 729 C 883.285156 695.773438 873.695313 651.664063 849.828125 627.089844 C 833.253906 610.023438 803.25 601.480469 780 601 M 550 605 C 544 623.324219 537 640.445313 537 660 L 538 660 C 540.953125 647.597656 542.636719 635.257813 546.671875 623 C 548.53125 617.34375 552.464844 611 550 605 M 948 606 C 952.710938 622.726563 961.246094 640.519531 962 658 L 964 658 C 963.996094 644 961.460938 614.234375 948 606 M 582 635 C 568.292969 658.480469 548.308594 684.597656 541 711 C 537.832031 723.277344 539 736.410156 539 749 C 539 757.3125 537.636719 767 540 775 L 541 775 C 541 743.066406 546.953125 713.589844 561.246094 685 C 566.851563 673.789063 571.6875 662.226563 577.246094 651 C 579.527344 646.394531 583.542969 640.21875 582 635 M 919 638 C 924.933594 663.640625 942 685.027344 949.972656 710 C 954.28125 723.550781 957.410156 738 958.832031 752 C 959.636719 760.035156 958.730469 769.316406 961 777 L 962 777 C 962 756.277344 964.710938 734.277344 959.523438 714 C 954.996094 696.324219 944.414063 681.445313 935.199219 666 C 930.414063 658 927 643 919 638 M 752 696 L 751 696 C 751 685.402344 753.300781 665.746094 743 659 C 744.210938 668.363281 745.992188 677.507813 746 687 C 732.964844 679 723.417969 668.136719 707 668 L 707 670 C 732.445313 671.164063 748 694.683594 750 718 L 751 718 C 757.378906 693.351563 768.367188 679 794 673 L 794 672 C 779.234375 672.121094 767.835938 679.566406 757 689 C 757 678.480469 757 668.382813 759 658 C 751.328125 663.355469 752 687.226563 752 696 M 703 667 L 703 669 L 706 669 L 706 667 L 703 667 M 699 678 L 699 680 C 718.566406 682.636719 736.933594 697 740.535156 717 C 742.253906 726.550781 740.199219 736.523438 739 746 C 744.582031 742 744.96875 730.445313 745 724 C 745 697.085938 724.867188 680.046875 699 678 M 762 747 L 764 747 C 763.65625 739.027344 760.496094 731 761.175781 723 C 763 700.679688 780.726563 684.402344 802 680 C 795.808594 676.148438 785.738281 682 780 685 C 776 687 772.28125 689.277344 769 692.183594 C 751.175781 708 759.304688 727 762 747 M 209 717 C 211.910156 724.691406 217 730.828125 219 739 C 225.898438 766.042969 224.683594 794.707031 231.882813 822 C 235.550781 836 242.5 854.382813 257 860 C 252.914063 852.828125 247.566406 847 244.695313 839 C 235.730469 814.390625 236.972656 787.441406 232 762 C 228.828125 745.78125 224.433594 726 209 717 M 1243 860 C 1257.667969 855.644531 1265 837.453125 1268.859375 824 C 1275.707031 800.113281 1275 775.207031 1280 751 C 1282.433594 739.085938 1287.382813 729.089844 1292 718 C 1277.550781 723 1273 742.757813 1270.210938 756 C 1264 784.410156 1265.710938 814.769531 1254.546875 842 C 1251.804688 848.691406 1246.78125 854 1243 860 M 868 722 C 871.171875 735.378906 885.875 745.308594 891.691406 758 C 904.488281 786 908 818.617188 908 849 L 909 849 C 911 801 912.441406 752.386719 868 722 M 631 723 C 621.359375 733.46875 609 742.554688 601.875 755 C 586 782.253906 591 818 591 848 L 593 848 C 593 818.011719 596.582031 786.699219 608.863281 759 C 612.78125 750.15625 618.792969 742.414063 624.921875 735 C 627.714844 731.617188 632.21875 727.652344 631 723 M 615 729 L 616 730 L 615 729 M 796 929 L 796 928 C 801.5625 925.355469 805.675781 921.3125 810 917 C 804.78125 918.695313 799.53125 920.585938 794 921 C 771.972656 922.1875 762 899.015625 755.199219 882 C 753.238281 877.128906 752.441406 871 749 867 C 746.484375 895.820313 721.917969 932.820313 690 916 C 693.648438 921.136719 698.546875 925 704 928 C 698.828125 930.105469 693.363281 926.703125 689 924 C 678 917 668.730469 908 658 900.671875 C 649.273438 894.816406 639.90625 890.136719 634 881 C 620.933594 860.308594 620.464844 823.488281 634 803 C 643.808594 788.421875 663.417969 776.296875 680 771.203125 C 702.898438 764.171875 724.363281 775.351563 747 777 C 765.195313 778.164063 781 769.234375 799 768.089844 C 821.488281 766.648438 852.523438 784.8125 866 802.089844 C 881.386719 821.621094 878.625 866.214844 863.480469 885 C 855.402344 895 842 900.25 832 908 C 821 916.183594 810.671875 928.328125 796 929 M 688 879 L 689 879 C 687.640625 884.675781 684.777344 889.511719 680.699219 893.714844 C 678.566406 896 673.207031 899.109375 673.207031 902.566406 C 673.207031 905.488281 680 905.621094 682 906 C 691.472656 907 700.996094 907.648438 710 903.652344 C 728.3125 895.519531 729 872.253906 714 860.390625 C 705 853.324219 693.679688 853.652344 683 855 L 683 854 C 692 852.652344 700.570313 848 710 848.054688 C 720.355469 848.257813 729.402344 854 739 857 C 735.277344 849.714844 724.46875 844.085938 717 841.230469 C 713.886719 840.042969 706.523438 839.226563 706.257813 835 C 705.886719 829 715.769531 822.621094 720 819.746094 C 737.253906 808.023438 761.21875 805.796875 779 817.75 C 783.257813 820.609375 798.824219 833.027344 795 839.484375 C 793 842.78125 787 841.773438 784 842.328125 C 777.902344 843.398438 772 846.640625 767 850 L 767 851 C 773 850 778.726563 846.601563 785 846.09375 C 797.355469 845.097656 806.5625 851 818 854 L 818 855 C 806.210938 853.511719 794.527344 854.101563 785 862.328125 C 772.371094 873.316406 774 894.609375 789 902.675781 C 797 907.066406 807.984375 906.820313 817 905.714844 C 819 905.457031 825.578125 905.328125 825.964844 902.484375 C 826.390625 899.351563 821.878906 896 820 894 C 816 889.660156 813 885 812 879 C 828.222656 903.046875 855.796875 897 867 871 C 875.730469 851.285156 870 827.699219 859.386719 810 C 855.488281 803.597656 850.867188 797.539063 845.714844 792.089844 C 842 788.203125 837.621094 784.574219 833 782 C 806.941406 766.667969 784.847656 786 758 786 C 746.769531 786.054688 736 786.039063 725 783.574219 C 712.355469 780.746094 701.28125 775.4375 688 776.039063 C 661 777.261719 633.929688 812.082031 630.300781 837 C 627.824219 854 630.574219 873.265625 643 886 C 656 899.363281 680.210938 897.398438 688 879 M 820 855 L 819 856 L 820 855 M 690.667969 874.667969 C 690.722656 874.722656 690.777344 875.777344 690.332031 875.332031 C 690.277344 875.277344 690.222656 874.222656 690.667969 874.667969 M 597 875 L 596 879 C 598 877.605469 598.332031 877.148438 597 875 M 902.582031 876.277344 C 901.652344 876.816406 902.484375 878.261719 903.417969 877.722656 C 904.347656 877.183594 903.515625 875.738281 902.582031 876.277344 M 812 876 L 812 879 L 811 879 C 811.25 877.550781 811.316406 877.246094 812 876 M 689.667969 877.667969 C 689.722656 877.722656 689.777344 878.777344 689.332031 878.332031 C 689.277344 878.277344 689.222656 877.222656 689.667969 877.667969 M 751 879 L 750 880 L 751 879 M 751 881 L 751 940 L 750 940 C 747.339844 925.726563 747 910.414063 748.714844 896 C 749.308594 891 747.820313 885.195313 751 881 M 587.210938 886.175781 C 584.722656 886.605469 585.476563 890.519531 587.957031 890.082031 C 590.601563 889.617188 589.78125 885.730469 587.210938 886.175781 M 911.316406 886.171875 C 908.890625 887.550781 911 891.230469 913.398438 889.828125 C 915.601563 888.496094 913.675781 884.832031 911.316406 886.171875 M 888.976563 891.15625 C 888 892.0625 889 894.464844 890.4375 893.675781 C 891.925781 892.800781 890.199219 890 888.976563 891.15625 M 609 896 L 610 896 C 610.890625 894.253906 611.453125 893 612 891 C 608.945313 891.652344 609 893.007813 609 896 M 541 918 L 541 919 C 544.769531 917.421875 550.476563 912.617188 554.683594 913.425781 C 558.78125 914.214844 556.285156 923.382813 555.621094 926 C 553.230469 935.394531 541.519531 940.546875 533 943 C 533 933.660156 531.496094 925 541 920 L 541 919 L 533 922 C 533.714844 916.363281 532.789063 908.039063 536 903.226563 C 542 894.511719 566 896 555.257813 909.609375 C 552.230469 913.449219 545.359375 916 541 918 M 968 922 C 960.851563 919.722656 955.191406 914.277344 948 912 L 948 913 C 956.546875 917 969.359375 922 968.894531 933 C 968.808594 935.046875 968.800781 941.367188 966.398438 942.183594 C 963.699219 943.101563 959.269531 940 957 938.742188 C 944.726563 932.390625 942.589844 924 945 911 L 948 912 C 936.742188 898 953.410156 892.71875 963.582031 901.703125 C 968.285156 906 967.953125 916.203125 968 922 M 600.1875 900.339844 C 597.851563 901.339844 599.191406 905.300781 601.4375 903.828125 C 603 902.785156 602.335938 899.425781 600.1875 900.339844 M 898 900.066406 C 896.363281 901.730469 899.515625 904.457031 901.1875 903 C 902.933594 901.34375 899.65625 898.519531 898 900.066406 M 919 909 C 916 900.519531 909 906.578125 919 909 M 622 904 C 620.523438 910.375 626 908.59375 622 904 M 876.742188 906.082031 C 874.929688 907.683594 877.175781 911.171875 878.972656 909.269531 C 880.460938 907.695313 878.730469 904.324219 876.742188 906.082031 M 510 916 C 513 914.410156 514.953125 912.765625 517 910 C 513.835938 911.480469 512 913.167969 510 916 M 923 920 C 930 913.722656 921.605469 908.121094 923 920 M 985 911 C 986.835938 913.445313 988.238281 914.699219 991 916 C 989.171875 913.652344 987.636719 912.382813 985 911 M 887.472656 913.457031 C 885.902344 914.222656 886.773438 917.566406 888.527344 916.671875 C 890 916 889.238281 912.597656 887.472656 913.457031 M 612.460938 914.171875 C 610.910156 915.28125 611.433594 919.335938 613.539063 917.828125 C 615 916.71875 614.566406 912.664063 612.460938 914.171875 M 633 913 C 633.675781 915.296875 633.964844 915.773438 636 917 C 635.324219 914.703125 635 914.226563 633 913 M 866 915.117188 C 864.949219 916.007813 866.257813 917.800781 867.398438 917 C 868.527344 916 867 914.191406 866 915.117188 M 900 916 C 900.804688 919 901.675781 920.09375 904 922 C 903.363281 919 902.613281 917.683594 900 916 M 605 919 C 603.203125 919 603.480469 919.015625 602 920 L 603 917 C 595.835938 919.191406 601.390625 925.5625 605 919 M 854 918 L 855 924 L 857 924 C 856.683594 921.121094 856.378906 919.664063 854 918 M 624 920.007813 C 619 921.421875 619 928.679688 624.945313 927.070313 C 629.5 925.824219 629.171875 918.542969 624 920.007813 M 895.695313 920.34375 C 893.652344 921.460938 896.28125 925.53125 898.203125 924.539063 C 899.960938 923.632813 897.496094 919.355469 895.695313 920.34375 M 644 920 C 644.40625 922.09375 644.21875 922.019531 646 923 C 645.316406 921.421875 645.195313 921.222656 644 920 M 874.320313 921.136719 C 870.699219 923.074219 873.601563 929.121094 877.367188 927.339844 C 882 925.117188 878.484375 919 874.320313 921.136719 M 587 921 C 589.566406 926.035156 592.511719 929.09375 592 935 C 602.367188 930.109375 595.445313 922.53125 587 921 M 626 922 C 625.453125 923.636719 625.636719 923.453125 624 924 C 624.546875 922.363281 624.363281 922.546875 626 922 M 884 924 C 885.578125 923.316406 885.777344 923.195313 887 922 C 884.90625 922.40625 884.980469 922.21875 884 924 M 925 923 C 936.183594 930 934.945313 936.023438 934 948 C 929.621094 946.339844 925.871094 943.613281 922 941 C 926.636719 934.25 924 930.203125 925 923 M 907 927 C 909 926.101563 909 926.125 910 924 C 907.875 925 907.898438 925 907 927 M 634 926.082031 C 632.425781 927.78125 635.441406 931.128906 637.1875 929.269531 C 638.851563 927.492188 635.742188 924.355469 634 926.082031 M 613 926 L 614 927 L 613 926 M 862.601563 927.066406 C 860.972656 928.386719 862.585938 931 864.4375 930 C 866.527344 928.5625 864.589844 925.460938 862.601563 927.066406 M 609 928 C 602.238281 933.550781 611.410156 934.34375 609 928 M 889 930 C 891.984375 934.222656 896.1875 933 897 928 C 894.28125 928.691406 891.804688 930 889 930 M 655 936 C 657.296875 933.765625 657.769531 932.199219 658 929 C 654.726563 930.804688 654.191406 932.382813 655 936 M 847 936 L 846 929 C 842.933594 931.347656 844 934.035156 847 936 M 852 930 C 850.730469 932.726563 850.417969 934.0625 851 937 C 852.664063 934.566406 853 932.773438 852 930 M 645 934 C 647.476563 935.339844 648.519531 936.589844 650 939 C 651.25 935.34375 648.441406 929.652344 645 934 M 875.871094 934.34375 C 865.324219 934.507813 865 950.121094 873.996094 950.132813 C 877.71875 950.136719 876.496094 934.335938 875.871094 934.34375 M 623.578125 935.070313 C 621 937 624 940.503906 626.308594 938.308594 C 628.171875 936.441406 625.71875 933.511719 623.578125 935.070313 M 891 937 C 884.40625 940.34375 889.84375 944.261719 891 937 M 610.601563 939.15625 C 608.851563 940.324219 610.671875 943 612.398438 941.691406 C 614 940.527344 612.285156 938.03125 610.601563 939.15625 M 829 938 C 828.273438 941.386719 828.792969 943.761719 830 947 L 831 947 C 830.988281 943.535156 831 940.804688 829 938 M 984 938 C 996.648438 950.648438 1002.28125 960.777344 1009 977 C 1011.441406 983 1015 988.429688 1014.871094 995 C 1014.59375 1007 1008.621094 1017.667969 1006 1029 L 1005 1029 C 1000.722656 1018.722656 994.839844 1009 988 1000 C 984 994.71875 977.777344 989.824219 976.40625 983 C 975.285156 977.402344 977.707031 963.136719 984 962 C 980.519531 955.078125 979.375 944.761719 984 938 M 630 945 C 631.191406 944.328125 636.300781 941.058594 632.621094 939.707031 C 627.867188 938 621.972656 945.578125 626.324219 949.257813 C 631.683594 953.789063 641.570313 950.179688 630 945 M 557 940 C 558.601563 952.667969 556.648438 955.15625 547 963.144531 C 545 964.71875 540.746094 969.628906 537.859375 968 C 535.742188 966.527344 535.886719 962.140625 535.578125 960 C 533.640625 946.46875 546.335938 943.46875 557 940 M 671 940 C 671.175781 942 671.4375 943.199219 672 945 L 673 945 C 672.695313 942.707031 672.421875 941.789063 671 940 M 861 951 C 855.957031 950.421875 855.300781 945.390625 851.675781 942.476563 C 850.207031 941.300781 845.289063 940.171875 845.921875 943.683594 C 846.722656 948.160156 858.269531 959.789063 861 951 M 650.316406 942.046875 C 646.671875 944.378906 649.878906 950.074219 653.6875 948 C 657.722656 945.621094 654.464844 939.398438 650.316406 942.046875 M 963 970 C 957.816406 966.757813 933.847656 950.335938 944.742188 942.042969 C 947.617188 940 952.386719 943 955 944.246094 C 968.203125 950.785156 965.917969 957.269531 963 970 M 662.644531 947.066406 C 660.453125 948.691406 663.402344 951.378906 665.355469 950 C 667.546875 948.308594 664.597656 945.621094 662.644531 947.066406 M 837 947 C 834.796875 947.59375 833.917969 951.511719 837 951 C 840 950.390625 840.6875 945.785156 837 947 M 923 952 C 919.414063 941.792969 909.96875 951.683594 923 952 M 803 953 C 804.414063 952.527344 804.8125 952.1875 806 951 C 806.726563 954.144531 807.691406 957.050781 809 960 C 812.511719 951.554688 801.632813 943.652344 803 953 M 863.65625 948.117188 C 861 949.816406 865.179688 953.203125 867.253906 951.253906 C 869.316406 949.308594 865.511719 947 863.65625 948.117188 M 601 948 L 600 952 L 601 952 L 602 950 C 603.855469 952.226563 604.894531 950.054688 606 948 C 604 948.464844 603.59375 948.703125 602 950 C 602 948.148438 602.300781 948.648438 601 948 M 696 956 L 695 956 L 691 961 C 691.210938 957 692.480469 953.726563 694 950 C 694.984375 951.476563 695 951.203125 695 953 C 700 949.265625 692.921875 947.542969 689.742188 952.109375 C 684.550781 959.5625 693.949219 967.179688 696 956 M 792 948 C 793.351563 952 795 953.648438 799 955 C 797.347656 951.53125 795.394531 949.777344 792 948 M 612 950 L 612 951 C 614 952.042969 615.699219 952.601563 618 953 L 618 954 L 613 954 C 616.234375 959 624.421875 956.667969 628 953 C 622.976563 951.398438 617.1875 948.734375 612 950 M 818.5625 950.171875 C 816.574219 951.472656 818.242188 955.261719 820.4375 953.828125 C 822.425781 952.527344 820.757813 948.738281 818.5625 950.171875 M 676 953 L 685 955 C 682.789063 950.625 679.640625 949.34375 676 953 M 701 954 C 710 954.078125 706 948 701 954 M 824 955 C 826.421875 953.617188 827 952.636719 828 950 C 825 951 824.496094 952 824 955 M 899 962 C 898.375 959.699219 894.394531 948.441406 890.65625 951.746094 C 886.59375 955.339844 896.40625 961.246094 899 962 M 902 950 C 902.226563 954.65625 902.992188 958.363281 902 963 C 909.3125 960.367188 907.863281 953.605469 902 950 M 637 957 C 640.722656 956 643.414063 955 646 952 C 641.167969 951.007813 638.414063 952.121094 637 957 M 670 956 C 672.421875 954.617188 673 953.636719 674 951 C 671.453125 952.371094 670.8125 953.21875 670 956 M 599 958 C 597.421875 957.316406 597.222656 957.195313 596 956 L 600 956 C 593.183594 944.460938 589.847656 967 599 958 M 706 952 L 705 953 L 706 952 M 880 957 C 890 956.03125 882.878906 949.179688 880 957 M 642 953 L 641 954 L 642 953 M 801 954 C 801.890625 958.390625 803.648438 960.746094 808 962 C 806 958.683594 804 956.277344 801 954 M 893 954 L 892 955 L 893 954 M 601 962 C 609.503906 965 608.53125 953.359375 604.964844 956.644531 C 603.410156 958.074219 602.523438 960.421875 601 962 M 699 955 C 697.777344 957.300781 696.839844 959.53125 696 962 C 698.941406 960.285156 700 958.335938 699 955 M 714 956 C 708.914063 955.160156 710.3125 959.359375 714 956 M 788 956 C 792.289063 960.386719 793.882813 954.59375 788 956 M 871 958 L 876 959 C 875.316406 955.277344 873 955 871 958 M 877 956 C 877.40625 958.09375 877.21875 958.019531 879 959 C 878.316406 957.421875 878.195313 957.222656 877 956 M 656 958.34375 C 653.621094 958.398438 653.523438 962.378906 656 962.363281 C 658.722656 962.351563 658.679688 958.289063 656 958.34375 M 676 960 C 680.195313 965 684 962.472656 686 957 C 682.636719 958.121094 679.519531 959.453125 676 960 M 830.730469 958.066406 C 829 959.535156 831.722656 961.71875 833.269531 960.308594 C 834.988281 958.738281 832.253906 956.769531 830.730469 958.066406 M 668 958 C 668.859375 960 669.632813 961.367188 671 963 C 671 960.039063 670.605469 959.4375 668 958 M 819 965 C 817.539063 955 808.214844 961.71875 819 965 M 666 959 C 660.605469 962 664.792969 966.367188 666 959 M 841.742188 960.042969 C 839.421875 962 841.820313 965.71875 844.410156 964 C 847 962.035156 844.449219 957.8125 841.742188 960.042969 M 564 986 C 555.253906 985.265625 555.375 999.113281 548.222656 998.078125 C 544.734375 997.574219 543.449219 990.679688 542.398438 988 C 538 977 540.953125 973.191406 550 966.347656 C 552 964.773438 555.628906 961 558.570313 962.257813 C 562 963.78125 562.371094 971.777344 563 975 C 563.71875 978.695313 563.988281 982.242188 564 986 M 820 965 C 825.859375 964.019531 822 959.621094 820 965 M 844 961 L 843 962 L 844 961 M 943.226563 962.253906 C 955.730469 961.226563 962.234375 977.644531 958.910156 987 C 958 989.390625 955.824219 997.792969 952.621094 997.792969 C 949.523438 997.792969 947 993.058594 945.335938 991.003906 C 938.675781 983 935.613281 983.1875 938.375 972 C 939 969.316406 939.578125 962.550781 943.226563 962.253906 M 611 971 C 612.679688 970.347656 614.371094 969.714844 616 969 C 626.445313 964.351563 614.390625 959.628906 611 971 M 630.941406 962.707031 C 626.71875 963.699219 621.90625 967.472656 619.492188 971 C 617.511719 974 619 977.054688 622.855469 976.09375 C 624.847656 975.589844 639.390625 960.71875 630.941406 962.707031 M 879 971 L 878 971 C 877.472656 970.058594 875.679688 966.589844 874 968.75 C 871.972656 971.710938 877 975.683594 879.773438 975.453125 C 883.324219 975.148438 881.808594 970.550781 883.6875 968.644531 C 885.769531 966.527344 890.367188 968 893 968 C 891.863281 974.597656 899 974 897.824219 971 C 894.28125 963.011719 877.988281 958.355469 879 971 M 984 962 C 990.457031 971.089844 1002 986 1012 991 C 1007.757813 981 993.824219 966.582031 984 962 M 515 963 C 512.226563 965.125 510 967.164063 508 970 C 511.265625 968.472656 514 966.609375 515 963 M 866.691406 964.0625 C 865 965.46875 867.539063 967.609375 868.933594 966.167969 C 870.347656 964.707031 868 962.753906 866.691406 964.0625 M 633 964 C 632.230469 965.3125 632.3125 965.230469 631 966 C 631.546875 964.363281 631.363281 964.546875 633 964 M 648.589844 965.082031 C 645.824219 967.019531 648.621094 971.636719 651.398438 969.152344 C 653.65625 967.132813 651.25 963.21875 648.589844 965.082031 M 672 964 C 670.328125 966.382813 669.859375 967.160156 670 970 C 672 968 672.910156 966.8125 672 964 M 850.300781 965.339844 C 847.871094 966.292969 849.285156 970.121094 851.773438 969.25 C 854.304688 968.359375 852.75 964.382813 850.300781 965.339844 M 600 965 C 603.753906 977.523438 614.597656 967.605469 600 965 M 666 965 L 666 968 L 668 968 L 668 965 L 666 965 M 793 966 C 794.476563 969.179688 795.699219 970.753906 799 972 C 797.960938 968.410156 796.589844 967.039063 793 966 M 828 967.027344 C 826.917969 968.367188 829.714844 970.195313 830.84375 969 C 832 967.632813 829.285156 965.804688 828 967.027344 M 693 968 C 694.210938 971 695.261719 972.375 698 974 C 696.824219 971.035156 695.796875 969.535156 693 968 M 805 969 C 806 970.457031 806.542969 971 808 972 C 808 969.164063 807.804688 968.683594 805 969 M 920 968 C 921.601563 970.363281 923.308594 971.039063 926 972 C 924.882813 968.808594 923.285156 968.375 920 968 M 682 970.175781 C 678.199219 970.71875 680.261719 975.371094 683.851563 974.507813 C 687.511719 973.628906 684.996094 969.78125 682 970.175781 M 701 969 L 701 971 L 705 971 L 705 969 L 701 969 M 815.621094 971.027344 C 812.507813 973.507813 816.898438 976.722656 819.667969 975 C 823.554688 972.480469 818.589844 968.664063 815.621094 971.027344 M 506 971 C 500.664063 976.304688 494.5 981.246094 491 988 C 496.445313 985.148438 504.546875 977.023438 506 971 M 723 972 C 723.839844 974.628906 724.371094 975.160156 727 976 C 725.847656 973.75 725.25 973.152344 723 972 M 776.210938 973.300781 C 774.722656 974 775 976.234375 776.789063 975.558594 C 778.289063 975 777.914063 972.609375 776.210938 973.300781 M 819 972 L 818 973 L 819 972 M 593 980 C 596.941406 979.195313 598.84375 978 600 974 C 596.835938 975.480469 595 977.167969 593 980 M 901 974 C 902.4375 976.605469 903 977.082031 906 977 C 904.28125 975.160156 903.433594 974.652344 901 974 M 687 975 C 687 979.484375 690.257813 986.539063 694 980 L 690 981 C 689.777344 978 689.546875 976.636719 687 975 M 809.214844 977.171875 C 806.726563 978.511719 807.613281 983.132813 810.609375 981.59375 C 813 980.320313 812 975.609375 809.214844 977.171875 M 591 978 L 592 979 L 591 978 M 641 982 C 653 981.738281 645.582031 975.4375 641 982 M 723 984 C 720.410156 977 715.28125 982.390625 723 984 M 780.34375 980.15625 C 778.671875 981.210938 779.511719 984.085938 781.449219 983 C 783 982 782.253906 979 780.34375 980.15625 M 849 980 L 849 981 L 858 982 C 855 979.289063 852.792969 979 849 980 M 840 981 C 840.621094 988.085938 843.277344 991.027344 850 993 C 847.949219 987.351563 845.9375 983 840 981 M 871.589844 982.339844 C 869.558594 983.324219 871.421875 987.148438 873.484375 986.25 C 875.59375 985.332031 873.605469 981.363281 871.589844 982.339844 M 627 987 C 630.191406 986.066406 631.386719 985 633 982 C 629.542969 982.71875 628 983.597656 627 987 M 656 988 C 658 986.375 658.894531 985.355469 660 983 C 657.269531 983.421875 649.1875 987.226563 653.601563 991 C 656.488281 993.386719 657.441406 990.160156 656 988 M 937 986 C 943.246094 992.105469 950 997.816406 951 1007 C 945.449219 1003.089844 934.898438 993.660156 937 986 M 564 987 C 561.511719 994.175781 556.738281 1002.195313 550 1006 C 551.488281 998.523438 558.214844 991.664063 564 987 M 717 987 L 717 992 C 719.375 990.21875 719.375 988.78125 717 987 M 862 997 C 870.898438 994 873.828125 1000.667969 877 1008 C 882.394531 1020.476563 888.898438 1032.171875 890 1046 C 886.878906 1043 884 1040.414063 880 1039 C 882.75 1045 892 1053.191406 893 1042 L 894 1042 C 894.746094 1047 896.640625 1051.570313 899 1056 L 900 1056 C 897.652344 1038.59375 890.675781 1018.246094 882 1003 C 896.582031 1002.523438 880.582031 990.050781 881 1004 C 881.179688 1006.019531 881.632813 1008.015625 882 1010 C 878.21875 1003.519531 862.1875 974.808594 862 997 M 619 1004 C 618.238281 1001.449219 615.46875 994.199219 611.617188 997.648438 C 608 1001 616.804688 1005.496094 615.902344 1010.003906 C 612.988281 1024.515625 603.230469 1037 602 1052 L 603 1052 C 608.515625 1039.554688 614.246094 1025.027344 618 1012 L 619 1012 C 615 1026.507813 608.960938 1040.492188 605 1055 C 610.675781 1051.820313 626.394531 1035.105469 611 1044 C 614.378906 1029.398438 621.203125 1014.609375 626.742188 1001.042969 C 628.265625 997.308594 639.507813 994.480469 636.914063 990.316406 C 633 984.050781 621.480469 1001.40625 619 1004 M 702.691406 989.117188 C 701 990.207031 703.644531 992.269531 704.84375 991 C 705.964844 989.757813 703.808594 988.351563 702.691406 989.117188 M 781 988 C 781.675781 990.296875 781.964844 990.773438 784 992 C 783.789063 989.261719 783.699219 988.578125 781 988 M 795.691406 989.027344 C 794.3125 990.179688 796 991.660156 797.402344 991 C 799.191406 989.8125 797.171875 987.789063 795.691406 989.027344 M 988 1073 C 983.5625 1067.066406 983 1059 980.5625 1052 C 975.183594 1037.191406 962.324219 1025.046875 967.667969 1009 C 968.789063 1005.632813 971.589844 990.566406 975.390625 990 C 980 989.128906 987.65625 1002.714844 990 1006 C 994.953125 1013 1002.515625 1021.207031 1003.632813 1030 C 1005.234375 1042.644531 992.773438 1061.515625 988 1073 M 677 990 L 678 994 L 679 994 L 680 990 L 677 990 M 819 990 C 820.449219 991.609375 821 992.0625 823 993 C 821.773438 991 821.296875 990.675781 819 990 M 596 995 C 589 988.507813 585.421875 998.09375 596 995 M 569 994 C 569 1002.480469 569.257813 1010.09375 565.6875 1018 C 564.863281 1019.824219 563.257813 1024.792969 560.714844 1024.792969 C 556.761719 1024.792969 556 1017.691406 556 1015 C 555.878906 1006.417969 561.234375 997.632813 569 994 M 805.316406 995.085938 C 802 997.101563 805.371094 1002 808.398438 1000 C 811.269531 998 808.476563 993.148438 805.316406 995.085938 M 691.660156 996.042969 C 688.988281 998.222656 693.21875 1001.394531 695.628906 1000 C 699 998 694.285156 994 691.660156 996.042969 M 599 996 C 599.316406 999 599.621094 1000.335938 602 1002 C 601.578125 999.15625 601 998 599 996 M 900.222656 997.324219 C 898.261719 998.171875 899.597656 1001.0625 901.402344 1000 C 902.769531 999 901.890625 996.605469 900.222656 997.324219 M 941 1027 C 935 1022.304688 931.292969 1013.5 930.304688 1006 C 929.980469 1003.554688 929.714844 997.492188 933.1875 997 C 936 996.4375 938.625 1001.039063 939.972656 1003 C 945.945313 1011.703125 945.386719 1017.769531 941 1027 M 666 997 C 656 999.015625 660.867188 1009.203125 666 997 M 673.300781 998.175781 C 670 998.667969 672 1003.320313 674.890625 1003 C 678.441406 1002.507813 676.273438 997.722656 673.300781 998.175781 M 705 998.175781 C 701.375 998.714844 703.390625 1004.003906 706.722656 1003.03125 C 709.863281 1002.109375 707.949219 997.761719 705 998.175781 M 794.265625 998 C 791.332031 999 792.894531 1003.140625 795.734375 1002.253906 C 798.65625 1001.339844 797 997.105469 794.265625 998 M 826.949219 998.058594 C 824.46875 998.53125 822.785156 1003.597656 826 1003 C 828.582031 1002.460938 830.417969 997.398438 826.949219 998.058594 M 837.601563 998.175781 C 834.847656 1000 837.636719 1005.820313 840.710938 1004.652344 C 844.402344 1003.253906 840.851563 996.210938 837.601563 998.175781 M 641 1007 C 644.242188 1005.183594 645.421875 1003.683594 646 1000 C 642.757813 1001.699219 641.726563 1003.425781 641 1007 M 859 1008 C 858.6875 998.417969 851.792969 1004.1875 859 1008 M 583 1002 C 583.71875 1015.144531 594.953125 1008.273438 583 1002 M 914.984375 1005.058594 C 912.515625 1005.582031 911.886719 1010.265625 914.90625 1009.25 C 916.871094 1008.589844 917.796875 1004.464844 914.984375 1005.058594 M 896.585938 1009.175781 C 893.613281 1011 896 1017.277344 899.410156 1015 C 901.972656 1013.0625 899.640625 1007.375 896.585938 1009.175781 M 601.84375 1011.257813 C 598 1011.699219 598.953125 1018.03125 602.910156 1017.417969 C 606.898438 1016.800781 605.359375 1011 601.84375 1011.257813 M 883 1010 L 885 1017 L 884 1017 C 883.21875 1014.511719 882.464844 1012.53125 883 1010 M 620 1011 L 619 1012 L 620 1011 M 677.597656 1012.15625 C 676.230469 1013.078125 677 1015.394531 678.777344 1014.675781 C 680.738281 1013.828125 679.402344 1011 677.597656 1012.15625 M 821.601563 1012.117188 C 820.472656 1013.023438 821.863281 1014.808594 822.976563 1014 C 824 1013 822.742188 1011.199219 821.601563 1012.117188 M 627 1025 C 631.742188 1022.28125 635.285156 1017.691406 638 1013 C 630.480469 1013.410156 627.632813 1017.824219 627 1025 M 872 1024 C 871.953125 1008 859 1016.527344 872 1024 M 908.578125 1016.082031 C 906.59375 1017.578125 908.175781 1021.042969 910.582031 1019.675781 C 913.207031 1018.1875 911 1014.21875 908.578125 1016.082031 M 589.730469 1017.042969 C 587.9375 1018.488281 590.816406 1020.472656 592.359375 1019.613281 C 594.570313 1018.375 591.539063 1015.585938 589.730469 1017.042969 M 664 1018 L 663 1024 C 665.546875 1022.363281 665.777344 1021.007813 666 1018 L 664 1018 M 885.667969 1018.667969 C 885.722656 1018.722656 885.777344 1019.777344 885.332031 1019.332031 C 885.277344 1019.277344 885.222656 1018.222656 885.667969 1018.667969 M 686 1042 C 691.90625 1034.351563 702.296875 1032 711 1028.574219 C 736.484375 1019 758.964844 1016.382813 785 1026.191406 C 792.46875 1029.007813 800 1032.09375 807 1036.003906 C 808.550781 1037 813.792969 1038.800781 813.792969 1041 C 813.792969 1043.292969 808.632813 1045 807 1045.546875 C 799.621094 1048.546875 791.839844 1050.183594 784 1051.410156 C 751.496094 1056.488281 716.648438 1053.820313 686 1042 M 835 1019 C 834.863281 1021.667969 835 1022.105469 837 1024 C 836.695313 1021.707031 836.421875 1020.789063 835 1019 M 852 1019 C 852 1022.324219 852.273438 1025 855 1027 C 854.375 1024.011719 853.773438 1021.484375 852 1019 M 646 1020 C 645.351563 1022.710938 645 1025.214844 645 1028 L 646 1028 C 647 1025 647.617188 1022.808594 646 1020 M 887 1021 L 888 1026 L 887 1026 C 886.699219 1024.070313 886.53125 1023 887 1021 M 900 1028 C 901.3125 1027.230469 901.230469 1027.3125 902 1026 L 903 1026 L 903 1030 C 906.578125 1027.296875 902.472656 1024.441406 900 1028 M 598 1026 C 596.207031 1027.636719 595 1029 594 1031 C 596.515625 1029.753906 598 1029 598 1026 M 539 1027 C 537.203125 1041 531.355469 1054.371094 528 1068 C 532.925781 1062.34375 533.984375 1051.125 536.796875 1044 C 537.664063 1041.804688 538.566406 1037.308594 541 1036.347656 C 546.730469 1034.160156 548 1051.046875 547.535156 1054 C 543.4375 1077 538 1098.292969 538 1122 C 532 1117 529.617188 1109 526.574219 1102 C 523.566406 1095.085938 518 1088.433594 516.542969 1081 C 514.269531 1070 522 1056.546875 526.742188 1047 C 530.210938 1039.828125 532.375 1032 539 1027 M 888.667969 1027.667969 C 888.722656 1027.722656 888.777344 1028.777344 888.332031 1028.332031 C 888.277344 1028.277344 888.222656 1027.222656 888.667969 1027.667969 M 964 1122 L 963 1122 C 963 1105.699219 961.757813 1090.054688 958.738281 1074 C 955.792969 1058.324219 950.179688 1049.167969 959 1034 C 966.621094 1042.148438 969 1056.199219 970 1067 L 972 1067 C 970.273438 1053.351563 964.753906 1041.300781 962 1028 C 967.789063 1031.285156 970.390625 1040.195313 973.242188 1046 C 977.796875 1055.261719 984.855469 1069.429688 983.800781 1080 C 982.414063 1094 969.859375 1109.445313 964 1122 M 738 1032 L 738 1033 C 740.6875 1032.582031 741.554688 1032.28125 743 1030 C 741 1030.546875 739.746094 1031.109375 738 1032 M 889.667969 1030.667969 C 889.722656 1030.722656 889.777344 1031.777344 889.332031 1031.332031 C 889.277344 1031.277344 889.222656 1030.222656 889.667969 1030.667969 M 744 1031 C 743.625 1035.527344 743.589844 1038.742188 747 1042 C 746.53125 1038.304688 746 1034.734375 746 1031 L 744 1031 M 754 1044 L 755 1044 C 756.734375 1038.582031 759 1035.671875 762 1031 C 753.484375 1031.03125 752.660156 1036.074219 754 1044 M 891 1033 L 890 1034 L 891 1033 M 728.691406 1035.027344 C 727.3125 1036.179688 729 1037.660156 730.402344 1037 C 732.191406 1035.8125 730.171875 1033.789063 728.691406 1035.027344 M 770 1035.027344 C 768.921875 1036.363281 771.792969 1038.089844 772.675781 1036.488281 C 773.433594 1035.105469 771 1034.027344 770 1035.027344 M 856.601563 1035.15625 C 854.570313 1036.507813 857.296875 1039.570313 858.933594 1038 C 860.328125 1036.535156 858.246094 1034.066406 856.601563 1035.15625 M 642.5625 1036.066406 C 641 1037.226563 641.722656 1040.007813 643.8125 1039 C 646 1037.605469 644.78125 1034.414063 642.5625 1036.066406 M 892 1036 L 891 1037 L 892 1036 M 901 1036 C 901.796875 1041.316406 904 1045.546875 907 1050 L 908 1050 C 906.824219 1045.484375 904.894531 1038.667969 901 1036 M 893 1039 L 892 1040 L 893 1039 M 618.828125 1050.152344 C 617.570313 1051.148438 619 1053.1875 620.324219 1052.140625 C 621.574219 1051.128906 620 1049.132813 618.828125 1050.152344 M 484 1050 C 482.265625 1053.304688 481.328125 1056.277344 481 1060 L 482 1060 C 483.441406 1056.742188 485 1053.5 484 1050 M 880.507813 1051.324219 C 879.253906 1052.023438 880 1054.445313 881.492188 1053.675781 C 882.746094 1053 881.898438 1050.554688 880.507813 1051.324219 M 908 1051 L 909 1055 L 910 1055 C 909.4375 1053.246094 909 1052.457031 908 1051 M 610 1063 C 612 1062.101563 612 1062.125 613 1060 C 610.875 1061 610.898438 1061 610 1063 M 887 1060 L 887 1062 L 890 1062 L 890 1060 L 887 1060 M 480 1061 L 481 1062 L 480 1061 M 528 1071 L 528 1074 L 529 1074 C 528.75 1072.546875 528.683594 1072.246094 528 1071 M 895.667969 1132.667969 C 895.722656 1132.722656 895.777344 1133.777344 895.332031 1133.332031 C 895.277344 1133.277344 895.222656 1132.222656 895.667969 1132.667969 M 605 1134 L 605 1137 L 604 1137 C 604.25 1135.546875 604.316406 1135.246094 605 1134 M 895.667969 1146.667969 C 895.722656 1146.722656 895.777344 1147.777344 895.332031 1147.332031 C 895.277344 1147.277344 895.222656 1146.222656 895.667969 1146.667969 M 604.667969 1148.667969 C 604.722656 1148.722656 604.777344 1149.777344 604.332031 1149.332031 C 604.277344 1149.277344 604.222656 1148.222656 604.667969 1148.667969 M 698 1150 L 698 1153 L 697 1153 C 697.25 1151.546875 697.316406 1151.246094 698 1150 M 899 1152 L 900 1153 L 899 1152 M 539 1156 L 539 1164 L 541 1164 C 540.964844 1160.808594 540.941406 1158.558594 539 1156 M 605.667969 1157.667969 C 605.722656 1157.722656 605.777344 1158.777344 605.332031 1158.332031 C 605.277344 1158.277344 605.222656 1157.222656 605.667969 1157.667969 M 513.332031 1162.667969 C 513.277344 1162.722656 513.222656 1163.777344 513.667969 1163.332031 C 513.722656 1163.277344 513.777344 1162.222656 513.332031 1162.667969 M 514 1165 L 515 1166 L 514 1165 M 986 1165 L 986 1168 L 987 1168 C 986.75 1166.546875 986.683594 1166.25 986 1165 M 514.5 1167.5 C 513.871094 1168.128906 514.871094 1169.128906 515.5 1168.5 C 516 1168 515 1167 514.5 1167.5 M 985 1169 L 985 1172 C 986 1170.328125 986 1170.671875 985 1169 M 515 1170 C 515.769531 1171.3125 515.6875 1171.230469 517 1172 C 516.453125 1170.363281 516.636719 1170.546875 515 1170 M 516 1173 L 517 1174 L 516 1173 M 603 1178 L 602 1179 L 603 1178 M 782 1181 C 785.976563 1197.710938 783.613281 1216.769531 786.273438 1234 C 787 1239.53125 787.195313 1249.621094 792 1253 C 788.78125 1236 786 1218.378906 786 1201 C 786 1195.308594 787 1184.582031 782 1181 M 838 1221 L 838 1224 L 837 1224 C 837.25 1222.546875 837.316406 1222.246094 838 1221 M 749 1305 C 745.972656 1281.171875 747.5 1264.210938 753 1241 C 738.894531 1249.558594 739.3125 1276.085938 742.425781 1290 C 743.535156 1295 744.628906 1302.007813 749 1305 M 755 1307 L 756 1307 C 755.542969 1296.378906 750.445313 1285.695313 752.46875 1275 C 753.945313 1267.175781 760 1261.640625 762 1254 C 741.46875 1263.582031 745.941406 1291.078125 755 1307 M 791 1254 L 792 1255 L 791 1254 M 732 1255 C 728.320313 1261.609375 723.996094 1267.210938 723.175781 1275 C 720.195313 1303.140625 746.878906 1341.699219 770 1355 C 761.671875 1333.023438 741.414063 1316.640625 732.8125 1294 C 730.601563 1288.179688 727.816406 1280.296875 728.558594 1274 C 729.300781 1267.652344 734.605469 1261.394531 732 1255 M 767 1329 C 764.636719 1316.464844 763.441406 1304.671875 765.4375 1292 C 767 1281.828125 771.554688 1272.378906 772 1262 C 767.609375 1265 765.453125 1271.183594 763.695313 1276 C 759 1289 752.703125 1319.628906 767 1329 M 779 1293 C 776.441406 1310.375 762.386719 1340.167969 780 1354 C 778.359375 1333.238281 780.984375 1313.734375 781 1293 L 779 1293 M 889 1299 L 890 1300 L 889 1299 M 790 1326 L 791 1327 L 790 1326 M 788 1328 C 787.46875 1340.351563 785.425781 1351.542969 787 1364 L 789 1364 L 789 1359 L 790 1359 L 790 1363 L 792 1363 C 792 1351.242188 790 1339.796875 790 1328 L 788 1328 M 793 1350 C 793 1353.734375 793.53125 1357.304688 794 1361 L 795 1361 C 795.855469 1357.046875 795.5 1353.25 793 1350 M 812 1358 C 810.199219 1362.808594 809.4375 1368 810 1373 C 810.683594 1371.753906 810.75 1371.453125 811 1370 L 812 1370 C 812 1373.296875 812.714844 1376 814 1379 L 815 1379 C 814.730469 1372.703125 815.253906 1363.433594 812 1358 "/>
</g>
</svg>
