<?xml version="1.0" encoding="UTF-8"?>
<svg xmlns="http://www.w3.org/2000/svg" xmlns:xlink="http://www.w3.org/1999/xlink" width="1500pt" height="1500pt" viewBox="0 0 1500 1500" version="1.1">
<g id="surface1">
<path style=" stroke:none;fill-rule:nonzero;fill:rgb(0%,0%,0%);fill-opacity:1;" d="M 487 908 L 488 908 C 488.335938 924.3125 498.578125 943.316406 496 959 C 493.273438 977.617188 479.785156 995.15625 470.398438 1011 C 450 1045.390625 428.171875 1078.742188 406 1112 C 387.742188 1139.382813 366.925781 1167.621094 358.628906 1200 C 355.425781 1212.511719 353 1226.410156 357 1239 C 363.925781 1231.601563 366.507813 1220.046875 370.78125 1211 C 378.722656 1194.183594 388 1178.070313 397.425781 1162 C 416.90625 1128.429688 438.429688 1096 459 1063 C 468.660156 1047.679688 482.972656 1030.453125 488 1013 L 489 1013 C 479.855469 1044.742188 449.898438 1074.28125 457.519531 1110 C 463.246094 1137 492.335938 1157.453125 516 1167.574219 C 528 1172.761719 544.320313 1175.332031 553.199219 1163 C 574 1134 549.339844 1091.230469 538 1064 L 539 1064 C 539.765625 1065.714844 544.277344 1073.742188 546.304688 1068.664063 C 547.910156 1064.632813 543.207031 1056.003906 541.976563 1052 C 537.492188 1037.421875 533.707031 1022.636719 529.425781 1008 C 519.964844 975.65625 507.230469 942.789063 504 909 C 503.179688 899.425781 502.96875 890.578125 503.925781 881 C 504.191406 878.328125 505.28125 871.148438 509.597656 874.546875 C 513.378906 877.527344 513.449219 884.671875 514.261719 889 C 516.335938 900.097656 519.605469 911.0625 522.375 922 C 527.3125 941.503906 536.710938 960.039063 539.570313 980 C 541.355469 992.464844 538.488281 1005.398438 539 1018 C 540.222656 1045.039063 550.3125 1074.253906 576 1086.742188 C 582.621094 1090 589.703125 1091.816406 597 1092.714844 C 606.242188 1094 615.175781 1091.484375 624 1089 C 622 1091.8125 620.3125 1094.597656 619.527344 1098 C 614.585938 1119.429688 648 1122.824219 658.234375 1109 C 661.542969 1104.523438 664.566406 1098.507813 661.820313 1093 C 660.496094 1090.34375 658.1875 1088.128906 655.996094 1086.183594 C 652.417969 1083.015625 648.609375 1081.105469 644 1080 L 644 1079 C 654.714844 1076 664.476563 1068 674 1062.199219 C 678 1059.714844 683.871094 1055.445313 689 1057.101563 C 708.925781 1063.535156 711.367188 1095.472656 708.386719 1112 C 702.359375 1145.429688 682.96875 1174.410156 674 1207 C 666.726563 1234.453125 669.921875 1260.195313 670 1288 L 672 1288 C 672 1265.039063 677.585938 1241.40625 688.320313 1221 C 696 1206.207031 708.246094 1194.761719 717.480469 1181 C 733.644531 1157 744 1127.089844 744 1098 C 747 1100.46875 749.910156 1103 752.320313 1106.003906 C 767.828125 1126 738.652344 1132.128906 740.1875 1151 C 741.328125 1165.03125 750.285156 1177.746094 754.277344 1191 C 762.203125 1217.308594 767.539063 1245.761719 771 1273 L 773 1273 C 773 1238.242188 775 1203.679688 775.984375 1169 C 776.507813 1147.613281 774.710938 1125.179688 777.730469 1104 C 779.691406 1090.230469 782.878906 1076.789063 792.300781 1066.015625 C 795.472656 1062.386719 800.6875 1057 806 1057.5 C 817.355469 1058.71875 830.964844 1070.820313 841 1076.109375 C 843.929688 1077.652344 850.691406 1079.15625 851.230469 1083.105469 C 851.6875 1086.457031 847.382813 1090 846.265625 1093 C 843.945313 1099.320313 844.757813 1107 847.519531 1113 C 851.238281 1121.125 859.191406 1126.6875 864.226563 1134 C 870 1142.558594 871 1154 869.699219 1164 C 867.835938 1177 859.730469 1188.054688 853.199219 1199 C 851.851563 1201.265625 845.796875 1209.277344 848 1212 C 849.714844 1213.730469 855.929688 1212 858 1211.71875 C 868.734375 1210.273438 879.324219 1207.714844 889 1202.742188 C 918.671875 1187.484375 912.183594 1137.320313 916 1109 C 917.179688 1101.464844 917.648438 1092.785156 921.351563 1086 C 928 1073.558594 939 1066.136719 943.996094 1052 C 951 1031.246094 951.265625 1009.386719 955.261719 988 C 957.585938 975.554688 962.671875 964 966.667969 952 C 973.234375 932.367188 978.898438 912.390625 982.574219 892 C 982.992188 889.699219 985 871.429688 990 876.464844 C 996.507813 883.160156 997 900.304688 997 909 C 996.953125 939.746094 984 969.628906 976.628906 999 C 974 1009.039063 972 1019.617188 972 1030 C 971.96875 1033.332031 971.460938 1038.75 974 1041.339844 C 978.472656 1045.667969 981.488281 1032.273438 982 1030 C 986.863281 1013.605469 994 997.585938 998 981 L 999 981 C 999 1039.425781 934.625 1087.246094 951 1148 C 957.324219 1170.65625 983 1178.824219 1003 1168.625 C 1016.757813 1161.605469 1026.863281 1148.070313 1032.546875 1134 C 1049.871094 1091.105469 1023.402344 1051.644531 1014 1011 L 1015 1011 C 1019.898438 1028.003906 1033.210938 1043.554688 1041.695313 1059 C 1062.96875 1097.730469 1085.980469 1135.457031 1105.753906 1175 C 1112.652344 1188.796875 1119.859375 1202.652344 1125.550781 1217 C 1128.171875 1223.609375 1129.460938 1232.140625 1136 1236 C 1136 1222.242188 1138.375 1208.59375 1135 1195 C 1130 1174.308594 1116.304688 1156.433594 1106.308594 1138 C 1085.839844 1100.246094 1063.734375 1063.371094 1042.574219 1026 C 1033.769531 1010.449219 1024.789063 995 1016.753906 979 C 1012.855469 971.261719 1007.554688 963.777344 1006.300781 955 C 1004.859375 945 1010.1875 935 1011 925 C 1023.847656 935.613281 1031.210938 950.488281 1046 959.769531 C 1052.996094 964.160156 1060.8125 967.273438 1069 968.5625 C 1075.3125 969.554688 1082.640625 969.464844 1089 968.828125 C 1137.207031 964.007813 1138.464844 897 1133.574219 861 C 1132 849.46875 1128.890625 838.378906 1126.601563 827 C 1125.496094 821.507813 1123.8125 816 1127.433594 811.003906 C 1133.234375 803.113281 1143.253906 799 1151 793.359375 C 1167.191406 781.613281 1183.351563 769.578125 1198 756 C 1231 725 1246 680 1262.398438 639 C 1274.902344 607.742188 1286.890625 577.511719 1270.753906 545 C 1264.554688 532.515625 1256.667969 521.125 1249.859375 509 C 1244.246094 499 1239.660156 488.003906 1230.996094 480.175781 C 1215 465.8125 1193 459.46875 1178 444 C 1166.613281 432.136719 1162.394531 415.433594 1151.699219 403 C 1138.257813 387.371094 1117.570313 379 1102 365.570313 C 1086.78125 352.53125 1076.421875 334.730469 1059 324.070313 C 1041.976563 313.648438 1020 321.113281 1004 311.523438 C 978 296.046875 957 272.226563 931 256.449219 C 890.226563 232 837.707031 211.730469 790 207.171875 C 774.488281 205.6875 758.5625 208 743 208 C 727.171875 208 711.839844 206.148438 696 208.28125 C 645.699219 215.058594 594.953125 233.78125 553 262.34375 C 530.433594 277.707031 511.328125 300.5625 487 313.085938 C 475.984375 318.753906 461.773438 315.246094 450 321.488281 C 430.273438 332 418 351.203125 402 365.828125 C 387.992188 378.519531 370.347656 386.660156 357 400.015625 C 343.417969 413.632813 340.695313 434 326 446.710938 C 310.554688 460.210938 290.699219 467.242188 275 480.324219 C 262.964844 490.355469 256 503.625 248.574219 517 C 234.617188 541.757813 222 562.589844 224 592 C 225.386719 610.53125 234 629 240.574219 646 C 255.613281 686 271.875 727.550781 303 758 C 317.613281 772.109375 334.414063 784.148438 351 796 C 357.292969 800.296875 368.78125 804.355469 371.800781 812 C 373.261719 815.707031 370.78125 820.457031 369.71875 824 C 367 833 364.792969 842 363 851 C 356.96875 881.652344 352.855469 923.734375 373.519531 950 C 407.195313 992.808594 479.875 955.53125 487 908 M 1026 332 C 1058.328125 332.667969 1076.714844 363.183594 1098 383 C 1111 395.019531 1128.671875 401.800781 1140.710938 415.039063 C 1152.40625 428 1156.902344 446.011719 1170 457.710938 C 1185 471.214844 1204.65625 478.492188 1219.910156 491.804688 C 1227.40625 498.34375 1230.644531 507.660156 1235.605469 516 C 1243.960938 530.046875 1255.90625 544 1260.214844 560 C 1262.902344 570.011719 1251.828125 572 1246.789063 578.175781 C 1241.539063 584.75 1241 595 1241 603 C 1250.878906 596.042969 1255 585.460938 1263 577 C 1268.328125 595.03125 1254.59375 615.042969 1248 631 C 1229 677 1215 719.746094 1176 753.269531 C 1162.558594 764.796875 1147.839844 774.464844 1134 785.449219 C 1130.851563 788 1123 796.257813 1118.996094 791.640625 C 1115.183594 787.386719 1114.941406 779.535156 1119 775.679688 C 1124.921875 770.390625 1132.757813 767.476563 1139 762.761719 C 1153.683594 751.664063 1166.605469 738.804688 1178.714844 725 C 1193.621094 708.007813 1209 691.042969 1218 670 C 1232.265625 637 1229.476563 594 1227 559 C 1226.332031 548 1227.691406 537 1228 526 C 1228 521.828125 1229.882813 517 1227.820313 513.042969 C 1224 506.023438 1204.519531 500.007813 1197 498.164063 C 1194 497.445313 1191.777344 498.359375 1190.316406 501.0625 C 1186 508.804688 1188 521.40625 1186.871094 530 C 1182.941406 558.269531 1184.5 588 1168.679688 613 C 1162.339844 623.0625 1155.300781 633.472656 1145 640 C 1140.839844 642.453125 1133.597656 645 1129.742188 640.425781 C 1127 637.269531 1128.753906 633.164063 1130.441406 630 C 1134.941406 621.558594 1137 614.597656 1137 605 C 1137 572.527344 1130.746094 536 1138.234375 504 C 1140.253906 495.425781 1144 487.484375 1150.175781 481.089844 C 1154 477.046875 1162.242188 473.390625 1162.574219 467 C 1162.820313 462.164063 1157.25 458.335938 1154 455.589844 C 1145.984375 448.820313 1126.664063 426.441406 1115 431.011719 C 1101.261719 436.398438 1103.894531 452.617188 1105.753906 464 C 1110.871094 495.316406 1116.246094 526.566406 1120.574219 558 C 1123.96875 582.617188 1126.226563 609.632813 1120 634 C 1117.320313 645.085938 1111 654.433594 1107 665 C 1100.828125 681.425781 1097.445313 700.441406 1097 718 C 1096.300781 747.105469 1098.734375 775.441406 1104.449219 804 C 1111.1875 837.675781 1121.304688 870.222656 1118.910156 905 C 1116.910156 934.066406 1096 962.714844 1064 950.769531 C 1045.207031 943.777344 1032.761719 927.636719 1022.800781 911 C 1001 874.671875 992.210938 828 997.285156 786 C 1003.949219 731.027344 1033.871094 682.058594 1047.847656 629 C 1061.289063 578 1059.320313 526.085938 1057 474 C 1055.402344 436.660156 1055.566406 391.523438 1030.535156 361 C 1025 354.304688 1018 348.597656 1010 345.46875 C 1004.265625 343.261719 998 343.214844 993 339.441406 C 974 325.464844 960.328125 298.796875 935 295 C 947.984375 312 957 333.40625 962.238281 354 C 964 361.511719 963 369.808594 966.214844 377 C 970.5625 386.828125 981.828125 392.820313 988.535156 401 C 998.496094 413.148438 1004.914063 428.148438 1009.65625 443 C 1018.679688 471.265625 1018 501.691406 1018 531 C 1018 582 1014.636719 632.808594 996.945313 681 C 988.261719 704.660156 974.773438 726 963 748 L 962 748 C 962.230469 720.355469 982.507813 699.035156 993 675 C 1006.304688 645.226563 1010.378906 610.339844 1008.960938 578 C 1008.355469 564.210938 1007.277344 549.550781 1004.550781 536 C 1004 533.585938 1002.59375 523.695313 998.558594 524.632813 C 995.433594 525.355469 997.929688 534.039063 998.246094 536 C 1000.324219 549 1000 562.015625 1000 575 C 1000 606.722656 998.28125 639 987.304688 669 C 980 688.824219 968 707 959 726 L 958 726 C 956.675781 717 952.371094 708.328125 954.390625 699 C 957.882813 683 971.753906 668.417969 976.574219 652 C 985.234375 622.515625 987.589844 589.546875 990 559 L 989 559 C 981 589.832031 979.203125 622.464844 966.574219 652 C 956 676.601563 933 698 933 726 C 915 712.785156 906.511719 685.765625 901.882813 665 C 900 657.125 900 648.449219 897 641 C 895.421875 665.492188 901.625 693.433594 913.308594 715 C 920.632813 728.519531 931.890625 739.824219 938 754 L 939 754 C 939.636719 739.191406 944 725 944 710 C 954.589844 717.253906 951 745.75 950.996094 757 C 950.410156 806.277344 925.226563 852.546875 924 902 C 922.886719 948 944.210938 993.148438 932 1039 C 926.90625 1058.753906 913.429688 1082.367188 890 1081.742188 C 871.925781 1081.257813 856 1070.484375 841 1062 C 808.617188 1043.367188 773 1018.03125 734 1023.289063 C 697.5 1028.207031 666 1052.648438 635 1070.421875 C 618.910156 1079.625 597 1088.171875 580 1076.199219 C 557.914063 1060.742188 554.996094 1030.570313 555 1006 C 555 963.222656 570.527344 922.136719 564.71875 879 C 558.910156 836 539 795 539 751 C 538.996094 738.824219 535.238281 723.074219 542 712 C 547 725.578125 546 739.28125 556 751 C 558.320313 732.730469 568.894531 719.386719 576 703 C 585.441406 682 591.9375 656.082031 592 633 L 591 633 C 585.3125 656.082031 581 678.582031 570.242188 700 C 566.304688 707.746094 562 716.753906 555 722 C 544.457031 688.734375 520.402344 662.796875 511 629 C 507 614 504.648438 598.398438 502 583 C 500.945313 576.199219 500.621094 566.308594 496 561 C 496 594.363281 501.613281 629.707031 513.425781 661 C 522.5625 685.207031 541.996094 700 530 727 C 511.210938 705.378906 502.660156 674.148438 495.871094 647 C 493.296875 636.691406 492.566406 617.019531 486 609 C 491.398438 631.675781 492.867188 654.535156 500.355469 677 C 508.480469 701.375 522.605469 724.347656 529 749 L 528 749 C 481.871094 679.066406 466.230469 602 471.910156 519 C 473.546875 495.136719 472.847656 471.195313 480 448 C 485.367188 430.746094 492.914063 414.0625 504.464844 400 C 510.867188 392.203125 520.863281 387 525.910156 378 C 530.683594 369.605469 530.601563 356.417969 534 347 C 540.648438 329.011719 551 312 560 295 C 535.765625 302 520.542969 323.378906 502 338.671875 C 494.597656 344.773438 485.832031 347.570313 479.289063 355.003906 C 451.625 386.433594 441.6875 430.554688 436.84375 471 C 433.351563 500.183594 429.75 529.535156 431 559 C 432.71875 597.324219 441.671875 635.464844 453 672 C 463.421875 705.449219 481.621094 737.21875 490 771 C 496 794.699219 495 821.015625 491.574219 845 C 486.570313 878.78125 472.71875 918.527344 445 940.332031 C 432.195313 950.402344 411.523438 958.644531 396 949.636719 C 385 943.3125 379.992188 930.710938 377.234375 919 C 371 893 376.75 865.542969 382.425781 840 C 390 805.253906 395.785156 771.414063 399.171875 736 C 400.703125 720 402.542969 703.085938 400.425781 687 C 399.195313 677.65625 398.347656 669 394.933594 660 C 391.378906 650.707031 385.398438 642.324219 385 632 C 383.957031 587.425781 400 543.316406 401 499 C 404.546875 507.53125 401 524.429688 401 534 C 401 554.347656 403.863281 575 407.609375 595 C 417.847656 649.640625 443 699.742188 465.695313 750 C 473.636719 767.621094 481.746094 786.023438 485.789063 805 C 486.234375 807.089844 487.792969 822.667969 491.503906 820.792969 C 494.6875 819.1875 492.625 810.636719 492.28125 808 C 490.554688 794.707031 487.554688 782 483.859375 769 C 468.34375 715 441 664.398438 429.800781 609 C 417.875 550.300781 417 489.332031 431.628906 431 C 438 405.34375 446.859375 379.679688 462.429688 358 C 471.695313 345.097656 485.167969 337 497 326.71875 C 523.316406 304 549.867188 281.539063 580 264 C 617 242.066406 665 227.246094 708 223.171875 C 720.25 222.003906 732.71875 224 745 224 C 759.277344 224 773.734375 221.8125 788 223.171875 C 826.777344 227 865 239.328125 900 256.257813 C 929.804688 270.6875 956.996094 292.390625 982 314 C 988.324219 319.304688 995 326 1003 329.019531 C 1009.390625 331.597656 1017.277344 329.289063 1021.960938 335.109375 C 1032.269531 348 1037.863281 365.070313 1044.28125 380 C 1069.746094 439.234375 1073.621094 503.644531 1066.835938 567 C 1062.355469 608.796875 1050.480469 649.820313 1035.574219 689 C 1024.703125 717.585938 1010.640625 744.730469 1004.804688 775 C 1001.378906 792.757813 1001.175781 810.082031 1001.960938 828 C 1002.210938 833.714844 1000.597656 844.070313 1005.324219 848.417969 C 1008.683594 851.503906 1009.730469 845.144531 1009.90625 843 C 1010.617188 834.417969 1009.902344 825.609375 1010 817 C 1010.53125 772.5625 1030 732.773438 1047.28125 693 C 1083.238281 609.605469 1096.210938 507.644531 1068.972656 420 C 1063.214844 401.460938 1056 383 1046.574219 366 C 1040.203125 354.71875 1030.453125 344.164063 1026 332 M 737 312 L 736 312 C 735.660156 295.644531 726.851563 273.023438 708 272.105469 C 697.632813 271.597656 687 277.175781 678 281.304688 C 635 300.621094 598.21875 318.671875 571.332031 359 C 562.9375 371.59375 555.515625 385 544.988281 396 C 541.867188 399.265625 536.296875 404.765625 543 407 L 543 408 C 524.277344 409.636719 508 425.078125 499.785156 441 C 485 469.230469 487 505.179688 484.910156 536 C 484 549.289063 480.230469 568.25 484 581 L 485 581 C 485 550.75 488 520.691406 494 491 C 498.824219 467 506.734375 443.296875 527 427.679688 C 544.238281 414.398438 569.445313 413.042969 589 403.746094 C 595.410156 400.695313 604.414063 398.539063 608 392 C 586.214844 396.492188 565 404.019531 543 407 L 543 406 C 554.378906 402.132813 560.765625 387.671875 566.601563 378 C 577 360.519531 589 343.394531 605 330.320313 C 618.191406 319.441406 633.289063 315.222656 649 309.566406 C 663.792969 304.238281 676.644531 295.722656 691 289.578125 C 696.652344 287.160156 703.675781 283.460938 710 285.351563 C 724.503906 289.691406 726.546875 319.558594 727.949219 332 C 733.304688 379.539063 727.3125 428.679688 743 475 C 745.195313 469.714844 742.398438 463.398438 741.425781 458 C 739.472656 447.195313 738.394531 436 738 425 C 737.363281 403.742188 742 382.222656 742.960938 361 C 743.804688 341.703125 739.589844 322.0625 743.886719 303 C 747 289 751.375 275.292969 753 261 C 753.574219 257.632813 756.757813 249.59375 753.988281 246.753906 C 749.949219 242.613281 746.972656 258.144531 746.601563 260 C 743 277.101563 737 294.433594 737 312 M 790 283 C 821.9375 282.339844 859.808594 297.828125 881.828125 322.003906 C 900 342 912.929688 369.527344 926 393 C 909.390625 386 897.175781 371.394531 878 371 C 882.640625 376.023438 889.496094 378.171875 895 382.15625 C 903.820313 388.550781 911.535156 396.644531 921 402.125 C 931.253906 408.0625 942.851563 411.28125 953 417.464844 C 974.65625 430.65625 986.214844 452.5625 990.246094 477 C 991.78125 486.308594 993 495.664063 994.421875 505 C 994.785156 507.511719 994.453125 513.417969 997.285156 514.652344 C 1001.878906 516.660156 998.265625 498 998 496 C 995.371094 477 993.738281 457 985.6875 439 C 975.253906 416 951.347656 410.460938 935.285156 393 C 914.941406 370.792969 906.4375 341.050781 887.535156 318 C 878.96875 307.550781 867.171875 300.636719 856 293.34375 C 842.476563 284.515625 827 276.449219 811 273.613281 C 802.285156 272.074219 793 273.800781 790 283 M 472 331 C 467 341.546875 453.902344 348.671875 446.664063 358 C 428.949219 380.828125 412.390625 413.738281 410 443 L 409 443 C 407 440 405.371094 436.828125 403 434.003906 C 388 415.609375 376.785156 433.003906 364 445 C 358.632813 450 346.410156 456.410156 346 464.714844 C 345.882813 470.695313 354 475 358 478.300781 C 366.246094 485.371094 373 493.605469 376.644531 504 C 387.886719 537.398438 370.367188 570.757813 368 604 C 367.578125 611.457031 367.457031 620 370 627 C 371.699219 631.164063 375.316406 634.621094 376.257813 639 C 377.601563 645.265625 371.507813 648.789063 366 647.601563 C 351.921875 644.5625 347.859375 621.746094 345.921875 610 C 343.292969 594.097656 345.1875 577.089844 344.996094 561 C 344.847656 548.429688 342.550781 535.554688 343 523 C 343.492188 511.425781 347.878906 493 336.894531 484.652344 C 330.210938 479.574219 322.175781 484.722656 316 488.140625 C 303 495.292969 271.320313 509.1875 276 528 C 279.988281 544 286 559.109375 290 575 C 298.433594 608.234375 304.789063 641.105469 320.246094 672 C 329.414063 690.320313 340.992188 707.445313 353 724 C 359.234375 732.570313 367.945313 740.621094 371 751 C 359.886719 749.019531 350 739.351563 342 732 C 322.898438 714.570313 306 695.152344 296 671 C 291.214844 659.441406 289.839844 639.824219 281 631 C 281 645.644531 279.65625 661.058594 285 675 C 294.921875 700.382813 323.175781 723.203125 342 742 C 350.367188 750.351563 359.535156 758.019531 369 765.105469 C 372.960938 768.070313 379.46875 770.777344 381.972656 775.183594 C 384 779.023438 382.679688 785.113281 381.234375 789 C 378.867188 795.320313 374.332031 793.25 370 790 C 361.371094 783.480469 352.632813 777.128906 344 770.625 C 310.222656 745.183594 284.214844 714.414063 268.449219 675 C 262.90625 661.144531 258.523438 647 253 633 C 245.503906 614.203125 236 594.820313 239.4375 574 C 242.289063 556 253.917969 540.410156 262.988281 525 C 268.792969 515.140625 273.722656 504.164063 282 496.089844 C 300.496094 478.171875 327.839844 471.65625 343.984375 451 C 353.425781 439 357.464844 423.261719 368.175781 412.089844 C 381.863281 397.808594 401 390.164063 414.910156 376 C 432.578125 357.824219 446.386719 337.3125 472 331 M 792 507 L 791 507 C 789.96875 501.210938 787 495.296875 783 491 C 781 509.296875 795.492188 534.230469 802.199219 551 C 815.347656 584 830.578125 615.832031 845.308594 648 C 856.1875 671.757813 869.777344 698.25 870 725 L 872 725 C 876.453125 689.757813 864.796875 662.558594 850.308594 631 C 838.644531 605.59375 826.988281 580.128906 814.742188 555 C 808 541.496094 799.226563 528.570313 795 514 C 793 507 796.894531 500.78125 798.332031 494 C 799.785156 487.136719 799.390625 479 798.910156 472 C 797.941406 458 793 444.316406 794 430 C 796.265625 399 819.492188 374 850 370 C 833.914063 358.824219 805.617188 376 796.441406 389 C 772.546875 423.03125 792 469.167969 792 507 M 624 385 C 630.902344 383.355469 640 383 647 384.761719 C 652 386.070313 656.78125 388.625 661 391.761719 C 688 412 676.664063 440 676 468 C 675.785156 477.085938 673.253906 495.015625 682 501 C 688.324219 468.398438 697.675781 426 681.742188 395 C 673.472656 379 656.304688 372.757813 639 377 C 633.53125 378.207031 626.902344 380 624 385 M 823 424 C 831.277344 418.351563 837.570313 393.472656 852.890625 406.417969 C 856.238281 409.246094 856.226563 421 859.316406 421.355469 C 872.257813 423 887.203125 411.113281 901 411 C 892.882813 402.183594 881.613281 409.335938 872 405.398438 C 866.71875 403.164063 867 395.578125 860.996094 393.148438 C 841 385.273438 823 405.734375 823 424 M 927 393 L 926 394 L 927 393 M 586 420 C 593.789063 420.636719 602 425.667969 609.980469 424.566406 C 615.519531 423.785156 615.546875 417.230469 620 414.675781 C 634.328125 406.582031 643.859375 422.59375 650 433 C 656.347656 422.398438 644.738281 409.480469 635 406.109375 C 620.507813 401.09375 615 412.503906 603 415.46875 C 597.628906 416.785156 589.664063 415.1875 586 420 M 839 475 C 854.375 467.023438 857.964844 451.8125 865.644531 438 C 868 433.46875 872.464844 430.429688 875 426 C 871.328125 426.710938 865.734375 431.546875 862.210938 430 C 855 426.808594 849.632813 414.347656 839 418.617188 C 834.25 420.613281 836.257813 428.125 837 432 C 839.804688 446.601563 840 460.253906 839 475 M 601 432 C 608.246094 445.613281 617.328125 466.152344 632 473 C 632 461 632.226563 449 634.460938 437 C 635 433.347656 637.480469 427.617188 632.851563 425.601563 C 622.773438 421.214844 616.976563 432.257813 609.285156 434.808594 C 606.855469 435.613281 603.304688 432.773438 601 432 M 897 427 L 897 429 C 922 429.519531 948.496094 442.394531 961.933594 464 C 970 477.234375 974 493.644531 980 508 C 983 500.804688 978 491.359375 977 484 C 975.394531 472.664063 974.730469 461 968.53125 451 C 954.402344 428.230469 920.832031 427 897 427 M 504 509 C 513.992188 500.71875 516.488281 483.160156 522.871094 472 C 536 448.800781 562.488281 434.546875 589 434 C 583.726563 427.070313 565.410156 432.53125 558 433.753906 C 545.675781 435.785156 532 439.722656 523.183594 449.089844 C 510.277344 462.75 506.652344 491.027344 504 509 M 718 450.757813 C 710.476563 453.722656 704.324219 480.421875 718 475.753906 C 722.820313 474.109375 730.324219 471.519531 731.679688 466 C 733.347656 459.164063 725.949219 447.707031 718 450.757813 M 869 488 C 866.683594 478.269531 870.777344 470.488281 871 461 C 855.652344 470 854.492188 495 840.960938 506.671875 C 835 511.796875 820.601563 513.515625 817.757813 521.042969 C 812.976563 533.703125 827.628906 550 840 547 C 835 559.046875 834 570.066406 834 583 C 839.265625 581.335938 844.183594 577.332031 850 578.007813 C 853.957031 578.46875 860.726563 585.359375 864.398438 582.292969 C 868.492188 579 868.515625 564.28125 870 559 L 871 559 C 871.261719 571.304688 881.941406 589.398438 893 595 C 893.5625 582 898.375 568.632813 911 563 C 920 558.800781 930.222656 558.664063 939 553.660156 C 953 545.660156 961.867188 529 962 513 C 968.226563 514.753906 974.535156 516.484375 981 517 C 978 510.660156 971.953125 506.523438 967.75 501 C 961.757813 493.128906 956.847656 484.382813 949.714844 477.429688 C 936 464.058594 905.855469 453.546875 888 464.210938 C 878.640625 469.800781 874.253906 479 869 488 M 506 519 C 510.363281 518.621094 519.617188 514 523 517.605469 C 526 520.59375 525.621094 527.171875 526.890625 531 C 529.28125 538.210938 533.597656 544.667969 539 550 C 555 565.636719 582.601563 560.628906 590 586 C 591.359375 590.316406 591.964844 594.511719 592 599 C 606 594.230469 614.886719 574 615 560 L 616 560 C 616 566.730469 617.867188 573.328125 618.714844 580 C 618.929688 581.671875 618.550781 585.480469 620.601563 586.183594 C 624.992188 587.683594 631 581.265625 636 581.515625 C 638.859375 581.660156 647.671875 588 649.398438 585.339844 C 654.40625 578 646.816406 558.308594 644 551 C 656.53125 551 672.597656 535.109375 662.296875 522.328125 C 654.925781 513.183594 641.796875 514.28125 634.925781 503 C 627.933594 491.515625 624.65625 468.117188 610 464 C 612.78125 473.796875 615 482.765625 615 493 C 606.1875 484.28125 604.601563 471.558594 592 466 C 584.972656 462.75 577.277344 464.238281 570 465.609375 C 545.199219 470.289063 534 482.542969 519.523438 502 C 515.25 507.742188 509 512.523438 506 519 M 712 552 C 729 545.269531 738.445313 514.660156 736 498 C 735.386719 492.648438 734 483.179688 729.363281 479.710938 C 725.769531 477.105469 721.359375 482.660156 719.289063 485.003906 C 713.460938 491.609375 702.863281 501.429688 704.328125 511 C 706.511719 525.253906 712 537.148438 712 552 M 927 486 C 950.636719 496.207031 934.976563 527 916 532.777344 C 899.894531 537.8125 878.414063 528 876.183594 510 C 874.472656 496.273438 885.222656 478.238281 901 480.507813 C 905.476563 481.148438 920.496094 494.132813 911.535156 497.246094 C 908.339844 498.359375 907 493 905.914063 491.042969 C 902.753906 486.007813 897.230469 484.140625 892 487.230469 C 875.96875 496.734375 887.746094 519.355469 903 521.65625 C 923.894531 524.808594 927.296875 500.515625 927 486 M 560 490 C 556.335938 505 563.183594 526.53125 582 525.390625 C 597.175781 524.46875 608.90625 503.277344 594.90625 492.804688 C 589.816406 489 583.636719 489.707031 580 495.09375 C 578.757813 497 577.886719 501.710938 575 501.652344 C 567 501.503906 577.308594 486.472656 582 485.394531 C 596 482.167969 609 496.589844 608.738281 510 C 608 531.28125 583.292969 543.394531 565 535.097656 C 548.570313 527.640625 536.417969 495.652344 560 490 M 697 489 C 687.828125 504.714844 682 522.449219 674.695313 539 C 658.753906 574.367188 642.875 609.75 626.691406 645 C 616.910156 666.304688 604 693.25 613 717 L 614 717 C 617.675781 688.054688 631.664063 661.191406 643.691406 635 C 656.402344 607.316406 668.753906 579.542969 679.425781 551 C 684.613281 537.121094 689.316406 523.054688 694 509 C 696 502.808594 699.699219 495.4375 697 489 M 869 511 C 872.644531 518.683594 877.34375 525 882 532 C 865.386719 536 855.261719 524.59375 869 511 M 616 515 C 627 531.097656 618.347656 537 602 537 C 606 530 611 521.464844 616 515 M 750 515.746094 C 740.304688 519.527344 742.875 542.675781 754.890625 538.21875 C 763.710938 535 761.335938 511.363281 750 515.746094 M 979 534 C 975.296875 550.003906 964.496094 565.265625 952 575.675781 C 944.988281 581.515625 936.292969 584.613281 930.527344 592.003906 C 920.886719 604.367188 919.238281 622 921.589844 637 C 922.789063 644.667969 924.410156 659.152344 931 664 C 929.828125 649.648438 926.742188 639.144531 932.453125 625 C 944.851563 594.296875 977.992188 568.429688 981 534 L 979 534 M 505 537 C 514.972656 575.441406 550.65625 602.066406 557.535156 641 C 559.207031 650.453125 556.238281 658.804688 555 668 C 573 650.140625 567.625 608.613281 552.535156 591.039063 C 545 582.449219 533.726563 578.742188 526.464844 570 C 519 561.140625 514.835938 542.582031 505 537 M 274 629 C 274 607 270.199219 585.828125 267 564 C 266.429688 559.015625 266 544.332031 259.785156 542.753906 C 256 541.804688 253.265625 546.300781 251.824219 549 C 247.5 557.109375 240.582031 568.730469 240 578 C 239.417969 591.554688 256.621094 598.058594 263 608 C 267.417969 614.800781 267.625 623.53125 274 629 M 771 545.042969 C 762.449219 549.46875 770.320313 571.617188 777.882813 568 C 786.359375 563.761719 781.460938 539.695313 771 545.042969 M 728 547.695313 C 720.226563 549.703125 714 571.589844 724 570.214844 C 729.972656 569.382813 736.203125 563 736.863281 557 C 737.453125 551.738281 733.925781 546.171875 728 547.695313 M 685 567.742188 C 676.710938 571.027344 679.753906 580.613281 681.65625 587 C 684.582031 596.816406 686.34375 602.445313 698 598 C 719.550781 589.441406 702 561 685 567.742188 M 746 570.464844 C 723.480469 574.527344 741.238281 595.089844 756 592.773438 C 764.878906 591.378906 770.832031 579.25 763.605469 572.433594 C 759.601563 568.65625 751 569.5625 746 570.464844 M 484 584 L 484 593 L 486 593 C 485.988281 589.535156 486 586.804688 484 584 M 799 596.574219 C 780.378906 599 792.945313 626.355469 807.996094 623.769531 C 820.902344 621.550781 811 595.066406 799 596.574219 M 738 599.761719 C 729.550781 603 728.65625 615.75 718 619 C 716 619.550781 710.378906 619.523438 710 622.304688 C 709.1875 632.183594 730.679688 636 737 633.4375 C 746.476563 629.800781 748.65625 619.089844 747.90625 610 C 747.503906 605.113281 744.421875 597.414063 738 599.761719 M 486 605 L 486 608 L 487 608 C 486.75 606.546875 486.683594 606.246094 486 605 M 1213 624 C 1221.433594 659.417969 1194 693.777344 1172.171875 718 C 1162.859375 728.277344 1151.730469 740.046875 1138 744 C 1142 732 1150.277344 722.203125 1157.574219 712 C 1168.773438 696.332031 1179.886719 680.523438 1189.800781 664 C 1196.6875 652.519531 1203 632.519531 1213 624 M 601 797 L 600 797 C 600.355469 779.765625 604.648438 763.117188 606 746 C 599.875 751.347656 600 760.453125 598.753906 768 C 595.8125 785.652344 593 803.257813 590.71875 821 C 590.335938 824 586.597656 845.027344 591.921875 844.078125 C 595.621094 843.421875 595.597656 835.769531 596 833 C 598.207031 821 603.300781 810 608.753906 799 C 618.695313 779.164063 633.351563 761.304688 640.253906 740 C 647.296875 718.277344 645.980469 695.039063 651.628906 673 C 654.199219 663 658.203125 653.160156 663 644 C 664 642.007813 667.65625 636.261719 665 634.175781 C 661.828125 631.671875 656.613281 644.160156 655.574219 646 C 647.8125 659.769531 642.351563 675 638 690 C 633.796875 704.644531 630.3125 719.480469 625.65625 734 C 618.851563 755.210938 606 775.449219 601 797 M 888 802 C 875.921875 781.304688 866.234375 757.710938 858.667969 735 C 853.945313 721 850.410156 706.34375 846.289063 692 C 841.941406 677 836 662.691406 828.28125 649 C 827.257813 647.203125 821 634.503906 818 637.832031 C 815.847656 640.214844 819.675781 646 820.753906 648 C 825.375 657.28125 829.570313 667 832 677 C 837.503906 698.496094 836 721 843.695313 742 C 851.535156 763.507813 867.34375 781 877.742188 801 C 883.625 812.398438 889.503906 824.21875 891.5625 837 C 892 839.742188 891.613281 848.363281 895.914063 848.363281 C 900.761719 848.363281 897 827.503906 896.910156 824 C 895.347656 801.671875 893.875 778.261719 886.308594 757 C 885 753.582031 880.546875 737 875.558594 738 C 871.328125 738.792969 876.824219 750.046875 877.601563 752 C 883.664063 767.300781 887.863281 785.496094 888 802 M 755 651.574219 C 741 655.46875 755 683.570313 768.957031 679.566406 C 774.402344 678 774.398438 671.679688 773.816406 667 C 772.730469 658.300781 764.585938 649 755 651.574219 M 731 672.464844 C 710.566406 676.175781 727 697.480469 740.996094 694.402344 C 749.8125 692.464844 750.40625 682.3125 745.351563 676.214844 C 741.816406 672 736 671.539063 731 672.464844 M 786 680.535156 C 770.761719 684.042969 782.167969 707.589844 792.984375 705.507813 C 805.8125 703.039063 800.257813 677.257813 786 680.535156 M 680 686.742188 C 670 690.535156 670.871094 711.367188 683 707.089844 C 694.648438 703 694.183594 681.277344 680 686.742188 M 709 694.742188 C 702.640625 697.203125 698 708 703.652344 713.296875 C 706.421875 716 710.800781 716.113281 713.824219 718.507813 C 717.390625 721.328125 720.429688 728 725.996094 725.714844 C 733.253906 722.757813 739.191406 708 734.257813 701.214844 C 729.996094 695.371094 715.640625 692.175781 709 694.742188 M 748 696.535156 C 734.40625 699.695313 739.859375 722.132813 753 719.589844 C 773.738281 715.578125 768.511719 691.769531 748 696.535156 M 801 774 C 798.992188 767.179688 793.359375 761.410156 793.347656 754 C 793.332031 744.589844 801.359375 735.175781 795.632813 726.105469 C 788 714.226563 771.257813 725 766.921875 734 C 756.519531 756 783.636719 770.632813 801 774 M 667 771 C 680.632813 771 694 761.429688 703.996094 752.710938 C 708.179688 749.027344 714 743.1875 711.949219 737 C 708.574219 727.523438 685.25 715.492188 677.742188 726.132813 C 672.175781 734.023438 683.34375 742.816406 682.578125 751 C 681.632813 761.09375 671.710938 763.78125 667 771 M 905.417969 727.046875 C 900.84375 730.046875 903.386719 739.664063 904 744 C 904.996094 751.011719 907.585938 757.824219 906.824219 765 C 905.820313 774.503906 900.386719 782.800781 898.234375 792 C 897.582031 794.800781 895.921875 804.460938 901.921875 802.339844 C 906.421875 800.746094 907.730469 792 908.972656 788 C 913.578125 773.1875 915.625 759.40625 913.574219 744 C 913 740.71875 912.78125 722.21875 905.417969 727.046875 M 577 729.175781 C 572.308594 731 570.738281 737.6875 569.628906 742 C 565.875 756.597656 569.949219 767.171875 576.679688 780 C 578.464844 783.398438 582 796.421875 587.6875 794.503906 C 592.761719 792.78125 588.582031 783 587.214844 780 C 583.539063 772.277344 575.835938 765 575.476563 756 C 575.175781 748.582031 580.246094 742.109375 581.464844 735 C 581.953125 732.136719 580.949219 727.671875 577 729.175781 M 949 976 C 944.550781 967.628906 945.648438 955.292969 943.800781 946 C 933.300781 893.183594 949.671875 845.53125 959.390625 794 C 962.710938 776.394531 966 765.109375 977.921875 751 C 980 748.34375 986 739.226563 990.382813 740.753906 C 994.570313 742.226563 987.273438 753.023438 986.257813 755 C 978.726563 769.703125 973.621094 786 970.210938 802 C 967 817 974.949219 818.796875 980 831 C 983.289063 838.382813 982.652344 849.167969 981.714844 857 C 979.433594 876.085938 975.554688 895 968.945313 913 C 961.410156 933.628906 950.757813 953.773438 949 976 M 547 956 L 546 956 C 530.511719 923 517.664063 885.5625 514.171875 849 C 512.589844 832.476563 518.691406 816.691406 517.960938 800 C 517 780.117188 509.265625 763.398438 503 745 C 527.265625 753.25 528 789.636719 531.296875 810 C 533 821.332031 539.546875 831.1875 542.972656 842 C 547.570313 856.53125 549.316406 873 550.832031 888 C 553.175781 911.421875 547 933 547 956 M 744 750 C 737.832031 752 740.753906 761.394531 740.960938 766 C 741.488281 777.601563 740.738281 803.207031 759.957031 797.425781 C 772.414063 793.679688 760.449219 763.765625 755.894531 757.003906 C 753.574219 753.5625 748.917969 748.292969 744 750 M 727 752.800781 C 722.589844 753.527344 720 758.339844 718.4375 762 C 714.605469 770.59375 704.3125 801.230469 724 797.769531 C 737.527344 795.394531 735.835938 774.003906 734.828125 764 C 734.398438 759.714844 732.984375 751.816406 727 752.800781 M 599.667969 798.667969 C 599.722656 798.722656 599.777344 799.777344 599.332031 799.332031 C 599.277344 799.277344 599.222656 798.222656 599.667969 798.667969 M 818 878 L 818 879 C 799.640625 883.210938 777 882.386719 760 890.324219 C 752.199219 894 743.644531 909 736 908.769531 C 732 908.6875 722.191406 908.195313 719 906.050781 C 714.269531 903 712.828125 896.472656 707.960938 893.109375 C 700 887.625 689.390625 886.324219 680 887.09375 C 661.398438 888.621094 672.257813 916 652 912 C 640 909.46875 649.5625 899.089844 647.480469 892.015625 C 646.179688 887.578125 641.652344 885 639.363281 881 C 635.441406 874.296875 634.964844 866.558594 635 859 C 635 855.75 638.257813 841 631 842.753906 C 625.234375 844.300781 626.167969 857.4375 625.960938 862 C 625.167969 879.445313 624.652344 901.359375 638.183594 914.816406 C 645.671875 922.261719 652.667969 918.089844 660.910156 921.464844 C 664.1875 922.808594 666 926.335938 669 928.296875 C 675 932.441406 684 932.765625 691 931.101563 C 697.871094 929.457031 705.363281 927 711 922.609375 C 713 921 716 916.660156 719.230469 918.058594 C 730.324219 923.109375 720.445313 943.753906 716 950 C 714 953 710 957 712 960.773438 C 713.929688 964.261719 719.640625 964.832031 723 966.054688 C 730.679688 969 739.847656 973.617188 748 969.542969 C 753.742188 966.671875 757.242188 960.785156 763 958 C 769.507813 954.503906 779.6875 953.597656 781.992188 945.054688 C 783.78125 938.433594 769.4375 940.4375 766 938.257813 C 758.894531 933.722656 758 925.632813 758 918 C 768.96875 926.699219 808.296875 944.148438 811 918 C 846.828125 929.359375 849 888.363281 847.960938 863 C 847.765625 858.515625 846.820313 840.796875 839 842.753906 C 836.390625 843.445313 835.566406 846.605469 835.175781 849 C 833.742188 857.722656 831.734375 864 828 872 C 829.324219 860.210938 829 849 830 837 C 830.535156 831.585938 834 826.550781 832.566406 821 C 830.351563 812.742188 820 807.574219 813 804.308594 C 799 798 783 796.054688 768 799.425781 C 755.644531 802.191406 743.949219 808.527344 731 808 C 719.359375 807.449219 709.222656 800.816406 698 798.515625 C 681.808594 795.195313 661 801 648 810.488281 C 644.234375 813.242188 640.355469 816.40625 638.859375 821 C 636.960938 826.820313 641.34375 831.386719 641.894531 837 C 643.234375 850.632813 636.59375 870.570313 657 872.8125 C 663.707031 873.546875 672.617188 870.808594 675.257813 864 C 677.773438 857.503906 673.621094 849.160156 683 847 C 690.179688 845.15625 697.527344 851 703 854.71875 C 711.519531 860.605469 720.359375 865.613281 731 866 C 755 866.730469 775.289063 836 798.996094 842.433594 C 806.847656 844.609375 807.210938 853.472656 802.722656 859 C 798.671875 864 777.773438 871.605469 792 877.121094 C 793.613281 877.742188 795.304688 878.214844 797 878.53125 C 799.96875 879.089844 802.996094 879 806 879 C 810 879 813.964844 878.75 818 878 M 888.667969 802.667969 C 888.722656 802.722656 888.777344 803.777344 888.332031 803.332031 C 888.277344 803.277344 888.222656 802.222656 888.667969 802.667969 M 688 1008 C 677.429688 1026.285156 656 1030.210938 639 1039.796875 C 634 1042.523438 627.746094 1049.152344 633.316406 1054.566406 C 642.390625 1063.382813 666 1046 674 1041 C 684.421875 1034.503906 693.613281 1026.003906 705 1021.230469 C 719.324219 1015.230469 743.910156 1023.800781 743.921875 1001 C 743.921875 997.066406 743.195313 993 742.714844 989 C 742.257813 985.273438 742.929688 979.472656 740.972656 976.226563 C 738.503906 972.128906 732 972 728 970.652344 C 717.183594 967.265625 703 965.375 693 960.429688 C 687.914063 958 685.527344 952.226563 682 948.003906 C 677.472656 942.402344 671.863281 937.789063 666 933.578125 C 661.890625 930.628906 650 921.625 646.605469 930.109375 C 643.890625 937 651.9375 943 656 947 C 666 957.113281 679.859375 967.777344 684.222656 982 C 688.4375 995.726563 676.515625 1005.113281 664 1007 C 644.554688 1010 622.660156 1000.613281 607 989.5625 C 579.796875 970.367188 583 948 586.714844 919 C 589 900.09375 592.328125 883.105469 601 866 C 603.285156 861.769531 609.78125 841.527344 598.988281 843.378906 C 592.253906 844.53125 589.667969 854.652344 587.425781 860 C 579.558594 878.757813 580.828125 898.414063 577 918 C 573.839844 934.160156 566.53125 951.570313 572 968 C 577.339844 983.433594 591 992.296875 605 999.246094 C 632.816406 1013.191406 658.203125 1017.695313 688 1008 M 893.316406 855.046875 C 885.410156 860 898.507813 882.640625 900 889 C 904.335938 906 902.289063 923 903 940 C 903.675781 954.519531 907 968.292969 895.90625 980 C 880.710938 995.710938 847.730469 1008.550781 826 1009.625 C 812.398438 1010.296875 800.367188 997.183594 800 984 C 799.699219 969.015625 811.304688 958.710938 821 949 C 825.300781 944.691406 833.765625 938.023438 832.332031 931.003906 C 830.269531 921 818.925781 927.5625 814 931.042969 C 803.203125 938.671875 797.382813 953.636719 786 960 C 774.398438 966.203125 756.582031 965.128906 746.515625 975 C 742.441406 978.78125 745.25 985.238281 745.84375 990 C 748.9375 1015 766.320313 1014.828125 787 1020.265625 C 792.308594 1021.660156 799.777344 1023.503906 804.960938 1020.820313 C 809 1018.683594 810.96875 1014.617188 816 1014.113281 C 823.179688 1013.390625 830.679688 1015.410156 838 1015 C 859.8125 1013.417969 883.882813 1006.570313 901 992.535156 C 921 976.023438 914 957.324219 913 935 C 912.335938 919 913.9375 903 911.574219 887 C 910.214844 878 908.171875 867.796875 902.894531 860.003906 C 900.980469 857.179688 897.199219 852.679688 893.316406 855.046875 M 827 872 C 824.441406 875.085938 821.816406 876.78125 818 878 L 818 877 L 827 872 M 842 892 C 841.726563 895.136719 841 898.066406 839.90625 901 C 830.417969 924.046875 807.722656 904 794 898 L 794 897 C 807.46875 900.199219 823.816406 919.414063 836.289063 904 C 839.183594 900.308594 839.667969 895.816406 842 892 M 834 976 C 853.34375 978 887.285156 965.359375 893 945 C 872.953125 951.523438 849.449219 961.203125 834 976 M 506 980 C 512.839844 1009.5625 529.742188 1035.335938 538 1064 L 537 1064 C 527.789063 1044.273438 514.644531 1026.21875 506.453125 1006 C 503.3125 998.246094 500.269531 987.203125 506 980 M 492 1007 L 491 1008 L 492 1007 M 1013 1007 L 1012 1008 L 1013 1007 M 491 1009 L 490 1013 L 489 1013 C 489.5625 1011.246094 489.917969 1010.457031 491 1009 M 1013.667969 1009.667969 C 1013.722656 1009.722656 1013.777344 1010.777344 1013.332031 1010.332031 C 1013.277344 1010.277344 1013.222656 1009.222656 1013.667969 1009.667969 M 827 1029.53125 C 819.96875 1031.242188 814.167969 1038.648438 821 1044.363281 C 826.453125 1048.726563 844.246094 1054.230469 851 1052.550781 C 859 1050.542969 860.769531 1041.589844 854.941406 1036.328125 C 847.839844 1030 836.289063 1027.273438 827 1029.53125 M 711 1042.472656 C 718.863281 1042.097656 726.511719 1046.726563 734 1048.496094 C 744.894531 1051.074219 756.285156 1050 767 1047 C 772.984375 1045.351563 783 1041.199219 788.664063 1046 C 794 1050.277344 782.855469 1054.363281 780 1055.742188 C 769 1061.03125 756 1063.828125 744 1064 C 731.996094 1064.132813 720.5625 1060.070313 710 1054.753906 C 701.421875 1050.433594 698.371094 1043.074219 711 1042.472656 M 644 1080 L 643 1081 L 644 1080 M 615 1118 C 613.925781 1143.042969 609.9375 1167.824219 611 1193 C 611.808594 1210.558594 617 1228.589844 611.957031 1246 C 607.960938 1259.40625 598.8125 1270.394531 589 1280 C 586.296875 1282.628906 578.175781 1288 579.738281 1292.5625 C 580.824219 1295.820313 586.585938 1294.207031 589 1294 C 598 1293.222656 607 1292.03125 616 1290 C 644.949219 1282.804688 664 1262.800781 661.910156 1232 C 661 1220.164063 658.382813 1207.347656 650.671875 1198 C 644 1190.101563 634.941406 1184.816406 629.46875 1176 C 619 1159.207031 617 1137.316406 617 1118 L 615 1118 M 646 1139.746094 C 629.648438 1145.769531 637 1183.070313 654.996094 1176.257813 C 670.320313 1170.402344 660.582031 1134.378906 646 1139.746094 M 565 1156 C 565 1188.550781 582.980469 1220.308594 565 1252 C 560.5625 1260.097656 554.230469 1266.796875 547 1272.550781 C 542.785156 1276 536.921875 1278.449219 534 1283 C 580.539063 1276.726563 598.886719 1229.148438 585.328125 1188 C 581.601563 1176.6875 574.839844 1163.078125 565 1156 "/>
</g>
</svg>
