<?xml version="1.0" encoding="UTF-8"?>
<svg xmlns="http://www.w3.org/2000/svg" xmlns:xlink="http://www.w3.org/1999/xlink" width="1500pt" height="1500pt" viewBox="0 0 1500 1500" version="1.1">
<g id="surface1">
<path style=" stroke:none;fill-rule:nonzero;fill:rgb(0%,0%,0%);fill-opacity:1;" d="M 435 751 C 432.371094 763.742188 428.328125 776.109375 426.421875 789 C 425.914063 792.429688 423.53125 800.738281 428.277344 802.289063 C 433.664063 804.046875 438 795.027344 441 792.113281 C 442 791.152344 445.273438 788.035156 446.789063 789.832031 C 448.9375 792.382813 443.929688 801.164063 443.238281 804 C 440.617188 814.800781 440.253906 826 439.984375 837 C 439.902344 840.390625 438.21875 845.597656 440.863281 848.394531 C 444.972656 852.742188 451.289063 845.644531 454 843 C 453.488281 855 452.78125 867.089844 451.910156 879 C 451.597656 883.25 448.839844 888.695313 450.605469 893 C 453.605469 900 463.339844 889.363281 466.167969 898.023438 C 468.636719 905.589844 446.832031 934.339844 466 930 C 466 935.167969 469.703125 939.113281 469.351563 944.003906 C 467.878906 964.449219 454.476563 983 450.449219 1003 C 444.613281 1032.003906 447.964844 1064.039063 460.308594 1091 C 477.40625 1128.339844 506.320313 1156.824219 539 1181 C 583.570313 1213.695313 633.53125 1239 686 1256.332031 C 700.460938 1261.152344 715 1266 729 1272.308594 C 737.214844 1276.101563 744.492188 1282.304688 754 1282 C 762.59375 1281.640625 770.355469 1276.242188 778 1273 C 790 1267.539063 802.535156 1263.488281 815 1259.332031 C 891 1234 974.695313 1191.695313 1022.570313 1125 C 1048 1089.441406 1060 1045.246094 1050.574219 1002 C 1046.378906 983 1032.648438 962.460938 1032.472656 943 C 1032.445313 939.75 1033.691406 934.039063 1036.511719 932.027344 C 1038.917969 930.308594 1042.804688 931.503906 1043.640625 928 C 1045.878906 918.078125 1032.324219 908.511719 1034.523438 898.019531 C 1036.578125 888.222656 1047 900 1050.398438 893.5625 C 1052.300781 890 1050 884 1050 880 C 1049.703125 867.347656 1050 854.371094 1047 842 C 1049.839844 844.8125 1055.773438 852.164063 1060.480469 849 C 1063.933594 846.605469 1062 839.421875 1061.714844 836 C 1060.285156 824.367188 1061.648438 812.332031 1057.910156 801 C 1056.453125 796.589844 1054.46875 792.671875 1054 788 C 1059.863281 790.582031 1066.710938 803.242188 1072.773438 802.535156 C 1077.519531 802 1075.992188 793.0625 1075.574219 790 C 1073.871094 777.484375 1069.675781 765.449219 1068 753 C 1084.886719 770 1121.496094 799.164063 1145.984375 777.785156 C 1160.878906 764.785156 1166.664063 741.007813 1180.171875 726 C 1197.34375 707 1219.523438 692.765625 1234.84375 672 C 1257.265625 641.605469 1262.210938 605.011719 1269.398438 569 C 1273.953125 546.1875 1290.769531 517.015625 1281.371094 494 C 1271.21875 469.132813 1242.628906 459.796875 1223 444.332031 C 1197.257813 424.046875 1176 396.316406 1152 374 C 1131.488281 354.804688 1110.8125 336 1091 316 C 1078.554688 303.53125 1067.738281 289 1052 280.3125 C 1038.96875 273.152344 1023.769531 270.519531 1009 272.285156 C 995.695313 274 981.398438 280 968 276 C 955 272.175781 943.925781 263.210938 932 257.246094 C 913.671875 248.082031 893.96875 241.226563 874 236.652344 C 848.6875 231 822.675781 230 797 227 C 781.378906 225 765.855469 219.703125 750 220.015625 C 728.804688 220.433594 708 226.582031 687 229 C 660 231.710938 633 234 607 241.722656 C 589.652344 247 572.984375 254.339844 557 262.78125 C 548.996094 267.003906 541.609375 273 533 276 C 521.574219 280 510.382813 275.265625 499 273.4375 C 482.492188 270.785156 465 271.121094 450 279.3125 C 429.335938 290.59375 414.617188 311.777344 398 328 C 367.59375 357.644531 335.890625 386 306.910156 417 C 296 428.609375 285.203125 440.28125 272 449.253906 C 254.257813 461.308594 232 471.089844 221.785156 491 C 209.757813 514.097656 228.453125 545.390625 232.414063 569 C 239 609.21875 248 649.75 274.613281 682 C 287.453125 697.59375 305.414063 708 318.714844 723 C 327.175781 732.597656 334.710938 742.742188 340.820313 754 C 345 762 347.96875 771.566406 355 777.671875 C 380 799.28125 418 768 435 751 M 1144 598 C 1137.894531 576.488281 1128.855469 556 1124.210938 534 C 1115.285156 492 1113.320313 448.601563 1107.71875 406 C 1104.511719 381.621094 1096.203125 355.421875 1096 331 C 1106.917969 337.828125 1115.171875 347.832031 1124.171875 356.828125 C 1142.285156 375 1160.472656 393.246094 1179 411 C 1189.414063 421 1205.691406 430.488281 1210 445 C 1197.953125 443 1206.410156 453 1209 459 C 1199.449219 452.21875 1192.445313 440.769531 1184.714844 432 C 1172.59375 418.25 1159.8125 405.117188 1147 392 C 1139.472656 384.269531 1132.726563 373.425781 1122 370 C 1133.933594 388.039063 1152.886719 403.519531 1167.984375 419 C 1181.925781 433.289063 1196.261719 447.421875 1209.910156 462 C 1214.347656 466.738281 1217.679688 473.054688 1222.203125 477.335938 C 1228.167969 483 1235.761719 486.683594 1242 492 C 1237.992188 478.09375 1227.5625 466.363281 1222 453 C 1241 461.199219 1268 477.515625 1275.449219 498 C 1281.75 515.699219 1270.617188 534.273438 1266 551 C 1255 592.472656 1253.933594 635.175781 1227 671 C 1212.746094 690.171875 1192.457031 702.820313 1176.171875 720.039063 C 1166.605469 730.152344 1159.441406 741.609375 1153.246094 754 C 1149.511719 761.46875 1146 771.128906 1137.996094 774.785156 C 1125.886719 780.210938 1111 775.613281 1100 770 C 1070.660156 754.734375 1057.621094 730.054688 1051.398438 699 C 1047.585938 680 1042.992188 661.515625 1043 642 C 1043 613.511719 1053.519531 586 1057.570313 558 C 1059.945313 541.605469 1058 525.457031 1058 509 L 1059 509 C 1065.988281 521.269531 1079.195313 529.734375 1084.523438 543 C 1096.238281 572.175781 1077.304688 607.652344 1071.601563 636 C 1069 648.183594 1068.695313 659.804688 1071.425781 672 C 1072.253906 675.707031 1073.226563 682.207031 1077 684.078125 C 1083.675781 687.285156 1077.199219 667.292969 1076.871094 665 C 1073 638.347656 1088.230469 614 1091.71875 588 C 1097.273438 546.761719 1082.226563 507.628906 1073.425781 468 C 1066 435.1875 1063.867188 400.71875 1052.304688 369 C 1046.902344 354.1875 1036 342 1031 327 C 1040 332 1048 340 1058 343 C 1050.292969 335.355469 1041 329.800781 1033 322.710938 C 1024.355469 315.191406 1016.78125 306.117188 1007 300 L 1007 299 C 1024.402344 300.421875 1038.644531 311.324219 1055 316 C 1040.886719 303.125 1020.253906 296.167969 1002 291.628906 C 988.570313 288.285156 977.757813 289 985 305 L 984 305 C 975.511719 292.574219 962 286.324219 949 279.753906 C 921.726563 266.117188 893 255 863 249.425781 C 852 247.449219 840 244.78125 829 247 C 824 248 817.378906 251.082031 817.359375 257 C 817.34375 264.097656 824.917969 270.078125 830 274 C 844.460938 284.566406 860.421875 292.667969 876 301.578125 C 890.953125 310.132813 910.355469 319.136719 920 334 C 927.46875 345.414063 926.570313 360.28125 935.46875 371 C 949.441406 387.792969 968.515625 398.160156 980.996094 417 C 1003.875 451.535156 1002.539063 493 1014.746094 531 C 1018 541.457031 1030 562.558594 1042.867188 563.3125 C 1047.488281 563.582031 1048.355469 553.195313 1048.914063 550 C 1051.410156 535.789063 1049.765625 521.050781 1047 507 C 1040 471.699219 1031.484375 436.222656 1020.328125 402 C 1012.5625 378.171875 1001.644531 354.394531 996 330 L 997 330 C 1018 392.453125 1049 458 1051.960938 525 C 1053.871094 568.605469 1032 609.679688 1036.171875 653 C 1039 684 1049 717.175781 1057.429688 747 C 1061.386719 761.101563 1067.875 774.019531 1068 789 L 1067 789 C 1063.429688 784.160156 1047 773.683594 1045.503906 786.015625 C 1044.675781 792.210938 1050.257813 799.179688 1051.839844 805 C 1054.746094 815.683594 1055 828 1055 839 C 1051.726563 837 1045.589844 830.363281 1041.433594 833.648438 C 1037.476563 836.773438 1040.214844 843.089844 1041 847 C 1044 860 1040 873.511719 1043 886 C 1020 886.066406 1028.570313 906.003906 1034 920 C 1019.757813 917.515625 1024.335938 944.226563 1026.859375 953 C 1030.503906 965.65625 1036.949219 977.355469 1040.574219 990 C 1050 1023.054688 1049 1058.328125 1035 1090 C 1023.421875 1116.503906 1004 1138.605469 983 1158.089844 C 936.933594 1200.777344 880.292969 1230.21875 821 1250 C 806.625 1254.796875 792 1259.320313 778 1264.8125 C 769.839844 1268 762 1273.105469 753 1273 C 744.445313 1273 736.761719 1267.507813 729 1264.398438 C 714 1258.445313 699 1253.0625 684 1247.691406 C 627.816406 1227.695313 574 1202.589844 528 1164.078125 C 504 1144.175781 481.4375 1120.582031 468.308594 1092 C 455.871094 1065 450.859375 1033.339844 457.425781 1004 C 461.34375 986.492188 469.671875 970.222656 474.578125 953 C 477.523438 942.664063 477.808594 937.605469 474.574219 927.714844 C 472.765625 922.191406 474.527344 919 467 920 C 469.273438 912.050781 476 902.613281 473.347656 894.015625 C 471 886.636719 463.773438 889.3125 459.742188 884.566406 C 456.242188 880.445313 457.976563 871.050781 458 866 C 458 859 465.472656 839.578125 461.242188 834.320313 C 457.339844 829.472656 450.671875 836 447 838 C 447 825.121094 447.316406 811.214844 451.914063 799 C 453.683594 794.308594 458.855469 787 454.550781 782.316406 C 448.398438 775.746094 438.199219 785.761719 433 789 C 444.414063 741.191406 466.820313 692 466.820313 642 C 466.820313 601.777344 445.285156 564.796875 449.171875 524 C 451.417969 500.375 458.414063 477.742188 464.859375 455 C 476.304688 414.613281 489.582031 375.660156 503 336 L 504 336 C 496.5625 368.148438 482.691406 399.28125 473.425781 431 C 464.21875 462.511719 452 498 452 531 C 451.996094 539.585938 452.316406 547.632813 454.476563 556 C 455.1875 558.746094 456.195313 564.203125 460 563.125 C 493.578125 554 493.5625 501.664063 499.882813 475 C 505.925781 449.523438 514.867188 424.023438 532.289063 404 C 543.214844 391.445313 558.378906 383.054688 568.609375 370 C 578.46875 357.421875 576.503906 340 588 328.015625 C 608.957031 306.566406 640.492188 295.714844 665 279 C 671.5 274.53125 687.554688 265 684.355469 255.003906 C 679.800781 241 651.316406 247.34375 641 249.082031 C 598 256.316406 553.976563 274 520 301 C 522.542969 288.628906 509 289.625 501 291.425781 C 482.464844 295.511719 460.203125 303.042969 446 316 C 462 313.238281 475.539063 301.4375 492 300 C 479 317.453125 458.476563 328.191406 443 343 C 453.894531 340.386719 460.773438 331 471 327 C 463.542969 344.816406 451.808594 360.335938 446 379 C 435 414.554688 431.75 453.632813 423 490 C 415 523.746094 403.449219 558.003906 410.449219 593 C 415.195313 616.738281 426.722656 639.253906 424.910156 664 C 424.710938 666.703125 418.332031 686.671875 423.96875 684.792969 C 428.378906 683.324219 429.503906 676 430.339844 672 C 433.292969 658.378906 432.382813 644.351563 428.574219 631 C 421.273438 605.429688 406.972656 572 416.550781 545 C 419.5 536.710938 426.316406 530.675781 431.738281 524 C 435.726563 519.09375 438.808594 513.734375 444 510 C 431.199219 563.761719 466.65625 616.800781 457.566406 671 C 451.199219 709 441.574219 745.011719 407 766.574219 C 395.414063 773.800781 378.746094 781 365 775.597656 C 356.460938 772.335938 353.683594 763.378906 349.691406 756 C 343.230469 744.050781 336.535156 731.792969 326.984375 722 C 310 704.601563 289.640625 690.5 274.898438 671 C 247.800781 635.148438 246.976563 590.75 235.84375 549 C 231.511719 532.746094 220 515.179688 226 498 C 232.875 479 262 460.707031 280 453 C 276 466.816406 266.65625 479.359375 260 492 C 291.652344 470.46875 315 437 342 410 C 353 399 373.21875 384.617188 379 370 C 371 374.078125 365.355469 382 359 388 C 344.976563 401.3125 331 415.308594 318.425781 430 C 310.949219 438.652344 304 450.0625 295 457 C 297 452.050781 300 447.488281 303 443 C 299.320313 444.035156 295.828125 444.832031 292 445 C 299 430.214844 315.523438 417.476563 327 406 L 376 357 C 385.308594 347.691406 394.503906 336.644531 406 330 C 402.460938 357.417969 395.59375 384.425781 392.285156 412 C 387.808594 449.3125 386 487.03125 378.800781 524 C 373.777344 549.265625 363.222656 573.011719 358 598 C 363.691406 593.121094 365.679688 584.800781 368.398438 578 C 374.554688 562.617188 379.847656 547.191406 383.425781 531 C 394 482.617188 396 433 402.871094 384 C 406 361.421875 407.316406 332.71875 421.375 314 C 436.597656 293.734375 459.640625 277.273438 486 279.089844 C 503 280.269531 520 289.394531 537 282.121094 C 559.601563 272.421875 579 257.625 603 250.027344 C 632.28125 240.710938 662.605469 238 693 234.832031 C 711.34375 233 729.546875 227.4375 748 227.015625 C 765 226.621094 782 231.613281 799 233.714844 C 827.859375 237.304688 856.742188 239.453125 885 247 C 903.871094 252 921.691406 259.324219 939 268.257813 C 948 273 956.328125 279.113281 966 282.5625 C 982.441406 288.417969 997.605469 280.21875 1014 279.089844 C 1036.417969 277.546875 1056 288.71875 1070.828125 305 C 1075.648438 310.320313 1081.652344 315.605469 1085 322 C 1094.964844 341 1095.238281 365.242188 1098 386 C 1104.480469 431.574219 1106.96875 477.828125 1116 523 C 1119.734375 541.683594 1125.535156 559.324219 1132.601563 577 C 1135.628906 584.574219 1137.277344 592.808594 1144 598 M 494 299 L 493 300 L 494 299 M 996 328 L 995 329 L 996 328 M 505 334 L 504 335 L 505 334 M 713 404 C 713 432.488281 715.214844 463.734375 693.960938 486 C 688.648438 491.5625 682.933594 496.226563 677 501.128906 C 675.785156 502.191406 672.238281 505 674 507 C 676 509.070313 680.257813 506.359375 682 505.285156 C 688.902344 501.023438 694.667969 495.265625 699.738281 489 C 714.277344 471.03125 721.4375 446 718.425781 423 C 717.613281 416.824219 718.761719 408 713 404 M 633 417.53125 C 623.449219 420 629.25 425 630.6875 431 C 633 441 635.519531 451.335938 649 448 C 658.234375 445.589844 662.421875 434 657.261719 426.015625 C 652.484375 418.652344 641.285156 415.507813 633 417.53125 M 861 417.464844 C 855.441406 418 849.371094 419.191406 845.996094 424.105469 C 838.378906 435.191406 846.808594 449.347656 860 448 C 869.609375 446.832031 867.714844 439 869.722656 432.015625 C 870.632813 429 874.457031 426.804688 874.824219 423.804688 C 875.574219 417.699219 864.890625 417.105469 861 417.464844 M 541 479 C 553.964844 477.59375 564 463.296875 577 459.441406 C 601.433594 452.15625 618.210938 466.582031 640 474 C 635.847656 465.167969 624.664063 461.230469 616 458.054688 C 589.308594 448.265625 557 453.28125 541 479 M 861 474 C 882.710938 465.09375 902.917969 452.097656 927 460.699219 C 938.53125 464.816406 947.199219 477 959 479 C 948.3125 451.417969 907.378906 449 884 457.8125 C 875.898438 461 863.5625 465 861 474 M 561 489 C 555.996094 494.003906 548.722656 499.292969 546 506 C 540.695313 519.128906 554.835938 532.09375 565 537.6875 C 584.378906 548.355469 604.828125 542.320313 625 538 C 630.945313 536.726563 641.808594 536.476563 646.675781 533 C 650 530.320313 647.179688 527.234375 646.84375 524.089844 C 646.210938 518.136719 648.195313 514.589844 646 508 C 638.871094 486.609375 627.769531 466.515625 603 463.289063 C 588 461.34375 574.4375 468.546875 563 477.425781 C 559.808594 480 553.75 483.476563 553 488 C 552.34375 492.402344 559 489.679688 561 489 M 858 520 C 856.335938 524.007813 852.578125 529.414063 853.914063 534 C 855 537.789063 859.652344 539.105469 863 540.308594 C 872 543.542969 880.6875 547.765625 890 550.105469 C 913.511719 556.011719 932.5625 544.046875 949 528 C 953 524 960.386719 519.714844 962.214844 514 C 964.167969 508 957 503.578125 953 500.523438 C 940.96875 491.421875 930.574219 479 916 473.699219 C 887.972656 463.769531 867.847656 492.226563 861 516 C 855.976563 484.796875 893.566406 461.753906 920 474 C 927 477.179688 932.851563 482.640625 939 487.371094 C 940.816406 488.765625 944.863281 492.144531 947.261719 490 C 951.492188 486.09375 935.503906 475.476563 933 473.722656 C 917.789063 463.074219 901.367188 460.378906 884 467.453125 C 868.753906 473.664063 861.546875 486.042969 856.671875 501 C 855.269531 505.289063 847.414063 525.015625 858 520 M 643 519 L 642 519 C 629.789063 498.078125 618.199219 462.695313 587 473.699219 C 577 477.183594 570 484.363281 561 489 C 575.78125 469.671875 607.492188 461.527344 625.535156 481.175781 C 635.183594 491.679688 638 506.117188 643 519 M 595 478 L 595 479 C 585.789063 484.324219 581.660156 513.046875 596 515 C 613.84375 517.0625 614.261719 488.058594 604 480 C 614.214844 478 621.792969 491.3125 621.820313 500 C 621.863281 513.269531 611.796875 524.246094 599 526.535156 C 582.558594 529.472656 559.957031 513.183594 567.703125 495 C 571.925781 485.085938 585.328125 480.238281 595 478 M 898 479 C 892.636719 487.222656 882.476563 515.21875 902 515.597656 C 917.675781 516 915.355469 489.003906 912 480 C 920.214844 482 930 487 933.722656 495 C 941.566406 512.628906 920.804688 528.175781 905 527 C 878.484375 524.773438 869.324219 486 898 479 M 254 528 C 262.675781 526 268.175781 518.199219 275 513 C 272 528.648438 272.335938 544.253906 270.828125 560 C 269.984375 569 266.386719 577.160156 266 586 C 271 583.730469 275 580 279 576 C 278 587 273.226563 597.089844 273 608 C 276.949219 607 280.457031 605.066406 284 603 C 282.449219 611.320313 286.597656 617.585938 285.847656 625 C 284.953125 634 279 640.59375 279 650 C 291.589844 642.722656 298.304688 628.339844 311 621 C 307 634.078125 306 658 310 671 L 322 661 C 321 671.378906 314.863281 680.390625 318 691 C 324 687.445313 328 682.0625 333 677 C 332.253906 682.527344 323.183594 714.5625 337 703 C 337.371094 711.644531 339.554688 720.746094 349 723 C 346.765625 705.316406 349.261719 691.261719 350.800781 674 C 351 670.183594 349.203125 663.160156 345.503906 661.199219 C 340.636719 658.621094 334.488281 665.535156 331 668 C 335.441406 653 333 631.75 333 616 C 328.527344 617.734375 325.402344 620.671875 322 624 C 322 610 324 596.054688 324 582 C 312.652344 586.804688 303.589844 599.410156 295 608 C 300.570313 594.621094 310.824219 581.515625 313 567 C 302.578125 572 298.464844 584.820313 291 593 C 294.191406 568.300781 298 544 300 519 C 290.1875 525.429688 286.554688 544.035156 278 553 C 278 528.730469 287.554688 509 293 486 C 290.957031 485.757813 287.574219 484.375 285.636719 485.285156 C 282.40625 486.808594 280 493.265625 277.699219 496 C 269 506.195313 257.253906 514.304688 254 528 M 1209 486 C 1216.613281 508.503906 1224.503906 530 1225 554 C 1215.835938 544 1213 527.617188 1203 519 C 1204 544.089844 1210.921875 569 1212 594 L 1211 594 C 1206.421875 584.363281 1198.753906 573.171875 1190 567 C 1192.222656 582 1203.222656 594 1208 608 C 1198 601 1190.464844 587 1179 583 L 1180 624 C 1176.347656 621.21875 1173.171875 618 1169 616 L 1170 668 C 1166.769531 665.753906 1161 659.214844 1156.558594 660.789063 C 1153.226563 662 1150.507813 670 1150.726563 673 C 1151.242188 680.421875 1154.5625 687.40625 1154.894531 695 C 1155.304688 704.257813 1153 713.707031 1153 723 C 1162.363281 719.808594 1162.933594 711.382813 1165 703 C 1177.882813 713.515625 1170 682.652344 1169 677 C 1171.332031 679.351563 1179.511719 691.179688 1183 689.652344 C 1185.40625 688.703125 1185 684 1184.824219 682 C 1184 675 1180.960938 668.121094 1180 661 C 1184.234375 664.449219 1188 668.6875 1193 671 L 1192 620 C 1200.960938 629 1211.746094 645.085938 1224 649 C 1223.261719 640.609375 1216.789063 633.390625 1216.6875 625 C 1216.644531 621.375 1219.222656 618.511719 1219.773438 615 C 1220 612.5 1217.960938 605.703125 1220.617188 604.253906 C 1222.949219 603 1227.691406 606.273438 1230 607 C 1229 596.742188 1225.894531 586.160156 1224 576 C 1228.253906 580.242188 1231.792969 584.308594 1238 585 C 1231.203125 561 1234.476563 535.53125 1227 512 C 1233.167969 518.164063 1240 526.277344 1249 528 C 1244.882813 516.117188 1235.226563 508.414063 1227.464844 499 C 1221.691406 492 1218.863281 485.339844 1209 486 M 561 501 C 564 511.59375 567.421875 521.605469 577 528.085938 C 595 540.304688 621.199219 528.089844 627 508 C 638 517.644531 627.816406 526.429688 618 530.394531 C 602.5 536.65625 582.96875 537.738281 569 527.238281 C 561.777344 521.804688 553.300781 509.21875 561 501 M 942 501 C 952.429688 534 905.984375 539.109375 885 530.796875 C 873.1875 526.117188 862.5625 518.328125 874 506 C 877.308594 511.6875 879.476563 518.050781 884.183594 522.824219 C 896.5625 535.386719 917.222656 536.355469 929.984375 524 C 936.933594 517.207031 937 508.714844 942 501 M 860 516 L 859 520 L 858 520 C 858.5625 518.246094 858.917969 517.457031 860 516 M 645 522 C 643.363281 521.453125 643.546875 521.636719 643 520 C 644.636719 520.546875 644.453125 520.363281 645 522 M 562 671 C 562.234375 659.574219 565 647.179688 561.480469 636 C 555.691406 618.164063 541.214844 605.488281 532.972656 589 C 526 575.324219 526 562 526 547 C 520 551.171875 521.925781 562.535156 522 569 C 522.34375 597.539063 545.925781 614.429688 555.535156 639 C 558.484375 646.535156 555.878906 667.03125 562 671 M 278 553 L 277 554 L 278 553 M 498 559 C 498 578.769531 493.742188 599.347656 495 619 C 496.601563 641.0625 504.433594 661.519531 512.191406 682 C 515.386719 690.4375 515.582031 701.757813 521 709 C 525.949219 692.214844 513 668.023438 508.425781 652 C 502.5625 632 504 613.484375 504 593 C 504 584.5 505.855469 564.210938 498 559 M 981 709 C 988.230469 704.207031 989.753906 686.0625 992.808594 678 C 999 661.515625 1005 644.683594 1006.828125 627 C 1008.984375 604.464844 1005 581.5625 1005 559 C 996.210938 564.136719 999 587.027344 999 596 C 999 612.671875 1000.207031 629.652344 996.347656 646 C 991.382813 667.015625 981.183594 687.015625 981 709 M 819 571 C 825.425781 590.710938 837 608 844.988281 627 C 848.46875 635.394531 848.832031 647 856 653 C 855.550781 631.238281 842.71875 610 833.246094 591 C 829.886719 584.277344 826.824219 573.300781 819 571 M 869.40625 579.347656 C 866.734375 580.816406 869.703125 587.140625 870.453125 589 C 874 598.191406 879.402344 607 885 615 C 908.652344 648 927.824219 674.644531 921.871094 717 C 920.828125 724.414063 918.785156 731.613281 917.621094 739 C 917.390625 740.453125 916.714844 746 919.871094 744.652344 C 922.523438 743.613281 922.890625 739.347656 923.425781 737 C 925 729.347656 927 721.78125 928 714 C 933.65625 674.347656 914 643.3125 891 613 C 884.964844 605 879 596.367188 874.859375 587 C 874.246094 585.625 871.894531 578 869.40625 579.347656 M 630 580 C 622.597656 584.277344 618.773438 602.382813 613.945313 610 C 594.539063 640.644531 573.996094 664 574 702 C 574 713.230469 576.398438 724.140625 579 735 C 579.789063 737.632813 580.53125 744.390625 583.90625 745.078125 C 587.429688 745.796875 585.335938 737.375 584.996094 736 C 582.476563 726 580 715.515625 580 705 C 579.957031 679 589.726563 657.683594 603.691406 636 C 614.433594 619.324219 629.824219 601 630 580 M 291 593 L 290 594 L 291 593 M 1213 594 L 1212 595 L 1213 594 M 1209 608 L 1208 609 L 1209 608 M 844 819 L 845 819 C 844.625 821.5 838.710938 835.339844 842.601563 836.078125 C 848.925781 837.28125 852 823.054688 853 819 C 857.867188 800.03125 854.800781 779.421875 844 763 C 839.828125 756.371094 834.472656 750.085938 828 745.496094 C 826.253906 744.253906 822 741.175781 820 743.785156 C 816.863281 748.132813 831.195313 759.0625 833.699219 762 C 848.699219 779.589844 847.695313 797.6875 846 819 C 844 812 845.96875 803.566406 844.539063 796 C 840.886719 776.632813 828.40625 760.246094 812 749.699219 C 802.609375 743.660156 789.507813 737.160156 778 738.175781 C 768 739.050781 758.945313 744.296875 749 745 C 737.730469 745.597656 727.347656 738.628906 716 739.042969 C 691.28125 740 659.367188 766.601563 656 791 C 652 822 669 865.660156 694 884.238281 C 703.894531 891.597656 715.328125 893.296875 727 896.128906 C 732.757813 897.527344 740.515625 898.355469 744.570313 903.132813 C 748.933594 908.277344 748.613281 917.679688 747.816406 924 C 746.316406 935.828125 731.898438 937.308594 723 941.757813 C 699.722656 953.398438 682.683594 977.367188 657 984.242188 C 625.175781 992.765625 598.195313 955.488281 586.257813 931 C 582.386719 923.054688 577.746094 914 577 905 C 575.882813 888.515625 582 872.523438 579.5625 856 C 576.679688 837.523438 569.414063 820.078125 564.894531 802 C 560.449219 784.21875 559.429688 765.671875 554.574219 748 C 550 731.664063 542.167969 716.820313 536.320313 701 C 528.324219 679.382813 522.695313 657 519.84375 634 C 519.5625 631.722656 514.933594 616.003906 511.644531 624.167969 C 508.574219 631.78125 514.796875 650 516.398438 658 C 523.292969 692.457031 541.929688 723 549.574219 757 C 553.355469 774 554.699219 791.210938 558.894531 808 C 563 825.015625 570 841.402344 571.828125 859 C 573 872.421875 568.800781 885.648438 569 899 C 569.566406 916.726563 577.535156 933.449219 587 948 C 601 969.289063 621.402344 992.410156 649 993 C 658.578125 993.132813 668.355469 984.5 677 986 C 684 987 690.347656 992.054688 697 994.574219 C 710.589844 999.722656 725.519531 1003.445313 740 1004.828125 C 760.390625 1006.777344 781.699219 1003.5625 801 997 C 808.953125 994.183594 815.898438 988.253906 824 986.199219 C 831.703125 984.246094 839.417969 991.605469 847 992.699219 C 864.578125 995.234375 881.589844 985.449219 894 974 C 912.847656 956.382813 929.292969 931.214844 931.828125 905 C 933.613281 886.570313 928.589844 868.339844 931.300781 850 C 933.460938 835.359375 939.710938 821.375 943 807 C 947 790.144531 948.625 772.730469 953 756 C 958.355469 736.753906 966.636719 718.730469 973.308594 700 C 980.601563 679.527344 985 658.390625 988.585938 637 C 989 634.300781 993.734375 615.453125 987 617.460938 C 981.199219 619.203125 982 633.285156 981.410156 638 C 978 659 972.875 679.242188 965.425781 699 C 959.316406 715.191406 952.3125 731.230469 947.882813 748 C 942.832031 767.128906 940.671875 786.773438 936 806 C 932.285156 822.167969 925 837.546875 922.4375 854 C 919.863281 870.496094 926 886.582031 924.910156 903 C 923 927.5625 903 956.234375 885 971.699219 C 880.722656 975.359375 876 978.246094 871 980.753906 C 837.691406 997.363281 814.679688 962.105469 789 947.230469 C 773.957031 938.519531 740.570313 930.710938 754.988281 905.015625 C 761.980469 892.554688 789.949219 894.058594 802 887.738281 C 821.984375 877.253906 825.617188 859.457031 833.363281 841 C 836.621094 833.234375 842.707031 827.621094 844 819 M 953 786 C 957.585938 783.140625 958 777.652344 960.324219 773 C 963.660156 766 968.386719 759.273438 973 753 C 983.328125 739.507813 995.558594 727.265625 1003.191406 712 C 1012.867188 692.648438 1015.449219 670.695313 1020.882813 650 C 1023.648438 639.46875 1030 628.765625 1031 618 C 1018.398438 624.003906 1013.910156 646.5 1011.210938 659 C 1006.675781 680 1002.261719 699.621094 990.5625 718 C 977.304688 739 955.257813 760.117188 953 786 M 472 619 C 473.449219 628.675781 478.925781 637.507813 481.371094 647 C 486.679688 667.628906 488.289063 689.453125 497.308594 709 C 505 725.78125 518 739.367188 529 754 C 533.605469 760 538 766.117188 541 773 C 543.335938 778.0625 544 784 549 787 C 546.671875 757.542969 522.730469 736.816406 508 713 C 498 696.820313 495.574219 677.207031 491.574219 659 C 488.699219 646 486.277344 624.578125 472 619 M 477 652 C 477 664 480.308594 676.109375 481.714844 688 C 484.210938 709.121094 485.238281 729.289063 494.230469 749 C 498.773438 759 502.96875 771.722656 514 776 C 510.859375 762.78125 502.175781 750.671875 497.203125 738 C 490.726563 721.496094 487.335938 703.429688 484.414063 686 C 483 678.058594 483.417969 657 477 652 M 988 775 C 998.253906 771.503906 1002.929688 758.085938 1007.21875 749 C 1016.90625 728.472656 1018.378906 706.117188 1021.425781 684 C 1022.921875 673.140625 1026.992188 663.054688 1027 652 C 1019.238281 657.128906 1018.214844 674.449219 1016.609375 683 C 1013.40625 700.113281 1011.746094 717.578125 1005.574219 734 C 1000.566406 747.328125 990 761.019531 988 775 M 773 667.539063 C 761.894531 670.046875 756.226563 684.8125 755.75 695 C 755.414063 702.191406 758.183594 710.503906 767 708.601563 C 778.535156 706.113281 784.4375 690.492188 784.894531 680 C 785.203125 673 780.921875 665.746094 773 667.539063 M 1171 668 L 1170 669 L 1171 668 M 672 737 C 694.746094 726.363281 697.234375 678 729 679.472656 C 737 680 742.894531 687 750 690 C 745.859375 672.730469 725.703125 670.730469 712 678.347656 C 693.96875 688.371094 677.351563 717.4375 672 737 M 334 676 L 333 677 L 334 676 M 468 696 C 468 708.789063 472.898438 720.769531 476 733 C 486 770.71875 497.390625 803.054688 534 822.253906 C 540.789063 825.816406 547.199219 830.21875 555 831 C 552.246094 823.269531 542.597656 820.328125 536 816.394531 C 525.671875 810.238281 516 802.316406 508.464844 793 C 492.839844 774 487.652344 749 480.34375 726 C 477.1875 716.097656 476.4375 703.039063 468 696 M 1034 696 C 1027.175781 704.304688 1025.652344 715.027344 1022.332031 725 C 1015.519531 745.464844 1009.417969 768 997.25 786 C 989.640625 797.296875 978.53125 807.035156 967 814.1875 C 959.417969 819 948 822.617188 944 831 C 955.308594 830.507813 964.871094 823.761719 974 817.667969 C 1004 797.613281 1017.359375 767.003906 1025.871094 733 C 1028.285156 723.359375 1037.878906 705.503906 1034 696 M 617 733 C 617 762.730469 605.945313 784.214844 597.433594 812 C 586.949219 846.234375 582.480469 882.464844 594 917 C 599.578125 933.726563 610.984375 958.515625 628 966 C 625.464844 955.335938 613 945.773438 607.425781 936 C 597.25 918.21875 592.480469 898.296875 591 878 C 588.546875 841 606.355469 807.675781 615.847656 773 C 618.691406 762.613281 626 741.632813 617 733 M 875 967 C 886.269531 961.152344 892.796875 948.636719 898.851563 938 C 923.277344 895.085938 910.945313 844.761719 899 800 C 894.828125 783.582031 891.863281 766.804688 889.574219 750 C 889.347656 748.308594 889.296875 734.296875 887.285156 735 C 884.726563 735.714844 886 746 886 748 C 886 762.230469 889.394531 776.222656 892.652344 790 C 902.292969 830.734375 916.933594 872.171875 903.972656 914 C 900.386719 925.574219 895 937 888.253906 947 C 883.679688 953.722656 877.351563 959.007813 875 967 M 1068 752 L 1067 753 L 1068 752 M 669 836 C 676.941406 838.585938 688.65625 843.703125 695.785156 836.773438 C 701.796875 831 698.714844 818 710 818.269531 C 723.351563 818.605469 728.390625 836.503906 720.441406 846 C 710 858 676.640625 846.589844 669 836 M 827 838 C 819.988281 847.414063 788.941406 857.207031 780.84375 845 C 773.683594 834.125 780.21875 815.527344 794.984375 818.230469 C 803.398438 819.769531 801 830.566406 805.429688 836 C 811 842.71875 819.738281 839.066406 827 838 M 455 842 L 454 843 L 455 842 M 483 936 C 481.863281 945 481.667969 954.296875 478.976563 963 C 473.796875 979.730469 465.269531 995.433594 463 1013 C 467.539063 1010 469.921875 1002 472 997 C 478.167969 983.472656 484.445313 971 486.570313 956 C 487.4375 950 488.640625 940 483 936 M 1016 936 C 1011.8125 957.585938 1018 974.777344 1027.753906 994 C 1030.65625 999.808594 1033.429688 1008.363281 1039 1012 C 1036.449219 993.0625 1025.480469 976.539063 1021.519531 958 C 1020 951.488281 1022 940.191406 1016 936 M 747 939.300781 C 766.351563 936.542969 789.46875 955.296875 804 966 C 807.785156 968.59375 819.832031 974.226563 819 980 C 818.523438 984.074219 811.203125 985.71875 808 987 C 795.398438 992.039063 782.492188 996 769 997.71875 C 746.261719 1000.78125 723.515625 997.160156 702 989.414063 C 697.234375 987.699219 685.332031 986 683.175781 980.789063 C 680.980469 975.492188 692.726563 970 696 967.523438 C 711 956.28125 727.617188 942.0625 747 939.300781 M 700 976 C 706.382813 980 714.832031 979.164063 722 980.664063 C 740.394531 984.519531 758.933594 990.5625 778 987.5625 C 787.21875 986.109375 796.769531 982.507813 800 973 C 787.480469 976.683594 778.925781 983.15625 765 981.828125 C 750.601563 980.460938 736.359375 977.5625 722 976 C 714.566406 975 707 973.003906 700 976 M 559 1123 C 558.886719 1081.167969 527.257813 1047.011719 508.78125 1012 C 504 1003.097656 499.847656 994 495.242188 985 C 494 982.773438 491.734375 977.136719 488.304688 978.347656 C 484.667969 979.628906 487.226563 985.691406 488 988 C 490.972656 996.816406 495.808594 1005 500.230469 1013 C 513.964844 1038.257813 531.535156 1061.152344 544.242188 1087 C 549 1097 551 1116 559 1123 M 942 1120 C 949.597656 1115.605469 953.460938 1093.382813 957.308594 1085 C 969.253906 1059 989.195313 1038 1003 1013 C 1007.496094 1005.242188 1012.183594 997.433594 1015 989 C 1016 986.402344 1018 981 1014.722656 979.175781 C 1011.433594 977.511719 1009.308594 983 1008.308594 985 C 1004 994.199219 999.683594 1003.203125 994.574219 1012 C 974.714844 1046.203125 942.863281 1078.082031 942 1120 M 600 1097 C 614 1090.449219 620.9375 1071.066406 627.257813 1058 C 636 1040 647.578125 1023 665 1012.066406 C 672.78125 1007.230469 681.820313 1003.796875 691 1003.089844 C 692 1003.011719 699 1003.195313 697.652344 1000.59375 C 696.3125 998.105469 690.269531 999 688 999 C 677.515625 999.046875 666.972656 1002 658 1007.464844 C 633.921875 1022.125 623.933594 1049.089844 611.878906 1073 C 607.816406 1081.0625 600.839844 1087.660156 600 1097 M 801 1003 C 831.796875 1003.636719 858.199219 1025 871.214844 1052 C 877.960938 1066.03125 881.5625 1089.796875 897 1097 C 895.675781 1088.023438 890.289063 1081.246094 887 1073 C 877 1047.453125 867.324219 1022.152344 842 1008 C 833.574219 1003.128906 808.410156 992.46875 801 1003 M 652 1076 C 665.292969 1070.265625 671.617188 1057.054688 679.894531 1046 C 694.808594 1026.082031 712.441406 1012.769531 738 1016 C 732.339844 1004.515625 714.449219 1009.480469 705 1013.066406 C 685.644531 1020.414063 675.71875 1039 664.652344 1055 C 659.917969 1062 654 1067.65625 652 1076 M 769 1015 C 785.949219 1015.046875 801.570313 1020.324219 812.332031 1034 C 822 1046.480469 828.238281 1065.34375 843 1073 C 841.726563 1066 836.964844 1060.179688 833.425781 1054 C 824.402344 1038.234375 816.714844 1021.476563 799 1014 C 791.25 1010.546875 774 1005.648438 769 1015 M 746 1021 C 746.757813 1035.699219 744.992188 1050.320313 745 1065 C 745 1067.515625 744.167969 1079 748.914063 1078.078125 C 753 1077.347656 752.179688 1068.023438 752.574219 1065 C 753.964844 1054.414063 751.972656 1043.472656 750.421875 1033 C 749.773438 1028.613281 749.871094 1023.703125 746 1021 M 883 1141 C 881 1130.546875 872.296875 1122.785156 868.464844 1113 C 862.261719 1097.164063 861 1079.464844 857 1063 C 856.386719 1060 852.789063 1040.066406 847.558594 1042.347656 C 845.402344 1043.285156 846.175781 1047.289063 846.464844 1049 C 847.601563 1055.734375 849.542969 1062.359375 851 1069 C 856.558594 1092 859.179688 1128.640625 883 1141 M 612 1141 C 619.34375 1139 624 1131.367188 627.558594 1125 C 636.890625 1108.320313 639.238281 1088.398438 643.210938 1070 C 644 1066 650.386719 1046.78125 646.402344 1044.175781 C 641.726563 1041.117188 637.546875 1062.199219 636.882813 1065 C 632.949219 1081.605469 631.222656 1099 625.304688 1115 C 621.902344 1124.246094 615 1131.519531 612 1141 M 727 1068 C 727.230469 1096 743.503906 1126.355469 728.652344 1153 C 721.40625 1166 702.980469 1168.828125 697 1181 C 739 1179.074219 743.175781 1130.003906 737.195313 1099 C 735.652344 1091 734.375 1072.292969 727 1068 M 770 1068 C 762.828125 1072.078125 763 1083.683594 761.601563 1091 C 757.246094 1112.808594 751.972656 1139.171875 765.359375 1159 C 770.921875 1167.238281 779.328125 1171.464844 788 1175.753906 C 790 1176.796875 794.925781 1180 797.246094 1178 C 799.730469 1175.789063 794.304688 1173 792.996094 1172.234375 C 785.945313 1168.222656 778.710938 1164.171875 773.300781 1158 C 751.28125 1132.792969 769.921875 1097 770 1068 M 535 1109 L 536 1110 L 535 1109 M 849.878906 1120.175781 C 846.671875 1123.339844 846.28125 1136.34375 844.65625 1141 C 839.640625 1155.355469 830.449219 1167.277344 824.3125 1181 C 823.214844 1183.457031 821 1192.21875 826.925781 1189.109375 C 831.328125 1186.78125 834 1180.226563 836.242188 1176 C 842.605469 1163.496094 847.59375 1150.824219 850.195313 1137 C 850.558594 1135.074219 851.792969 1118.289063 849.878906 1120.175781 M 678 1190 C 675.628906 1177.699219 664.707031 1166.667969 659.863281 1155 C 655.285156 1144 656.507813 1134.496094 657 1123 C 649.917969 1126.703125 650.988281 1135.050781 651 1142 C 651 1158.316406 661.925781 1183.691406 678 1190 M 755 1158 C 750 1171.214844 753 1191.492188 767 1198 C 765.558594 1187.300781 761.703125 1166.390625 755 1158 M 732 1198 C 744.59375 1189 744.765625 1173 743 1159 C 734.792969 1164.171875 732 1188.804688 732 1198 "/>
</g>
</svg>
