<?xml version="1.0" encoding="UTF-8"?>
<svg xmlns="http://www.w3.org/2000/svg" xmlns:xlink="http://www.w3.org/1999/xlink" width="1500pt" height="1500pt" viewBox="0 0 1500 1500" version="1.1">
<g id="surface1">
<path style=" stroke:none;fill-rule:nonzero;fill:rgb(0%,0%,0%);fill-opacity:1;" d="M 455 1022 C 447.679688 1022 429 1017.765625 429 1030 C 429.214844 1034.421875 432.320313 1038 433.324219 1042 C 434 1045 432.824219 1048.140625 434.644531 1050.789063 C 437.226563 1054.550781 444.207031 1055.464844 445.652344 1060 C 447 1064.339844 433.601563 1066 434.285156 1073 C 434.824219 1078.613281 440.527344 1080.8125 443.242188 1085.089844 C 445.792969 1089.105469 442.453125 1092.785156 443.835938 1096.816406 C 445 1100.589844 450.515625 1101.382813 451.539063 1105.144531 C 453.8125 1113.5 432.570313 1113.613281 442.230469 1125 C 457.300781 1142.664063 482.46875 1150.136719 497.453125 1168.15625 C 501.175781 1172.628906 498.320313 1177.167969 500.703125 1182 C 503 1187 509 1189.375 510.667969 1194.828125 C 512.542969 1201.109375 507.703125 1205 513.214844 1211 C 520.847656 1219.242188 534.628906 1217.019531 541.535156 1224 C 544.765625 1227.050781 537.523438 1230 540.464844 1233.40625 C 548.226563 1242.804688 563.902344 1243.488281 572.46875 1251.273438 C 575.195313 1253.753906 571.703125 1260.144531 574.515625 1264 C 577.214844 1267.625 581.503906 1268.664063 584.6875 1271.636719 C 592.761719 1279.179688 597.941406 1285.386719 609 1290 C 621.828125 1295.328125 635.242188 1297.5 649 1298.828125 C 655.949219 1299.503906 665.519531 1298.269531 672 1300.742188 C 680.632813 1304.035156 687.523438 1313.355469 696 1317.742188 C 714.699219 1327.410156 736.21875 1329.492188 757 1329 C 774 1328.570313 791 1325.65625 806 1317.128906 C 814.296875 1312.378906 820.902344 1304 830 1300.765625 C 838 1298 846.640625 1299.484375 855 1299 C 868 1298.015625 881.824219 1295.464844 894 1290.546875 C 905.714844 1285.816406 911.777344 1280 920.273438 1271.328125 C 923.203125 1268.351563 927.777344 1267.199219 930.257813 1263.785156 C 933.664063 1259.105469 930.527344 1253.664063 935 1249.183594 C 942 1242.273438 956.765625 1241.152344 962.34375 1233.582031 C 964.710938 1230.367188 960 1226.644531 962.597656 1224 C 969.203125 1216.550781 984 1218.605469 991.425781 1209.699219 C 995.402344 1205 992.273438 1200.257813 993.691406 1195 C 995.289063 1189.074219 1001.5625 1186.429688 1003.90625 1181 C 1006 1176 1003.671875 1171.734375 1007.484375 1167.039063 C 1022.214844 1149 1050.390625 1144.132813 1062.96875 1124 C 1069.691406 1113.230469 1051 1113 1053.347656 1105.089844 C 1054.339844 1101.570313 1059 1100.511719 1060.382813 1097 C 1061.871094 1093 1058.953125 1089 1061.527344 1085 C 1064 1081 1069.21875 1078.175781 1069.714844 1073 C 1070.421875 1065.554688 1057 1064.117188 1057.78125 1060.476563 C 1058.777344 1055.40625 1067.695313 1054.554688 1069.878906 1050 C 1071.171875 1047.144531 1069.664063 1044 1070.289063 1041 C 1071.230469 1036.613281 1074.75 1032.765625 1073.667969 1028.015625 C 1071.300781 1017.636719 1054 1021.296875 1047 1023 C 1055.914063 1014.089844 1070.222656 1006.460938 1075.933594 995 C 1078.660156 989.535156 1074.324219 984.34375 1077 979 C 1081.3125 970.441406 1092.1875 964.046875 1093.550781 954.015625 C 1094 950.683594 1091.304688 949 1090.976563 946 C 1090.667969 943.054688 1092.875 940.238281 1094.355469 938 C 1098.328125 932 1103.230469 926.523438 1103.8125 919 C 1104.371094 911.738281 1098.714844 907.605469 1092 910.363281 C 1089.582031 911.355469 1087.3125 912.785156 1085 914 C 1091.59375 878.488281 1062.378906 850 1072.722656 815 C 1075.78125 804.679688 1082 796 1085.296875 786 C 1086.605469 782.054688 1085 777.78125 1087 774 C 1090.570313 767.410156 1098.902344 764 1101.761719 757 C 1104.226563 751.066406 1093.34375 747 1097.890625 740.648438 C 1103.90625 732.40625 1117 733 1122.542969 722 C 1124.625 717.792969 1122.773438 713.351563 1124 709 C 1126.652344 700.820313 1131.675781 693.496094 1133.480469 685 C 1134.300781 681.152344 1131.574219 675 1133.617188 671.804688 C 1137 666.640625 1144.839844 663.351563 1150 660.1875 C 1162.195313 652.71875 1175.1875 645.03125 1180.53125 631 C 1184.578125 620.382813 1182.492188 609 1181 598 C 1178 576.390625 1170.996094 553.644531 1170 532 C 1167.449219 473.347656 1197.621094 419.445313 1186 360 C 1182.242188 340.785156 1175.175781 323 1170.476563 304 C 1167.761719 293.078125 1168.429688 282.039063 1166.726563 271 C 1160.367188 229.820313 1137.988281 167 1086 174.429688 C 1040.625 181 1012.667969 219.101563 988.28125 254 C 962.945313 290.253906 937.523438 325.476563 919.304688 366 C 907.828125 391.535156 900.257813 420 880.828125 441 C 872.769531 449.71875 859.5625 450.1875 852.417969 458.214844 C 846.4375 465 851 477.117188 841.980469 481.683594 C 837.484375 484 831.839844 482.710938 827 483.171875 C 814 484.402344 801 484 788 484 C 774.28125 484.003906 760.804688 486.324219 747 486 C 727 485.496094 706.953125 483 687 482.039063 C 678.976563 481.6875 670.988281 483.824219 663 483.230469 C 652.988281 482.488281 653.578125 467.40625 648.605469 461 C 634 442.195313 613.90625 432.25 602.753906 410 C 590 384.613281 580.257813 358.078125 566.691406 333 C 552.726563 307.183594 535.582031 283.375 519.332031 259 C 507.566406 241.347656 496.425781 222.585938 481.910156 207 C 456.679688 180 407.457031 164.832031 374 187.105469 C 362.382813 195 356 207.433594 351.203125 220 C 341.882813 243.738281 336 268.824219 332.710938 294 C 330.765625 308.449219 324.574219 322 320.882813 336 C 314.746094 359.351563 311.980469 383 313 407 C 314.699219 445 331.542969 481 331.996094 519 C 332.285156 543.285156 326.863281 566.1875 322.921875 590 C 320.605469 604 317.503906 619.40625 323 633 C 331.1875 652.683594 356.84375 654.148438 367.890625 671 C 371.882813 677.089844 371 684.183594 372.679688 691 C 374.179688 697.582031 377.988281 703.433594 379.472656 710 C 380.429688 714.246094 379.179688 719.007813 381.179688 723 C 386.273438 733.171875 399.285156 733 405.257813 741.214844 C 410.351563 748.273438 399 750.4375 401.476563 757.003906 C 404.273438 764.480469 412.199219 768.433594 416.257813 775 C 418.535156 778.683594 417.589844 783.035156 418.964844 787 C 421.488281 794.257813 426 800.578125 428.277344 808 C 431.386719 818.304688 435.253906 830.132813 433.699219 841 C 431.464844 856.65625 421.542969 869.777344 417.898438 885 C 416 892.714844 420 905 417.226563 911.550781 C 415.464844 915.5625 402.367188 905 399.433594 915.042969 C 396 926.605469 408.578125 933.449219 411.714844 943 C 413.167969 947.433594 408.75 950.589844 410 955 C 412.617188 963.679688 422 969.398438 426.515625 977 C 430.40625 983.597656 424.5625 988.816406 427.472656 995 C 432.644531 1006 446.554688 1013.625 455 1022 M 1104 563 C 1120.519531 557 1131.703125 570.105469 1138.21875 584 C 1145.242188 599 1146.8125 620.640625 1137.449219 635 C 1134.375 639.710938 1129.785156 642.09375 1126 646 C 1154.304688 638 1158.195313 604 1148.929688 580 C 1146.191406 573 1137.339844 565.78125 1137.359375 558 C 1137.371094 553.476563 1141.925781 550.328125 1144.390625 547 C 1148.71875 541.15625 1150.992188 534.078125 1155 528 L 1156 528 C 1156 551 1162.265625 574.40625 1166 597 C 1167.796875 607.15625 1171.367188 619.394531 1165.773438 629 C 1158.359375 641.730469 1139.378906 649.382813 1127 656.421875 C 1117.402344 662 1106.960938 665.585938 1096 667 C 1098.925781 658.175781 1107.261719 652.050781 1113 645 C 1106 648 1099.425781 649.601563 1092 651 L 1092 650 C 1103.839844 646 1112.519531 636.371094 1122 628.617188 C 1126.519531 625 1132.222656 622.410156 1136 618 C 1113.996094 619.738281 1093.957031 630.265625 1072 632 C 1078.972656 618.667969 1096.761719 615 1105 602 C 1088.800781 603.621094 1075 614 1058 614 C 1062.402344 603.484375 1070.585938 596.140625 1077 587 C 1071.226563 588.324219 1065.984375 590 1060 590 C 1067 580 1071.410156 573.574219 1073 561 C 1066.679688 565 1061.289063 570 1054 572 C 1056.746094 564.738281 1061.425781 558.617188 1063.570313 551 C 1066.367188 541.074219 1065 532.046875 1065 522 L 1063 522 C 1061.988281 534.710938 1056.847656 546 1051 557 L 1050 557 C 1050.488281 545.75 1055.558594 535.152344 1057 524 C 1046 534.6875 1040.847656 545.71875 1024 548 C 1028.398438 538.746094 1036 531.605469 1039.984375 522 C 1040.796875 520.011719 1043.933594 514 1041.304688 512.238281 C 1038.636719 510.53125 1030.300781 514.710938 1027 515 C 1032.203125 508.605469 1057.203125 491.28125 1035 491.003906 L 1028 491 C 1031.203125 486.648438 1048.925781 476 1042.640625 469.652344 C 1038.828125 466 1028.65625 467.609375 1027 461.785156 C 1025.359375 455.695313 1033 451 1032.46875 445.015625 C 1031.320313 433.648438 1007.65625 439.398438 1001 441 C 1004.464844 433.71875 1010.289063 428.429688 1017 424.089844 C 1019 422.703125 1024.945313 420.527344 1024.945313 417.390625 C 1024.945313 411.640625 1004.21875 415.59375 1001 416 L 1001 415 C 1009.988281 411.125 1018.179688 405.398438 1027 401.109375 C 1032 398.65625 1038.171875 397.15625 1042 393 C 1012.902344 393 980.6875 409 972 439 C 979.644531 434.757813 986.648438 430 995 427 C 987.292969 447.335938 974.476563 463 974 486 C 986.976563 473 996.988281 456.398438 1016 452 C 1010.464844 464.664063 998.742188 473.492188 992.785156 486 C 991.703125 488.269531 986.992188 498 990.617188 499.582031 C 994.558594 501.425781 1006.660156 493.242188 1011 492 C 1005.640625 501.40625 997.566406 508.546875 994 519 C 1000.433594 514.421875 1007.476563 512.132813 1015 510 C 1010.226563 520.035156 1000 526.65625 996 537 C 1002 534.320313 1008.402344 532.523438 1015 532 C 1009.621094 542.367188 998.304688 549.140625 990 557.039063 C 987.371094 559.539063 983.300781 565.160156 979 563.742188 C 970.71875 561 960.753906 543.546875 954.828125 537 C 934.519531 514.550781 900.839844 476.683594 868 476 C 876.382813 483.722656 884.21875 492.546875 893 499.773438 C 904.453125 509.195313 915 507.6875 908 526 C 916.3125 523.542969 924.644531 525.820313 932 530 L 932 531 L 925 534 C 934.621094 539.613281 946.949219 543.175781 952 554 L 944 554 C 950.527344 559.363281 959.730469 561.285156 965 568 C 959 569.660156 952.511719 570.625 948 575 C 955.628906 576 964.792969 576 971 581 C 966 583.160156 960.847656 584.144531 957 588 C 966.304688 588 974 589.117188 983 592 L 983 593 C 977.601563 594.292969 973.417969 596.574219 970 601 C 975.308594 599.429688 991.210938 598.414063 992.621094 606.105469 C 993.261719 609.570313 988.464844 613.214844 990 616.195313 C 992.617188 621.09375 1003 622.570313 1007 628 L 1003 628 C 1007.734375 634.71875 1014.328125 640 1019.828125 646 C 1031 658.496094 1043.207031 673.570313 1058 682 C 1042 664.71875 1030 644 1017.8125 624 C 1015.320313 620 1005.214844 608.210938 1007.253906 603.390625 C 1008.675781 600.023438 1014.925781 598.441406 1018 597.199219 C 1028.269531 593.054688 1038.511719 588.550781 1049 585 C 1047.351563 587.339844 1029.9375 605 1041 605.292969 C 1044.921875 605.4375 1049.289063 602.070313 1053 601 L 1053 602 C 1050.84375 603.519531 1048.902344 605.0625 1047 607.019531 C 1033.835938 621.425781 1051.242188 625 1063 625 L 1063 626 C 1053.917969 632.585938 1052.351563 643.46875 1066 646.453125 C 1071.261719 647.601563 1076.925781 645.160156 1082 644 L 1082 645 C 1078.214844 647 1066.949219 650.527344 1065.207031 654.453125 C 1063 659.054688 1078.316406 662 1081 662 L 1081 663 C 1070.785156 667.183594 1076.925781 673.066406 1085 676.035156 C 1092.609375 678.832031 1100.414063 676.566406 1108 675 L 1108 676 C 1106 677.046875 1104 678.152344 1101.996094 679.113281 C 1100.683594 679.730469 1099.285156 680.210938 1098 681 C 1084.199219 688.40625 1114.722656 687.546875 1114.628906 693.144531 C 1114.320313 711 1081.230469 715.019531 1069 719 L 1069 720 C 1081.820313 720 1094.261719 717.261719 1107 717 C 1100.324219 726.253906 1088.773438 728 1079 732.488281 C 1070.910156 736.292969 1064.746094 742.53125 1060 750 C 1061.988281 749.148438 1079.257813 740.585938 1078 748.042969 C 1077.261719 753.21875 1065.703125 755.648438 1062 758.53125 C 1054.539063 764.382813 1051.734375 773.070313 1050 782 C 1054.265625 777.367188 1058 772.097656 1064 769.535156 C 1065.453125 769 1070.375 767.117188 1070.167969 770.320313 C 1069.925781 774.085938 1065.222656 778.230469 1063 781 C 1057.507813 788 1051.480469 794.402344 1049 803 C 1054.476563 801.253906 1058.832031 797.445313 1064 795 C 1060.175781 811 1053.523438 828.617188 1056.285156 845 C 1058.996094 861.070313 1071.285156 879.464844 1068.785156 896 C 1067.75 903 1061.742188 908.582031 1057.859375 914 C 1051.710938 922.582031 1046.890625 930.8125 1044 941 C 1054.824219 930.324219 1061.722656 914.417969 1074 905 C 1073.261719 914.363281 1070 923 1068 932 C 1074 930.546875 1079.660156 927.554688 1086 927 C 1079.675781 941.382813 1062.507813 947.113281 1056 962 C 1062.714844 959.246094 1068.652344 957.0625 1076 957 C 1070 970.53125 1054.230469 974.5 1047 987 C 1052.191406 987.015625 1056.976563 987.699219 1062 989 C 1051.9375 1003.285156 1035.355469 1008 1021 1016.453125 C 1005.78125 1025.503906 993.191406 1038.285156 981 1051 C 970 1062.542969 962.753906 1076.613281 954.320313 1090 C 939.488281 1113.542969 924.203125 1137.78125 904.910156 1158 C 898 1165.082031 889 1171.816406 880 1175.546875 C 870.503906 1179.425781 858.449219 1180.523438 853.574219 1191 C 850 1198.632813 856.867188 1205.375 859.636719 1212 C 862 1218 861.859375 1227.765625 860.660156 1234 C 859.753906 1238.695313 855.464844 1242.300781 855 1247 C 854.601563 1252 858 1255.125 855 1260 C 848.414063 1271.101563 834 1271.222656 839 1287 C 834.28125 1287 829.566406 1286 825 1287.550781 C 811 1292.339844 802 1305.808594 788 1310.640625 C 765.183594 1318.511719 726.824219 1317.226563 705 1307 C 696 1302.6875 690.347656 1294.757813 682 1290 C 677.972656 1287.695313 672 1289.386719 668.601563 1286.683594 C 665.464844 1284.261719 667.804688 1278.253906 665.445313 1275 C 661 1268.792969 653.640625 1265.429688 649.746094 1259 C 646.976563 1254.425781 650.574219 1251.140625 649.867188 1246.574219 C 648.339844 1236.703125 642.171875 1231.222656 643 1220 C 643.902344 1210.117188 656 1200.0625 650.847656 1190 C 645.644531 1180 633.296875 1178.6875 624 1174.5625 C 614.347656 1170.277344 605.59375 1163.253906 598.171875 1155.828125 C 564.171875 1121.832031 547.363281 1074 511 1042.28125 C 496.394531 1029.578125 482.773438 1018.316406 466 1008.574219 C 459.699219 1005 446.914063 999.253906 444.175781 992.054688 C 441.789063 985.785156 455.832031 987 459 987 C 451.757813 979.492188 443.832031 973.507813 436 966.699219 C 434.457031 965.355469 428.441406 960.5625 430.832031 958.042969 C 433.945313 954.753906 444.550781 961.015625 448 962 C 440.210938 949.320313 422.527344 940.652344 418 927 C 421 927.800781 431.667969 932.535156 434.210938 930.761719 C 437 928.785156 430.304688 910.75 430 907 C 441.382813 915.378906 448.929688 930 459 940 C 455.429688 930.792969 450.777344 922 444.765625 914 C 440.6875 908.664063 434 903.097656 433.421875 896 C 432.9375 891.054688 435.867188 885.707031 437 881 C 440.457031 868.414063 445.851563 856 447.699219 843 C 450 826.5625 442.605469 811.578125 439 796 C 441.675781 797.011719 449.609375 803.523438 452.183594 801.746094 C 454.527344 800.132813 450.191406 794.398438 449.226563 793 C 443.546875 784.777344 434.90625 777.8125 432 768 C 441 769.371094 445.867188 776 453 781 C 450.621094 772.617188 448.265625 764.109375 440.984375 758.558594 C 437.191406 755.660156 425.753906 753.535156 424.921875 748.183594 C 423.785156 741 440.910156 749.132813 443 750 C 431.40625 731.753906 408 733.285156 396 717 C 408.441406 717 420.554688 720 433 720 L 433 719 C 421.914063 715 409 713.609375 399 707.035156 C 395.875 705 385.839844 695.539063 390 691.027344 C 392 688.828125 399 689.027344 402 688.347656 C 405.355469 687.554688 408.585938 686.503906 412 686 C 407.773438 681.425781 401.824219 679 396 677 L 396 676 C 403.210938 677 412 678.546875 419 675.636719 C 425 673.085938 432.214844 666.09375 422 664 L 422 662 C 424.820313 662 438.835938 659.484375 436.792969 654.542969 C 435.183594 650.648438 424.667969 647 421 645 L 421 644 C 426 645.167969 431.734375 648 437 646.347656 C 449.832031 642.628906 450.503906 631.488281 439 626 L 439 625 C 445.972656 625 463 625.707031 460.703125 614 C 459.628906 609 454.890625 605.121094 452 601 C 454 602 455.980469 603 458 603.675781 C 462.808594 605.648438 467.808594 604 465 598 C 462.578125 592.761719 457.3125 589.609375 454 585 C 464.683594 587.53125 474.851563 592.691406 485 596.800781 C 488.605469 598.257813 494.828125 600 496 604.183594 C 498 610.816406 488 620.011719 484.863281 625 C 472.238281 644.222656 460.621094 665 445 682 C 467 671.035156 484.246094 645.507813 501 628 L 496 629 C 499.675781 621.140625 508 622.0625 512.253906 616.296875 C 514.460938 613.289063 509.757813 609.5 510.710938 606.042969 C 512.886719 598.164063 527.179688 599.28125 533 601 C 529.597656 596.421875 525.488281 594.304688 520 593 L 520 592 C 529 589.046875 537.921875 589.160156 547 587 C 541.921875 584.296875 536.785156 582.265625 531 582 L 531 581 C 538.695313 576.160156 547 575.007813 556 575 C 551.410156 570.546875 544.21875 569 538 568 L 538 567 C 544.925781 563.144531 554.1875 559.25 560 554 L 552 554 C 555.367188 545.382813 563.933594 543 570.960938 538 C 575.523438 534.691406 571.65625 531.832031 574.464844 528.414063 C 578.859375 523.070313 589.945313 525 596 525 C 584.589844 508.234375 601.453125 507.828125 611 499.785156 C 619 493 625.632813 484.523438 633 477 C 602.527344 478.328125 571.992188 511.792969 553.285156 533 C 546.5 540.691406 539.289063 548.046875 532.804688 556 C 530.660156 558.628906 527.878906 563.363281 523.996094 563.363281 C 520 563.363281 516.65625 558.714844 514 556.425781 C 505.175781 548.820313 495.632813 541.699219 489 532 C 495.464844 532.515625 501.773438 534.246094 508 536 C 503.421875 526.320313 494.730469 519.496094 490 510 C 497 511.476563 503 515.027344 510 517 C 504.644531 509 498.3125 500.667969 494 492 C 500.882813 494 507.203125 497.6875 514 500 C 509.867188 480.039063 496.265625 469.371094 488 452 C 507 458.210938 513.777344 475.050781 529 486 C 526.214844 464 519.730469 447.351563 509 428 C 516.941406 429.371094 522.890625 434.636719 530 438 C 518 409.484375 491.515625 393 461 393 L 461 394 C 473.914063 400.027344 486.351563 410.066406 500 414 L 500 415 C 496.988281 415 494 415.011719 491 414.730469 C 488.8125 414.523438 478 413.597656 478 417.226563 C 478 420.597656 484.695313 423.03125 487 424.546875 C 493 428.515625 499.625 434.011719 502 441 C 495.34375 440.152344 471.496094 433.121094 470.964844 445.003906 C 470.703125 450.765625 478 456.132813 476.292969 462 C 474.265625 468.371094 463.429688 465 459.660156 469.652344 C 455.859375 474.460938 471.277344 486.132813 474 490 C 470 491.15625 463.460938 489.714844 460.371094 492.601563 C 454 498.464844 473.898438 511 477 515 C 471.398438 514.511719 466.484375 512 461 511 C 465 525.554688 473.683594 535.160156 481 548 C 464.582031 545.777344 457 535.738281 447 524 C 449 534.292969 452.167969 544.476563 453 555 C 444 548.152344 441 534.746094 441 524 C 425.394531 537.421875 443.804688 559 450 572 C 442.273438 569.363281 436.628906 564.527344 430 560 C 430.578125 573.46875 437.238281 579 443 590 C 437.5625 589.570313 432.246094 588.472656 427 587 C 430.359375 592.078125 446.222656 606 444.171875 612.394531 C 443 615.691406 435 612.667969 433 612.117188 C 421.171875 609 409.792969 604.320313 398 601 C 405.929688 614.683594 423 619.34375 432 632 C 409.34375 630.210938 388.847656 618.1875 366 618 C 376 628.484375 393.832031 645 408 649 L 408 650 C 402 649.738281 396.632813 647.832031 391 646 C 396.597656 653 403.394531 658.753906 407 667 C 388.417969 661.726563 371.492188 653.816406 355 643.796875 C 347.609375 639.308594 339 634.40625 335.613281 626 C 331.183594 615.113281 335.601563 602 337.574219 591 C 341.519531 569.140625 346 547.261719 346 525 L 347 525 C 349.710938 533 353.808594 540.3125 358.898438 547 C 360.957031 549.703125 366.554688 553.734375 366.695313 557.285156 C 366.941406 563.535156 356.914063 573 354.453125 579 C 344.175781 604.355469 348.503906 634.136719 376 646 C 369 638.148438 362.898438 629.371094 360.667969 619 C 355.1875 593.507813 369 561.019531 398 561 C 388.636719 539.300781 363.257813 529.136719 352.78125 507 C 344.378906 489.25 340.808594 469.054688 336.574219 450 C 330.578125 423.003906 324.625 396.800781 328.28125 369 C 331.496094 344.539063 343.285156 322.164063 346.714844 298 C 350 274.78125 355.578125 252.242188 363 230 C 367.261719 217.230469 373.414063 203.722656 386 197.273438 C 426.570313 176.488281 464.675781 206.59375 487 238 C 512.203125 273.035156 537.9375 308.628906 557.742188 347 C 572.847656 376.265625 581.425781 409.453125 601.375 436 C 608 445 615.539063 452.796875 624 460 C 628.976563 464.230469 635.5625 467.523438 639.296875 473.015625 C 644.777344 481.074219 642 495.453125 655 497 C 670.425781 498.613281 686.460938 495.632813 702 496.015625 C 715.703125 496.351563 729.308594 499.359375 743 500 C 761.433594 500.769531 779.613281 498 798 498 C 811 498 824 497 837 496.089844 C 843 495.671875 849.578125 496.804688 854.957031 493.121094 C 862.804688 487.742188 857.996094 477.394531 864 471.214844 C 875 460.273438 888.761719 455.117188 898.523438 442 C 918.816406 414.730469 927.894531 381.351563 942.320313 351 C 956.289063 321.609375 976.441406 295.332031 995.289063 269 C 1015.496094 240.777344 1035.550781 208 1069 194.011719 C 1074.726563 191.636719 1080.800781 189.789063 1087 189.171875 C 1134.804688 184.390625 1148.515625 245.054688 1153.425781 282 C 1157.503906 312.695313 1169.9375 341.335938 1173.714844 372 C 1176.902344 398 1172.238281 422.710938 1167 448 C 1163 467.308594 1159 487 1151 505 C 1140.421875 529.238281 1113.984375 539.023438 1104 563 M 428 542 C 422.394531 527.214844 409.582031 514.28125 402.257813 500 C 388 472.378906 378 442.558594 368.976563 413 C 363.46875 395.285156 356.640625 376.742188 356 358 C 355.34375 336.078125 367.289063 315 372 294 C 378.207031 267.53125 371.535156 233.515625 403 221 C 412.375 217.179688 422.390625 220.476563 431 224.808594 C 453 236 463.335938 258.644531 478.261719 277 C 503.933594 308.566406 524.9375 342.269531 544.308594 378 C 555.597656 398.824219 567.910156 423.578125 566.960938 448 C 565.832031 477 543.414063 499.367188 541 527 C 550.773438 520.535156 558 511 564.1875 501 C 572.550781 487.355469 580.246094 471.273438 580.960938 455 C 581.777344 436.386719 573.570313 418.707031 566.421875 402 C 552.308594 369.019531 534.949219 337.558594 516.1875 307 C 507.320313 292.554688 496.929688 279.140625 486.261719 266 C 464.855469 239.632813 444.867188 197.570313 403 205.46875 C 396.417969 206.710938 390.761719 210.460938 386 215.039063 C 362.761719 237.410156 371.503906 261.28125 364.871094 289 C 360 309.171875 350.207031 328.40625 347.285156 349 C 344.40625 369.296875 349.628906 389.152344 353.601563 409 C 360.441406 443.195313 364.84375 478.433594 386.652344 507 C 397 520.585938 410.539063 538 428 542 M 962 526 C 960.300781 516.429688 954.320313 507.742188 950.308594 499 C 943.171875 483.457031 936.273438 467.277344 935 450 C 933.59375 428.140625 944.242188 405.066406 953.753906 386 C 973.242188 347 996 311.707031 1023.914063 278 C 1038.960938 259.742188 1048.855469 236.347656 1071 225.246094 C 1079.941406 220.765625 1089.199219 217.296875 1099 221.117188 C 1130.667969 233.464844 1123.539063 268.816406 1129.898438 295 C 1135.589844 318.425781 1146 339.324219 1144.960938 364 C 1144.265625 380 1138.25 396 1133.71875 411 C 1124.628906 441.300781 1113.820313 472 1099.214844 500 C 1091.835938 514.210938 1080.628906 528.148438 1075 543 C 1086.328125 539.074219 1094.753906 530.34375 1102.996094 522 C 1135.75 489 1140.558594 451.617188 1148.425781 408 C 1151.835938 389.085938 1157.257813 370.355469 1154.710938 351 C 1152 330.710938 1142.671875 311.722656 1137.628906 292 C 1130.40625 263.738281 1140.269531 207 1095 205.039063 C 1057 203.503906 1041.808594 234.546875 1021.984375 260 C 996.710938 292.457031 975.289063 324.769531 955.691406 361 C 942.765625 385 929 410.046875 923.804688 437 C 918.878906 462.527344 927.714844 487.75 943.425781 508 C 948.828125 515 953.859375 522.128906 962 526 M 1044 314 C 1060 314 1075.820313 310 1092 310 C 1081.738281 298.0625 1053.273438 302.8125 1044 314 M 410 309 L 410 310 C 426.1875 310 441.886719 314 458 314 C 447.980469 300.511719 423.351563 301.410156 410 309 M 391 307 C 381.414063 313 376.921875 331.542969 375.429688 342 C 373.558594 355.085938 378.5625 369.613281 382.28125 382 C 389 404.671875 393.320313 430.679688 407.761719 450 C 415.714844 460.644531 427.371094 469.394531 440 473.644531 C 443.402344 474.789063 450 477.535156 453.378906 474.820313 C 456.808594 472 451 468 448.996094 466.429688 C 438.589844 458.792969 428.492188 451.421875 421.875 440 C 415.671875 429.285156 412.335938 417.351563 407.574219 406 C 399.433594 386.578125 389.226563 366.253906 387.171875 345 C 385.90625 332 390.894531 320 391 307 M 1112 308 C 1112 319.515625 1116.703125 330.441406 1115.910156 342 C 1114.390625 364.21875 1104.347656 384.738281 1096 405 C 1091.210938 416.667969 1088 429.085938 1081.546875 440 C 1075 451 1065.183594 459 1055 466.023438 C 1052.992188 467.441406 1046 472 1049.648438 475 C 1053 478 1060.550781 474.734375 1064 473.386719 C 1076.925781 468.332031 1088.578125 459.367188 1096.558594 448 C 1104.691406 436.421875 1107.707031 422.324219 1111.71875 409 C 1118.214844 387.433594 1128.71875 364.007813 1125.421875 341 C 1123.90625 330.433594 1120.78125 315 1112 308 M 439 325 L 439 326 C 424.441406 327.109375 441.828125 339.425781 447 342 L 447 343 C 445.210938 343.015625 429.667969 344.585938 433.832031 349 C 437.238281 352.367188 451 354.824219 456 356 L 456 357 C 453 357 435.207031 355.367188 435.207031 360.027344 C 435.207031 363.710938 448.234375 366.453125 451 367.277344 C 467.964844 372.335938 485.679688 378.640625 503 382 C 498.359375 370.003906 484.753906 359 472 357 L 472 356 C 479.398438 357 486.683594 358.582031 494 360 C 489.910156 352 475.792969 343.570313 467 342 L 467 341 C 474.410156 341.316406 481.527344 343 489 343 C 483.1875 335.421875 472.449219 329.414063 463 328 L 463 327 C 471.535156 328.148438 479.535156 331.75 488 333 C 477.933594 320.171875 455.503906 314.335938 440 315.828125 C 436 316.203125 426.332031 315.226563 424.175781 319.390625 C 421.269531 325.003906 436.363281 325 439 325 M 1012 334 C 1021.175781 332.421875 1029.621094 328.210938 1039 327 L 1039 328 C 1029.675781 329.605469 1018 335.140625 1014 344 C 1022 343.355469 1029.96875 341.035156 1038 340 L 1038 341 C 1027.660156 342.550781 1013.523438 350.324219 1009 360 C 1016 358.640625 1022.914063 357 1030 356 L 1030 357 C 1018.253906 358.761719 1002.824219 370.117188 1000 382 C 1016.972656 377.21875 1034 372.59375 1051 367.339844 C 1054.277344 366.320313 1065.320313 365 1066 360.738281 C 1067 355.296875 1049 357 1046 357 L 1046 356 C 1054.386719 354.761719 1062.742188 351.136719 1071 349 C 1066.886719 343.8125 1062.191406 344 1056 344 C 1059.660156 340.417969 1078.757813 327.585938 1065 326 C 1067.804688 325.167969 1079.953125 325.210938 1079 320.285156 C 1078.21875 315.449219 1065.503906 316.132813 1062 315.714844 C 1047.222656 314 1020.5625 320.648438 1012 334 M 1041 326.332031 C 1041.773438 326.332031 1041 326.832031 1040.667969 326.667969 L 1041 326.332031 M 1040 339 L 1039 340 L 1040 339 M 467 340 L 467 341 L 464 341 C 465.246094 340.316406 465.546875 340.25 467 340 M 442 376 L 442 377 C 454.871094 383.019531 468.816406 387 482 392.199219 C 493.207031 396.722656 503.300781 402.679688 515 406 C 506.785156 380.222656 465.988281 365.8125 442 376 M 987 406 C 1001.625 404.019531 1014.789063 394.355469 1028 388.308594 C 1038.640625 383.4375 1050.355469 381.710938 1061 377 C 1055.746094 372.015625 1047.789063 373 1041 373.003906 C 1020.414063 373.25 993.710938 385 987 406 M 647 511 C 650.246094 515.324219 658.863281 517.53125 664 519 L 664 520 C 658.253906 520.457031 648.652344 521.136719 645 526 C 649.238281 526 665.976563 526.574219 667.652344 521.695313 C 670 514.566406 651 511.535156 647 511 M 834 523 C 842.5 524.585938 851.394531 526.316406 860 527 C 856.167969 521.199219 846.429688 520.507813 840 520 L 840 519 C 846 518.097656 851.40625 515.296875 857 513 C 848.363281 509.378906 838.402344 515.714844 834 523 M 385 524 C 385.78125 539.207031 398.378906 554.136719 402.570313 569 C 404 574.078125 403.429688 583.035156 408 586 C 408.445313 564.441406 408.847656 535.128906 385 524 M 1098 585 C 1098.992188 572.527344 1102.636719 559.242188 1108 548 C 1112 540 1118.1875 533.265625 1119 524 C 1104.347656 531.140625 1096.492188 552 1094.714844 567 C 1094 572.21875 1093.292969 581.675781 1098 585 M 726 528 C 726.617188 542.363281 730.863281 555.761719 736.199219 569 C 738 573.703125 739.648438 580.125 744 583 C 743.417969 569.410156 738.519531 556.78125 734.425781 544 C 732.632813 538.40625 731.265625 531.230469 726 528 M 781 528 C 771.308594 544 762.390625 564.128906 762 583 C 772.597656 576.078125 776.730469 554.53125 779.847656 543 C 781 538.183594 783 532.789063 781 528 M 648 551 C 656.992188 547.589844 666.492188 539.8125 672 532 C 659.539063 529.066406 650.707031 539.710938 648 551 M 856 552 C 855.316406 544.210938 850.957031 537.367188 844 533.558594 C 842 532.488281 836.667969 530.011719 834.921875 532.640625 C 833.5 534.777344 836.613281 537.039063 838 538.101563 C 843.769531 542.414063 849.675781 549 856 552 M 749 542 C 751.3125 571.308594 750 599.65625 750 629 L 752 629 C 752.921875 607.539063 756.617188 587.777344 755 566 C 754.53125 558.015625 755 548.035156 749 542 M 826 543 C 828 550.367188 834.839844 567.703125 841 572 C 841 559.566406 839.195313 547.613281 826 543 M 663 572 L 664 572 C 668.183594 563.054688 674.292969 553.378906 677 544 C 665 546.398438 659.828125 561.273438 663 572 M 721 580 C 723.6875 589.820313 729.527344 598.089844 734.21875 607 C 736.21875 610.796875 737.394531 615.539063 741 618 C 738.28125 604 734.84375 587.183594 721 580 M 764 624 C 767.953125 621.03125 768.789063 614.484375 770.605469 610 C 774.621094 600.082031 781 591.300781 784 581 C 770.535156 587.410156 764.285156 610.210938 764 624 M 631 597 L 631 598 C 658.390625 614.003906 682.992188 634.527344 701 661 C 704 653.015625 694.839844 642.757813 690.195313 637 C 676.625 620.179688 653.824219 599.003906 631 597 M 801 662 C 806.757813 657.757813 810.347656 651.324219 815 646 C 823.695313 636.210938 832.976563 627.152344 843 618.753906 C 851 612 867.429688 605.503906 873 597 C 863.851563 597.800781 856.59375 603 849 607.574219 C 830.285156 619.230469 805 638.6875 801 662 M 520 654 C 527.511719 651.09375 533 644.550781 540 640.453125 C 545 637.464844 551 636.484375 555 632 C 547.976563 632.558594 540.816406 634.234375 534 636 C 543.339844 626.660156 557.933594 616.683594 564 605 C 543.390625 611.523438 520.96875 631.464844 520 654 M 939 605 C 947 617.15625 960.625 624.113281 969 636 C 961.839844 633.710938 955.488281 633 948 633 L 948 634 C 960.890625 639 971.335938 649.800781 984 654 C 979.773438 632.199219 962.21875 609.140625 939 605 M 703 625 C 705.21875 635.597656 713.199219 652.640625 723 658 C 720.539063 645.320313 715 631.308594 703 625 M 782 658 C 790.222656 653.011719 799.535156 635.402344 801 626 C 789.976563 631.144531 782.953125 646.328125 782 658 M 658 628 C 672.753906 649.191406 691.488281 666.371094 704.796875 689 C 710.394531 698.519531 713.453125 713.070313 725 717 C 725 711.601563 724.742188 706.28125 726 701 C 735.367188 718.777344 737 742.285156 737 762 C 741.867188 758.5625 740.980469 745.691406 741 740 C 741 719.441406 737.742188 691.246094 719 679 C 717 684.296875 717 689.40625 717 695 C 704.867188 676.601563 696 658.726563 680 643.015625 C 674 637.21875 666.25 630 658 628 M 844 628 C 820.652344 646.820313 801.785156 666.613281 789 694 L 788 694 C 788 692.007813 788 690 787.90625 688 C 786.308594 670.066406 771.640625 696.5625 769.699219 702 C 762.65625 721.722656 766 741.8125 764 762 C 768.332031 758.703125 767.378906 750.101563 767.949219 745 C 769.691406 729.507813 775.730469 715.148438 778 700 L 779 700 C 779 706.09375 779.523438 712 780 718 C 789.230469 713.660156 792.699219 702.359375 797.425781 694 C 806 678.726563 816 663 828 650 C 832.976563 644.746094 845.320313 636.105469 844 628 M 735 639 C 735.367188 647.46875 737.652344 657.21875 741 665 L 742 665 C 742 655.714844 742.808594 645.519531 735 639 M 420 643 L 419 644 L 420 643 M 520 677 C 526.722656 673.695313 530.226563 664.550781 535.285156 659.039063 C 541.332031 652.453125 549 649.230469 556 644 C 536.742188 640.796875 524.902344 662 520 677 M 1084 643 L 1083 644 L 1084 643 M 601 644 C 605.207031 649.738281 615.207031 652.804688 621 657.234375 C 635.398438 668.242188 643.585938 681.382813 647 699 C 638.84375 690.820313 632 678.308594 621 674 C 624.492188 686 637.804688 698 618 699.828125 C 615.347656 700.085938 612.660156 700 610 700 C 613.328125 705 620.988281 706 626 709 C 631.660156 712.136719 635.714844 717.277344 641 721 C 642 717.414063 642.703125 713.753906 643 710 C 649.363281 719.679688 654.617188 711.464844 654.960938 703 C 656 674.546875 628.890625 646.277344 601 644 M 859 711 L 860 711 C 860.390625 727.109375 872.273438 711.71875 879 708 C 883.511719 705.304688 890 704.386719 893 700 C 888.613281 699.183594 877.667969 700.804688 874.695313 697.398438 C 870.363281 692.429688 881.492188 678.230469 883 673 C 871.648438 678.796875 864.707031 690.109375 856 699 C 860 682.726563 866.769531 671.3125 880 660.464844 C 886.453125 655.171875 897.910156 651.257813 902 644 C 875.496094 647.570313 847.445313 674 848.59375 702 C 848.820313 707.507813 854.730469 722.605469 859 711 M 948 644 L 948 645 C 963.496094 653.488281 970 666.371094 983 677 C 981.453125 659.375 965.382813 644.757813 948 644 M 410 650 L 409 651 L 410 650 M 483 726 C 479.25 734.015625 476 743.085938 478.351563 752 C 481 762.804688 493.234375 771.382813 504 766 C 512.390625 761.804688 518 753.128906 523.800781 746 C 535.207031 731.734375 545 716.429688 559 704.285156 C 565.464844 698.617188 572.476563 693.234375 580 689.039063 C 584.902344 686.304688 590.945313 685 594 680 C 562.59375 684.636719 537 710.640625 519 735 C 513.894531 742.175781 502.53125 763.445313 491 757.679688 C 478 751.203125 489 734.816406 483 726 M 909 680 C 916.871094 689.183594 932.460938 693 942 701.289063 C 957.570313 714.832031 969.523438 732 982.210938 748 C 988.269531 755.695313 994.625 765.660156 1005 767.527344 C 1024 771 1035.898438 735.660156 1019 727 C 1019 735.214844 1022.601563 757.703125 1009.996094 758.664063 C 998.503906 759.539063 985.253906 735 979 727 C 962.578125 705.71875 937.402344 682.480469 909 680 M 643 709 L 642 710 L 643 709 M 584 710.4375 C 558.332031 714.441406 548.816406 730.171875 533.539063 749 C 530.199219 753.113281 519.636719 761.210938 519.636719 766.683594 C 519.636719 768.109375 533.832031 773.726563 536 777.003906 C 541.910156 785.488281 543.753906 796 550.667969 803.828125 C 565.945313 821.304688 592.949219 821 614 817.726563 C 625.617188 816 638.699219 812.15625 646.671875 803 C 657.71875 790.214844 654.566406 773.304688 648.800781 759 C 637.894531 732 616 705.441406 584 710.4375 M 986 768 C 981.738281 757 969.5625 746.777344 962.574219 737 C 956.625 728.683594 950.308594 721 941 716.269531 C 906.253906 699 878.40625 718 860.601563 748 C 850.226563 765.550781 843.496094 790.78125 861.171875 806.179688 C 870.410156 814.230469 883.253906 816.597656 895 818.269531 C 905.425781 819.757813 915.601563 820.480469 926 818.335938 C 937.753906 816 949.511719 810.175781 956.402344 800 C 966.503906 785.074219 964.855469 770.675781 986 768 M 621 735 C 603.402344 723.410156 585.21875 720 566 731.476563 C 559.734375 735.238281 554.921875 740.832031 549 745 C 559.667969 719.382813 606 703 621 735 M 955 745 C 949.363281 741.03125 944.992188 735.652344 939 732.09375 C 919.605469 720.570313 902.441406 723.734375 884 734 C 898.898438 705.355469 946.964844 717.15625 955 745 M 591 734.289063 C 613.628906 731.351563 637.625 756.570313 627.785156 779 C 623 790 610.25 796.078125 599 797.699219 C 567.675781 802.214844 539.277344 762.117188 571 741.546875 C 576.953125 737.6875 583.972656 735.203125 591 734.289063 M 906 734.300781 C 936.800781 730 963 769.28125 934 790.210938 C 928.214844 794.371094 921 796.796875 914 797.710938 C 908.511719 798.425781 903.242188 797.636719 898 796 C 862.550781 784.703125 871.269531 739.308594 906 734.300781 M 591 738.464844 C 560.953125 744 566.367188 792.308594 597 786.53125 C 626.441406 781 624 732.496094 591 738.464844 M 906 738.464844 C 875 744 884.402344 792 914 786.53125 C 943.949219 781.027344 938 732.722656 906 738.464844 M 925 748.828125 C 932.410156 749.175781 933.242188 763.28125 925 762.664063 C 917.347656 762.085938 917 748.457031 925 748.828125 M 607 749.609375 C 615 746.46875 619.285156 759.554688 611.890625 762.382813 C 604 765.335938 599.734375 752.519531 607 749.609375 M 694 751 C 689 770.050781 694.417969 811 668 815 C 669.28125 817.773438 672.71875 821 672.832031 824 C 673 833.003906 655.6875 840.101563 652 848 C 669.53125 844.332031 689.820313 829.363281 695.480469 812 C 698.8125 801.777344 698 790.589844 698 780 C 698 771.175781 700.605469 758 694 751 M 809 751 C 801.167969 793.15625 807 834.046875 853 849 C 849.53125 841.5625 830.855469 832.21875 831.769531 824 C 832 821 835.679688 818 837 815 C 815.859375 812.820313 816 783.703125 813.867188 768 C 813 763.003906 813.167969 754.175781 809 751 M 582 765 C 582.976563 770.25 583.769531 775.664063 584 781 C 574.875 777.453125 572 769.402344 582 765 M 898 765 C 898.234375 770.472656 899.519531 775.738281 901 781 C 891.882813 778.082031 887.742188 769.566406 898 765 M 466 769 C 466 810 455.488281 846.257813 448 886 C 454 882 456.242188 868.757813 458.808594 862 C 467.347656 839.523438 473 818.132813 473 794 C 473 786.109375 473.4375 774 466 769 M 1055 886 C 1051.214844 856.0625 1041.324219 827.191406 1037.714844 797 C 1036.875 790 1037 783.054688 1037 776 C 1036.992188 775.039063 1037.386719 769.328125 1035.246094 770 C 1033.414063 770.429688 1032.988281 774.523438 1032.660156 776 C 1031 783.03125 1030.191406 790.804688 1030 798 C 1029.621094 820.492188 1037.230469 843.109375 1044.691406 864 C 1046.984375 870.425781 1049.230469 882.0625 1055 886 M 960 773 C 956.679688 798.695313 937 810 913 811 L 913 810 C 928 808.8125 941.316406 802.332031 950.386719 790 C 954.277344 784.710938 955.816406 778.050781 960 773 M 545 774 C 551 792 568.371094 808.144531 588 809 L 588 810 C 571.734375 810 554.785156 803.8125 547.875 788 C 546 784 543.441406 778.390625 545 774 M 516 782 C 524.816406 813.367188 529.769531 873.820313 571 880 C 566.171875 873.4375 559.320313 868.640625 554.378906 862 C 545.441406 850 539.835938 836 534.679688 822 C 530.652344 811.101563 526.292969 788.296875 516 782 M 986 782 C 975.398438 805.800781 969.277344 832.480469 956 855 C 950.683594 864.3125 941 870.261719 935 879 C 965.734375 874.394531 974.339844 836 981 811 C 983.496094 802.441406 989.703125 790.820313 986 782 M 552 914 C 590.523438 914 630.894531 883.003906 644 847 C 634.464844 851.25 629 860.757813 621.960938 868 C 610.863281 879.304688 597.476563 889.617188 584 898 C 575.835938 903 557 906.511719 552 914 M 861 847 C 862.851563 857.371094 871.652344 866.234375 878.273438 874 C 897.472656 896.515625 921.304688 914 952 914 C 946.503906 906 926.628906 903.367188 918 897.644531 C 896.582031 883.433594 881.824219 861.664063 861 847 M 489 852 C 486.378906 863.335938 483.570313 877.519531 474.957031 886 C 468.777344 892 460.332031 894.71875 453 899 L 453 900 C 467 900 485.632813 895.230469 490.214844 880 C 492.984375 870.796875 491 861.40625 491 852 L 489 852 M 1013 852 C 1012.59375 861.5 1010.855469 870.636719 1013.773438 880 C 1018.503906 895.15625 1035.675781 900 1050 900 L 1050 899 C 1040.929688 893.703125 1029.753906 889.78125 1024.417969 880 C 1019.519531 871.027344 1021.242188 859.066406 1013 852 M 665 880 C 662.710938 891.8125 659.855469 904.726563 653.289063 915 C 650.203125 919.820313 644.867188 922.273438 642 927 C 647.542969 928.074219 653.636719 930.035156 658.894531 927 C 670.3125 920 667 891.390625 667 880 L 665 880 M 837 880 C 837 893.277344 835.234375 909.777344 841.558594 922 C 843.847656 926.398438 853.832031 932.621094 858.339844 927.398438 C 861.550781 923.671875 853.761719 918 851.996094 915 C 845.371094 904.332031 847.4375 888.195313 837 880 M 851 1045 L 852 1045 C 852 1024 845 1004.738281 835.753906 986 C 830.433594 975.355469 822.730469 964.597656 819.761719 953 C 815.929688 938.042969 827.957031 923.507813 826 908 C 815.597656 915.097656 809.894531 941.105469 811.175781 953 C 812.777344 968 824.371094 982.25 831.574219 995 C 840.789063 1011.308594 846.648438 1027 851 1045 M 678 909 C 679.769531 923 688 938 684.984375 952 C 682.339844 964.058594 674.699219 974.140625 669.269531 985 C 659.820313 1004 652 1024.613281 652 1046 L 654 1046 C 655.546875 1010.03125 690.464844 985 692.910156 950 C 693.699219 938.703125 689 914.429688 678 909 M 705 973 L 706 973 C 714.292969 958.789063 721.953125 941.707031 722 925 C 710.753906 932.367188 705.542969 960.378906 705 973 M 782 925 C 782 937.566406 786.535156 948.738281 791.691406 960 C 793.664063 964.304688 794.90625 969.320313 799 972 C 798.695313 957.160156 793.914063 935 782 925 M 559 950 C 561.285156 953.347656 565.304688 954.347656 569 955.796875 C 573.769531 957.671875 580.820313 961.117188 585.996094 959.242188 C 590.941406 957.453125 593 952.089844 595.699219 948 C 600.535156 940.496094 607 934.019531 611 926 C 601.820313 929 596 937.640625 588 942.519531 C 579.84375 947.429688 568.320313 948.796875 559 950 M 893 926 C 896.433594 935.054688 904 942 909.300781 950 C 911.371094 953.191406 913 958.050781 917 959.351563 C 921.25 960.746094 926.96875 957.257813 931 956.152344 C 935.726563 955 941 954.320313 944 950 C 934.855469 948.226563 924.277344 947.648438 916 943.09375 C 907.566406 938.457031 901.777344 930 893 926 M 621 933 C 612.9375 941.0625 599 952.234375 599.472656 965 C 599.753906 973 605 980.433594 609 987 L 610 987 C 610.492188 975.566406 612 963.777344 616 953 C 618.3125 947.019531 623.628906 939.449219 621 933 M 882 933 C 882.800781 951.339844 893.988281 967.34375 894 986 C 915.183594 971.675781 899.46875 942.0625 882 933 M 455 949 C 455.316406 963.800781 469.789063 973 483 976 C 477.628906 967 464 954.285156 455 949 M 1021 975 C 1034.519531 974.304688 1047 962.226563 1049 949 C 1039.34375 953.503906 1027 966.28125 1021 975 M 932 977 C 953.546875 975.121094 985.933594 962.097656 994 993 C 995.441406 998.183594 995 1003.6875 995 1009 C 1004.445313 999.226563 998.34375 980.125 988.960938 972.390625 C 974.539063 960.507813 943.457031 961.480469 932 977 M 516 1022 C 514.726563 1015.824219 512 1009.355469 512.179688 1003 C 512.253906 980.070313 540 976.222656 557 981.75 C 562.914063 983.6875 567.882813 987.820313 574 989 C 565.796875 963.304688 524.8125 960.421875 508.46875 979.089844 C 496.714844 992.511719 498.839844 1014.453125 516 1022 M 460 971 C 463 983.042969 478.523438 990.0625 490 991 C 484.835938 980.808594 470 975 460 971 M 1014 990 C 1025.828125 989.746094 1040.429688 983.019531 1044 971 C 1033.675781 974 1020.84375 981.710938 1014 990 M 629 978 C 608.5 991.832031 605 1010.542969 605 1034 C 609.492188 1031.054688 610.886719 1025 612.679688 1020 C 616.25 1010.347656 620 1001.210938 624.753906 992 C 626.84375 987.816406 630.398438 982.742188 629 978 M 873 978 C 876.792969 991.164063 885.242188 1003 889.667969 1016 C 891.652344 1022 893.601563 1030.464844 899 1034 C 899 1010.292969 897.199219 989.449219 873 978 M 748 985.425781 C 720.46875 989.039063 688.234375 990.273438 671 1016 C 656 1038.566406 661.757813 1075.171875 679.183594 1095 C 690 1107.371094 705 1115.03125 720 1121.421875 C 732.714844 1127 744.949219 1131.570313 759 1130 C 785 1126.632813 816.796875 1110.726563 830.933594 1088 C 846 1063.652344 847 1027.539063 825.824219 1006.171875 C 815.339844 995.601563 800.308594 990.308594 786 987.609375 C 773.796875 985.308594 760.382813 983.800781 748 985.425781 M 528 1025 C 525.515625 1016.152344 527.664063 1010.554688 530 1002 L 531 1002 C 533.453125 1018.621094 541 1036.617188 547.71875 1052 C 563.316406 1088.175781 583.59375 1124.277344 612 1152 C 619.769531 1159.566406 628.949219 1166.507813 639 1170.769531 C 645.378906 1173.472656 655.394531 1174.710938 659.355469 1181.042969 C 661.6875 1184.769531 661.863281 1198.804688 660.257813 1203 C 658.964844 1206.355469 655.617188 1208.394531 654.894531 1212.039063 C 652.769531 1222.71875 655 1237.554688 657.664063 1248 C 661 1261.609375 673.273438 1267.507813 683 1276.175781 C 693 1285.226563 702.671875 1295.566406 715 1301.730469 C 725.894531 1307.175781 736.246094 1306.523438 748 1307.039063 C 760.867188 1307.601563 773.632813 1309.582031 786 1304.546875 C 797.351563 1300 806.765625 1291.226563 816 1283.425781 C 834.308594 1268 848.382813 1257.296875 850.828125 1232 C 852.242188 1217.394531 845.316406 1207.585938 844.984375 1194 C 844.871094 1189.308594 842.484375 1183.339844 846.316406 1179.558594 C 850.6875 1175.242188 858.507813 1174.691406 864 1172.382813 C 872.699219 1168.730469 880.980469 1163.09375 888 1156.824219 C 919.230469 1129 940 1085.777344 956.859375 1048 C 963.183594 1033.695313 971.667969 1018 972 1002 C 978.304688 1009.691406 977.792969 1015.75 976 1025 C 994.882813 1016.671875 984.273438 983.691406 964 989.800781 C 947.898438 994.652344 937.417969 1014.800781 931 1029 C 917.382813 1060.109375 906.796875 1093.015625 885.335938 1120 C 879.835938 1127 873 1133.597656 866 1139 C 826.832031 1167.742188 787.980469 1146.160156 745 1148.039063 C 719.308594 1149.164063 694.730469 1160.382813 669 1153.253906 C 620.445313 1139.800781 599.960938 1093.199219 581.851563 1051 C 573.464844 1031.46875 563.511719 1002.738281 544 991.683594 C 519.84375 978 505.355469 1020.429688 528 1025 M 1011 1013 C 1021.90625 1010 1034.988281 1002.503906 1040 992 C 1028.578125 993.6875 1014.789063 1001.578125 1011 1013 M 493 1013 C 489.839844 1005 482.320313 1000.523438 475 996.425781 C 473.257813 995.449219 468 992 466 994.066406 C 463.910156 996.539063 469.527344 1000.46875 471 1001.570313 C 477.390625 1006.300781 485 1011.589844 493 1013 M 769 1003.285156 C 780.300781 1002 795.976563 1002.101563 805.984375 1008.226563 C 815.609375 1014.113281 814 1024.746094 803 1026.558594 C 785.640625 1029.382813 767.8125 1019.527344 751 1016.753906 C 747.347656 1016.152344 735 1016.023438 735.921875 1010.015625 C 736.359375 1006.832031 740.367188 1005.730469 743 1005.304688 C 751.484375 1004 760.429688 1004.296875 769 1003.285156 M 786.601563 1014.085938 C 784.246094 1016 786.765625 1020.394531 789.410156 1018.824219 C 792.222656 1017.15625 789.460938 1012 786.601563 1014.085938 M 806.746094 1016.085938 C 804.339844 1018 806.757813 1022.34375 809.542969 1020.824219 C 812.636719 1019.136719 809.574219 1014 806.746094 1016.085938 M 691 1016 C 690.453125 1017.636719 690.636719 1017.453125 689 1018 C 689.769531 1016.6875 689.6875 1016.769531 691 1016 M 653 1281 C 639 1285.109375 619.363281 1281.03125 607 1274 C 611.226563 1270.460938 615.949219 1268 620 1264 C 609.8125 1263.195313 598.207031 1261.621094 589 1257 C 594.171875 1251 602.460938 1248.617188 608 1243 C 595.507813 1241.160156 582.195313 1238 570 1234.574219 C 567.421875 1234 558.472656 1232.488281 559.753906 1228.234375 C 560.644531 1225.265625 565.503906 1224 568 1223 C 575.996094 1219.386719 584.316406 1216.097656 592 1212 C 577 1208.457031 560.316406 1211 545 1208.726563 C 541.933594 1208.277344 530.765625 1207.757813 529.921875 1204 C 528.984375 1199.535156 543.945313 1201.820313 543.945313 1196.117188 C 543.945313 1193.578125 539.796875 1192.636719 538 1192 C 532.171875 1189.722656 505.296875 1176.476563 525 1176 C 519.28125 1163 504.90625 1157.8125 494 1150 C 499.183594 1147 506 1148 512 1148 L 512 1147 C 503.671875 1143.53125 495.671875 1139.367188 487 1136.722656 C 485.40625 1136.234375 479.207031 1135.371094 479.207031 1133.015625 C 479.207031 1129.757813 489.898438 1130.015625 492 1130 C 484.214844 1121 471.324219 1124.621094 462 1119 C 471.320313 1115.511719 483.390625 1115.710938 493 1118 C 487.800781 1110.621094 480.710938 1106.007813 473 1101.578125 C 470.964844 1100.410156 465.207031 1098.222656 465.207031 1095.328125 C 465.207031 1091.136719 478.339844 1092 481 1092 C 473.175781 1085 461.757813 1083.808594 455 1075 C 465.183594 1075.027344 476 1076.613281 486 1079 C 476.636719 1066 464.578125 1056.339844 451 1048 L 451 1047 C 459.996094 1048.136719 468.300781 1050.53125 477 1053 C 471.804688 1045.648438 463.796875 1040.339844 456 1036 L 456 1035 C 473.882813 1038.332031 486.71875 1045.398438 503 1053 C 493.75 1043.554688 477.6875 1031.675781 472 1020 C 488 1023.808594 498 1039 509 1050 C 540.464844 1082.292969 560.335938 1125 590.285156 1159 C 598.285156 1168.085938 608.257813 1175.234375 619 1180.742188 C 624.519531 1183.570313 633.71875 1185.007813 636.667969 1191.042969 C 639.4375 1196.714844 634.261719 1202.046875 632.199219 1207 C 629.570313 1213.3125 629.847656 1220.292969 630 1227 C 630.257813 1236.726563 633.761719 1255.578125 638.53125 1264 C 642.230469 1270.527344 648.710938 1275 653 1281 M 1031 1020 C 1022.433594 1032 1008.609375 1038.773438 1001 1052 C 1014.636719 1044 1029.96875 1036.277344 1046 1035 C 1040.660156 1042 1032.265625 1046.753906 1026 1053 C 1035 1050.5 1043.332031 1047.027344 1053 1047 L 1053 1048 C 1039.902344 1056.628906 1027 1066.019531 1018 1079 C 1027.425781 1076.351563 1039.285156 1072.714844 1049 1075 C 1043.183594 1082.53125 1031.671875 1087.390625 1023 1091 L 1023 1092 L 1030 1092.003906 C 1032.226563 1092.03125 1039.746094 1092 1039 1095.804688 C 1038.535156 1099.007813 1032.433594 1101.148438 1030 1102.605469 C 1023 1106.710938 1015.714844 1111.445313 1011 1118 C 1021.445313 1115.507813 1032.96875 1114.683594 1043 1119 C 1033.65625 1124.710938 1018.996094 1122.410156 1011 1130 C 1013.351563 1130 1025.792969 1129.1875 1025.792969 1133 C 1025.792969 1135.257813 1019.523438 1136 1018 1136.425781 C 1008.910156 1139.027344 1000.679688 1143.386719 992 1147 L 992 1148 C 998.296875 1148 1004.726563 1148.433594 1011 1148 C 1005.589844 1155.007813 996.921875 1156.621094 990 1161.636719 C 984.863281 1165.363281 981.800781 1171.058594 978 1176 C 999.4375 1176.0625 972.941406 1189.132813 966 1192 C 964.207031 1192.695313 960 1194.011719 960.632813 1196.660156 C 961.414063 1201 972.640625 1202.054688 976 1203 L 976 1204 C 955 1212.050781 933.996094 1211 912 1211 C 920.414063 1219.429688 935.898438 1221.339844 946 1228 C 937 1238.1875 909 1241.074219 896 1243 C 900 1247.128906 911.671875 1249.785156 913.652344 1255.269531 C 914.800781 1258.441406 908.902344 1259.382813 907 1260 C 899.4375 1261.816406 891.832031 1263.664063 884 1264 C 888.238281 1268.019531 892.617188 1270.757813 898 1273 L 898 1274 C 885.457031 1280.410156 865.945313 1284.03125 852 1281 C 856.289063 1275 862.769531 1270.527344 866.46875 1264 C 871.808594 1254.570313 875 1233 874.980469 1222 C 874.867188 1213.023438 865.332031 1199.601563 867.933594 1192.015625 C 870.226563 1185.335938 879.5 1183.621094 885 1180.5625 C 896 1174.425781 905.386719 1166.347656 913.828125 1157 C 944 1123.449219 962 1080 994 1048 C 1004.410156 1037.585938 1015.636719 1022.738281 1031 1020 M 828 1021 C 831.703125 1030.601563 835.777344 1042 830.949219 1052 C 828.824219 1056.414063 823.515625 1061.609375 818 1060 C 812 1058.085938 818.636719 1053.523438 821 1052 C 812.976563 1050 803.300781 1044.007813 795 1044.386719 C 784.960938 1045 769.589844 1061.1875 781 1069.296875 C 792.378906 1077.320313 812.753906 1072.167969 825 1069 C 817.507813 1095 764.375 1091.007813 769.464844 1062 C 770 1059 771 1056 772.324219 1053 C 781.511719 1033.246094 801 1043.28125 817 1035.671875 C 824 1032.320313 824.378906 1027 828 1021 M 679 1022 C 691.535156 1047.628906 729.570313 1026 735.535156 1059 C 741.175781 1090.28125 688 1098.191406 681 1069 C 693 1071.289063 707.863281 1075.546875 720 1071.53125 C 734.566406 1066.714844 733.488281 1052.402344 721 1045.558594 C 712.621094 1041 695.332031 1045.285156 688.636719 1052 C 686.246094 1054.351563 693.304688 1059 685.980469 1059.472656 C 668.246094 1061 671.453125 1030.136719 679 1022 M 591.746094 1043.070313 C 586.363281 1047 597 1059.308594 602.355469 1056.378906 C 606.667969 1054 596.9375 1039.300781 591.746094 1043.070313 M 909.957031 1042.800781 C 905 1044.4375 897 1059.421875 906 1056.238281 C 910.925781 1054.492188 917.621094 1040.253906 909.957031 1042.800781 M 905.851563 1061.082031 C 901.351563 1061.230469 894 1067 891.246094 1070.101563 C 889.421875 1072.1875 888 1075.449219 892 1075.5625 C 896.832031 1075.699219 903.4375 1073.421875 906.566406 1069.785156 C 908.296875 1067.777344 910.710938 1061 905.851563 1061.082031 M 616 1076 C 614.546875 1071.722656 599.914063 1056.109375 595 1062.746094 C 588.855469 1071.265625 611.597656 1076 616 1076 M 604.320313 1081.070313 C 596 1086.007813 617.339844 1101.34375 623.339844 1096 C 627.757813 1092.007813 609.550781 1078 604.320313 1081.070313 M 878 1097 C 882.292969 1096.167969 907.824219 1090.277344 900 1081.617188 C 894.699219 1075.441406 879.554688 1092.421875 878 1097 M 645 1118 C 641.175781 1110 630.25 1107.089844 623 1102.683594 C 620.675781 1101.273438 616.414063 1098.304688 614.195313 1101.476563 C 611.710938 1105.019531 615.453125 1109.445313 618 1111.609375 C 625.679688 1118 635.636719 1118 645 1118 M 859 1116 C 868.21875 1120.4375 884.992188 1117 889.816406 1107 C 894.699219 1097.003906 882.867188 1101.679688 879 1104.257813 C 876 1106.199219 873 1108.023438 870 1109.691406 C 866.257813 1111.71875 862.285156 1113.277344 859 1116 M 845.910156 1118.175781 C 842.777344 1118.625 841 1124.363281 845 1124.363281 C 848.84375 1124.363281 849.972656 1117.59375 845.910156 1118.175781 M 656.601563 1119.085938 C 653.363281 1121.304688 657.253906 1126.425781 660.382813 1124 C 663.1875 1121.738281 659.464844 1117.128906 656.601563 1119.085938 M 835 1137 C 844.484375 1139.804688 856.339844 1137.757813 865 1133.175781 C 867.859375 1131.660156 874 1127.441406 871.863281 1123.359375 C 869.910156 1120 865 1123.527344 863 1124.820313 C 854.328125 1130.15625 842.550781 1130 835 1137 M 633.363281 1123.070313 C 629.234375 1125.695313 634.765625 1131 637 1132.519531 C 641.828125 1135.636719 661.285156 1142.382813 666.246094 1138 C 668.652344 1135.675781 663.261719 1134.019531 661.996094 1133.644531 C 654.910156 1131.546875 648.375 1129.320313 642 1125.472656 C 639.675781 1124.066406 636.203125 1121.265625 633.363281 1123.070313 M 675 1133.058594 C 670.820313 1133.777344 673 1140.429688 676.894531 1140 C 681.257813 1139.425781 679.175781 1132.386719 675 1133.058594 M 827.960938 1133.175781 C 824.21875 1133.734375 823.777344 1140.707031 827.882813 1140 C 831 1139.34375 831.871094 1132.589844 827.960938 1133.175781 M 812.773438 1141.175781 C 810.601563 1141 808.648438 1144.621094 811.300781 1145.082031 C 813.578125 1145.480469 815.464844 1141.527344 812.773438 1141.175781 M 690.175781 1142.027344 C 688.5 1144.082031 693.449219 1147 694.65625 1144.4375 C 695.691406 1142.296875 691.515625 1140.386719 690.175781 1142.027344 M 748 1257 L 750 1257 C 750.484375 1233.542969 758 1210.703125 758 1187 C 758 1179.253906 756.777344 1167.460938 765 1163.179688 C 770.199219 1160.488281 777.558594 1163.003906 783 1163.71875 C 795.550781 1165.367188 808.382813 1167.003906 821 1168 C 811.878906 1179.042969 792.847656 1190.308594 808.300781 1205.558594 C 810.609375 1208 813 1209.535156 816 1211 C 812.484375 1205.292969 807.484375 1199.226563 809.433594 1192 C 811.613281 1184 826.539063 1177.429688 833.582031 1183.007813 C 839.449219 1187.660156 836.683594 1198.789063 835.726563 1205 C 832.367188 1226.734375 822.480469 1245.496094 807 1261 C 799 1269 790.488281 1281 780 1285.46875 C 770.523438 1289.574219 761.507813 1283.542969 752 1283.261719 C 743.839844 1283.015625 736.277344 1288.085938 728 1286.671875 C 711 1283.769531 695.691406 1262 686 1249 C 675.539063 1234.605469 670.863281 1218.476563 668.714844 1201 C 668 1195.277344 665.933594 1185.652344 672 1182.179688 C 680 1177.6875 695.527344 1185 696.730469 1194 C 697.628906 1200.738281 692 1207.265625 688 1212 C 709.417969 1200.0625 704.699219 1181.386719 685 1170 C 690.945313 1166 701 1167.5 708 1166.410156 C 716.964844 1165.011719 733.652344 1158.042969 741.890625 1163.742188 C 749.269531 1169 746.707031 1180.394531 747 1188 C 748 1211 748 1234 748 1257 "/>
</g>
</svg>
