<?xml version="1.0" encoding="UTF-8"?>
<svg xmlns="http://www.w3.org/2000/svg" xmlns:xlink="http://www.w3.org/1999/xlink" width="1500pt" height="1500pt" viewBox="0 0 1500 1500" version="1.1">
<g id="surface1">
<path style=" stroke:none;fill-rule:nonzero;fill:rgb(0%,0%,0%);fill-opacity:1;" d="M 534 936 C 517.984375 927.46875 498.820313 924.394531 481 922.285156 C 475.578125 921.644531 469.464844 921 464 921.035156 C 463.386719 921.046875 458.449219 921.390625 460.175781 923.121094 C 462.984375 926 475.9375 924.761719 480 925.167969 C 498.300781 927.007813 526.460938 930.085938 534 949 C 521.332031 946.070313 509 941 496 940.089844 C 472 938.441406 446.703125 946.101563 424 953 L 424 954 C 452.558594 954 476.683594 940.820313 506 945.753906 C 513.316406 947 522.882813 948.011719 528.941406 952.648438 C 534.882813 957.195313 533 966.375 533 973 C 532.996094 975.390625 533.726563 980.09375 530.683594 981 C 524 983 513 978.035156 506 978 C 485.488281 978 465.390625 980.578125 445 981 L 445 983 C 468.308594 983 491.753906 980.148438 515 983.425781 C 522.445313 984.472656 537.414063 988.3125 531.398438 999.640625 C 529.46875 1003.265625 510 996.066406 506 995.425781 C 477.273438 991 452 1001.769531 424 1002 L 424 1004 C 451.789063 1004 479.238281 994.386719 507 1000.003906 C 512.402344 1001.097656 538.925781 1007 529.675781 1016.695313 C 525.398438 1021.230469 514.804688 1021 509 1021 C 496.234375 1021.304688 465.816406 1021.074219 458 1033 C 475.789063 1030.703125 493 1026.257813 511 1025 C 515.828125 1024.550781 525.246094 1020.503906 529.257813 1024.601563 C 533.585938 1029.023438 529.675781 1039.691406 529.171875 1045 C 528.652344 1050.421875 530.417969 1057.292969 526.566406 1061.785156 C 519.8125 1069.664063 503.433594 1075 494 1079 C 489.347656 1081.011719 482.859375 1082.671875 480 1087 C 496.796875 1083.523438 512.609375 1074.292969 528 1067 C 522.941406 1088.242188 523.675781 1110.585938 517.574219 1132 C 509.21875 1161.300781 492.269531 1185.332031 480.425781 1213 C 464.585938 1250.015625 453 1290.257813 432.394531 1325 C 425.929688 1336 417.898438 1345.101563 408 1353 C 402 1357.667969 392.898438 1361.574219 389 1368 C 396 1368.058594 403 1370 410 1367.003906 C 418.84375 1363.210938 426.347656 1353.683594 433 1347 C 458.84375 1321.03125 474.972656 1283.566406 488.398438 1250 C 493.480469 1237.300781 500.675781 1223.503906 503 1210 L 504 1210 C 504 1249.601563 508 1287.597656 524.691406 1324 C 530 1336 536.449219 1354.128906 549 1360 C 535.25 1327 520.757813 1295.710938 520 1259 L 521 1259 C 521.273438 1272.214844 527.488281 1285.765625 532 1298 C 533.761719 1302.589844 534.953125 1309.023438 539 1312 C 536.585938 1281.667969 527 1251.179688 522.578125 1221 C 520.203125 1205 516.664063 1190.449219 523 1175 L 524 1175 C 523.996094 1192.59375 522.824219 1209.410156 525.425781 1227 C 526.230469 1232.429688 526.386719 1241.503906 531 1245 C 531 1217.605469 527.519531 1190.375 530.171875 1163 C 532 1143.242188 539.9375 1124.597656 542.714844 1105 C 544.453125 1092.742188 544.910156 1080.175781 547 1068.003906 C 547.882813 1064 551.488281 1060.445313 555.941406 1061.363281 C 561.816406 1062.574219 561 1078.019531 562.375 1083 C 567.429688 1103.3125 577.570313 1122 590.921875 1138 C 607.464844 1158 627 1166.445313 648 1180.101563 C 661.296875 1188.796875 670.578125 1202.515625 685 1209.730469 C 698.21875 1216.34375 712.621094 1216.410156 727 1217.039063 C 746 1218 765 1219.113281 784 1215.539063 C 803.921875 1211.78125 815.429688 1196.511719 831 1185.160156 C 841.949219 1177.175781 854.804688 1172.265625 866 1164.65625 C 885.167969 1151.628906 901 1133.609375 911.742188 1113 C 916.78125 1103.230469 921.167969 1092.757813 923.574219 1082 C 924.765625 1076.679688 923.671875 1068.65625 926.859375 1064.148438 C 929.753906 1060.050781 936 1061 939.957031 1063.164063 C 947.554688 1067.414063 946.296875 1079.605469 947.613281 1087 C 951 1106.066406 956.691406 1125.640625 965.371094 1143 C 985.976563 1184.21875 1009 1225.269531 1038.425781 1261 C 1055.320313 1281.617188 1074.980469 1299.460938 1094 1318.015625 C 1105.304688 1329.042969 1116.835938 1340 1128 1351 C 1133.878906 1357 1139.90625 1365.074219 1148 1368 C 1156.261719 1370.765625 1165.550781 1368.175781 1174 1368 C 1167.183594 1356.207031 1154.816406 1348.054688 1145 1339 C 1126.566406 1321.738281 1108.820313 1303.820313 1091 1286 C 1051.679688 1246.679688 1020.699219 1202.125 994.78125 1153 C 984.667969 1134 975.664063 1114 970 1093 C 969.222656 1089.621094 963 1075.496094 966.691406 1073.023438 C 969.382813 1071.183594 974.84375 1076.265625 977 1077.546875 C 985.867188 1082.820313 996.585938 1087.546875 1007 1088 L 1007 1087 C 994.578125 1081.1875 972.441406 1075.066406 964.742188 1063 C 961.714844 1058.230469 962 1050.476563 961.246094 1045 C 960.601563 1041.066406 956.683594 1027.800781 960.601563 1025.117188 C 963.886719 1023 975 1026 979 1026.425781 C 994.890625 1028.515625 1012.226563 1033.3125 1028 1034 L 1028 1033 C 1013.78125 1025 996.914063 1024.058594 981 1022.15625 C 975.183594 1021.460938 963.835938 1022.476563 959.742188 1017.570313 C 949.96875 1006 975.804688 1001.46875 982 1000.578125 C 1009 996.699219 1038.539063 1005 1066 1005 L 1066 1003 C 1031 1003 989.878906 984 957 1003 C 956.960938 998.222656 954.699219 991.515625 957.859375 987.394531 C 962 982 972.769531 982.265625 979 982 C 998 981.035156 1016.867188 984 1036 984 L 1036 983 C 1020.375 978.382813 997.285156 977 981 978.089844 C 975.175781 978.492188 962.6875 984 957.601563 980 C 955.316406 978.164063 955.917969 973.59375 955.574219 971 C 953.660156 956.453125 960.628906 951.71875 974 948.375 C 985.949219 945.386719 998.636719 943 1011 944.171875 C 1030.421875 946.050781 1048.273438 954 1068 954 L 1068 953 C 1031 944.109375 990.703125 930.164063 955 951 C 955 930 995 927.539063 1011 926 C 1014.945313 925.410156 1025.972656 926 1028.824219 923.121094 C 1030.640625 921.289063 1025.542969 921.390625 1024.980469 921.445313 C 1018.6875 922.035156 1012.3125 922.691406 1006 923 C 987.710938 924 970.792969 929.109375 954 936 C 954 907.015625 955.933594 878 957.910156 849 C 958.988281 833.265625 958.667969 817.597656 961.609375 802 C 965.617188 780.761719 978.484375 762.554688 981.570313 741 C 983 730 981.726563 717.605469 978.25 707 C 975.886719 699.789063 969.855469 691.742188 972.800781 684 C 976.304688 674.59375 983.371094 666.402344 988.574219 658 C 1000.589844 638.609375 1012.984375 619.03125 1028.285156 602.015625 C 1037.449219 591.824219 1051.601563 585.644531 1056.449219 572 C 1061.695313 557.25 1044.570313 548.292969 1045 534 C 1045.328125 525.410156 1049.191406 517.136719 1051.574219 509 C 1057.910156 487.363281 1066.78125 466.574219 1073.28125 445 C 1076.703125 433.636719 1076.84375 417 1085 408 C 1099.890625 392 1120.863281 384.75 1142 381.730469 C 1155.664063 379.777344 1168.828125 377.671875 1182 373.328125 C 1187.488281 371.519531 1195 365.726563 1200.984375 366.617188 C 1208.898438 367.824219 1217.84375 383.546875 1224 388.675781 C 1230.832031 394.367188 1238.90625 397.789063 1244.472656 405 C 1251.402344 414 1254.242188 426 1259.246094 436 C 1270.308594 458.277344 1281.785156 481.132813 1296.898438 501 C 1307.382813 514.78125 1342.496094 530.53125 1344.90625 501 C 1346 487.382813 1340.21875 473.648438 1336 461 C 1328.601563 438.800781 1320.558594 416.71875 1314.871094 394 C 1300 335.054688 1298 269.53125 1260.523438 219 C 1244.46875 197.429688 1218.550781 188.183594 1194 180 C 1161.210938 169.070313 1128.304688 158.832031 1095 149.574219 C 1076.523438 144.441406 1057.242188 137.410156 1038 136.089844 C 1005.273438 134 995.644531 160.394531 970 174.085938 C 961 179 949.847656 178.390625 940 178 C 906.828125 176.507813 879.480469 161 849 150.34375 C 828.878906 143.382813 810 148.140625 790 144.535156 C 775.527344 142 763 132.703125 748 132.039063 C 729 131.203125 713.949219 140.523438 696 144.332031 C 679.253906 148 662 143.367188 645 148 C 615.472656 155.671875 589.515625 172 559 176.574219 C 544.800781 178.777344 527.867188 180.226563 515 172.523438 C 496.503906 161.445313 485.886719 139.042969 463 135.4375 C 440.367188 132 417.179688 143.785156 396 150 C 369.335938 157.503906 343.289063 167 317 175.667969 C 297.835938 182.078125 277.355469 187.511719 261 200 C 246.785156 210.667969 236.6875 225.5 228.308594 241 C 204.867188 284.367188 199.882813 335.539063 189.789063 383 C 185.269531 404.25 177.996094 424.492188 171 445 C 165.792969 460.28125 158.390625 476 156.289063 492 C 155.347656 499.242188 155.394531 507.519531 162 512.03125 C 180.367188 524.457031 197.945313 498.199219 203.796875 484 C 210.171875 468.527344 219.640625 453.597656 225 438 C 228.589844 428.199219 228.628906 416 236.1875 408.105469 C 245.367188 398.554688 262.804688 396 274 388.484375 C 282 383.175781 294 366.007813 304 367.339844 C 313 368.566406 321 374.214844 330 376.324219 C 356.691406 382.671875 381.394531 384.59375 400.8125 407 C 409.296875 416.789063 409.605469 435.667969 413 448 C 421.304688 476.472656 437 503.257813 440.558594 533 C 442.273438 547.671875 423.765625 556.421875 429 572 C 434 586.324219 450 594.269531 459.828125 605 C 473.511719 620.140625 484 638 495 655 C 500.847656 664.128906 508.457031 673 512.636719 683 C 515.914063 691 510.484375 698.671875 508 706 C 504.210938 717.199219 501.84375 729.210938 503.753906 741 C 507.546875 764.398438 521.890625 784.003906 526.789063 807 C 532.546875 834.03125 531.34375 861.566406 532 889 C 532.398438 904.632813 534 920.351563 534 936 M 917 183 L 917 184 C 901.308594 184.042969 885.175781 190 877 204 C 901.871094 193.660156 927.308594 191.625 954 194.171875 C 966 195.3125 977.925781 198.691406 990 199 C 1008.433594 199.4375 1026.628906 195.464844 1045 195.015625 C 1088.191406 194 1131 197.628906 1173 208.128906 C 1204.644531 216.039063 1244.199219 226 1258 259 C 1246.890625 254 1238 243.710938 1227 238 C 1203.957031 225.746094 1176.777344 219.664063 1151 217.171875 C 1115.28125 213.710938 1078.539063 215.167969 1043 220.425781 C 1034.332031 221.710938 1025.304688 223.230469 1017 226.078125 C 1010.636719 228.261719 1003.957031 232.4375 997 232 C 985.523438 231 975.503906 217.3125 964 214 L 964 215 C 988.613281 227.753906 999.855469 253.257813 1014.355469 275 C 1037.625 310 1072 338.683594 1072 384 C 1072 403.824219 1067.90625 424.214844 1061.667969 443 C 1060.515625 446.472656 1057.984375 459.792969 1053 459.792969 C 1048.601563 459.792969 1052 444.410156 1052.609375 442 C 1056.242188 422.59375 1060 403.324219 1064 384 L 1063 384 C 1056.90625 399 1053.542969 415 1047.808594 430 C 1046 434.503906 1044 444.015625 1038 444.453125 C 1032.320313 445 1029.785156 436.117188 1028.34375 432 C 1022.730469 416 1017.292969 403.351563 1005 391 C 982.273438 368.171875 971.359375 335.5625 948.910156 312.015625 C 929.679688 292 898.859375 280.75 873 272 C 878.1875 277.242188 886.441406 280 893 283.246094 C 905.652344 289.574219 918.335938 296 930 304.027344 C 955.617188 321.710938 975.722656 351.179688 991 378 C 975 367.519531 958.589844 355.308594 945 342 C 967.328125 381.191406 1023.992188 397.082031 1024 449 L 1023 449 C 1010.503906 422.632813 990.519531 414.773438 965 405 C 970 410.261719 979.425781 411 986 414 C 995.296875 418.054688 1002 425.230469 1007 434 C 1029.949219 474 1017 521.828125 991.242188 557 C 980.863281 571.109375 965.8125 580.796875 955.488281 595 C 944.347656 610.332031 939.472656 632.363281 938 651 L 939 651 C 945.824219 630.03125 954.320313 609.179688 968.464844 592 C 977.875 580.566406 990.257813 572.441406 998.640625 560 C 1016.386719 533.675781 1025.785156 500.417969 1025 469 C 1024.839844 462 1026.476563 445 1037.8125 454.433594 C 1047.195313 462.296875 1046 477.28125 1045 488 C 1042.316406 517.640625 1027.527344 547.109375 1011.949219 572 C 993 602.136719 966.71875 635.335938 963.171875 672 C 960.582031 698.746094 975.59375 722.484375 970.195313 750 C 963.703125 783.09375 942.730469 812.09375 928.257813 842 C 917.539063 864.152344 911.898438 888.378906 898 909 L 897 909 C 882.847656 884.109375 876.910156 842.234375 880.285156 814 C 882.25 797.566406 889.652344 780.648438 888.789063 764 C 887.492188 739 869.71875 720.449219 857.449219 700 C 852.308594 691.433594 848.863281 679.074219 842 672 C 843 686.207031 848 701 855.695313 713 C 864.527344 727 877.261719 740.066406 879.699219 757 C 882 774 875.429688 789.515625 873.289063 806 C 870.496094 827.507813 873.546875 850.59375 875.949219 872 C 876.621094 878 878.429688 884 878.808594 890 C 878.960938 892.335938 877.308594 895.070313 878 897.257813 C 880.554688 904 888.382813 910.21875 892.574219 916 C 901.324219 928.070313 908.1875 940.625 912.289063 955 C 913.753906 960.128906 917.792969 971.539063 913.976563 976.390625 C 910.8125 980.417969 908.445313 974.53125 908.183594 972 C 905.535156 946.34375 890.773438 929.667969 877.800781 908 C 854.421875 869 856.949219 820.617188 851.714844 777 C 849.207031 756.097656 840.433594 735 840 714 L 838 714 C 838 736.078125 842.402344 758.007813 843.910156 780 C 846.386719 816.160156 847.367188 852.402344 859.691406 887 C 873 924.675781 909.246094 953.46875 901 996 C 904.488281 992.007813 904 984.71875 909 982.046875 C 916 978.335938 917.480469 991.75 914.972656 995.585938 C 911.734375 1000.539063 904 1004.011719 900 1009 C 905.324219 1005.363281 909.578125 1001.539063 916 1000 C 916 1004.359375 917.324219 1012 913.484375 1015.0625 C 910 1018 905.394531 1016.816406 902 1020 C 906.835938 1020.011719 920 1023.421875 910.570313 1029.820313 C 907.347656 1032.003906 901.703125 1031 898 1031 L 898 1033 C 903 1033.101563 917.300781 1039 905.867188 1043.382813 C 902.53125 1044.683594 898.328125 1042.5625 895 1042 L 895 1043 C 897 1044 906.503906 1048.660156 903.246094 1052 C 901.707031 1053.535156 896.21875 1051.515625 895.632813 1053.589844 C 894.742188 1056.730469 907.691406 1063 895 1062 C 894 1061.734375 893 1061.332031 892 1061 C 896.484375 1066.085938 901.710938 1071.410156 891 1072 C 895.625 1080.667969 889.792969 1087.808594 885 1095 C 874.535156 1110.691406 862.320313 1124.679688 849 1138 C 864.628906 1129 877.457031 1112.476563 887.84375 1098 C 891.34375 1093.125 895 1081.164063 901.984375 1080.464844 C 909 1079.75 906.679688 1090.300781 905.480469 1094 C 901.292969 1107 894.234375 1119.476563 885.691406 1130 C 862.546875 1158.5 829.191406 1172 793 1172 L 793 1171 C 812.441406 1168.128906 830.3125 1152 837.546875 1134 C 841.480469 1124.300781 842.292969 1113.804688 845.765625 1104 C 848 1097.320313 853.890625 1092.714844 856.300781 1086 C 862.9375 1067.511719 863.429688 1033.046875 853 1016 C 838.519531 992.039063 789.71875 971.210938 767 996 C 794.347656 996 817.949219 1008 829 1034 C 834.449219 1046.4375 842.746094 1079 821 1080 C 806.664063 1080.683594 792.257813 1075.527344 778 1074.171875 C 754.5625 1072 729.410156 1071.503906 706 1074.285156 C 693.589844 1075.757813 668.214844 1085.117188 657.183594 1077.773438 C 646.890625 1071 651 1052.800781 653.628906 1043 C 661.523438 1012.300781 688.609375 996 719 996 C 697.90625 969.121094 647.894531 993 633.546875 1015 C 622.464844 1032.121094 624 1068.363281 631 1087 C 633.328125 1093 638.609375 1097.03125 640.871094 1103 C 643.648438 1110.335938 643.523438 1118.546875 646 1126 C 653.507813 1147.683594 670.714844 1169 695 1171 L 695 1172 C 651.691406 1172 617 1156.410156 592.695313 1119 C 587 1110.476563 581.304688 1101 578.898438 1091 C 578 1087.507813 580.910156 1081.222656 579.675781 1078.769531 C 578.835938 1077.089844 575.769531 1077.496094 574.570313 1075.667969 C 573.464844 1074 569.941406 1060.097656 574 1061 C 576.753906 1061.445313 578.203125 1066 579.246094 1068 C 582.554688 1074.535156 586.335938 1080.78125 590.191406 1087 C 601.820313 1105.75 617.753906 1129 638 1139 C 624.308594 1125.308594 611.515625 1111.09375 600.671875 1095 C 596 1088.152344 589.355469 1081 595 1073 C 586.984375 1071.230469 589.234375 1067.535156 593 1062 C 592 1062.289063 590.8125 1063 589.84375 1063.027344 C 579.371094 1064.398438 589.957031 1056 588.792969 1053.636719 C 587.796875 1051.75 584.203125 1053.09375 582.660156 1051.78125 C 579 1048.792969 588.269531 1043 590 1041 C 587.199219 1042.078125 583.296875 1044.363281 580.226563 1043.304688 C 577.277344 1042.285156 574.851563 1036.472656 577.617188 1034.179688 C 579.777344 1032.386719 584.316406 1032.640625 587 1032 L 587 1031 C 582.875 1031 565.464844 1029.109375 573.617188 1020.601563 C 576.78125 1017.304688 581.914063 1020.523438 585 1017 C 581.363281 1017 575.617188 1018 572.742188 1015.140625 C 570.183594 1012.679688 569.433594 1001.757813 574 1001.160156 C 577.523438 1000.734375 581.320313 1004.355469 584 1006 C 580.410156 1002.421875 571.609375 997.804688 570.320313 993 C 569.367188 989.363281 570.988281 978.789063 576.78125 982.660156 C 581 985.523438 581.433594 992.324219 585 996 C 572.273438 956 612.675781 924.285156 625.574219 890 C 638.53125 855.566406 638.617188 818.097656 641 782 C 642.621094 759.648438 646 737.445313 646 715 L 645 715 C 640 735.394531 635.167969 757.097656 633.171875 778 C 629.738281 814 629.886719 850.164063 619.277344 885 C 608.824219 919.339844 576 940 576 978 C 566.816406 974.484375 572 961 574 954 C 580.722656 931.046875 594.257813 911.753906 611 895 L 606 896 C 609.214844 871.105469 615.644531 846.324219 613.910156 821 C 612.488281 800.222656 601.855469 779 605.617188 758 C 609.261719 737.75 624.28125 723.375 633.960938 706 C 639.804688 695.511719 641 683.441406 644 672 C 635 682.382813 630.785156 695.429688 623.796875 707 C 613 725 597.523438 741 597 763 C 596.65625 778.59375 602 793.75 604.5625 809 C 608.636719 834.363281 605.265625 862.644531 597.328125 887 C 594.890625 894.492188 593 903.800781 588 910 C 572.960938 885.425781 566.179688 857.710938 553.742188 832 C 540 803.753906 520.167969 776.417969 514.613281 745 C 510.269531 720.417969 524 697.527344 522.960938 673 C 521.699219 644.40625 501.578125 616.371094 486.949219 593 C 468.238281 563.105469 451.203125 533.476563 442.628906 499 C 439.617188 487 435 470 443.558594 459.039063 C 447.179688 454.390625 456.496094 448.519531 459.347656 457.042969 C 462.230469 465.664063 458 476.007813 459.289063 485 C 462 506.230469 469.515625 528 479.257813 547 C 488.980469 566 504.414063 577 517.535156 593 C 530.78125 609.15625 540.324219 630 546 650 L 547 650 C 546.988281 633 541.605469 614.820313 533 600 C 523.371094 583 506.546875 572.160156 494.515625 557 C 465.695313 520.695313 449 457 488 421.09375 C 497.375 412.445313 509.460938 410.238281 521 406 L 521 405 C 499 409.140625 466.429688 425.15625 462 450 L 461 450 C 461 396.296875 517.21875 380.617188 542 341 C 527 356 510.429688 370.738281 492 381 C 497.3125 371.023438 505 363.101563 511.570313 354 C 522.277344 339.113281 531.464844 323.527344 545 311 C 566.675781 291 600 276 628 267 L 628 266 C 614.75 269.066406 602.421875 275.359375 590 280.71875 C 570.289063 289.222656 550.214844 297.203125 535 313 C 515.53125 333.304688 503.28125 359.375 486.847656 382 C 475.375 397.796875 462.425781 412.046875 456.34375 431 C 454.785156 436 453.328125 446 446 444.625 C 440.277344 443.613281 438.8125 433.601563 437.34375 429 C 433.21875 416.085938 430.847656 393.128906 422 383 C 422.820313 402.125 427.285156 421.367188 431.425781 440 C 432 443 437.28125 457 433.4375 458.652344 C 428.519531 461 423.664063 442.050781 422.671875 439 C 415.519531 417.058594 411.660156 393 415 370 C 419.496094 341.148438 440.941406 318.097656 458 296 C 473.878906 275.71875 484.386719 251.78125 500.617188 232 C 507 224.117188 516 220.09375 523 213 C 515.304688 216.203125 507.753906 220.257813 501 225.15625 C 497.957031 227.367188 494 231.726563 490 231.339844 C 483.300781 230.707031 478.53125 219.453125 473.960938 215.289063 C 464.84375 207 452.828125 201.394531 441 198.152344 C 415.371094 191.128906 388.359375 189.660156 362 192.171875 C 347.992188 193.503906 334 197 320 197 L 320 199 C 329.824219 199 339.203125 198.398438 349 199 C 351.820313 199.128906 358.765625 199.253906 358 203.832031 C 357 210 337.957031 213.242188 333 215.054688 C 308.421875 224.035156 281.167969 232.316406 262 251.015625 C 233.382813 279 232.203125 316 226.726563 353 C 222.441406 382.113281 213.941406 410.613281 198.800781 436 C 186.960938 456 160 482.34375 170 506 C 162 501.371094 164.710938 492.507813 166.628906 485 C 171.179688 467.226563 178.808594 450.164063 185.1875 433 C 210.484375 365 200.308594 277.621094 256 223.039063 C 298 182 369.4375 161 427 171.425781 C 451.171875 175.820313 472.609375 190.539063 497 193.710938 C 510.398438 195.453125 524.347656 190.679688 538 191.015625 C 564.328125 191.660156 592.945313 197 618 205 C 605.429688 192.296875 583.390625 189.605469 567 185 C 577.363281 177.28125 594.96875 177.804688 607 172.714844 C 622.828125 166.023438 637.769531 157.128906 655 154.4375 C 669 152.230469 683.933594 156.03125 698 153 C 713.464844 149.636719 727.636719 139.160156 744 140.09375 C 761.308594 141.078125 775.886719 152.117188 793 153.828125 C 807.664063 155.296875 822.4375 152.511719 837 155.667969 C 864.347656 161.601563 888.292969 182.40625 917 183 M 515 184 C 475.957031 184 442.695313 158.328125 403 158 C 407.515625 154.636719 413.699219 154.058594 419 152.328125 C 433.179688 147.710938 452 139.554688 467 145.480469 C 478.835938 150.175781 487.667969 161.617188 497 169.816406 C 502.828125 175 510.324219 177.664063 515 184 M 1332 506 C 1327.195313 480.117188 1320.175781 456.636719 1310.398438 432 C 1302 411 1290.992188 390.078125 1290 367 L 1289 367 C 1283.464844 388.394531 1289.683594 408 1293.386719 429 C 1294.289063 434.164063 1296 446 1287.984375 445.273438 C 1264.515625 443.410156 1259 409 1256.578125 391 C 1253.488281 369.40625 1254.675781 346.390625 1258.804688 325 C 1261.640625 310.296875 1268.859375 296 1269.910156 281 C 1270.859375 267.433594 1260.199219 245.429688 1251.382813 235.039063 C 1234 214.695313 1202.714844 206 1178 199 C 1147.179688 190.125 1113 184.441406 1081 183.039063 C 1043.261719 181.386719 1005.664063 186.777344 968 186 C 971.191406 180.742188 978 177.53125 983 174 C 994.21875 165.472656 1008 147 1022 144.328125 C 1042 140.734375 1066.863281 151.257813 1086 156.574219 C 1120.28125 166.105469 1154.390625 176 1188 187.65625 C 1213.289063 196.4375 1237.582031 205.300781 1254.714844 227 C 1289.304688 270.808594 1291.847656 335.4375 1303.210938 388 C 1309.636719 417.722656 1322 445.824219 1330.421875 475 C 1332.878906 483.609375 1339.882813 499.042969 1332 506 M 762 160 C 761.972656 169.296875 758.640625 180.1875 762.921875 189 C 766.386719 196.117188 773.894531 197.300781 781 198.15625 C 795.757813 200 810.238281 197.011719 825 197 L 825 195 C 809.996094 195 775.765625 198.757813 766.859375 184 C 763.320313 178.128906 764.289063 166.785156 764 160 L 762 160 M 724 161 C 724 168.722656 724.625 177.03125 720.632813 184 C 710.59375 201.515625 675.972656 196 659 196 L 659 198 C 681.648438 198.0625 724.613281 210.703125 726.910156 177 C 727.265625 171.792969 727.257813 165.230469 724 161 M 402 270 C 388.835938 264.210938 381 250.105469 372.84375 239 C 368.988281 233.765625 364 229.269531 362 223 C 393.976563 223 426.839844 216.742188 450.425781 244 C 458.253906 253.046875 470.589844 264.347656 460 276 C 453.734375 283 450.738281 275.421875 444.960938 272.316406 C 440.90625 270.140625 436 271.308594 432.171875 268.4375 C 426.339844 264.085938 403.476563 238.109375 402 261 C 401.855469 264 402 267.011719 402 270 M 407 300 C 382.285156 284.558594 362.910156 258.382813 334 250 C 339.21875 255.710938 348.476563 258.679688 355 263.003906 C 366.628906 270.707031 377 280 388 288.601563 C 393.382813 293 402.898438 297.230469 405.398438 304 C 408 311.214844 402.800781 318.722656 398.539063 324 C 389.597656 335.070313 373.449219 355.632813 386 370 C 386 359.664063 388 349.355469 394.527344 341 C 403 330 417.214844 321.332031 417.960938 306 C 418.457031 295.777344 414.816406 286.148438 415 276 C 415 273.246094 414.96875 267 417.632813 265.175781 C 420.851563 263.085938 423 273.140625 424.511719 274.695313 C 431.199219 282.039063 441.34375 280 442.8125 293 C 444.328125 306.421875 432.386719 318.597656 425.691406 329 C 413.644531 347.714844 402 369.1875 402 392 C 391.351563 386 383 377.355469 371 373.722656 C 359.652344 370.316406 347.609375 370.511719 336 368.566406 C 312.765625 364.667969 289.226563 354.566406 273 337 C 264.761719 328 265.886719 318.03125 260.695313 308.003906 C 256.949219 300.765625 247.488281 299 246.53125 290 C 242.574219 252.667969 294.3125 239.738281 321 232.140625 C 330.941406 229.308594 342.421875 223.785156 353 226.417969 C 363.597656 229.058594 369.273438 242.679688 374.695313 251 C 379.378906 258.183594 384.675781 265.089844 391 271 C 394.800781 274.398438 400.3125 276.636719 403 281.042969 C 406.730469 286.621094 405.527344 293.820313 407 300 M 1085 392 C 1087 360.800781 1060 331.496094 1052.628906 302 C 1051.28125 296.628906 1046.679688 287.605469 1047.503906 282.226563 C 1048 278.035156 1055 278.394531 1058 277 C 1063.414063 274 1065.660156 268.113281 1070 264.234375 C 1071.488281 263.011719 1074.21875 261 1075.972656 262.710938 C 1077.988281 264.804688 1077 270.355469 1077 273 C 1076.953125 282.707031 1074.589844 292.285156 1076.320313 302 C 1079 317.375 1092.421875 326.589844 1100.453125 339 C 1106.535156 348.398438 1108 359.039063 1108 370 L 1109 370 C 1113.515625 355.78125 1111.367188 344 1104 331 C 1097 318.28125 1085 304.597656 1086.324219 289 C 1087.738281 271.140625 1103.363281 262.492188 1115 251.003906 C 1117.808594 248.230469 1125.707031 239.324219 1130.394531 240.828125 C 1133.5 241.824219 1130.582031 249.128906 1129.910156 251 C 1126.472656 260.585938 1120.457031 269.582031 1112.910156 276.410156 C 1105.734375 283 1095.839844 285 1089 291 C 1104.335938 287.453125 1116.625 278.507813 1126 266 C 1130.652344 260 1135.726563 245 1143.988281 243.542969 C 1149.679688 242.585938 1153.621094 251.0625 1158 253.636719 C 1168.417969 259.757813 1181.320313 260.335938 1192 266 C 1196.445313 268.339844 1201.328125 272.601563 1198 278 C 1193.679688 285.386719 1181.632813 287 1174 289 C 1151.65625 294.785156 1129.171875 299 1106 299 L 1106 301 C 1128.203125 301 1151 300.273438 1173 296 C 1181.222656 294.390625 1197 287 1204.996094 289.617188 C 1227.757813 297.511719 1220 327.320313 1214 343 C 1230.246094 329.535156 1225.648438 314.152344 1221.914063 297 C 1220.621094 291.0625 1225.28125 284.5 1222.78125 279 C 1220 273.046875 1212.898438 267.726563 1208 263.589844 C 1194 252 1175.449219 238.765625 1157 236 C 1162.46875 232 1173.675781 235.757813 1180 237 C 1203.425781 241.609375 1225.371094 252.558594 1244 267.449219 C 1251.191406 273.199219 1261.597656 283.472656 1257.257813 294 C 1254.800781 299.816406 1246.507813 302.355469 1242.996094 308 C 1239.382813 313.804688 1239 321 1236 327 C 1232.636719 333.574219 1226.535156 339.078125 1221 343.828125 C 1202.359375 359.832031 1176 368.714844 1152 371.714844 C 1138.691406 373.371094 1125 373.132813 1112 376.746094 C 1101 379.789063 1094.652344 387 1085 392 M 1123 235 C 1114.742188 246.722656 1101.175781 260.382813 1089 268 C 1088.976563 265.296875 1088.933594 262.648438 1088.320313 260 C 1083 237.167969 1065.714844 260.285156 1057 266.488281 C 1053.65625 269 1049.40625 269.316406 1046 271.703125 C 1043 273.8125 1038 283.574219 1033.601563 279.378906 C 1026.207031 272.433594 1040.285156 256.535156 1043.773438 251 C 1046.382813 247 1048.53125 242 1053 239.453125 C 1060.183594 235.609375 1067.5 238.386719 1075 238 C 1091 237 1106.882813 235 1123 235 M 280 301 L 279 301 C 279.183594 292.179688 281.800781 282.015625 273.894531 275.417969 C 266.5625 269.300781 249.527344 272.046875 250.253906 284 C 250.816406 293.152344 269.472656 282.78125 270.988281 294.015625 C 272.332031 304 263.570313 317.539063 276 324 L 276 317 L 277 317 C 277 326.609375 278.292969 339.257813 288 344 C 286.566406 333 280.515625 319.617188 286.53125 309 C 289.570313 303.640625 294.484375 300.046875 298.699219 295.714844 C 302 292.261719 304.671875 287 310 286.320313 C 322 285.097656 338.957031 296.238281 351 299 C 344.605469 288.125 326.402344 284.078125 316 277.796875 C 310.644531 274.5625 305.242188 269.738281 299 268.390625 C 293.992188 267.308594 286.953125 268.484375 283.332031 272.394531 C 278.75 277.339844 285.90625 282 286.367188 287 C 286.8125 292 281.980469 296.8125 280 301 M 1231 324 C 1243.828125 314.441406 1230 304.605469 1232.664063 293.019531 C 1235 282 1250.382813 294.230469 1253 285 C 1254.371094 280.386719 1250.367188 276.089844 1245.996094 276.242188 C 1239.613281 276.464844 1231.214844 280.660156 1227.738281 286.015625 C 1220.9375 296.492188 1229.566406 313 1231 324 M 278.667969 301.667969 C 278.722656 301.722656 278.777344 302.777344 278.332031 302.332031 C 278.277344 302.277344 278.222656 301.222656 278.667969 301.667969 M 542 340 L 543 341 L 542 340 M 943 340 C 943.769531 341.3125 943.6875 341.230469 945 342 C 944.453125 340.363281 944.636719 340.546875 943 340 M 744 356 C 744 378.472656 739.269531 400.601563 739 423 C 738.582031 458.476563 743 493.609375 743 529 L 745 529 C 745 507.613281 747.511719 486.417969 746.984375 465 C 746.476563 444.289063 743.757813 423.792969 744 403 C 744 389.542969 754 367.515625 744 356 M 563 368 C 567.800781 375.328125 579.539063 374.59375 585 381.324219 C 587.21875 384 587.3125 389.785156 588.605469 393 C 592.34375 402.292969 597.683594 411.21875 600 421 L 599 421 C 595.742188 409.695313 588 385.28125 577 380 C 579.476563 392.8125 586.203125 403 592.804688 414 C 594 416.226563 598.890625 427.824219 601 424 L 602 424 C 602 426.527344 602.277344 428.582031 603 431 L 604 431 C 603.996094 414.792969 600.167969 395.242188 589 383 C 603.597656 389.300781 598.507813 412.128906 611 422 C 610.742188 409.542969 607.714844 397.195313 599 388 C 604.496094 390.304688 608.402344 393 610 399 C 611.453125 404 610.425781 410.78125 615 414 C 615 409 614.398438 404.046875 614 399 L 615 399 C 615.378906 401.550781 615.988281 403.628906 617 406 C 619.984375 399 616.535156 383.257813 609.894531 379 C 605.828125 376.160156 599.65625 376.269531 595 375.105469 C 584.371094 372.449219 574 368.476563 563 368 M 867 408 L 868 408 C 869.230469 405.363281 870.234375 402.804688 871 400 L 872 400 L 872 418 L 873 418 C 875.460938 409.6875 876 401.328125 879 393 L 880 393 C 879 400.367188 877.363281 407.613281 876.425781 415 C 876.320313 415.824219 875.460938 421.769531 877.714844 421.078125 C 879.625 420.492188 879.941406 413.683594 880.4375 412 C 882.496094 405.007813 884.507813 394.601563 889.226563 389.015625 C 898.269531 378.308594 912.460938 377 923 369 C 912.378906 366.082031 897.492188 373.695313 887 376.113281 C 882.335938 377.1875 876.976563 377.273438 873.648438 381.226563 C 868.40625 387.453125 867 400.148438 867 408 M 897 400 L 896 400 L 902 382 C 894.792969 383.46875 892.25 389.761719 889.578125 396 C 884.558594 407.722656 880 419.167969 879 432 C 885.179688 427.316406 884 416 890 410 C 889.96875 413.734375 889.46875 417.304688 889 421 C 898.554688 416.113281 907.453125 391.273438 909 381 C 902.878906 384.714844 899.667969 393.59375 897 400 M 588 382.332031 C 588.773438 382.332031 588 382.832031 587.667969 382.667969 L 588 382.332031 M 565 384 C 566.386719 386.703125 567.964844 388.734375 570 391 C 563 388.742188 556.363281 386.316406 549 386 C 551.550781 389.402344 556.402344 390.246094 560 392.46875 C 565.480469 396 570.3125 400.765625 574 406 C 562.4375 398 550.671875 385.351563 535 388 C 546 396.300781 559.585938 398.46875 569.984375 409.003906 C 577 416.171875 581.195313 432.242188 589 437 C 587.855469 431 586.90625 425 585 419 L 590 423 L 590 420 L 591 420 C 592.222656 421.195313 592.421875 421.316406 594 422 C 592 409.179688 577.570313 388.015625 565 384 M 894 426 C 899.304688 423 902 415.65625 906 411 C 902.359375 418 899 424.449219 897 432 C 905 427.441406 908.65625 413 916 406.175781 C 925.976563 397.066406 939.773438 396.652344 950 389 C 944.761719 387.464844 940.207031 389 935 390 L 935 389 C 938 388.253906 940.191406 387.644531 942 385 C 933.292969 386.125 925 389 917 392 C 918.921875 389.742188 920.527344 387.570313 922 385 C 904.929688 388.304688 897 411.121094 894 426 M 935 390 L 935 391 C 923.355469 396 916 404 906 411 C 910.9375 400.21875 923.378906 391.742188 935 390 M 525 400 C 532.746094 400 540.59375 399.371094 548 402.09375 C 583.1875 415.019531 581.894531 461.171875 603 486 C 597.582031 486.65625 602.914063 492.738281 605 495 L 600 494 C 601 499.445313 603.828125 503 609 505 L 609 506 L 599 503 C 596.796875 517 580.359375 516.613281 575 528 C 586 525.449219 599.933594 523.238281 602 510 C 605.5625 512.027344 608.9375 513.390625 613 514 L 613 515 C 610.308594 515.234375 608.3125 515.605469 606 517 C 610 518.496094 613.742188 519 618 519 L 618 520 C 615.558594 520.019531 600.207031 520.046875 600.207031 523.042969 C 600.207031 525.039063 604.621094 526.640625 606 527.425781 C 613 531.414063 619.820313 534.644531 628 535 L 628 536 C 620 536.023438 611.367188 537 604 540 L 604 541 C 616.929688 541 629.195313 540.628906 642 539 L 642 540 L 630 542 L 630 544 C 643.796875 544 655.21875 538.53125 667 532 C 661.609375 540.765625 652.410156 543.621094 647 551 L 661 550 L 661 551 C 657 553.304688 654.824219 557 653 561 L 659 560 C 655.472656 563.527344 651.878906 567 649 571 C 652.421875 571 655.636719 570.625 659 570 L 659 571 C 655 572.167969 652.535156 573.773438 650 577 L 653 577 L 653 578 C 650.882813 579.21875 650 580 649 582 L 653 581 C 651.214844 584 649.769531 586.632813 649 590 C 655.808594 585 658.40625 577.023438 664 571.039063 C 667.601563 567.367188 673.222656 565 675 560 C 677.257813 554.316406 674 547 674 541 C 673.648438 526 678.246094 507.367188 674 493 C 667.367188 502.308594 672.644531 515.539063 667.542969 525 C 664.449219 530.585938 656.640625 532.8125 651 535 L 651 534 C 653.902344 532.386719 655 531.191406 656 528 C 649 529.808594 643.976563 529.199219 637 529 L 637 528 C 639 527.101563 639 527.125 640 525 L 628 525 L 628 524 L 632 524 C 629.730469 521.019531 626.582031 521.078125 623 521 L 623 520 L 627 520 C 625.445313 517.148438 624.207031 516.496094 621 516 L 621 515 C 625.976563 514.097656 634.367188 509.039063 626 506 C 628.761719 501.050781 618.933594 496.511719 615 495 L 615 494 L 619 494 C 613.367188 486.632813 606.324219 480.828125 601 473 L 606 474 C 604.703125 470.15625 602.398438 467.25 600 464 L 603 464 C 599.8125 457.300781 594.339844 452.269531 590.46875 446 C 580.496094 430 573 410.609375 556 400.476563 C 549 396.390625 530.328125 391.6875 525 400 M 882 464 L 886 464 C 882.394531 467.683594 879 471.21875 877 476 L 883 474 C 879.433594 478 877.628906 483.25 874.203125 487 C 871 490.296875 866.414063 490.746094 864 495 L 870 494 L 870 495 C 865 497.050781 857.925781 500.535156 855 505 L 859 505 L 859 506 C 855.683594 506.53125 853.769531 507.101563 852 510 L 865 510 L 865 511 C 860 511.429688 855.660156 512.660156 853 517 L 857 517 L 857 518 C 855 518.175781 853.800781 518.4375 852 519 L 852 520 C 863 520 872.492188 515.546875 882 510 C 875.191406 519.4375 863 522 852 522 C 853.554688 525 854.792969 525.503906 858 526 L 858 527 L 837 527 C 838.382813 529.421875 839.363281 530.0625 842 531 L 842 532 C 836.941406 531.78125 832 530.636719 827 530 C 828 532.132813 828.882813 532.78125 831 534 L 831 535 C 827.320313 533.46875 823.945313 531.703125 820 531 C 831.640625 547.175781 860.839844 546.808594 878 541 L 878 540 L 843 540 L 843 539 C 850.738281 539 866 541.246094 871 534 L 856 533 L 856 532 C 866.648438 532 878.183594 531.226563 885 522 L 868 523 L 868 522 C 872.476563 521 877.339844 517.636719 882 518.035156 C 890.667969 518.78125 898.394531 526.234375 908 527 C 902.730469 520.175781 884.449219 505.191406 876 507 L 876 506 C 881.597656 503.023438 884.359375 498.25 885 492 L 882 493 C 883.785156 490.324219 886.394531 486.804688 884 484 C 904 457.742188 904 414.183594 940 401.546875 C 947.765625 398.8125 956.890625 400 965 400 L 965 398 C 954.171875 396.628906 943.558594 394.300781 933 398.464844 C 913.359375 406.214844 906.203125 427.496094 895.933594 444 C 891.613281 451 885.535156 456.5625 882 464 M 896 400 C 895 402 894.609375 402.550781 893 404 C 893.960938 402.402344 894.726563 401.339844 896 400 M 576 408 C 574.363281 407.453125 574.546875 407.636719 574 406 C 575.636719 406.546875 575.453125 406.363281 576 408 M 577 409 L 576 410 L 577 409 M 520 413.4375 C 479.84375 419.761719 463.378906 461 491.4375 490.828125 C 509 509.613281 536.796875 514.167969 561 510 C 569.5625 508.410156 581.648438 506.03125 587.347656 498.816406 C 596.300781 487.484375 588.582031 464.441406 583.21875 453 C 571.246094 427.457031 549.652344 408.769531 520 413.4375 M 947 413.464844 C 919.3125 418.445313 900 446.375 896.84375 473 C 895.988281 480.136719 892.707031 490.382813 896.859375 497 C 900 502.058594 906.617188 504 912 505.667969 C 926.472656 510.511719 940.839844 512.589844 956 509.738281 C 980.257813 505.179688 1005.355469 486.757813 1008.710938 461 C 1012.832031 429.355469 974.785156 408.464844 947 413.464844 M 589 417 L 588 418 L 589 417 M 585 418 L 584 419 L 585 418 M 590 419 L 589 420 L 590 419 M 601 421 L 601 424 L 600 424 C 600.25 422.550781 600.316406 422.246094 601 421 M 533 431.71875 C 542 431.78125 551.683594 437.367188 557.53125 444.089844 C 561.214844 448.324219 564.410156 456.164063 555.996094 456.722656 C 546.898438 457.324219 536 450.238281 530 444 C 525 438.726563 523.769531 431.65625 533 431.71875 M 947 435.324219 C 951.757813 434.539063 970.835938 436.394531 966.914063 445 C 963.964844 451.285156 950.3125 454.574219 944 455.523438 C 936.445313 456.65625 930.332031 450.480469 934.179688 443.015625 C 936.582031 438.355469 942 436.140625 947 435.324219 M 918 452 C 915.40625 492.78125 974.667969 497.132813 981.535156 458 C 982.929688 450.050781 978.941406 443.074219 976 436 C 998.171875 440.636719 1000 463.628906 989.519531 481 C 979.816406 497.042969 957.285156 506.230469 939 502.332031 C 918.859375 498.035156 889.628906 467 918 452 M 508 437 C 505.800781 449.792969 500.589844 458.664063 508.550781 471 C 527.578125 500.496094 567.734375 483.132813 568 451 C 588.558594 465.605469 575.492188 487.769531 558 498 C 541 508 517 503 503 490 C 487.773438 475.753906 479.992188 440.789063 508 437 M 1001 452 C 1001.625 455.363281 1001.972656 458.578125 1002 462 L 1001 462 C 1000.730469 458.566406 999.730469 455.25 1001 452 M 484 453 L 483 463 L 482 463 C 482 459.425781 482.308594 456.183594 484 453 M 600 463 L 599 464 L 600 463 M 886 471 C 884.894531 472.457031 884.457031 473 883 474 C 884 472.542969 884.542969 472.101563 886 471 M 470 472 C 473.367188 513.246094 512 534.566406 550 526.339844 C 558.472656 524.503906 575.246094 522 580 514 C 550.175781 521 520 529 495 505 C 485 495.402344 480.835938 480.3125 470 472 M 601 472 L 600 473 L 601 472 M 906 515 C 911 523 928.261719 525.230469 937 526.75 C 972.359375 533 1014 512.335938 1015 472 C 1004.714844 477.832031 999.175781 496.363281 990 505 C 975.300781 518.597656 954.757813 524.308594 935 521.710938 C 925 520.414063 915.828125 516.324219 906 515 M 902 476 C 906.492188 485.5 914.824219 492.046875 920 501 C 908 499.382813 893.976563 489.394531 902 476 M 584 477 C 586.789063 492.023438 581.214844 499 566 501 C 571.34375 493.1875 577.582031 484 584 477 M 604 486 L 603 487 L 604 486 M 615 493 L 614 494 L 615 493 M 810 493 C 810 508.699219 811 524.269531 811 540 C 810.96875 546.441406 808.171875 554.730469 810.742188 561 C 812.679688 565.566406 818.417969 567 821.789063 570.214844 C 827.566406 576 829.738281 585.046875 836 590 C 835.1875 587.023438 834 585.359375 832 583 L 836 584 C 835.359375 581.589844 835.253906 580.367188 836 578 C 833.511719 576.070313 832.269531 573.332031 830 571 L 836 571 C 831.609375 565.792969 828.691406 560 824 555 C 827.367188 556.066406 830.460938 557 834 557 C 832.234375 554.078125 829.585938 552.226563 827 550 L 834 550 C 827.960938 542.683594 819.617188 539 816.925781 529 C 814 518.804688 820.328125 499.824219 810 493 M 871 493 L 870 494 L 871 493 M 606 495 L 605 496 L 606 495 M 861 504 L 860 505 L 861 504 M 610 506 L 609 507 L 610 506 M 875 507.332031 L 875.332031 507.667969 C 874.839844 507.832031 874.226563 507.332031 875 507.332031 M 872 508.332031 C 872.773438 508.332031 872 508.832031 871.667969 508.667969 L 872 508.332031 M 869 509 L 869 510 L 866 510 C 867.246094 509.316406 867.546875 509.25 869 509 M 621 526 L 621 527 C 616.5625 527 612.367188 526.8125 608 526 C 611.894531 524.800781 616.851563 526 621 526 M 637 529 L 637 530 L 634 530 C 635.246094 529.316406 635.546875 529.25 637 529 M 643 531 L 642 532 L 643 531 M 856 531 L 856 532 L 852 532 C 853.507813 531.316406 854.3125 531.175781 856 531 M 651 535 L 651 536 L 645 538 C 646.949219 536.425781 648.589844 535.710938 651 535 M 832 535.332031 C 832.773438 535.332031 832 535.832031 831.667969 535.667969 L 832 535.332031 M 835 536 L 834 537 L 835 536 M 838 537 L 837 538 L 838 537 M 643 538.332031 C 643.773438 538.332031 643 538.832031 642.667969 538.667969 L 643 538.332031 M 843 538 L 843 539 L 840 539 C 841.25 538.316406 841.546875 538.25 843 538 M 739 545 C 742.96875 566.386719 736 586 733.28125 607 C 730.25 629.503906 731 652.324219 731 675 L 733 675 C 733 642.671875 741.453125 610.800781 746.410156 579 C 747.914063 569.34375 748.933594 550.488281 739 545 M 978 658 C 974.929688 650.113281 983.835938 638 987.242188 631 C 996.269531 612.644531 1005.617188 594.660156 1015.988281 577 C 1020 570.128906 1023.382813 560.648438 1029.324219 555.207031 C 1033.207031 551.652344 1045.539063 557 1047.972656 561.132813 C 1055.941406 575.15625 1029.503906 577.109375 1024.589844 583.226563 C 1020 588.757813 1017.601563 597 1013.289063 603 C 1000.914063 620.367188 986.25 638.191406 978 658 M 454 553 C 463.515625 562.722656 468.667969 575.355469 475.425781 587 C 488 609 505.210938 633.347656 509 659 L 508 659 C 498.324219 638.296875 483.632813 618.796875 470.722656 600 C 467 594.707031 465.34375 588.109375 461.363281 583.105469 C 455.4375 575.65625 442.699219 578 438.179688 569 C 432.878906 558.601563 445.546875 555.226563 453 557 C 453.175781 555.316406 453.316406 554.507813 454 553 M 660 559 L 659 560 L 660 559 M 834 579 L 833 580 L 834 579 M 652 684 C 654.804688 705 662.90625 722.40625 661.960938 744 C 660.300781 782 647 819.140625 647 857 L 649 857 C 651.410156 840.679688 658.285156 824.164063 662 808 C 668 783.15625 671 757.488281 671 732 C 670.992188 717 667.324219 691.207031 652 684 M 839 857 C 838 814 817.710938 769.085938 823.574219 726 C 825 715.230469 827.367188 705.359375 830.65625 695 C 831 693.773438 833.800781 686.207031 830.816406 686.207031 C 827.71875 686.207031 824.554688 692.746094 823.3125 695 C 818.25 704.199219 815.273438 715.492188 815 726 C 814.195313 759.367188 819.550781 791.707031 827.628906 824 C 829.746094 832.476563 831.878906 851.652344 839 857 M 779 730 L 780 731 L 779 730 M 780 732 C 780.425781 783.449219 805 832.433594 805 884 C 812.9375 878 808.980469 857.445313 807.390625 849 C 802.34375 822.253906 795.488281 796 790.917969 769 C 788.996094 757.703125 788.503906 740.484375 780 732 M 702 734 C 697.515625 767.292969 687.824219 801.019531 680.996094 834 C 677.625 850.28125 672 869 679 885 L 680 885 C 680 833.644531 699.855469 784.75 704 734 L 702 734 M 726 814 C 719.578125 845.105469 695.535156 859.515625 681.488281 886 C 671 905.664063 671.707031 931.367188 670 953 C 673.625 950.242188 673.878906 944.289063 674.789063 940 C 677 929.308594 679 918.425781 682.34375 908 C 693.453125 873.328125 728 852.804688 728 814 L 726 814 M 759 814 C 759 828.527344 761.640625 842.359375 769.207031 855 C 778.53125 870.570313 792.300781 882 799.574219 899 C 804.707031 911.011719 807.355469 924.253906 809.996094 937 C 811.320313 943.390625 811.609375 951.375 815 957 C 816.46875 951.664063 815 945.5625 815 940 C 814.964844 920 811.765625 895.824219 799.957031 879 C 784.355469 856.769531 764.664063 842.832031 761 814 L 759 814 M 938 844 C 937.753906 874 933.542969 903.054688 935 933 C 935.324219 939.664063 934.363281 955.460938 923.277344 954 C 920.464844 953.589844 919.910156 949.097656 919 947 C 916.363281 940.203125 911.3125 933.585938 911 926 C 910.953125 918.253906 917.394531 911.132813 919.792969 904 C 924.390625 890.328125 926.3125 876 930.289063 862 C 932 855.816406 933.335938 848.65625 938 844 M 552 851 C 556 868.421875 559.800781 887.058594 565.523438 904 C 568 911.34375 574.3125 918.121094 574.878906 926 C 575.296875 931.757813 569.1875 950.269531 562.867188 951.636719 C 552.6875 954 553 938 553 932 C 553 915.117188 554 898 552.910156 881 C 552.28125 871.816406 548.296875 859.820313 552 851 M 742 906 C 740 921.148438 735.75 937.550781 743 952 L 744 952 C 748.984375 941.277344 751.378906 915 742 906 M 686 917 C 684 932.246094 689.40625 949.21875 683.90625 964 C 680.894531 972.09375 672.902344 976.476563 669 984 C 694.953125 984 692.953125 955.265625 690.425781 936 C 689.5625 929.445313 690.636719 922.308594 686 917 M 816 985 C 813.355469 977.21875 805.625 973 802.710938 965 C 797 950 800 932.742188 800 917 C 795 920.203125 795.632813 930.496094 794.871094 936 C 792.359375 954.074219 791 984 816 985 M 553.601563 954.648438 C 559.355469 952 566 963.648438 560.4375 967 C 555.4375 969.644531 548.761719 957.003906 553.601563 954.648438 M 932.683594 955.710938 C 937.53125 956 933.765625 970 928 969.453125 C 920 968.789063 926.320313 955.535156 932.683594 955.710938 M 553 971 C 561 976.238281 559.363281 981.527344 559 990 C 550.90625 986.402344 549.488281 978.820313 553 971 M 936 971 C 936.828125 981.480469 938.640625 987.683594 927 991 C 926.554688 980.652344 924.542969 975 936 971 M 630 988 C 608.691406 1004.28125 610.894531 1042 613 1066 C 613.695313 1074 614.453125 1089.636719 622 1094 C 617.726563 1071 620.171875 1043.082031 623.28125 1020 C 624.464844 1011.234375 632.433594 996.019531 630 988 M 855 988 C 855.636719 1000.414063 862 1013.277344 863.71875 1026 C 866.703125 1048.707031 865 1071.179688 865 1094 C 870.976563 1089.472656 871 1075.035156 872 1068 C 875.1875 1046.007813 878.78125 1000.371094 855 988 M 933 995.492188 C 941 993.828125 938.785156 1012.226563 931.976563 1013.457031 C 923.800781 1015 926.425781 997 933 995.492188 M 552.429688 996.660156 C 558.917969 994.085938 561.902344 1010.394531 557.644531 1012.378906 C 550.242188 1015.824219 546.921875 999 552.429688 996.660156 M 549 1037 C 549.285156 1032.570313 548 1027.410156 549.433594 1023.132813 C 550.65625 1019.253906 556.496094 1018 558.972656 1021.433594 C 564 1029 554.953125 1035.246094 549 1037 M 941 1039 C 935.871094 1037 927.824219 1034 926.320313 1028 C 924.496094 1020.726563 933 1015.449219 938.257813 1021.433594 C 941.820313 1025.585938 941 1034 941 1039 M 560 1036 C 560 1039.664063 560 1043.339844 559.984375 1047 C 559.628906 1060.472656 542.191406 1058.511719 548.457031 1046 C 549.566406 1043.78125 551.226563 1042 553 1040.1875 C 555.167969 1038.230469 557.347656 1037.027344 560 1036 M 928.515625 1037.113281 C 934.507813 1036.425781 940.777344 1046.277344 942 1051 C 942.667969 1053.171875 943.949219 1057.816406 940.683594 1058.398438 C 933.347656 1059.699219 926.261719 1056.832031 926 1049 C 925.941406 1046.597656 924.894531 1037.527344 928.515625 1037.113281 M 915 1049 L 914 1054 L 913 1054 C 913.480469 1052.039063 913.9375 1050.691406 915 1049 M 571.667969 1052.667969 C 571.722656 1052.722656 571.777344 1053.777344 571.332031 1053.332031 C 571.277344 1053.277344 571.222656 1052.222656 571.667969 1052.667969 M 911.773438 1061 C 915.667969 1060.234375 913.695313 1077.035156 909.597656 1078.246094 C 901.589844 1080.621094 905.367188 1062.054688 911.773438 1061 M 712 1117 C 712.910156 1121.414063 716 1128.390625 714.21875 1132.773438 C 712.246094 1137.574219 704.179688 1137 700 1137.425781 C 682.722656 1139.636719 665.585938 1128.710938 659 1113 C 670.667969 1113.007813 678 1119.761719 689 1121.671875 C 697 1123.097656 704.589844 1120 712 1117 M 774 1117 C 782.738281 1120 791.589844 1124 801 1121.210938 C 806.984375 1119.492188 818.742188 1109.496094 825.351563 1113.605469 C 829.941406 1116.460938 819 1127 816.996094 1128.472656 C 807.824219 1135.625 795.449219 1139 784 1137.425781 C 780.671875 1137 775.296875 1137.300781 773 1134.296875 C 769.867188 1130.109375 773.617188 1121.683594 774 1117 M 618 1172 C 619.589844 1192 626.828125 1212.773438 632.289063 1232 C 641.402344 1264.066406 651 1296 660.289063 1328 C 663.304688 1338.484375 664.664063 1356.019531 670.855469 1365 C 674.507813 1370.066406 683.609375 1370 686 1364 L 687 1364 C 687.566406 1365.042969 689.878906 1369.03125 691.359375 1366.339844 C 693 1363.269531 689.636719 1357 688.671875 1354 C 685.515625 1344.320313 684 1326 675 1320 C 677.753906 1334.617188 684.800781 1349.3125 686 1364 L 685 1364 C 682.398438 1346.625 673.582031 1328.550781 667.691406 1312 C 657.542969 1283.484375 647.957031 1254.703125 638.355469 1226 L 626.332031 1190 C 624.257813 1183.769531 622.773438 1176.730469 618 1172 M 525 1174 L 524 1175 L 525 1174 M 816 1186 C 805.890625 1200.230469 785.289063 1203.777344 769 1205.085938 C 734 1208 701.480469 1205.65625 671 1187 C 676.9375 1185.179688 684.972656 1189.0625 691 1190.078125 C 706 1192.621094 721.738281 1195 737 1196 C 764.3125 1197.789063 789 1187.152344 816 1186 M 637 1189 C 639.289063 1206.007813 647.617188 1222.070313 653.574219 1238 C 665 1268.578125 676.859375 1299.195313 687.65625 1330 C 691.226563 1340.179688 693.707031 1356.183594 699.855469 1365 C 702.367188 1368.398438 707.882813 1369.664063 711.847656 1368 C 716.683594 1366 712.828125 1360.234375 711.425781 1357 C 706.792969 1346.339844 702 1335.691406 697.578125 1325 C 684.1875 1293.617188 670 1262.539063 657 1231 C 651.589844 1218 648.332031 1198.390625 637 1189 M 865 1189 C 861.898438 1205.707031 862.558594 1223.089844 859.390625 1240 C 853.902344 1269.277344 843.820313 1297.53125 835.28125 1326 C 832.207031 1336.246094 829 1346.550781 826.792969 1357 C 825.992188 1360.59375 823.304688 1366.566406 828 1368.136719 C 847 1374.289063 846 1345.179688 848 1333 C 853.984375 1298.28125 861.96875 1264 866 1229 C 867.328125 1219.1875 871.28125 1197 865 1189 M 816 1314 C 812.785156 1325 813.601563 1335 806.894531 1345 C 802 1352.167969 793.261719 1356 789 1363 C 806.953125 1358.734375 829.535156 1333 816 1314 "/>
</g>
</svg>
