<?xml version="1.0" encoding="UTF-8"?>
<svg xmlns="http://www.w3.org/2000/svg" xmlns:xlink="http://www.w3.org/1999/xlink" width="1500pt" height="1500pt" viewBox="0 0 1500 1500" version="1.1">
<g id="surface1">
<path style=" stroke:none;fill-rule:nonzero;fill:rgb(0%,0%,0%);fill-opacity:1;" d="M 622 175 C 605.9375 175.132813 593 183.71875 578 188 C 569.636719 190.132813 559.957031 188.507813 552 192 C 545.652344 194.585938 546.535156 201.132813 552 204 L 552 205 C 540.332031 207.175781 530.457031 209.441406 520 215.425781 C 502.3125 225.550781 487 240.640625 467 246.253906 C 455.277344 249.539063 442 250 430 250 C 424 250 415.246094 248.398438 410 252 C 400.25 258.5 416 267.027344 410.578125 273.609375 C 407.597656 277.207031 401.71875 279.117188 398 282.015625 C 390.386719 288 383.808594 295.179688 377 302 C 374.238281 304.765625 366.226563 311 369 315.566406 C 371.464844 319.539063 383.695313 319.472656 388 320.425781 C 392.347656 321.386719 396.546875 322.636719 401 323 L 401 324 C 374.359375 328 359.730469 353.152344 341 369.425781 C 335.902344 374 319.761719 389.28125 335 391 C 313.238281 413.738281 293.707031 437.296875 265 451.753906 C 252.679688 458 240 462.679688 227 467 C 221 469 213.367188 470.109375 209.871094 476.019531 C 203.179688 487.34375 223.851563 493.691406 231 496.425781 C 233 497.207031 240 499.082031 238.792969 502.363281 C 236.453125 508.71875 221.226563 515.675781 216.285156 521.039063 C 202.96875 535.5 195.207031 553.078125 190.476563 572 C 185 593.441406 183 616 181.960938 638 C 181.542969 646.597656 179.28125 656.488281 181.558594 665 C 184.671875 676.636719 192.78125 665.3125 198.355469 669.132813 C 201.296875 671.144531 199 687.285156 199 691 C 199 709.246094 194.351563 765.171875 226 749 C 226 781.484375 249.511719 807.574219 254.410156 839 C 255.761719 847.671875 241.976563 864.082031 249.433594 870.140625 C 256.773438 876.105469 277.25 866.523438 285 864 C 283.515625 875.511719 281.28125 886.269531 282 898 C 282.75 907.585938 286.503906 917.34375 285.816406 927 C 285 937.269531 279.230469 946.144531 278.230469 956 C 277.609375 962.097656 282 963 287 963 C 282.648438 968.117188 273.257813 981.570313 285 984.550781 C 289.566406 985.710938 295.523438 983.5625 300 982.574219 C 317.941406 978.613281 331.488281 969.605469 348 963 C 354.921875 960.152344 361.933594 962.554688 369 959 C 359.421875 996.003906 352.421875 1025.699219 366 1063 C 370.578125 1075.378906 372.851563 1107.175781 391 1091 C 408.570313 1142.613281 441.425781 1190.621094 469.398438 1237 C 475.980469 1248 483 1258.609375 488.753906 1270 C 490.746094 1274 493 1281.15625 498 1282.246094 C 506.800781 1284.1875 512.734375 1261 514.949219 1255 C 516.269531 1251.476563 517.9375 1245 523 1247.15625 C 532.769531 1251.578125 540.558594 1264.546875 548 1272 C 568.855469 1293 590.558594 1313.152344 608 1337 C 614.210938 1345.277344 620.691406 1354.488281 621.824219 1365 C 622 1367.574219 621 1374.363281 625 1374.363281 C 631 1374.363281 634.480469 1364.472656 635.996094 1360 C 641.457031 1344 639 1328.535156 639 1312 C 651.65625 1324.65625 664.738281 1337 681 1344.742188 C 692.664063 1350.410156 701.84375 1351.09375 699 1336 C 705.355469 1342.355469 711.394531 1349.238281 720 1352.53125 C 724.851563 1354.386719 730.484375 1353.15625 735 1356 C 740.890625 1359.382813 743.953125 1368 752 1366.757813 C 759.316406 1365.652344 762 1357 769 1354.652344 C 781.480469 1350.71875 794.546875 1350 801 1336 L 802 1336 C 800 1351.335938 808.773438 1350.488281 821 1344.679688 C 836.738281 1337.203125 850.324219 1323.675781 863 1312 C 860.933594 1328.34375 859.949219 1345.242188 865.695313 1361 C 867 1364.808594 871 1375.597656 876.6875 1374.167969 C 880.339844 1373.242188 878.9375 1364.800781 879.46875 1362 C 881.503906 1351.210938 889.480469 1341.683594 895.710938 1333 C 919.984375 1299.148438 953 1272.597656 983 1244 C 984.5625 1254.589844 990 1265.257813 994.425781 1275 C 995.9375 1278.429688 998.273438 1283.726563 1002.988281 1282.339844 C 1009.832031 1280.324219 1014 1266.71875 1017.28125 1261 C 1028.710938 1241 1041.722656 1221.792969 1053.601563 1202 C 1064.570313 1183.714844 1075.980469 1165.289063 1085 1146 C 1092.246094 1131 1097.394531 1114.292969 1106 1100.003906 C 1111.933594 1090.191406 1119.183594 1100.40625 1125.347656 1093.683594 C 1129.292969 1089.378906 1128.691406 1081.359375 1130.347656 1076 C 1134.742188 1061.769531 1142.324219 1048.011719 1143.828125 1033 C 1145.300781 1018.347656 1144.191406 1003.335938 1140.625 989 C 1138 979.011719 1133.453125 969.398438 1133 959 C 1139.617188 962.707031 1145.621094 959.582031 1152 962.101563 C 1169.621094 969.054688 1183.769531 979 1203 982.800781 C 1221.742188 986.519531 1223 975.1875 1213 962 C 1217.582031 963.074219 1222.886719 963.175781 1222.835938 957 C 1222.753906 946.347656 1215.398438 936.085938 1215 925 C 1214.363281 903.757813 1222.242188 885.398438 1215 864 C 1223.394531 866 1244.320313 876.691406 1251.683594 869.566406 C 1259.988281 861.527344 1242.898438 849.480469 1244.914063 840 C 1247.1875 829.316406 1253.296875 819.074219 1257.398438 809 C 1265.359375 789.4375 1272.328125 769.039063 1275 748 C 1287.953125 757.679688 1297.183594 749.054688 1299.566406 735 C 1303.457031 712.011719 1299 688.730469 1302 666 C 1321.902344 682.296875 1321.25 652.464844 1319.714844 640 C 1315.359375 604.65625 1314.523438 566.183594 1295.1875 535 C 1289.800781 526.316406 1282.296875 517.800781 1274 511.785156 C 1270.890625 509.53125 1262.527344 506.457031 1261.78125 502.234375 C 1261.1875 499 1267.761719 497.140625 1270 496.34375 C 1277.316406 493.742188 1296.371094 488.382813 1291.527344 477.015625 C 1289 471.324219 1282.320313 469.648438 1277 468 C 1264.820313 464.144531 1252.613281 460.023438 1241 454.691406 C 1210 440.488281 1189.558594 415.558594 1166 392 C 1181.332031 387.335938 1165 374.132813 1159 368.714844 C 1140 352.09375 1126.203125 329.421875 1100 324 L 1100 323 C 1104.5 322.605469 1108.570313 321 1113 320.144531 C 1117.933594 319.332031 1127.824219 320.402344 1131.351563 316.296875 C 1135 312.011719 1126.578125 305.582031 1124 303 C 1116.558594 295.542969 1109.1875 288 1101 281.324219 C 1097.648438 278.597656 1092.234375 277 1089.648438 273.472656 C 1084.742188 267 1099.273438 259.554688 1090.851563 252.511719 C 1084 246.789063 1072.972656 249.363281 1065 250 C 1054.53125 250.628906 1043 249.222656 1033 246.621094 C 1013.382813 241.597656 998.804688 227 982 216.613281 C 971.621094 210.21875 961.617188 207.800781 950 205 C 953 201 955.878906 195.484375 949.941406 192.316406 C 944.335938 189.328125 935.277344 190.449219 929 189.191406 C 917.910156 187 907.710938 182.164063 897 178.746094 C 892.746094 177.390625 885.859375 178 882.359375 175.0625 C 875.960938 169.804688 891.214844 157.488281 877.996094 152.148438 C 865.703125 147.183594 849.3125 150.492188 837 153.734375 C 822.679688 157.503906 809.316406 164 798 173.613281 C 795.25 176.015625 788.75 186.152344 784.511719 184.652344 C 780.824219 183.351563 776.742188 167.738281 774.6875 164 C 767.390625 150.722656 747.667969 126.503906 731 125.4375 C 720.46875 124.765625 724 137 723.722656 143 C 723.429688 147.160156 720.300781 149.519531 718.5625 153.039063 C 715.546875 159.152344 716.371094 174.613281 709.621094 178.078125 C 706 180 693.492188 167.265625 690 165.054688 C 673.808594 154.796875 655.929688 151 637 151 C 618.957031 151 612.34375 158.390625 622 175 M 768 203 L 767 203 C 765.617188 201 751 182.488281 750.847656 192.0625 C 750.441406 206.757813 769.871094 227.0625 779 237 C 782.617188 208.398438 806 185.824219 832 175.011719 C 838.808594 172.175781 845.769531 169.734375 853 168.210938 C 854.949219 167.800781 859.496094 166.28125 860.824219 168.617188 C 862.714844 172 856 177.03125 854 178.824219 C 845.269531 186.636719 834.484375 191.328125 825 198.042969 C 823 199.40625 812.589844 207.09375 818.207031 209.308594 C 821.296875 210.523438 825.832031 208.488281 829 208.171875 C 835.652344 207.507813 842.566406 208.355469 849 206.03125 C 855.628906 203.636719 860.476563 198.078125 867 195.480469 C 880.707031 190.019531 908.695313 197 920 206 C 906.628906 214.738281 892.875 212.78125 878 215.464844 C 872.761719 216.410156 865.25 219.109375 863.496094 225 C 862.300781 228.746094 870.996094 227.011719 873 227 C 883.9375 227 895.1875 229 906 227.246094 C 914 226 922.75 223 931 223.128906 C 948.390625 223.5625 963.40625 235.042969 978 243.140625 C 983.210938 246.027344 997.839844 250.550781 999.167969 257.09375 C 1000.386719 263.089844 986.804688 276.003906 984 282 C 990.878906 275.121094 997.691406 266.746094 1007 263.117188 C 1023.472656 256.695313 1046.617188 267.253906 1064 268 C 1057.425781 276.566406 1044.6875 281.214844 1034 279.5625 C 1026.699219 278.433594 1018.402344 274.335938 1011 276.652344 C 1003 279.152344 1000.59375 288 993.960938 292 C 988.640625 295.308594 981.824219 293.359375 976 295.222656 C 969.800781 297.207031 965.199219 302.261719 959 304.203125 C 947 308 935 303.71875 923 305.289063 C 909.378906 307.058594 897.507813 314 885 319 L 885 320 C 909.222656 319.800781 934 309.507813 958 318.089844 C 974.3125 324 984.445313 337.785156 997 348.816406 C 1001.882813 353.105469 1007.707031 355.4375 1013 359 C 1000.9375 362.566406 985 359.269531 974 354 C 968.945313 351.40625 962.929688 344.507813 957 344.707031 C 951.203125 345 945.21875 356.074219 939 358.535156 C 934 360.453125 922.90625 360.597656 919.921875 365.269531 C 918 368.039063 923.648438 368 925 368 C 930.273438 368 935.992188 367 941 365.25 C 946.257813 363.527344 951.410156 358.574219 957 358.398438 C 964.445313 358.167969 971.382813 365 978 367.535156 C 988.503906 371.679688 1000.335938 370 1010 376.46875 C 1032.449219 391.597656 1044.894531 411.199219 1073 417 C 1068.320313 424.082031 1052.730469 424.558594 1045 423.828125 C 1040.648438 423.421875 1033.277344 422 1031.972656 428.042969 C 1030.917969 433 1038 438 1041 441 C 1050.636719 450.6875 1059.503906 461.214844 1067.882813 472 C 1070 474.808594 1079.984375 484.136719 1075.382813 488 C 1071.742188 491.003906 1063 488.273438 1059 487.347656 C 1041.722656 483.390625 1028 475.484375 1016.425781 462 C 1014.441406 459.714844 1003.863281 446.402344 999.992188 451 C 997.605469 453.726563 1005 463.492188 1006.605469 466 C 1014.929688 480 1027.917969 497.050781 1045 500 L 1045 501 C 1022.492188 499.222656 1006.996094 486.242188 989 474 C 994.253906 493.203125 1011.878906 508.492188 1031 513.101563 C 1040.523438 515.394531 1051 514.574219 1060 519 C 1073 525.433594 1078.601563 539.070313 1085.425781 551 C 1089.648438 558.371094 1094.605469 564.75 1097 573 C 1086.472656 569.007813 1079 559.320313 1069 554.269531 C 1052 546 1032.519531 541.1875 1015 534 C 1032 550.753906 1056.921875 556.355469 1073.710938 573.285156 C 1086.304688 586 1086.808594 606.761719 1099.214844 619 C 1104.53125 624.027344 1109.359375 618.136719 1111.519531 613 C 1121.695313 588.820313 1112.808594 558.523438 1098.652344 538 C 1094.363281 531.78125 1089 526.566406 1084 521 C 1082.65625 519.453125 1079.347656 516.152344 1081.660156 514.027344 C 1084.464844 511.453125 1091.765625 513.304688 1095 514.015625 C 1110.515625 517.429688 1118.820313 532.347656 1124.398438 546 C 1125 547.792969 1129.679688 562 1132.820313 558.363281 C 1134.730469 556.222656 1133 551.535156 1133 549 C 1132.597656 539 1131 529 1125.90625 520 C 1122.890625 515 1118 510 1116.679688 504 C 1115.660156 499.773438 1118 496.0625 1114.730469 492.46875 C 1110.382813 488 1103.855469 485.679688 1099 481.671875 C 1090.253906 474.445313 1082.675781 465.550781 1075.269531 457.003906 C 1071.929688 453.148438 1066 449.015625 1064.449219 444 C 1062.378906 437.300781 1073.464844 433.730469 1078 432 C 1086.425781 428.386719 1102.214844 421.09375 1111 421.148438 C 1116.570313 421.183594 1121.96875 424.371094 1127 426.394531 C 1141.203125 432.113281 1157 436 1172 439 C 1163 427.398438 1149.667969 421.445313 1139 411.828125 C 1125.949219 400.066406 1116.679688 384.679688 1103 373.464844 C 1090.171875 363 1074 358.039063 1060 349.550781 C 1050.9375 344.070313 1042.914063 337 1035 330 C 1033.234375 328.390625 1028.492188 323.074219 1025.695313 325.023438 C 1020.652344 328.535156 1035.363281 343 1037 346 C 1014.21875 346 1005.648438 334.117188 989 320.464844 C 985.910156 318 972.792969 311.582031 975.175781 306.417969 C 978.179688 300 993.421875 304.269531 998.996094 301.0625 C 1005.363281 297.394531 1007.488281 288.558594 1015 286.585938 C 1024.730469 284.035156 1034.570313 293.160156 1044 294.152344 C 1052.8125 295.078125 1060.515625 290.523438 1069 289.300781 C 1081.621094 287.480469 1093.902344 295 1101 305 C 1090.5625 304.167969 1080.546875 300.324219 1070 303 C 1058.886719 305.613281 1056.929688 314.617188 1070 315 C 1073.765625 315.089844 1077.289063 315.3125 1081 316 C 1073.984375 326 1062.621094 329 1051 329 C 1060.179688 341.722656 1072.949219 336.238281 1086 337.089844 C 1104 338.269531 1126 351.144531 1132 369 C 1122.3125 367.769531 1112.601563 365.789063 1103 364 C 1110.269531 374 1124.1875 377.285156 1133 386.003906 C 1143.957031 397 1152.390625 410 1163 421 C 1176.789063 435.371094 1193.238281 447.332031 1210 458 C 1220.589844 464.652344 1231.976563 471.378906 1244 475.117188 C 1245.984375 475.730469 1254.792969 477.269531 1254.792969 480.023438 C 1254.792969 485.75 1235.339844 484.800781 1232 484.246094 C 1213 481.105469 1197.253906 468.601563 1181 459.425781 C 1179 458.308594 1164.367188 450 1165 456.152344 C 1165.734375 463 1177.21875 472.480469 1182 476.828125 C 1192 486.054688 1202.628906 496.003906 1215 502.191406 C 1223.617188 506.5 1233.1875 508.085938 1242 512 C 1267.296875 522.738281 1287.878906 551.535156 1294 578 C 1286.527344 573.6875 1280.964844 567.023438 1274 562.039063 C 1254.882813 548.367188 1231.953125 537.066406 1208 537 C 1214.867188 545 1230.644531 546.3125 1240 551.4375 C 1260.644531 562.738281 1278 578.550781 1290 599 C 1294.429688 606.296875 1297.585938 613.777344 1299.625 622 C 1300 624 1302 629.128906 1299.394531 630.292969 C 1295 632.148438 1288 625 1285 622.746094 C 1272.359375 614.160156 1259 604 1245 598 C 1252.554688 615.179688 1271.339844 625.105469 1280 642 C 1291.386719 664.121094 1284 690.5 1284 714 L 1283 714 C 1281.988281 690.519531 1264.878906 669.140625 1250.410156 652 C 1246.382813 647.230469 1241.996094 642.785156 1237 639.023438 C 1235.730469 638.066406 1231.929688 634.789063 1230.695313 637.449219 C 1229.253906 640.5625 1232.664063 646.164063 1233.800781 649 C 1237.820313 659.019531 1243 668.496094 1245.84375 679 C 1255.46875 715.53125 1255.75 748.648438 1242.679688 784 C 1239.839844 791.683594 1236.785156 808.355469 1230 813 C 1225.640625 789.425781 1240.402344 764.113281 1230.90625 741 C 1224 724.414063 1193.992188 717.175781 1196.34375 697 C 1198.320313 680.03125 1227.269531 705.429688 1227.984375 680 C 1228.527344 660.679688 1220.605469 638.652344 1213.398438 621 C 1210.773438 614.578125 1202.996094 605.164063 1202.816406 598.316406 C 1202.730469 595.046875 1210.726563 595 1213 594.398438 C 1220.671875 592.828125 1242.386719 586.394531 1239 575 C 1234 557.027344 1207.335938 568.066406 1198.738281 557.6875 C 1192.535156 550.195313 1191.441406 537.371094 1185 529 C 1179.199219 521.207031 1166.820313 515.746094 1163 507 C 1151.757813 480 1154 449.695313 1120 440 C 1127.765625 447.765625 1135.5 454.328125 1139 465 C 1123.667969 454.199219 1108.933594 436.5 1091 454 C 1102.632813 452.53125 1113 453.660156 1121.984375 462.09375 C 1125.363281 465.277344 1139.789063 482.800781 1133.355469 487.78125 C 1129.4375 490.816406 1119 485.324219 1115 484 C 1120 488.789063 1126.175781 492.519531 1130.472656 498.003906 C 1134.515625 503.167969 1136.789063 510.117188 1142.175781 514.148438 C 1147.921875 518.445313 1155.820313 518 1162 521.53125 C 1173.949219 528.359375 1181.832031 544.605469 1183 558 C 1174.433594 555.78125 1164.914063 552.394531 1156 553 C 1168.402344 568.21875 1184.761719 569.59375 1203 572.425781 C 1206.402344 573 1221.234375 574.132813 1222 578.203125 C 1223 582.792969 1204.96875 584.707031 1202 585 C 1188.742188 585.824219 1172.910156 585.203125 1162 576.609375 C 1157.457031 573.03125 1155.652344 567.046875 1151.472656 563.636719 C 1149.199219 561.78125 1147.953125 565.230469 1147.707031 567.007813 C 1146.378906 576.648438 1156.824219 585.15625 1164 589.535156 C 1173.535156 595.355469 1185.210938 599.222656 1192.53125 608.015625 C 1201.554688 619 1202.214844 635.207031 1207.574219 648 C 1209.898438 653.546875 1218 671.671875 1213.59375 677.289063 C 1211.679688 679.667969 1207.464844 675.546875 1206 674.382813 C 1199.238281 669.015625 1193.570313 663 1188.375 656 C 1182.675781 648.453125 1176.6875 641.6875 1170 635 C 1170.191406 644.082031 1174.78125 652.394531 1179.460938 660 C 1182 664.304688 1186 668.566406 1185.578125 674 C 1184.914063 681 1178.804688 686.640625 1175 692 C 1169 700.542969 1165 708.4375 1165 719 C 1135.816406 710.332031 1154.191406 681.585938 1157.535156 663 C 1160.765625 645.0625 1147 632.5 1141.230469 617 C 1139.375 612.121094 1139.449219 601.738281 1134.605469 598.753906 C 1131 596.605469 1127 601.800781 1125 604 C 1120.871094 608.558594 1117.324219 614 1115.761719 620 C 1114.820313 623.660156 1116 629.386719 1113.257813 632.261719 C 1108.296875 637.316406 1100.550781 634 1098.546875 643 C 1097.683594 647 1104.714844 663.71875 1100.410156 665.246094 C 1097.476563 666.289063 1095.382813 662 1094.4375 660 C 1090.3125 651.375 1084.652344 644.722656 1077 639 C 1066.507813 631 1054.578125 625 1042 621.027344 C 1039 620.148438 1026.84375 617.710938 1030.753906 625 C 1034 631 1047 632.613281 1053 635.308594 C 1067 641.75 1079.167969 650.207031 1085 665 C 1076 662.203125 1067.722656 657.179688 1059 653.8125 C 1048 649.570313 1035.890625 646.480469 1026 640 C 1023.550781 638.265625 1010.671875 623.066406 1009.421875 630.101563 C 1007.992188 638.175781 1019 646.085938 1025 649.335938 C 1042.820313 659.234375 1070.6875 663.179688 1081 683 C 1074 683 1066.800781 682.621094 1060 681 C 1066.988281 689.148438 1082.425781 686.742188 1087.820313 696.183594 C 1089.363281 699 1090.394531 708.511719 1084.941406 707.246094 C 1078.175781 705.679688 1069 696.191406 1063 692.320313 C 1046.261719 681.769531 1028.988281 671.757813 1014 658.710938 C 1008.238281 653.695313 1004.519531 647.058594 999 642 C 1002.179688 651.316406 1004.71875 659.3125 1011.300781 667 C 1028.640625 687.261719 1056.640625 697.746094 1071.53125 720 C 1076 727 1076.621094 737 1078.625 745 C 1081.949219 758.304688 1083 772.8125 1076 785 C 1072.8125 780.550781 1071.835938 774.742188 1068.929688 770 C 1062.976563 760.273438 1054.917969 752.648438 1046 745.660156 C 1043 743.425781 1036.394531 736.519531 1032.359375 737.675781 C 1028.710938 738.722656 1037.210938 755.695313 1037.699219 759 C 1040.515625 778.101563 1020.484375 803 1039 818 C 1039 811 1039.199219 804 1040.464844 797 C 1041.898438 789.101563 1044.554688 777.496094 1049.699219 771.152344 C 1055.949219 763.449219 1061.183594 775.800781 1061.816406 781 C 1063.964844 798.648438 1056.191406 816.3125 1047.1875 831 C 1044.558594 835.289063 1038.175781 847.792969 1032.316406 847.792969 C 1029.285156 847.792969 1026.695313 829.097656 1025.667969 826 C 1017.558594 801.566406 1001.777344 782.78125 991 760 C 997.835938 760 1022.964844 761.152344 1021.683594 749.105469 C 1021.195313 744.511719 1014.371094 744.007813 1011 743 C 1002 740.183594 994.386719 734 988.285156 727 C 976 713.109375 965.585938 697.746094 952 685.089844 C 942.480469 676.222656 928.367188 669.027344 920.417969 659 C 915.277344 652.445313 916.507813 643.019531 911.890625 636 C 906.867188 628.355469 898.683594 623.640625 892 617.570313 C 890.566406 616.222656 886.21875 612.433594 888 610.03125 C 890 607.574219 895.90625 610.542969 898 611.429688 C 907 615.25 914.96875 621.21875 924 625 C 918.621094 619.621094 913 614.480469 909 608 C 923 613.445313 932 624.714844 948 628 C 940 620.078125 928 618 924 606 C 941.761719 610.277344 956.175781 616.667969 972 626 C 963.691406 613.4375 950 608.015625 941 597 C 959 602 968.933594 618 985 626 C 975.804688 613.085938 964 596.535156 958 582 C 974.902344 586.070313 990.339844 592.816406 1007 597.574219 C 1020.214844 601.34375 1034.382813 602.820313 1047 608.4375 C 1057.726563 613.21875 1068.175781 629.199219 1080.996094 627.8125 C 1093 626.507813 1083.53125 610.5625 1080.753906 605 C 1071.605469 586.695313 1059.859375 572.71875 1040 566 C 1047.300781 573.144531 1057.921875 577.628906 1061 588 C 1043.734375 584 1029 580 1011 580 C 1012.800781 569.691406 1004.550781 566.339844 997 561.332031 C 980.890625 550.644531 965 540 948 530.820313 C 937.292969 525.050781 957.566406 520.160156 946.976563 513 C 938.695313 507.347656 927.4375 509 918 507.824219 C 911.472656 507.078125 909.601563 499.816406 903 500.230469 C 895.34375 500.710938 888.3125 507.148438 883 512.089844 C 870 524.144531 859.785156 537.714844 859 556 L 858 556 C 858 542.140625 857.535156 523.105469 867.214844 512.015625 C 875 503.058594 888.273438 501.007813 894 490 C 872 499.753906 856.78125 508.316406 843.304688 529 C 839.605469 534.675781 832.714844 545.375 824.320313 542.679688 C 818.523438 540.816406 827.804688 528 829 525 C 835.585938 510.53125 832.234375 493.664063 837.925781 479 C 839.179688 475.773438 845.253906 466.785156 840.667969 464.121094 C 835.90625 461.355469 826.621094 469 823 471.4375 C 809.871094 480.703125 801.757813 494.488281 790.910156 506 C 788.273438 508.792969 781.875 516.332031 777.511719 516 C 774.570313 515.582031 772.441406 506.347656 771.214844 504 C 767 496.148438 755.480469 474.472656 745 474.710938 C 741.394531 474.796875 740.234375 479.164063 739.292969 482 C 736.453125 490.550781 731.511719 498 727.792969 506 C 726.222656 509.4375 725.25 516.796875 719.957031 515 C 713 512.308594 708.359375 503.5625 704 498 C 696.46875 488 687.660156 478.085938 677 471.21875 C 673.261719 468.808594 665.960938 462.566406 661 463.816406 C 654.730469 465.484375 662.507813 478.554688 663.640625 482 C 668.359375 496.332031 666.507813 511.785156 672 526 C 673.453125 529.539063 680 537.53125 677.785156 541.398438 C 674 547.507813 663.59375 537.683594 661.324219 535 C 654.914063 527.402344 650.839844 518.316406 643.828125 511.089844 C 633.570313 500.511719 621 495.824219 608 490 C 613 500.761719 626.390625 502.28125 633.609375 511.039063 C 642.804688 522.199219 641.933594 538.480469 643 552 L 642 552 C 639.652344 534.578125 628.503906 520 615 509.210938 C 610 505.398438 604.453125 500.632813 598 500.230469 C 591.847656 500 589.746094 506.226563 583.984375 507 C 573.910156 508.050781 561.550781 507 553 513.636719 C 544.328125 520.597656 562.902344 525.773438 552.976563 531.097656 C 535.945313 540.226563 520.203125 550.078125 504 560.65625 C 496.921875 565.277344 487.773438 569.164063 490 579 C 472.867188 582.179688 456 584.035156 439 588 C 443.707031 576.773438 453.84375 574.65625 461 566 C 442 576.074219 429.550781 586.402344 419.753906 606 C 417 611.210938 408.394531 627 420 627.757813 C 432.777344 628.710938 444 612.664063 455 608 C 467.945313 602.21875 482.449219 600.558594 496 597 C 512.300781 592.386719 527.53125 586 544 582 C 534.691406 597 522.875 609.484375 516 626 C 531.628906 615.3125 541.410156 600.800781 561 597 L 561 598 C 548.730469 604.828125 536.789063 614.222656 529 626 C 544.601563 617 559.519531 610.308594 577 606 C 572.402344 618 560.511719 620.308594 552 628 C 567.566406 625.699219 578.601563 614.132813 592 607 C 588.625 613.613281 583.203125 618.792969 578 624 C 590.351563 618.832031 601 609.605469 615 609 C 610.519531 620.570313 597.71875 625.5625 590.394531 635 C 584.902344 642.070313 586 652.078125 580.582031 659 C 574 667.253906 562.796875 672.828125 555 680.089844 C 540.84375 693.277344 529.179688 708.40625 516.574219 723 C 509.429688 731.273438 500.75 740 490 743.085938 C 486.945313 744 479.425781 745 479.496094 749.4375 C 479.679688 760.539063 503 760 510 760 C 503.871094 773 494 784.242188 487.320313 797 C 478.785156 813.261719 473.707031 832.085938 470 850 C 453.273438 838.214844 440.195313 812.25 438.171875 792 C 437.609375 786.378906 438.371094 768.636719 446.945313 768.636719 C 450.777344 768.636719 452.476563 774.226563 453.765625 777 C 457.925781 786 461.808594 795.039063 462.484375 805 C 462.589844 806.558594 461.304688 817.785156 465.691406 814.363281 C 469.761719 811.191406 470 802.660156 469.960938 798 C 469.375 783.578125 460.453125 772.070313 463.667969 757 C 464.324219 754 472.421875 739.128906 469 737.558594 C 465.589844 736 457.566406 743.261719 455 745.15625 C 446.269531 751.597656 438 759.570313 432.617188 769 C 429.65625 774.097656 428.496094 780.324219 425 785 C 419.546875 775.3125 418.988281 762.804688 420.753906 752 C 423 737.574219 425.1875 723.046875 435.285156 712.039063 C 456.953125 688.417969 494 677.410156 502 643 C 481.535156 663.46875 460.746094 678.171875 436 693.203125 C 430.71875 696.410156 420 707.375 414 707.363281 C 407.984375 707.351563 412 696.394531 414.226563 694.210938 C 421.511719 686.597656 433.804688 687.828125 441 681 C 433.90625 682.316406 426.21875 683 419 683 C 431.246094 662 459 660.183594 478 648.53125 C 482.886719 645.515625 494.746094 635.503906 491.355469 628.378906 C 489.46875 624.398438 477.425781 638.28125 475 640 C 458.925781 650.597656 434.523438 658.703125 416 664 C 421.453125 648.269531 436.605469 640.226563 451 634 C 456.3125 631.511719 467 630.1875 470.246094 624.792969 C 474.53125 617.335938 460.574219 620.519531 458 621.34375 C 445 625.460938 432.644531 631.671875 422 640.015625 C 415.734375 645 410.425781 650.734375 407 658 C 405.886719 660.441406 404.457031 665.363281 401 665.363281 C 395.753906 665.363281 402.703125 646.765625 402 643.003906 C 400.832031 634.140625 392.203125 637 387.859375 631.570313 C 385.332031 628.4375 386.257813 623.675781 385.210938 620 C 383.527344 614.078125 379.90625 608.535156 375.824219 604 C 373.632813 601.558594 369.882813 596.773438 366.277344 599.464844 C 361.675781 603 361.9375 612.003906 359.90625 617 C 353.859375 632 340.792969 643.609375 343.300781 661 C 346 680 365.816406 710.144531 336 719 C 335.972656 708.328125 331.675781 700.539063 325.574219 692 C 321.796875 686.71875 315.640625 680.800781 315 674 C 314 661.222656 329.863281 649 331 635 C 316.554688 647.628906 306.265625 672.332031 287 678 C 287.324219 662.273438 294.328125 648 298.574219 633 C 301.320313 623.375 302.785156 612.613281 310.183594 605.183594 C 321.296875 594.027344 354.621094 588.523438 352.769531 568.003906 C 352.632813 566.449219 351.753906 562.164063 349.285156 563.207031 C 345.65625 564.738281 343.585938 573.148438 339.910156 576 C 328.769531 584.464844 313.496094 585.550781 300 585 C 296.21875 584.796875 278.207031 583.804688 278.207031 578.320313 C 278.207031 574.660156 293 573 296 572.425781 C 311.542969 569.617188 334.683594 569 343 553 C 337.910156 553.015625 322.242188 559 318.695313 556 C 313.699219 551.71875 325.335938 534.515625 328 531.003906 C 336.863281 519.539063 347.925781 522 357.957031 514.484375 C 363 510.644531 365.308594 504 369.328125 499 C 374.230469 493.0625 380.78125 489.390625 386 484 C 381.542969 485.449219 370.9375 491.09375 366.605469 487.804688 C 359.488281 482.410156 375 464.511719 379 461.214844 C 387.933594 453.550781 398.894531 452.597656 410 454 C 394.714844 434.207031 376.472656 456.53125 362 464 C 364.964844 453.730469 374 448.378906 380 440 C 374.722656 441.496094 369.621094 443.035156 365 446.105469 C 343.496094 460.402344 346.800781 486.34375 337.347656 507 C 333.605469 515.171875 322.4375 519.683594 316.898438 527 C 310.175781 536 309 548.464844 302.300781 556.773438 C 293 568 266.457031 556.476563 260.988281 575 C 257.480469 587 279 592.601563 287 594.191406 C 289.546875 594.699219 297.296875 594.441406 297.253906 598.277344 C 297.191406 603.441406 290.769531 610.832031 289 616 C 282 636.195313 271.292969 659.160156 273 681 C 275 705.1875 301.699219 679.820313 303.8125 695 C 306.917969 717.355469 275.898438 724.023438 269 743 C 263.757813 758 267.535156 776 270 791 C 271.359375 798.578125 274.246094 806.402344 272 814 C 264.996094 806.449219 262.410156 793.507813 258.808594 784 C 253.484375 770 248 755.097656 247 740 C 244.546875 703 260.878906 668.121094 272 634 C 262.816406 638 255.921875 645.496094 249.589844 653 C 235.296875 670 219.988281 692.183594 218 715 L 217 715 C 216.9375 691.757813 210.957031 662.710938 221.808594 641 C 230 624.390625 248 614.558594 256 598 C 236.527344 606.109375 220.402344 626.109375 200 631 C 206.4375 597.808594 227 571.667969 256 554.453125 C 267 548 284.960938 547.234375 293 537 C 257.261719 537.003906 236.605469 560.542969 208 577 C 209.914063 555.074219 232 526.707031 251 516.785156 C 264 510 279 507.695313 292 500.691406 C 310.402344 490.773438 328.652344 472.347656 337 453 C 314.1875 455 295.777344 476.496094 274 483 C 267 485.027344 252.488281 487.386719 246.753906 481.109375 C 244 478.144531 253.378906 476 255 475.332031 C 266.355469 471.53125 276.820313 466.65625 287 460.316406 C 319.5 440.070313 340.242188 412.425781 367 386.015625 C 376 377 389.546875 373.222656 398 364 L 369 369 C 374.726563 349.160156 397.957031 338.765625 417 337.175781 C 428.835938 336.183594 443.433594 342 450 328 C 437.851563 331.589844 428.308594 323.6875 419 317 C 424.851563 313.003906 435.671875 317.789063 440.339844 311.574219 C 443.878906 307 435 304 432 303.042969 C 421.4375 300 410.496094 303.644531 400 305 C 406 294.457031 419.695313 287 432 289.519531 C 440.183594 291.261719 447.273438 296.117188 456 294.675781 C 465.628906 293.082031 475.898438 283.726563 485.996094 286.808594 C 493.492188 289.097656 495.242188 298.042969 502 301.546875 C 507.914063 304.609375 521.359375 301.226563 525.246094 306.636719 C 527.96875 310.421875 515.453125 318.65625 513 321 C 498.257813 334.472656 484.796875 346 464 346 C 467.175781 337.617188 474.476563 331.746094 477 323 C 462 327.300781 452.84375 342 440 350 C 426.734375 358.164063 411.367188 362.773438 399 372.519531 C 385 383.457031 376 399.089844 362.996094 410.714844 C 352 420.429688 337.558594 427 329 439 C 344.195313 435.515625 359.214844 431 374 426 C 378.871094 424.375 386.574219 419.613281 391.714844 420.207031 C 394.707031 420.554688 397 423.679688 400 424.738281 C 407.273438 427.449219 414.828125 428.5 422 431.769531 C 426.414063 433.78125 437.292969 436.496094 436.339844 443.003906 C 435.484375 448.8125 427.84375 454.074219 424 458 C 417.476563 464.699219 412 472.597656 405 478.699219 C 399.183594 483.664063 391.300781 486.40625 386 492.09375 C 382.445313 496.1875 385 499.316406 384 504 C 383.246094 508.410156 380 512.34375 377.667969 516 C 371.332031 525.574219 367 536.382813 367 548 C 366.972656 550.589844 365.992188 557.382813 368.976563 558.792969 C 371.8125 560.132813 377.992188 541.527344 379.320313 539 C 389 520.488281 401.585938 514 422 514 C 417.734375 522.222656 409.476563 527.667969 403.898438 535 C 391 552 383.296875 573.695313 385.84375 595 C 386.679688 602 387.511719 619.675781 397 621 C 405.863281 622.121094 411.488281 601.0625 413.988281 595 C 417.179688 587.265625 420.191406 579.179688 426 573.039063 C 442.667969 555.804688 468.359375 551.199219 486 535 C 467.832031 539.316406 444.351563 547.292969 428 556.441406 C 419.464844 561.214844 412.953125 569.066406 404 573 C 405.714844 566 410.207031 560.339844 413.6875 554 C 420.449219 541.683594 426 527.074219 439 520 C 450.578125 513.503906 464.675781 515 477 511 C 493.578125 505.4375 504.855469 490.285156 512 475 C 503.390625 478.761719 496.949219 486.011719 489 491 C 479 497.0625 467.515625 500.089844 456 501 L 456 500 C 480.1875 493.382813 492.273438 469 504 449 C 490.730469 451 484.894531 462.390625 475.996094 471 C 467.445313 479.195313 455.523438 485.054688 444 487.765625 C 439 489 430.933594 490.554688 426 488.398438 C 419.445313 485.355469 430.292969 475 432.574219 472 C 440.332031 462.0625 448 452 457 443.039063 C 460.800781 439.273438 468.175781 435 468.6875 429.015625 C 469.535156 419.246094 443.804688 423.523438 438 422.816406 C 435.671875 422.53125 429.207031 421.472656 429.207031 418.179688 C 429.207031 415.53125 435.210938 415.078125 437 414.570313 C 445.554688 412.144531 453.875 407.8125 461 402.523438 C 472.253906 394.160156 480.519531 381.578125 493 375 C 501.304688 370.484375 511.335938 372.042969 520 368.546875 C 527.214844 365.636719 535 359 543 358.4375 C 548 358.085938 552.507813 362.640625 557 364.535156 C 565.679688 368.191406 574.980469 370 584 367 C 575.773438 360.367188 564.410156 361.675781 556 355.363281 C 552.269531 352.511719 549.4375 344.691406 544 345 C 537.949219 345.273438 530.847656 352.175781 525 354.304688 C 512.429688 359 499.277344 360 486 360 L 486 359 C 492.660156 355.496094 500 352.484375 506 347.671875 C 518.203125 337.605469 526.832031 324.578125 542 318.453125 C 564.898438 309.203125 590.601563 318.152344 614 320 C 594.445313 297.644531 563.988281 311.210938 540 303.671875 C 533.832031 301.730469 529.277344 296.59375 523 294.789063 C 517.742188 293.277344 511.875 295.078125 507 292.140625 C 499.636719 287.703125 497.246094 278.121094 488 276.339844 C 470.371094 273 449 289.425781 437 267 C 455.34375 267 477.441406 255.550781 495 263.347656 C 503.453125 267.101563 509.589844 274.589844 516 281 C 513.445313 275 501.4375 264 502 258.042969 C 502.703125 251.488281 523.617188 243.0625 529 239.796875 C 540.953125 232.539063 552.777344 225 567 223.292969 C 576.9375 222.121094 587 227 597 227.828125 C 610.765625 229.160156 625.171875 228 639 228 C 625.925781 205.449219 595 224 581 205 C 594.855469 198.828125 613.597656 190 629 194.300781 C 636.808594 196.523438 642.511719 202.671875 650 205.441406 C 656 207.707031 662.648438 206.589844 669 207.425781 C 672 208 680.757813 210.371094 683.453125 208.671875 C 687.324219 206.230469 677.675781 199.234375 676 198.09375 C 666.390625 191.535156 655.71875 187 647 179.050781 C 644.710938 177 639.171875 173.039063 639.90625 169.332031 C 640.484375 166.421875 645 168 647 168.210938 C 653.949219 169.636719 660.445313 172 667 174.601563 C 686 182.40625 701.660156 196.824219 714 213 C 718.851563 219.15625 721.746094 227.585938 727 233 C 727.695313 228.257813 729.378906 224 728.699219 219 C 726.875 206 716.300781 189.207031 730 179 C 730.664063 187.152344 733.726563 193.796875 739 200 C 739 194.484375 738.210938 188.265625 740 183 C 741.742188 178.601563 745.796875 175 745.707031 170 C 745.59375 163.734375 740.9375 157 739 151 C 759.996094 154.789063 767.988281 185 768 203 M 702 274 C 699.214844 264.328125 692.25 256.527344 689 247 C 698 251.75 703 262.644531 713 266 C 711 243.488281 693.671875 233.171875 675 225.546875 C 671.230469 224.007813 658.398438 215.050781 655 220.472656 C 651.625 226.140625 666.894531 232.484375 669.984375 235.210938 C 682.957031 246.652344 680.898438 272 702 274 M 787 266 C 797.308594 262.523438 803.371094 252.078125 812 246 C 808 255.816406 799.574219 264.542969 798 275 C 820.253906 268.578125 816.316406 246.59375 831 234.609375 C 833.574219 232.597656 850.183594 224.675781 845.199219 220.027344 C 840.804688 216 830 223.324219 826 225.140625 C 808.214844 233.066406 788.769531 244.367188 787 266 M 689 246 L 688 247 L 689 246 M 748 264 L 749 264 C 753.941406 276 762 291.734375 772 300 C 769 280.679688 753 266.277344 753 246 C 745.449219 249.691406 743.988281 258.75 741.1875 266 C 736 279.410156 728.988281 294.246094 732.523438 309 C 734.480469 317.15625 740.4375 323.804688 742.320313 332 C 744.246094 340.394531 740 356.210938 748.261719 362.246094 C 751.8125 365 753.621094 354.0625 754.453125 352 C 758.542969 342 768.261719 329.429688 762.542969 318 C 757.9375 308.796875 746.457031 305.734375 742.484375 296 C 738 285.242188 746.941406 274.558594 748 264 M 780 335 C 790 333.191406 795.578125 324.761719 801 317 C 811.230469 303 820.175781 287.390625 834 276.519531 C 859 256.808594 890.523438 265.054688 919 270.390625 C 927.570313 272 936.582031 272 945 274 L 945 275 C 937.355469 278.179688 930.355469 281.019531 922 281.828125 C 898.605469 284.09375 862.78125 272 852 302 C 850.625 306.171875 850 310.605469 850 315 C 859.683594 310.445313 863.714844 300.285156 875 297.378906 C 901.675781 290.507813 938.492188 304.730469 956.453125 277 C 960.382813 271 962.773438 263.832031 965 257 C 953.898438 257.484375 944.199219 265.023438 933 264.742188 C 910.613281 264.179688 889.496094 253.078125 867 253.078125 C 831.273438 253.078125 810 280.746094 793.851563 309 C 789 317.359375 782.273438 325.507813 780 335 M 537 256 C 537.425781 261 538.949219 265.523438 540.871094 270 C 555.867188 305 594.984375 290.601563 624 297.503906 C 636 300.371094 640.921875 310 651 315 C 650.628906 310.289063 649.992188 305.371094 648 301 C 635.785156 272.203125 601.691406 284.121094 578 281.828125 C 569.980469 281.054688 563.320313 278.042969 556 275 L 556 274 C 564.417969 272 573.429688 272 582 270.390625 C 609.269531 265.289063 640.445313 257 665 274.785156 C 680.351563 286 689.269531 303.019531 700 318 C 705.578125 325.472656 711 333.703125 721 334 C 707.625 302 683.4375 260.332031 646 254.4375 C 618.410156 250.097656 593 264.792969 566 264.660156 C 556 264.609375 546.359375 258.65625 537 256 M 556 273 L 555 274 L 556 273 M 946 273 L 945 274 L 946 273 M 652 276 C 655 283.488281 661 290 665 297 C 675.246094 315.121094 682.523438 333.472656 703 342 C 700.355469 334.226563 692.722656 328.667969 688 322 C 677.214844 306.570313 672.957031 281.023438 652 276 M 797 342 C 818.367188 333.699219 825.816406 314.695313 836.308594 296 C 840 289.175781 846 283.738281 848 276 C 829.605469 283.125 823.902344 306.433594 813.242188 321 C 808.171875 328 799.785156 333.808594 797 342 M 630 323 C 624.4375 325.21875 621.589844 328.828125 615 329.332031 C 601.347656 330.375 588.566406 325 575 329.039063 C 569.339844 330.769531 557.636719 335.167969 558.648438 343 C 560 353.316406 576.394531 339.527344 580 338.117188 C 594.238281 332.550781 609.460938 339.28125 624 339.542969 C 631 339.671875 637 335 644 335 C 654.886719 335.082031 659.714844 348.527344 662.65625 357 C 663.378906 359.082031 665 368 668.503906 367.078125 C 672.753906 366.121094 667.753906 351.4375 666.972656 349 C 663 337.15625 644.609375 316.78125 630 323 M 831 369 C 842.351563 363.328125 838.925781 344.324219 851 337.226563 C 858.496094 332.824219 867 338.625 875 339.558594 C 889.726563 341.3125 904.273438 332.601563 919 337.46875 C 923 339 940 353.378906 942.167969 343 C 943 338.117188 936.488281 334 933 332 C 921.839844 325.730469 909 327 897 328.167969 C 891.425781 328.726563 884.433594 330.320313 879 328.257813 C 874.585938 326.582031 872 322.289063 867 322.097656 C 842.296875 321.160156 832.53125 349.609375 831 369 M 658 371 C 657.394531 367.480469 656.21875 364.234375 654.679688 361 C 644.5 339.585938 623 349.015625 605 350.828125 C 598 351.523438 590.957031 351 584 351.003906 C 582.210938 351.039063 577.378906 351 577.921875 354 C 578.976563 359.832031 594.171875 357.300781 598 357 C 610.59375 355.691406 625.632813 347.648438 638 354 C 645.890625 357.789063 650.859375 366 658 371 M 844 370 C 850.886719 365.148438 855.242188 357.363281 863 353.675781 C 875.394531 347.777344 891.410156 356.167969 904 357.714844 C 907.71875 358.171875 922 359.375 923 354 C 923.621094 351.074219 918.722656 351.070313 917 351.015625 C 910.339844 350.804688 903.65625 351.253906 897 351 C 878.988281 350.171875 858 339 847.273438 360 C 845.621094 363.230469 844.535156 366.425781 844 370 M 729 422 C 729 419.074219 730.46875 403.441406 735.515625 404.632813 C 738.296875 405.285156 737.726563 412.699219 739 414.773438 C 741.6875 419.027344 750.582031 419.273438 755 418.550781 C 760.253906 417.695313 762.558594 415.132813 763.5625 410 C 763.808594 408.738281 763.859375 404.136719 766 404.632813 C 771 405.730469 771.683594 418.117188 773 422 L 774 422 C 777.808594 413 772.511719 406 773.226563 397 C 773.851563 389.128906 780.242188 382.796875 786 378.097656 C 787.808594 376.621094 805 365.054688 806.230469 371 C 806.71875 373.359375 802.484375 376.460938 801 378 C 797.5625 382 794.25 386.410156 795.230469 392 C 795.644531 394.328125 797 397 799.941406 395.824219 C 804.898438 393.800781 805.480469 386.8125 812 387.273438 C 819.550781 387.808594 825.660156 406.421875 830.992188 399 C 839.589844 386.636719 822.410156 383.554688 819.574219 376.0625 C 817.484375 370.546875 828.5 366.703125 824.957031 360.132813 C 822.679688 356 817 356.019531 813 356 C 800.960938 356 794 360.640625 783 363.195313 C 778.9375 364.136719 775.167969 361.125 771 363 C 766.921875 364.640625 765.453125 369.296875 763.515625 373 C 758 383.285156 755.699219 395 750 405 C 745.253906 393.597656 742.679688 372.136719 731.90625 365 C 727.789063 362.125 723.441406 364 719 363 C 714.433594 361.710938 710.511719 358.625 706 357.222656 C 699.703125 355.261719 679.902344 353.097656 676 360.226563 C 672.710938 366.476563 682.613281 371 682 376.609375 C 681.375 383.070313 660.703125 388.273438 669.601563 398.675781 C 675.191406 405.210938 683.238281 387.480469 690 387.296875 C 696.574219 387.121094 697 395.136719 702.195313 395.824219 C 705.871094 396.316406 707 391.796875 706.703125 389 C 705.53125 381.65625 697.855469 378.457031 695 372.226563 C 693.40625 368.546875 699 369.28125 701 369.792969 C 712 372.78125 725.980469 383.78125 726.878906 396 C 727.53125 404.808594 721 415.058594 729 422 M 1122 412 C 1100.515625 407 1083.945313 399 1064 389.257813 C 1057.953125 386.34375 1051.324219 384.527344 1050 393 C 1038.769531 390.167969 1028.507813 380.238281 1022 371 C 1052 353.460938 1078.242188 365 1101.910156 387.828125 C 1109.261719 395 1118.289063 402.210938 1122 412 M 478 370 C 473.6875 379.066406 464.308594 387.601563 455 391.5625 C 449 394.113281 448.347656 384.789063 441 387.109375 C 419.628906 394 402.191406 410.152344 379 412 C 381.769531 403.324219 389.480469 396.160156 396 390.089844 C 411.957031 375.222656 431 361.003906 454 362.039063 C 462.683594 362.429688 469.792969 367.753906 478 370 M 519 472 C 545.902344 470.765625 553.351563 430.128906 580 424.289063 C 593.457031 421.339844 609.375 425.257813 621 432.46875 C 626.628906 436 630.929688 441.253906 637 444.085938 C 647.660156 449.054688 661.4375 449.503906 673 450 L 673 448 C 663.199219 446.734375 652 444.398438 644 438.386719 C 639.414063 435 636.464844 430 631.996094 426.390625 C 619 416.113281 609.484375 413 613 394 L 614 394 C 619 404.765625 633.40625 412.101563 642 420.089844 C 646.703125 424.460938 650.457031 428.816406 657 430 C 654.90625 418 647.664063 410 651 397 C 660.675781 417.6875 679.703125 426.550781 691.894531 445 C 693.871094 448 699.226563 465.074219 703.726563 462.824219 C 710.226563 459.570313 704.476563 437.667969 704 432 C 703.945313 430 703 423.261719 706 422.632813 C 709.472656 422 713.410156 432 715.214844 434 C 722 442.117188 734.863281 454.554688 745 458 C 743.453125 440.402344 725.945313 434.0625 718.273438 420 C 716.507813 416.761719 716.359375 406 712.488281 404.75 C 704.703125 402.398438 694.546875 421 694 427 C 684.574219 420.359375 669.195313 409.726563 662.96875 400 C 659.957031 395.289063 663.421875 384.433594 659.679688 382.042969 C 648.90625 375.160156 644 398 638.699219 401.183594 C 632.617188 405 621.441406 392.367188 621.988281 386.574219 C 622.597656 380.082031 629 375.503906 632 370 C 618.863281 371.347656 605.460938 384.234375 602.527344 397 C 601.492188 401.523438 603.910156 410 600.398438 413.394531 C 597.496094 416.273438 591.578125 414.101563 588 414.015625 C 579 413.796875 570.320313 415.089844 562 418.453125 C 540.703125 427.058594 528.25 452.210938 519 472 M 868 370 C 871.472656 374.546875 877.183594 378 878 384 C 879 390.019531 870.648438 404.355469 863.226563 401.695313 C 857 399.480469 852.472656 375.296875 841.332031 382.21875 C 837.609375 384.53125 841.398438 394.621094 838.910156 399 C 834.277344 407.148438 825 411.175781 818 416.679688 C 815 419 812.453125 422.652344 809 424.078125 C 805.542969 425.597656 804.664063 420.195313 803.441406 418 C 801.410156 414.347656 793.839844 404.625 789.1875 404.636719 C 784.894531 404.644531 783.847656 417.003906 782.316406 420 C 774.824219 434.632813 758.660156 440 756 458 C 771.742188 451.078125 785.558594 434.449219 794 420 C 797.574219 431.183594 794.289063 439.714844 794 451 C 793.9375 454.085938 792.992188 460.039063 795.601563 462.339844 C 800.757813 467 806 449 807.878906 446 C 819 427 841.21875 418.085938 850 397 L 851 397 C 851.578125 410.496094 846.636719 418.375 843 431 C 851 428.644531 855.769531 422.632813 862 417.300781 C 870.800781 409.765625 882 405.15625 887 394 C 894.207031 409 882.269531 417.46875 871 424.46875 C 864 428.742188 860 436.179688 853 440.09375 C 844.859375 444.605469 835.179688 444.351563 827 449 L 827 450 C 838.910156 449.488281 854.242188 448.492188 865 443.003906 C 883.46875 433.578125 897 419 920 424.015625 C 946.925781 430 954.988281 470.761719 982 472 C 971.210938 451.726563 960.683594 427.117188 938 418.203125 C 930.371094 415.207031 922.191406 413.816406 914 414.015625 C 910.328125 414.101563 903.777344 416.476563 900.601563 414 C 897 411.148438 899.320313 401.195313 898.238281 397 C 894.820313 383.714844 881.820313 371.386719 868 370 M 553 404 C 548 406.085938 543.386719 409.714844 538 410.671875 C 529.71875 412.136719 521.855469 407.816406 514 406 C 527.417969 393 545.761719 382.707031 565 388.441406 C 572.609375 390.707031 578.730469 396 586 399 C 577.226563 376 547.386719 371 527 380 C 518.589844 383.550781 511.878906 390.097656 505 396 C 500.859375 399.550781 484.21875 406.558594 484.378906 412.042969 C 484.582031 419.292969 495 422.738281 501 423 C 508.535156 423.234375 514.894531 419.566406 522 417.761719 C 533.433594 415 548.253906 418 553 404 M 916 398 C 921.441406 396.195313 925.640625 392.148438 931 390.070313 C 944.566406 384.800781 959.40625 386.355469 972 393.425781 C 975.746094 395.527344 983.398438 398.445313 984.792969 403 C 985.9375 406.617188 979.378906 408 977 408.570313 C 966 411.648438 958.972656 407.625 949 404 C 951.84375 418.078125 968.382813 415.125 979 418 C 986.328125 420 992 423.332031 1000 423 C 1005.859375 422.683594 1017.273438 418.808594 1016.46875 411.105469 C 1015.988281 406.523438 999.851563 399.800781 996 396.5625 C 989.253906 391 983 384.347656 975 380.492188 C 955.742188 371.304688 923.488281 374.542969 916 398 M 969.667969 397.332031 C 969.222656 397.777344 970.277344 397.722656 970.332031 397.667969 C 970.777344 397.222656 969.722656 397.277344 969.667969 397.332031 M 972 397 C 972.980469 398.78125 972.90625 398.59375 975 399 C 973.777344 397.804688 973.578125 397.683594 972 397 M 976 398 C 976.546875 399.636719 976.363281 399.453125 978 400 C 977.230469 398.6875 977.3125 398.769531 976 398 M 925 452 C 909.472656 434 872 447 858.300781 461.175781 C 855.535156 464.058594 842.714844 483.414063 850.742188 486.652344 C 854.886719 488.324219 866.621094 473.46875 870 471 C 886 458.617188 904.703125 452.003906 925 452 M 576 451 C 583.59375 453.570313 591.34375 452.042969 599 454 C 612.40625 457.152344 624.625 465.644531 635 474.4375 C 637.71875 476.746094 646 489.082031 650.242188 485.339844 C 657.929688 478.285156 642.59375 461.214844 638 457.183594 C 623.472656 444.449219 592.472656 438.550781 576 451 M 781 454 C 769.988281 461.539063 757 490.621094 779 494 C 776.929688 485.601563 777 478.445313 778.804688 470 C 779.78125 465.007813 782.90625 459 781 454 M 717 455 C 720.167969 468.160156 721.277344 480.625 721 494 C 738 488 733.753906 458.378906 717 455 M 528 504 C 540.960938 487 560.582031 471 583 470.039063 C 594.730469 469.578125 606.191406 474 618 474 C 612.683594 467.222656 602.1875 464.261719 594 462.425781 C 558 454.390625 524.476563 482.226563 511.605469 514 C 508.632813 521.339844 502 535.621094 504.355469 543.667969 C 505.859375 549 517 540.019531 518.910156 538.382813 C 532.28125 526.730469 538.328125 508.796875 556 502.066406 C 559 501 578.792969 498.066406 578.792969 495.15625 C 578.792969 491.828125 568 493 566 493 C 552.292969 493.023438 540.492188 499.152344 528 504 M 883 474 C 894.820313 474 906.234375 470.335938 918 470.339844 C 941.75 470.347656 960.515625 487.515625 974 505 C 961.832031 498.597656 949.730469 494 936 492.285156 C 930.898438 491.675781 923.207031 491.441406 920 496 C 933.980469 499.203125 949.410156 501.492188 959.960938 512.039063 C 971.925781 524.007813 978.214844 545.535156 998 546 C 994.613281 534 993.1875 521.460938 987.972656 510 C 976.417969 484.617188 950 461.304688 921 461.003906 C 910 461 889.234375 463.808594 883 474 M 677 486 C 686 497.4375 690.304688 511.726563 699.46875 523 C 707.65625 533.074219 718.90625 539.144531 730 545.425781 C 735.761719 548.6875 741.3125 552.253906 747 555.632813 C 748.3125 556.414063 751.460938 558.570313 752.644531 556.457031 C 755.484375 551.386719 743 535.460938 741.441406 530 C 736.929688 515 741.179688 501 747 487 L 748 487 C 756.84375 506.550781 763.984375 526.195313 764 548 C 778.476563 541.140625 793 534.53125 802.558594 521 C 810 510.371094 812.421875 492 825 486 C 824.546875 508 812 530.339844 799.972656 548 C 792.191406 559.382813 781.183594 569.511719 780 584 C 795.539063 568.46875 814 559.230469 833 548.6875 C 835.964844 547.039063 845 537.046875 848 538.347656 C 850.371094 539.328125 849.242188 544.238281 849 546 C 848 555 841.855469 562 837 569 C 844.425781 566 851.511719 560.445313 860 562.394531 C 862.289063 563 871.558594 567.585938 868.246094 571 C 866 573.117188 860.671875 571.070313 858 571.339844 C 852.304688 572 847.347656 574.4375 843 578 C 858 581.105469 877.515625 582.363281 886 597 C 867.230469 592.480469 845.429688 582.734375 826 583.257813 C 796.613281 584.054688 771 614.804688 771 643 L 772 643 C 782.652344 617.550781 812.71875 599.234375 840 598.039063 C 849.742188 597.613281 868.546875 598.816406 871 611 C 872.914063 619.734375 855.984375 617 851 617 L 851 618 C 864.375 624.246094 894.183594 628.019531 901 642 C 871.753906 642 823.746094 628.191406 815 670 C 854.257813 636.054688 913.265625 670.265625 943 700 C 951.863281 709 961 717.21875 966 729 C 938.640625 721 919 698.15625 888 701.171875 C 872.433594 702.675781 860.242188 710.472656 846 716 L 846 717 C 859.863281 715.238281 873.953125 712.25 888 714.4375 C 947.222656 723.671875 994.265625 778.558594 1010 834 C 998.878906 828.578125 990 811.746094 981 803.039063 C 959.414063 782.402344 930 764.050781 900 760 L 900 761 C 953.8125 776.15625 999 833.113281 1015.65625 885 C 1020.242188 899.316406 1020.308594 913.496094 1023 928 L 1022 928 C 1003 879.15625 965.316406 843.820313 917 824 C 926.953125 833 940 838.304688 950 848.015625 C 975.300781 872.695313 995.550781 902.410156 1006.996094 936 C 1010.519531 946.339844 1015.671875 958 1014.910156 969 C 1014.261719 978.421875 1009 986.480469 1005.601563 995 C 1001.726563 1004.496094 998.390625 1016.519531 990 1023 C 987.210938 988 965.761719 949.546875 948 920 C 941.71875 909.554688 934.59375 895.5 926 887 C 930.203125 897.097656 936.445313 906.140625 941 916 C 951.363281 937.664063 959.28125 960.25 966.671875 983 C 969.875 993 977.875 1010.519531 976.265625 1021 C 975 1028.203125 958.691406 1016.675781 956.359375 1028.003906 C 955 1034.09375 960 1041.148438 961.332031 1047 C 964.488281 1061.796875 958.703125 1083.660156 943 1089 C 944.171875 1074.644531 948.921875 1061.746094 947.910156 1047 C 944.753906 1001 914.796875 946.464844 883 914 C 887.898438 924.476563 895.175781 933.824219 900.691406 944 C 914.734375 970 927.640625 1003.121094 927.996094 1033 C 928 1043 928.554688 1069.5 916.1875 1073.503906 C 912.84375 1074.585938 912.285156 1068.027344 911.652344 1066 C 908.652344 1056.402344 904.582031 1047.210938 900.574219 1038 C 888 1009.28125 870.480469 983.105469 858.800781 954 C 854.699219 943.78125 848.90625 933.09375 848 922 L 847 922 C 839.183594 942.296875 851.441406 966.269531 857 986 C 848.460938 980 843 970.816406 837.800781 962 C 825.480469 941.425781 816 918.269531 816 894 C 807 901.660156 809.554688 916.652344 811.425781 927 C 814.570313 944.421875 822 961.414063 832 976 C 839 986.320313 849.460938 995.734375 853 1008 C 827.78125 997.324219 808.78125 963.785156 803.804688 938 C 802.175781 929.550781 801 920.601563 801 912 C 800.992188 908.6875 801.914063 903.042969 799.257813 900.464844 C 793.832031 895.195313 790 912.109375 789.460938 915 C 786 933.273438 791.390625 948.273438 794 966 L 793 966 C 785.730469 954.207031 781.359375 942.054688 781 928 C 780.878906 922.351563 785.460938 909 781.972656 904.425781 C 779 900.785156 774.78125 907 773.289063 909.003906 C 767.402344 917 765 926.226563 765 936 L 764 936 C 761.953125 929.710938 759.414063 922.730469 760.1875 916 C 760.929688 909.570313 765.527344 907 769.828125 902.710938 C 781.402344 891.566406 793.851563 890.441406 807 882.292969 C 833 866.097656 858.589844 830.300781 848.957031 798 C 843.84375 781 829.945313 768.753906 815 760.011719 C 780.527344 740 733.503906 738.816406 697 753.605469 C 672.28125 763.617188 651.761719 783.21875 650.375 811 C 648.929688 840 672 869.695313 696 883.535156 C 704.445313 888.433594 714.664063 889.097656 723 894.074219 C 737.40625 902.683594 746.675781 919.605469 737 935 C 733.964844 925.394531 733.523438 916.363281 727 908.003906 C 725.53125 906 721.75 900.679688 718.757813 903.546875 C 714.6875 907.445313 719.96875 920 719.972656 925 C 719.972656 939.238281 716.234375 953.398438 708 965 L 707 965 C 710.929688 948.015625 714.941406 932.582031 711.335938 915 C 710.691406 912 706.554688 894.09375 700.742188 900.378906 C 698 903.171875 699 908.53125 699 912 C 699 920.476563 698.808594 928.640625 697.195313 937 C 691.9375 964.253906 673.949219 995.667969 648 1008 C 651.183594 997.179688 660.472656 988.261719 666.644531 979 C 677.183594 963.195313 686.890625 945 690 926 C 691.726563 916.238281 693 901 686 893 C 684.699219 923.3125 669.683594 967 644 985 C 650.738281 964 655 944.132813 655 922 L 654 922 C 646.867188 940.386719 640.339844 959.230469 631.742188 977 C 621.949219 997.242188 609.964844 1016.414063 600.863281 1037 C 596.847656 1046.082031 593.367188 1055.546875 590.34375 1065 C 589.667969 1067.109375 588.867188 1073.792969 585.816406 1073.792969 C 582.378906 1073.792969 579.996094 1067.515625 578.863281 1065 C 574.242188 1054.71875 573 1044.132813 573 1033 C 573 988.125 598.902344 951.15625 619 913 C 586.167969 946 557.3125 1000.007813 554 1047 C 553 1062 556 1075.535156 559 1090 C 542.882813 1082.332031 536.917969 1063.730469 540 1047 C 541.265625 1041 546.488281 1033.378906 544.816406 1027.019531 C 542 1016.652344 527.179688 1028.234375 525.355469 1021 C 523 1011.507813 531.558594 994.074219 534.28125 985 C 544.691406 950.300781 556.929688 914.429688 577 884 C 569.589844 889.617188 565.464844 901.261719 560.332031 909 C 545.421875 931.480469 533.324219 954.628906 524 980 C 519.1875 993.316406 517.320313 1011.019531 510 1023 C 500.609375 1007.074219 488.328125 989 487 970 C 486.214844 956.5625 492.339844 942.324219 496.949219 930 C 511.539063 891 542 841.089844 583 826 L 583 825 C 537.882813 838 494.898438 883.246094 480 927 L 479 927 C 479 868.082031 517.28125 815 562 780.015625 C 568.703125 774.792969 576.167969 769.78125 584 766.429688 C 589.210938 764.199219 595.707031 763.75 600 760 C 568 768.277344 540.492188 784.15625 516 806.285156 C 506.808594 814.609375 501 826.789063 491 834 C 502.867188 782.734375 550.625 729.242188 602 716.476563 C 619.539063 712.117188 636.507813 713.605469 654 717 L 654 716 C 627 702.640625 602.375 695 573 708.308594 C 559.933594 714.289063 548.933594 725 535 729 C 540.589844 717.238281 550.933594 708.066406 560 699 C 591.449219 667.550781 643.683594 639.261719 686 670 C 679.675781 627.8125 628 642 600 642 C 612 625 634.761719 629.773438 649 617 C 643.429688 617 625.617188 619.527344 630.703125 609.015625 C 634.964844 600.207031 648.945313 596.324219 658 597.289063 C 678.277344 599.449219 699 606.574219 713.960938 621.089844 C 720.460938 627.421875 723.890625 636.25 731 642 C 730.804688 632.4375 727.972656 623 722.640625 615 C 718.472656 608.769531 713.410156 603.207031 708 598.039063 C 681.199219 572.445313 645.769531 589.417969 615 597 C 624.410156 583.675781 641.992188 581.097656 657 578 C 648.742188 571.230469 640 572 630 572 C 636.238281 556 651.761719 564.328125 663 569 C 656 557 651 550.410156 651 536 C 657.742188 539.496094 662.367188 546 669 549.664063 C 687.628906 560.347656 705.550781 568.5625 721 584 C 719 571.375 710.589844 562.023438 703.425781 552 C 694.535156 539.558594 686.382813 526.507813 681.34375 512 C 678.972656 505.171875 672.632813 492.679688 677 486 M 528 504 L 527 505 L 528 504 M 585 515.4375 C 589.335938 514.203125 593.765625 516.460938 598 516.8125 C 608 517.644531 613.867188 516.117188 622.996094 522.359375 C 624.980469 523.71875 637.84375 536.277344 631.640625 538.183594 C 627.507813 539.453125 621.25 533.386719 618 531.453125 C 607.265625 525.070313 595.90625 526.363281 585 522 C 581.359375 520.46875 580.855469 516.648438 585 515.4375 M 912 515.304688 C 914.484375 515.058594 921.78125 516.320313 918.339844 520.3125 C 915.765625 523.296875 909.601563 523.480469 906 524.199219 C 897.769531 526 889.257813 527.652344 882 532.066406 C 878.644531 534.109375 873.589844 539.023438 869.332031 538.46875 C 862.394531 537.5625 876.253906 523.28125 878 522.042969 C 888.167969 514.824219 900 516.480469 912 515.304688 M 576.945313 541.777344 C 583.28125 542.261719 581.222656 553.25 575 552.417969 C 568.878906 551.574219 570.757813 541.304688 576.945313 541.777344 M 924 541.660156 C 930.84375 541 931.859375 552.417969 924.972656 552.621094 C 918.664063 552.8125 917.734375 542.300781 924 541.660156 M 617 554 C 612.402344 552.601563 610.601563 550.472656 609 546 C 613.1875 547.636719 615.515625 549.726563 617 554 M 892 546 C 890.628906 550.511719 888.640625 553 884 554 C 885.484375 549.726563 887.8125 547.636719 892 546 M 563 551 C 564.425781 556.785156 565 562.59375 567.808594 568 C 576.84375 586.050781 595.628906 585 613 585 C 601 599 573.769531 589.039063 563.183594 578 C 555.953125 570.296875 554 558 563 551 M 887 585 C 904.433594 585 923.167969 587.058594 932.671875 569 C 935.628906 563.378906 935.789063 557 938 551 C 947 558.574219 946.535156 571 937.90625 578.675781 C 926.863281 588.699219 898.664063 598.574219 887 585 M 1134 608 C 1138.953125 625.332031 1153.214844 638.769531 1150.816406 658 C 1149.433594 669.050781 1140.996094 680.574219 1137 691 C 1132.78125 685 1134.859375 678 1135 671 C 1129.429688 675.773438 1127.964844 683.25 1125.804688 690 C 1123.292969 698 1119.3125 705.527344 1120 714 C 1121.96875 734 1147 741.472656 1163 746 C 1152.316406 735.199219 1108.605469 717.773438 1136 698 C 1137.1875 724 1170.324219 742.746094 1190 755 C 1189.660156 738.484375 1172.4375 719 1182 703 C 1186.46875 710.066406 1188.714844 717 1195 723 C 1202.984375 730.648438 1214.519531 735.523438 1217.828125 747 C 1222.84375 764.394531 1212.328125 780.085938 1211 797 C 1209.730469 815.542969 1218 830.449219 1225 847 C 1213.289063 842 1210 829.183594 1206.332031 818 C 1201.375 803.121094 1195.332031 787.398438 1182 778 C 1195 797.3125 1196.855469 819.140625 1203 841 C 1190.8125 836.53125 1178.191406 825 1173 813 L 1172 813 C 1175.296875 835.316406 1193.523438 852.667969 1197.535156 875 C 1198.742188 881.722656 1195.679688 888.371094 1197 895 C 1197.699219 898.375 1201.585938 903.097656 1200.292969 906.566406 C 1198.4375 911.539063 1189.4375 907 1188.503906 914.019531 C 1187.585938 921 1195.21875 929.046875 1198 935 C 1189 932.445313 1182 926.144531 1173 924 C 1181 936.222656 1193.582031 951.132813 1198 965 C 1186 961.089844 1166.960938 952.347656 1160.417969 941 C 1157 935.195313 1156.820313 928.257813 1154.964844 922 C 1151 908.714844 1143.183594 892.558594 1132 884 C 1137.492188 895.742188 1140.832031 907.214844 1142.285156 920 C 1142.574219 922.550781 1143.226563 934.757813 1137.371094 931.109375 C 1132.378906 928 1129.3125 917.132813 1126.753906 912 C 1117.632813 893.714844 1107 871 1109.171875 850 C 1110.367188 837.617188 1119.429688 822.285156 1114 810.023438 C 1110.40625 801.441406 1103.566406 812.132813 1101 816 C 1093.839844 826.804688 1087.574219 840 1087 853 C 1070.796875 845.375 1074.304688 817.324219 1082.964844 805.09375 C 1088.304688 797.554688 1094.523438 794.695313 1097 785 C 1099.929688 774.46875 1101 763 1099.710938 752 C 1098.886719 745.667969 1094.992188 738.417969 1096.433594 732 C 1097.726563 726.238281 1103 722.332031 1105.46875 717 C 1108.519531 710 1106.910156 702.128906 1109.226563 695 C 1110.867188 690 1115.597656 686.261719 1116.566406 681 C 1118.441406 670.808594 1106.855469 661.164063 1110.742188 651.003906 C 1114.304688 641.691406 1125.683594 648 1128.800781 641.730469 C 1130.476563 638.425781 1127.59375 633.40625 1127.183594 630 C 1126.222656 622 1127.9375 613.601563 1134 608 M 368 609 C 372.441406 615 374.496094 621.527344 373.90625 629 C 373.617188 632.691406 370.511719 638.164063 372.351563 641.683594 C 375.550781 647.785156 386.382813 641.714844 389.835938 651.003906 C 393.476563 660.796875 382.820313 670.148438 384.238281 680 C 385 685.28125 389.566406 689 391 694 C 393 701.128906 391.515625 709.015625 394.53125 716 C 397 722 403 726.4375 404.425781 733 C 405.652344 739.214844 402.171875 746 401.300781 752 C 399.828125 762.289063 400.601563 774.035156 403.429688 784 C 406.246094 794 412.304688 797.277344 417.890625 805.09375 C 426.507813 817.140625 429.714844 845.019531 414 853 C 413.890625 839.742188 407.742188 827.65625 400.277344 817 C 397.914063 813.625 391.332031 803.066406 387.3125 810.078125 C 380.300781 822.3125 390.988281 839.421875 391.910156 852 C 393.527344 874.054688 383.328125 894.804688 373.753906 914 C 369.828125 922 367.335938 930.585938 360 936 C 360 917.515625 361.398438 902.144531 369 885 C 357.1875 893.320313 349.800781 907.398438 345.722656 921 C 343.773438 927.488281 343.628906 935 340.324219 941 C 334.761719 951.089844 314 962.015625 303 964 C 309 949.449219 319.449219 936.425781 329 924 C 319.6875 925.660156 312 932.394531 303 935 C 307.972656 923.058594 320 908.175781 299 908 C 304.445313 895 300.300781 883.808594 304 871 C 309.835938 851.164063 321.542969 833.226563 329 814 C 319.359375 823.640625 310.589844 835.042969 298 841 C 302.394531 827.261719 302.257813 812.648438 306.75 799 C 309.273438 791.332031 314 785 318 778 C 309.386719 786.6875 301.925781 796.398438 297.695313 808 C 292.800781 821.425781 290.472656 840.25 276 847 C 283.691406 828.507813 290.40625 811.441406 288.910156 791 C 287.820313 776.132813 278.367188 762.382813 282.789063 747 C 286 735.363281 297.972656 730.816406 305.984375 723 C 312 717.007813 314 709.496094 319 703 C 328.554688 720.058594 313.296875 738 311 755 C 326.667969 744.636719 348.335938 731.699219 359 716 C 362.71875 710.542969 363 703.804688 366 698 L 367 698 C 368.941406 701.175781 371 704.402344 372.199219 708 C 378.484375 729.066406 348 735 338 746 C 347.171875 742.539063 356.683594 741 365 735.25 C 389.316406 719 379.339844 691.222656 367 670 C 365.429688 676.605469 365 684.207031 365 691 L 364 691 C 360.289063 680.105469 352.609375 670.421875 350.46875 659 C 347.652344 644 359.886719 621.21875 368 609 M 577 624 L 578 625 L 577 624 M 436 745 C 449.886719 740.390625 459.714844 721.476563 469.171875 711 C 474 705.644531 479.667969 701.027344 482 694 C 462.441406 699.753906 439.609375 724.757813 436 745 M 1018 694 C 1025.398438 707.277344 1036.738281 717.824219 1046.828125 729 C 1052.417969 735.191406 1056.617188 742.511719 1065 745 C 1061.550781 725 1038 698.589844 1018 694 M 361 757 C 361 764 362.75 770.175781 360.476563 777 C 355.75 791.191406 342.613281 800.308594 336.878906 814 C 332.234375 825.078125 336 836.8125 332.828125 848 C 330.417969 856.367188 323.175781 861.667969 318.953125 869 C 314.746094 876.308594 314.785156 885 316 893 C 316.457031 896.003906 317 901.066406 321 901.535156 C 326.605469 902.21875 325.167969 882.117188 327.328125 878 C 329.742188 873.394531 339.929688 856.523438 345 855.617188 C 349.179688 855 356.558594 861 361 862 C 358.667969 849 345.34375 839.101563 346.390625 825 C 347.867188 805.066406 383.207031 775.414063 361 757 M 1138 757 C 1135.894531 766.109375 1132.628906 773.5625 1135.441406 783 C 1139.585938 797 1152.5 807.144531 1153.988281 822 C 1155.570313 837.773438 1142.1875 847.398438 1140 862 C 1144.195313 860.253906 1150.441406 855 1154.984375 855.253906 C 1161.519531 855.714844 1172.390625 876.203125 1174.449219 882 C 1175.871094 886 1174.195313 901.363281 1179.949219 901.363281 C 1183.828125 901.363281 1184.589844 895.824219 1184.945313 893 C 1185.984375 884.769531 1186.238281 876.539063 1182 869 C 1177.84375 861.265625 1170.5625 855.765625 1168 847 C 1164.957031 835.320313 1168.632813 823.503906 1163.558594 812 C 1158.1875 799.816406 1146.402344 791.417969 1141.480469 779 C 1138.824219 772.304688 1140 764.074219 1140 757 L 1138 757 M 824 854 C 818.476563 870.246094 795.757813 881.738281 780 885 C 780.851563 879.214844 782.878906 874 783 868 C 771.972656 876.507813 768.9375 892.285156 756 899 C 756 884.351563 757.605469 869.726563 756.960938 855 C 756.578125 846.289063 754.179688 837.738281 754 829 C 738 843.347656 744 878.710938 744 898 C 735.804688 895.382813 730.773438 888.085938 726.449219 881 C 725.261719 879.058594 722.671875 873 719.601563 873.632813 C 716.785156 874.273438 719.636719 882.246094 720 884 C 702.675781 882.585938 685.3125 869.078125 676 855 C 687.402344 855 707.957031 864.585938 717.996094 859.679688 C 736.285156 850.742188 723.199219 819 709 813.09375 C 701.972656 810.207031 694 810.546875 688 815.53125 C 684.300781 818.660156 677.941406 829.402344 671.464844 824 C 668.523438 821.503906 675.640625 815.070313 674.359375 811 C 672.679688 805.675781 668.433594 802.074219 669.226563 796 C 670.261719 788.117188 677.949219 782 684 777.722656 C 700.167969 766.402344 720.398438 760.433594 740 759.089844 C 765.71875 757.328125 791.796875 763.394531 814 776.605469 C 820.476563 780.457031 831.726563 786 833.527344 794 C 835 801 827.742188 805.691406 826.558594 812 C 825.785156 816.109375 833 821.128906 830.289063 824.273438 C 827.433594 827.503906 821.953125 825 819.515625 822.605469 C 810.914063 814.332031 804.613281 808 792 813.527344 C 778.761719 819.425781 764.242188 850.664063 782 859.820313 C 792.636719 865.292969 812.785156 855.449219 824 854 M 705 836 C 702.464844 839.226563 699.929688 840.832031 696 842 L 696 841 L 705 836 M 798 837 C 800.625 838.714844 803 840.054688 806 841 L 806 842 C 802.546875 841.449219 798.980469 840.65625 798 837 M 704 845 C 708.492188 835.484375 715.992188 841.054688 704 845 M 797 845 C 785.304688 843.691406 792.445313 833.378906 797 845 M 444 847 C 451.953125 855 461.660156 865.414063 463.671875 877 C 466 891.238281 458.386719 908.101563 459 923 C 460 948 471.4375 969.070313 476.335938 993 C 478 1001.761719 477 1011.078125 478.425781 1020 C 480.796875 1035.285156 486 1049.703125 491.800781 1064 C 494.953125 1072 497.269531 1081.421875 504 1087 C 500.449219 1073.273438 491.410156 1052.691406 498 1039 L 499 1039 C 510.71875 1059.078125 522 1081 529.65625 1103 C 535.589844 1120.089844 538.527344 1140.277344 551.4375 1154 C 556 1158.730469 561.59375 1157 567 1159.800781 C 579.964844 1166.75 591.796875 1175.628906 605 1182.246094 C 615.460938 1187.492188 626 1192 637 1196.199219 C 641.433594 1198 647 1201 651.996094 1200.277344 C 666.777344 1198.113281 645.34375 1183.792969 648.753906 1180.316406 C 654.671875 1174.28125 665.378906 1186.441406 671 1187.121094 C 675.183594 1187.628906 677.835938 1183.230469 682 1183.539063 C 691.832031 1184.273438 699.242188 1196.445313 709 1199.074219 C 716.640625 1201.128906 722.265625 1193.3125 729 1196.09375 C 737.269531 1199.507813 741.898438 1209.726563 752 1208.800781 C 761.9375 1208 765.535156 1198.632813 774 1195.761719 C 780.34375 1193.609375 785.554688 1201 793 1198.789063 C 802.65625 1196 808.992188 1187.351563 818 1184.246094 C 822.820313 1182.589844 826 1188.183594 831 1186.808594 C 840.363281 1184.21875 844.457031 1178.050781 855 1180 C 852 1184.097656 840.660156 1192.117188 844.648438 1197.769531 C 849.613281 1204.800781 866 1196 872 1193.601563 C 894.359375 1184.734375 912.757813 1173.796875 933 1161.09375 C 938.496094 1157.644531 945 1158.625 949.824219 1154 C 962.253906 1141.507813 964.859375 1122 970.34375 1106 C 974.804688 1093.113281 982 1081.480469 987.574219 1069 C 991.398438 1060.234375 995.578125 1044.148438 1004 1039 C 1007.398438 1056.523438 1001.765625 1071.207031 997 1088 C 1003.980469 1081.78125 1006.261719 1072.421875 1009.601563 1064 C 1015 1050.046875 1020.171875 1036 1022.5625 1021 C 1024 1011.394531 1023 1001.441406 1025.234375 992 C 1030.78125 968.445313 1041.878906 948.039063 1042 923 C 1042 913 1041.375 903 1039.714844 893 C 1038.832031 887.71875 1036.441406 882.433594 1037.332031 877 C 1038.324219 871 1042.449219 866 1045.804688 861 C 1048.210938 857.464844 1050.828125 851 1055 849.175781 C 1059.78125 847.304688 1062.714844 856 1064.246094 859 C 1070.222656 871 1077 882.335938 1083.308594 894 C 1102.351563 929.203125 1121.554688 966 1127 1006 C 1129 1020.1875 1131 1040.59375 1118 1050 C 1116.707031 1033.613281 1113.429688 1017.644531 1108.328125 1002 C 1105 992.160156 1099.75 982.164063 1098 972 C 1092.894531 977.425781 1093.511719 987 1092.574219 994 C 1090.789063 1007.449219 1089.875 1022.445313 1091.171875 1036 C 1092.191406 1046.675781 1095.65625 1057.265625 1093 1068 C 1084.242188 1105.207031 1064 1141 1043.949219 1173 C 1033.371094 1190 1019.714844 1206.566406 1012 1225 L 1011 1225 C 1018.554688 1193.121094 1040.519531 1166 1048.625 1134 C 1051.945313 1121 1054.445313 1105 1049 1092 C 1032.574219 1143.363281 1009.953125 1185.804688 971 1224 C 941 1253.332031 896.675781 1278 880 1318 L 879 1318 C 879.285156 1304.070313 881 1287.15625 888.480469 1275 C 902.425781 1252 930 1237 947.386719 1216 C 974.605469 1183 985.972656 1143.488281 986 1101 L 985 1101 C 976.421875 1142.445313 954.910156 1185.042969 925 1215 C 916.476563 1223.539063 908 1233.734375 897 1239 C 905.304688 1214.605469 919.910156 1190.714844 932 1168 C 907.445313 1190.617188 884.722656 1220.597656 870.320313 1251 C 862.574219 1267.351563 863.546875 1293.449219 848 1305 C 847.972656 1294.8125 843.890625 1285.136719 844 1275 C 844 1266.191406 848.511719 1257.796875 848 1249 C 841.816406 1257.351563 835.632813 1265.257813 834.679688 1276 C 833.984375 1284 837.699219 1291.246094 837.957031 1299 C 838.441406 1313.511719 826.25 1328.460938 812 1331 C 814.769531 1322.503906 819.855469 1314 820.824219 1305 C 821.84375 1295.640625 818.535156 1286.28125 820.75 1277 C 826.910156 1251.1875 840.683594 1231.15625 832 1204 L 831 1204 C 829.605469 1236.472656 814.742188 1264.625 802.425781 1294 C 797.476563 1305.800781 794.261719 1321.621094 782 1328 C 789.296875 1305.023438 780.398438 1281.230469 785.285156 1258 C 789.753906 1236.773438 807 1221.347656 813 1201 C 795.625 1215.589844 778.285156 1234.394531 770.4375 1256 C 765.902344 1268.480469 764.675781 1282.058594 761.996094 1295 C 760 1304.523438 746.527344 1330.496094 762 1331 C 757 1348 745 1345.378906 739 1331 C 755.433594 1330.804688 741.351563 1304 738.871094 1294 C 735.402344 1280.097656 734.34375 1265.449219 729.183594 1252 C 722.238281 1234 703.296875 1212.65625 688 1201 C 693.964844 1221.699219 710.886719 1237.691406 716.253906 1259 C 720.191406 1274.632813 715.355469 1289.375 715 1305 C 714.90625 1312.695313 717.546875 1320.503906 719 1328 C 706.867188 1319.382813 703.359375 1304.058594 697.988281 1291 C 686.292969 1262.566406 671 1235.597656 671 1204 L 670 1204 C 657.59375 1230.703125 673.679688 1251.019531 680.238281 1277 C 682.589844 1286.296875 679.171875 1295.667969 680.175781 1305 C 681.171875 1314.28125 686.480469 1322.191406 689 1331 C 684.964844 1330 681.445313 1328 678 1325.558594 C 649 1305.28125 680.949219 1270.320313 652 1249 C 659.632813 1269.226563 653.421875 1285.664063 653 1306 L 652 1306 C 648.191406 1297 642.628906 1288.441406 639.519531 1279 C 636.820313 1270.804688 636.246094 1262 632.6875 1254 C 628 1244 620.910156 1235.367188 615 1226 C 608.523438 1215.515625 603.847656 1204 596.324219 1194 C 588.511719 1183.75 578.628906 1176.386719 569 1168 C 580.324219 1192 597.566406 1214.1875 605 1240 C 568.496094 1219.652344 542.175781 1176.03125 527.949219 1138 C 523.714844 1126.679688 518 1114.117188 517 1102 L 515 1102 C 515 1141.757813 526.640625 1183.253906 552.4375 1214 C 565 1229.109375 579.773438 1242.355469 594 1256 C 600.964844 1262.621094 608.867188 1268.402344 613.652344 1277 C 620.25 1289 621.996094 1304.652344 622 1318 L 621 1318 C 615 1297.507813 594.167969 1282.378906 579 1269 C 551.546875 1244.320313 523 1220.144531 500.425781 1191 C 487.675781 1174.640625 476.226563 1156.5625 469 1137 C 463.914063 1123 461.207031 1103.304688 451 1092 C 449.742188 1108 448.9375 1121.273438 453.425781 1137 C 462.285156 1168.046875 483.710938 1194.488281 491 1226 L 490 1226 C 465 1172.523438 421.984375 1127 407.898438 1068 C 405.667969 1058.675781 408.554688 1050.226563 408.960938 1041 C 409.554688 1027.59375 408 1014.339844 408 1001 C 408 992 409.769531 979.007813 403 972 C 400.871094 998.753906 385 1023 383 1050 C 365.734375 1037.574219 372.402344 1010.441406 376.351563 993 C 384.496094 957 400.175781 923.3125 417.691406 891 C 425.390625 876.796875 432.902344 858.8125 444 847 M 629 908 C 635 905.054688 637 899 639.574219 893 C 645.335938 879.273438 654.808594 862.617188 657 848 C 651.40625 851.0625 647.71875 858.472656 644.78125 864 C 637.402344 878 631.996094 892.550781 629 908 M 844 848 C 848.515625 862.117188 854.816406 875.300781 860.398438 889 C 863 895.519531 865.328125 903.71875 872 907 C 870.746094 891.121094 863.800781 876.730469 856 863 C 853 857.433594 849.890625 851 844 848 M 640 929 C 651.175781 923 654 901 659.320313 890 C 661.949219 884.472656 666 880 668 874 C 652 883.375 644.671875 912.414063 640 929 M 833 874 C 839 887 845.328125 900 851 913 C 853.5625 918.480469 855.582031 926 861 929 C 856.539063 911.765625 850.980469 882.410156 833 874 M 924 884 C 924.683594 885.578125 924.804688 885.777344 926 887 C 925.316406 885.421875 925.195313 885.222656 924 884 M 595 908 C 608.578125 907.710938 622.5 899.019531 625 885 C 615.601563 888.117188 600.785156 900 595 908 M 876 885 C 878 899.222656 892.433594 907.71875 906 908 C 899.515625 900.039063 885.578125 888.683594 876 885 M 1056 898 C 1058.84375 920.484375 1059 942.296875 1059 965 L 1058 965 C 1057.941406 962.171875 1058.25 950.605469 1054.675781 950 C 1050.214844 949.066406 1049.375 961.324219 1048.917969 964 C 1046.914063 975.792969 1043.785156 987.40625 1040.871094 999 C 1038 1010 1034.34375 1020.34375 1030.695313 1031 C 1029.398438 1034.785156 1028 1040.246094 1032.277344 1042.816406 C 1036.910156 1045.65625 1041 1041.5 1043.652344 1038 C 1049.953125 1029.160156 1054.933594 1019.40625 1060.28125 1010 C 1076.683594 981.148438 1073.40625 959.277344 1067.199219 928 C 1065.246094 918.15625 1065.574219 904 1056 898 M 443 899 C 435.242188 908.464844 435 921.382813 433 933 C 428.453125 960.203125 423.859375 981 438.800781 1006 C 445 1016.574219 450.585938 1027.753906 457.441406 1038 C 459.777344 1041.472656 464.363281 1046 468.683594 1042.394531 C 474.386719 1037.691406 468.421875 1026.375 466.671875 1021 C 460.933594 1003.398438 456.726563 985.042969 452.648438 967 C 451.882813 963.601563 451.222656 950.742188 446.949219 950 C 442 949 443 964.347656 443 967 L 442 967 C 442 953 439.835938 938.011719 441.171875 924 C 441.867188 916.652344 445.894531 906 443 899 M 620 909 L 619 913 L 620 913 C 620.464844 911.070313 620.574219 910.808594 620 909 M 880 910 C 880.9375 912 881.390625 912.550781 883 914 C 882 912.234375 881.433594 911.394531 880 910 M 748 956.289063 C 758.949219 955.074219 769.3125 961.039063 776.269531 969.015625 C 778.195313 971.21875 782.507813 975.113281 781.289063 978.488281 C 779.554688 983.289063 764.355469 984.410156 760 984.828125 C 751.289063 985.671875 726.6875 987.585938 720.710938 979.488281 C 718.351563 976.28125 722.699219 972.261719 724.589844 970 C 731 962.160156 737.726563 957.429688 748 956.289063 M 710 992.503906 C 720.773438 991.710938 733.863281 998.769531 745 999.828125 C 759.824219 1001.242188 772.9375 996.238281 787 993 C 789.640625 992.273438 799 992.097656 795.914063 997.515625 C 792.992188 1002.453125 781.171875 1004.804688 776 1006.105469 C 758.601563 1010.476563 739.265625 1010.523438 722 1005.574219 C 717 1004.171875 707.882813 1001.71875 704.753906 997.40625 C 702.511719 994.320313 707.824219 992.664063 710 992.503906 M 840 1153 C 841.976563 1146.136719 846.199219 1140.109375 847.53125 1133 C 850.449219 1117.429688 842.230469 1094 830 1084 C 830 1113.617188 839.539063 1149 805 1164 C 812.597656 1143.121094 821.195313 1130.535156 812 1108 L 811 1108 C 810.996094 1131 799.988281 1146.59375 785.171875 1163 C 778.507813 1170.375 771.910156 1179.0625 762 1182 C 765.625 1168.144531 775.671875 1163.492188 786 1155 C 796.941406 1145.703125 806.257813 1133.640625 807.824219 1119 C 811.210938 1087.410156 777.683594 1077.457031 772 1050 L 771 1050 C 771 1078.136719 805.996094 1090.484375 792.980469 1122 C 791.28125 1126.121094 788.941406 1129.730469 785.90625 1133 C 781.878906 1137.328125 777.417969 1140.660156 772 1143 C 777.6875 1125.210938 776 1106.453125 776 1088 C 770.285156 1094.480469 769.25 1106 766.855469 1114 C 764 1123.515625 759.261719 1132.324219 756.898438 1142 C 754.457031 1152 754 1162.121094 751 1172 L 750 1172 C 746.777344 1162 746.683594 1151.269531 744 1141 C 739.597656 1123.050781 732.859375 1104.582031 727 1087 L 726 1087 C 725.757813 1098.660156 723.269531 1110.296875 724 1122 C 724.589844 1129.144531 727.417969 1136 728 1143 C 722.886719 1140.359375 718.460938 1136.4375 714.808594 1132 C 704.6875 1119.640625 701.730469 1102.167969 710 1088 C 718.207031 1074.257813 729.996094 1067.171875 730 1050 L 729 1050 C 722 1076.71875 688.808594 1089 693.300781 1120 C 695.316406 1134 704.34375 1145.644531 715 1154.382813 C 724.300781 1162.011719 736 1168.015625 738 1181 C 721.5625 1175.761719 699.734375 1150 693.878906 1134 C 690.871094 1125.808594 691.949219 1117.089844 689 1109 L 688 1109 C 684.847656 1119 682.179688 1129.75 685.210938 1140 C 687.71875 1148.488281 693.550781 1155.496094 696 1164 C 661.328125 1149 670.730469 1112.605469 672 1083 C 659.375 1093.277344 650.632813 1117 653.324219 1133 C 654.578125 1140.511719 659 1147.074219 662 1154 C 623.640625 1137.757813 639 1079 649.414063 1050 C 651.9375 1043 651.925781 1034.421875 655.53125 1028 C 660.472656 1019.203125 671.28125 1006.707031 681 1003.132813 C 685.289063 1001.554688 688.605469 1004.746094 692 1007 C 699.207031 1011.507813 706.96875 1015 715 1017.78125 C 738.589844 1026.214844 764.484375 1025.675781 788 1017.308594 C 799.714844 1013.136719 814.597656 997.710938 825.984375 1006.679688 C 832.976563 1012.1875 840.84375 1021.34375 845.386719 1029 C 849.519531 1036 850.167969 1046.214844 852.65625 1054 C 862 1083.488281 876.773438 1135.503906 840 1153 M 687 1087 C 693 1084.054688 697 1077.332031 699 1071 L 692 1074 C 694.433594 1055.164063 702.441406 1044.003906 713 1029 C 692 1035 687 1069.058594 687 1087 M 789 1030 C 797.535156 1045.328125 805.59375 1057.4375 809 1075 L 801 1071 C 803.503906 1077.605469 808.273438 1084 814 1088 C 818.542969 1069 807.679688 1038.347656 789 1030 M 630 1050 C 626.683594 1058.546875 622.40625 1066.671875 622 1076 L 621 1076 C 621 1067 622.699219 1056.257813 630 1050 M 873 1051 C 876.71875 1057.539063 878 1064.605469 879 1072 L 878 1072 C 876.554688 1065.761719 870.785156 1057.246094 873 1051 M 641 1110 C 650.789063 1093.226563 660.96875 1072.386719 667 1054 C 654.570313 1060.058594 644.949219 1080.324219 641 1093 C 639.335938 1098.46875 637.558594 1105 641 1110 M 835 1055 C 839.914063 1073 850.617188 1093 860 1109 C 863.324219 1104.132813 861.300781 1098.296875 859.847656 1093 C 856.351563 1080.234375 847.546875 1061 835 1055 M 750 1073 C 748.609375 1084.003906 745.996094 1096.316406 750 1107 L 751 1107 C 754 1099 755 1080.390625 750 1073 M 895 1087 C 894.671875 1092.132813 895.191406 1111.265625 904 1107.367188 C 907.246094 1106 915 1095.019531 918 1096.347656 C 920.5 1097.347656 920.722656 1103 921 1105 C 922.824219 1115.261719 923 1135.125 936.984375 1122.710938 C 938.96875 1121 940.683594 1119 942.425781 1117 C 945.660156 1113.289063 948.976563 1110 953 1107 C 945 1125.179688 921.410156 1150.398438 902 1156 C 906.46875 1145.265625 914 1135 914.910156 1123 C 915 1120.585938 915.644531 1109.796875 910.675781 1112.058594 C 904 1115.089844 900.941406 1125.082031 897.6875 1131 C 892 1141.144531 883.394531 1150.710938 872 1154 C 875.667969 1138.148438 881.492188 1122.53125 886.339844 1107 C 888.453125 1100.226563 889.46875 1091.828125 895 1087 M 607 1088 C 617.515625 1107.746094 622 1132.730469 629 1154 C 617.542969 1149.804688 608.960938 1140.5 603.230469 1130 C 600.511719 1125.011719 595.734375 1113 589.34375 1111.78125 C 584.957031 1111.054688 585.921875 1120.660156 586.175781 1123 C 587.472656 1135.078125 595.726563 1144.640625 599 1156 C 578.976563 1147.359375 557 1125.027344 547 1106 C 550.707031 1108.613281 553.792969 1111.792969 557 1115 C 559.332031 1117.328125 561.632813 1119.691406 564 1122 C 565.261719 1123.203125 566.523438 1124.59375 568 1125.5625 C 582.769531 1135.242188 576.609375 1100.5625 581.742188 1096.832031 C 586.925781 1093.066406 594 1108.597656 599.867188 1108 C 605.59375 1107.335938 604 1092.109375 607 1088 M 751 1158 C 750.4375 1159.800781 750.175781 1161.121094 750 1163 L 751 1163 C 751.59375 1161 751.773438 1160.042969 751 1158 M 1011 1226 L 1010 1227 L 1011 1226 M 803 1335 L 802 1336 L 803 1335 "/>
</g>
</svg>
