<?xml version="1.0" encoding="UTF-8"?>
<svg xmlns="http://www.w3.org/2000/svg" xmlns:xlink="http://www.w3.org/1999/xlink" width="1500pt" height="1500pt" viewBox="0 0 1500 1500" version="1.1">
<g id="surface1">
<path style=" stroke:none;fill-rule:nonzero;fill:rgb(0%,0%,0%);fill-opacity:1;" d="M 726 109 C 692.78125 109 640.898438 108.328125 616.175781 134.089844 C 606.617188 144.046875 604.378906 157 599 169 C 591.289063 154.140625 573.433594 155.011719 562 144.785156 C 558.65625 141.746094 555.257813 132.636719 550 132.636719 C 544.320313 132.636719 544 144.1875 544.710938 148 C 546.5 158.253906 556.226563 161.816406 564 167 C 572.300781 172.257813 580 180 584 189 C 565.304688 182.675781 546.554688 176.554688 527 183.546875 C 517.609375 187 510.710938 194.351563 503 200.335938 C 493.804688 207.472656 483.402344 213.527344 473 218.730469 C 463.886719 223.285156 453.957031 227.34375 444 229.574219 C 441 230.210938 434.628906 230.296875 433.257813 233.433594 C 431.914063 236.496094 435.976563 239.539063 438 241.074219 C 444.75 246.144531 452.808594 248 461 249 L 461 250 C 454 252.183594 448 256.289063 441 258.253906 C 424.253906 263 404.65625 262.273438 388 257.570313 C 376.972656 254.460938 367.785156 247.171875 357 244 C 357.277344 257.308594 363.988281 269.035156 375 276.480469 C 378.523438 279 390.257813 284 387.824219 289.773438 C 385.773438 294.636719 376 293.003906 372 293 C 360 293 347.863281 290.6875 337 285.507813 C 332.898438 283.550781 325 276 320.320313 277.710938 C 313.988281 280 323.378906 296.058594 325.441406 299 C 333.378906 310.332031 344.867188 318.8125 357 325.21875 C 363.945313 329 373.460938 331.449219 379 337 C 371 337.164063 363 339.273438 355 339 C 334.347656 338.15625 314.507813 332.347656 295 326 C 297.605469 343.640625 314.578125 362.824219 332 367 L 332 368 C 303.351563 368.078125 283.269531 394.25 282 422 C 296.769531 417.71875 306.972656 407.421875 320 400 C 303.960938 420.207031 286.359375 437 259 437 C 261.957031 441.015625 268.304688 442 273 443 C 285.765625 445.753906 299 445.632813 312 444 C 289.902344 465.136719 254.878906 478.148438 225 482.574219 C 213.675781 484.246094 202.417969 484 191 484 C 187.761719 484 180.253906 482.632813 177.707031 485.027344 C 174.609375 488 181.21875 494.789063 182.871094 497 C 190.617188 507.339844 196.804688 513 210 513 C 199.925781 537.191406 178.679688 559.453125 155 570.679688 C 146.535156 574.691406 137.300781 577.570313 128 578.714844 C 125 579.078125 118.847656 578 116.832031 580.742188 C 112.8125 586.273438 129.417969 594.589844 133 596.128906 C 153.605469 605 175.429688 601.015625 197 601 C 184.742188 613.003906 171.46875 626.015625 156 633.753906 C 150.277344 636.613281 144.257813 639 138 640.335938 C 135.765625 641 131.546875 640.757813 130 643 C 126.800781 647.59375 139 653.664063 142 655.21875 C 157.550781 663.460938 172.367188 660.316406 189 659 C 179.417969 670.765625 166.40625 679.015625 157 691 C 136.4375 717.261719 137 743.675781 137 775 C 143.878906 771.261719 146.808594 763.679688 150.257813 757 C 155.328125 747.175781 162.414063 738 165 727 L 166 727 C 165 734.539063 164.347656 742.390625 165.175781 750 C 168.507813 780.664063 199.363281 782.066406 223 782 C 213 793.414063 205 807.445313 200.859375 822 C 200.199219 824.3125 196.285156 835 199.617188 836.1875 C 201.90625 837.035156 205.902344 834.75 208 834 C 215.835938 831 238.273438 818 239.886719 834 C 242.242188 857.496094 216.269531 882 202.753906 898 C 194.542969 907.820313 185.675781 917.214844 188.339844 931 C 190.347656 941.386719 199.683594 939.1875 203.882813 945.589844 C 205.460938 948 204 953.222656 204 956 C 203.957031 965.117188 204.816406 985.316406 217 987 C 227.265625 988.117188 232.820313 976.457031 238.324219 970.003906 C 240.320313 967.664063 244.914063 962.371094 248.253906 965.621094 C 251.933594 969.203125 247.425781 976 245.210938 979 C 239.378906 987.152344 230.863281 992.730469 224.183594 1000.039063 C 221.792969 1002.65625 218 1007.066406 220 1011 C 224.621094 1019.65625 244.4375 1012.328125 251 1010 C 253.292969 1009.113281 257.925781 1006.191406 260.382813 1007.40625 C 262.917969 1008.660156 260.996094 1014.011719 260.601563 1016 C 259.1875 1023.074219 257.402344 1030.015625 255.628906 1037 C 255.199219 1038.699219 253.65625 1042.390625 255 1044 C 257.382813 1046.324219 263.871094 1042.320313 266 1041.214844 C 274.183594 1037 281.769531 1031.410156 289 1025.714844 C 290.9375 1024.1875 295.472656 1019.191406 298.351563 1020.445313 C 301.816406 1022 295.636719 1032.101563 294.574219 1034 C 292.378906 1038 290.25 1041.664063 289 1046 C 308.707031 1046 320.273438 1042.320313 337 1032 C 325.464844 1049.511719 344 1044.191406 353 1036 C 349.738281 1043.828125 345 1051 338.960938 1057 C 335.703125 1060.066406 328.933594 1063.195313 327.753906 1068 C 326.664063 1072.191406 333.457031 1072 336 1072 C 345.703125 1072.117188 353 1069.648438 362 1066 C 353.585938 1074.242188 342.675781 1080.5625 335.53125 1090 C 328.738281 1099 335.722656 1104 345 1102.816406 C 347.710938 1102.492188 350.34375 1101.605469 353 1101 C 351.511719 1105.65625 345 1117.234375 346.707031 1121.683594 C 349.84375 1130.359375 368.371094 1118.574219 372 1116 C 366.984375 1133.414063 350.613281 1139.449219 343 1154 C 353 1154 361.4375 1150.609375 371 1148 C 363 1159.066406 355 1171.582031 352 1185 C 367.308594 1183.789063 384 1177.683594 391 1163 C 394 1170.425781 393.835938 1179.707031 390.367188 1187 C 388.445313 1191.035156 382.515625 1197 383.425781 1201.683594 C 384.796875 1208.8125 402.273438 1198.734375 405.957031 1203.605469 C 408.1875 1206.550781 405.257813 1212 404.476563 1215 C 401.941406 1225 402.332031 1235.210938 400 1245 C 411.914063 1243 423 1232.71875 432 1225 C 432 1232.0625 431.867188 1258.480469 444 1255.332031 C 451.351563 1253.425781 461.496094 1238.203125 469 1243.363281 C 476.242188 1248.339844 484.601563 1259.371094 486.800781 1268 C 487.992188 1272.667969 483 1279.664063 487.332031 1283.257813 C 493.710938 1288.683594 511.742188 1281.496094 519 1280 L 519 1281 C 511 1284.257813 503.480469 1286.636719 495 1288.082031 C 492.964844 1288.425781 487.386719 1288.570313 486.347656 1290.765625 C 485 1293.578125 492.238281 1296.777344 494 1297.53125 C 502.714844 1301.269531 513.644531 1303.621094 523 1305 L 523 1306 C 513.871094 1307.628906 495.171875 1315.082031 490 1323 C 514.277344 1328.550781 535.855469 1327 560 1322 C 557.226563 1331.613281 550.511719 1337 543 1343 C 540.753906 1344.808594 534.230469 1349 534.921875 1352.382813 C 535.421875 1355 547.898438 1352.738281 550 1352.410156 C 566 1350 580.914063 1345.1875 596 1339 C 588.675781 1349.722656 578.902344 1354.636719 568 1361 C 573.648438 1367.46875 583.972656 1368 592 1369.246094 C 606.820313 1371.667969 625.335938 1373.585938 638 1363.609375 C 648.375 1355.4375 651.996094 1342.054688 658.335938 1331 C 662.828125 1323.167969 669.871094 1316.433594 677 1311 C 676.984375 1334.398438 667.859375 1356.609375 649.996094 1372 C 643 1378 635.222656 1382.714844 627 1386.742188 C 624.433594 1388 619.449219 1389.488281 618.921875 1392.824219 C 618.269531 1397 626.761719 1396.058594 629 1396 C 639.949219 1395.484375 651.703125 1393.808594 662 1390 C 680.824219 1383 695.625 1369.378906 705.574219 1352 C 713.5625 1338.042969 717.359375 1323.738281 729 1312 C 725 1328.746094 713.453125 1347 722.90625 1364 C 729.921875 1376.726563 744.324219 1382.773438 758 1385.078125 C 761.421875 1385.65625 769.566406 1387.765625 772.167969 1384.441406 C 774.214844 1381.824219 769.664063 1379.597656 767.984375 1378.574219 C 760.828125 1374.238281 753.8125 1369.558594 748.46875 1363 C 732.921875 1344 742.890625 1315.515625 764 1305 C 753.753906 1322.621094 754.242188 1345.199219 770 1359.5625 C 776.402344 1365.28125 783.824219 1369.828125 792 1372.277344 C 793.804688 1372.820313 799.496094 1375.035156 800.652344 1372.421875 C 801.785156 1370 791.304688 1360.046875 789.820313 1357 C 784.949219 1347.007813 786.65625 1334.621094 788 1324 C 799.914063 1336.015625 810.824219 1344.058594 827 1349.65625 C 830.277344 1350.789063 840.234375 1355.347656 842.878906 1351.394531 C 844.691406 1348.683594 841.773438 1343.628906 840.859375 1341 C 837.992188 1332.71875 835.695313 1323.75 835 1315 C 850.882813 1324.367188 867.671875 1333.117188 886 1336.386719 C 888.847656 1337 901.917969 1340.101563 903.183594 1336.398438 C 904 1333.566406 900.710938 1329.28125 899.425781 1327 C 895.339844 1319.746094 891.683594 1312 889 1304 C 902.941406 1314.023438 913.796875 1325.058594 932 1325 C 936.941406 1325 949.269531 1324.570313 948.535156 1317 C 948 1312 941.636719 1308.546875 938 1306 C 931.277344 1301 926.355469 1295.085938 922 1288 C 931 1290.09375 945 1300.78125 953.957031 1299.382813 C 962.851563 1298 956.410156 1282.570313 963 1278 C 966.21875 1275.703125 970.8125 1278.65625 974 1279.511719 C 984.488281 1282.328125 1000 1279.226563 994.519531 1265 C 993.386719 1262.128906 991.691406 1259.566406 990 1257 C 1000 1260.203125 1027 1270.621094 1025.90625 1251 C 1025.722656 1248 1024.832031 1245 1024 1242 C 1033.476563 1244.585938 1071.53125 1257.628906 1059 1235 C 1057.921875 1233 1056.476563 1231 1054.984375 1229 C 1052.503906 1225.820313 1049.820313 1223 1047 1220 C 1050.371094 1221.140625 1067 1229.417969 1069.355469 1225.355469 C 1072.429688 1219.8125 1065 1212.191406 1069.742188 1206.277344 C 1073.511719 1201.4375 1081.566406 1204.019531 1085.339844 1199.351563 C 1088.878906 1195 1068.625 1188.371094 1065 1187 L 1065 1186 C 1074.191406 1188 1081.988281 1188.632813 1091 1185.183594 C 1093.589844 1184.195313 1098.5625 1182.628906 1098 1179 C 1097.367188 1173.695313 1083 1172.105469 1085.921875 1166.214844 C 1088.382813 1161.082031 1096.921875 1163.675781 1100.394531 1159.566406 C 1105.195313 1154 1095.851563 1143.4375 1100 1136.183594 C 1102.433594 1132.34375 1111.363281 1130.683594 1111.363281 1126 C 1111.363281 1118.695313 1093.199219 1118.222656 1095.460938 1111.277344 C 1096.652344 1107.617188 1102.667969 1110 1105 1110.660156 C 1111.523438 1112.660156 1122 1115.671875 1125.242188 1107 C 1127.863281 1100 1120.738281 1091 1117.757813 1085 C 1111.703125 1073 1105 1054.75 1104.761719 1041.058594 C 1104.566406 1032.679688 1123.792969 1042.542969 1123.792969 1033.8125 C 1123.792969 1030.675781 1119 1028.445313 1117 1026.675781 C 1113 1023.164063 1110.714844 1019 1109 1014 C 1114 1019.140625 1119.453125 1025.355469 1127 1026.671875 C 1132 1027.546875 1137.234375 1024.449219 1142 1026.480469 C 1152.339844 1031 1159.847656 1039.160156 1171 1042.652344 C 1176 1044.234375 1188.839844 1048.546875 1193.589844 1045 C 1198.875 1041 1181.183594 1020.246094 1190.316406 1017.828125 C 1193.371094 1017.019531 1196.878906 1020.390625 1199 1022.097656 C 1205.246094 1027.113281 1211.289063 1032.511719 1218 1037 C 1219.933594 1038.191406 1225.542969 1042.777344 1227.972656 1041 C 1232 1037.570313 1226.792969 1017.769531 1226 1013 C 1225.816406 1010.746094 1224.226563 1005.714844 1226.617188 1004.132813 C 1229.386719 1002.300781 1234.507813 1006.035156 1237 1007.136719 C 1244.203125 1010.320313 1264.453125 1020 1269.96875 1010 C 1275.269531 1000.203125 1251.84375 985.132813 1247 978 C 1244.835938 974.582031 1241.335938 969.0625 1244.527344 965.191406 C 1248.273438 960.648438 1252.84375 966 1255.238281 969.003906 C 1260.984375 976.582031 1271.726563 995 1282.609375 983 C 1288.609375 976.203125 1290.324219 964.632813 1289.960938 956 C 1289.796875 952.117188 1287.882813 947 1289.601563 943.277344 C 1291.332031 939.542969 1296.890625 940.246094 1299.984375 938.257813 C 1307.441406 933.472656 1310.699219 922.28125 1308.199219 914 C 1305.34375 904.527344 1295.542969 898.046875 1289.171875 891 C 1277.597656 878.203125 1267.535156 864.242188 1261.425781 848 C 1258.570313 840.410156 1253.914063 822.066406 1268 822.652344 C 1279.398438 823.128906 1289.976563 831.449219 1301 834 C 1300.59375 814.367188 1287.59375 794.085938 1276 779 C 1299.214844 782 1326.753906 777.191406 1334.558594 751 C 1337.335938 741.683594 1335.195313 732.4375 1335 723 L 1336 723 C 1339.449219 735.0625 1347 746 1352.628906 757 C 1355.375 762.449219 1357.246094 768.171875 1363 771 C 1363 759.59375 1366 748.492188 1364.714844 737 C 1360.53125 703 1337.34375 677.34375 1314 654 C 1332.808594 657.542969 1364.90625 660.589844 1375 639 C 1347.589844 635.519531 1328 619 1311 598 C 1331 600.53125 1350 600.011719 1369 592 C 1372.328125 590.574219 1388.664063 582 1384.261719 577 C 1382 574.355469 1376.886719 575.699219 1374 575.371094 C 1365.457031 574.398438 1356.890625 572 1349 568.574219 C 1322.710938 557.332031 1300 535.476563 1289 509 C 1305.863281 507.621094 1318.621094 495 1323 479 C 1305.59375 479 1288.320313 483.089844 1271 479.332031 C 1251.453125 475.09375 1235.902344 462.117188 1215 466 C 1217.816406 463 1219.796875 460.058594 1221 456 C 1211.558594 457.191406 1202.414063 457.402344 1193 455.75 C 1191 455.425781 1183.746094 454.625 1185.207031 451.222656 C 1186.875 447.335938 1195.296875 451.398438 1198 452 C 1207.523438 454.046875 1222.734375 453.285156 1230.808594 447.007813 C 1236.316406 442.726563 1227.226563 439.300781 1224 438 C 1211.183594 432.144531 1198.398438 423 1185 419 C 1190.230469 414.703125 1196.957031 411 1204 412.390625 C 1208 413.238281 1215.453125 419.179688 1219.253906 415.382813 C 1223.359375 411.28125 1218.277344 400.359375 1216.550781 396 C 1210 379.519531 1198.585938 359.601563 1179 358 L 1179 357 C 1193.835938 350.597656 1206.628906 334.058594 1209 318 C 1179.765625 324.761719 1154 339.761719 1123 334 L 1123 333 C 1142.648438 327.339844 1165 313.464844 1177.238281 297 C 1179.476563 294 1189.566406 277.660156 1183.398438 274.648438 C 1179 272.507813 1171.613281 279.792969 1168 281.625 C 1156.792969 287.3125 1141.601563 291.199219 1129 289.714844 C 1125.273438 289.273438 1118.886719 289.636719 1116.753906 286 C 1114 281.148438 1121.886719 277.140625 1125 275.273438 C 1131.824219 271.179688 1151.53125 254 1145.382813 243.648438 C 1144 241.46875 1140.570313 243.527344 1139 244.261719 C 1133 247.0625 1127.296875 250.523438 1121 252.644531 C 1104 258.363281 1085.3125 258.453125 1068 254.105469 C 1059.238281 252 1050.878906 247.527344 1042 246 L 1042 245 C 1050.34375 244.640625 1059 242.351563 1065.996094 237.363281 C 1068 236 1072.1875 232.597656 1071.25 229.515625 C 1070.308594 226.429688 1063.507813 226.703125 1061 226.101563 C 1051.347656 223.773438 1041.707031 219.402344 1033 214.691406 C 1014.464844 204.664063 999 187.042969 980 179 C 960.816406 170.640625 938.425781 175.441406 920 183 C 924 173.195313 931.1875 166.578125 940 161 C 946.433594 156.695313 954.835938 153.695313 957.851563 146 C 959.46875 142 960.226563 124.757813 952 126.75 C 946.980469 128.003906 944.457031 137.746094 939.960938 141 C 926.65625 150.210938 910.574219 153.128906 898 164 C 896.285156 156.800781 904.753906 140 900.394531 135.601563 C 894.269531 129.429688 880.734375 139.230469 874 139.773438 C 862.367188 140.714844 850.867188 134.515625 839 135.039063 C 825.375 135.640625 814.863281 143.460938 803 149 C 808.492188 139.558594 811.601563 129 809.53125 118 C 808.945313 115 807.261719 108 803 107.753906 C 799.886719 107.652344 799.296875 113 798 115 C 795.78125 119 791.992188 121.316406 788 123.132813 C 770.597656 131.0625 750.976563 132 733 138.078125 C 726 140.449219 719.8125 143.664063 714.285156 148.441406 C 712.839844 149.691406 710 153 708.191406 150.535156 C 706 147.742188 708 142 709 139 C 712.800781 128 722 120 726 109 M 683 131 C 668.5 133.140625 654 142.613281 645 154.003906 C 640.410156 160 636.605469 168.238281 642.394531 174.816406 C 648.707031 182 659.585938 183.394531 668 187 C 683.765625 193.359375 698.359375 202.453125 714 209 C 705.203125 198 695.78125 187.746094 684 179.746094 C 676.902344 175 667.546875 172.695313 662 166 C 687.375 165.476563 726.609375 163.09375 733.191406 196 C 734 201 734.308594 206.058594 733.828125 211 C 733 219.25 730.550781 227.164063 728 235 C 740.671875 224 752.328125 212 751 194 C 750.269531 184 733 155.554688 749 150 C 756.359375 147.347656 764.59375 156.199219 768.816406 161 C 783.175781 177.335938 778.253906 202 766 218 C 764.664063 220 751.171875 233.136719 754.464844 234.335938 C 760.492188 236.527344 772.320313 223.828125 775.5625 220 C 787.199219 206.25 792.488281 188.039063 805 175.003906 C 811.484375 168.316406 819.566406 163.140625 829 162.175781 C 831 162 837.535156 161.378906 837.964844 164.515625 C 838.386719 167.625 833.90625 171.015625 832 173 C 827 178.476563 822.613281 184.511719 819 191 C 840.59375 179.640625 864.476563 176.804688 888 184.34375 C 901.75 188.75 913.957031 198 916 213 C 898.859375 206 882 196.539063 864 207 C 857.9375 210.359375 852.59375 215.140625 848.761719 221 C 847.640625 222.714844 844.8125 226.671875 846.925781 228.640625 C 850 231.582031 863.703125 224.632813 868 224.175781 C 881.386719 222.738281 894 227.753906 905 235 L 905 236 C 897.296875 236.160156 890 238.382813 884 243.519531 C 881.703125 245.59375 878.539063 249.339844 882.203125 252 C 895.515625 261 914.6875 251.316406 926 267 C 902.882813 262.214844 879 253.6875 855 257.4375 C 849.863281 258.242188 833.992188 260.496094 833.613281 267.605469 C 833.476563 270.183594 837.414063 270 839 269.699219 C 844.730469 269.195313 852.984375 267.179688 857.773438 271.433594 C 870.285156 282.558594 843.761719 296.695313 838 303 C 848.789063 302.148438 859.949219 300.085938 868.996094 293.777344 C 874.214844 290.144531 877.847656 282.832031 884 280.78125 C 889.167969 279.058594 894.738281 283.355469 899 285.695313 C 910.589844 292.058594 926 301.101563 931 314 C 909 310.765625 891.914063 303.359375 870 313.3125 C 864.246094 316 858.433594 319.425781 854 324.039063 C 853 325.128906 849.839844 328.257813 851.753906 330 C 853.890625 331.667969 858.179688 328.421875 860 327.433594 C 866.941406 323.675781 874.308594 321.121094 882 319.425781 C 907.390625 313.828125 942.878906 324.683594 953 351 C 928.761719 347.734375 900.722656 342.324219 884 366 C 903 358.613281 950.578125 349 956 379 C 934.265625 373.644531 915.738281 378 895 385 L 895 386 C 933.828125 386 979.976563 388 1006.660156 421 C 1011.65625 427.191406 1010.996094 434.78125 1013.359375 442 C 1015.964844 450 1021.203125 456.152344 1027 462 C 1023.78125 446.414063 1014.738281 421 1030 409 C 1030.886719 420.132813 1035.289063 430 1043 438 C 1052.519531 447.691406 1065.316406 455.085938 1066 470 C 1060.386719 466.726563 1055.972656 461.765625 1053 456 L 1052 456 C 1051.789063 466.117188 1048.734375 477.355469 1053.1875 487 C 1056.789063 494.789063 1066.40625 499.160156 1067.785156 508 C 1070 522.753906 1058.347656 533.496094 1064.464844 549 C 1071.425781 566.648438 1087.398438 575.746094 1090.5625 596 C 1093 612.515625 1087.628906 630 1084.609375 646 C 1080.828125 666.191406 1078.613281 687.53125 1077 708 L 1076 708 C 1074.210938 685.507813 1061.84375 665 1062 642 C 1062 626 1074 607.492188 1066.429688 592 C 1063.328125 585.691406 1055 581 1049.429688 587.226563 C 1047.265625 589.621094 1047.242188 594.191406 1044.492188 596 C 1040.527344 598.429688 1037.464844 593 1036.46875 590 C 1032.675781 578.691406 1034.957031 563.417969 1040.402344 553 C 1043 548 1048.480469 543.308594 1049 537.425781 C 1049.769531 529.46875 1043.53125 520.578125 1039.859375 514 C 1028.539063 493.710938 1012.566406 476 994 462 C 1000.632813 478 1010.253906 492.277344 1015 509 C 1006.546875 503 1002.363281 492.785156 995.699219 485 C 982.484375 469.558594 963.554688 456.023438 943 453 L 943 452 C 958.398438 447.320313 975.730469 448.699219 991 453 C 964.988281 430.492188 931 431.042969 900 441 C 907.351563 430.808594 922.386719 428 934 425.234375 C 936.484375 424.644531 946 423.785156 945.367188 419.816406 C 944.300781 413.46875 930 409.007813 925 407.0625 C 908.558594 400.828125 890.351563 399 873 401.429688 C 866 402.40625 850.433594 409.65625 844.316406 407.304688 C 840.339844 405.769531 842.785156 399.476563 844.226563 397 C 848.464844 389.730469 856.632813 385.269531 864 381.78125 C 870.5625 378.671875 877.230469 375.628906 884 373 L 884 372 C 872.71875 372.09375 860.507813 374.5 850 378.613281 C 843.519531 381.152344 837.910156 385.765625 831 387 C 836.269531 365.601563 832 347.421875 832 326 C 827.328125 331 824.445313 337.070313 819.816406 342 C 810.964844 351.148438 796.933594 349.65625 798 335 C 799 323.089844 808.628906 313.199219 814 303 C 797.804688 314.050781 784.6875 329.183594 778.355469 348 C 775.921875 355.234375 776 363 774 370 C 781.894531 364.171875 785.191406 354.234375 790 346 L 791 346 C 802 367 782 387.660156 777.664063 409 C 775.953125 417.183594 775 429.480469 765 432.339844 C 754 435.441406 750.828125 409.542969 750 403 C 748 405 746.207031 406.46875 744 408 C 735 388.082031 721.460938 366.355469 721 344 L 720 344 C 714.367188 353.652344 702.210938 345.164063 699.652344 337 C 692.734375 315 728 327.6875 737 329 L 737 328 C 723 322.128906 710.695313 314.234375 696 309.332031 C 690.734375 307.578125 680.265625 305.660156 676.753906 301.050781 C 674 297.523438 681.757813 294.816406 684 294.171875 C 692 292 701.179688 293 709 295.699219 C 721 300 731.300781 308.472656 739.574219 318 C 742.695313 321.59375 748.367188 330 753.984375 329.050781 C 764 327.347656 763 303.386719 763 296 L 765 296 C 765.257813 308.429688 769.464844 320.554688 770 333 C 778.726563 324 783 312.679688 789.453125 302 C 795.253906 292.253906 802.609375 283.542969 807 273 C 799.476563 276 791.960938 278.78125 785 283 C 782.34375 284.503906 778.609375 288.042969 775.226563 287.183594 C 769.257813 285.664063 767 267.675781 757.632813 271.507813 C 746.542969 276.042969 758.296875 303.503906 742.996094 306.640625 C 730.699219 309.164063 717 291.6875 707 287 C 691.585938 279.613281 673.613281 280.457031 659 289.207031 C 656.355469 290.792969 644.511719 297.175781 646.207031 301.15625 C 647 303.09375 651.246094 303.746094 653 304.332031 C 659.496094 306.503906 666 308.601563 672 312 C 657.171875 327.578125 629 312 616 303 C 622.808594 323 637.605469 333.011719 658 337.574219 C 663.566406 338.820313 679 338 682.96875 342.023438 C 685.304688 344.472656 682.886719 351.804688 683 355 C 683.84375 367 687.511719 378.277344 689 390 C 671.386719 382.664063 656.671875 375 637 374 C 648 383.46875 664.878906 385 674.675781 396.039063 C 676.855469 398.53125 683.921875 407.613281 679.394531 410.730469 C 675.992188 413.074219 669.238281 409.058594 666 407.8125 C 655.335938 403.699219 643.4375 401.234375 632 401 C 639.554688 408.636719 650 409.796875 654.519531 421 C 655.433594 423.304688 657.289063 429 654.972656 431 C 652.820313 433 648.773438 430 647 428.773438 C 640.558594 424.429688 635.917969 418.039063 629 414.324219 C 610.714844 404.503906 588.390625 407.457031 570 415 L 570 416 C 588 416.148438 614.234375 426 625 441 C 612.828125 437.492188 602.898438 431.277344 590 429.429688 C 561.863281 425.398438 522 437.617188 502 458 C 519.28125 450.339844 540.792969 441.785156 560 444.289063 C 569.460938 445.523438 580 449.6875 582 460 C 532.488281 444.167969 504.542969 492 489 532 L 488 532 C 491.449219 505.28125 500 484 514 461 C 491 471.828125 472.386719 495.546875 461.78125 518 C 458.53125 525 452.585938 534.109375 453.421875 542 C 454 549 460.230469 554.082031 463.191406 560 C 468.339844 570.300781 470 583.824219 467.316406 595 C 466.566406 598.023438 463.578125 604.503906 459.511719 601.339844 C 452.9375 596.226563 451.648438 582.269531 440 593.214844 C 438.675781 594.570313 437.453125 596.148438 436.742188 598 C 434.449219 604 436.820313 612 438 618 C 440.1875 629.121094 442 639.621094 441.996094 651 C 441.796875 667.652344 430.742188 679.746094 424 694 L 423 694 C 419.308594 678.492188 421.996094 661 420.910156 645 C 419.503906 624.476563 414.203125 600.230469 419.480469 580 C 422.683594 567.707031 436.910156 561.671875 438.785156 549 C 440.472656 537.605469 431.507813 527.351563 432.390625 516 C 433 507.253906 440.453125 502.753906 444.890625 496 C 451 486.648438 451.277344 472.140625 447 462 C 445.429688 466.074219 444 473.769531 439.800781 476 C 432.972656 479.382813 433.933594 467.078125 435.703125 464 C 446.695313 445 469.476563 439.394531 470 414 C 485.558594 425.484375 480 452.144531 475 468 C 490.839844 456.75 487 438.394531 498.441406 425 C 524.835938 393.6875 570.488281 385.347656 609 387 L 609 386 C 589.453125 379.484375 571.488281 377.183594 551 381 C 556.785156 349.058594 605.507813 362.683594 625 368 C 611.617188 354.730469 593 346.679688 574 349.429688 C 564.898438 350.734375 556.871094 355 548 357 C 550.445313 346.699219 556.777344 337 562.203125 328 C 581.902344 295.394531 611 274 649 268.429688 C 659.941406 267 670 268 681 268 L 681 267 C 663.589844 264.789063 646.535156 259.695313 629 264 C 606.945313 269.183594 589 285 567 290 C 577.453125 249.703125 631.535156 231 669 242.035156 C 689.304688 248.0625 703.757813 261.605469 721 273 C 701.726563 251 673.65625 221.652344 642 221 C 661 199.066406 694 222.042969 712 232 C 702.769531 210.582031 680.933594 190.527344 657 188.171875 C 644 187 619.261719 206.347656 611.53125 189 C 600.3125 163.78125 633.769531 137.164063 654 130.355469 C 662.34375 127.546875 676 123.777344 683 131 M 803 149 L 802 150 L 803 149 M 764 245 C 788 245 809 231.066406 828 217.578125 C 835.492188 212.222656 844.640625 207.394531 849 199 C 841.503906 199 833.363281 198.105469 826 199.667969 C 809 203.269531 796.644531 215.449219 784 226.425781 C 777.753906 232 768.171875 238 764 245 M 1007 228 C 986.636719 223.289063 973.808594 219.347656 953 226 L 953 227 C 969.769531 227 988.285156 230 1000.699219 242.300781 C 1007.84375 249.441406 1011.464844 259.167969 1020 265.097656 C 1031.863281 273.335938 1046.1875 278.644531 1059 285.257813 C 1076 294.082031 1092.691406 304.765625 1111 311 L 1111 312 C 1100.839844 312.4375 1090 316 1080 313.0625 C 1069.632813 310.074219 1060.175781 301.074219 1050 296.71875 C 1032.296875 289.144531 1014.257813 285.289063 995 286.003906 C 992 286.113281 974.957031 287.75 977.347656 293.414063 C 978.625 296.445313 985.683594 294.246094 988 294.089844 C 997.53125 293.4375 1007.414063 295 1016 299.269531 C 1031.632813 307.085938 1041.84375 322.128906 1056 332 C 1073.730469 344.277344 1095.363281 349.53125 1116 354.625 C 1128 357.597656 1140.460938 359.710938 1152 364.453125 C 1155.527344 366 1161.785156 369 1160.289063 374 C 1157.957031 381.46875 1137 374.714844 1132 373.289063 C 1112 367.660156 1093 359 1073 354 C 1064.894531 352 1054.910156 349.734375 1049 357 C 1068.445313 357.054688 1087.921875 364.105469 1103 376.464844 C 1110.550781 382.652344 1116.488281 394.160156 1126 397.363281 C 1134.542969 400.234375 1160.738281 392.328125 1164.503906 404 C 1165.953125 408.460938 1151.914063 410.40625 1149 411 C 1132.203125 414.398438 1120.871094 410 1109 398 C 1103 422.5 1130.96875 441.089844 1153 437 C 1139.183594 453.554688 1113.363281 442 1099 433 C 1113.363281 463.175781 1146.75 477.371094 1179 476 C 1188.59375 475.539063 1197.617188 472.382813 1207 471 C 1189.910156 495.242188 1152.640625 499.816406 1129 483 C 1136.699219 499.179688 1154.585938 508.386719 1171 513.277344 C 1203.238281 523 1242.339844 518.683594 1271 538 L 1271 539 C 1252.34375 539.386719 1230.273438 545.007813 1219 561 C 1246.230469 561.074219 1309 576 1297 614 L 1296 614 C 1279.628906 589.25 1253.753906 577.730469 1225 580 C 1251.238281 617.257813 1285 651.683594 1297.707031 697 C 1302 712.5625 1305.667969 738.394531 1293 751 C 1278.660156 718.652344 1264.304688 683.652344 1241.535156 656 C 1228.277344 640 1208.734375 630.296875 1196.773438 613 C 1186.386719 598 1189.347656 577 1179 563.09375 C 1172 554 1158.9375 557.304688 1157.789063 569 C 1156.605469 581.050781 1163.394531 594.214844 1169.699219 604 C 1187.199219 631.171875 1216.597656 645.675781 1238.960938 668.039063 C 1264.625 693.703125 1263 719.65625 1263 753 C 1253.628906 745.234375 1248.535156 730.054688 1241.566406 720 C 1224.484375 695.363281 1206.253906 671.222656 1185 650 C 1174.238281 639.253906 1165.527344 634.792969 1153 645.730469 C 1150.203125 648.1875 1145.515625 651.800781 1145.621094 656 C 1145.78125 662.398438 1155.324219 664.054688 1160 665.425781 C 1175.359375 670 1190.183594 677.132813 1202 688.089844 C 1220.558594 705.296875 1232.554688 729.421875 1237.789063 754 C 1240 764.558594 1239.539063 775.664063 1242 786 C 1230.351563 780.046875 1229 760 1221 750 C 1221 777.183594 1219.902344 805.546875 1227 832 C 1231.339844 847.28125 1246.597656 863.351563 1243.671875 880 C 1239.492188 903.761719 1223.585938 870.128906 1216 873.832031 C 1206.65625 878.457031 1214.84375 898.359375 1215 906 C 1207.890625 900.769531 1193.394531 890 1191.394531 881 C 1188.679688 869 1196.1875 860.386719 1189 848 C 1184.640625 840.144531 1167.628906 829.660156 1167.375 821.058594 C 1167 813.132813 1185.921875 821.398438 1188.550781 811 C 1190.585938 803 1184.195313 791.355469 1181.425781 784 C 1171.644531 758.066406 1156.917969 730.507813 1129 721 C 1134.664063 728.371094 1140.441406 736.507813 1141.523438 746 C 1142 751.089844 1140 756 1141.585938 761 C 1144.257813 770 1151.183594 779.449219 1142.785156 787.671875 C 1135 795.1875 1123 795.070313 1114 800.175781 C 1110.703125 802.039063 1105.882813 805.1875 1106 809.574219 C 1106.480469 817 1118.519531 819.253906 1124 820.625 C 1144 825.640625 1182.367188 833.757813 1162 862 C 1158.941406 866.367188 1155.53125 870.105469 1151 873 C 1151 868.773438 1151.511719 864.15625 1150.65625 860 C 1146.542969 840 1119.234375 862.414063 1111 867 C 1111 857.625 1112.703125 841.203125 1104.785156 834.433594 C 1100 830.371094 1087.261719 838 1086 832 C 1083.398438 817 1087.871094 797.152344 1088.910156 782 C 1091.378906 746 1093.402344 710.011719 1096.828125 674 C 1098.683594 654.523438 1095.546875 631.113281 1104 613 L 1105 613 C 1103 626.761719 1098.820313 639.011719 1102.746094 653 C 1104.714844 660.015625 1108.824219 665.585938 1112 672 L 1113 672 L 1109 652 C 1112.945313 652.703125 1116.320313 654.46875 1120 656 C 1117.757813 650.609375 1107.59375 636.363281 1112 630.601563 C 1114.460938 627.453125 1120.40625 630.039063 1121.820313 625.316406 C 1122.992188 621.390625 1120.695313 616.230469 1121.300781 612 C 1122.347656 604.648438 1126 598.085938 1128 591 L 1129 591 C 1129 594 1130.847656 613.546875 1136.996094 605.792969 C 1141 600.53125 1139.640625 592.179688 1140.804688 586 C 1143.222656 573.148438 1147.351563 558.753906 1155 548 C 1140.242188 555.351563 1132 574.355469 1114 575 C 1100.21875 575.414063 1091.71875 564.730469 1085.203125 554 C 1081.28125 547.539063 1077.324219 541.667969 1083.214844 535.042969 C 1093 524.023438 1102.449219 534.789063 1114 532.316406 C 1126.871094 529.5625 1135.667969 519.644531 1147 514 L 1147 513 C 1128.78125 513.378906 1112.390625 530.679688 1094 522.199219 C 1071.21875 511.699219 1079.535156 481.625 1075 462 C 1069.996094 439.316406 1057 419.300781 1044.691406 400 C 1038 389.730469 1032.496094 379 1024 370 C 1030.765625 387.539063 1028 399.613281 1012 411 C 1005.429688 395.296875 992.867188 381.605469 982.847656 368 C 978.929688 362.6875 971.542969 356.160156 971.667969 349 C 971.867188 337.621094 989.734375 334.078125 997 328.472656 C 999 327 1005.628906 322.128906 1004.386719 319 C 1003 315.601563 988.503906 323.023438 985 323 C 971.964844 322.648438 962 309.8125 955.34375 300 C 953.199219 297 948.351563 291.40625 949.707031 287.226563 C 951.441406 282 963.511719 281.417969 968 279.535156 C 978.167969 275.269531 987.261719 267 992 257 C 982.289063 258.253906 974.574219 259.691406 965 256.300781 C 956.59375 253.324219 942 248 935.433594 242.15625 C 932 239.328125 933 234 933 230 C 933 220.117188 931.496094 209.386719 942 204.328125 C 961.8125 194.796875 997.304688 209.3125 1007 228 M 569 227 C 565 235.273438 556 240 549 245.152344 C 529.355469 259.476563 509 269.492188 486 277 L 486 278 C 517.890625 278 544.234375 256.683594 575 254 C 571.851563 260.628906 566.609375 266 564.4375 273 C 558.570313 292.296875 558.730469 316.621094 543.90625 332 C 526.464844 350.007813 500 334.375 479 338.085938 C 444.578125 344.140625 424.734375 378 388 378 L 388 377 C 406 371.796875 427.371094 353.085938 438 338 C 414.945313 348.269531 388.429688 357.476563 363 358 C 367.753906 352.453125 375.1875 351 382 349.152344 C 395.941406 345.378906 410.175781 342.800781 424 338.566406 C 449.835938 330.648438 473.683594 316.316406 497 303 C 508.332031 296.527344 520.414063 292.148438 530 283 C 500.351563 283.019531 475 301.449219 449 313.230469 C 438.304688 318.070313 420 324.363281 409 316.773438 C 404 313.234375 408.203125 309.488281 412 307.308594 C 424.816406 300 436.695313 292 448 282.410156 C 469.519531 264.246094 485.972656 238.703125 514 229.746094 C 532 224 550.519531 227 569 227 M 728 397 C 709.816406 397 699.257813 387.042969 696 369 C 695.449219 365.390625 692.777344 354.609375 696.601563 352.085938 C 701.382813 349 705.25 359.328125 707 362 C 710.199219 366.214844 715.296875 368.519531 718 373.015625 C 722.332031 379.582031 724.976563 389.710938 728 397 M 795 397 C 797 384.480469 800.671875 367.101563 811 359 C 813.449219 357 819.785156 351 823.257813 353.132813 C 826.980469 355.542969 824.378906 364.605469 823.738281 368 C 820.8125 383.585938 811 394.621094 795 397 M 489 419 C 484.347656 411.027344 481 402.28125 475.332031 395.003906 C 473.339844 392.507813 469.859375 388 466 388.679688 C 460 390 453.964844 409.78125 451 415 C 435.695313 442 423.976563 471.671875 405.957031 497 C 398.546875 507.414063 385.464844 511.761719 374 516.1875 C 369.820313 517.804688 360.230469 519.09375 357.921875 523.339844 C 355.308594 528.144531 368.546875 529 371 529 C 385.503906 529 393.292969 517.054688 406 513 C 403.464844 530.179688 387.59375 547.496094 369 542 C 379.832031 557.25 401.214844 562.738281 408.648438 581 C 413.828125 593.730469 410 614.324219 410 628 C 410 653.039063 412.214844 678 409.828125 703 C 408.351563 718.507813 403 733.484375 402 749 C 401.273438 761 401.78125 773.214844 403.285156 785 C 404.578125 795.117188 407.863281 805.804688 405.238281 816 C 401.855469 829.140625 389.402344 837.011719 378 842.753906 C 370.589844 846.484375 360.417969 850.59375 357.269531 859 C 355.28125 864.300781 358.28125 870.65625 359 876 C 348 871 343.796875 856.753906 351.394531 847 C 365 829.371094 394.660156 828.128906 401 804 C 405.195313 788.480469 388.46875 775.003906 384.640625 761 C 378 737.039063 387.597656 715.558594 399 695 C 361 705.757813 312.992188 736.25 305.613281 778 C 302.980469 793 317.503906 808.546875 311.992188 822 C 305.824219 837.039063 282.21875 833 274.6875 848 C 269.648438 858.0625 275.210938 870.605469 275.910156 881 C 277.222656 900.523438 262 925.417969 242 929 C 247.199219 917.785156 258.890625 911.117188 263 899 C 267 887.726563 263.632813 875.554688 265.4375 864 C 267.570313 850.363281 273.367188 837.617188 275.5625 824 C 279.171875 801.585938 278 778.632813 278 756 L 277 756 C 272.828125 765 266.761719 785.449219 258 790 C 258 752.015625 275 710.253906 306 687 C 316 679.253906 328.789063 673.8125 341 670.628906 C 346 669.300781 354.8125 668 356.742188 662 C 358 657.785156 352.5 652.699219 349.910156 650.039063 C 339.496094 639.347656 329.644531 640 319 650.089844 C 298 670 278.414063 696.265625 262 720 C 254.359375 731.101563 247.523438 748.742188 237 757 C 236.867188 741.027344 233.808594 724.707031 238.4375 709 C 249.371094 672 287.96875 653.511719 315 629.714844 C 327.632813 618.589844 337.605469 604 342.996094 588 C 345 581.722656 347 574.257813 343.558594 568.09375 C 337.949219 558.320313 326.328125 564.226563 322.378906 572.003906 C 315.210938 586.113281 316.242188 602.609375 306.511719 616 C 296.984375 629.105469 282.457031 637 271 648.015625 C 254.71875 664 242.878906 682.753906 232.753906 703 C 226.847656 714.8125 220.886719 726.652344 216.191406 739 C 214.914063 742.359375 213.1875 751.054688 209.574219 752.652344 C 206.84375 754 204.929688 746.613281 204.4375 745 C 201.703125 736 201.433594 726.378906 202 717 C 204.285156 685.683594 225.425781 661.71875 244.5625 639 C 253 629 259.277344 617 268.171875 607 C 276 598.132813 286.28125 592.007813 295 584 C 276.5625 584 259.199219 586.390625 244 598 C 236.5625 603.53125 231.589844 611.652344 224 617 C 223.882813 611.253906 222.179688 605.625 224 600 C 230 582.539063 253.753906 574.4375 270 570.375 C 276.957031 568.636719 284 567.246094 291 565.652344 C 292.710938 565.261719 296.886719 565.0625 297.792969 563.230469 C 299.578125 559.628906 286.414063 553.433594 284 552.257813 C 267.851563 544.410156 248.605469 544 231 544 C 237.515625 535.566406 249.324219 534 259 531 C 284.171875 523.234375 310.414063 521.40625 336 515.652344 C 350 512.476563 364.308594 508.058594 371 494 C 350.527344 502.398438 319.289063 505.796875 306 483 C 338.414063 483 369.40625 472.773438 396 454.277344 C 405 448 415 441.550781 421 432 C 404.566406 443.699219 379.171875 453.394531 359 455 C 373.230469 434.800781 398.773438 424.195313 413 404 C 398.894531 404.117188 384 407.15625 371 412.453125 C 361.742188 416.203125 353 423.109375 343 424 C 343.976563 419 341.484375 412.691406 344 408.105469 C 346.683594 403.316406 354.1875 401.40625 359 399.691406 C 369.71875 396 381.632813 394.035156 393 394 C 399.449219 394 406.738281 396.441406 413 394.402344 C 422.738281 391.226563 430.546875 382.199219 439 376.695313 C 455.238281 366.121094 472.808594 358.574219 492 355.589844 C 509 353 524.363281 364 513.769531 381 C 510.355469 386.519531 506.207031 391.542969 502.699219 397 C 498 404.277344 495.238281 412.816406 489 419 M 1023 369 L 1024 370 L 1023 369 M 733 403 C 735.230469 415.007813 733 427 733 439 C 735.761719 436 740.398438 426.207031 744.882813 426.207031 C 748 426.207031 749.597656 431.734375 750.785156 434 C 754.363281 440.820313 758.984375 448.132813 765 453 C 765.660156 445.425781 769 439.382813 773 433 L 774 433 C 774 447.652344 777.769531 460.09375 775 475 C 782.589844 467.179688 782.753906 447.601563 794 443.328125 C 799.3125 441.320313 799 449 799 452 C 799 462.429688 794.691406 471.140625 792 481 C 796.601563 476.007813 800.671875 470.820313 807 468 C 806.644531 485.195313 800.832031 496.054688 788 507 C 790.425781 507.277344 793.984375 507.6875 793 511.109375 C 791.914063 515.792969 786.359375 519.289063 783.53125 523 C 778.914063 529.0625 777.484375 536.53125 778 544 C 782.351563 534.230469 785.902344 525.410156 795 519 C 792.390625 529.585938 789.46875 541.089844 789 552 L 790 552 C 793.246094 546.605469 802.824219 561.738281 812 559 C 826 554.648438 834 541 841 529 L 842 529 C 839.214844 543.777344 835 559 823.910156 569.828125 C 810.8125 582.59375 791 589.429688 780 604 C 795.574219 602 806.277344 589.800781 821 585.4375 C 852.960938 576 901.320313 593.035156 914 626 C 902 622.253906 892.539063 614 880 611.617188 C 849.433594 606.113281 820.699219 628.597656 802 650 C 814.726563 647 825.300781 638.28125 838 635 C 882.460938 623 920.753906 636.066406 949 673 C 925 667.238281 907.789063 648.753906 884 643.667969 C 866 640 850 646.03125 833 650 L 833 651 C 854.261719 651 875 651 895 659.425781 C 925.394531 672.425781 948.703125 697.613281 979 710.574219 C 998.304688 718.828125 1033.675781 721.519531 1036 748 C 1028.964844 745.773438 1022 741.054688 1016 737 C 1024 756.535156 1037.710938 772 1048 790 C 1034.410156 788 1021.667969 778 1011 770 C 990.6875 754.515625 970.722656 736.324219 945 731 C 965.34375 749.371094 991.691406 762.066406 1013 779.613281 C 1022.511719 787.449219 1028.597656 798.167969 1037 807 C 1048 818.53125 1063.789063 829.578125 1067.484375 846 C 1069.789063 856.226563 1067.703125 867 1062.6875 876 C 1060 880.691406 1053 886.246094 1053.644531 892 C 1054.285156 898.164063 1061.652344 903.125 1064.894531 908 C 1072.214844 919.003906 1076.609375 932.734375 1074.699219 946 C 1074 950.082031 1072 961.289063 1066.921875 962.078125 C 1063 962.664063 1061.855469 955.476563 1060.945313 953 C 1057 942.246094 1051.976563 931.730469 1045.9375 922 C 1027.207031 891.828125 998.453125 867 963 860 C 971.546875 868.152344 982.597656 871.316406 992 878.160156 C 1010.308594 891.484375 1025.648438 910.132813 1034.574219 931 C 1041.933594 948.214844 1045.738281 967.550781 1041 986 C 1036.851563 1003 1027.320313 1017.519531 1024.589844 1035 C 1023 1044.382813 1022 1054.542969 1023.429688 1064 C 1025 1075.113281 1029.859375 1086.660156 1028.828125 1098 C 1026 1129.082031 1008.578125 1160.640625 982 1177.5625 C 965.425781 1188.117188 946.484375 1193 928 1199 L 928 1198 C 955.441406 1182 985.84375 1168.378906 1000.21875 1138 C 1006 1125.5 1010.28125 1107.183594 998 1097 C 996.1875 1139.210938 966.640625 1161.753906 929 1174 C 934.234375 1163.664063 948.929688 1157.460938 956.910156 1149 C 980.5625 1124 998 1089.019531 987 1054 C 982 1064.3125 984.886719 1078 980.535156 1089 C 969.660156 1116.820313 936.433594 1136.390625 907 1137 L 907 1136 C 938.539063 1122.410156 959.527344 1092.125 962.828125 1058 C 964 1046 960.21875 1034.765625 960.179688 1023 C 960 1007.242188 964.480469 993.082031 961.574219 977 C 954.714844 939.03125 923.304688 892.472656 886 879.089844 C 876.238281 875.589844 866.191406 876 856 876 L 856 877 C 917.273438 891.519531 951 961.195313 942.570313 1020 C 939.851563 1038.773438 930 1052 923 1069 C 936.964844 1061.753906 951.386719 1043 958 1029 L 959 1029 C 953.46875 1051.445313 947.867188 1071 932.5625 1089 C 919.726563 1104.210938 899.988281 1115 894 1135 C 890.796875 1146.007813 892.453125 1160 897.902344 1170 C 900.785156 1175.363281 908.449219 1183.710938 902.566406 1189.679688 C 894.777344 1197.582031 886.90625 1179.085938 884.722656 1174 C 877.386719 1157 873.664063 1128.046875 879 1110 C 863.179688 1124.089844 863.710938 1154.175781 868.757813 1173 C 870.578125 1179.800781 875 1186 875.800781 1193 C 877.539063 1211.28125 856.445313 1235.535156 841 1242 C 844.515625 1235.105469 849 1229.65625 851.253906 1222 C 857.714844 1198.71875 849.320313 1174.441406 843 1152 L 842 1152 C 842 1177.433594 844 1221 817 1235 C 818.492188 1230.304688 820.578125 1209.171875 810 1218.410156 C 796.316406 1230.65625 794.488281 1251.613281 775 1259 C 785.230469 1229 796.71875 1197 773 1169 C 775.480469 1188.621094 778.34375 1211 768.335938 1229 C 765.722656 1233.710938 760.828125 1243.070313 755 1244.167969 C 749.246094 1245.25 743.292969 1235 740.488281 1231 C 728 1214 729.988281 1190.441406 734 1171 C 719.351563 1186.449219 717 1215.296875 723 1235 C 725.671875 1243.625 731.457031 1251.03125 733 1260 C 722.890625 1254.363281 714.867188 1245.574219 708.515625 1236 C 704.960938 1230.640625 702.390625 1223.277344 696.960938 1219.476563 C 686.550781 1212.195313 688.878906 1231.449219 690 1236 C 682.703125 1232.132813 678.839844 1224.140625 675.246094 1217 C 665.617188 1198 664 1177.09375 664 1156 L 663 1156 C 654.359375 1178.277344 649.207031 1205 657.695313 1228 C 660 1234.414063 664.648438 1239.171875 668 1245 C 653 1237.058594 631.742188 1215.722656 632.265625 1197 C 632.464844 1190 637.332031 1183.753906 638.960938 1177 C 643.703125 1157.304688 643.246094 1129.621094 629 1114 C 629 1135.5 631.597656 1156.476563 623 1177 C 620.730469 1183 610 1206.390625 603.214844 1189.828125 C 600.789063 1184.023438 609.492188 1175.175781 611.535156 1170 C 616.21875 1158.128906 616.976563 1142.574219 611.191406 1131 C 603.234375 1115.089844 587 1105.386719 575 1093 C 560.261719 1078 549.671875 1056.148438 548 1035 L 549 1035 C 553.789063 1048.816406 570.710938 1066.25 583 1074 C 577.75 1063 570.84375 1054.097656 567.429688 1042 C 554.207031 995.140625 568.925781 945 603 911 C 615.683594 898.378906 631.699219 885.464844 650 883 L 650 882 C 622 878.46875 597.230469 897 579.71875 917 C 561.265625 938.175781 545 965.238281 543 994 C 542.195313 1007 545.929688 1018.417969 546.53125 1031 C 547.488281 1051.097656 544.347656 1069.34375 551.8125 1089 C 556.566406 1101.507813 563.628906 1115 574 1123.675781 C 582 1130.507813 593.597656 1133.328125 600 1142 C 574.625 1138.789063 547 1127.261719 532.699219 1105 C 526.617188 1095.601563 523.640625 1084.019531 522.285156 1073 C 522 1071.347656 522.769531 1063.054688 520 1063.054688 C 517.320313 1063.054688 518 1070.386719 518 1072 C 517.984375 1081.371094 517.523438 1090.75 519.261719 1100 C 525.605469 1133.777344 553.691406 1157.15625 580 1176 L 580 1177 C 541.914063 1174 509 1140.449219 509 1102 C 496.632813 1115.046875 501 1131.648438 509 1146 C 523.746094 1172 553.328125 1193.804688 582 1202 L 582 1203 C 528.648438 1195.816406 483.402344 1156 478.171875 1101 C 477.230469 1091.121094 481.234375 1081.574219 482.914063 1072 C 484.777344 1061.394531 484 1050.605469 482.574219 1040 C 479.792969 1021.234375 468.601563 1005.402344 464.667969 987 C 461.410156 971.75 464.523438 955.335938 470.203125 941 C 478.617188 919.765625 492.761719 900.679688 511 887 C 520.917969 879.40625 532.9375 875.648438 542 867 C 509.183594 877.679688 480.488281 896.5 461.695313 926 C 455 936.328125 450.691406 947.488281 446.65625 959 C 445.835938 961.347656 444.226563 968.792969 440.949219 968.792969 C 435.449219 968.792969 431.90625 956.121094 431.300781 952 C 429.378906 939 432.832031 925 440 914 C 443.503906 909 450.9375 904.296875 452 898 C 453 892.117188 445.890625 885.796875 443.324219 881 C 438.300781 871.617188 436.367188 860.304688 439.441406 850 C 444 834.679688 458.195313 824 468.996094 813 C 478 803.765625 484.664063 792.457031 495 784.425781 C 510.867188 772.09375 527.824219 760.660156 544 748.628906 C 549.40625 744.609375 556.3125 741.738281 561 737 C 537.625 742 518.1875 757.707031 500 772.199219 C 488 781.757813 473.644531 793.65625 458 796 C 468 777.824219 481.265625 761.480469 491 743 C 483.960938 747 477.414063 751.804688 470 755 C 472.351563 728.070313 505.597656 726.4375 525 717.6875 C 572.433594 696.304688 616.542969 642.28125 674 656 L 674 655 C 654.394531 647.691406 631.941406 643.3125 612 652 C 592.90625 660.066406 580 676.246094 558 678 C 582.503906 643.210938 622.957031 628.4375 664 638 C 677.792969 641.0625 690.371094 651 704 653 C 684.402344 633.808594 658.71875 615.785156 630 617.039063 C 611.453125 618 593.605469 625 575 625 L 575 624 C 603.265625 608.265625 637.332031 575 673 583.300781 C 680.601563 585.101563 684.273438 592.222656 691 595.621094 C 694.527344 597.40625 716.558594 606.367188 717 599 C 717.511719 590.300781 698.785156 582.417969 693 578.253906 C 679.277344 568.378906 670.261719 552.777344 668 536 C 678.59375 544.621094 683.746094 560.648438 698 565.160156 C 703.65625 567 707.882813 561.265625 714 563 C 712.863281 557.492188 708 545.078125 718 548 L 711 527 C 717.496094 530 722 534.503906 725 541 L 726 541 C 723.738281 513.292969 698.324219 500 688.925781 476 C 686.828125 470.644531 681.902344 449.488281 693.957031 452.453125 C 701.210938 454.238281 702.425781 466.738281 706.53125 472 C 713 480.394531 724.71875 484.613281 735 486 L 735 485 C 718 477.082031 709 467.222656 709 448 L 719 453 C 710.476563 436.019531 714.421875 411.015625 733 403 M 237 517 C 243.347656 508.066406 255.984375 499.195313 267 497.328125 C 271 496.648438 279 497 280.246094 502.058594 C 281.398438 507 274.652344 510.496094 271 512 C 260.492188 516.0625 248.1875 517 237 517 M 1229 504 C 1235.414063 495.828125 1247 495.347656 1256 500.050781 C 1258.855469 501.570313 1265.835938 506.257813 1264.261719 510.394531 C 1263.21875 513.140625 1257.90625 511.324219 1256 511 C 1246.976563 508.726563 1237.976563 506.324219 1229 504 M 815 501 C 815.914063 512.203125 824.730469 519.074219 826.476563 529 C 827.75 536.234375 814 552.074219 806.433594 547 C 802.394531 544.28125 803.253906 537.027344 803.714844 533 C 804.980469 522 805.804688 508.621094 815 501 M 709 518 C 706.808594 517.414063 702 515 700 517 C 697.445313 519.46875 701.183594 526.058594 701.675781 529 C 703.324219 539 701 549.097656 701 559 C 688.496094 550.167969 682.980469 533.800781 683 519 C 683 515 682.605469 509 685 505.332031 C 689.960938 498.765625 707 513.078125 709 518 M 581 514 C 578.878906 521.363281 573.535156 527.039063 576.5625 535 C 585.179688 557.648438 610.328125 542.816406 613 525 C 621.972656 529.707031 616.335938 540.476563 610.90625 546 C 602.710938 554.105469 589.621094 555.5 579 551.4375 C 564.277344 545.804688 563.273438 515 581 514 M 898 515.617188 C 906.335938 512.488281 910.179688 525.621094 901.957031 528 C 894.570313 530.132813 891.167969 518.261719 898 515.617188 M 933.5625 515.753906 C 937.847656 514.117188 939.804688 524.527344 940.332031 527 C 942.308594 536.324219 939.796875 544.554688 931 549.175781 C 916.769531 556.652344 904 552.582031 894.390625 541.105469 C 891.355469 537.488281 881.808594 532 887.320313 525.660156 C 890 522.535156 894.773438 529.300781 896.285156 531 C 902.71875 538.230469 911.761719 546.433594 922 541.3125 C 927.527344 538.546875 932 533.253906 932.8125 527 C 933 524.699219 930.847656 516.789063 933.5625 515.753906 M 605 521 C 609.585938 521 609.632813 528.132813 605 528.132813 C 600.597656 528.132813 600.390625 521 605 521 M 952 523 C 952 545.796875 949 574.496094 922 579.382813 C 916.222656 580.425781 910.757813 579.605469 905 579 C 899.453125 578.316406 879.292969 576.769531 876.605469 571.484375 C 873.347656 565.078125 878.980469 550.308594 879 543 L 880 543 C 884.585938 573.601563 924.171875 568 939.785156 550 C 946.671875 542.070313 945.710938 530.792969 952 523 M 554 527 C 559.316406 539.769531 565.390625 553 577 561.210938 C 594.8125 574 618 562.503906 626 544 L 627 544 C 628.546875 551.492188 630.945313 560.664063 627.425781 568 C 623.6875 575.800781 614.945313 579 607 580.246094 C 586.230469 583.707031 569 574.777344 559.757813 556 C 556.421875 549.324219 548.980469 533.726563 554 527 M 348 551 C 352.484375 566.25 360.871094 578.726563 363.410156 595 C 364.238281 600.316406 362.480469 609.617188 367.402344 613.339844 C 373.546875 618 374.863281 602.132813 375 599 L 376 599 C 378.519531 605.5 381.675781 612 381.960938 619 C 382 623 379 629.113281 380.648438 632.566406 C 382.707031 637.351563 391.492188 633.539063 391.253906 641.015625 C 391 649 384 655.628906 382 663 C 386.199219 661.789063 389.972656 659.675781 394 658 C 391 667 389 677.597656 389 687 C 404 679.152344 405.546875 656 403.421875 641 C 398.332031 605.453125 383.621094 566 348 551 M 225 555 C 224 560 220.90625 575 217 578 C 213.636719 580.648438 198.519531 575.378906 198 571 C 197 561.488281 218.628906 556.652344 225 555 M 1290 555 C 1295.285156 556.5 1310 559.230469 1311 566.050781 C 1311.773438 571.125 1301.707031 574 1298.214844 572 C 1293.21875 569.164063 1291.1875 560.136719 1290 555 M 190 658 L 189 659 L 190 658 M 1122 673 C 1125.425781 683.726563 1137.324219 689.285156 1146 695.425781 C 1162 706.765625 1178.316406 719 1188.546875 736 C 1193.726563 744.691406 1198 754.273438 1200.859375 764 C 1202.570313 770 1203.496094 778.390625 1209 782 C 1209 755.554688 1205.675781 728 1185.714844 708.429688 C 1175.808594 698.753906 1163 692.121094 1151 685.746094 C 1141.710938 681 1132.570313 674.5625 1122 673 M 292 788 C 302.527344 764.363281 307.554688 739.71875 327 721.039063 C 337 711.289063 349.320313 703.738281 361 696 C 367.960938 691.382813 376.199219 686.238281 379 678 C 368.707031 680.382813 359.382813 686.0625 350 690.753906 C 320.511719 705.496094 297 723.367188 292 758 C 290.941406 766.28125 287.550781 780.574219 292 788 M 793 679 C 782.613281 681.402344 772.921875 687.085938 769.929688 698 C 768.820313 702.042969 767.863281 709.628906 773 711.339844 C 777.21875 712.683594 779.648438 708 781.21875 705 C 785.621094 696.796875 790.417969 688 793 679 M 714 682 C 715.992188 686.78125 718.4375 691.367188 720.753906 696 C 722.953125 700.398438 726.878906 713.402344 732.972656 713.246094 C 740 713.070313 738 701 736.515625 697 C 732.859375 688.050781 723.371094 682.429688 714 682 M 882 719 C 874.328125 706.332031 854.414063 704.203125 841 706.617188 C 836.933594 707.347656 826.636719 709.15625 826.636719 714.8125 C 826.636719 719.421875 836 719 839 719 C 853.332031 719.066406 867.667969 719 882 719 M 655 710.429688 C 647.441406 711.511719 639.789063 713.175781 633 716.785156 C 631.214844 717.734375 625.566406 720.484375 627.832031 723.292969 C 630 726.039063 636 724.085938 639 724.015625 C 649.183594 723.765625 659.917969 725.136719 670 723.5625 C 693.207031 720 666.429688 708.789063 655 710.429688 M 752 721 C 743.171875 723.382813 743.167969 750.164063 754.957031 746.800781 C 765.183594 744 760 718.6875 752 721 M 838 734 C 843.945313 737 850.640625 734.492188 857 735.613281 C 870.839844 738.058594 884.355469 743.085938 896 751.027344 C 908 759.261719 917 770.75 920.84375 785 C 922.804688 792.472656 920 802.496094 925.433594 808.816406 C 930.511719 815 940 816.195313 947 819.3125 C 960.628906 825.457031 973.847656 832.703125 986 841.429688 C 994.84375 847.777344 1003.398438 855.164063 1009.839844 864 C 1013.5625 869.101563 1015.589844 877.296875 1020.527344 881.257813 C 1023.386719 883.550781 1034.46875 884.714844 1036.957031 881.398438 C 1040 877.328125 1034 867.722656 1032.242188 864 C 1023.65625 847 1009.664063 833.730469 994 823.027344 C 984.339844 816.429688 973.660156 810.257813 963 805.4375 C 957 802.734375 947.828125 800.8125 943.429688 795.785156 C 939.773438 791.605469 940.558594 786.039063 939.480469 781 C 937.855469 773.382813 934 765.492188 929.898438 759 C 910.988281 730.078125 869 720.214844 838 734 M 670 740 C 665 732.625 650 732.011719 642 732 C 615.195313 732 588.65625 744 574.871094 768 C 569.34375 777.664063 569.46875 795.699219 560.957031 802.441406 C 555 807.15625 546.714844 808.453125 540 811.808594 C 524.589844 819.507813 508.894531 828.660156 496 840.175781 C 485.191406 849.824219 477.335938 861.609375 472 875 C 470.589844 878.542969 466.597656 886.644531 470.601563 889.820313 C 474.414063 893 483.355469 891 486.46875 887.695313 C 491 883.027344 492 875.449219 495.550781 870 C 501.855469 860.210938 511.660156 852 521 845.152344 C 532.652344 836.691406 545.785156 829.808594 559 824.148438 C 565.699219 821.28125 575.644531 819.488281 580.566406 813.785156 C 587.683594 805.542969 584.894531 788.203125 590.324219 778 C 605.695313 749.109375 639.765625 740 670 740 M 801 744 L 801 745 C 784.199219 745.769531 769.574219 757.761719 753 759 C 736 760.0625 720.320313 749.402344 704 747 L 704 746 C 712.828125 747.117188 722 748 731 748 C 732.957031 748.007813 738.636719 749 739.539063 746.398438 C 741 742.140625 731.722656 738.53125 729 737.464844 C 716.496094 732.570313 703.257813 735.429688 692 742 L 692 743 C 693.800781 743.5625 695 743.824219 697 744 L 697 745 C 687.703125 746.449219 681.511719 754.117188 675.753906 761 C 661.585938 778 654 796.785156 655 819 C 656.675781 856.328125 687.449219 883.824219 719 898.308594 C 728.96875 903 738.746094 908.078125 750 908 C 761.652344 908 773.746094 901.285156 784 896.242188 C 815.375 880.820313 844.285156 857.078125 847.828125 820 C 849.996094 797.34375 842.296875 776.472656 828.195313 759 C 822.363281 751.773438 816.660156 744.453125 807 743 L 807 742 C 809.527344 742 811.582031 741.722656 814 741 C 804.710938 732.140625 789.648438 731.277344 778 735.4375 C 775 736.476563 763.515625 740.617188 766.175781 745.398438 C 767.597656 748 772.746094 747 775 746.574219 C 783.515625 745.460938 792.414063 744.175781 801 744 M 806 743 L 806 744 L 801 744 C 802.769531 743.222656 804 743.089844 806 743 M 807 781 C 796.820313 781 781.65625 782.164063 773 776 C 783.867188 769.820313 799 770.324219 807 781 M 734 777 C 724.53125 782.785156 709.738281 782 699 782 C 706.949219 771.304688 723 771 734 777 M 694 803 C 706.335938 793.144531 726 799.417969 738.90625 789.363281 C 744 785.300781 747 773.742188 754.960938 774.335938 C 762.71875 775 766 789.171875 775 791.832031 C 783.820313 794.480469 792.988281 796 802 797.800781 C 803.542969 798.113281 809.792969 798.667969 809.792969 801 C 809.792969 803 805.296875 803.542969 804 804 C 797.230469 805.566406 789.988281 806.8125 783 807 C 762.320313 807.492188 741.613281 808.5 721 807.089844 C 711.414063 806.433594 702.859375 807.648438 694 803 M 661 813 C 661 830.8125 683.441406 858.296875 700.785156 839 C 703.175781 836.289063 705.363281 832.691406 704.21875 829 C 703.195313 825.699219 696.832031 820.316406 701.332031 817.179688 C 711.28125 810.25 731.558594 822.539063 730.773438 834 C 730 844.402344 718.75 849.550781 710 852 C 689.390625 857.246094 666 849.625 661.210938 827 C 660.230469 822.457031 659 817.390625 661 813 M 843 814 C 842.941406 835 828.425781 853.703125 806 851.824219 C 793.851563 850.808594 769.234375 845.289063 774.652344 828 C 777.542969 818.773438 788.25 815.105469 797 815.003906 C 799 815 803.585938 814.265625 805.167969 816.027344 C 807.421875 818.535156 798.445313 828.078125 801.574219 834 C 810 850 830.589844 840.632813 838 829 C 841 824.304688 840.8125 819 843 814 M 991 1007 C 999.59375 1000.65625 1003.363281 989.1875 1005 979 C 1010.339844 947.789063 991.402344 919.21875 972.800781 896 C 967 889 960.773438 881.707031 953 876.699219 C 942.554688 870 929.886719 868.078125 918 865.347656 C 916.285156 865 907.546875 861.675781 906.921875 864.574219 C 905.992188 869 917.328125 871.511719 920 872.785156 C 934.605469 879.753906 947.746094 890.484375 958.984375 902 C 977.269531 920.734375 991 945.492188 992.910156 972 C 993.726563 984 991.242188 995.238281 991 1007 M 514 1013 C 516.613281 1001 510.925781 986 512.171875 973 C 515.175781 942 536.703125 914.71875 560 895.617188 C 569 888.171875 579.324219 881.253906 590 876.308594 C 591.722656 875.511719 600.226563 873 598.652344 869.789063 C 597 866.726563 588.191406 870.628906 586 871.277344 C 573 875.125 559 877.019531 548 885.527344 C 539.335938 892.203125 532.871094 901.195313 526.578125 910 C 506 938.632813 484.414063 982.109375 514 1013 M 860 891 C 861.566406 910.171875 876.714844 925 881.960938 943 C 890 970.746094 879.507813 996.351563 868 1021 L 867 1021 C 871.886719 995.074219 863.269531 968 860 942 L 858 942 C 857.304688 958 848.449219 974.125 838.269531 986 C 836.835938 987.675781 827.867188 999 825.214844 996.082031 C 822.714844 993.46875 830.574219 981.242188 831.320313 978 C 834.996094 962 830.574219 938.613281 813 933 C 813.761719 942.335938 818.371094 956.261719 806.984375 961.667969 C 792 968.726563 777 940.484375 763 939.105469 C 743.410156 937.1875 734 958.667969 716 960 C 704.644531 960.679688 699.59375 950.601563 704.378906 941 C 710.425781 929 721.734375 921.644531 733 915 L 733 914 C 705.796875 914.226563 676.324219 937.652344 675 966 C 674.417969 979.65625 680.753906 989.53125 685 1002 C 661.582031 992.183594 655.355469 968.679688 648 947 L 647 947 C 645.859375 973.597656 636 998.117188 641 1025 L 640 1025 C 628.203125 999.761719 616.628906 973.546875 625.746094 945 C 631 928.371094 645.460938 913.628906 647 896 C 633.167969 901.796875 623.390625 915 616.757813 928 C 595.859375 969.183594 608 1016.828125 631 1054 C 614.792969 1037.792969 603.222656 1023.441406 595 1002 L 594 1002 C 594 1017.378906 594.621094 1033.136719 599 1048 C 602.4375 1059.449219 609.425781 1069.789063 609.960938 1082 C 610.304688 1090 609.183594 1098.375 607.269531 1106 C 606.5625 1108.820313 604.835938 1113.65625 607 1116.242188 C 610.585938 1120.441406 619.335938 1113.171875 621.996094 1110.816406 C 632.375 1101.617188 638.886719 1086.816406 639 1073 C 640.960938 1074.707031 642.914063 1076.410156 645 1078 C 664.375 1092.339844 652.511719 1058.71875 650 1051 C 670.496094 1065.476563 671 1095.0625 691 1110.472656 C 700.996094 1118.171875 712.949219 1119.265625 725 1120.089844 C 741.453125 1121.21875 757.558594 1120.757813 774 1120.039063 C 789.769531 1119.347656 806.449219 1119 818.996094 1107.816406 C 830.460938 1097.65625 833.703125 1083.109375 840.371094 1070 C 844.699219 1061.496094 851.328125 1054.671875 858 1048 C 856.660156 1053.777344 844.390625 1088 861.996094 1074.609375 C 864.398438 1072.792969 866.53125 1070.730469 869 1069 C 869.59375 1082.609375 876 1097.554688 886 1107 C 888.65625 1109.398438 897.285156 1117 900.972656 1112.394531 C 903 1109.804688 901.554688 1105 901 1102 C 899.714844 1093.65625 898.652344 1085.476563 899 1077 C 899.5 1067 905 1057.6875 907.621094 1048 C 911.917969 1031.519531 913.953125 1014.007813 914 997 C 908.738281 1001 907.242188 1011.175781 904.214844 1017 C 898 1029 889.6875 1040 879 1048 C 899 1011.730469 910.242188 967 892.847656 927 C 886.570313 912.625 875 896.746094 860 891 M 1053 956 C 1054.453125 958.085938 1056 960 1057.621094 962.003906 C 1059.199219 964.152344 1061.480469 974 1055.507813 970.824219 C 1051.605469 969 1051.617188 959.328125 1053 956 M 456 962 C 454.425781 967.585938 452.773438 973.246094 452 979 C 445 973.179688 449.9375 966.363281 456 962 M 819 975 C 818.285156 983.121094 812.300781 989.832031 812 998 C 812 1004.03125 817.246094 1008.117188 817.773438 1014 C 818.964844 1027.316406 812 1048.605469 805.535156 1060 C 785.507813 1094.511719 729.847656 1094.035156 706.761719 1063 C 698.171875 1051.453125 688.378906 1032 690.191406 1017 C 690.902344 1011.167969 696.464844 1007 696.320313 1001 C 696 993 690.21875 984.667969 688 977 C 703 979.039063 720.632813 985 734 992.3125 C 740 995.679688 746.597656 1004.574219 754 1004.574219 C 761.308594 1004.570313 767.941406 995.550781 774 992.183594 C 788 984.339844 803.753906 980 819 975 M 841 1000 C 839.792969 1058.449219 790 1131 725 1102.136719 C 715.882813 1098.105469 707.992188 1092.039063 701 1085 C 691.449219 1075.375 684.539063 1064.199219 678.78125 1052 C 671.804688 1037.222656 667.699219 1020.324219 667 1004 C 679.628906 1010.011719 678.796875 1021.234375 682.671875 1033 C 687.328125 1047.148438 694.457031 1061.148438 703.503906 1073 C 708.550781 1079.613281 714 1085.277344 721 1090 C 757.449219 1115 797.5625 1088 815.214844 1054 C 823.671875 1037.71875 824.832031 1010.199219 841 1000 M 1063 1097 C 1044 1083.539063 1036.5625 1053.0625 1040.464844 1031 C 1041.828125 1023.273438 1052.617188 996.488281 1064.5625 1006.742188 C 1071.664063 1013 1057.445313 1026.292969 1055 1032 C 1046.195313 1053.597656 1058.890625 1075.824219 1063 1097 M 444 1102 C 450.308594 1082.609375 460.285156 1059.492188 452.910156 1039 C 450.839844 1033.25 436.222656 1017.324219 442.527344 1012 C 453.742188 1002.148438 464.75 1026.453125 466 1034 C 470 1057.019531 464.171875 1087.78125 444 1102 M 338 1031 L 337 1032 L 338 1031 M 354 1035 L 353 1036 L 354 1035 M 859 1047 L 858 1048 L 859 1047 M 879 1048 C 878.453125 1049.636719 878.636719 1049.453125 877 1050 C 877.546875 1048.363281 877.363281 1048.546875 879 1048 M 650 1050 L 649 1051 L 650 1050 M 633 1056 C 631.363281 1055.453125 631.546875 1055.636719 631 1054 C 632.636719 1054.546875 632.453125 1054.363281 633 1056 M 372 1147 L 371 1148 L 372 1147 M 664 1155 L 665 1156 L 664 1155 M 520 1279 L 519 1280 L 520 1279 M 765 1304 L 764 1305 L 765 1304 M 730 1311 L 729 1312 L 730 1311 M 835 1314 L 834 1315 L 835 1314 "/>
</g>
</svg>
