<?xml version="1.0" encoding="UTF-8"?>
<svg xmlns="http://www.w3.org/2000/svg" xmlns:xlink="http://www.w3.org/1999/xlink" width="1500pt" height="1500pt" viewBox="0 0 1500 1500" version="1.1">
<g id="surface1">
<path style=" stroke:none;fill-rule:nonzero;fill:rgb(0%,0%,0%);fill-opacity:1;" d="M 399 594 L 400 594 C 400 613 401 631.425781 404.808594 650 C 407.269531 662.089844 413.519531 672.335938 412.960938 685 C 412.316406 699.636719 404.855469 713.59375 402.433594 728 C 397.269531 758.722656 397.699219 790.550781 404.425781 821 C 411.898438 855 426.820313 887.082031 439.988281 919 C 459.707031 966.789063 478.652344 1014.457031 490 1065 C 497.296875 1096.691406 473 1125.597656 469.289063 1156 C 466.609375 1177.433594 485.992188 1196.585938 496.65625 1213 C 501.710938 1220.78125 505.394531 1230.117188 512.289063 1236.53125 C 527.355469 1250.542969 562.246094 1251.144531 579 1240.769531 C 585.730469 1236.601563 595.257813 1223 603 1222.492188 C 608.851563 1222.171875 615.773438 1228 621 1230.128906 C 631.769531 1234.734375 643.796875 1236.421875 655 1232.453125 C 664 1229.214844 672.355469 1222.75 678 1215 C 680.382813 1212 683.203125 1204.527344 688 1205.160156 C 696 1206.214844 703.195313 1213.5625 712 1214.710938 C 725.867188 1216.515625 739.28125 1213.027344 753 1212.089844 C 762.390625 1211.445313 771.65625 1213.765625 781 1214 C 787.457031 1214.070313 794.988281 1213 801 1210.535156 C 804.488281 1209.171875 809 1205.453125 812.960938 1206.132813 C 818.609375 1207.113281 821.667969 1216.140625 825.183594 1220 C 831.859375 1227.210938 842.277344 1231.230469 852 1232 C 862.6875 1232.660156 873 1230.765625 883 1227 C 887.421875 1225.238281 893 1220.050781 897.960938 1220.53125 C 905.210938 1221.25 915.316406 1236.109375 922 1240.289063 C 939.734375 1251.382813 968.515625 1249.152344 986 1238.648438 C 996 1232.640625 1000 1220.417969 1006 1211 C 1016.261719 1195 1031.367188 1180.273438 1031.871094 1160 C 1032.726563 1125.496094 1004.832031 1097.390625 1012 1062 C 1028.953125 978.375 1077.867188 905.4375 1097.347656 823 C 1104.476563 792.820313 1105 760.488281 1099.574219 730 C 1096.796875 714.628906 1088.765625 699.769531 1088.457031 684 C 1088.242188 673.042969 1094.691406 662.515625 1096.984375 652 C 1101 633.402344 1102 614 1102 595 C 1115.484375 618.191406 1108.960938 649.371094 1109 675 C 1109 704.5625 1116 736.382813 1126.425781 764 C 1132.925781 781.382813 1140.839844 806.414063 1161 812.210938 C 1176.503906 816.664063 1189 805.613281 1192.496094 791 C 1198.53125 765.625 1185.429688 735.644531 1197.785156 712 C 1210.335938 688 1235.683594 673.589844 1252.535156 653 C 1285 613.1875 1293.644531 560.652344 1304.652344 512 C 1307.785156 498.148438 1316 479.027344 1314.824219 465 C 1313.792969 454.226563 1306.917969 444.390625 1300.625 436 C 1267.5625 392 1221.480469 373.550781 1178 343 C 1163 332.519531 1153.71875 311.5625 1137 304.761719 C 1124.308594 299.601563 1109.363281 301.828125 1096 301 C 1081.871094 300 1067.453125 296.253906 1054 292 C 1040.167969 287.570313 1026.25 281.363281 1014 273.5625 C 1006 268.554688 998.675781 260.394531 989 259.183594 C 977 257.699219 965.941406 262.3125 956 268.46875 C 950.566406 272 946 278.175781 939 277.339844 C 928 276.035156 917.910156 270.148438 907 268.25 C 863.4375 260.664063 819 255 775 253.039063 C 733.230469 251.210938 691.378906 256.75 650 261.714844 C 633 263.75 615.917969 263.800781 599 266.425781 C 586.589844 268.351563 575.320313 275.027344 563 276.660156 C 555.554688 277.644531 549.871094 270.730469 544 267.207031 C 534.65625 261.601563 524.921875 258.503906 514 259.039063 C 503.738281 259.542969 495.414063 267.714844 487 272.796875 C 474.421875 280.390625 460.78125 286 447 291 C 433.273438 296 417.601563 300 403 301 C 390.78125 301.757813 376.640625 300.1875 365 304.386719 C 347.394531 310.738281 336.539063 333.25 321 344 C 284.242188 369.34375 244.375 384.714844 213.949219 419 C 203.460938 430.820313 190.921875 445.054688 187.519531 461 C 184.191406 476.589844 193.867188 498.609375 197.351563 514 C 208 561.625 216.839844 610.179688 247 650 C 263.925781 672.074219 290.816406 685.644531 302 712 C 313 737.550781 301.742188 766 308.757813 792 C 312.683594 806.644531 326.714844 817.378906 342 811.53125 C 362.46875 803.699219 370 778.730469 376.945313 760 C 386.714844 733.351563 391.722656 704.289063 392.960938 676 C 393.734375 658.34375 389.496094 640.558594 391.171875 623 C 392.175781 612.4375 396.257813 604.023438 399 594 M 928 288 C 920.738281 295 909.910156 297.015625 903 304 C 916.710938 304 932 302 943.984375 310.105469 C 957.445313 319.277344 960.785156 339.414063 968.179688 353 C 979.988281 374.707031 997.632813 392.378906 1012.371094 412 C 1041.730469 451.078125 1065 495.648438 1069.828125 545 C 1071.179688 559.148438 1067.355469 572.148438 1067 586 C 1066.507813 606.621094 1069.601563 627.453125 1070.910156 648 C 1071.582031 658.578125 1069 669.292969 1070.171875 680 C 1071.726563 696.300781 1078.351563 711.101563 1081.550781 727 C 1087.617188 757.144531 1088 790.039063 1080.625 820 C 1069.238281 865.761719 1046.261719 909.335938 1028.800781 953 C 1020.984375 972.539063 1011.824219 994.03125 1009 1015 L 1008 1015 C 1010.550781 982.679688 1013.914063 950.148438 1018 918 L 1016 918 C 1014.347656 956.414063 1001 994.566406 998 1033 L 997 1033 C 993 982.445313 970.480469 936 958.882813 887 C 953.574219 864.628906 954.46875 841.730469 952.910156 819 C 951.894531 804.195313 947.1875 789.6875 939.550781 777 C 938.261719 775 931.21875 766.671875 934 764.136719 C 935.929688 762.488281 939.632813 765.648438 941 766.683594 C 947.21875 771.386719 952.5 777.5 958 783 C 954 773.265625 949.460938 763.691406 949 753 C 954.9375 755.769531 958.765625 761.152344 963 766 C 962.191406 762.082031 958.359375 752.039063 963.316406 749.601563 C 973.351563 744.671875 987 756.582031 999 753.085938 C 1029 744.203125 1029.839844 714 1039.878906 690.015625 C 1041.566406 686 1046.746094 682.707031 1049 688.113281 C 1053 697.132813 1047.351563 711.105469 1045 720 C 1037.273438 751.410156 1022.257813 782 998.828125 804.714844 C 990.679688 812.65625 973.289063 819.765625 968.652344 830 C 964.25 839.722656 969.578125 851.792969 972.945313 861 C 981.203125 883.574219 988.6875 906.132813 996 929 L 997 929 C 993.96875 906.484375 983.964844 886.097656 984 863 C 984 844.128906 996.546875 837.707031 1013 845 C 1008.238281 824.164063 1025.554688 799.113281 1033.574219 780 C 1046.84375 748.382813 1062.4375 714.808594 1063.960938 680 C 1064.84375 659.820313 1060 639.03125 1053.667969 620 C 1046 597.410156 1035 574.199219 1011 566 C 1028 583.101563 1041.910156 601.386719 1048.570313 625 C 1051.277344 634.597656 1051.203125 644.320313 1053 654 L 1052 654 C 1041.878906 623 1012 605.085938 981 600.273438 C 963.289063 597.539063 936.570313 599.171875 924 584 L 973 585 L 973 584 C 949.824219 578.6875 927.367188 570.671875 904 566 C 891.195313 563.4375 879.179688 562.03125 870.636719 574 C 859.347656 589.820313 863.394531 613.78125 860 632 C 863 628.292969 866.867188 619.816406 872 618.832031 C 878.253906 617.636719 884.378906 628.722656 887 633 C 896.476563 647.496094 901.882813 674.753906 888.671875 688.816406 C 884.207031 693.566406 877.308594 696.242188 871 694 C 863.285156 691 859 683.570313 852.996094 678.4375 C 841.90625 669 827.46875 663.121094 818.789063 651 C 805 631.820313 807.992188 605.039063 808.960938 583 C 809.699219 566.128906 810.511719 549.417969 826 539.105469 C 852.378906 521.539063 887.765625 526.8125 916 536 C 889.191406 510.421875 824.996094 503 804.347656 540 C 798 551.3125 798.503906 563.5625 797.960938 576 C 797.296875 591.144531 796.695313 606 798.171875 621 C 799.53125 635.035156 802.460938 650.296875 810.789063 662 C 828.625 687.066406 861.691406 695.4375 882.996094 717 C 910.597656 745 925.195313 783 935.710938 820 C 939.996094 835.097656 945.324219 851.230469 946 867 L 945 867 C 940.742188 848.601563 929.273438 831.8125 919.425781 816 C 899 783.386719 876.65625 746.191406 847 721.148438 C 838.96875 714.363281 822.34375 718.453125 812 713 C 787 699.421875 787.628906 671.636719 782 648 L 781 648 C 779.261719 670.050781 778.609375 693.5 795 711 C 806.675781 723.269531 823.453125 728.117188 838 735.78125 C 849.28125 741.722656 858.199219 750 866.960938 759 C 902.414063 796.082031 940.359375 847.539063 940.996094 901 C 941 912.765625 944.855469 947.558594 930 951.566406 C 923.371094 953.355469 917.496094 948.683594 912 945.78125 C 899.167969 939.007813 886.410156 931.585938 873 926 C 877.566406 930.613281 884.4375 933 890 936.199219 C 902 943.394531 913.730469 951.292969 926 958.136719 C 934.273438 962.753906 944 966.476563 950.894531 973.183594 C 959 981.226563 957.929688 996.476563 956.421875 1007 C 955.839844 1011.039063 955.714844 1016.449219 951.773438 1018.820313 C 942.949219 1024.140625 921.242188 1020 911 1020 C 918.957031 1028.03125 936.417969 1031.585938 947 1035.574219 C 951.347656 1037.214844 957.292969 1038.171875 960 1042.214844 C 966.464844 1051.179688 957.992188 1065.171875 949 1068.210938 C 933.925781 1073.308594 916.621094 1066.371094 903 1060 C 904 1067.523438 908.238281 1081.609375 918 1080.742188 C 923 1080.292969 927.75 1075.808594 932.960938 1076.503906 C 937.300781 1077.078125 939.304688 1081.734375 944 1082.078125 C 949 1082.460938 957.464844 1080.144531 961.398438 1084.515625 C 965.578125 1089.160156 960.59375 1098.617188 958 1103 C 948.351563 1120.34375 930 1122 912 1122 C 916.449219 1126.546875 925.871094 1126.429688 932 1128 C 940.453125 1130 949.480469 1132.59375 958 1129.441406 C 983 1120.1875 990.996094 1076.160156 991 1053 L 992 1053 C 992 1068.703125 995.292969 1085.402344 992.191406 1101 C 989.863281 1112.707031 982 1122.214844 980 1134 C 977 1151 978.6875 1168.480469 973.25 1185 C 966.667969 1205 948 1215.578125 928 1207.125 C 912.34375 1200.511719 902.730469 1185.597656 893.667969 1172 C 875.824219 1145.234375 862.40625 1115.742188 841.5625 1091 C 828.660156 1075.6875 813.691406 1061.03125 796 1051.3125 C 784 1044.765625 765 1041 760.929688 1026 C 758.539063 1017.335938 757.847656 990.699219 770 988.539063 C 774.238281 987.785156 778.527344 991.214844 782 993.140625 C 789.457031 997.273438 797.65625 999.730469 805 1004 C 798 996 785 995 777.183594 986.824219 C 757.414063 966.660156 785.363281 953 804 960.476563 C 816.652344 965.640625 827.507813 977.535156 837 987 C 849.558594 999.515625 862.585938 1011.644531 877 1022 C 867.257813 1008.167969 853 995 840.996094 983.015625 C 833.6875 975.800781 824.964844 969.050781 821.386719 959 C 813.539063 937 838.199219 912 846.6875 893 C 850.507813 884.523438 851.460938 873.628906 859 867.394531 C 865.597656 862.003906 875.886719 861.128906 884 862.300781 C 912.742188 866.445313 923.722656 910.222656 891 917 L 891 918 C 911.898438 917.089844 923.238281 894.566406 915.523438 876 C 911.867188 867.214844 902.535156 864.007813 898.570313 856 C 894.457031 847.691406 895.445313 837.53125 891.652344 829 C 883.914063 811.597656 865.925781 805.382813 849 801 C 853 805 859.820313 806.015625 865 808.484375 C 874.863281 813.195313 883.972656 820.253906 889.203125 830 C 891.273438 834 895.238281 841.363281 892.167969 845.582031 C 888.734375 850.296875 867 856 862.699219 851.140625 C 857.929688 846 871.585938 835.820313 865.566406 828.089844 C 861 822.367188 853.496094 818.574219 848 814 C 808.414063 780 756.75 768 706 782.425781 C 685 788.417969 667.28125 801.199219 651 815.128906 C 646.308594 819.144531 640.214844 822.246094 636.28125 827.039063 C 630.265625 834.371094 644.316406 849 636.851563 852.257813 C 622.691406 858.703125 604.191406 847.335938 611.324219 832 C 618.78125 816 637.394531 806 654 802 L 654 801 C 637 803.285156 616.992188 812.558594 609.878906 829 C 606 838 606.519531 848.277344 602 857 C 597.941406 865 588.988281 868.65625 585.480469 877 C 578.179688 894.355469 589.242188 917.09375 609 918 L 609 917 C 589.527344 912.480469 584.589844 890.460938 595.789063 875.003906 C 602.75 865.394531 613.554688 861.734375 625 862.015625 C 649.332031 862.609375 648.582031 884.070313 657.257813 901 C 665 916.164063 681.898438 932.25 682.890625 950 C 683.527344 961.351563 674.644531 969.136719 667 976.074219 C 651.597656 990.050781 637.695313 1005.304688 623 1020 C 643.515625 1009.785156 659.609375 989.1875 677 974.589844 C 684 968.589844 691.761719 961.429688 701 959 C 714.207031 955.351563 738 962.238281 729 980 C 722.945313 992.433594 708.5625 998.433594 696 1002 L 696 1003 C 707 1001.507813 732.371094 982.289063 738.890625 997.003906 C 743.761719 1008 744.421875 1027 734.894531 1035.671875 C 726 1043.726563 713 1046.175781 703 1052.207031 C 690 1060 677.28125 1070.804688 667.285156 1082.003906 C 650.5 1100.808594 636.289063 1120.445313 623.203125 1142 C 611.578125 1161.148438 601.3125 1182.539063 585.828125 1199 C 573.632813 1212 546.71875 1217.566406 534.800781 1201 C 523.53125 1185.308594 528.335938 1163.550781 523 1146 C 521.226563 1140 516.296875 1135.539063 513.324219 1130 C 509.546875 1123 507.789063 1115 506.84375 1107 C 503.804688 1081.671875 511.433594 1059.28125 517 1035 L 518 1035 C 514.875 1059.589844 510.273438 1083.691406 521.757813 1107 C 526 1115.664063 532.167969 1125.238281 542 1128.199219 C 556.335938 1132.519531 578 1123.175781 593 1122 L 593 1120 C 575.992188 1120 553.714844 1121.105469 543 1105 C 539.96875 1100.234375 533.695313 1088.625 539.433594 1083.742188 C 543.734375 1080.082031 552.765625 1082.285156 558 1082 C 562.929688 1081.644531 564.804688 1077.074219 569 1076.503906 C 574.21875 1075.820313 578.9375 1080.441406 584 1080.730469 C 594.292969 1081.320313 597.441406 1066.542969 599 1059 C 586.171875 1066.460938 567.710938 1072 553 1067.480469 C 543.472656 1064.566406 534.710938 1050.667969 541 1041.214844 C 544 1036.792969 550.363281 1036.503906 555 1035 C 565.808594 1031.230469 583.460938 1028.527344 592 1021 L 561 1021 C 557.40625 1021 551.449219 1022.09375 548.320313 1020 C 544.890625 1017.648438 546.953125 1011.445313 546.996094 1008 C 547 997.269531 542.921875 982.027344 551.328125 973.617188 C 557 968 565 964.730469 572 960.601563 C 584.394531 953.167969 596.519531 945.300781 609 938.011719 C 614.59375 934.746094 621.417969 932.632813 626 928 C 612.59375 933.574219 599.890625 940.605469 587 947.257813 C 582 949.789063 575.953125 955.070313 570 953.550781 C 560 951.011719 563.574219 935.296875 562.714844 928 C 559.316406 899.207031 563.292969 869 576.785156 843 C 587.898438 821.59375 603.199219 802.75 618.199219 784 C 631.726563 767.089844 645.605469 749.390625 663 736.238281 C 676.433594 726.082031 694.804688 728 706.984375 716 C 723 700.113281 721 675.59375 725 655 C 713.605469 669 716.484375 690.488281 701.984375 704 C 688.566406 716.304688 665.359375 710.183594 650 721.609375 C 634 733.402344 626.53125 752 615.996094 768 C 596.378906 797.808594 564.441406 828.164063 559 865 L 558 865 C 558 819 572.335938 768.664063 605 735.039063 C 615.269531 724.585938 627.851563 714.667969 641 708.257813 C 650.9375 703.414063 662.167969 701.429688 671 694.480469 C 694 676.363281 701.207031 643.578125 703.828125 616 C 705.949219 593.734375 708.382813 558.808594 696.523438 539 C 677.816406 507.765625 634.527344 512 606 524.148438 C 599 527.085938 590.535156 530 585 535 C 612.480469 532.828125 639 521.746094 666 534 C 695.871094 547.292969 693.238281 579.636719 692 607 C 691.339844 623 691 640.542969 681 654 C 674.929688 662.3125 665.199219 666.820313 657 672.746094 C 644.433594 681.828125 626.472656 706.332031 611.53125 687 C 600.746094 673.035156 604.835938 651.4375 612.257813 637 C 614.75 632.15625 622.253906 617.746094 629 619 C 634.511719 619.808594 638 628.503906 640 633 L 641 633 C 640.570313 623 638.402344 613.074219 637.960938 603 C 637.699219 597.015625 636.859375 590.796875 635.371094 585 C 630 564.234375 614.351563 562.308594 596 566.210938 C 574 571 550.375 580.035156 528 581 L 528 583 C 542.476563 583 564 579 577.851563 583.574219 C 585.820313 586.296875 573.917969 598.753906 570 600.257813 C 562 603.296875 549.265625 600 541 599.171875 C 528 598 513.40625 599.652344 501 603.15625 C 492 605.683594 483.820313 611 477 617.085938 C 472.921875 620.816406 467.179688 627.722656 461 627.558594 C 452.507813 627.332031 456.5625 611.699219 457.910156 607 C 462.582031 590.699219 474.503906 574.332031 490 567 L 490 566 C 467.855469 571.261719 455.375 595.472656 447.8125 615 C 425.363281 673 447.761719 731.4375 469.203125 786 C 473.824219 797.757813 478.390625 809.480469 483.585938 821 C 487.484375 829.640625 491.820313 835.191406 490 845 C 504.964844 838.375 517.691406 843.246094 518.910156 861 C 519.851563 874.777344 514.351563 888.753906 511.425781 902 C 509.519531 910.632813 509 920.027344 505 928 C 513.75 920.480469 516 902.695313 519.667969 892 C 524.308594 878.078125 529 864.171875 532.847656 850 C 534.390625 844.304688 536.683594 836.652344 533.820313 831.003906 C 528.878906 821.253906 511.949219 815 504 807 C 479.859375 783.140625 463 752.179688 456 719 C 454 710.191406 448.695313 696 452.742188 687.152344 C 456 680 461.761719 689.40625 462.546875 693 C 467.859375 717.296875 478.980469 751.597656 509 754.660156 C 518.359375 755.613281 527.679688 746.785156 536.941406 749.4375 C 543.628906 751.355469 539.875 759.765625 538 764 C 542.792969 760.136719 545.949219 755.054688 552 753 C 551.914063 763.480469 547.703125 772.808594 543 782 C 547.882813 777.117188 552.71875 772.277344 557.195313 767.019531 C 558.4375 765.558594 561 761.742188 563.433594 763.175781 C 567 765.390625 562.621094 775.128906 561.667969 778 C 556.6875 793 552.851563 808.269531 551 824 C 547.65625 856.769531 544.835938 887.269531 534.972656 919 C 523.589844 955.628906 505.320313 995.039063 505 1034 L 504 1034 C 503.996094 1006.445313 494.285156 979 489 952 C 487.28125 943.253906 488.394531 928.011719 483 921 C 485.171875 932.707031 484.730469 945.113281 486 957 C 488.511719 976.664063 492.441406 996.253906 494 1016 L 493 1016 C 490.230469 997.175781 480.675781 978.710938 474 961 C 456.730469 914.695313 434.335938 869 421.734375 821 C 414.265625 792.632813 414.242188 759.726563 419.425781 731 C 422.226563 715.460938 427.566406 700.523438 430.386719 685 C 434.328125 663.289063 435.40625 641 436.910156 619 C 438.433594 596.785156 431.992188 577.75 431 556 C 429.921875 530.550781 436.617188 505.167969 446.863281 482 C 465.628906 439.554688 498.347656 409.585938 523.972656 372 C 535.324219 355.347656 537.671875 331.050781 553 317.328125 C 558.476563 312.535156 574.390625 306 578.242188 316.042969 C 580 321.097656 576.425781 327.730469 574 332 C 579 328.363281 583.328125 323.605469 589 320.632813 C 594.765625 317.609375 605 316.242188 607.199219 309 C 608.746094 304 602.914063 300.183594 599 298.46875 C 588.316406 293.785156 575.644531 290 564 289 C 569 285.238281 576 285 582 283.289063 C 594.785156 279.671875 607.671875 276.003906 621 275.089844 C 629.992188 274.472656 639 277.183594 648 275.785156 C 653.941406 275 658.445313 270.132813 664 268.09375 C 672.410156 265.003906 682 264.652344 691 265.039063 C 712 266 732.824219 277.359375 754 276 C 772.203125 274.664063 789.484375 266.359375 808 265.089844 C 817 264.464844 827.367188 265 836 268.09375 C 841.597656 270.148438 845.980469 275 852 275.8125 C 859.867188 277 868 274.691406 876 275.039063 C 892.375 275.757813 913.484375 280.351563 928 288 M 341 567 L 340 567 C 335.371094 586.449219 333.261719 607.207031 329.917969 627 C 325.503906 653.15625 320 679.390625 320 706 L 319 706 C 319 686.609375 317.421875 667.3125 316 648 C 315.71875 642.59375 317 630.769531 313.484375 626.523438 C 310.226563 622.742188 295.285156 626.53125 290 625.320313 C 276 622.117188 266.941406 609.296875 261.308594 597 C 252.230469 577.171875 252.453125 553.273438 253.910156 532 C 255.28125 512 255 492.027344 257.167969 472 C 258.410156 459.578125 261.9375 447.40625 262.921875 435 C 263.6875 425.34375 258.207031 424.082031 250 422.117188 C 245.277344 421 239.167969 419.160156 242.183594 413.003906 C 246.257813 404.6875 258.5 400.832031 266 396.398438 C 286.214844 384.445313 307 373.585938 327 361.1875 C 336.28125 355.417969 345.53125 348.15625 352.824219 340 C 358 334.171875 361.847656 326.199219 369 322.441406 C 375.859375 319 384.527344 320 392 320 C 370.433594 354.476563 322.609375 362 294 388 C 301.945313 388.164063 323.695313 388.457031 327.398438 397.1875 C 331.484375 407 320.429688 426 317 435 C 304.355469 469.046875 292.558594 504.128906 277 537 C 281.75 532.296875 283.746094 525 286.757813 519 C 292 508.464844 298 498.15625 304.199219 488 C 318.367188 464.214844 331.484375 439.816406 345.601563 416 C 354.269531 401.386719 364.804688 387.410156 372 372 L 373 372 C 368.886719 389.351563 358.324219 405.679688 351.28125 422 C 333.351563 463.550781 313.179688 504.125 296 546 C 302.847656 539 307 526.574219 312.199219 518 C 326.242188 494.597656 339.402344 470.660156 353 447 C 357.613281 439 362.402344 431.042969 367 423 C 368.617188 420.171875 370.382813 414.65625 373.511719 413.175781 C 378.632813 410.75 378.84375 423.355469 378.960938 426 C 379.625 441.195313 381.523438 460.203125 378 475 C 385.703125 466.148438 384.5 446.265625 386.609375 435 C 392.605469 403 396 366.207031 408.453125 336 C 419.28125 309.589844 460.929688 306.285156 484 294.753906 C 493.699219 290 503.613281 280.25 514 277.558594 C 527.210938 274.136719 535 283.742188 531.839844 296 C 526.273438 316.5625 497.382813 311.808594 481 319.488281 C 457.96875 330.289063 441.167969 352.121094 429.308594 374 C 395.589844 436.199219 377.894531 510 373 580 C 370.445313 618.59375 375.574219 657.339844 372.910156 696 C 371 723 363.78125 750.773438 351.753906 775 C 348 782.363281 341.875 797.621094 331 794.5625 C 325.382813 793 325 786 324.425781 781 C 322.554688 767.253906 324.515625 752.675781 326 739 C 329.488281 708.363281 330.242188 677.640625 333.171875 647 C 335.71875 620.332031 341 594 341 567 M 1121 476 L 1123 476 C 1123 460 1121.800781 444.140625 1122.910156 428 C 1123 425 1122 413.675781 1126.390625 413 C 1129.640625 412.351563 1131.636719 418 1132.78125 420 C 1137 428.097656 1141.886719 436 1146.304688 444 C 1165 478.128906 1184.769531 512.210938 1204 546 C 1202.964844 528.347656 1187 507.0625 1179.859375 491 C 1162 451.097656 1144.800781 410.726563 1129 370 L 1130 370 C 1151.757813 403 1169.316406 438.503906 1188.304688 473 C 1199.992188 494.230469 1214.414063 513.730469 1222 537 L 1223 537 C 1220.179688 524.816406 1213.628906 513.570313 1209 502 C 1200.253906 480.132813 1192 458.023438 1183.808594 436 C 1180.640625 427.640625 1169.179688 405.5625 1173.355469 397.109375 C 1177.503906 388.71875 1197.925781 388.167969 1206 388 C 1184.253906 368.03125 1153.972656 356 1130 338.375 C 1122 332.640625 1113.710938 328.105469 1108 320 C 1115.378906 320 1124 318.675781 1131 322 C 1139 325.757813 1143.214844 334.671875 1149 341 C 1157.195313 349.730469 1167 356.769531 1177 363.332031 C 1195.964844 376 1216.5 386 1236 397.601563 C 1242.78125 401.664063 1254.304688 405.507813 1257.96875 413.003906 C 1264.261719 426 1236.402344 418.339844 1237.523438 431 C 1242.230469 484.113281 1263.230469 547.6875 1239 599 C 1233.585938 610.753906 1223.507813 626.253906 1210 629.46875 C 1204.777344 630.710938 1192.324219 624.085938 1189.601563 626.546875 C 1185.875 630 1186.304688 643.183594 1186 648 C 1184.976563 667.015625 1182.816406 686 1182 705 L 1181 705 C 1180.996094 689.292969 1177.324219 673.550781 1175.28125 658 C 1171.328125 628 1167.617188 597.8125 1162 568 C 1157.332031 583.785156 1164.257813 606.738281 1165.828125 623 C 1169.519531 661.128906 1173 699.746094 1175 738 C 1175.65625 751.402344 1177 764.523438 1176.996094 778 C 1176.933594 783.136719 1176.617188 790.785156 1171.785156 794 C 1162.222656 800.054688 1154 784.574219 1150.757813 778 C 1139 755 1133.1875 729.414063 1129.425781 704 C 1123 661.09375 1129.863281 618.089844 1126.910156 575 C 1122.3125 508 1103.394531 434.804688 1070 376 C 1058.84375 356.351563 1046 335 1025 324.378906 C 1012.703125 318.226563 998.378906 317.453125 986 311.507813 C 977.332031 307.34375 967.65625 296.582031 970.4375 286 C 972.804688 277.003906 983.753906 275.464844 991 279 C 1003.691406 285.183594 1013.789063 295 1027 300.574219 C 1044.605469 308.085938 1068 312.332031 1082.910156 324.679688 C 1095 334.785156 1098.738281 352.386719 1102.371094 367 C 1110.917969 401.347656 1120.902344 440.484375 1121 476 M 607 284 L 607 285 C 619.605469 288.832031 631.355469 290.171875 643 297.203125 C 645.753906 299 652.792969 302 652.792969 305.828125 C 652.792969 309.542969 644.566406 311.570313 642 313.09375 C 631.40625 319.371094 622.753906 328.453125 613 336 C 588.40625 354.566406 563 372.234375 540 393 C 529 402.65625 514.851563 415.15625 509 429 C 518.757813 424.140625 526.46875 415.34375 535 408.660156 C 549.25 397.496094 564.398438 387.195313 580 378.011719 C 594.777344 369.3125 609.660156 361 625 353.246094 C 634.253906 348.617188 645.429688 344.640625 652.53125 336.824219 C 660.394531 328.175781 662.457031 315.742188 666 305 C 667.171875 301.453125 670 296 667.957031 292.277344 C 665.386719 288 657.355469 288.066406 653 287.421875 C 639.464844 285.417969 620.277344 280.074219 607 284 M 992 428 C 986.882813 414.699219 972.421875 404.78125 962 395.71875 C 937 374 910.808594 353.761719 885 333 C 876.511719 326.167969 868.644531 318.148438 859 313 C 856 311.316406 848.226563 309.765625 847.632813 306 C 847 301.746094 854 298.15625 857 296.453125 C 867.710938 290.066406 879.683594 286.589844 892 285 C 887.84375 282 882.875 283.34375 878 283.832031 C 867.289063 285 856.648438 285.734375 846 287.410156 C 841.984375 288.042969 834.558594 287.511719 832 291.429688 C 829.957031 294.679688 832.601563 299.792969 833.667969 303 C 836.804688 312.460938 838.484375 322.570313 844 331 C 854 346.082031 878.484375 354 894 362.308594 C 915.960938 374.1875 937.878906 387.070313 958 402 C 968.992188 410 979.421875 422.675781 992 428 M 722 294 C 717.996094 314.636719 698.753906 345.453125 677 350.761719 C 665.84375 353.480469 654.304688 352.816406 643 354.289063 C 638.648438 355 632.753906 355.367188 630 359 C 633.980469 359 638 358.800781 642 359.089844 C 657.617188 360.234375 660.820313 369.339844 649 379.246094 C 638.914063 387.699219 628 395.1875 617 402.308594 C 611.773438 405.675781 604.40625 408.691406 601 414 C 609.253906 413.621094 616.554688 409.664063 624 406.425781 C 642.410156 398.414063 660.464844 388.726563 676 376 C 688 366 701.578125 350.355469 719 355.160156 C 724.394531 356.648438 730.65625 360.5 729.34375 367 C 726 383.277344 709.324219 395.246094 703.699219 411 C 700.3125 420.484375 698.367188 431.015625 697 441 C 696.46875 446.65625 696.417969 453.507813 691.785156 457.570313 C 681.542969 466.550781 659.410156 458.636719 647 460 C 655.621094 468.179688 673.363281 466 684 472.46875 C 696.351563 480.132813 699.171875 495 710 503 C 710 487.617188 712.375 472.292969 713.828125 457 C 715.300781 441.5625 714.90625 426.105469 719 411 C 724.382813 392.40625 738.191406 375.027344 737.816406 355 C 737.636719 345.492188 726.390625 339.582031 724.289063 330 C 722 319.605469 727.1875 302.714844 722 294 M 776 297 C 778.429688 307.199219 779 324.175781 775 334 C 772.226563 341.046875 765.382813 346.261719 764.214844 354 C 761.769531 370.148438 776.773438 381.8125 776.675781 396.289063 C 776.597656 408.226563 767.554688 422.019531 760.574219 431 C 758.28125 434 754.550781 440.214844 750 438.742188 C 745.933594 437.425781 743.46875 432.324219 741.308594 429 C 734.746094 419 730.28125 409.1875 726 398 L 725 398 C 725 431.472656 745.722656 458.328125 748.828125 491 C 750.507813 508.617188 746.296875 527.40625 745 545 C 742 587.777344 738.382813 630.402344 733 673 C 745.226563 665.523438 742.585938 645.425781 752 636 C 752.429688 645.390625 758.21875 666.296875 766 672 C 766 654.25 761.855469 636.640625 760.171875 619 C 757.628906 592.394531 757 565.679688 755.960938 539 C 755 520.699219 752.820313 502.402344 754 484 C 756.171875 453.78125 777.996094 428.753906 778 398 L 779 398 C 788.238281 431.773438 790.234375 467 793 502 L 795 502 C 797.476563 483.632813 807 471.335938 825 466.035156 C 832.191406 464 841.796875 464.308594 848 460 C 837.398438 458.207031 826.40625 461.105469 816 456.472656 C 793.523438 446.460938 801.550781 416.214844 792.480469 398 C 787.441406 388 758.523438 363.390625 781 355.789063 C 799.5625 349.511719 814 366.222656 827 376.738281 C 849 394.667969 872.511719 408 900 415 C 896.765625 409.101563 888.550781 406.117188 883 402.566406 C 873.46875 396.464844 864.492188 389.308594 856 382 C 845 372.261719 840.8125 364.515625 858 360.664063 C 861.289063 360 864.65625 359.425781 868 359 L 868 357 C 853 357 835.789063 358.585938 822 351.621094 C 810.90625 346.023438 800.367188 333.410156 792.4375 324 C 786.664063 317.144531 782.878906 301.191406 776 297 M 750 319 C 747.867188 338.414063 750 359.402344 750 379 L 752 379 L 752 338 C 752 332 753.234375 324.402344 750 319 M 374 370 L 373 371 L 374 370 M 253 435 C 250.398438 444.035156 244.574219 451.722656 242.429688 461 C 233.457031 499.808594 237 548.257813 249 586 C 254.769531 604.050781 262.511719 621.753906 270.304688 639 C 273.621094 646.339844 278.734375 653.300781 281 661 C 236.332031 629.535156 224.71875 563.605469 214.800781 514 C 212.394531 502 210.3125 489.722656 206.660156 478 C 205.726563 475.003906 202.253906 467.523438 205.605469 465.046875 C 208.777344 462.707031 212.507813 466.792969 214.238281 469.019531 C 219.578125 476 224.234375 484.242188 225 493 C 229.355469 488.058594 230 480.1875 232 474 C 236 460.828125 241.996094 444 253 435 M 1250 436 C 1263.890625 452.050781 1273.996094 472.507813 1274 494 C 1279.796875 487.425781 1281 477.164063 1286.679688 470.003906 C 1288.375 468 1291.421875 463.820313 1294.683594 464.75 C 1299 466.015625 1295.902344 474.300781 1295 477 C 1291.605469 489.542969 1288.953125 502.226563 1286.398438 515 C 1278.734375 553.320313 1270.867188 592.246094 1250.1875 626 C 1242.628906 638.339844 1233.804688 652.597656 1221 660 C 1224.871094 646.449219 1232.960938 634 1238.574219 621 C 1250.683594 593.164063 1259.824219 565.453125 1261.910156 535 C 1263.394531 513.351563 1264 488.308594 1260 467 C 1258.339844 458.488281 1247.742188 443.65625 1250 436 M 538 565 C 546.597656 564.628906 554.632813 561.5 563 559.800781 C 598.277344 552.628906 660.566406 546.542969 661 599 C 672.679688 584.730469 652.953125 560.738281 641 554 C 618 540.742188 586.6875 547.496094 563 554.425781 C 556 556.460938 542.375 559.050781 538 565 M 839 600 L 840 600 C 842.796875 590.535156 842 581.390625 848.527344 573 C 874.703125 539 929.964844 559.394531 964 566 C 955.925781 555.710938 938.988281 554 927 551.117188 C 899.59375 544.816406 855.519531 541 842.453125 573 C 838.910156 581.703125 839 590.78125 839 600 M 556 612 L 556 613 C 552.214844 613 548.695313 613 545 612 C 555.394531 622.054688 574.175781 620.308594 581.695313 635 C 585.636719 642.695313 583.644531 652 583 660 L 582 660 C 579 653 574.429688 647.394531 569 642.003906 C 564.484375 637.523438 559.652344 633.738281 554 630.785156 C 519 612.535156 492.175781 642.355469 460 650 C 471.820313 629.554688 498.988281 604.058594 524 603.453125 C 535.492188 603.179688 545.191406 609.4375 556 612 M 1042 653 C 1012.230469 644.425781 988.636719 615.296875 955 628.066406 C 949.691406 630.078125 944.527344 632.8125 940 636.238281 C 928.367188 645.050781 922.828125 659.644531 911 668 C 914.347656 655.0625 915 638.171875 925.300781 628.328125 C 930.953125 623 939.507813 622.328125 945 617 C 936.992188 616.65625 928.953125 615.003906 921 614 C 926.363281 610.625 932.984375 610 939 608.289063 C 950.308594 605.09375 962 601.589844 974 603.300781 C 994.464844 606.25 1011.851563 623.253906 1026 637 C 1031.453125 642.277344 1037.589844 646.738281 1042 653 M 530 659 C 532.507813 661.199219 536.378906 663.597656 537.289063 667.011719 C 540.289063 678.265625 521 674.753906 517.457031 668 C 511.261719 656.183594 530.339844 645.253906 537.339844 655.210938 C 541 660.453125 532.5 659.308594 530 659 M 971 659 C 968.414063 659 960.195313 659.003906 964.492188 654.414063 C 972.847656 645.488281 990.621094 657.726563 983.257813 669 C 979.4375 674.78125 961.304688 678.175781 963.753906 667.015625 C 964.496094 663.625 968.5625 661.136719 971 659 M 558.222656 660.621094 C 565.320313 657.789063 565.183594 668 564.332031 672 C 562.320313 681.449219 556.664063 689.289063 548 693.726563 C 535.984375 700 520.652344 699.492188 510 690.480469 C 506.796875 687.667969 498.769531 676.253906 503 671.710938 C 505.628906 669 510.171875 674.355469 511.714844 676 C 518.648438 683.410156 527.601563 688.214844 538 685.210938 C 544.433594 683.351563 549.941406 678.132813 552.519531 672 C 553.980469 668.53125 554.1875 662.230469 558.222656 660.621094 M 941 660.753906 C 945 659.730469 946.359375 665.246094 947.34375 668 C 949.910156 675.191406 954.222656 682.757813 962 685.195313 C 969.988281 687.699219 979.742188 685.007813 985.960938 679.671875 C 988.59375 677.410156 992.511719 670.5 996.566406 671.035156 C 1000.441406 671.550781 997.953125 679 997.234375 681 C 994.378906 689.109375 987 694.285156 979 696.570313 C 965.78125 700.34375 950.832031 696.476563 942.636719 685 C 939.554688 680.683594 931.867188 663.039063 941 660.753906 M 575 677 C 575.914063 682.132813 584.507813 690.335938 583.246094 694.679688 C 582.90625 696 568.464844 700.742188 566 702 C 569.207031 694.285156 570.855469 684 575 677 M 927 677 C 928.984375 687.542969 932.839844 694.726563 938 704 C 928.644531 700.824219 923.832031 689.699219 916 701 L 915 701 C 913.644531 694 922.734375 682.636719 927 677 M 481 689 C 486.257813 696.386719 488.863281 705.246094 495 712 C 518.542969 737.421875 545.671875 717.199219 572 710 C 568.777344 718 559.53125 720.675781 552 723.304688 C 533 730 509.671875 733.582031 494 718 C 487.753906 711.746094 477 698.515625 481 689 M 494 690 C 496.398438 695.722656 499.714844 700.578125 505 704.035156 C 506.75 705.179688 512.792969 707.089844 512.792969 709.683594 C 512.792969 712.824219 506 710.34375 505 709.71875 C 498.695313 706.28125 490.902344 697.597656 494 690 M 1007 691 C 1006.90625 702.140625 997.203125 714.074219 985 711 C 989 706.273438 995.363281 705 999.785156 700.671875 C 1002.804688 697.722656 1003.53125 693.367188 1007 691 M 1018 692 C 1019.957031 711.269531 1000.800781 728.078125 983 729.828125 C 963.601563 731.738281 934.84375 719 918 710 L 918 709 C 944.320313 709.542969 974 738.175781 998.984375 719 C 1008.65625 711.5 1010 700 1018 692 M 751 698 C 749.910156 706.4375 747.972656 715.640625 743.519531 723 C 732.632813 741.003906 708.972656 744.148438 691 751.203125 C 675 757.429688 660 765.480469 646 775 L 646 776 C 660.386719 773.523438 673.5 764.085938 688 760.652344 C 719.800781 753.128906 752.632813 752.367188 785 756 C 800.929688 757.539063 817.351563 759.355469 832 766.320313 C 839.296875 769.789063 844.519531 775.441406 851 780 C 848.933594 768.546875 838.277344 760.257813 828 756.203125 C 807.917969 748.289063 785.351563 749.746094 767 737.253906 C 761 733.226563 753.496094 727.546875 752.226563 720 C 750.996094 712.726563 755.480469 704.558594 751 698 M 708 788.289063 C 722.320313 786.429688 735.839844 791.671875 750 792 C 773.449219 792.398438 796 785.246094 818 797.3125 C 829.941406 804 840.964844 814.3125 849.328125 825 C 851.550781 828 857.917969 836.003906 851.847656 838.378906 C 844.976563 841.0625 837.695313 829.0625 833.910156 825 C 822.617188 813 807.992188 800.335938 791 798.003906 C 777.445313 796.140625 764.488281 802 751 802 C 733 802.203125 715.328125 793.5 698 801.3125 C 685 807.15625 673.699219 816.632813 664 827 C 660.617188 830.746094 656.222656 839.359375 650 838.550781 C 638 837 655.542969 819.457031 658 817 C 672 803 687.664063 791 708 788.289063 M 751 848 C 754.796875 834.519531 756.761719 815.726563 772 810.132813 C 799.753906 800 852.347656 832.828125 840.441406 865 C 836.707031 875.089844 815.863281 893.800781 807.457031 878 C 801.699219 867.109375 812.597656 856.757813 810.769531 846 C 808.789063 834.359375 792.847656 829.46875 784 836.417969 C 770.398438 847.1875 765.808594 875.070313 774.367188 890 C 779.359375 898.707031 792 904.304688 789 916 C 784.96875 931.527344 768 925.832031 762.324219 915 C 752.339844 896.4375 752.613281 872.453125 751 852 C 746.28125 863 747 875.371094 745.714844 887 C 744.367188 898.386719 743.296875 912.222656 734.816406 921 C 727.355469 928.515625 714 926.65625 712.214844 915 C 710.359375 903.125 721.527344 899.789063 726.636719 891 C 735.910156 875.050781 731.632813 844.761719 715 835 C 712.296875 833.246094 709 833 706 833.097656 C 703.507813 833.28125 701 834 699 835.226563 C 679.445313 846.628906 701.199219 862.253906 694 877 C 686.222656 893.230469 665 876.507813 660.765625 866 C 647 832.230469 698.527344 802 727 809.761719 C 745 814.753906 743.347656 834.539063 751 848 M 666 886 C 675.792969 898.148438 687 906.253906 697.910156 917.089844 C 704.660156 923.832031 709.347656 932.019531 718 936.675781 C 721.515625 938.570313 740.992188 944 737.59375 950.382813 C 736.382813 952.65625 732.6875 951 731 950.410156 C 724.390625 948.144531 717.628906 946.511719 711 944.328125 C 693.996094 938.726563 679.648438 925.164063 670.464844 910 C 666.453125 903.371094 662.816406 893.585938 666 886 M 836 886 C 835.691406 923.054688 795.574219 948.039063 762 953 C 766.195313 939.613281 779.46875 941.105469 789 933.609375 C 806 920.136719 818.667969 899.375 836 886 M 751 912 C 753.347656 921.824219 753.789063 932.101563 756 942 C 757 946.574219 760.214844 951.226563 759.742188 956 C 758.558594 968.015625 751.554688 979.113281 751 992 L 750 992 C 749.371094 984.023438 748.597656 974.648438 746.203125 967 C 744.933594 963 741.285156 959.375 741.265625 955 C 741.234375 948.304688 745.617188 940.007813 746.574219 933 C 747.511719 926.136719 746.828125 918 751 912 M 872 925 L 873 926 L 872 925 M 580 1044 C 586.285156 1041.332031 590.296875 1035.777344 594.996094 1031 C 606.894531 1019 623.25 1002.640625 630 987 C 622.878906 988.4375 619.3125 994.71875 614.917969 1000 C 604.335938 1012.726563 585 1028.152344 580 1044 M 879 1025 C 879.546875 1026.636719 879.363281 1026.453125 881 1027 C 880.230469 1025.6875 880.3125 1025.769531 879 1025 M 894 1031 C 897.820313 1042.511719 917.746094 1062.640625 929 1067 C 922.414063 1055.605469 905.988281 1036.589844 894 1031 M 645.953125 1034.695313 C 638.964844 1034.742188 622.355469 1048.390625 636 1048.796875 C 640.503906 1049 645.59375 1046.238281 648.292969 1042.699219 C 650.605469 1039.664063 650.890625 1034.660156 645.953125 1034.695313 M 853.332031 1036.03125 C 846.273438 1040.8125 863.453125 1052.269531 869.667969 1048 C 876.578125 1043.191406 858.804688 1032.324219 853.332031 1036.03125 M 627 1045 C 623.191406 1046 619.582031 1047.277344 616 1049 C 612.4375 1050.4375 601.773438 1053.789063 601 1058.195313 C 599.917969 1065.238281 612.40625 1064 616 1062.824219 C 624.445313 1060.289063 626.832031 1053.035156 627 1045 M 876.605469 1047.132813 C 873.226563 1049.328125 876.660156 1055.785156 878.417969 1058 C 882.425781 1062.699219 892.894531 1066.601563 898.753906 1062.820313 C 906.714844 1057.683594 881.429688 1044 876.605469 1047.132813 M 750 1067.300781 C 759.675781 1066 772 1069.300781 779.894531 1075.105469 C 786.292969 1079.832031 784.980469 1087.335938 777 1088.800781 C 762.886719 1091.390625 749 1087.78125 735 1088.128906 C 729.769531 1088.257813 721.945313 1091 717.746094 1086.296875 C 714.277344 1082.46875 718.703125 1078.679688 722 1077.042969 C 730.605469 1072.78125 740.449219 1068.664063 750 1067.300781 M 696 1155 C 718.9375 1140.714844 741.359375 1105 771 1123.070313 C 774.582031 1125.265625 777.933594 1127.808594 780.675781 1131.015625 C 790.859375 1143 793.707031 1157.253906 806 1168 C 801.785156 1153.367188 798.546875 1143.558594 800 1128 C 800.53125 1123.371094 802.847656 1113.101563 809.785156 1116.410156 C 819.519531 1121.054688 815.992188 1141 827 1147.214844 C 836.316406 1152.472656 842 1130.601563 849.582031 1144.003906 C 855.472656 1154.511719 855.460938 1170.558594 852.765625 1182 C 851.425781 1187.675781 846.296875 1197.640625 839.429688 1190.683594 C 830.757813 1182 844 1167.648438 836 1159 C 832.476563 1171.246094 822.777344 1160.105469 816.511719 1165.605469 C 813.546875 1168.214844 813.476563 1173.519531 812 1177 C 809.675781 1183 805.449219 1187.785156 800 1191.070313 C 784.734375 1200.273438 767.464844 1193.617188 751 1194.015625 C 734.738281 1194.40625 717 1201.816406 702 1192.53125 C 696 1189 690.40625 1183.398438 687.414063 1177 C 685.691406 1173.316406 685.757813 1168.480469 682.671875 1165.523438 C 676.640625 1159.753906 668.992188 1169.085938 663 1159 C 660 1168.121094 666.761719 1183.496094 659.570313 1190.566406 C 652.71875 1197.304688 649.839844 1187.105469 648.800781 1182 C 646.234375 1169.394531 643.359375 1156 649.796875 1144 C 658.535156 1127.828125 662.488281 1154.195313 674.984375 1146.257813 C 685.789063 1139.394531 679.683594 1124.671875 688.226563 1117.335938 C 692.726563 1113.472656 696.765625 1118.664063 697.65625 1123 C 699.71875 1133.039063 697.265625 1145 696 1155 "/>
</g>
</svg>
