<?xml version="1.0" encoding="UTF-8"?>
<svg xmlns="http://www.w3.org/2000/svg" xmlns:xlink="http://www.w3.org/1999/xlink" width="1500pt" height="1500pt" viewBox="0 0 1500 1500" version="1.1">
<g id="surface1">
<path style=" stroke:none;fill-rule:nonzero;fill:rgb(0%,0%,0%);fill-opacity:1;" d="M 479 1288 C 472.925781 1268.808594 471.847656 1249 463.71875 1230 C 460.933594 1223.519531 459.203125 1214.683594 452 1212 L 453 1228 C 443.765625 1216.554688 440.652344 1198 436.574219 1184 C 432.804688 1171.105469 426.6875 1158.453125 425 1145.003906 C 424.363281 1138 427.652344 1132 427.960938 1125 C 429 1098.671875 431.8125 1074.570313 439 1049 C 432 1053 428.660156 1066.4375 428 1074 L 427 1074 C 427.371094 1056 434.863281 1036.296875 447 1023 C 449.40625 1036.488281 462.492188 1046.183594 465 1059 C 466 1063.609375 462.53125 1067.785156 461.222656 1072 C 459.417969 1077.792969 460.285156 1083.429688 462.464844 1089 C 466.941406 1100.449219 479.523438 1111.300781 482 1123 C 482.972656 1127.273438 478.988281 1132.210938 477.453125 1136 C 474.363281 1143.621094 471.90625 1151.738281 471.59375 1160 C 471 1172.566406 476.859375 1184 479.335938 1196 C 480.628906 1202.316406 479.878906 1209.238281 483.484375 1215 C 494.730469 1232.617188 524.707031 1247.074219 545 1249.710938 C 559.488281 1251.59375 574.738281 1249.492188 587 1241.25 C 600.371094 1232.261719 610.390625 1218.046875 626 1212.546875 C 639.546875 1207.773438 653.261719 1217.4375 667 1214.101563 C 673.699219 1212.472656 679.25 1209 683 1203 C 685.652344 1199 686.734375 1192.265625 692 1190.695313 C 695.804688 1189.570313 700.546875 1192.273438 704 1193.574219 C 712.542969 1196.796875 721.796875 1201.234375 731 1202 C 749.191406 1203.242188 763.835938 1191 781 1191.148438 C 791 1191.289063 794 1209 804 1213 C 819.421875 1219 834.683594 1207 850 1212.105469 C 867.652344 1218.003906 878 1235.113281 894 1244 C 922 1259.570313 956 1245 980 1228.277344 C 985.769531 1224.265625 992.96875 1220.105469 995.195313 1213 C 997 1207.15625 995.222656 1201 997 1195 C 1001.761719 1180.320313 1007.730469 1171.027344 1004.738281 1155 C 1003 1146.164063 993.441406 1132.273438 994.5625 1124 C 996.523438 1109.507813 1013.433594 1098.355469 1015.699219 1083 C 1016.980469 1074.320313 1011.636719 1069.03125 1010.980469 1061 C 1010.230469 1051.808594 1019.335938 1043.152344 1023.910156 1036 C 1025.496094 1033.519531 1026.945313 1028.375 1029.632813 1027 C 1033.566406 1024.796875 1037.472656 1033.484375 1038.730469 1036 C 1044.472656 1047.480469 1048.734375 1062.132813 1049 1075 L 1048 1075 C 1047.351563 1067.546875 1044.546875 1053.324219 1038 1049 C 1043.277344 1074.558594 1047.980469 1099 1050 1125 C 1050.539063 1130.515625 1053.304688 1135.347656 1052.824219 1141 C 1051.441406 1157.402344 1043.636719 1172.402344 1039 1188 C 1035.386719 1201.03125 1032.214844 1220.234375 1024 1231 C 1024 1224.316406 1026.859375 1217.207031 1024 1211 C 1017.257813 1216.207031 1013.886719 1225.074219 1011.34375 1233 C 1005.953125 1249.804688 1002 1268 998 1285 L 997 1285 L 999 1266 C 991.167969 1270.804688 991.511719 1284 989.253906 1292 C 983.289063 1313.269531 966.714844 1332.421875 963 1354 C 985.609375 1341 984.8125 1311 996.988281 1291 C 999.992188 1286.097656 1004.566406 1282.34375 1006.894531 1277 C 1010.71875 1268.214844 1011.792969 1258.40625 1016.644531 1250.019531 C 1019.792969 1244.574219 1026.222656 1243.511719 1029.472656 1238 C 1035.359375 1228 1037.390625 1215.789063 1041.425781 1205 C 1049.5 1183.398438 1062.394531 1159.703125 1061.410156 1136 C 1061.222656 1131.523438 1057.980469 1128.292969 1057.226563 1124 C 1055.472656 1114 1055 1102.222656 1054.175781 1092 C 1053.773438 1087.171875 1055.84375 1082.789063 1055.984375 1078 C 1056.269531 1068.230469 1054.179688 1058.453125 1051.871094 1049 C 1050 1042 1048.289063 1034.351563 1044.523438 1028 C 1041.890625 1023.558594 1036 1018.542969 1036.359375 1013 C 1036.726563 1004 1047.40625 990.710938 1050.988281 982 C 1061.488281 956.480469 1074 926.402344 1077.71875 899 C 1080.703125 877 1083.9375 852.351563 1082.960938 830 C 1082.351563 816.097656 1077.503906 802.792969 1076.171875 789 C 1075.449219 781.558594 1076.921875 774.363281 1076.921875 767 C 1076.921875 750.558594 1071.847656 733 1078.902344 717 C 1083.367188 707 1087.636719 693.589844 1094.527344 685.039063 C 1100.234375 678 1108.628906 674 1113.53125 666 C 1121.902344 652.523438 1124 636 1135.300781 624.171875 C 1150.820313 607.792969 1176.980469 601 1183.511719 577 C 1188.390625 559.140625 1182.820313 540 1182 522 C 1181.453125 508.53125 1185 495.460938 1182.679688 482 C 1181.246094 474 1176 467.167969 1175.175781 459 C 1173.429688 442.695313 1179.910156 426.613281 1177.84375 410 C 1176.53125 399.445313 1168.289063 388.09375 1168.484375 378 C 1168.601563 372.0625 1172.207031 366.527344 1173.972656 361 C 1176.988281 351.558594 1179 341.808594 1180.570313 332 C 1186.621094 290.222656 1182.574219 245.214844 1174.199219 204 C 1169.992188 183.289063 1161.660156 159.78125 1144.960938 145.808594 C 1125.28125 129.34375 1103.429688 139 1086 153.589844 C 1068 168.710938 1056.386719 190 1041.738281 208 C 1023.324219 230.640625 1001.914063 250.609375 984.375 274 C 963.980469 301.195313 955.71875 334.433594 939.691406 364 C 930.445313 381.054688 915.699219 393.285156 904.722656 409 C 899.167969 417 902.277344 431.027344 895.863281 436.621094 C 879.9375 450.507813 858 428.105469 841 430.433594 C 835.628906 431.160156 833.382813 436.410156 828.984375 439 C 823.890625 441.699219 816.695313 442.03125 811 442.714844 C 793.6875 444.785156 777 439.007813 760 439.007813 C 752.632813 439.007813 746.21875 442.734375 739 443.09375 C 730.460938 443.523438 722.628906 439 714 439.015625 C 695.457031 439.378906 678.773438 444.722656 660 441.566406 C 650.460938 440 645.527344 433.015625 637 430.574219 C 624 427 609.289063 436.308594 597 439 C 591.453125 440.195313 584.648438 441.816406 580.433594 437 C 574.71875 430.132813 580.453125 418.296875 575.519531 410 C 566.96875 395.625 551.464844 386.527344 542.613281 372 C 527.644531 347.417969 520.832031 319 506.574219 294 C 487.1875 260.132813 455.445313 235.089844 432 204 C 413.941406 179.757813 384.382813 128.066406 347 139.042969 C 321.207031 146.617188 309.601563 180.386719 304.800781 204 C 296.25 246.0625 292.832031 289.273438 298.285156 332 C 300.257813 347.460938 309.539063 363 310.351563 378 C 310.628906 383.136719 306.855469 387.425781 305 392 C 301.910156 400.078125 300.300781 408.429688 299.285156 417 C 297.519531 432 304 446.753906 302.660156 461 C 301.800781 469.320313 296.503906 476.660156 295.300781 485 C 293.4375 498 296.527344 511.046875 295.960938 524 C 295.261719 540 290.746094 556.046875 293.804688 572 C 298.855469 598.355469 326.484375 606.164063 342.90625 624 C 353.886719 636 356 652.507813 364.46875 666 C 369.320313 673.8125 377.746094 678 383.316406 685.015625 C 390.210938 694 395.636719 709.566406 399.90625 720 C 405.429688 733.492188 401 747.109375 401 761 C 400.988281 768.613281 402.546875 776.453125 401.828125 784 C 400.324219 799.828125 395.175781 815.136719 394 831 C 393.171875 844.40625 395.171875 858.609375 396 872 C 398.660156 909.527344 410.480469 944 423.683594 979 C 427.734375 989.742188 437.316406 999.820313 439.453125 1011 C 440.773438 1018 433.949219 1023.304688 431 1029 C 425.648438 1040.101563 422.789063 1053.769531 421.285156 1066 C 419.320313 1082.019531 422 1098.777344 420.910156 1115 C 420.34375 1123.292969 415.417969 1132.007813 416.289063 1140 C 418.558594 1160.773438 427.453125 1180.359375 434 1200 C 438.515625 1213.546875 440.898438 1230.050781 449.246094 1242 C 452 1246.023438 457 1247.339844 460.199219 1251.1875 C 468.851563 1262 463.566406 1282.707031 479 1288 M 1113 645 L 1112 645 C 1112 638.792969 1112.664063 632.230469 1108.582031 627.039063 C 1105.589844 623.234375 1093 617.273438 1096 611.226563 C 1097.859375 607.660156 1103.570313 607 1107 606.128906 C 1116.511719 603.808594 1126.707031 603.625 1136 600.53125 C 1140.824219 599 1147.574219 594 1144.777344 588.042969 C 1140.882813 579.792969 1130.910156 585 1125 587.425781 C 1112.359375 592.722656 1091.671875 603.25 1079.183594 592.46875 C 1071.917969 586.191406 1068.738281 574.25 1068 565 C 1067.660156 559 1068.972656 550.265625 1064.347656 545.320313 C 1055.203125 535.550781 1044.167969 564.660156 1034.378906 555.679688 C 1026.921875 549 1017.664063 533.304688 1017.261719 523 C 1016.875 513.058594 1021.171875 504 1017.910156 494 C 1013.3125 480.046875 1003.625 470 997.964844 457 C 995.96875 452.425781 996.589844 447.710938 995.46875 443 C 994.273438 438 990.433594 434.058594 989.394531 429 C 987.71875 421 989.652344 410.566406 988.90625 402 C 988.445313 396.71875 984.253906 392.296875 984.515625 387 C 984.824219 380.710938 989.792969 375.066406 991.335938 369 C 995 354.382813 995.988281 339 1002.3125 325 C 1008 312.25 1018.457031 302.3125 1024 289 L 1011 295 C 1020.957031 271.09375 1041.855469 253 1058.832031 234 C 1080.9375 209.425781 1100.644531 182.417969 1124 159 C 1110.890625 166.542969 1100.597656 179.402344 1090 190 C 1071.226563 208.773438 1051.367188 227 1036.34375 249 C 1029.898438 258.46875 1023.472656 268.007813 1017.859375 278 C 1014.28125 284.371094 1011.695313 292.277344 1006 297 C 1007.453125 289 1013.691406 283 1016 275 C 1003.980469 280.6875 989.28125 294.101563 987 308 C 985.972656 315.097656 989.453125 320.53125 987 328 C 980.566406 347.589844 969.917969 366 965.234375 386 C 960.773438 405.21875 963 424.507813 963 444 C 960 442.253906 956.625 439.195313 953 439.777344 C 948.945313 440.429688 946.472656 444.410156 942 443 C 933.910156 440.269531 928.769531 430.464844 922 425.636719 C 918.511719 423.152344 911 421.730469 910 417 C 908.789063 410.648438 918.242188 403.761719 922 400 C 934.175781 387.804688 944 373.40625 951.753906 358 C 962.820313 336 969 312 982.695313 291 C 1004.25 258 1034.972656 230.355469 1059 199 C 1073.21875 180.691406 1095 146.175781 1121 145.039063 C 1151 143.722656 1163.410156 189 1167.574219 212 C 1174.226563 248.800781 1178 287.695313 1173.714844 325 C 1172.359375 336.457031 1170.675781 348 1167.574219 359 C 1165.589844 366.128906 1161.515625 373.570313 1161 381 C 1160.648438 389.402344 1166.84375 396.132813 1168.761719 404 C 1172.335938 418.65625 1171.753906 435.269531 1168.902344 450 C 1167 459.3125 1160 464 1154.519531 471 C 1149 478 1146 486.164063 1140.710938 493 C 1136.875 498 1129.949219 503.496094 1129 510 C 1128 516.753906 1136.6875 522.222656 1140.238281 527 C 1145.644531 534.269531 1148.679688 543 1154.46875 550 C 1161.617188 558.6875 1173.535156 563.019531 1172.953125 576 C 1172.1875 593 1149 600 1138 609.300781 C 1126 619.460938 1121.765625 632.65625 1113 645 M 536 454 L 535 454 C 534.652344 437.308594 525.273438 441.144531 514 446 C 514 428.738281 516 411.101563 513.570313 394 C 510.417969 372 501 352.1875 495 331 C 492.910156 323.519531 494 315.449219 492.238281 308 C 488.730469 294.367188 475.300781 282.816406 463 277 C 466.464844 284.277344 471 291.09375 473 299 C 466.828125 294.414063 463.84375 286.527344 460 280 C 452.273438 266.828125 444.835938 253.378906 435.847656 241 C 414 211.105469 385.933594 188 360 162 C 380.171875 197.402344 414.777344 225.382813 440.195313 257 C 449.675781 268.789063 462.671875 283.28125 467 298 L 457 293 C 461.636719 304.765625 470.867188 313.589844 475.960938 325 C 482 338.75 482.730469 353.703125 486.746094 368 C 488.523438 374.335938 493.265625 380.339844 493.59375 387 C 493.878906 392.730469 489.996094 399.089844 489.285156 405 C 487 422.671875 487.511719 439.460938 480 456 C 474.359375 468.789063 465.558594 479.3125 461 493 C 457.910156 502.738281 463.898438 510.453125 463.816406 520 C 463.730469 530 451.527344 550.527344 443.90625 556.679688 C 432.765625 565.679688 424.566406 535.824219 414.277344 545.324219 C 409.746094 549.507813 411.367188 556.546875 410.714844 562 C 409.449219 572.5625 407 584.367188 398.960938 592 C 386.40625 603.359375 365.875 593.082031 353 587.230469 C 346.917969 584.464844 336.476563 579.523438 332.5 588.042969 C 329.820313 593.785156 336.277344 598.546875 341 600.234375 C 350.523438 603.644531 361.195313 604.105469 371 606.628906 C 374 607.40625 380.195313 608.195313 381.671875 611.417969 C 384 616.570313 373.28125 622.308594 370.46875 625.300781 C 364.804688 631.320313 365.402344 637.433594 366 645 C 357.625 638.53125 356 627.058594 349.53125 619 C 338.257813 605.109375 306.460938 595.601563 305.214844 576 C 304.476563 564.410156 315 560.316406 321.699219 553 C 328.890625 545 332.394531 534.5625 338.761719 526 C 342 521.535156 350.371094 516.304688 349.253906 510 C 348 503.425781 341.203125 498.015625 337.289063 493 C 331.75 486 328.660156 477.203125 323.238281 470.003906 C 318.472656 463.671875 311.601563 460.167969 309.515625 452 C 305.742188 437.246094 306 419.695313 309.925781 405 C 311.960938 397.363281 318 390.082031 317.867188 382 C 317.691406 376.433594 314.636719 371.273438 313 366 C 310 355 307.714844 343.492188 306.285156 332 C 301.363281 292.449219 303.789063 251.058594 311.601563 212 C 316 189.574219 322.492188 160.53125 345 149.277344 C 375.589844 134 403 178.003906 418 198 C 442.246094 230.160156 473.851563 257.433594 495.65625 291 C 511 314.644531 517.628906 342.578125 531.425781 367 C 536.96875 376.8125 543 386 551 394 C 556.507813 399.570313 565.699219 406.042969 567.757813 414 C 569.601563 421.117188 559.316406 422.777344 555 425.800781 C 545.429688 432.5 539 443 536 454 M 358.5 160.5 C 357.871094 161.128906 358.871094 162.128906 359.5 161.5 C 360 161 359 160 358.5 160.5 M 1151 207 C 1151 259.601563 1157.339844 312.6875 1148.566406 365 C 1143.441406 395.546875 1128 421.648438 1120 451 C 1131 444.769531 1138.40625 422.300781 1143.28125 411 C 1163.695313 363.652344 1164.574219 314.503906 1159 264 C 1157.742188 250.707031 1156 237.332031 1155 224 C 1154.71875 218.703125 1155.613281 210.511719 1151 207 M 325 209 C 325 242.066406 317.484375 275 316 308 C 314.667969 339.289063 320 370.75 331.191406 400 C 336 413 341.597656 426 348.425781 438 C 351 442.71875 353 448.320313 358 451 C 343.203125 415 330.90625 380.097656 327.171875 341 C 324 309.066406 324.226563 276.109375 325 244 C 325.304688 232.164063 327.507813 221 327 209 L 325 209 M 407 263 C 411.628906 275.035156 422.890625 284.289063 428.730469 296 C 436.347656 311.269531 438 329.066406 446.441406 344 C 451.335938 352.753906 459.289063 359.257813 464 368 C 472.554688 383.390625 477.335938 406 471.777344 423 C 470 428.382813 465.875 432.035156 463.453125 437 C 461.320313 441.367188 462.320313 446.4375 460.75 451 C 458.964844 456.199219 454.683594 460 452.613281 465 C 451 468.824219 451 473.578125 447.722656 476.484375 C 444 479.617188 439 478.464844 435 480.574219 C 429.648438 483.371094 424.859375 491.257813 418 487.679688 C 406.953125 482 405.96875 463.683594 403.574219 453 C 398.601563 430.8125 388.304688 410.300781 380.691406 389 C 378.402344 382.589844 376.378906 369.074219 371 365 C 373.171875 392.261719 385.730469 421.191406 394.332031 447 C 398.976563 461 401.648438 476.53125 409.699219 489 C 416.589844 499.671875 419.378906 506 422.476563 518 C 423.308594 521.246094 426.214844 526.683594 422.667969 529.292969 C 419.59375 531.550781 415.480469 528.285156 413 526.5625 C 405.753906 521.523438 399.171875 515.527344 391 512 C 393.253906 517.820313 397.933594 522.34375 402 527 C 381.492188 518.152344 384.710938 499.535156 373.898438 483 C 362.675781 466 341.179688 459.765625 329.621094 443 C 323.351563 434 322 421.742188 322 411 C 316.875 414.511719 318.316406 420.613281 318.828125 426 C 319.878906 437.007813 320.875 446.097656 328.324219 455 C 339.289063 468.097656 356.492188 474.085938 367.816406 487 C 376.996094 497.472656 378 512.347656 382.695313 525 C 389.28125 543.066406 401.988281 558 402 578 C 410 572.320313 404.515625 553.371094 412.226563 545.109375 C 422.886719 533.679688 442.820313 547 452.347656 534 C 456.996094 527.59375 454 520 452.375 513 C 450.167969 504.0625 448.96875 495.078125 451 486 C 456.371094 464 473 448 479.363281 426 C 484.246094 409 478.460938 394.539063 473.800781 379 C 472.21875 373.734375 473.640625 368.199219 471.515625 363 C 467 352.042969 455 345.324219 449.78125 334 C 439.316406 311.675781 434.410156 271.753906 407 263 M 1073 579 L 1074 579 C 1076.59375 558.496094 1087.980469 543.675781 1095.546875 525 C 1100.265625 513.347656 1101 500.019531 1109.328125 490 C 1120.304688 476.691406 1136.328125 469.535156 1147.90625 457 C 1157.304688 446.824219 1166 422.808594 1157 410 C 1152.617188 421.703125 1154.835938 434.355469 1147 445 C 1135.984375 460.203125 1116 466.3125 1105.597656 482 C 1094 499.21875 1097.492188 517 1076 527 C 1080 522.351563 1084.578125 517.71875 1087 512 C 1078.375 515.269531 1071.601563 522.203125 1064 527.25 C 1061.589844 529 1057.371094 531.765625 1054.617188 529.214844 C 1051.71875 526.527344 1054.804688 521.054688 1055.484375 518 C 1056.574219 513.128906 1056.230469 507.609375 1058.277344 503 C 1060.863281 497.1875 1066.351563 493.28125 1069.753906 488 C 1076.863281 477 1078.664063 463.285156 1082.671875 451 C 1092 422.324219 1099.804688 394.203125 1107 365 C 1101 369.082031 1099.726563 381.425781 1097.1875 388 C 1089 409.015625 1079.527344 429.816406 1075 452 C 1072.671875 463.4375 1072.175781 480.410156 1060.996094 487.253906 C 1054.296875 491.355469 1049.320313 483.574219 1044 480.652344 C 1039.742188 478.3125 1034 480.125 1030.429688 476.566406 C 1027.433594 473.617188 1027.3125 468.6875 1025.648438 465 C 1023.304688 459.8125 1018.667969 455.65625 1017.394531 450 C 1016.277344 445.050781 1017.203125 440.550781 1014.3125 436 C 1006.871094 424.296875 999.738281 409.648438 1003.558594 395 C 1004.699219 390.628906 1007.976563 387.269531 1009.367188 383 C 1011 378 1010.695313 372.710938 1013.484375 368 C 1018.277344 360 1026.355469 354.183594 1031 346 C 1040.296875 330.257813 1042.671875 311.378906 1050.484375 295 C 1056 283.335938 1067 274.761719 1072 263 C 1045 271 1039.714844 309.113281 1029.691406 331 C 1024 343.304688 1010.535156 351.011719 1006 363 C 1004.382813 367.773438 1005.175781 373.074219 1003.957031 378 C 1002.3125 384.644531 998.199219 390.070313 997.289063 397 C 994.679688 416.824219 1002.367188 435.539063 1010.417969 453 C 1015.867188 464.824219 1024.546875 471.421875 1027.488281 485 C 1029.535156 494.449219 1028.316406 503.726563 1025.84375 513 C 1024 519.304688 1020.671875 526.671875 1024.28125 533 C 1032.691406 547.609375 1054.308594 534.132813 1065.785156 543.648438 C 1074.21875 550.640625 1069.628906 569.042969 1073 579 M 556 516 C 567.3125 508.039063 576.828125 498.394531 589 491.425781 C 602.167969 484 616.796875 479.386719 629 470.101563 C 634.367188 466.015625 639 461 642.472656 455 C 644 452.007813 644.765625 447.121094 648.226563 445.605469 C 654.925781 442.667969 664.957031 448.808594 672 449 C 688.746094 449.402344 705.214844 445.082031 722 446.042969 C 727.414063 446.355469 731.730469 450 737 450.527344 C 744 451.367188 750.773438 445.347656 758 445.128906 C 774.378906 444.640625 790.503906 449.761719 807 449 C 814.796875 448.582031 823 443.164063 830.957031 445.433594 C 835.679688 446.796875 837.183594 452.191406 839.453125 456 C 843 462 847.667969 467.230469 853 471.675781 C 863.867188 480.726563 878 484.316406 890 491.453125 C 900.453125 497.671875 908.46875 506.46875 917 515 C 909.898438 490.398438 881.257813 479.746094 862 466.65625 C 854.347656 461.453125 840.835938 451.148438 842.863281 440.148438 C 843.941406 434.277344 852.847656 439.1875 856 440.308594 C 869.242188 445.019531 886.433594 450.816406 899.980469 444.082031 C 905 441.53125 904.511719 434.800781 909 432.742188 C 931 423.023438 932.648438 460.1875 944 466 C 947.4375 467.757813 951.570313 468 954.816406 470.089844 C 958 472.183594 959.621094 476 963 478 C 966.515625 479.753906 971.464844 479.109375 974 482.429688 C 976.730469 485.640625 975.574219 490.382813 977.457031 494 C 979.714844 498.25 984.59375 500 987 504.039063 C 989.511719 507.796875 989.339844 512.332031 992.394531 515.816406 C 997.824219 522.007813 1006.222656 524.726563 1011.816406 531.003906 C 1019.503906 539.632813 1024.933594 550.417969 1031.332031 560 C 1043.285156 578 1055.9375 595.695313 1063.574219 616 C 1072.929688 641 1075.46875 675.617188 1072.828125 702 C 1071.496094 715.335938 1066.441406 727.34375 1067 741 C 1067.769531 757.636719 1066.863281 775.664063 1069.273438 792 C 1071.746094 808.792969 1077.9375 827 1075.710938 844 C 1072.992188 865 1056 879.378906 1056 901 C 1063.589844 892.59375 1065.625 879.808594 1073 871 C 1077.605469 886.621094 1068.816406 909 1064.425781 924 C 1056.964844 949.507813 1048.695313 976.773438 1035.574219 1000 C 1025.589844 1017.675781 1006.804688 1038.523438 1003.621094 1059 C 1002.601563 1065.546875 1007.539063 1071.527344 1007.890625 1078 C 1008.457031 1088.316406 1000.839844 1098.589844 995.800781 1107 C 994 1109.800781 991.480469 1117.1875 987.425781 1113.621094 C 979.378906 1106.558594 978 1092.734375 975.625 1083 C 972.558594 1070.738281 965.617188 1058.765625 965 1046 C 964.347656 1030.75 971.351563 1016.199219 969.828125 1001 C 967.765625 980.378906 950.71875 964.574219 943 946 C 928 910.128906 926.859375 867.132813 899.824219 837 C 892.652344 829.007813 884 824.308594 875 819 C 883.90625 830.050781 893.792969 839.273438 900.691406 852 C 916.476563 881.121094 923 913.535156 935.453125 944 C 942.546875 961.371094 956.210938 976.179688 959.535156 995 C 963.199219 1015.71875 952.914063 1036.503906 957.898438 1057 C 959.6875 1064.351563 963.953125 1070.804688 966.253906 1078 C 968.691406 1085.628906 968.980469 1093.742188 972.609375 1101 C 981.511719 1118.804688 992.84375 1132.648438 996.535156 1153 C 1000.59375 1175.351563 988.886719 1184.347656 972 1196.421875 C 952.886719 1210.085938 934.40625 1221.085938 911 1210.109375 C 881.535156 1196.296875 865 1162.660156 847.65625 1137 C 834.570313 1117.78125 817.976563 1102.042969 799 1088.722656 C 778.578125 1074.382813 753 1064.460938 751 1036 C 750.171875 1023 753.933594 1018.507813 761.550781 1008.832031 C 763.664063 1006.148438 763 1002 767 1001.242188 C 783.726563 998.292969 799.757813 1012.746094 814.773438 996.816406 C 823.882813 987.152344 809.320313 980.699219 811.476563 971.015625 C 812.71875 965.433594 834.25 959.71875 826.726563 953.5625 C 811 940.714844 802.660156 973.582031 795.785156 981 C 787.4375 989.78125 773.652344 989 763 993.070313 C 749.816406 998.1875 744 1011.652344 743 1025 L 742 1025 C 742 1013.6875 744 1002.132813 743.742188 991 C 743.378906 977.289063 741 963.8125 742 950 C 742.410156 945.296875 746.507813 926.066406 737 927.175781 C 727.453125 928.289063 732.945313 944.601563 734 950 C 736.363281 962.113281 733.570313 974 733 986 C 732.496094 998.402344 735 1010.621094 735 1023 L 734 1023 C 733 1016.144531 725.703125 994 715.207031 1002.71875 C 710.4375 1006.707031 722.710938 1015.171875 724.226563 1020 C 728.179688 1032.601563 724.800781 1047 718 1058 C 705.792969 1078.171875 676.390625 1087.519531 659 1103.171875 C 628.84375 1130.3125 613.59375 1169.476563 584 1197 C 568.878906 1211 547 1220.453125 527 1211.484375 C 517 1207.03125 509.523438 1198.691406 500 1193.519531 C 494.964844 1190.78125 488.363281 1190.796875 484.703125 1186 C 478.257813 1177.257813 478.984375 1161 481 1151 C 484.476563 1134 494.9375 1119.386719 502.628906 1104 C 507.855469 1093.546875 510.808594 1082.277344 513.628906 1071 C 516.171875 1060.820313 520.417969 1049.609375 519.953125 1039 C 519.273438 1023.535156 513.277344 1010 516.667969 994 C 520.632813 975.3125 534.371094 961.324219 541.394531 944 C 551.738281 918.488281 555.894531 890.75 568.269531 866 C 577.414063 847.710938 590.871094 834.019531 603 818 C 592.566406 824.089844 583.3125 829.640625 575.300781 839 C 549.882813 868.695313 548.945313 910.398438 534 945 C 525.800781 964.441406 508.34375 980.171875 506.171875 1002 C 504.914063 1014.625 509.695313 1027.390625 509.984375 1040 C 510.382813 1057.28125 504.878906 1075.019531 498.808594 1091 C 496.347656 1097.476563 494.488281 1107.683594 489.378906 1112.621094 C 485 1116.753906 482.605469 1107.671875 481 1105 C 475.902344 1095.480469 467.976563 1086.546875 469 1075 C 469.625 1069.679688 474 1065.441406 473.578125 1060 C 472.726563 1049.523438 464 1039.59375 458.8125 1031 C 449.648438 1016.046875 442 999.707031 434.246094 984 C 416.832031 949 405.675781 910.058594 404 871 C 412.878906 877.59375 416.425781 892.195313 421 902 C 426 883.414063 403.453125 864.5625 402 846 C 400.695313 827 406.429688 809.597656 408.714844 791 C 410.890625 773.265625 410.667969 753 410.660156 735 C 410.65625 723.449219 405.273438 712.449219 404.171875 701 C 403.425781 693.296875 405.625 685.664063 405.960938 678 C 406.886719 657 406.40625 637.105469 414.449219 617 C 422.964844 595.707031 436.449219 577.03125 448.996094 558 C 455.722656 547.796875 461 536.148438 469.300781 527.042969 C 473.714844 522.183594 480 520.644531 484.894531 516.472656 C 488.867188 513.074219 489.480469 508.085938 492.648438 504.210938 C 495 501.214844 498.910156 499.828125 501.363281 496.816406 C 506.847656 490.074219 514.921875 479.210938 517.640625 471 C 519.734375 464.683594 519.867188 453.152344 525.359375 448.660156 C 530.441406 444.503906 528.769531 468.304688 535.996094 467.230469 C 541.863281 466.359375 542.792969 450.316406 546.394531 446.105469 C 549.910156 442 560.285156 431.585938 565.945313 431.710938 C 571.195313 431.832031 573.9375 443.359375 580 445.515625 C 594.480469 450.671875 611.171875 442.617188 625 438.710938 C 629 437.558594 637.445313 435.257813 637.667969 442.042969 C 638 453 623.914063 462 616 467 C 592.742188 481.675781 570.886719 491.683594 556 516 M 543 505 C 556.425781 497.113281 566.460938 481.238281 580 472.203125 C 587.351563 467.300781 598.832031 464.203125 603 456 C 579 459.523438 544.238281 478 543 505 M 737 456 C 732.917969 486.15625 688.203125 493.152344 671.9375 516 C 665 525.566406 670.632813 543.429688 660.890625 550.472656 C 655.429688 554.421875 640.886719 548.019531 634 548 C 639.261719 557 653.21875 565.800781 662 571.289063 C 665 573.214844 670 576.128906 673.679688 573.804688 C 679.449219 570.097656 670.304688 557.128906 670.195313 552 C 669.949219 540.578125 678.550781 527.433594 685.464844 519 C 697.808594 504 721.929688 485.679688 743 489.617188 C 748.546875 490.65625 758.472656 493.542969 761.171875 499.042969 C 763.5625 504 755.839844 516.570313 756 523 C 756.695313 543.523438 765 562.148438 765 583 L 766 583 C 770.1875 576.589844 779 560.792969 777.253906 553 C 774.449219 541 754.878906 530 768.328125 516.324219 C 770.1875 514.4375 772.597656 512.699219 775 511.574219 C 780.925781 508.800781 786 514.042969 789.960938 518.015625 C 798.457031 526.683594 806.246094 538.679688 807.683594 551 C 808.585938 558.710938 800.246094 565 801.425781 572 C 802 575.785156 807.238281 575.003906 810 574.210938 C 817.605469 572.03125 823.851563 565.574219 830 561 C 835.316406 556.828125 841 553.207031 844 547 C 837.910156 548.179688 822.71875 554.679688 817.226563 552 C 813.730469 550.09375 813.175781 544.402344 812.425781 541 C 810.550781 532.511719 810.175781 523.113281 804.609375 516 C 791 498.777344 769.410156 493 753 479.535156 C 744.558594 472.609375 743.5625 463.441406 737 456 M 676 476 C 687.933594 473.164063 699.484375 465.144531 710 459 C 698.613281 450.371094 681.226563 467 676 476 M 766 457 C 770.960938 464.574219 791 473.417969 800 475 C 791.980469 461.125 781.234375 457.003906 766 457 M 877 457 C 881.347656 463.636719 893.414063 467.113281 900 471.722656 C 913.351563 481.066406 924.523438 492.808594 934 506 C 936.945313 499 930.902344 490.46875 926.761719 485 C 915.265625 469.824219 896 458.523438 877 457 M 307 477 C 308.75 484.386719 311.917969 492.214844 317.300781 497.710938 C 321.410156 502 328.816406 505.4375 329.417969 512 C 330.183594 520.378906 309.3125 533.605469 303 538 C 303 523 302 508 302 493 C 302 487.617188 302.203125 480.285156 307 477 M 1174 479 L 1175 538 C 1168.335938 533.832031 1148.820313 521.539063 1148.503906 513 C 1148.191406 504.550781 1160 499.535156 1164.609375 494 C 1168.40625 489.328125 1169.71875 483.238281 1174 479 M 661 484 C 645 494.78125 630.664063 507.28125 616 519.589844 C 608.761719 525.664063 599.605469 531.386719 594 539 C 614.777344 533.316406 632.683594 516.359375 648 502.089844 C 652.652344 497.753906 663 491.449219 661 484 M 816 484 C 818.605469 492 825.320313 496.394531 831 502.003906 C 845 516 861.507813 532.386719 881 538 C 877.332031 530.132813 869.1875 525.65625 863 520 C 848.652344 506.589844 834.394531 491.660156 816 484 M 438.996094 494 C 443.273438 493.140625 443.84375 516.09375 438.6875 517.457031 C 428 520.273438 432.367188 495.128906 438.996094 494 M 1039 520 C 1037.773438 516.722656 1037 513.457031 1036.589844 510 C 1036 507.140625 1034 494.683594 1038.390625 494 C 1041.671875 493.34375 1043.492188 498.746094 1044.300781 501 C 1047 509 1046.261719 515.238281 1039 520 M 917 515 L 918 516 L 917 515 M 403 527 L 402 528 L 403 527 M 1076 527 L 1075 528 L 1076 527 M 710 531 C 711.628906 551.648438 704 571.117188 705 592 C 706 614.214844 713.996094 635.6875 714 658 L 716 658 C 716 626.003906 713.414063 595 716.835938 563 C 717.882813 553.230469 720.648438 536.535156 710 531 M 354 547 C 353.324219 550.578125 352.316406 554.347656 352.261719 558 C 352 576.355469 376.214844 569.644531 387 573.484375 C 391.609375 575.125 394.324219 579.039063 398 582 C 396 561.078125 377.878906 569.054688 365 561.632813 C 358.71875 558.007813 359 550.816406 354 547 M 1123 547 C 1121 552.207031 1119.9375 557.578125 1114.957031 561 C 1100.484375 570.382813 1085.355469 559.089844 1079 581 C 1083.644531 579 1087 575 1092 573.226563 C 1104.648438 569.113281 1126.734375 575.503906 1125.957031 555 C 1125.832031 551.730469 1125 549.429688 1123 547 M 630 578 C 633.359375 585 642.613281 589.40625 647.960938 595 C 658.96875 606.511719 669.347656 621.3125 673 637 C 679.363281 663.160156 659.609375 684.554688 656 709 C 663.929688 703 667 692.722656 671.257813 684 C 676.207031 673.746094 682 662.550781 682.910156 651 C 684 633.367188 674.414063 615.324219 666.753906 600 C 663.21875 593 658.992188 585.382813 652 581.226563 C 645 577.070313 637.648438 578.527344 630 578 M 821 708 C 817.210938 682.351563 795.734375 660.210938 804 633 C 808.691406 617.757813 819.855469 604.015625 831 593.003906 C 836 588.015625 843.867188 584.410156 847 578 C 840 578 832.324219 577 826 580.417969 C 819 584.164063 815.441406 591.457031 811.71875 598 C 803.3125 612.78125 793.6875 630.402344 794 648 C 794.472656 661.628906 800.949219 675.414063 807.578125 687 C 811.199219 693.328125 814.859375 704 821 708 M 737 587 C 725.433594 637 726.425781 688.789063 726 740 C 734.945313 734 735 712 736 702 C 738.769531 677.695313 736.992188 652.449219 737 628 C 737 614.320313 739 600.703125 739 587 L 737 587 M 658 639 C 655 633.410156 648.433594 632.621094 644.328125 628 C 639.308594 622.246094 636.6875 614.785156 631.675781 609.039063 C 624 600.367188 612 596.320313 601 595.050781 C 593.421875 594.1875 586.550781 594.226563 579 595.617188 C 577.222656 596 572.207031 596.4375 572.207031 599.050781 C 572.207031 604 589.835938 602 593 602.003906 C 605 602.148438 618 606.75 626.910156 615.175781 C 636.863281 624.695313 643 636.804688 658 639 M 819 639 C 837.898438 636.441406 844.402344 616.699219 860 608.324219 C 875.519531 600 891.871094 604.53125 908 600 C 895.453125 585.636719 858.628906 595.5625 847.183594 607.175781 C 841.273438 613.171875 838.828125 621.550781 833.480469 628 C 829.414063 632.832031 822 633.664063 819 639 M 765 596 C 763 610.800781 760.519531 626.03125 762.285156 641 C 762.832031 645.628906 761.914063 652.113281 766 655 C 766 635.1875 769.511719 616 767 596 L 765 596 M 449 705 L 450 705 C 463.945313 684 476.96875 663.714844 493.25 644 C 501.691406 633.78125 515.578125 620.425781 518 607 C 505.902344 611.6875 497 626.078125 489.351563 636 C 472.480469 657.792969 449 675.21875 449 705 M 960 607 C 967.792969 630 988.972656 648.253906 1003.574219 667 C 1012.792969 678.832031 1018.644531 693.710938 1028 705 C 1032.691406 677.257813 999.347656 650.597656 984.628906 631 C 978.167969 622.402344 970.621094 610.605469 960 607 M 741 621 C 741 651.015625 738.269531 681.117188 741.84375 711 C 743 721.078125 743.785156 735.65625 750 744 C 754.921875 715 751 681.453125 749.988281 652 C 749.667969 643.15625 749.605469 626 741 621 M 523 632 C 536.898438 630 548.886719 629 563 630 C 565.492188 630.09375 576 629.699219 575.367188 634.1875 C 574.199219 641.078125 558 645.554688 554 652 L 558 652 C 554.988281 659.390625 562.59375 660.648438 568 663.257813 C 573.191406 665.761719 578.355469 669.113281 584 670.476563 C 590.902344 672.140625 598.976563 671.058594 604.894531 675.648438 C 615.359375 683.765625 606.644531 697.335938 604 707 C 630 699.460938 639.839844 656.460938 623.609375 636.003906 C 610.410156 619.371094 589 625.597656 571 626 C 563.34375 626.09375 555.664063 624.09375 548 624.003906 C 539 624 528.945313 624.429688 523 632 M 873 707 C 871.453125 698.324219 863.460938 689 869 680.039063 C 876.234375 668.492188 901 667.644531 913 662.269531 C 918.65625 659.722656 925.652344 653.488281 919.832031 647.183594 C 914.605469 641.519531 906.667969 638.40625 901 633 C 918.304688 628.136719 936.648438 628.03125 954 632 C 951 626.539063 944.796875 625.496094 939 625.089844 C 927.296875 624.265625 915.742188 625.273438 904 625 C 896.179688 624.792969 890.640625 622.699219 884 628 C 880 617 859.597656 630 855.214844 635.015625 C 837 655.765625 848.804688 696.558594 873 707 M 598 645 L 599 649 L 598 649 C 597.691406 647.242188 597.59375 646.660156 598 645 M 398 699 L 397 699 C 393.996094 691.683594 389.484375 683.710938 388 676 C 399 678.667969 398 689.824219 398 699 M 1090 676 C 1087.847656 684 1084 692 1080 699 C 1076.320313 690.230469 1081 679.046875 1090 676 M 441 679 L 442 680 L 441 679 M 1035 679 C 1035 687.300781 1037.261719 695.726563 1036.894531 704 C 1035.269531 741 1024.871094 777.703125 1009 811 C 996.519531 837.601563 968.535156 856.777344 971 888 L 973 888 C 974.972656 863.226563 998.484375 849 1010.394531 829 C 1028.324219 799 1035.242188 767.25 1039.285156 733 C 1040.808594 720.101563 1041.417969 705 1039.570313 692 C 1038.9375 687.585938 1038.730469 681.828125 1035 679 M 440 681 C 434 727.511719 437 774.621094 459.320313 817 C 464.800781 827.445313 470.546875 838 478 847 C 489.449219 860.523438 501.664063 869.621094 504 888 L 505 888 C 511.664063 865.445313 489.359375 847 478.34375 830 C 459.847656 801.714844 448.996094 769.171875 443.433594 736 C 441.308594 723.316406 440.851563 711 441 698 C 441 692.367188 443.644531 685.808594 440 681 M 687.734375 685.347656 C 685.53125 686.414063 684.675781 692 684 694 C 680.660156 705 683.972656 713.402344 682.8125 724 C 681.734375 734 674.582031 742.363281 668.871094 750 C 666.601563 753.039063 661.949219 757.648438 661.816406 761.683594 C 661.691406 765.488281 670.894531 764.011719 673 763.347656 C 691.542969 757.503906 692.976563 720.617188 693 705 C 693 702.746094 692.671875 683 687.734375 685.347656 M 791 684 C 784.1875 687.5625 785 695.261719 785 702 C 785 717.773438 786.996094 734.28125 793 749 C 795.464844 755 801.445313 766.636719 809.851563 764 C 816.710938 761.722656 807 750.230469 805 747 C 800.703125 739.222656 795 730.1875 794.390625 721 C 794 715.613281 796.410156 710.519531 795.824219 705 C 795 697.800781 791.59375 691.261719 791 684 M 493 719 L 494 719 L 494 741 L 493 741 C 493 739.148438 493.300781 739.648438 492 739 C 488.808594 750 498.601563 759.035156 508 763 C 525.625 770.167969 551.539063 765 570 762.714844 C 577.5625 761.820313 592 763 595.242188 754 C 598.855469 744.050781 583.476563 738.210938 578.789063 732 C 573.402344 724.777344 571.867188 715.46875 566.894531 708 C 556.925781 693.035156 539.441406 691 523 693.4375 C 509.679688 695.523438 495.804688 700.375 486 710.089844 C 482.699219 713.480469 477.894531 718.796875 478.332031 724 C 479.359375 736.191406 490.824219 723.363281 493 719 M 986 739 C 983.878906 740.464844 983.527344 741.457031 983 744 L 982 744 L 983 720 C 986.320313 725 999.945313 734.175781 997 721 C 994 707 974.472656 698.1875 962 695.234375 C 944 691 923 689.765625 910.527344 706 C 904.699219 713.527344 902.925781 723.324219 897.363281 731 C 892.328125 738 876.425781 744.15625 880.742188 755 C 884.898438 765.351563 910 764.289063 919 763.285156 C 942.675781 760.644531 983 776.457031 986 739 M 624 769 C 655.757813 766.402344 670.328125 728.253906 674 701 C 667.386719 704.226563 664.863281 711.589844 659.699219 716.535156 C 653.355469 722.609375 643.78125 725 638.433594 732.015625 C 633.898438 738.078125 637.730469 745.332031 635.761719 752 C 633.640625 759.171875 627.179688 762.722656 624 769 M 804 701 C 805 728.011719 820.992188 766.292969 852 769 C 849.300781 763.199219 843.546875 759.296875 841.648438 753 C 839.75 746.707031 843.5625 740 840.542969 734.003906 C 836.683594 726.351563 827 724.085938 821 718.789063 C 814.886719 713.53125 811 704.800781 804 701 M 530 704 L 530 705 C 504.617188 712.539063 516.230469 750.574219 541 746.785156 C 555.738281 744.535156 561.332031 726.804688 554 715 C 548.46875 706.078125 540.765625 704 531 704 C 543 699 562.234375 705 566.199219 718 C 571.523438 735.648438 558.886719 757.3125 541 761.179688 C 519 766 502 749.394531 502 728 C 501.992188 722.230469 501 715.761719 505.277344 711.109375 C 511 704.636719 521.941406 704.023438 530 704 M 934 704 L 934 705 C 910.347656 709.773438 915.449219 749.753906 940 746.8125 C 968.371094 743.417969 963.484375 704.019531 936 704 C 940.480469 702.121094 946.261719 703 951 703.578125 C 957.539063 704.515625 965.851563 705.296875 970.773438 710.226563 C 989.222656 728.679688 966 759.441406 946 762.5625 C 909.921875 768.183594 891.179688 704.117188 934 704 M 534 715.660156 C 540.335938 715.035156 541.257813 724.363281 534.996094 725.457031 C 528.296875 726.628906 527.5 716.304688 534 715.660156 M 940.949219 716 C 947 716.476563 946.304688 726.183594 940 725.535156 C 933.839844 725 934.4375 715.328125 940.949219 716 M 902 736 C 905.765625 742 907.425781 750.140625 909 757 C 899 755 897.195313 744 902 736 M 575 738 C 575 746.65625 575.667969 754.703125 566 758 C 568 751.410156 570 743 575 738 M 494.667969 741.667969 C 494.722656 741.722656 494.777344 742.777344 494.332031 742.332031 C 494.277344 742.277344 494.222656 741.222656 494.667969 741.667969 M 428 765 C 424.191406 773.59375 422.210938 783 419.574219 792 C 414.40625 809.671875 399.628906 835.609375 419 850 C 419 842.332031 417 834.554688 418.898438 827 C 422.742188 811 442.5625 780.347656 428 765 M 1046 765 C 1045.8125 774.027344 1043.988281 783 1045.617188 792 C 1048 805.394531 1056.660156 816.679688 1059.328125 830 C 1060.578125 836.242188 1058 842.703125 1058 849 C 1079.328125 838.097656 1060.6875 801.394531 1055.671875 786 C 1053.410156 779.0625 1053 768.683594 1046 765 M 521 1154 C 530.921875 1145.5 535.449219 1128.367188 538 1116 L 539 1116 C 539 1128.070313 541.480469 1144.195313 553 1151 C 560.234375 1155.136719 582.234375 1157.664063 582.808594 1145 C 583.171875 1137 572.371094 1137 567 1135 C 559 1131.78125 554.238281 1125.25 553 1117 C 568.515625 1123.675781 586 1121.140625 600 1112 L 600 1111 C 583.246094 1109 564.847656 1110.199219 550 1100.53125 C 545.488281 1097.5625 537.710938 1085.210938 543 1079.789063 C 544.886719 1078 548.949219 1080 551 1080.570313 C 556.457031 1082.097656 577.363281 1086.785156 577.363281 1076.027344 C 577.363281 1070.171875 565 1069.1875 561 1067.546875 C 549.71875 1063 540.472656 1054 541 1041 C 541.648438 1030 551 1022.824219 552.726563 1012 C 557.277344 982.828125 560.21875 953.316406 569 925 C 577.535156 897.648438 591.851563 871.71875 607.667969 848 C 618 832.285156 629.761719 817.5 642.984375 804 C 650.242188 796.59375 662.222656 788.726563 666 779 C 645.445313 788.160156 626.28125 812.257813 611.871094 829 C 574.347656 872.597656 558.953125 923.066406 546.347656 978 C 542.96875 992.730469 536.238281 1007 534.289063 1022 C 533.253906 1030 531.472656 1041.113281 532.304688 1049 C 533 1056.667969 536.859375 1064.195313 536.386719 1072 C 535.980469 1078.65625 529.214844 1082.46875 528.429688 1089 C 527.523438 1096.570313 532.480469 1104.15625 531.824219 1112 C 530.566406 1127.125 524.355469 1139.496094 521 1154 M 622 780 C 610.261719 787 593.480469 802.816406 589 816 C 602.503906 813.589844 605.871094 801 614 792 C 617 788.691406 622.984375 785 622 780 M 814 781 C 830.621094 804.597656 853.460938 823.785156 869.972656 848 C 890.511719 878.125 906.695313 913.3125 914.574219 949 C 918.535156 967 919 985 921.285156 1003 C 922 1009.636719 921.992188 1017 924.921875 1023 C 930.277344 1034.28125 938.765625 1038.003906 934.480469 1052 C 929.683594 1067.667969 908.761719 1071.351563 895 1067.230469 C 891.800781 1066.269531 878.242188 1059.265625 877.464844 1066.148438 C 876.949219 1070.71875 882.632813 1074.332031 886 1076.203125 C 895.820313 1081.667969 907.804688 1084.71875 919 1082.332031 C 922.769531 1081.527344 929.921875 1077.007813 933.566406 1079.121094 C 940.421875 1083.09375 930.636719 1097.085938 926.90625 1100 C 913.585938 1110.207031 893 1111 877 1111 C 887.355469 1124.40625 910.683594 1121.023438 925 1117 C 921.976563 1123.453125 919.644531 1130 913 1133.582031 C 907.328125 1136.683594 895 1135.777344 893.761719 1144.015625 C 891.765625 1157 916.367188 1154.820313 922.996094 1151.597656 C 935.523438 1145.503906 937.898438 1128.46875 938 1116 L 939 1116 C 940.875 1128.6875 947.691406 1143 954 1154 C 956.46875 1146 948.386719 1133.09375 946.375 1125 C 943.179688 1112.140625 948.917969 1101.234375 947.878906 1089 C 947.28125 1082.035156 939.90625 1078.03125 939.304688 1071 C 938.242188 1058.65625 946 1047 944.828125 1034 C 943.738281 1022.535156 942.84375 1010.003906 939.25 999 C 936.226563 989.734375 930.847656 981.476563 928.378906 972 C 914.894531 920.269531 902.273438 874.347656 867.574219 832 C 856.347656 818.296875 844.460938 804.269531 831 792.730469 C 825.867188 788.328125 820.675781 782.734375 814 781 M 854 782 C 861.390625 793.8125 872.855469 813.039063 887 816 C 883.820313 804.640625 866.222656 783.253906 854 782 M 572 959 C 577.289063 954.820313 577.878906 948.714844 580.890625 943 C 586.417969 932.503906 594.96875 923 597.480469 911 C 599.433594 901.777344 594.855469 896 600.207031 887 C 602.832031 882.589844 613.355469 863.679688 619.726563 866.257813 C 622.628906 867.429688 623.496094 872.363281 624.277344 875 C 627.867188 887.09375 623.644531 897.53125 613 904.453125 C 609.824219 906.515625 602.714844 908.65625 602.175781 913.078125 C 601.59375 918 609.671875 921.667969 612 925.089844 C 618.464844 933.804688 615.738281 945.273438 621 954 C 623.429688 946.828125 622.945313 929.128906 634 934 C 633.96875 923 628.503906 912.1875 630.214844 901 C 631.480469 892.710938 638.632813 887.0625 643.675781 881 C 651.355469 871.765625 657.527344 861.648438 666 853 C 663 858.246094 660 863 659 869 C 672.417969 863.414063 684 854.195313 698 849.746094 C 709.316406 846.132813 721.296875 847 733 847 C 748.636719 847 764.851563 846 780 850.4375 C 792.996094 854.375 803.53125 863.808594 816 869 C 813.769531 854.121094 800.886719 843.796875 787 840.15625 C 773.910156 836.722656 761.179688 839.308594 748 839 C 724 838.402344 702.210938 835.449219 679 843 L 679 842 C 688.808594 837.773438 697.589844 832.398438 708 829.425781 C 740.210938 820.234375 777.792969 825.15625 804 847.144531 C 814 855.671875 820.714844 866.199219 828 877 C 833.1875 884.453125 843.253906 890 845.46875 899 C 848.273438 910.554688 841.925781 921.683594 841 933 C 852.527344 929 851.5625 946.011719 855 954 C 860.210938 945.304688 856.535156 933.648438 863.394531 925.015625 C 865.960938 921.78125 873.671875 917.785156 873 913.039063 C 872.511719 908.492188 865.246094 906.039063 862 903.78125 C 851.851563 896.722656 848.210938 886.699219 851.722656 875 C 852.53125 872.296875 853.582031 867.300781 856.394531 866 C 862.761719 862.796875 874 882.355469 876 887 C 879.765625 895.261719 876.601563 904.503906 879.359375 913 C 883.394531 925.425781 893 935.097656 898 947 C 901.457031 954.773438 901 964.34375 908 970 C 906.691406 939.554688 896.585938 905.328125 879.480469 880 C 873.207031 870.710938 864.597656 864.167969 857.171875 856 C 848.890625 847 841.691406 836.722656 832.984375 828.015625 C 816.523438 811.554688 787.976563 790.503906 764 804 C 770.378906 809.546875 784.699219 808.417969 793 811.4375 C 809.65625 817.492188 823.605469 828.605469 836 841 C 840.714844 845.714844 852.492188 854.074219 849.898438 862 C 846.820313 871.363281 838.785156 866.800781 834 862 C 817.789063 845.496094 803.945313 824.707031 780 819 C 763.867188 815 746.742188 822.746094 731 816.535156 C 716.972656 811.003906 708.359375 799 692 800.089844 C 667.636719 802 647.882813 822.75 633 840 C 622.457031 852.222656 609.347656 863.109375 599.761719 876 C 584.367188 896.695313 572 933.265625 572 959 M 697 808.375 C 700 808.207031 713.3125 809.175781 710.824219 814.828125 C 708.402344 820.339844 696 821.414063 691 823.453125 C 678.257813 828.613281 665.378906 837.816406 656.175781 848.003906 C 650.703125 854.054688 642.746094 870.148438 633 869.238281 C 615.441406 867.597656 632.378906 847.625 637 843 C 653 827 672.867188 809.679688 697 808.375 M 931 842 C 934.308594 853.488281 942.671875 863 946.933594 874 C 954.183594 893 950.5625 931 972 941 C 970.953125 916.660156 964.816406 884 951.933594 863 C 946.914063 855 940.195313 845.5625 931 842 M 504 941 C 513.257813 938 517 927.796875 519.371094 919 C 522.601563 906.457031 522.988281 893.246094 527.4375 881 C 532.367188 867.429688 541.351563 856.109375 547 843 C 538.171875 846.003906 531.964844 855.511719 527 863 C 512.839844 884.378906 507.6875 916 504 941 M 679 843 L 679 844 L 671 849 C 673.300781 846.027344 675.496094 844.359375 679 843 M 670 849 C 668.671875 850.753906 667.753906 851.671875 666 853 C 667.328125 851.246094 668.246094 850.328125 670 849 M 786.617188 866.132813 C 781.605469 869.449219 792.375 884.269531 797.394531 881 C 802.6875 877.375 792 862.539063 786.617188 866.132813 M 708 935 L 709 935 L 708 942 C 724.792969 933.789063 713.996094 905.71875 703.699219 896.394531 C 699.949219 893 692.488281 893 689.789063 888.722656 C 686.707031 884 702.191406 868.269531 692.9375 867.1875 C 682.1875 866 675 879.1875 673.464844 888 C 672.378906 894.074219 673.695313 901.222656 678.328125 905.605469 C 684.582031 911.523438 695.566406 914 688 925 C 677.863281 940.152344 656 931 647.636719 919 C 644.292969 914.3125 643.8125 906.320313 639.363281 902.621094 C 635.914063 899.757813 632.800781 903.726563 632.230469 907.003906 C 627.558594 934 660.902344 941.121094 680 944 C 690 945.308594 702.898438 945.679688 708 935 M 740 871 C 729.429688 877.019531 734.351563 896.257813 735 906 C 735.214844 908.421875 734 917.304688 737.414063 918.078125 C 741 919 739.96875 908.761719 740 907 C 740.925781 895 739.964844 883.195313 740 871 M 768 943 L 767 935 C 782.328125 949 815.984375 945.46875 831.984375 932.609375 C 837.769531 928 851.515625 908.371094 841.738281 901.710938 C 836 898 833.878906 910 832.480469 913 C 827.351563 924.28125 815 934.585938 802 932.699219 C 799.175781 932.289063 796.425781 931.378906 794 930 C 776.8125 919.058594 791.769531 912.167969 797.992188 902 C 804.710938 891 792.71875 888.34375 784 888.371094 C 764.171875 888.433594 749.734375 932.632813 768 943 M 766.667969 933.667969 C 766.722656 933.722656 766.777344 934.777344 766.332031 934.332031 C 766.277344 934.277344 766.222656 933.222656 766.667969 933.667969 M 710 934 L 709 935 L 710 934 M 468 935 C 468 961.777344 480 986.089844 488.332031 1011 C 491.695313 1021.09375 492.972656 1034.292969 502 1041 C 502 1013.8125 488.753906 990.816406 479.425781 966 C 475.699219 956.089844 474.882813 943.335938 468 935 M 1007 935 C 1003.933594 972.550781 973 1002.128906 973 1041 C 981.5625 1036 983.183594 1022.660156 986.425781 1014 C 995.585938 989.496094 1008.980469 961.558594 1009 935 L 1007 935 M 653 951.65625 C 634.730469 957.238281 665.578125 966.488281 666.351563 973.003906 C 667.183594 980 658.382813 984.625 659.382813 992 C 661.960938 1011.011719 694.296875 1005.699219 705.996094 1000.53125 C 708.777344 999.304688 713.363281 996.273438 710.953125 992.652344 C 707.726563 987.804688 693.386719 986.546875 688 983.738281 C 683 981.207031 677.886719 978 675 973 C 670 964.34375 668.617188 947 653 951.65625 M 696.617188 955.175781 C 693.425781 957 696.882813 964.695313 697.878906 967 C 701.339844 975 710.546875 984.785156 719.941406 979 C 730.796875 972.117188 709.171875 963.390625 705 959.820313 C 703.199219 958.28125 699.449219 953.566406 696.617188 955.175781 M 774.996094 956.695313 C 768 958.449219 750.304688 980.765625 765 977.46875 C 771 976.097656 777.882813 972 780.566406 966 C 782.667969 961.425781 781.203125 955.117188 774.996094 956.695313 M 451 975 C 452.75 986.675781 459.238281 998.101563 463.601563 1009 C 472.867188 1032.144531 482.265625 1056 494 1078 L 495 1078 C 495 1051 483.78125 1018.46875 468.996094 996 C 463.894531 988.246094 459.222656 979.765625 451 975 M 1025 976 C 998.195313 996.425781 980.683594 1046 980 1079 C 987.8125 1074.394531 989.742188 1063 992.8125 1055 C 999.886719 1036.738281 1008.425781 1019 1016 1001 C 1018.984375 994.398438 1026.488281 983.183594 1025 976 M 554 1014 C 561 1010.222656 568.59375 999.542969 571 992 C 559.21875 992.636719 555.378906 1003.785156 554 1014 M 903 992 C 906.527344 999.457031 912.375 1008.433594 920 1012 C 919 1001.800781 914 992.269531 903 992 M 918 1038 C 917.339844 1023.785156 903.628906 1019 893 1012.550781 C 889.335938 1010.351563 883.753906 1005.363281 879 1007 C 873.8125 1008.539063 874.566406 1016.25 876.859375 1020 C 881.421875 1027.421875 891.292969 1029.21875 899 1031.425781 C 905.460938 1033.28125 911.457031 1036.449219 918 1038 M 599 1013 L 599 1014 L 603 1015 C 601.6875 1013.382813 601 1013.308594 599 1013 M 583 1018.085938 C 580.394531 1019.597656 577.796875 1028 582.949219 1025.671875 C 586.566406 1024.109375 588 1015.402344 583 1018.085938 M 562 1028.800781 C 557.765625 1030.316406 551.964844 1045 558 1043.246094 C 563.230469 1042 568.898438 1026.363281 562 1028.800781 M 738 1049 C 738 1055 737.753906 1065 741.703125 1069.722656 C 744.855469 1073.507813 751.59375 1074.105469 756 1075.8125 C 764.777344 1079.210938 772.949219 1084.160156 781 1089 C 812.226563 1107.773438 835.425781 1130.238281 854.945313 1161 C 868 1181.703125 883.289063 1215.796875 909 1222.710938 C 924.699219 1227 942.867188 1224.761719 957 1216.664063 C 967.699219 1210.53125 975.207031 1201.722656 988 1200 C 982.714844 1207.484375 975 1211.390625 967 1215.21875 C 946.910156 1224.703125 916 1233.28125 896 1219.425781 C 872.167969 1203 857.222656 1169.015625 840.265625 1146 C 816 1113.070313 782.914063 1087.664063 744 1075 C 752 1081.585938 762.550781 1085.203125 771 1091.652344 C 778.769531 1097.585938 786.835938 1104.332031 791.652344 1113 C 792.96875 1115.371094 796.40625 1121.597656 792.550781 1123.355469 C 786.84375 1126 770.320313 1117.292969 764 1116 C 745.304688 1111.71875 728.59375 1112 710 1116.234375 C 702.796875 1118 696 1120.71875 689 1123 C 687 1123.511719 682.703125 1124.765625 682 1121.679688 C 681 1116.179688 688.675781 1109.367188 692 1106 C 704.347656 1093.507813 720.558594 1087.234375 733 1076 C 692.753906 1085.3125 658 1117.121094 633.652344 1149 C 623.351563 1162.492188 615 1182.230469 602 1193 C 618.832031 1162.765625 639.914063 1131.707031 667 1109.804688 C 680.871094 1098.585938 696.226563 1089.085938 712 1080.78125 C 718.820313 1077.191406 729.519531 1076.226563 734.347656 1070 C 739 1063.652344 735.199219 1055.671875 738 1049 M 863.757813 1051.085938 C 860.40625 1053.472656 864.996094 1061 868.394531 1058.246094 C 871.714844 1055.613281 867.335938 1048.535156 863.757813 1051.085938 M 604 1063 C 607.179688 1062.199219 619.535156 1058 615.914063 1052.617188 C 611.597656 1046.394531 604.824219 1060.203125 604 1063 M 591 1065.574219 C 585 1067.246094 583.851563 1076.253906 591 1074 C 597.683594 1071.765625 600.402344 1063 591 1065.574219 M 733 1075 L 734 1076 L 733 1075 M 739 1119 C 739.675781 1134.757813 744.425781 1144.484375 758 1153 L 758 1154 C 752.390625 1152 747 1148.527344 743.214844 1144 C 742 1142.671875 739.675781 1137.054688 737.765625 1137.054688 C 735.453125 1137.054688 732.808594 1143.339844 731.480469 1145 C 727.285156 1150 721.167969 1153.222656 715 1155 L 715 1154 C 722.753906 1150.753906 730.378906 1146.265625 733.441406 1138 C 735.78125 1131.683594 734.636719 1124.480469 739 1119 M 784 1161 L 783 1161 C 775.847656 1139.019531 765 1129.796875 744 1121 C 748.382813 1120.230469 753 1123.359375 757 1125.144531 C 771.660156 1131.75 782.566406 1144.574219 784 1161 M 724 1124 L 723 1125 L 724 1124 M 722 1125 L 722 1126 C 704.730469 1131 696.449219 1145.695313 692 1162 C 687.445313 1146.597656 708.617188 1127.304688 722 1125 M 682 1167 C 680.597656 1171.351563 683.339844 1175.011719 685 1179 C 678.757813 1174.101563 674.9375 1164 677.726563 1156 C 679 1152.3125 683.25 1149.117188 683 1145.003906 C 682.839844 1132.75 665.398438 1142.140625 661 1145.527344 C 657 1148.503906 653.988281 1152.191406 650 1155 C 653.707031 1148 678.394531 1125.480469 684.382813 1142.042969 C 687.738281 1151.332031 672 1158.675781 682 1167 M 826 1155 C 818.308594 1150.554688 813 1141.558594 804 1139.535156 C 797 1138 791.207031 1143.105469 794.558594 1150 C 795.894531 1152.75 797.6875 1155.226563 799 1158 C 792 1152.515625 787.699219 1137.363281 801 1137.183594 C 811.832031 1137.035156 820.726563 1146.570313 826 1155 M 760 1154 L 759 1155 L 760 1154 M 714 1155 L 713 1156 L 714 1155 M 762 1155.332031 C 762.773438 1155.332031 762 1155.832031 761.667969 1155.667969 L 762 1155.332031 M 765 1156 L 764 1157 L 765 1156 M 785 1162 L 784 1163 L 785 1162 M 798 1165 C 797.191406 1171 794.773438 1175.726563 792 1181 L 791 1181 C 792.78125 1176.019531 795.710938 1172.132813 793 1167 L 798 1165 M 773 1171 L 773 1172 C 751.796875 1177 730.75 1179 710 1173 C 714.46875 1171.125 724.515625 1166.503906 729 1166.253906 C 732.519531 1166.054688 735.492188 1168.574219 739 1168.40625 C 742 1168.261719 744.835938 1166.164063 748 1166.617188 C 751.441406 1167.113281 753.820313 1170.089844 757 1171.261719 C 761.972656 1173.09375 767.9375 1171.640625 773 1171 M 695 1168 L 695 1169 L 691 1169 C 692.507813 1168.316406 693.316406 1168.175781 695 1168 M 699 1169 L 698 1170 L 699 1169 M 776 1170.332031 C 776.773438 1170.332031 776 1170.832031 775.667969 1170.667969 L 776 1170.332031 M 708 1171 L 707 1172 L 708 1171 M 669 1175 L 668 1176 L 669 1175 M 672 1177 L 671 1178 L 672 1177 M 674 1178 L 673 1179 L 674 1178 M 602 1194 C 601.453125 1195.636719 601.636719 1195.453125 600 1196 C 600.546875 1194.363281 600.363281 1194.546875 602 1194 M 600 1197 C 598.898438 1198.457031 598.457031 1199 597 1200 C 598 1198.542969 598.542969 1198.101563 600 1197 M 597 1201 C 579.722656 1231.03125 546.785156 1230.199219 518 1218.796875 C 508.425781 1215.003906 495.589844 1209.8125 491 1200 C 502.867188 1202.480469 509.886719 1211 520 1216.664063 C 535.738281 1225.6875 559.597656 1228.769531 576 1219.652344 C 584.4375 1215 589.667969 1207 597 1201 M 543 1233 C 529.261719 1240 511 1230 502 1219 C 515.28125 1219.578125 532 1225.601563 543 1233 M 974 1219 C 964.710938 1232.074219 949 1236 934 1234 C 942.574219 1225.40625 962.171875 1220.59375 974 1219 M 821 1228 C 817.191406 1237.023438 819 1247.621094 820.574219 1257 C 823.679688 1277 827.816406 1299.800781 837 1318 L 838 1318 C 836.417969 1298.109375 830.566406 1277.621094 826.804688 1258 C 824.996094 1248.570313 825 1236.65625 821 1228 M 656 1231 C 648 1246 645.542969 1266.199219 647.171875 1283 C 647.875 1290.289063 652.214844 1297.761719 651.53125 1305 C 649 1330.242188 633 1344.628906 623 1366 C 633.390625 1362.496094 641 1351.136719 646.28125 1342 C 661.480469 1315.472656 660 1286.285156 656.28125 1257 C 655.28125 1249.332031 658.550781 1237.53125 656 1231 M 611 1247 C 610.824219 1268.082031 604 1288.757813 604 1310 L 606 1310 C 606 1295 610.851563 1279.761719 613.609375 1265 C 614.71875 1259.074219 616.835938 1251 611 1247 M 477 1264 C 478 1287.550781 486.710938 1313.691406 498.28125 1334 C 502.4375 1341.292969 506.578125 1351.113281 515 1354 C 508 1333.644531 495.554688 1315.59375 489 1295 C 485.851563 1285 485.773438 1271 477 1264 M 603 1311 L 603 1323 L 604 1323 C 604.957031 1319 605 1315.113281 605 1311 L 603 1311 M 602 1324 C 601.941406 1326.785156 601.648438 1329.289063 601 1332 C 603.6875 1329.339844 604 1327.210938 602 1324 "/>
</g>
</svg>
