<?xml version="1.0" encoding="UTF-8"?>
<svg xmlns="http://www.w3.org/2000/svg" xmlns:xlink="http://www.w3.org/1999/xlink" width="1500pt" height="1500pt" viewBox="0 0 1500 1500" version="1.1">
<g id="surface1">
<path style=" stroke:none;fill-rule:nonzero;fill:rgb(0%,0%,0%);fill-opacity:1;" d="M 422 1320 C 415.53125 1310 403 1304.148438 396.453125 1293 C 375.28125 1257.480469 367.242188 1203 378 1163 C 384.851563 1138.523438 403.738281 1116.746094 408 1092 L 409 1092 C 408.222656 1129.679688 388 1164.804688 388 1203 L 390 1203 C 390.320313 1187.445313 395.335938 1171 399.578125 1156 C 408.296875 1125.410156 419.515625 1094.828125 433 1066 C 437 1075.679688 437.886719 1086.316406 442.308594 1096 C 464.746094 1145.140625 492.6875 1196.695313 500 1251 L 499 1251 C 494.574219 1232 484.5 1213.359375 477.574219 1195 C 475.328125 1189.046875 473.585938 1178.40625 468 1175 C 476.453125 1207.679688 481.730469 1243.710938 497.257813 1274 C 518.800781 1316.015625 558.882813 1347.027344 598 1371.679688 C 615.394531 1382.644531 637.996094 1403 659 1405 C 649.6875 1392.050781 632.394531 1384.542969 620 1374.789063 C 592 1353 563.882813 1330.359375 542.234375 1302 C 508.746094 1258.121094 511.929688 1200.402344 500.574219 1149 C 493 1115 475.847656 1081 473 1046 L 474 1046 C 475.382813 1055.359375 480 1064.140625 483.308594 1073 C 490.773438 1094 497.984375 1115.007813 505.34375 1136 C 508.921875 1146.210938 514.40625 1156.214844 516 1167 L 518 1167 C 517.199219 1148.308594 508.394531 1130 503.425781 1112 C 494.414063 1079.59375 485.800781 1047 479.199219 1014 C 476 998.421875 468.359375 968.078125 481 955 C 484.382813 977.570313 498.699219 998.347656 503.335938 1021 C 505.949219 1033.789063 497.925781 1046.507813 502.386719 1059 C 506.671875 1071 521 1077.28125 523.59375 1090 C 525.730469 1101.09375 519.953125 1115.011719 521.171875 1127 C 522.464844 1139.742188 529.699219 1150.410156 534.394531 1162 C 544 1186.046875 548.378906 1213.292969 570 1230.332031 C 584.519531 1241.773438 605.382813 1248.714844 624 1248 C 633.8125 1247.464844 644.21875 1243.203125 654 1244.199219 C 663.703125 1245.1875 671.21875 1254.257813 681 1256 L 681 1257 C 668.945313 1256.046875 657 1253 645 1252.089844 C 614.511719 1250 580 1251.5625 557 1228 C 548 1219 542.742188 1208 539 1196 C 537.230469 1190.203125 536.988281 1179.78125 532 1176 C 534.257813 1204.621094 543.488281 1234 565 1254 C 583.539063 1271.179688 608.199219 1280.628906 632 1288.023438 C 645.898438 1292.34375 660.28125 1298 675 1298 L 675 1299 C 650.222656 1299 625.378906 1298.085938 602 1289 C 591.671875 1285 583.386719 1276.800781 573 1273 C 576 1279 581 1283.066406 587 1286 L 587 1287 C 557.492188 1275.554688 544.464844 1254.6875 533.203125 1226 C 529.628906 1217 527.765625 1195.710938 520 1190 C 520.890625 1218.496094 530.625 1250.703125 550 1272 C 556.96875 1279.453125 567 1286 577 1288 C 579.820313 1288.601563 586.398438 1290.597656 587 1287 C 613.714844 1301.054688 642.300781 1305.601563 672 1309.15625 C 725.625 1315.570313 782.238281 1315.136719 832 1291.214844 C 844.609375 1285.15625 856.578125 1276.511719 865.816406 1266 C 870.953125 1260.152344 874.570313 1250 882 1246.546875 C 888.941406 1243.484375 902.195313 1247.300781 910 1247 C 923.722656 1246.359375 935.554688 1241.175781 948 1236 C 931.574219 1252.425781 914.226563 1267.003906 894 1278.574219 C 885.964844 1283.167969 868.746094 1287.152344 864 1295 C 897.613281 1285.53125 923 1270.078125 952 1251 C 941.632813 1264.609375 925.605469 1274.113281 917 1289 C 939.417969 1279.523438 958.253906 1252.613281 971.332031 1233 C 991.460938 1202.820313 1006.222656 1169.597656 1023.859375 1138 C 1044.925781 1100.257813 1071 1063 1071 1018 L 1072 1018 C 1074.40625 1034.347656 1080.605469 1051 1084.628906 1067 C 1091.585938 1095 1097.425781 1123.082031 1107.574219 1150 C 1111.8125 1161.230469 1117.691406 1184.246094 1128 1191 C 1126.261719 1179.21875 1120.921875 1167.558594 1117.882813 1156 C 1111 1130.195313 1105.996094 1104.148438 1100.800781 1078 C 1098.3125 1065.484375 1094 1052.714844 1093 1040 L 1094 1040 C 1099.371094 1063.472656 1120.832031 1082.117188 1127.570313 1106 C 1138 1143.390625 1140.550781 1184.535156 1145 1223 C 1148.574219 1251.554688 1155.332031 1279.59375 1159 1308 C 1163 1305.117188 1162 1299.546875 1162 1295 C 1162 1284 1163 1273.054688 1163 1262 C 1163 1215.550781 1167 1170.511719 1154 1125 C 1143.214844 1087.40625 1123.769531 1055.582031 1101 1024 C 1089.339844 1007.53125 1068.761719 989.015625 1063.898438 969 C 1061.777344 960.261719 1056.429688 939.429688 1058.894531 931 C 1060.621094 925.097656 1065.980469 920.160156 1069.1875 915 C 1075.679688 904.546875 1081.320313 893.792969 1084.972656 882 C 1092 859.058594 1088 835.367188 1091.429688 812 C 1092.933594 801.515625 1101.246094 794.117188 1102.785156 784 C 1104.464844 773 1096.902344 765.070313 1092 756 C 1088 748.429688 1086.566406 740.390625 1085.425781 732 C 1082 707.539063 1088.519531 682.273438 1090.828125 658 C 1091.65625 649.320313 1089.445313 640.726563 1090 632 C 1090.90625 621 1099.332031 614.769531 1107 607.828125 C 1114.941406 600.644531 1121.675781 592.003906 1131 586.476563 C 1140.507813 581 1151.671875 578.523438 1161 572.453125 C 1174.332031 563.773438 1170.214844 551.324219 1176.378906 539 C 1183.652344 524.449219 1200.527344 515.691406 1201.621094 498 C 1201.953125 492.652344 1199.933594 487.359375 1200.46875 482 C 1201.515625 471.457031 1206.171875 461.5625 1206.910156 451 C 1207.734375 439.246094 1206.511719 426.546875 1208.808594 415 C 1213.769531 390.046875 1226.171875 366.066406 1232 341 C 1243.605469 292.535156 1246.5 244.515625 1243 195 C 1240 150.265625 1239.316406 95.777344 1185 84.015625 C 1145.691406 75.503906 1118.449219 107.386719 1092 130.714844 C 1067.855469 152.011719 1048.34375 178.035156 1028.195313 203 C 1009.714844 226 989.878906 248.820313 977.863281 276 C 960.210938 316 964.933594 363 931 395 C 917 408.050781 888.984375 405.101563 871 408.078125 C 863.339844 409.347656 854.792969 412.457031 847 411.8125 C 838.621094 411.117188 831.335938 406.054688 823 405.175781 C 815.984375 404.429688 809.828125 408.472656 803 407.800781 C 791.453125 406.664063 782.207031 402.234375 770 403.089844 C 762.5625 403.609375 755.359375 408.269531 748 408 C 741.332031 407.742188 735.816406 402.011719 729 401.183594 C 718.277344 400 711.859375 406.386719 702 407.632813 C 695.539063 408.449219 690.378906 403.148438 684 403.265625 C 673.882813 403.445313 664.972656 410.101563 655 411 C 643.714844 411.816406 633 407.644531 622 406.285156 C 612.414063 405.109375 602.589844 406.070313 593 404.5625 C 578.898438 402.34375 571.617188 394.609375 562.921875 384 C 542.410156 359 539.65625 326.03125 531 296 C 519.789063 257.09375 492.554688 225.625 467.25 195 C 444.359375 167.292969 421.886719 139 395 115 C 371.9375 94.238281 342 74.257813 310 86.230469 C 268.96875 101.507813 262 138.007813 258.914063 177 C 253.480469 244.621094 254.355469 314.421875 278.425781 379 C 283.199219 391.8125 289.421875 404.582031 292.332031 418 C 294.363281 427.367188 293.273438 436.585938 294.171875 446 C 295.25 457.34375 298.804688 468 300.5625 479 C 301.949219 487.8125 299.34375 497.382813 301.789063 506 C 306.21875 521.605469 317.894531 530.738281 327 543.015625 C 332 549.726563 333.765625 558.230469 338.636719 565 C 348 578.074219 365.796875 580.335938 379 588 C 389.65625 594 396.449219 604.078125 406 611.472656 C 413 617.003906 422.621094 620.144531 426.46875 629 C 431 639.660156 425 653.597656 426.171875 665 C 428.695313 690.261719 441.242188 713.148438 435.996094 739 C 432.910156 754.191406 418.683594 767.597656 419 783 C 419.3125 793.605469 428.492188 801.515625 430.246094 812 C 434.714844 838.75 432 865.152344 442 891 C 446 901.574219 451.253906 912.152344 456.871094 922 C 459.757813 927.058594 464.882813 933 464.710938 939 C 464.546875 944.800781 459.984375 949.78125 457.925781 955 C 455 962.421875 455 971.332031 450.351563 978 C 443 988.277344 431.832031 995.039063 424.695313 1006 C 403.660156 1038.296875 391.222656 1075.4375 377 1111 C 369.351563 1130.125 360 1148.757813 355.660156 1169 C 347.796875 1205.339844 356.492188 1244.140625 374.71875 1276 C 385.1875 1294.296875 400.347656 1315 422 1320 M 501 462 C 506.214844 436.738281 515 412 516.910156 386 C 518.316406 365.46875 513.5625 346.175781 511 326 L 512 326 C 515.476563 341.023438 522 363.773438 535 373 C 528.417969 360.488281 525 347.253906 520.308594 334 C 517.308594 325.585938 513.1875 318.125 513 309 C 510.972656 311.128906 510 313.273438 509 316 L 508 316 C 506.347656 295.765625 490.964844 277 481 260 C 453.71875 213.535156 423.792969 170 382 135.082031 C 368.523438 124 351.824219 111.117188 334 108.289063 C 322.210938 106.417969 310.902344 112 310 125 C 309.800781 129.734375 311 134.390625 312 139 L 311 139 C 306.652344 123.5625 308.777344 115.679688 321 105 C 317.203125 105.683594 314 107.148438 311 109.527344 C 290 125.742188 309.261719 150.0625 322 165 L 317 151 L 318 151 C 344.59375 212.636719 424.875 220.519531 458.933594 275 C 476 302.460938 480.320313 338 472 369 C 466.21875 391.347656 454.480469 412.40625 454 436 C 453.714844 451.332031 457.871094 466.726563 458.910156 482 C 459.210938 486.414063 459.621094 495.703125 452.980469 495.378906 C 448.570313 495.160156 444.890625 491 442 488 C 434 480.207031 427 471.710938 419 464.039063 C 399.402344 445.296875 377.796875 428.625 359 409 C 347.324219 396.746094 339 381 325 371 C 340.347656 387.714844 349.242188 409 366 424.828125 C 386 444 420.191406 461.035156 430.53125 488 C 433.960938 497 429 506.726563 425.800781 515 C 416.179688 538.832031 400.207031 556.773438 373 557 L 373 558 C 396 563.511719 416.992188 552.316406 430.621094 534 C 434.605469 528.644531 438 516.542969 443.417969 513.027344 C 447.605469 510.265625 459.558594 511.121094 465 510 C 454.285156 541.671875 433.800781 570.089844 426 603 C 416.800781 596 412.238281 584.777344 402 578.46875 C 378.355469 564 351 562.25 337.53125 534 C 326.703125 511.316406 363.578125 491.53125 352.675781 468 C 348.210938 458.367188 340 451.808594 333.285156 444 C 321.433594 430.488281 309.554688 416.03125 301.257813 400 C 265.367188 330.632813 258 247.597656 268.574219 171 C 270.519531 156.773438 270 141.5625 275.464844 128 C 283.683594 107 307.550781 92.027344 330 92.027344 C 360.949219 92.027344 383 119 404 137.828125 C 419.386719 151.753906 432.59375 168.273438 446 184 C 472.949219 215.148438 499.234375 248.699219 514.988281 287 C 522.621094 305.554688 526 325.507813 530.425781 345 C 532.902344 356.15625 535.972656 367.378906 542.355469 377 C 547.566406 385 557 391.65625 555.8125 402 C 554.632813 412 541.671875 431.644531 530 430.46875 C 525 430 521.386719 416.429688 516.632813 420.464844 C 508.578125 427.308594 513.628906 437.800781 512.746094 446 C 512 452.644531 506 458.375 501 462 M 1087 594 C 1081.472656 579.582031 1075.175781 566.730469 1066.28125 554 C 1056.679688 540.265625 1044.472656 527.066406 1039 511 C 1043.6875 511.203125 1056.320313 510.234375 1059.785156 512.644531 C 1064.789063 516.113281 1066 525.023438 1069.363281 530 C 1080.574219 547 1106.441406 572 1127 555 C 1099.804688 555 1085.660156 538.46875 1076.425781 514 C 1073 505.339844 1068.847656 495.042969 1072.90625 486 C 1082.410156 464.800781 1107.785156 449.121094 1125 434.574219 C 1145.347656 417.382813 1163 395.324219 1176 372 C 1166 382.085938 1157.886719 394 1147.984375 404 C 1127 425.464844 1104.191406 444.808594 1083 466 C 1075.339844 473.660156 1067.777344 481.441406 1060 489 C 1057.226563 491.675781 1053.359375 496 1049 495.351563 C 1043 494.613281 1043.796875 486.304688 1044 482 C 1045 468 1048 454.15625 1048 440 C 1047.996094 413.457031 1034.886719 390.300781 1028.882813 365 C 1022.65625 338.757813 1026 309.292969 1037.785156 285 C 1048.804688 262.058594 1070.402344 247.089844 1091 233.332031 C 1123.625 211.546875 1160.925781 191.28125 1182 157 L 1183 157 L 1180 164 C 1200 147.535156 1213.4375 115.0625 1181 104 C 1184.234375 107.539063 1188.578125 110 1191.296875 114.003906 C 1197.542969 123.300781 1193.636719 134.5625 1190 144 L 1189 144 C 1190.285156 138.398438 1192.476563 132.785156 1192.789063 127 C 1193.550781 113.054688 1180.34375 105.75 1168 108.285156 C 1147 112.585938 1129.652344 128 1114 141.425781 C 1093.609375 159.042969 1076.726563 180.535156 1060.628906 202 C 1046.675781 220.605469 1031 238.78125 1019.425781 259 C 1009.90625 275.632813 1003.347656 294.332031 996 312 L 995 312 L 995 308 C 980 325.015625 983.996094 354.359375 969 372 C 979.949219 366.316406 985.28125 352.675781 987 341 L 988 341 C 987.992188 349.667969 985.914063 358.371094 986 367 C 986.890625 397.796875 993.628906 430.691406 1003 460 C 996.886719 456.457031 990.808594 450.414063 990 443 C 989.378906 435.324219 993.503906 425.828125 987.347656 419.257813 C 981.996094 413.546875 977.949219 426.820313 972.960938 427.574219 C 962 429.230469 948.359375 409.320313 947.226563 400 C 946.171875 391.3125 955.664063 384.617188 959.910156 378 C 966.183594 368.21875 969 356.230469 971.574219 345 C 976.523438 322.597656 980.667969 300 990.308594 279 C 1012.488281 230.6875 1051.996094 186.558594 1087.910156 148 C 1110 124.257813 1137.847656 93.167969 1173 92.042969 C 1195.546875 91.324219 1218.777344 109.777344 1226.539063 130 C 1232.4375 145.363281 1232.332031 162.832031 1233 179 C 1233.886719 198.390625 1235 217.523438 1235 237 C 1235 295.195313 1223.796875 358 1194.574219 409 C 1182.253906 430.523438 1159.492188 446.101563 1148.984375 468 C 1142.214844 482.105469 1153.707031 490.8125 1158.648438 503 C 1161 509.066406 1158.933594 514.789063 1159 521 C 1159.183594 527.671875 1162 534.300781 1160.609375 541 C 1155.847656 563.066406 1126.449219 566.375 1110 575.515625 C 1101.257813 580.371094 1095 588.328125 1087 594 M 313 140 L 314 144 L 313 144 C 312.691406 142.242188 312.59375 141.660156 313 140 M 315 145 L 314 146 L 315 145 M 1189 145 C 1188.261719 147.566406 1187.316406 149.671875 1186 152 L 1185 152 C 1186 149.394531 1187.199219 147.171875 1189 145 M 316 147 L 315 148 L 316 147 M 317 149 L 316 150 L 317 149 M 1185 153 L 1184 154 L 1185 153 M 1184 155 L 1183 156 L 1184 155 M 1206 157 C 1189.347656 181.683594 1170 203 1149 224 C 1139.394531 233.589844 1126.871094 240.824219 1119 252 C 1129.902344 250.523438 1138.4375 243.808594 1147 237.371094 C 1165.3125 223.613281 1182 206.585938 1194.1875 187 C 1198.691406 179.664063 1209.53125 166.046875 1206 157 M 297 158 C 299.523438 189 329.625 216.234375 352 234.390625 C 360.753906 241.492188 371.339844 250.804688 383 252 C 377.335938 240 361.34375 231.449219 352 222 C 339 209 326 195.296875 314.613281 181 C 308.65625 173.628906 304.558594 163.800781 297 158 M 338 191 C 352.175781 232.636719 402.609375 249.617188 430.910156 280 C 438 287.632813 444.621094 296.472656 448.972656 306 C 451.277344 311.050781 452.425781 319.808594 457 323 C 453.554688 304.707031 449.289063 286.007813 437.480469 271 C 420.828125 249.828125 393.238281 237.621094 372 221.625 C 364.34375 216 356.730469 210 350 203 C 346 199 343 193.578125 338 191 M 1046 322 L 1047 322 C 1058.394531 292.242188 1073.613281 272.246094 1100 253.722656 C 1122.207031 238.132813 1157.183594 220.691406 1164 192 C 1152.328125 198.289063 1143.277344 213.21875 1132 221.289063 C 1095 247.738281 1046.4375 269 1046 322 M 302 206 C 306.609375 216.675781 315.914063 223.128906 324 231.015625 C 344.792969 251.296875 372 274 402 278 C 396.335938 270.273438 381 266 373 260.113281 C 357.34375 248.648438 342.992188 235.707031 328 223.425781 C 320.359375 217.164063 311.597656 209 302 206 M 1100 277 L 1100 278 C 1129.703125 275.574219 1155.695313 250.828125 1177 232.425781 C 1184.976563 225.535156 1197.539063 216.179688 1201 206 C 1182.539063 212 1170.175781 228.601563 1156 240.574219 C 1138.417969 255.429688 1119.691406 265.550781 1100 277 M 1016 293 C 1010.488281 319.628906 997.453125 344 1000.171875 372 C 1002 391.753906 1010 411.152344 1018.308594 429 C 1021.890625 436.738281 1027.910156 443.652344 1030 452 C 1033.320313 464.570313 1027 482 1027 495 L 1026 495 C 1008.820313 444.21875 986 391.78125 998.347656 337 C 1001.511719 323 1004.96875 303.191406 1016 293 M 477 495 C 473.769531 489.714844 474.394531 484 473.828125 478 C 473 469.726563 470.664063 459.148438 472.527344 451 C 474.777344 441.171875 481.523438 432.105469 485.691406 423 C 496 400.265625 504.8125 372.230469 500.386719 347 C 498.199219 334.550781 495 322.195313 491.847656 310 C 491.386719 308.296875 487.542969 298.664063 490.40625 298 C 493.476563 297.121094 495.699219 306.113281 496.332031 308 C 500.484375 320.335938 503.605469 333.070313 505 346 C 511.574219 399.621094 493.898438 445.375 477 495 M 989 337 L 989 340 L 988 340 C 988.25 338.546875 988.316406 338.246094 989 337 M 1011 357 C 1012.6875 378.210938 1023.265625 397.53125 1028 418 L 1027 418 C 1020.242188 401.773438 1003.289063 375.375 1011 357 M 492 358 C 489.308594 379.308594 481.808594 397 475 417 L 474 417 C 477 403.371094 482.308594 390.375 486.277344 377 C 488 370.808594 488 363.265625 492 358 M 351 368 C 355.589844 384 369.648438 397.648438 381 409 C 404.183594 432.183594 432.304688 452.519531 448 482 L 449 482 C 448.890625 468.777344 440 458.722656 431.917969 449 C 415.347656 429.070313 396.304688 411.3125 378 393 C 369.476563 384.472656 362 373.289063 351 368 M 1148 368 C 1124.824219 393.160156 1099.203125 416.058594 1076.871094 442 C 1066.957031 453.511719 1054.386719 467.128906 1053 483 L 1054 483 C 1069.609375 451.042969 1103.859375 427.464844 1127 401 C 1132.886719 394.488281 1151.558594 377.429688 1148 368 M 1176 371 L 1177 372 L 1176 371 M 596 419 C 581.347656 442.421875 558.976563 463 542 485 C 562.191406 470.476563 575.898438 445.832031 595 429.425781 C 600.578125 424.632813 606.753906 417.800781 614 415.648438 C 620.527344 413.710938 626.929688 417.746094 633 419.5625 C 642.21875 422.320313 650.539063 422.746094 660 422 C 651.597656 432.167969 633 443.761719 621 449 L 621 450 C 642 444 660.265625 422.714844 682 420.183594 C 685 419.832031 688 420.121094 691 421.109375 C 712.175781 428.371094 698.519531 448.035156 687 457.675781 C 673.800781 468.722656 653 474.050781 642 487 C 662.824219 477.261719 683.648438 469.085938 698 450 C 702.527344 444.152344 706.40625 437.144531 708.238281 430 C 709.359375 425.640625 708.269531 420.074219 712.277344 417.003906 C 720.558594 410.664063 734.269531 416 737.851563 425 C 741.660156 434.707031 736.808594 446 733.425781 455 C 728.460938 468.28125 724 482.722656 724 497 L 726 497 C 726 477.15625 736.523438 461 743.601563 443 C 746.464844 435.753906 746 428 750 421 L 751 421 C 753.195313 438.011719 765.191406 449.382813 772.878906 464 C 778.535156 474.757813 780.484375 488 781 500 L 783 500 C 783 485.695313 780.867188 472.820313 774 460 C 768.8125 450 758 437.234375 761.574219 425 C 764.84375 413.605469 781.917969 412.710938 789.890625 419.417969 C 798.851563 427 800.941406 444.410156 808.808594 454 C 822.257813 470.359375 842.457031 478.179688 861 487 C 842.753906 472.007813 820 466.660156 805.773438 446 C 797.339844 433.800781 802 418.796875 819 419.265625 C 825.828125 419.457031 832 423.78125 838 426.753906 C 852.523438 434.078125 865.785156 444.089844 881 450 C 870.429688 440.792969 854.472656 434 846 423 C 860.277344 423 878.234375 415.390625 892 418.527344 C 903.398438 421.128906 913 431.0625 921 439 C 936 454.011719 949.980469 470 965 485 C 949.730469 460.261719 925.28125 442.8125 909 419 C 916.9375 418 928.238281 412.386719 935.996094 414.4375 C 942.84375 416.246094 948.1875 426.164063 953 431 C 968.691406 446.765625 982.449219 463.550781 996.210938 481 C 1019.433594 510.449219 1048.214844 537.617188 1062.546875 573 C 1075.441406 605 1077 642.207031 1073.828125 676 C 1072.296875 692.113281 1068.8125 707.742188 1069 724 C 1069 736.609375 1072.90625 750.226563 1079.464844 761 C 1083.460938 767.566406 1092.628906 775.382813 1090.667969 784 C 1089 791.121094 1079.25 793.105469 1076.273438 800 C 1070.410156 813.574219 1072 829.195313 1066.546875 843 C 1058.980469 861.675781 1043.566406 877.683594 1038 897 L 1037 897 C 1039.398438 879.191406 1040.210938 864.617188 1027 850 C 1027 875.613281 1027.71875 899.574219 1023 925 L 1022 925 C 1021 902.039063 1008.304688 880 1011.289063 857 C 1013.589844 839.300781 1021.75 822 1026.976563 805 C 1036.714844 773.324219 1049.679688 739.066406 1052.828125 706 C 1053.628906 697.609375 1052 689.363281 1052 681 L 1053 681 C 1054.210938 690 1058.683594 698.085938 1060 707 C 1069.902344 696.761719 1067.460938 675.644531 1064.789063 663 C 1059.761719 639.207031 1048.355469 616.53125 1035.574219 596 C 1028.300781 584.316406 1019.332031 573.804688 1014 561 L 1013 561 C 1015.785156 572.617188 1024 584.136719 1029.21875 595 C 1040 618.121094 1049 643.101563 1047.960938 669 C 1046.929688 692.535156 1034.917969 714.183594 1027.34375 736 C 1019 760.011719 1015 785.234375 1005.933594 809 C 1003.980469 814.105469 1001.441406 819.789063 997.671875 823.816406 C 994.628906 827.0625 989.234375 829.179688 988.410156 834.003906 C 987.671875 838.339844 990.878906 843.085938 992.304688 847 C 995.710938 856.34375 999.394531 865.605469 1002.65625 875 C 1011.328125 900 1016.398438 925.578125 1013.828125 952 C 1012 970.753906 1006.976563 989.699219 999.574219 1007 C 995 1017.578125 987.65625 1026.644531 984.898438 1038 C 980 1057.699219 985.324219 1085.21875 989 1105 L 988 1105 C 979.867188 1085.175781 970.660156 1061.269531 967.605469 1040 C 965 1022.417969 968.414063 1003 967 985 C 956.851563 996.664063 965.410156 1021.238281 966 1035 L 965 1035 C 962 1022.507813 958.394531 1011 957.171875 998 C 955.742188 983 956.851563 968 953.574219 953 C 948.574219 930.3125 937.902344 911 928.308594 890 C 921.433594 875.023438 917.191406 856.648438 908 843 C 884 807 841.214844 782 798 782 L 798 784 C 832.320313 784.285156 876 807.253906 894.304688 836 C 906.597656 855.332031 911.90625 878.574219 919.34375 900 C 924.691406 915.398438 933.601563 930.757813 936 947 L 935 947 C 931 933.265625 921.414063 920.375 914.425781 908 C 907.691406 896.085938 902.621094 883.425781 897 871 L 896 871 C 913.566406 913.828125 930 955.230469 942 1000 C 945.863281 1013.71875 951 1028 953 1042 L 952 1042 C 950.382813 1037.253906 948.601563 1032.5625 945 1029 C 946.894531 1044 952.839844 1060.058594 948.226563 1075 C 942.605469 1093.210938 922.808594 1104.203125 910 1117 C 926.964844 1112.113281 954 1093 956 1074 L 957 1074 C 956.46875 1099.769531 949.445313 1129.433594 933.484375 1150 C 924.652344 1161.382813 913.84375 1169.75 903 1179 C 917.496094 1173 928 1161 942 1154 C 942 1165.5 941.21875 1178 938 1189 C 927.21875 1227.445313 867.171875 1216.816406 842 1202.121094 C 833.335938 1197.066406 826.527344 1189.347656 818 1184 C 821.277344 1191.59375 827.347656 1196.394531 832 1203 C 822.601563 1198.53125 815.4375 1190.464844 806 1186 C 816.8125 1198.503906 827 1202.136719 841 1209.257813 C 863 1220.59375 881.226563 1230.242188 907 1227.15625 C 920.609375 1225.527344 938.757813 1221.089844 946.894531 1209 C 955.917969 1195.585938 952.730469 1179.105469 954.171875 1164 C 957.222656 1132 966 1100.316406 966 1068 L 967 1068 C 968 1082.316406 972.902344 1096.484375 971.910156 1111 C 970.519531 1131.351563 962.878906 1150.554688 962 1171 L 963 1171 C 964 1158.574219 969.316406 1146.417969 974 1135 L 975 1135 C 975 1149.523438 972.824219 1164 969 1178 C 966.539063 1187.753906 962.90625 1197.585938 957.25 1206 C 923.671875 1256 850.632813 1227 813 1200.140625 C 800.96875 1191.558594 775 1187.636719 769.5625 1173 C 765.402344 1162.105469 770.402344 1152.488281 781 1148.699219 C 791.460938 1145 802.824219 1144.308594 813 1139.6875 C 825 1134.230469 834.476563 1125 844 1116.089844 C 858.300781 1102.773438 872.628906 1090.566406 877.84375 1071 C 880.378906 1061.503906 880.796875 1051.632813 882.609375 1042 C 884.855469 1030.105469 889.90625 1016.734375 884.445313 1005 C 879.964844 995.367188 869 991.148438 861 985.253906 C 850.921875 978 842 968.726563 830 964.75 C 804.820313 956.488281 776.855469 967.09375 751 966 C 730.171875 965.050781 710.460938 958.441406 690 966.230469 C 679 970.378906 671.21875 979 662 985.710938 C 655.550781 990.425781 647.765625 993.3125 642 999.09375 C 630.621094 1010.816406 638.59375 1030 640.574219 1044 C 642.226563 1055.726563 643 1068 647.871094 1079 C 657.523438 1101.484375 684.273438 1127 706 1137.730469 C 718 1143.746094 732 1143.609375 744 1149.328125 C 754.933594 1154.546875 759.292969 1169.4375 750.785156 1179 C 741.84375 1189 726 1190.46875 715 1197.546875 C 706.246094 1203.175781 698.195313 1209.707031 689 1214.691406 C 652.503906 1234.476563 592.296875 1246.089844 565.699219 1205 C 560.789063 1197.417969 557.183594 1188.71875 554.882813 1180 C 551 1165.777344 550 1151.640625 550 1137 L 551 1137 C 553.863281 1149.050781 560.992188 1159.363281 562 1172 L 564 1172 C 561.546875 1152.585938 553.5 1133.242188 552 1114 C 550.933594 1098.207031 556 1083.449219 558 1068 L 559 1068 C 559 1099.105469 567.808594 1128.289063 569.910156 1159 C 571 1175.210938 567.671875 1195 577.789063 1209 C 585.527344 1219.804688 599.484375 1224.011719 612 1226.078125 C 644.460938 1231.445313 694 1214.109375 708 1182 C 698.253906 1187.769531 690.554688 1196 681 1202 C 657.441406 1216.589844 608.214844 1226.699219 590.46875 1198 C 582 1184.320313 585.503906 1168.71875 582 1154 C 595.632813 1160.789063 610.855469 1171.738281 623 1181 C 614 1170 600.675781 1163 591.4375 1152 C 571.464844 1128.335938 566 1096.191406 566 1066 L 567 1066 C 568 1091 593.945313 1109.234375 615 1118 L 615 1117 C 598.195313 1108.28125 576 1085.605469 574.171875 1066 C 572.988281 1054.136719 577 1042 577 1030 L 576 1030 C 573.898438 1037.410156 570.734375 1044.496094 569 1052 L 568 1052 C 569.777344 1038.800781 574.730469 1026 577.871094 1013 C 589.863281 963.625 607.367188 918.074219 629 872 C 623.847656 877 621.882813 884.738281 618.753906 891 C 612 904.390625 604.777344 917.539063 598.257813 931 C 594 939.640625 590.84375 950 583 956 C 583 931.777344 598.566406 910.082031 608.742188 889 C 617.828125 870.171875 619.609375 848.632813 631.519531 831 C 652.886719 799.363281 694.460938 793.722656 728 783 L 728 782 C 688.167969 785.171875 646.433594 800.101563 623 834 C 612.804688 848.804688 609.191406 866.324219 600.691406 882 C 590 901.671875 576.28125 919 570.898438 941 C 563.175781 972.796875 568.300781 1004.394531 558 1036 L 557 1036 C 559.277344 1024.246094 563.292969 1011 561.410156 999 C 561.171875 997.476563 559.328125 985.558594 556.519531 987.207031 C 554.457031 988.414063 555 993.054688 555 995 C 554.960938 1002.722656 556 1010.289063 556 1018 C 556 1025 557 1033.160156 556 1040 C 552.808594 1061.722656 540.960938 1082.558594 536 1104 L 535 1104 C 536.679688 1082.714844 543.644531 1059.117188 538 1038 C 534.953125 1026.167969 527.351563 1016.011719 522.308594 1005 C 514.519531 988 509.472656 967.742188 509 949 C 508.507813 928.257813 511.683594 908 517.722656 888 C 522.832031 871.210938 531 859.148438 527.398438 841 C 523.472656 821.488281 515.589844 803 509.332031 784 C 503 765.386719 498.558594 746.363281 491.574219 728 C 483.28125 706.195313 471.445313 683.03125 473 659 C 475.40625 625.136719 497.308594 590.707031 514 562 C 504.226563 570.371094 496.816406 586.050781 489.949219 597 C 475.652344 619.796875 457.996094 646.320313 456 674 C 455.300781 685.449219 458.46875 695.058594 461 706 L 462 706 C 463.835938 699.277344 466.976563 693 468 686 L 469 686 C 468.875 731.289063 486.613281 779 500 822 C 504.472656 836.3125 511.433594 850.0625 513.570313 865 C 516.421875 885 502 906.339844 502 927 L 501 927 C 495.648438 901.050781 497 876.285156 497 850 C 478.898438 871.234375 485.390625 885.566406 489 910 C 483.390625 902.589844 479.929688 892.355469 475.753906 884 C 466.496094 865.488281 456.558594 846.289063 451.886719 826 C 450 818.410156 451.269531 810.410156 449.46875 803 C 446.945313 792.640625 431.910156 793.765625 432 783 C 432.1875 774.191406 440 767.203125 444 760 C 450.871094 748.207031 455.316406 734.671875 454.984375 721 C 454.367188 695.359375 445.171875 670 444 644 C 442 601 460 555.292969 481.800781 519 C 499.375 489.644531 519.816406 463.183594 544 439 C 550.355469 432.644531 558.800781 418.140625 567 415 C 574.429688 412 587.808594 418.832031 596 419 M 308 436 C 324.867188 456.730469 352.476563 471.523438 334.679688 500 C 332.566406 503.382813 327.800781 516.753906 322.9375 516.078125 C 317.605469 515.335938 314.449219 504.363281 313.519531 500 C 311.851563 492.1875 313.738281 484 312.710938 476 C 311.167969 464.132813 303 447.699219 308 436 M 1195 436 C 1194.726563 449.183594 1190.886719 462 1189.285156 475 C 1188.3125 483 1189.777344 491.066406 1188.816406 499 C 1188.324219 503.046875 1185.359375 516.566406 1179.988281 516.652344 C 1174.796875 516.738281 1168.738281 502 1166.398438 498 C 1154.171875 477.609375 1163.304688 470.289063 1176.921875 454 C 1182.175781 447.710938 1187.433594 439.527344 1195 436 M 756 446 C 745.277344 466.351563 750 492.089844 750 514 C 750 566.121094 755 618 755 670 C 755 687.273438 754.53125 705.796875 756.171875 723 C 756.691406 728.503906 756.273438 737.417969 761 741 C 761 669.550781 761 598.25 758 527 C 757.222656 508.34375 756.78125 489.71875 757 471 C 757 463 760 453.625 756 446 M 541 485 C 540 486.515625 539.613281 487.339844 539 489 C 540.628906 487.484375 541 487.144531 541 485 M 965 485 C 966.21875 487.117188 966.867188 488 969 489 C 967.671875 487.246094 966.753906 486.328125 965 485 M 861 487 C 861.546875 488.636719 861.363281 488.453125 863 489 C 862.230469 487.6875 862.3125 487.769531 861 487 M 627 513 C 664.789063 510.015625 702.824219 512.355469 719 553 C 723.675781 543.695313 714.777344 531.636719 708.824219 525 C 693.398438 507.796875 669 503.171875 647 506.753906 C 641 507.707031 630.601563 508 627 513 M 806 531 C 812.292969 540 836 533.753906 845 532 C 869.675781 527.144531 890.222656 525.257813 914 535.425781 C 926.84375 541 938.722656 551.09375 952 555 C 937.804688 533.714844 897.40625 516.710938 872 519.171875 C 849.558594 521.339844 828.734375 531 806 531 M 641 527 C 645 532.382813 656.742188 533.335938 663 535.34375 C 681.949219 541.421875 704.691406 552 708 574 L 710 574 C 709.902344 539 669.746094 527 641 527 M 857 671 C 847 634.523438 834 594.714844 855.824219 559 C 861.765625 549.242188 873 547 879 539 C 863.652344 539.667969 852.316406 551 845.757813 564 C 833.921875 587.671875 833.382813 618.054688 841.34375 643 C 844.636719 653.316406 847.789063 664.453125 857 671 M 663 542 C 664.292969 556.8125 675 569.238281 677.566406 584 C 682.40625 612.816406 675.78125 640 670 668 C 680.226563 660.402344 680.585938 645.566406 682.804688 634 C 688.589844 603.820313 692.273438 562.796875 663 542 M 596 559 C 614.316406 564.792969 634.464844 563.332031 651 574.773438 C 659.890625 581 662.414063 592.308594 670 598 C 669.414063 570.492188 639.929688 557.117188 616 557 C 609.851563 557 601.242188 555.417969 596 559 M 500 635 C 505.53125 632.171875 508 625.746094 511.808594 621 C 517.847656 613.453125 524.941406 606.703125 533 601.355469 C 565.546875 579.761719 606.519531 576.691406 644 577 C 635.929688 564.464844 610.53125 566.613281 598 568.429688 C 562.921875 573.511719 501.832031 592.421875 500 635 M 882 575 L 882 576 C 918.890625 576 960.277344 580.429688 992 601.75 C 999.550781 606.824219 1006.503906 613 1012.191406 620 C 1016.21875 625.023438 1019 632.011719 1025 635 C 1020 596.671875 980.378906 583.046875 948 573.574219 C 936.597656 570.242188 924 566.324219 912 567.089844 C 901.621094 567.753906 891.449219 570.789063 882 575 M 603 583 C 609.367188 587.816406 617.507813 590 624 595 C 629.4375 599.015625 633.300781 605.554688 639 609 C 636.632813 593.269531 619 579.523438 603 583 M 884 609 C 897.832031 601.617188 904.671875 588.726563 921 584 C 905.800781 573.613281 887.675781 596.265625 884 609 M 584 594 C 587.894531 599.117188 598.261719 597.089844 604 600.367188 C 613.648438 606 616.859375 618.269531 627 623 C 627 595.542969 606.632813 594 584 594 M 898 622 C 902.476563 619.066406 904.480469 613 908.175781 609.039063 C 916 600.5 927.460938 596.238281 939 596 L 939 594 C 919.234375 594 892.953125 594.828125 898 622 M 908 630 C 914.789063 626.765625 917.601563 619.109375 923 614.105469 C 927.78125 609.699219 933 609 939 607 C 923.234375 595.265625 908 615.375 908 630 M 584 606 C 588.628906 609.300781 594.484375 609.320313 598.984375 613.214844 C 605.339844 618.710938 608 627.324219 616 631 C 612.933594 614.546875 603.28125 600.300781 584 606 M 562 613.425781 C 542.835938 616.035156 523.992188 622.3125 511.515625 638 C 505.632813 645.398438 498.605469 651.675781 492.753906 658.691406 C 491.613281 660.054688 492.671875 661.175781 494.167969 661.464844 C 504.570313 663.5 515.195313 642.265625 521 636.003906 C 533.9375 622.355469 552.84375 617.351563 571 621.210938 C 589.628906 625.171875 603.328125 636.796875 609.328125 655 C 610.472656 658.464844 613.484375 677.03125 618.539063 676.078125 C 621.582031 675.503906 621 669.132813 620.984375 667 C 620.8125 658.210938 618.730469 649.007813 615 641 C 605.796875 620.210938 584 610.414063 562 613.425781 M 1033 661 C 1029.875 655.144531 1023.609375 651 1019.171875 646 C 1012.945313 639.082031 1007.710938 631.492188 1000 626.042969 C 978.734375 611.015625 945.199219 607 923 622.222656 C 910.597656 630.773438 904.578125 646.445313 903.171875 661 C 902.875 664.050781 901.457031 674 904.558594 675.824219 C 908.824219 678.402344 911 666.242188 911.628906 664 C 916.410156 645.644531 925 630.425781 944 623.699219 C 962.691406 617.023438 984 619.359375 999 633.09375 C 1010 643.347656 1015.980469 661 1033 661 M 630 623 C 630.832031 629.550781 633 636.382813 632.871094 643 C 632.574219 655 627.191406 664.832031 624 676 C 638.832031 668.300781 645.941406 633.441406 630 623 M 891 623 C 886 641.316406 880.488281 663.335938 899 677 C 897.703125 668.351563 892.5625 660.753906 891.300781 652 C 889.914063 642.386719 893 632.664063 893 623 L 891 623 M 694 632 C 688.195313 677.695313 665.929688 719.773438 641.308594 758 C 628.695313 777.578125 610.246094 798.207031 602 820 C 614.65625 814.097656 622.984375 797 630.859375 786 C 653.773438 754.023438 676.652344 720.453125 689.65625 683 C 693.941406 670.652344 704.527344 643.097656 694 632 M 584 735 C 552.589844 746.707031 518.78125 734.476563 509 701 C 507.28125 694.539063 504.988281 689.425781 501 684 C 499.992188 682.609375 498 680.414063 499.636719 678.695313 C 502.382813 675.675781 507.703125 680.085938 509.480469 682.109375 C 516.199219 689.734375 518.472656 699.785156 522 709 L 523 709 C 522 697.0625 514.609375 687.039063 519 675 L 520 675 C 521 699.320313 538.988281 722 565 720.625 C 574.402344 720.144531 587.949219 711 596.894531 714.742188 C 601.804688 716.800781 602.863281 723.320313 602.984375 728 C 603.351563 742.265625 596 749.121094 587 759 C 603.246094 760.4375 611.527344 739.4375 610.960938 726 C 609.945313 702 601.660156 678 590 657 C 586.757813 651.199219 584.984375 644.03125 579.816406 639.53125 C 568.648438 629.8125 546.390625 633.753906 535 641.105469 C 528 645.574219 523 651.757813 517.921875 658 C 511 666.25 503.863281 669.035156 495 674.414063 C 492.277344 676.113281 490.683594 678.675781 491.453125 682 C 492.804688 688 499 691.359375 501.285156 697 C 504.417969 705.097656 504.597656 714.101563 508.328125 722 C 516.242188 738.769531 534.46875 746 552 746 C 562.253906 746 578.804688 745.5625 584 735 M 935 750 C 929.5625 742.28125 910.640625 725.699219 924.214844 715.742188 C 932.464844 709.6875 948.839844 719.453125 958 720.242188 C 984.761719 722.546875 1002 699.566406 1004 675 L 1005 675 C 1009.605469 687.636719 1001 698.445313 1000 711 L 1001 711 C 1005 701.507813 1007.277344 691.359375 1013.925781 683.09375 C 1015.664063 681 1020.289063 676 1023.535156 678.136719 C 1025.859375 679.675781 1023 682.65625 1022 684 C 1016.628906 691 1015 698.78125 1012.328125 707 C 1001.496094 740 968.609375 741 940 735 C 955.855469 757 997 746.460938 1011.472656 728 C 1018.585938 719 1018 708.3125 1021.839844 698 C 1024 692 1033.195313 686 1032.351563 679.042969 C 1031.617188 673.09375 1012.835938 666.21875 1008.289063 661 C 1000.867188 652.484375 994.472656 643.773438 984 638.785156 C 972.644531 633.375 953.378906 631 943.328125 640.390625 C 938.359375 645.105469 937 652.375 933.453125 658 C 922.527344 675.089844 917.609375 687.800781 914.730469 708 C 912.355469 724.65625 914.75 746.386719 935 750 M 579 649 C 568.289063 647.644531 558.316406 646.253906 548 650.453125 C 535.890625 655.382813 527 666 515 671 C 523.941406 655.453125 539.375 645.21875 557 642.730469 C 564.964844 641.605469 573.871094 642.210938 579 649 M 1007 670 C 996.824219 665.742188 989.714844 657.300781 980 652.371094 C 968.683594 646.636719 957.167969 647.460938 945 649 C 960.742188 629 999.582031 652.476563 1007 670 M 823 649 C 823 694 860.210938 739 884.71875 774 C 893.289063 786.242188 901.9375 805.441406 916 812 C 896.273438 775 869.269531 741.8125 848.859375 705 C 842.625 693.75 836.460938 682.003906 831.8125 670 C 829.199219 663.261719 828 654.273438 823 649 M 557 653.300781 C 594 648 608 705 568 710.699219 C 528.859375 716.34375 514.492188 659.425781 557 653.300781 M 956 653.300781 C 969 651.378906 983.835938 656.085938 990.632813 668 C 1000.832031 686 985.960938 708 967 710.699219 C 955.917969 712.335938 942.648438 709.53125 935.800781 700 C 923.578125 683 935.6875 656.300781 956 653.300781 M 556 660 C 559.183594 665.054688 565.453125 668.5625 559.605469 674.769531 C 551.5 683.378906 547.492188 666.800781 543.425781 669.753906 C 537.378906 674.140625 538.671875 684.515625 542 690 C 547.363281 698.8125 557 702.207031 566.996094 700.8125 C 577.347656 699.351563 565.90625 681.105469 577.996094 685.441406 C 580 686.175781 581.949219 687.257813 584 688 C 583.949219 670.265625 573.371094 660.746094 556 660 M 979 694 C 992.851563 683.679688 980.601563 663.023438 966 661.183594 C 951.863281 659.40625 957.355469 667.378906 951.515625 674.730469 C 948.460938 678.582031 943.828125 675 940.757813 677.832031 C 934.335938 683.777344 945.691406 697.65625 951 700 C 955 701.597656 961.761719 703.257813 965.683594 700.140625 C 969.789063 697 967.46875 682.417969 976.550781 691 C 977.460938 691.808594 978.253906 693.046875 979 694 M 882 680 C 882.667969 682.007813 888.457031 693.214844 891.824219 689 C 894.625 685.363281 884 681 882 680 M 470 681 L 470 685 L 469 685 C 469.175781 683.316406 469.316406 682.507813 470 681 M 639 681 C 623.820313 685.382813 633.277344 694.476563 639 681 M 648 694 C 645 694.648438 632.648438 699.015625 634.460938 703.421875 C 636.972656 709.527344 647 696.15625 648 694 M 874 694 C 877.488281 706.394531 894.535156 704.199219 880 696.761719 C 878 695.75 876 695 874 694 M 597 698 C 596.976563 705.644531 595.25 710.6875 587 712 C 589.453125 706.816406 592.699219 701.820313 597 698 M 927 698 C 929.628906 702.722656 932.851563 707.019531 935 712 C 928.890625 710 921.890625 704.757813 927 698 M 637 721 C 641.289063 721 645.429688 720.75 648 717 C 643.222656 716.332031 639.726563 716.761719 637 721 M 876 717 C 880 723.355469 886.664063 717.125 876 717 M 555 725 L 555 726 C 567.464844 726 579.597656 723.035156 592 723 L 592 721 C 579.328125 720 566.941406 719.714844 555 725 M 929 721 L 929 723 C 942 723 954.867188 726 968 726 C 959.863281 718.277344 939.398438 719.6875 929 721 M 626 737 C 630.316406 736.765625 632.9375 736 635 732 C 630.683594 732.234375 628 733.070313 626 737 M 886 732 C 888 735.292969 890.277344 736 894 735 C 891.515625 732.460938 889.523438 732.113281 886 732 M 582 789 C 578.683594 805 568.355469 818.117188 562.449219 833 C 556.382813 848.289063 554 865 547.714844 880 C 542.171875 893.113281 532.1875 905.464844 531 920 L 532 920 C 539.519531 906 550.933594 893.671875 557 879 C 563.214844 864.570313 564.601563 848 570 833 C 575.226563 819 583.335938 804.277344 584 789 L 582 789 M 940 789 C 940.710938 805.523438 948.6875 820.777344 954.320313 836 C 959.488281 850 961.222656 865.492188 967.3125 879 C 973.878906 893.570313 984.878906 906.226563 993 920 L 994 920 C 991.578125 903.605469 980.738281 889.054688 974.425781 874 C 966.25 854.503906 961.835938 833.644531 954 814 C 950.636719 805.566406 947 795.003906 940 789 M 554 793 C 547.425781 808.277344 548 826.058594 543.574219 842 C 534.835938 872.617188 521 901.550781 521 934 L 523 934 C 523 897 550 867 556 831 C 557.808594 820.578125 562 801.484375 554 793 M 966 793 C 965.328125 808.6875 964 823.585938 968.429688 839 C 977.710938 872 998.632813 899.464844 1003 934 L 1005 934 C 1002 897 985.214844 865.363281 975.882813 830 C 973.476563 821 974 798.355469 966 793 M 600 821 C 599 822.476563 599 822.203125 599 824 C 600.289063 822.558594 600.402344 822.765625 600 821 M 623 931 C 629.9375 926.546875 633.832031 915.039063 637.851563 908 C 646.847656 892.234375 656.421875 875.492188 670 863.171875 C 684.496094 850.015625 701.285156 840.421875 719 832.308594 C 725.898438 829.148438 739.460938 827.042969 744 821 C 721.175781 824.074219 686.355469 837 669 852.183594 C 658.4375 861.480469 652.386719 874 645.574219 886 C 637.5 900.261719 627.566406 915.144531 623 931 M 779 822 L 779 823 C 805.8125 835 833 843.246094 854.984375 864.089844 C 873.351563 881.621094 883.945313 905.671875 897 927 C 899.519531 918.457031 885.421875 898.726563 881 891 C 874.261719 878.59375 868 865.15625 857.984375 855.015625 C 850.171875 847.210938 839.910156 843.164063 830 838.695313 C 814.382813 831.652344 796.460938 822.363281 779 822 M 673 944 C 678 940.316406 680 931.34375 683.460938 926 C 689.761719 915.792969 698.171875 906.601563 708 899.722656 C 716.476563 893.785156 727.425781 888.789063 738 891.242188 C 745.570313 893 752 898 760 898.273438 C 770 898.621094 778.246094 891.511719 788 890.316406 C 798.472656 889.03125 810 897 818 903 C 826.3125 909.222656 833.621094 917.253906 839.304688 926 C 842.453125 931 844.378906 938.609375 849 942 C 846.53125 913.71875 818 882.648438 789 883.019531 C 778.523438 883.152344 770.226563 892.265625 761 892.496094 C 756.777344 892.601563 752.726563 888.515625 749 887 C 742.777344 884.140625 736.699219 884 730 884.015625 C 700 884.761719 676.710938 916.480469 673 944 M 490 911 L 489 912 L 490 911 M 558 911 C 552.496094 934.167969 528.773438 949.796875 526.175781 974 C 523.621094 997.761719 543.96875 1018.527344 547 1042 L 549 1042 C 548.964844 1029.078125 546.441406 1016.21875 542.332031 1004 C 539.597656 996 534.523438 986.808594 535.183594 978 C 537 953.390625 556.820313 934.585938 560 911 L 558 911 M 966 914 C 967.792969 936 986.472656 953.027344 988.824219 975 C 990 987.492188 983.988281 997.597656 980 1009 C 976.722656 1018.785156 975 1029.675781 975 1040 L 977 1040 C 979.6875 1021.796875 992.578125 1006.78125 996.765625 989 C 1001.84375 967.421875 989.433594 952.34375 978.8125 935 C 974.625 928.167969 971.929688 919.480469 966 914 M 869 916 C 872.441406 928 883 935.261719 892 943 C 903.765625 953.152344 914.902344 964.433594 921 979 C 924 971.507813 916.597656 963 912.667969 957 C 902 941.011719 889.910156 919.132813 869 916 M 600 980 C 605.90625 976.429688 609.417969 966.46875 613.925781 961 C 624.765625 948 650.660156 934.261719 654 917 C 627.789063 921 607.398438 957.300781 600 980 M 1044 950 C 1044 968 1044.558594 985.523438 1039.574219 1003 C 1034.871094 1019.480469 1024.5 1035.804688 1023 1053 L 1022 1053 C 1012.621094 1023.355469 1023.246094 1001.121094 1034.714844 974 C 1037.949219 966.355469 1038.742188 956.511719 1044 950 M 761 1088 L 760 1088 C 760 1104.699219 757.3125 1121.375 756 1138 C 732.78125 1131.472656 708.425781 1130.039063 691.171875 1111 C 678.601563 1097.132813 661.230469 1085.367188 655 1067 C 640 1022.765625 657.976563 979.277344 707 970.613281 C 726 967.230469 745.734375 973.804688 765 973 C 776.992188 972.433594 788.960938 968.570313 801 969.039063 C 833.542969 970.308594 869.183594 990.167969 873.710938 1025 C 876 1043.644531 872 1069 860.472656 1084 C 854.761719 1091.40625 846.648438 1096.53125 840 1103.015625 C 831.222656 1111.578125 823 1120.675781 812 1126.242188 C 801.871094 1131.304688 790.878906 1132 780 1134.425781 C 777 1135.078125 770.632813 1138.261719 767.988281 1136 C 764.714844 1133.105469 766 1124.820313 765.984375 1121 C 765.71875 1110.167969 764.277344 1098.335938 761 1088 M 712 980.425781 C 679.847656 984.800781 649.480469 1002.097656 651 1039 C 652.28125 1065.765625 668.265625 1084 693 1093 C 702.546875 1096.449219 713.449219 1099.0625 723 1094.164063 C 741.417969 1084.71875 730.382813 1061.570313 716 1054.378906 C 709.808594 1051.28125 689.5625 1049.773438 692.335938 1062 C 693.5 1067.042969 702.777344 1064.039063 702 1069.019531 C 700.476563 1080.4375 678.96875 1073.5 674 1069.609375 C 647 1048.574219 659.363281 1004.757813 687 990.261719 C 706.777344 980 726.910156 984.46875 748 985 C 777 985.699219 811.257813 976 838 991.464844 C 858.808594 1003.539063 867.964844 1027 862 1050 C 859.410156 1060.566406 851.519531 1072.609375 840 1074.671875 C 836.488281 1075.300781 818.175781 1075.492188 821.546875 1068 C 823.191406 1064.148438 828.714844 1066.753906 830.589844 1063 C 834.417969 1055 821.667969 1050.539063 816 1051.304688 C 795.421875 1054.089844 776.445313 1088.285156 804 1096 C 815.742188 1099.058594 826.691406 1094 837 1088.753906 C 847.226563 1083.640625 857.359375 1078.570313 864.210938 1069 C 878.464844 1049.09375 872.917969 1018 858.191406 1000.015625 C 834 970.660156 791.246094 983.773438 759 983 C 743.382813 982.601563 727.667969 978.292969 712 980.425781 M 1055 1010 C 1041.933594 1073.308594 1007.421875 1126.347656 983 1185 L 982 1185 C 985.523438 1167 996 1151.710938 1000.84375 1134 C 1002.871094 1126.398438 1004.460938 1118 1003.910156 1110 C 1003.425781 1103.015625 1000.460938 1096.042969 1002 1089 C 1004.449219 1078.457031 1014.476563 1071.507813 1019 1062 L 1020 1062 C 1017.410156 1081.203125 1005 1098.316406 1005 1118 L 1006 1118 C 1013 1093.445313 1027.386719 1070.351563 1037.574219 1047 C 1042.667969 1035.328125 1046.199219 1019.402344 1055 1010 M 521 1022 C 530.96875 1038.289063 531 1053.492188 531 1072 C 509.941406 1065.277344 514.382813 1037.765625 521 1022 M 1004 1022 C 1004 1034.179688 1011 1049.261719 1005.425781 1061 C 1003.867188 1064.265625 997.898438 1072.238281 993.433594 1070.578125 C 989.703125 1069.191406 991 1061.019531 991 1058 C 991 1045.265625 992.925781 1030 1004 1022 M 577 1028 L 578 1029 L 577 1028 M 1093 1039 L 1092 1040 L 1093 1039 M 444 1041 C 447.96875 1061.457031 458.8125 1079.152344 467 1098 C 478.398438 1123.484375 487.796875 1152.09375 490 1180 L 489 1180 C 483.796875 1144.777344 458.945313 1113.195313 449 1079 C 446 1068.355469 439.441406 1052 444 1041 M 473 1043 L 473 1046 L 472 1046 C 472.25 1044.546875 472.316406 1044.246094 473 1043 M 954 1043 L 954 1046 L 953 1046 C 953.25 1044.546875 953.316406 1044.246094 954 1043 M 954.667969 1047.667969 C 954.722656 1047.722656 954.777344 1048.777344 954.332031 1048.332031 C 954.277344 1048.277344 954.222656 1047.222656 954.667969 1047.667969 M 583 1052 C 582 1054.28125 578.605469 1064.535156 583.828125 1064.652344 C 588.78125 1064.765625 584.367188 1053.671875 583 1052 M 938 1052 C 937.699219 1054.054688 937.179688 1056 936.75 1058.003906 C 933.972656 1071.09375 948.886719 1059.457031 938 1052 M 1021 1060 L 1020 1061 L 1021 1060 M 697 1085 C 699.957031 1082.542969 703.691406 1081.621094 707 1079.648438 C 710.488281 1077.566406 713.964844 1071.464844 717.980469 1071 C 723.492188 1070.175781 722.96875 1080.070313 721 1083 C 716.171875 1090.558594 703.714844 1088.761719 697 1085 M 827 1084 C 821 1088 808.175781 1091 802.703125 1084.605469 C 800.308594 1081.820313 797.722656 1070.636719 804 1070.636719 C 807.34375 1070.636719 809.796875 1074.78125 812 1076.660156 C 816.304688 1080.238281 821.878906 1082.011719 827 1084 M 602.601563 1077.15625 C 600.570313 1078.507813 603.296875 1081.570313 604.933594 1080 C 606.328125 1078.535156 604.246094 1076.066406 602.601563 1077.15625 M 918.601563 1077.15625 C 916.871094 1078.3125 918.664063 1081.003906 920.398438 1080 C 922 1078.6875 920.335938 1076 918.601563 1077.15625 M 410 1089 L 410 1092 L 409 1092 C 409.25 1090.546875 409.316406 1090.246094 410 1089 M 615 1093.15625 C 614 1094.078125 615 1096.433594 616.488281 1095.675781 C 618 1094.792969 616.363281 1092 615 1093.15625 M 907.6875 1093.117188 C 906.300781 1094.074219 908 1095.726563 909.3125 1095 C 910.699219 1094 908.902344 1092.273438 907.6875 1093.117188 M 692 1101 C 693.265625 1109.445313 697.539063 1116.488281 706 1119 C 703.300781 1112 698.207031 1105.382813 692 1101 M 829 1101 C 824.847656 1106.777344 819.261719 1112.179688 817 1119 C 824.40625 1117.128906 833.738281 1109.335938 829 1101 M 789 1159 C 796 1163.269531 806 1162.398438 814 1161.078125 C 829.570313 1158.453125 844.273438 1150.808594 854.824219 1139 C 865.691406 1127 872 1112.453125 886 1103 C 878.183594 1100 867.9375 1111 863 1116.003906 C 850.289063 1129.585938 840.800781 1143.503906 823 1151.128906 C 812.675781 1155.550781 798 1153.609375 789 1159 M 719.785156 1112.042969 C 716.871094 1114.515625 720.726563 1119.628906 722.527344 1121.53125 C 727.191406 1126.453125 741.640625 1133.042969 747.378906 1126.347656 C 749.742188 1123.585938 747.25 1120.421875 744.941406 1118.648438 C 741 1115.6875 724.242188 1108.261719 719.785156 1112.042969 M 798.996094 1111.457031 C 792 1112.265625 782.429688 1114.761719 777 1119.53125 C 768.855469 1127.027344 783 1128.367188 788 1127.824219 C 793.632813 1127.210938 798.984375 1124.558594 802.425781 1120 C 805.601563 1115.71875 805.171875 1110.738281 798.996094 1111.457031 M 630.726563 1140.15625 C 629.207031 1141.246094 631 1143.300781 632.597656 1142.675781 C 634.625 1141.796875 632.402344 1139 630.726563 1140.15625 M 664 1139 C 674.535156 1157.335938 713.523438 1161.460938 732 1156 L 732 1155 C 706.851563 1155 686.894531 1148.53125 664 1139 M 890.601563 1140.15625 C 888.570313 1141.507813 891.296875 1144.570313 892.933594 1143 C 894.328125 1141.535156 892.246094 1139.066406 890.601563 1140.15625 M 613.832031 1150.066406 C 612.390625 1151.460938 614.53125 1154 615.9375 1152.308594 C 617.246094 1151 615.292969 1148.652344 613.832031 1150.066406 M 908 1150.066406 C 906.429688 1151.703125 909.492188 1154.429688 910.84375 1152.398438 C 911.933594 1150.753906 909.464844 1148.671875 908 1150.066406 M 814 1171 C 815.878906 1175 825.179688 1192.808594 831.355469 1188 C 833.777344 1186.050781 831.425781 1182 830 1180.039063 C 826.46875 1174.742188 820.183594 1172 814 1171 M 686 1192 C 690.246094 1189 693 1185 695 1180 C 688.863281 1181 684.796875 1185.757813 686 1192 M 689 1208 C 700.996094 1205.492188 712 1196 719 1186 C 708.902344 1187.828125 693.339844 1198.691406 689 1208 M 640.316406 1189.339844 C 637.769531 1190.382813 640 1194.269531 642.359375 1192.828125 C 644.253906 1191.585938 642.308594 1188.527344 640.316406 1189.339844 M 881.644531 1190.066406 C 879.453125 1191.691406 882.402344 1194.378906 884.355469 1193 C 886.546875 1191.308594 883.597656 1188.621094 881.644531 1190.066406 M 614.640625 1201.171875 C 612.804688 1202.382813 614.613281 1205.339844 616.566406 1204.507813 C 619 1203.464844 616.777344 1199.757813 614.640625 1201.171875 M 908.171875 1201.171875 C 905.855469 1201.570313 906.460938 1205.066406 908.8125 1204.265625 C 910.738281 1203.605469 910.289063 1200.800781 908.171875 1201.171875 M 850 1237 C 843 1241.371094 834.960938 1243.003906 828 1247.269531 C 816.445313 1254.347656 809.210938 1264 795 1265.710938 C 782.699219 1267.289063 770.300781 1261.5625 758 1262.105469 C 743.96875 1262.722656 729.660156 1269.410156 716 1263.085938 C 710.507813 1260.539063 706.480469 1256.097656 702 1252.183594 C 696 1247 689.199219 1244.394531 682 1241.394531 C 680 1240.628906 676.207031 1239.472656 676.207031 1237 C 676.207031 1233.511719 682.660156 1232.71875 685 1232 C 695.1875 1228.726563 704.871094 1224.074219 715 1220.667969 C 756.269531 1206.789063 813.238281 1212.273438 850 1237 M 723 1222 L 723 1224 C 758 1224 792 1235 827 1235 C 820.574219 1226.09375 809.203125 1223.675781 799 1221.425781 C 772.761719 1215.640625 749 1221 723 1222 M 469 1232 L 470 1233 L 469 1232 M 469 1234 C 471.535156 1254 480 1271.371094 489.214844 1289 C 495.355469 1300.824219 500.34375 1313.296875 508.503906 1324 C 526.375 1347.449219 563.992188 1370.550781 594 1373 L 594 1372 C 552.582031 1353.550781 522.394531 1327.371094 497.691406 1289 C 491 1279 485.300781 1268.214844 480.800781 1257 C 477.765625 1249.4375 475.3125 1239.410156 469 1234 M 949 1235 L 948 1236 L 949 1235 M 955 1248 C 953.898438 1249.457031 953.457031 1250 952 1251 C 953 1249.542969 953.542969 1249.101563 955 1248 M 501 1251 L 501 1254 L 500 1254 C 500.25 1252.550781 500.316406 1252.246094 501 1251 M 682 1257.332031 L 682.332031 1257.667969 C 681.839844 1257.832031 681.226563 1257.332031 682 1257.332031 M 914.5 1289.5 C 913.871094 1290.128906 914.871094 1291.128906 915.5 1290.5 C 916 1290 915 1289 914.5 1289.5 M 965 1289 C 964.753906 1318.566406 942.96875 1347.042969 918 1361 C 904.21875 1368.644531 886.648438 1371.414063 877 1385 C 923.371094 1385 973 1336.792969 967 1289 L 965 1289 M 626 1336 C 632.1875 1345.640625 651.714844 1352 662 1356.425781 C 698 1372.113281 734.703125 1380.015625 774 1380 C 785.972656 1380 798.320313 1378.277344 810 1375.648438 C 814.171875 1374.710938 819.300781 1374.5625 822 1371 C 806.660156 1372.210938 791.433594 1375.820313 776 1375.820313 C 757.4375 1375.820313 738 1372.390625 720 1368.117188 C 687.675781 1360.453125 657.921875 1343.566406 626 1336 M 806 1418 L 807 1418 C 819.84375 1399.195313 838.757813 1387.253906 860 1379.691406 C 874 1374.6875 892.710938 1374.066406 902 1361 C 873.925781 1361.078125 843.363281 1372.597656 823 1392.039063 C 815.523438 1399.175781 807 1407.167969 806 1418 "/>
</g>
</svg>
