<?xml version="1.0" encoding="UTF-8"?>
<svg xmlns="http://www.w3.org/2000/svg" xmlns:xlink="http://www.w3.org/1999/xlink" width="1500pt" height="1500pt" viewBox="0 0 1500 1500" version="1.1">
<g id="surface1">
<path style=" stroke:none;fill-rule:nonzero;fill:rgb(0%,0%,0%);fill-opacity:1;" d="M 474 1116 L 475 1116 C 475 1134 479.835938 1152.457031 483.195313 1170 C 490.628906 1208.773438 500.476563 1247.015625 514.425781 1284 C 519 1296.53125 524.761719 1308.742188 530 1321 C 532.242188 1325.796875 533.34375 1332.183594 538 1335 C 529.726563 1309.570313 519.882813 1285.03125 513.375 1259 C 490.175781 1166.207031 480 1067.25 476 972 L 477 972 C 479.535156 1003.027344 505 1040 528 1059.570313 C 534.289063 1065 540.871094 1070.296875 548 1074.546875 C 552.773438 1077.390625 559.167969 1079.222656 562.398438 1084.042969 C 564.859375 1087.71875 563.828125 1092.8125 564.429688 1097 C 565.503906 1104.488281 567.882813 1111.660156 572 1118 C 578.449219 1127.527344 594.832031 1133.472656 598.351563 1144.015625 C 604.789063 1163.304688 598.390625 1183 609 1202 C 614.371094 1211.570313 621.277344 1220.597656 630 1227.320313 C 634.800781 1231.019531 641.601563 1232.726563 645.695313 1237.214844 C 649.386719 1241.253906 647.90625 1246.476563 650.179688 1251 C 653.492188 1257.597656 661.753906 1262.257813 668 1265.6875 C 685 1275.117188 703.613281 1280.089844 723 1282.164063 C 756.292969 1285.730469 805.972656 1283.046875 831.957031 1258.816406 C 839.878906 1251.429688 834.550781 1241.132813 841.226563 1234.214844 C 845.285156 1230.007813 851.488281 1228.390625 856 1224.671875 C 865.75 1216.632813 871.933594 1206.277344 877.21875 1195 C 881.566406 1185.726563 884.375 1175.148438 885.710938 1165 C 886.546875 1158.632813 885.84375 1151 888.769531 1145.039063 C 894.398438 1133.726563 910.515625 1129 917 1117 C 921.769531 1108.539063 918.839844 1096.371094 923.742188 1089.09375 C 929.957031 1080 946.488281 1074 955 1066 C 973.945313 1048.253906 988 1025.644531 998.28125 1002 C 1002 993.296875 1007 983.515625 1008 974 L 1009 974 C 1002.6875 1054 1000.253906 1135 984.199219 1214 C 978.714844 1241 971.882813 1268 962.996094 1294 C 957.957031 1308.796875 949 1323.398438 947 1339 L 948 1339 C 973 1291.808594 989.554688 1238.230469 1000 1186 C 1004.191406 1165.039063 1009.558594 1142.410156 1010 1121 C 1014.460938 1133 1014.347656 1146.527344 1016.273438 1159 C 1018.929688 1176.183594 1023.46875 1193.199219 1027.882813 1210 C 1037 1245 1053.863281 1277.03125 1065.65625 1311 C 1070.980469 1326.335938 1075.574219 1342.128906 1079 1358 C 1079.601563 1360.789063 1082.269531 1372.328125 1087.257813 1367.378906 C 1091.308594 1363.359375 1086.273438 1352.570313 1085 1348 C 1080.515625 1329.648438 1074.886719 1311.746094 1068.320313 1294 C 1061.800781 1276.390625 1053 1259.703125 1046.691406 1242 C 1035 1209.179688 1027.703125 1175.261719 1021.75 1141 C 1018.394531 1121.691406 1013.277344 1102.78125 1015.171875 1083 C 1018.199219 1051.28125 1023.734375 1019.785156 1025.910156 988 C 1027.574219 963.726563 1025.863281 939.234375 1028.171875 915 C 1029.453125 901.503906 1033.421875 888.449219 1034.828125 875 C 1036.480469 859.234375 1033.984375 843.679688 1036.300781 828 C 1038 816 1043.867188 805.019531 1045.726563 793 C 1049.367188 769.414063 1052.910156 745.695313 1055.714844 722 C 1056.734375 713.394531 1055.628906 704.484375 1057.925781 696 C 1062 681 1078 666.707031 1087.921875 655 C 1106.902344 632.25 1125.992188 608.5 1135.484375 580 C 1145.550781 549.773438 1137.691406 521.78125 1139 491 C 1139.726563 475.292969 1143.273438 459.71875 1143.960938 444 C 1146 395.214844 1139.613281 341.332031 1127.625 294 C 1121.652344 270.414063 1109.914063 248.703125 1101.425781 226 C 1092.914063 203.238281 1087.925781 179.371094 1078.28125 157 C 1074.800781 149 1071.886719 139.613281 1065.675781 133.132813 C 1057.753906 125 1044.855469 132.183594 1037 137.066406 C 1014.503906 151.050781 1000 175 985 196 C 966.414063 222.105469 946 247.035156 928.691406 274 C 901.453125 316.289063 878.617188 361.121094 854 405 C 849 414.199219 844.492188 424.359375 836.828125 431.816406 C 831.390625 437.105469 823.1875 439.0625 818.417969 445.042969 C 809.453125 456.289063 815.59375 470.285156 797 472.710938 C 784.476563 474.34375 771.476563 472 759 471.089844 C 742 470 724.902344 470.777344 708 470.039063 C 698.441406 469.621094 684.53125 473.476563 676 468 C 666.21875 461.570313 671.621094 449.503906 664.722656 442.328125 C 659 436.480469 651.175781 434.554688 645.804688 428 C 631.285156 410.261719 624 388.773438 613 369 C 590 327.324219 566.753906 285.390625 538.371094 247 C 514.585938 214.828125 493.679688 177.03125 465 149.015625 C 456.425781 140.636719 437.335938 125.625 424 130.601563 C 417.207031 133.140625 414.207031 143.039063 411.246094 149 C 402 167.304688 396.5 187.429688 390.859375 207 C 382.636719 235.527344 367.214844 261.496094 358.722656 290 C 346.355469 331.492188 342.921875 377 341 420 C 339.921875 445.570313 344.949219 470.535156 345.289063 496 C 345.511719 512.699219 341.511719 529.375 342 546 C 342.582031 563 347.476563 579.800781 354.785156 595 C 366 618.53125 383.445313 639.265625 400.273438 659 C 409.191406 669.460938 421.394531 679.578125 425.894531 693 C 428.320313 700.226563 426.574219 708.507813 427 716 C 427.980469 729.03125 430 742.144531 432.425781 755 C 434.980469 769.179688 438 783.453125 443 797 C 446.445313 806.246094 452.277344 815.144531 453.699219 825 C 460.347656 871.113281 454.933594 917 458 963 C 461.699219 1015.695313 473.992188 1070.515625 465.246094 1123 C 459 1160.121094 452 1197.152344 440.328125 1233 C 431.992188 1258.582031 419.664063 1282.574219 411 1308 C 405.949219 1323 401.925781 1337.804688 398 1353 C 397.1875 1356.761719 393.867188 1365.144531 397.601563 1368.289063 C 403 1373 405 1359.660156 405.609375 1357 C 408.746094 1340.414063 413.828125 1323.773438 419.808594 1308 C 437.890625 1260.292969 456 1215.363281 466.199219 1165 C 469.398438 1149.007813 473.988281 1132.371094 474 1116 M 579 468 L 578 468 C 578 458 578.386719 448 576.867188 438 C 576.585938 436.175781 575.644531 428.792969 572.324219 430.207031 C 568 432 569.246094 449 568.832031 453 C 566.730469 474 561.402344 494.617188 556.375 515 C 555.289063 519.390625 554.605469 532.722656 548.867188 533.492188 C 544.382813 534.097656 539.511719 529.621094 536 527.425781 C 525.871094 521.085938 512.671875 513.164063 511.1875 500 C 510 490.1875 516.789063 480.5 520.691406 472 C 527.316406 457.566406 534.453125 440.21875 531.535156 424 C 522.175781 372 460.429688 337.460938 479 279 C 469.738281 286 470.433594 299.578125 471.714844 310 C 473.53125 324.773438 477 338.398438 483.308594 352 C 488 362.34375 495.992188 372.710938 498 384 C 487.65625 382.691406 475.84375 382.695313 467 376.363281 C 458.402344 370.203125 455.191406 359.707031 452.421875 350 C 446.910156 330.691406 443.84375 310.6875 440 291 C 437.878906 280.121094 439.714844 265.210938 431 257 C 431 276.753906 434.363281 296.414063 436.714844 316 C 439.191406 336.652344 440.46875 357 452 375 C 460.835938 388.578125 472.859375 401.300781 486 410.699219 C 490.972656 414.253906 502.398438 417 503.378906 424.015625 C 504.332031 431 495 435.804688 491.175781 440.039063 C 483.789063 448 481.347656 457.128906 478 467 L 477 467 C 477 453 487.78125 435.15625 483 422 C 478.511719 409.484375 463.519531 402.171875 455.519531 392 C 444.765625 378.332031 440.519531 361.449219 436 345 C 435.292969 342 430.636719 328 425.777344 334.257813 C 421.816406 339.425781 426.679688 355.617188 426.960938 362 C 427.613281 377 427.613281 390.730469 432.691406 405 C 438.875 422.371094 450.269531 438.308594 452.371094 457 C 453.347656 465.699219 449.648438 474.472656 448.429688 483 C 447 492.679688 447.597656 503.472656 449.660156 513 C 451.828125 523.007813 455 532.683594 459.308594 542 C 461.703125 547.246094 465.820313 554 463.257813 560 C 461 565.148438 456.207031 563.246094 454.386719 559 C 450.300781 549.390625 449 538.71875 445.1875 529 C 444.371094 527 440.4375 517.332031 437 521.464844 C 432.871094 526.503906 440.222656 545.652344 440.828125 552 C 442.679688 571.351563 437.769531 601 421 613 C 419.207031 603.480469 418.308594 593 414.519531 584 C 413.394531 581.328125 410.378906 575.519531 406.632813 576.613281 C 402.859375 577.714844 402.898438 583 403.519531 586 C 405.4375 595.285156 411 604 414 613 L 413 613 C 407.453125 606.300781 399.578125 601.347656 391 599.519531 C 385.25 598.289063 378 600.148438 373.378906 595.6875 C 350.628906 574.039063 360 532.113281 360 505 C 366.273438 508.628906 366 514.425781 366 521 C 366 532.757813 366.226563 544.296875 367 556 C 367.339844 560.621094 367.335938 571.601563 372.339844 574 C 377.933594 576.554688 381 564.351563 382.203125 561 C 386.816406 547.476563 399.4375 525 415 536 C 415 523.136719 418.859375 504.046875 415 492 C 411.710938 481.6875 400.351563 472.65625 391 468 C 400 483.695313 401.789063 495.382813 403 513 C 397 508.363281 395.390625 500.707031 392.574219 494 C 385.890625 478.070313 381.203125 461.769531 377 445 C 370.441406 417.460938 362.476563 387.691406 363.195313 359.171875 C 364.347656 313.472656 383.941406 272.382813 398.65625 230 C 406 208.671875 412.542969 187.023438 420.796875 166 C 423 160.3125 425.21875 147.664063 432 145.707031 C 438.683594 143.804688 447.6875 153.273438 452 157.171875 C 468.734375 172.285156 479.984375 192 493 210 C 500 219.402344 510.175781 228.035156 514.519531 239 C 516.5625 244.152344 514.667969 248.789063 515.480469 254 C 516.695313 261.816406 520.679688 269.0625 524.257813 276 C 544.488281 315.195313 570.585938 352.765625 578.574219 397 C 583 421.5 579.503906 443.621094 579 468 M 1084 513 L 1083 513 C 1078.773438 495.242188 1086.859375 483.269531 1094 468 C 1084.335938 474.519531 1072.355469 481.753906 1069.527344 494 C 1068.203125 499.746094 1069.820313 505.277344 1069.820313 511 C 1069.820313 515.539063 1067.765625 520.597656 1070.179688 525 C 1072.386719 528.820313 1077.449219 529.324219 1080.996094 531.5625 C 1085.902344 534.65625 1089.652344 539.414063 1093 544 C 1098.597656 551.308594 1101.957031 559.703125 1105.617188 568 C 1106.679688 570.402344 1108.515625 574.546875 1111.824219 574.078125 C 1117.507813 573.273438 1117 562.019531 1117.574219 558 C 1119 546.042969 1119 534.042969 1119 522 C 1119 516 1118.382813 509.613281 1124 506 C 1124.5 530.300781 1129.28125 554.507813 1120.1875 578 C 1117.914063 584 1115.660156 591.40625 1110.816406 595.695313 C 1105.78125 600.15625 1098.984375 598.226563 1093 599.761719 C 1085.503906 601.683594 1079.851563 606.757813 1073 610 C 1075.839844 601.609375 1082.640625 592.746094 1083.628906 584 C 1084 580.40625 1081.597656 574.761719 1077 577 C 1067.191406 582 1068.472656 604.089844 1064 613 C 1046.191406 599.246094 1043 565.496094 1045.871094 545 C 1046.359375 541.484375 1052.316406 521.261719 1046.726563 520.59375 C 1042.871094 520.128906 1041.21875 526.320313 1040.34375 529 C 1037.183594 538.714844 1036.746094 549.789063 1032 559 C 1028 566.71875 1021.804688 562.140625 1022 555 C 1022.796875 538.6875 1035.1875 524 1036.828125 507 C 1038.710938 487.585938 1029.285156 466.609375 1034 448 C 1039.628906 427.101563 1053.4375 410.035156 1055.835938 388 C 1057.320313 374.324219 1056.234375 360.554688 1058.804688 347 C 1059.417969 343.765625 1062.675781 335.226563 1058.578125 333.175781 C 1052.386719 330.074219 1048.992188 347.507813 1048.207031 351 C 1044.875 365.8125 1039.230469 381.617188 1028.824219 393 C 1019.570313 403.101563 1003.277344 411.28125 1000.570313 426 C 997.816406 441 1012.894531 451.832031 1007 468 L 1006 468 C 1004.710938 458.417969 1001.457031 448.296875 994.816406 441.039063 C 990.707031 436.550781 980.617188 431.253906 981.621094 424.015625 C 982.613281 417 995 413.613281 1000 409.710938 C 1013.296875 399.328125 1025.789063 386.230469 1034.910156 372 C 1045.992188 354.707031 1047.1875 333.828125 1049.167969 314 C 1051 295.082031 1054.949219 276.035156 1055 257 C 1046.679688 264.265625 1048.199219 279 1046.386719 289 C 1041.839844 314.222656 1039.789063 347.132813 1025.453125 369 C 1019.367188 378.277344 1009.40625 380.777344 999 382 C 996.796875 382.199219 989.910156 384.277344 988.789063 381.394531 C 986.332031 375.082031 998.488281 359.589844 1001.242188 354 C 1011 334 1024.21875 297.195313 1007 278 C 1013.769531 313 1001.484375 339.789063 982.945313 369 C 972.449219 385.542969 958.835938 401.355469 954.667969 421 C 950.886719 439 957.734375 457 964.859375 473 C 968.816406 482 975 490.804688 974.214844 501 C 973 514.5 959.234375 522.050781 949 528.425781 C 945.859375 530.382813 940.355469 535.65625 936.304688 534.289063 C 931.847656 532.785156 930.542969 520.019531 929.425781 516 C 923.917969 496.1875 919.363281 475.460938 917 455 C 916.722656 451 917.429688 432.082031 913.449219 430.207031 C 909.878906 428.523438 908.878906 437.175781 908.589844 439 C 906.835938 450.117188 908 461 908 472 C 903.488281 465.667969 904 456.449219 904 449 C 904 433.222656 903.851563 417.570313 906.804688 402 C 914.941406 359.097656 938.527344 322.449219 957.753906 284 C 962 275.347656 967.808594 266.457031 970 257 C 971.566406 251 968.945313 244.78125 971.363281 239 C 976.488281 226.734375 988 217.519531 995.84375 207 C 1008 190.457031 1019.375 173.601563 1034 159 C 1038.789063 154.21875 1045.570313 146.136719 1052.960938 145.757813 C 1060.378906 145.375 1063 159.761719 1065.203125 165 C 1073.59375 186.359375 1079.71875 208.480469 1087.679688 230 C 1101.769531 268.066406 1117.9375 305.128906 1121.828125 346 C 1124.347656 372.429688 1118.445313 399.390625 1112.652344 425 C 1105.777344 455.378906 1098.601563 485.242188 1084 513 M 519 246 C 535.636719 261.394531 545.652344 283 557.425781 302 C 579 337.046875 602 374 617.988281 412 C 627.421875 434.730469 634.796875 467.683594 604 475 C 599.386719 416.527344 581.324219 363.15625 552.425781 312 C 543.671875 296.507813 534.550781 281.261719 525.398438 266 C 522 260.449219 516.378906 252.71875 519 246 M 968 246 C 965 261.554688 956.570313 273.5625 948.601563 287 C 939 303.042969 929.8125 319.425781 921.257813 336 C 897.726563 381.589844 884 430.582031 884 482 C 873.953125 477.746094 855.207031 465.3125 855.464844 453 C 855.863281 433.804688 868.195313 412.558594 876.742188 396 C 894.261719 362.050781 912.730469 328.765625 932.398438 296 C 941.824219 280.300781 953 256.789063 968 246 M 359 393 C 359 417 365.910156 443.15625 372.722656 466 C 377.648438 482.539063 385.25 494.191406 383 512 C 351.734375 495.734375 353.941406 450.371094 356.828125 420 C 357.625 411.65625 354.558594 400.417969 359 393 M 1127 394 C 1127 416.035156 1127.554688 438 1127 460 C 1126.5 481.054688 1123.90625 503.140625 1101 512 C 1101 489.152344 1112.238281 467.300781 1117.347656 445 C 1120.988281 429.125 1120.734375 408.792969 1127 394 M 578 469 L 578 472 L 577 472 C 577.25 470.550781 577.316406 470.246094 578 469 M 656 506 C 660 503 664.40625 499.511719 666.859375 495 C 668.664063 491.6875 668 485.539063 672.226563 484 C 676.199219 482.464844 681.917969 484.441406 686 484.828125 C 694.605469 485.648438 703.367188 486.320313 712 487 C 734.757813 488.472656 758 489 781 488 C 790.203125 487.558594 803 484.015625 811.996094 486.433594 C 820 488.628906 822.332031 499.765625 828 505 C 827.691406 497.789063 823.753906 483.425781 829.726563 477.605469 C 833.296875 474.125 840 477.773438 844 479 C 856 482.71875 869.554688 486 878.828125 495.175781 C 903.882813 520 920.40625 553.726563 944.171875 580 C 970.925781 609.582031 1004.921875 628.582031 1021 667 C 1011.679688 660.511719 1002.828125 654.734375 993 649 C 999.703125 663.109375 1011.902344 674.105469 1019.21875 688 C 1030.664063 709.726563 1037 735.554688 1033.570313 760 C 1031.8125 772.148438 1026.742188 783.144531 1024 795 L 1023 795 C 1022.410156 781.242188 1020 768 1020 754 C 1015.1875 759.535156 1015 771 1015 778 C 1014.90625 797.242188 1021.566406 816.058594 1020.957031 835 C 1020.605469 846 1014.320313 855.308594 1013.175781 866 C 1012 876 1013.777344 886.058594 1012.828125 896 C 1009.503906 931 1001.609375 964.742188 987.574219 997 C 977.46875 1020.230469 963.3125 1042.425781 944 1059 C 940.5 1062.003906 927.777344 1074.160156 922.601563 1071 C 918.488281 1068.246094 920.851563 1050.359375 921.425781 1046 C 924.613281 1021.714844 928.269531 998.714844 935 975 C 928.519531 981.699219 926.417969 995.265625 923.308594 1004 C 917.777344 1019.539063 912.746094 1035.484375 911.171875 1052 C 909.328125 1071.265625 911.425781 1090.820313 909 1110 L 908 1110 C 903.859375 1101.132813 898.398438 1093 894.308594 1084 C 892 1079 891 1072.832031 887 1069 C 889.34375 1079 889.875 1093.273438 887 1103 L 886 1103 C 884.558594 1085 877.921875 1066.332031 872.71875 1049 C 861.421875 1011.347656 846.671875 974.808594 832.949219 938 C 826.375 920.363281 818.246094 902.359375 814 884 L 813 884 C 813.871094 904 824 925 829.578125 944 C 839.589844 979.078125 850.417969 1014 860.421875 1049 C 871.878906 1089.183594 880.875 1129.445313 871.347656 1171 C 867.410156 1188.171875 861 1209.574219 846 1220.363281 C 831.667969 1230.640625 810.847656 1231.007813 794 1231 C 782.421875 1231 760 1229.316406 752.742188 1218.816406 C 748.902344 1213.328125 753.648438 1208.199219 758 1205.039063 C 770 1196.316406 783.285156 1189.515625 795 1180.339844 C 831.238281 1152 843.800781 1101.011719 814.570313 1063 C 807.480469 1053.777344 798.355469 1045.824219 787 1042.441406 C 777.527344 1039.617188 766.390625 1040.515625 757 1043.15625 C 751 1045 745.402344 1048.429688 739 1048 C 724.53125 1046.671875 714.375 1038.574219 699 1044.089844 C 644.585938 1063.605469 645 1135.304688 680 1172 C 693.566406 1186.171875 711.882813 1192.21875 725.90625 1205.300781 C 731.605469 1210.617188 735.40625 1218.59375 728.890625 1224.785156 C 720.6875 1232.585938 706.523438 1232.382813 696 1233.089844 C 656.730469 1235.730469 619.757813 1212.644531 614.28125 1172 C 600.878906 1072.507813 648.640625 978.816406 672 884 C 667.855469 888.367188 667.296875 895.441406 665.191406 901 C 659.902344 915 654.554688 929 649.65625 943 C 638.542969 975.003906 627 1007 616.332031 1039 C 609.730469 1058.8125 601.433594 1081 601 1102 L 600 1102 C 596.433594 1089.316406 598.992188 1077 599 1064 L 598 1064 C 594.820313 1075.210938 590.371094 1085 584.578125 1095 C 583.355469 1097.128906 580 1105.085938 576.585938 1103.652344 C 574.492188 1102.792969 574.507813 1098 574.285156 1096 C 573.335938 1088.0625 575.460938 1080.03125 574.910156 1072 C 573.683594 1054.085938 572.429688 1035.226563 566.972656 1018 C 562.511719 1004 553.652344 990 553 975 L 551 975 C 551 991.636719 557.355469 1008 560.789063 1024 C 563.90625 1038.632813 564 1053.105469 564 1068 C 531.796875 1056.117188 509.988281 1021 497 991 C 483.378906 959 482.1875 927 477.574219 893 C 474.453125 870.070313 467.582031 847.222656 467 824 C 466.675781 810.105469 470.972656 796.769531 471.910156 783 C 472.542969 773.71875 470.398438 764.261719 470 755 L 468 755 C 467.863281 771.28125 465 787.542969 460 803 L 459 803 C 436.902344 750 458.351563 689 494 648 C 485.285156 650.511719 478.242188 656.449219 470 660 C 477.96875 631 511.816406 610.671875 531.984375 590 C 552.316406 569.15625 568.738281 545.230469 586 522 C 593.433594 512.238281 599.777344 500.398438 609 492.324219 C 617.628906 485 628.726563 482 639 477.574219 C 642.554688 476.085938 647.753906 473 651.722656 474.617188 C 660.484375 478.378906 657.777344 499.128906 656 506 M 742 498 C 736 510.574219 727.648438 523.679688 727.257813 538 C 726.625 561.421875 740 583 742 606 L 744 606 C 744 596.039063 744.316406 586.503906 747.699219 577 C 752 565 759.429688 553.324219 759.429688 540 C 759.429688 530 754.300781 521.667969 749.96875 513 C 747.429688 508 746 502.066406 742 498 M 523 707 C 535.796875 701.476563 546.300781 689.699219 556 680 C 587.726563 648.273438 605.683594 607.136719 632.886719 572 C 646.339844 554.625 668.679688 545.441406 681 528 C 664.335938 530.496094 647.550781 544.535156 636 556.003906 C 606 585.785156 587 625.671875 561.347656 659 C 553 669.660156 544.386719 680 535.574219 690 C 530.90625 695.386719 525.296875 700.078125 523 707 M 804 528 C 807.492188 535.472656 815.601563 539.578125 822 544.375 C 831.609375 551.582031 840.746094 559.6875 848.382813 569 C 876.417969 603.183594 894.339844 644.757813 925 677 C 935 687.679688 946.429688 701.386719 961 706 C 958 698.554688 951.425781 693 946.167969 687 C 936.984375 676.777344 928.21875 666 919.882813 655 C 895.492188 623.03125 877.679688 585.589844 849 557 C 836.929688 545 820.964844 532.03125 804 528 M 478 531 C 486.554688 544 498.953125 556.15625 512 564.5625 C 515.585938 567 525.464844 570.484375 524.246094 576.015625 C 523.3125 580.269531 517.972656 583.320313 515 586.089844 C 506.214844 594.273438 497.476563 602.484375 489 611 C 475.445313 624.621094 462.6875 639.320313 450.273438 654 C 445.9375 659.128906 440.785156 669.179688 434 671.199219 C 429.445313 672.554688 426.886719 668 424.484375 665 C 418.519531 657.59375 409.980469 651.335938 407 642 C 417.628906 642 429.640625 641.476563 439 635.785156 C 460.808594 622.523438 470.277344 587.410156 474.386719 564 C 476.21875 553.539063 472.300781 540.5 478 531 M 1009 532 C 1009 558.597656 1013.257813 585.023438 1025.246094 609 C 1030.273438 619.050781 1036 629.53125 1046 635.519531 C 1055.195313 641.070313 1067.5 642 1078 642 C 1073.703125 651.640625 1064.660156 659.515625 1058.425781 668 C 1056 671.128906 1053.527344 675.359375 1049 674.507813 C 1042 673.191406 1038.390625 663.332031 1035 658 C 1025.902344 643.394531 1015 629.28125 1002.996094 617 C 992.875 606.742188 983.21875 596 972 586.804688 C 968.84375 584.238281 961.335938 580 961.921875 575.015625 C 962.546875 570 971.3125 566.515625 975 564 C 987.652344 554.65625 996.488281 541 1009 532 M 910 685 C 894.386719 664.03125 863.992188 692.601563 855.476563 707 C 852.589844 712 846.933594 725.378906 855 728.382813 C 861.308594 730.691406 865.859375 723.613281 868.191406 719 C 870.714844 714.003906 872 708.503906 875.53125 704 C 884.28125 692.574219 897.359375 690 910 685 M 584 680.53125 C 582 681 576.324219 683.164063 578.175781 686.078125 C 580.863281 690.308594 596.191406 693.40625 601 696.769531 C 611.175781 704 613.40625 713.011719 619.480469 723 C 621.832031 727 625.851563 731.648438 630.980469 730.636719 C 641.363281 728.597656 633.191406 712 630.175781 707 C 621.839844 693.308594 601.488281 676.253906 584 680.53125 M 519 735 C 526.628906 731 532.3125 723.035156 540 718.453125 C 545.523438 715.160156 555.191406 713.074219 559 708 C 542.332031 708.726563 523.863281 718.148438 519 735 M 924 712 C 926.789063 715.679688 932.757813 716.183594 937 717.691406 C 947.179688 721.3125 956.636719 730 967 732 C 958.273438 717 940.410156 712.011719 924 712 M 526 754 C 529.621094 757.164063 535.179688 757.164063 538 761.214844 C 541.363281 765.578125 541 772 542.746094 777 C 545.660156 786.089844 551.265625 794.421875 559 800.074219 C 574.871094 811.671875 591.972656 808.414063 610 806.285156 C 615 805.691406 623.539063 809.300781 626.683594 804 C 631 796.207031 627 783 625.398438 775 C 623 763.136719 620.53125 749.570313 612.480469 740.089844 C 601 726.695313 579.570313 726.414063 564 731.035156 C 549.390625 735.371094 538 745.273438 526 754 M 961 755 C 954.683594 747.355469 943.726563 741 935 736.324219 C 918.347656 727.445313 892.605469 723.742188 877 736.820313 C 866.273438 746 861.203125 760.457031 858.921875 774 C 857.351563 783.304688 856.71875 792.660156 858 802 C 858.339844 804.476563 858.238281 809.40625 860.175781 811.253906 C 862.511719 813.480469 870.929688 806.753906 874 806.199219 C 890.234375 803.273438 906.753906 810 922 801.121094 C 941.863281 789.722656 941.980469 764.613281 961 755 M 578 742.300781 C 588.441406 740.8125 600.195313 744.53125 605.632813 754 C 612.601563 766.132813 609.625 784.394531 594 786.699219 C 580 788.738281 566.835938 780.089844 559.359375 769 C 556.660156 765 552.867188 759.09375 554.757813 754.039063 C 557.601563 746.4375 570.878906 743.316406 578 742.300781 M 898 742.324219 C 906.816406 741 929.527344 745.371094 931.640625 756.015625 C 934.632813 771.097656 911.386719 787 899 788.699219 C 867.816406 793.195313 870.195313 747 898 742.324219 M 579 750.558594 C 561.179688 755.171875 572.757813 783 588.996094 778.566406 C 607.570313 773.515625 597.589844 745.746094 579 750.558594 M 898 752.519531 C 881 756.203125 886.609375 781.316406 902 778.425781 C 919.878906 775.074219 917.929688 748.195313 898 752.519531 M 561 900 C 555.277344 886.480469 543.347656 876.125 537.425781 862 C 526.714844 836.457031 523 808.570313 515.847656 782 C 513.726563 774.265625 510.285156 766.003906 504.699219 760.105469 C 502.71875 758.015625 498.535156 754.28125 495.363281 756.132813 C 492.507813 757.796875 494.855469 761.226563 496.195313 763 C 502.609375 771.496094 506.769531 778.328125 508.566406 789 C 513.550781 818.652344 517.890625 848 534 874 C 540.523438 884.402344 548.8125 896.117188 561 900 M 924 900 C 935.835938 898 943.441406 886.339844 949.667969 877 C 966.761719 851.359375 970.851563 821.71875 975.753906 792 C 977.695313 780.222656 983 773 988.980469 763 C 990.171875 761.015625 991.96875 757 988.679688 755.710938 C 985 754.472656 981.59375 758.644531 979.667969 761.015625 C 973.867188 768.160156 970.796875 776.273438 968.289063 785 C 959.773438 814.675781 956.425781 846 942.742188 874 C 937.917969 884 929.980469 891 924 900 M 691 760 C 687.503906 802.816406 665 842.351563 649 881 C 656.449219 877.453125 660.335938 868.6875 664.65625 862 C 678.425781 840.683594 684.710938 815.691406 689 791 C 690.371094 783.734375 697.984375 765.324219 691 760 M 791 761 C 793.355469 771 792.847656 782 794.425781 792 C 797.839844 814.023438 804.6875 835.605469 815.71875 855 C 820.71875 863.792969 825.632813 874 834 880 C 832.222656 868.148438 823.644531 857.8125 818.863281 847 C 811 829.457031 805.519531 810.578125 800.871094 792 C 798.851563 784 798 766 791 761 M 586 922 C 599.84375 918 607.683594 903.78125 615.898438 893 C 619.542969 888.214844 624.214844 884.371094 627 879 C 610.6875 881.207031 605.453125 895 596.957031 907 C 593.3125 912.148438 588.742188 916.234375 586 922 M 842 879 C 843.566406 894.214844 861.171875 915.519531 875 921 C 873.359375 905 857.503906 883.476563 842 879 M 859 880 C 867.335938 894.417969 883.410156 917.222656 900 922 C 897.402344 916.332031 892.613281 912.078125 889 907 C 880.765625 895.230469 875.628906 880.148438 859 880 M 610 923 C 622.960938 917.335938 626.5625 904.101563 635.171875 894 C 636.90625 892 644.460938 885.007813 640.378906 882.082031 C 636.53125 879.328125 630.300781 886.648438 628.175781 889.003906 C 620.277344 897.742188 611.769531 911.191406 610 923 M 1010 971 L 1010 974 L 1009 974 C 1009.25 972.550781 1009.316406 972.246094 1010 971 M 802 1099 C 794.335938 1098 787.371094 1094.601563 780 1092.425781 C 777.488281 1091.683594 772.847656 1091.074219 772.464844 1087.777344 C 771.824219 1082.226563 778.910156 1080.347656 783 1081.703125 C 790.46875 1084.179688 797.628906 1092.773438 802 1099 M 526 1109 C 523.398438 1107 514.851563 1102.597656 516.761719 1110.019531 C 518 1115.066406 523.960938 1124 527.632813 1127.664063 C 533.320313 1133.40625 532.9375 1122.003906 531.871094 1119.003906 C 531 1117 530 1115 529 1113 C 533.378906 1115.617188 538.484375 1115.644531 535.921875 1109 C 533 1101.644531 528.640625 1092.039063 523.480469 1086.058594 C 517.761719 1079.429688 513.980469 1084.398438 517.671875 1091 C 518.960938 1093.304688 520.1875 1095.589844 521.269531 1098 C 522.902344 1101.636719 524.488281 1105.3125 526 1109 M 956 1115 C 954.972656 1117 954 1118.816406 953.527344 1121.003906 C 952.824219 1124.121094 953.535156 1132.671875 958.316406 1127.664063 C 962.710938 1123.0625 977.253906 1099.035156 961 1108 C 962.410156 1104.34375 963.632813 1100.535156 965.328125 1097 C 966.53125 1094.480469 968.222656 1092.363281 969.667969 1090 C 973.285156 1084.070313 968.179688 1080.453125 963.328125 1085.230469 C 958.765625 1089.722656 942.921875 1117.152344 956 1115 M 961 1108 L 960 1109 L 961 1108 M 527 1109 C 527.957031 1110.515625 528.386719 1111.339844 529 1113 L 528 1113 C 527.199219 1111.261719 526.945313 1110.804688 527 1109 M 957 1114 L 956 1115 L 957 1114 M 517 1142 C 514.683594 1140 505.4375 1134.109375 506.847656 1142.019531 C 507.734375 1147 512.964844 1155 516 1159 C 521 1165.164063 523.546875 1158 522.214844 1153.003906 C 521.652344 1151 520.761719 1149 520 1147 C 524 1149.546875 529 1149.175781 526.90625 1143 C 524.457031 1136.214844 520.320313 1126.546875 515.609375 1121.058594 C 509.765625 1114.253906 506.648438 1119.492188 509.757813 1126 C 510.710938 1128 511.691406 1130 512.574219 1132 C 514 1135.34375 515.601563 1138.636719 517 1142 M 714 1150 C 717.660156 1140.492188 716 1130.714844 704 1129.183594 C 700.695313 1128.765625 691 1130.761719 689.710938 1126.6875 C 687.371094 1120 699.738281 1117.226563 704 1117.039063 C 710.484375 1116.757813 717.226563 1118.464844 721 1124.042969 C 727 1132.445313 724.800781 1147.410156 714 1150 M 774 1151 C 753.535156 1145 763.214844 1117.441406 782 1117.054688 C 787 1117 798.96875 1119.207031 797.574219 1126.683594 C 796.84375 1130.589844 787.824219 1128.832031 785 1129.183594 C 772.320313 1130.769531 769 1140.542969 774 1151 M 965 1149 C 964.289063 1150.683594 963.632813 1152.210938 963.320313 1154.023438 C 959.191406 1178.058594 994 1129.003906 971 1140 C 972 1136.605469 973.210938 1133.203125 974.808594 1130 C 975.667969 1128.28125 976.722656 1126.683594 977.636719 1125 C 980.871094 1119.039063 976.332031 1115.355469 971.324219 1120.230469 C 966.796875 1124.640625 950.894531 1152 965 1149 M 547 1150 C 530.347656 1143 543.871094 1167 549.375 1171.621094 C 555.34375 1176.683594 554.597656 1166 553.640625 1163.003906 C 552.878906 1160.628906 551.898438 1158.324219 551 1156 C 552.824219 1158.070313 561.25 1164.3125 560.214844 1157 C 559.421875 1151.3125 554.359375 1142.632813 551 1138.0625 C 548.679688 1134.828125 544.390625 1134.0625 543.734375 1139.019531 C 543.242188 1142.726563 545.648438 1146.691406 547 1150 M 933 1159 C 932.371094 1161 931.664063 1163 931.324219 1165.003906 C 930.710938 1168.75 932.441406 1177 936.914063 1170.757813 C 940 1166.355469 946.324219 1158.105469 947.882813 1153.019531 C 950.261719 1145.238281 940.589844 1150 938 1152 C 938.953125 1149.671875 940 1147.386719 940.894531 1145 C 942.359375 1140.585938 941.46875 1131.203125 935.210938 1137.167969 C 930.855469 1141.320313 918.675781 1165.75 933 1159 M 971 1140 L 970 1141 L 971 1140 M 518 1142 L 520 1147 L 519 1147 C 518.191406 1145.042969 517.730469 1144.023438 518 1142 M 966 1148 L 965 1149 L 966 1148 M 548 1150 C 549.261719 1152.011719 550.191406 1153.777344 551 1156 L 550 1156 C 548.824219 1154 547.84375 1152.390625 548 1150 M 938 1152 C 937.453125 1153.636719 937.636719 1153.453125 936 1154 C 936.546875 1152.363281 936.363281 1152.546875 938 1152 M 936 1155 C 935.453125 1156.636719 935.636719 1156.453125 934 1157 C 934.546875 1155.363281 934.363281 1155.546875 936 1155 M 934 1158 L 933 1159 L 934 1158 M 827 1239 C 827 1243.035156 827.820313 1248.234375 825.820313 1252 C 820.726563 1261.261719 803.265625 1262.546875 794 1264.398438 C 763 1270.570313 731.851563 1272 701 1265 C 690.617188 1262.488281 680.46875 1259.753906 671 1254.738281 C 667.484375 1253 662 1249.722656 661.890625 1245.148438 C 661.738281 1241.582031 666.632813 1242 669 1242.089844 C 676.730469 1242.566406 683 1244.824219 690 1248.246094 C 717.851563 1262.128906 751.320313 1263.226563 781 1255 C 789.894531 1252.332031 797.390625 1246.636719 806 1243.4375 C 812.792969 1241 820 1240.679688 827 1239 "/>
</g>
</svg>
