<?xml version="1.0" encoding="UTF-8"?>
<svg xmlns="http://www.w3.org/2000/svg" xmlns:xlink="http://www.w3.org/1999/xlink" width="1500pt" height="1500pt" viewBox="0 0 1500 1500" version="1.1">
<g id="surface1">
<path style=" stroke:none;fill-rule:nonzero;fill:rgb(0%,0%,0%);fill-opacity:1;" d="M 405 448 C 409.859375 452 415.757813 455.59375 417.441406 462 C 420 472.015625 415.824219 483 415 493 C 413.449219 515.328125 414.511719 540.109375 410.382813 562 C 408.347656 572.773438 399 581.410156 401.679688 593 C 404.300781 604.496094 413.792969 613 417.65625 624 C 426.433594 649.105469 429.8125 676.003906 441.808594 700 C 445.691406 707.765625 450.441406 715.292969 456 722 C 459 725.695313 464.753906 729.136719 466 734 C 468.441406 742.609375 459.453125 756.617188 459 766 C 458.269531 783.460938 458.488281 802.609375 460.171875 820 C 461 828.625 464.742188 837.269531 463.714844 846 C 462.441406 856.773438 458 866.652344 455 877 C 452.863281 885 451.816406 893.828125 447.523438 901 C 439.589844 914.246094 426 923.328125 416.273438 935 C 395.253906 960 376.503906 987.621094 364.449219 1018 C 343.488281 1071 347.992188 1130.402344 370 1182 C 377.933594 1200.121094 386.570313 1218.179688 401 1232 C 415.464844 1245.773438 435.300781 1254.394531 453 1263.246094 C 490.523438 1282.007813 530.953125 1299.589844 572 1309 C 569 1304.160156 563 1302.570313 558 1300.421875 C 548.304688 1296.273438 538.589844 1292.082031 529 1287.691406 C 491 1270.320313 451 1256 414 1236.742188 C 395.390625 1227.117188 386.714844 1206.46875 378.851563 1188 C 358.785156 1141 351.683594 1079.089844 373 1031 C 379.519531 1045 389.945313 1056.769531 399 1069 C 404.65625 1076.414063 408.933594 1085.097656 416.171875 1091.097656 C 427 1100.113281 441.976563 1099.472656 450.480469 1112 C 457.835938 1123 462.421875 1135.34375 468.246094 1147 C 478.945313 1168.410156 490 1189.613281 500.753906 1211 C 506.988281 1223.4375 514.480469 1244 525 1253 C 523.1875 1243 515.636719 1232.425781 511.308594 1223 C 499.566406 1197.421875 485.523438 1173 472.484375 1148 C 464.917969 1133.527344 461.410156 1115.140625 449.699219 1103.183594 C 442.238281 1095.566406 430.609375 1095.558594 422 1090 C 406.734375 1080 396 1058.742188 385.71875 1044 C 382.980469 1040.078125 374.820313 1032.433594 374.507813 1027.828125 C 373.945313 1019.570313 382.960938 1006.035156 386.859375 999 C 396.917969 981 408.648438 964.1875 421.601563 948 C 428 940 437.648438 932.5 442 923 L 443 923 C 443 938.5 439 954.097656 439 971 C 439 975.480469 440.332031 985.832031 437 985 C 446.425781 1004.628906 442.539063 1031.683594 447.894531 1053 C 453.617188 1075.773438 468.40625 1095.726563 475.996094 1118 C 482.175781 1136.136719 486.671875 1161.15625 504 1172 C 500.480469 1164.089844 494.929688 1157.023438 491.3125 1149 C 483.246094 1131.105469 478.882813 1111.476563 472.308594 1093 C 458.683594 1054.714844 444.214844 1015.289063 446 974 C 446.488281 963.828125 450.574219 954 452.386719 944 C 455.230469 928.324219 456.808594 912.445313 460.882813 897 C 463.28125 888 467.742188 879.34375 469 870 L 470 870 C 470 901 471.648438 930.671875 488.996094 957 C 493.234375 963.429688 496.910156 972.398438 504 976 C 498.613281 961.769531 488.53125 949.761719 483.746094 935 C 473.320313 902.832031 473.976563 868.183594 474 835 L 475 835 C 475.65625 850.078125 483.6875 867.628906 490.371094 881 C 493.875 888.011719 499.585938 895.199219 501 903 C 502.835938 911.320313 487.800781 917.445313 495.433594 925.605469 C 501.488281 932.082031 512.945313 930.507813 520 936.328125 C 533.664063 947.601563 540.515625 965.046875 556 974.53125 C 562.859375 978.734375 583.351563 978.464844 586.4375 985.109375 C 589.308594 991.296875 588.460938 1000.300781 589.285156 1007 C 592.316406 1031.621094 594 1052.707031 580.988281 1075 C 572.445313 1089.589844 557.824219 1101.679688 551 1117 C 569.746094 1107.324219 592 1077.53125 594 1056 L 595 1056 C 592.84375 1083.089844 565.277344 1097.324219 560.46875 1123 C 557.605469 1138.265625 565.34375 1152.128906 566.828125 1167 C 569.347656 1192.199219 567 1217.691406 567 1243 L 568 1243 C 569 1218.714844 573.183594 1193.3125 570.828125 1169 C 569.4375 1154.589844 561.175781 1139.613281 564.527344 1125 C 570.226563 1100.1875 597.496094 1086 600.84375 1059 C 603.1875 1040.199219 602.207031 1021 600.910156 1002 C 600.628906 998 596.476563 984.71875 600.511719 982 C 603.210938 980.050781 606.753906 987.347656 608.210938 988.785156 C 614.78125 995.285156 627 998.6875 636 1000 C 631.261719 994 612.695313 987.234375 614 978.015625 C 614.890625 973.195313 621.648438 970.46875 625 967.675781 C 631.816406 962 646 940.292969 656.695313 949.652344 C 662.199219 954.523438 659.554688 965.457031 660.804688 972 C 662.566406 981.214844 665.921875 990.523438 665.921875 1000 C 665.921875 1014.800781 661 1029.652344 658 1044 C 651.328125 1075.15625 638 1104.300781 627 1134 C 622.40625 1146.410156 620.488281 1159.777344 615.546875 1172 C 610.574219 1184.300781 599 1193 595.898438 1206 C 588.851563 1234.441406 595 1268.804688 595 1298 C 602.261719 1292.472656 598 1276 598 1268 C 597.972656 1249.828125 596.429688 1230.777344 600.894531 1213 C 603 1204.355469 608.570313 1197.414063 611 1189 L 612 1189 C 610.59375 1198.558594 606.242188 1207.375 605 1217 C 613.964844 1210.269531 613.617188 1188.816406 620 1179 C 624.921875 1171.714844 631.398438 1166 635.214844 1158 C 643.792969 1140.035156 646.226563 1118.277344 650.652344 1099 C 658.582031 1064.4375 663.90625 1026 677.207031 993 C 681.464844 982.476563 688.53125 973 694 963 C 700 952.75 704.902344 936.316406 713 928.132813 C 718 923.234375 724.605469 924 731 924 L 771 924 C 777 924 783.945313 923.039063 788.867188 927.394531 C 792.78125 931 793.726563 936.480469 795.96875 941 C 799.726563 948.566406 804.257813 955.761719 808.601563 963 C 814.671875 973.117188 822 983.027344 826.546875 994 C 831.222656 1005.53125 832 1018 834.882813 1030 C 842.449219 1062 848.539063 1094.265625 856.882813 1126 C 859.472656 1136 861.523438 1147 866.324219 1156 C 871.472656 1165.679688 879.820313 1173.1875 884.730469 1183 C 890 1193.78125 891 1206.058594 896 1217 L 897 1217 C 896.921875 1207.734375 893.800781 1198.757813 891 1190 L 892 1190 C 895.785156 1198.78125 900.28125 1206.445313 902.191406 1216 C 907.628906 1243.171875 902.851563 1270.761719 905 1298 L 907 1298 C 907 1278.339844 906.769531 1258.660156 907 1239 C 907 1227.449219 909 1216.496094 906.324219 1205 C 903.230469 1192.1875 891.679688 1184.117188 887 1172 C 882.871094 1161 881 1149.144531 876.945313 1138 C 865.550781 1107 852.695313 1076.269531 844.628906 1044 C 840.496094 1027.484375 835.882813 1011.214844 837 994 C 837.59375 986.820313 840.292969 980.039063 841.535156 973 C 842.785156 966 839.992188 954.714844 846 949.433594 C 857 940 870.742188 963 878 968.214844 C 881.726563 971 888.773438 973.441406 888.621094 979.003906 C 888.34375 989.28125 871.371094 992.011719 867 1000 C 875.800781 998.183594 886.929688 995.773438 893.816406 989.609375 C 895.25 988.324219 899 981.054688 901.359375 982.207031 C 904.917969 984.007813 901.472656 996.824219 901.171875 1000 C 899.449219 1018.042969 898.859375 1037 901.289063 1055 C 903.425781 1071 911.34375 1084.160156 920.425781 1097 C 926.53125 1105.632813 934.835938 1114.507813 937.484375 1125 C 941.195313 1139.695313 932.574219 1156.242188 931.171875 1171 C 928.882813 1195.03125 934 1220 934 1244 L 935 1244 C 939.738281 1228 934 1205.761719 934 1189 C 934 1179.441406 934 1169.316406 936.476563 1160 C 938.84375 1150.472656 943.351563 1140 942.789063 1130 C 942 1117.453125 934.863281 1107.527344 929 1097 C 937 1106.171875 945.320313 1116 956 1122 C 950.226563 1109.050781 936.339844 1099 928.355469 1087 C 911 1061.046875 908.609375 1039.109375 911.835938 1009 C 912.59375 1002 911.945313 992.6875 914.601563 986.019531 C 917.621094 978.425781 938.570313 979.527344 946 975.070313 C 961.207031 966 967.871094 948.636719 981 937.46875 C 988.433594 931.195313 1000.230469 932.296875 1006.722656 925.722656 C 1014.898438 917.441406 999.855469 910.832031 1001.777344 902 C 1006.871094 878.605469 1024.976563 858.792969 1027 834 L 1028 834 C 1028 865.183594 1029.285156 897.769531 1020.277344 928 C 1015 945.539063 1004 960.097656 998 977 C 1006.203125 972.609375 1010 961.75 1014.425781 954 C 1029.417969 927.464844 1032 901.121094 1032 871 L 1033 871 C 1036.683594 896.039063 1043.628906 922.152344 1049 947 C 1051.265625 957.378906 1055.738281 967.21875 1055.945313 978 C 1056.484375 1006 1048 1034.632813 1040 1061 C 1030.96875 1090.453125 1023.574219 1121 1010.691406 1149 C 1006.78125 1157.539063 1000.214844 1164 996 1172 C 1003.289063 1169.515625 1006.796875 1162.480469 1010.21875 1156 C 1017.925781 1141.402344 1023.957031 1125.46875 1029.679688 1110 C 1036.203125 1092.382813 1047.449219 1075.800781 1052.792969 1058 C 1065.71875 1015 1065.242188 964.75 1057 921 C 1102.59375 967 1142.972656 1031.136719 1142.972656 1098 C 1142.972656 1121.414063 1137.371094 1146 1130 1168 C 1123 1188.777344 1114.269531 1218.628906 1096 1232.238281 C 1083 1242 1066.652344 1246.386719 1052 1253 C 1026.652344 1264.058594 1001.425781 1275.546875 976 1286.574219 C 965.386719 1291.179688 954.632813 1295.441406 944 1300 C 939 1302.136719 932.757813 1304.136719 930 1309 C 974.394531 1300.390625 1020.636719 1279.683594 1060 1258 C 1074.207031 1250 1090 1243.367188 1101.960938 1232 C 1114.367188 1220 1121.574219 1203.367188 1128.78125 1188 C 1152 1138.277344 1160.316406 1078.34375 1140.574219 1026 C 1129.875 997.632813 1114.476563 970.695313 1095.550781 947 C 1082.777344 931.007813 1065 916.824219 1053.851563 900 C 1050 894.429688 1049.375 887.316406 1047.574219 881 C 1044.453125 870.074219 1039.761719 859.335938 1038.289063 848 C 1037 838.367188 1040.519531 829.398438 1041.867188 820 C 1044 804.351563 1044.992188 787.8125 1043.910156 772 C 1043.335938 763.585938 1041.710938 755.074219 1039.277344 747 C 1038 743.019531 1035.167969 738.253906 1036.390625 734.003906 C 1037.6875 729.488281 1042.480469 726.445313 1045.382813 723 C 1050.230469 717.210938 1054.304688 710.703125 1057.742188 704 C 1070.660156 678.800781 1075 650.507813 1084.34375 624 C 1088.242188 613 1098 604.773438 1100.175781 593 C 1102 581.679688 1093.515625 572.578125 1091.285156 562 C 1087 542.148438 1089.730469 522 1087.828125 502 C 1086.691406 490.03125 1081.65625 474.832031 1084.53125 463 C 1086 456.289063 1092.207031 452.414063 1097 448 C 1100.710938 475.558594 1110.917969 502.628906 1116.195313 530 C 1120.53125 552.476563 1120 576.675781 1129.285156 598 C 1134 609.230469 1141.722656 618.742188 1149.589844 628 C 1153.421875 632.503906 1157.949219 637 1164 633.257813 C 1180.773438 623 1181.9375 595.367188 1179.574219 578 C 1178.332031 569 1173.976563 559.6875 1178.671875 551 C 1196.898438 517.277344 1233.699219 497.78125 1256.984375 468 C 1269 452.609375 1275.664063 434.082031 1282.425781 416 C 1288.242188 400.4375 1294.757813 383.734375 1295.910156 367 C 1296.789063 354.230469 1292.664063 342.28125 1292.691406 330.003906 C 1292.707031 323.78125 1300 322.152344 1303.347656 318 C 1309.269531 310.085938 1303.527344 299 1298.777344 292 C 1279.296875 263.644531 1243.847656 250.441406 1216 232.304688 C 1204 224.527344 1195.992188 212.378906 1182 208.027344 C 1155.25 199.703125 1126 201.800781 1100 191 C 1077.3125 181.582031 1052.855469 170.558594 1032 157.574219 C 1015.402344 147.242188 1000.464844 133.558594 981 129 C 967 125.578125 951.78125 131 939 136.066406 C 933.429688 138.285156 927.347656 144.058594 921 143.023438 C 907.578125 141 896.167969 129.34375 882 127.300781 C 860.988281 124.273438 840.992188 134.347656 820 133 C 798 131.414063 775.929688 128.476563 754 129.015625 C 727.683594 129.660156 701.320313 133 675 133 C 657.566406 133 640.179688 125.328125 623 127.175781 C 608 128.78125 595.453125 141.703125 581.285156 143.019531 C 574.492188 143.648438 567 137.441406 561 135.0625 C 547.492188 129.796875 533.34375 126.351563 519 130 C 500.324219 134.519531 486 149.097656 470 158.796875 C 452 169.597656 431.546875 176.433594 413 186.21875 C 382.40625 202.363281 348.648438 197.6875 317 209.089844 C 306 213.046875 299 222.46875 290 229.238281 C 278.515625 237.824219 265.273438 244.234375 253 251.601563 C 232.695313 263.78125 203 281.234375 196.761719 306 C 193.371094 319.257813 208.757813 319.808594 208.964844 331 C 209.167969 341.738281 204.402344 352.171875 205 363 C 207.253906 397 223.71875 441.25 244.667969 468 C 267 496.613281 302.945313 515.789063 321.546875 547 C 328 558 323.800781 565.394531 322.289063 577 C 320 594.15625 320 622.359375 337 633 C 343.941406 637.160156 348.535156 632.292969 352.800781 627 C 360 618.042969 367.757813 609 371.933594 598 C 381.339844 573.511719 381.300781 546.496094 386.398438 521 C 391.273438 496.632813 401.402344 472.363281 405 448 M 968 211 C 957.410156 199.503906 946.167969 189 935 178.039063 C 928.4375 171.589844 921.433594 165.535156 920 156 C 930.300781 158 939.765625 167.089844 948 173.152344 C 972.773438 191.402344 994.554688 214 1012.421875 239 C 1036.855469 273.191406 1055.480469 311.832031 1064.574219 353 C 1075.644531 403.117188 1073.808594 456.019531 1076 507 C 1076.871094 526 1076.816406 546.265625 1080.324219 565 C 1082 574.144531 1089.980469 581.246094 1088.8125 591 C 1087.558594 601.503906 1078 609.378906 1074.203125 619 C 1059.300781 656.496094 1057 711.453125 1018 734 C 1031.484375 686.035156 1044.933594 636.183594 1053 587 C 1055.199219 574.214844 1063.878906 547 1056 536 C 1055.769531 563.832031 1043.226563 589.722656 1041 617 L 1040 617 C 1040 615.203125 1039.984375 615.476563 1039 614 C 1028.328125 640.023438 1023.34375 669.066406 1014.972656 696 C 1004.953125 728.246094 992.441406 759.636719 986.425781 793 C 982.488281 814.816406 985.417969 835.195313 986.910156 857 C 988.339844 878 987.441406 895.636719 993 916 L 987 917 C 985.769531 907.789063 978.261719 905 970 907.441406 C 960.175781 910.363281 951.492188 918.589844 941 919 C 936 919.132813 932.617188 916.742188 928 915.558594 C 924.742188 914.71875 921.183594 915.359375 918.324219 913.257813 C 915.519531 911.195313 914 908 910.960938 906.089844 C 908 904.394531 904 904.570313 901.703125 902.261719 C 898.867188 899.570313 898.875 895.15625 895.855469 892.390625 C 892.714844 889.515625 888.550781 888.464844 885.964844 885 C 878.230469 874.207031 876 860.148438 868.910156 849 C 859.476563 834.28125 846.964844 822 837.683594 807 C 831.925781 797.753906 828.859375 786.367188 822 778 C 820.742188 799.59375 842.980469 822 855.566406 837 C 867.957031 852 871.523438 869.089844 881.46875 885 C 884.570313 890 889.789063 892 893.296875 896.324219 C 895.777344 899.425781 895.980469 903.710938 899.226563 906.296875 C 902.351563 908.792969 906.648438 908.53125 909.910156 910.738281 C 913.328125 913.050781 915.25 917.074219 919 919 C 921.808594 920.390625 925 919.746094 928 920.390625 C 932.558594 921.375 936 924.074219 941 924 C 950.8125 923.671875 959.949219 915.335938 969 912.089844 C 972.851563 910.710938 982.976563 908.214844 984 914.753906 C 984.519531 917.363281 965.875 923.8125 963 925.246094 C 940 936.707031 912.953125 943.628906 891 926.332031 C 877.789063 916 870 899.703125 862.753906 885 C 852.449219 864.390625 842.492188 843.636719 832.246094 823 C 827.445313 813.328125 823.855469 802.675781 817.238281 794.015625 C 811.359375 786.316406 802 785.457031 795 779.609375 C 788.660156 774.351563 786.308594 765.660156 778.996094 761.363281 C 772 757.292969 761 757 757 749 C 754.550781 744.179688 756 736.273438 756 731 C 756 716.347656 751.660156 697.777344 758.1875 684.015625 C 764.925781 669.816406 786 672.703125 798 665.648438 C 806.878906 660.351563 809.703125 650 817 643.183594 C 823.679688 637.074219 832.773438 635.386719 840 630.210938 C 848.382813 624.210938 852.902344 615.640625 858 607 C 851.269531 611.742188 846.191406 618.4375 839 622.652344 C 830.703125 627.515625 820.578125 629.335938 813.171875 635.679688 C 806 641.726563 803.824219 652 795.984375 657.03125 C 789.433594 661.359375 781.320313 661.804688 774 664.039063 C 767.195313 666.117188 761.46875 670.214844 755 673 C 755 650.308594 754 627.722656 754 605 C 754 592.828125 755.828125 578.445313 751 567 C 748.40625 578 750.449219 590 749.960938 601 C 748.894531 625.347656 748 649.566406 748 674 C 742.335938 671 737.234375 666.804688 731 664.75 C 723 662.144531 714 661.820313 707 657.03125 C 699.304688 651.796875 697.191406 641.386719 689.960938 635.527344 C 682.660156 629.617188 673 627.425781 665 622.769531 C 657.484375 618.414063 651.996094 612 645 607 C 653.8125 626.757813 670.355469 628.695313 684.960938 642.183594 C 692.945313 649.558594 696 661 706 666.351563 C 718.726563 673.292969 739.964844 670.222656 745.226563 687 C 749.613281 701 745.933594 716.675781 746 731 C 746 736.617188 748.523438 743.738281 745.820313 749 C 741.722656 757 730.914063 757.285156 724 761.480469 C 716.957031 765.75 714 773.507813 707.984375 778.785156 C 700.886719 785 691.539063 786.394531 685.378906 794.003906 C 676.363281 805.132813 670.933594 821 665 834 C 655.796875 855 646 876.136719 634.574219 896 C 626.1875 910.441406 615.9375 926.804688 600 933.660156 C 568 947.390625 540.253906 917.085938 509 917 C 514.570313 896.597656 513.660156 879 515 858 C 516.398438 839 520.425781 821.285156 517.574219 802 C 511.664063 762.085938 496.5625 724.238281 484.34375 686 C 476.671875 662 472.546875 636.273438 463 613 L 462 613 L 462 618 L 461 618 C 459.363281 598 452.214844 578 449.273438 558 C 448.984375 556.0625 446.320313 537.515625 443.921875 540.636719 C 441.621094 543.621094 443.933594 550.632813 444.421875 554 C 446 565.652344 447 577.378906 449 589 C 454.425781 621.339844 462.554688 653.316406 470.882813 685 C 474.992188 700.621094 482.863281 716.660156 483 733 C 444.792969 707.726563 443.191406 657.738281 427.796875 619 C 423.835938 609.03125 413.964844 601 412.710938 590 C 411.660156 581 419.714844 573.714844 421.242188 565 C 424.71875 545.171875 425 524.066406 425.960938 504 C 427.90625 459.59375 426.503906 414 434.425781 370 C 443 322.398438 462.65625 277.058594 491 238 C 509 213.417969 529.640625 192 554 173.628906 C 562.539063 167.222656 572.21875 158 583 156 C 577.484375 179.011719 547.796875 193 534 211 C 550.273438 201 567 186.8125 579.242188 172 C 585.578125 164.28125 584.222656 153.222656 594 148.667969 C 604 144 616.636719 137.179688 628 137.179688 C 643.273438 137.179688 658.371094 144 674 144 C 693.429688 144.007813 712.621094 140.234375 732 140.003906 C 762 139.644531 791.957031 143.25 822 144 C 840.238281 144.433594 857.335938 137.179688 875 137.179688 C 885.683594 137.179688 897.398438 143.265625 907 147.429688 C 917.976563 152.1875 915.589844 163.335938 922.617188 172 C 934.578125 186.746094 951.363281 201.730469 968 211 M 334 453 C 335.441406 463.714844 338.484375 474.113281 338.960938 485 C 339.617188 500.027344 336.304688 514.214844 336 529 L 335 529 C 334.957031 513.351563 330 498.003906 326 483 C 323.714844 473.742188 322.332031 464.820313 316.320313 457 C 301.527344 437.761719 274 424.089844 269.613281 399 C 263.945313 367 277 333.410156 282.414063 302 C 284.570313 289.148438 288.585938 273.578125 284 261 L 283 261 C 278.757813 274.386719 280 290.023438 277.390625 304 C 271.332031 336.378906 253.609375 377.550781 266.464844 410 C 270.277344 419.621094 279.492188 425.667969 287 432.285156 C 296 440.28125 304.695313 449.324219 311.957031 459 C 323 473.820313 326.65625 502 329 520 C 316 511.460938 306.410156 497.65625 296.421875 486 C 290.25 478.800781 281 474 275.964844 466 C 268.308594 454.28125 265 439.152344 260.667969 426 C 251.566406 398.699219 244 370.0625 246 341 C 247.695313 317.558594 257 292.519531 266 271 C 258.195313 279.554688 255.265625 290.492188 249 300 C 243.566406 293.511719 241.332031 284.800781 235 279 C 239.96875 292 245.734375 307 243.699219 321 C 242.304688 330.667969 237 339.761719 234 349 C 237.480469 345.144531 239 339.8125 241 335 L 242 335 C 242 351.664063 238.550781 368.273438 240.171875 385 C 242.875 413 256.710938 444.65625 271.964844 468 C 276 474.285156 282.601563 477.261719 287.960938 482.183594 C 303.828125 496.769531 329 520.742188 332 543 C 320.902344 535.179688 314.589844 522 304.828125 512.574219 C 291.285156 499.566406 275.675781 488.125 263.285156 474 C 239.289063 446.644531 219.714844 404.636719 216.171875 368 C 214.886719 354.730469 218.765625 342.109375 219.675781 329 C 220.6875 314.367188 201.589844 314.421875 211.546875 299 C 229.492188 271.210938 264 258.414063 291 241.304688 C 301.917969 234.347656 310.53125 222.164063 323 218.21875 C 347 210.605469 373.628906 212 398 204.5625 C 416 199.167969 431.21875 187.054688 449 181 C 445.441406 188.476563 439 194.195313 434.339844 201 C 419.902344 222 404.269531 242.105469 391.199219 264 C 372 296.175781 361.765625 333 343 365 C 353.566406 356.238281 359.753906 336.117188 366.308594 324 C 382 295 403.265625 267.425781 416 237 L 417 237 C 412.210938 260.203125 396.542969 280.257813 394.171875 304 C 392.375 322 393.851563 340.035156 395 358 C 395.734375 367.339844 398.199219 376.59375 396.535156 386 C 392.832031 407 379.277344 424.550781 373.882813 445 C 366.347656 473.570313 368 506.628906 368 536 C 372.480469 528.691406 371.328125 521.121094 372.285156 513 C 373.984375 498.59375 376 484.230469 379 470 C 382.816406 451.289063 388 433.03125 394.34375 415 C 397.945313 404.625 403.421875 395 405.246094 384 C 408.851563 362.359375 403 339 404 317 C 405 293.167969 413.339844 273.578125 422.574219 252 C 428 239.105469 431.597656 225.378906 438.308594 213 C 447 196.71875 460.3125 183.367188 474 171.164063 C 487.765625 159 503.925781 145.820313 522 140.746094 C 525.210938 140 540 136.636719 541 142.132813 C 541.585938 144.828125 536.6875 147.042969 535 148.289063 C 529 152.71875 523 158.117188 518.390625 164 C 514 169.453125 512.636719 176.789063 507.785156 181.816406 C 501 189 490.765625 191.710938 483 197.476563 C 469 208 457.808594 221.5 448.34375 236 C 419.574219 280.070313 418.839844 333.007813 409.195313 383 C 400 429.824219 383 475 375.589844 522 C 371.472656 547.632813 371.53125 575.09375 360.21875 599 C 357.222656 605.328125 350.769531 619.160156 343 620.742188 C 339 621.5625 337 614.75 336 612 C 332.34375 602.199219 332 592.253906 332.914063 582 C 335.320313 552.085938 343 524.382813 343 494 C 343 481.160156 342.347656 463.347656 334 453 M 1132 536 L 1134 536 C 1133.992188 527.273438 1132 518.699219 1132 510 C 1131.753906 489.109375 1133.613281 467.480469 1128.523438 447 C 1123.324219 426.070313 1109.996094 408.152344 1105.664063 387 C 1100.746094 363 1110 336.457031 1107.828125 312 C 1105.285156 285.261719 1089.832031 263.039063 1086 237 L 1087 237 C 1100 264.613281 1118 291.019531 1132.691406 318 C 1140.796875 333 1146.996094 352.046875 1158 365 C 1144.734375 325.796875 1125.769531 285.542969 1102.996094 251 C 1091.640625 233.773438 1079.738281 217 1067.976563 200 C 1063.480469 193.523438 1057.40625 188.15625 1054 181 C 1072 185.28125 1086 199.441406 1104 204.574219 C 1128.425781 211.574219 1155 210.335938 1179 218.027344 C 1190.984375 222 1199.484375 233.535156 1210 240.308594 C 1237 257.757813 1272.433594 272.199219 1290.894531 300 C 1300.441406 314.375 1280.753906 317.527344 1282.171875 332 C 1283.28125 343.320313 1286.941406 353.375 1285.828125 365 C 1282.710938 397.65625 1268 435.128906 1248 461 C 1236 476.589844 1221 489.332031 1207 503.015625 C 1199.371094 510.453125 1191.3125 518 1184.4375 526 C 1179.949219 531.320313 1176.359375 539 1170 542 C 1170.464844 533.027344 1176.671875 526.027344 1181.710938 519 C 1191.242188 505.707031 1202 493.308594 1214 482.039063 C 1218.898438 477.378906 1225.242188 474.328125 1229.472656 469 C 1235.449219 461.429688 1238 451.570313 1242.257813 443 C 1258.964844 408.476563 1266 373.019531 1259 335 L 1260 335 C 1262 340 1264.195313 345.234375 1268 349 C 1262.742188 337.195313 1256.847656 324.210938 1258.171875 311 C 1259.273438 300 1265 290.003906 1266 279 L 1265 279 C 1261.746094 286.8125 1256.34375 294 1254 302 L 1253 302 C 1249.714844 290 1242.214844 281 1237 270 L 1236 270 C 1241.613281 290.519531 1251.644531 310.785156 1254.699219 332 C 1259.414063 364.71875 1250.277344 399.160156 1240 430 C 1236 441.695313 1233.34375 454.492188 1226.53125 465 C 1222.925781 470.507813 1216.714844 473.550781 1212 478.039063 C 1198.921875 490.503906 1183 505.28125 1174 521 L 1173 521 C 1173.222656 494.308594 1183.582031 465.4375 1201.171875 446 C 1211 435.085938 1228.675781 425.4375 1234.652344 412 C 1247.367188 383.402344 1232.886719 347.613281 1227.199219 319 C 1224.605469 306 1222 292.277344 1221 279 C 1220.863281 275.78125 1221.757813 266.15625 1218.488281 264.207031 C 1215.554688 262.457031 1216 274.738281 1216.171875 276 C 1217.472656 289.675781 1219.347656 303.519531 1222 317 C 1227.644531 345.675781 1241.375 382.351563 1228.890625 411 C 1226 417.398438 1219.84375 421.289063 1215 426.015625 C 1205.453125 435.328125 1195 444.578125 1186.808594 455 C 1172.792969 472.519531 1167 508 1167 530 L 1166 530 C 1161 504.273438 1159.914063 478.289063 1168 453 C 1159.609375 460.003906 1159.941406 473 1158.574219 483 C 1154 515.730469 1165.320313 546.78125 1168.949219 579 C 1170.242188 590.472656 1170.433594 601.039063 1166.1875 612 C 1165 615 1163.589844 620.582031 1159.910156 621.078125 C 1152.96875 622.011719 1143.777344 603.171875 1141.257813 598 C 1127.851563 570.492188 1128.890625 538.457031 1123 509 C 1114.867188 468.339844 1101.789063 429 1094.425781 388 C 1085.425781 338.109375 1083.378906 286.09375 1057.574219 241 C 1047 222.667969 1032 207.152344 1015 195 C 1007.996094 190 998.3125 187.71875 992.226563 181.671875 C 986.671875 176.152344 985.273438 167.101563 979.824219 161 C 973.613281 154.039063 962.976563 149.460938 959 141 C 1001 135.570313 1046.402344 177.722656 1065 213 C 1071.308594 224.691406 1074 238 1079.285156 250 C 1086.714844 267.574219 1094.988281 284.746094 1096.828125 304 C 1098.601563 322.535156 1097.441406 342.382813 1096.984375 361 C 1096.78125 369.394531 1094.898438 377.632813 1096.898438 386 C 1100.855469 402.535156 1108.832031 418 1113.972656 434 C 1123.851563 465.058594 1131.910156 503.34375 1132 536 M 569 151 C 562.367188 159.027344 551 164.242188 543 170.804688 C 532.734375 179.054688 524 190.027344 513 197 C 515.960938 189.054688 517.695313 180.476563 521.800781 173 C 530 158 552.238281 141.265625 569 151 M 988 196 C 973.898438 186.066406 962 172.445313 948 162.152344 C 945.332031 160.203125 934.953125 155.046875 935.632813 151.121094 C 937.277344 141.578125 954.367188 150.347656 958 152.699219 C 972.808594 162.285156 984 178.804688 988 196 M 542 263 C 549.3125 259.5625 552.964844 251.273438 557.628906 245 C 565.820313 234 574.613281 223.324219 585 214.289063 C 606.199219 196 631.480469 183.589844 656 170.375 C 666.742188 164.585938 682.570313 160.003906 690 150 C 675.730469 152.105469 661 159.726563 648 165.691406 C 606.398438 184.738281 557.578125 217.402344 542 263 M 813 150 C 816.195313 156.539063 823.675781 159.324219 830 162.230469 C 842.253906 168 854.25 173.785156 866 180.425781 C 885.636719 191.519531 906.960938 202.753906 922.828125 219.089844 C 935.613281 232.25 945.203125 252.492188 960 263 C 957.660156 250 945.550781 238.394531 937.882813 228 C 914.941406 197 886.503906 180.53125 852 164.691406 C 839.65625 159.023438 826.792969 151.125 813 150 M 549 209 C 558.179688 204.316406 565.414063 196.082031 574 190.355469 C 595.710938 176 627.53125 158.3125 654 156 L 654 154 C 626.277344 154 591.84375 169.621094 570 186.132813 C 562 192.132813 551.949219 199.074219 549 209 M 849 154 L 849 155 C 873 165.699219 897.742188 173.332031 921 186.308594 C 931.808594 192.339844 940.847656 205.144531 953 208 C 938.679688 182.308594 908.476563 170.492188 882 161.667969 C 871 158.03125 860.621094 154.007813 849 154 M 628 204 C 643.230469 201.75 655.390625 190.160156 669 183.78125 C 682.390625 177.503906 697.636719 176.015625 712 173.195313 C 719.34375 171.757813 736 170.734375 740 164 C 708 168.023438 675.492188 171 648 189.003906 C 641.6875 193.15625 631.964844 197.46875 628 204 M 761 165 C 766.453125 172.195313 786.449219 172.664063 795 174.078125 C 808.984375 176.398438 824 178 837 184.257813 C 849.554688 190.359375 859.636719 200.449219 873 205 C 868.851563 196.175781 857 191.140625 849 186.425781 C 822.464844 171.027344 791.394531 165 761 165 M 645 213 L 645 214 C 655.769531 214 665.664063 210 676 207.375 C 690.664063 203.710938 705.617188 201.066406 720 196.328125 C 728.59375 193.5 738.464844 190.050781 742 181 C 709.324219 187.335938 676.816406 202.828125 645 213 M 760 181 C 763.171875 190.128906 774.617188 193.511719 783 196.332031 C 805.667969 204 831.851563 213.800781 856 214 C 849 207.128906 836.925781 206.503906 828 203.65625 C 805.910156 196.605469 782.992188 184 760 181 M 714 290 C 705.519531 265 707 244.085938 707 218 C 702 221.1875 703 231.53125 702.246094 237 C 699.390625 254.617188 694.417969 279.261719 714 290 M 795 219 C 795 234.828125 796.441406 250.148438 794.828125 266 C 793.984375 274.296875 789.722656 281.738281 789 290 C 805.964844 276 804 257.191406 800.199219 238 C 798.972656 231.824219 799.457031 223.753906 795 219 M 983 227 C 984.886719 237.589844 993.171875 247 998.601563 256 C 1009.882813 274.792969 1021.683594 293.515625 1031.742188 313 C 1045.664063 340 1055.820313 367.460938 1057.910156 398 C 1058.871094 412.042969 1057 426.003906 1057 440 L 1056 440 C 1053.289063 406 1030 365 1004 343.464844 C 982.6875 326 956.496094 314.089844 932 301.753906 C 917.308594 294.355469 901.734375 278.46875 885 277 C 890 288 907 295.671875 917 302.140625 C 948.339844 322.613281 988.433594 333.050781 1015.503906 359.632813 C 1021.859375 366 1026.296875 377.078125 1030.246094 385 C 1043.191406 411 1051.308594 438.242188 1054.714844 467 C 1056.257813 480.046875 1054 494.414063 1058 507 C 1059.414063 506.527344 1059.8125 506.1875 1061 505 C 1062.609375 517.664063 1061.542969 528.355469 1061 541 C 1075.195313 528.800781 1064 510.324219 1061.464844 496 C 1059 482.539063 1059.875 467 1058.441406 453 C 1057.835938 447.128906 1061.414063 442.527344 1062.761719 437 C 1065 427.566406 1065.574219 416.675781 1064.910156 407 C 1061.4375 356.28125 1038.855469 312.433594 1012.425781 270 C 1004.226563 257 995.625 236.085938 983 227 M 441 540 C 438.605469 527.105469 441 514 441 501 L 442 501 C 442.527344 503.542969 442.878906 504.535156 445 506 C 445 483.171875 445.617188 456.761719 453 435 C 457.933594 421 463.539063 406.753906 469.425781 393 C 472.546875 385.707031 477.292969 379.0625 478 371 C 471.261719 374.210938 467.96875 381.582031 464.753906 388 C 456.789063 404 448.605469 422.285156 446 440 L 445 440 C 434 383.386719 460.917969 330.394531 488.425781 283 C 498.855469 265.027344 513.261719 247.789063 520 228 C 513.507813 231.09375 510.398438 238.074219 506.796875 244 C 500.859375 253.773438 494.648438 263.464844 488.332031 273 C 462.300781 312.316406 439 357 437 405 C 436.578125 415.519531 436.386719 426.644531 438.464844 437 C 440 445 444.328125 450.546875 443.960938 459 C 443.457031 470.585938 443.34375 485.753906 440.699219 497 C 438.800781 505 433.578125 510 434 519 C 434.457031 525.421875 435 536.386719 441 540 M 721 257 C 718.671875 274.292969 715.324219 283.585938 723.214844 300 C 725.378906 304.496094 726.476563 309.433594 731 312 C 728.769531 302.363281 724.480469 293.003906 724 283 C 723.691406 275.109375 726.511719 263.339844 721 257 M 778 257 C 777.3125 266.015625 778.703125 275.007813 777.246094 284 C 775.746094 293.257813 771 303.664063 772 313 C 783.613281 299.128906 791.5625 272.386719 778 257 M 675 265 L 675 266 C 682 271.132813 688.214844 276.765625 693.277344 284 C 711.335938 309.792969 708.679688 345 697.933594 373 C 691.992188 388.535156 682.785156 402.636719 679 419 C 689.242188 415.351563 695.691406 396.257813 700.242188 387 C 714.585938 357.828125 723 318.59375 705.175781 289 C 698.691406 278.269531 687.824219 267.285156 675 265 M 823 419 C 820.535156 402.320313 809.820313 386.726563 804 371 C 790.683594 334.535156 792 291.429688 826 267 C 821 265.296875 815.878906 269.328125 812 272.160156 C 801.207031 280.035156 795 291.5625 791 304 C 780.992188 334.40625 792 363.414063 804.691406 391 C 809 400.726563 812.574219 414.125 823 419 M 266 270 L 267 271 L 266 270 M 485 360 C 499.464844 354 510.265625 341.753906 524 334.308594 C 547.492188 321.574219 571.871094 312 594 296.660156 C 602 291.050781 612.183594 285.089844 618 277 C 604 278.402344 591.625 289.777344 580 296.796875 C 556.742188 311 531 320.378906 509 336.425781 C 500.671875 342.476563 489.417969 350.523438 485 360 M 293 410 C 303.496094 405 311.867188 387.390625 318.578125 378 C 333.382813 357.296875 346.910156 335.816406 360 314 C 366.667969 303 374.789063 292.367188 379 280 C 368.492188 285 360.882813 300.808594 354 310 C 337.882813 332.058594 323.269531 355.214844 309.71875 379 C 304 389 296.195313 399 293 410 M 1123 280 C 1136.835938 313.230469 1158.5 344 1179.289063 373 C 1187.664063 384.746094 1196.203125 401.621094 1208 410 C 1206.296875 398.636719 1197.449219 388.753906 1191.851563 379 C 1178 355 1163.179688 331.398438 1146.847656 309 C 1140.332031 300.0625 1133.191406 284.792969 1123 280 M 651 287 C 653.421875 303.15625 667.820313 315 670.53125 331 C 672.171875 340.730469 671 354 670.996094 364 C 670.960938 369.179688 668.902344 374.460938 672 379 C 677.816406 367.414063 682.246094 340.554688 678.378906 328 C 675.59375 319 668.894531 311.703125 663.746094 304 C 659.632813 298 657.203125 291.464844 651 287 M 829 379 L 831 379 C 831.472656 368 832 357.082031 832 346 C 831.992188 341.15625 830.425781 335.71875 831.617188 331 C 835.429688 316 846.910156 302.039063 852 287 C 844.953125 290.3125 841.949219 297.710938 837.945313 304 C 832.925781 312 825.675781 319.652344 823.527344 329 C 819.671875 345.8125 828.65625 362.375 829 379 M 505 597 C 512.25 592.195313 512.410156 576 514.375 568 C 518.957031 549.425781 509.386719 542.707031 501.257813 527 C 491.382813 508 483.367188 488 478 467 C 476.4375 460.277344 469.839844 445.832031 472.617188 439.226563 C 474.382813 435.03125 480.402344 436.191406 484 435.828125 C 492.71875 435 500.378906 431.011719 508 427 C 507.4375 432.542969 509 438.175781 511.878906 443 C 530.421875 475.410156 561.335938 450.769531 586 445.519531 C 598.792969 442.792969 602.921875 453.34375 599.238281 464 C 597.585938 468.789063 594 472.429688 592 477 C 604.722656 473.222656 614.769531 456.605469 607.582031 444.039063 C 604.523438 438.691406 596.902344 437.226563 595.316406 431 C 591.980469 418 594.636719 397 578.984375 389.652344 C 560.832031 381.164063 529.714844 384.414063 514 396.527344 C 506.335938 402.4375 501.484375 411 494.714844 417.714844 C 488.3125 424.113281 480.714844 428.449219 473 433 C 477.460938 409.324219 488.46875 377.796875 510 364.132813 C 518.324219 359 528.925781 358.378906 538 355 C 547.671875 351.261719 555.886719 344.601563 564 338.347656 C 591.230469 317.367188 633.386719 297 658 333 C 661.480469 327.367188 655.953125 321.003906 651.960938 317.042969 C 642.554688 307.722656 626.8125 304.679688 614 306.425781 C 582.871094 310.660156 563.882813 332.75 537 346.191406 C 522.9375 353.222656 506.546875 353.277344 495 365.015625 C 478.527344 382 461 416.8125 462 441 C 463 467.203125 476.503906 497.46875 487.308594 521 C 492.792969 533 504.503906 544.695313 508 557 C 511.378906 568.171875 505 585.1875 505 597 M 841 334 C 845.691406 331.359375 847.980469 325.804688 852 322.183594 C 858.570313 316.304688 867.410156 314 876 313.171875 C 903.484375 310.511719 924.839844 330.066406 946 344.328125 C 961.476563 354.761719 981.378906 356.734375 996 367.609375 C 1015.347656 382 1022.757813 410 1029 432 C 1011 426 1002.917969 407.808594 989 396.328125 C 973 383.214844 942.835938 383 924 389.34375 C 906.980469 395.179688 908.894531 417.59375 906.257813 431 C 905 437.15625 897.265625 438.683594 894.453125 444.015625 C 888 456 897.308594 474 910 477 C 906.757813 469.214844 895.660156 455.117188 904.226563 447.429688 C 912.417969 440.085938 926.910156 449.773438 935 453 C 960.65625 463.230469 992.308594 460.808594 995 427 C 1002 431.089844 1009.824219 435 1018 435.824219 C 1021.636719 436.21875 1027.636719 435 1029.382813 439.148438 C 1032.28125 446.261719 1025.789063 461.832031 1023.847656 469 C 1018.578125 488.480469 1012 508.042969 1002.742188 526 C 998.234375 534.734375 990.449219 543 987 552 C 983.738281 561.386719 990.28125 577.484375 992.425781 587 C 993.351563 591.117188 994.320313 594.703125 998 597 C 997.472656 584.675781 991.824219 571.226563 994.902344 559 C 997.871094 547.195313 1008.539063 537.132813 1013.691406 526 C 1025.410156 500.664063 1041 465.460938 1039.960938 437 C 1039.296875 421.320313 1032.664063 404.570313 1025 391 C 1018.472656 379 1011.222656 364.621094 999 357.351563 C 986.5625 350 971.457031 350 959 342.1875 C 939 330 922.546875 313.199219 899 308 C 877.34375 303.003906 844.90625 307.550781 841 334 M 751 313 C 746.730469 346.796875 749 383 749 417 C 749 425.003906 745.585938 446.464844 753 451 C 753 417.753906 754 384.328125 754 351 C 754 340.691406 757.503906 321.542969 751 313 M 854 331 C 860.3125 328.566406 867 325.464844 874 325.261719 C 885.914063 325 902.417969 336.050781 899.332031 349 C 896.433594 361.148438 884.929688 362.359375 880 372 C 884 370.613281 888.695313 367.332031 892.984375 367.101563 C 896 367 898.738281 370.492188 901.648438 368.339844 C 905 365.742188 906.304688 360 907.691406 356 C 909.921875 349.765625 913.785156 342.667969 910.910156 336 C 902.21875 316 864.996094 309.480469 854 331 M 623 372 C 617.3125 361.605469 604.632813 358.722656 602.5625 345 C 601.726563 339.464844 606.171875 335.820313 610 332.589844 C 622.246094 322.265625 632.941406 325.425781 647 330 C 636.566406 308.105469 597.789063 318.015625 590.882813 338 C 588.816406 344 592.277344 351.617188 594.78125 357 C 596.410156 360.5 597.90625 366.023438 601.179688 368.339844 C 604 370.394531 606 367.089844 609 367.417969 C 613.71875 368 618.394531 371 623 372 M 927 376 C 937.304688 372.46875 939.992188 360.707031 940 351 C 933.507813 355.253906 928 368.46875 927 376 M 561 352 C 564 361.765625 566 372 576 377 C 575 368 569.441406 356 561 352 M 952 379 C 962.445313 378.785156 980.871094 369.519531 989.984375 374.316406 C 997.765625 378.414063 999.816406 388.828125 1007 394 C 1005.554688 386 1000 375.496094 992.984375 371 C 981.988281 364.007813 958.535156 367 952 379 M 496 394 C 502.425781 388.496094 504.417969 379.042969 512 374.53125 C 522.285156 368.46875 538.546875 379 550 379 C 544.351563 368 521.386719 364.175781 511 370.089844 C 503.207031 374.527344 496.902344 385.183594 496 394 M 596 381 C 603.828125 405.570313 625.4375 407 647 407 C 642.960938 401.097656 632.347656 401.199219 626 399 C 614.574219 394.789063 608.390625 382.089844 596 381 M 855 406 L 855 407 C 876 407 899.617188 406.265625 906 381 C 895 382 890.660156 391.496094 882 396.648438 C 873.601563 401.640625 863.589844 401.6875 855 406 M 550.835938 399.660156 C 555.777344 400 550.816406 406.75 547 406.339844 C 541.785156 405.738281 547.425781 399.46875 550.835938 399.660156 M 569.417969 399.710938 C 577 397.0625 578.28125 409.566406 577 414 C 574.460938 423.574219 565.949219 430.429688 557 434 C 549 437.035156 538.832031 439.085938 531 434.632813 C 523.273438 430.238281 516.324219 420.101563 524.226563 412.46875 C 534 403.007813 540.585938 425.1875 553 421.140625 C 558 419.464844 562.636719 415 564.660156 410 C 565.820313 407.15625 565.976563 401 569.417969 399.710938 M 930.972656 399.492188 C 936.460938 398.363281 935.917969 405.652344 937.367188 409 C 939.550781 414.035156 943.902344 418.640625 949 420.773438 C 955.253906 423.386719 961.390625 421 965.621094 416 C 967.667969 413.570313 969.316406 409.210938 973 409.425781 C 989.226563 410.355469 977.535156 433.453125 968 436.210938 C 953.640625 440.363281 937.210938 432.070313 928.34375 421 C 923.953125 415.519531 921 401.53125 930.972656 399.492188 M 951.324219 399.707031 C 955.28125 398.273438 961.367188 404.566406 955.847656 406.046875 C 952.375 407 946.59375 401.417969 951.324219 399.707031 M 601 425 C 612.382813 423.558594 633.234375 423.789063 639 412 C 628.777344 412.808594 607 416 601 425 M 863 412 C 868.96875 422.332031 891.320313 424 902 424 C 891.910156 414.554688 876 413.648438 863 412 M 560 620 L 561 620 C 568.210938 607.144531 567.832031 588.347656 571.375 574 C 577.574219 549 587.703125 528.027344 604.25 508 C 618.503906 490.75 634.300781 471 653 458.359375 C 668.316406 448.082031 695.949219 437 702 418 C 692 422.804688 684.65625 434 675 440 C 664 446.699219 651.25 449.5625 641 457.429688 C 587.917969 498.171875 560 553.40625 560 620 M 799 418 C 811.703125 438.308594 832.667969 445.816406 851 459.160156 C 870.464844 473.324219 887 491.820313 901.523438 511 C 915.402344 529.507813 925 549.417969 930.347656 572 C 933.742188 586.785156 933.625 607 941 620 C 945.898438 608.328125 940.242188 587.199219 938.246094 575 C 930.363281 527 898.367188 482 858 454.75 C 849.664063 449.144531 839.800781 447 831 442.21875 C 819.628906 436.171875 811.429688 421 799 418 M 585 421 C 585 425.273438 586 431.203125 583.398438 435 C 579.828125 439.804688 571.394531 441.148438 566 443.191406 C 547.550781 450.179688 524.554688 455.171875 517 432 C 521.769531 435.355469 525.546875 439.753906 531 442.121094 C 554.421875 452.292969 568.429688 433 585 421 M 985 433 C 978.171875 456.199219 951.648438 449.199219 935 442.601563 C 929.914063 440.585938 922 439.394531 918.601563 434.785156 C 915.929688 431.210938 917 425.210938 917 421 C 934.375 430.273438 947.265625 454 971 443.46875 C 976.429688 441.089844 980.234375 436.355469 985 433 M 616 429 C 618.425781 439.199219 628.972656 446.125 639 447 C 634.480469 436.527344 626.949219 431.265625 616 429 M 887 430 C 879.960938 429.289063 873.890625 433 869.175781 438.039063 C 867.84375 439.46875 864.238281 443 865.332031 445.21875 C 866.503906 447.671875 871.378906 445.710938 873 445 C 879.382813 442 883.664063 436 887 430 M 1043 438 C 1039.546875 465.335938 1024.925781 489.726563 1037 517 L 1038 517 C 1038 490.238281 1044.453125 464.507813 1045 438 L 1043 438 M 1010.332031 440.667969 C 1010.277344 440.722656 1010.222656 441.777344 1010.667969 441.332031 C 1010.722656 441.277344 1010.777344 440.222656 1010.332031 440.667969 M 492 442 C 495.867188 470.574219 518.882813 484.722656 546 478.101563 C 552.71875 476.460938 560.394531 474.371094 565 469 C 546 473 522.902344 480.679688 507 465 C 500.285156 458.261719 498.8125 448.292969 492 442 M 1008 443 C 1007.167969 447.664063 1005 452 1002.53125 456 C 986.414063 482 962.96875 471.527344 939 468 L 939 469 C 965.675781 484.566406 1008.183594 482.71875 1010 443 L 1008 443 M 460 455 C 460.933594 466.816406 465 478.257813 465.910156 490 C 466.574219 499.480469 464.195313 508.59375 464 518 L 466 518 C 468.777344 497.402344 475.183594 473.457031 460 455 M 623 507 C 641.257813 500.671875 656.53125 484.335938 674 475.601563 C 684.777344 470.210938 700.878906 469.363281 710 462 C 703.398438 460.183594 696.410156 463.113281 690 465 C 671.199219 470 655.328125 480 640 491.652344 C 634.285156 496.054688 626.308594 500.46875 623 507 M 793 461 C 799.984375 469.148438 813.558594 469.058594 823 473.3125 C 842.9375 482.292969 859 498.652344 879 507 C 875.640625 498.402344 866.25 494 859 489 C 839.664063 475.648438 817.214844 462.042969 793 461 M 723 462 C 725.539063 466.148438 729.542969 465.738281 734 466.285156 C 744.628906 467.589844 756.367188 467.824219 767 466.425781 C 771.785156 465.792969 776.316406 466.589844 779 462 L 723 462 M 560 689 L 559 689 C 559 668.304688 562 647.75 562 627 L 560 627 C 560 647 553.210938 664.6875 551.175781 684 C 550.410156 691.234375 554 698 553.480469 705 C 552.679688 716 546.902344 726 546.597656 737 C 546.453125 742.28125 550.257813 746.78125 549.742188 752 C 549 758.148438 543.722656 762.613281 543.476563 769 C 543 778.257813 553.441406 783.4375 553.5625 792 C 553.691406 801.453125 544.648438 806.21875 547 817 C 548.8125 825.1875 555.679688 829 558.21875 836.089844 C 559.535156 839.773438 557.222656 844.222656 557 848 C 556.566406 857.71875 557.632813 879.191406 565 886 C 565 875 563.71875 863 565.300781 852 C 566 846.070313 570.292969 840.054688 569.570313 834 C 568.488281 825 556.6875 821.085938 556.398438 812 C 556 804 565.335938 798.484375 564.296875 790 C 563.3125 782 553.277344 777.074219 553.441406 769 C 553.558594 763.160156 560 759.59375 561.1875 754 C 562.769531 746.40625 556.339844 739.789063 557.617188 732 C 560.828125 712.472656 571.429688 695.363281 573.714844 676 C 578.394531 636.371094 576.34375 596.667969 597.605469 561 C 602.671875 552.5 609.523438 542 619 537.820313 C 630.546875 533 645.621094 534 658 529.1875 C 673.667969 523.117188 687.761719 513.082031 704 508.425781 C 733.179688 500.0625 766.789063 499 796 508.027344 C 811 512.707031 824.398438 521 839 526.800781 C 848.425781 530.601563 858 534.019531 868 536 C 873.421875 537.066406 878.859375 535.496094 884 538 C 890.769531 541.113281 895.761719 548.027344 899.964844 554 C 927.519531 593.175781 922.566406 637.371094 929.589844 682 C 932.335938 699.449219 942.855469 715.046875 945.558594 733 C 946.726563 740.753906 939.988281 746.621094 941.292969 754 C 942.289063 759.617188 948.660156 762.808594 948.996094 768.574219 C 949.46875 776.632813 939.445313 781.289063 938.226563 789 C 936.878906 797.554688 944.261719 802.425781 946 810 C 948.480469 819.261719 937.234375 823.722656 934 831 C 931.335938 837.371094 935.601563 843 936.671875 849 C 937.949219 856.351563 937 864.550781 937 872 C 937 874.449219 935.769531 882.214844 938.375 883.652344 C 941.210938 885.222656 943 869 943.414063 867 C 944.398438 861.121094 946.21875 855 945.953125 849 C 945.78125 845.128906 942.855469 840.785156 943.789063 837.003906 C 945.996094 828.0625 955.371094 824 956.320313 813 C 957 804.785156 948.953125 799.089844 949.390625 792 C 949.871094 784.136719 959 778 959.621094 769 C 960 761.433594 953.328125 757.652344 952.503906 751 C 951.800781 745.367188 956.171875 740 955.894531 734 C 955.441406 724.371094 950 715.5625 949.175781 706 C 948.464844 699.058594 952 692.828125 951.871094 686 C 951.652344 678.261719 947.71875 670.644531 946.433594 663 C 944.597656 652.058594 945.808594 638 941 628 L 940 628 C 940.890625 648.699219 944 669.226563 944 690 C 935 677.011719 938.476563 659 936.714844 644 C 932.597656 609.246094 929 573 905.5625 545 C 894.226563 531.574219 878.476563 522 864 512.332031 C 844.769531 499.511719 824.996094 484.816406 802 479.664063 C 784 475.660156 765.203125 477 747 477 C 728.96875 477 711.449219 476.089844 694 481.433594 C 673.992188 487.5625 656.203125 500.53125 639 512 C 620.777344 524.148438 601.691406 536.410156 589.355469 555 C 572.921875 579.773438 568 612 566 641 C 564.953125 657.613281 566 673.164063 560 689 M 880 534 C 870.386719 532.214844 861.21875 531.207031 852 527.550781 C 833.484375 520.203125 817 508.285156 798 502.195313 C 782.195313 497.140625 767.226563 499 751 499 C 742 499 732.867188 497.324219 724 498.171875 C 686.941406 501.695313 660.375 531.023438 623 534 C 629 521.121094 653 510.417969 665 503 C 692.253906 486 716.527344 483 748 483 C 765.621094 483 783.757813 481.5625 801 486 C 816.46875 489.78125 830.625 498.5625 844 507 C 856.402344 514.726563 871.375 521.765625 880 534 M 622 572 C 618.804688 555.042969 625.492188 550.097656 642 548 L 642 549 C 629.175781 555.121094 636.660156 564.199219 629.605469 573 C 616.300781 589.488281 596.589844 591.691406 593 616 C 597.507813 612.695313 599.847656 606.121094 604 602.039063 C 610.589844 595.597656 618.753906 591.53125 626 586 C 626 601.816406 628.820313 624.289063 648 628 C 639.199219 612.191406 634.550781 603.355469 636 585 L 637 585 C 643.847656 608.71875 664.804688 606.117188 683 614.3125 C 693 619 705 627.296875 714.671875 617 C 727.992188 602.355469 729.488281 562.167969 704 561 L 704 560 C 708.453125 559.8125 712.871094 558.667969 716.960938 561.089844 C 733.644531 571 727.738281 608.335938 715.671875 619.605469 C 710.371094 624.554688 701.660156 623 695 623 C 703.921875 632.652344 719 624.007813 724.394531 615 C 732.917969 600.738281 736 573.8125 723.472656 560.226563 C 716.671875 553 704.59375 557 696 557.484375 C 692.433594 557.71875 688.410156 556.488281 685.304688 559 C 682.511719 561 682.265625 564.792969 682 568 C 684 567.101563 684 567.125 685 565 L 686 565 C 688.523438 572 695.832031 579.214844 695 587 C 694 598.398438 674.699219 600 668 594 C 662.664063 589.011719 659.492188 583 657.4375 576 C 656 571.578125 655.859375 566 652 563 C 652 576 653.257813 584.800781 660 596 C 651.558594 591.621094 636 571.496094 643.742188 561.328125 C 646.773438 557.273438 652.75 555.558594 657 553.128906 C 665.589844 548.214844 673.613281 542.210938 682 537 C 709.390625 519.769531 734.863281 520.777344 766 523 C 783.574219 524.113281 796.8125 524 813 532.257813 C 823.882813 538 833.542969 545.480469 844 551.796875 C 848.945313 554.785156 856 557.039063 859.394531 562.042969 C 866.949219 573.542969 850.5625 593 841 597 C 850.863281 587 851 576.398438 851 563 C 847.167969 565.484375 847.65625 570.816406 846.410156 575 C 843.796875 583.761719 837.59375 597.050781 827 597.722656 C 824.3125 598 821.539063 597.058594 819 596.273438 C 807 592.582031 806.167969 582.546875 813 573.105469 C 815.574219 569.746094 821 568 820 563 C 817.9375 553 786.613281 554 780.1875 559.417969 C 774.535156 564.316406 773.613281 573.011719 773 580 C 771.695313 594.800781 771.722656 624.035156 792 626.710938 C 805 628.4375 808.652344 620.269531 819 614.824219 C 828.433594 610 839.714844 610.773438 849 605.46875 C 857.292969 600.726563 860.507813 592.292969 867 586 C 868.390625 603.605469 861.773438 611.226563 856 627 C 873.359375 621.457031 877 601.796875 877 586 C 889.574219 592.691406 901.324219 600.4375 907 614 L 908 614 C 907.519531 591.476563 884.867188 588.0625 873.417969 573 C 866.460938 564 873.578125 553.328125 859 549 L 859 548 C 866.867188 549 880.1875 549.207031 882.339844 559 C 883.253906 563.171875 881.53125 567.730469 882 572 C 884.191406 569.636719 885.664063 567.167969 886.480469 564 C 892.484375 540.710938 867.804688 548.464844 854.828125 545.320313 C 848.914063 544 843 538.371094 838 535.191406 C 826 527.78125 814.679688 520.535156 801 516.746094 C 781.878906 511.445313 761.617188 513 742 513 C 725.566406 513 709.480469 512 694 518.429688 C 678.367188 525.0625 664.988281 539.519531 649 544.476563 C 639.457031 547.4375 628 542 619 548.703125 C 612.214844 554 615 568.039063 622 572 M 565 518 C 556.585938 526.34375 551.488281 538.8125 545.574219 549 C 538 562 529.757813 574.777344 524.699219 589 C 519.992188 602.222656 519.605469 616.261719 517.574219 630 C 516 640.386719 512.828125 650.515625 512 661 C 520.511719 653.566406 522.1875 633.726563 524.871094 623 C 531 598.414063 539.914063 574.664063 551.246094 552 C 555.523438 543.445313 567 527.800781 565 518 M 936 518 C 941.566406 544.632813 960.945313 569.402344 970.574219 595 C 978.578125 616.273438 978.238281 640.789063 989 661 L 990 661 C 989.992188 650.722656 986.996094 641.066406 985.25 631 C 983.175781 619.042969 982.746094 606.683594 979.277344 595 C 974.441406 578.703125 965.515625 564.566406 957 550 C 951 540 946.5625 524.113281 936 518 M 731 527.425781 C 724.667969 528.257813 718.363281 527.816406 712 528.015625 C 710.664063 528.058594 706.207031 528 706.207031 530.121094 C 706.207031 534.617188 719.699219 532.140625 722 532.039063 C 739 531.289063 756.878906 531.289063 774 532.039063 C 779.414063 532.277344 790.664063 535.621094 795.339844 532 C 800 528.039063 783.429688 528 782 528 C 765.195313 528 747.707031 525.230469 731 527.425781 M 644 547 L 643 548 L 644 547 M 858 547 L 857 548 L 858 547 M 810 559 L 810 560 L 807 560 C 808.246094 559.316406 808.546875 559.25 810 559 M 800 560 L 800 561 C 768.550781 563.765625 774.234375 626.636719 806 621 C 796.199219 627.695313 785.171875 621 780.3125 612 C 774 600.496094 770.96875 570.347656 784 561.742188 C 788.40625 559 795 560 800 560 M 814 560.332031 C 814.773438 560.332031 814 560.832031 813.667969 560.667969 L 814 560.332031 M 661 596 L 660 597 L 661 596 M 840 597.332031 C 840.773438 597.332031 840 597.832031 839.667969 597.667969 L 840 597.332031 M 954 630 C 954 647.523438 963 662.804688 965.921875 680 C 966.917969 686.03125 966.597656 696.230469 972 700 C 972 682.335938 970.265625 664.722656 964.308594 648 C 962 642 959.757813 633.523438 954 630 M 531 700 C 535 697 534.628906 689.78125 535.660156 685 C 538.367188 672.511719 542 660.226563 545.71875 648 C 546.394531 645.765625 551.777344 633 547.503906 632 C 543.46875 631.027344 539.863281 644.320313 538.71875 647 C 531.488281 664 531 682 531 700 M 704 634 C 710 645.292969 721 649 733 649 C 737.394531 649 742.382813 650.035156 745 646 C 738.179688 646 731.332031 645.664063 725 642.816406 C 717.597656 639.480469 712.507813 634.390625 704 634 M 759 649 C 775.472656 649 787.777344 649 799 635 C 789.191406 632.3125 781.273438 642.566406 772 644.765625 C 767.574219 645.8125 761.789063 645.054688 759 649 M 635.941406 638.613281 C 625.597656 639 615.714844 648.714844 610.878906 657 C 599.707031 676.125 598.828125 699.378906 588.742188 719 C 583 730.078125 574.378906 732 566.324219 739.648438 C 563 742.691406 565 746.234375 569 747 C 579.480469 748.5 587.957031 740.011719 593 732 C 605 713.566406 603.589844 690.171875 613.78125 671 C 619.320313 660.578125 628.773438 655.441406 636.773438 647.386719 C 639.253906 645 641.757813 638.453125 635.941406 638.613281 M 864.324219 639.066406 C 861 641.066406 863.21875 644.789063 865 646.816406 C 870.191406 652.101563 876.863281 655.519531 881.90625 661 C 900.898438 681.628906 895.355469 711.453125 910.789063 733 C 915 739 927 752.277344 935.757813 746.820313 C 938.746094 745 938 741.632813 935.757813 739.507813 C 929.449219 733.773438 922.589844 731.78125 917.546875 724 C 903.480469 702.28125 904.292969 674 888.839844 653.003906 C 885 648 871.894531 634.355469 864.324219 639.066406 M 835 650 C 831.527344 664.617188 846.652344 682.6875 853.414063 695 C 856.53125 700.675781 858.644531 706.046875 864 710 C 862.570313 695.738281 852.796875 681.734375 846.78125 669 C 843.46875 662 841.46875 654.777344 835 650 M 639 710 C 650.523438 703.445313 658.898438 679.714844 664.753906 668 C 666 665.355469 672.65625 654.34375 667.488281 652.347656 C 662.945313 650.589844 659.472656 662.242188 658.28125 665 C 652 679.539063 641.34375 694.140625 639 710 M 1032 651 L 1031 652 L 1032 651 M 1030.667969 654.667969 C 1030.722656 654.722656 1030.777344 655.777344 1030.332031 655.332031 C 1030.277344 655.277344 1030.222656 654.222656 1030.667969 654.667969 M 616 716 L 618 716 C 619.601563 703.609375 624.550781 691.441406 631.34375 681 C 636.480469 673.105469 643.753906 666.375 646 657 C 627.894531 668 616.867188 695.820313 616 716 M 1029.667969 658.667969 C 1029.722656 658.722656 1029.777344 659.777344 1029.332031 659.332031 C 1029.277344 659.277344 1029.222656 658.222656 1029.667969 658.667969 M 859 661 C 864 673 874.636719 681.71875 879.316406 694 C 881.640625 700.105469 882.601563 712.234375 888 716 C 885.46875 696.082031 877.445313 671.664063 859 661 M 1028.667969 661.667969 C 1028.722656 661.722656 1028.777344 662.777344 1028.332031 662.332031 C 1028.277344 662.277344 1028.222656 661.222656 1028.667969 661.667969 M 1027.667969 665.667969 C 1027.722656 665.722656 1027.777344 666.777344 1027.332031 666.332031 C 1027.277344 666.277344 1027.222656 665.222656 1027.667969 665.667969 M 1026.667969 669.667969 C 1026.722656 669.722656 1026.777344 670.777344 1026.332031 670.332031 C 1026.277344 670.277344 1026.222656 669.222656 1026.667969 669.667969 M 1025.667969 672.667969 C 1025.722656 672.722656 1025.777344 673.777344 1025.332031 673.332031 C 1025.277344 673.277344 1025.222656 672.222656 1025.667969 672.667969 M 686 695 C 693.429688 693 702.695313 689.371094 708.957031 684.777344 C 710.652344 683.535156 715.503906 679.347656 712.351563 677.085938 C 709.976563 675.378906 706.792969 678.421875 705 679.667969 C 697.988281 684.53125 687.46875 685 681.316406 690.636719 C 678.691406 693.113281 678.699219 697 675.851563 699.363281 C 670.867188 703.582031 663 705.210938 658.800781 710.226563 C 655.421875 714.210938 654.949219 720.183594 650.785156 723.597656 C 647.765625 726.074219 637.613281 732.339844 634 733.1875 C 629.929688 734.144531 627 732.117188 623 734.488281 C 613.886719 739.777344 607.894531 751.140625 601 759 C 592.265625 769.300781 582 772.734375 572 780.699219 C 569.753906 782.625 568.5 786 571.324219 788.128906 C 579.417969 794.445313 594.691406 781 599.910156 775.828125 C 609 767 614.90625 754.707031 625 746.667969 C 632.996094 740.304688 644 739.148438 651.671875 733.261719 C 656.777344 729.335938 656.683594 721.597656 661.390625 717.355469 C 663.722656 715.257813 666.226563 716.242188 668.90625 715.3125 C 674 713.488281 687.960938 700.15625 686 695 M 829 707 C 829.652344 716.132813 838.660156 713.609375 843 720.019531 C 845.867188 724.171875 847 729.332031 851 732.6875 C 858.363281 738.824219 869.347656 740 877 746.324219 C 887.886719 755.394531 894.355469 768.476563 905 777.699219 C 908.691406 781 928.910156 795.78125 932.339844 786 C 933.746094 781.796875 928.75 779.597656 926 778 C 916.898438 772.71875 908.824219 767 901.871094 759 C 895 751.128906 889 740.460938 880 735.007813 C 871.511719 730 858.964844 730 851.390625 722.722656 C 847.554688 719.109375 847.386719 713.070313 843.605469 709.429688 C 839 705.035156 832 703.300781 827.183594 699.300781 C 824.679688 697.222656 824.730469 694 822.53125 691.636719 C 817.992188 687.007813 809.785156 685.832031 804 683.382813 C 800.296875 681.816406 795.292969 676.566406 791.320313 676.632813 C 786 676.71875 792.75 684.261719 794 685.210938 C 799.710938 689.472656 807 690.179688 812.851563 694.085938 C 819.574219 698.679688 819.277344 705.535156 829 707 M 1024.667969 676.667969 C 1024.722656 676.722656 1024.777344 677.777344 1024.332031 677.332031 C 1024.277344 677.277344 1024.222656 676.222656 1024.667969 676.667969 M 1024 679 L 1024 682 L 1023 682 C 1023.25 680.546875 1023.316406 680.246094 1024 679 M 1022.667969 683.667969 C 1022.722656 683.722656 1022.777344 684.777344 1022.332031 684.332031 C 1022.277344 684.277344 1022.222656 683.222656 1022.667969 683.667969 M 1022 686 L 1022 689 L 1021 689 C 1021.25 687.546875 1021.316406 687.246094 1022 686 M 1021 690 L 1020 696 L 1019 696 C 1019.355469 693.660156 1019.773438 692.011719 1021 690 M 1019 697 C 1015.898438 718.074219 1005.699219 738 1002.4375 759 C 1000.851563 769.261719 1006.457031 779 1006.742188 789 C 1007 801.535156 998.667969 813.113281 992 823 L 991 823 C 982.75 795.351563 1001 756.582031 1008.710938 730 C 1011.675781 719.675781 1013.277344 706.101563 1019 697 M 490 718 L 489 719 L 490 718 M 490.667969 721.667969 C 490.722656 721.722656 490.777344 722.777344 490.332031 722.332031 C 490.277344 722.277344 490.222656 721.222656 490.667969 721.667969 M 492 724 L 492 727 L 491 727 C 491.25 725.546875 491.316406 725.246094 492 724 M 492.667969 728.667969 C 492.722656 728.722656 492.777344 729.777344 492.332031 729.332031 C 492.277344 729.277344 492.222656 728.222656 492.667969 728.667969 M 494 731 L 494 734 L 493 734 C 493.25 732.546875 493.316406 732.246094 494 731 M 495 735 C 500.878906 763.476563 519 796.445313 512 826 L 511 826 C 506.285156 814.730469 497 805.445313 495.300781 793 C 493.617188 781.324219 499.171875 770.484375 498.871094 759 C 498.675781 751.476563 492.824219 742.164063 495 735 M 544 894 C 540.703125 880.617188 538.628906 867.15625 534.253906 854 C 532.175781 847.765625 527.476563 842.535156 526.328125 836 C 523 817.636719 524.96875 797.15625 528.601563 779 C 530.398438 770.011719 532 761.089844 533.28125 752 C 533.496094 750.339844 535.21875 743.675781 532.710938 743 C 530.632813 742.296875 529.441406 750.734375 529 752 C 526.535156 762.363281 523 772.515625 521 783 C 518.5625 795.035156 519.980469 806 520 818 C 520 825.304688 518.757813 834 520.789063 841 C 523 849.246094 529.597656 855.707031 532.328125 864 C 535 872.316406 536 889.203125 544 894 M 968 742 C 973.398438 771.089844 981 804.367188 976.699219 834 C 975.707031 840.71875 971.480469 846 969 852 C 963.957031 865.066406 960 880 960 894 C 965.574219 887.199219 965.996094 874.34375 969 866 C 972.398438 857 979.582031 849.148438 982.210938 840 C 987.378906 822.023438 983 795.019531 979.398438 777 C 977.503906 767.578125 977 747.15625 968 742 M 503 880 C 494.707031 873 493 859 489.976563 849 C 482.71875 825.644531 469.746094 803 469 778 C 468.917969 769.519531 470.773438 760.152344 473 752 C 473.632813 749.734375 474.269531 744.402344 477.273438 744.035156 C 488.558594 742.664063 489.253906 764.582031 488 771 C 486.585938 778.25 483.222656 786.585938 484.46875 794 C 487 809.414063 499.792969 820.109375 503.621094 835 C 507.449219 850 503 865.015625 503 880 M 1000 879 C 994.644531 866.234375 995.695313 840.550781 1001.3125 828 C 1005.972656 817.585938 1014 808.355469 1016.480469 797 C 1018.355469 788.222656 1015.601563 779.605469 1014.273438 771 C 1013.214844 764.105469 1013.734375 744.207031 1024.777344 744.207031 C 1027.878906 744.207031 1029 749.75 1029.796875 752 C 1032.425781 760.554688 1033 769.175781 1032 778 C 1030 798.023438 1021.90625 816.058594 1015.671875 835 C 1010.832031 849.699219 1007.851563 865.496094 1000 879 M 801 915 C 806.875 900 820.5 882.109375 817.675781 865 C 815.648438 852.726563 807.328125 843.714844 802 833 L 801 833 C 805 850.800781 813.382813 862.613281 802.796875 880 C 799.804688 885 796 890 790 890.773438 C 777.605469 892.402344 763.953125 884.46875 751 885.039063 C 735.367188 885.730469 714.921875 899 702.328125 884 C 689.339844 868.652344 699.726563 850 702 833 L 701 833 C 696.238281 844.371094 686.488281 854.339844 685.175781 867 C 683.367188 884.414063 697.632813 899.03125 702 915 C 696.765625 912.714844 692.351563 909.234375 688 905.5625 C 661.386719 883.101563 675.941406 859.625 688.753906 834 C 703 805.480469 724.625 769.492188 759.996094 772.242188 C 764.703125 772.605469 767.679688 777.570313 771 780.386719 C 780.878906 788.703125 790.296875 796.191406 797.65625 807 C 811.554688 827.414063 839.546875 867.078125 827.445313 893 C 824.640625 899.007813 819 902.492188 814 906.425781 C 809.816406 909.679688 805.878906 913 801 915 M 881 801 C 874.300781 798.722656 860.355469 791.652344 855 786.773438 C 852 784 851 775.785156 847.71875 774.347656 C 845.214844 773.277344 845 777.648438 845 779.003906 C 845.25 783.4375 846.828125 789.472656 850.273438 792.488281 C 858.960938 800.089844 874.324219 801.644531 884 807.738281 C 893 813.457031 898 824 907 830 C 909.90625 831.828125 924.820313 839.503906 925.824219 832 C 926.542969 826.363281 917.402344 824.585938 914 822.441406 C 902.496094 815.191406 896.257813 803.289063 886.699219 794.230469 C 880 788 878.371094 795.527344 881 801 M 621 801 C 623.433594 796.714844 623 788.023438 616.464844 793.519531 C 605.886719 802.324219 600 815.121094 588 823 C 584.710938 825.019531 574.660156 827.117188 576.660156 832.773438 C 579 839.410156 591.566406 832.667969 595 830.449219 C 604 824.546875 608.679688 813.601563 618 808.007813 C 627.929688 802.050781 642.859375 800.136719 651.773438 792.488281 C 655 789.640625 656.527344 784.238281 656.808594 780.003906 C 656.890625 778.71875 656.824219 774.261719 654.351563 775.347656 C 650.96875 776.828125 650.441406 784.085938 647.773438 786.773438 C 644 790.570313 638.597656 790.722656 634 793 C 629.257813 795.183594 626 799.289063 621 801 M 516 915 C 519.554688 913.535156 523 910.707031 527 910.65625 C 538.253906 910.507813 547.277344 921.746094 558 924.085938 C 565.414063 925.703125 576.773438 921.625 583.984375 919.566406 C 588.632813 918.242188 590.382813 913.542969 594.175781 911.007813 C 597.578125 908.734375 602.359375 909.386719 605.296875 906.347656 C 607.703125 904 607.628906 900.023438 609.726563 897.328125 C 612.925781 893.222656 618 891.519531 621 887 C 628.414063 876 630.921875 862.203125 638.355469 851 C 654 827.203125 679.679688 807.777344 681 777 C 671.710938 781.828125 666.414063 804 660.328125 813 C 651.902344 825.566406 640.792969 836.128906 632.8125 849 C 626.765625 858.761719 624.382813 870.175781 618.546875 880 C 614.964844 886.03125 609.726563 887.394531 605.429688 892.226563 C 603.195313 894.734375 602.816406 898.273438 600.570313 900.773438 C 597.464844 904.222656 592.660156 904 589 906.5625 C 586.335938 908.625 584.96875 912.125 581.894531 913.820313 C 562.949219 924.273438 550.941406 912 533 907.15625 C 524.980469 905.054688 516.546875 905.054688 516 915 M 704 827 C 718.925781 821.226563 734 805.371094 751 804.515625 C 768.585938 803.625 785.648438 822.308594 800 829 C 795.355469 813 769.265625 793 752 792.484375 C 746.199219 792.332031 740.925781 796.203125 736 798.742188 C 723.441406 805.21875 708.320313 812.320313 704 827 M 703 862 C 712.769531 857.40625 714.898438 845.046875 723 838.378906 C 740.53125 824 765.371094 824.140625 781.960938 840.09375 C 788.441406 846.324219 792 858 800 862 C 799.542969 851.53125 794.417969 834.628906 786.894531 827.105469 C 768.460938 808.671875 736 809.273438 717 826.214844 C 707.332031 835 705.347656 850 703 862 M 751 838 C 750.207031 844.242188 750.453125 861.179688 745.683594 865.273438 C 740.882813 869.390625 723.316406 874 717 873.613281 C 713.621094 873.445313 709.71875 869.160156 706.605469 870 C 704.882813 870.316406 705.332031 872.824219 705.671875 874.019531 C 708 882.484375 716.816406 882.652344 724 881.386719 C 733.25 879.75 742.472656 875 752 875.261719 C 766.691406 875.71875 797.617188 893.671875 799 867 C 795.332031 868.824219 791.992188 872 788 873.054688 C 781.21875 875 759.75 869.035156 756 863 C 752.183594 856.265625 753.953125 845.535156 753 838 L 751 838 M 443.667969 921.667969 C 443.722656 921.722656 443.777344 922.777344 443.332031 922.332031 C 443.277344 922.277344 443.222656 921.222656 443.667969 921.667969 M 591 982 C 594.511719 987.136719 593.511719 996.804688 594 1003 L 593 1003 C 592.234375 997 588.953125 987.714844 591 982 M 911 982 C 910 988.691406 908.289063 995.234375 908 1002 L 907 1002 C 907 996 907.238281 987 911 982 M 436 992 L 437 993 L 436 992 M 1127 1030 C 1112.261719 1048.285156 1101.828125 1071.230469 1084 1086.816406 C 1074.59375 1095.039063 1059.703125 1094.351563 1051.527344 1104.09375 C 1038.933594 1119.097656 1031.550781 1143.40625 1022.753906 1161 C 1012.421875 1181.664063 1002.335938 1202.472656 991.742188 1223 C 985 1236 976.710938 1248.074219 972 1262 C 983 1255.757813 989.964844 1233.027344 995.78125 1222 C 1014.765625 1186.015625 1029.945313 1146.492188 1051.46875 1112 C 1060.660156 1097.273438 1081.320313 1098.175781 1092.5625 1085 C 1102.894531 1073 1110.324219 1058.507813 1120.195313 1046 C 1123.617188 1041.664063 1129.25 1036 1127 1030 M 764 1038 C 768.988281 1053.621094 789 1066.578125 799.5625 1079 C 810.605469 1092.109375 816.671875 1108 824.246094 1123 C 830.925781 1136.347656 839.234375 1149.125 842.191406 1164 C 845.460938 1180.4375 839 1195.6875 834 1211 C 827.566406 1230.304688 820.878906 1251.539063 820 1272 L 821 1272 C 825.429688 1253 828.859375 1233.507813 835.34375 1215 C 839.710938 1202.542969 847.921875 1190.445313 848.910156 1177 C 850.382813 1157 841.527344 1142 832.308594 1125 C 819.582031 1101.527344 807.984375 1081.078125 789 1062 C 780.9375 1054 774.390625 1043.304688 764 1038 M 737 1039 C 706.402344 1058.363281 687.605469 1093 671.21875 1124 C 661.566406 1142.296875 652.523438 1158.65625 654 1180 C 655.835938 1203.773438 673.734375 1224.296875 675 1249 L 677 1249 C 674.726563 1224.472656 660 1202.46875 659 1178 C 658.496094 1165.523438 663 1153.117188 668.320313 1142 C 680.492188 1116.390625 693 1088.441406 713 1068 C 718.660156 1062.210938 738 1047.425781 737 1039 M 452 1043 C 453.484375 1049.410156 456 1055.445313 457 1062 L 456 1062 C 454 1056.332031 449.859375 1049 452 1043 M 1050 1045 C 1049.523438 1051 1047.777344 1056.441406 1046 1062 L 1045 1062 C 1045.761719 1056.347656 1046.941406 1050 1050 1045 M 458 1063 L 457 1064 L 458 1063 M 910 1064 L 909 1065 L 910 1064 M 911 1067 L 910 1068 L 911 1067 M 912 1069 L 911 1070 L 912 1069 M 913 1071 L 912 1072 L 913 1071 M 914 1073 L 913 1074 L 914 1073 M 915 1075 L 914 1076 L 915 1075 M 916 1077 L 918 1081 L 917 1081 C 916.199219 1079.261719 915.945313 1078.804688 916 1077 M 920 1084 C 918.363281 1083.453125 918.546875 1083.636719 918 1082 C 919.636719 1082.546875 919.453125 1082.363281 920 1084 M 922 1087 C 920.363281 1086.453125 920.546875 1086.636719 920 1085 C 921.636719 1085.546875 921.453125 1085.363281 922 1087 M 924 1090 C 922.363281 1089.453125 922.546875 1089.636719 922 1088 C 923.636719 1088.546875 923.453125 1088.363281 924 1090 M 925 1091 C 926.1875 1092.1875 926.527344 1092.585938 927 1094 C 925.453125 1092.738281 925.191406 1092.804688 925 1091 M 929 1097 C 927.363281 1096.453125 927.546875 1096.636719 927 1095 C 928.636719 1095.546875 928.453125 1095.363281 929 1097 M 861 1110 C 866.304688 1129.425781 876 1147.035156 880 1167 C 867.601563 1158 866.527344 1140 863.347656 1126 C 862.222656 1121.09375 859.492188 1115 861 1110 M 641 1113 C 640.867188 1129.214844 636.839844 1155.726563 623 1166 C 626.195313 1149.511719 632 1127.234375 641 1113 M 676 1250 C 676.675781 1254.601563 677.1875 1262.097656 681 1265 C 680.324219 1260.003906 679.378906 1254 676 1250 M 525.5 1254.5 C 524.871094 1255.128906 525.871094 1256.128906 526.5 1255.5 C 527 1255 526 1254 525.5 1254.5 M 527 1258 C 527.777344 1260.132813 528 1260.769531 530 1262 C 529 1260.050781 528.609375 1259.449219 527 1258 M 680 1266 C 680.769531 1267.3125 680.6875 1267.230469 682 1268 C 681.453125 1266.363281 681.636719 1266.546875 680 1266 M 680 1269 C 680.546875 1270.636719 680.363281 1270.453125 682 1271 C 681.230469 1269.6875 681.3125 1269.769531 680 1269 M 681.5 1272.5 C 680.871094 1273.128906 681.871094 1274.128906 682.5 1273.5 C 683 1273 682 1272 681.5 1272.5 M 819 1273 C 819 1274.832031 818.921875 1274.558594 820 1276 C 819.75 1274.546875 819.683594 1274.246094 819 1273 M 682.5 1275.5 C 681.871094 1276.128906 682.871094 1277.128906 683.5 1276.5 C 684 1276 683 1275 682.5 1275.5 M 818 1277 L 817 1281 C 818.65625 1279.597656 818.75 1279.046875 818 1277 M 683 1279 C 683.769531 1280.3125 683.6875 1280.230469 685 1281 C 684.453125 1279.363281 684.636719 1279.546875 683 1279 M 604 1318 C 607.503906 1323.730469 615 1325 621 1327.203125 C 633.726563 1332.242188 646.257813 1337.789063 659 1342.796875 C 679.742188 1351 700.914063 1357.820313 722 1365.003906 C 731.3125 1368.175781 740.921875 1374 751 1374 C 761.449219 1374 771.351563 1368.289063 781 1365.003906 C 800.710938 1358.285156 820.648438 1352.335938 840 1344.601563 C 853.996094 1339.003906 867.941406 1333.257813 882 1327.8125 C 888 1325.449219 896.402344 1324 900 1318 C 864.390625 1323.238281 827.25 1342 794 1355.199219 C 781.753906 1360.097656 764.261719 1371.3125 751 1371 C 738 1370.582031 721.957031 1360.1875 710 1355.398438 C 687.894531 1346.550781 665.34375 1339.113281 643 1331 C 630.410156 1326.347656 617.355469 1319.800781 604 1318 "/>
</g>
</svg>
