<?xml version="1.0" encoding="UTF-8"?>
<svg xmlns="http://www.w3.org/2000/svg" xmlns:xlink="http://www.w3.org/1999/xlink" width="1500pt" height="1500pt" viewBox="0 0 1500 1500" version="1.1">
<g id="surface1">
<path style=" stroke:none;fill-rule:nonzero;fill:rgb(0%,0%,0%);fill-opacity:1;" d="M 965 185 L 964 185 C 963.996094 181.515625 963.988281 178.351563 963 175 L 962 175 C 961.378906 183 959.511719 190.679688 956.546875 198 C 952.558594 208 946.589844 220.441406 937 226 C 926.714844 231.777344 910.980469 229.148438 900 227 C 878.644531 222.824219 856.859375 217.292969 835 217.019531 C 810.273438 216.707031 786.515625 226.230469 762 228 C 732.941406 230 704 223 675 223 C 652.980469 223 625.757813 228.410156 605 218.8125 C 592.640625 213.097656 589.285156 198.746094 585.332031 187 C 580 171.292969 572.277344 156 556 149.351563 C 543.453125 144.328125 551.722656 155.34375 555 160 C 536 150.023438 518.496094 145 497 145 L 497 146 C 504 150.46875 512.488281 152.46875 520 156.246094 C 528.277344 160.410156 536 166.421875 545 169 L 545 170 C 525.355469 166 507 162.453125 487 165 C 489.710938 168.566406 494.855469 168.445313 499 169.476563 C 508.6875 172 518 176.527344 528 178 L 528 179 C 516.644531 179 487 178.660156 481 190 C 493.78125 190 506.28125 193 519 193 L 519 194 C 479 194.003906 445.40625 222.015625 409 234.65625 C 361.507813 251.144531 314.433594 252.277344 265 255.035156 C 246.320313 256.078125 227 263.484375 211 272.574219 C 204.988281 276 199 278.246094 195 284 C 211.308594 282 227.765625 281.5625 244 279.425781 C 249 278.746094 257.207031 279.667969 261.675781 276.683594 C 268 272.425781 256.226563 266.222656 253 265 L 253 264 C 272 261.589844 288.222656 266 307 266 L 307 267 C 290 267.140625 273.785156 264.011719 257 264 C 276.472656 286.71875 316.5625 272 341 270 L 341 271 C 328.839844 272 316.699219 278 305 281.289063 C 283.84375 287.371094 261.546875 292.136719 241 300 L 241 301 C 268.183594 301 292.507813 288.566406 319 285 L 319 286 C 312.589844 287 306.285156 289.371094 300 291 L 300 292 C 307.191406 292 313.898438 291 321 290 L 321 291 C 310.242188 293 300.523438 300.195313 291 305.21875 C 286.800781 307.433594 281.515625 309 279 313 C 297.542969 309.507813 313.425781 301.496094 331 295.054688 C 356 286 380.988281 278.222656 405 266.246094 C 415.4375 261.042969 437.609375 254.757813 444 245 C 429 247.007813 416.304688 255.089844 402 259 L 402 258 C 422.785156 252.011719 447.359375 237.035156 465 224.574219 C 479.78125 214.136719 494.992188 201.394531 514 201 L 514 202 C 511 202.253906 508.710938 203 506 204 L 510 209 C 504.820313 208.78125 483 211.734375 498 217 L 498 218 C 492.414063 218 484.230469 217.164063 486 225 C 478 225.066406 470.617188 227.40625 467 235 L 473 235 L 473 236 C 461.851563 241 440 258 437 270 C 441 268.050781 445.308594 264.152344 450 264 C 456.707031 263.441406 462.402344 270.214844 468 273 L 468 274 C 447.855469 274 425.171875 280.734375 413 298 C 418 298.105469 422.925781 299.585938 428 300 L 428 301 C 414.765625 302.082031 394.867188 310.429688 389 323 C 395.769531 320.167969 402.347656 314.347656 410 314.347656 C 415 314.347656 419.941406 317.242188 425 318 L 425 319 C 417.378906 319.019531 400.597656 321.410156 396 328 C 399.871094 328.082031 403.363281 328.664063 407 330.070313 C 409.449219 331.015625 411.855469 332.195313 413.957031 333.789063 C 431.960938 347.457031 399.648438 358.738281 390 361.425781 C 386.5 362.398438 383 363 381 366 C 387.226563 366 400 368.003906 388 373.558594 C 379.800781 377.335938 365 379 360 387 C 363 387 365.980469 386.289063 369 386.089844 C 377 385.550781 386.921875 390 376.996094 397.210938 C 367.769531 404 355.847656 406.253906 346 412 L 346 413 C 355.246094 412.808594 363.722656 411.828125 373 413 L 373 414 C 356.660156 415.335938 337.429688 423.417969 329 438 C 335.351563 435.59375 340.382813 431 347 429 L 347 430 C 341 432.214844 334.988281 436.175781 331 441 C 335.378906 440.410156 339.5625 439.191406 344 439 L 344 440 C 333.828125 442 323 451.183594 320 461 C 333.652344 455.117188 339 452.789063 354 454 L 354 455 C 337.960938 457.160156 324.839844 471.074219 322 487 L 321 487 L 324 470 C 315.921875 475.277344 308.195313 492.75 306 502 L 305 502 L 308 490 C 300.941406 494.085938 297.855469 503.269531 293.796875 510 C 283.578125 527 270.171875 544.351563 270 565 C 278.695313 560.488281 287.992188 550.421875 291 541 L 292 541 L 288 554 C 296 550.601563 303.347656 542.304688 306 534 L 307 534 L 306 540 C 316.910156 531 324.179688 511.359375 328 498 L 329 498 C 329.722656 504.472656 333.527344 508.277344 340 509 L 340 510 C 337.195313 510.121094 324 510.207031 324.921875 515 C 325.726563 519.394531 338.484375 520 342 520 L 342 521 C 340.546875 521.25 340.246094 521.316406 339 522 C 344.894531 523.742188 351.84375 524 358 524 L 358 525 C 355.855469 525.503906 354 526.117188 352 527 L 352 528 L 373 529 L 373 530 C 370.78125 531.164063 369.605469 532.085938 368 534 C 371 534 377.285156 532.632813 379.3125 535.554688 C 381.421875 538.589844 378.679688 544 377.894531 547 C 375.652344 556 374 565.738281 374 575 C 373.9375 587.765625 374.25 600.441406 376.808594 613 C 378 619.460938 382.640625 626.308594 381.773438 633 C 380.578125 642.171875 371 649.050781 366.980469 657 C 360.503906 669.597656 360 684.164063 360 698 L 361 698 C 366.335938 686 370.273438 674.242188 377.4375 663 C 379 660.410156 382.855469 653.140625 386.695313 653.769531 C 391.273438 654.519531 386.746094 663.816406 386 666 C 381.363281 679.632813 379 693.609375 379 708 C 379 730.683594 383.480469 752.761719 391.425781 774 C 395 784 405.347656 796.425781 405.460938 807 C 405.546875 814.726563 396.519531 822.625 392.871094 829 C 385.976563 841.058594 381.632813 854.417969 379 868 C 398.449219 857.824219 405.789063 827 420.171875 811 C 438.574219 790.550781 462.796875 776.582031 481.910156 757 C 502.691406 735.628906 518.925781 710.046875 540 689.039063 C 551.902344 677.234375 571 674.238281 587 671.003906 C 589.539063 670.484375 604.414063 670 605 667.714844 C 605.757813 665.527344 598.941406 666.007813 598 666 C 590.3125 666 582.660156 664.613281 575 664.089844 C 564.226563 663.351563 550.535156 660.761719 540 663.789063 C 526.628906 667.632813 514.539063 681.488281 505 691 C 506.398438 688 507.996094 685.175781 509 682 C 497.679688 687.386719 484.710938 703 479 714 L 478 714 C 478.867188 711.644531 479.574219 709.46875 480 707 C 458.730469 718 445.34375 748.34375 433.550781 768 C 430.316406 773.390625 420.453125 783.730469 424 790 C 415.222656 790.734375 409.4375 779 406.429688 772 C 401 759.574219 397.8125 745.585938 399.171875 732 C 399.980469 724 402.832031 716.183594 403 708 L 402 708 C 398.511719 714 396.519531 722 392 727 C 392 714.496094 389.445313 702.234375 393.523438 690 C 396 682.304688 401.574219 676.238281 405 669 C 399 670.140625 395.191406 674 391 678 C 398.351563 656.410156 419.746094 641.246094 426 620 C 415.515625 624 406.78125 633.21875 399 641 C 407.308594 621.050781 437 612.652344 441 592 C 427.605469 596.367188 415 604 403 611 C 410.210938 594.289063 429.875 588.269531 437 573 C 430.765625 573.050781 425.824219 575.03125 420 577 C 431.863281 559.066406 445.421875 553.375 466 555 L 466 556 C 460.183594 557 452.363281 559 449 564 C 457 563.65625 464.9375 562.308594 473 563.175781 C 479.796875 564 486 566.699219 493 567 L 493 568 C 483.828125 568.023438 468.691406 569 464 578 C 480.398438 574.820313 493.609375 576 510 576 L 510 577 C 499 577.089844 484.890625 578.722656 478 588 C 493 588 507.925781 586 523 586 L 523 587 C 514.765625 588.109375 506.320313 591.101563 499 595 L 499 596 C 518.667969 596 538.257813 594 558 594 L 558 595 C 548.597656 596.746094 539.378906 597.257813 531 602.46875 C 529.707031 603.273438 522.203125 608.417969 525.660156 610.308594 C 528.867188 612.054688 536.699219 608.695313 540 608 C 550.695313 605.203125 561 605 572 605 L 572 606 C 559.621094 607.011719 537.84375 613.015625 532 625 C 544.722656 624.738281 556.636719 619 569 616.398438 C 587.527344 612.671875 606.171875 612 625 612 C 622 607 614.484375 605 609 604 L 609 603 C 617.371094 604.082031 625.535156 606.636719 634 607 C 630.707031 602.613281 623 601.40625 618 599.65625 C 604.78125 595.066406 590.867188 588.046875 577 586 L 577 585 C 594.402344 585 612.863281 584.816406 630 588 C 625.828125 582 612.863281 579.261719 606 577 C 603.78125 576.269531 598.410156 575.75 597 573.699219 C 595 571 603.28125 565.652344 605 564.261719 C 617.378906 554.25 625.355469 561 639 563 C 632.808594 555.769531 620.765625 549.667969 612 546 C 624 541.179688 644.3125 555.660156 656 559 C 651.246094 550.78125 643 546.078125 636 540 C 649.492188 542.023438 659.816406 553 673 556 C 668.660156 547.289063 660.792969 540.792969 654 534 C 663 538 669.722656 544.824219 678 550 C 675.523438 539.675781 667.636719 531.59375 663.3125 522 C 656.984375 508 657.242188 492.832031 660 478 C 651 482.203125 644.429688 494.464844 643 504 L 642 504 C 642.882813 493 647.945313 482.71875 650.625 472 C 654.363281 457.042969 656 441.382813 656 426 L 654 426 C 651.832031 442.101563 644.347656 457.113281 642 473 L 641 473 C 641.664063 457.511719 642.226563 443.53125 641 428 L 639 428 C 638.246094 445.539063 631.964844 460.277344 628 477 L 627 477 C 630.382813 450.820313 638.777344 416.171875 613 398 C 614.207031 412.777344 620.402344 427.046875 621.828125 442 C 623 454.472656 619.972656 465.777344 619 478 C 610.265625 469 604.347656 457.425781 595.828125 448 C 581.886719 432.566406 564.21875 420.144531 547 408.667969 C 537.859375 402.574219 528.890625 394.589844 518 392 C 522.640625 399.597656 534.902344 404.785156 542 410.234375 C 558.324219 422.769531 576.613281 438 587 456 C 559.800781 437.652344 523.695313 412.683594 490 410 C 496 418.277344 516.710938 423 526 428.28125 C 548 441 568.992188 457.039063 587 475 C 561.722656 464.628906 537.890625 453 510 453 C 513.972656 457.546875 519.566406 458.003906 525 460.066406 C 533.949219 463.460938 542.46875 469.570313 552 471 L 552 472 C 522.996094 469.710938 495 470.015625 467 479.355469 C 451.363281 484.566406 436.847656 493 422 500 L 422 501 C 434.980469 500 447.578125 492.460938 460 488.71875 C 481.992188 482.097656 503 479 526 479 L 526 480 C 509.816406 486.289063 496.808594 498 483 508.117188 C 450.75 532 392 560.027344 392 606 L 391 606 C 389.925781 592.480469 385.8125 580.710938 393.351563 568 C 397.359375 561.246094 404.671875 557.136719 408 550 C 403.566406 551.445313 399.226563 553.023438 395 555 C 401 546.3125 410.820313 540.773438 417 532 C 408.730469 533.238281 401.609375 537.832031 394 541 C 402 531.722656 415.824219 523.097656 421 512 C 413.820313 514.050781 407 517.601563 400 520 L 400 519 C 405.851563 516.015625 416.773438 510.683594 420 505 C 414.320313 506.054688 408.757813 506 403 506 L 403 505 C 413 502.085938 430.921875 491.289063 436 482 L 426 485 L 426 484 C 436.847656 479.828125 446.660156 471 457 465.308594 C 462.273438 462.457031 469.640625 460.144531 473 455 C 457.421875 456.238281 445.660156 465.613281 432 472 C 438.304688 464.058594 444 456 452 449.464844 C 466 438 479.914063 433.601563 483 413 C 459.886719 422 441.304688 438.695313 424 456 C 428.785156 447.683594 436.640625 441.539063 441 433 C 434 433.566406 427.742188 436.441406 421 438 L 421 437 C 429.671875 434.496094 442 427.316406 446 419 C 434 421.769531 423.96875 429 413 434 C 420 427.480469 427.691406 422 436 417.011719 C 441.417969 414 448 412 451 406 C 437.941406 408.535156 426.222656 414 414 419 L 414 418 C 424.382813 412.699219 432.972656 405.058594 444 400.605469 C 448.988281 398.589844 457.609375 398.195313 461 394 L 434 397 L 434 396 C 437.5625 395.519531 455.792969 392.691406 455.792969 388.039063 C 455.792969 385 440.53125 385.019531 438 385 L 438 384 C 446.535156 384 457 383.640625 464 378 C 452.476563 373.675781 438.21875 373.035156 426 373 L 426 372 C 438 371.039063 449.816406 368.019531 462 368 C 467.234375 368 473 369.0625 476 364 C 463.589844 364 451.351563 364.023438 439 365 L 439 364 C 443.886719 363 451.246094 361.375 454 357 C 444.289063 359.3125 433.898438 360 424 362 L 424 361 C 441 356.0625 455.847656 345.445313 474 343 L 474 341 L 433 341 L 433 340 C 443.199219 339.554688 452.792969 335.144531 463 334.171875 C 476.5625 333 490.761719 336.433594 504 339 C 494.824219 325 463.769531 325 449 323 L 449 322 C 469.183594 322 485.910156 320.160156 506 325 C 503 320.125 496.175781 318.710938 491 317 C 476.691406 312.273438 461 310.308594 446 310 L 446 309 C 462 309 476.828125 306 493 309 C 487 298 466.632813 293 455 292 L 455 291 C 480.40625 291 516.542969 307.203125 540 294 L 540 293 C 525.914063 285 511 286.574219 496 283 L 496 282 C 511.855469 282 528.265625 280.078125 544 283 C 540.863281 278.253906 534 277.558594 529 276 C 514 271.382813 499.550781 270 484 270 L 484 269 C 495 268.117188 505.761719 266 517 267.285156 C 531.660156 269.085938 545.453125 275.039063 560 277 C 554.953125 270.46875 547 267.773438 540 264.191406 C 527 257.769531 513.683594 248.28125 499 247 L 499 246 C 526.421875 247.179688 548.515625 262.808594 573 273 C 570.65625 266.105469 564.625 262 559 257.625 C 548.351563 249.585938 536.585938 238.421875 523 236 L 523 235 C 538.902344 236.265625 554.667969 245 567 254.667969 C 572.847656 259.277344 577.335938 265.542969 584 269 C 578.175781 248.824219 548.472656 227.066406 528 224 L 528 223 C 539.882813 224 551 229.484375 563 230 C 556.320313 218.441406 543.371094 210.375 534 201 C 542 204.394531 550.257813 208.53125 557 214.300781 C 562.320313 219 566.578125 225.007813 573 228 C 569.304688 213.375 554 203.164063 544 193 C 559.5 197.472656 571.96875 211.515625 578 226 L 579 226 C 578.894531 213.46875 572.679688 203.238281 568 192 C 589 213.242188 587.972656 251.378906 615 267 C 613.535156 257.234375 606.75 249.007813 603 240 C 607 242.421875 611.214844 244.28125 616 245 L 615 241 C 622.710938 248.710938 630.355469 260.46875 641 264 L 638 245 C 644.96875 250 649 258.761719 656 263 L 655 250 C 663.550781 258 670.96875 271.558594 681 277 C 680.726563 264.089844 670.832031 256.203125 666 245 C 680.511719 255 690.578125 274.808594 706 282 C 701.730469 267.171875 689.929688 256 682 243 C 690.398438 249.667969 697.585938 256.4375 704 265 C 708.519531 270.773438 712.554688 279.476563 719 283 C 715.296875 265.273438 702.449219 252.097656 692 238 C 703.769531 243.601563 712.300781 255.40625 719.332031 266 C 722.511719 270.792969 725 278 730 281 C 728.566406 264.585938 716.921875 250.113281 708 237 C 725.476563 246.066406 731.726563 267.113281 741 283 L 742 283 C 741.886719 269.375 736 256.742188 732 244 C 737.441406 250 741.191406 256.425781 743.945313 264 C 745.992188 269.632813 746.335938 276 751 280 C 751 267.027344 750.980469 255 752 242 L 753 242 C 756.742188 255.316406 757 268.28125 757 282 C 762.597656 278.164063 763 267.140625 765.425781 261 C 769.664063 249.734375 777 240 787 233 C 781.949219 248 777 260.035156 777 276 L 778 276 C 785.441406 265.0625 794 252.683594 805 245 C 801.277344 254 795.738281 262 792.203125 271 C 791.417969 273.011719 788.855469 278.238281 791.617188 279.824219 C 795.605469 282.113281 799.886719 273.484375 801.21875 271 C 808.171875 258.039063 817.503906 246.0625 824 233 L 825 233 C 822.3125 244 819.414063 253.769531 814.578125 264 C 813.726563 265.800781 809.933594 272.359375 813.410156 273.539063 C 818 275.113281 824 265 826.371094 262 C 836 249.175781 845.773438 236.371094 861 230 C 853.1875 239.601563 844.222656 248.203125 836.664063 258 C 835.457031 259.566406 828.804688 268 834.1875 268.453125 C 840 269 844.9375 259.765625 848 256 C 856.53125 246.113281 866 236.515625 879 233 C 870.707031 241.292969 859.308594 249.796875 855 261 C 867.617188 258.722656 879 248 891 243 C 879.4375 254.0625 862.746094 265 858 281 C 878.746094 269.066406 894.257813 244.105469 920 242 L 920 243 C 900.839844 250.253906 875.914063 268.261719 867 287 C 878.183594 282 886.46875 270.613281 897 264.066406 C 909.277344 256.433594 923.589844 253.21875 936 246 C 929 255.316406 915.988281 259.308594 911 270 C 940.964844 259.800781 950.421875 238.628906 964.308594 213 C 969.796875 203 978.453125 193 979 181 L 980 181 C 980 192.246094 977.476563 203 977 214 C 984.480469 210.507813 991 207.488281 999 205 C 996.566406 210.8125 992.753906 216 991 222 C 1003.652344 222 1017.769531 220.445313 1029 227.558594 C 1040.574219 235 1043.199219 248.09375 1047.8125 260 C 1051.636719 270 1057.34375 279.015625 1064.289063 287 C 1098.386719 326.207031 1135 363.355469 1169.832031 402 C 1186.402344 420.410156 1207.703125 448.136719 1231 458 C 1223.542969 440.359375 1204.433594 428.058594 1193 413 C 1211 425.707031 1224.820313 450.003906 1245 459 C 1240.34375 448 1232.289063 437.664063 1224 429 C 1237.65625 436.78125 1248.25 451.328125 1263 457 C 1259 448.605469 1251.480469 442.480469 1245 436 C 1231 422.140625 1215.855469 410 1202 396 C 1210.925781 401 1218.996094 407.265625 1229 410 C 1223.488281 400 1203.398438 387 1193 382 L 1193 381 C 1200 384.058594 1206.183594 388.828125 1214 390 C 1204.554688 379 1187.8125 373.34375 1177 363 C 1185.496094 366.535156 1195.582031 374.546875 1205 374 C 1195.28125 366 1182.78125 361.335938 1173 353 C 1184 355.574219 1194.539063 362 1206 363 L 1206 362 C 1191.292969 355.039063 1174.554688 346.480469 1159 342 L 1159 341 C 1171 343.792969 1182 350.167969 1194 353.574219 C 1209.761719 358.070313 1226.78125 359 1243 361 L 1243 362 L 1227 363 L 1227 364 C 1241.246094 370.050781 1255.546875 366.320313 1266 380 C 1251.300781 376.640625 1236 374.1875 1221 373 C 1226.992188 380 1237.753906 379.617188 1246 382.035156 C 1266.953125 388.179688 1287.730469 396.078125 1309 401 C 1301.945313 382.796875 1276 370.425781 1260 361.28125 C 1235 347.101563 1208.75 335.601563 1182 325.425781 C 1157.398438 316.066406 1131.632813 308.03125 1110 292.574219 C 1095.445313 282.171875 1078.285156 273.15625 1066 260 C 1056 249.136719 1049.632813 232.628906 1035 227 L 1035 226 C 1040.851563 226.753906 1046.285156 228.679688 1052 230 C 1049.382813 215.546875 1033 214 1021 214 C 1022.429688 211 1030.824219 200.25 1027.878906 197.066406 C 1025 194.109375 1011.5625 201.175781 1008 202 C 1011.351563 193.050781 1012 182.492188 1012 173 C 1006.78125 175.433594 1003 180 999 184 C 998.675781 169 988.222656 156.1875 978 146 C 975.304688 143.316406 967.269531 134 962.871094 138.617188 C 959.757813 142 962.8125 148.503906 964 152 C 968.207031 163.714844 965.949219 173.074219 965 185 M 556 160 L 559 164 C 557.242188 162.621094 556.460938 162.105469 556 160 M 546 170.332031 L 546.332031 170.667969 C 545.839844 170.832031 545.226563 170.332031 546 170.332031 M 532 179 L 532 180 L 528 180 C 529.507813 179.316406 530.316406 179.175781 532 179 M 964 185 L 964 188 L 963 188 C 963.25 186.550781 963.316406 186.246094 964 185 M 568 192 C 566.363281 191.453125 566.546875 191.636719 566 190 C 567.636719 190.546875 567.453125 190.363281 568 192 M 544 192 L 543 193 L 544 192 M 511 209.332031 C 511.773438 209.332031 511 209.832031 510.667969 209.667969 L 511 209.332031 M 789 231 C 788.453125 232.636719 788.636719 232.453125 787 233 C 787.546875 231.363281 787.363281 231.546875 789 231 M 969 246 C 974 246.042969 979 246.777344 984 248 L 984 249 C 979.578125 249.191406 975.335938 250.160156 971 251 C 977.234375 258.253906 988.652344 261.253906 996 268 C 971.773438 264.738281 937.90625 260.53125 924 288 C 934.570313 285 944 279.152344 955 277.4375 C 962.964844 276.195313 971 278 979 278 L 979 279 C 969.425781 283 956.511719 286.570313 950 295 C 960.382813 294.554688 970.558594 291.269531 981 291.015625 C 993.28125 290.714844 1004.886719 294 1017 294 L 1017 295 C 1003.613281 295.578125 987.761719 300 975 304 C 983.984375 310.410156 1001.179688 312.761719 1012 315 L 1012 316 C 1004 317.355469 995.320313 320.753906 988 324 C 993.441406 328.492188 1000.855469 329.558594 1007 333 C 1016 337.828125 1023.753906 344.761719 1031 352 C 1007.453125 342.195313 980.390625 327.058594 961 354 C 970.40625 353.597656 979.496094 350.753906 989 352.464844 C 998.828125 354.234375 1007.230469 360.535156 1017 362 L 1017 363 L 986 362 C 990.609375 367.355469 997.644531 367.742188 1004 370.054688 C 1014.199219 373.761719 1023.433594 380.492188 1034 383 L 1034 384 C 1020.777344 381 1009.710938 378 996 378 C 1000 386.738281 1010.585938 391.550781 1018 397.234375 C 1031.757813 407.78125 1047.238281 419.765625 1056 435 C 1047.910156 431.101563 1038.691406 433 1030 433 C 1031.597656 437.21875 1034 440.578125 1037 444 C 1028.195313 439 1020.652344 432.292969 1010 432.015625 C 1007.601563 432 999.324219 431 999.921875 435.148438 C 1000.628906 440.210938 1008.21875 444.113281 1012 446.671875 C 1022.707031 454 1032.859375 462 1042 471 C 1033.355469 467.671875 1024.855469 467.109375 1016 465 C 1019.804688 471.703125 1031.730469 475.664063 1038 480.375 C 1049.613281 489.097656 1060.382813 499.199219 1071 509.089844 C 1076.945313 514.628906 1082 521.453125 1090 524 L 1090 525 C 1081.96875 524.65625 1072.800781 524 1065 522 C 1069.589844 530.367188 1086.929688 539.382813 1096 542 L 1096 543 L 1069 538 C 1075.601563 549 1090.183594 554.210938 1097 566 C 1089.261719 561.484375 1080.910156 558.199219 1072 557 C 1077.515625 565.601563 1088.976563 570 1095 579 C 1089.808594 576.699219 1084.703125 575.121094 1079 575 C 1082.234375 580.503906 1088.511719 584 1092.472656 589 C 1099.339844 598 1103.511719 610 1105 621 L 1104 621 C 1098.226563 605.769531 1081.175781 596.023438 1070 585 C 1039.710938 555.117188 1002 527.339844 978 492 C 999 492 1020.253906 494.453125 1040 502.453125 C 1050 506.511719 1058.59375 514.003906 1069 517 C 1063.464844 506.328125 1051.382813 500 1041 494.753906 C 1012.960938 480.734375 973.851563 481 943 481 L 943 480 C 961.804688 476.109375 978.628906 473 998 473 L 998 472 C 970.902344 461.777344 947.738281 466.703125 921 474 L 921 473 C 932.789063 467.421875 943.277344 461 956 457.289063 C 961.25 455.78125 970.621094 455.445313 974 451 C 954 449.433594 938.679688 453.679688 920 460 C 934.996094 443 958.726563 424.4375 982 421 L 982 419 C 953.761719 421.246094 928.941406 438.738281 907 455 C 915.316406 441.703125 929.402344 429.6875 942 420.488281 C 948.894531 415.457031 958.199219 412.078125 962 404 C 928.664063 418 901.417969 444.195313 878 471 C 881.589844 455.488281 890.570313 441.144531 900.613281 429 C 905.210938 423.445313 911.914063 419.617188 915 413 C 899 416.320313 881.601563 430.058594 877 446 L 876 446 C 878.46875 427.683594 889 411.761719 896 395 C 888.789063 399.375 884.238281 410.734375 880.308594 418 C 866.691406 443.179688 861 470.574219 861 499 L 860 499 C 852 466 846 434.503906 832 403 L 831 403 C 831.296875 417.285156 837.523438 431.15625 840.574219 445 C 843.863281 460 844 474.8125 844 490 L 843 490 C 842.949219 471.773438 834.558594 452.683594 825.859375 437 C 822.859375 431.585938 820.441406 424.324219 815 421 C 821.507813 444.796875 832.730469 466.066406 835.714844 491 C 836.941406 501.257813 834.433594 511 834 521 L 833 521 C 830.855469 512.019531 830 502.214844 830 493 L 829 493 C 824.296875 504 822.84375 516.007813 817.960938 527 C 813.652344 536.699219 805.972656 544.6875 803 555 C 812 550.734375 818.351563 542.039063 828 538 C 820 546 809 554.25 805 565 C 820.386719 560.558594 831.773438 547.183594 847 542 L 847 543 C 831.945313 550.496094 804.230469 567.5 797 583 C 816.449219 575 832.761719 559.363281 854 555.460938 C 864.769531 553.480469 875.273438 557 886 557 C 884.210938 552.351563 879 548.011719 878.644531 543 C 878 536.503906 886.464844 531.433594 889 526 L 890 526 C 892.214844 543.15625 899 561 915 569.6875 C 942.253906 584.699219 982.378906 569 985 536 L 986 536 C 986.96875 541.359375 992.515625 547.460938 991 553 C 989.519531 559 981.746094 564 977 567.277344 C 960 579.121094 938.808594 582.734375 919 576.792969 C 907.625 573.378906 899.601563 563 889 559.742188 C 882.695313 558 872.871094 562.753906 867 565 L 867 566 C 875.183594 567.101563 883.167969 569.453125 891 572 L 891 573 C 882.632813 573.683594 874.257813 576.398438 866 578 C 870 583.828125 891.769531 585.410156 899 586 C 891.820313 592.460938 877.992188 592.199219 873 601 C 888.613281 601.714844 902.945313 612 916 619.574219 C 930 627.777344 944.957031 633.6875 961 637 C 954.808594 623.722656 931.261719 609.542969 917 607 L 917 606 C 941.308594 608 962.816406 621.152344 985 630 C 995.316406 634.113281 1007.699219 639.234375 1019 638 C 1006.3125 626 986.695313 618.539063 971 611.109375 C 964.90625 608.226563 959.507813 604 953 602 L 953 601 C 969 601.132813 984.960938 605 1001 605 C 996 597.507813 980.65625 591.296875 972 590 L 972 589 L 1004 590 C 1000.835938 585.375 993.316406 584.242188 988 584 L 988 583 C 1004.8125 579 1024 580.710938 1041 582.714844 C 1046.824219 583.402344 1053.734375 581.707031 1059 585 C 1065 588.464844 1068 595.503906 1072 601 C 1080.398438 612.363281 1090 623.1875 1096 636 C 1083.316406 628.519531 1071.992188 614.460938 1058 610 C 1064.324219 632 1085 647 1093.546875 668 C 1098.492188 680.242188 1096.601563 692.320313 1095 705 L 1094 705 C 1093.25 700.640625 1091.792969 696.457031 1089 693 C 1087.808594 704 1092 714.808594 1090.710938 726 C 1089 738.675781 1082 750.382813 1081 763 L 1080 763 C 1080 746.066406 1079 727.261719 1074 711 L 1073 711 C 1073 728.230469 1074 744.789063 1071.71875 762 C 1070.222656 773.085938 1065.964844 784 1065 795 L 1064 795 C 1063 788.386719 1062.285156 781.660156 1062 775 C 1050.402344 781.367188 1056.183594 798.691406 1057 809 C 1007.59375 788.425781 977.851563 737.589844 953 693 C 959.9375 697 966.652344 701 974 704 C 970.207031 692.75 957.261719 682.273438 949 674 C 915.539063 640.484375 866.84375 632.246094 821 636.832031 C 811.699219 637.761719 800.914063 637.363281 792 640 L 792 641 C 811 641 829.996094 641.101563 849 643.164063 C 858.425781 644.191406 867.53125 647.59375 877 648 L 877 649 C 854 648.527344 831 644 808 646.171875 C 788.621094 648.015625 769.375 655.601563 750 656 L 750 658 C 764 658 777.929688 653.65625 792 653.039063 C 825.882813 651.554688 859.179688 656 892 664.128906 C 908.691406 668.320313 932.535156 674.152344 944.488281 687.519531 C 949.644531 693.285156 952.9375 706.648438 956 714 L 955 714 C 949.976563 703.429688 937.722656 684.539063 927 679.316406 C 921.847656 676.808594 914.574219 678 909 678 C 895 678 877.3125 675.066406 864 679 L 864 680 C 888 687.625 914.527344 690.285156 932.714844 710.039063 C 950.953125 730 965.328125 754.246094 979.574219 777 C 985.617188 786.648438 993.21875 804.066406 1003 810 C 999.988281 795.585938 990.578125 784.324219 985 771 C 1007.980469 796 1039.625 808.207031 1062.960938 832.015625 C 1076.355469 845.679688 1087.6875 873 1106 880 C 1101.890625 867.375 1096.761719 855.027344 1089.253906 844 C 1085.300781 838.191406 1077 832.105469 1076.921875 824.574219 C 1076.707031 816 1082.890625 806.800781 1086 799 C 1092.652344 782.320313 1098.648438 765.273438 1103.574219 748 C 1108.574219 730.457031 1112.765625 711.332031 1111.960938 693 C 1111.597656 684.691406 1107.808594 676.296875 1108.273438 668 C 1108.925781 656.351563 1117.664063 644.128906 1119.5625 632 C 1123.78125 605 1116.691406 577.121094 1107 552 C 1118.445313 552 1127.953125 556.367188 1139 558 C 1136.738281 552.15625 1132.289063 547.484375 1128 543 C 1130.441406 543.109375 1132.621094 543.429688 1135 544 C 1130.492188 527.78125 1110.800781 517.738281 1105 501 C 1112 501 1124.523438 501.535156 1129 495 C 1116.789063 491.484375 1105.875 482.800781 1097 474 L 1113 477 C 1107.855469 466 1093.605469 451.050781 1082 447 L 1082 446 C 1091.683594 448.308594 1099.621094 452.03125 1109 455 C 1105.410156 446.785156 1098.824219 438.621094 1090 436 L 1090 435 L 1101 437 C 1097.441406 427.808594 1087.421875 418.007813 1078 415 L 1078 414 L 1096 415 C 1092.570313 407.648438 1084.6875 401.449219 1077 399 L 1077 398 C 1091 399.8125 1096.621094 407.484375 1108 414 C 1103.34375 394.390625 1086.523438 379.6875 1072 367 C 1080 367 1088 367.539063 1096 369 C 1093.417969 361.40625 1085.546875 354.503906 1078 352 L 1078 351 C 1082 351.003906 1086 351.433594 1090 351 C 1081.34375 339 1065.234375 334.007813 1051 334 L 1051 333 C 1058 330.042969 1064.792969 329.136719 1072 327 C 1067 321.035156 1059.546875 318.617188 1052 318 L 1052 317 C 1060.277344 317 1066.992188 318.148438 1075 320 C 1071.933594 310.398438 1063.542969 304.265625 1054 302 C 1060.699219 294.457031 1057.277344 290.40625 1048 290 C 1058 277.679688 1029.425781 275.804688 1022 278 C 1026.777344 272 1034.414063 270.507813 1041 267 C 1033.300781 261.515625 1020.996094 263 1012 263 L 1012 262 C 1018.890625 261 1029 258.578125 1035 255 C 1026 251.167969 1017.453125 250.804688 1008 252 L 1008 251 L 1025 245 C 1019.796875 239 1011.589844 238.019531 1004 238 L 1006 234 C 995.300781 234.007813 975.429688 236.1875 969 246 M 708 237 C 706.363281 236.453125 706.546875 236.636719 706 235 C 707.636719 235.546875 707.453125 235.363281 708 237 M 692 238 C 690.363281 237.453125 690.546875 237.636719 690 236 C 691.636719 236.546875 691.453125 236.363281 692 238 M 732 243 L 731 244 L 732 243 M 805.667969 243.667969 C 805.722656 243.722656 805.777344 244.777344 805.332031 244.332031 C 805.277344 244.277344 805.222656 243.222656 805.667969 243.667969 M 638 244 L 637 245 L 638 244 M 655 249 L 654 250 L 655 249 M 401 259.332031 C 401.773438 259.332031 401 259.832031 400.667969 259.667969 L 401 259.332031 M 398 260.332031 C 398.773438 260.332031 398 260.832031 397.667969 260.667969 L 398 260.332031 M 396 261 L 395 262 L 396 261 M 997 268 L 996 269 L 997 268 M 344 269 L 343 270 L 344 269 M 287 327 C 300.601563 322.695313 311.324219 314 326 312 L 326 313 C 310.523438 317.457031 285.957031 332.085938 279 347 C 293.371094 341.5625 305 331 320 326 C 304.535156 339.382813 283.519531 349.800781 273 368 C 289 363.363281 301.582031 349.027344 316 341 C 302.171875 353.734375 287.222656 365.410156 273 377.71875 C 266 383.734375 257.683594 389 253 397 C 267.667969 391.441406 280.351563 378.472656 293 369.425781 C 319.1875 350.703125 346 332.796875 371 312.386719 C 379.734375 305.238281 387.929688 297.578125 395.269531 289 C 397.179688 286.769531 402.589844 282.0625 401.261719 278.605469 C 400.269531 276.015625 395.691406 278 394 278.4375 C 386.683594 281 379.433594 283.761719 372 286 C 342.386719 294.746094 306.449219 299.390625 287 327 M 188 290 C 190.535156 294.269531 194.542969 296.65625 195.28125 302 C 196.210938 308.742188 192.703125 317.523438 196.316406 323.785156 C 201.246094 332.335938 227 334.128906 233 327 C 223.40625 326.234375 215.230469 321.640625 206 320 L 206 319 C 217.699219 319.097656 229.441406 322.632813 240 316 L 240 315 C 229.195313 315 208.941406 317.59375 201 309 C 210.378906 308.808594 220.773438 308.285156 230 306.53125 C 231.6875 306.210938 238.875 304.597656 236.824219 301.503906 C 235.339844 299.261719 231 300.585938 229 301 C 221.675781 302.105469 214.421875 303 207 303 L 207 302 C 214.53125 301.386719 231.339844 298.203125 236 292 L 213 295 L 213 294 C 228.167969 292 246 287.203125 260 281 C 253.65625 277.8125 244.699219 280.742188 238 281.726563 C 221.296875 284.1875 204.742188 288 188 290 M 325 283 L 324 284 L 325 283 M 322 284 L 322 285 L 319 285 C 320.246094 284.316406 320.546875 284.25 322 284 M 323 289 L 322 290 L 323 289 M 1047 290.332031 C 1047.773438 290.332031 1047 290.832031 1046.667969 290.667969 L 1047 290.332031 M 211 295 L 210 296 L 211 295 M 207 303 L 207 304 L 204 304 C 205.25 303.316406 205.546875 303.25 207 303 M 321 325 L 320 326 L 321 325 M 239 341 C 228.21875 341 218.886719 337.554688 209 333.601563 C 206.3125 332.523438 199.683594 328.429688 196.859375 330.214844 C 192.972656 332.664063 195.28125 341 198.226563 343.140625 C 206.601563 349.238281 233.851563 351.4375 239 341 M 1094 332 C 1102.476563 352.148438 1123.496094 369.613281 1137.574219 386 C 1164.609375 417.472656 1190.628906 449.628906 1220 479 C 1231.800781 490.800781 1243.945313 506.3125 1259 514 C 1253 500.765625 1238.886719 490.300781 1229 480 C 1208.851563 459 1186.773438 436 1170 412 C 1185.320313 427.003906 1200.820313 441.820313 1216 457 C 1223.929688 465 1231.980469 475.800781 1242 481 C 1230.242188 458 1205.324219 440.480469 1187 423 C 1176 412.59375 1167.1875 399.613281 1154 392 L 1155 396 L 1154 396 C 1148.496094 385.390625 1137.199219 376.703125 1129 368 C 1117.96875 356.0625 1107.6875 341.054688 1094 332 M 526 345 L 526 346 C 544.613281 346 563.621094 344.296875 581 352.308594 C 592.253906 357.5 600.496094 369.582031 612 373 C 605.917969 332.570313 554.453125 335.347656 526 345 M 319 339 L 318 340 L 319 339 M 1156 339 L 1155 340 L 1156 339 M 317 340 L 316 341 L 317 340 M 1158 340.332031 C 1158.773438 340.332031 1158 340.832031 1157.667969 340.667969 L 1158 340.332031 M 255 407 C 268 402.183594 280.167969 391.050781 291 382.398438 C 308.6875 368.269531 326.222656 354.65625 345 342 C 337.378906 339.363281 326.773438 350.011719 321 354.140625 C 304.710938 365.792969 288.328125 376.765625 273 389.726563 C 266.75 395.011719 258.554688 399.382813 255 407 M 622 343 C 631.847656 357 650.558594 361.140625 661.816406 374 C 671.660156 385.242188 672.300781 400.757813 680 413 C 682.464844 407.128906 680.851563 399.148438 680 393 C 675.90625 363.445313 651.800781 344.300781 622 343 M 1210 352 L 1210 353 C 1199.488281 352.78125 1189.875 349.214844 1180 346 C 1188 343.589844 1201.230469 351.300781 1210 352 M 836 382 C 849.472656 378.117188 862.816406 369.101563 874 361 C 876.835938 358.75 885.226563 353.089844 881.953125 348.605469 C 878.699219 344.144531 870.796875 350.421875 868 352.429688 C 857.5 360 842 370.417969 836 382 M 244 360 C 232.894531 354.085938 220 353.230469 208 350.574219 C 203.5625 349.601563 196 347.140625 195.324219 354.019531 C 194.933594 358 197.246094 360.792969 201 361.476563 C 210.515625 363.203125 235.941406 365.503906 244 360 M 856 383 C 868.34375 380.800781 881.207031 370.554688 891 363.101563 C 893.535156 361.171875 901.589844 355.65625 898.914063 351.605469 C 896 347.324219 888.59375 353 886 354.671875 C 874.609375 362.289063 862.886719 371 856 383 M 1172 352.332031 C 1172.773438 352.332031 1172 352.832031 1171.667969 352.667969 L 1172 352.332031 M 490 370 L 490 371 C 507.3125 370.257813 524.613281 365.488281 542 366.042969 C 556.855469 366.515625 570.503906 371 585 373 C 566.644531 341.246094 514.660156 354 490 370 M 827 355.636719 C 816.914063 358.550781 808.210938 370.074219 806 380 C 805 384 803.929688 397.726563 811.882813 395.289063 C 818.269531 393.328125 815 381.738281 817.457031 377 C 821.226563 369.46875 829.648438 368 834.550781 361.816406 C 839.464844 355.675781 831.632813 354.300781 827 355.636719 M 881 382 C 903.910156 376.570313 920.515625 365 945 365 C 929 343.554688 890.644531 363.460938 881 382 M 255 424 C 268.414063 420.054688 278.878906 407.414063 290 399.429688 C 309 385.703125 334 375.167969 351 359 C 342.324219 359.59375 331.578125 367.699219 324 372 C 306.96875 381.667969 289.710938 390.253906 274 402.128906 C 266 408.078125 257.898438 414.152344 255 424 M 423 362.332031 C 423.773438 362.332031 423 362.832031 422.667969 362.667969 L 423 362.332031 M 421 363 L 420 364 L 421 363 M 1018 363.332031 L 1018.332031 363.667969 C 1017.839844 363.832031 1017.226563 363.332031 1018 363.332031 M 244 368 C 233.875 363.632813 217.734375 366.015625 207 367.285156 C 204.230469 367.613281 195.859375 367.371094 196.464844 372 C 197 376.628906 205 374.34375 208 374.074219 C 219.78125 373 232.761719 371.804688 244 368 M 706 366 L 706 409 L 705 409 C 704.285156 400.035156 701.191406 381 693 376 C 703 407.660156 690.238281 433.644531 688 465 C 686.191406 492.699219 693.515625 519.628906 701 546 L 702 546 L 701 506 L 702 506 C 702 510.078125 702.488281 514 703 518 L 705 518 C 705 500.164063 709 482.765625 709 465 L 710 465 C 712 476.09375 713.703125 487.761719 714.832031 499 C 715.28125 503.472656 714.453125 511 718 514 C 715.75 502 717.496094 489.269531 716.960938 477 C 715.925781 453.355469 715 429.652344 714 406 C 713.597656 396 715.453125 372.269531 706 366 M 778 369 C 772 394.820313 773.703125 419 771.910156 445 C 770.429688 466.648438 766 488.269531 766 510 L 768 510 C 770.203125 493 774.996094 476.335938 775 459 L 776 459 C 776 471.375 778.683594 483.636719 778.984375 496 C 779.277344 508 777 519.273438 777 531 L 778 531 C 780.515625 520.785156 782 510.507813 782 500 L 783 500 C 783 518 779.765625 535.179688 779 553 C 788.375 546.105469 791.222656 522 793 511 C 796 493.792969 797.492188 475.453125 795.828125 458 C 793 429.75 785.925781 407 795 379 C 785 384.632813 782 406.550781 782 417 L 781 417 C 781 401.277344 781.304688 384.644531 780 369 L 778 369 M 467 394 C 482.921875 394 498.460938 387.058594 514 384 C 522 382.40625 532.203125 382.082031 539 377 C 522.824219 370.175781 498.3125 377.8125 483 384.285156 C 477.304688 386.691406 470 388.300781 467 394 M 1000 397 C 989.710938 379.214844 954.449219 374.824219 936 376.089844 C 932 376.355469 913.207031 377.128906 913.207031 382.816406 C 913.207031 386 930.257813 385.828125 933 386 C 945.5625 386.570313 958.605469 387.121094 971 389.460938 C 980.808594 391.308594 990 395.546875 1000 397 M 219 388 C 215.363281 388.371094 212.367188 389.628906 209 391 C 215.816406 385.105469 222.933594 380.339844 232 379 L 232 377 C 223.203125 377 203.304688 375.011719 196.515625 381.5625 C 191.824219 386.085938 193.773438 398.207031 194.574219 404 C 194.921875 406.5 194.699219 411.171875 198 411.453125 C 205.929688 412.089844 215.761719 393.808594 219 388 M 244 378 C 223.976563 392.34375 194.210938 409.253906 193 437 C 199.871094 434.09375 205.386719 428.535156 212 425 C 202.304688 435 192.890625 447.496094 189 461 C 193.976563 457.464844 197 452.589844 201 448 C 198.417969 457.453125 194.429688 466.03125 194 476 C 196.917969 474.484375 197.921875 473.105469 199 470 L 200 470 L 199 492 C 203.40625 490.367188 205.539063 487.394531 207 483 L 208 483 C 209.507813 490 219.445313 475.4375 221.390625 473 C 231.714844 460.066406 242.660156 447.164063 255 436.082031 C 260.277344 431.34375 268.671875 427.527344 270 420 C 251.761719 432.0625 234 446.238281 219 462 C 226.480469 450 242 440.792969 247 428 C 233 432.027344 222.796875 443 213 453 C 219.515625 439.304688 237.351563 432.671875 242 419 C 229.300781 422.734375 218.722656 434.507813 209 443 C 210.84375 435.230469 215 426.742188 221 421.324219 C 226.558594 416.371094 233.714844 414 237 407 C 227.703125 409.617188 218.390625 412.828125 209 415 C 216 405.492188 224.644531 397.246094 234 390 C 237.6875 387 244 383.097656 244 378 M 1193 380 L 1193 381 L 1187 379 C 1189.273438 378.589844 1190.78125 379.210938 1193 380 M 1120 379 C 1124.847656 394.207031 1140.585938 409.257813 1150 422 C 1170.851563 449.675781 1193.429688 475.660156 1216.910156 501 C 1227.84375 512.796875 1239.339844 527.695313 1254 535 C 1246.414063 519.769531 1231.382813 507.808594 1220.429688 495 C 1198.824219 469.738281 1179.316406 442.804688 1157 418 C 1146.3125 406 1134.570313 386.558594 1120 379 M 1237 382 C 1241.992188 389.316406 1257.476563 395 1265 400.425781 C 1284.574219 414.621094 1305.433594 436 1312 460 C 1308.316406 458.582031 1304.949219 457.347656 1301 457 C 1303 461 1305.890625 464 1309 467 C 1298.675781 461.5625 1288 454.550781 1276 454 C 1285.390625 465.363281 1299.457031 472 1309 484 C 1304.683594 481.609375 1300.851563 479.164063 1296 478 C 1299 486.28125 1306 492.65625 1310.949219 500 C 1312 501.726563 1314.605469 506.816406 1317.410156 505.652344 C 1320.582031 504.339844 1318.777344 491.136719 1319 488 C 1320.1875 489.1875 1320.585938 489.527344 1322 490 C 1330 465.765625 1312.65625 433.398438 1296.996094 415 C 1291.777344 409 1286.242188 402.738281 1279 399 L 1279 398 C 1288.320313 402.40625 1297.886719 409.460938 1304.90625 417.003906 C 1309.695313 422.152344 1312.414063 429 1319 432 C 1315 417 1308.53125 406.054688 1294 398.785156 C 1290.953125 397.261719 1276.828125 391.039063 1276 396 C 1263.238281 389.285156 1251.1875 384.671875 1237 382 M 1036 384 L 1035 385 L 1036 384 M 738 390 C 738 431.417969 735 472.546875 735 514 L 737 514 C 737 473.296875 745 430.394531 740 390 L 738 390 M 209 391 C 207.898438 392.457031 207.457031 393 206 394 C 207 392.542969 207.542969 392.101563 209 391 M 509 395 C 496.351563 391.367188 477.988281 400 467 405.78125 C 464 407.316406 454.167969 412 455.753906 416.398438 C 457.222656 420.570313 466.1875 414.070313 468 413.011719 C 480.546875 405.691406 497.570313 403.550781 509 395 M 1202 395 L 1202 396 C 1200.421875 395.316406 1200.222656 395.195313 1199 394 L 1202 395 M 729 395 C 729 410.535156 729.566406 426.578125 727.714844 442 C 726.75 450.046875 722.703125 457 721.4375 465 C 718.898438 481.097656 720 500 723 516 L 724 516 C 724 496.558594 725.601563 477.351563 726 458 L 727 458 L 728 509 L 729 509 C 733.359375 497.355469 731 482.296875 731 470 C 731 445.117188 732.949219 419.6875 731 395 L 729 395 M 1157 398 C 1155.363281 397.453125 1155.546875 397.636719 1155 396 C 1156.636719 396.546875 1156.453125 396.363281 1157 398 M 1279 398 C 1277.421875 397.316406 1277.222656 397.195313 1276 396 C 1277.578125 396.683594 1277.777344 396.804688 1279 398 M 857 455 C 865.449219 444.425781 864 424.773438 864 412 C 864 409.289063 865.546875 398.585938 861.738281 398 C 856.859375 397.070313 855.4375 408 854.921875 411 C 852.519531 425.21875 854.382813 441 857 455 M 1039 429 C 1029.695313 413.039063 1003 405 986 401.011719 C 982 400.117188 968.875 395.777344 966.175781 400.523438 C 963.339844 405.515625 979.269531 408.777344 982 409.671875 C 1000 415.550781 1019.949219 429 1039 429 M 750 399 C 750 433.691406 739.335938 475.273438 750 509 L 751 509 C 751 473.027344 756.5 434.601563 752 399 L 750 399 M 758 402 C 758 441.03125 756 480 756 519 L 757 519 C 757 491.796875 757.847656 464.203125 759 437 C 759.460938 427.402344 763.695313 410.339844 758 402 M 306 405 C 307.636719 404.453125 307.453125 404.636719 308 403 C 306.6875 403.769531 306.769531 403.6875 306 405 M 304 404 C 285.476563 416.496094 260.167969 431.152344 258 456 C 270.648438 445.550781 278 429.148438 291 418.324219 C 295.296875 414.726563 304.53125 410.449219 304 404 M 1167 408 L 1170 412 C 1168.242188 410.621094 1167.460938 410.105469 1167 408 M 1131 411 C 1137.242188 429.003906 1155.828125 456 1172 466 C 1167.523438 452 1155.246094 439 1146.710938 427 C 1142.363281 421 1137.933594 414.230469 1131 411 M 1193 413 C 1191.363281 412.453125 1191.546875 412.636719 1191 411 C 1192.636719 411.546875 1192.453125 411.363281 1193 413 M 617 471 C 617 455.320313 613.738281 437.074219 604.558594 424 C 602.601563 421.210938 596 411.265625 591.617188 414.136719 C 587.792969 416.589844 593.445313 425.378906 594.753906 428 C 599.878906 438.28125 604.644531 448.714844 609.753906 459 C 611.808594 463.140625 613 468.390625 617 471 M 209 415 L 208 416 L 209 415 M 414 419 L 413 420 L 414 419 M 301 420 C 285.855469 432.289063 272.269531 444.582031 263 462 C 273.898438 456.507813 282.535156 439.632813 292 431.285156 C 295.359375 428.320313 301 424.832031 301 420 M 213 424 L 212 425 L 213 424 M 351 427 L 350 428 L 351 427 M 1224 429 C 1222.363281 428.453125 1222.546875 428.636719 1222 427 C 1223.636719 427.546875 1223.453125 427.363281 1224 429 M 348 428.332031 C 348.773438 428.332031 348 428.832031 347.667969 428.667969 L 348 428.332031 M 413 434 C 412.453125 435.636719 412.636719 435.453125 411 436 C 411.546875 434.363281 411.363281 434.546875 413 434 M 1089 434.332031 C 1089.773438 434.332031 1089 434.832031 1088.667969 434.667969 L 1089 434.332031 M 346 438 L 345 439 L 346 438 M 420 438.332031 C 420.773438 438.332031 420 438.832031 419.667969 438.667969 L 420 438.332031 M 209 443 L 208 444 L 209 443 M 697 552 C 699.921875 544 692.675781 532 690.425781 524 C 685.390625 506.429688 682 487.300781 682 469 C 681.996094 462.519531 682.683594 456.421875 683.40625 450 C 683.578125 448.46875 684.234375 444.207031 681.609375 444.207031 C 672.6875 444.207031 673.722656 465.746094 674 471 C 675.886719 496.652344 686.636719 528.589844 697 552 M 1038 444 L 1037 445 L 1038 444 M 203 445 L 202 448 L 201 448 C 201.683594 446.421875 201.804688 446.222656 203 445 M 876 446 L 876 449 L 875 449 C 875.25 447.550781 875.316406 447.246094 876 446 M 804 448 C 803.996094 469.542969 802.308594 492.125 796.574219 513 C 792.628906 527.367188 783 546.101563 784 561 C 789.261719 554 791.238281 543.289063 794 535 C 801.652344 512.039063 807.996094 487.347656 808 463 L 809 463 L 809 465 L 810 465 C 809.871094 458.722656 808.902344 452.28125 804 448 M 282 450 C 277 455.394531 271.628906 461.066406 269 468 L 270 468 C 273.742188 463.101563 283.601563 457 282 450 M 213 453 L 212 454 L 213 453 M 907 455 C 905.898438 456.457031 905.457031 457 904 458 C 905 456.542969 905.542969 456.101563 907 455 M 424 456 L 423 457 L 424 456 M 588 456 L 587 457 L 588 456 M 1149 456 C 1162.574219 491 1181.378906 524 1195.398438 559 C 1199.847656 570.109375 1205.785156 593.308594 1216 600 C 1208.203125 562.234375 1190.28125 522.457031 1171.425781 489 C 1165.53125 478.546875 1160 462 1149 456 M 920 460 L 919 461 L 920 460 M 1313 460 L 1312 461 L 1313 460 M 236 461 C 216.5625 476.429688 209 496.597656 209 521 C 214.320313 518.296875 217.917969 512.488281 220 507 L 221 507 C 219 520.570313 217.886719 532.3125 218 546 L 219 546 C 221.367188 541.558594 223.605469 537 225 532 L 226 532 C 224.285156 544.730469 220.269531 557 222.617188 570 C 223.402344 574.363281 224.679688 580.753906 229 583 C 234.285156 585.472656 241.203125 578.789063 245 576 C 257.855469 566.496094 261.726563 542.398438 264 527 C 251.386719 536 239.84375 552.238281 233 566 L 232 566 C 232 535.625 242.9375 508.285156 249 479 C 242.9375 482.171875 238.894531 488 236 494 L 235 494 C 238.707031 482.628906 245.71875 472.386719 249 461 C 239.253906 465.640625 232.554688 479.285156 225 487 C 228.203125 480.140625 238 468.730469 236 461 M 219 462 C 218 464 217.609375 464.550781 216 466 C 216.953125 464.234375 217.566406 463.394531 219 462 M 762 463 C 762 480.097656 758 502.625 763 519 L 764 519 L 764 481 C 764 475.148438 765 468.183594 762 463 M 810 466 C 810 470.730469 809.652344 475.441406 811 480 L 812 480 C 812 475.195313 812.539063 470.238281 810 466 M 216 467 L 214 471 L 213 471 C 213.953125 469.234375 214.566406 468.394531 216 467 M 1310 467 L 1309 468 L 1310 467 M 743 470 C 742 481.359375 742 492.578125 742 504 L 743 504 C 746.691406 493.101563 746.421875 481.253906 745 470 L 743 470 M 820 470 C 815.410156 505.546875 792.90625 535 785 569 C 791 564 793.578125 555.726563 797.425781 549 C 807.191406 532 817.402344 515.554688 821.398438 496 C 823 488 826.984375 476.457031 820 470 M 1043 471 L 1042 472 L 1043 471 M 432 472 L 431 473 L 432 472 M 640.667969 473.667969 C 640.722656 473.722656 640.777344 474.777344 640.332031 474.332031 C 640.277344 474.277344 640.222656 473.222656 640.667969 473.667969 M 665 474 C 657.171875 500.476563 678 535.007813 692 556 L 693 556 C 689.726563 537 678.6875 518.097656 672 500 C 669 492.0625 669.183594 481 665 474 M 921 474 L 921 475 L 918 476 C 919.222656 474.804688 919.421875 474.683594 921 474 M 588 475 L 587 476 L 588 475 M 626.667969 478.667969 C 626.722656 478.722656 626.777344 479.777344 626.332031 479.332031 C 626.277344 479.277344 626.222656 478.222656 626.667969 478.667969 M 210 479 L 209 480 L 210 479 M 208.667969 481.667969 C 208.722656 481.722656 208.777344 482.777344 208.332031 482.332031 C 208.277344 482.277344 208.222656 481.222656 208.667969 481.667969 M 425 485.332031 L 425.332031 485.667969 C 424.839844 485.832031 424.226563 485.332031 425 485.332031 M 1288 485 C 1290.632813 494.140625 1296.605469 502 1299.644531 511 C 1301.621094 517 1302 524 1308 527 C 1308 510.070313 1305.386719 492.597656 1288 485 M 423 486 L 422 487 L 423 486 M 1322 486 L 1321 487 L 1322 486 M 225 487 L 224 488 L 225 487 M 321 487 L 321 491 L 320 491 C 320.175781 489.316406 320.316406 488.507813 321 487 M 234.667969 494.667969 C 234.722656 494.722656 234.777344 495.777344 234.332031 495.332031 C 234.277344 495.277344 234.222656 494.222656 234.667969 494.667969 M 234 497 L 233 498 L 234 497 M 559 499.300781 C 562.1875 499 582.347656 501.210938 577.339844 507.367188 C 572 513.75 556.59375 515.105469 549 515.828125 C 545.332031 516.179688 524.636719 517.128906 529.660156 509.089844 C 534.746094 501 550.515625 500.097656 559 499.300781 M 1272 502 C 1275.964844 511.539063 1279.894531 520.820313 1282 531 L 1281 531 C 1279.695313 526.605469 1277.679688 523.734375 1274 521 C 1274.628906 535.652344 1273.628906 554 1277 568 C 1274.46875 565.082031 1272.34375 562 1269 560 C 1269 570.097656 1267.433594 580 1267 590 L 1266 590 C 1265.445313 583.691406 1262.480469 574.589844 1257 571 C 1258.558594 583.332031 1259.925781 595.625 1261 608 C 1261.328125 610.734375 1261.222656 618.421875 1264.328125 619.652344 C 1268 621.164063 1272 608.445313 1273.246094 606 C 1281.21875 590 1287.441406 578.242188 1286 560 L 1287 560 C 1289.242188 564.425781 1293 565 1292.8125 559 C 1292.351563 550.328125 1291.683594 541.65625 1291 533 L 1292 533 C 1294.257813 540.824219 1299.503906 548.503906 1307 552 C 1303.785156 539.574219 1302 518.246094 1291.894531 509.390625 C 1286.511719 504.710938 1278.777344 503.316406 1272 502 M 304.667969 503.667969 C 304.722656 503.722656 304.777344 504.777344 304.332031 504.332031 C 304.277344 504.277344 304.222656 503.222656 304.667969 503.667969 M 221.667969 505.667969 C 221.722656 505.722656 221.777344 506.777344 221.332031 506.332031 C 221.277344 506.277344 221.222656 505.222656 221.667969 505.667969 M 304 506 L 303 507 L 304 506 M 933 508.285156 C 940 507.425781 947.296875 508.121094 954 510.359375 C 955.953125 511.011719 960.550781 512.21875 960 515.078125 C 959 521.042969 941.632813 522.160156 937 522.714844 C 932 523.308594 910.980469 525.191406 909.921875 518 C 908.878906 510.726563 928.421875 509 933 508.285156 M 256 574 C 266.5 565 270 545.429688 275.425781 533 C 278.488281 526 283.183594 519.644531 285 512 C 279.242188 515.382813 275.761719 522.398438 272.398438 528 C 263.980469 542.03125 256 557.355469 256 574 M 512 519 C 514.75 553.539063 553.550781 576.429688 584 557.53125 C 592 552.539063 598.648438 544.515625 602.675781 536 C 603.390625 534.492188 604.878906 528.527344 607.480469 530.753906 C 618.371094 540.054688 596.640625 559.179688 590 563.449219 C 573.375 574.140625 538.746094 571.40625 522 562.097656 C 506.195313 553.308594 489.601563 530.714844 512 519 M 399 520.332031 C 399.773438 520.332031 399 520.832031 398.667969 520.667969 L 399 520.332031 M 226.667969 530.667969 C 226.722656 530.722656 226.777344 531.777344 226.332031 531.332031 C 226.277344 531.277344 226.222656 530.222656 226.667969 530.667969 M 307.667969 532.667969 C 307.722656 532.722656 307.777344 533.777344 307.332031 533.332031 C 307.277344 533.277344 307.222656 532.222656 307.667969 532.667969 M 1282.667969 532.667969 C 1282.722656 532.722656 1282.777344 533.777344 1282.332031 533.332031 C 1282.277344 533.277344 1282.222656 532.222656 1282.667969 532.667969 M 654 533 L 653 534 L 654 533 M 294 537 L 293 538 L 294 537 M 292.667969 539.667969 C 292.722656 539.722656 292.777344 540.777344 292.332031 540.332031 C 292.277344 540.277344 292.222656 539.222656 292.667969 539.667969 M 636 539 L 635 540 L 636 539 M 848 541 L 847 542 L 848 541 M 1097 543.332031 C 1097.773438 543.332031 1097 543.832031 1096.667969 543.667969 L 1097 543.332031 M 1286 559 L 1285 560 L 1286 559 M 1236 560 C 1239.277344 571.632813 1242.480469 584 1243 596 L 1242 596 C 1241.230469 586.554688 1236.8125 574.71875 1230 568 C 1229 576.34375 1231.785156 584.664063 1231.945313 593 C 1232 603 1230 613 1230 623 L 1229 623 C 1228.964844 610.222656 1223.746094 583.183594 1212 576 C 1213.519531 588 1218.257813 599.167969 1220 611 L 1219 611 C 1218 609.238281 1214.898438 603.175781 1212 605.175781 C 1209.230469 607.121094 1211 619 1211 622 C 1210.933594 636 1206.226563 649 1199.78125 661 C 1198.320313 663.753906 1195.339844 672 1191.488281 672 C 1188.253906 672 1185.394531 663.390625 1184 661 L 1183 661 C 1183 672.101563 1180.515625 695 1193 701 C 1198.558594 703.640625 1201.730469 696.613281 1204.195313 693 C 1210.542969 683.6875 1219.804688 673.65625 1221 662 L 1222 662 L 1222 672 C 1225.886719 669.429688 1227.308594 664.175781 1229 660 C 1234 649 1239.464844 636.246094 1240 624 L 1241 624 C 1241.832031 630.578125 1242.289063 637 1245 643 C 1251.695313 633.601563 1250 618 1250 607 L 1251 607 C 1252.585938 612.503906 1255.167969 618.023438 1258 623 C 1263.824219 609.125 1255 585.074219 1247.988281 573 C 1244.925781 567.753906 1241.957031 562.117188 1236 560 M 420 577 L 419 578 L 420 577 M 1128 608 L 1127 608 C 1126.421875 603.714844 1125.761719 599.492188 1122 597 C 1122 613.546875 1126.703125 629.585938 1128 646 C 1132 643.402344 1130.910156 638.355469 1131.589844 634 C 1133 624.246094 1135.34375 614.410156 1138.34375 605 C 1139.425781 601.605469 1142.292969 596 1140.394531 592.378906 C 1138.859375 589.519531 1135.628906 592.640625 1134.328125 594.0625 C 1130.78125 598 1128.53125 602.820313 1128 608 M 459.925781 596.800781 C 453.566406 598 447 605.511719 443 610 C 441.671875 611.523438 437.421875 616.539063 442 616.664063 C 448.929688 617 456.800781 609.035156 460.359375 604 C 461.691406 602.117188 464.972656 596 459.925781 596.800781 M 1147 597 C 1138 617.121094 1131 644 1147 663 C 1147.703125 656.078125 1145 649.019531 1145 642 L 1146 642 C 1148.324219 655.019531 1165.335938 680 1177 686 L 1176 679 L 1177 679 C 1177.9375 681.636719 1178.578125 682.617188 1181 684 C 1180.179688 673.59375 1178.472656 663.332031 1177 653 C 1176.671875 650.703125 1176.304688 644.28125 1172.878906 644.347656 C 1168.773438 644.421875 1166.558594 653.078125 1165 656 C 1161.261719 645 1155.988281 634.449219 1153.425781 623 C 1151.570313 614.714844 1152.222656 604.011719 1147 597 M 604 601.332031 C 604.773438 601.332031 604 601.832031 603.667969 601.667969 L 604 601.332031 M 1019 601 C 1022.554688 607.65625 1030.226563 611.128906 1036 615.667969 C 1045.472656 623.117188 1053.761719 634.242188 1065 639 C 1059.253906 621 1036.582031 606.066406 1019 601 M 609 602 L 609 603 L 606 603 C 607.25 602.316406 607.546875 602.25 609 602 M 441 640 C 454.273438 636.09375 464.574219 624.058594 476 616.699219 C 481.726563 613.011719 488.789063 610.320313 492 604 C 473.515625 610.015625 447.550781 619.484375 441 640 M 393 606 L 393 610 L 392 610 C 392.175781 608.316406 392.316406 607.507813 393 606 M 393.667969 611.667969 C 393.722656 611.722656 393.777344 612.777344 393.332031 612.332031 C 393.277344 612.277344 393.222656 611.222656 393.667969 611.667969 M 1221 611 L 1221 614 L 1220 614 C 1220.25 612.546875 1220.316406 612.246094 1221 611 M 1014 613 C 1018.324219 624 1032.339844 631 1039 641 C 1033.707031 637.515625 1028.777344 633.699219 1023 631 C 1025.925781 639.609375 1034.726563 645 1041 651.015625 C 1052 662 1062 673.574219 1070 687 L 1071 687 C 1070 675.824219 1063 666.058594 1057 657 C 1059.984375 659 1062.617188 661 1066 662 C 1059.636719 640 1034.230469 621.421875 1014 613 M 825 620 L 825 621 C 852.4375 622.179688 879 627.25 905 636.34375 C 916.242188 640.285156 926.699219 646.175781 938 650 C 934.683594 640.242188 923.546875 633.761719 915 629 C 887.925781 613.394531 854.667969 614.410156 825 620 M 431 719 C 444.984375 715 456.839844 703.34375 469 695.679688 C 492 681.179688 515.574219 667.628906 541 657.8125 C 568.519531 647.1875 599.53125 642.070313 629 644.089844 C 645 645.1875 660.914063 649.308594 677 650 L 677 648 C 650.699219 644.605469 626.863281 638 600 638 L 600 637 L 666 638 L 666 636 C 651.9375 634.183594 638.210938 630.0625 624 629.089844 C 608 628 592.777344 631.324219 577 632 L 577 631 C 594.910156 630.21875 612.757813 622.441406 631 621 C 628 617.089844 621.621094 617.058594 617 617.003906 C 605.375 617 593.589844 618.183594 582 619 C 536.933594 622.054688 501.691406 657.738281 469 685 C 456.644531 695.191406 439 705 431 719 M 441 658 C 454 652.355469 464.78125 641.4375 476 633 C 481.4375 628.738281 488 625.359375 491 619 C 471.660156 625.304688 448.441406 637.699219 441 658 M 434 682 C 443.585938 675.246094 450.234375 665.28125 460 658.4375 C 475.554688 647.535156 504.992188 638.152344 513 620 C 484.714844 630.292969 442.976563 651 434 682 M 1242 622 L 1241 623 L 1242 622 M 983 634 C 990 647.253906 1009.984375 653.238281 1019 666 C 1009.851563 660.304688 1000.90625 651 990 649 C 1000.789063 667.664063 1024.71875 681 1040 696.003906 C 1047.230469 703.148438 1054 715.246094 1063 720 C 1060 707.65625 1051.804688 698.300781 1045 688 C 1047.890625 690.285156 1050.699219 692.355469 1054 694 C 1050.601563 685.214844 1042.523438 678.523438 1036 672 C 1020.398438 656.398438 1004.390625 641 983 634 M 483 664 C 496 661.660156 502.992188 650.449219 503 638 C 494.683594 642.0625 486.898438 655.753906 483 664 M 600 638 L 600 639 L 593 639 C 595.332031 638.015625 597.457031 638.019531 600 638 M 589 639 L 589 640 L 585 640 C 586.507813 639.316406 587.3125 639.175781 589 639 M 940 641 C 943.625 650.566406 951.53125 659 957.628906 667 C 971.5 685.46875 987.242188 711.640625 1007 724 C 1003.652344 712.40625 993.8125 703.378906 986.652344 694 C 972.574219 675.558594 962.792969 650.550781 940 641 M 1041 643 C 1039.363281 642.453125 1039.546875 642.636719 1039 641 C 1040.636719 641.546875 1040.453125 641.363281 1041 643 M 692 643 C 696 660.53125 706.242188 676.089844 712 693 C 699.265625 684.03125 689.925781 671.753906 676 664 C 679.773438 675.382813 690.671875 686.648438 699 695 C 695 695.164063 690.796875 696.585938 687 695.679688 C 678.386719 693.617188 675.621094 681.789063 672 675 L 671 675 C 671.277344 681.066406 677.492188 691.550781 674.511719 697.136719 C 672.402344 701.089844 667.925781 699.425781 665.519531 697 C 658.644531 689.503906 655.496094 680.003906 647 674 C 649.4375 683 654.652344 690.523438 658 699 C 658.914063 701 660.902344 707 656.863281 707 C 653.953125 707 651.644531 703 649.828125 701.171875 C 645.578125 697 640.753906 693 635 691 C 638.679688 699.53125 649.683594 709.15625 648.742188 719 C 648.363281 723 645.78125 726.46875 644 730 C 642.367188 733.71875 640.988281 740 635.984375 740.351563 C 628.78125 741 619.824219 732.328125 613 730 C 617.25 739.117188 630.1875 742.824219 633.382813 752.003906 C 634.769531 756 632.542969 761 632 765 C 619.460938 758.425781 605.871094 764.34375 594 769.695313 C 569.742188 780.628906 542.265625 792 527 815 C 540.585938 812.578125 552 800.1875 563 792.425781 C 576.355469 783 591 776.652344 607 773 C 613.597656 771.320313 622.222656 768.511719 628.980469 770.433594 C 636.820313 772.664063 643.753906 791.394531 648.425781 798 C 661.855469 817 680.988281 827.5625 700 840.078125 C 706.746094 844.519531 714 852.746094 723 851.289063 C 739.46875 848.585938 762.589844 839 775 827.824219 C 786.300781 817.738281 794.402344 805.308594 804.289063 794 C 808.273438 789.445313 813.730469 786.304688 817.566406 781.710938 C 822.394531 776 816 767.421875 822 762.703125 C 826.640625 759.171875 834.5625 758.714844 840 757.375 C 858.710938 752.757813 876.984375 752.605469 896 753 L 896 751 C 868.222656 747.484375 842.46875 743.136719 817 758 C 816.738281 754.804688 816 752.003906 815 749 C 825.476563 747.648438 835.855469 743.203125 845 738 L 845 737 C 836.238281 737.007813 827.710938 739.546875 819 739.605469 C 816 739.625 811.796875 737.710938 814.464844 734.261719 C 820 727 832.898438 731.3125 838 723 L 808 726 C 824.457031 711.226563 855.257813 703.449219 877 703 L 877 702 C 858 702 837.824219 700.566406 820 708.515625 C 816.941406 710 805.785156 718.578125 803 713.644531 C 800.882813 709.355469 810.285156 702.667969 812 699 C 801 702.507813 792.402344 705.605469 781 703 L 781 702 C 789.320313 700.566406 797 696 805 693.054688 C 808.804688 691.671875 813.488281 691.316406 816 688 C 805.9375 688.792969 795.710938 690.046875 786 693 C 780.523438 694.53125 775.710938 698.085938 770 699 C 762.902344 700 756 697.144531 749 697 L 749 696 C 762.171875 693 777.84375 681.65625 786 671 C 772.601563 673.007813 761.257813 682 749 687 C 753 683.007813 758.992188 679.6875 762 675 C 754.519531 675.652344 746.695313 679 741.324219 684.324219 C 737.332031 688.316406 735.4375 694.414063 729 695 C 716.265625 695.714844 717.441406 685 714.300781 676 C 710.476563 665.15625 702.214844 649 692 643 M 598 656 C 605.707031 658.277344 614 658.179688 622 660.425781 C 635.539063 664.289063 648.425781 670.148438 662 674 C 661 666.566406 655.394531 663 649 659.785156 C 636 653.609375 611.1875 648.089844 598 656 M 1030 656 C 1033.4375 666.769531 1044.894531 674.492188 1056 675 C 1051.445313 666.296875 1039.304688 658.738281 1030 656 M 1222.667969 659.667969 C 1222.722656 659.722656 1222.777344 660.777344 1222.332031 660.332031 C 1222.277344 660.277344 1222.222656 659.222656 1222.667969 659.667969 M 865 668 C 854 659.820313 832.933594 664 821 668.003906 C 817.714844 669.113281 806.390625 672.460938 807.832031 677.601563 C 809 681.808594 819.285156 678.261719 822 677.652344 C 836.347656 674.425781 850.824219 672 865 668 M 991 665 C 992.582031 673.773438 999.800781 680.289063 1005.195313 687 C 1015.753906 700.132813 1025.414063 713.636719 1036.910156 726 C 1042 731.613281 1046.425781 737.582031 1054 740 C 1051.238281 730.609375 1043.65625 722.710938 1037.871094 715 C 1024.273438 697 1010 677.675781 991 665 M 1020 666 L 1023 670 C 1021.242188 668.621094 1020.460938 668.105469 1020 666 M 1175.667969 677.667969 C 1175.722656 677.722656 1175.777344 678.777344 1175.332031 678.332031 C 1175.277344 678.277344 1175.222656 677.222656 1175.667969 677.667969 M 996 683 C 1002.871094 720 1031.242188 741.046875 1048 773 L 1049 773 C 1048.472656 748.226563 1025.691406 727.007813 1012.4375 708 C 1006.839844 700 1003.890625 689.09375 996 683 M 1043 685 C 1044.1875 686.1875 1044.527344 686.585938 1045 688 C 1043.453125 686.738281 1043.191406 686.804688 1043 685 M 749 687 C 748.453125 688.636719 748.636719 688.453125 747 689 C 747.546875 687.363281 747.363281 687.546875 749 687 M 565 696 L 565 698 C 582.429688 698 598.972656 695.625 616 701.355469 C 626 704.773438 633.746094 713.039063 644 716 C 638 677.605469 588.75 694.121094 565 696 M 505 691 C 504.453125 692.636719 504.636719 692.453125 503 693 C 503.546875 691.363281 503.363281 691.546875 505 691 M 953 693 C 951.363281 692.453125 951.546875 692.636719 951 691 C 952.636719 691.546875 952.453125 691.363281 953 693 M 572 703 L 572 705 C 597.824219 705.214844 617.71875 724.378906 642 730 C 641.460938 720.03125 633.441406 715.515625 625 712.011719 C 608.347656 705.101563 589.894531 703 572 703 M 498 762 C 505.519531 758.101563 510.867188 750.800781 517 745.089844 C 528.84375 734.0625 548.984375 722.710938 553 706 C 545.78125 707.65625 539.589844 713.097656 534 717.753906 C 519.953125 729.460938 505.339844 745 498 762 M 478 714 L 477 715 L 478 714 M 957 714 L 959 719 L 958 719 C 957 717 956.589844 716.140625 957 714 M 477 716 L 476 717 L 477 716 M 417 772 C 423.65625 767.730469 428.972656 758.027344 434.285156 752 C 443.589844 741.445313 457.394531 732.246094 463 719 C 441.476563 721.203125 417.910156 751.125 417 772 M 960 720 L 959 721 L 960 720 M 961 722 L 960 723 L 961 722 M 981 723 C 989.589844 745.140625 1006.5625 777 1031 784 C 1027.730469 767.09375 1007.761719 756 997.898438 743 C 992.867188 736.386719 988.6875 726.75 981 723 M 492 784 C 502.597656 777.253906 509.476563 763 520 755 C 533.191406 745 549.292969 741.621094 563 733 C 556.800781 728.304688 544.640625 732.289063 538 734.8125 C 517.46875 742.621094 498 762.703125 492 784 M 934 735 C 936.226563 752.234375 946.476563 763.320313 956 777 C 939 760.113281 920.503906 741.015625 895 741 C 901.523438 750.230469 912.605469 753.78125 922 759.449219 C 935.554688 767.625 947.890625 779 962 786 L 960 781 C 965 786.089844 969.578125 792.640625 976 796 C 973.671875 788.082031 967.800781 782 963.4375 775 C 955.175781 762.019531 948.84375 742 934 735 M 1008 736 C 1009.546875 751.097656 1023.414063 763.375 1037 768 C 1035.585938 763 1031.675781 760.683594 1028.289063 757 C 1021.632813 749.640625 1016.773438 741.070313 1008 736 M 650 792 L 650 791 C 664.910156 791 680.953125 792.621094 695 786.53125 C 701.925781 783.527344 709.191406 776.191406 707.453125 768 C 705.171875 757.242188 693.25 752.082031 688 743 C 706.464844 748.328125 724 774.429688 703 788.03125 C 686.828125 798.460938 667.53125 794.578125 650 792 M 544 752 L 544 754 C 552.925781 754 561.183594 751.023438 570 750.171875 C 583 749 597.234375 750.640625 610 753.652344 C 613 754.375 627.597656 760.386719 629.289063 756.398438 C 632.34375 749.175781 614 745.585938 610 744.804688 C 587 740.410156 566.394531 751.035156 544 752 M 456 749 C 452.59375 765.457031 439.367188 782 424 789 C 433.457031 775.171875 444.871094 761.496094 456 749 M 762 749 L 761 750 L 762 749 M 760 750 L 760 751 C 756 752.644531 752.441406 754.636719 749 757.160156 C 735.296875 767.203125 736.5 779 751 787.121094 C 764 794.613281 781.265625 795 796 795 C 780.71875 804.167969 747 794.214844 737.703125 780 C 728 765.636719 747.527344 752 760 750 M 822 767 L 822 768 C 848.511719 768 876 769.300781 901 779.453125 C 952.347656 800.417969 984.21875 854.613281 991 908 C 994.835938 903 992.992188 894 992.285156 888 C 990.441406 872.382813 988.519531 857.800781 982.601563 843 C 956.9375 779 887.320313 751 822 767 M 985 770 L 984 771 L 985 770 M 957 777 L 960 781 C 958.242188 779.621094 957.460938 779.105469 957 777 M 427 998 L 429 998 L 429 960 L 430 960 C 430.3125 975 438.617188 988 442.238281 1002 C 443.914063 1008.542969 443 1016.28125 442.984375 1023 C 442.179688 1056 436.9375 1092.191406 425.316406 1123 C 420.496094 1135.773438 409.746094 1146.015625 406 1159 C 412.265625 1157 418.386719 1154.539063 425 1154 C 404.753906 1174.414063 391.507813 1204 386.261719 1232 C 383.667969 1246 384.421875 1260.226563 381.335938 1274 C 379.210938 1283.476563 374 1292 371 1301 C 390.933594 1294.636719 411.253906 1269.339844 424.574219 1254 C 429.824219 1248 436.421875 1242.160156 438 1234 C 421 1242.058594 408.226563 1258 391 1266 C 402 1241 436.996094 1230.0625 442 1201 C 435.667969 1205.554688 431.988281 1212.660156 426 1217.675781 C 418 1224.253906 408.273438 1228 400 1234 C 404.703125 1220.1875 414.421875 1208.652344 419.574219 1195 C 424.464844 1182.050781 424.996094 1168.132813 429.195313 1155 C 433 1142.8125 440.808594 1132.257813 444.566406 1120 C 453.871094 1089.621094 456.347656 1057.558594 457 1026 C 472.328125 1042.027344 485.25 1060.246094 501 1076 C 508.738281 1083.738281 516 1092 527 1095 L 524 1088 L 525 1088 C 537.398438 1112.027344 569 1127 595 1120 C 592.695313 1116.636719 588.851563 1116 585 1115 L 585 1114 C 595.332031 1116.390625 604.941406 1121.203125 615 1124.480469 C 620.757813 1126.359375 627 1127 632 1130.558594 C 640.847656 1137.089844 646.335938 1147.257813 654 1155 C 668.226563 1169.144531 689 1179.429688 709 1182 C 703.886719 1174.746094 696 1170.121094 690.761719 1163 C 676.800781 1144.320313 667.480469 1117.375 667 1094 L 668 1094 C 669.265625 1123.003906 693.328125 1155.007813 722 1161 C 717.242188 1148.632813 706.425781 1138 700.257813 1126 C 692.894531 1111.734375 691.417969 1098 687 1083 L 686 1083 C 686 1096.351563 687.296875 1108.808594 689 1122 L 688 1122 C 685.628906 1113.707031 680.964844 1106.261719 678.433594 1098 C 669.738281 1069.613281 666.488281 1039.257813 672 1010 C 666 1014 665.394531 1024.414063 664.25 1031 C 660.917969 1050.1875 658.601563 1068.609375 659 1088 L 658 1088 C 656.332031 1067.058594 651 1047.242188 651 1026 L 649 1026 C 647.660156 1036.367188 644.273438 1046.472656 644 1057 C 643.507813 1077.640625 648.425781 1097.640625 651 1118 L 650 1118 C 647.476563 1101.160156 632.773438 1088.75 632 1071 C 623 1078.808594 627.644531 1094 629 1104 L 628 1104 C 626 1093 619 1083.269531 617 1072 C 611.734375 1041.589844 619.707031 1015.558594 629 987 C 623.597656 990.042969 620.582031 997.613281 617.785156 1003 C 607.898438 1022.035156 606.828125 1039.230469 607 1060 L 606 1060 C 605.925781 1051 603.339844 1042.054688 603.339844 1033 C 603.339844 1010 609.777344 987.316406 618 966 C 611.699219 969.457031 608.167969 978.597656 605.425781 985 C 598 1002.355469 593 1021.03125 593 1040 L 592 1040 C 591.988281 1019.796875 590.765625 1001.128906 594.386719 981 C 595.5 974.8125 595 966.234375 599.511719 961.226563 C 603.753906 956.355469 610.460938 958.792969 616 957.65625 C 620.636719 956.703125 623.773438 953.191406 627 950 C 626 952.355469 625.425781 954.53125 625 957 C 628.9375 956 632.300781 953.726563 636 952 C 633.347656 955.476563 631.238281 958.789063 630 963 C 640.652344 961.160156 649.558594 953.378906 657 946 C 653.21875 951.386719 648 955.609375 646 962 C 649.535156 960.703125 652.675781 958.765625 656 957 C 650.355469 963.484375 643.648438 970.691406 641 979 C 657.191406 969.683594 668.960938 953.039063 682 940 C 679.855469 946.34375 677.363281 952.410156 676 959 C 680.433594 957 683.5625 953.4375 687 950 L 683 959 C 686.6875 957.503906 688.503906 955.6875 690 952 L 691 952 L 690 969 C 699.464844 963.617188 699 952.558594 699 943 L 700 943 C 702 950.765625 705.496094 970.460938 712 975 C 712.414063 972 713 969 714 966 L 715 966 C 715.402344 970.417969 716.53125 973.179688 720 976 C 720 968.511719 722 961.382813 723 954 L 724 954 C 725.640625 959.699219 728.953125 970.832031 734 974 C 734.480469 968.097656 736.675781 962.722656 738 957 L 739 957 C 740.179688 963.320313 740.996094 969.566406 741 976 C 749.429688 971.203125 748 956.40625 748 948 L 749 948 C 749.886719 954.539063 752 962.402344 758 966 C 758 962 757.957031 958.015625 757 954 L 758 954 C 759.546875 958.007813 760.507813 963.378906 764 966 C 762.914063 957.402344 761.179688 948.671875 761 940 L 762 940 C 765.183594 947 772 955.730469 779 959 L 777 951 L 778 951 C 781.863281 961.191406 792.359375 973 802 978 C 799.652344 970.011719 794 963.222656 790 956 L 798 960 C 795.816406 954.234375 791.632813 949.5625 789 944 C 796.960938 952 806.390625 963 818 965 C 817.226563 961.253906 816 957.640625 815 954 C 817 955.757813 818.582031 957 821 958 L 819 946 L 820 946 C 823.199219 955.414063 832.90625 958.414063 840 964.324219 C 845.996094 969.320313 850.546875 976.113281 858 979 C 856.242188 973.488281 851 969.46875 849.605469 964.089844 C 848.644531 960.753906 851.402344 956 851 952 L 852 952 C 854.289063 965 860.644531 976.691406 862.570313 990 C 865.320313 1009 863.394531 1028 863 1047 L 862 1047 C 862 1028.78125 856.597656 999.582031 841 988 C 845 1006 851 1022.242188 851.960938 1041 C 852.558594 1054.8125 848.28125 1068.296875 848 1082 L 847 1082 C 847 1076.480469 847.402344 1072 843 1068 C 840.289063 1079.363281 836.949219 1092.382813 836 1104 L 835 1104 C 835 1085.3125 832.835938 1066.667969 826.414063 1049 C 824.214844 1043 821.835938 1034.3125 816 1031 C 817.929688 1039.082031 818.421875 1047.730469 819 1056 C 821.449219 1085.421875 822.640625 1130 793 1147 C 814.328125 1119.027344 810 1068.691406 803.601563 1036 C 802 1028.195313 801.199219 1009.015625 795 1004 C 799 1025.589844 801.390625 1050.207031 798.714844 1072 C 796.824219 1087.367188 790.320313 1102.535156 790 1118 L 789 1118 C 789 1084.644531 792 1056.300781 774.851563 1026 C 771.167969 1019.546875 767.777344 1011.785156 762 1007 C 764.617188 1021.679688 776.332031 1032.507813 777.828125 1048 C 779.882813 1069.1875 769.433594 1089.09375 769 1110 L 768 1110 C 768 1093.722656 766.304688 1078 762.996094 1062 C 759 1043.089844 752.378906 1024.257813 743.753906 1007 C 742.308594 1004.113281 737.652344 991.207031 733.9375 991.207031 C 731 991.207031 728.785156 998 727.753906 1000 C 722.691406 1010.097656 717.921875 1020.273438 714.332031 1031 C 703.484375 1063.429688 699.179688 1098.394531 711.8125 1131 C 715.410156 1140.289063 719.960938 1152.792969 728 1159 C 723.75 1134.316406 711.277344 1114.289063 713 1088 C 714.3125 1070.253906 725.476563 1056.082031 728 1039 L 729 1039 C 728.238281 1056.742188 723.953125 1074.375 721.84375 1092 C 721 1099.027344 719 1108.175781 721 1115 L 722 1115 C 724.347656 1107.574219 726.363281 1098.773438 727 1091 L 728 1091 C 728 1110.660156 731 1133.527344 738 1152 L 739 1152 C 739 1129.597656 737 1107.363281 737 1085 L 738 1085 C 738 1095.226563 741.59375 1105.039063 743.601563 1115 C 744.507813 1119.503906 744.964844 1124.324219 749 1127 C 749 1092.738281 743.695313 1058.128906 741 1024 L 742 1024 C 742.953125 1036 747.777344 1047.402344 750.625 1059 C 754.25 1073.761719 756.296875 1089.832031 756.960938 1105 C 757.925781 1127.070313 751.679688 1144.238281 746 1165 C 753.1875 1161.574219 757.480469 1152.574219 761.574219 1146 C 774.222656 1125.683594 780.996094 1101 781 1077 L 782 1077 C 782 1094.117188 787.804688 1114.230469 784.328125 1131 C 781.683594 1143.761719 772.851563 1152.460938 768 1164 C 783 1164 794.847656 1156.140625 808 1150 C 804.515625 1153.476563 800.320313 1156.648438 798 1161 C 822.179688 1155.402344 836.320313 1135.230469 855 1121 C 848.828125 1130.335938 839 1138.476563 835 1149 C 856.820313 1142.714844 882.726563 1116.785156 889 1095 L 890 1095 C 884.664063 1114.511719 871.476563 1130.085938 863 1148 C 889.171875 1148 908.675781 1129.824219 924.726563 1111 C 950.355469 1081 972.414063 1047.308594 999.984375 1019 C 1006 1012.722656 1012.8125 998.78125 1020.183594 994.753906 C 1024.550781 992.363281 1028.265625 999.238281 1030.425781 1002 C 1038.253906 1012.019531 1046 1022.070313 1054 1032 C 1066.429688 1047.539063 1078.402344 1063.4375 1090.800781 1079 C 1097.816406 1087.808594 1106.402344 1096.164063 1111.957031 1106 C 1116.835938 1114.644531 1116.652344 1124.6875 1119.441406 1134 C 1122.949219 1145.730469 1129.492188 1156 1132 1168 L 1131 1168 C 1128.539063 1159.644531 1121.710938 1150.460938 1115 1145 C 1116.226563 1160.035156 1122 1175 1124 1190 L 1123 1190 C 1121.78125 1188 1121 1187.15625 1119 1186 C 1119.660156 1194.386719 1120 1202.566406 1120 1211 L 1119 1211 C 1118.363281 1207 1117.167969 1204.574219 1114 1202 C 1114.425781 1222.617188 1110.773438 1244.535156 1113.285156 1265 C 1115 1279.425781 1120.800781 1292.59375 1126 1306 L 1127 1306 C 1126.496094 1294.472656 1123.523438 1283.78125 1124 1272 C 1124.773438 1255.269531 1131.460938 1239.132813 1138 1224 C 1139.703125 1220.058594 1146.226563 1200 1151 1200.632813 C 1154.816406 1201.175781 1158.515625 1206.511719 1161 1209 C 1169.570313 1217.585938 1177.628906 1226.832031 1185.574219 1236 C 1202.84375 1256 1221.933594 1274.476563 1243 1290.375 C 1250.714844 1296.195313 1258 1303.136719 1267 1307 C 1264.570313 1293.367188 1252.453125 1281.050781 1244.71875 1270 C 1227.972656 1246.074219 1208.597656 1223.679688 1187.960938 1203.039063 C 1174.484375 1189.566406 1158.257813 1179.21875 1147.695313 1163 C 1125.460938 1129 1109.898438 1089.648438 1090 1054 C 1082.449219 1040.132813 1075 1026.09375 1067.742188 1012 C 1064.535156 1005.789063 1059 999 1057.628906 992 C 1056.203125 985 1065.855469 970.550781 1067.847656 963 C 1072.449219 945.523438 1072 926.679688 1068.914063 909 C 1062.667969 873.503906 1037 830.714844 1003 816 C 1005.914063 825.125 1013.898438 832.757813 1019.917969 840 C 1028.492188 850.3125 1036.175781 861 1042.191406 873 C 1055.527344 899.675781 1061.261719 929.300781 1059.960938 959 C 1059.519531 969.105469 1056.433594 979 1056 989 L 1055 989 C 1052.660156 981.605469 1046.851563 975.804688 1045.472656 968 C 1044 959.714844 1048.59375 951.277344 1048.960938 943 C 1049.597656 928.566406 1046 914.378906 1046 900 L 1044 900 C 1041.679688 929.414063 1028.613281 953.09375 1022 981 L 1021 981 C 1025 959.15625 1030 935.15625 1031 913 C 1026.988281 916.011719 1026.394531 922.386719 1024.976563 927 C 1021.476563 938.382813 1016.59375 950.179688 1015 962 L 1014 962 C 1014 955.460938 1014.863281 948.300781 1013 942 L 1012 942 C 1010.179688 965 994.285156 983.0625 991 1005 L 990 1005 C 990 992.328125 991.472656 980.660156 989 968 C 988 963.53125 987.820313 958 984 955 C 984 965 982.773438 974.199219 982 984 L 981 984 C 977 963.417969 975.917969 942 969.328125 922 C 968 918.394531 963.304688 902.738281 957.589844 904.753906 C 953.207031 906.296875 958.339844 919.207031 959 922 C 964.351563 940.171875 970.527344 957.371094 974 976 L 973 976 C 970 966.078125 958.617188 962.183594 956.304688 953 C 953.851563 943.265625 955.183594 933 953.386719 923 C 948.691406 897.140625 938.769531 871.511719 923.574219 850 C 917.191406 841 910.570313 829.476563 900 825 C 902.300781 832.21875 907.863281 837.773438 911.996094 844 C 918.890625 854.382813 925.195313 865.480469 929.988281 877 C 940.558594 902.398438 947.191406 929.449219 947.871094 957 C 948 968.332031 945 979.644531 945 991 L 944 991 C 938.421875 961 934.207031 934.183594 918.71875 907 C 913.683594 898.164063 907.53125 885.484375 898 881 C 905.984375 908.722656 924 932.460938 928 962 L 927 962 C 925.800781 957 923.605469 952.464844 921 948 L 920 948 C 922.761719 982.703125 934.679688 1016 926 1051 C 920.875 1072.410156 904 1089 898 1110 L 897 1110 C 909.820313 1063.125 933.453125 1010.183594 915 961 L 914 961 C 914 986.746094 911.464844 1012.660156 906.738281 1038 C 904.613281 1049.394531 900.546875 1060.527344 899 1072 L 898 1072 C 899.738281 1059.101563 899.449219 1045.738281 901.4375 1033 C 903.503906 1019.78125 908.554688 1007.402344 909.828125 994 C 912.59375 965 903.214844 924.398438 877 908 C 879.800781 917.515625 886.582031 925.683594 890.1875 935 C 896.550781 951.4375 898.996094 970.453125 899 988 L 898 988 C 893 970.164063 886.394531 952.742188 876.574219 937 C 872.339844 930.207031 867.4375 922.46875 860 919 C 869.171875 946 884.253906 969 888 998 L 887 998 C 884.691406 982.355469 874.992188 967.320313 867 954 C 857.558594 938.265625 848.847656 922.457031 840.757813 906 C 836.320313 897 832 879.074219 823 874 C 830.59375 897.339844 840.269531 920.464844 847 944 L 846 944 C 840.292969 926 827.300781 908.167969 817.601563 892 C 813.285156 884.808594 809.417969 875.460938 803 870 C 807.777344 890.160156 820.53125 908 826 928 L 825 928 C 820.582031 914.039063 808.4375 901.625 799.882813 890 C 795.722656 884.34375 792.441406 877.496094 787 873 C 791.722656 893.40625 804.464844 911.570313 812 931 C 809.332031 931.445313 810 934.480469 810 937 L 809 937 C 803.261719 925.757813 793.953125 916 787.398438 905 C 784.167969 899.617188 781.320313 891.476563 776 888 C 778 896.652344 781.800781 904.75 785 913 C 774.28125 902.191406 765 889.433594 758 876 L 757 876 C 757.652344 883.476563 761.320313 890.09375 764 897 C 756.945313 889.339844 750.652344 878.503906 741 874 C 741.675781 878.570313 743.34375 882.707031 745 887 C 739.769531 881.324219 732.503906 868.082031 724.914063 866 C 717.933594 863.800781 705.746094 881.699219 703 887 L 702 887 C 703.902344 882.363281 705.863281 878 707 873 C 695.972656 878.144531 688 891.214844 680 900 C 683.566406 891.429688 688.632813 883.683594 692 875 C 675.757813 886.472656 665.820313 908.558594 652 923 C 652.414063 920 653 917 654 914 C 652.339844 914.613281 651.515625 915.042969 650 916 C 655.527344 899.765625 669 884.765625 672 868 C 657.257813 880 640.53125 904.527344 633 922 L 632 922 C 637.53125 901.769531 651.234375 884.601563 656 864 C 649.863281 868.738281 645.6875 876.617188 641.34375 883 C 632.65625 895.765625 620.398438 910.039063 616 925 L 615 925 C 620 906.183594 630.597656 889.035156 635 870 C 630.921875 872.695313 629 878.722656 626.78125 883 C 622.378906 891.304688 617.308594 899.257813 611.972656 907 C 592.5 935.253906 570.53125 963.367188 568 999 C 566.796875 1018 572.523438 1035.464844 574 1054 L 573 1054 C 571.203125 1033.410156 558 1015.566406 560 994.015625 C 560.597656 988.019531 568 989.433594 568.453125 985 C 568.925781 979.445313 562.644531 976 563.5625 970 C 568.691406 936.765625 597.859375 910.734375 607 879 C 582 899.316406 574.644531 935 554 958 C 551.589844 949.308594 555.382813 936.742188 557.347656 928 C 562.8125 903.722656 573.273438 881.699219 580 858 C 572.945313 862 569.550781 873.777344 566.601563 881 C 557.167969 904.109375 554 927.375 552 952 L 551 952 C 549.800781 944 546.660156 936.324219 546 928 C 544.578125 906 548.859375 883 555.671875 862 C 559.652344 849.777344 563.941406 837.691406 569.308594 826 C 572.707031 818.597656 578 811.222656 579 803 L 578 803 C 556.789063 837.367188 538.839844 876 537 917 C 536 937.523438 543.292969 953.367188 546.75 973 C 549.335938 987.605469 547.726563 1003.070313 550.425781 1018 C 552.753906 1031 559 1042.394531 562 1055 L 561 1055 C 556.621094 1043 548.996094 1032.113281 544.425781 1020 C 534.640625 994.082031 530 966.636719 530 939 L 529 939 C 514.660156 972.765625 526.589844 1017.335938 542.78125 1048 C 547.792969 1057.492188 554.796875 1065.65625 560 1075 C 516.90625 1032 502.992188 971.261719 521 913 C 525.34375 899.050781 531.28125 885.796875 538.3125 873 C 541.816406 866.625 546.785156 861 549 854 C 533.324219 861.3125 524 885 517.71875 900 C 495 953.03125 506.386719 1004.488281 523.671875 1057 C 527.195313 1067.707031 533.90625 1077.257813 537 1088 C 524.28125 1075.246094 516.945313 1060.328125 508 1045 L 507 1045 C 508.261719 1060.460938 516.660156 1074.761719 524 1088 C 501.542969 1062.289063 475.644531 1038.078125 458.863281 1008 C 418 934.78125 441.527344 855 471 783 C 457.464844 789.464844 448.574219 817.679688 443.199219 831 C 428.761719 866.78125 422 906.464844 423 945 C 423.449219 962.6875 426.636719 980.347656 427 998 M 520 786 C 499 807 482.667969 831.320313 468 857 C 464.558594 863.027344 460.976563 869.421875 458.699219 876 C 458 877.664063 456.257813 882.542969 459.289063 883.078125 C 464.480469 884 471.566406 865.789063 473.71875 862 C 483.917969 844.058594 492.441406 824.269531 505.285156 808 C 509.632813 802.496094 521 793.621094 520 786 M 826 793 C 831.550781 812.269531 850.992188 824.449219 864.910156 837.425781 C 871.246094 843.332031 876 851 884 855 C 880.714844 836 860.96875 819.816406 848 807.003906 C 841.742188 800.820313 834.980469 794.351563 826 793 M 970 807 C 973.738281 818.734375 984.460938 828.320313 990.574219 839 C 1003 861 1013.757813 886 1017 911 L 1019 911 C 1019 899.460938 1019 888.378906 1017 877 L 1018 877 C 1020.191406 884.601563 1026.246094 896.667969 1033 901 C 1029.453125 874.675781 1012 850.578125 995.269531 831 C 987.730469 822.207031 980 813 970 807 M 454 871 L 456 871 C 458.960938 849.007813 477 829.75 478 808 C 471.984375 811.242188 468.566406 819 465.859375 825 C 459.335938 839.613281 455.261719 855.03125 454 871 M 1058 809 L 1057 810 L 1058 809 M 449 811 C 439.675781 815.347656 432.3125 826.089844 426 834 C 407.953125 856.636719 395.566406 882.222656 387.710938 910 C 385 919.066406 383.746094 928.628906 382.925781 938 C 382.550781 942.285156 381.773438 947.273438 387 948.792969 C 391.824219 950.183594 392 945.460938 392.804688 942 C 394.375 934 396 926 398 918 C 404 894.265625 411.203125 870.367188 423.425781 849 C 430.550781 836.542969 444.542969 824.214844 449 811 M 471 1007 L 473 1007 C 473 986 469.648438 965.066406 471 944 C 473.351563 911 485.453125 878.097656 507.289063 853 C 516.859375 842 528.515625 833.046875 541 825.605469 C 547.410156 821.78125 558 818.457031 562 812 C 504.648438 816.683594 463.382813 877.488281 461 931 C 459.882813 957.425781 468.890625 981.1875 471 1007 M 926 830 C 932.355469 846.523438 951.753906 859 962.371094 873 C 967 879.3125 971.539063 890.769531 978 895 C 977.464844 870 952.417969 832.308594 926 830 M 438 833 C 409.890625 872.246094 392.902344 935.410156 407 983 L 408 983 C 411.414063 971.453125 409.523438 957.113281 411.269531 945 C 414.800781 920.496094 420.878906 896.765625 427.710938 873 C 430.480469 863.347656 441.785156 842.289063 438 833 M 500 930 L 502 930 C 502.878906 909.582031 514.292969 891.09375 517 871 C 511.347656 874 509.941406 880.367188 507.808594 886 C 502.546875 900 500 915.1875 500 930 M 701.667969 887.667969 C 701.722656 887.722656 701.777344 888.777344 701.332031 888.332031 C 701.277344 888.277344 701.222656 887.222656 701.667969 887.667969 M 484 892 C 484.40625 894.09375 484.21875 894.019531 486 895 C 485.316406 893.421875 485.195313 893.222656 484 892 M 483 896 C 482.683594 911.347656 478.710938 926.628906 478 942 C 477 965.417969 481.738281 990.042969 486 1013 L 487 1013 C 487 989.535156 483 966.390625 482 943 C 481.34375 927.066406 484.675781 911.753906 485 896 L 483 896 M 765 898 L 764 899 L 765 898 M 680 900 L 679 901 L 680 900 M 785.667969 913.667969 C 785.722656 913.722656 785.777344 914.777344 785.332031 914.332031 C 785.277344 914.277344 785.222656 913.222656 785.667969 913.667969 M 631.667969 922.667969 C 631.722656 922.722656 631.777344 923.777344 631.332031 923.332031 C 631.277344 923.277344 631.222656 922.222656 631.667969 922.667969 M 647 922 C 644.855469 930 640.667969 936.429688 636 943 L 635 943 C 638 935.75 641.527344 927.71875 647 922 M 652 923 L 651 924 L 652 923 M 614.667969 925.667969 C 614.722656 925.722656 614.777344 926.777344 614.332031 926.332031 C 614.277344 926.277344 614.222656 925.222656 614.667969 925.667969 M 631 925 L 630 926 L 631 925 M 827 928 L 828 933 L 827 933 C 826.5625 931 826.378906 930 827 928 M 789 943 L 788 944 L 789 943 M 848 944 L 851 952 L 850 952 C 848.894531 949.277344 847.511719 947 848 944 M 658 945 L 657 946 L 658 945 M 628 949 L 627 950 L 628 949 M 688 949 L 687 950 L 688 949 M 638 950 C 637.453125 951.636719 637.636719 951.453125 636 952 C 636.546875 950.363281 636.363281 950.546875 638 950 M 777 950 L 776 951 L 777 950 M 815 953 L 814 954 L 815 953 M 790 955 L 789 956 L 790 955 M 958 962 C 966.308594 992.441406 969.859375 1019.160156 960 1050 L 959 1050 C 959.414063 1042 958.886719 1033.824219 957 1026 C 950.316406 1039.300781 944.488281 1051.519531 936 1064 L 935 1064 C 940.5 1040.230469 950.304688 1018.308594 954.246094 994 C 955.601563 985.648438 953.183594 968.355469 958 962 M 1013.667969 962.667969 C 1013.722656 962.722656 1013.777344 963.777344 1013.332031 963.332031 C 1013.277344 963.277344 1013.222656 962.222656 1013.667969 962.667969 M 929 963 L 929 966 L 928 966 C 928.25 964.546875 928.316406 964.246094 929 963 M 929.667969 967.667969 C 929.722656 967.722656 929.777344 968.777344 929.332031 968.332031 C 929.277344 968.277344 929.222656 967.222656 929.667969 967.667969 M 631 1064 L 633 1064 C 633 1044.589844 637.648438 1026.125 644.425781 1008 C 647.828125 999 654.3125 989.449219 656 980 C 624.441406 994.71875 630.433594 1036.613281 631 1064 M 818 982 C 821.425781 996.8125 829.226563 1010.277344 833 1025 C 836.179688 1036.605469 837.328125 1053.496094 845 1063 C 847.746094 1055.671875 846.902344 1048.601563 846 1041 C 843.734375 1020.390625 837.351563 993.1875 818 982 M 900 988 L 899 989 L 900 988 M 934 992 C 934 1003.726563 937 1015.210938 935.828125 1027 C 934.933594 1036 931 1044.292969 929 1053 L 928 1053 C 929.691406 1039.683594 931.992188 1026.40625 932.910156 1013 C 933.363281 1006.390625 931.417969 998.15625 934 992 M 889 999 L 889 1002 L 888 1002 C 888.25 1000.546875 888.316406 1000.246094 889 999 M 990 1005 L 990 1008 L 989 1008 C 989.25 1006.546875 989.316406 1006.246094 990 1005 M 700 1109 C 700 1089.742188 700.460938 1071.085938 703.273438 1052 C 704.984375 1040.375 708.988281 1028.574219 710 1017 C 704.359375 1020.421875 700.960938 1028.082031 698.425781 1034 C 691.304688 1050.640625 689.355469 1069.128906 691.871094 1087 C 692.8125 1093.703125 694 1105 700 1109 M 991 1054 L 996 1053 L 996 1054 C 987.734375 1058.117188 978.46875 1065.570313 973 1073 C 986.679688 1073 1010.90625 1067.355469 1019 1055 C 1015.265625 1055.03125 1011.695313 1055.53125 1008 1056 L 1008 1055 C 1014.367188 1053.160156 1026 1048.363281 1030 1043 C 1018.179688 1043 1009.734375 1046.53125 999 1051 L 999 1050 C 1005.894531 1046.722656 1016 1040.589844 1020 1034 C 1005.886719 1032.332031 995.492188 1041 991 1054 M 594 1040 L 594 1044 L 593 1044 C 593.175781 1042.316406 593.316406 1041.507813 594 1040 M 999 1051 C 997.777344 1052.195313 997.578125 1052.316406 996 1053 C 997.222656 1051.804688 997.421875 1051.683594 999 1051 M 575 1054 L 575 1058 L 574 1058 C 574.175781 1056.316406 574.316406 1055.507813 575 1054 M 563 1055 L 564 1059 L 563 1059 C 562.691406 1057.242188 562.59375 1056.660156 563 1055 M 1007 1056.332031 C 1007.773438 1056.332031 1007 1056.832031 1006.667969 1056.667969 L 1007 1056.332031 M 565 1060 L 564 1061 L 565 1060 M 1007 1071.46875 C 1004.59375 1072 992 1075.648438 995.175781 1080 C 997.210938 1083 1007 1080.046875 1010 1079.566406 C 1022.929688 1077.371094 1017.550781 1069.679688 1007 1071.46875 M 485 1081 C 480.664063 1075.472656 474 1072.640625 467 1073.046875 C 464.550781 1073.1875 458.386719 1074.566406 459.753906 1078.410156 C 461 1082.039063 481.238281 1081 485 1081 M 898 1073 L 897 1079 L 896 1079 C 896.355469 1076.660156 896.773438 1075.011719 898 1073 M 982 1097 C 997.820313 1096.671875 1026.191406 1094.210938 1033 1077 C 1019.839844 1078.699219 1006.953125 1083.058594 995 1088.746094 C 990.34375 1091 984.882813 1092.511719 982 1097 M 895.667969 1080.667969 C 895.722656 1080.722656 895.777344 1081.777344 895.332031 1081.332031 C 895.277344 1081.277344 895.222656 1080.222656 895.667969 1080.667969 M 894.667969 1083.667969 C 894.722656 1083.722656 894.777344 1084.777344 894.332031 1084.332031 C 894.277344 1084.277344 894.222656 1083.222656 894.667969 1083.667969 M 894 1086 L 893 1087 L 894 1086 M 484 1087 C 474.574219 1087 464.285156 1087.496094 457.527344 1095.183594 C 455.875 1097.066406 452.316406 1101.710938 454 1104.378906 C 456 1107.207031 460.296875 1103.65625 462 1102.40625 C 468.191406 1098 479.921875 1093.226563 484 1087 M 538 1088 L 537 1089 L 538 1088 M 667 1088 L 667 1094 L 666 1094 C 666 1091.746094 666 1090.050781 667 1088 M 892.667969 1088.667969 C 892.722656 1088.722656 892.777344 1089.777344 892.332031 1089.332031 C 892.277344 1089.277344 892.222656 1088.222656 892.667969 1088.667969 M 892 1091 L 891 1095 L 890 1095 C 890.5625 1093.246094 890.917969 1092.457031 892 1091 M 981 1103 C 988.441406 1115.210938 1016.859375 1110.765625 1027 1105 C 1017 1096.335938 992.960938 1101.480469 981 1103 M 629.667969 1104.667969 C 629.722656 1104.722656 629.777344 1105.777344 629.332031 1105.332031 C 629.277344 1105.277344 629.222656 1104.222656 629.667969 1104.667969 M 631 1107 L 630 1108 L 631 1107 M 897 1110 L 896 1114 L 895 1114 C 895.5625 1112.246094 895.917969 1111.457031 897 1110 M 977 1111 C 982.339844 1123.578125 997.417969 1128 1010 1128 C 1012.886719 1128.003906 1021 1129 1022.652344 1125.648438 C 1024 1122.585938 1014.675781 1120.773438 1013 1120.289063 C 1001 1117 989.269531 1112.585938 977 1111 M 581 1112.332031 C 581.773438 1112.332031 581 1112.832031 580.667969 1112.667969 L 581 1112.332031 M 584 1113.332031 C 584.773438 1113.332031 584 1113.832031 583.667969 1113.667969 L 584 1113.332031 M 463 1119 C 468 1119 472.949219 1119.359375 478 1120 C 474.667969 1114.660156 466.339844 1113 463 1119 M 895 1115 L 894 1116 L 895 1115 M 859 1117 C 857.671875 1118.753906 856.753906 1119.671875 855 1121 C 856.328125 1119.246094 857.246094 1118.328125 859 1117 M 689.667969 1122.667969 C 689.722656 1122.722656 689.777344 1123.777344 689.332031 1123.332031 C 689.277344 1123.277344 689.222656 1122.222656 689.667969 1122.667969 M 980 1129 C 984 1143.121094 999.617188 1152.375 1014 1150 C 1006.59375 1139.703125 992.230469 1131.832031 980 1129 M 444 1150 C 450.808594 1148.765625 454.871094 1144.183594 459 1139 C 460.28125 1137.570313 463.726563 1134.101563 461.914063 1132.042969 C 460 1130 455.652344 1132.660156 454 1133.804688 C 448.425781 1137.679688 444.996094 1143.363281 444 1150 M 455 1161 C 466.597656 1157.652344 476.792969 1148.269531 487 1142 C 474.730469 1132.703125 456 1148.488281 455 1161 M 812 1147 C 810.550781 1148.609375 809.949219 1149.0625 808 1150 L 808 1149 L 812 1147 M 467 1181 C 476.558594 1178.726563 485.546875 1166.742188 491 1159 C 476.921875 1155 469.664063 1169.484375 467 1181 M 578 1179 C 599.472656 1176.226563 620.347656 1171 642 1168.828125 C 645 1168.535156 660.738281 1169.257813 660.652344 1165.074219 C 660.527344 1158.722656 642.867188 1160 639 1160 C 621.382813 1160 589.328125 1163.753906 578 1179 M 529 1217 C 556.574219 1208.183594 583.527344 1197.824219 611 1188.667969 C 620 1185.644531 637.550781 1182.320313 643 1174 C 614 1174.078125 582.644531 1191 557 1202.691406 C 549.394531 1206.183594 533.359375 1209.792969 529 1217 M 943 1178 C 951.898438 1189.597656 983.925781 1199.53125 993 1183 C 976.765625 1180.613281 959.546875 1174.0625 943 1178 M 871 1181 C 876.746094 1188.0625 885.71875 1193.1875 893 1198.625 C 911.96875 1212.792969 931.992188 1225.507813 954 1234.394531 C 963.710938 1238.316406 979.660156 1243 989 1236 C 980 1231 969.445313 1228.613281 960 1224.574219 C 943.746094 1217.617188 927.808594 1209.65625 912 1201.753906 C 899.28125 1195.394531 885 1183.109375 871 1181 M 904 1182 C 907.40625 1189.242188 915.277344 1192.613281 922 1196.304688 C 937 1204.550781 951.953125 1212.371094 969 1215.386719 C 975.734375 1216.574219 982.503906 1216.082031 989 1214 C 990.527344 1213.476563 994.792969 1212.472656 994.792969 1210.289063 C 994.792969 1207.511719 975.8125 1205.078125 973 1204.371094 C 949.464844 1198.488281 927.324219 1188.570313 904 1182 M 493 1184 C 489.777344 1185.097656 472.398438 1195.605469 482 1199.652344 C 485.679688 1201.144531 492 1186.753906 493 1184 M 494 1238 C 536.355469 1230.136719 577 1229.742188 616 1208.140625 C 626.496094 1202.320313 642.65625 1196.429688 648 1185 C 611.21875 1197.519531 577 1215 539 1224.625 C 528.320313 1227.328125 517.6875 1230.199219 507 1233 C 502.667969 1234 496.800781 1234.304688 494 1238 M 836 1185 C 841.324219 1196.1875 852.390625 1203.5 861 1212.003906 C 886.253906 1237 927.246094 1276.195313 966 1269 C 959.734375 1259.433594 938.957031 1254.28125 929 1248.574219 C 907.203125 1236.074219 886.285156 1221.644531 866 1207 C 856.679688 1200.050781 846.953125 1188.632813 836 1185 M 768 1187 C 773.894531 1191.410156 782.308594 1192.246094 789 1195.308594 C 802.457031 1201.46875 815.503906 1209.140625 828 1217.054688 C 831 1219.054688 842.273438 1228.171875 845.929688 1223.242188 C 850.378906 1217.246094 834.644531 1208 831 1205.613281 C 811.726563 1193.710938 790.6875 1187 768 1187 M 716 1188 C 701.300781 1189.472656 689.246094 1202.261719 681.699219 1214 C 679.960938 1216.703125 673.34375 1226.035156 677.746094 1229 C 681.425781 1231.226563 686.367188 1224.246094 688.195313 1222 C 696.597656 1211.664063 710.496094 1199.804688 716 1188 M 742 1193 C 736.410156 1196.417969 734.3125 1204.058594 732.332031 1210 C 727.222656 1225.332031 726 1241 726 1257 C 726 1262 723.554688 1278 731 1278.453125 C 738.523438 1279.050781 735.765625 1265.058594 735.285156 1261 C 732.519531 1237.570313 740.183594 1215.804688 742 1193 M 495 1265 L 495 1267 C 541.5 1267 587.570313 1250.183594 627 1226.398438 C 641 1218 657.351563 1209.695313 667 1196 C 650.476563 1199 636.847656 1212.082031 622 1219.109375 C 582.503906 1237.804688 538.828125 1259.339844 495 1265 M 677 1261 C 692.886719 1255.09375 696.550781 1233.296875 704.8125 1220 C 708.996094 1213.269531 715 1207.429688 718 1200 C 696.273438 1208.238281 678.835938 1238.527344 677 1261 M 645 1257 C 659.601563 1253.308594 662.464844 1237 667.863281 1225 C 670.632813 1219 674.394531 1214 675 1207 C 660 1215.535156 646.382813 1240.058594 645 1257 M 761 1207 C 761 1229 764.378906 1250.304688 771.945313 1271 C 773.507813 1275.265625 777.738281 1291.660156 784.773438 1288.671875 C 791.542969 1285.796875 784.613281 1274.050781 782.769531 1270 C 776.644531 1256.5625 771.4375 1242.214844 767.429688 1228 C 765.5 1221.160156 765.84375 1212.496094 761 1207 M 492 1215 C 498.289063 1214.511719 494.742188 1210.726563 492 1215 M 779 1215 C 782 1224.757813 789.820313 1233.734375 795.710938 1242 C 810.628906 1263 827.296875 1283 847 1299.5625 C 854 1305.472656 862.710938 1312.125 872 1313.675781 C 874 1314.027344 880.402344 1315 881.652344 1312.441406 C 882.75 1310.261719 877.285156 1307.53125 876 1306.667969 C 869 1302 862.398438 1297 856 1291.5625 C 836.933594 1275.496094 820.601563 1256.675781 803.410156 1238.714844 C 796.167969 1231.148438 788.558594 1219.457031 779 1215 M 820 1233 C 822.648438 1242.179688 829.535156 1249.667969 835.398438 1257 C 850.867188 1276.335938 874.75 1305.066406 901 1309 C 893.972656 1297 880.292969 1288.144531 870 1278.828125 C 859.5625 1269.386719 849.175781 1259.6875 839 1250 C 832.953125 1244.179688 827.503906 1237 820 1233 M 850 1240 C 856.816406 1255.800781 873.910156 1267.5625 889 1274.738281 C 892.320313 1276.316406 904 1281.089844 906.824219 1276.4375 C 909.226563 1272.371094 897.433594 1267.496094 895 1266.140625 C 880.871094 1258.253906 865.332031 1244.511719 850 1240 M 635 1243 C 621.273438 1257.015625 608.871094 1272.433594 595.714844 1287 C 589.910156 1293.40625 581.234375 1297.671875 578 1306 C 600.429688 1302.640625 615.359375 1282.097656 626 1264 C 629.265625 1258.472656 637.328125 1249.734375 635 1243 M 587 1259 C 566 1265 544.46875 1274 524 1281.574219 C 520 1283.046875 504.207031 1287 507.328125 1293.683594 C 510.226563 1300 524 1292.785156 528 1291.199219 C 542.527344 1285.390625 556.195313 1278.488281 570 1271.167969 C 576 1268 583.78125 1265.550781 587 1259 M 391 1266 L 390 1267 L 391 1266 M 794 1279 C 801.554688 1295 816.933594 1307.109375 831 1317.140625 C 834 1319.328125 844.703125 1327.734375 847.863281 1321.679688 C 850.550781 1316.53125 841.175781 1311.167969 838 1309 C 825.257813 1299.535156 809 1283.433594 794 1279 M 645.265625 1286.085938 C 640 1289 636.421875 1297.6875 631.996094 1302 C 630 1303.75 626.328125 1306 625.347656 1308.285156 C 623.609375 1312.621094 634.46875 1310.671875 636 1310 C 641.992188 1306.664063 645.617188 1300.238281 647.640625 1294 C 648.277344 1292.042969 650.265625 1283.320313 645.265625 1286.085938 M 666 1290 C 655.5625 1295.132813 650.554688 1317.402344 647.578125 1328 C 646.789063 1330.816406 643.511719 1339.648438 647.527344 1341.339844 C 652.914063 1343.605469 655.234375 1334.332031 656 1331 C 659.710938 1317.414063 662.199219 1303.515625 666 1290 M 684 1294 C 676.628906 1304.816406 673.894531 1321.296875 671.210938 1334 C 670.546875 1337.140625 667.816406 1347 673 1347.535156 C 678.640625 1348.183594 679.472656 1339.707031 680 1336 C 681.664063 1324.28125 688.726563 1305.265625 684 1294 M 792 1312 C 793.261719 1327.441406 799 1349 816 1353 C 813.910156 1341 802.90625 1318.164063 792 1312 M 777 1315 C 777.207031 1325.019531 777.96875 1337.277344 783.480469 1346 C 784.765625 1348 790.933594 1355.105469 793.867188 1352 C 795.71875 1350 792.199219 1344.003906 791.398438 1342 C 788.210938 1334.023438 784.828125 1319.324219 777 1315 M 753 1323 C 753 1331.417969 752.921875 1339.273438 756.808594 1347 C 757.914063 1349.195313 760.4375 1354.601563 763.722656 1353.539063 C 767 1352.429688 765.652344 1346.449219 765.246094 1344 C 763.816406 1335.410156 760.761719 1327.585938 753 1323 M 739 1334.175781 C 732.207031 1337.019531 732.894531 1350.105469 733 1356 C 733 1358.761719 733.519531 1364.476563 737.832031 1362.671875 C 744.734375 1359.78125 744.171875 1347 743.984375 1341 C 743.898438 1338.3125 743.265625 1332.433594 739 1334.175781 "/>
</g>
</svg>
