<?xml version="1.0" encoding="UTF-8"?>
<svg xmlns="http://www.w3.org/2000/svg" xmlns:xlink="http://www.w3.org/1999/xlink" width="1500pt" height="1500pt" viewBox="0 0 1500 1500" version="1.1">
<g id="surface1">
<path style=" stroke:none;fill-rule:nonzero;fill:rgb(0%,0%,0%);fill-opacity:1;" d="M 302 419 C 289.726563 413.269531 278.304688 406.238281 265 403 C 233 395 201.246094 405.0625 172 417.578125 C 159.707031 423 138 429.171875 132 442 C 149 436.164063 166.433594 424.15625 185 424 C 179.683594 430.777344 170.246094 433.140625 163 437.453125 C 153.199219 443.28125 144.835938 450.671875 137 459 C 119.976563 477.402344 108.5625 502 106.171875 527 C 105 538.179688 107.75 550.003906 106 561 C 111.175781 557.457031 111.679688 547.785156 113 542 C 116.371094 529.023438 121 517.542969 127.859375 506 C 148.671875 470.617188 185 442.773438 224 430.34375 C 247.898438 422.71875 274.582031 425.242188 298 433.34375 C 301.804688 434.660156 324.242188 441.332031 320.167969 447.578125 C 316.96875 452.480469 300 448.28125 295 448.039063 C 271.988281 447 248.480469 450.421875 226 455.210938 C 205.992188 459.472656 186 466.386719 170 479.464844 C 135.820313 507.371094 119.847656 559.015625 118 602 C 127 594.027344 130 571.441406 134.425781 560 C 145.84375 530.003906 161.601563 495.46875 191 479.3125 C 224.453125 461 264.929688 465.535156 301 472.261719 C 314 474.691406 338 483.128906 346.582031 468 C 351 460.015625 347.90625 450 344.796875 442 C 337.246094 422.789063 326 405 318 386 C 308.777344 364.488281 302 342.515625 301 319 C 299 274.148438 317 231 323 187 C 326.34375 164 326.980469 118 360 119.042969 C 381.988281 119.742188 405.207031 128.773438 425 137.695313 C 461.804688 154.285156 493.625 179.625 522 208 C 544.859375 231 565 255.425781 576.574219 286 C 589 319.4375 578.25 358.144531 596.605469 389 C 600.175781 395.003906 604 404.1875 610 408 C 611.957031 383.207031 607.828125 358.425781 603.425781 334 C 595.246094 288.667969 583.320313 244.027344 554.574219 207 C 526.5625 171 488.777344 144.652344 450 121.398438 C 423.820313 105.699219 395 91.71875 365 85.804688 C 353.175781 83.484375 339.664063 80.808594 328 85.09375 C 316.710938 89.242188 310.855469 99.820313 305.753906 110 C 300 121.476563 294.425781 133.042969 293.171875 146 C 291.914063 159 294.804688 172 293.910156 185 C 291.207031 224.46875 273.800781 261.402344 271 301 C 268.175781 343.578125 282.558594 382.046875 302 419 M 890 408 C 895.417969 404.804688 897.496094 398.226563 900.605469 393 C 912.289063 373.355469 912 360 914.171875 338 C 917.355469 304.507813 926.210938 273.789063 945.722656 246 C 965.253906 218.175781 990.3125 192.75 1018 173 C 1047.9375 151.644531 1079.242188 133.5625 1115 124.117188 C 1126.328125 121.121094 1141.492188 115.546875 1153 120.53125 C 1173.742188 129.523438 1172.859375 160.359375 1175.921875 179 C 1184.957031 234.070313 1209.675781 296.175781 1195.371094 352 C 1187.851563 381.351563 1171.707031 407.648438 1159.230469 435 C 1154.617188 445.117188 1147.238281 460.742188 1155.558594 471 C 1164.996094 482.410156 1185 475.484375 1197 473.003906 C 1227.648438 466.65625 1261.597656 461.652344 1292 471.671875 C 1335 486 1354.738281 529.65625 1369.574219 569 C 1373.6875 580 1375.484375 591.640625 1381 602 L 1382 602 C 1382 539.339844 1351.875 478 1289 458.722656 C 1262.253906 450.578125 1233.863281 447.671875 1206 448.003906 C 1201.714844 448.054688 1180.207031 453.320313 1180.207031 446 C 1180.207031 439.367188 1195.289063 436.238281 1200 434.667969 C 1222.414063 427.195313 1245.570313 423.230469 1269 428.210938 C 1311.726563 437.296875 1348.28125 469.257813 1371.65625 505 C 1382 521 1391.601563 540.6875 1392 560 L 1394 560 C 1395.738281 519.546875 1388.652344 479.410156 1356.984375 451 C 1347.9375 442.683594 1337.855469 436.675781 1327 431.246094 C 1325.566406 430.53125 1316.6875 427.132813 1318.207031 424.671875 C 1319.742188 422.183594 1328.921875 426.070313 1331 426.746094 C 1343 430.675781 1354.3125 439.101563 1367 441 L 1367 440 C 1333.5625 419.535156 1292.59375 397.289063 1252 401.171875 C 1232.855469 403 1216.726563 410.097656 1200 419 C 1213.347656 387 1228.402344 357.613281 1229.960938 322 C 1232 274 1211.679688 230.210938 1207.171875 183 C 1205.988281 170.640625 1209 158.246094 1207.828125 146 C 1206.5 132.269531 1200.570313 120.027344 1194.21875 108 C 1189.46875 99 1183.828125 89.492188 1174 85.476563 C 1161.523438 80.375 1146.652344 83.503906 1134 86.347656 C 1103.355469 93.246094 1074.589844 106.339844 1048 123 C 1010.890625 146.132813 974.996094 171.515625 947.449219 206 C 902.683594 262.042969 890 338.171875 890 408 M 1133 423 C 1122.246094 429.214844 1114.4375 439.546875 1104 446.300781 C 1093.753906 453 1082 456.269531 1071 461.308594 C 1057.613281 467.4375 1044.992188 475.265625 1031 480 C 1031 463.117188 1029.386719 445.414063 1034 429 C 1027.382813 431 1023.285156 438.394531 1019.8125 444 C 1009.539063 460.574219 1006.511719 481.828125 1005 501 L 1004 501 C 1003.660156 460 995.558594 419.503906 1016.308594 381 C 1022 370.160156 1030.289063 363.160156 1040 356 C 1047.335938 350.367188 1056.257813 345.230469 1059 336 C 1045.558594 337.808594 1032.695313 343.777344 1022 352 C 1022.601563 338.039063 1029 324.546875 1034.695313 312 C 1047 284.382813 1062.808594 258.628906 1081.804688 235 C 1091.617188 222.792969 1110 208.769531 1115 194 C 1094.394531 202.578125 1077.210938 219.007813 1061 234 C 1016.476563 275 987.523438 321.011719 974 380 L 973 380 C 973.238281 351 982.574219 321.332031 996.308594 296 C 1002.429688 284.714844 1014.175781 274 1018 262 C 1009.605469 264.679688 1003.175781 272.300781 997.808594 279 C 984 296.136719 976.316406 316 968 336 L 967 336 C 967 268 1012.558594 205.382813 1068 169.691406 C 1084.992188 158.753906 1104.476563 150.03125 1125 150 C 1131.988281 150 1140.484375 149.3125 1145.566406 155.214844 C 1149.429688 159.699219 1148 167.507813 1148 173 C 1148 185.832031 1148.984375 198.328125 1151 211 C 1160 265.632813 1185.800781 326.046875 1150.652344 377 C 1131.414063 405 1089.773438 412.085938 1076 444 C 1086 440.148438 1094.484375 431.359375 1104 426.003906 C 1121.796875 416 1139.886719 409 1156 396 C 1151.417969 412.140625 1139.316406 423 1133 438 C 1152.855469 430.320313 1164.445313 403.570313 1171.320313 385 C 1179.574219 362.691406 1184.546875 338 1182.910156 314 C 1180.378906 277.046875 1167.429688 242.367188 1161.589844 206 C 1158.34375 185.796875 1157.34375 165.320313 1155 145 C 1154.222656 136.210938 1152.710938 126.292969 1142 125.199219 C 1113 122.246094 1078.710938 142.546875 1055 156.601563 C 1037.386719 167.046875 1019.957031 178.683594 1006.171875 194 C 961.441406 243.695313 944.984375 320.136719 956.25 385 C 962 418.789063 975.699219 450.664063 989 482 C 995.734375 497.34375 1001 514.523438 1009.339844 529 C 1012 534 1016 538 1020 542 C 1023.753906 545.765625 1027.507813 549.558594 1032 552.449219 C 1050.453125 564.339844 1066.941406 550.496094 1085 546 C 1092.855469 544 1099 544.488281 1107 545.570313 C 1109 546 1113 546.605469 1113.574219 543.683594 C 1115.390625 534 1096 526.519531 1089 525.324219 C 1067.386719 521.722656 1043.636719 546.046875 1028.800781 519 C 1026.882813 515.503906 1024.714844 511.117188 1025.269531 507.003906 C 1027.296875 492.007813 1038.929688 511.644531 1044.609375 507.378906 C 1048.671875 504.324219 1049.6875 497.367188 1051.785156 493 C 1055 486.082031 1060.25 480.21875 1066 475.183594 C 1086 457.628906 1123.78125 452 1133 423 M 368 438 C 361 423.367188 349.582031 411.804688 345 396 C 363.757813 407.523438 383 417.300781 402 428.335938 C 409.84375 433 415.777344 441.328125 425 443 C 408.757813 414.492188 373.773438 405.765625 353.464844 381 C 314.851563 334 337.640625 270.796875 348.199219 218 C 351 203.5 353 188.789063 353 174 C 353 168 351.234375 159 356 154.277344 C 361.414063 149.300781 369.339844 150 376 150 C 396.351563 150.03125 416 159.359375 433 170.054688 C 489.964844 206.128906 532.578125 269.171875 534 338 L 533 338 C 522.734375 313.3125 511.253906 270.605469 482 262 C 487.511719 275.234375 498.210938 285.476563 505 298 C 518.835938 322.753906 527 351.753906 527 380 L 526 380 C 525.875 364.75 519.8125 349 514.199219 335 C 497.242188 292.742188 467.339844 256.664063 433 227.269531 C 417.804688 214.265625 403.390625 200.320313 384 194 C 391.847656 209.207031 407.796875 220.777344 418.539063 234 C 444.722656 266.21875 473.550781 309.8125 479 352 C 470.941406 346.667969 462.335938 341.1875 453 338.4375 C 450.707031 337.765625 444.773438 335.695313 443.175781 338.605469 C 441 342.269531 448.730469 347.527344 451 349.335938 C 461.855469 358 474 365.148438 481.898438 377 C 506.675781 415 497 460.207031 497 502 L 496 502 C 496 479 491.539063 439.390625 467 429 C 468.53125 441.113281 468.261719 453 469 465 C 469.316406 468.292969 471.746094 475.539063 468.398438 478 C 462.890625 482 446.921875 469.800781 442 467.257813 C 427.914063 460 412.289063 455.660156 399 447 C 388.367188 440 380.292969 428.828125 369 423 C 378.285156 452.078125 415.675781 457.699219 435.996094 475.300781 C 441.847656 480.367188 446.574219 487.09375 450 494 C 451.996094 498 452.964844 503.648438 456.394531 506.628906 C 462.457031 512 471.253906 494.554688 475.257813 504.0625 C 480.296875 516.03125 464.921875 530.011719 455 533 C 445.4375 535.792969 436.832031 530.210938 428 527.359375 C 415.589844 523.351563 397.851563 526.019531 389.433594 537.039063 C 379.632813 550 406.699219 544 413 545.289063 C 420.734375 547 427.40625 552 435 554.230469 C 449.269531 558.507813 463.371094 553.644531 476 547 C 455.203125 567 429.355469 581 408 600.171875 C 390.539063 616 377.570313 635.226563 366.785156 656 C 323.726563 739 353.949219 825 359.910156 912 C 362 943.554688 356.898438 977.472656 349 1008 C 357.707031 1002.246094 360.714844 980.742188 362.789063 971 C 367.167969 950.441406 370 929 370.960938 908 C 371.636719 892.566406 370 877.300781 373 862 L 374 862 C 380.921875 892.199219 383.351563 923.214844 378.574219 954 C 375.40625 974.445313 366 994.195313 366 1015 L 367 1015 C 377.195313 988 389.339844 959.238281 395.574219 931 C 407.917969 875.128906 410.914063 818.832031 432.449219 765 C 441.167969 743.203125 452.496094 722.582031 466.886719 704 C 473.441406 695.535156 482.289063 689.128906 488 680 C 467.875 685.503906 440.167969 706.390625 436 728 L 435 728 C 438.753906 700.117188 455.484375 673.175781 477 655.464844 C 484.523438 649.269531 499.550781 645.261719 505 638 C 476.410156 641.691406 454.386719 662.210938 439.8125 686 C 415.171875 726.21875 405.773438 776 399 822 L 398 822 C 392.65625 790.574219 387.625 761.09375 393.425781 729 C 404.371094 668.40625 457.335938 607.769531 519 596.261719 C 540.476563 592.253906 563.808594 592.574219 585 598.152344 C 596.683594 601.230469 608.257813 608.238281 620 610 C 615.546875 600.527344 603.292969 595.589844 594 592.0625 C 569 582.589844 542.410156 581 516 581 L 516 580 C 529.359375 579 541.332031 574 555 574.003906 C 567 574.148438 578.949219 579.324219 591 578 C 577.292969 568.789063 554.371094 559.417969 538 557 L 538 556 C 573.4375 556.003906 606.21875 570.230469 641 573 L 641 572 C 621.421875 562.722656 601.308594 555 581 547.320313 C 569.804688 543.175781 558.277344 537.691406 546 539.289063 C 517.238281 543.035156 504 572.542969 484 589.5625 C 464.714844 606 442.582031 618.660156 425 637 C 394.355469 669.078125 374.386719 711.75 370.171875 756 C 368.617188 772.269531 371.867188 787.816406 372 804 L 371 804 C 370.898438 792 367.566406 780.050781 367 768 C 366 745.628906 368.71875 722.765625 373.882813 701 C 382.882813 663.078125 402.601563 629.074219 432 603.285156 C 443.238281 593.429688 456.351563 587.339844 468 578.320313 C 478.851563 570 485.210938 557.171875 496 548.667969 C 511.683594 536.3125 530.902344 530 548 520 L 548 519 C 544.179688 519.175781 540.707031 520.152344 537 521 L 537 520 C 549.710938 516 559.390625 504.75 572 500 C 594.417969 491.316406 620.90625 495.191406 642 505.808594 C 649.191406 509.429688 654.71875 515.753906 662 519 C 643.492188 474.785156 577.933594 467.808594 541 490.816406 C 518.851563 504.613281 503.515625 527.285156 482 542 C 501 522.574219 507.507813 491.707031 517.398438 467 C 527.742188 441.160156 538.605469 415.550781 543.574219 388 C 555.179688 323.65625 540.457031 250.117188 498.574219 199 C 474.230469 169.285156 435.632813 147.617188 400 134.191406 C 388.664063 130 370 122.207031 358 127.226563 C 338.234375 135.496094 344 160.453125 342.910156 177 C 342.25 186.652344 340.527344 196.460938 338.917969 206 C 333.210938 240 321.4375 272.703125 318.171875 307 C 315.609375 334 320.65625 361 330 386 C 336.777344 404 347.746094 432 368 438 M 652 140 C 618.988281 174.515625 596.808594 233.378906 600 281 C 601.296875 298.5 608.460938 315.738281 611.574219 333 C 614.175781 347.425781 612.914063 364.183594 617 378 L 618 378 C 621 354.230469 618.875 334.570313 617 311 L 618 311 C 619.675781 323.441406 623.890625 335.519531 625.726563 348 C 629 371.011719 628.703125 394.128906 624.390625 417 C 621.519531 432.210938 612.996094 444.382813 609 459 C 635.871094 456.640625 648.9375 424.371094 649.960938 401 C 652.480469 343.476563 616.472656 291.433594 624.425781 233 C 627.476563 210.597656 632.726563 189 641.199219 168 C 644 161.003906 653.996094 147.277344 652 140 M 847 140 C 848.550781 155.476563 860 169.519531 865.308594 184 C 874.617188 210.15625 877.660156 237.394531 876.984375 265 C 875.820313 312.539063 847.929688 356 850 404 C 851 429.246094 860.894531 463 892 459 C 888.410156 449.746094 882.789063 441.488281 879.746094 432 C 872 408.097656 870.800781 380.777344 873.171875 356 C 874.699219 340 881.707031 324.832031 883 309 L 884 309 C 882.449219 328.625 873 358.753906 884 377 C 887.355469 365.648438 886.371094 352 888.609375 340 C 892.976563 317 900.488281 293.730469 900.945313 270 C 901.507813 241 890 211.5625 877.246094 186 C 869.691406 171 861 150 847 140 M 959 455 C 947 405.796875 937.792969 348.191406 948.660156 298 C 953.355469 276.328125 965.996094 258.703125 972 238 C 958.273438 244.394531 947.785156 262 941.246094 275 C 921.3125 315 922 364.050781 934.71875 406 C 938.808594 419.578125 945.835938 447.777344 959 455 M 529 239 C 534.28125 257.332031 546.308594 273 550.574219 292 C 557.605469 323.371094 554.175781 354.417969 551.171875 386 C 548.90625 409.753906 547 431.714844 541 455 C 553.867188 448.0625 560.867188 422.199219 564.972656 409 C 578.304688 366.152344 578.574219 315.757813 558.246094 275 C 552.269531 263.015625 542.433594 243.566406 529 239 M 1047 262 C 1040.453125 282.683594 1024.609375 301.4375 1016.449219 322 C 1005.226563 350.289063 1002 380.023438 994 409 L 993 409 C 984 371.746094 1005 324.191406 1023.800781 293 C 1030 282.402344 1036.902344 269.433594 1047 262 M 456 263 C 488 305.621094 512.324219 355.1875 508 410 L 507 410 C 499.589844 374.101563 491 337.570313 476 304 C 471.890625 294.464844 467 285 461.574219 276 C 459.1875 272.164063 454.75 267.707031 456 263 M 617 307 L 617 311 L 616 311 C 616.175781 309.316406 616.316406 308.507813 617 307 M 583 378 C 586.617188 393.621094 593.660156 407.472656 593.984375 424 C 594.25 437.558594 588.722656 450.660156 587 464 C 591.851563 463.386719 598.808594 463.449219 602.347656 459.582031 C 606.824219 454.6875 606 445.136719 605.996094 439 C 605.777344 420.59375 602 387 583 378 M 914 462 C 905.214844 430.808594 910.808594 408.351563 918 378 C 910.765625 380.824219 908 387.394531 904.757813 394 C 897.726563 408.296875 892.386719 426 894.285156 442 C 894.894531 447.175781 894 456.5625 898.433594 460.257813 C 902 463.375 909.503906 462 914 462 M 582 396 C 581.941406 417.164063 577.703125 447.789063 558 460.003906 C 554 462.445313 548.644531 464.0625 544 463.671875 C 541.714844 463.480469 537 461.402344 535 463.117188 C 532.457031 465.335938 534.964844 483 537 485.378906 C 539.171875 488 542.953125 485.261719 545 484 C 551.847656 479.695313 560.847656 476 566.816406 470.609375 C 579.878906 459 583.992188 432.386719 585 416 C 585.535156 409.316406 586.4375 401.578125 582 396 M 917 396 C 912.632813 419.503906 916.519531 459.589844 938 474.777344 C 941.851563 477.492188 958.578125 490.476563 962.4375 487.339844 C 965.484375 485 968.355469 467 965.933594 463.757813 C 963.386719 460.441406 954.703125 464 951 463.148438 C 942.730469 461.523438 935.910156 454.511719 931 448 C 925 439.710938 921.191406 429.222656 920.171875 419 C 919.410156 411.40625 921.699219 402.597656 917 396 M 303 419 L 302 420 L 303 419 M 1200 419 L 1199 420 L 1200 419 M 367 530 C 365.859375 522.273438 358.402344 512.824219 361.660156 505.015625 C 367.261719 491.597656 383.394531 486 383.871094 469 C 384 459.183594 372.386719 440.082031 360 446.269531 C 352 450.339844 362.878906 463.605469 359.804688 470 C 356 477.648438 345.765625 479.269531 340.789063 486.015625 C 324.933594 507.511719 350.445313 521.191406 367 530 M 1133 530 C 1150.96875 521.609375 1176.808594 508.355469 1160 486.015625 C 1154.96875 479.199219 1144.386719 477.53125 1140.613281 470 C 1137.453125 463.625 1149 449.496094 1140.773438 445.746094 C 1127.925781 440 1115.628906 459.410156 1116.210938 470 C 1117 486.820313 1135 492.191406 1138.9375 506 C 1141 513.707031 1134.277344 522.574219 1133 530 M 727 548 L 728 548 C 727.171875 538.53125 722 529.652344 718.425781 521 C 708.925781 498.351563 698.890625 463.367188 669 462 L 669 461 C 716.886719 463.058594 748.691406 513.222656 738 558 C 743.738281 554.210938 744.660156 544.359375 745.570313 538 C 747.5625 524.109375 745.554688 509.707031 739.691406 497 C 735.464844 488 728.820313 479.789063 726 470 C 732.542969 475 738.203125 481 742.539063 488 C 744.261719 490.789063 746.292969 496.574219 750 497.078125 C 753.835938 497.578125 755.84375 492.582031 757.308594 490 C 762.335938 481.144531 769.421875 474.621094 777 468 C 767 493.246094 751 509.800781 755.589844 539 C 756.492188 544.773438 757 555.3125 762 559 C 753.4375 513 783.347656 462.046875 834 461 L 834 462 C 803 464.703125 792.429688 493.277344 783.921875 518 C 781 526.371094 776.304688 534.15625 775 543 C 781.917969 537.269531 786.167969 527.476563 791 520 C 798.824219 508.214844 807.90625 497.046875 819 488.285156 C 835.867188 475 860 474 876 461 C 848.984375 445.292969 804.960938 445.195313 776 455.003906 C 770.3125 457 764.652344 459.457031 760 463.328125 C 757.445313 465.460938 754.480469 470.394531 750.949219 470.824219 C 746.230469 471.398438 736.882813 460.117188 732 457.785156 C 719 451.605469 702.234375 449.363281 688 449.015625 C 671.273438 448.605469 654.171875 450 638 454.429688 C 635.464844 455.144531 623.207031 457.644531 623.207031 461 C 623.207031 463.351563 630.285156 465 632 465.574219 C 641.691406 469.199219 651.496094 472.285156 661 476.425781 C 692.480469 490.132813 709.808594 520.015625 727 548 M 726 469 L 725 470 L 726 469 M 428 474 C 432.285156 485.777344 422.460938 487.082031 414 492 C 426.8125 497.363281 446.4375 481.296875 428 474 M 1089 493 C 1083.546875 485.738281 1070 488 1073 475 C 1066.851563 478.03125 1064.261719 485.691406 1071 490 C 1076.3125 493.175781 1083 493 1089 493 M 840 519 C 849.507813 514.148438 856.855469 506.5625 867 502.453125 C 902.929688 488 938.367188 495.554688 966 522 C 961.691406 520.621094 957.523438 519.371094 953 519 L 953 520 C 966.453125 529 982.394531 533 996 542.003906 C 1011 552 1018.691406 567.203125 1032 578.53125 C 1043 588 1057.648438 592.433594 1069 602.289063 C 1102.554688 631.429688 1122.75 671.605469 1130.574219 715 C 1134.382813 736.109375 1135.371094 757.671875 1133.910156 779 C 1133.179688 789.695313 1130.222656 800.300781 1130 811 L 1129 811 C 1129 790.097656 1133.542969 770 1130.71875 749 C 1124.359375 701.804688 1099.636719 658.339844 1065 626.089844 C 1051 613.179688 1034.820313 603.476563 1020 591.789063 C 1001.730469 577.382813 990.210938 553.828125 969 543.371094 C 950.355469 534.183594 932.867188 542.390625 915 549 C 896.210938 556 875.820313 562 859 573 L 859 574 C 893.761719 569.320313 926.378906 556.003906 962 556 L 962 557 C 944.582031 559.609375 924.925781 570.550781 909 578 L 909 579 C 924.460938 579 939.566406 573.710938 955 574.015625 C 965.433594 574.222656 974.382813 577.558594 984 581 L 984 582 C 958.789063 577.320313 929.273438 583.472656 906 593.425781 C 897 597.265625 885.835938 602.078125 881 611 C 891.699219 609.398438 901.679688 603.222656 912 600.027344 C 931.308594 594.042969 951.976563 591.796875 972 594.285156 C 1054.652344 604.570313 1105.613281 685.65625 1110.910156 763 C 1112.285156 783.105469 1105.601563 801.394531 1104 821 L 1102 821 C 1101.390625 806.808594 1097.617188 793 1094.800781 779 C 1084 726.476563 1062.191406 652 1001 640 C 1005.667969 647.128906 1018.355469 651.238281 1025 657.175781 C 1042.964844 673.210938 1062.972656 701.160156 1065 726 L 1064 726 C 1060 704.011719 1031.371094 684.714844 1011 680 C 1014.570313 686.683594 1022.445313 691.195313 1027.421875 697 C 1038 709.371094 1046.9375 722.664063 1054.691406 737 C 1080.800781 785.269531 1089.617188 840.535156 1098.585938 894 C 1103.957031 926.019531 1111.96875 955.828125 1124 986 C 1127 993.605469 1129.519531 1010.132813 1136 1015 C 1134.425781 995.039063 1126.65625 976.597656 1123.25 957 C 1117.851563 926 1119.382813 892.140625 1128 862 L 1129 862 C 1129 909.777344 1129 963 1150 1007 C 1153.277344 998.597656 1146.472656 982.066406 1145.28125 973 C 1142 949.21875 1140.988281 925.003906 1142 901 C 1143.894531 858.667969 1155 817.242188 1157.910156 775 C 1162.40625 709.382813 1138.609375 640.292969 1090 595.089844 C 1070.453125 577 1045.425781 565.699219 1025 548.5625 C 994.335938 523 967 486.082031 925 479.4375 C 895.347656 474.761719 848 485 840 519 M 114 694 L 115 694 C 124 669.679688 122.824219 642 131.691406 617 C 157.734375 543.828125 214.175781 493 292 483 L 292 481 C 259.867188 481 225.703125 485.832031 198 503.230469 C 178.484375 515.484375 164.605469 535.789063 152.574219 555 C 137.761719 578.65625 123.511719 602.390625 117.425781 630 C 112.800781 651 114 672.675781 114 694 M 1209 481 C 1213.351563 486.71875 1228.171875 486.421875 1235 488.128906 C 1254.578125 493.019531 1272.824219 500.144531 1290 510.8125 C 1348 547 1385 625.1875 1385 693 C 1389.65625 689.785156 1387 677.40625 1387 672 C 1387 650.199219 1384.316406 627.523438 1376.574219 607 C 1362 568.664063 1333.289063 520.621094 1297 500 C 1270.796875 485 1238.679688 481 1209 481 M 388 500 C 376.253906 507.484375 374.699219 518.246094 378 531 L 379 531 C 379.484375 525 380.574219 518.667969 383 513 C 384.832031 509 388.765625 504.59375 388 500 M 1109 500 C 1110.722656 510.011719 1116.839844 519.308594 1120 529 C 1131.667969 519.75 1120.269531 503.347656 1109 500 M 128 767 C 132.800781 763.609375 132 752.582031 133.210938 747 C 136.847656 729.820313 142.402344 713 146.882813 696 C 157.714844 655 172.527344 614.730469 197.289063 580 C 208.828125 563.816406 222.234375 547.816406 241 540 C 209.867188 574.109375 190.800781 625.277344 182 670 C 178 689.808594 178.472656 710.523438 173 730 C 178.8125 726.015625 177.605469 716.257813 178.804688 710 C 181.808594 694.3125 186.558594 679 192 664 C 206 626 226 590.59375 255 562.003906 C 269.628906 547.550781 288.753906 533.578125 310 532.089844 C 327.28125 531 342.53125 538.566406 358 545 C 352.957031 529.210938 330 515.8125 315 511.027344 C 297.390625 505.433594 285 511.472656 268 514.535156 C 260.4375 516 252.605469 514.339844 245 515.429688 C 223.355469 518.527344 203.257813 527.460938 187 542.171875 C 126.71875 596.707031 128 692.585938 128 767 M 1142 544 C 1160.21875 538.753906 1173.894531 529.675781 1194 532.289063 C 1212.917969 534.746094 1227 545.5 1241 557.714844 C 1272.226563 585.207031 1293 622.464844 1307.574219 661 C 1313.734375 677.328125 1317.476563 694 1321 711 C 1322.226563 717 1322.789063 727.363281 1328 731 C 1320.320313 698.75 1318.9375 666.058594 1308.65625 634 C 1297.5 599.214844 1278.515625 571.460938 1261 540 C 1321.351563 575.257813 1343.910156 656.320313 1359.625 720 C 1363.582031 736.03125 1365.875 752.246094 1371 768 C 1374 762.816406 1373 756 1373 750 C 1373 736.28125 1372.347656 722.65625 1372 709 C 1370.417969 644 1352.984375 557.007813 1289 525.246094 C 1270.835938 516.230469 1254.222656 516.796875 1235 514.824219 C 1225.417969 514 1216.730469 508.757813 1207 508.089844 C 1183.261719 506.464844 1152.636719 522.644531 1142 544 M 685 512 C 688.722656 528.074219 700.316406 540.621094 707.742188 555 C 717.617188 574.128906 723.347656 594.480469 732 614 C 735.582031 607.261719 735 597.476563 734.996094 590 C 734.65625 561.601563 712.238281 522.324219 685 512 M 814 513 C 779.636719 534.554688 756 583.699219 756 624 L 757 624 C 773.609375 599 783.828125 570.164063 798.574219 544 C 802.601563 537 815.320313 521 814 513 M 582 514 C 584.96875 519.136719 591.703125 519.644531 597 521.34375 C 607.390625 524.675781 617.261719 529.378906 627 534.246094 C 655 548.269531 679.96875 567.195313 696.945313 594 C 715.972656 624.039063 717.503906 659.734375 721.714844 694 C 722.972656 704.238281 720.699219 729 728 736 C 732.796875 698.253906 738.253906 661.433594 727.574219 624 C 710.457031 564.027344 644.25 514 582 514 M 776 734 C 776 668.597656 786.808594 594.253906 843 553 C 858 541.792969 874.667969 533.332031 892 526.398438 C 901 522.734375 913.265625 521.246094 921 515 C 902.570313 509.550781 876.265625 520.640625 860 528.753906 C 806 555.621094 768 604.398438 768 666 C 768 683 768.546875 699.28125 770.71875 716 C 771.472656 721.804688 770.671875 730.464844 776 734 M 536 521.332031 C 536.773438 521.332031 536 521.832031 535.667969 521.667969 L 536 521.332031 M 596 526 C 599.226563 533 606 537 612 541.425781 C 622.945313 550 633.882813 558.632813 643.960938 568.171875 C 670.175781 593 686.257813 631.054688 687 667 L 686 667 C 679.75 640.683594 650.546875 607.59375 626 597 C 629 606.652344 637.765625 614 643.570313 622 C 652.648438 634.621094 659.984375 648.03125 666.742188 662 C 685.625 701.03125 684.917969 745 704.757813 784 C 710.277344 795 717.578125 814.5625 729 820 C 723.757813 799.734375 718.261719 778 716.167969 757 C 709.238281 688 710 613 654 563 C 639 549.507813 616.964844 527.832031 596 526 M 772 819 C 778.964844 815.726563 782.3125 808.414063 786 802 C 793.304688 789.292969 800.558594 776.644531 806 763 C 817.730469 733.582031 818.6875 701.503906 830.605469 672 C 836.96875 656.238281 844.945313 641 854.722656 627 C 861.835938 617 870.867188 607.765625 877 597 C 867.601563 598.695313 860.480469 606.519531 854 613 C 839.871094 627.125 818 645.628906 816 667 L 815 667 C 815 628.347656 834 592 861 565 C 869.976563 556.011719 879.859375 548.015625 890 540.375 C 895.351563 536.34375 902 532.765625 904 526 C 885 531.386719 870.742188 542 856 554.71875 C 839.765625 569 823.761719 585 813.3125 604 C 791.914063 643 790.945313 688 786.828125 731 C 784 760.429688 779.417969 790.324219 772 819 M 482 542 C 480 544.445313 478.761719 545.699219 476 547 L 476 546 L 482 542 M 380 552.78125 C 374.878906 555 379.375 561 382 563.0625 C 386.839844 566.8125 393.308594 567.582031 397.941406 571.417969 C 401.878906 574.679688 400.949219 579.085938 403.742188 582.773438 C 407.882813 588.230469 416.777344 585.734375 422 583.535156 C 432.894531 579 438.777344 566.742188 426.984375 559 C 417.421875 552.667969 405.585938 556.210938 395 554.5625 C 390.738281 554 384.347656 551.074219 380 552.78125 M 1119.941406 552.484375 C 1107.75 553.140625 1083.839844 551.800781 1074 559.417969 C 1057.753906 572.027344 1078 586.445313 1091.996094 585 C 1100.234375 584 1099.183594 575.019531 1104 570.214844 C 1108.933594 565.554688 1116.1875 565 1120.773438 560 C 1123 557.265625 1125.355469 552.191406 1119.941406 552.484375 M 222 643 C 232.996094 638.34375 239.996094 626.039063 249 618.4375 C 273.78125 597.519531 310 574.007813 344 581 L 344 582 C 253.199219 586 216.335938 694.574219 207.285156 770 C 205.6875 783.300781 206 796.617188 206 810 C 206 833.648438 209.910156 860.421875 220 882 L 221 882 C 221 819 225.261719 754.6875 247.574219 695 C 256 672.386719 263.535156 645.300781 289 637 C 259.882813 677.65625 255.53125 727.273438 260.171875 776 C 261.785156 793 267.273438 810.105469 268 827 L 270 827 C 270 802 265.367188 777.144531 267 752 C 270.332031 704.644531 292.921875 663 323.714844 628 C 340.859375 608.527344 365.269531 584.570313 393 584 C 386.597656 565.171875 352.871094 555.007813 335 555 C 296.4375 555 265.242188 578.796875 242 608 C 234 618 223.9375 630.066406 222 643 M 1108 583 C 1136.910156 585.285156 1159.296875 607.039063 1177.269531 628 C 1211.167969 667.53125 1232.660156 712.5 1234.960938 765 C 1235.882813 786.050781 1231.433594 807.015625 1231 828 C 1234.632813 825.246094 1235.289063 819.316406 1236.195313 815 C 1238.578125 803.679688 1239 792.441406 1240.171875 781 C 1243.765625 743.234375 1244 701.789063 1229.546875 666 C 1225.320313 655.578125 1217.855469 646.535156 1212 637 C 1237 644.207031 1245.265625 673.367188 1253.425781 695 C 1275.820313 754.394531 1279 819.246094 1279 882 L 1280 882 C 1287.980469 864 1290.226563 842.414063 1292.167969 823 C 1297.367188 771.011719 1287.796875 717.675781 1266.304688 670 C 1256.996094 649.351563 1247 628.59375 1230 613.171875 C 1209 594.367188 1184.566406 588.089844 1158 582 L 1158 581 C 1192.984375 576.578125 1223.953125 594.015625 1250 616.132813 C 1259.554688 624.246094 1267.507813 638 1279 643 C 1276.757813 630 1267.382813 618.28125 1259.625 608 C 1236 576.816406 1198 549.125 1157 556 C 1141.488281 558.484375 1115 567.753906 1108 583 M 330 920 L 331 920 C 331 902.476563 326.828125 885.390625 325.171875 868 C 322.976563 845 322 821.121094 322 798 L 323 798 C 323.316406 813.1875 328.960938 829.230469 332.347656 844 C 336.671875 863 339.347656 884.214844 347 902 L 348 902 C 348 835 330.28125 770.066406 345.652344 703 C 351.601563 677.027344 361.628906 652.390625 374.308594 629 C 379.886719 618.714844 390.324219 608.828125 394 598 C 367 609.402344 347.71875 645.492188 336.71875 671 C 303.589844 747.832031 309.421875 840.457031 330 920 M 1106 598 C 1110.4375 605.789063 1116.75 612.308594 1121.398438 620 C 1134.621094 642 1145.542969 665.367188 1152.574219 690 C 1172.953125 761.417969 1154.484375 830.0625 1153 902 L 1154 902 C 1161.734375 884.023438 1162.75 863 1167.234375 844 C 1170.800781 829 1177.679688 813.613281 1178 798 L 1179 798 C 1179 839.175781 1171.753906 879.132813 1170 920 C 1174.699219 915.136719 1174.816406 907.347656 1176.375 901 C 1180.636719 883.640625 1183 865.730469 1185 848 C 1193 781.234375 1189.515625 708.363281 1154.398438 649 C 1146 635 1136.542969 622.527344 1125 611 C 1119.554688 605.5625 1113.824219 599.511719 1106 598 M 360 608 C 343.492188 624.507813 332.855469 642.675781 321.695313 663 C 311.820313 681 301.476563 699.277344 295.433594 719 C 283.222656 759 287.246094 801.789063 300 841 L 301 841 C 301 786.53125 304 731 325.425781 680 C 332.671875 662.714844 340 645 350 629 C 353.546875 623.386719 362.460938 615.113281 360 608 M 1138 608 C 1145.820313 626.789063 1158.195313 643.511719 1166.691406 662 C 1184.964844 701.773438 1195 743.601563 1199.171875 787 C 1200.71875 803.214844 1202.792969 824.066406 1199 840 C 1203.316406 837.042969 1203.433594 830.828125 1204.398438 826 C 1206.925781 813.378906 1209.625 800.789063 1211 788 C 1217.421875 735.632813 1197 694.414063 1171.578125 650 C 1164.304688 637.308594 1153 612.238281 1138 608 M 426 672 C 440.308594 665.746094 452 653 466 645.308594 C 506.425781 623.441406 555.410156 622.285156 582.996094 664 C 589.46875 673.789063 593.769531 684.503906 596 696 L 595 696 C 584.664063 661 536.492188 657 507 657 L 507 659 C 539.984375 659 570.964844 673.117188 588 702 C 579.542969 699.488281 575.835938 692 568.996094 687.042969 C 554 676.398438 533.972656 673 516 674.089844 C 509.269531 674.550781 500.472656 674.363281 497 681 C 519.378906 681 559.621094 677.40625 569 705 C 562.632813 702.03125 558.382813 696.011719 552 692.808594 C 536.933594 685.253906 518.898438 686.25 503 690.128906 C 497.195313 691.546875 487.519531 693 484 698 C 501 696 518.996094 691.34375 536 696.441406 C 538.710938 697.253906 554.613281 704.519531 550.363281 708.683594 C 545.996094 713 530 712.527344 524 714.15625 C 507.828125 718.472656 485 730.359375 475 744 C 490 740.40625 501.652344 727.640625 517 725 C 494.34375 746.683594 458.21875 767.207031 449 799 C 457.277344 796.253906 464.5625 788.761719 471 783.050781 C 483.722656 771.761719 495.972656 760.027344 508 748 C 503.722656 758 495.460938 763.65625 488 771.015625 C 475.242188 783.613281 457.304688 802.050781 453 820 C 471.207031 809.625 484.414063 791.59375 499 777 C 494.828125 785.375 487.371094 791.085938 481.285156 798 C 470 810.757813 459.441406 824.0625 448.421875 837 C 446.347656 839.433594 432.316406 858.164063 430.355469 850 C 429 844.675781 431.484375 837.355469 431.914063 832 C 434.308594 802.222656 453.652344 772.652344 466.320313 746 C 470.503906 737.199219 477.980469 729 479 719 C 469.289063 726.492188 462.777344 741 456 751 C 441.660156 772.507813 429.210938 794.726563 422.894531 820 C 414 855.117188 416.285156 892 407.625 927 C 401.726563 951 388 971.15625 379.425781 994 C 374.707031 1006.535156 374.210938 1020 371.914063 1033 C 370.320313 1042.085938 367.183594 1050.832031 366 1060 L 367 1060 C 380.9375 1036.03125 388.484375 1009.394531 407 988 C 401 1003.109375 391.84375 1016.445313 387 1032 C 379.988281 1054.703125 380 1079.46875 380 1103 L 382 1103 C 389.683594 1046 422.808594 993.242188 448.742188 943 C 457.8125 925.425781 463 907 471 889 C 476 877.601563 485.535156 868.03125 489 856 C 480 861.109375 475 870 469 878 C 457 894.292969 443.988281 912 435 930 L 434 930 C 447.6875 896.632813 461.710938 865.035156 486.171875 838 C 494.636719 828.640625 503.925781 819.515625 514 812 C 519 808.019531 527.261719 805.144531 531 800 C 517.886719 801.070313 506.234375 808.347656 496 816.128906 C 473 833.601563 455 857.738281 441.308594 883 C 434.433594 895.683594 430.464844 910 421 921 C 430 877.21875 454.589844 840.039063 486 809.003906 C 494.789063 800.320313 505.972656 791.464844 519 792.039063 C 523.613281 792.246094 531 794.097656 532.824219 799.042969 C 534.757813 804.328125 522 815.722656 519 820 C 507.453125 836.1875 490 859 487 879 C 512.59375 859.367188 525.691406 818 564 821 L 564 822 C 542.464844 829.46875 539 851.308594 531.394531 870 C 519.652344 898.730469 496.675781 923.191406 496 956 L 497 956 C 501.816406 941.203125 506.804688 926.3125 515 913 C 522.566406 901 533 891 539.21875 878 C 549.546875 856.027344 556.648438 822 587 822 C 571.964844 836 570.464844 852.28125 559.210938 868 C 553 876.484375 542.460938 881.433594 538 891 C 565.90625 882.792969 569.964844 855.253906 586.464844 836.039063 C 595.175781 826 608.714844 823.222656 618.960938 815.238281 C 625.175781 810.394531 628.222656 803.363281 630.363281 796 C 630.777344 794.578125 631.515625 790.121094 633.832031 790.632813 C 636 791.132813 636.859375 795.195313 637.410156 797 C 639.375 803.4375 640.847656 810.015625 644 816 C 617.40625 816.003906 601.988281 834.195313 587 854 C 581.847656 861.035156 575 867.675781 572 876 C 591 867.132813 598.945313 842.457031 618 832.324219 C 635.929688 822.785156 656 831 675 831 L 675 830 C 663.632813 823.007813 653.761719 813.179688 648 801 L 649 801 C 655.792969 814.09375 672.253906 822.21875 686 826 C 692 827.453125 700.941406 826.433594 705.535156 831.148438 C 718.328125 844.269531 726.292969 863.535156 733.695313 880 C 736.523438 886.296875 737.820313 897.425781 744 901 C 738.515625 878.746094 734.820313 857.621094 721.921875 838 C 711.609375 822.316406 695.976563 811 686 795 C 680.757813 786.445313 677 776.78125 674.886719 767 C 674.503906 765.339844 674.1875 758.207031 671.710938 758.207031 C 665.84375 758.207031 668.359375 775 669 778 C 673.371094 798.128906 687.964844 812 702 826 C 682.816406 819.46875 671.363281 804.308594 656 792.210938 C 649.347656 787 639.433594 782.671875 637 774 C 639 775.570313 643.417969 781.261719 646.402344 779.742188 C 648.964844 778.4375 648.847656 771.449219 648.960938 769 C 649.492188 757.304688 656 747.523438 656.789063 736 C 657.429688 724.613281 652.691406 713.039063 650.609375 702 C 645.613281 675.496094 647.878906 635.535156 621 620 C 623 629 628.667969 636.304688 631.277344 645 C 636 661.003906 637 678.417969 637 695 C 629.363281 677.746094 624.949219 662.554688 611.828125 648 C 573.414063 605.386719 514 609.058594 468 636.011719 C 454 644.183594 432.527344 656.578125 426 672 M 863 772 C 862.976563 781.59375 853.660156 785.34375 847 790.515625 C 830.996094 803 819.207031 818.003906 800 826 C 813 813 826.9375 797.78125 830.539063 779 C 831 776.242188 834.335938 760.207031 828.921875 760.207031 C 825.800781 760.207031 824.929688 767 824.371094 769 C 821.84375 778.679688 818.476563 788.464844 813.183594 797 C 804.167969 811.550781 789.859375 821.820313 780.195313 836 C 766.175781 856.570313 761.679688 877.410156 756 901 C 762.632813 897.226563 763.832031 885.695313 766.71875 879 C 773.597656 863.046875 781.757813 847.054688 793.429688 834.019531 C 799.871094 826.820313 811.257813 828 820 825 C 832.960938 820.476563 842.449219 812.550781 852 803 C 845.542969 814.585938 834.378906 820.550781 827 831 C 843 830.308594 858.96875 823.574219 875 829 C 898.824219 836.785156 908.503906 863.265625 928 877 C 926.183594 869.269531 919.785156 863.117188 915 857 C 905 844.269531 897 830 883 821.09375 C 877.382813 817.539063 863.753906 817.726563 859.933594 813.542969 C 857.738281 811.140625 863.609375 798.046875 864.675781 795.003906 C 865 794 866.3125 789.355469 868.277344 791 C 873.28125 795 873.808594 807.363281 878.527344 812.824219 C 887.492188 823.195313 903.175781 825.214844 912.984375 835.015625 C 930.984375 853 936 885.367188 964 892 C 958.867188 883.265625 948.371094 877.679688 942.519531 869 C 936 859.46875 934 848.027344 928.675781 838 C 925.390625 832 920.476563 828.0625 916 823 C 942.992188 823.019531 952 855.320313 960.429688 875 C 966.511719 889.210938 978 900.007813 986.1875 913 C 994.609375 926.585938 998.601563 941.5625 1005 956 L 1006 956 C 1003.226563 921.140625 979.882813 896.160156 967.8125 865 C 961.464844 848.621094 957.246094 828.558594 938 823 L 938 822 C 963.933594 820 981 841.691406 996.574219 860 C 1002 866.574219 1007.230469 875 1015 879 C 1010.414063 859.6875 994.300781 838.039063 982.859375 822 C 979.445313 817.214844 967 806.042969 967.917969 800.042969 C 968.621094 795 976.878906 793.152344 981 793.054688 C 994.433594 792.730469 1006.40625 802.507813 1016 810.730469 C 1039.25 830.65625 1058.1875 858 1070.28125 886 C 1074.628906 896.085938 1079.769531 907 1080 918 C 1070.453125 906.773438 1066.210938 892.675781 1059 880 C 1040.632813 846.824219 1009.765625 805.492188 969 800 L 969 801 C 1005.707031 825.765625 1032.394531 855.296875 1052.246094 895 C 1057.726563 906 1064.472656 917 1067 929 L 1066 929 C 1058.226563 910.613281 1041.902344 891.035156 1029.871094 875 C 1024.84375 868.292969 1020 860.140625 1012 857 C 1015 869.464844 1025.632813 879.222656 1030.714844 891 C 1049.953125 935.621094 1072 978.757813 1092.308594 1023 C 1103.570313 1047.597656 1118.429688 1075.324219 1119 1103 L 1121 1103 C 1121 1079.804688 1122 1056.484375 1115.277344 1034 C 1110.238281 1017.265625 1100.644531 1003 1094 987 L 1095 987 C 1101.722656 1000.171875 1111.875 1011.699219 1118.742188 1025 C 1124.390625 1036 1127.632813 1050.257813 1135 1060 C 1135.761719 1051.460938 1131.191406 1042.378906 1129.609375 1034 C 1127.21875 1021.308594 1126.589844 1008.28125 1122.304688 996 C 1115.675781 977 1104.566406 960 1097.695313 941 C 1088.640625 916.074219 1089 888.105469 1085.71875 862 C 1080.75 824.207031 1071.324219 790 1050 758 C 1042.8125 747.214844 1032.660156 727 1021 721 C 1036 765.765625 1069.96875 805.300781 1071 855 C 1053 842.335938 1040.703125 822 1025.910156 806 C 1017.386719 796.796875 1005.453125 788.457031 1000 777 C 1012.996094 789.730469 1028.566406 809.179688 1045 817 C 1043.390625 808.65625 1036.855469 800.628906 1031.765625 794 C 1019.207031 777.648438 1003.210938 764.617188 991 748 C 1005.914063 758 1018.609375 771.5 1032 783.285156 C 1038 788.601563 1043.773438 795.40625 1052 797 C 1042.957031 765.671875 1004.207031 745.253906 982 724 C 997.324219 729.21875 1009.4375 741.515625 1025 746 C 1019.867188 739.046875 1011.292969 735.167969 1004 730.800781 C 986.179688 720.128906 967 711 948 703 L 948 702 C 961.460938 703.0625 974.65625 705.65625 987 711.308594 C 996.214844 715.527344 1004.941406 723.207031 1015 725 L 1015 724 C 1000.449219 715.417969 983.335938 701.523438 966 700 L 966 699 C 982.722656 699 998.339844 698 1015 700 L 1015 699 C 991.308594 686.515625 949.664063 689.234375 924 694 L 924 693 C 951 680.371094 974.480469 680 1004 680 L 1004 678 C 980.207031 678 954.3125 669.691406 931 678.089844 C 922 681.332031 914.816406 688.683594 907 694 C 926.503906 662.824219 967.941406 659.390625 1001 662 L 1001 660 C 964 655.242188 925.644531 648.433594 899.210938 682 C 894.988281 687.363281 890 693 887 699 L 886 699 C 898.628906 660.257813 929.515625 647 968 647 L 968 645 C 956.414063 645 944.523438 641.125 933 642.171875 C 903 645 874.359375 671 869 701 L 868 701 C 868.171875 680.140625 876.410156 657.109375 891 642.039063 C 899.925781 633 915.644531 628.816406 920 616 C 872.28125 617 858.390625 666.363281 850.601563 705 C 848 717.59375 844 730.007813 845 743 C 845.75 752 850.535156 760.085938 851.710938 769 C 852 771.730469 851.285156 777.191406 854.429688 778.59375 C 858.214844 780.277344 861.335938 774.410156 863 772 M 922 624 L 922 626 C 948.429688 626 974 619.1875 1000 628.078125 C 1024.875 636.609375 1042 656.519531 1064 670 C 1060.542969 660 1048 651.46875 1040 644.753906 C 1018.558594 626.789063 995.652344 614.082031 967 616.089844 C 951.859375 617.152344 937.222656 622.800781 922 624 M 909 644 C 933 639.027344 955 631 980 631 C 967.175781 621.457031 937.460938 630 924 635.0625 C 918.722656 637.066406 912 639.015625 909 644 M 756 819 C 765 812.757813 761.417969 791.394531 760.960938 782 C 759 745 753.277344 710.335938 756.828125 673 C 757.816406 662.632813 757.828125 651.320313 756.425781 641 C 756 638.269531 756.417969 632.695313 753.503906 631.175781 C 749.269531 629 747.570313 637.5625 747 640 C 744.402344 651.402344 742 663.269531 742 675 C 741.425781 723.625 743 772 756 819 M 605 794 L 605 793 C 647.648438 769.226563 608.972656 710 568 728 C 556.195313 733.066406 551 743.488281 545 754 C 549.804688 754.015625 570.679688 758 569 765 C 567 773.320313 559.542969 766 559 761 L 558 761 C 554.625 770.632813 546 768.015625 551 780 C 537.375 766.507813 544.328125 742.460938 557 731.183594 C 577.621094 713 613.949219 720.175781 623.453125 747 C 625.90625 754 626.6875 761.765625 625.382813 769 C 623.324219 780.425781 616.355469 790.382813 605 794 M 944 788 C 946.472656 784.246094 953.601563 777.269531 951.644531 772.261719 C 950 768.351563 944.515625 768 944.378906 763 C 944.175781 755.710938 955.484375 755.398438 952 747 C 950 742.023438 946 737.726563 942 734.324219 C 929.183594 723.597656 909.488281 722 895 730.476563 C 876.6875 741.3125 868.835938 767.152344 884 784 C 888 788.394531 892.574219 792 898 794.335938 C 905.910156 798 913.507813 798 922 798 C 905 805.082031 883.390625 791.496094 877 776 C 869.910156 758.320313 877 736.28125 894 727 C 909.214844 718.496094 928.429688 719.117188 942 730.328125 C 959.210938 744.542969 963.960938 773.632813 944 788 M 518 724 L 517 725 L 518 724 M 595 742 C 603 744 610.691406 749.085938 611.816406 758 C 612.167969 760.800781 612.800781 770.792969 608 770.792969 C 605.507813 770.792969 604.628906 766 603.996094 764 C 601.414063 756.507813 597.863281 749.382813 595 742 M 905 742 C 903.609375 750.085938 898.976563 757.382813 896 765 C 895.4375 766.644531 894 773 891.300781 771.652344 C 888.726563 770.589844 888.355469 765.320313 888.183594 763 C 887.414063 752.621094 895.675781 744.691406 905 742 M 569.996094 743.386719 C 579.484375 742.015625 580 756.6875 570.996094 758 C 559.957031 759.226563 559.871094 745 569.996094 743.386719 M 928 746.4375 C 938.503906 743.625 941.257813 758.265625 931 760.332031 C 921.980469 762.148438 919.191406 748.804688 928 746.4375 M 583.996094 757 C 592 758 591.667969 771.238281 583 770.417969 C 574.21875 769.582031 574.691406 755.679688 583.996094 757 M 916.996094 759.6875 C 926 759.6875 925 773.554688 916 773.324219 C 907.382813 773.109375 908.84375 759.6875 916.996094 759.6875 M 937.855469 761 C 943.433594 762.050781 940.417969 772 935 771.339844 C 928.648438 770.648438 932 759.800781 937.855469 761 M 500 776 L 499 777 L 500 776 M 866 780 C 863.460938 788 857.382813 796 853 803 L 852 803 C 854.820313 795.296875 859.929688 785.566406 866 780 M 552 781 C 556 785.089844 560.214844 788.730469 565 792 L 565 793 C 560 790.652344 553.351563 786.574219 552 781 M 636 782 C 640.984375 787.464844 645.445313 794.027344 648 801 L 647 801 C 643.722656 795.445313 637 788.171875 636 782 M 546 792 C 563.476563 808.578125 584 805.453125 606 805 L 606 806 C 591.453125 812.773438 571 815.125 557 806 C 552.761719 803.105469 545.257813 797.582031 546 792 M 567 793 L 566 794 L 567 793 M 955 793 C 946 811.058594 909.277344 821.589844 894 805 C 917.167969 810.53125 936 806.1875 955 793 M 569 794 L 568 795 L 569 794 M 604 794 L 603 795 L 604 794 M 571 795.332031 C 571.773438 795.332031 571 795.832031 570.667969 795.667969 L 571 795.332031 M 601 795.332031 C 601.773438 795.332031 601 795.832031 600.667969 795.667969 L 601 795.332031 M 574 796.332031 C 574.773438 796.332031 574 796.832031 573.667969 796.667969 L 574 796.332031 M 598 796.332031 C 598.773438 796.332031 598 796.832031 597.667969 796.667969 L 598 796.332031 M 581 797 L 581 798 L 576 798 C 577.769531 797.222656 579 797.089844 581 797 M 595 797 L 595 798 L 591 798 C 592.507813 797.316406 593.316406 797.175781 595 797 M 589 798 L 589 799 L 583 799 C 585 798.125 586.746094 798.046875 589 798 M 373 807 L 373 810 L 372 810 C 372.25 808.546875 372.316406 808.246094 373 807 M 613 849 C 650.308594 846.054688 682 852.367188 707.386719 883 C 715.609375 893 722.386719 904.09375 729.304688 915 C 732.523438 920.074219 734.429688 926.152344 740 929 C 736.714844 917.335938 734.695313 905.113281 729.6875 894 C 716.699219 865.171875 690.660156 843.253906 659 838.730469 C 646.890625 837 620.605469 837.402344 613 849 M 760 929 C 765.675781 924.308594 768.644531 917.070313 772.667969 911 C 780.246094 899.574219 787.929688 888.179688 797.171875 878 C 813.261719 860.269531 836 849.433594 860 848.210938 C 869.230469 847.734375 878.710938 850 888 850 C 880.601563 842.144531 867 841.171875 857 839.730469 C 808.671875 833 760.972656 881.789063 760 929 M 470 1051 C 478 1046.566406 483.34375 1033 487.851563 1025 C 499.707031 1004.347656 511.5 983.621094 525 964 C 560.46875 912.578125 619.320313 878.070313 682 902.066406 C 699.347656 908.703125 710.898438 923.011719 726 933 C 724.449219 914.046875 707.910156 899.828125 692 891.757813 C 658.96875 875 614.285156 877.011719 582 894 C 609 870.628906 643 867.722656 677 872 C 672.609375 862.667969 661.453125 859.515625 652 858 C 629.609375 854.148438 605.175781 859 586 871.054688 C 540.472656 900 513.511719 952.480469 491.691406 1000 C 483.898438 1017 475 1033 470 1051 M 823 872 C 857 871.71875 888.710938 869 917 893 C 881.714844 878.308594 835.964844 874.101563 802 895.695313 C 789 904 775.410156 917 774 933 C 792.667969 922.363281 806.648438 905.546875 828 899.425781 C 902 878.195313 957.261719 932.191406 993.945313 990 C 1002.675781 1003.753906 1010.472656 1018.011719 1018.800781 1032 C 1022.609375 1038.398438 1025.175781 1046.175781 1031 1051 C 1028.207031 1032.097656 1016.667969 1014 1008.246094 997 C 986.191406 953 958.902344 897.027344 915 871.015625 C 891.9375 857.351563 841.800781 845.53125 823 872 M 918 893 L 917 894 L 918 893 M 582 894 L 581 895 L 582 894 M 920 894 L 919 895 L 920 894 M 580 895 L 579 896 L 580 895 M 461 1393 L 462 1393 C 460.421875 1382.324219 454.914063 1372.199219 451.515625 1362 C 442.980469 1336.394531 432 1307.269531 432 1280 L 433 1280 C 439.890625 1309.070313 456.5 1340.496094 475.871094 1363 C 483.277344 1371.605469 491.582031 1381.042969 502 1386 C 497.21875 1376.734375 488.445313 1370.078125 482 1362 C 472 1349.621094 464 1335.550781 457.871094 1321 C 447.902344 1297.699219 446.300781 1271.773438 442.730469 1247 C 435.304688 1195.472656 429.679688 1148.5 441.882813 1097 C 447.667969 1072.601563 457 1049.390625 468.246094 1027 C 474.296875 1015 484.964844 1002.582031 487 989 C 478 994.347656 471.3125 1007.753906 465 1016 C 446.617188 1040.679688 423.386719 1071.808594 422 1104 L 421 1104 C 421 1051.421875 441 1002.25 464.246094 956 C 470.902344 942.699219 478.453125 929.691406 486.203125 917 C 490.191406 910.46875 495.621094 904.730469 497 897 C 488 901.179688 480.566406 911.257813 474.652344 919 C 459.554688 938.78125 447.988281 961.421875 435.71875 983 C 402.664063 1041.148438 397 1107.496094 399.960938 1173 C 403.378906 1251.042969 417 1326.484375 461 1393 M 1004 898 C 1015.316406 922.242188 1031.765625 944.027344 1043.753906 968 C 1065 1010.800781 1077.945313 1056.1875 1080 1104 L 1079 1104 C 1077.636719 1072.351563 1056 1041.378906 1037.871094 1017 C 1030.859375 1007.648438 1024.699219 996.832031 1015 990 C 1017.566406 1004.40625 1029.609375 1017.757813 1035.691406 1031 C 1048.246094 1058.34375 1058.566406 1086.210938 1063.566406 1116 C 1071.394531 1162.667969 1065.289063 1206 1057.753906 1252 C 1053.902344 1275.566406 1052 1299.796875 1042.574219 1322 C 1036 1337.367188 1026.800781 1351.824219 1016.574219 1365 C 1011.308594 1371.785156 1002.789063 1377.800781 1000 1386 C 1009.695313 1380.476563 1016.636719 1372.097656 1024 1364 C 1044.8125 1341.460938 1064.828125 1308 1069 1277 L 1070 1277 C 1066.753906 1318.066406 1048 1353.589844 1039 1393 C 1047.175781 1387 1050.816406 1376 1055.246094 1367 C 1066.191406 1345.109375 1076.421875 1322.59375 1083 1299 C 1095.605469 1255.214844 1098.90625 1210.226563 1100 1165 C 1101.464844 1105.761719 1097.273438 1045.0625 1070.246094 991 C 1058 966.75 1043.75 943.796875 1027.628906 922 C 1021.171875 913.269531 1014.859375 901.601563 1004 898 M 531 985 C 543.378906 979.757813 552.640625 966.183594 563 957.804688 C 583.996094 940.824219 609.855469 926.621094 637 923.285156 C 654.539063 921.132813 672.296875 924.636719 689 929.722656 C 696.390625 932 703.242188 936.316406 711 937 C 704 927.292969 690.691406 922.296875 680 917.71875 C 631.835938 897.109375 585.464844 920 552.714844 957 C 544.804688 966 535.839844 973.78125 531 985 M 792 938 C 816 936.03125 837 924 862 925.039063 C 890.910156 926.308594 919.246094 942.703125 941 960.613281 C 950.90625 968.769531 959 979.140625 970 986 C 966.402344 973.777344 955.410156 965.210938 947.285156 956 C 926.492188 932.425781 896.800781 910 864 909.128906 C 848.769531 908.753906 832.5625 914.355469 819 920.78125 C 810 925.015625 798.363281 930.304688 792 938 M 421 921 L 420 922 L 421 921 M 729 1130 C 734.925781 1119.3125 739.464844 1109.464844 740 1097 C 732.351563 1102.605469 728.597656 1117.375 722 1125 C 727.285156 1114.65625 727.429688 1105.3125 726 1094 L 724 1094 C 721 1113.417969 702.285156 1130 686 1139 C 697.949219 1127 710.851563 1112 711 1094 L 710 1094 C 699.378906 1111.289063 684.296875 1125.703125 670 1140 C 679.242188 1127 695.386719 1117 700 1101 C 688.335938 1105.484375 678.308594 1116.003906 670 1125 C 673.1875 1117.347656 677 1110.144531 679 1102 C 666.367188 1105.003906 656.332031 1120 647.910156 1129 C 635.589844 1142.226563 623.339844 1155.054688 613 1170 C 603.730469 1183.464844 596.753906 1198.570313 586 1211 C 597.226563 1184.03125 607.960938 1160.722656 628 1139 C 637.675781 1128.652344 647.195313 1118.144531 657.171875 1108.171875 C 663.746094 1101.59375 672.535156 1096 676 1087 C 654.425781 1094.347656 642.40625 1112.554688 627 1128 C 634.761719 1109.335938 647 1093.28125 655 1075 C 637.515625 1081 623.433594 1104.375 613.667969 1119 C 601 1138 582.941406 1153.585938 574.449219 1175 C 568.980469 1188.792969 569 1204.398438 569 1219 L 568 1219 C 567.949219 1201.417969 566.535156 1185.433594 570.652344 1168 C 571.617188 1164 577.902344 1151.183594 575.761719 1147.621094 C 572.289063 1142 562.496094 1155.738281 561 1158 C 552 1172.019531 544 1190.117188 544 1207 L 543 1207 C 543.414063 1157 556.605469 1098.773438 582.8125 1056 C 589.539063 1045.019531 596.921875 1034.175781 606 1025 C 611.730469 1019.214844 620.511719 1014.417969 624 1007 C 606.554688 1012.132813 592.390625 1028.605469 580 1041 C 539.355469 1081.660156 521.558594 1143.359375 524 1200 C 525.308594 1229.027344 531.722656 1257.195313 534 1286 L 536 1286 C 538.230469 1268.355469 542.242188 1251.085938 547 1234 C 549.863281 1224.5 554.542969 1215 555 1205 L 556 1205 C 556.320313 1244 565 1286.371094 583.320313 1321 C 591.433594 1336.457031 604.554688 1348 613 1363 C 625.339844 1384.398438 641.757813 1419 671 1419 C 668.597656 1412 662 1408.011719 657 1403 C 648 1394.269531 639 1385 632.875 1374 C 626.355469 1362.425781 624.167969 1348.507813 620 1336 C 604.785156 1290.339844 594.238281 1240.605469 620.398438 1197 C 627.714844 1184.808594 636.503906 1171.824219 650 1166 C 632 1192.699219 624 1223 624 1255 L 625 1255 C 632.296875 1232 634.773438 1208.316406 647.453125 1187 C 653.90625 1176.15625 663 1168 672 1159 C 659.515625 1189 639 1215.523438 632.804688 1248 C 630.921875 1258 634.222656 1267.15625 633.984375 1277 C 633.4375 1299.648438 636.492188 1314.109375 651.871094 1332 C 658 1339.273438 664.976563 1348.179688 674 1352 C 670.429688 1339.601563 660.597656 1329.738281 655.3125 1318 C 650 1306.574219 650 1294.273438 650 1282 L 652 1282 C 652.632813 1312.507813 681.171875 1336.425781 698 1359 C 704.976563 1368.160156 711.234375 1381 722 1386 C 719 1349.457031 682 1326.066406 668.429688 1294 C 662.894531 1281 661.492188 1265.816406 664.679688 1252 C 666.199219 1245.414063 670.308594 1239.75 671 1233 C 659.460938 1238 655.375 1248.039063 646 1255 C 646.605469 1241.765625 655.847656 1229 661 1217 C 667.523438 1202.664063 669.40625 1184.773438 678.789063 1172.015625 C 685.25 1163.230469 703.449219 1155.035156 714 1153 C 708.289063 1163.78125 694.71875 1167.597656 688 1178 C 680 1190.726563 684.882813 1209 685 1223 L 687 1223 C 689.683594 1189 705.347656 1168 741 1165 L 741 1166 C 734.671875 1167.464844 720.542969 1170.085938 719.425781 1178.003906 C 718.589844 1184 726.40625 1189.277344 729.960938 1193 C 738.574219 1202.023438 743.726563 1213 749 1224 L 750 1224 L 750 1201 C 756.433594 1207.300781 751 1223.527344 751 1232 L 752 1232 C 756.519531 1217.738281 761.210938 1206.464844 771.429688 1195.039063 C 775.347656 1190.65625 784.1875 1185.019531 782.441406 1178.039063 C 780.546875 1170.46875 767.429688 1167.753906 761 1166 L 761 1165 C 776.601563 1167.101563 796.871094 1172 805.867188 1186 C 812.671875 1196.660156 813.457031 1210.792969 815 1223 L 816 1223 C 816.667969 1207.464844 822.46875 1188.78125 812.210938 1175.039063 C 805.628906 1166.222656 794.5 1162.226563 788 1153 C 798.921875 1156.144531 816.488281 1163.660156 823.210938 1173 C 831.902344 1185.078125 832.660156 1201.609375 838.769531 1215 C 844.539063 1227.652344 854.878906 1240.726563 855 1255 C 845.699219 1247.71875 841.785156 1238 830 1233 C 831 1239.324219 834.859375 1244.757813 836.320313 1251 C 839.90625 1266.324219 837.773438 1282.820313 831 1297 C 817.25 1326.488281 780.289063 1351.1875 780 1386 C 790.453125 1381.121094 796.613281 1368.007813 803 1359 C 819.496094 1336.492188 846.601563 1311.378906 849 1282 L 851 1282 C 851 1293.785156 851.941406 1303.746094 847 1315 C 841.695313 1327.695313 830 1339.691406 827 1353 C 844.207031 1343.195313 863.949219 1320 867.535156 1300 C 869 1291.589844 866.734375 1283.335938 867 1275 C 867.742188 1260.636719 870.222656 1249.25 865.65625 1235 C 856.859375 1207.539063 839.308594 1184.566406 829 1158 C 855.550781 1179.621094 873.222656 1220 876 1254 L 878 1254 C 877.976563 1221 866.789063 1193.359375 851 1165 C 911.5625 1201 899.960938 1280.070313 881.332031 1336 C 877 1349 874.707031 1363.046875 867.957031 1375 C 858.46875 1391.808594 837.929688 1402 830 1419 C 848.617188 1419 872 1397 880.675781 1381 C 883.914063 1375 884.613281 1368.003906 887.902344 1362 C 895.679688 1347.8125 908.890625 1337.28125 916.6875 1323 C 935.632813 1288.304688 944 1244.167969 944 1205 L 945 1205 C 948.679688 1232.3125 961.269531 1258.300781 965 1286 L 967 1286 C 968.453125 1252.183594 977.210938 1219 977.984375 1185 C 979 1136.59375 959.554688 1084.5625 928 1048 C 915.914063 1033.785156 894.804688 1011.507813 876 1007 C 879.722656 1013.152344 887.839844 1017.832031 893 1023 C 902 1032.070313 909.382813 1042.242188 916.308594 1053 C 943.929688 1096 956.578125 1153.230469 957 1204 L 956 1204 C 955.636719 1186.527344 943.65625 1148.5625 924 1145 C 927 1157 932 1168.792969 933.710938 1181 C 935.398438 1194 933 1207.09375 932 1220 L 931 1220 C 930.988281 1203.644531 930.722656 1184.054688 923.675781 1169 C 915.433594 1151.382813 899.386719 1137.515625 889 1121 C 879 1105 863.894531 1080.371094 845 1074 C 853.402344 1093.476563 867.707031 1110.078125 876 1130 C 860.734375 1113.425781 847.367188 1092.410156 824 1087 C 831.707031 1102.476563 849.335938 1113.296875 860.828125 1126 C 883.929688 1151.527344 900.535156 1176 913 1208 L 912 1208 C 899 1178.003906 873.835938 1149 851 1126 C 842.632813 1117.632813 833.636719 1105.714844 822 1102 C 824.195313 1116.667969 835.582031 1126.429688 842 1139 C 829.589844 1126.328125 817.929688 1106.277344 800 1101 C 805.835938 1116.820313 821.546875 1126.527344 831 1140 C 821 1130.164063 810.6875 1120.675781 801.753906 1110 C 797.339844 1104.722656 793.609375 1095.671875 788 1092 C 788.871094 1112.261719 803.527344 1126.527344 817 1140 C 795.835938 1128.203125 788 1110.148438 776 1091 C 768.53125 1103.464844 777.183594 1119.652344 784 1130 C 778.355469 1124.339844 773 1118.65625 770.347656 1111 C 769.1875 1107.757813 768.195313 1099 764.777344 1097.347656 C 761.664063 1096 761 1105.480469 761 1107 C 761.257813 1116 767.574219 1122.832031 772 1130 C 760.53125 1123.371094 748.40625 1102.558594 761 1091.328125 C 771.644531 1082 787.792969 1085.492188 800 1079.671875 C 816.714844 1071.699219 818 1052 827.355469 1038 C 832 1030.777344 839.761719 1022.386719 838.496094 1013 C 836.726563 1000 828.640625 974.371094 818.824219 965.328125 C 813.460938 960.386719 806 960 800 956.46875 C 794.433594 953.3125 790 948.253906 784 946.109375 C 774 942.679688 763.1875 945 753 945 C 741.800781 945 729.988281 942.492188 719 945.351563 C 712 947.167969 707 952.335938 701 956 C 694.867188 959.527344 687.546875 960.296875 682.183594 965.328125 C 672.460938 974.453125 663 1000.746094 662.214844 1014 C 661.550781 1024.679688 670.480469 1033.496094 675.546875 1042 C 680 1049.628906 682.261719 1058.164063 686.273438 1066 C 698.421875 1089.710938 723.953125 1076.332031 740.957031 1090.394531 C 754.675781 1101.734375 741.320313 1124.136719 729 1130 M 780 956 L 780 957 C 773.996094 958.113281 767.855469 958.167969 762 960.050781 C 757.6875 961.4375 753.65625 964.785156 749 964.789063 C 739.757813 964.800781 729.941406 957.785156 720 957 C 727.363281 953.085938 737 956 745 956.484375 C 756.425781 957.203125 768.484375 956 780 956 M 493 1065 C 506 1056.792969 514.703125 1043.148438 525 1032 C 550.9375 1004.246094 582.878906 975.828125 623 975 L 623 976 C 595.351563 977.265625 563.613281 1008.214844 559 1035 C 569 1027.808594 574 1015.566406 583 1007.089844 C 597.886719 993 617.554688 986.734375 637 982 C 644.960938 980 652.917969 978.175781 661 976.75 C 663.621094 976.289063 668.40625 976 669.246094 972.773438 C 671 966.15625 657.285156 963 653 962.011719 C 634.214844 957.71875 613 953.15625 594 958.15625 C 560.234375 967.007813 533.992188 1003.46875 514 1030 C 506.472656 1040.222656 496 1052.398438 493 1065 M 943 1035 C 936.390625 1014.71875 922 995.183594 903 985 C 895.621094 981 886.828125 979.035156 879 976 L 879 975 C 911.699219 981.074219 936.625 992.699219 960.714844 1016.425781 C 975.8125 1031.292969 988.851563 1054.226563 1008 1064 C 1005 1051.53125 995.285156 1041.199219 988 1031 C 967.449219 1002.226563 937.617188 962.15625 900 957 C 882.300781 954.382813 864 958.21875 847 962.628906 C 842.269531 964 832 965.808594 831.464844 972 C 830.765625 978.136719 853.425781 980 858 980.800781 C 878.445313 985 900.175781 991 915.960938 1005.289063 C 925.566406 1014.027344 930.953125 1029.382813 943 1035 M 739 999 C 728.777344 994.75 717.417969 988 706 991.597656 C 695.820313 995 683.582031 1006.808594 680 1017 C 677.304688 1024.722656 686.707031 1034 694 1034.578125 C 702.808594 1035.457031 709.574219 1027.140625 717 1024 C 710.925781 1041.800781 689.371094 1045.789063 678.75 1030 C 676 1026.15625 673.507813 1021.710938 673 1017 C 672.625 1011.296875 675.488281 1006.292969 677 1001 C 681 988 687 964.804688 705.851563 967.1875 C 711.324219 968 706 974.148438 705.964844 977 C 705.808594 980.484375 709 982.660156 712 983.734375 C 723.230469 988 733.632813 985.144531 739 999 M 785 1024 C 789.617188 1027.15625 793.65625 1031 799 1033 C 808.886719 1036.539063 823.640625 1031 820.96875 1018 C 818.566406 1006.421875 803.3125 993.46875 792 991.316406 C 779.804688 989 771.566406 995.445313 761 1000 C 764 993.464844 769.609375 987.066406 777 985.394531 C 781.578125 984.355469 786.683594 985.285156 790.941406 983 C 797.191406 979.238281 790.277344 968.496094 794.332031 967.359375 C 813.191406 962.066406 819.863281 990.464844 824 1002 C 825.960938 1007.246094 828.636719 1012.234375 827.785156 1018 C 826.5 1026.71875 817.277344 1039.113281 808 1040 C 798.65625 1040.648438 783.347656 1035.382813 785 1024 M 690 1049 C 704.800781 1048.363281 727 1046 728 1027 C 737.394531 1031.636719 734.285156 1045.132813 728.46875 1051.816406 C 718.535156 1063.222656 698.347656 1060.574219 690 1049 M 773 1027 C 775.792969 1045.636719 795.195313 1049 811 1049 C 801.597656 1060 786.503906 1063 775 1053.609375 C 767.605469 1047.625 762.714844 1032.699219 773 1027 M 959 1030 C 961.363281 1040 968 1048.035156 972.742188 1057 C 981.3125 1073.605469 989.53125 1090.789063 994 1109 C 1001.351563 1138 1001 1167.484375 1001 1197 C 1001 1227 1002.894531 1257.515625 997.574219 1287 C 992.277344 1316.371094 981.191406 1341.71875 970 1369 C 990.515625 1359.433594 1003.417969 1324.632813 1011.851563 1305 C 1036.460938 1247.695313 1045.726563 1183.816406 1037 1122 C 1033.828125 1098.257813 1027.976563 1066.785156 1007 1052 C 1008.71875 1063.625 1015.828125 1073.699219 1018.84375 1085 C 1022.84375 1100 1022 1115.648438 1022 1131 C 1004 1110.296875 994.699219 1080.496094 980.601563 1057 C 974.96875 1047.613281 969 1035.203125 959 1030 M 481 1131 L 480 1131 C 479.339844 1115.582031 478.257813 1101.164063 482.425781 1086 C 485.605469 1074.425781 492.988281 1063.683594 495 1052 C 474 1067 466.808594 1103.214844 463.71875 1127 C 455.582031 1189.640625 465.375 1258.234375 493.753906 1315 C 502.933594 1333.363281 512.390625 1358.242188 531 1369 C 529 1360.664063 523.59375 1353.800781 520.226563 1346 C 512.613281 1328.339844 504.832031 1306.347656 504 1287 L 505 1287 C 506 1313.265625 524.96875 1346.019531 539.722656 1367 C 545.445313 1375.140625 552 1385 562 1388 C 555 1376 544 1367.078125 538.429688 1354 C 525.800781 1324.738281 522.964844 1293.335938 519.832031 1262 C 516.996094 1233.636719 514.222656 1205.449219 513 1177 L 511 1177 C 509.65625 1208.308594 502 1238.351563 502 1270 L 501 1270 C 501 1218.792969 495 1163.214844 506.652344 1113 C 510.699219 1095.339844 517.195313 1078.21875 525.246094 1062 C 529.960938 1052.511719 538 1042.472656 540 1032 C 530.632813 1037.367188 524.210938 1050 518.800781 1059 C 505.324219 1081.507813 491 1107 481 1131 M 575 1134 C 595.96875 1125.269531 602.234375 1103.09375 619 1089.46875 C 630.964844 1079.746094 651.625 1074.015625 658 1059 C 626 1059.265625 610.890625 1091 594 1113 C 588.40625 1120.472656 578.992188 1125.4375 575 1134 M 842 1059 C 851.601563 1072.515625 869 1078.070313 881 1089.09375 C 896.542969 1103.390625 904.847656 1126.667969 926 1134 C 921.867188 1124.269531 911 1118.1875 904.515625 1110 C 887.289063 1088.34375 873.722656 1059.019531 842 1059 M 670 1125 C 668.925781 1127.582031 667.597656 1129.695313 666 1132 L 665 1132 C 666.34375 1129.183594 667.707031 1127.113281 670 1125 M 722 1125 C 716 1133.328125 707.3125 1139.121094 698 1143 L 698 1142 L 722 1125 M 626.667969 1128.667969 C 626.722656 1128.722656 626.777344 1129.777344 626.332031 1129.332031 C 626.277344 1129.277344 626.222656 1128.222656 626.667969 1128.667969 M 729 1130 L 728 1131 L 729 1130 M 773 1130 L 772 1131 L 773 1130 M 785 1130 C 789.867188 1133.605469 794.503906 1137.398438 800 1140 L 800 1141 C 794.851563 1139.371094 786.402344 1135.605469 785 1130 M 877 1130 L 876 1131 L 877 1130 M 665 1133 C 663.898438 1134.457031 663.457031 1135 662 1136 C 663 1134.542969 663.542969 1134.101563 665 1133 M 686 1139 C 685.453125 1140.636719 685.636719 1140.453125 684 1141 C 684.546875 1139.363281 684.363281 1139.546875 686 1139 M 670 1140 C 668.898438 1141.457031 668.457031 1142 667 1143 C 668 1141.542969 668.542969 1141.101563 670 1140 M 819 1142 C 817.363281 1141.453125 817.546875 1141.636719 817 1140 C 818.636719 1140.546875 818.453125 1140.363281 819 1142 M 832 1140 L 835 1144 C 833.242188 1142.621094 832.460938 1142.105469 832 1140 M 802 1141 L 801 1142 L 802 1141 M 742 1164.332031 C 742.773438 1164.332031 742 1164.832031 741.667969 1164.667969 L 742 1164.332031 M 760 1164.332031 C 760.773438 1164.332031 760 1164.832031 759.667969 1164.667969 L 760 1164.332031 M 988 1177 C 987.4375 1204.230469 983.792969 1232 981.171875 1259 C 978.472656 1287 976.621094 1315.296875 967.304688 1342 C 961.316406 1359.164063 947.792969 1371 941 1387 C 957.214844 1381 965.980469 1361.53125 973.246094 1347 C 993.320313 1307 1002.808594 1269 997.285156 1224 C 995.648438 1210.671875 997.894531 1187.230469 988 1177 M 749 1399 C 746.261719 1385 744.652344 1370.238281 738.6875 1357 C 721.914063 1319.765625 693.578125 1285.753906 706.722656 1242 C 710 1231 718 1224.152344 724.429688 1215 C 728.675781 1209 726.964844 1195 717.984375 1193.660156 C 712.265625 1192.8125 708.507813 1201 706.308594 1205 C 698.847656 1218.753906 693 1232.738281 689.652344 1248 C 679.285156 1293.246094 708.363281 1330.320313 731.65625 1366 C 735.769531 1372.304688 739.785156 1379 742.535156 1386 C 744.351563 1390.640625 744.597656 1396.089844 749 1399 M 753 1399 C 761 1391 764.613281 1374.121094 771 1364 C 793.601563 1328.582031 820.742188 1292.585938 812.195313 1248 C 809.355469 1233.183594 803.257813 1219.019531 795.714844 1206 C 793.789063 1202.671875 789.777344 1194.320313 785 1195 C 775.46875 1196.132813 775.40625 1209.269531 779.492188 1215 C 785.410156 1223.300781 791.566406 1230 794.5625 1240 C 812.425781 1299.695313 754.175781 1342.023438 753 1399 M 958 1205 L 958 1210 L 957 1210 C 957 1208.035156 957.222656 1206.769531 958 1205 M 914 1208 L 916 1212 C 914.371094 1210.484375 913.835938 1210.144531 914 1208 M 586 1211 L 585 1212 L 586 1211 M 762 1215 C 763.910156 1237 775.171875 1254.015625 768.277344 1277 C 765.910156 1285 760.660156 1295.679688 751 1295.800781 C 741.46875 1296 735.644531 1285 733.429688 1277 C 727.265625 1255.167969 738.269531 1237.191406 740 1216 C 728.355469 1220.546875 722.621094 1236.664063 720.210938 1248 C 712.65625 1283.53125 731 1317.539063 753 1344 C 757.53125 1330.722656 765.503906 1320.449219 771.730469 1308 C 781.527344 1288.40625 785.875 1265.40625 780.371094 1244 C 777.5625 1233.085938 772 1221 762 1215 M 589 1224 C 582 1251 585.910156 1278.652344 593.425781 1305 C 595.96875 1314 600.867188 1322.023438 603 1331 C 596 1326 593.285156 1317.667969 590 1310 C 581.871094 1291.027344 577.621094 1269.644531 580.578125 1249 C 581.796875 1240.507813 582.613281 1230.324219 589 1224 M 914 1224 C 927.539063 1259.097656 921.953125 1300.082031 900 1331 L 899 1331 C 902.507813 1307.246094 913.511719 1285.359375 915.828125 1261 C 916.5 1254 916.574219 1246 915.570313 1239 C 914.898438 1234.304688 912.378906 1228.527344 914 1224 M 602 1404 C 599 1394.355469 590.875 1387.183594 585.359375 1379 C 575.699219 1364.671875 566.917969 1348 563 1331 L 564 1331 C 572.320313 1360 602.339844 1381.28125 623 1401.039063 C 630.359375 1408.074219 640.410156 1421 652 1418 C 641.578125 1403.214844 624.3125 1392.710938 612.285156 1379 C 593.621094 1357.722656 580.542969 1332.410156 566.578125 1308 C 561 1298.523438 556 1288.566406 553 1278 C 552.59375 1276 551.542969 1268.257813 548.203125 1269 C 545 1269.527344 545 1275.71875 544.730469 1278 C 543.269531 1288.113281 544.324219 1298 546 1308 C 551.972656 1341.523438 568.964844 1388.28125 602 1404 M 850 1419 C 861.207031 1419 869 1409.292969 877 1402.285156 C 894 1387.355469 910 1370.089844 923.625 1352 C 928.984375 1345 936.273438 1337 938 1328 L 939 1328 C 937.460938 1347 924.636719 1366.746094 914.253906 1382 C 909.542969 1389 902.585938 1395 900 1403 C 909.90625 1398.671875 916.738281 1390.226563 923.386719 1382 C 940.46875 1361 950 1334.558594 954.75 1308 C 956.523438 1297.796875 957 1288.269531 956 1278 C 955.851563 1275.628906 955.941406 1269.519531 952.691406 1269 C 949.289063 1268.296875 948.429688 1275 947.847656 1277 C 944.929688 1287.5625 939.890625 1297.378906 934.78125 1307 C 921.515625 1332 907.566406 1357.617188 888.84375 1379 C 881.296875 1387.617188 873.511719 1396.140625 865 1403.828125 C 859.730469 1408.589844 853 1412.425781 850 1419 M 1071 1273 L 1071 1276 L 1070 1276 C 1070.25 1274.546875 1070.316406 1274.246094 1071 1273 M 503 1274 L 503 1280 L 502 1280 C 502 1277.746094 502 1276.050781 503 1274 M 504 1281 L 504 1287 L 503 1287 C 503 1284.746094 503 1283.050781 504 1281 M 940 1325 L 940 1328 L 939 1328 C 939.25 1326.546875 939.316406 1326.246094 940 1325 M 562.667969 1328.667969 C 562.722656 1328.722656 562.777344 1329.777344 562.332031 1329.332031 C 562.277344 1329.277344 562.222656 1328.222656 562.667969 1328.667969 "/>
</g>
</svg>
