<?xml version="1.0" encoding="UTF-8"?>
<svg xmlns="http://www.w3.org/2000/svg" xmlns:xlink="http://www.w3.org/1999/xlink" width="1500pt" height="1500pt" viewBox="0 0 1500 1500" version="1.1">
<g id="surface1">
<path style=" stroke:none;fill-rule:nonzero;fill:rgb(0%,0%,0%);fill-opacity:1;" d="M 279 543 L 280 543 C 276.902344 582.226563 272.335938 622.0625 266.574219 661 C 263.777344 680 257.875 699 257 718 C 256.445313 731.601563 257.589844 744.78125 260.894531 758 C 262.847656 765.820313 267 774 267.609375 782 C 268.203125 790 265 798.304688 263.753906 806 C 261.207031 821.242188 259 836.59375 258 852 C 256.617188 873.519531 262.835938 895 261.726563 916 C 260.976563 930.148438 248.910156 947.082031 244.71875 961 C 236.265625 989.070313 232.730469 1018.804688 232 1048 C 229.394531 1155 286.320313 1258.320313 360 1332 C 383.550781 1355.550781 414.347656 1387.667969 447 1398 C 437.714844 1386.765625 421.390625 1378.722656 410 1369.386719 C 389.402344 1352.503906 370.464844 1333.464844 353.433594 1313 C 293 1240.5625 248.671875 1140.628906 251 1045 C 251.800781 1013 263.390625 983.335938 268 952 L 269 952 C 269.539063 978.1875 269.585938 1006.046875 273.425781 1032 C 278.3125 1065.007813 288.714844 1096.390625 299 1128 L 300 1128 C 299.375 1114.3125 291.800781 1100.5 289 1087 C 283 1058.25 280 1029.324219 280 1000 L 281 1000 C 284 1038.535156 317 1081.367188 344 1106.828125 C 357.1875 1119.273438 375.191406 1129.324219 386.769531 1143.039063 C 392 1149.410156 386.230469 1155.035156 386.644531 1162 C 386.96875 1167.492188 393 1178.773438 395.820313 1184 C 405.890625 1203.648438 423.621094 1219.566406 437.472656 1236.09375 C 444.804688 1245 447 1256.429688 455 1265 C 478.605469 1290.375 519.167969 1302 550 1282.5625 C 559.246094 1276.75 568.394531 1267.386719 569.816406 1256 C 571.433594 1243.035156 563.980469 1227.03125 580 1220.484375 C 588.886719 1217 598.28125 1222.109375 607 1224 C 622 1227.21875 640.613281 1227.484375 654 1219 C 643.308594 1251.796875 619.234375 1282.167969 589 1299 L 589 1300 C 622.585938 1297.066406 663 1258.09375 668 1225 L 669 1225 C 667.691406 1235.339844 664 1258.722656 675 1265 C 668 1243.394531 679 1220.339844 693 1204 C 702.679688 1234.269531 706 1266 694 1296 C 689 1308.257813 683.890625 1319.222656 672 1326 C 676.996094 1315.320313 680.96875 1304 681 1292 L 680 1292 C 674.359375 1312 664 1335.195313 644 1344 C 647.445313 1335.726563 652.652344 1328 654 1319 C 640.9375 1329.789063 632.734375 1342.621094 617 1351 L 623 1335 C 612.261719 1339.546875 605.691406 1349 593 1349 C 590.710938 1349 581.90625 1349.097656 582.632813 1345.039063 C 583.617188 1339.507813 595.253906 1335 598 1329 C 582.207031 1335.574219 567.730469 1346 550 1346 L 550 1345 C 556.949219 1343.367188 566.289063 1337.136719 570 1331 C 562 1333.296875 554.960938 1338.101563 547 1340.5625 C 529 1346.117188 510.632813 1347 492 1347 C 496.613281 1356.683594 509.351563 1359 519 1360.410156 C 534.683594 1363 550.3125 1360.671875 566 1362.171875 C 579.679688 1363.476563 593.238281 1367.648438 607 1368 C 620.34375 1368.3125 633.472656 1367.625 646 1362.546875 C 656 1358.4375 664.640625 1351.09375 675 1347.441406 C 679.9375 1345.699219 685 1346.710938 690 1345.195313 C 699.199219 1342.359375 705.859375 1337.0625 716 1336.175781 C 721.863281 1335.660156 727.175781 1338.726563 733 1338.390625 C 738.796875 1338.058594 744 1335 750 1335.132813 C 754.820313 1335.304688 759 1337.828125 764 1338 C 775.875 1338.230469 785 1336.628906 797 1339.53125 C 801.730469 1340.683594 805.269531 1344.324219 810 1345.46875 C 814.992188 1346.671875 820 1345.800781 825 1347.546875 C 835.320313 1351.183594 843.933594 1358.433594 854 1362.546875 C 871.375 1369.644531 889.847656 1368.777344 908 1365.753906 C 932.242188 1361.714844 956.792969 1364.484375 981 1360.414063 C 990.535156 1358.8125 1002.492188 1356.582031 1007 1347 C 990.898438 1347 974.640625 1347 959 1342.570313 C 948.640625 1339.648438 939.375 1333.464844 929 1331 C 933.730469 1337.574219 941.207031 1342.75 949 1345 L 949 1346 C 929.820313 1346 917.519531 1335 900 1329 C 902.804688 1334.234375 915.945313 1340 915.945313 1345.710938 C 915.945313 1349.265625 908.230469 1349 906 1349 C 893.171875 1349.082031 886.851563 1339.59375 876 1335 C 877.503906 1340.496094 879.941406 1345.691406 882 1351 C 872.871094 1345.664063 864.527344 1340.582031 857 1333 C 852.839844 1328.804688 849.820313 1322.148438 845 1319 C 847 1328 851.539063 1335.691406 855 1344 C 842.675781 1337.136719 834 1327.519531 827.757813 1315 C 824.628906 1308.832031 822.667969 1297 817 1293 C 819.238281 1304.539063 822.757813 1315.0625 827 1326 C 815.339844 1319.5 810.191406 1309 805.398438 1297 C 792.179688 1264 800 1237.289063 805 1204 C 821.648438 1218.789063 828 1244 824 1265 C 834.910156 1257.554688 830 1237 830 1226 L 831 1226 C 836.296875 1261.371094 874.777344 1293.144531 908 1300 C 902.714844 1292 889.320313 1287 882.171875 1279.828125 C 865.753906 1263.414063 853.746094 1241.316406 845 1220 C 858.539063 1223.8125 872.863281 1226.71875 887 1224.699219 C 898 1223.109375 911.316406 1214.746094 922 1222 C 936.1875 1231.292969 925.484375 1246.65625 930 1260 C 939 1285.730469 969.652344 1293.617188 994 1292 C 1015.324219 1290.414063 1036.523438 1276.144531 1048.558594 1259 C 1053.386719 1252.125 1055.34375 1243.675781 1060.761719 1237.175781 C 1074.980469 1220.101563 1094.605469 1202.761719 1103.964844 1182 C 1106.332031 1176.75 1111.507813 1167.484375 1111.851563 1162 C 1112.3125 1154.644531 1107 1150 1112 1143 C 1121.765625 1129.558594 1137.851563 1121.761719 1150 1110.828125 C 1173.976563 1089.25 1194 1061.359375 1207.304688 1032 C 1212 1021.578125 1217.472656 1009.5625 1218 998 L 1219 998 C 1219 1028.539063 1215.183594 1059.210938 1208.347656 1089 C 1204.914063 1104 1198.226563 1119 1196 1134 L 1197 1134 C 1218.289063 1097.523438 1225 1050.507813 1227.910156 1009 C 1229.179688 990.457031 1225.605469 971.242188 1230 953 C 1245.851563 986.488281 1248.632813 1028.652344 1247 1065 C 1243 1156.523438 1201.609375 1247 1142.570313 1316 C 1124.625 1337 1104.40625 1356.320313 1083 1373.738281 C 1073.757813 1381.257813 1056.996094 1388.800781 1051 1399 C 1085.472656 1381 1114.527344 1356.472656 1142 1329 C 1221.898438 1249.101563 1270.949219 1141 1265.960938 1027 C 1264.851563 1001.714844 1258.941406 976 1250.65625 952 C 1246.882813 941.132813 1237.554688 928.382813 1236.753906 917 C 1235.285156 896.097656 1241.375 874.386719 1239.910156 853 C 1238.882813 838.003906 1237.195313 823 1234.714844 808 C 1233.34375 799.792969 1230.195313 791.417969 1230.597656 783 C 1231 774.085938 1235.480469 765.582031 1237.625 757 C 1240.671875 744.820313 1241.507813 732.523438 1240.960938 720 C 1240.167969 702 1234.910156 684 1232.273438 666 C 1227.867188 636.113281 1225.835938 606.011719 1222.832031 576 C 1221.628906 564 1218.515625 552.046875 1218 540 C 1227 564.152344 1219.226563 595.226563 1233.246094 617 C 1248.171875 640.175781 1295.847656 663.179688 1311.332031 629 C 1317.660156 615.03125 1314 599.351563 1307.972656 586 C 1305.644531 581 1296.199219 569.515625 1299.542969 564.039063 C 1303.96875 556.785156 1315.980469 551.210938 1323 546.691406 C 1340.667969 535.316406 1358.390625 525.613281 1372.910156 510 C 1401.273438 479.5 1400.632813 444.367188 1411.722656 407 C 1417.296875 388.210938 1427.960938 370.28125 1424.855469 350.089844 C 1423.851563 343.570313 1416.949219 337 1413.96875 331 C 1408.320313 319.769531 1406 307.144531 1400.214844 296 C 1390.578125 277.558594 1374 264.308594 1358 251.792969 C 1317.960938 220.679688 1266.546875 203.199219 1219 187.003906 C 1196 179.171875 1173.445313 174.691406 1152 162.574219 C 1136 153.554688 1120.675781 143.53125 1106 132.523438 C 1093.289063 123 1081 111.828125 1066 106.066406 C 1043.324219 97.386719 1020 102.160156 997 97.179688 C 979 93.289063 966.4375 85.664063 947 87.089844 C 935.789063 88 922.898438 92.671875 914 99.527344 C 908.855469 103.492188 903 113.339844 896 113.445313 C 885.257813 113.609375 874.179688 102.730469 865 98.257813 C 847.453125 89.707031 827.527344 85.21875 808 87.171875 C 793.269531 88.644531 779.695313 96.140625 769 106.171875 C 763.902344 111.003906 757.851563 123.097656 750 123.1875 C 740.472656 123.296875 733.964844 110.804688 727.996094 105.039063 C 717.851563 95.238281 704.238281 88.085938 690 87.089844 C 671.84375 85.816406 653.492188 89 637 96.78125 C 626.691406 101.648438 615.652344 112.046875 604 113 C 596.253906 113.5625 589.210938 102.4375 583 98.4375 C 570.71875 90.53125 555.675781 85.660156 541 86.015625 C 525 86.398438 512.917969 95.496094 498 97.699219 C 472.867188 101.410156 449.578125 97.058594 426 109.257813 C 412.902344 116.035156 401.847656 126.203125 390 135 C 371.617188 148.257813 352.601563 160.496094 332 170.21875 C 314.882813 178.300781 295.929688 182 278 187.746094 C 230.359375 203.171875 180.851563 221.441406 141 252.117188 C 125.6875 264 109.660156 276.25 99.464844 293 C 93.753906 302.382813 91.964844 313.101563 87.5625 323 C 80.769531 338.257813 72.449219 347.226563 74.171875 365 C 76 384.675781 87.871094 403.359375 91.800781 423 C 98.230469 455.152344 102.8125 487.078125 126.285156 512 C 139.558594 526 157.550781 535.644531 174 545.398438 C 182.332031 550.335938 193.390625 555.378906 198.644531 564 C 202.988281 571 192.796875 580.820313 189.890625 587 C 181.714844 604.390625 179.789063 630 198 642 C 210.441406 650.105469 225.632813 646.519531 238 640.242188 C 252.597656 633 267 620.464844 271 604 C 273.328125 594.699219 272.179688 585.355469 273.285156 576 C 274.597656 565 278 554.074219 279 543 M 442 274 C 464.445313 251.558594 485.371094 227.601563 510 207.425781 C 529.207031 191.6875 551 179.796875 571 165.117188 C 593.632813 148.460938 614.683594 129 640 116.269531 C 659.816406 106.363281 688.570313 99 709 111.09375 C 713.757813 114 727.832031 122.707031 725.339844 129.726563 C 723.476563 135 708.796875 139.355469 704 141.753906 C 683 152.179688 660.863281 160.058594 641 172.425781 C 620.492188 185.191406 602.289063 201.242188 582 214.308594 C 566.785156 224.105469 550 231.460938 535 241.34375 C 497.597656 265.757813 462.566406 294.433594 431 326 C 448.195313 315.289063 462.664063 300 479 288 C 510 265 543.660156 244.765625 579 229.140625 C 601.292969 219.28125 627.519531 207.769531 652 217.066406 C 669.800781 223.824219 678.515625 241 691 254 C 684.566406 235 672.34375 215.273438 653 207.453125 C 643 203.414063 632.511719 203.328125 622 202 L 622 201 C 642.941406 191.210938 659.894531 173.527344 682 166 C 679.871094 170.554688 676.511719 175 675.96875 180 C 674.238281 196.238281 691.390625 207.242188 698 220 L 699 220 C 695.589844 207.503906 688.535156 194.226563 692.300781 181 C 697.21875 163.726563 715.773438 154 731 147.140625 C 736.304688 144.792969 742 141.332031 748 141.132813 C 754 141 759.660156 144.253906 765 146.574219 C 780 153.117188 798.613281 161.664063 804.929688 178 C 809.984375 191.0625 804.421875 207.765625 799 220 C 807.882813 212 823.78125 193 822.773438 180 C 822.355469 174.636719 818.550781 170.484375 816 166 C 840.308594 169.589844 855.4375 191.695313 877 201 L 877 202 C 865.371094 203.46875 853.949219 203.613281 843 208.515625 C 824.414063 217 814 236.574219 808 255 C 821.777344 241.421875 827.847656 223.359375 848 216.75 C 873.65625 208.335938 901 220.371094 924 231.21875 C 975.9375 255.734375 1025.703125 288.042969 1068 327 C 1057.648438 312.304688 1041.730469 301.09375 1028 289.75 C 993.65625 261.375 957.921875 239.707031 920 216.796875 C 897.292969 203.078125 877.539063 185.054688 855 171.0625 C 835.777344 159.132813 814.167969 152 794 141.753906 C 789.214844 139.359375 775.480469 135.480469 773 130.605469 C 769.976563 124 786.410156 113.460938 791 111 C 813.277344 98.324219 840.652344 108.320313 862 118 C 886 128.640625 904.988281 148.648438 926 164.117188 C 946.933594 179.523438 969.84375 192.117188 990 208.613281 C 1013.480469 227.832031 1033.59375 250.59375 1055 272 C 1048.507813 260.605469 1038.628906 251.015625 1030.246094 241 C 1008.296875 214.761719 983.917969 190.195313 956 170.289063 C 943.570313 161.429688 930 153.558594 919 143 C 915 139.214844 909.46875 135 909 129 C 908.53125 117.539063 924 110 933 106.695313 C 939.773438 104.226563 947.703125 101.824219 955 102.210938 C 980.351563 103.550781 997.488281 128 1022 133.210938 C 1058.667969 141.128906 1094.398438 170.832031 1114.921875 202 C 1128.46875 222.574219 1137.585938 245.8125 1151.722656 266 C 1165.855469 286.179688 1188.375 300.121094 1198.6875 323 C 1205.996094 339.210938 1203.875 358.683594 1205 376 C 1207 404.292969 1211.503906 433.472656 1221.8125 460 C 1235.246094 494.574219 1257.414063 525.355469 1276.398438 557 C 1286 573.042969 1299 590.761719 1300.671875 610 C 1302.589844 632.347656 1281 634.5625 1266 626 L 1266 625 C 1277.957031 628.78125 1284 621.683594 1279.769531 610 C 1272.851563 591.375 1262.625 573.746094 1253.753906 556 C 1234.203125 517 1210 478.539063 1196 437 C 1188.507813 415 1194.578125 391.691406 1189.574219 369 C 1184 344.089844 1168.851563 323.09375 1161 299 L 1167 301 C 1157.46875 289.296875 1145 280.496094 1135.4375 269 C 1116.488281 246.550781 1100.339844 221.71875 1078 202.289063 C 1068 193.601563 1054.914063 190.214844 1045 182 C 1052.949219 178.640625 1061.527344 179 1070 179 L 1070 178 C 1056.582031 174.527344 1041.878906 169.597656 1028 169 L 1028 168 C 1032.890625 167 1037 167.378906 1042 168 L 1042 166 C 1029.5 165 1014.503906 158 1003 153 L 1003 152 C 1007.4375 152 1011.660156 152 1016 153 C 1005.359375 142.335938 979.632813 133.386719 965 130 C 967.226563 132.058594 972.597656 135.335938 972.652344 138.734375 C 972.742188 144 954.664063 144.535156 951 145 L 951 146 C 963.171875 147.539063 975.371094 149.277344 987 153.34375 C 999.753906 157.804688 995 163.089844 984 164 L 984 165 C 1001.332031 169.175781 1010 178 1023 190 C 1028.433594 195 1034.671875 199 1039 205 C 1034.214844 205 1029.683594 204 1025 203 C 1029.964844 207.570313 1036.351563 211.335938 1040 217.003906 C 1042.1875 220.050781 1041.75 224.515625 1043.886719 227.1875 C 1053.578125 239.316406 1067.941406 246.542969 1076 261 C 1069.679688 259.496094 1064 256.089844 1058 254 C 1070.460938 271.761719 1090 284.035156 1101 303 C 1092.429688 300.082031 1085.304688 295.230469 1078 290 C 1087.707031 303.78125 1105.332031 310.605469 1113 326 L 1104 322 C 1113.746094 331.667969 1128 340.242188 1134 353 L 1131 352 C 1145.5 378.144531 1162.570313 402.707031 1172.945313 431 C 1196.929688 496.394531 1199.535156 566.484375 1206.171875 635 C 1209.625 670.675781 1221.203125 706 1216.714844 742 C 1212.621094 775 1194.742188 803.757813 1185 835 C 1174 870.167969 1165.671875 906.296875 1153.308594 941 C 1150.402344 949.160156 1147 957.214844 1143.257813 965 C 1142 967.257813 1140.710938 972.589844 1137.765625 973.078125 C 1131.210938 974.167969 1127.78125 955.273438 1128.285156 951 C 1131.203125 926.265625 1138.347656 905.484375 1146 882 L 1147 882 C 1145.328125 895 1141.472656 908.621094 1135 920 L 1142 919 C 1139.496094 927.628906 1133.882813 934.542969 1131 943 L 1137 937 C 1136.542969 942.734375 1135 948.359375 1134 954 C 1141.390625 945.308594 1142.679688 934.515625 1148.363281 925.015625 C 1150.3125 921.757813 1155.265625 919.539063 1156.1875 916 C 1157.484375 910.761719 1153.46875 904.640625 1154.464844 899 C 1155.390625 893.769531 1159.511719 889.152344 1159.933594 884 C 1160.65625 875.125 1152 870.527344 1155.347656 860 C 1165 828.359375 1182.621094 799.585938 1185.828125 766 C 1188.480469 738.246094 1181.796875 710.476563 1179.171875 683 C 1176.769531 658 1178 632.25 1178 607 C 1178 562.726563 1186.449219 514.605469 1171.65625 472 C 1153.996094 421.140625 1110.324219 386.820313 1091 337 L 1090 337 C 1104.261719 388.746094 1147.363281 425.636719 1160.625 478 C 1167.585938 505.480469 1166 533.070313 1164 561 C 1162.425781 585.265625 1162 609.707031 1161 634 C 1159 678.746094 1175 723.265625 1169.714844 768 C 1163.710938 818.703125 1135.957031 862 1121 910 C 1117 922.8125 1111.855469 937.382813 1113.171875 951 C 1115.402344 974.144531 1127.566406 995.351563 1125.910156 1019 C 1125.210938 1029 1117.199219 1053.335938 1105.980469 1056.109375 C 1101 1057.316406 1099.792969 1050.402344 1099.300781 1047 C 1098.34375 1040.390625 1099 1033.515625 1097.210938 1027 C 1094.988281 1019.214844 1090.710938 1013.492188 1091 1005 C 1091.382813 996.25 1094 987.6875 1091.644531 979 C 1088.554688 967.640625 1080.925781 959.453125 1079.289063 947 C 1076.578125 926.371094 1078.324219 905.671875 1076.910156 885 C 1075.679688 867 1071.773438 849 1071 831 L 1072 831 C 1075.335938 855.757813 1086.722656 879.152344 1090.574219 904 C 1095.917969 938.441406 1094.226563 974.09375 1103 1008 L 1104 1008 C 1103.207031 989.535156 1100.222656 971.632813 1101 953 C 1102 929.21875 1107.410156 906 1103.726563 882 C 1099.410156 854.0625 1082 830.347656 1078.28125 802 C 1071.371094 750.707031 1067.5 692.316406 1029 653 C 1035.914063 673.300781 1048 691.4375 1054.65625 712 C 1063.59375 740 1065.398438 773.761719 1066 803 L 1065 803 C 1063.5625 785 1056.90625 766.28125 1051.71875 749 C 1031.996094 683.257813 994 625 973 560 C 988.398438 568 999.871094 586.105469 1011 599 C 1024.792969 615 1038.195313 631.125 1047.890625 650 C 1060.785156 675.101563 1066.730469 703 1073.882813 730 C 1078.210938 746.378906 1084.816406 762.09375 1087 779 L 1088 779 C 1087.640625 761.578125 1080 743.785156 1075.871094 727 C 1067.257813 692.535156 1060 657.261719 1040.304688 627 C 1026 605.105469 1006.308594 588.25 988 570 C 975 557.105469 964.316406 541.046875 949 530.75 C 934.925781 521.285156 917.664063 519.015625 902 513.304688 C 889.769531 509 879.9375 500 869 493.0625 C 847 479.511719 823.871094 471.796875 813.453125 446 C 786.597656 379.503906 817.316406 280 900 280 C 911 280.003906 921.648438 282.515625 932 286.425781 C 960.828125 297.308594 983.726563 318.421875 1008 336.625 C 1036.398438 358 1063.34375 373.292969 1084.574219 403 C 1094.402344 416.753906 1102.640625 431.648438 1109.691406 447 C 1113.734375 455.800781 1116.953125 468.648438 1123 476 C 1113.949219 432.144531 1094.914063 388.445313 1061 358.175781 C 1044.914063 343.816406 1024.636719 334.671875 1008 320.753906 C 972.660156 291.191406 931.640625 260.226563 883 265.167969 C 857.3125 267.777344 835.636719 282 818 300 C 812.453125 305.699219 808 312.164063 804 319 C 802.859375 321 800.988281 326 798 325.367188 C 792.832031 324.46875 792.445313 310 792 306 C 790.3125 287.070313 789.5625 263.398438 795 245 C 782.65625 253.769531 778.589844 269.132813 775 283 L 774 283 C 754.644531 250.816406 750 204.796875 750 168 L 748 168 C 748 197.269531 743.699219 226 735.28125 254 C 732.441406 263.464844 730.914063 276.394531 723 283 C 722.363281 268.359375 713.652344 254.511719 704 244 C 704 272.792969 711.78125 301.007813 701 329 L 700 329 C 683.273438 293.171875 645.890625 263.503906 605 264.019531 C 587.515625 264.238281 570.824219 270.144531 555 277 C 526.660156 289.28125 503 311 479 329.574219 C 464 341.152344 447 349.402344 433 362.171875 C 402.5625 389.707031 378.285156 435.726563 375 477 L 376 477 C 387.441406 436.683594 414.480469 394.710938 446 367.289063 C 459.539063 355.507813 475.789063 347.609375 490 336.765625 C 515.488281 317.308594 540 295 571 284.515625 C 614.199219 270 661.488281 291.515625 681.730469 332 C 693.652344 356 695.3125 384 692.828125 410 C 690.707031 432.308594 684.691406 455.535156 667 470.699219 C 654.703125 481.242188 638.917969 487 625 495 C 614.652344 500.792969 606 509.375 595 514.128906 C 579 521 561.179688 522.253906 547 533.039063 C 537 540.613281 530 551.34375 521 560 C 500.621094 579.445313 479.1875 597.589844 463 621 C 444.25 648.195313 435.664063 679.816406 425.976563 711 C 418.777344 734.164063 409.921875 758.667969 408 783 L 409 783 C 420.355469 737 431.511719 686.054688 454.308594 644 C 464.507813 625.191406 478.601563 608.8125 492.832031 593 C 502.925781 581.785156 512.316406 568.390625 525 560 C 523.324219 571.339844 517 581.726563 512.308594 592 C 506 605.632813 500.183594 619.433594 493.78125 633 C 475.59375 671.527344 458.542969 710.125 446.28125 751 C 441.488281 767 435.328125 784.316406 434 801 L 433 801 C 433.640625 770 435.9375 734.582031 446 705 C 451.855469 688.148438 466.414063 671.257813 469 654 L 468 654 C 456.203125 677.710938 440.558594 697 432.71875 723 C 423.5625 753.410156 425 785.496094 417 816 C 410.867188 839.683594 396.5625 861.28125 394.171875 886 C 391.949219 909 396.347656 931.175781 397.910156 954 C 399.179688 972.507813 396.449219 990.644531 395 1009 L 397 1009 C 397.25 997 401.679688 985.070313 402.828125 973 C 405.570313 944.230469 405 915.425781 411.425781 887 C 415.710938 867.597656 424.347656 848.6875 427 829 L 428 829 C 427.214844 847.289063 423.34375 865.683594 422 884 C 420.640625 905.171875 422.59375 927 419.570313 948 C 417.785156 960.4375 410.230469 968.613281 406.800781 980 C 404.554688 987.453125 406.90625 995.453125 406.996094 1003 C 407 1017.246094 401.746094 1031.8125 399.699219 1046 C 399.191406 1049.53125 397.988281 1057.078125 392.996094 1056.417969 C 389 1056 386.273438 1051 384 1048 C 377.839844 1039.320313 373.859375 1030.644531 372.425781 1020 C 369.667969 999.507813 381.460938 979 384.5625 959 C 387 942.546875 382.386719 925.515625 377.328125 910 C 362.539063 864.632813 335.414063 823.03125 329.285156 775 C 322.960938 725.441406 338.210938 675 336.984375 625 C 335.792969 576.351563 325.339844 526.058594 338 478 C 351 429.234375 390.597656 393.066406 406 345 L 405 345 C 386.882813 391.710938 344 423.007813 327.34375 471 C 312.386719 514.082031 320 563.101563 320 608 C 320 634 321.285156 660.214844 318.828125 686 C 316 715 309.5625 743.820313 313.285156 773 C 317 803.066406 333.5625 829.507813 342.65625 858 C 344 862.347656 345.859375 867.472656 344.273438 872 C 342.945313 875.777344 338.941406 878.78125 338.976563 883 C 339 887.804688 343.203125 892.101563 343.816406 897 C 344.539063 902.792969 341 910.757813 342.707031 916 C 343.863281 919.714844 349 922.445313 351 926.003906 C 356 934.390625 357.398438 947.050781 364 954 C 362.296875 948.613281 361.242188 942.648438 361 937 C 363.765625 939.046875 365.410156 941 367 944 L 368 944 C 364.492188 935.578125 358.375 928.183594 357 919 C 358.480469 919.164063 361.441406 919.828125 361.546875 917.414063 C 361.699219 914 357.328125 909.359375 356 906 C 353.441406 898.785156 352 890.664063 352 883 L 353 883 C 358.480469 906.125 367.457031 928.15625 370.546875 952 C 371 955.832031 366.253906 974 360.988281 973.078125 C 358.273438 972.605469 356.804688 968.097656 355.753906 966 C 351.859375 958.234375 348.882813 950.113281 345.808594 942 C 332.816406 907.722656 325.246094 871.734375 313.667969 837 C 303.273438 805.824219 285.621094 776 281.289063 743 C 276.675781 708 288.46875 673.699219 291.828125 639 C 298.367188 571.496094 300.695313 501.617188 323.691406 437 C 334.714844 406.027344 352.175781 380.421875 368 352 L 364 353 C 371.875 340.410156 385.558594 331.441406 396 321 C 392.679688 322.765625 389.535156 324.703125 386 326 C 394 312.042969 410.625 301.375 422 290 C 413.917969 294.480469 406.382813 300.082031 398 304 C 404.410156 284 428 270 441 254 C 435 256.488281 429.449219 260 423 261 C 430.183594 246.582031 444.324219 239.433594 454 227.789063 C 456.21875 225.289063 455.910156 221 457.855469 218.003906 C 461.695313 212.265625 468 208 473 203 L 459 206 C 463.304688 200 469.667969 196.054688 475 191 C 486.445313 180.019531 496.796875 166.144531 514 166 L 514 164 C 502.492188 163.058594 500 157.496094 512 153.34375 C 523 149.464844 534.261719 147 546 147 C 541.492188 142.757813 520.605469 143.3125 528.175781 134.191406 C 529.378906 132.742188 530.773438 131.4375 532 130 C 516.511719 136 494 139.644531 483 153 C 487 151.765625 491.675781 151.546875 496 151 C 493.1875 155.109375 487.539063 155.613281 483 157.027344 C 474 159.816406 465.644531 163.402344 457 167 L 457 168 L 471 168 L 471 169 C 456.625 170.136719 441.933594 174.394531 428 178 L 428 179 C 437.191406 179 445.3125 178.65625 454 182 L 454 183 C 417.71875 195.355469 396.757813 227.40625 373.996094 256 C 361.4375 271.773438 347.234375 285.765625 333 300 L 338 299 C 329.566406 325 313.328125 347.222656 307.425781 374 C 302.527344 396.214844 309.292969 418.203125 301.65625 440 C 287.691406 480 264 517.316406 245.246094 555 C 236.660156 572.171875 226.628906 589 220 607 C 215.855469 618.554688 219.476563 627.5 233 625 C 217.414063 640.707031 195.21875 626.46875 198.4375 606 C 201.242188 588.1875 213.203125 572.304688 222 557 C 241.636719 522.832031 265.980469 490.417969 279.308594 453 C 288.96875 426 291 397.382813 293.828125 369 C 295.410156 352.394531 292.925781 335.273438 301.3125 320 C 313.355469 298.070313 335.570313 283.640625 349.480469 263 C 361.878906 244.605469 369.601563 223.570313 381.695313 205 C 404.898438 169.367188 437.808594 142.675781 479 132.371094 C 501 127 515.953125 106.4375 538 102.464844 C 547.359375 100.777344 557.25 103.507813 566 106.695313 C 574.914063 110 590.703125 117.363281 589.683594 129 C 589 135.441406 582.546875 140.433594 578 144.246094 C 565.925781 154.367188 552.804688 163 540 172 C 503.207031 198.234375 464.578125 234.363281 442 274 M 489 113 L 489 114 C 475 120.132813 459.707031 121.070313 446 128 C 425.210938 138.433594 407.285156 155.714844 391 172 C 375.820313 187.179688 361.261719 201.601563 350 220 C 354 216.195313 356.722656 211.46875 362 209 C 360.242188 216.332031 355.527344 222.292969 352.257813 229 C 346.664063 240.480469 343.773438 255.050781 333 263 C 337.324219 249.730469 343.535156 237.191406 348 224 L 347 224 C 340.226563 241.457031 329.171875 256.773438 322 274 C 320.328125 269.71875 322.355469 264.339844 323.476563 260 C 327 246.191406 336.335938 233.628906 342.757813 221 C 356.261719 194.4375 377.175781 173.824219 398 153 C 411.183594 139.816406 424.351563 125.601563 442 118.453125 C 457 112.3125 472.964844 113 489 113 M 1178 273 C 1172.582031 268.355469 1170.90625 261.109375 1167.5625 255 C 1158.394531 238.253906 1151 220.265625 1139.347656 205 C 1123.78125 184.613281 1103.949219 167.183594 1084 151.199219 C 1073.460938 142.753906 1063.203125 133.613281 1051 127.605469 C 1037.804688 121.105469 1022.703125 119.285156 1009 114 C 1027.550781 106.214844 1058.714844 117.417969 1074 128.039063 C 1110.882813 153.664063 1140.789063 192.445313 1161.257813 232 C 1168.605469 246.195313 1176.691406 256.429688 1178 273 M 366 167 C 364.175781 170.652344 347.449219 189.386719 353 188 C 348.449219 199.769531 336.277344 207 330.324219 218 C 324.507813 229 316.617188 242.484375 312.75 254 C 308.773438 266 307.410156 278.355469 302.796875 290 C 297.421875 303.566406 287.617188 315 283.4375 329 C 273.5 362.574219 276.75 398.769531 270.574219 433 C 266 457.753906 255.300781 479.613281 242.398438 501 C 235.988281 511.625 229 527.605469 219 535 C 217.90625 529.105469 217.472656 523 217 517 L 216 517 C 214.695313 521.78125 212.785156 526.378906 211 531 L 210 531 C 201.1875 515.53125 185.84375 499.101563 174 486 L 178 511 L 177 511 C 172.839844 493.007813 163 477 163 458 L 161 458 C 160.453125 464.703125 158.753906 472.347656 155 478 C 146.933594 465.183594 146.820313 447.539063 145 433 L 144 433 C 143.445313 439.8125 140.910156 446.242188 140 453 L 139 453 C 120.21875 408 112.832031 366.765625 119 318 L 118 318 C 114.765625 330.496094 113.398438 343.40625 110.574219 356 C 108.335938 366 104.214844 375.660156 104 386 L 105 386 C 106.371094 379.433594 109.460938 373.496094 111 367 L 112 367 C 112 399 118.429688 432.351563 132.753906 461 C 137.859375 471.210938 143.492188 483.246094 153 490 C 150.730469 484 150 477.449219 150 471 L 151 471 C 153.714844 492.367188 167 514.289063 185 527 C 185 523.199219 184.917969 519.65625 186 516 C 199 525.429688 206 542.46875 208 558 C 197.816406 552.726563 190 542.765625 181 536 C 159.472656 519.75 133.921875 506.042969 121.371094 481 C 110.210938 458.738281 109.667969 433.753906 103.871094 410 C 100.386719 395.730469 87.195313 375.476563 89.21875 361 C 92.277344 339.085938 107.902344 323 118 304 L 111 305 C 117 286.074219 138.988281 272.335938 154 261 C 186.988281 235.726563 222.632813 224 261 210 C 283 202 304.300781 192 328 190 C 321.917969 203.003906 303.773438 204.191406 293 212 C 272 227 249 251.4375 238 275 C 256.1875 256 274.230469 226.6875 299 216 C 291.574219 228 280.269531 237.625 271.882813 249 C 244.78125 285.769531 216.3125 324.539063 195 365 C 223.320313 335.410156 245.410156 299.25 270.574219 267 C 281.292969 253.265625 291.585938 237.152344 306 227 C 298.746094 252.378906 282.554688 275.375 273 300 C 284.519531 285.011719 291.382813 267.503906 300.308594 251 C 310.207031 232.703125 321.628906 215.441406 334.351563 199 C 342.777344 188.105469 352.679688 172.160156 366 167 M 1135 167 C 1166.882813 193 1186 229.523438 1205.308594 265 C 1212.316406 278 1221.3125 290.414063 1227 304 L 1228 304 C 1217 277.496094 1202.976563 252.363281 1192 226 C 1207.191406 233.085938 1218.28125 254 1228 267 C 1253 300 1275.980469 335.574219 1304 366 C 1284 328.558594 1258 292.605469 1233.574219 258 C 1223.925781 244.359375 1209.386719 231.828125 1202 217 C 1226.253906 230.519531 1242.71875 256.664063 1262 276 C 1249 252.652344 1229.308594 229.023438 1208 213 C 1196.660156 204.320313 1178 203.457031 1171 190 C 1192.1875 191.671875 1212 200.679688 1232 207.332031 C 1266.445313 218.816406 1302.46875 230.390625 1330 255.171875 C 1341.605469 265.617188 1350.460938 278.332031 1359.425781 291 C 1364.84375 298.65625 1372.199219 306.46875 1376 315 L 1377 315 C 1370.28125 291.675781 1348.683594 275.507813 1337 255 C 1355.644531 263.820313 1380 286.203125 1387 306 L 1380 304 C 1387.980469 320.109375 1400 334.34375 1407 351 L 1403 351 L 1403 352 C 1410 356 1410.300781 362.800781 1408.359375 370 C 1404.695313 383.601563 1397.878906 396.132813 1395 410 C 1388.996094 439 1386.90625 472.054688 1367.53125 496 C 1354.496094 512.113281 1336.402344 522 1320 534.015625 C 1310.289063 541.179688 1302.46875 552.652344 1291 557 C 1291.304688 542.269531 1301.742188 525.164063 1313 516 L 1313 528 C 1320.859375 521.179688 1326.542969 512 1333.210938 504.042969 C 1335.457031 501.371094 1339.878906 499.675781 1341.4375 496.699219 C 1345 489.820313 1345.589844 479.542969 1348 472 L 1347 472 C 1345.90625 474.605469 1344.800781 476.828125 1343 479 C 1339.996094 472.015625 1338.898438 464.335938 1337 457 L 1336 457 C 1335.847656 475.402344 1326 491.457031 1322 509 L 1321 509 L 1324 486 L 1323 486 C 1318.277344 497.28125 1307.851563 511.746094 1298 519 L 1298 514 C 1295.71875 516.332031 1290.25 530.277344 1286.46875 528.078125 C 1283.273438 526.222656 1282.710938 519.800781 1280 517 L 1280 536 C 1269.488281 528.433594 1263.765625 513.75 1256.945313 503 C 1244.863281 484 1234 464.125 1228.882813 442 C 1220.691406 407.472656 1223.226563 371.75 1216.738281 337 C 1213.566406 320.003906 1204 305.652344 1197.425781 290 C 1192.554688 278.617188 1190.710938 266.390625 1185.988281 255 C 1180.390625 241.503906 1174 226.324219 1166.304688 214 C 1159.683594 203.578125 1151.851563 196.460938 1146.984375 185.574219 C 1144 179.054688 1134.523438 175 1135 167 M 1165 262 C 1155.3125 255 1152 241.453125 1147.21875 231 C 1143.925781 224.019531 1139 217.425781 1137 210 C 1152.1875 215.207031 1162.839844 247.363281 1165 262 M 349 220 L 348 224 L 349 224 C 349.464844 222.070313 349.574219 221.808594 349 220 M 792 425 L 791 425 L 790 417 L 789 417 C 789.246094 447 813.597656 473.714844 838 488 C 850 495.101563 863.664063 499 875 507.503906 C 893.886719 522 906.539063 542.191406 923 559 C 916.421875 547.1875 906.746094 537.292969 901 525 C 908 525.144531 914.394531 527.445313 921 529.667969 C 971.523438 546.675781 975.324219 601 996.246094 643 C 1006.644531 664 1017.886719 685.019531 1025.945313 707 C 1035.90625 734.160156 1041.238281 762.828125 1047.425781 791 C 1053.972656 820.808594 1060.640625 850.730469 1064.71875 881 C 1069.292969 915 1066.878906 949.023438 1070.171875 983 C 1073.351563 1016 1082.753906 1049.121094 1091 1081 L 1092 1081 C 1090.429688 1061.144531 1082 1042.027344 1082 1022 L 1083 1022 C 1084.515625 1040.578125 1092.597656 1059.40625 1098.328125 1077 C 1099.9375 1082 1103.910156 1092.472656 1097.773438 1096 C 1088.433594 1101.25 1085.683594 1074 1084.574219 1069 C 1080.175781 1049.375 1072.398438 1030.621094 1067.886719 1011 C 1064.933594 998.15625 1065 984.785156 1062 972 L 1061 972 C 1061 1011.332031 1067.335938 1051.382813 1079 1089 C 1081.707031 1097.632813 1085.453125 1106.144531 1087.332031 1115 C 1087.753906 1117 1089.230469 1123.285156 1086.398438 1124.246094 C 1083.417969 1125.261719 1080.453125 1121 1079 1119 C 1074.710938 1112.507813 1072.820313 1104.558594 1071.210938 1097 C 1064.378906 1065 1060.328125 1031.695313 1058 999 C 1056.808594 980.3125 1057.246094 961.480469 1053.550781 943 C 1049 920.445313 1040.957031 898.777344 1037.425781 876 C 1032 842.007813 1030 807.667969 1022.574219 774 C 1016.484375 746.421875 1006 719.613281 994.308594 694 C 978.199219 658.820313 962.699219 619 927 599 C 936.980469 608.554688 947.558594 616.765625 955.84375 628 C 972.996094 651.257813 981.753906 679.402344 992.203125 706 C 1000.898438 728.132813 1011 752.046875 1013 776 L 1012 776 C 1008.335938 760.539063 1000 746 994.691406 731 C 987.394531 710.519531 983.496094 688.527344 973.730469 669 C 962.292969 646.128906 944 627.613281 926 610 C 903 587.660156 878 563.824219 847 553.746094 C 811.367188 542.199219 773.558594 549 737 549 C 698 549 661 544.289063 626 565.449219 C 586.929688 589.019531 547.65625 625.339844 526.320313 666 C 517.925781 682 514.320313 700 508.667969 717 C 502 736.609375 493.613281 755.453125 487 775 L 486 775 C 494.726563 730 510.199219 683 533 643 C 543.640625 624.375 557.527344 605.484375 578 597 L 578 596 C 539.324219 610.160156 520.671875 656.296875 505.574219 691 C 497 710.394531 488.25 729.59375 482.425781 750 C 469.933594 793.78125 466.34375 840.09375 459.726563 885 C 456.789063 905 448.929688 923.347656 445.261719 943 C 441.859375 961.222656 442.890625 979.679688 440.714844 998 C 436.824219 1030.746094 432.945313 1063.507813 427.25 1096 C 425.9375 1103.5 424.402344 1111.566406 420 1118 C 418.640625 1120.027344 415.46875 1123.796875 412.601563 1122 C 409.769531 1120.050781 411.492188 1114.535156 412 1112 C 414.449219 1103.242188 417.800781 1094.761719 420 1086 C 429.84375 1049.164063 438 1010.199219 438 972 L 436 972 C 436 1005.753906 421.851563 1036 413.628906 1068 C 411.660156 1075.6875 411.785156 1084.765625 408.347656 1092 C 406.828125 1095.175781 403 1098.242188 399.703125 1095.253906 C 394.617188 1090.644531 398.578125 1081.117188 400.601563 1076 C 407 1059.761719 413.613281 1042.566406 415 1025 L 416 1025 C 415.179688 1044.109375 408.402344 1063.011719 406 1082 L 407 1082 C 414.652344 1048.546875 425.550781 1015.289063 428.828125 981 C 432 946.109375 429.28125 910.761719 434.425781 876 C 438.710938 847.054688 445.710938 818.59375 451.789063 790 C 457.558594 763 462.359375 735.21875 471.691406 709 C 479.25 687.765625 491 668.515625 500 648 C 520.65625 602 532.808594 525.53125 597 525 C 591.449219 538.328125 581.773438 550.617188 573 562 C 584.195313 553.4375 594.855469 540.460938 603 529 C 607 523.355469 608.644531 516.277344 614 511.679688 C 626.28125 501.398438 643 497 657 489.742188 C 686.382813 474.574219 713 448.429688 713 414 L 711 414 C 710.964844 418.269531 710.289063 422 709 426 C 704.820313 416.039063 710.871094 401.539063 710.996094 391 C 711 379.476563 710.507813 368.40625 708.867188 357 C 708 351.480469 705.550781 345.585938 706.695313 340 C 709.636719 325.621094 724.175781 310.832031 731.425781 298 C 736.320313 289.335938 740.953125 280.386719 744.308594 271 C 744.996094 269.070313 746.296875 262.207031 749 262.207031 C 751.949219 262.207031 754.226563 269 755.242188 271 C 759.792969 280.226563 763.648438 289.800781 768.246094 299 C 774.636719 311.777344 788.183594 324.1875 791.46875 338 C 794.195313 349.46875 788.539063 360.675781 788 372 C 787.253906 389.8125 791.238281 407.285156 792 425 M 1055 272 L 1056 273 L 1055 272 M 440 276 C 441.636719 275.453125 441.453125 275.636719 442 274 C 440.363281 274.546875 440.546875 274.363281 440 276 M 1057 274 C 1058 276.355469 1058.957031 277.375 1061 279 C 1059.835938 276.78125 1058.914063 275.605469 1057 274 M 1340 365 L 1339 365 C 1338.277344 360.179688 1336.351563 355.675781 1335 351 L 1334 351 C 1333.691406 366 1329.203125 380.25 1328 395 L 1327 395 L 1326 382 L 1325 382 C 1319.203125 401.605469 1323 426.667969 1323 447 L 1324 447 C 1329.613281 434 1337.347656 416.246094 1338 402 L 1339 402 L 1339 420 L 1340 420 C 1343 414.105469 1344.714844 407.652344 1345 401 L 1346 401 L 1346 411 C 1356.835938 404.386719 1355.550781 385 1360 374 L 1361 374 C 1361 388 1367.277344 379.320313 1368.921875 370.828125 C 1369.65625 367.046875 1366.40625 363 1366 359 C 1365.535156 352.019531 1367.699219 345 1368 338 L 1369 338 C 1370 342.75 1371.695313 347.367188 1376 350 C 1373 334.652344 1370.3125 323.03125 1363.246094 309 C 1362 306.757813 1356.910156 293.332031 1353 298.425781 C 1345.460938 308.339844 1358.558594 320 1361 328 C 1362.71875 333.246094 1359.191406 339 1358 344 C 1352 333.785156 1347.351563 320.816406 1346.171875 309 C 1345.480469 302.105469 1347 294.761719 1345.289063 288 C 1343.75 282.128906 1337.730469 275.070313 1331 275.417969 C 1322.363281 276 1329.945313 287.386719 1331.753906 291 C 1337.585938 302.664063 1347.8125 318.019531 1347 331.574219 C 1346.519531 342.769531 1340 353 1340 365 M 233 281 C 234.914063 279.394531 235.835938 278.21875 237 276 C 234.726563 277.402344 234 278.515625 233 281 M 437 279 C 438.3125 278.230469 438.230469 278.3125 439 277 C 437.363281 277.546875 437.546875 277.363281 437 279 M 1263.332031 277.667969 C 1263.277344 277.722656 1263.222656 278.777344 1263.667969 278.332031 C 1263.722656 278.277344 1263.777344 277.222656 1263.332031 277.667969 M 141 343 C 138.867188 337.460938 136.445313 332 138.921875 326 C 142 318.585938 152.941406 308 147.542969 299.167969 C 143.402344 292.488281 137.769531 305.019531 136.246094 308 C 128.820313 322.503906 125 333.773438 123 350 C 126.902344 347.421875 128.265625 342.222656 130 338 L 131 338 C 131 345.304688 132.5 352.746094 131.90625 360 C 131.613281 363.589844 129 367.433594 129.792969 371 C 131.488281 380.324219 134 386 139 376 C 142.613281 385.695313 142.804688 405 152 411 L 152 405 L 153 405 C 153.480469 410.523438 154.90625 416.183594 160 419 C 158.667969 413.40625 159 407.71875 159 402 L 160 402 C 161.265625 417.492188 170.535156 432 174 447 L 175 447 C 175.179688 425.117188 176.765625 404 174 382 L 172 382 L 172 394 L 171 394 C 167.703125 380.3125 165 365.089844 165 351 L 163 351 C 162.28125 356 160.289063 360.28125 159 365 C 157.191406 359 158 352.269531 156.484375 346 C 155 340.613281 151 335.746094 151.394531 330 C 151.84375 322.722656 155.972656 315.53125 158.859375 309 C 161.183594 303.75 172.984375 285 168.957031 279.746094 C 165 274.6875 154.890625 281.675781 153.574219 286.039063 C 151.3125 293.53125 153.800781 302.285156 152.699219 310 C 151 321.269531 145.789063 332.761719 141 343 M 1077 289 L 1078 290 L 1077 289 M 263 291 C 263 315.777344 261.617188 340.320313 261 365 C 260.421875 389.226563 261.355469 414.113281 256.550781 438 C 252.367188 458.796875 240.78125 477 236 497 L 235 497 C 242.953125 458.476563 253 422.742188 253 383 C 253 370.164063 255.992188 347.078125 239 344 C 246.222656 382.332031 247.511719 421.53125 240.574219 460 C 237 479.195313 226.875 500 226 519 L 227 519 C 243.320313 491.039063 259.769531 460.136719 265.574219 428 C 273.8125 382.410156 265 336.707031 265 291 L 263 291 M 271 301 C 269.957031 303.09375 269.398438 304.699219 269 307 L 270 307 C 271 304.664063 271.695313 303.460938 271 301 M 1228 304 C 1228.40625 306.09375 1228.21875 306.019531 1230 307 C 1229.316406 305.421875 1229.195313 305.222656 1228 304 M 121.5 311.5 C 120.871094 312.128906 121.871094 313.128906 122.5 312.5 C 123 312 122 311 121.5 311.5 M 120 314 L 119 318 L 120 318 C 120.308594 316.242188 120.40625 315.660156 120 314 M 1377 315 C 1391 347.773438 1382.265625 395.523438 1371.332031 428 C 1368.398438 436.714844 1362.566406 444.28125 1360 453 L 1359 453 C 1358.746094 447.152344 1357.910156 436.722656 1353 433 C 1353 452.253906 1348.457031 471 1346 490 C 1356.742188 485 1364.492188 469.511719 1369 459 C 1381.625 429.554688 1385.636719 397.738281 1387 366 L 1388 366 C 1389.589844 373 1392.464844 379.429688 1395 386 L 1396 386 C 1394.621094 369.132813 1388.730469 351.417969 1384.628906 335 C 1382.953125 328.3125 1382.367188 319.722656 1377 315 M 1242 319 C 1245.828125 330.765625 1250.832031 342.390625 1250.546875 355 C 1249.652344 394.007813 1232 437.019531 1246.8125 475 C 1251.257813 486.488281 1259.90625 510 1271 516 C 1264.34375 495.546875 1252.585938 474.710938 1251 453 C 1248.9375 421.773438 1255.929688 390.285156 1255 359 C 1254.640625 346.296875 1252.695313 327.394531 1242 319 M 1103 321 L 1104 322 L 1103 321 M 430 326 L 431 327 L 430 326 M 428 327 L 425 333 C 427.265625 331.128906 428.621094 330 428 327 M 1068 327 C 1068.546875 328.636719 1068.363281 328.453125 1070 329 C 1069.453125 327.363281 1069.636719 327.546875 1068 327 M 1071 330 C 1071.769531 331.3125 1071.6875 331.230469 1073 332 C 1072.453125 330.363281 1072.636719 330.546875 1071 330 M 413 504 L 414 504 C 435.382813 467.230469 440.855469 424.390625 483 403.371094 C 501.570313 394.105469 526.808594 392.046875 542.996094 407.09375 C 548.523438 412.230469 556.53125 421.671875 553.257813 430 C 550.789063 436.242188 543.441406 435 538 435 C 525 435 511.953125 435.191406 500 440.78125 C 479.390625 450.417969 467.789063 467.515625 451.960938 483 C 449.257813 485.539063 438.855469 496.136719 434.644531 492.292969 C 430.636719 488.632813 438.945313 473.558594 440 469 C 434.832031 472.386719 431.992188 480.742188 428.796875 486 C 422.84375 495.800781 415.738281 505.632813 407.828125 514 C 399 523.148438 389.679688 522.113281 392.667969 508 C 393.742188 503 395.574219 498.203125 396 493 L 395 493 C 391.4375 503.464844 384.855469 513.765625 384 525 C 383.757813 530 384.867188 536.472656 391 536.742188 C 396.699219 537 400.550781 531 405 528.226563 C 410.261719 525.105469 416.992188 524.257813 423 524 C 415.230469 535.023438 400.28125 541.796875 394.179688 554 C 391.703125 559 393.734375 564.804688 393.960938 570 C 394.566406 583.816406 396.914063 597.242188 398 611 L 397 611 C 395.523438 593 385.730469 574 379.425781 557 C 369.882813 531.484375 362 504.265625 360 477 L 358 477 C 365.796875 575.808594 426.179688 673 388 772 L 387 772 C 386.761719 766.820313 385.457031 760.789063 380.894531 757.601563 C 375 753.535156 368.660156 759 368 765 C 367.324219 774.179688 373 784.636719 376.191406 793 C 383 811.273438 390.65625 829.167969 396 848 L 397 848 C 397 830.296875 394.503906 812.578125 397.613281 795 C 404.660156 755.214844 420.730469 718.175781 417.910156 677 C 415.984375 649 409.640625 620.445313 403.347656 593 C 400.964844 582.597656 392.625 566.734375 395.449219 556.042969 C 396.527344 552 400.839844 550.421875 404 548.226563 C 411 543.355469 416.621094 536.828125 424 532.453125 C 425.902344 531.324219 432.859375 526.757813 434.761719 529.695313 C 436 531.808594 433.585938 536.027344 432.800781 538 C 430 544.597656 427.445313 551.019531 426 558 C 432.792969 553.019531 441.636719 536.546875 445.988281 529 C 447.566406 526.261719 448 523.058594 445.5625 520.703125 C 440 515.589844 430.601563 519.144531 424 517.605469 C 421.59375 517.042969 417.734375 515.285156 418.613281 512.144531 C 420.539063 505.261719 442 502.539063 448 499.128906 C 471.949219 485.457031 482.984375 453.496094 513 449 L 513 450 C 475.890625 455.5625 469.742188 502.414063 433 510 L 433 511 C 441 513 448.902344 510 456.996094 511.148438 C 462.578125 512.027344 463 518.449219 468 519.667969 C 475.527344 521.488281 490.175781 514.027344 497 511 L 497 510 C 489.835938 510.625 483.363281 513.730469 476 512.816406 C 469.675781 512.027344 464.511719 508.296875 458 508 L 458 507 C 485.707031 501.777344 512.476563 510.40625 540 501 C 544.683594 499.394531 559.878906 491.160156 560 502.003906 C 560.3125 508.695313 550.519531 514.152344 546 517.652344 C 533.65625 527.207031 520.816406 538.277344 513 552 C 521.679688 548 528 538.539063 535 532.089844 C 541.425781 526.136719 549.375 522.332031 555.984375 516.675781 C 560.328125 513 563.167969 506 569 504.4375 C 574.261719 503.046875 579.851563 506.238281 585 507 C 582.691406 502.476563 578.8125 498.78125 576.996094 494 C 573.273438 484.214844 580 473.21875 590 471.023438 C 602.527344 468.246094 615.339844 475.742188 628 472 L 628 471 C 617.492188 470.78125 592 468.308594 588.574219 456 C 585.171875 443.773438 594.84375 426.570313 598 415 C 593.1875 418.140625 590.808594 425 588.574219 430 C 583.605469 441.417969 579.273438 453.003906 575.859375 465 C 574.191406 471 572.746094 482.289063 565.964844 484.59375 C 562.195313 486 559.699219 482 558.484375 479 C 555.226563 471.113281 560.445313 463.5 562.570313 456 C 568.40625 435.410156 564.441406 411.691406 572 392 C 575.65625 383 583.941406 377.089844 589 369 C 579.652344 369.761719 570.773438 373.605469 562 376.65625 C 558.714844 377.796875 554 378.558594 552.601563 382.132813 C 549.714844 389 554.90625 398.570313 557 405 C 551.539063 399.539063 546.25 394 540 389.425781 C 536.832031 387.105469 531.625 384.234375 530.832031 380 C 530 376.066406 534.351563 372.804688 537 370.664063 C 544.914063 364.289063 553.574219 359.691406 563 356.003906 C 593 344.238281 633.929688 354.429688 637 392 C 641.777344 385.683594 636.339844 374.421875 633.570313 368 C 622.695313 342.785156 596.28125 335 571 339.613281 C 547 344.027344 529.527344 361.378906 510 374.332031 C 491.210938 386.796875 468.636719 393.433594 452 409.089844 C 427.714844 432 420.171875 472.722656 413 504 M 860 393 L 861 393 C 863.304688 385.414063 864 377.707031 868.789063 371 C 885.269531 348 915 347.425781 939 357.71875 C 947.257813 361.277344 965.816406 367.496094 967.339844 378 C 967.976563 382.410156 963 385.734375 960 388 C 953.332031 392.773438 945.734375 398 943 406 L 942 406 C 942 399 947 389.609375 945.527344 383.105469 C 944.566406 379.265625 940.285156 378.128906 937 377.003906 C 928.238281 374 919.1875 370.351563 910 369 C 914 378 922.890625 383.632813 926.53125 393 C 933 410.058594 930.761719 432.78125 934.398438 451 C 935.839844 458.21875 936.210938 468.609375 945 470 C 942.933594 474.363281 939.429688 485.828125 933 485 C 926.738281 484.066406 924.550781 473 923 468 C 917.859375 449.652344 911.667969 431.5625 902 415 L 901 415 C 902.878906 427.710938 912.941406 442.804688 909.679688 456 C 906.558594 468.628906 878.511719 471 868 471 L 868 472 C 881.332031 473.050781 897.3125 468.476563 910 471.394531 C 918.800781 473.417969 923.757813 483.570313 921.65625 492 C 920.214844 497.78125 915.414063 501.730469 913 507 C 918.328125 506.214844 924.59375 502.589844 929.984375 504.605469 C 934.84375 506.417969 937.171875 512.28125 941 515.480469 C 947 520.46875 954.203125 523.71875 960 529.089844 C 967.859375 536.371094 974.945313 546.742188 985 551 C 976.214844 537 962.992188 525.410156 950 515.347656 C 945.851563 512.136719 936.761719 506.449219 938 500.058594 C 939.988281 491 956.386719 501 961 502.277344 C 985 509.523438 1014 505.488281 1039 506 L 1039 507 C 1032.667969 508.128906 1027.441406 512.769531 1021 513.363281 C 1013.613281 514.042969 1006.355469 510.320313 999 510 L 999 511 C 1007.976563 514 1019.273438 521.144531 1028.984375 520 C 1034.242188 519.128906 1036 513.089844 1041 511.265625 C 1048 508.613281 1056.699219 511.425781 1064 512 L 1064 511 C 1052.476563 505.609375 1042.878906 502 1034.183594 492 C 1021.863281 478 1014.53125 458.746094 995 453 L 995 452 C 1020.84375 459.601563 1029.433594 489.816406 1053 500.691406 C 1057.996094 503 1078.472656 506.207031 1079.367188 512.085938 C 1080.679688 520.6875 1057.535156 516.777344 1053.230469 520.515625 C 1050.957031 522.492188 1050.226563 525.195313 1051.347656 528 C 1054.238281 535.230469 1065.585938 552.796875 1072 557 C 1069.679688 547 1065.171875 537.363281 1061 528 C 1078.242188 530.546875 1086.789063 548.28125 1103 552 C 1095.984375 543.300781 1085.570313 530.097656 1075 526 L 1075 525 C 1081.570313 524 1088.351563 525.113281 1094 529 C 1098.425781 531.78125 1102.953125 538.011719 1108.957031 537.261719 C 1120.800781 535.78125 1109.816406 508.515625 1104 505 C 1105.265625 509 1108.578125 514.78125 1107 519 C 1104.207031 527.472656 1092.859375 516 1090 513 C 1076.527344 499.523438 1070 478 1056 466 C 1057.511719 471.242188 1069.191406 487.367188 1065.789063 492.304688 C 1062.839844 496.578125 1051 487 1049 485 C 1033.636719 470.804688 1022 452.429688 1003 442.808594 C 990.535156 436.535156 976.75 435 963 435 C 957.445313 435 948.664063 436.722656 945.460938 431 C 936.234375 414.097656 966.847656 398.351563 979 396.4375 C 1005.929688 392.199219 1032 410.664063 1048.699219 430 C 1059.5625 442.691406 1066 458.441406 1071.691406 474 C 1074.171875 481 1076.679688 493.824219 1083 498 C 1077.328125 470.589844 1069.605469 437.046875 1051.535156 415 C 1036.261719 396.367188 1014.199219 389.675781 994 378.128906 C 979.585938 370 967.4375 358.128906 953 350 C 922.636719 332.511719 876.566406 332.757813 863.355469 372 C 861 379 860 385.773438 860 393 M 144 357 C 146 362 146 366.703125 146 372 L 145 372 C 144.375 367.148438 142 361.671875 144 357 M 1356 357 C 1355.890625 362.28125 1354.601563 367 1353 372 C 1351.175781 367.609375 1351.972656 360 1356 357 M 194 365 L 195 366 L 194 365 M 1304.332031 366.667969 C 1304.277344 366.722656 1304.222656 367.777344 1304.667969 367.332031 C 1304.722656 367.277344 1304.777344 366.222656 1304.332031 366.667969 M 942 406 L 941 407 L 942 406 M 551 466 L 550 466 C 543.359375 448.488281 528.753906 448.324219 513 449 C 521.539063 444.460938 531.925781 448.296875 541 448 C 543.738281 447.773438 549.945313 445.554688 551.789063 448.601563 C 553.585938 451.578125 551 462.113281 551 466 M 995 451 L 995 452 C 975.566406 449.128906 957.839844 444.199219 948 467 C 946.511719 463.460938 943.9375 451.109375 947 448.027344 C 949.578125 445.484375 955.859375 448 959 448 C 971.984375 447.550781 982.355469 447 995 451 M 742 456 C 742 472.21875 744.710938 498.605469 732.472656 511.671875 C 727.648438 516.816406 720.566406 517.53125 714 518.425781 C 700.332031 520.285156 686.578125 520.335938 673 523.210938 C 655 527.007813 644 538 628 544.765625 C 609 552.816406 591.257813 554.488281 574 567.375 C 553.394531 582.761719 532.523438 600 517.429688 621 C 507.519531 634.800781 501.386719 650.503906 494.71875 666 C 481 697.527344 469.84375 729.804688 461 763 C 453.957031 790.230469 445 817.597656 445 846 L 446 846 C 447.554688 809.78125 462.636719 773.660156 474.945313 740 C 488.183594 703.804688 501.625 663.265625 523 631 C 552.621094 586.296875 602.289063 552.148438 653 536.027344 C 677.828125 528.136719 702.824219 535.367188 728 536 C 761.441406 536.804688 795.855469 530 829 533.171875 C 841.738281 534.445313 852.734375 541.160156 865 544 C 861.734375 538.617188 854.488281 535.539063 849 532.757813 C 832.222656 524.246094 814.558594 521.359375 796 520.089844 C 785.910156 519.398438 774.214844 520 766 512.660156 C 753.375 501.230469 755 472.546875 755 457 C 746.566406 462.753906 749.925781 465.554688 742 456 M 523 467 L 522 472 L 521 472 L 521 467 L 523 467 M 977 471 C 974.964844 469.773438 974.675781 469.296875 974 467 C 976.699219 467.578125 976.789063 468.261719 977 471 M 514 468 L 514 470 L 511 470 L 511 468 L 514 468 M 989 469 L 989 470 C 987.523438 471 987.796875 471 986 471 L 986 468 C 987.796875 468 987.523438 468.015625 989 469 M 535 470.035156 C 540.445313 469.324219 538.578125 478.59375 537.425781 481 C 534.59375 487 528.234375 490.367188 522 491.53125 C 515.214844 492.800781 507 491 502.214844 485.8125 C 499.300781 482.816406 496.394531 476.765625 501.210938 474 C 505 471.53125 512.234375 486 520 484.761719 C 524.496094 484.128906 528.253906 480.820313 530.441406 477 C 531.59375 475 532.300781 470.414063 535 470.035156 M 962.976563 470.035156 C 969.199219 470.8125 968.792969 484 977 485.242188 C 984.546875 486.453125 992 470.792969 996.8125 473.753906 C 1001.359375 476.570313 999.363281 482.429688 996.46875 485.53125 C 991.375 491 983.179688 493 976 491.53125 C 969.765625 490.359375 963.40625 487 960.574219 481 C 959.367188 478.480469 957.566406 469.363281 962.976563 470.035156 M 358.332031 473.667969 C 358.277344 473.722656 358.222656 474.777344 358.667969 474.332031 C 358.722656 474.277344 358.777344 473.222656 358.332031 473.667969 M 1138 475 C 1137.976563 507.496094 1124.933594 539 1113.945313 569 C 1109 582.332031 1101.652344 597.703125 1101 612 L 1100 612 C 1100 593 1109.613281 572 1104 553 L 1103 553 C 1101.625 570.433594 1095.832031 587 1092.210938 604 C 1084.980469 638 1079 671.160156 1080 706 C 1080.628906 731.046875 1091.550781 755.808594 1097 780 C 1102 801.648438 1102 824 1102 846 C 1106.957031 842.277344 1108.554688 831.757813 1110.679688 826 C 1117 808.535156 1128.921875 787 1128.921875 768 C 1128.921875 761 1124.183594 751.257813 1116.328125 757.804688 C 1112 761.3125 1111 767.210938 1109 772 C 1101.253906 747.777344 1094.5625 720.585938 1095 695 C 1095.886719 651.742188 1112.484375 609.554688 1122.871094 568 C 1128.441406 545.726563 1133.617188 523.648438 1137.414063 501 C 1138.675781 493.472656 1142.625 481.769531 1138 475 M 540 492 C 541.21875 490.054688 546.753906 480.71875 549.914063 483.160156 C 553.617188 486.027344 541.605469 491.410156 540 492 M 957 491 C 944.296875 488.699219 949.328125 477.742188 957 491 M 491 498 L 479 497 C 482.304688 491.351563 487.480469 493.796875 491 498 M 1019 497 L 1007 498 C 1010.703125 493.449219 1014.886719 492.390625 1019 497 M 234.667969 497.667969 C 234.722656 497.722656 234.777344 498.777344 234.332031 498.332031 C 234.277344 498.277344 234.222656 497.222656 234.667969 497.667969 M 496 560 C 502.910156 555.484375 506.789063 544 511.355469 537 C 519.363281 525 530 516.039063 539 505 C 518.203125 512 503.390625 541 496 560 M 745 505 C 745 521.367188 741.824219 522.472656 727 526 L 727 525 C 735.878906 519.539063 738.671875 512.632813 745 505 M 961 505 C 964.511719 512.535156 972.21875 517.515625 977.332031 524 C 985.371094 534.199219 992 553.046875 1003 560 C 997 539.628906 980.449219 514.242188 961 505 M 754 509 C 758 516.511719 763 521.6875 771 525 L 771 526 C 761.5 524.234375 748.210938 522.800781 754 509 M 444 551 C 451.976563 547.660156 459.171875 542.65625 467 539 C 441.886719 561 432 594.730469 428 627 C 432.527344 623.355469 433.511719 613.464844 435.332031 608 C 439.941406 594.179688 445.359375 580.414063 453 568 C 468.835938 542.59375 495.808594 528.320313 520 512 C 513.402344 509.257813 505.234375 514.082031 499 516.308594 C 481.683594 522.492188 452.324219 533.199219 444 551 M 979 511 C 989.636719 525.410156 1012.203125 532.796875 1026 544.4375 C 1048 563.019531 1064 597.554688 1068 626 L 1070 626 C 1067.652344 596.273438 1054.710938 559 1032 539 C 1039.898438 542.402344 1046.5 548 1055 550 C 1040 529 1004.636719 512.105469 979 511 M 471 536 C 469.550781 537.609375 468.949219 538.0625 467 539 L 467 538 L 471 536 M 1029 536 L 1032 538 L 1032 539 C 1030 538.15625 1029.273438 538.003906 1029 536 M 1218 536 L 1218 539 L 1217 539 C 1217.25 537.550781 1217.316406 537.246094 1218 536 M 281 539 L 280 540 L 281 539 M 868 544 C 870.707031 548 876.683594 549.148438 881 551 C 889 554.441406 896.640625 558.75 904 563.4375 C 925.640625 577.214844 944.167969 595.734375 961.984375 614 C 979 631.601563 988.699219 653.789063 998.28125 676 C 1011.632813 707 1023.355469 738.054688 1034 770 C 1041.917969 793.753906 1052 818.644531 1052 844 L 1054 844 C 1054 817 1043.90625 788.136719 1037.371094 762 C 1030 733 1019.945313 705 1008.800781 677 C 1002 660.386719 995.957031 643.152344 986.304688 628 C 960.9375 588.175781 914.558594 553.027344 868 544 M 1028 871 L 1027 871 C 1025.402344 851 1016.953125 831.074219 1011 812 C 1005.925781 795.585938 1001.863281 777.007813 989.90625 764 C 982.332031 755.761719 973.363281 747 962 744.519531 C 956 743.261719 941.851563 745.613281 939.710938 738 C 938.386719 733.21875 943.707031 728.40625 947 726 C 956.894531 718.53125 968.339844 718.527344 980 720 C 968 710 956.464844 716.214844 943 719 C 945.265625 707 945 695.1875 945 683 L 944 683 C 943.886719 696.574219 939.425781 725.03125 923 728.277344 C 912.574219 730.335938 901.554688 719.777344 895 713 C 892.925781 710.796875 888.621094 707 889.738281 703.316406 C 890.773438 700.054688 896.453125 701.085938 899 701 C 907.757813 700.304688 916.210938 697.378906 925 697 C 917 689.589844 905.347656 699.089844 897.394531 692.296875 C 892 687.734375 892.21875 678.054688 889.191406 672 C 884.207031 662.046875 875.328125 653.828125 866 648 C 873 655.710938 879.910156 665.417969 881.675781 676 C 882 678.808594 882.921875 686.679688 878.785156 687.367188 C 874.171875 688.136719 870 677 867.839844 674 C 858.878906 661.714844 846.441406 652.011719 833 645.109375 C 796.898438 626.566406 752.507813 624.578125 713 630.425781 C 687.925781 634.140625 662.9375 642.535156 644 660.089844 C 637.398438 666.210938 631.175781 673.300781 626.464844 681 C 625.226563 683.023438 623.328125 688.613281 620.175781 688.078125 C 616.296875 687.421875 616.878906 679.703125 617 677 C 617.976563 666 626.285156 656.332031 633 648 C 623.664063 654 614.316406 663.054688 609.378906 673 C 606.394531 679.003906 606.777344 689 600.785156 693 C 593.808594 697.609375 581.277344 693.109375 573 695 L 573 696 C 581.753906 697.113281 590.253906 699.636719 599 700.714844 C 601.703125 701.046875 607.402344 700.15625 608.742188 703.316406 C 610.464844 707.375 603.386719 712.632813 601 715 C 593.691406 722.230469 580.796875 734 570 726.144531 C 555 715.300781 561.511719 694.363281 552 682 C 555.4375 693.632813 553 707.070313 556 719 C 543.460938 717.148438 529.628906 708.527344 519 720 C 531 718.480469 543.363281 718.621094 552.996094 727.183594 C 555.773438 729.652344 560.246094 733.730469 559.207031 738 C 557.269531 746 543.71875 743.296875 538 744.519531 C 525.792969 747.121094 515 756.441406 507.519531 766 C 485.792969 793.617188 482.976563 834.644531 472 867 C 469.558594 859.066406 474.257813 847.019531 475.804688 839 C 480.777344 813.203125 488.335938 788.148438 498.71875 764 C 511.46875 734.339844 518.480469 701.644531 533.257813 673 C 543 654 558.933594 638.066406 574 623 C 599.964844 597.035156 627.878906 569.734375 665 561.425781 C 695 554.6875 725.539063 556.632813 756 557 C 790.527344 557.40625 825.859375 555.441406 858 570.308594 C 886.328125 583.414063 909.171875 606.503906 930 629 C 942 642 955.238281 654.417969 963.691406 670 C 977.8125 696.027344 984.4375 725.597656 995.398438 753 C 1009.996094 789.488281 1027.179688 831.125 1028 871 M 923 560 C 924 562.21875 925 563.394531 927 565 C 925.988281 562.515625 925.273438 561.402344 923 560 M 571 565 C 572.636719 564.453125 572.453125 564.636719 573 563 C 571.6875 563.769531 571.769531 563.6875 571 565 M 563 691 C 572.492188 686.597656 579.355469 677.074219 587 670.171875 C 601.910156 656.703125 617.828125 643.808594 634 632 C 676.699219 600.398438 720.273438 588.1875 773 594 C 791 595.765625 809.863281 598.582031 826 607.4375 C 853 622.320313 877.433594 641.515625 901 661.425781 C 911.839844 670.585938 922.90625 685.457031 936 691 C 923.46875 671 902.558594 656.191406 885 640.714844 C 865.324219 623.367188 846.796875 603.707031 823 591.808594 C 805.398438 583.007813 786.183594 582.222656 767 581 C 739.171875 579.003906 709.558594 578.433594 683 588.425781 C 655.324219 599 634.574219 621.578125 613 641 C 596.285156 655.753906 572.890625 670.214844 563 691 M 918 593 C 920 596.46875 923 598 927 599 C 924.453125 596.027344 921.597656 594.507813 918 593 M 398.667969 612.667969 C 398.722656 612.722656 398.777344 613.777344 398.332031 613.332031 C 398.277344 613.277344 398.222656 612.222656 398.667969 612.667969 M 691 633 C 709.847656 627.691406 732.210938 620 752 621.09375 C 770.972656 622.167969 788.5 630.386719 807 632 C 801.316406 626.269531 793.410156 624.253906 786 621.585938 C 763.261719 613.398438 740 614 717 620.722656 C 709.445313 623 695 626 691 633 M 1048 620 C 1051.328125 630.425781 1061 638 1065.6875 648 C 1073.636719 665.636719 1076.839844 693.71875 1077 713 L 1079 713 C 1078.625 704.296875 1077 695.667969 1076.171875 687 C 1073.824219 662.484375 1074.929688 632.003906 1048 620 M 449 621 C 442.597656 626.589844 435.710938 631.511719 431.347656 639 C 419.992188 658.488281 420 691 420 713 L 421 713 C 426 691.507813 423.871094 668.71875 433.3125 648 C 436.738281 640.476563 451.304688 629.429688 449 621 M 839 741 L 839 740 C 829.621094 736.066406 821.84375 729 823.183594 718 C 824.277344 709.128906 832.613281 699.773438 822.957031 692.652344 C 804.625 679.132813 780.519531 707.761719 777.289063 724 C 773.421875 743.449219 792.289063 753.273438 797.214844 770 C 803 790.121094 782.96875 795.753906 769 802.808594 C 763.699219 805.484375 759.542969 810 754 812 C 754 796.527344 749.925781 779 755 764 C 760.921875 767.652344 766.363281 771.699219 773 774 C 767.4375 765 760.402344 756.746094 758.464844 746 C 754.609375 724.621094 768.253906 697.769531 786 686.109375 C 792.523438 681.820313 800.660156 680.347656 808 678 L 808 677 C 796.933594 677.03125 785.375 679.273438 777 687.183594 C 772.179688 692 766.226563 706.078125 758 705.453125 C 754.554688 705.179688 753.894531 700.78125 753.441406 698 C 752 689.417969 754.871094 681.394531 756 673 L 755 673 C 751.261719 686.164063 747.300781 683.714844 744 672 L 743 672 C 743.664063 680.339844 746.714844 688.574219 745.574219 697 C 745.238281 699.488281 745.34375 704.183594 742.566406 705.351563 C 735.664063 708.261719 729 695 725.675781 691 C 716.863281 680.519531 704.253906 677.035156 691 677 L 691 679 C 719.738281 681.347656 744.21875 716 740.816406 744 C 739.460938 755.175781 732.359375 765.117188 726 774 C 732.636719 771.222656 738.308594 766.53125 745 764 C 744 780.222656 745 796.742188 745 813 C 740.898438 810.121094 737.476563 806.339844 733 804 C 719.484375 797 699.570313 793.671875 701 774 C 702.722656 753 728.4375 744.410156 720.480469 720 C 715.78125 705.585938 690.347656 678.433594 674.226563 694.339844 C 666.652344 701.816406 676.351563 713.148438 675.953125 722 C 675.488281 732.300781 667.523438 735.050781 661 741 C 671.261719 740.53125 680.816406 734.5 683.175781 724 C 683.992188 720.382813 682.265625 707.800781 686.429688 706.347656 C 689 705.398438 691.664063 709.148438 692.867188 711.003906 C 696.625 716.816406 698 725.304688 696.210938 732 C 689.582031 755 650.304688 749.46875 637.324219 735.816406 C 619.738281 717.3125 630.609375 687.792969 646 672 C 674.816406 642.476563 719.710938 637.320313 759 639.039063 C 794.625 640.597656 834 647.691406 857.90625 677 C 870.746094 692.820313 877 723.621094 858.960938 738.609375 C 845.839844 749.425781 809 753.753906 802.800781 733 C 801.269531 728 803 704 812.582031 706.753906 C 816.871094 708.058594 815.574219 722.273438 816.558594 726 C 819 735.734375 829.839844 740.25 839 741 M 642 731 C 637.703125 708 650.351563 677.539063 672 667 C 688.691406 659 708.640625 658.621094 724 647 C 716.199219 645.03125 707.355469 649.546875 700 652 C 676 660 658.175781 669.707031 644.800781 692 C 639 701.453125 630 722 642 731 M 774 646 C 776.664063 649.621094 782 651 786 652.746094 C 798.640625 658.753906 812.257813 660.828125 825 666.230469 C 850.289063 677 857.996094 706 858 731 C 867.574219 718.199219 861.359375 704 854.425781 692 C 837.882813 663.515625 805.890625 650.050781 774 646 M 633 647 L 634 648 L 633 647 M 591 804 C 601.390625 796.351563 608.9375 784.714844 619 776.464844 C 622.191406 774 627.390625 769.058594 631.894531 769.648438 C 637.6875 770.402344 638.464844 780.769531 640.347656 785 C 645.460938 796.476563 655.253906 806.347656 665 814 C 686.722656 831.003906 716.617188 838.359375 734.675781 860 C 744.867188 872.214844 743.390625 885.222656 744 900 C 744.527344 911.171875 746.308594 922.820313 744.5625 934 C 741.777344 951.820313 726.882813 974.699219 713 986 C 714.46875 968.046875 722.636719 946 729 929 C 722.496094 936.445313 720.886719 951 716.691406 960 C 707.691406 979.660156 695.664063 997.632813 682.882813 1015 C 676.582031 1023.566406 670.824219 1032.785156 662 1039 C 671.894531 1004.128906 691.558594 973.328125 703 939 L 702 939 C 682.265625 987.109375 656.230469 1035.0625 630 1080 L 629 1080 C 632.574219 1062.6875 639 1046.1875 643 1029 L 642 1029 C 635.738281 1048.238281 626.550781 1066.105469 619.425781 1085 C 614.730469 1097.449219 612.378906 1110.734375 607 1123 C 599.976563 1139.695313 588.679688 1153.59375 577.871094 1168 C 565.78125 1184.125 553.960938 1201.054688 537 1212.480469 C 518.296875 1225.078125 495.355469 1231.097656 473 1228 C 462.476563 1226.542969 450.757813 1223.355469 444.558594 1214 C 435.996094 1201 440 1183.4375 440 1169 C 439.960938 1161.070313 437.304688 1153 438.289063 1145 C 439.929688 1132 446.566406 1120.222656 447.828125 1107 C 449.5625 1089 448 1070.238281 448 1052 L 447 1052 C 447 1072.070313 447 1093.699219 440.78125 1113 C 437.628906 1122.75 427.992188 1131 426.433594 1141 C 425.457031 1147.335938 431.886719 1156.0625 432.714844 1163 C 433.964844 1173.457031 430.445313 1183.632813 430 1194 C 419.277344 1188.390625 418.402344 1177.035156 414 1167 C 412.175781 1162.347656 408.519531 1159.472656 409.328125 1154 C 411.722656 1138 428 1127.449219 432.796875 1112 C 439.355469 1090.664063 439 1068 442.425781 1046 C 445.355469 1027.109375 452.464844 1008.820313 455 990 C 471.921875 1001.082031 459.855469 1020.417969 456 1034 C 453.175781 1045 453 1056.785156 454.171875 1068 C 457.257813 1099.773438 478.667969 1123.003906 507 1136 C 514.417969 1139.222656 525.535156 1146.480469 534 1143.257813 C 540.488281 1140.789063 544.203125 1133.519531 547.679688 1128 C 555.539063 1115.535156 562.585938 1102.703125 570 1090 C 558.425781 1100.609375 549.667969 1125 533 1128.605469 C 523.210938 1130.804688 513.328125 1125.050781 505 1120.742188 C 473.78125 1104.589844 458.566406 1065.597656 469.75 1032 C 475 1016 502.269531 1021 516 1014.6875 C 547.445313 1000.523438 551.894531 971.804688 548 941 L 547 941 C 547 970.457031 536 997 504 1003.550781 C 493.550781 1005.6875 479.859375 1007.515625 472.558594 998 C 456.714844 977.3125 462.628906 943.503906 472.78125 922 C 484 898.046875 501.699219 878.808594 516.328125 857 C 527.789063 840 535.992188 820.210938 550 805 C 559.914063 794.402344 572.457031 787.683594 583 778 C 543.679688 788.179688 529.660156 819 508 850 C 498 864.53125 485.34375 877.324219 477 893 L 476 893 C 479.4375 866 487 839.417969 493.628906 813 C 498.183594 794.785156 503.40625 775.542969 519 763.527344 C 529.789063 755.214844 542.492188 756 555 753 C 550 761.476563 537.921875 766.511719 531.171875 774 C 517.472656 789.199219 508.722656 811.792969 506 832 C 516 815 520.796875 795.628906 533.617188 780 C 547.238281 763.394531 567.527344 753.53125 585 741.65625 C 592.933594 736.261719 605 720.542969 614.867188 720 C 619.226563 719.710938 623.453125 735.410156 625.246094 739 C 627.558594 743.628906 631.886719 749.554688 630.550781 755 C 628.894531 761.757813 619.652344 766.304688 615 771.003906 C 605.269531 781 598.964844 793 591 804 M 992 831 L 993 831 C 990.425781 812 982 789.269531 968.910156 775 C 961.210938 766.6875 949.996094 761.445313 943 753 C 951.914063 753.183594 961.679688 754.066406 970 757.453125 C 1002.273438 770.59375 1005.421875 812.746094 1011.660156 842 C 1015 858.277344 1021.28125 875.335938 1022 892 L 1021 892 C 1009.964844 875.640625 996.867188 860.761719 986.425781 844 C 974.925781 825.539063 965.839844 804.769531 948 791.339844 C 938.96875 784.542969 927.386719 782.007813 917 778 C 925.390625 789.816406 940.210938 795.132813 949.710938 806 C 962.792969 821 971 839.496094 982 856 C 1007.261719 894.3125 1056.996094 946.066406 1027.636719 996 C 1020.445313 1008.230469 1003.730469 1006 992 1003 C 963.554688 995.25 951.230469 969.796875 951 942 L 950 942 C 946 973.316406 952.53125 1001.21875 984 1014.570313 C 996.917969 1020.054688 1023.28125 1016.3125 1028.613281 1031 C 1040.679688 1064.246094 1024.636719 1104 994 1120.21875 C 985.558594 1124.703125 975.949219 1130.464844 966 1128.671875 C 949.902344 1125.769531 941.410156 1101.710938 930 1092 C 939.339844 1105.664063 945.773438 1121.371094 955.4375 1135 C 969.84375 1155.316406 1002 1132.664063 1016 1120.699219 C 1047.832031 1093.414063 1049.382813 1055.605469 1036.238281 1019 C 1032.75 1009.277344 1036 996.757813 1044 990 C 1056.550781 1028.578125 1053.941406 1070.070313 1064.640625 1109 C 1069.296875 1126 1088.195313 1137.246094 1089.800781 1155 C 1090.257813 1160.066406 1086.960938 1162.789063 1084.910156 1167.015625 C 1079.789063 1177.585938 1078.261719 1187.75 1068 1195 C 1067.75 1183 1064.945313 1171.1875 1066.171875 1159 C 1066.792969 1152.816406 1072.570313 1147 1071.449219 1141 C 1069.597656 1131.140625 1060.515625 1123.582031 1057.359375 1114 C 1051.273438 1095.527344 1050 1070.402344 1050 1051 L 1049 1051 C 1049 1070.308594 1048.25 1089.789063 1050.171875 1109 C 1051.226563 1119.554688 1056.683594 1128.710938 1058.535156 1139 C 1060.375 1149.226563 1058 1159.753906 1058 1170 C 1057.996094 1184.261719 1061.355469 1203.734375 1052.363281 1216 C 1046.25 1224.308594 1034.695313 1227 1025 1228 C 1002.730469 1230.484375 980.863281 1224.707031 962 1212.5625 C 944 1201.066406 931.652344 1182.695313 919 1166 C 909.929688 1153.742188 900 1142.140625 893.863281 1128 C 887 1113 883.800781 1096.460938 877.9375 1081 C 871.445313 1064 860.765625 1048.101563 857 1030 L 856 1030 C 858.535156 1047.238281 866 1063.152344 870 1080 L 869 1080 C 848.167969 1046.082031 832 1009.769531 812.859375 975 C 807 964.535156 804.257813 948.441406 796 940 C 803 955 808 971 814.859375 986 C 822.605469 1003.375 831.789063 1020.648438 837 1039 C 828 1032.777344 822.503906 1023.519531 816 1015 C 802.988281 997.445313 790.464844 979 781.308594 959 C 776.859375 949.285156 775.28125 936.488281 769 928 C 776 947 780.765625 967 787 986 C 778 981.769531 772.6875 970.144531 767.800781 962 C 763.757813 955.261719 758.578125 948.570313 756.222656 941 C 752 928 755 913.453125 755 900 C 755 885.785156 754.691406 872.5625 764.324219 861 C 782.394531 839.316406 811.640625 832.050781 833 814.535156 C 843 806.320313 852.957031 796.035156 858 784 C 859.953125 779.746094 861.195313 770.09375 867 769.648438 C 871.769531 769.285156 876.648438 774 880 776.617188 C 889.585938 784.472656 897.273438 794.265625 906 803 C 900.933594 791 892.414063 779.136719 882.996094 770.039063 C 878.222656 765.425781 869 761.105469 867.746094 754 C 866 745 875 735.695313 878.476563 728 C 879.765625 725.023438 880.40625 718.800781 885 720.289063 C 894.859375 723.433594 905.230469 735.820313 914 741.667969 C 929.90625 752.269531 947.347656 761.378906 960.984375 775.015625 C 976.429688 790.457031 985.34375 810.546875 992 831 M 640 745 C 653.855469 755 672 758.007813 684.90625 769.464844 C 693.433594 777.078125 693.527344 790 702 797.535156 C 711.78125 806.1875 725.621094 808 734.957031 817.09375 C 744.890625 826.765625 744 841.21875 744 854 C 732.78125 850.417969 724.710938 839.464844 715 833.078125 C 687.3125 815 650.945313 803.082031 642.652344 767 C 641 760.46875 637.296875 751.453125 640 745 M 860 745 C 858.203125 759.214844 856.195313 773.5625 848.53125 786 C 834.78125 808.316406 808.28125 818.144531 787 831.425781 C 776.390625 838.046875 767.695313 849.5 756 854 C 756 845.765625 754.46875 835.804688 757.46875 828 C 764 810.773438 784.636719 809.199219 796.960938 797.816406 C 804.980469 790.402344 805.488281 779.097656 812.46875 771.089844 C 823.585938 758.339844 844.730469 751.359375 860 745 M 797 750 C 802.417969 753.160156 807.65625 755.710938 814 756 L 814 757 C 808.328125 759.730469 795.804688 759 797 750 M 702 751 C 699.960938 758.191406 692.355469 760.804688 686 757 C 690.984375 754.375 696.566406 752.484375 702 751 M 658 778 C 660.9375 782.808594 666.917969 785.101563 670.910156 789.089844 C 676 794.1875 679 800.734375 685 805 C 684.292969 788.792969 672.773438 781 658 778 M 814 805 C 819.335938 802 821.28125 796.488281 825.210938 792.015625 C 829.625 787 835.363281 783.464844 841 780 C 826.546875 774.117188 814.507813 793.175781 814 805 M 1088 779 C 1088.167969 781.402344 1088.195313 782.460938 1090 784 C 1089.613281 782 1089.253906 780.75 1088 779 M 407 783 L 406 788 C 407.878906 786.378906 407.914063 785.300781 407 783 M 632 788 C 636.480469 799.546875 642.296875 811.050781 651 820 C 657 826.207031 667.949219 831 666.8125 841 C 665.589844 852 654.269531 857 650 866 C 661.824219 861.40625 665 854.179688 669.449219 843 C 670.894531 839.324219 673.4375 835.003906 671.730469 831 C 668 822.355469 656.417969 816.234375 650.464844 809 C 644.851563 802.183594 640 792 632 788 M 850 866 C 844.640625 857.800781 833.503906 851.503906 832.226563 841 C 831.179688 832.367188 840.796875 827.34375 845.960938 822 C 854.265625 813.398438 864.183594 800.085938 866 788 C 860.746094 791.429688 857.5625 799.109375 853.535156 804 C 846.667969 812.339844 830.816406 820.652344 827.566406 831 C 823.46875 844.054688 838.167969 863.1875 850 866 M 406.332031 790.667969 C 406.277344 790.722656 406.222656 791.777344 406.667969 791.332031 C 406.722656 791.277344 406.777344 790.222656 406.332031 790.667969 M 432.667969 803.667969 C 432.722656 803.722656 432.777344 804.777344 432.332031 804.332031 C 432.277344 804.277344 432.222656 803.222656 432.667969 803.667969 M 906 803 L 907 806 L 908 806 C 907.316406 804.421875 907.195313 804.222656 906 803 M 590 805 L 591 806 L 590 805 M 713.175781 818.042969 C 710.960938 821.0625 729.683594 835 732.371094 832.339844 C 739.75 825.136719 717.1875 812.566406 713.175781 818.042969 M 780.980469 817.496094 C 775.789063 818 769.703125 820.53125 766.859375 825.042969 C 765.988281 826.421875 763.558594 832.496094 766.605469 833.078125 C 771 834 791.957031 816.648438 780.980469 817.496094 M 284 823 C 291.628906 836.117188 295.175781 852.496094 299.425781 867 C 306.480469 891.097656 313.726563 915.179688 321.667969 939 C 326.40625 953.214844 331.558594 967.578125 338.269531 981 C 342.289063 989.042969 347.84375 996.378906 350.640625 1005 C 354 1015.699219 350.363281 1027.214844 354.238281 1038 C 358.785156 1050.644531 370.214844 1059.148438 374.851563 1071 C 378.476563 1080.261719 376 1093.023438 378 1103 C 359.746094 1097.730469 345 1077.496094 334 1063 C 299.535156 1017.234375 287.808594 949.808594 281.835938 894 C 279.976563 876.640625 279.667969 858.355469 281.714844 841 C 282.429688 835 281.28125 828.65625 284 823 M 1215 823 C 1215 843.683594 1218.335938 864.203125 1216.910156 885 C 1213.742188 931.277344 1203 980 1185.800781 1023 C 1173 1054.53125 1151.871094 1089 1120 1104 C 1120.183594 1095.066406 1119.488281 1079.003906 1123 1071 C 1128.578125 1059.078125 1139.746094 1051 1144.300781 1038 C 1148.167969 1027.027344 1144.734375 1015.148438 1148.359375 1004 C 1152.34375 991.738281 1160.609375 981 1165.71875 969 C 1174.777344 948 1181 926 1187.574219 904 C 1192.863281 886 1198.847656 868.042969 1204.28125 850 C 1206.921875 841.226563 1208.277344 829.660156 1215 823 M 429 826 L 428 827 L 429 826 M 1071 827 L 1071 830 L 1070 830 C 1070.25 828.546875 1070.316406 828.246094 1071 827 M 563 830 C 554.671875 847.578125 545.230469 863.804688 533 879 C 526.324219 887.296875 517.207031 894 511.5625 903 C 504.609375 914.164063 509 934.191406 490 930 C 497.636719 944 485.226563 945.242188 483.214844 958 C 481.523438 968.710938 485.542969 979.386719 486 990 L 487 990 C 491.511719 974.734375 488.628906 959.007813 496.53125 944 C 499.78125 938 506.328125 935.394531 510.367188 930 C 515.175781 923.539063 517.722656 915.695313 522 909 C 529.515625 897.660156 538.722656 887.800781 545.574219 876 C 551.363281 866.03125 556 855.695313 560.394531 845 C 562.222656 840.460938 564.867188 834.785156 563 830 M 993 831 C 993.40625 833.09375 993.21875 833.019531 995 834 C 994.308594 832.613281 994 832.140625 993 831 M 935 832 C 938.859375 850.695313 946.3125 869.28125 957.203125 885 C 963.765625 894.464844 972.242188 902.4375 978.640625 912 C 982.214844 917.335938 983.601563 923.640625 986.992188 929 C 990.382813 934.347656 996.546875 936.71875 1000 942.003906 C 1008.964844 955.535156 1011 975.210938 1011 991 L 1013 991 C 1013 980 1016.9375 968.121094 1014.65625 957 C 1013.214844 950 1004.285156 946.039063 1003.660156 939 C 1003.351563 935.488281 1006.644531 932.066406 1008 929 C 988.933594 935.234375 993.707031 913.804688 986.90625 903 C 978.484375 889.621094 965.335938 880.085938 956.519531 867 C 949 856.074219 945.320313 840.527344 935 832 M 873 841 C 881.355469 857.367188 899.308594 860 910.785156 872.105469 C 916.445313 878.152344 915.789063 888.253906 923 893 C 929 897 937 892.757813 942.816406 897.433594 C 949.171875 902.679688 961.550781 912.652344 965 920 C 968.859375 928 967.734375 937.644531 972.703125 945 C 978.773438 954 988.691406 959.476563 995 969 C 1000 952.238281 980.859375 946 974.800781 935 C 971 928.296875 969.574219 920.605469 965.648438 914 C 962.941406 909.449219 958.65625 906.296875 955.648438 902 C 952.820313 898 952 892.660156 947.894531 889.5625 C 941 884.511719 931.851563 888.011719 925 881.785156 C 920.335938 877.402344 920.363281 870.554688 915.851563 866.390625 C 909.890625 861 900.882813 859.527344 894 855.535156 C 886.652344 851.273438 880.722656 844.441406 873 841 M 503 971 C 506 966.332031 508 961.171875 512 957.09375 C 516.832031 952.355469 523.242188 950 526.773438 944 C 531 936.726563 529.890625 927.507813 533.570313 920 C 537 912.738281 549.691406 902.492188 556 897.433594 C 561.5625 893.113281 569 896.476563 574.90625 892.773438 C 582.179688 888.160156 582.457031 878.101563 588 872.015625 C 598.96875 860.308594 619.652344 858.75 625 842 C 617.53125 845.421875 611.328125 851.71875 604 855.691406 C 597.222656 859.363281 588 861.613281 582.277344 866.789063 C 577.679688 871 577.667969 878.121094 572.816406 882.519531 C 566.21875 888.503906 556.570313 885 550.214844 890.433594 C 536.84375 902 531.667969 921.257813 523.355469 936 C 520.347656 941.328125 515.289063 942.222656 511.214844 946.226563 C 505.679688 951.65625 502.324219 963.421875 503 971 M 640 848 C 629.515625 865.054688 611 874.351563 600.558594 891 C 594.917969 900 601.269531 910.726563 594.441406 918.816406 C 588.535156 925.8125 577.304688 925.015625 572.363281 933.042969 C 564 946.570313 568.335938 964.320313 563.957031 979 C 559.28125 994.683594 544.953125 1000.582031 534.183594 1011.289063 C 528.8125 1016.628906 526.820313 1024.367188 521.785156 1030 C 516.269531 1036.085938 508.710938 1037.503906 501 1039 L 501 1040 C 509.566406 1041.589844 522.863281 1043.320313 529.671875 1036.660156 C 534.433594 1032 535.851563 1025.003906 540.214844 1020.015625 C 545.359375 1014.132813 554.449219 1014 558.785156 1007.8125 C 569.867188 992.015625 566.402344 968.421875 574.3125 951 C 581 936.078125 595.933594 935.085938 604.347656 923 C 609.574219 915.480469 604.261719 906.226563 608.273438 898 C 614.363281 885.523438 624.933594 875.117188 633 864 C 636.308594 859.664063 641.675781 853.6875 640 848 M 444 849 L 444 852 L 445 852 C 444.75 850.546875 444.683594 850.246094 444 849 M 859 850 C 862.257813 869 881.234375 881.445313 889.480469 898 C 893.511719 906.085938 888.519531 915.261719 893.703125 923 C 901.738281 935 916.945313 937.058594 923.742188 951 C 932 968.058594 929 989.800781 939 1006 C 943.566406 1013.316406 953 1013.300781 958.472656 1020.015625 C 962.636719 1025.261719 964.273438 1032.132813 969 1037 C 975.816406 1043.5 989.449219 1041.585938 998 1040 L 998 1039 C 992.699219 1038 986.585938 1037.34375 982 1034.296875 C 972.445313 1028 969.449219 1015.757813 961 1008.175781 C 951.839844 1000 939.496094 993.554688 935.621094 981 C 931.183594 966.621094 933.695313 949 927.347656 935.003906 C 922.742188 925 908.550781 926.105469 902.742188 917 C 898.492188 910.3125 902.734375 901.1875 899.632813 894 C 895.878906 885.296875 886.503906 878.648438 880 872 C 872.984375 864.792969 867.277344 856 859 850 M 770 864 C 778.863281 861.582031 787.769531 856.140625 797 860.214844 C 809.824219 866 814.796875 883 821.683594 894 C 835.433594 916.117188 850.507813 936.625 874 949 C 868.964844 938.203125 855.972656 932 849 922 C 835.445313 902.671875 829.210938 877.441406 812.5625 860.289063 C 800.890625 848.265625 780.363281 851.492188 770 864 M 625 948 C 650 937.546875 664.996094 913.039063 678.945313 891 C 685.5625 880.546875 690.617188 865 703 860 C 711.261719 856.675781 719 861.117188 727 863 C 717.90625 850.679688 698.578125 849.761719 687.171875 859.527344 C 668 876 661.203125 904.027344 646.84375 924 C 640.648438 932.621094 630.183594 939.175781 625 948 M 726 875 C 719 877.230469 715.621094 882.742188 717.800781 890 C 718.484375 892.285156 721.808594 900.011719 725.371094 897.824219 C 728.277344 896.039063 726 878.679688 726 875 M 774.316406 876.175781 C 770.457031 876.738281 770.304688 898.667969 774.214844 898.078125 C 782.792969 896.785156 784.566406 874.679688 774.316406 876.175781 M 632 902 C 621 926.625 607.671875 948.554688 594.425781 972 C 580 997.496094 568.601563 1025.632813 547.828125 1047 C 541.550781 1053.347656 533.230469 1057.234375 526 1062.429688 C 519.734375 1067 514.816406 1073.414063 508 1077.085938 C 499 1082 487.804688 1081 478 1081 L 478 1082 C 487.242188 1084.734375 504.738281 1087.660156 514 1084.105469 C 519.59375 1082 522.398438 1076 527 1072.417969 C 531.683594 1069 537.839844 1067.71875 543 1065 L 541 1071 C 553.886719 1066.617188 560.992188 1050.636719 568 1040 C 587.820313 1010 602.359375 976.652344 617.308594 944 C 621.675781 934.46875 625.53125 924.746094 629.398438 915 C 631 911 633.523438 906.292969 632 902 M 865 903 C 879.195313 946.632813 899.726563 988.664063 923.199219 1028 C 931.988281 1042.726563 941 1062.765625 957 1071 L 956 1065 C 961.425781 1068 967.996094 1068.832031 972.90625 1072.636719 C 977.386719 1076.109375 979.417969 1082 985 1084.105469 C 994.261719 1087.660156 1010.621094 1084.234375 1020 1082 L 1020 1081 C 1010.832031 1081 999.230469 1081.140625 991 1076.648438 C 984 1073 979.417969 1066.46875 973 1062.09375 C 965.644531 1057.074219 957.476563 1053.273438 951 1047 C 938.8125 1034.675781 930.234375 1018 921.71875 1003 C 910.855469 984 899.496094 965.1875 888.859375 946 C 881.554688 932.820313 877.183594 912.410156 865 903 M 687 914 C 679.335938 927 665.28125 940.792969 663 956 L 664 956 C 672.339844 945.054688 695.707031 930.378906 687 914 M 811 914 C 811 931.074219 820.789063 946.0625 836 955 C 830.441406 941.644531 821.410156 924.09375 811 914 M 625 1015 C 639.820313 1003 642.855469 986.246094 644 969 C 644.3125 966.390625 650.667969 954.019531 645.695313 953.546875 C 640.824219 953.082031 639 959.375 639 963 C 638.847656 969.527344 641.667969 975.53125 639.789063 982 C 636.425781 993.578125 627 1003.101563 625 1015 M 872 1015 C 875.242188 1005.621094 861 990.136719 858.375 981 C 856.394531 974.402344 860.167969 968.550781 859.722656 962 C 859.5 958.78125 856.621094 952.441406 852.355469 953.753906 C 848 955.039063 854.28125 965.34375 854.632813 968 C 855.292969 973.023438 853.378906 978 854.527344 983 C 857.21875 995 866.382813 1004.449219 872 1015 M 828 1095 L 830 1095 C 828.3125 1081.664063 825 1068.484375 825 1055 L 826 1055 C 833.472656 1067.414063 837.855469 1080.488281 839 1095 L 840 1095 C 840 1083.277344 836.546875 1072.496094 835 1061 C 841.386719 1065 848 1070.75 850.855469 1078 C 852.964844 1083.550781 851.542969 1089.320313 851 1095 C 849.929688 1109.398438 849.179688 1125.003906 842.203125 1138 C 838.351563 1145.179688 826.402344 1160.015625 819 1148 C 812.792969 1137.574219 822.6875 1125.253906 824.535156 1115 C 826 1106.683594 823.355469 1098.304688 823 1090 L 822 1090 C 822 1099.539063 823.757813 1111.15625 819.429688 1120 C 816.738281 1125.507813 810.21875 1129 808.742188 1135 C 805.667969 1147.800781 814.277344 1160.671875 801.957031 1171.785156 C 788.84375 1183.613281 768.511719 1176.644531 753 1176.039063 C 736.207031 1175.386719 717 1183.492188 701 1175.441406 C 682.609375 1166.214844 693.277344 1149.449219 690.472656 1135 C 689.347656 1129.199219 682.367188 1126.113281 679.675781 1121 C 674.804688 1111.761719 676.578125 1102 677 1092 L 675 1092 C 674.976563 1100.261719 672.765625 1108.777344 674.519531 1117 C 676.65625 1127.035156 686 1138.742188 678.996094 1149 C 671.238281 1160 658.492188 1142.773438 655.324219 1136 C 644.761719 1113.445313 640.902344 1077.566406 663 1062 C 662.96875 1073.164063 659.402344 1084 658 1095 L 660 1095 C 660.292969 1080.765625 666.496094 1067.359375 673 1055 L 674 1055 C 673.730469 1068.046875 671.589844 1083.761719 667 1096 C 678.171875 1084.484375 678.40625 1060 683.355469 1045 C 689 1028 704.230469 1012.386719 718 1001.09375 C 723.367188 996.695313 730.683594 991.242188 738 991.359375 C 741.828125 991.417969 745.175781 993.703125 749 994 C 754.742188 994.074219 759 990.386719 765 992.046875 C 775.777344 995.078125 783.351563 1003.351563 791 1011 C 811.664063 1031.664063 827.75 1064.71875 828 1095 M 691 1080 C 697.238281 1073 696 1060.691406 699 1052 C 702.882813 1041.011719 710.933594 1032.488281 717.328125 1023 C 719 1020.398438 727.628906 1010.132813 723.355469 1007.085938 C 718 1003.375 709.195313 1017.730469 707.203125 1021 C 696.527344 1038.539063 691.171875 1059.511719 691 1080 M 807 1090 L 809 1090 C 808.996094 1069.011719 804 1044.621094 794.21875 1026 C 791 1020.066406 787.425781 1013 781.910156 1008.804688 C 780.289063 1007.613281 775.8125 1005.027344 774.816406 1008.332031 C 772.726563 1015.277344 786 1029.539063 789.65625 1035 C 800.371094 1051.5 807 1070.261719 807 1090 M 737 1026 C 730.890625 1048.390625 732 1070.089844 729.828125 1093 C 727.722656 1115.042969 723.183594 1138 723 1160 L 724 1160 C 741.941406 1126.3125 733.425781 1082.523438 735 1046 C 735.34375 1039.132813 738 1032.761719 739 1026 L 737 1026 M 759 1027 C 767 1060 760.800781 1093.726563 765.578125 1127 C 766.890625 1136.132813 768 1155.179688 776 1161 C 771.800781 1127.792969 767 1095.542969 767 1062 C 767 1051.773438 769.570313 1033 759 1027 M 713 1049 C 711.914063 1074.296875 716.230469 1100 713.828125 1125 C 712.566406 1138.207031 707.210938 1150.160156 705 1163 L 706 1163 C 721.425781 1136.5625 720.34375 1105.34375 717 1076 C 716.289063 1069.230469 718.613281 1053.273438 713 1049 M 783 1049 C 783 1077 776.726563 1105.195313 781.433594 1133 C 782.835938 1141.269531 785.585938 1156.144531 793 1161 C 789.246094 1144.628906 784.78125 1129 784 1112 C 783.539063 1100.59375 785.945313 1089.363281 786 1078 C 786 1071.019531 789 1053.339844 783 1049 M 748 1057 C 748 1077.058594 744.765625 1097 745 1117 C 745 1128.164063 748.359375 1140.753906 742 1151 C 736.246094 1160.289063 727.585938 1162.730469 718 1166 L 718 1167 C 728.757813 1167 739.203125 1164 750 1164 C 760 1164.050781 769.902344 1167 780 1167 L 780 1166 C 741.945313 1156.128906 754.851563 1109.230469 751.285156 1079 C 750.445313 1072 752.722656 1063 748 1057 M 596 1070 C 579.171875 1108 572.84375 1154.101563 542.960938 1185 C 526 1202.5 499.753906 1211.789063 480.300781 1191.816406 C 467.179688 1178.34375 462.996094 1154.769531 459.210938 1137 C 457.746094 1130.121094 457.625 1121.039063 454 1115 C 445.96875 1128.8125 443.46875 1142.726563 448.34375 1158 C 449.644531 1162.078125 450.488281 1167.363281 454 1170 L 454 1160 L 455 1160 C 457.90625 1175.644531 459.84375 1192.636719 471.183594 1205 C 490.617188 1226.070313 529.222656 1215.527344 546.996094 1198 C 568.757813 1176.507813 575 1144.285156 583.425781 1116 C 586.558594 1105.28125 590.171875 1094.683594 593.433594 1084 C 594.804688 1079.519531 597.65625 1074.636719 596 1070 M 902 1070 C 903.339844 1087 911 1103.097656 916.328125 1119 C 925.8125 1148.09375 930.796875 1180.550781 955 1201.816406 C 972 1217 1009.410156 1223 1026.90625 1205 C 1038.269531 1193.289063 1042.320313 1171.78125 1043 1156 L 1044 1156 C 1044.199219 1160.644531 1044.671875 1165.554688 1046 1170 L 1047 1170 C 1049.925781 1148.261719 1053.894531 1135.152344 1044 1114 L 1043 1114 C 1041.882813 1128.164063 1037.902344 1142.277344 1034.371094 1156 C 1031.917969 1165.53125 1028.675781 1175.554688 1023.535156 1184 C 1009.570313 1207 982.457031 1209.195313 963 1191.824219 C 936.925781 1168.550781 926.390625 1137.203125 915.667969 1105 C 911.984375 1094 910.578125 1078.488281 902 1070 M 690 1083 L 690 1095 L 691 1095 C 691.511719 1091 691.988281 1087.078125 692 1083 L 690 1083 M 1229 1092 C 1218.722656 1123.585938 1210.167969 1157.476563 1194.679688 1187 C 1172.445313 1229.375 1139.566406 1264.433594 1106 1298 C 1075 1329 1044 1360.480469 1007 1384 C 991.988281 1393.453125 976 1400 960 1407 L 960 1408 C 988.371094 1405.523438 1017.648438 1383 1040 1367 C 1104.625 1321 1171.21875 1258.109375 1203 1184 C 1212.21875 1162.5 1219 1140.546875 1225 1118 C 1227.253906 1110.226563 1232.328125 1100 1229 1092 M 269 1094 C 277.660156 1131.78125 287.765625 1171.714844 306.308594 1206 C 334.789063 1258.65625 378.347656 1299.445313 423 1338.28125 C 455.175781 1366.265625 491.988281 1398.097656 535 1407 C 530.835938 1401.449219 519.25 1399.316406 513 1396.242188 C 498.253906 1389 483.921875 1380 471 1369.789063 C 425 1333.757813 382 1290.523438 344.425781 1246 C 320.523438 1217.710938 301.507813 1186.691406 288.425781 1152 C 284.78125 1142.339844 280.933594 1132.105469 278.804688 1122 C 276.886719 1113 275.878906 1100.8125 269 1094 M 636 1111 C 637.167969 1125.769531 641 1143.632813 651.183594 1155 C 657.1875 1161.773438 675 1169.300781 673.726563 1180 C 671.96875 1194.605469 650.390625 1184 644 1179.640625 C 627.765625 1168.660156 625.515625 1149 628 1131 C 629 1123.703125 629.933594 1115.792969 636 1111 M 864 1111 C 879.542969 1130.273438 872.46875 1170.160156 851 1182.097656 C 843.566406 1186.226563 819 1192 826 1175 C 828.898438 1168 837.335938 1164.019531 842.960938 1159.335938 C 848.441406 1154.769531 852.273438 1148.460938 855 1142 C 859.230469 1132.765625 858.578125 1119 864 1111 M 1168 1112 C 1167.429688 1125.242188 1163 1139.171875 1159.871094 1152 C 1151 1187 1137.914063 1224.113281 1112.910156 1251 C 1094.621094 1270.667969 1070.90625 1283.421875 1048 1297 C 1024.726563 1310.515625 997.851563 1333 969 1329.824219 C 959.328125 1328.785156 952.710938 1322.296875 944 1319 C 968.382813 1355.558594 1020.648438 1326.402344 1048 1309.796875 C 1071.433594 1295.570313 1097 1282.300781 1115.910156 1262 C 1143.472656 1232.371094 1155.25 1189.753906 1163 1151 C 1165.53125 1138.335938 1169.734375 1125 1170 1112 L 1168 1112 M 330 1118 C 330.320313 1133.488281 334.890625 1149.066406 338.628906 1164 C 347.3125 1198.742188 358.296875 1235.121094 383.171875 1262 C 399.441406 1279.558594 422 1290.714844 442 1303.320313 C 464.453125 1317.46875 489 1336.660156 517 1336.660156 C 528.964844 1336.660156 540.761719 1332.65625 552 1329 L 552 1328 C 538.429688 1328.113281 525.675781 1333 512 1330 C 494 1326.113281 479.535156 1313.769531 464 1305 C 423.585938 1281.648438 383.519531 1259.625 362.257813 1216 C 352.222656 1195.402344 344.980469 1173.128906 339 1151 C 336.402344 1140.558594 337 1126.691406 330 1118 M 300 1129 L 301 1130 L 300 1129 M 620 1181.746094 C 624.84375 1180.609375 647.8125 1196.269531 636.980469 1199.507813 C 630.878906 1201.328125 619.554688 1203 614.320313 1198.296875 C 609.792969 1194.230469 614.683594 1183.015625 620 1181.746094 M 876.984375 1181.582031 C 886.4375 1180.433594 889 1199.28125 877 1200.816406 C 873 1201.304688 859.175781 1202 857.347656 1197.3125 C 856 1194.234375 873.933594 1182 876.984375 1181.582031 M 506 1273 L 506 1272 L 511 1272 L 511 1270 C 505.550781 1269.523438 500.46875 1267.445313 495 1267 C 496.1875 1268.1875 496.527344 1268.585938 497 1270 C 481.941406 1267 466.578125 1255.71875 461 1241 C 467.519531 1241.28125 478 1242.15625 482 1248 C 479.269531 1248.117188 476.6875 1248.5 474 1249 L 474 1250 C 484.988281 1250 496 1251.136719 507 1252 L 507 1251 C 493.414063 1247.472656 503.910156 1241.101563 513 1242.304688 C 517.738281 1243 527.753906 1245 529.59375 1250.105469 C 532 1257.171875 518.65625 1260.53125 514 1261 L 514 1263 C 522.625 1262.628906 534.191406 1261.058594 539 1253 C 540.761719 1250.34375 542.566406 1236.832031 538.398438 1235.589844 C 535 1234.613281 527.324219 1240 523 1240 C 526.203125 1233.585938 535.933594 1229.675781 542 1226.066406 C 543.65625 1225.078125 547.800781 1222.164063 549.398438 1224.648438 C 551.761719 1228.328125 549.808594 1237 549.28125 1241 C 546.417969 1263.035156 529 1278.511719 506 1273 M 830 1223 L 830 1226 L 829 1226 C 829.25 1224.546875 829.316406 1224.246094 830 1223 M 976 1240 C 971.84375 1239.785156 964 1234.578125 960.742188 1235.675781 C 956.4375 1237.089844 958 1250.210938 959.859375 1253 C 964.6875 1261 975.699219 1262 984 1263 C 980.441406 1260 969.863281 1258.292969 969.175781 1252.820313 C 968.675781 1248.832031 974 1246 977 1244.378906 C 985.734375 1240 994.761719 1241.050781 1001 1249 C 997.960938 1249.722656 995 1250 992 1250 L 992 1252 C 1002.929688 1252 1014.351563 1251.625 1025 1249 L 1025 1248 L 1019 1248 C 1022.386719 1243.050781 1031.335938 1241.761719 1037 1241 C 1032.527344 1256.203125 1015.199219 1268 1000 1270 L 1000 1269 C 1002.253906 1268.25 1003.3125 1267.65625 1005 1266 C 999 1267.65625 993 1269 987 1269 L 987 1270 L 993 1272 L 993 1273 C 988.539063 1273.828125 984.507813 1274.113281 980 1273.410156 C 952 1269.0625 950 1246.644531 950 1223 C 957.855469 1225.488281 971.84375 1232.804688 976 1240 M 608 1252 C 586.71875 1273.105469 558.949219 1290.78125 530 1299 L 530 1300 C 553.273438 1299.515625 574.621094 1283.644531 592 1269.800781 C 596.960938 1266 608.96875 1259.28125 608 1252 M 889 1252 C 889.769531 1253.3125 889.6875 1253.230469 891 1254 C 890.453125 1252.363281 890.636719 1252.546875 889 1252 M 892 1255 C 907.238281 1276.636719 942.179688 1298.808594 969 1301 C 961.285156 1294.191406 948 1291 939 1285.550781 C 923.558594 1276.285156 908.902344 1261.1875 892 1255 M 766 1300 C 768 1305.785156 772 1310.585938 775 1316 C 765.832031 1314.625 758 1309.3125 754 1301 L 753 1301 C 755.46875 1309.554688 762 1315.277344 766 1323 C 756 1322.539063 751.285156 1316.488281 750 1307 L 749 1307 C 747.554688 1316.652344 741.867188 1322.546875 732 1323 C 737 1315.261719 742.308594 1308.035156 747 1300 C 739.414063 1307 735.257813 1315.011719 724 1316 C 726.707031 1310.695313 730.660156 1306 734 1301 C 728 1305.144531 714.386719 1322.746094 706.316406 1320.207031 C 701 1318.554688 706.625 1308 707.65625 1305 C 712.304688 1291.609375 714.226563 1273.546875 727 1265.109375 C 740 1256.453125 765.816406 1257.210938 776.785156 1269.09375 C 783.480469 1276.34375 785.628906 1288 788.667969 1297 C 790.402344 1302.210938 797.597656 1314.386719 795.351563 1319.679688 C 793.875 1323.164063 789 1321 787 1319.484375 C 779.613281 1314.308594 772.433594 1306.382813 766 1300 M 510 1310 L 510 1311 C 541.3125 1310.355469 571.710938 1301.472656 596 1281.574219 C 601.378906 1277.167969 609.398438 1273 613 1267 C 596.78125 1273.695313 584 1287.3125 568 1294.691406 C 549.277344 1303.265625 529.28125 1304.140625 510 1310 M 887 1268 C 911 1297.535156 953 1311 990 1311 L 990 1309 C 968.195313 1308.820313 941.875 1301.371094 923 1290.574219 C 910.9375 1283.671875 900.546875 1272 887 1268 M 644 1344 L 643 1345 L 644 1344 M 856 1344 L 855 1345 L 856 1344 M 536 1406 C 536.769531 1407.3125 536.6875 1407.230469 538 1408 C 537.453125 1406.363281 537.636719 1406.546875 536 1406 "/>
</g>
</svg>
