<?xml version="1.0" encoding="UTF-8"?>
<svg xmlns="http://www.w3.org/2000/svg" xmlns:xlink="http://www.w3.org/1999/xlink" width="1500pt" height="1500pt" viewBox="0 0 1500 1500" version="1.1">
<g id="surface1">
<path style=" stroke:none;fill-rule:nonzero;fill:rgb(0%,0%,0%);fill-opacity:1;" d="M 334 513 L 335 513 C 335.472656 524 340 534.265625 341.570313 545 C 342.523438 551.644531 341.234375 558.648438 343.996094 565 C 346.703125 571.234375 354 573.355469 356 580.003906 C 358.65625 588.558594 356.207031 598.210938 357.285156 607 C 359.179688 622.414063 364.277344 637.417969 364.960938 653 C 365.757813 671.160156 359 688.59375 354.882813 706 C 349 730.648438 344.351563 757.601563 346 783 C 348.199219 814 357.484375 843 370.308594 871 C 377.539063 886.789063 387.832031 902.269531 392.570313 919 C 395.636719 929.820313 396.199219 941.40625 400 952 C 402.421875 958.328125 407.628906 963.183594 408.695313 970 C 410 979.183594 408.289063 988.757813 409.171875 998 C 411.746094 1025.085938 416.605469 1051.703125 427 1077 C 434.265625 1094.632813 443.453125 1111.253906 455.613281 1126 C 461.855469 1133.570313 471.347656 1138.179688 476 1147 C 481.9375 1158.191406 485.855469 1170.066406 492.449219 1181 C 515.484375 1219.183594 549.714844 1251.441406 592 1267 C 621 1277.582031 654.757813 1282 684 1269.570313 C 706 1260.175781 725.535156 1238.257813 751 1238.710938 C 777.304688 1239.175781 796.308594 1263.042969 820 1271.304688 C 870.90625 1289.058594 930 1264.082031 968 1229.828125 C 988 1211.675781 1004 1189.597656 1017 1166 C 1021.398438 1158.320313 1023.183594 1149.332031 1027.964844 1142 C 1033.300781 1133.820313 1042.515625 1128.707031 1048.574219 1121 C 1062.28125 1103.550781 1072.265625 1082.070313 1078.972656 1061 C 1085.21875 1041.363281 1089.503906 1020.570313 1090.910156 1000 C 1091.523438 991.074219 1090 982 1091.300781 973 C 1092.539063 964.414063 1098 958 1100.910156 950 C 1104.261719 940.664063 1104.902344 930.492188 1107.722656 921 C 1121.644531 874.078125 1151.453125 835.46875 1154.910156 785 C 1156.777344 757.726563 1151.390625 729.425781 1145 703 C 1141 686 1134.863281 670 1136 652 C 1137.246094 635.121094 1142.710938 618.769531 1144.714844 602 C 1145.617188 594.445313 1142.464844 586.332031 1145 579.042969 C 1147.183594 573.519531 1154.179688 572.613281 1156.8125 567 C 1160.417969 559.296875 1159.222656 550.199219 1160.289063 542 C 1161.300781 534.21875 1164.359375 526.824219 1165 519 L 1166 519 C 1166 542.203125 1166 565.035156 1169.921875 588 C 1174 612.796875 1180.785156 641 1196.667969 661 C 1205.71875 672.445313 1222.542969 680.089844 1237 674.53125 C 1260 665.6875 1249.277344 630.050781 1262 613 C 1274.574219 596.265625 1291.386719 583.214844 1304.539063 567 C 1331.191406 534.152344 1346.710938 493.664063 1356.871094 453 C 1362.605469 430.0625 1365.59375 405 1354.628906 383 C 1351.289063 376.320313 1346.566406 368.769531 1340 365 C 1335.789063 362.347656 1331 362.804688 1327 359.671875 C 1316.554688 351.621094 1305.527344 337.265625 1292 334.546875 C 1284.394531 333.015625 1279.824219 342 1273 341.003906 C 1268 340.285156 1263.5 333.308594 1260 330.09375 C 1254 324.589844 1246.515625 320.496094 1239 317.453125 C 1204.695313 303.554688 1167 301.007813 1134 282.6875 C 1127.308594 279 1122.257813 273.109375 1116 268.773438 C 1108.554688 263.613281 1100 260.316406 1093 254.535156 C 1085.914063 248.730469 1080 241.546875 1072 237 C 1054.644531 226.746094 1033.917969 223.273438 1014 225.171875 C 1001.378906 226.371094 987.84375 228.765625 977 235.699219 C 956 249.105469 943.894531 273 923 286.195313 C 915 291.21875 908.171875 283.105469 900 283.265625 C 887.421875 283.507813 876.765625 291.660156 865 295 C 857.773438 296.796875 849.996094 294.703125 843 297.480469 C 838.484375 299.269531 829.90625 304.21875 829.753906 310 C 829.652344 313.476563 834 312.195313 836 311.226563 C 840.21875 309.09375 846.515625 301.667969 851.605469 305.617188 C 858.402344 311 858.371094 322.242188 866 328.070313 C 875.6875 335.40625 888.996094 335.546875 900 339.8125 C 913.539063 345.054688 924.976563 354.4375 938 360.742188 C 942.476563 363 956.585938 370.304688 961.246094 366.015625 C 963.355469 364.078125 959.261719 362.207031 957.980469 361.617188 C 951.640625 358.707031 944.992188 356.582031 939 353 C 928.804688 346.734375 919 339 908 334.453125 C 897.371094 330.144531 884.65625 329.660156 875 323.148438 C 869.71875 319.589844 858.210938 309.300781 866 303.109375 C 875.203125 296.042969 896.363281 288 906.90625 295 C 913.488281 299.433594 914.898438 308.011719 919.527344 314 C 926 322.511719 936.253906 327.289063 946 331.199219 C 953.328125 334.140625 959.867188 337 966 342.035156 C 967.207031 343.035156 970 346.175781 971.957031 344.824219 C 976.265625 341.65625 966 333.3125 964 332 C 952.328125 324.339844 938 321.546875 928.300781 311 C 923.191406 305.34375 920.882813 297.089844 930 294 C 937.359375 291.324219 945.992188 301.316406 951 305.390625 C 968.96875 320 985.636719 335.636719 1002 352 C 1027 377.113281 1053 401.699219 1079 426 C 1092.222656 438.226563 1108 448.808594 1118.25 464 C 1124.710938 473.609375 1126.242188 485.191406 1129.746094 496 C 1137.265625 519.210938 1144 536.289063 1143 561 L 1142 561 C 1140.851563 552.523438 1136.996094 544.117188 1132.300781 537.003906 C 1131.28125 535.460938 1127.59375 529.664063 1125 532.085938 C 1122.375 534.667969 1128.546875 543.46875 1129.6875 546 C 1135 558 1138.789063 573 1137.910156 586 C 1136 612.320313 1126.632813 638.449219 1129.171875 665 C 1130.863281 682.722656 1136.753906 699.691406 1140.574219 717 C 1146.574219 744.15625 1149.664063 773.347656 1145.574219 801 C 1142 825 1132.5625 847.058594 1122.859375 869 C 1118.195313 879.546875 1114.421875 891.703125 1107.484375 901 C 1083.851563 932.679688 1049.722656 956 1037 995 L 1036 995 C 1035.394531 981.78125 1025.984375 970.429688 1020.269531 959 C 1012.570313 943.601563 1007.484375 926.730469 1003.652344 910 C 992.851563 863 1005.445313 815 985 769 C 974.632813 745.234375 957.40625 722 943.308594 700 C 939.847656 694.628906 926.207031 683.023438 926.207031 677.148438 C 926.207031 673.554688 930.996094 674.578125 933 675.355469 C 939.710938 678 945.441406 683.171875 951 687.601563 C 977.847656 709.003906 1019 708.726563 1041 679 C 1045.9375 672.414063 1049.339844 665 1051.25 657 C 1052 653.261719 1051.34375 648.675781 1053.226563 645.242188 C 1056.191406 640 1069.839844 652.253906 1067.925781 642 C 1060.773438 603.621094 1023.492188 579.050781 987 575 C 970 573.042969 951.257813 574.136719 940 589.003906 C 928 605.195313 925 625.769531 920.652344 645 C 919.496094 650.035156 918.617188 663.796875 912.867188 665.832031 C 908.210938 667.480469 897.828125 657.527344 894 655.003906 C 876.976563 643.78125 858.628906 635 841 624.714844 C 838.167969 623.082031 820.804688 610.601563 818.972656 617.316406 C 818 620.53125 821.835938 623.097656 824 624.652344 C 831.269531 629.832031 839.269531 634 847 638.28125 C 878.875 656.402344 912.246094 673.53125 932.996094 705 C 951.734375 733.421875 975.941406 766.492188 983.765625 800 C 990.398438 828.421875 986 857.238281 988 886 C 989 900 992.492188 913.640625 996 927 C 1007.484375 968.386719 1037.667969 1005 1032.285156 1050 C 1027.753906 1088 1029.320313 1136 996 1162 C 973.921875 1179.210938 939.964844 1178.285156 920 1158 C 907.476563 1145.183594 899.488281 1128.355469 890.574219 1113 C 874 1084.667969 857.246094 1055.558594 833 1033.089844 C 820 1021.058594 801.8125 1013.367188 785 1008.425781 C 775 1005.492188 762.6875 1001 761.183594 989 C 759.636719 976.761719 760.351563 964.34375 758.578125 952 C 757.714844 946 756 939.3125 759.804688 934.015625 C 773.804688 914.074219 803.886719 917 818.238281 898 C 825.921875 888 830.433594 874.046875 836.90625 863 C 838 861 841.613281 854 836.769531 853.546875 C 831.300781 853.082031 826.648438 861.140625 824.230469 865 C 816 878.113281 813.261719 892.222656 798 899.507813 C 781.621094 907.324219 767.816406 911.273438 754 924 L 754 820 C 754 811.667969 754 803.332031 754 795 C 753.980469 792.460938 754.394531 788 750.894531 787.464844 C 747 787.011719 746.222656 791.191406 746 794 C 745.523438 802.269531 746 810.714844 746 819 C 746 853.664063 746.90625 888.417969 747 923 C 734.1875 914.238281 722.347656 907.152344 708 901 C 696 896 689.945313 888.386719 684.246094 877 C 680.683594 870 675.191406 856.710938 667 854 C 662 852.222656 661.769531 857.730469 663 861 C 666.539063 869.679688 672.597656 877.277344 676.203125 886 C 685 907.308594 707.199219 910 725 920.453125 C 731.703125 924.441406 743.25 931.121094 743.496094 940 C 743.679688 946.527344 740.796875 953.449219 740.171875 960 C 739 971.039063 743.804688 987.652344 736.582031 997 C 729.433594 1006.226563 716.40625 1008.167969 706 1011.667969 C 692.308594 1016.269531 678.550781 1023 668 1033.039063 C 646 1054 629.824219 1079 614.851563 1105 C 605 1122.058594 596.382813 1141.464844 582.910156 1156 C 564.585938 1175.769531 534.523438 1180.152344 511 1166.664063 C 472 1144.371094 469 1086.410156 469 1047 C 469 1029.273438 470.265625 1012 476 995 C 484.992188 968.464844 500.195313 945.640625 507 918 C 516.386719 881 508.671875 844 515.804688 807 C 520.71875 781.539063 534.878906 760.683594 548.1875 739 C 556 726.128906 562.617188 712.292969 571.429688 700 C 590.375 673.558594 619.65625 656.121094 648 641.253906 C 656.785156 636.648438 665.585938 632 674 626.574219 C 676.699219 625 681.398438 622.5625 681.941406 619.019531 C 683.367188 609.652344 663.171875 622.714844 661 624 C 642.792969 634.683594 623.601563 643.601563 606 655.332031 C 602.285156 657.808594 591.945313 668.203125 587.394531 665.261719 C 581.511719 661.464844 580.941406 648.179688 579.574219 642 C 575.59375 624 572.375 604 560.761719 589.015625 C 549.503906 574.519531 530 572.503906 513 574.71875 C 474 579.769531 445.355469 602 433.90625 640 C 429.757813 653.792969 445.535156 639.8125 447.566406 645.253906 C 450.304688 652.582031 449.734375 660.617188 453.371094 668 C 464.605469 690.785156 490.257813 703.289063 515 703 C 533 702.78125 546.167969 690.074219 560 680.15625 C 562.183594 678.589844 572.796875 671 574.652344 676.332031 C 576 680.613281 561.746094 694.023438 559 698 C 544.769531 719 530.292969 741.75 518.308594 764 C 497.414063 802.800781 506.605469 842.671875 501.714844 884 C 496.980469 924.007813 480 957.734375 464 994 C 452.457031 969.636719 436.472656 949.144531 418.714844 929 C 410 919.230469 399.992188 910.703125 392.4375 900 C 384.71875 889.058594 380.710938 876.234375 375.574219 864 C 364 836.511719 354 809 352 779 C 349.460938 740.625 368.222656 703.773438 371.828125 666 C 374.511719 638 362.671875 611 363 583 C 363 571.046875 366 558 370.875 547 C 372.363281 543.589844 378.585938 536.300781 376.644531 532.425781 C 374.789063 528.722656 370.378906 534.554688 369.359375 536.015625 C 364.492188 543 361.304688 551 359 559 C 348.964844 540 363.996094 514 370.996094 496 C 374.972656 486 376.183594 474.335938 382 465 C 393.488281 447 413.351563 433 429 418.828125 C 454.539063 395.71875 479.644531 371.355469 504 347 C 519.859375 331.140625 536 316 554 302.375 C 559.46875 298.273438 568.957031 289.699219 575.617188 296.421875 C 582 303 572.878906 310.609375 568 314.675781 C 557.753906 323.214844 524.570313 330.230469 529 348 C 534.300781 344.265625 538.261719 339 544 335.800781 C 554.835938 330 566.625 327.539063 576 319 C 584 311.515625 587.925781 295.445313 599 292.558594 C 608.359375 290.117188 619.84375 296.269531 628 300.257813 C 631.210938 301.832031 636 303.785156 636 308.015625 C 636.238281 315.019531 627.578125 321.816406 622 324.507813 C 613 328.8125 603 330 594 334 C 582.570313 338.769531 572.566406 346.496094 562 353 C 555.9375 356.636719 549.261719 358.65625 543 362 C 541.507813 362.691406 537 365.617188 540.378906 367.222656 C 543.347656 368.65625 548 366.425781 551 365.574219 C 561.171875 362.589844 570 357 579 351.425781 C 588.183594 345.738281 597.65625 340.589844 608 337.347656 C 616 334.808594 624.710938 334.203125 631.996094 329.449219 C 640.992188 323.589844 640.695313 311 648.226563 305.785156 C 654.304688 301.679688 660.339844 311.289063 665.980469 312.199219 C 671.304688 313.058594 669.804688 307.632813 667.652344 305.09375 C 659 295 648.167969 298.101563 637 295.238281 C 624.644531 292.074219 614.246094 283.457031 601 283.128906 C 594.265625 283 586 290.023438 580 288 C 572.382813 285.128906 564.644531 275.617188 559 270 C 543.984375 255.058594 530.800781 237.210938 510 230.078125 C 486.636719 222.066406 457.269531 222.070313 435 233.375 C 424.269531 238.820313 416.238281 248.21875 407 255.6875 C 400.835938 260.671875 393.453125 263.308594 387 267.773438 C 381 272 376 277.347656 370 281.300781 C 351.734375 293.128906 329.5625 298.585938 309 305 C 290.929688 310.589844 271 312.746094 254 321.269531 C 245.25 325.644531 237.566406 337.714844 229 340.351563 C 222 342.476563 216.535156 333 209 334.40625 C 197.441406 336.5625 186.605469 348.699219 178 356 C 172.351563 360.785156 165.796875 361.644531 160 365.652344 C 150.46875 372.246094 144.292969 385.050781 141.476563 396 C 136.265625 416.28125 140 438.054688 145 458 C 155 498 171.179688 535.628906 197 568 C 209.828125 584.078125 226.675781 596.527344 239 613 C 251.78125 629.8125 239.785156 669.640625 265 675.472656 C 287 680.570313 306.753906 661 315.753906 643 C 335 604.324219 335.808594 555.152344 334 513 M 525 311 C 529.65625 274.148438 501.3125 259 468 262.171875 C 431.1875 265.746094 398 292.234375 376.882813 321 C 333.910156 379.371094 329 447.691406 326 517 C 324 560 327 607.082031 305 646 C 301.316406 637.21875 304.554688 624.269531 304.960938 615 C 306 589 309 563.011719 310.910156 537 C 315.421875 471.136719 316.898438 408.609375 344 347 C 352 329 360.304688 310.160156 373.300781 295 C 384 282.453125 397.976563 276.355469 411 267 C 426.476563 255.53125 437.554688 241.78125 457 237 C 477.351563 231.78125 503.3125 233.519531 521 245.773438 C 528.542969 251 533.769531 258.441406 540 265 C 544.4375 269.597656 557.257813 277.398438 558 284 C 558.5625 287.828125 552.480469 290.347656 550 292.289063 C 541.925781 298.609375 534.761719 307.300781 525 311 M 1197 647 L 1196 647 C 1188.644531 628.046875 1181.429688 610.292969 1178.425781 590 C 1170.746094 538.105469 1177 485 1169.570313 433 C 1163.957031 394.230469 1148.4375 354 1125.570313 322 C 1105.9375 294.652344 1075.460938 270.335938 1042 263.210938 C 1019.363281 258.390625 988.910156 260.203125 978.464844 285 C 974.847656 293.585938 975.976563 302.011719 976 311 C 966.523438 306.277344 958.511719 298.152344 950 292 C 947.761719 290.234375 942.394531 287.796875 942 284.675781 C 941.34375 278.605469 955.179688 270 958.984375 266 C 978.617188 246 997 231.320313 1027 234.171875 C 1056.925781 237.019531 1071.519531 253.753906 1095 270 C 1107.992188 279 1121.570313 286.742188 1131.855469 299 C 1145.894531 315.734375 1155.484375 337.703125 1163 358 C 1184.496094 415.527344 1185.953125 477.589844 1190 538 C 1192.578125 574.355469 1197 610.496094 1197 647 M 1109 319 C 1102 318.066406 1094.902344 315.445313 1088 318.148438 C 1075.695313 323 1075.871094 336.007813 1076 347 C 1076.292969 371.34375 1091 405.796875 1108 423 C 1104.503906 404.445313 1093.632813 375 1101.914063 357 C 1103.246094 354.121094 1105 351.414063 1107.300781 349.09375 C 1127 327.808594 1145.589844 362.417969 1145.984375 381 C 1146 388.074219 1143.289063 394.136719 1142.300781 401 C 1141.496094 406.566406 1142.511719 412.816406 1139.6875 418 C 1133.441406 429.328125 1123.207031 434.144531 1120 448 C 1104.296875 437 1082.878906 418.574219 1074.492188 401 C 1067.769531 387 1068.28125 370.480469 1059.933594 357 C 1049.917969 340.820313 1030 324 1031.378906 303 C 1032.222656 289.65625 1045 287.226563 1056 289.261719 C 1074.824219 292.769531 1097.703125 303 1109 319 M 381 448 C 377.335938 434.597656 366.871094 429.242188 361.179688 418 C 357.230469 410.191406 355 392 355 383 C 354.785156 364.550781 372.433594 328.65625 392.984375 348.09375 C 395 350.136719 397 352.375 398.582031 355 C 408.175781 372.585938 398.339844 404.109375 393 422 C 414.933594 406.222656 423.539063 367.316406 425.828125 342 C 427.832031 319.832031 408 314.023438 391 321 C 400.671875 304.316406 426.589844 292.777344 445 289.464844 C 454.320313 287.785156 467 289 469.515625 300 C 474 320.679688 452.515625 339.6875 442.355469 355 C 433 369 433.5625 385.28125 426.675781 400 C 421.175781 411.761719 411 419.195313 402 428.015625 C 395 434.6875 388.976563 442.679688 381 448 M 356 300 C 338.941406 341 303.511719 369.105469 276.398438 403 C 264.722656 417.597656 250.933594 433.195313 247 452 C 256.332031 445 261.558594 433.15625 268.664063 424 C 279.804688 409.644531 292.753906 396.660156 304.714844 383 C 312.617188 374 319.691406 362.527344 329 355 C 325.992188 368 320 380.183594 316.425781 393 C 313.898438 402 313.613281 412.253906 308.199219 420 C 301.652344 429.371094 291.8125 436.539063 284.171875 445 C 265 466.074219 245.609375 494.539063 245 524 C 252 515.238281 254.335938 502.167969 259.257813 492 C 270 469.519531 287.367188 443.535156 308 429 C 307.5 440.636719 304.890625 452.324219 304 464 C 302.691406 484.410156 302.703125 504 297.625 524 C 291.710938 547.355469 278.933594 569.722656 277 594 C 287.695313 582.085938 295.679688 559.785156 298 544 L 299 544 C 299 578.511719 295.851563 612.722656 291.949219 647 C 290.65625 658.363281 278.882813 673.152344 267.394531 660.773438 C 259 651.761719 266.460938 636 268.765625 626 C 271.445313 614.445313 268.589844 603 262.304688 593 C 242.226563 561.226563 208.523438 540.695313 191 507 C 182.722656 490.773438 178.886719 474.046875 177.171875 456 C 176.234375 446.175781 177.480469 436.703125 174.839844 427 C 172.382813 418 166.460938 411.484375 160 405 C 156.238281 401.226563 150.574219 397 151.574219 391 C 153.265625 381 165.246094 367.109375 173.777344 379.019531 C 182.640625 391.386719 183.570313 406.753906 187 421 L 188 421 C 188 408.035156 186.796875 394.421875 182.78125 382 C 181.226563 377.183594 175.316406 370.25 177.363281 365.039063 C 178.921875 361.078125 183.785156 358.683594 187 356.253906 C 193.894531 351.035156 200 343.507813 209 341.695313 C 213.496094 340.777344 222.921875 342.753906 224.183594 348.105469 C 225 352 221.203125 356.035156 219.453125 359 C 214.632813 367.15625 210.957031 376 206 384 C 226 375.359375 233 348.777344 250 335.519531 C 270.574219 319.332031 298.367188 316 323 309.625 C 334 306.8125 344.558594 301.542969 356 300 M 1294 384 C 1291.886719 375.109375 1286.71875 366.710938 1281.9375 359 C 1280 356.035156 1276 352 1276.828125 348.042969 C 1278 342.234375 1287.253906 340.613281 1292 341.6875 C 1300.472656 343.601563 1320.515625 357.660156 1323.382813 366.003906 C 1325.394531 372 1319.429688 378.539063 1317.925781 384 C 1314.757813 395.511719 1313 409.078125 1313 421 L 1314 421 C 1317.199219 407.050781 1319.746094 388.582031 1328.789063 377.058594 C 1337 366.417969 1348.394531 383.78125 1349.363281 392 C 1350 397.46875 1344.417969 401.539063 1341 405 C 1334.414063 411.679688 1328.324219 418.808594 1325.746094 428 C 1322.511719 439.527344 1324 452.167969 1322.828125 464 C 1321.261719 479.699219 1315.429688 496.113281 1308 510 C 1290.734375 543 1258.203125 562.144531 1238.695313 593 C 1232.402344 603 1229.515625 614.390625 1232 626 C 1234.207031 636.179688 1241.5625 651.46875 1233.429688 660.773438 C 1220.949219 675.058594 1210 655.734375 1208.574219 645 C 1203.964844 611.523438 1202 577.761719 1202 544 L 1203 544 C 1204.855469 557.757813 1213.347656 585 1224 594 C 1207 540.34375 1194 486.59375 1194 430 C 1214.453125 442.828125 1232.402344 472.589844 1242.742188 494 C 1247.546875 504 1248.84375 515.289063 1256 524 C 1253.671875 494.488281 1237.339844 467.601563 1217.828125 446 C 1209.894531 437.210938 1199.554688 429.765625 1192.804688 420 C 1188.167969 413.292969 1188.363281 404.613281 1186.253906 397 C 1182.3125 382.773438 1174.210938 369 1173 354 C 1182.441406 360.789063 1188.898438 372.101563 1196.25 381 C 1209.316406 396.816406 1223.375 411.804688 1235.984375 428 C 1242 435.800781 1246 446 1254 452 C 1241.597656 409.144531 1200.941406 378.488281 1174 345 C 1163.445313 332 1150.980469 316.757813 1147 300 C 1159.320313 302.542969 1170.816406 307.582031 1183 310.628906 C 1205.71875 316.304688 1231 319.761719 1250 334.667969 C 1267.617188 348.527344 1275.4375 371.320313 1294 384 M 490 447 C 498.921875 444.375 505.984375 437.390625 514 433 C 521.605469 428.59375 530.605469 427.585938 538 423 C 552.902344 413.480469 564.691406 399.699219 579 389.429688 C 614 364.277344 652.800781 345 688 320 C 700.574219 311 715.828125 309.621094 730 316 C 736.613281 318.796875 744 325.046875 743.722656 333 C 742.671875 357.664063 707.789063 370 690 379.253906 C 670.605469 389.433594 663.242188 412.566406 644 422.191406 C 633.394531 427.492188 623 423.199219 612 423.453125 C 599.234375 423.75 587.515625 429.507813 576 434.421875 C 560.167969 441.175781 544 447.546875 528 453.574219 C 525.957031 454.339844 512.265625 458.019531 515.175781 462 C 517.378906 465 525.394531 462 528 461 C 540.480469 457 552.804688 452.480469 565 447.601563 C 578.589844 442.164063 592.179688 433.652344 607 432.171875 C 621.394531 430.730469 636.527344 436.503906 650 429.09375 C 670 418.070313 678.785156 388.242188 703 384.324219 C 725.523438 380.683594 725.953125 418 727 432 C 727.382813 435.6875 727 447 731 448.652344 C 735 450.269531 734 430.574219 734 428 C 734 408.777344 731.445313 391.640625 718 377 C 725.449219 374.625 731 368.730469 738 365.402344 C 749 360.15625 760.195313 364.277344 770 370.011719 C 772.75 371.621094 779.542969 374.339844 780.792969 377.4375 C 781.710938 379.71875 772.945313 389.074219 771.675781 392 C 765.878906 405.378906 767 420.773438 767 435 C 767 437.667969 765.546875 447.308594 768.550781 448.652344 C 773.191406 450.734375 773.859375 435.339844 773.960938 433 C 774.597656 418.460938 773.78125 385 795 384.132813 C 818.238281 383.277344 832.804688 418.207031 851 429 C 863.671875 436.355469 875.742188 429.820313 889 431.289063 C 906.921875 433.277344 922.46875 442.546875 939 449 C 950.566406 453.410156 962 458 974 461.289063 C 975.953125 462 985.355469 465 986 461.441406 C 986.964844 457.125 976.679688 455 974 454 C 959.226563 448.542969 944.453125 443 930 436.71875 C 918.53125 431.785156 906.617188 425.433594 894 424.171875 C 881.632813 423 868.539063 428 857 422 C 842.535156 414.339844 834.804688 399.417969 823.714844 388.175781 C 816.519531 381 806.296875 376.019531 797 372 C 782 365.574219 745.449219 343 761.527344 323.039063 C 777.917969 302.769531 804.25 313.769531 821 326.117188 C 849 346.824219 879.867188 362.328125 909 381.34375 C 926.5625 392.808594 941.679688 406.488281 958 419.535156 C 970 429.179688 986.867188 432.269531 1000 441 C 1001.507813 442.003906 1011.28125 449 1010.417969 443 C 1008.761719 431.140625 986 425.054688 977 421.394531 C 965.621094 416.78125 958.25 407.773438 949 400.082031 C 936.582031 389.753906 923.507813 380.804688 910 372 C 887.722656 357.476563 864 345.210938 842 330.328125 C 829.679688 322.023438 819.421875 310 805 305.089844 C 792.984375 301.085938 777.445313 302 766 307.324219 C 761.273438 309.535156 755 317.515625 750 317.515625 C 745 317.515625 739.402344 310.019531 735 307.808594 C 725.875 303.234375 715 302.09375 705 303.175781 C 686.472656 305.160156 674.445313 319.714844 660 329.652344 C 634.859375 347 607.386719 360.410156 582 377.332031 C 570.878906 384.746094 560 392.457031 550 401.285156 C 542.351563 408 536.316406 415.210938 527 419.742188 C 513.945313 426.089844 491.824219 429.285156 490 447 M 561 427 C 575 422.480469 588.65625 408.242188 602 401 C 624.171875 388.601563 648.796875 381.546875 670 367.328125 C 677.894531 362.035156 685.355469 355.816406 691.984375 349 C 693.800781 347.132813 698.992188 342.609375 696.289063 339.648438 C 693.601563 336.710938 689 341.109375 687 342.757813 C 679.453125 349 673 356.320313 665 362 C 640.699219 379.042969 611.371094 387.179688 586 402.398438 C 576.394531 408.164063 563.179688 415 561 427 M 804.621094 340.070313 C 801.308594 342.535156 806.339844 346.734375 808 348.285156 C 814.59375 354.347656 820.648438 360.792969 828 366 C 854.203125 384.386719 885.929688 392.574219 913 409.425781 C 919.636719 413.558594 925.644531 418.429688 932 423 C 933.378906 424 937 427 938.863281 425 C 940.871094 422.664063 936.324219 418.6875 934.957031 417.425781 C 928.582031 411.554688 921.476563 406.386719 914 402.011719 C 886.777344 386.078125 854 378.703125 830 357.710938 C 826 354.332031 810.484375 335.710938 804.621094 340.070313 M 330 353 L 329 354 L 330 353 M 1273 376 C 1273 389.734375 1277.265625 403.378906 1275.9375 417.039063 C 1274.5 431.808594 1268 445.617188 1264.792969 460 C 1263.277344 466.78125 1261.285156 473.339844 1259.351563 480 C 1258.886719 481.605469 1257.585938 485.597656 1260.289063 486.078125 C 1262.976563 486.554688 1264.75 483 1265.726563 481 C 1269.289063 474.171875 1271.269531 466.355469 1273.425781 459 C 1279.460938 438.390625 1290 418.113281 1284.871094 396 C 1283 388.402344 1280.511719 379.585938 1273 376 M 244 487 C 239.40625 470.699219 235.328125 454.265625 230.574219 438 C 227.21875 426.515625 222.992188 415.175781 224.171875 403 C 224.785156 396.628906 226.328125 390.335938 227.242188 384 C 227.488281 382.277344 228.320313 377.4375 225 378.058594 C 218 379.390625 214.492188 399.277344 214 405 C 212.570313 426.699219 222.65625 446 229.332031 466 C 232 474.242188 234.238281 485.023438 244 487 M 697 401 C 698.519531 412.753906 703.394531 423.535156 706 435 C 709.703125 450.113281 711.363281 465.582031 712.828125 481 C 714 494.484375 714 508.445313 714 522 C 714 528 712.371094 534.335938 714 540 C 720.535156 533.777344 721.574219 516.777344 721.960938 508 C 723 481.070313 721.523438 452.636719 712.65625 427 C 709.515625 418 706.316406 405.382813 697 401 M 788 540 C 781.820313 491.152344 792.402344 448.070313 804 401 C 793.972656 404 790.40625 418.050781 787.859375 427 C 780.371094 453.292969 775.90625 480.671875 778.835938 508 C 779.765625 516.707031 779.410156 535.492188 788 540 M 258 625 L 257 625 C 245 594.152344 217 577.1875 197 552 C 166.316406 513.511719 144.882813 456.316406 147 407 C 168.769531 417.152344 165.746094 439.394531 167 459 C 167.78125 469.117188 170.320313 479.40625 173.515625 489 C 186.425781 527.765625 214.871094 549.539063 240.714844 579 C 252.761719 592.738281 261.488281 606.207031 258 625 M 1354 407 C 1353.964844 458.816406 1334.585938 512.109375 1303 553 C 1293 566 1280.96875 577.757813 1269 589 C 1258.339844 599 1246.238281 610 1244 625 L 1243 625 C 1237 606.035156 1249.90625 591.304688 1261.574219 578.003906 C 1286.390625 549.726563 1313.210938 528.800781 1326.308594 492 C 1330.183594 481.117188 1332.730469 469.503906 1333.828125 458 C 1335.789063 437.507813 1333 419.390625 1354 407 M 345.316406 432.648438 C 352.519531 429.664063 360.441406 441.757813 362.519531 447 C 367.378906 459.242188 359.613281 477.492188 357.386719 490 C 356.804688 493.253906 356 502.066406 352.5625 503.652344 C 350 504.816406 343 490.199219 341.890625 488 C 335.425781 475.683594 340.433594 459.097656 341.835938 446 C 342.1875 442.6875 341.574219 434.195313 345.316406 432.648438 M 1149 506 C 1142 499.101563 1143 487.03125 1141.5625 478 C 1139.996094 468.347656 1134.804688 459 1137.800781 449 C 1139.664063 442.78125 1146.347656 432 1153.890625 432.257813 C 1160.339844 432.574219 1158.953125 445.636719 1159.578125 450 C 1162.824219 472.664063 1160.769531 486.042969 1149 506 M 804 516 C 821.246094 511.144531 823.410156 477.597656 825 463 C 825.492188 459.054688 828.222656 447 823.496094 444.347656 C 820.476563 442.753906 818.402344 458.097656 818 460 C 814.878906 479 806.773438 497.210938 804 516 M 697 516 C 694.261719 497.449219 685.828125 479.46875 682 461 C 681.597656 459.03125 679.429688 443.804688 676.457031 445.347656 C 672.679688 447.304688 675.296875 461.574219 675.714844 465 C 677.398438 478.710938 680 512.554688 697 516 M 666 584 C 678.511719 580.734375 682.320313 565.488281 682.964844 554 C 684.433594 527.777344 677.445313 503.636719 664 481 C 659.875 473.75 654.859375 466 647.996094 461 C 645.9375 459.417969 641.429688 456.066406 638.660156 457.648438 C 635.855469 459.25 640.960938 464 642 465 C 648.304688 471.578125 653.730469 478.15625 658.394531 486 C 671.449219 508 680.316406 534.425781 675.191406 560 C 673.457031 568.664063 668.605469 575.761719 666 584 M 835 584 C 832.429688 576 826.503906 569.523438 824.667969 561 C 819.230469 535.695313 829.347656 507.554688 842.199219 486 C 846.828125 478.242188 851.75 471.546875 857.980469 465 C 859 464 864 459.25 861.339844 457.648438 C 858.574219 456.070313 854 459.410156 852 461 C 844.964844 466.164063 840 474.445313 835.863281 482 C 823.382813 504.371094 815.523438 529.28125 817.925781 555 C 818.980469 566.289063 822.59375 580.761719 835 584 M 750 577 L 751 577 C 751 599 768 618.273438 787 627.628906 C 794.804688 631.472656 809.960938 637.019531 815 627 C 800.886719 629.503906 786.691406 620.480469 777 611 C 748.96875 583.519531 754 540.828125 754 505 C 754 494 753 483.046875 753 472 C 752.996094 469.335938 753.753906 462.808594 750.714844 461.347656 C 747.96875 460.023438 747.605469 467.671875 747.425781 469 C 746.308594 477.171875 747 485.761719 747 494 C 747 515.027344 746.625 536.058594 745 557 C 743.867188 573.671875 742.339844 590.535156 731.382813 604 C 724.257813 612.75 713.832031 621.257813 703 625 C 700.183594 626 688.703125 625.699219 687.921875 629.15625 C 687.28125 632 693.523438 632 695 632 C 702.222656 632.140625 708.636719 630.011719 715 626.742188 C 733.234375 617.367188 749 598.117188 750 577 M 463 791 C 458 773.769531 442.769531 764.5625 431 752 C 416.789063 736.621094 410.375 718.757813 413 698 L 414 698 C 418 725.789063 446 746.386719 462.550781 767 C 465.222656 770.347656 477 790.675781 482.21875 787 C 486 784.160156 480 774 478.691406 771 C 471.285156 755 457.527344 745.140625 446.4375 732 C 432 715 426 695.417969 418.292969 675 C 415.703125 668.195313 408.890625 661.667969 409.28125 654 C 409.585938 648.046875 414.382813 643.007813 417 638 C 420.71875 631.324219 422.652344 623.480469 423.714844 616 C 426.476563 596.527344 426 576.300781 434.3125 558 C 444.195313 536.234375 463.792969 516.449219 486 507.453125 C 500.472656 501.589844 516.222656 500 531 495 C 549.964844 488.738281 566.847656 479.433594 587 477.289063 C 602.460938 475.644531 625.996094 486.390625 640 478 C 620.292969 467.617188 588.28125 466.023438 567 471.476563 C 555.191406 474.503906 544.472656 480.671875 533 484.65625 C 510 492.59375 483 494 463 508.488281 C 441.445313 524.15625 424.507813 548 418.664063 574 C 415.570313 588 416 602.0625 413.855469 616 C 411.65625 629.316406 400.199219 639.347656 399.378906 653 C 398.707031 664.15625 406.21875 674.503906 408.839844 685 C 411.542969 695.820313 402 706.570313 403.171875 718 C 405.480469 743.105469 423.933594 760 442 775.429688 C 448.253906 780.777344 454.671875 789.320313 463 791 M 862 479 C 879 479.734375 897 475.558594 914 477.171875 C 934.410156 479.105469 950.957031 488.367188 970 495 C 983.726563 499.644531 998.414063 501.3125 1012 506.425781 C 1034.585938 515 1053.175781 533 1064.6875 554 C 1075 573.179688 1074.28125 595.035156 1077.589844 616 C 1078.792969 623.617188 1080.859375 631.148438 1084.488281 638 C 1087.59375 644 1093 650 1091.605469 657 C 1090.289063 663.496094 1085.457031 669 1083 675 C 1076.792969 691.027344 1072 707.601563 1062.253906 722 C 1054.292969 733.699219 1043.519531 742.53125 1034.175781 753 C 1027.910156 760.015625 1023 768.359375 1019.429688 777 C 1018.40625 779.421875 1016 784 1018 786.378906 C 1019.964844 788.78125 1023 786.371094 1024.699219 785 C 1029.972656 779.679688 1033.664063 772.65625 1038.4375 767 C 1055.808594 746.414063 1081.941406 727.460938 1087 699 L 1088 699 C 1090.898438 722 1082.863281 739.394531 1066.960938 756 C 1056 767.277344 1043 775.527344 1038 791 C 1046.492188 789 1052.664063 781 1059 775.285156 C 1076.375 760.050781 1095.488281 744.628906 1097.828125 720 C 1098.882813 709 1090.5625 699.164063 1091.558594 689 C 1092.730469 677.039063 1101.972656 667.21875 1101.972656 655 C 1101.972656 641.417969 1090.707031 631.738281 1087.675781 619 C 1084 604 1085.722656 588.132813 1082.335938 573 C 1076.464844 546.785156 1056.683594 522.261719 1035 507.042969 C 1018 495.195313 996 493.636719 977 487.328125 C 961.460938 482.214844 947 473.699219 931 470.449219 C 917.378906 467.710938 903.621094 469.132813 890 471 C 881.992188 472.097656 866.882813 471.613281 862 479 M 439 590 C 461.222656 584.398438 467.53125 556.140625 485 543.636719 C 500 533 518.890625 536.761719 536 534.714844 C 551.570313 533 564 526.019531 578 519.488281 C 585.625 516 596.972656 515.1875 601 507 C 579.214844 507.058594 565 519.484375 545 525 C 524.761719 530.246094 501.832031 524.558594 483 535.464844 C 469.6875 543.171875 463 556.105469 454.242188 568 C 448.839844 575.273438 441.585938 581.046875 439 590 M 900 507 C 903.933594 515 915.582031 515.574219 923 519.246094 C 936.523438 526 949.804688 533 965 534.714844 C 981.476563 536.738281 998.882813 533.71875 1014 542.339844 C 1034 553.816406 1039.28125 580.628906 1061 590 C 1059.984375 580.140625 1051.449219 574.5625 1046 567 C 1037.679688 555.3125 1030.867188 543 1018 535.464844 C 998.863281 524.382813 974.640625 530.007813 954 524.089844 C 934.597656 518.527344 921.234375 507.015625 900 507 M 1167 514 L 1167 519 L 1166 519 C 1166 517.035156 1166.222656 515.769531 1167 514 M 595 577 C 612.664063 568.5625 593.476563 552.707031 600.605469 542.054688 C 605.894531 534.15625 621.601563 538 630 533 C 620 523.058594 590.378906 524 588.1875 541 C 586.539063 554 597.597656 563.011719 595 577 M 906 577 C 903.433594 563.179688 913.8125 554.71875 912.878906 542 C 911.875 528.28125 896.828125 526.027344 886 527.578125 C 882.769531 528.042969 875.882813 528 874.175781 531.410156 C 872 535.734375 880.359375 537.410156 883 537.609375 C 887.886719 538 892.421875 536.023438 896.980469 539 C 911.417969 548 886.730469 570.292969 906 577 M 566.945313 539.707031 C 549.925781 541.726563 561.679688 571.535156 574.679688 568 C 576.898438 567.3125 576.855469 564.769531 576.238281 563 C 574.835938 559 570.71875 556.332031 569.824219 552 C 569 548.667969 571.289063 545.429688 570.59375 542.152344 C 570.191406 540.269531 568.804688 539.484375 566.945313 539.707031 M 931.605469 540.082031 C 928.414063 542.246094 931.28125 549 930.707031 552 C 930 555.765625 918.238281 571.351563 931 566.632813 C 932.382813 566.121094 933.746094 565.316406 934.984375 564.53125 C 940.371094 561.113281 944.363281 554.511719 942.347656 548 C 941.324219 544.703125 935.890625 537.175781 931.605469 540.082031 M 532 559 C 523.894531 543.414063 491.632813 550 480 557.066406 C 476.539063 559.210938 464.375 566 466.710938 571.382813 C 468.5 575.5625 478.917969 567.429688 481 566.324219 C 496.40625 558.132813 515 559 532 559 M 968 559 C 985.214844 559 1003.238281 557.539063 1019 566 C 1021.453125 567.1875 1031.40625 575.125 1033.839844 571.351563 C 1037 566.355469 1023 558.304688 1020 556.453125 C 1008.34375 549.542969 975.925781 543.757813 968 559 M 544 557 C 544.820313 560.539063 549 576 555.378906 571 C 560.777344 566.746094 547 558.179688 544 557 M 957 558 C 953.8125 559 938.742188 567.261719 945.605469 572 C 951.292969 575.765625 956.371094 561.53125 957 558 M 395 560 C 391.703125 584.488281 384.539063 608.195313 382.171875 633 C 379.4375 661.574219 382.699219 690.4375 379.832031 719 C 377.484375 742.371094 369.195313 765.453125 369 789 C 374.433594 786.214844 376 780.433594 378.1875 775 C 383.421875 761.441406 385.734375 746.410156 387 732 C 390.359375 696.675781 388.671875 661.328125 391 626 C 392.582031 604.1875 397 581.789063 397 560 L 395 560 M 1104 560 C 1104 590.136719 1109.855469 620 1111.910156 650 C 1113.851563 678.363281 1110.4375 706.714844 1114.425781 735 C 1116.40625 749.058594 1117.753906 781.699219 1132 789 C 1131.421875 761 1122.828125 733 1120.171875 705 C 1117.328125 675.140625 1120.730469 645 1117 615 C 1115.542969 601.519531 1112.660156 588.300781 1110 575 C 1108.980469 570 1108.558594 563.121094 1104 560 M 464 607 C 478.21875 587 522.363281 572 542.984375 589.328125 C 558.753906 602.660156 568.476563 634.769531 569.640625 655 C 569.972656 660.738281 549.988281 669.507813 545 673.347656 C 536.730469 679.71875 527.742188 686.660156 517 687.824219 C 490.898438 690.664063 457.316406 667.507813 459 639 C 459.792969 628.113281 466.449219 632.828125 467 641 C 467.679688 650.285156 471.957031 658.773438 477.667969 666 C 503 698.085938 558.214844 677 559.960938 637 C 560.675781 620.710938 547.175781 592.554688 528 594.175781 C 506.273438 596.007813 485.742188 605.28125 464 607 M 1037 607 C 1014.328125 606.027344 991.707031 592 969 594.105469 C 952.378906 595.757813 939.597656 624.320313 941.175781 639 C 945.480469 679.085938 995 695.070313 1021.960938 667 C 1028.957031 659.675781 1032.300781 650.808594 1034.195313 641 C 1034.671875 638.535156 1034.496094 634.632813 1036.175781 632.621094 C 1039.898438 628.160156 1041.851563 636.582031 1041.546875 639 C 1038 665.78125 1012.589844 692.0625 984 687.5625 C 971.171875 685.542969 962 677.097656 952 669.628906 C 948 666.667969 933.316406 662.339844 931.644531 658.566406 C 930.167969 655.242188 932.523438 649.382813 933.199219 646 C 935.433594 634.828125 937.933594 623.507813 942.425781 613 C 956 581 984.21875 576.4375 1014 590.234375 C 1022.378906 594.113281 1032.421875 598.558594 1037 607 M 473 602 C 493.910156 599.183594 512.535156 592 534 592 C 530.507813 586.402344 523.914063 587 518 587 C 505.53125 587.003906 480.347656 590.554688 473 602 M 965 593 C 986.832031 591.277344 1005.613281 600.078125 1027 601 C 1017.40625 590.613281 995.535156 587 982 587 C 975.878906 587.007813 968.546875 587.320313 965 593 M 489 614 C 487.613281 631.558594 487.414063 649.832031 508 657 C 525.300781 662.824219 547.980469 643.28125 541 625 C 535.300781 610.042969 526 637.730469 518.195313 622 C 515 615.695313 521.730469 609 528 609.308594 C 543 610.367188 549.597656 629.78125 545.777344 642 C 540.976563 657.367188 524.585938 666.347656 509 663.535156 C 490.660156 660.226563 470.46875 628.679688 489 614 M 965 616 C 943.867188 641.71875 983.863281 671.722656 1005.90625 648 C 1009.40625 644.230469 1011.949219 640.003906 1013.238281 635 C 1015 628 1013.316406 620.074219 1012 613 C 1036.550781 635.746094 1000.214844 673.738281 973 661.652344 C 953.746094 653.101563 945.671875 623.148438 967 611.558594 C 973.867188 607.824219 985.984375 611.226563 983.410156 621 C 980.238281 633.019531 966.820313 623.65625 965 616 M 484 611 C 480.378906 622.109375 476.554688 631.371094 480.699219 643 C 495.4375 684.359375 550.972656 669.828125 551 629 C 557.605469 644.742188 541.253906 663.007813 528 668.664063 C 508.21875 677.105469 484.457031 665.121094 478.207031 645 C 475 635.015625 469.421875 613.320313 484 611 M 950 637 L 951 637 C 953.671875 667.613281 992.613281 678 1012.824219 657 C 1027 642.039063 1020.558594 629.324219 1018 612 C 1032.453125 617 1025 641 1020.214844 651 C 1004.417969 684.082031 951.617188 674.070313 950 637 M 448 641 L 447 642 L 448 641 M 772 661 C 776.851563 667.140625 784.800781 667.574219 792 669.371094 C 805.191406 672.671875 818.789063 676.25 831 682.371094 C 844 689 854.539063 699.371094 866 708.117188 C 882.882813 721 900.546875 732.761719 919 743.28125 C 928.894531 749 938.46875 756.296875 950 758 C 943.203125 743.433594 918.816406 733.269531 906 724.140625 C 884.964844 709.164063 864.523438 689.6875 842 677.3125 C 821.308594 666 795.46875 661.066406 772 661 M 551 758 C 563.222656 756.347656 573.671875 748.195313 584 742 C 600.910156 732 617.417969 721.226563 633 709.117188 C 645.429688 699.457031 656.394531 688.320313 671 682 C 683.828125 676.191406 697.589844 673.558594 711 669.710938 C 716.503906 668.128906 724.621094 667 728 662 C 672.769531 662 637.585938 693.480469 595 724 C 582.214844 733 557.789063 743.484375 551 758 M 425 667 C 425 689.714844 436 707.253906 454 721.113281 C 461.921875 727.238281 470.683594 732.828125 481 731 C 478.359375 727.128906 472.972656 726 469 723.546875 C 461.863281 719.304688 454.820313 714.089844 449.171875 708 C 442.992188 701.3125 436.714844 693.308594 432.902344 685 C 430 679 429.867188 672 425 667 M 1019 729 L 1019 730 C 1027 732.304688 1036 728.121094 1043 724.125 C 1064.511719 711.664063 1072.730469 690 1077 667 C 1068.636719 671.347656 1067.484375 686.253906 1062.5625 694 C 1051.601563 711.25 1038 722.492188 1019 729 M 482 1032 C 490.625 1024.414063 493 1004.476563 498.859375 994 C 511.460938 971.269531 526.371094 949.226563 533.574219 924 C 544.210938 886.726563 544 849.238281 562.257813 814 C 584.664063 770.597656 628.167969 761.371094 667 738.398438 C 693.460938 722.742188 718.335938 709.242188 750 710.015625 C 786.242188 711 809.753906 727.019531 841 742.753906 C 880.863281 762.824219 918.621094 775 940.679688 817 C 958.898438 851.722656 957.597656 891.132813 968.425781 928 C 976.53125 955.609375 994.65625 979.382813 1007.242188 1005 C 1010.410156 1011.445313 1012.394531 1018.1875 1014.59375 1025 C 1015 1026.351563 1016.199219 1030.757813 1018.503906 1029.652344 C 1022 1028 1019 1017 1018.550781 1014 C 1015.226563 997.753906 1005.960938 984.132813 997.851563 970 C 987.25 951.535156 979 932 974.425781 911 C 970.652344 894 970.953125 876.21875 967.738281 859 C 962.320313 830 949.765625 800.046875 929.828125 778 C 910.960938 757.136719 882.828125 748.09375 858 736.691406 C 837.417969 727.242188 819.410156 713 798 705.054688 C 765.65625 693.300781 725.460938 695 694 708.425781 C 676.433594 716 661.183594 728 644 736.214844 C 617 749.164063 586.191406 758.808594 566.808594 783 C 549 805.175781 538.433594 833.25 533.261719 861 C 529.234375 882.59375 528.652344 904.785156 522.574219 926 C 515.90625 949.261719 501.339844 969.476563 490.757813 991 C 484.621094 1003.476563 478.652344 1018 482 1032 M 729 722.425781 C 707.542969 725.277344 685 729.027344 669 745.089844 C 661.214844 753 657.234375 763.789063 649.816406 772 C 643.585938 779 632.855469 781 628 789.003906 C 624.621094 794.617188 627.816406 801.398438 624.820313 807 C 620.988281 814 609.417969 818.820313 603 823.347656 C 600.898438 825 595.925781 828.175781 598 831.394531 C 599.886719 834.070313 604.722656 832.101563 607 831.300781 C 612.207031 829.46875 624.925781 819.0625 629.773438 820.457031 C 635 822 638.78125 835.65625 644 839.351563 C 651 844.414063 660 842.53125 668 844.789063 C 686.503906 850.023438 710.5 863.335938 723.941406 840 C 732.511719 825.105469 729.480469 804 722.6875 789 C 717.582031 777.757813 708.234375 771 696 777 C 681.957031 784.046875 685.34375 796.527344 691.257813 808 C 693.28125 812 697.699219 817.316406 695 822 C 692.273438 826.808594 684.964844 827.085938 680 827 C 662.757813 826.640625 655 811.410156 654.375 796 C 653.851563 784.238281 669.25 767 677 759 C 695.183594 740.398438 716.488281 738.589844 741 737 C 768.804688 735.007813 799 736.414063 820.996094 756.175781 C 837.261719 771 863.539063 810.234375 832 824.8125 C 828.824219 826.277344 825.476563 827 822 827 C 819.664063 827.035156 817.296875 827 815 826.53125 C 794.378906 822.53125 818.246094 799.75 815.605469 788 C 812.746094 775.285156 792 770 783.214844 779.109375 C 766.847656 796.363281 764.714844 844.683594 792 852.074219 C 807.199219 856.1875 820.613281 847.609375 835 844.664063 C 842 843.226563 849.734375 844.3125 856 840.144531 C 862.171875 836.039063 865 823.625 871.214844 821.253906 C 876.246094 819.289063 888.558594 829.65625 894 831.277344 C 896.390625 832 901.308594 833.796875 902.824219 830.671875 C 904.523438 827.164063 899.246094 824.421875 897 823 C 890.777344 819 879.550781 813.121094 876.554688 806.023438 C 874.230469 800.523438 876.441406 794.546875 872.996094 789.015625 C 867.898438 781 856.664063 778.179688 850.175781 771 C 840.535156 760.328125 834.726563 747.121094 823 738.238281 C 803.742188 723.652344 780.921875 723.546875 758 723 C 748.3125 722.746094 738.734375 721.128906 729 722.425781 M 519 738.175781 C 512.875 741.226563 508 755.152344 504.71875 761 C 492.265625 783 480.390625 805 470 828 C 466.871094 835.339844 463.378906 842.578125 460.285156 850 C 459.734375 851.324219 456.734375 858.566406 460.9375 857.246094 C 466.738281 855.429688 473.378906 838.242188 476.230469 833 C 488.976563 809.578125 500.84375 786 512.753906 762 C 515.664063 756.175781 518.640625 750.171875 520.753906 744 C 521.257813 742.535156 522.789063 736.339844 519 738.175781 M 980 738.175781 C 976.269531 741.113281 986.59375 758.691406 988.246094 762 C 1000.335938 786.191406 1012 810.4375 1025.425781 834 C 1029 840.410156 1032.789063 846.757813 1036.730469 853 C 1037.476563 854.15625 1039.960938 858.476563 1041.945313 856.824219 C 1045 854.160156 1034.796875 836.246094 1033.308594 833 C 1022 808.402344 1009 784.75 996.230469 761 C 992.75 754.597656 989 748.195313 985.265625 742.019531 C 984.484375 740.773438 982 736.574219 980 738.175781 M 568 860 C 578.914063 851.375 580.515625 828.171875 588 816 C 596.613281 802.222656 608.472656 789.351563 620 778.039063 C 626 772.074219 633.359375 767.265625 638 760 C 592.59375 766.707031 568 819 568 860 M 864 760 C 866.910156 768.554688 876.742188 774.742188 883 781 C 895.699219 793.699219 909.414063 807.816406 917.628906 824 C 922.378906 833.363281 923.609375 853.671875 933 859 C 932.671875 819.167969 908.296875 766.542969 864 760 M 523 842 C 529.421875 836.476563 528.972656 827.753906 530.460938 820 C 532.410156 810 536.539063 799.179688 541.257813 790 C 545 782.4375 553 776.261719 555 768 C 527.765625 777.441406 523 817.453125 523 842 M 946 768 C 949.511719 779.097656 959 787.175781 963.546875 798 C 969.292969 812.175781 969.824219 828.054688 976 842 C 979.796875 836.445313 977.664063 828.289063 976.949219 822 C 974.777344 803 966.796875 774.121094 946 768 M 711 781 C 708 785.488281 704.511719 789.402344 704 795 C 703 809.6875 715.734375 834.792969 691 835 C 695.832031 830.78125 702.289063 827.390625 702.347656 820 C 702.441406 807.410156 677.898438 787.253906 702 781.679688 C 704.96875 781 707.972656 781.007813 711 781 M 811 834 L 811 835 C 776.84375 835 812.90625 791.324219 789 783 C 796 778.191406 809.328125 782.703125 809.847656 792 C 810.585938 805.214844 789.46875 818.550781 804 830.441406 C 806.171875 832.132813 808.527344 833.078125 811 834 M 648 790 C 649.335938 807 653.363281 816.265625 663 830 C 646 830 625.351563 796.539063 648 790 M 838 830 C 842.699219 823.246094 849.167969 817.503906 850.671875 809 C 851.339844 805.21875 850 793.332031 853.601563 791.136719 C 858.570313 788.039063 864 797.023438 863.617188 801 C 862.230469 815.011719 851.855469 828.132813 838 830 M 369 805 C 369 852.65625 411.75 881.230469 436.566406 917 C 442.484375 925.53125 447.984375 934.710938 452.628906 944 C 455.242188 949.222656 456.527344 955.15625 462 958 C 460.980469 945.179688 454.546875 934 448.28125 923 C 431.90625 894.371094 407.421875 873.457031 388.429688 847 C 382.710938 839.03125 377.746094 830.335938 374.671875 821 C 373 816.175781 373 808.136719 369 805 M 1039 958 C 1044.90625 955 1046 948.578125 1048.808594 943 C 1053 934.359375 1058.1875 926 1063.71875 918 C 1088.253906 883 1132.613281 851.511719 1133 805 C 1127.898438 808.207031 1128.203125 814.707031 1126.480469 820 C 1123.492188 829.171875 1119 838.066406 1113.5625 846 C 1088.886719 881.746094 1045.171875 912.1875 1039 958 M 418 816 C 421.617188 824.128906 428.355469 830.191406 430.84375 839 C 435.464844 855.339844 433.597656 873 439.4375 889 C 440.921875 893.078125 448.351563 910.429688 454.386719 908.246094 C 456.714844 907.40625 454.902344 903.441406 454.410156 902 C 452.28125 895.777344 450.582031 889.433594 449.210938 883 C 445 863.53125 443 821 418 816 M 1045 910 C 1069.824219 901.558594 1064.386719 860.800781 1069.476563 841 C 1071.984375 831.257813 1078.65625 824.71875 1083 816 C 1057.238281 821 1056.4375 865.265625 1051.523438 885 C 1049.449219 893.335938 1045.703125 901.394531 1045 910 M 616 858 C 552.777344 900 515.242188 973.417969 504.730469 1047 C 502 1065.21875 499.410156 1084.574219 501.171875 1103 C 501.921875 1111 503.621094 1118.621094 508.527344 1125 C 514.980469 1133.386719 524.316406 1138.820313 526 1150 C 531 1146.5 526.242188 1138.070313 523.613281 1134 C 519.570313 1127.742188 513.734375 1122.71875 510.378906 1116 C 506.167969 1107.570313 507.222656 1094.15625 508.425781 1085 C 512.203125 1056.230469 512.273438 1028.136719 521 1000 C 530.953125 968.089844 550.804688 940 570 913 C 580 898.832031 590.917969 885.363281 604 874 C 608.191406 870.15625 617.351563 864.367188 616 858 M 884 858 C 886.273438 864.6875 892 868.324219 897 873.039063 C 905.183594 881 912.78125 889.109375 919.789063 898 C 945.21875 930.261719 970.867188 966 981.847656 1006 C 988.984375 1032.074219 991.355469 1060.113281 992 1087 C 992.191406 1094.195313 994.667969 1102 993.695313 1109 C 991.636719 1124.148438 966.359375 1134.03125 974 1150 C 976.664063 1146.28125 977.660156 1141.71875 980.527344 1138 C 987 1129.503906 995.40625 1124 998.238281 1113 C 1002.414063 1096.808594 1000.816406 1076.476563 999.167969 1060 C 993.664063 1005 972.21875 953.042969 938.871094 909 C 924.929688 890.589844 905.675781 867.351563 884 858 M 699 863 C 699.816406 879 722.472656 894.273438 736 900 C 734.640625 885 718.769531 883 709 874.480469 C 705 871 703.769531 865.617188 699 863 M 765 900 C 770.210938 898.226563 773.578125 894.171875 778 891.042969 C 789 883.226563 801.671875 878.480469 802 863 C 797.496094 865.671875 795.203125 871.132813 790.996094 874.480469 C 780.769531 882.628906 768.355469 886 765 900 M 555 982 C 564.914063 979.160156 571 964 576.71875 956 C 587.851563 940.070313 598.644531 924 611 909 C 617.976563 900.710938 626.8125 893.785156 633 885 C 620.539063 887.222656 609.714844 899 601.714844 908 C 582.5625 929.71875 562.414063 953.410156 555 982 M 868 885 C 873.5625 894.621094 883.175781 900.652344 890.246094 909.003906 C 902.734375 923.753906 912.984375 940.261719 924 956 C 930.328125 964.730469 935 977.308594 946 981 C 939.355469 952.289063 917.332031 925.296875 897 905 C 889.207031 897.222656 879.269531 887.035156 868 885 M 1098 923 C 1095.539063 932.503906 1094.789063 943.207031 1090.175781 952 C 1084.21875 963.351563 1073.8125 972.679688 1067.285156 984 C 1060.207031 996.265625 1054.808594 1010.597656 1042 1018 C 1036.402344 991 1061.523438 963.757813 1077.917969 944 C 1084 936.652344 1089.613281 928 1098 923 M 405 924 C 414.300781 933.324219 422.921875 943.5 430.871094 954 C 436.285156 961.152344 441.449219 968.453125 446.308594 976 C 451.804688 984.535156 459 994.714844 460.496094 1005 C 460.902344 1008 460.835938 1016.398438 455.941406 1015.246094 C 448.578125 1013.519531 443 1001 439.71875 995 C 430 978.164063 413.351563 961.429688 407.769531 943 C 406 937.53125 402.761719 929.488281 405 924 M 714 926 C 714.824219 935.402344 722.851563 942.75 723.230469 952 C 723.496094 958.492188 718.71875 964.464844 715.96875 970 C 712.542969 977 711 985.0625 705.53125 990.785156 C 696.601563 1000.121094 677.582031 1005 666 1010.753906 C 656.777344 1015.375 647.832031 1020.675781 639 1026 C 637.226563 1027.070313 630 1030.347656 632.175781 1033.394531 C 633.847656 1036 638.339844 1032.757813 640 1031.796875 C 647.941406 1027.191406 655.925781 1022.675781 664 1018.308594 C 677.421875 1011.050781 696.363281 1006.378906 707.824219 996.472656 C 716 989.28125 719.253906 976.757813 723.425781 967 C 725.335938 962.539063 728.398438 958.015625 728.398438 953 C 728.398438 948 725.332031 943.359375 723 939 C 720.546875 934 719.28125 928.707031 714 926 M 788 926 C 774.679688 930.777344 772 955 777.253906 966 C 781.859375 975.71875 784.367188 988.007813 792.183594 995.816406 C 802.863281 1006.476563 824.523438 1012.109375 838 1019.21875 C 845.777344 1023.320313 853.355469 1027.640625 861 1032 C 862.605469 1033 867.210938 1036 868.742188 1033.394531 C 870.761719 1030.039063 863 1026.320313 861 1025.261719 C 849.976563 1019.449219 839 1013.328125 828 1007.753906 C 817.859375 1002.683594 803.210938 999.179688 795.328125 990.816406 C 789.335938 984.453125 786.632813 975 783.398438 967 C 781.523438 962.414063 777.496094 957.085938 777.679688 952 C 778 943 785.917969 934.761719 788 926 M 954 1032 C 953.566406 1017.460938 936.449219 1013.765625 926 1007.546875 C 899.648438 992 887.617188 966.15625 866 946.089844 C 860.46875 941 844.589844 928 836.207031 933.183594 C 832.269531 935.691406 836.679688 939 839 940.382813 C 847.578125 946 855.8125 951.617188 862.960938 959.003906 C 874.175781 970.59375 882.304688 984.777344 894 996 C 909.90625 1011.171875 933.773438 1023.535156 954 1032 M 546 1032 C 554.210938 1030.535156 561.75 1025.230469 569 1021.308594 C 583.828125 1013.285156 598.914063 1005.003906 610.960938 993 C 621.371094 982.550781 628.738281 969.515625 639 959 C 645.988281 952 653.574219 946.273438 661.996094 941 C 663.78125 940 668.433594 937.398438 666.824219 934.589844 C 665.21875 931.78125 659.367188 933.304688 657 934 C 648.410156 936.175781 640.535156 941.269531 634 947.289063 C 617.703125 962.589844 607.902344 983.097656 590 997.335938 C 575.945313 1008.511719 552.179688 1014 546 1032 M 639 974 C 656.472656 971.382813 673.421875 959.269531 691 955 C 697.308594 953.296875 706.28125 953 710 947 C 690.960938 948.503906 673.363281 954 656 961.695313 C 649.71875 964.527344 641 966.757813 639 974 M 863 974 C 855.289063 959.484375 826.636719 954.644531 812 950.574219 C 808.886719 949.710938 796.582031 944.542969 794.347656 948.519531 C 792.808594 951.25 808 954.148438 810 954.628906 C 820.429688 957.316406 831.203125 960.824219 841 965.308594 C 848.207031 968.609375 854.945313 973.292969 863 974 M 555 992 C 570.359375 991.339844 582.613281 984.109375 592.910156 973 C 595.28125 970.441406 602.285156 963.621094 599.714844 959.605469 C 597 955.601563 590.257813 960.3125 588 962.214844 C 581.28125 968 575.914063 975.042969 569 980.480469 C 564.191406 984.265625 557.871094 986.382813 555 992 M 946 992 C 943 986.617188 936.660156 984.320313 932 980.53125 C 925.515625 975.261719 920 968.71875 914 963.09375 C 911.582031 961 905.96875 956 902.699219 959.609375 C 899.1875 963.558594 906.773438 971.316406 909.175781 974 C 918.894531 985 931.382813 991.371094 946 992 M 419 979 C 425.179688 990.609375 430.714844 1004 439.300781 1014 C 444 1019.527344 453.496094 1023.722656 456.679688 1030.042969 C 460.582031 1037.800781 457.453125 1056 458 1065 C 459.636719 1087.074219 468.21875 1108.195313 470 1130 C 459 1124.363281 452.996094 1112.242188 447 1102 C 432.21875 1075.824219 423.316406 1046 419.949219 1016 C 418.796875 1005.753906 412.699219 988.222656 419 979 M 1083 979 C 1083 1019.363281 1075.628906 1061.355469 1055.859375 1097 C 1049.171875 1109.0625 1043 1122.433594 1031 1130 C 1035.527344 1108.050781 1040.703125 1086.363281 1042.828125 1064 C 1043.761719 1054.230469 1040.246094 1039 1043.894531 1030.09375 C 1046.449219 1024 1056 1020.203125 1060.5625 1015 C 1069.761719 1004.132813 1072.878906 989 1083 979 M 875 1015 C 875 1045.429688 896.636719 1071 912.667969 1095 C 916.847656 1101.273438 920.546875 1108.015625 925 1114 C 926.382813 1115.570313 928.925781 1119.246094 931.410156 1117.824219 C 937.664063 1114.242188 925.292969 1095.585938 923 1092 C 912.511719 1075.164063 899.457031 1060.015625 889.203125 1043 C 883.964844 1034.308594 882.257813 1022.183594 875 1015 M 624 1016 C 620.234375 1044 595.476563 1065.382813 580.863281 1088 C 577 1093.757813 565.328125 1109.308594 568.644531 1116.664063 C 570.4375 1120.640625 574.761719 1115.660156 576 1114 C 581 1107.714844 584.8125 1100.53125 589.425781 1094 C 604.664063 1072.410156 625.980469 1043.566406 626 1016 L 624 1016 M 828 1152 C 832.597656 1144.046875 840.347656 1138.730469 845.300781 1131 C 847 1128.132813 849.957031 1123.488281 846 1121 C 841 1117.796875 834.636719 1129.226563 831.960938 1132 C 819.695313 1144.691406 803.335938 1152.214844 786 1154.574219 C 774.914063 1156.085938 763.195313 1154 752 1154 C 732.683594 1154 713.457031 1157.027344 695 1149.546875 C 684.695313 1145.367188 674.488281 1138.53125 667.324219 1130 C 664.820313 1127.015625 661 1119.503906 656 1120.753906 C 651.175781 1122.015625 654.511719 1128.4375 656 1131 C 659 1136.023438 676.710938 1150.121094 667.941406 1154.566406 C 652 1162.5625 624.859375 1136.21875 622.4375 1122 C 621.472656 1116.335938 626.308594 1111.277344 629.277344 1107 C 636.765625 1096.230469 643.175781 1084.746094 650.722656 1074 C 660.347656 1060.289063 671 1046.558594 685 1037.027344 C 730.667969 1006 791.476563 1010.585938 830.574219 1050.285156 C 844.976563 1065 856.359375 1082.652344 867.191406 1100 C 870.851563 1106 877 1112.015625 878.425781 1119 C 879.5625 1125.300781 873.949219 1131.453125 870.335938 1136 C 859.285156 1150 845.566406 1158.449219 828 1152 M 601.636719 1027.136719 C 597.335938 1026.351563 592.59375 1032.417969 590 1035 C 581.292969 1043.660156 573 1053.464844 562 1059.214844 C 554 1063.371094 544.523438 1064.820313 537.183594 1058.46875 C 534.511719 1056.15625 531.421875 1049.207031 527.429688 1049.207031 C 523.46875 1049.207031 525.757813 1057.15625 526.359375 1059 C 528.871094 1066.714844 533.835938 1072.585938 542 1074.472656 C 563 1079.320313 578.183594 1061.453125 589.804688 1047 C 593.539063 1042.351563 597.902344 1038 601.195313 1033 C 602 1031.742188 604.589844 1027.675781 601.636719 1027.136719 M 975 1048 C 970 1050.394531 968 1055.230469 963.960938 1058.605469 C 956.808594 1064.429688 947.871094 1063.335938 940 1059.675781 C 927.5 1054 920.316406 1041.308594 910 1032.757813 C 907.828125 1031 900.964844 1024.570313 897.753906 1027.285156 C 895.175781 1029.457031 909.441406 1044.535156 911.347656 1047 C 920.234375 1058.460938 929.542969 1069.714844 944 1074 C 962 1079.277344 977.257813 1066.265625 975 1048 M 652 1107 C 658.382813 1103.367188 658.523438 1094.230469 661.3125 1088 C 665.976563 1077.582031 672.894531 1067.535156 682 1060.527344 C 691.910156 1053 714 1056.515625 720 1046 C 709 1047.390625 697.5 1046.800781 687 1051 C 665.585938 1059.339844 652.945313 1085 652 1107 M 781 1046 C 783.984375 1051.15625 790.550781 1051.496094 796 1052.414063 C 804.792969 1054 812.851563 1056 820 1061.519531 C 828.347656 1068.113281 834.980469 1078.207031 838.984375 1088 C 841.441406 1094.011719 841.878906 1102.707031 848 1106 C 847.679688 1068 815.335938 1047.472656 781 1046 M 730 1066.425781 C 722.371094 1067.425781 714.660156 1067.511719 707 1068.089844 C 704.96875 1068.242188 700.167969 1068.539063 699.632813 1071.171875 C 698.632813 1076.054688 719.734375 1076.714844 723 1077 C 742.859375 1078.738281 762 1079.035156 782 1076.425781 C 787.535156 1075.695313 794.894531 1077.183594 799.832031 1074.027344 C 807.738281 1069 787.601563 1067.417969 785 1067.171875 C 767.816406 1065.535156 747 1064.175781 730 1066.425781 M 740 1148 C 719.910156 1141.199219 689.957031 1141 693.175781 1111 C 694.230469 1101.171875 700.769531 1092.816406 701 1083 C 694.574219 1086.339844 692.335938 1095.367188 690.628906 1102 C 688.410156 1110.628906 687.394531 1121.726563 691.328125 1130 C 698.351563 1144.777344 724.816406 1157.273438 740 1148 M 800 1083 C 800.527344 1094.53125 808.277344 1104.425781 808.542969 1116 C 809 1139.007813 780.222656 1146.625 762 1147 C 768.796875 1153.566406 779 1150.425781 787 1147.65625 C 808.445313 1140.164063 816 1121.109375 810 1100 C 808 1093.519531 806.449219 1086.171875 800 1083 M 597 1110 C 591 1114.757813 588.714844 1123.417969 585.21875 1130 C 580.851563 1138.222656 574.746094 1145.410156 567 1150.640625 C 565.320313 1151.777344 553.199219 1157.117188 554.347656 1159.273438 C 557.617188 1165.433594 574.328125 1158.429688 578 1156.035156 C 589.578125 1148.484375 599.941406 1123.757813 597 1110 M 903 1110 C 904.324219 1126.773438 909.410156 1147 924 1157.199219 C 927.707031 1159.792969 943.378906 1165.605469 946.652344 1159.472656 C 947.785156 1157.355469 934.726563 1152.0625 933 1150.828125 C 924.269531 1144.601563 918 1135.4375 913.257813 1126 C 910.367188 1120.359375 908.925781 1113.078125 903 1110 M 615.910156 1132.632813 C 620.3125 1133.355469 626.695313 1144.789063 630 1148 C 634.761719 1152.527344 640.214844 1156.507813 646 1159.6875 C 648 1160.824219 652.714844 1162.144531 653.652344 1164.542969 C 654.867188 1167.632813 645.976563 1172.390625 644 1174 C 633.820313 1181.503906 620.683594 1191.777344 607 1189.378906 C 602.40625 1188.570313 580.398438 1181.519531 582.347656 1175.074219 C 584.210938 1169 594.960938 1161.492188 598.984375 1156 C 603.214844 1150.230469 606.667969 1144.15625 610.285156 1138 C 611.378906 1136.140625 613.171875 1132.179688 615.910156 1132.632813 M 886 1133.460938 C 891.191406 1135 896.652344 1148.640625 899.722656 1153 C 904 1159.179688 916.8125 1168.105469 918.539063 1175 C 919.507813 1178.753906 913.527344 1181 911 1182.304688 C 901.710938 1187.417969 892.710938 1191.109375 882 1188.242188 C 871.695313 1185.484375 863.621094 1178.21875 855 1172.34375 C 852.996094 1171 847 1168.273438 847.632813 1165.183594 C 848.269531 1161.699219 861.949219 1157.007813 865 1154.53125 C 870.835938 1149.796875 875.917969 1144.128906 880.253906 1138.015625 C 881.527344 1136.222656 883.25 1132.691406 886 1133.460938 M 1001 1175 C 997 1188.667969 985.429688 1199.761719 976.171875 1210 C 944.992188 1244.472656 893.457031 1275.019531 845 1268.425781 C 828.863281 1266.226563 814 1262.375 800 1254 C 794.351563 1250.640625 787.878906 1246.613281 785.804688 1240 C 780.917969 1224.421875 791.949219 1210.066406 796 1196 C 782.664063 1202.558594 778.90625 1229.003906 782 1242 C 771.726563 1238.015625 761.382813 1231.339844 750 1231.339844 C 737.28125 1231.339844 726.269531 1239.308594 715 1244 C 717.789063 1232.28125 715.511719 1219.070313 711.1875 1208 C 710.398438 1206 707.203125 1196.742188 703.890625 1198 C 702 1198.546875 708.335938 1211.199219 708.84375 1213 C 712.316406 1225.292969 715.902344 1242.179688 703.984375 1251 C 649.574219 1291.058594 569.414063 1260.429688 528.835938 1215 C 518.535156 1203.472656 503.734375 1190.570313 500 1175 C 516.636719 1182 529.773438 1186.214844 548 1186 C 555.742188 1186 564.527344 1180.664063 572 1182.421875 C 590.628906 1186.804688 600.445313 1203.742188 622 1196.640625 C 637.628906 1191.492188 651.183594 1180.039063 664 1170.113281 C 669.644531 1165.738281 676 1157.09375 684 1157.289063 C 694.667969 1157.558594 706.828125 1165.054688 718 1166.574219 C 728.34375 1168 738.675781 1165.265625 749 1165.015625 C 758.75 1164.777344 768.238281 1167.046875 778 1167 C 786.414063 1167 795 1165.128906 803 1162.300781 C 807.6875 1160.628906 812.816406 1156.78125 818 1157.484375 C 826 1158.578125 832.957031 1167.019531 839 1171.789063 C 851.441406 1181.605469 864.589844 1192.257813 880 1197 C 900.441406 1203.199219 910.425781 1186.683594 928 1182.421875 C 933.75 1181.023438 939.464844 1184.09375 945 1185.191406 C 951.488281 1186.480469 958.410156 1186.148438 965 1186 C 977.683594 1185.671875 989.246094 1179 1001 1175 "/>
</g>
</svg>
