<?xml version="1.0" encoding="UTF-8"?>
<svg xmlns="http://www.w3.org/2000/svg" xmlns:xlink="http://www.w3.org/1999/xlink" width="1500pt" height="1500pt" viewBox="0 0 1500 1500" version="1.1">
<g id="surface1">
<path style=" stroke:none;fill-rule:nonzero;fill:rgb(0%,0%,0%);fill-opacity:1;" d="M 481 777 L 482 777 C 483.984375 790.433594 489.65625 804 493 817 C 498.917969 839.070313 503.378906 861.488281 507 884 C 508.5625 893.011719 515.292969 913.726563 510.972656 922 C 508.363281 927 501.53125 928.757813 497 931.453125 C 487.757813 937 475.585938 943.417969 469 952 C 479.304688 949.03125 488.570313 942.195313 498 937.21875 C 501.238281 935.507813 505.949219 931.503906 509.855469 932.132813 C 515.6875 933.070313 514.726563 949.53125 515 954 C 516.976563 977.511719 485.625 989.046875 479 1012 C 484.304688 1008.78125 487.632813 1002 491.425781 997 C 498.425781 988.019531 506.558594 979 517 974 C 511.957031 1003.800781 516.636719 1034 509 1064 C 499.429688 1102.78125 473.277344 1135.0625 464.234375 1174 C 455.640625 1211.007813 467.234375 1248 483.753906 1281 C 491 1295.59375 500.457031 1321.746094 516 1329 C 499.398438 1278.066406 462.53125 1229 483.226563 1173 C 491 1152 507 1136.074219 518.394531 1117 C 524.597656 1106.515625 527.847656 1094 529.570313 1082 C 529.972656 1079.210938 529 1070.625 532.5625 1069.460938 C 536.480469 1068.136719 541.453125 1076.496094 543.253906 1079 C 551.417969 1090.347656 556.285156 1104 560.667969 1117 C 570.59375 1146.777344 580.753906 1176.675781 596.425781 1204 C 612.359375 1231.773438 636.320313 1256.800781 632 1291 C 635.875 1288.089844 636.929688 1281.527344 638.277344 1277 C 642.910156 1261.460938 642.226563 1246.582031 638 1231 C 632.917969 1211.300781 622.78125 1193.671875 615 1175 C 601.199219 1141.8125 589 1106.664063 584.714844 1071 C 583.621094 1062.132813 580 1052 580.753906 1043 C 581 1037.472656 588.386719 1024.402344 595 1025.035156 C 598.910156 1025.410156 601.714844 1030.34375 604 1033 C 606 1035 609.238281 1037 609.726563 1040.039063 C 610.730469 1046.3125 603.246094 1054.472656 600.871094 1060 C 596.585938 1070 595 1082.34375 597 1093 L 598 1093 C 598.308594 1078 603.402344 1059.703125 613.351563 1048.097656 C 618 1042.664063 635.5 1052 637.503906 1058.042969 C 639.40625 1063.777344 632.875 1071.714844 631.222656 1077 C 627.625 1088.484375 628.203125 1104.71875 635 1115 C 637.28125 1101.511719 633.6875 1089.738281 638.695313 1076 C 639.925781 1072.625 643.601563 1062.808594 648.566406 1067.378906 C 653.410156 1071.832031 649 1080.683594 648.300781 1086 C 646.71875 1097.082031 649 1107.714844 653 1118 L 654 1118 C 653.972656 1107.574219 652.710938 1098.394531 655 1088 C 655.460938 1086 657.851563 1076.476563 661.398438 1080.464844 C 664.277344 1083.703125 660.75 1090.488281 659.898438 1094 C 657.265625 1105 657 1116 657 1127 L 658 1127 C 660.457031 1117.507813 661 1095.421875 670.214844 1089.710938 C 673.621094 1087.59375 677.550781 1091 679.945313 1093.183594 C 687.753906 1100.550781 681.964844 1111.632813 678.546875 1120 C 674 1131 666.78125 1141 658 1148.828125 C 652.382813 1154 643.460938 1158.230469 640 1165 C 656.546875 1158.109375 670.941406 1146.144531 680.5625 1131 C 683.699219 1126.070313 688.183594 1107.222656 693.277344 1105.417969 C 696.554688 1104.257813 701 1108.082031 704 1109.238281 C 710.652344 1112 717.886719 1113 725 1113 C 717 1126.625 706.917969 1139.675781 700.308594 1154 C 689.222656 1178.027344 687 1204 687 1230 L 688 1230 C 693.824219 1212.832031 697.222656 1195.007813 703.8125 1178 C 709.277344 1164 717.503906 1151.59375 723.878906 1138 C 726.886719 1131.597656 725.792969 1121.542969 729.742188 1116.148438 C 734.828125 1109.199219 757 1113 765 1113 C 768.597656 1113 773.570313 1112.296875 776 1115.433594 C 780.429688 1120.664063 780 1132.476563 782.871094 1139 C 791.320313 1158.671875 801.476563 1176.167969 807.421875 1197 C 809.777344 1205.253906 811 1224.800781 818 1230 C 817.984375 1205.183594 815.421875 1178.03125 805.574219 1155 C 801.492188 1145.464844 795.644531 1136.78125 790.191406 1128 C 788.195313 1124.789063 783.644531 1120.089844 783.597656 1116.148438 C 783.5625 1113.300781 806.902344 1105.097656 809.605469 1106.253906 C 814.988281 1108.554688 819.621094 1126.742188 823 1132 C 832.71875 1146.660156 846.699219 1157 862 1165 C 858.359375 1157.351563 849 1153.40625 843 1147.828125 C 834.429688 1140.019531 827.527344 1129.578125 822.863281 1119 C 819 1110.40625 815.488281 1101.292969 824 1094.527344 C 826.511719 1092.546875 830.46875 1089.632813 833.671875 1091.707031 C 842.695313 1097.554688 842 1117 846 1126 L 847 1126 C 847 1115.257813 846 1104.359375 842.964844 1094 C 842 1091.089844 839 1084.496094 842.339844 1082.058594 C 845.355469 1079.832031 846.503906 1088.574219 846.726563 1090 C 848 1099.125 848.976563 1108.769531 849 1118 L 850 1118 C 853.785156 1108 854.972656 1095.707031 853.824219 1085 C 853.242188 1079.5625 849.460938 1072 854.417969 1067.378906 C 859.28125 1063 862.652344 1072.777344 863.988281 1076 C 869.492188 1089.277344 865.730469 1101.597656 868 1115 C 874.269531 1104.734375 874.699219 1087.265625 871.226563 1076 C 869.648438 1071 862.902344 1062.601563 865.210938 1057.105469 C 867.785156 1051 884.566406 1042.449219 889.472656 1048.074219 C 900 1060.269531 905 1078.230469 905 1094 L 906 1094 C 909.375 1082.585938 905.914063 1068.554688 901 1058 C 898.535156 1052.382813 890.757813 1044.613281 893.234375 1038 C 899.21875 1022.003906 910.167969 1024.472656 918.277344 1036 C 928.769531 1051 933 1066 933 1084 C 933 1134 899.433594 1174.183594 896 1223 C 894.417969 1247.414063 903.851563 1270.304688 914 1292 L 915 1292 C 914.828125 1271.332031 911.625 1253.457031 917.722656 1233 C 926 1204.6875 945.34375 1181 952.523438 1152 C 959.984375 1122.015625 954.21875 1091.363281 957.171875 1061 C 958.746094 1044.773438 967.621094 1032.199219 972 1017 L 973 1017 C 972.492188 1041.65625 973.59375 1063.113281 981 1087 C 994 1129 1017.59375 1167.503906 1021.828125 1212 C 1023.941406 1234.15625 1020.933594 1257.039063 1013.65625 1278 C 1009.320313 1290.488281 1002.488281 1302.242188 999 1315 C 1005.644531 1311 1009.238281 1300.621094 1013 1294 C 1025.398438 1272.171875 1035.648438 1248 1039 1223 C 1046 1173 1017.703125 1135 1001.691406 1090 C 988.269531 1052.324219 988 1012.476563 988 973 C 996.65625 979.226563 1004.613281 986.746094 1011.382813 995 C 1015.34375 999.828125 1018.515625 1007 1024 1010 C 1020.421875 999.484375 1013.617188 990 1005.960938 982 C 996.480469 972.128906 987.726563 967.816406 989 953 C 989.34375 949 988.503906 932.199219 993.570313 931.285156 C 997 930.648438 1002 934.722656 1005 936.242188 C 1014.410156 941.03125 1023.230469 947 1033 951 C 1028.242188 941.007813 1014.296875 935.015625 1005 930 C 1000.863281 927.566406 994.472656 925.753906 992.601563 921 C 988.761719 911.09375 995 890.4375 996.578125 880 C 1000 856.1875 1003.460938 832.355469 1009.375 809 C 1012.582031 796.335938 1018.804688 783.753906 1021 771 C 1026.742188 784 1025.296875 798.269531 1027.425781 812 C 1032.753906 846.355469 1046.59375 888.785156 1079 906.6875 C 1103.90625 920.449219 1136.972656 915.5 1156.910156 895 C 1167.257813 884.300781 1173 869.828125 1181.894531 858 C 1193.375 842.667969 1206 828.332031 1217.628906 813 C 1244.621094 777.007813 1272.566406 739.445313 1288.574219 697 C 1299.578125 667.824219 1300.730469 636 1312.203125 607 C 1324.464844 576.03125 1351.761719 541.8125 1348.90625 507 C 1347.914063 495 1337.574219 486 1331.871094 476 C 1321 457.277344 1314.417969 436.671875 1303.574219 418 C 1268.851563 358.199219 1209.386719 325 1162 277 C 1137 251.71875 1115.304688 214.324219 1082 199.3125 C 1072.265625 195 1059.636719 194.222656 1050 199.328125 C 1033.613281 208.003906 1028.757813 221.589844 1008 216.117188 C 970.503906 206.226563 936 187 898 179.003906 C 868 172.804688 836.546875 169.703125 806 171.039063 C 790.355469 171.722656 774.652344 175 759 175 C 713.945313 175.070313 667.679688 169.8125 623 176.425781 C 593.460938 180.800781 564.90625 189.609375 537 200.050781 C 521.339844 206 506.394531 214 490 217.765625 C 474.445313 221.347656 465.78125 208.132813 454 200.710938 C 443.675781 194.207031 431 194.140625 420 199 C 401 207.007813 387 224 373.714844 239 C 358.648438 256.085938 343 273 327 289 C 298.222656 317.777344 262.886719 339.160156 235 369 C 209.1875 396.808594 191 430.648438 175.5625 465 C 168.660156 480.257813 153.371094 492.226563 153 510 C 152.3125 545 179.34375 578.347656 190.945313 610 C 202 640.328125 202.707031 673.25 215.863281 703 C 245 769 293.832031 826.539063 336 884 C 341.738281 891.578125 348 898.28125 356 903.453125 C 404 935 450.316406 895.023438 465.996094 849 C 473.992188 825.539063 476.308594 801.199219 481 777 M 1010 235 L 1010 236 C 984.304688 253 962.5 239 935 239 C 939.894531 243.75 947.84375 245.480469 954 248.308594 C 964 253 974.9375 259.117188 982.710938 267.171875 C 995.296875 280.210938 996.21875 302.28125 1005.285156 318 C 1029.457031 360 1066.226563 400.09375 1072.710938 450 C 1076.597656 480 1055.246094 510.230469 1048.652344 539 C 1043.558594 561.21875 1042 584.285156 1042 607 C 1042 622.476563 1044.222656 640.03125 1039.554688 655 C 1036.277344 665.515625 1022.828125 673.472656 1016.691406 683 C 1005.605469 700.210938 999.359375 720.101563 991.800781 739 C 982.628906 762 970.214844 784.214844 963.425781 808 C 958.675781 824.648438 961.179688 840.503906 954.285156 857 C 950.351563 866.40625 951.464844 874.335938 953.574219 884 C 954 886.171875 956 892 952.679688 892.507813 C 948 893.394531 928.8125 890.171875 925.273438 887.398438 C 921.40625 884.363281 920.765625 878.226563 918.8125 874 C 916.320313 868.609375 911.824219 864.480469 909.46875 859 C 899.59375 836.035156 903.421875 809.578125 895.484375 786 C 891.4375 774 882.996094 764.226563 877.371094 753 C 867.453125 733.21875 860.25 711.273438 854.292969 690 C 849.46875 672.761719 852.1875 653.4375 841.894531 638 C 836.902344 630.511719 827 623.820313 818 628.457031 C 813 631 805.820313 641 807.707031 647 C 808.972656 651 814.804688 651.046875 818 652.683594 C 822.859375 655.175781 826.386719 659.496094 829.300781 664 C 839.332031 679.492188 841.238281 699.453125 845.628906 717 C 849.195313 731.277344 855.882813 744.660156 858.984375 759 C 860.355469 765.328125 857.609375 775.226563 860.347656 780.773438 C 862.285156 784.6875 868.34375 784.472656 872 785.289063 C 877.304688 786.472656 882 789.574219 885.351563 794.015625 C 889.652344 800.007813 890.277344 808.015625 891.882813 815 C 895.46875 830.601563 897.769531 847 903.425781 862 C 905.707031 868.0625 913.375 880.0625 910.382813 886.6875 C 908.726563 890.351563 902.28125 889.820313 899 890.085938 C 890.25 890.789063 881.914063 892.332031 875 898 C 885.40625 898 896.710938 894 907 895.457031 C 911 896.078125 916.738281 899.496094 914.382813 904.566406 C 911.960938 909.777344 897 902.457031 898 911 C 898.964844 919 915.730469 911.253906 918.175781 922.003906 C 918.550781 923.652344 919.359375 926.558594 917.957031 928 C 916 929.824219 912 928 910 927.34375 C 902.496094 925.097656 894.714844 923.703125 887 922.414063 C 885.238281 922.117188 876.859375 920 877.632813 924.007813 C 878.324219 927.652344 885.214844 928.019531 888 928.652344 C 896.792969 930.640625 909.507813 931.140625 916.847656 936.816406 C 922.433594 941.136719 918 954.726563 918 961 C 914.207031 960.121094 910.617188 959 907 957.398438 L 901 955 C 896.246094 953.046875 887.550781 953.503906 895 959.351563 C 900.230469 963.375 907.453125 963 912.851563 966.417969 C 915 968 917.320313 972 914.394531 974 C 911.722656 975.816406 907.394531 973 905 971.753906 C 897.746094 968.164063 890.582031 964 883 961.066406 C 879.941406 960 872.421875 958.066406 873 964 C 873.558594 969.039063 881.207031 970.488281 885 972 C 897.398438 976.34375 916.71875 979.691406 909.558594 996 C 908.382813 998.683594 906.984375 1001.582031 905 1004 C 899 1011.085938 879.25 994.300781 873 990.601563 C 870.476563 989.109375 862.367188 983.511719 860.972656 989.136719 C 859.882813 993.519531 866 996.171875 869 998 C 876.199219 1002 900.40625 1010.179688 893.851563 1021 C 884.984375 1035.632813 871.847656 1019 863 1012.378906 C 861 1011 853.3125 1004.371094 850.921875 1007.707031 C 849 1010.324219 854.414063 1014.0625 856 1015.335938 C 861 1019.410156 876.753906 1027.039063 877.535156 1034 C 878.300781 1040.828125 860.664063 1048.507813 855.519531 1044.398438 C 853.199219 1042.546875 849.40625 1033.683594 845.527344 1035.347656 C 841.8125 1037 850 1045.554688 848.746094 1048.570313 C 844.863281 1057.265625 826.765625 1052.234375 822 1048 C 819.285156 1057.722656 811.796875 1053.75 804 1053 C 789 1051.207031 774.867188 1044.214844 760 1043 L 760 1042 C 830.410156 1033.09375 873.792969 961.003906 858.574219 893 C 853.238281 869.144531 834 852.75 826.355469 830 C 814.902344 796 817.894531 736 771 729 L 771 730 C 801.683594 743.242188 807.253906 786 802.5625 815 C 801 824.402344 793.1875 839.800781 795 849 C 796.3125 855 805.558594 853.664063 810 854.464844 C 820.636719 856.382813 832.65625 861.496094 839.621094 870.015625 C 857.171875 891.472656 847.976563 929.171875 846 954 L 845 954 C 845 926.652344 843.695313 866.808594 803 870.09375 C 784.402344 871.59375 771 889.027344 752 890 C 731.195313 891 717 870.320313 697 869.09375 C 685.652344 868.402344 676.464844 877.097656 670.699219 886 C 659.449219 903.367188 654.234375 931.65625 658 952 L 657 952 C 650.765625 926.6875 644.53125 884.214844 668 865.519531 C 675 860 684 855.601563 693 854.300781 C 697.257813 853.679688 704.582031 854.6875 706.800781 850 C 708.46875 846.21875 705.507813 840.605469 704.652344 837 C 702.28125 827 699.492188 816.320313 699 806 C 698 785.132813 700.570313 761.269531 713.515625 744 C 718.765625 737 726.257813 733.222656 732 727 C 684.730469 740.679688 688.691406 791.621094 676.253906 830 C 668.5625 853.730469 648.878906 871.277344 643.425781 896 C 633.253906 942.125 652.261719 997 692 1023.480469 C 706.6875 1033.328125 726.566406 1038.652344 744 1041 L 744 1042 C 727.945313 1046.152344 710.578125 1052.746094 694 1054 C 688.367188 1054.304688 683.925781 1052.058594 678.714844 1051.800781 C 671 1051.421875 663.636719 1054 656.324219 1049.347656 C 650.886719 1046 661.761719 1037.3125 657.355469 1035.347656 C 653.589844 1033.664063 649.980469 1042.542969 647.621094 1044.21875 C 642.605469 1047.777344 627 1039.496094 625.753906 1034 C 624.261719 1028.078125 642.796875 1018.273438 647 1015.339844 C 648.746094 1014.121094 654.851563 1010.554688 652.246094 1007.703125 C 649.222656 1004.390625 641.34375 1011.292969 639 1013.015625 C 628.898438 1020.433594 619.195313 1035.09375 608.4375 1020 C 601.851563 1010.753906 627.65625 1001.558594 634 998 C 636.660156 996.289063 641.59375 994 641 990.070313 C 640.289063 984.269531 632.476563 989.015625 630 990.425781 C 623 994.363281 603.484375 1011 596.636719 1003 C 594.945313 1001 593.832031 998.277344 592.585938 996 C 581.296875 975.378906 617.820313 978 627.667969 967.582031 C 630.800781 964.296875 628.582031 959.359375 623.984375 960 C 616.902344 960.820313 609.503906 966.59375 603 969.425781 C 597.695313 971.734375 592.488281 974.144531 587 976 C 584.953125 964.410156 595.289063 964.363281 604 961.480469 C 606.621094 960.613281 612.792969 959 612.792969 955.273438 C 612.792969 952.160156 607.554688 953.597656 606 954.105469 C 601.96875 955.425781 588.488281 964.140625 586.316406 957 C 579.695313 934.621094 597.539063 934.382813 614 929.710938 C 617.171875 928.808594 625.273438 928.175781 626.792969 924.730469 C 628 922 622.363281 922.027344 621 922.09375 C 614.726563 922.40625 608 923.683594 602 925.015625 C 596.652344 926.175781 591.300781 927.628906 586 929 C 586 925.007813 584.582031 917.570313 589 915.605469 C 593.683594 913.648438 603 918.796875 605.824219 912.726563 C 609.441406 904.597656 590.589844 909.347656 589.363281 904 C 588 898.425781 593.492188 895.59375 598 895.1875 C 608 894.28125 618.773438 898 629 898 L 629 897 C 621.46875 893.597656 614.3125 891 606 890.171875 C 602.476563 889.824219 596.449219 890.734375 594 887.4375 C 591.414063 884 594.464844 877.578125 595.667969 874 C 599.78125 861.769531 603.460938 849.601563 606.347656 837 C 609.46875 823.386719 609.382813 802.710938 619.1875 792.042969 C 625.546875 785.128906 639.738281 786.554688 643.683594 779 C 647 772.410156 643 763.246094 644.898438 756 C 649.347656 737.417969 657 720 661.210938 701 C 664.304688 686.671875 667.539063 670.453125 677.324219 659.015625 C 681.230469 654.449219 693.8125 652 695.757813 647.6875 C 698.621094 641.34375 686 629.089844 681 627.148438 C 672.277344 623.777344 664.613281 631.21875 660.246094 638 C 650.191406 653.613281 653.558594 673.660156 648.707031 691 C 642.730469 712.34375 635 734.152344 625.191406 754 C 619.570313 765.234375 610.714844 775 606.75 787 C 599 810.1875 603.199219 836.453125 593.53125 859 C 591.203125 864.433594 586.871094 868.15625 583.699219 873 C 580.964844 877.171875 580.566406 882.828125 577 886.570313 C 573.753906 890.292969 556.25 893.453125 551.316406 892.507813 C 548 892 549.417969 887.21875 549.730469 885 C 551 875.359375 551.417969 867.226563 547.796875 858 C 541.296875 841.445313 542.683594 825.789063 538.265625 809 C 532.410156 786.761719 521.441406 766.125 512.574219 745 C 504.3125 725.308594 497.195313 704.242188 485.933594 686 C 480 676.605469 467 668 463.636719 658 C 458.429688 642.664063 461 622.03125 461 606 C 461 582.511719 458.675781 560 453.574219 537 C 447 508.101563 425 478.195313 430.804688 448 C 440.207031 399 472.425781 362 496.988281 320 C 501.960938 311.503906 506.441406 302.453125 509.277344 293 C 511.578125 285.328125 511.953125 277.402344 517.328125 271.015625 C 525 262 537.390625 254.675781 548 249.371094 C 554.648438 246.046875 562.269531 244.027344 567 238 C 550.386719 243.253906 529.222656 248.441406 512 244.347656 C 506 243 497.472656 240.300781 494 235 C 539 229.308594 581 209.042969 626 201.25 C 662.679688 195 699 197 736 197 C 767.621094 197 799.429688 194.65625 831 196.039063 C 865.417969 197.546875 900 203.789063 933 214.027344 C 957.914063 221.765625 983.421875 235 1010 235 M 489 257 L 489 258 C 469.9375 258.832031 455.773438 275.589844 445.429688 290 C 420.71875 324.421875 404.511719 369.332031 404 412 C 402.5625 533.070313 468.546875 642.6875 463 764 C 461.597656 795.765625 456.917969 832.210938 440.394531 860 C 433.570313 871.476563 424.863281 883.460938 412 888.535156 C 377.445313 902.164063 350 853.027344 333.578125 830 C 280.234375 755.355469 246 666.621094 245 574 C 244.6875 548.300781 240.636719 521.792969 233.847656 497 C 232 490.511719 228.320313 473.789063 219 474.660156 C 212.773438 475.246094 210.601563 484.203125 209 489 C 203.78125 504.640625 197.230469 521.277344 197 538 C 196.773438 557.460938 208.703125 574.175781 214.644531 592 C 223 617.355469 224.195313 644.367188 231.429688 670 C 236.875 689.308594 249.382813 706.699219 251 727 C 243 721 238 709.09375 234 700 C 222.910156 674 220.257813 645.4375 213.765625 618 C 206.4375 587.039063 178.464844 561 177 529 C 176.800781 522 181.292969 516.183594 184.21875 510 C 187.867188 502.292969 190.308594 494.074219 193 486 C 199.261719 467.214844 204.972656 448 215.695313 431 C 245.703125 384 292.691406 353.332031 332 315 C 356.890625 290.703125 375.898438 260.691406 402 237.714844 C 411.339844 229.492188 421.671875 217.242188 435 216.1875 C 443 215.546875 449.695313 222.761719 455 228.003906 C 465.371094 238.253906 475.59375 250.65625 489 257 M 1252 726 C 1253.632813 705.507813 1266 687.507813 1271.574219 668 C 1279 641.730469 1280.835938 614.179688 1288.886719 588 C 1293.953125 571.515625 1307.527344 556.132813 1305.828125 538 C 1304.277344 521.425781 1299.910156 505.730469 1294.667969 490 C 1293 485.054688 1291 476.230469 1284.984375 475 C 1276.464844 473.21875 1271.746094 490.183594 1270 496 C 1263.515625 520.1875 1258.632813 546 1258 571 C 1255.742188 663.570313 1222.542969 755 1169 830 C 1153.394531 852 1124.179688 902.820313 1091 888.664063 C 1075.851563 882.199219 1066.863281 869.257813 1059.753906 855 C 1045.734375 827 1041.316406 795 1039.960938 764 C 1039.199219 746.589844 1037.503906 729.421875 1039.171875 712 C 1041.710938 685.40625 1050.179688 659.785156 1056.628906 634 C 1069.339844 583.144531 1087.546875 531.769531 1095.574219 480 C 1098.980469 458.042969 1099 436.171875 1099 414 C 1099 371 1082.695313 328.390625 1059 293 C 1048.167969 276.824219 1033.746094 259.695313 1013 258 C 1021.695313 245.65625 1035.589844 236.035156 1047 226.269531 C 1052.242188 221.785156 1057.621094 216.171875 1065 216.082031 C 1080.964844 216 1093.820313 231.820313 1104 242 C 1131.695313 269.695313 1156.25 300.296875 1184 328 C 1216.191406 360.140625 1254.800781 385.28125 1281.277344 423 C 1294.769531 442.21875 1301.722656 463.042969 1309.34375 485 C 1314 498.632813 1325.902344 515.5 1324.910156 530 C 1322.679688 562.625 1295.535156 587.738281 1288.234375 619 C 1281.882813 646.199219 1279.546875 674.195313 1268 700 C 1264.210938 709 1259.972656 720.113281 1252 726 M 444 728 L 446 728 C 445.878906 713.5 442.386719 698.351563 440.273438 684 C 434.652344 646 425.902344 608.144531 415.574219 571 C 408.210938 544.507813 398.992188 518.175781 394.433594 491 C 386.792969 445.449219 391 397.378906 403.425781 353 C 412 321.691406 421.179688 288.085938 441.425781 262 C 446.386719 255.605469 452.328125 250.597656 457.769531 244.714844 C 458.984375 243.402344 461.785156 240 459.351563 238.367188 C 456.828125 236.742188 452.921875 239.808594 451 241.171875 C 444 246.035156 438.382813 252.429688 433.210938 259 C 412.253906 285.617188 400.5625 318.527344 389 350 C 371.628906 397.648438 360.179688 448.285156 369 499 C 374.632813 530.585938 388 560.34375 399.796875 590 C 411.785156 620.511719 422.300781 651.605469 431.71875 683 C 436 697.589844 441.964844 713 444 728 M 1057 728 C 1063.316406 721 1062.964844 708 1065.425781 699 C 1071.34375 677.464844 1078.203125 656.042969 1085.691406 635 C 1100.957031 592.105469 1123.371094 551 1132.195313 506 C 1141.789063 457.082031 1132.898438 407.699219 1117.332031 361 C 1105.84375 326.527344 1093.175781 291.6875 1071.703125 262 C 1066.375 254.628906 1060.40625 247.523438 1053 242.160156 C 1050.648438 240.457031 1046.535156 237.1875 1043.378906 238.648438 C 1040.394531 240.027344 1043.800781 243.359375 1045 244.574219 C 1050.910156 250.210938 1056.71875 255.46875 1061.625 262 C 1080.972656 287.753906 1089.925781 319.421875 1098.425781 350 C 1110.566406 393.6875 1116.25 440 1109.574219 485 C 1106 509 1097 531 1090.425781 554 C 1080.410156 588.230469 1072.941406 623 1066.390625 658 C 1062 681 1057 704.636719 1057 728 M 523 376 L 524 376 C 535.476563 356.335938 545.710938 336.636719 559 318 C 564.347656 310.503906 576.824219 300.558594 579.339844 292.019531 C 580.796875 287.070313 575.292969 287.039063 572 287 C 581.308594 278 591 269.703125 601.996094 262.675781 C 604.625 261 609.4375 257.234375 606.800781 253.601563 C 604.226563 250.054688 597.804688 253.332031 595 254.785156 C 584.820313 260.054688 575.761719 268 567 275.246094 C 561.445313 280 551.546875 285.351563 548.378906 292 C 545.941406 297.101563 554.285156 297 551.667969 303.039063 C 541.625 326.53125 523.554688 349.230469 523 376 M 979 376 L 980 376 C 979 355.476563 967.78125 333.058594 958.753906 315 C 955.839844 309.175781 945.808594 297.367188 957 297 C 951.789063 281.671875 926 267.035156 913 258.195313 C 910.59375 256.558594 894.488281 247 895.464844 256.042969 C 895.949219 260.53125 901.691406 263 905 265.054688 C 911.882813 269.445313 922.289063 275.597656 926.363281 283 C 928.652344 287 921 288.039063 923.800781 293.003906 C 928.933594 302.511719 939.566406 311.101563 946 320 C 959 337.585938 969.667969 356.304688 979 376 M 729 262 C 731.65625 276.105469 736.960938 288 742.574219 301 C 743.835938 304 745.988281 313.582031 750 313.652344 C 754.378906 313.730469 756.242188 305 757.453125 302 C 762.8125 289 769 276.019531 772 262 C 760.988281 267.382813 755.945313 286.816406 750 297 C 746 287 738.828125 267.023438 729 262 M 697 280 C 700.949219 290.199219 711.792969 296 717.535156 305 C 728 322 734 343 739.574219 362 C 741.203125 367.714844 743.191406 385.449219 751.949219 384.535156 C 758 384 761.9375 364.167969 763.667969 359 C 769.796875 340.675781 775.238281 321.449219 785.695313 305 C 791.351563 296.105469 800.894531 290 806 281 C 768.804688 284.042969 764.644531 330.109375 751 356 C 738.972656 327.070313 730 290.804688 697 280 M 321 651 L 322 651 C 321.292969 634.765625 313.199219 619.59375 313 603 C 312.492188 560 326.570313 520.460938 330.832031 478 C 334 446.328125 328.957031 414.621094 332.171875 383 C 334 364.667969 346.535156 349.53125 348 331 C 338.796875 334.128906 334.207031 344.207031 327.910156 351 C 311.890625 368.285156 288.933594 382.191406 292.183594 409 C 294 424.746094 306.921875 436.691406 307 453 C 307.171875 488.328125 292.472656 522.253906 294 558 C 294.746094 574.109375 295.988281 590.660156 301.34375 606 C 306.75 621.476563 315.734375 635.4375 321 651 M 1154 331 C 1158.347656 349.046875 1167.441406 366.566406 1169.714844 385 C 1173.628906 416.761719 1169 449.148438 1172.171875 481 C 1175.257813 513.460938 1187.683594 544.488281 1189.910156 577 C 1191.683594 603 1183 625.773438 1181 651 C 1186.628906 645.382813 1187.660156 636 1191.320313 629 C 1210.347656 592.726563 1211.488281 554 1205.574219 514 C 1202.804688 495.304688 1196 477.039063 1196 458 C 1195.996094 452.125 1195.234375 445.652344 1197 440 C 1202.523438 423.609375 1215.265625 410.359375 1209.25 392 C 1202.992188 373 1184.972656 363.050781 1172.171875 349 C 1166.480469 342.746094 1162.375 334 1154 331 M 685 339 C 688.96875 344.058594 695 345.683594 700 349.527344 C 707 355.042969 712.953125 362.273438 717.546875 370 C 743.609375 413.8125 741.539063 466.332031 746.171875 515 C 747.621094 530.25 748.703125 548 745 563 C 743.671875 569 734.203125 578.34375 735.378906 583.679688 C 736.328125 588.003906 742 584.226563 744 583 C 742.707031 591.621094 736.617188 598.484375 735 607 C 733.511719 615 739.671875 613.5 741 607 L 742 607 C 741.480469 611 737.167969 628.390625 746 621 C 747.433594 628.390625 748.632813 637.375 756 641 L 756 623 L 757 623 C 758 626.832031 769.625 641.332031 768.71875 631 C 767.851563 621.0625 759.414063 611.507813 758 601 L 759 601 C 760.171875 605.054688 770.726563 619 769.796875 608 C 769 599 761.472656 591.578125 759 583 C 761.28125 584.613281 771 591.429688 770.457031 584 C 770 578.742188 764.710938 574.429688 762.402344 570 C 758.984375 563.433594 758 555.253906 757.285156 548 C 750.785156 493.828125 757.195313 427.089844 780.308594 377 C 784.683594 367.523438 790.757813 359.011719 799 352.519531 C 804.480469 348.199219 812.582031 345.246094 816 339 C 770 339 759.402344 390.804688 751 426 C 738 391.492188 733.601563 339.03125 685 339 M 585 368 C 591.867188 383.410156 608.585938 393.234375 617 408 C 607.460938 398.460938 596.351563 386 583 382 C 585.335938 395 599.265625 403.289063 608 412 C 597.664063 405.164063 589 396.136719 576 395 C 580.675781 405.023438 592.445313 412 599.910156 420 C 615.390625 436.648438 628.519531 459.769531 629 483 C 639.226563 478.128906 642.820313 463.277344 644.738281 453 C 650.308594 423.171875 638.90625 384.398438 610 370 C 613 387.296875 629.921875 399.382813 634 417 C 619.84375 398.585938 609.238281 375 585 368 M 870 414 L 869 414 C 873.542969 398.230469 886.707031 386.113281 893 371 C 862.351563 380.082031 852 423.550781 856 451 C 857.558594 462 862.222656 478 873 483 C 873 458 887.78125 435 904.171875 417.003906 C 910.992188 409.539063 922.226563 404.710938 926 395 C 915.550781 398 907.3125 403.816406 898 409 C 906.214844 400.792969 915.390625 394 920 383 C 905 384.617188 892.851563 401.148438 883 411 C 891.699219 395.390625 910 385.238281 917 369 C 899 374.183594 875.648438 396.152344 870 414 M 512 611 C 506.65625 601.625 497.941406 595.097656 492.230469 586 C 481.941406 569.621094 476.960938 550.671875 472.652344 532 C 469.683594 519.136719 461.335938 504.742188 478 500 C 478 534.546875 502.679688 579.03125 540 582 L 540 583 C 532 583.003906 524.871094 584 517 583 C 523 595.675781 542.429688 592 554 592 L 554 593 C 546.378906 596 540.425781 601.261719 532 602 C 537.9375 611.15625 559.460938 601 567 598 C 560.238281 604.761719 553.628906 611.683594 546 617.496094 C 541.851563 620.65625 535.863281 622.628906 533 627 C 558.238281 625.007813 575.867188 608.132813 593 591 C 585 610.019531 572.90625 627.003906 565 646 C 583.53125 640.082031 599.773438 609.535156 608 593 L 609 593 C 604.867188 607.558594 595 619.632813 591 634 C 606.921875 627.832031 612.324219 608.703125 623 597 C 620.601563 610.503906 610 621.335938 608 635 C 622.597656 626.5625 628.257813 611 639 599 C 639 610.820313 626.753906 621.398438 624 633 C 638 630.472656 649.460938 616.539063 659 607 C 668.699219 597.300781 678.335938 586.703125 683.960938 574 C 691.410156 557.179688 691.40625 538.820313 694.613281 521 C 698.304688 500.507813 703 480 703 459 C 702.988281 433.574219 695.402344 405 670 394 C 671.730469 401.367188 677.59375 407.363281 681 414 C 685.632813 422.539063 688.246094 433.375 688.910156 443 C 690.304688 463.246094 687 483.496094 681.847656 503 C 678.839844 514.121094 672.273438 528.304688 672.449219 540 C 672.515625 544.230469 678.890625 542.371094 679.214844 547.058594 C 679.90625 557.0625 668.738281 573.308594 658 571.78125 C 650.769531 570.753906 644.5 564.285156 640 559 C 646.707031 559.136719 653.246094 560.195313 660 560 C 662 560 666.792969 560 666.792969 557 C 666.792969 553.398438 660.472656 551.800781 658 550.800781 C 647.925781 546.71875 640.625 540.621094 633 533 C 641.808594 533 650.914063 534.058594 659 530 C 654.925781 526.746094 649.667969 526.367188 645 524.203125 C 635.554688 519.828125 627 512.367188 622.378906 503 C 609.863281 478.136719 620 441.605469 586 430 C 588 441.519531 597 450.804688 600.652344 462 C 605.945313 479 606.738281 498.480469 609 516 L 608 516 C 606.46875 505.789063 600 498.164063 596.519531 489 C 592.699219 479 591 469.800781 584.320313 461 C 563.925781 434.695313 521.976563 441.53125 499 460.464844 C 487.464844 470 478.613281 483.386719 468 494 C 468 444 504.6875 391 558 391 C 554 385.792969 542.757813 387.8125 537 388.753906 C 516.71875 392.066406 497.992188 401.648438 484.171875 417 C 448.796875 456.292969 449.773438 517.632813 469 564 C 476.296875 581.558594 491.601563 607.359375 512 611 M 943 389 L 943 391 C 997.890625 392.132813 1034 440.824219 1034 493 C 1019.78125 478.78125 1008.628906 460.679688 990 451.785156 C 971.886719 443.136719 946.597656 439.410156 929 451.105469 C 914.53125 460.722656 910.96875 474.175781 904.664063 489 C 900 499.640625 894.5625 510.40625 893 522 L 892 522 C 893.570313 502.152344 895.480469 480 901.671875 461 C 905 450.335938 914 440.730469 916 430 C 872.835938 444.699219 897.929688 503.777344 858 523.730469 C 853.234375 526.109375 848.300781 527.566406 843 528 C 847.785156 536.402344 860.980469 533.003906 869 533 C 861.84375 541.023438 853.828125 546.285156 844 550.574219 C 841.765625 551.550781 834.207031 553.652344 834.207031 556.792969 C 834.207031 559.347656 839.292969 559.765625 841 560 C 848 560.492188 854.96875 559.300781 862 559 C 857.753906 565.011719 849.933594 572.65625 842 573 C 832 573.070313 821.816406 556.277344 822.757813 547.058594 C 823.230469 542.425781 829.503906 543.714844 829.667969 539 C 829.921875 531.398438 824 521.378906 822 514 C 816.96875 495 811.636719 474 812 454 C 812.429688 441.789063 814.226563 428.203125 819.3125 417 C 822.828125 409.261719 829 403 832 395 C 801.402344 403.371094 798.996094 440 799 466 C 799 484.164063 803.507813 502.253906 807 520 C 810.269531 536.609375 810.96875 554.074219 817 570 C 824.40625 589.175781 839.34375 604.683594 855 617.390625 C 862 623.191406 870 630.1875 879 633 C 875.617188 621.328125 866 612 864 600 C 874.242188 611.222656 879.816406 628.160156 895 634 C 891.308594 621.082031 883.324219 609.699219 879 597 C 891.828125 607.066406 896 624.636719 911 634 C 909.660156 618.742188 895.34375 608.386719 894 593 L 895 593 C 903.261719 610.460938 918 638.824219 937 646 C 931.453125 627.140625 917.632813 609.335938 910 591 C 927.550781 605.148438 943.554688 627 968 627 C 964.4375 622.386719 959.273438 619.777344 955 615.824219 C 949 610.21875 944.640625 602.5625 937 599 L 937 598 C 949.246094 601 959 605 972 604 L 972 603 C 964.433594 600.003906 956.839844 594.792969 949 593 L 949 592 C 960.742188 592.03125 979.648438 596.296875 986 583 C 977.78125 584.039063 970.21875 583.003906 962 583 L 962 582 C 999.851563 582 1024.90625 533.617188 1025 500 C 1040.980469 504.191406 1033 519 1030.347656 531 C 1026.339844 548.375 1021.742188 566.542969 1012.546875 582 C 1006.566406 592.050781 994.734375 600.015625 991 611 C 1020.539063 602.472656 1034.9375 564.761719 1041.628906 538 C 1055 484.226563 1040.628906 415.710938 983 393.8125 C 969.945313 389 956.722656 389 943 389 M 618 408 L 619 411 C 617.710938 409.558594 617.597656 409.765625 618 408 M 898 409 C 896.671875 410.753906 895.753906 411.671875 894 413 C 895.328125 411.246094 896.246094 410.328125 898 409 M 883 411 L 882 412 L 883 411 M 609 412 L 608 413 L 609 412 M 868.667969 414.667969 C 868.722656 414.722656 868.777344 415.777344 868.332031 415.332031 C 868.277344 415.277344 868.222656 414.222656 868.667969 414.667969 M 634.667969 417.667969 C 634.722656 417.722656 634.777344 418.777344 634.332031 418.332031 C 634.277344 418.277344 634.222656 417.222656 634.667969 417.667969 M 867.667969 417.667969 C 867.722656 417.722656 867.777344 418.777344 867.332031 418.332031 C 867.277344 418.277344 867.222656 417.222656 867.667969 417.667969 M 503 446 C 517.804688 441.183594 534 431.558594 550 432.375 C 565.246094 433.152344 576.730469 442.609375 591 446 C 577.902344 410.773438 516.570313 411 503 446 M 912 447 C 925.761719 441.269531 939.414063 431.738281 955 432.128906 C 971 432.53125 984.582031 442.808594 1000 446 C 988 420.382813 948.757813 412.574219 927 428 C 920.273438 432.652344 912.960938 438.320313 912 447 M 572 486 C 559.636719 483.058594 550 487.355469 539 492 C 539 486.035156 539.632813 478.664063 544.226563 474.277344 C 555.558594 463.445313 569.535156 474.085938 572 486 M 964 492 C 957.445313 489 951.425781 485.378906 944 485.039063 C 941.257813 485 934 486.320313 932 484 C 929 480.359375 935.996094 473 939 471.746094 C 954.652344 465.671875 963.882813 477.699219 964 492 M 499 491 C 499 510.617188 507.328125 523.394531 518 539 C 507.308594 531.308594 500.253906 517.644531 497.425781 505 C 496.367188 500.277344 494.464844 494.203125 499 491 M 1006 492 C 1006 508.503906 999.855469 527.800781 986 538 C 995.292969 523.074219 1000.433594 509.289063 1004 492 L 1006 492 M 598 496 C 598 508.640625 601.757813 523.585938 594 535 C 590.414063 540.273438 583.644531 542.289063 578 544.71875 C 560.738281 552.144531 532.394531 556.109375 519 539 C 542.621094 553.21875 573.820313 550.3125 589.53125 525 C 595.417969 515.519531 594 505.449219 598 496 M 485 497 C 487.308594 526.011719 510.617188 556.34375 540 561.535156 C 551.660156 563.597656 562.511719 559.179688 574 559.179688 C 584.777344 559.179688 597.523438 565 608 561 C 612.222656 559.195313 614.425781 555.421875 618 553 C 617.988281 557.15625 618.605469 565.335938 614.566406 568 C 608.671875 571.789063 592.3125 564.011719 585 564.375 C 571.179688 565.066406 557.972656 569 544 568 C 525.898438 566.582031 508.921875 554.039063 498.375 540 C 491.480469 530.820313 486.535156 521.015625 483.292969 510 C 481.804688 505 479.941406 500.300781 485 497 M 905 498 C 905 533.105469 935.84375 549.339844 967 548 L 967 549 C 949.644531 551.195313 919.34375 551.371094 907.652344 535 C 903.261719 528.832031 902.839844 519.296875 903 512 C 903 507.601563 903.304688 502.035156 905 498 M 1021 498 C 1020.996094 528.480469 993 560 964 566.765625 C 952.605469 569.441406 941.328125 567.375 930 565.589844 C 920 564.035156 910.800781 564.261719 901 566.425781 C 897 567.300781 890.964844 570.199219 887.277344 567.382813 C 882.535156 563.753906 884 555.195313 884 550 C 885.652344 553.402344 886.171875 557.019531 889 559.722656 C 897.695313 567.53125 913 559.480469 923 559.039063 C 932.644531 558.613281 941.511719 561.539063 951 562 C 968.839844 562.75 984.90625 555.289063 996.824219 542 C 1004 534 1009.285156 524.082031 1013.1875 514 C 1015.289063 508.574219 1015.585938 501 1021 498 M 523 506 C 526.761719 510.347656 529.808594 515.703125 534.175781 519.472656 C 544.878906 528.707031 559.453125 526.089844 572 523 C 560.34375 549.496094 504.550781 536.492188 512 507 C 519.460938 515.585938 523.9375 525.109375 536 528 L 536 527 C 528.386719 523.808594 519.246094 515.203125 523 506 M 981 506 C 980.761719 517.542969 975.347656 520.542969 968 528 C 978.46875 523.328125 985.921875 517.136719 990 506 L 991 506 C 990.636719 514.304688 988 523.796875 981.816406 529.671875 C 968.417969 542.289063 940.433594 540.179688 931 524 C 946 524.648438 958 528.683594 970.984375 517.675781 C 974.960938 514.273438 977.429688 509.726563 981 506 M 610 516 L 610 519 L 609 519 C 609.25 517.546875 609.316406 517.246094 610 516 M 610.667969 521.667969 C 610.722656 521.722656 610.777344 522.777344 610.332031 522.332031 C 610.277344 522.277344 610.222656 521.222656 610.667969 521.667969 M 892 522 L 892 526 L 891 526 C 891.175781 524.316406 891.316406 523.507813 892 522 M 890.667969 527.667969 C 890.722656 527.722656 890.777344 528.777344 890.332031 528.332031 C 890.277344 528.277344 890.222656 527.222656 890.667969 527.667969 M 889.667969 531.667969 C 889.722656 531.722656 889.777344 532.777344 889.332031 532.332031 C 889.277344 532.277344 889.222656 531.222656 889.667969 531.667969 M 889 534 L 889 537 L 888 537 C 888.25 535.546875 888.316406 535.246094 889 534 M 888 538 L 886 549 L 885 549 C 885.320313 545.101563 885.945313 541.359375 888 538 M 969 547.332031 C 969.773438 547.332031 969 547.832031 968.667969 547.667969 L 969 547.332031 M 594 590 L 593 591 L 594 590 M 473 597 C 478.664063 624.371094 499.898438 644 508.644531 670 C 513.757813 685.203125 515.59375 702.042969 515.984375 718 C 516.25 729 514.648438 740.378906 517.238281 751 C 522 771.015625 538 790 546 809 C 553 825.253906 556.695313 842.613281 559.410156 860 C 559.96875 863.570313 559.246094 876.199219 565 875.417969 C 571.785156 874.53125 576.578125 864.347656 579 859 C 586.894531 842.570313 596 821.433594 590.558594 803 C 581.875 774 545.285156 773.277344 530.765625 749 C 521.652344 733.765625 528.5625 716.273438 526.714844 700 C 523.238281 669.386719 506.773438 646.800781 489.886719 622 C 484.578125 614.203125 481.667969 601.675781 473 597 M 936 597.332031 C 936.773438 597.332031 936 597.832031 935.667969 597.667969 L 936 597.332031 M 941 878 C 941 849.738281 948.644531 821.246094 961.269531 796 C 968.6875 781.167969 980.574219 768.15625 985.21875 752 C 988.835938 739.414063 986.851563 725 987 712 C 987.183594 696.824219 989.625 680.214844 995 666 C 1003.894531 643 1027.886719 622.539063 1029 597 C 1021.203125 601.730469 1016.664063 614.492188 1011.667969 622 C 996.285156 645.113281 979.273438 666.414063 976 695 C 974.363281 711.597656 980.59375 734.164063 972 749 C 957.859375 773.617188 918.183594 773.464844 911.667969 804 C 906.992188 826 919.277344 868.445313 941 878 M 758 600 L 757 601 L 758 600 M 743 604 L 743 607 L 742 607 C 742.25 605.546875 742.316406 605.246094 743 604 M 584 687 L 589 686 L 589 687 C 585.472656 688.828125 582.839844 691.226563 580 694 C 583 685 587.707031 676.597656 589 667 C 574.367188 673.195313 563.765625 690.460938 552 700.816406 C 548.601563 703.808594 539.628906 707.738281 539.753906 713.015625 C 539.847656 717.207031 544.902344 720.726563 547 724 C 551.582031 731 554.636719 739.675781 555 748 C 562.175781 743.300781 565.210938 730 570.667969 723 C 578.25 713.363281 590 707.613281 597.210938 698 C 603.214844 690 606.53125 675.527344 610 666 C 598.882813 667.671875 588.878906 677.203125 584 687 M 893 666 C 895.632813 675 899.949219 690.734375 905.683594 698 C 913.433594 707.726563 924.828125 714.011719 932.714844 724 C 937.816406 730.460938 940.921875 743.4375 947 748 C 948 739.433594 951.539063 731.332031 956 724 C 957.910156 721.011719 963 716.003906 962.832031 712.324219 C 962.613281 708.511719 953.613281 703.53125 951 701 C 939 689.359375 928.707031 673.777344 913 667 C 914.945313 676.398438 918.941406 685 922 694 C 919.453125 691.582031 917 689.609375 914 688 C 923.460938 681.742188 899.363281 666.773438 893 666 M 580 694 L 579 695 L 580 694 M 923 694 L 922 695 L 923 694 M 426 805 L 427 805 C 426.929688 779.425781 417 754.695313 417 729 C 411.960938 732.265625 412.269531 743.378906 411.964844 749 C 410.878906 769.085938 415.839844 787.589844 426 805 M 1087 729 C 1082.226563 744.023438 1082.542969 759.546875 1080.714844 775 C 1079.480469 785.4375 1075.847656 795.597656 1075 806 C 1089 794 1091 767.078125 1091 750 C 1090.988281 743.355469 1091 734.492188 1087 729 M 483 734 C 500.207031 755.695313 517.335938 784.195313 525 811 L 524 811 C 516.4375 793 506.40625 775 496.398438 758 C 492.582031 751.554688 483.242188 741.421875 483 734 M 1019 734 C 1014 745.316406 1006.367188 755.320313 1000.28125 766 C 987 789.175781 973 816.1875 966 842 L 965 842 C 968.765625 814.050781 985.980469 786 1000 762 C 1005.523438 752.613281 1010.195313 740.753906 1019 734 M 371 856 C 398.347656 848.121094 403 813 403 789 C 402.996094 781.078125 401.8125 773.378906 398.792969 766 C 397.785156 763.542969 395.859375 758.695313 392.300781 759.753906 C 386.699219 761.414063 393.773438 781 394.410156 785 C 397 802.316406 394.894531 823 385.53125 838 C 381.457031 844.570313 375.421875 849.695313 371 856 M 1131 856 C 1127.5 848.492188 1120 843.3125 1115.878906 836 C 1107 820.535156 1106.445313 801.195313 1108.171875 784 C 1108.570313 780.03125 1115.644531 761.226563 1110.695313 759.753906 C 1107.167969 758.699219 1105 763.519531 1104 766 C 1101 773.566406 1099.9375 782 1099.171875 790 C 1097 812.765625 1106.601563 848.226563 1131 856 M 752 813 C 749.25 806.792969 747.894531 800.011719 744.675781 794 C 740.90625 787 735.375 780.316406 728 777 C 726.375 776.164063 719.214844 773.445313 719.207031 777.320313 C 719.195313 783.203125 731.265625 794 733.960938 800 C 741.828125 817.773438 737.699219 836.5 740.589844 855 C 741.546875 861.128906 742.632813 870.769531 749 873.777344 C 757.214844 877.613281 760.917969 865.628906 761.914063 860 C 765.320313 840.789063 760.214844 819 769.273438 801 C 772.574219 794.492188 777.464844 789 781.558594 783 C 782.546875 781.550781 785.46875 778 783.863281 776.066406 C 781.441406 773.265625 773.199219 778.109375 771 779.46875 C 759.460938 786.589844 754.601563 800.394531 752 813 M 643.710938 794.027344 C 641.214844 796.171875 645.644531 799.667969 647 801 C 654.675781 807.753906 656.933594 814.824219 662.558594 822.664063 C 663.738281 824.308594 665.265625 824.425781 666.9375 823.339844 C 680.792969 814.355469 662.96875 801.003906 655 796.78125 C 652.433594 795.421875 646.578125 791.570313 643.710938 794.027344 M 855.980469 793.550781 C 847.835938 795.136719 835.753906 803.082031 832.742188 811 C 831.351563 814.660156 833.179688 826.640625 839.4375 824.539063 C 841.941406 823.699219 843 817.164063 844.324219 815 C 847.949219 808.246094 854 804.789063 858.675781 799 C 861.234375 795.683594 860.484375 792.671875 855.980469 793.550781 M 526 812 L 528 818 L 527 818 C 526.210938 815.78125 525.589844 814.273438 526 812 M 529 819 L 531 825 L 530 825 C 529.210938 822.78125 528.589844 821.273438 529 819 M 532 826 L 534 833 L 533 833 C 532.21875 830.511719 531.464844 828.53125 532 826 M 534.667969 834.667969 C 534.722656 834.722656 534.777344 835.777344 534.332031 835.332031 C 534.277344 835.277344 534.222656 834.222656 534.667969 834.667969 M 535.667969 837.667969 C 535.722656 837.722656 535.777344 838.777344 535.332031 838.332031 C 535.277344 838.277344 535.222656 837.222656 535.667969 837.667969 M 537 840 L 537 843 L 536 843 C 536.25 841.546875 536.316406 841.246094 537 840 M 965 843 L 964 844 L 965 843 M 563 895.285156 C 565.574219 895 571.945313 894 573.933594 896.027344 C 578.617188 901.164063 570.3125 907.269531 566 907.671875 C 562 908.03125 548.183594 908.402344 546.890625 903.773438 C 544.730469 896.03125 558.667969 895.796875 563 895.285156 M 929.433594 895.605469 C 933.222656 893.707031 949.886719 895 953.773438 896.742188 C 957.300781 898.382813 958.878906 905.167969 955.4375 907.671875 C 951.382813 910.621094 934.359375 910.441406 930.304688 907.820313 C 927 905.746094 925.347656 897.652344 929.433594 895.605469 M 834 943 C 814.777344 937.453125 798.394531 927 778 923.433594 C 750.390625 918.804688 722.347656 923 696 932.003906 C 686.355469 935.300781 677.863281 941.300781 668 944 C 675 931.695313 689.261719 923.621094 702 918.148438 C 732.660156 905 769.289063 903 800 917.234375 C 811.960938 922.789063 828.914063 930 834 943 M 572 934 C 565.710938 929.371094 561.457031 922.550781 555 918 C 568.90625 911.316406 575.953125 920.617188 572 934 M 946 918 C 944.296875 922.425781 937.363281 935 931.304688 933.246094 C 925.667969 931.695313 927.738281 919.769531 932 918 C 936 916.179688 941.722656 918 946 918 M 930 941 L 929 945 L 928 945 C 928.5625 943.246094 928.917969 942.457031 930 941 M 558 972 C 558.566406 967.171875 557 948.246094 562.417969 946.347656 C 567.910156 944.394531 571.871094 959.398438 571.847656 963 C 571.804688 969.671875 563.261719 971.222656 558 972 M 954 979 C 948 976.71875 934.464844 973.042969 931 967.582031 C 927.601563 962.089844 935 949.570313 938 945 C 946.375 952.171875 953 968.089844 954 979 M 569.984375 973.386719 C 580.777344 972.398438 574.832031 988 566 988.460938 C 561.886719 988.753906 560 982.472656 560.894531 979.105469 C 561.820313 975.585938 566.691406 973.6875 569.984375 973.386719 M 928.4375 975.601563 C 933.84375 972.824219 951.800781 978.664063 954 984.109375 C 955.347656 987.039063 955.238281 999.261719 951.4375 1000.539063 C 949 1001.3125 946.535156 998.402344 945 997.125 C 939.921875 993 932.519531 989.121094 928.515625 984 C 926.824219 981.691406 925.175781 977.28125 928.4375 975.601563 M 726 982 C 718.597656 1007.644531 680 1014.320313 669 988 C 681.789063 991.308594 696 992.777344 709 989.089844 C 714.992188 987.371094 720 983.742188 726 982 M 834 988 C 821.703125 1016 786 1005.285156 776 982 C 785 983.609375 792.660156 989.367188 802 990.699219 C 813 992.289063 823 989 834 988 M 935 1066 C 928.957031 1054.652344 929.195313 1041.113281 921.367188 1030 C 917.863281 1025.027344 910.53125 1020 911.882813 1013 C 912.847656 1008.109375 919.84375 992.519531 924.394531 990.367188 C 930.304688 987.570313 949.28125 1000.222656 950.679688 1006.003906 C 952.253906 1012.527344 947.644531 1020.113281 945.425781 1026 C 940.699219 1038.527344 935.277344 1052.480469 935 1066 M 577 1030 C 575.519531 1020 566 1007.808594 566.902344 998.015625 C 567.285156 993.644531 574.425781 988.675781 578.605469 991.070313 C 581.742188 993 582.363281 998 583.820313 1001 C 589.652344 1013.054688 591.984375 1023.011719 577 1030 M 973.667969 1015.667969 C 973.722656 1015.722656 973.777344 1016.777344 973.332031 1016.332031 C 973.277344 1016.277344 973.222656 1015.222656 973.667969 1015.667969 M 661.4375 1026.046875 C 657.199219 1028.785156 661.242188 1035.734375 665.683594 1033 C 670 1030.214844 665.828125 1023.207031 661.4375 1026.046875 M 836.601563 1026.03125 C 832.828125 1029 837.378906 1035.660156 841.5625 1033 C 846.230469 1030 840.910156 1022.6875 836.601563 1026.03125 M 685.320313 1036.046875 C 681 1038.667969 685.589844 1045.058594 689.683594 1042.761719 C 694.230469 1040.210938 689.703125 1033.28125 685.320313 1036.046875 M 814.320313 1036.070313 C 810 1038.617188 814.648438 1045.1875 818.679688 1043 C 823 1040.421875 818.601563 1033.460938 814.320313 1036.070313 M 662 1067 L 668 1071 L 668 1072 C 665 1071.011719 662.800781 1070.066406 662 1067 M 843 1068 C 840.714844 1071.144531 838.765625 1073 835 1074 C 836.855469 1070.453125 839.28125 1069.304688 843 1068 M 675 1075 C 677 1075.3125 679 1075.691406 681 1076.46875 C 683.316406 1077.375 693 1082.414063 688.378906 1086 C 683 1090 675.8125 1079.023438 675 1075 M 825.832031 1077.648438 C 831.285156 1078.136719 820.234375 1089.484375 815.242188 1088.574219 C 808.210938 1087.292969 821.722656 1077.277344 825.832031 1077.648438 M 701 1087.527344 C 706.1875 1086.464844 713 1090.8125 718 1092.117188 C 728.449219 1095 739.242188 1096.175781 750 1097 C 760.503906 1097.628906 771.734375 1096.632813 782 1094.335938 C 788 1093 794.644531 1089.175781 800.980469 1089.519531 C 805.527344 1089.765625 806.894531 1094.292969 803.679688 1097.363281 C 797.492188 1103.277344 786.785156 1102.429688 779 1103.171875 C 755.816406 1105.378906 730.707031 1107.015625 708 1100.570313 C 703.652344 1099.339844 689 1090.023438 701 1087.527344 "/>
</g>
</svg>
