<?xml version="1.0" encoding="UTF-8"?>
<svg xmlns="http://www.w3.org/2000/svg" xmlns:xlink="http://www.w3.org/1999/xlink" width="1500pt" height="1500pt" viewBox="0 0 1500 1500" version="1.1">
<g id="surface1">
<path style=" stroke:none;fill-rule:nonzero;fill:rgb(0%,0%,0%);fill-opacity:1;" d="M 334 969 C 325.390625 979 306.746094 993.324219 303.429688 1006 C 300.65625 1016.597656 305.992188 1032.53125 308.351563 1043 C 315.65625 1075.46875 327.335938 1107.066406 343.851563 1136 C 407.542969 1247.589844 524.226563 1314.59375 646 1344.128906 C 686.578125 1354 728 1360.195313 768 1372.660156 C 776.75 1375.390625 785.414063 1378.1875 794 1381.425781 C 796.277344 1382.285156 800.820313 1385.15625 803.257813 1383.761719 C 805.332031 1382.574219 804.953125 1379 805 1377 C 814.535156 1384.328125 825.273438 1390 836 1395.246094 C 839 1396.824219 844 1400.289063 847.851563 1399.210938 C 853.890625 1397.46875 848 1375.335938 855 1378.210938 C 864 1382 868.511719 1397.660156 871.332031 1406 C 872.664063 1410 874.359375 1416.46875 879.898438 1415.457031 C 883.746094 1414.753906 884.90625 1410.183594 885.855469 1407 C 888.539063 1398 891.710938 1389.097656 894 1380 C 894.769531 1377.527344 895.550781 1369.054688 899 1369.054688 C 902.285156 1369.054688 904.675781 1374.757813 905.988281 1377 C 910.917969 1385.414063 914.878906 1395.15625 923 1401 C 923 1369.125 936.910156 1339 937 1307 C 944.53125 1316 947 1334.371094 957 1340 C 957 1315.292969 949 1291.527344 949 1267 C 955 1273.683594 960.359375 1281.011719 964.691406 1289 C 967.359375 1294 969.207031 1301 974 1304 C 974 1278.078125 974.953125 1252.546875 970 1227 L 971 1227 C 972.886719 1233.40625 976.851563 1240.070313 983 1243 C 983 1215.425781 992.800781 1191 995 1164 L 996 1164 C 996 1175 1000.257813 1185.085938 1004.574219 1195 C 1005.53125 1197.199219 1007.867188 1205 1011.433594 1203.652344 C 1015.472656 1202.1875 1018.519531 1192.605469 1020.21875 1189 C 1027 1174.316406 1033.71875 1157.652344 1038 1142 L 1039 1142 C 1039.90625 1148.726563 1041.210938 1163 1047 1167 C 1050.90625 1138.015625 1068.578125 1108 1084.515625 1084 C 1090.398438 1075.175781 1100.746094 1066.636719 1104.839844 1057.015625 C 1108 1049.53125 1093.90625 1049.605469 1096.433594 1040 C 1108.351563 994.695313 1127.605469 952 1128 904 C 1142 926.191406 1168.242188 973.640625 1202 957.179688 C 1217.527344 949.609375 1220.308594 931.40625 1222 916 C 1225.261719 890.046875 1228.691406 863.339844 1241.308594 840 C 1262.835938 800.179688 1294.410156 767.089844 1319.972656 730 C 1367.167969 661.53125 1403.257813 573 1377.960938 490 C 1370 464.179688 1347.382813 445.382813 1329 427 C 1288.957031 387 1245 351.066406 1205 311 C 1177.230469 283.230469 1149 254.605469 1118 230.425781 C 1101.4375 217.515625 1082.640625 208.050781 1066 195.347656 C 1053 185.433594 1041.886719 173.429688 1029 163.425781 C 1009.515625 148.300781 987.511719 136 965 126 C 919.71875 105.695313 869.40625 95.203125 820 93.039063 C 801.570313 92.230469 783.429688 95.769531 765 95 C 747.484375 94.195313 730.539063 87.808594 713 87.039063 C 652.742188 84.402344 592.664063 96.042969 537 119.011719 C 509.1875 130.488281 483 145.265625 459 163.375 C 447.476563 172.054688 437.382813 185 425 192.046875 C 417.851563 196.167969 408.808594 196.378906 401 198.722656 C 388.382813 202.507813 375.773438 209 365 216.4375 C 327.421875 242.769531 310.3125 287 278.984375 319 C 228.945313 370.296875 164.21875 413.792969 131.605469 480 C 125.414063 492.566406 124.546875 506.535156 121.574219 520 C 119.257813 530.507813 115.515625 541.183594 115 552 C 114.402344 566.523438 118.636719 579.792969 120.726563 594 C 128.292969 645.355469 145.464844 694.746094 176 737 C 203.601563 774.796875 240.664063 805 265.1875 845 C 282.511719 873.273438 282.996094 906.570313 294 937 C 300.632813 955.097656 313.851563 968.832031 334 969 M 1250 622 L 1252 622 C 1252.53125 609.671875 1257.535156 598.085938 1259.566406 586 C 1263.351563 563.480469 1264.867188 538.6875 1262 516 L 1263 516 C 1275.492188 542.703125 1279 576 1281.828125 605 C 1282.871094 615.746094 1281.511719 627.539063 1284 638 L 1285 638 L 1284 535 L 1285 535 C 1293.46875 561.023438 1302.996094 586.199219 1303 614 L 1304 614 C 1304 576.496094 1299.972656 539.550781 1287.308594 504 C 1281.40625 487.4375 1269.832031 472.773438 1265 456 C 1282.691406 466.226563 1288.863281 485.074219 1302 499 C 1295.320313 466.644531 1278.707031 436.628906 1256.832031 412 C 1236.976563 389.640625 1209.835938 368.042969 1201 338 C 1212.375 344 1220.871094 355.230469 1230 364 C 1245.167969 378.464844 1261 392.230469 1276 407 C 1293.925781 424.75 1313 441.148438 1331 459 C 1340.84375 469 1351.414063 478.363281 1357.730469 491 C 1370.625 516.789063 1365.5625 547.609375 1362.285156 575 C 1357.410156 615.746094 1346.847656 655.503906 1325.550781 691 C 1307 721.773438 1281.359375 747 1259.425781 775 C 1245.519531 793 1234.519531 813.023438 1224 833 L 1223 833 C 1224.691406 793.613281 1252.796875 766.554688 1276.566406 738 C 1298.722656 711.378906 1324.367188 679.316406 1325.960938 643 C 1326.523438 630.199219 1322.820313 620.195313 1320 608 L 1319 608 C 1318.492188 632.675781 1307.441406 671.601563 1283 683 C 1284.199219 673.511719 1283.597656 665.25 1281 656 L 1280 656 C 1278.402344 676.207031 1269.203125 699.042969 1258.300781 716 C 1253.660156 723.21875 1248 730.574219 1240 734 C 1247.644531 715.640625 1252.386719 700.472656 1256 681 C 1251.171875 686 1249.640625 694.625 1246.988281 701 C 1241.511719 714.160156 1233.890625 730.601563 1222 739 C 1220.175781 724.578125 1216 707.328125 1204 698 C 1220 755.09375 1203.996094 817.023438 1204 875 C 1204 894 1212.78125 924.367188 1194.824219 938.195313 C 1182.214844 948 1170.597656 928.648438 1164.660156 920 C 1145.90625 892.695313 1132.316406 863.1875 1124.375 831 C 1115 793.53125 1111.46875 753.117188 1118.609375 715 C 1122.40625 694.738281 1130.558594 675.515625 1137 656 C 1146.972656 625.785156 1156 594.53125 1160.726563 563 C 1166.683594 522.566406 1158.242188 484 1147.425781 445 C 1134.738281 399.363281 1119 355.0625 1099.308594 312 C 1091.695313 295.421875 1083.445313 279.28125 1075.246094 263 C 1071.464844 255.488281 1068 245.074219 1061.671875 239.316406 C 1057.5625 235.589844 1052.824219 238 1048 237.726563 C 1043.191406 237.453125 1038.804688 234.707031 1035 232 C 1039 240.746094 1046.652344 246.324219 1052.214844 254 C 1059 263.53125 1064.773438 276.707031 1068 288 L 1063 287 C 1088.910156 331.390625 1099.378906 382.679688 1089 433 L 1088 433 C 1088 409.734375 1080.585938 375 1062 359 C 1068.335938 373.308594 1071 390.460938 1071 406 L 1070 406 C 1065.945313 399.519531 1060.378906 394.378906 1055 389 C 1057.871094 396.445313 1069.175781 432 1052 425 C 1052 432.660156 1052.523438 440 1049 447 C 1038.308594 438.289063 1038.429688 423.5625 1030 414 C 1033.765625 427.015625 1042.390625 439.4375 1043.824219 453 C 1046 473.816406 1026 502.109375 1004 498 C 1006 500.132813 1015.792969 506.1875 1015.792969 509.050781 C 1015.792969 513.050781 1005.78125 514.25 1003 514.714844 C 988.992188 517.058594 976.34375 514.339844 963 510 C 969.273438 516.144531 976.253906 522 984 526.101563 C 989.511719 529.097656 995.792969 530.105469 1000 535 L 980 535 C 988.574219 545 996.484375 555.5 1000.644531 568 C 1003.757813 577.347656 1003 590.199219 1011 597 C 1008.863281 588.550781 1010 576 1010 567 C 1012.289063 568.148438 1014 569.359375 1016 571 C 1015.976563 563.023438 1013.269531 555 1014.289063 547 C 1016.542969 529.484375 1030 516.375 1040.347656 503 C 1043.644531 498.679688 1049.25 485.015625 1054.359375 483.347656 C 1058 482.148438 1060 488.613281 1061 491 C 1064.910156 500.046875 1064.75 508.488281 1064 518 L 1065 518 C 1068 507 1073 495.449219 1074 484 L 1076 484 C 1077.511719 503.132813 1079 521 1075.199219 540 C 1073.769531 547.027344 1072.238281 554.332031 1069.546875 561 C 1068.269531 564.164063 1065 568.3125 1065.390625 572 C 1065.734375 575.277344 1070.277344 575 1072.347656 576.742188 C 1074.59375 578.785156 1075 582.1875 1075.597656 585 C 1082.277344 617.523438 1082.96875 653.292969 1066 683 C 1061 691.664063 1055.863281 701 1047 706 C 1052.316406 686.515625 1058 669.5 1058 649 L 1057 649 C 1049 690 1021.449219 722.554688 1001.425781 758 C 996.96875 766 992.902344 774.261719 990.429688 783 C 989 788 989 794.316406 986.429688 799 C 983 804.691406 966.195313 801 963.605469 795.582031 C 960.992188 790.171875 966.347656 781.621094 968.78125 777 C 977.539063 760.367188 992 747.714844 1000.742188 731 C 1010.820313 711.460938 1013.8125 688.46875 1008.765625 667 C 1006.589844 657.761719 1002 649.242188 1000 640 L 999 640 C 1000.300781 670.261719 1008.617188 719 979 740 C 980.328125 730.140625 984.835938 721 985.828125 711 C 987.230469 697 983.480469 683.445313 980 670 L 979 670 C 979 689.121094 984.167969 725.519531 967 739 C 967 722.769531 969.289063 707.320313 968 691 L 966 691 C 966 707.796875 961.636719 723.070313 954 738 L 953 738 C 943.171875 714.359375 945 690.179688 945 665 C 947.417969 666.085938 948.988281 667.242188 951 669 C 957 620.316406 909.230469 584.136719 877 556 C 890.503906 579.699219 913.503906 596.554688 922.65625 623 C 930.90625 647 926.414063 670.527344 928 695 C 930.199219 725.820313 937.835938 758 945 788 C 935.988281 787.097656 926.902344 782.195313 918 780 C 924.625 788.585938 936 792.027344 946 795.332031 C 968.761719 803 994.800781 811.800781 1019 812 L 1019 813 C 977.636719 813 941 794.292969 902 785 L 908 779 C 889.285156 778.183594 871 767.472656 852 771 C 855.359375 756.484375 858.796875 741.199219 863.34375 727 C 867.828125 713 874.488281 701.726563 868.546875 687 C 849.84375 640.652344 787 619 787 564 L 786 564 C 781.1875 578.765625 777.996094 588.523438 782 604 C 766 591.757813 774.925781 565.328125 778 549 C 768.890625 559.085938 764.605469 574.195313 761 587 L 760 587 C 754.753906 574.382813 751.996094 561.519531 756 548 C 743.242188 561.148438 743.546875 588.71875 751.375 604 C 754.644531 610.382813 760.429688 614.820313 764 621 C 743.550781 621 723.480469 617.632813 703 618 C 705 607.808594 710 590.257813 716.417969 582.003906 C 721 576 732.398438 570.25 731 561 C 729.949219 552.457031 718 548.277344 711 546.664063 C 693.714844 542.773438 664.234375 547.160156 651 560 C 667 555.472656 683.359375 551.351563 700 555.015625 C 703.660156 555.820313 717.5625 559.820313 714.167969 565.726563 C 711.699219 570.019531 702.242188 570.414063 698 572.3125 C 687.503906 577.011719 677.726563 584.234375 673 595 C 680.476563 589.570313 688.597656 585.199219 698 585 C 693.789063 595 683 599.492188 677 608 C 678.507813 607.019531 689.792969 600.667969 689.792969 606.132813 C 689.792969 608.578125 685.6875 610.53125 684 611.667969 L 665 624.332031 C 643.183594 639 619.207031 656.820313 606 680 C 610.417969 677.488281 614.960938 675.742188 620 675 C 617.933594 688.796875 606.332031 699.5625 606 714 C 605.886719 722.761719 612.257813 729.394531 615.6875 737 C 618.976563 744.296875 619.804688 752.445313 622.355469 760 C 626.761719 773.042969 632.636719 779.335938 616 785 L 616 786 C 624.859375 786 633.886719 785.230469 642 789.492188 C 644.71875 791 649.453125 793.269531 648.941406 797.011719 C 648.378906 801.105469 643 803.796875 640.96875 807.039063 C 636.773438 813.273438 636 820.714844 636 828 L 637 828 C 640 819.0625 645 810.28125 654 806.050781 C 656.769531 804.734375 668.699219 801.640625 667.964844 808.066406 C 667.527344 812 661.609375 814.175781 659 816.328125 C 652.988281 821.296875 646.417969 827.429688 644 835 C 657.796875 824.058594 671.375 818 689 818 L 689 819 C 670.675781 831.125 649 836.480469 643 860 C 646.683594 856.367188 648.957031 851.742188 653 848.324219 C 663.390625 839.554688 677 836.519531 690 834 L 690 835 C 659.980469 849.203125 638.21875 881.667969 612 901.765625 C 602.285156 909.210938 592 915.414063 581 920.742188 C 575.296875 923.503906 567.582031 924.652344 563 929 C 588.402344 921 608.792969 913.597656 630 896.390625 C 650.476563 879.773438 672.378906 853.136719 700 849 C 685.777344 869.785156 659.527344 879.527344 647 902 C 657.734375 892.710938 673.40625 880.332031 687 876 C 686.550781 880.398438 684.679688 884 683 888 C 693.292969 880.75 700 869.097656 713 866 L 712 879 C 723.269531 874.074219 726.488281 864.296875 735 857 C 735 863.164063 738.410156 882.085938 734.257813 886.398438 C 732 888.652344 727.8125 888.28125 725 889.25 C 720.441406 890.816406 706.761719 903.660156 705 894 C 696.851563 898 688 903 681 908.515625 C 675 913.085938 670 919.566406 663 922 C 663.886719 918.582031 664.617188 915.253906 666 912 C 651.980469 925.585938 648.640625 952.390625 629 960 C 633.839844 943.191406 644.570313 929 646 911 L 645 911 C 637.890625 932 622.292969 956 605 969.714844 C 592.800781 979.386719 577.675781 982.304688 565 971.53125 C 553.34375 961.558594 551.8125 944.703125 542.480469 933.003906 C 538.988281 928.625 532.203125 922.710938 526 923.757813 C 515.558594 925.527344 527 948.117188 529 954 C 520.316406 947.589844 516.402344 936.113281 513.871094 926 C 513 923.132813 510.707031 917.359375 513.605469 915.027344 C 517.242188 912.101563 524.925781 915.421875 529 915.828125 C 539.738281 917 550.582031 915.414063 561 913 C 590 905.78125 614.28125 886.71875 635 866 C 616.363281 876 598.195313 891.609375 578 898 L 578 897 C 597 888.0625 615 874 630 859 C 619 865.109375 609.417969 873.664063 598 879 C 601.382813 874.445313 605.832031 872.152344 611 870 L 611 869 C 597 873.019531 585 884 572 890.242188 C 569.496094 891.46875 559.738281 896.511719 558.921875 891 C 558 885.28125 569.382813 881.605469 573 879.304688 C 586.789063 870.542969 602.953125 862.679688 609 847 C 602.457031 851.816406 598 859.082031 591.960938 864.386719 C 580.515625 874.242188 565.921875 882.203125 552 888 L 552 887 C 567.476563 878 584.492188 867 595 852 C 585 856.621094 577.382813 864 569 870.738281 C 566.308594 873 561.234375 878.09375 557.429688 877.746094 C 552.488281 877.296875 552.214844 863.414063 555.316406 861 C 558.597656 858.128906 564 857.675781 568 856.304688 C 578.347656 852.699219 588.445313 849 599 846 L 599 845 C 583 846.265625 566.296875 850.289063 551 855.027344 C 541.855469 858 532.660156 862.558594 523 863 C 524.386719 858.78125 526.820313 851 532.828125 852.796875 C 535.878906 853.726563 537.488281 856.605469 541 856.324219 C 547.753906 855.78125 563.621094 849.015625 568 844 L 552 848 C 560.832031 833.5625 587.261719 833.355469 599 822 C 556.390625 838.074219 513.25 853.4375 469 864 C 476.808594 855.542969 497 854.679688 508 851.574219 C 528.398438 845.75 548 836 565 823.101563 C 567.363281 821.3125 585.167969 808.199219 576.886719 805.789063 C 566 802.648438 556.949219 822 549 826 C 549 782 556.992188 739.695313 567 697 C 571.457031 678.691406 573.910156 660.027344 579.433594 642 C 585.65625 621.691406 595.539063 601.828125 605.257813 583 C 617.707031 559 637.355469 541.136719 651 518 C 634 527.042969 615 536.050781 602.4375 551 C 588.625 567.394531 583.273438 588.097656 572 606 C 566.695313 614.621094 558.75 621.234375 553.449219 630 C 535.738281 659.28125 527.242188 689.421875 523 723 L 522 723 C 518 704 519.179688 685.171875 527 667 C 505.84375 685.363281 508.9375 709.246094 510 734 C 501.671875 727.609375 497.570313 716.59375 494 707 C 484.949219 682.175781 485 655.675781 480.195313 630 C 477 613.621094 470.171875 598.355469 467 582 L 466 582 C 466 598.753906 470.953125 615.207031 471 632 C 458.601563 623.074219 450.3125 602.011719 450 587 L 448 587 C 447.601563 606.351563 455.476563 621.265625 458 640 C 428.78125 619.246094 427 568.769531 427.984375 537 C 428.289063 526.695313 430.765625 516.300781 435.257813 507 C 436.394531 504.652344 438 499.398438 441 499 C 443.796875 498.496094 445.265625 502.152344 446.242188 504.003906 C 449.550781 510.277344 453.355469 516.136719 457.34375 522 C 469.800781 540.304688 481.375 558.679688 487.976563 580 C 490.738281 589 490.867188 598.046875 493 607 C 494.945313 605.136719 496.792969 603.53125 499 602 C 499.316406 617.332031 501 632.636719 501 648 L 502 648 C 506.671875 627.8125 521.613281 614 533.765625 598 C 539.945313 590 543.910156 580.722656 549 572 C 543.691406 575.273438 539.378906 578.4375 533 579 C 536.253906 572.730469 541.785156 567.683594 546 562 C 534.835938 562 524 562.355469 514 557 L 514 556 C 525 549.003906 537 545.242188 545 534 C 532.945313 538 520.648438 540.3125 508 538.246094 C 504.257813 537.632813 498 537.167969 495.753906 533.644531 C 492.894531 529.300781 504.507813 526 500.453125 522.457031 C 496 518.644531 476 519.394531 477.921875 508.515625 C 478.582031 504.589844 489.234375 506 492 506 L 492 505 C 481 502.386719 470.515625 501.65625 462.183594 493 C 450.75 481 449.824219 462.472656 450.910156 447 C 453.3125 412.753906 464 372.042969 489 347.089844 C 504.515625 331.683594 524.6875 327.003906 545 322 L 545 321 C 528.871094 321 514.292969 324.023438 499 329 C 510.460938 310.691406 538.929688 296.542969 559 290 L 559 289 C 525.496094 293.515625 487.179688 315 468.21875 343 C 459.648438 355.660156 455.460938 371 449.800781 385 C 443.78125 400 436 414.113281 430 429 L 429 429 C 431 418 430.988281 407 433.882813 396 C 442.417969 363.652344 460.710938 333 484 309 C 491.496094 301.332031 499.214844 294 508 287.722656 C 513.347656 284 520.390625 281.472656 525 277 C 481.390625 288.3125 458.921875 327.09375 441.859375 366 C 437 377 435 388.671875 429 399 C 422.253906 397.164063 420.316406 403.664063 418.203125 409 C 413.574219 420.679688 410 433.375 410 446 L 409 446 C 409 425.097656 411.96875 403 418.34375 383 C 422.191406 371 429.855469 359.464844 432 347 L 431 347 C 427.84375 358 420.464844 367.585938 415.863281 378 C 406.445313 399.304688 400 423.660156 400 447 L 399 447 C 398.84375 428 396.199219 409.164063 397 390 C 398.421875 358.445313 406 326.683594 419.308594 298 C 430 274.402344 448 255.246094 461 233 C 449.222656 238.570313 438 247.496094 428 255.601563 C 397 280.253906 366.796875 315.269531 365 357 L 366 357 C 368.824219 348.152344 376.671875 341.59375 385 338 C 384.496094 362.257813 362.617188 376.757813 353 397 L 369 392 C 363.871094 416.773438 349.953125 439.71875 342.722656 464 C 332.503906 498.289063 332.589844 536.15625 339.601563 571 C 341.726563 581.5625 345.195313 591.660156 348 602 C 349.648438 607.300781 350.328125 613.796875 354 618 C 346.242188 590.402344 341.335938 558.507813 345.429688 530 C 347.945313 512.484375 354.835938 496.078125 359 479 C 363.253906 462.402344 364.449219 446 371 430 L 372 430 C 378.597656 457.628906 369.851563 491.738281 364.398438 519 C 361.925781 531.359375 360.960938 544.296875 348 550 L 348 551 C 352.832031 552.371094 361 553.371094 363.667969 558.214844 C 366.757813 564 363.644531 575.503906 364 582 C 365 596.648438 368.40625 611.082031 373 625 C 382.835938 654.800781 396.851563 683.390625 404 714 C 416 764.242188 410.558594 818 392.425781 866 C 383.550781 889.511719 370.414063 911 355.371094 931 C 348.679688 940 341.773438 950.78125 329 948.785156 C 319.609375 947.320313 314.953125 937.636719 311.257813 930 C 301.519531 910 298 887.144531 298 865 C 298 829.171875 314.214844 796.691406 321 762 C 325 741 323.960938 716.679688 308.5625 700.171875 C 300.175781 691.179688 288.722656 685.640625 278 680 C 290 697.277344 294.703125 712.183594 301 732 L 300 732 C 291 716.582031 287.238281 704.171875 269 698 C 272 705.015625 272.613281 712.5625 274 720 C 259.214844 709.367188 248.855469 692 236 679 C 238.6875 687.261719 241.242188 695.480469 243 704 C 232.621094 701 223.476563 692.5 216 685 C 191.5 660.417969 183.234375 625 187.285156 591 C 189.589844 571.734375 195.957031 553.332031 197.828125 534 C 200 510.761719 201.261719 488 206 465 L 205 465 C 198.375 479.007813 190 491.191406 188 507 L 187 507 L 188 469 C 165.976563 479.480469 156.203125 506.136719 150 528 C 155.363281 523.648438 160.484375 518.507813 167 516 C 163 529.621094 156.867188 542.472656 153 556 C 158.246094 550.519531 162.753906 544.402344 169 540 C 168.964844 552.222656 166.457031 564.089844 164 576 C 166.945313 574.199219 169.871094 572.460938 173 571 C 171.316406 582.433594 166.550781 593.308594 166 605 C 164.339844 643.738281 179 680.109375 201.882813 711 C 227 745.214844 277.613281 778.261719 278 825 L 277 825 C 248 784.351563 208.292969 753.703125 179.722656 713 C 148.480469 668.496094 140.289063 610.164063 138.984375 557 C 138.363281 531.695313 139.414063 506.007813 151.640625 483 C 169.59375 449.21875 203.175781 419.824219 230 393 C 244.847656 378.152344 260 364 275 349 C 284.617188 339.382813 294 328 306 321 C 302 347.355469 282.996094 359.34375 266 377 C 255.691406 387.777344 248.367188 400.164063 243 414 C 254.242188 402.757813 264.691406 394 280 389 C 275.941406 399.699219 265.714844 407.8125 258 416 C 241.550781 433.757813 220 457.574219 218 483 L 219 483 C 224.988281 462.257813 248 436.042969 269 430 C 262.351563 445.425781 250.300781 458.222656 242.308594 473 C 227.621094 500.15625 216.898438 531.324219 213 562 L 214 562 C 219.796875 539.613281 229.222656 520.734375 241.203125 501 C 246.472656 492.316406 251.621094 482.027344 260 476 C 259.675781 491.773438 254.664063 507.300781 253.171875 523 C 250.726563 548.648438 253 579 259 604 L 260 604 C 260 551.648438 268 498.65625 285 449 C 291.933594 428.664063 303.859375 410.375 310.644531 390 C 317.578125 369.179688 316.902344 347 324 326 C 329.605469 309.554688 340.238281 294.527344 345 278 C 341.730469 279.527344 338.417969 281 335 282 C 352.171875 237.738281 390.914063 224.050781 433 214 C 427.167969 222 417.589844 225.570313 410 231.515625 C 400.769531 238.746094 393.546875 248 385 256 C 377.21875 263.160156 368.296875 269.253906 362 278 C 340.59375 308 333.777344 351.238281 322.976563 386 C 307.375 436.199219 281 483.085938 280 537 L 281 537 C 282.324219 531.421875 284.425781 526.589844 289 523 C 284.601563 541.429688 280.359375 564.039063 282.171875 583 C 284 603.308594 292.363281 621.382813 300 640 L 301 640 C 292.171875 613 288.8125 592 300 565 L 301 565 C 303.746094 578.308594 304.378906 592.140625 309 605 C 316 624.367188 327.828125 642 333 662 C 338.585938 682.722656 338 703.765625 338 725 C 342.726563 719.640625 344.625 711.332031 348 705 L 349 705 C 348.910156 737.539063 340.835938 770 332 801 L 333 801 C 339.699219 785 349.300781 770.089844 356 754 L 357 754 C 356.894531 792.664063 336.9375 832.363281 312 861 C 345.308594 844.414063 364.847656 798.558594 372 764 L 373 764 C 371.820313 821.203125 339 873 339 930 L 340 930 C 346.785156 909.183594 355.273438 888.484375 365.257813 869 C 381.207031 838 396.875 811.25 395.984375 775 C 394.949219 732.769531 373 695 355.257813 658 C 343 632.785156 333 606.457031 327.210938 579 C 312.367188 509.304688 330.917969 438.140625 349.574219 371 C 357.742188 341.609375 363.253906 310.300781 381.429688 285 C 395.179688 266 415.96875 253.75 434 239.195313 C 452.59375 224.1875 467.839844 205 488 192 C 504.511719 181.144531 522.351563 177.59375 540 170 C 513.347656 168.375 485.441406 184.679688 461 193 C 472 175.203125 493.480469 164.289063 511 153.800781 C 560.769531 124.003906 622.414063 103.472656 681 106.039063 C 695.992188 106.695313 711.253906 108 726 111.003906 C 734.636719 112.765625 743 116.765625 752 117 C 766.347656 117.339844 780.632813 113.367188 795 113.015625 C 834.375 112.050781 874.261719 116.296875 912 128.027344 C 949 139.570313 995.726563 157.792969 1021.832031 188.089844 C 1027.335938 194.472656 1014.644531 198 1019.296875 202 C 1026.957031 208.597656 1044.445313 209.734375 1054 213.605469 C 1074 221.761719 1093 234.304688 1109 249.089844 C 1141.402344 279.269531 1164.425781 317.390625 1185.308594 356 C 1230 438.742188 1257.472656 527.234375 1250 622 M 652 135 C 659.4375 163 608.824219 152.304688 592 158 L 592 159 C 618.371094 159.542969 641.289063 171.128906 665 181 C 660.167969 170.648438 644.832031 164 634 162 L 634 161 C 644.175781 160.5625 654.816406 154.757813 665 156.683594 C 675.800781 158.726563 681.972656 167.78125 691 173 C 690.429688 166.480469 687.933594 161.171875 684 156 C 701.226563 161.613281 715.382813 173.082031 732 180 C 725.335938 164.257813 704.488281 155.269531 690 148.257813 C 685.339844 146.003906 669.738281 136.375 672 147 C 666 142 659.628906 137.199219 652 135 M 746 165 C 779 162.390625 814.996094 155 846 143 C 838.6875 139.109375 828.742188 142.464844 821 143.753906 C 802.246094 147 783 148.589844 765 155 C 758.863281 157 749.695313 159.359375 746 165 M 818 162 C 825.921875 160.507813 833.925781 159.023438 842 159 L 842 160 C 837.878906 161.746094 834.976563 164 833 168 C 842.527344 165.726563 852.273438 166 862 166 C 858.304688 169.371094 854 172.03125 851 176 C 867.394531 176 883.507813 172.609375 900 173.015625 C 912.703125 173.324219 925.300781 176.453125 938 177 L 938 176 C 917.921875 167.359375 895.878906 170.066406 875 167 C 866.726563 165.578125 861.289063 160.078125 852 160 C 856.539063 152.328125 847.675781 152.347656 842 151.574219 C 832.5625 150.292969 820.660156 151 818 162 M 532 208 C 547 204.496094 560.535156 196 575 190.425781 C 589.894531 184.820313 606.449219 182.210938 622 179 C 617.34375 172.328125 604.722656 175.0625 598 176.652344 C 580.773438 180.730469 563.335938 188.242188 548 197 C 542.734375 200.007813 535.335938 202.804688 532 208 M 881 185 C 887.886719 185 896.402344 182.195313 902.898438 185.394531 C 907.203125 187.515625 903.167969 191.472656 906.371094 193.820313 C 911 197.28125 922 199.550781 928 202 L 928 203 C 918.257813 203 909 204.503906 900 208 L 900 209 C 911.9375 209 923.265625 206.703125 935 210 L 935 211 C 926.28125 211.375 917.65625 214 909 215 L 909 217 C 921.644531 218 941.625 219.328125 950 230 C 930 229.589844 911.699219 227.011719 892 233 L 892 234 C 920.417969 234 947.503906 233 974 245 C 992.632813 253.316406 1008.257813 270.3125 1028 276 C 1021.210938 266.359375 1010.589844 260.183594 1001 253.65625 C 987.863281 244.714844 974.996094 235 961 227.308594 C 957 225.171875 937.195313 218.421875 939.347656 212.328125 C 940.597656 208.789063 946 211.792969 948 212.761719 C 956 216.742188 963.636719 221.5625 972 225 C 964.1875 208.25 938 198.714844 923 190 C 918 187 914.640625 180.398438 908.996094 179.214844 C 899.878906 177.296875 887.230469 177.117188 881 185 M 514 236 C 526.46875 233.039063 537.472656 224.226563 549 218.78125 C 565.5 211 582.839844 206.433594 601 205 C 594.730469 198 583.257813 199.648438 575 202.039063 C 555.476563 207.691406 527 220.074219 514 236 M 477 292 C 489.332031 286.351563 498.199219 273.0625 509 265 C 531.269531 248.0625 563.578125 233.234375 592 233 C 586.191406 224.675781 567.234375 230.1875 559 231.804688 C 535 236.484375 515.621094 251 498 266.828125 C 490.265625 273.828125 480.777344 282.039063 477 292 M 921 244 C 952.367188 254 978.882813 272.265625 1011 280 C 1006.488281 272.761719 994 272.101563 987 268 C 969.46875 257.519531 944.460938 230 921 244 M 508 280 C 530.847656 270.488281 551.300781 257.070313 577 257 C 562.789063 242.761719 536.199219 259.679688 523 267.601563 C 517.335938 271 510.945313 273.816406 508 280 M 853 284 C 862.300781 281.320313 870 276.777344 880 276.089844 C 896 275 909.851563 282.492188 925 286 C 910.671875 267.449219 865.367188 260.164063 853 284 M 565 279 C 576.53125 278.089844 585.710938 276.664063 597 280.699219 C 604.40625 283.34375 610.597656 288.640625 618 291 C 610.726563 273.621094 579.316406 262.605469 565 279 M 650 278 C 653 288 664.421875 292.730469 666.609375 303 C 667.828125 308.722656 665.78125 315.128906 666 321 C 666.4375 330.121094 669 338.785156 667.5625 348 C 663.269531 375.480469 644.566406 394.394531 632 418 C 639.28125 414.222656 644 407.195313 649.246094 401 C 661.90625 385.78125 676.636719 367.453125 678.824219 347 C 680 335.453125 674 323 676.527344 312 C 679.746094 297.65625 690.886719 286.183594 695 272 C 685 274.582031 682.558594 288.34375 673.976563 290.652344 C 670.652344 291.550781 668 287.324219 665.910156 285.527344 C 661.296875 281.75 655.585938 279.820313 650 278 M 833 422 C 826.367188 397.742188 810.210938 377.191406 805.460938 352 C 803 339.042969 806.402344 328 806.960938 315 C 807.167969 310.234375 804.382813 304.371094 805.246094 300.015625 C 806 295.515625 811.652344 293 814.828125 290.113281 C 819.628906 286 822.546875 281.121094 824 275 C 815 277.800781 797.574219 289.359375 795.476563 299 C 794.363281 304.109375 798.515625 308.699219 797.457031 314 C 795.722656 322.6875 789.875 329.777344 790 339 C 790.476563 361 806 381.144531 816.796875 399 C 821.609375 407 825.328125 416.351563 833 422 M 966 277 C 970.796875 285.453125 986.277344 289.433594 994 295.519531 C 1006.824219 305.621094 1013.648438 321.59375 1027 331 C 1025.546875 323 1019.414063 316.382813 1014.628906 310 C 1001 292 989 280 966 277 M 934 287 C 952 301.628906 974.695313 306.460938 989 327 C 973.605469 319 955 318 938 318 L 938 320 C 988.480469 320.140625 1018.582031 367.589844 1041 406 C 1044.617188 397.113281 1033.914063 377.746094 1030.679688 369 C 1017.734375 334 997.753906 311.015625 963 296 C 954.207031 292.199219 943.859375 286 934 287 M 572 291 C 581.59375 302.578125 594.523438 305.527344 601 321 C 585.820313 312.582031 572.722656 308.027344 556 304 C 559.261719 309 566.925781 310.269531 572 313.027344 C 582 318.550781 591.328125 326.175781 596 337 C 583.355469 328.660156 562.179688 321.515625 547 326 L 547 327 C 554 329.40625 561.664063 333 569 334 L 569 335 C 561.566406 334.039063 546.6875 329 542 337 C 550.851563 338.199219 558.335938 343.460938 567 345 L 567 346 L 549 346 C 550.820313 349.722656 553 351.507813 557 353 L 557 354 C 534.933594 349.445313 502.949219 339.546875 487 362 C 494.425781 360.566406 500.527344 355.28125 508 353.503906 C 529.488281 348.390625 554 354.8125 570 370 C 554 370.328125 537.882813 372.316406 522 373.828125 C 513.933594 374.597656 506.636719 374.019531 499 377.519531 C 492.613281 380.445313 487.878906 386.121094 483 391 C 483.90625 385 486.308594 379 488 373 C 473.363281 378 463.675781 399.433594 463 414 C 462.761719 420.382813 465.304688 426.761719 464.660156 433 C 463.359375 445.589844 452.84375 457.203125 471 463 L 471 464 C 465.511719 465.214844 467.355469 468.519531 471 471.472656 C 476 475.609375 482.738281 477.804688 489 479.570313 C 508.660156 485.117188 527 481.011719 547 481 L 547 482 C 542.84375 484.164063 540 487 538 491 C 548.253906 490.105469 558.6875 487.304688 569 486 C 566.234375 490.753906 564.242188 495.640625 563 501 C 570.191406 499.71875 575.675781 494 583 493.199219 C 585.976563 493 591.75 496.085938 594 494.183594 C 597.75 491.160156 598.964844 484.722656 603 481.214844 C 605.289063 479.242188 614.175781 473.296875 616.785156 477.605469 C 618 479.707031 616 483.019531 615.425781 485 C 613 491.175781 611.828125 497.480469 611 504 C 616.914063 499.5625 620 488.074219 625 482 C 636.726563 468 659.484375 458.828125 664 440 C 656.667969 445.605469 651.847656 453.324219 643 457.121094 C 641.597656 457.722656 634.609375 460.695313 634.304688 457.511719 C 633.761719 451.792969 642.859375 443.390625 644 437 C 641 438.089844 631 445.722656 628.171875 443.492188 C 625.757813 441.589844 632.46875 435.324219 633.539063 434 C 640.644531 425.234375 647.628906 415.445313 652 405 C 639.855469 410.679688 633.171875 427 622 435 L 623 428 C 618.980469 429.699219 614.523438 435.15625 610 435.25 C 604.648438 435.367188 608 426.316406 609.351563 424 C 615.183594 413.28125 626.710938 406.699219 631 395 C 624.265625 398.148438 618.484375 402.710938 611 404 L 611 403 C 636.964844 389.53125 643 348.046875 643 322 L 642 322 C 637.394531 346.445313 626.300781 365.328125 610 384 C 612.628906 371.4375 620.332031 361.023438 621.535156 348 C 624.394531 317.050781 602 292.296875 572 291 M 873 378 L 874 378 L 878 367 C 882.695313 378 881.441406 387.652344 880 399 C 877 396.125 874.328125 393.34375 871 391 C 871.75 400.1875 875.542969 409 876.710938 418 C 877 420.738281 877.679688 426.367188 873.851563 427.003906 C 868.5625 428 861.855469 420 857 418 L 862 428 C 847.738281 421.023438 842.515625 407.511719 831 398 C 833 410 842.855469 421.007813 850.4375 430 C 851.683594 431.476563 859 437.714844 857 440 C 853.882813 443.390625 841.925781 433.457031 839 432 C 839.925781 438.179688 842.78125 444.011719 846.523438 449 C 847.75 450.632813 851.683594 454 850.652344 456.355469 C 849.480469 459.078125 844.378906 456.054688 843 455.144531 C 836 450.527344 831.851563 442.828125 825 438 C 826.550781 457 840.519531 478.8125 857 488 C 856.429688 474.527344 867 464.070313 881 472.226563 C 888.296875 476.496094 891.863281 485.195313 894 493 C 896.917969 490.65625 899.386719 487.058594 903 485.757813 C 909.777344 483.320313 917.71875 490.191406 924 492 C 922.53125 488.492188 918 483.054688 918.945313 479.148438 C 919.722656 475.453125 924.371094 476.496094 927 477 C 934.4375 478.125 941.523438 481.347656 949 482 C 946.949219 479.167969 945 477.480469 942 476 L 942 475 C 966.335938 475.015625 1004.609375 485.0625 1021 460 L 1014 460 L 1014 459 C 1032.671875 450.117188 1021.824219 439.773438 1020.339844 425 C 1019.699219 418.625 1022 412.457031 1021 406 C 1018.195313 388.449219 1002.890625 373 986 368 C 989.222656 374.210938 995 378.328125 999 384 C 982 367.460938 962 370 940 369 C 929.640625 368.507813 919.351563 366.445313 909 366 L 909 365 C 916.207031 363 922 358.265625 929 355.453125 C 943.980469 349.332031 962 346.386719 978 350.476563 C 986 352.558594 992.445313 357.742188 1000 361 C 987.832031 335 943.316406 344.601563 922 349 L 922 348 L 927 346 L 927 345 C 922 343.816406 917 344 912 344 L 912 343 C 922.347656 338.695313 932.445313 337.207031 943 334 L 943 333 C 930.515625 333 918.40625 334.46875 906 335 L 906 334 C 915.851563 331.664063 924.820313 327.316406 935 326 L 935 325 C 913.972656 325 895 325.601563 879 341 C 885.351563 321.066406 908.851563 312.117188 926 304 L 926 303 C 905.785156 304.652344 884.277344 316.015625 870 330 C 874.226563 314.554688 886.707031 306.496094 893 293 C 862.429688 303 853 326.652344 853 357 C 853 363.195313 850.675781 375.597656 854.996094 380.621094 C 859.945313 386.386719 870.832031 358 872.894531 374 C 873 375.277344 872.988281 376.675781 873 378 M 1108 294 C 1113.640625 317.742188 1130.816406 340.128906 1139.796875 363 C 1158 409.640625 1170.765625 461 1172.960938 511 C 1174.9375 556.164063 1168.644531 602.351563 1157 646 C 1152.335938 664.101563 1143.640625 681 1138.882813 699 C 1133.546875 719.324219 1133 740.128906 1133 761 L 1134 761 C 1136 757.402344 1138.234375 753.78125 1140 750 L 1141 750 C 1138.773438 778.207031 1137.238281 804.023438 1143.652344 832 C 1152 868.425781 1171 900.816406 1183 936 L 1184 936 C 1184 916.175781 1184 897.246094 1178.574219 878 C 1169.628906 846.65625 1154 816.214844 1154 783 L 1155 783 C 1156 795.578125 1163.203125 808 1168.753906 819 C 1179.742188 841 1192.960938 862.652344 1198 887 L 1199 887 C 1198.925781 860 1185.621094 833.085938 1176.691406 808 C 1170.828125 791.527344 1168.179688 775.230469 1166 758 C 1173.488281 766.785156 1179 777.328125 1183.394531 788 C 1185.3125 792.734375 1186 800.792969 1190 804 C 1182.652344 764.5625 1171.265625 724.46875 1173 684 C 1174.71875 645.652344 1186.28125 608.351563 1187.960938 570 C 1189.40625 537 1184 504.703125 1184 472 L 1185 472 C 1192.988281 491 1203.820313 506.324219 1204 528 L 1206 528 C 1206 494.414063 1202.710938 460 1191.65625 428 C 1188.933594 420.132813 1185.636719 403 1179 398 C 1181.421875 411.007813 1183 423.777344 1183 437 L 1182 437 C 1176.835938 397.003906 1156 361.265625 1134.691406 328 C 1127.476563 316.796875 1120.234375 300.363281 1108 294 M 837 318 C 829.449219 327.523438 819.3125 340.128906 819.585938 353 C 819.757813 361 825.429688 367.816406 829.859375 374 C 841 389.574219 853.546875 405.71875 870 416 C 863.351563 395.136719 841 382.347656 834 361 C 829.375 346.714844 842.339844 330.75 837 318 M 602 321 L 601 322 L 602 321 M 905 335 L 904 336 L 905 335 M 879 341 L 878 342 L 879 341 M 921 349.332031 L 921.332031 349.667969 C 920.839844 349.832031 920.226563 349.332031 921 349.332031 M 558 354 L 557 355 L 558 354 M 997 406 C 977.46875 395 957.507813 375.378906 934 389.351563 C 929.835938 391.828125 926.351563 395.457031 923 399 C 913.558594 409.367188 909.457031 428.191406 895 433 C 901.644531 416.804688 908.675781 397.554688 923 386.527344 C 945.597656 369.140625 986.273438 380.371094 997 406 M 587 439 C 574.515625 433.160156 570 415.160156 561.675781 405 C 558.59375 401.304688 555 397.773438 551 395.105469 C 527 379.230469 509.25 399 489 409 C 501 385.21875 538 374 559.960938 391.042969 C 572.78125 401.132813 581.828125 423.816406 587 439 M 1000 384 L 1002 388 C 1000.371094 386.484375 999.835938 386.144531 1000 384 M 483 391 L 482 392 L 483 391 M 954 403.648438 C 960.714844 401.25 964.894531 412.058594 957.945313 414.148438 C 951.929688 416 948.335938 405.769531 954 403.648438 M 611 404 L 610 405 L 611 404 M 516 408 C 515.253906 413.554688 513.5625 418.410156 515.328125 424 C 520.191406 439.371094 541.320313 438.355469 554 436 C 551.851563 440.367188 548.386719 442.160156 544 444 L 544 445 C 550.816406 443.421875 557 440.023438 564 439 C 549 460.003906 512.679688 466.429688 503 438 C 510.171875 441 516.464844 445 524 447 C 514.460938 437.148438 500.964844 421 516 408 M 544.988281 409.492188 C 552.6875 408 549.90625 418.597656 544 419.625 C 536.628906 421 539.355469 410.601563 544.988281 409.492188 M 982 410 C 982 422.605469 977.832031 430.28125 970 440 L 986 434 C 977 464.101563 933.421875 452.039063 920 433 C 930.84375 435.101563 941 439 952 441 C 947.179688 436.640625 941.753906 434.738281 938 429 C 950.859375 432 964.40625 436 974.316406 424 C 977.808594 419.695313 978.621094 414.1875 982 410 M 891 456 L 890 456 C 890.34375 448.148438 897 434.480469 902 448 C 903.1875 446.8125 903.585938 446.472656 905 446 C 908.273438 455 916.203125 452.511719 923 455.574219 C 938 462.367188 960 468.800781 975 457.46875 C 982.363281 452 985.554688 443.140625 992.210938 437.316406 C 995.914063 434.074219 1006 434.609375 1009.171875 439 C 1010.992188 441.292969 1007.609375 445.105469 1006.253906 447 C 1001.289063 454 995.296875 460.039063 988 464.53125 C 964.585938 479 940.449219 465 916 461.574219 C 910.636719 461 904 461.171875 899 459 C 896.886719 457.800781 896 454.144531 893.914063 453.601563 C 892.292969 453.199219 891.65625 455.003906 891 456 M 578 462 C 579.289063 447.320313 592.945313 445.1875 593 461 C 588.359375 458.722656 579.847656 465.71875 573 466.726563 C 543.214844 471.117188 513.921875 485.613281 489 461 C 485.289063 457.328125 479.75 453.152344 478 448.015625 C 475.992188 441.683594 486.445313 439 490.960938 440.605469 C 495.867188 442.445313 498.261719 449.035156 501 453 C 506 459.648438 511.976563 465.160156 520 467.558594 C 530.351563 470.65625 543.832031 471.050781 554 467.074219 C 560.984375 464.339844 571.710938 456.144531 578 462 M 900 458 C 902.929688 456.40625 904.40625 455 906 452 C 902.894531 453.480469 901.480469 455 900 458 M 1120 452 C 1130.875 485.363281 1140.515625 518.449219 1138.960938 554 C 1137.417969 589.203125 1125.773438 621.097656 1118 655 L 1117 655 C 1117 607.546875 1124 560.414063 1124 513 C 1123.976563 499.589844 1123.308594 485.324219 1121.714844 472 C 1121 466.046875 1117.792969 457.65625 1120 452 M 701 483 C 713.433594 483.007813 723 489.222656 735 491 C 730.503906 475.386719 709.539063 463.003906 701 483 M 607 536 C 624.632813 533 640.855469 516.390625 654 505.273438 C 659.472656 500.644531 665.898438 496.652344 669 490 C 660.816406 492.121094 653 494.324219 646 499 C 652.613281 489.609375 664.777344 485.566406 671 477 C 638.871094 477 615.382813 507 607 536 M 548 480 L 547 481 L 548 480 M 812 481 C 823 496.679688 844 502.6875 856.824219 517 C 858.914063 519.335938 866 531.363281 870 527.339844 C 875.167969 522.320313 866.179688 511.351563 862.960938 508.003906 C 850.742188 495.308594 829.609375 483.601563 812 481 M 391 491 C 391 529.285156 389.167969 568.351563 397.425781 606 C 408.289063 655.535156 431.386719 701.011719 447 749 L 446 749 C 411.59375 690.054688 386 621 386 552 C 386 539.261719 387.84375 526.683594 387.996094 514 C 388 507 386.792969 497.148438 391 491 M 646 499 L 645 500 L 646 499 M 1328 507 C 1330.496094 520.445313 1329.964844 536.539063 1327.714844 550 C 1326.351563 558.152344 1322.8125 566.65625 1323 575 C 1323.410156 582.214844 1329 588.421875 1331.539063 595 C 1333.859375 601.046875 1333.703125 608.503906 1337 614 C 1339.984375 604.183594 1340.972656 592.25 1341 582 L 1342 582 C 1342.476563 587.828125 1343.703125 596.773438 1349 600 L 1348 560 C 1350.839844 562.550781 1353.507813 564.464844 1357 566 C 1353.703125 548.511719 1348.601563 512.78125 1328 507 M 800 515 C 817.675781 515.011719 834.675781 521.140625 849 531.429688 C 855.652344 536.207031 860.726563 543.226563 868 547 C 862.496094 528.292969 841.253906 514.09375 823 510.210938 C 815.535156 508.625 804.167969 507.050781 800 515 M 918 520 L 918 521 C 958.496094 540.277344 980.195313 576.023438 1004 612 C 1007.578125 602.808594 995.9375 587.703125 991.574219 580 C 975.789063 552.121094 953.484375 520.003906 918 520 M 644 554 C 661.261719 547.359375 673.1875 535 693 534 C 689.890625 530 683.6875 531 679 531 C 664.402344 531.070313 648.265625 539.222656 644 554 M 909 532 L 909 533 C 933.496094 549.527344 950.871094 572.597656 963.742188 599 C 971 614.234375 973.664063 637.371094 989 647 C 989 609.40625 971.910156 575.121094 943 551.082031 C 933 543 922 534 909 532 M 795 547 C 798.363281 553.125 807.207031 555.261719 813 558.8125 C 823.554688 565.277344 832.289063 573.289063 841 582 C 833.292969 581.390625 825.703125 579.332031 818 579 C 825.425781 588.121094 841.6875 598.671875 853 602 L 853 603 C 846.738281 601.820313 840.367188 600.273438 834 600 C 838 607.113281 845 611.617188 852 616 C 866.1875 625 883 636.5 900 639 C 895 628.765625 886.535156 620.464844 880.34375 611 C 858.835938 578.117188 838.28125 547.027344 795 547 M 649.667969 560.332031 C 649.222656 560.777344 650.277344 560.722656 650.332031 560.667969 C 650.777344 560.222656 649.722656 560.277344 649.667969 560.332031 M 588 650 C 597.542969 647 604 638.550781 612 632.757813 C 634 616.488281 657 603.15625 664 574 C 654.179688 575.75 645.632813 583.191406 638 589.210938 C 618 605 598.785156 627 588 650 M 552 596 C 535 613 509.691406 635 506 660 C 523.582031 651.242188 535.355469 631.21875 545.203125 615 C 548.496094 609.578125 554.710938 602.660156 552 596 M 676 608 L 677 609 L 676 608 M 825 649 C 814 645.304688 803.804688 638.433594 792 638.128906 C 774.496094 637.675781 757.191406 647.214844 739 647 C 722.289063 646.796875 706.84375 638 690 639.089844 C 679.992188 639.824219 671 645.230469 662 649 C 681.808594 621.476563 722.628906 639.160156 750 638 C 765 637.296875 779.695313 631.527344 795 633.175781 C 805.738281 634.328125 818.644531 640.171875 825 649 M 851 634 C 856.691406 643.675781 870.972656 651.640625 878.960938 660 C 889.890625 671.433594 896.585938 689.523438 911 697 C 905.78125 667.726563 877.851563 642.738281 851 634 M 301 640 L 302 641 L 301 640 M 754 780 C 770.460938 783.394531 782.914063 783.230469 799 778 L 799 777 C 767.871094 775.664063 748.875 760.191406 739 731 C 726.6875 754.097656 716 778.378906 686 779 L 686 780 C 700.417969 786.699219 710.859375 784 726 781 C 725.226563 785.273438 723.320313 788.636719 720.53125 792 C 701.347656 815.023438 671.519531 787.175781 654 774.570313 C 647.460938 770 636.941406 762 636.273438 753.058594 C 635.625 744.5 656 752.476563 660 754 C 668.542969 756.824219 677.773438 762 687 762 C 701.992188 762 715.300781 746.230469 716.824219 732 C 718.589844 715.550781 699.269531 696 683 706.703125 C 673.953125 712.691406 671 725.519531 661 729.773438 C 644.4375 736.703125 639.515625 714.519531 642.476563 703 C 644.273438 696.015625 647.773438 689.175781 651.453125 683 C 657.882813 672.214844 667.871094 659.707031 680 655.128906 C 699 648 726.746094 656 747 656 C 761.609375 656 782.246094 650 796 655.480469 C 813.894531 662.710938 837.730469 690 837.980469 710 C 838 720.414063 829.296875 731.472656 818 725.820313 C 808.695313 721.167969 805.769531 709.4375 797 704 C 781.941406 694.648438 763.1875 711.203125 763.179688 727 C 763.175781 742.488281 778.335938 760.441406 794 761.390625 C 802.933594 762 812 757.558594 820 754.148438 C 824.429688 752.265625 843.464844 742 842.875 752.019531 C 842.183594 763.824219 828.609375 773.113281 820 779.289063 C 801.335938 792.679688 781.726563 810.265625 761 790 C 757.957031 787 755.542969 784 754 780 M 590.996094 663.761719 C 585.203125 665.246094 579.660156 672.484375 578 678 C 576.808594 682.039063 579.433594 686.253906 584 685 C 589.585938 683.464844 594.273438 676.179688 596 671 C 597.328125 667.144531 595.921875 662.5 590.996094 663.761719 M 676 680 C 695.652344 672.429688 713.6875 675.753906 734 676 C 751 676.199219 768 672.269531 785 673.039063 C 791.808594 673.347656 798.269531 676.09375 805 677 C 800.652344 668.5 787.6875 667.007813 779 667.007813 C 752.839844 667.007813 726.25 667.691406 700 668.003906 C 691 668.109375 679.257813 670.621094 676 680 M 573 702 C 576 700.808594 591.816406 691.796875 588.246094 687.628906 C 582.359375 680.746094 573.914063 698.1875 573 702 M 886 687 C 888.371094 697 894.929688 707.175781 901.464844 715 C 903 717 908 723 910.953125 720 C 913.558594 717.375 908.824219 712 907.421875 710 C 901.417969 701.523438 895.507813 692 886 687 M 693 692 C 696.589844 697.140625 707.214844 697.425781 713 699.355469 C 721.410156 702.160156 732 710.214844 741 710 C 747.28125 709.59375 753.355469 705 759 702.425781 C 768.84375 698.21875 779.285156 695 790 694 C 785.816406 688.078125 773 691.34375 767 692.660156 C 757.976563 694.617188 749 698.601563 739.714844 698.101563 C 723.1875 697.21875 710 690 693 692 M 566 727 C 568 725.375 568.894531 724.355469 570 722 L 571 722 C 568 734.554688 555.257813 759.492188 563.9375 771.769531 C 567.628906 777 572.867188 772.078125 575.984375 769 C 583 762 593.625 751.015625 596 741 C 589.363281 742.636719 583.34375 744.398438 577 747 C 583 739.707031 591.53125 734.742188 597 727 C 587.8125 727.808594 580.882813 733.804688 573 738 C 578.351563 721.117188 589 709 596 693 C 580.425781 695.8125 569.414063 712.59375 566 727 M 889 719 C 893.980469 725 903.449219 729.652344 911 731 C 907.839844 721.726563 897.933594 719.183594 889 719 M 571.667969 720.667969 C 571.722656 720.722656 571.777344 721.777344 571.332031 721.332031 C 571.277344 721.277344 571.222656 720.222656 571.667969 720.667969 M 917 757 C 915.222656 747.035156 904.921875 742.324219 912 733 C 906.949219 732.585938 883.503906 725 881.921875 734.011719 C 881.347656 737.28125 887.925781 738.601563 890 739.453125 C 900.183594 743.621094 907.800781 751.269531 917 757 M 577 747 L 576 748 L 577 747 M 872 748 C 882.503906 763 901.1875 766.738281 918 770 C 910.914063 755.46875 886.335938 750.699219 872 748 M 1142 749 L 1141 750 L 1142 749 M 565 793 C 577 786.105469 587.523438 775.515625 597.996094 766.421875 C 600.65625 764.109375 608.222656 757.75 604.214844 753.648438 C 600.671875 750.019531 593.4375 757 591 759.09375 C 581.304688 768 567.433594 779.363281 565 793 M 903 769 C 906.777344 778.535156 913.550781 776.070313 922 776 C 917 771.0625 909.792969 769.296875 903 769 M 923 798 L 923 799 C 913.480469 800.355469 903.554688 795.808594 895 792 C 902 799.074219 916.492188 805.445313 926 808.644531 C 931 810.332031 939.78125 810.636719 943 815.277344 C 948.367188 822.789063 943.675781 834.691406 934 831.300781 C 915.265625 824.738281 896.882813 814.332031 880 804 C 889.730469 817.8125 906 825.066406 921 831.691406 C 924.726563 833.339844 938 835.484375 939 840.019531 C 939.855469 843.609375 920.941406 836.378906 919 835.601563 C 908.851563 831.539063 898.980469 827.277344 890 821 C 880.203125 814.078125 872 805.78125 860 803 C 872.898438 819 888.289063 830 907 838 C 913.675781 841 933.566406 844.722656 936.917969 851.222656 C 939.351563 856 933.898438 858.820313 929.996094 858.03125 C 920.460938 856.105469 911.890625 849.703125 903 846 L 903 847 C 910.617188 850.285156 924.996094 856.488281 930.667969 862.417969 C 934.882813 866.824219 930.246094 875.441406 924.984375 876.667969 C 920.203125 877.78125 914.457031 875.117188 910 873.671875 C 898.429688 870 887.328125 865.394531 876 861 C 880 864.398438 884 867 889 869 L 889 870 C 883.289063 869.015625 878.304688 866.203125 873 864 C 881.996094 872.605469 892.316406 877.398438 904 881.332031 C 907.476563 882.503906 917 884 918.746094 887.511719 C 920.375 891.027344 915 895.769531 913 898 C 919 894.550781 924.199219 888.601563 931 886.636719 C 937.6875 884.703125 945.179688 887 952 887 L 952 886 C 947.964844 886 940.71875 886 937.648438 883 C 933.726563 879 942.871094 870.585938 946 869.027344 C 949.898438 867.089844 954.863281 868.820313 959 869 L 959 868 L 948 866 C 951.492188 856 967 848 976 857.515625 C 980.175781 861.742188 981.644531 870.515625 983.277344 876 C 990 898.613281 989 930.113281 968 945 C 970.285156 939.109375 984.25 915.78125 972.980469 913.527344 C 957.234375 910.375 945.507813 940.054688 936.960938 949 C 916.484375 970.417969 874.449219 979.339844 852 955 C 846 948.363281 846.328125 940 843 932 C 842.308594 935 842.480469 941.261719 839.527344 942.824219 C 834.457031 945.507813 829.902344 930.164063 829 927 L 828 927 L 828 934 C 809.316406 920.730469 795.910156 901.074219 776 888.4375 C 773.507813 887 770.1875 884.273438 767 884.542969 C 760.292969 885.121094 757.5 893.363281 750.996094 884 C 743.957031 873.65625 749 857.28125 750 846 L 751 846 C 752.355469 861.523438 763.816406 872.714844 776 881 C 775.703125 878.667969 775.246094 876.34375 775 874 C 774.542969 866 778.5625 863.394531 785 869.109375 C 792.53125 875.796875 798 885 806 891 C 803.425781 884.28125 800 877.125 799 870 C 822.234375 879.722656 832.371094 898 843 919 C 851.691406 882.492188 807.328125 863 790 838 C 804.179688 840.527344 815.679688 853.628906 826 862.714844 C 855.339844 888.542969 879.300781 918.808594 922 910 L 922 909 C 886.4375 910.527344 866 890.03125 842 866 C 833.777344 857.777344 823.71875 850.535156 817 841 C 829.921875 843 840.960938 851.035156 850 860 C 849.984375 838.15625 834.167969 818.109375 813 812 L 813 811 C 830.480469 811.003906 835.269531 818.175781 848 828 C 844.910156 821.035156 843 813.820313 837.816406 808.039063 C 835.25 805.253906 827.214844 801.679688 826.632813 797.820313 C 825.835938 792.570313 838.59375 786.679688 842 784 C 867.898438 762.367188 896.171875 791.789063 923 798 M 567 801 C 578.601563 800.5 590.1875 796 601 792 C 602.871094 791.261719 610.792969 789.46875 610.792969 787 C 610.792969 782.585938 600.578125 783 598 783.175781 C 586.496094 784.390625 573.65625 791.628906 567 801 M 613 786 L 613 787 L 616 787 C 614.753906 786.316406 614.453125 786.25 613 786 M 921 804 C 925.964844 802 932.847656 803.722656 937.996094 804.808594 C 939.207031 805.0625 944.644531 806.105469 942.824219 808.488281 C 940.199219 812 924.90625 804.578125 921 804 M 578 821 L 578 822 C 591.398438 822 604.589844 818 617 813.1875 C 621.507813 811.449219 627.253906 810.15625 630 806 C 611.65625 806.378906 593.78125 811.789063 578 821 M 964.324219 808.601563 C 968 806.714844 987 811.132813 980.523438 815.820313 C 975.65625 819.296875 957.613281 812 964.324219 808.601563 M 1077 809 C 1075 819.546875 1074.410156 829.800781 1070.574219 840 C 1063 859.765625 1050 875.785156 1040 894 C 1051.859375 885.640625 1058 871.402344 1070 863 C 1068 908 1031.261719 948 1013 987 C 1035.609375 961.101563 1054 931.609375 1067.574219 900 C 1075.507813 881.457031 1079.464844 861.25 1088 843 C 1094 852.59375 1092.238281 866.304688 1091.167969 877 C 1088.234375 906.355469 1077.925781 935 1066.28125 962 C 1061.988281 972 1057.390625 986 1049 993 L 1048 978 C 1040.480469 986.523438 1037.210938 1001.796875 1031.691406 1012 C 1024.792969 1024.753906 1017.761719 1037.636719 1010.1875 1050 C 1005.613281 1057.472656 999.484375 1064.40625 997 1073 C 995.363281 1079.625 996.996094 1086.246094 997 1093 C 963 1079.625 956.339844 1044.105469 935 1019 C 939.730469 1043.386719 949.824219 1064.320313 966.285156 1083 C 973.765625 1091.484375 984 1097.597656 990.605469 1107 C 993.886719 1111.78125 994.824219 1131.160156 989.257813 1135 C 986.605469 1136.703125 982.863281 1133.257813 981 1131.695313 C 974.933594 1126.609375 969.820313 1120.363281 965 1114 C 945.9375 1087.796875 932.621094 1050.675781 907 1030 C 920 1059.609375 934.441406 1091.109375 952.746094 1118 C 957.867188 1125.523438 964 1132.550781 971 1138.410156 C 974.890625 1141.6875 981.574219 1145.027344 983.394531 1150.015625 C 986.425781 1158.332031 976 1175.8125 973.332031 1184 C 972.703125 1186 971.269531 1193.792969 968.660156 1193.792969 C 963.648438 1193.792969 957.625 1179.691406 955.398438 1176 C 944 1157.375 933 1136.789063 918 1121 C 928 1147.191406 950.234375 1173.316406 955 1201 C 942.210938 1192 933 1177.742188 921 1167.589844 C 914.234375 1162 903.96875 1156.710938 901 1148 L 917 1147 C 904.800781 1129.679688 891.894531 1116.636719 884.695313 1096 C 883.644531 1093 881.695313 1078.054688 877.828125 1078.054688 C 872.558594 1078.054688 871.925781 1091.53125 872 1095 C 872.734375 1115.585938 891.570313 1124.75 900 1141 C 892.921875 1138.691406 886.570313 1135.457031 880 1132 C 881.824219 1139.054688 882.703125 1147.421875 888.214844 1152.773438 C 892.785156 1157.214844 899.238281 1158.09375 903.828125 1163.015625 C 926.214844 1187.019531 956.496094 1217 958 1252 C 938.964844 1242.28125 926.675781 1222.628906 906 1215 C 916.882813 1228.5 932.699219 1243.117188 935.675781 1261 C 936.875 1268.214844 934.566406 1275.804688 934 1283 C 925.714844 1278.207031 920.496094 1269.800781 913.960938 1263 C 901.328125 1250 886 1235.128906 869 1228 C 884 1252.5625 913.53125 1276.15625 918 1306 C 885.464844 1295.394531 866 1266.769531 850.304688 1238 C 841.867188 1222.632813 835.292969 1204 821 1193 C 831.828125 1226.28125 844.367188 1258.683594 868.171875 1285 C 878.339844 1296.242188 889.558594 1307 901 1316.820313 C 906.46875 1321.566406 914.507813 1325.222656 917.816406 1332 C 920.316406 1337.121094 912.46875 1361.125 905.996094 1358.535156 C 901.476563 1356.726563 898.171875 1350.480469 895 1347 C 886.265625 1337.410156 878 1327.265625 869 1318 C 874.6875 1335.480469 882.675781 1360.273438 874 1378 C 865.71875 1368.503906 859.636719 1357.324219 850.910156 1348 C 836.410156 1332.511719 818 1321.011719 799 1312 C 807.367188 1324.664063 815.789063 1338 824.894531 1350 C 829.988281 1356.800781 837.335938 1363.398438 839 1372 C 829 1369.449219 820.371094 1365.691406 812 1359.789063 C 807.605469 1356.691406 803.324219 1350.703125 798 1349.3125 C 792.191406 1347.796875 786.671875 1355.589844 781 1356.660156 C 771.324219 1358.480469 761 1352.675781 753 1348 C 756.835938 1344.28125 761.289063 1341.273438 764.605469 1337 C 766.789063 1334.1875 767.648438 1330 770.417969 1327.605469 C 773.328125 1325.226563 780 1328.652344 781.441406 1324.757813 C 784.304688 1316.679688 769.449219 1303 764 1299 C 768.714844 1305.585938 773.730469 1312.117188 776 1320 C 762.285156 1318.316406 762.414063 1337.628906 750 1343.597656 C 736.664063 1350.007813 721.46875 1341.8125 708 1340 C 719 1326.472656 734.457031 1317.664063 745 1303 C 716.585938 1314.828125 689.753906 1329.738281 658 1330 L 658 1329 C 678.527344 1320.410156 693.816406 1299.667969 703 1280 C 691.539063 1286.53125 681.894531 1295.78125 670 1301.730469 C 650.789063 1311.335938 630 1313 609 1313 L 609 1312 C 639.667969 1299.417969 670 1273.039063 683 1242 C 651.734375 1267.203125 615.492188 1298 573 1298 L 573 1297 C 601.78125 1290.339844 631.644531 1264.578125 647 1240 C 618.703125 1258.722656 586.746094 1279.699219 552 1282 C 543.964844 1282.421875 535.90625 1280.019531 528 1279 L 528 1278 C 543 1273.722656 557.234375 1268.027344 572 1263 L 572 1262 C 551 1264.640625 533 1264 514 1254 L 514 1253 C 528.675781 1249.605469 542.171875 1243.605469 553 1233 C 544 1235.515625 535.25 1236 526 1236 L 526 1235 C 536.777344 1232 547.722656 1223.382813 555 1215 L 531 1217 L 531 1216 C 553.96875 1200.507813 578.664063 1188.078125 598.996094 1169 C 631.511719 1138.257813 653.933594 1089.15625 651.960938 1044 C 651 1023.132813 644.949219 1003.367188 641 983 C 649.472656 983 669.898438 982.105469 676.566406 987.742188 C 680.730469 991.261719 679.777344 999.148438 680.425781 1004 C 682.464844 1019.316406 683 1034.554688 683 1050 C 683 1095.707031 670.664063 1140.460938 649.742188 1181 C 642.273438 1195.46875 632.503906 1208.222656 624 1222 C 658.171875 1192.238281 674.65625 1153.566406 701.375 1118 C 714.824219 1100.09375 733.371094 1080.363281 756 1075 C 747.921875 1088 736.3125 1098.566406 727.425781 1111 C 711.742188 1133 698.328125 1156.507813 685 1180 C 678 1192.484375 669.347656 1205 666 1219 L 667 1219 C 671.191406 1206.703125 680 1196.480469 687.574219 1186 C 702.800781 1164.480469 718.246094 1143 739 1126.199219 C 749.472656 1117.804688 761 1108.640625 775 1108 C 748.699219 1147.800781 713.464844 1182.167969 693 1226 L 694 1226 C 699 1216 708 1207 715 1198 C 732.382813 1176 753.484375 1146.214844 782 1138 C 770.308594 1178.585938 730.578125 1206.394531 713 1244 C 736 1221 760.976563 1181.53125 794 1172 C 792 1185.046875 778.832031 1203.6875 782.984375 1217 C 785.417969 1224.804688 795.40625 1229.699219 801 1235.039063 C 813.886719 1247.339844 831.773438 1263.140625 840 1279 L 841 1279 C 836.867188 1264.660156 825.796875 1250.738281 816.871094 1239 C 813 1234 805 1227.648438 804.289063 1221.042969 C 803.699219 1216 811.769531 1215 811.851563 1209 C 811.992188 1199 807 1188.175781 806.171875 1178 C 804.5625 1161.105469 805.535156 1143 807.171875 1126 C 812.230469 1074 832 1025.089844 832 972 C 849 977.574219 864.921875 988.355469 883 990.710938 C 922.53125 996 971.71875 972 993.304688 939 C 1000 928.652344 1005.605469 916.445313 1006.828125 904 C 1007.449219 897.691406 1003.207031 889.003906 1005.746094 883.214844 C 1008.378906 877.210938 1022.835938 873 1028 868 C 1019.648438 870.160156 1010.636719 871.820313 1002 872 C 1007 866.550781 1014.699219 864.144531 1021 860.394531 C 1031.316406 854.257813 1041 847 1050 838.828125 C 1058.960938 830.738281 1066.527344 814.117188 1077 809 M 524 812 C 526.859375 820.785156 534.207031 834.414063 526 842 C 525.601563 832.730469 520.269531 821 524 812 M 964.226563 817.601563 C 976.328125 812.152344 980.929688 821.476563 978.476563 831 C 977.636719 834.269531 977.464844 839 973.855469 840.394531 C 959.363281 846.429688 954.988281 821.765625 964.226563 817.601563 M 960.242188 843.601563 C 964.691406 841.546875 981.828125 846.390625 974 851.800781 C 970 854.625 952.453125 847.203125 960.242188 843.601563 M 322 930 L 323 930 C 323.304688 923 325.441406 916.066406 326 909 L 327 909 C 327 916.136719 328 923.132813 330 930 L 331 930 L 331 903 L 332 903 C 332 905 333.40625 920.789063 335.714844 920.078125 C 338.34375 919.265625 337 907.371094 337.285156 905 C 339.269531 888.230469 343.988281 870.828125 344 854 C 337.730469 857.4375 334.300781 866.636719 331.578125 873 C 323.574219 891.703125 322 910 322 930 M 633.332031 855.667969 C 633.277344 855.722656 633.222656 856.777344 633.667969 856.332031 C 633.722656 856.277344 633.777344 855.222656 633.332031 855.667969 M 630 859 C 631.636719 858.453125 631.453125 858.636719 632 857 C 630.363281 857.546875 630.546875 857.363281 630 859 M 873 859 L 874 860 L 873 859 M 875 860 L 876 861 L 875 860 M 453 864 L 453 865 L 442 865 C 445.433594 863.558594 449.300781 864 453 864 M 637 864 L 638 865 L 637 864 M 532.984375 866.386719 C 539.554688 865.789063 545.210938 882.824219 542.882813 888 C 540.523438 893.148438 520.832031 901.4375 515 901.527344 C 509.648438 901.609375 512.683594 891.066406 513.261719 888 C 515 878 521.6875 867.414063 532.984375 866.386719 M 1112 873 C 1118.894531 927.253906 1094 976.203125 1082.425781 1028 C 1079.554688 1040.816406 1079.5 1054.734375 1074.546875 1067 C 1070.65625 1076.636719 1063.71875 1084.402344 1058 1093 C 1053.617188 1099.804688 1050.667969 1108.050781 1044 1113 C 1043.894531 1100.21875 1040 1087.828125 1040 1075 C 1030.324219 1082.1875 1032 1093.371094 1030.574219 1104 C 1028 1122.777344 1025.195313 1150.574219 1009 1163 C 996.964844 1131 1012.785156 1090.667969 1024.988281 1061 C 1029 1051 1031 1037.007813 1040 1030 C 1040 1042.648438 1045.453125 1054.488281 1046 1067 L 1048 1067 C 1048 1051 1054.976563 1035.070313 1060 1020 C 1070 989.6875 1082 960.132813 1092.65625 930 C 1097 917.332031 1102 905 1105.972656 892 C 1107.898438 885.78125 1108 878.308594 1112 873 M 545 891 L 544 892 L 545 891 M 543 892 L 543 893 L 539 894 L 539 895 C 553.402344 893.488281 549.417969 904 538 906.339844 C 533.441406 907.328125 516.636719 911.816406 513 908.015625 C 509.367188 904.03125 525.839844 900.320313 528 900 L 528 899 L 524 899 C 529.59375 896 536.859375 893.753906 543 892 M 1039 894 C 1037.964844 895.1875 1037.660156 895.601563 1037 897 C 1038.820313 896.136719 1039.386719 896 1039 894 M 537.667969 895.332031 C 537.222656 895.777344 538.277344 895.722656 538.332031 895.667969 C 538.777344 895.222656 537.722656 895.277344 537.667969 895.332031 M 528.667969 898.332031 C 528.222656 898.777344 529.277344 898.722656 529.332031 898.667969 C 529.777344 898.222656 528.722656 898.277344 528.667969 898.332031 M 577 898 L 576 899 L 577 898 M 575 899 L 574 900 L 575 899 M 573 900 L 572 901 L 573 900 M 571 901 L 570 902 L 571 901 M 568 902.332031 L 568.332031 902.667969 C 567.839844 902.832031 567.226563 902.332031 568 902.332031 M 566 903 L 565 904 L 566 903 M 563 904.332031 L 563.332031 904.667969 C 562.839844 904.832031 562.226563 904.332031 563 904.332031 M 561 905 L 560 906 L 561 905 M 558 906 L 557 907 L 558 906 M 555 907 L 554 908 L 555 907 M 404 915 C 414.769531 961.550781 459.378906 1007 509 1007 L 509 1008 C 501.632813 1009 494.441406 1010 487 1010 C 501.492188 1023.007813 520.871094 1018.816406 538 1014 L 538 1015 C 519 1024 500.648438 1026 480 1026 C 505.824219 1047.164063 540.890625 1025.003906 568 1021 C 555.710938 1040.648438 530.664063 1053.066406 510 1062 C 502.433594 1065.273438 495.363281 1069.316406 487 1070 L 487 1072 C 510.921875 1069 533.410156 1060.230469 554 1047.796875 C 568.65625 1039 581.941406 1026 599 1022 C 595.605469 1030.828125 587.628906 1037.519531 581 1044 C 562.957031 1061.585938 541.546875 1076.558594 519 1087.753906 C 510.316406 1092.0625 497 1093.703125 490 1100 C 506.214844 1095.160156 522 1093.484375 538 1086.574219 C 551.246094 1080.8125 563.363281 1070.316406 577 1066 C 567 1089.074219 542.707031 1110.347656 523 1125.105469 C 515.539063 1130.691406 505.472656 1134.457031 499 1141 C 512.179688 1135 525.621094 1129.785156 538 1122 C 571.488281 1100.734375 592.945313 1071.160156 608 1035 L 609 1035 C 608 1081.335938 576.972656 1114.773438 554 1152 C 588.574219 1128.359375 610.277344 1092.761719 626 1055 L 627 1055 C 643.539063 1099.375 607.609375 1149.484375 577 1178.089844 C 568 1186.367188 555.53125 1200.199219 544 1204.398438 C 534.179688 1208 515.628906 1203.046875 506 1200 C 512.429688 1196 520.355469 1194.777344 527 1191 C 511.917969 1186.09375 496.183594 1184.429688 482 1177 L 482 1176 C 494 1174.449219 503.308594 1169.054688 514 1164 L 514 1163 C 499.808594 1162.390625 486.191406 1158 473 1153 C 470.441406 1152 459.835938 1149.566406 461.347656 1145.375 C 462.320313 1142.667969 467.652344 1141.726563 470 1140.796875 C 476.664063 1138.152344 482.542969 1134.652344 488 1130 C 471.761719 1133.015625 450.273438 1130.453125 440 1116 C 447.359375 1117.730469 454 1115.269531 461 1113 C 449.453125 1102.46875 433 1098 426 1083 C 438.355469 1085.296875 451.433594 1087 464 1087 C 444.925781 1068.757813 420.863281 1056.074219 409 1031 C 417.179688 1034.574219 423.210938 1041.410156 431 1045.6875 C 439.609375 1050.414063 449.359375 1052.398438 458 1057 C 450.992188 1047.050781 440.34375 1040.800781 432.171875 1032 C 416.429688 1015.007813 403.441406 995 396 973 C 403.378906 978.199219 408.730469 985.597656 415 992 C 409.773438 973.582031 405.453125 955.128906 403.914063 936 C 403.386719 929.4375 401.375 921.257813 404 915 M 771 954 C 761.980469 957.757813 754 964.121094 744 965 L 746 958 C 733.789063 966.054688 718.261719 970.5625 704 965.289063 C 688.746094 959.648438 677.425781 948.152344 692 935.183594 C 711.5 918 747.476563 914.164063 771 924.664063 C 777.453125 927.546875 797.941406 942 793.867188 951 C 791 957 766.308594 969 771 954 M 732 955 C 742.628906 953.429688 754.390625 946 759 936 L 760 936 C 760 940.4375 760.1875 944.632813 761 949 C 764.507813 946.292969 775.90625 932.492188 770.394531 928.027344 C 767.65625 925.8125 761.292969 927 758 927 C 746.183594 927 733.71875 926 722 927.425781 C 718.710938 928 706.933594 927.371094 705.332031 931 C 703.984375 933.789063 715.917969 950.433594 719 951.183594 C 726.3125 953 738.636719 938.746094 732 955 M 557 933 C 562.191406 957.8125 596.976563 973.03125 611 946 C 598.441406 948.589844 587 951.050781 575 945 C 568.535156 941.546875 563.660156 935.820313 557 933 M 368 972 C 365.480469 976.289063 358 979 357.175781 984.023438 C 356.179688 990.011719 375.46875 998.21875 380 1001 L 380 1002 C 371 1002 360.566406 1003.53125 352 1001 C 360.296875 1009.050781 373.632813 1009.019531 381 1019 C 374.621094 1019 368.347656 1017.5 362 1017 C 372.507813 1027.621094 387 1032.382813 394 1047 L 380 1046 C 388.316406 1053.652344 398.414063 1059.652344 405 1069 C 401.953125 1068.550781 395.238281 1065.167969 392.542969 1067.121094 C 389.390625 1069.402344 395.195313 1075.265625 396.617188 1077 C 403.546875 1085.460938 412.957031 1092.121094 418 1102 C 412.335938 1100.390625 406.816406 1098 401 1097 C 409.296875 1107.753906 419.820313 1117.519531 427 1129 C 420.175781 1127.738281 412.691406 1130.148438 419.394531 1137.816406 C 425.347656 1144.621094 435.242188 1146.054688 441 1153 C 438.984375 1153 437 1152.488281 434.996094 1152.300781 C 432.636719 1152.078125 423.769531 1153.171875 428.296875 1157.023438 C 434.433594 1162.25 445.613281 1166.550781 453 1170 L 453 1171 L 440 1172 C 446.882813 1181 459.53125 1183.613281 469 1189 L 469 1190 C 466.289063 1191.148438 463.933594 1191.746094 461 1192 C 468 1200.636719 480.285156 1202.671875 487 1212 C 484.964844 1212.089844 483 1212.222656 480.996094 1212.621094 C 463.300781 1216.125 488.183594 1225.769531 489 1231.828125 C 489.59375 1235.304688 483.851563 1236.199219 483.953125 1240.042969 C 484 1246.644531 487.980469 1253 488 1260 C 480.671875 1257.570313 475 1251.523438 469 1247 C 455 1236.15625 441 1227.304688 441 1208 C 437.875 1211.589844 437.371094 1216.347656 437 1221 C 416.878906 1210.710938 433.363281 1188.183594 442 1178 C 432 1182 426.476563 1187.789063 423 1198 L 422 1198 C 421.3125 1189.605469 418.667969 1181.449219 418 1173 L 417 1173 C 413.257813 1183.039063 415.632813 1190 417 1200 C 400.632813 1188.4375 391.453125 1165.554688 380.945313 1149 C 360.34375 1116.53125 337.632813 1084.417969 326.859375 1047 C 323.785156 1036.328125 317.476563 1023.328125 320 1012 C 322.59375 1001 337.246094 987.457031 346 980.679688 C 352.703125 975.492188 360 974 368 972 M 1010 990 C 1011.3125 989.230469 1011.230469 989.3125 1012 988 C 1010.363281 988.546875 1010.546875 988.363281 1010 990 M 854 1000 C 840.804688 1022 845.949219 1046 849 1070 L 848 1070 C 846.980469 1063.101563 844.269531 1056.136719 841 1050 L 840 1050 C 840 1058.609375 841.382813 1068.554688 839.65625 1077 C 838.617188 1082.078125 832.960938 1085.601563 833.640625 1091 C 834.855469 1100.644531 843 1112.078125 847 1121 C 856.761719 1142.601563 867.816406 1163.734375 880 1184 C 885 1192.546875 890.261719 1203.605469 898 1210 C 897 1198.53125 891.769531 1188.398438 887.28125 1178 C 879 1159.066406 869.726563 1140.554688 860.742188 1122 C 855.964844 1112.132813 849.503906 1103.105469 848 1092 C 851.738281 1095.738281 855.171875 1099.746094 860 1102 C 855.335938 1077 858.585938 1050.398438 856.171875 1025 C 855.40625 1017 859.339844 1006.78125 854 1000 M 565 1242 C 576 1238.792969 585.34375 1229.71875 594 1222.410156 C 617.492188 1202.582031 637.96875 1178.816406 649.398438 1150 C 653.335938 1140.078125 657.363281 1127.820313 656.789063 1117 C 656.660156 1114.507813 656.394531 1107.574219 653.699219 1106.347656 C 651.265625 1105.238281 648.832031 1111.539063 648 1113 C 643.378906 1121.121094 639.425781 1129.644531 635.246094 1138 C 623 1162.433594 610 1186.089844 593.625 1208 C 584.800781 1219.765625 572.765625 1229.589844 565 1242 M 553 1152 L 554 1153 L 553 1152 M 665 1219 L 666 1220 L 665 1219 M 970 1225 L 969 1226 L 970 1225 M 691.332031 1227.667969 C 691.277344 1227.722656 691.222656 1228.777344 691.667969 1228.332031 C 691.722656 1228.277344 691.777344 1227.222656 691.332031 1227.667969 M 712 1244 L 713 1245 L 712 1244 M 710 1246 L 708 1250 C 709.628906 1248.484375 710 1248.144531 710 1246 M 842 1280 L 843 1281 L 842 1280 M 763 1298 L 764 1299 L 763 1298 "/>
</g>
</svg>
