<?xml version="1.0" encoding="UTF-8"?>
<svg xmlns="http://www.w3.org/2000/svg" xmlns:xlink="http://www.w3.org/1999/xlink" width="1500pt" height="1500pt" viewBox="0 0 1500 1500" version="1.1">
<g id="surface1">
<path style=" stroke:none;fill-rule:nonzero;fill:rgb(0%,0%,0%);fill-opacity:1;" d="M 360 952 C 369 949.542969 387.347656 940.703125 395.773438 948.316406 C 401.742188 953.707031 401.425781 965.683594 403.589844 973 C 408.171875 988.480469 415.636719 1003 423.308594 1017 C 438.808594 1045.523438 461.847656 1069.238281 478.601563 1097 C 487.359375 1111.511719 489.664063 1116 484.359375 1132 C 483.21875 1135.460938 482.949219 1139.800781 480.347656 1142.566406 C 474.992188 1148.257813 460.285156 1148.75 453 1153 L 453 1154 C 460.617188 1152.644531 468.941406 1146.339844 476.984375 1148.320313 C 481.246094 1149.371094 485.347656 1155.683594 481.59375 1159.4375 C 478.445313 1162.578125 472 1162.203125 468 1163.519531 C 459.695313 1166.222656 452 1170.8125 447 1178 C 456.90625 1174.375 476.191406 1157.792969 486.957031 1166.316406 C 500.296875 1177 492 1185.339844 492 1198 C 492 1203.746094 496.410156 1208.230469 496.226563 1214 C 495.734375 1229.039063 488.84375 1243.457031 489 1259 C 489 1273 493.886719 1286.484375 506 1294.300781 C 512.402344 1298.429688 521.5625 1299.824219 526.351563 1306.09375 C 531 1312.300781 531 1321.738281 533.34375 1329 C 539.941406 1349.667969 552.421875 1376.453125 576 1381.480469 C 594.625 1385.457031 611.351563 1372.023438 622.816406 1359 C 627.722656 1353.425781 631.980469 1343.679688 640 1342.226563 C 647.585938 1341 655.25 1344 663 1342.332031 C 670.246094 1340.785156 676.621094 1334.15625 684 1334.265625 C 692 1334.378906 700 1338.285156 708 1339.5625 C 723.332031 1342.03125 739.488281 1343.179688 755 1343 C 767.503906 1343 780.726563 1341.484375 793 1339 C 799.421875 1337.695313 806.464844 1334.179688 813 1334.1875 C 820.507813 1334.195313 826 1340.226563 833 1342.210938 C 839.386719 1344.046875 844.738281 1341.429688 851 1341.226563 C 860 1341 865.914063 1353.179688 871.171875 1359 C 884.382813 1373.628906 904.480469 1389.265625 925 1379.007813 C 943.328125 1370 954 1347.28125 960.9375 1329 C 963.527344 1322.160156 964.398438 1314.035156 968.800781 1308.039063 C 974.472656 1300.316406 984.648438 1298 991.960938 1292.238281 C 1000 1285.828125 1003.535156 1274.035156 1003.960938 1264 C 1004.691406 1246.652344 997 1230.789063 996.21875 1214 C 995.9375 1208.398438 999.816406 1203.644531 999.945313 1198 C 1000.199219 1187 996.34375 1176.308594 1006.339844 1167.570313 C 1016.789063 1158.433594 1037.347656 1175 1047 1179 C 1040.972656 1166.628906 1021.753906 1161.261719 1009 1161 C 1010.207031 1157.464844 1010.652344 1153.070313 1013.417969 1150.316406 C 1019.210938 1144.554688 1032.636719 1152 1039 1154 C 1033.777344 1146.035156 1022.453125 1148.71875 1015 1144.683594 C 1010.40625 1142.097656 1004.242188 1122.363281 1004.515625 1117 C 1005 1105.660156 1018.511719 1091.136719 1024.671875 1082 C 1043.339844 1054.308594 1064.808594 1029.097656 1079.753906 999 C 1084.9375 988.554688 1089 977.238281 1092.253906 966 C 1093.753906 960.589844 1093.585938 952.707031 1097.652344 948.433594 C 1104.777344 941 1123.542969 948.757813 1132 950 C 1126.472656 943.550781 1117.933594 943.226563 1110 942.285156 C 1106.636719 942 1101.359375 943 1099.179688 939.683594 C 1095.8125 934.632813 1099.632813 924.511719 1100.421875 919 C 1102.308594 905.8125 1101 891.203125 1099.828125 878 C 1097.292969 851.332031 1088.574219 822.832031 1091.171875 796 C 1092.664063 780.539063 1101.382813 767.246094 1103.570313 752 C 1105.246094 740.347656 1102.535156 728.460938 1106.222656 717 C 1109.683594 706.25 1121.175781 701.585938 1124.890625 691 C 1128.480469 680.773438 1124.203125 668.566406 1129.277344 659 C 1132.769531 652.414063 1139.921875 649 1144.210938 643 C 1153.296875 630.398438 1158.414063 618.316406 1170 607.015625 C 1179.328125 598 1192 591 1196.640625 578 C 1211 536.066406 1188.800781 499.292969 1189 458 C 1189 431.464844 1199 404.714844 1200.910156 378 C 1203.621094 338.4375 1194.441406 299.804688 1188.425781 261 C 1182.351563 222 1178.636719 181.414063 1157.183594 147 C 1153.363281 141 1148.617188 135.039063 1143 130.46875 C 1107.21875 101.34375 1069.472656 131 1048 162 C 1008.523438 219.179688 973.710938 278.488281 938 338 C 928 354.550781 920.984375 376.539063 908.558594 391 C 896.683594 404.792969 884.410156 407.40625 868 412 C 863.183594 413.253906 858.929688 416.785156 854 417.566406 C 844 419.140625 832.179688 409.457031 821 410.09375 C 811 410.65625 803.269531 418.652344 794 418.800781 C 787.988281 419 782 415.164063 776 414.441406 C 767.449219 413.425781 758.625 416.347656 750 416 C 742.589844 415.628906 735.457031 411.742188 728 412.214844 C 718.992188 412.78125 711.773438 420.550781 703 420.707031 C 694.425781 421 686.464844 412.457031 677 412.039063 C 665 411.511719 655.222656 418 644 418.484375 C 638.53125 418.746094 633.925781 414.300781 629 412.550781 C 614.402344 407.355469 605.515625 407.601563 594.171875 395 C 561.464844 358.660156 538.789063 314.371094 515 272 C 498.535156 242.253906 480 213.621094 461.691406 185 C 443.714844 157.085938 420.265625 117.316406 382 118.054688 C 354.496094 118.585938 338.4375 141.425781 327.78125 164 C 313 195.089844 310.554688 230.570313 304.917969 264 C 300.414063 290.71875 293 317.769531 293 345 C 292.898438 366.003906 292.441406 387.246094 296 408 C 299.246094 426.007813 306.765625 443.410156 305.960938 462 C 304.261719 501.109375 283.726563 534.828125 296.207031 575 C 301.558594 592.230469 317.664063 599.695313 329.910156 611.285156 C 339 620 341.554688 632.128906 348.636719 642 C 353 648.109375 360.589844 651.414063 364.234375 658.015625 C 369.992188 668.441406 364.585938 681.148438 368.980469 692 C 373 702.117188 384.238281 706.488281 387.894531 717 C 391.941406 728.640625 388.566406 741.109375 390.4375 753 C 392.9375 769 401.796875 782.742188 402.910156 799 C 404.65625 824.449219 396.574219 850.738281 394.171875 876 C 392.820313 890.1875 391.808594 905.769531 393.171875 920 C 393.65625 925.109375 397.523438 935.070313 394.78125 939.695313 C 392.570313 943.425781 385.699219 942.445313 382 943 C 373.589844 943.769531 365.339844 944.8125 360 952 M 391 651 L 390 651 C 391 627.203125 407.574219 608.273438 419.574219 589 C 430 572.054688 436.335938 553 447 536 C 458.40625 518.164063 474 503.414063 484.574219 485 C 505 449.175781 505 407 500.835938 367 C 493.453125 298.113281 463.78125 230.703125 421.765625 176 C 416.195313 168.746094 410 162.066406 403 156.3125 C 399.664063 153.613281 395.988281 151.101563 392 149.476563 C 355.355469 134.515625 342 191.585938 342 217 L 343 217 C 345.382813 207.003906 346.269531 197.644531 350.429688 188 C 361.671875 162 382.371094 157 402.910156 176.285156 C 421.5625 194 433.652344 220.050781 441.667969 244 C 455.363281 285 472 329.171875 466.714844 373 C 464.398438 392.101563 461.359375 411.6875 455.328125 430 C 452.21875 439.453125 444.253906 449 443.753906 459 C 442.84375 477.183594 454.84375 496.132813 455 515 L 454 515 C 443.664063 490.171875 426.277344 461.691406 404 446 C 418 465.355469 430.652344 486 434 510 C 435 518.15625 436.441406 528.597656 432 536 C 419.503906 514.585938 409.183594 491.714844 397 470 C 387 452 374.410156 433.664063 368 414 C 365.921875 427 378 441.714844 383 453 C 394.257813 478 404.324219 503.714844 411.859375 530 C 414.90625 540.640625 419.921875 553.609375 417.851563 565 C 416.9375 569.820313 398.6875 569.578125 394 570.425781 C 379.921875 573 366.347656 574.59375 352 574 C 345 573.652344 338 570.761719 331 571.144531 C 323.640625 571.546875 313 583 308 573 C 303.171875 563.113281 300.371094 543.070313 308.394531 534.210938 C 317.511719 524.140625 328.898438 519 337 507 C 340 502.769531 344.191406 497.476563 343.378906 492 C 341.972656 482.566406 331.988281 475 327.203125 467 C 319.203125 454 314.414063 439 310.882813 424 C 295.527344 359.210938 309.898438 291.15625 322.195313 227 C 327.777344 198 333.679688 164.683594 356 143.175781 C 359.289063 140.101563 363 137.414063 367 135.324219 C 394.9375 120.378906 415.6875 151.664063 434 167.574219 C 452.800781 184 462 207.699219 473.859375 229 C 490 258.140625 508.820313 285.738281 526.425781 314 C 537.863281 332.367188 553.695313 352.292969 553.980469 375 C 554.242188 396 532.496094 414.8125 523.890625 433 C 515.671875 450.363281 510.808594 469.417969 500.984375 486 C 491.410156 502.160156 474.667969 512 463.746094 527 C 449.289063 547 440.867188 571 428.199219 592 C 416.882813 611 396 629.347656 391 651 M 1128 412 L 1127 412 C 1120.949219 430 1109.378906 446.480469 1100.304688 463 C 1086.878906 487.445313 1074.765625 512.808594 1061 537 L 1060 537 C 1055.246094 499.421875 1072.527344 477.382813 1090 446 C 1065.601563 462.683594 1052.347656 490.632813 1039 516 L 1038 516 C 1038.535156 503.546875 1041 491 1044.425781 479 C 1046.226563 472.695313 1050 465.679688 1049.726563 459 C 1049.222656 449.230469 1040.765625 439.328125 1037.746094 430 C 1031.570313 411 1028 390 1026.171875 370 C 1022 327.832031 1038.617188 281.527344 1052.34375 242 C 1060.714844 218 1073 192.65625 1092 175.089844 C 1106.527344 161.605469 1123 158.390625 1136.53125 175 C 1139.960938 179.222656 1142.4375 184.074219 1144.691406 189 C 1148.90625 198.207031 1149.695313 207.347656 1152 217 L 1153 217 C 1153 193.351563 1142.460938 141.75 1109 147.324219 C 1092.457031 150.082031 1080 165.621094 1070.425781 178 C 1027.433594 233.15625 1000.605469 299.671875 992.285156 369 C 988.257813 402.574219 988.714844 438.183594 1001.605469 470 C 1011.929688 495.488281 1032.4375 513.566406 1047.480469 536 C 1057.167969 550.449219 1060.546875 567.601563 1068.246094 583 C 1079.300781 605.105469 1102.453125 623.699219 1103 650 C 1098.679688 644.765625 1096.527344 637.695313 1092.65625 632 C 1085.976563 622.171875 1078 613.285156 1072 603 C 1062.269531 586.355469 1054.773438 568.515625 1044.796875 552 C 1030 527.78125 1006.90625 510.296875 992.453125 486 C 982.742188 469.675781 981.839844 450.28125 974.535156 433 C 965.585938 411.816406 938.503906 399.347656 939 374 C 939.792969 347.039063 960.40625 324.632813 973.949219 303 C 1001.953125 258.261719 1023.414063 209.71875 1057.589844 169 C 1072.539063 151.1875 1096.421875 123 1123 134.339844 C 1150.96875 146.363281 1162 181.628906 1168 209 C 1182.675781 277.515625 1198.914063 355.449219 1183.574219 425 C 1180.308594 439.808594 1174.566406 454.359375 1166 467 C 1161 474.402344 1151.996094 481.753906 1150.621094 491 C 1147.847656 509.660156 1175.5 523 1185.660156 533.328125 C 1194.363281 542.226563 1191.910156 564.117188 1185.582031 574 C 1180.71875 581.335938 1168.683594 571.214844 1162 571.015625 C 1148.921875 570.628906 1136 573.539063 1123 573 C 1114 572.570313 1105.828125 568.707031 1097 568.089844 C 1092.757813 567.792969 1078.53125 571.429688 1076 568.382813 C 1073.632813 565.464844 1075.699219 559.28125 1076.246094 556 C 1078 544.488281 1080.558594 533.15625 1084 522 C 1091.21875 499 1100.21875 476.039063 1110.308594 454 C 1116.402344 440.691406 1125.839844 426.628906 1128 412 M 351 241 C 345.976563 257.535156 347 278.003906 348.832031 295 C 353.992188 346.640625 374 396 401 440 C 408 429.746094 404.816406 406 400.535156 395 C 395 381.035156 383.382813 372.007813 375 360 C 366.527344 347.75 362.484375 333.246094 358.734375 319 C 354.625 303.394531 352 287.128906 352 271 C 352 261.714844 355.527344 249.519531 351 241 M 1142 243 C 1142 278.21875 1141.410156 315.546875 1125.742188 348 C 1118 364.03125 1102.648438 374.796875 1095.4375 391 C 1090.40625 402.304688 1088.5 414.691406 1089 427 C 1089 429.074219 1089.347656 438.792969 1092.421875 438.792969 C 1095.582031 438.792969 1098.414063 432.257813 1099.714844 430 C 1105.617188 419.773438 1110.351563 409 1115 398 C 1131 360.398438 1140.492188 324.484375 1145.285156 284 C 1146.476563 274 1151.523438 250.152344 1142 243 M 330 256 C 328.664063 272.335938 323.667969 288.730469 321.273438 305 C 315.765625 342.367188 313 380.542969 319.433594 418 C 321.859375 432.449219 326.242188 446.136719 333.3125 459 C 339.863281 471 348.765625 481 353.304688 494 C 360.382813 514.300781 356.894531 534.214844 356 555 C 360.453125 551.652344 361.296875 543.160156 363 538 C 368.847656 520.28125 373.777344 500.726563 370.195313 482 C 364.382813 451.621094 344.839844 425.363281 337.652344 395 C 329.402344 360.121094 327.472656 323.75 329 288 C 329.511719 277.1875 332 267 332 256 L 330 256 M 1163 257 C 1166.785156 305 1168.671875 352 1155.574219 399 C 1147.78125 427.039063 1131.355469 452 1124.375 480 C 1119.464844 499.738281 1123.710938 518.132813 1130 537 C 1131.859375 542.574219 1133 551.398438 1138 555 C 1135.207031 533.363281 1132.988281 513 1141.453125 492 C 1149.230469 472.800781 1164.269531 458 1170.65625 438 C 1182.367188 401.441406 1181.171875 359.652344 1176.28125 322 C 1174.21875 306.101563 1173.214844 289.738281 1170.195313 274 C 1169 268.355469 1168 260.351563 1163 257 M 958 457 C 945.21875 451 933.871094 433.742188 923 424.289063 C 918.773438 420.613281 911.335938 416.699219 909.65625 411 C 908 405.554688 915.402344 398.371094 919.984375 396.582031 C 924.683594 394.746094 931.570313 404 935 406.601563 C 951.804688 420.050781 957.996094 435.699219 958 457 M 532 459 C 532.378906 440.734375 544.222656 424.476563 555.433594 411 C 559.371094 406.265625 563.96875 399.058594 570 397 C 577.222656 394.265625 587.421875 407.570313 583.382813 414 C 577.234375 423.679688 562.355469 430.832031 554 439 C 547 445.800781 540.46875 454.105469 532 459 M 366 413 L 367 414 L 366 413 M 480 575 C 520 552.730469 548 515.683594 585 489.722656 C 597 481.183594 610.371094 474.253906 624 468.425781 C 632.234375 465 642.339844 462.578125 648.671875 455.816406 C 652.503906 451.722656 653.699219 446.449219 652.621094 441 C 651.921875 437.464844 648.796875 432.828125 651.617188 429.511719 C 659 420.667969 686.777344 422.664063 689.605469 435 C 691.535156 443.425781 685.816406 450.5 679.996094 455.828125 C 668.269531 466.566406 655.296875 476 642 484.65625 C 587.878906 520 523.792969 554.710938 486 609 C 516.253906 578.746094 549.464844 549.800781 587 529 C 615.777344 512.808594 648.230469 503.8125 675 484.117188 C 686.179688 476 703.277344 465.820313 709.546875 453 C 712.800781 446.347656 704.578125 434.101563 709.191406 430.46875 C 723.167969 419.460938 734.597656 430.222656 749 430 C 759.199219 429.75 768.570313 424.441406 779 426.328125 C 792.972656 429 779.488281 443.65625 783.53125 453 C 789 465.636719 804 474.449219 815 482 C 842.5625 501.0625 874 511.058594 903 527.425781 C 942 549.535156 977.277344 578.277344 1009 610 C 1001.765625 599.066406 991.226563 590.226563 982 581 C 946.890625 546 903.8125 520.132813 863 492.34375 C 847.210938 481.59375 829.84375 471.191406 816 458 C 811.429688 453.59375 804.808594 448.492188 803.398438 442 C 799.222656 422.789063 830.578125 416.832031 841.5625 427.789063 C 845.753906 432 841.472656 437.367188 840.542969 442 C 839.402344 447.679688 842 453.023438 846 457 C 852.269531 463 861.246094 465.109375 869 468.425781 C 881.535156 473.792969 893.6875 480.042969 905 487.671875 C 929.390625 504.109375 949.742188 525.539063 972 544.570313 C 985.335938 556 1000.742188 564.730469 1014 576 C 1004.246094 562.152344 989.679688 552.3125 978.285156 540 C 955.515625 515.273438 934.226563 489 907 469 C 895.847656 460.671875 882.863281 455.042969 872 446.480469 C 868.34375 443.601563 862.96875 439.203125 863.335938 434 C 864 424.464844 878.484375 421.632813 886 422.09375 C 906.875 423.378906 924.839844 442.398438 937.714844 457 C 952.753906 474.058594 966 492.429688 980.425781 510 C 993.980469 526.539063 1008.75 542.152344 1020.644531 560 C 1031.226563 576 1038.957031 593.480469 1048.425781 610 C 1058.796875 628.085938 1071.171875 645.382813 1078.574219 665 C 1088 690.394531 1089.390625 718.542969 1083.789063 745 C 1080.902344 758.628906 1074 772.03125 1073 786 C 1071 812.257813 1082.828125 836.140625 1083.960938 862 C 1084.632813 877.378906 1084 893 1080.652344 908 C 1079.636719 912.5 1079.238281 920.445313 1074.820313 923.109375 C 1068.695313 926.800781 1069 912 1069 909 L 1068 909 C 1064.894531 920.03125 1059.894531 931.5 1059 943 C 1058 957.792969 1061.257813 973 1055.546875 987 C 1051 998.152344 1042.546875 1007 1036.230469 1017 C 1028.34375 1029.589844 1023.535156 1044 1016.742188 1057 C 1011.503906 1067.148438 1004.183594 1077 1001 1088 L 1000 1088 L 1002 1072 L 1001 1072 C 996.585938 1085 986.496094 1096.148438 984.792969 1110 C 983.238281 1122.664063 1006.230469 1145.597656 988 1152.628906 C 985.390625 1153.632813 982.714844 1154.371094 980 1155 C 980.6875 1142 978 1128.683594 975 1116 C 973 1107.382813 969.753906 1099 971.667969 1090 C 975.316406 1073 991.460938 1061.789063 998 1046 C 1003 1034.429688 1000 1019.511719 1007.648438 1009.015625 C 1015.679688 997.820313 1026.882813 994 1032.546875 980 C 1050.871094 935.132813 1045 887.117188 1045 840 L 1044 840 C 1038 862.574219 1030.753906 884.78125 1023.65625 907 C 1020.441406 917.066406 1018 928.746094 1008 934 L 1008 935 C 1011.617188 934.710938 1019.304688 931.628906 1022.382813 934.042969 C 1025.742188 936.679688 1021.65625 945 1020.71875 948 C 1016.804688 961.050781 1011.601563 977.277344 998 983.121094 C 975.859375 992.628906 958.398438 959 958 941 C 957.8125 928.46875 967.773438 920 972 909 C 976.507813 897.710938 969.335938 886.296875 974.347656 875 C 984 853 1005.863281 837.113281 1007 811 L 1006 811 C 998.347656 843.21875 958.335938 862.679688 929 846 C 936.773438 869 940 890 942 914 L 941 914 C 935.386719 870.535156 902.492188 821.542969 858 811 C 870.78125 821.503906 883.65625 828 893.5625 842 C 918.589844 877.554688 922.617188 923.683594 942.257813 962 C 948.46875 974.113281 959 985.253906 963.613281 998 C 969.339844 1014.238281 960.644531 1037.363281 947 1047 C 945.175781 1004.484375 931.566406 960.625 895 935.746094 C 878.246094 924.347656 859.269531 918.429688 840 913 C 851.519531 924.277344 865 932 875.550781 945 C 899.9375 975.527344 902.640625 1008.003906 912.488281 1044 C 915.824219 1056.191406 925.527344 1065 926.828125 1078 C 928.992188 1099.609375 923 1122.257813 923 1144 L 924 1144 C 926 1136.46875 934.425781 1115 942.542969 1131.003906 C 948.875 1143.488281 938.363281 1158.625 929.996094 1167 C 908.390625 1188.605469 873.835938 1196.753906 844 1197 L 844 1199 C 872.488281 1199.078125 895.28125 1213.117188 922 1195 C 928.816406 1190.261719 933.683594 1183.621094 940 1178.46875 C 941.84375 1177 945.773438 1173.445313 948.382813 1175.136719 C 951 1177 948.425781 1181.132813 947.382813 1183 C 942.9375 1191 939 1199.375 934 1207 C 919.40625 1229.671875 894.882813 1233.359375 870 1230.832031 C 862 1230.027344 853.945313 1226.667969 846 1227 C 866.984375 1238.058594 895.21875 1249.121094 918 1237.730469 C 930 1231.664063 938.394531 1220.675781 950 1214 C 947.480469 1246 916 1276.027344 883 1272.828125 C 860 1270.613281 839.375 1257.425781 820 1246 C 828 1255.257813 838.859375 1263.195313 849 1270 C 862.175781 1279 876.882813 1287.21875 893 1288.828125 C 940.835938 1293.613281 963.871094 1233.101563 969 1195 L 970 1195 C 973.183594 1212.09375 979.976563 1232.714844 975.761719 1250 C 972.804688 1262.128906 963.851563 1272 960.429688 1284 C 956.363281 1298.34375 956.253906 1313.535156 949.214844 1327 C 943.199219 1338.515625 933.203125 1351 921 1356.121094 C 915.960938 1358.273438 907.570313 1359.554688 903.605469 1354.605469 C 900.402344 1350.609375 904 1346.058594 907 1343.285156 C 916.371094 1334.558594 926.839844 1328.019531 935 1318 C 925.90625 1323.664063 917.988281 1330.117188 907 1331.699219 C 883.914063 1335.023438 867.539063 1314.292969 852.960938 1300.089844 C 844 1291.457031 834 1283.820313 824 1276.722656 C 805.269531 1263.570313 775.175781 1249 769.972656 1224 C 768 1215.273438 780 1213.503906 786 1211 C 794.992188 1207.175781 801.464844 1199.675781 810 1195.121094 C 816.644531 1191.578125 824.320313 1191 831 1187.621094 C 840.472656 1183 846.703125 1173.8125 852 1165 C 863.339844 1146.140625 872.980469 1124.339844 873.960938 1102 C 874.78125 1083.242188 870.179688 1067.316406 857.710938 1053 C 852.6875 1047.230469 846.382813 1043 841.4375 1037 C 834.425781 1028.703125 828.183594 1016 817 1012.636719 C 811.519531 1011.054688 805.578125 1012.640625 800 1011.671875 C 793 1010.464844 787.347656 1006.296875 780 1007.1875 C 773.191406 1008.011719 768 1014.21875 761 1013.773438 C 753.671875 1013.304688 746.40625 1009.335938 739 1008.285156 C 718.363281 1005.359375 694 1008 675 1017 C 660.246094 1024 645.980469 1044 635.175781 1056 C 609.246094 1085.046875 621.9375 1130.054688 639.800781 1160 C 645.808594 1170.078125 650 1181.246094 661 1187.199219 C 667.960938 1191.019531 675.949219 1192.101563 683 1195.785156 C 691.664063 1200.3125 699 1207.199219 708 1211.125 C 712.949219 1213.285156 724.257813 1214.398438 725 1221.042969 C 725.84375 1227 720.742188 1234.550781 717.511719 1239 C 707.46875 1252.816406 692.3125 1262.300781 678 1271.191406 C 661.851563 1281.226563 648 1293.476563 634 1306.171875 C 619 1319.59375 604.730469 1334 583 1330.699219 C 573.535156 1329.300781 565.878906 1323 558 1318 C 566.71875 1327.464844 576.527344 1334.675781 585.957031 1343.300781 C 589.203125 1346.269531 592.441406 1350.664063 588.679688 1354.605469 C 583.773438 1359.742188 575.511719 1358.132813 570 1355.09375 C 559 1349.097656 551.199219 1336.148438 546.425781 1325 C 540.332031 1310.753906 537.636719 1295.480469 532.304688 1281 C 528.824219 1271.546875 520.761719 1264.675781 517.773438 1255 C 512.460938 1237.78125 518.332031 1209.746094 524 1193 C 529.90625 1200.320313 529.511719 1212.066406 531 1221 C 533 1232.640625 537.574219 1244 543.605469 1254 C 548.183594 1261.699219 553.386719 1268.816406 560 1275 C 598 1310 647 1270.085938 677 1244 C 647.941406 1259.226563 615.894531 1280.660156 582 1268.304688 C 565.640625 1262.34375 555.308594 1248.300781 548.308594 1233 C 546.597656 1229.261719 541.390625 1219.273438 545.601563 1215.710938 C 548.332031 1213.402344 551.191406 1217.097656 552.65625 1219.042969 C 558.976563 1227.449219 565 1235 575 1239.125 C 592.519531 1246.523438 613 1241.089844 630 1234.398438 C 635.734375 1232.125 642.585938 1230.425781 647 1226 C 622.476563 1233.789063 586.265625 1239.34375 567.464844 1217 C 559.839844 1208 554.621094 1196.492188 549.257813 1186 C 547.976563 1183.492188 544.269531 1177.4375 547.605469 1175.070313 C 550.351563 1173.128906 554 1176.339844 555.910156 1178.109375 C 561.695313 1183.632813 565.921875 1190.496094 572 1195.816406 C 593.925781 1215.011719 622.960938 1199.003906 648 1199 C 641.632813 1193.460938 628 1194.644531 620 1193.832031 C 604.175781 1192.246094 587.636719 1188.804688 575 1178.53125 C 564 1169.648438 553 1156.0625 550 1142 C 548.859375 1136.613281 551.601563 1119 560.816406 1124.785156 C 567.324219 1129 567.21875 1138.578125 572 1144 C 572 1123.066406 565.910156 1102 567 1081 C 567.914063 1066.496094 577.917969 1057.445313 581.335938 1044 C 584.597656 1031.148438 585.488281 1018 588.882813 1005 C 597.910156 971 619.59375 928.402344 654 914 L 654 913 C 629.59375 918.039063 604.769531 927.273438 586 944.171875 C 558.664063 968.78125 547.738281 1009.277344 547 1045 L 546 1045 C 539.402344 1032.605469 527.242188 1020.054688 528 1005 C 528.582031 996.773438 534.535156 990.433594 538.972656 984 C 545.238281 975 550.746094 965.191406 554.988281 955 C 569.832031 919.328125 574.199219 878.1875 596.722656 846 C 607.566406 830.496094 621.652344 823.0625 635 811 C 588.773438 821.695313 561.914063 871.152344 552 914 L 551 914 C 551 889 558.480469 870 564 846 C 533.65625 865.828125 498.511719 841.671875 487 812 L 486 812 C 489.8125 838 509.625 853.234375 519 876 C 523.535156 886.574219 516.421875 897.335938 520.46875 908 C 525 920 535.257813 928.410156 534.984375 942 C 534.621094 960.226563 517.375 993.828125 495 982.621094 C 482.214844 976.21875 478.398438 961.21875 473.550781 949 C 472.347656 946 467.652344 938.820313 470 935.644531 C 472.480469 932.480469 480.257813 937 483 938 C 470.214844 907.292969 453.9375 873.707031 451 840 L 449 840 C 449 883 444 926.226563 457 968 C 459.925781 977.316406 463.59375 987.613281 470.300781 995 C 475.652344 1000.726563 484.296875 1003.621094 487.8125 1011.015625 C 492.886719 1021.6875 490.96875 1034.179688 495.898438 1045 C 501.953125 1058.277344 514.496094 1069.066406 516.699219 1084 C 519.972656 1106.222656 512.957031 1130.683594 512 1153 C 508.207031 1151.527344 503.320313 1150.222656 500.316406 1147.363281 C 491.90625 1139.34375 510.769531 1120.203125 509.695313 1110 C 508 1095.363281 498.230469 1082.480469 493 1069 L 492 1069 C 492.546875 1076 493.390625 1083.257813 495 1090 L 494 1090 C 481.324219 1068.28125 473.785156 1044.015625 461.6875 1022 C 454 1008.265625 441.855469 997.191406 437 982 C 432.761719 968.574219 435.867188 955.671875 434.910156 942 C 434.175781 931.507813 430 919.609375 426 910 C 425.203125 913.339844 425 929 418.390625 922.664063 C 414.417969 919 413.605469 912.011719 412.375 907 C 408.558594 891.453125 407.855469 874.820313 410 859 C 413.425781 836.082031 423 814.585938 420.828125 791 C 419.402344 776.242188 413.296875 762.398438 410.210938 748 C 404 719.3125 404.460938 689.507813 415.605469 662 C 425.890625 636.605469 444.222656 615.34375 458.199219 592 C 472 568.753906 482.4375 543.609375 497.515625 521 C 512.722656 498.199219 532.726563 479.269531 552 460 C 565.933594 446.074219 582.851563 430.023438 602 423.75 C 610.96875 420.8125 623.703125 421.425781 628.542969 431.003906 C 631.710938 437.269531 628 442.292969 622.996094 446 C 613.167969 453.085938 602 458.332031 592 465.003906 C 565.914063 482.203125 546.589844 506.058594 525.828125 529 C 511.359375 545 495.253906 559.746094 480 575 M 746 436 C 740.308594 446.800781 738.785156 459.316406 732.664063 470 C 725 483.152344 712.261719 494 701 503.714844 C 687 516 672.507813 527.492188 658 539 C 651 544.476563 641.820313 549.816406 638 558 C 653.5 553.441406 667.980469 540.632813 681 531.425781 C 698.941406 518.738281 720.652344 508.578125 734.480469 491 C 740.378906 483.503906 743.175781 474.582031 747 466 C 751.527344 475.675781 754.515625 485.617188 761.464844 494 C 775.269531 510.636719 799 522.726563 817 534.667969 C 829.210938 542.820313 842.757813 554 857 558 C 849.835938 546.554688 837.191406 540.164063 827 531.75 C 806.707031 515 786 498.347656 768 479 C 757 467.03125 758 445.523438 746 436 M 742 515 C 731.835938 526.03125 712.320313 539 707 553 C 704 561.144531 707.566406 570.070313 709.628906 578 C 713.859375 594.25 716 610.789063 720 627 L 721 627 C 724.71875 611.382813 722.546875 594.742188 720.835938 579 C 720 571.386719 717.515625 563.5625 720 556 C 724.25 544 747.699219 529 742 515 M 751 516 C 755 533.128906 773 543.417969 775.699219 561 C 778.863281 582.667969 765.742188 604 774 626 C 777 619.222656 776.808594 610.308594 778.425781 603 C 781.386719 589.589844 791.304688 570.660156 788.316406 557 C 785.597656 544.574219 772.425781 536.523438 764 528 C 759.824219 523.769531 756.453125 518.5625 751 516 M 1153 529.066406 C 1145.511719 537.050781 1168.835938 551.289063 1174.167969 545.382813 C 1180.355469 538.523438 1157 525 1153 529.066406 M 336.941406 529.589844 C 331.65625 530.414063 323.71875 534.8125 320.605469 539.183594 C 318.667969 542 318.726563 546.726563 323 546.460938 C 326.972656 546.222656 335.761719 544 338 540.773438 C 340.214844 538 343.191406 528.613281 336.941406 529.589844 M 746 548 C 747.894531 556.71875 745.710938 567.136719 745 576 C 743.757813 595 741.871094 614 741 633 C 738.445313 692.222656 739.535156 750.796875 740.984375 810 C 741.542969 832.738281 740.566406 855.359375 742.832031 878 C 743.582031 885.503906 743 895.398438 747 902 C 749 893.203125 747.476563 884 748 875 C 749.597656 853 751 831.058594 752 809 C 754.644531 749.46875 758.285156 687.34375 751.285156 628 C 749 609.113281 750 589.03125 750 570 C 750 563.746094 751.511719 552.195313 746 548 M 631 578 L 631 579 C 660.363281 579 675.882813 600.582031 683.421875 627 C 693 661 697.8125 693.804688 683 727 C 674.46875 746.605469 659.296875 764.070313 652 784 C 662.539063 779.082031 669.816406 765.078125 676.628906 756 C 686.484375 743 696.179688 728.8125 701.253906 713 C 709.855469 686.195313 703.65625 656 695 630 C 685.332031 601 666.203125 569.519531 631 578 M 841 784 C 835.445313 765.117188 819.898438 748.179688 811.863281 730 C 796.628906 695.542969 800.417969 659.0625 812 624 C 819.195313 602.222656 836.191406 575.734375 863 580 C 859 574.3125 849.921875 575.734375 844 577.015625 C 824.910156 581.148438 814.304688 595.324219 806.257813 612 C 792.585938 640.328125 783.742188 680.214844 792.429688 711 C 797.210938 728 807 743.050781 817.628906 757 C 824.445313 766.09375 831 778.121094 841 784 M 413 579 C 405.453125 594.152344 391.726563 603.125 380.214844 614.328125 C 377.261719 617.199219 375 626.222656 370.828125 627 C 366.605469 627.640625 364.53125 620 361.785156 617.703125 C 354 611.609375 344 611.074219 336 603.714844 C 333.820313 601.660156 329.625 597.816406 330.738281 594.316406 C 331.679688 591.347656 335.863281 592.222656 338 593 C 344.636719 595.289063 349.765625 599.738281 357 600.695313 C 371.226563 602.578125 376.945313 590.65625 387 584 C 394.761719 578.597656 404 579 413 579 M 1080 581 C 1087.691406 581 1095.703125 578.773438 1103 582.457031 C 1115.703125 589 1120.375 602.375 1137 599.382813 C 1140.859375 598.691406 1160.289063 588.816406 1162.289063 593.605469 C 1163.550781 596.628906 1159.660156 601 1157.984375 603 C 1150.722656 612.082031 1141.332031 611.21875 1133 617.511719 C 1129.847656 620 1127.808594 628.074219 1123 627.535156 C 1118.195313 627 1117 617.574219 1113.785156 614.527344 C 1101.75 603.539063 1086.9375 597.40625 1080 581 M 862 750 L 863 750 C 871.671875 733.539063 869.675781 713.617188 862.574219 697 C 857.320313 684.710938 848.472656 671 849.210938 657 C 851.953125 605.117188 916.828125 607.4375 952 619.695313 C 960.4375 622.636719 968.707031 626.078125 977 629.398438 C 986.574219 633.234375 996 638.277344 1006 641 C 997.402344 630 980.402344 626.777344 968 621.574219 C 960.679688 618.507813 953.429688 615.378906 946 612.574219 C 914.222656 600.59375 850.539063 581.660156 837 629 C 832.308594 646.144531 834.398438 667.054688 842.371094 683 C 847.699219 693.65625 856.261719 702.699219 860.300781 714 C 864.636719 726.132813 862.984375 737.53125 862 750 M 490 639 L 490 640 C 500 638.261719 509.457031 632.621094 519 629.050781 C 554.289063 616 612.597656 594.699219 637.929688 636 C 641 641.140625 642.933594 647.03125 643.710938 653 C 647 678.316406 624.960938 699.574219 625 725 C 625 731.640625 625.316406 744.691406 631 749 C 630.894531 736.21875 629 725.429688 633.695313 713 C 637.410156 703 644.824219 694.507813 649.742188 685 C 657.59375 669.8125 660.210938 653 657.699219 636 C 653.898438 610.46875 630.761719 599.007813 607 599 C 581.644531 599 559 608 536 617.398438 C 520.480469 623.71875 504 629.738281 490 639 M 485 609 L 486 610 L 485 609 M 1009 610 L 1010 611 L 1009 610 M 482.5 611.5 C 481.871094 612.128906 482.871094 613.128906 483.5 612.5 C 484 612 483 611 482.5 611.5 M 464 614 C 452.996094 637.21875 439.613281 660.820313 433.652344 686 C 430.960938 697.386719 428.289063 710.261719 429 722 C 429.886719 733.695313 433.773438 745.214844 432.910156 757 C 432.359375 764.515625 428.921875 771.503906 428.171875 779 C 424.878906 812 424 847 424 880 L 426 880 C 426.691406 846.5 445.53125 818.515625 453 787 L 454 787 C 455.171875 801.367188 461 816.238281 465.28125 830 C 473.804688 858.414063 483.648438 887.335938 496.757813 914 C 501.570313 923.792969 506.929688 945.007813 516 951 C 500.878906 904.523438 480.300781 860.085938 470 812 C 467.738281 801.453125 455 771.484375 469 766.265625 C 486 760 495.230469 783.175781 506 791.609375 C 514 798 524.367188 797 534 797 C 531.230469 791.078125 525.507813 788 521.300781 783 C 513.203125 773.648438 507.941406 758.4375 494 757 C 516.777344 738.285156 520.613281 777 539 782.777344 C 549.785156 786.230469 563.539063 785.269531 574 781.070313 C 578.902344 779.101563 585.496094 772.148438 590.996094 773 C 595 773.625 597.640625 778.597656 599 782 C 604.4375 794.238281 600.261719 804.050781 597 816 C 601.863281 814.449219 606 811.480469 610 808.332031 C 642.1875 783 609.242188 750.683594 604.628906 721 C 602.742188 709 612.882813 698.386719 610.671875 686 C 609.34375 678.570313 598.636719 673.574219 598.636719 667.058594 C 598.636719 658.253906 613.925781 670.242188 616 662 C 619.355469 649.363281 608.226563 637 597 633.789063 C 585 630.378906 572.199219 634.179688 561 638.320313 C 534 648.242188 506.203125 664.355469 487.183594 686 C 475.992188 698.734375 470.882813 719.738281 453 725 C 454.664063 727.378906 456 727.683594 459 728 C 457.394531 732.539063 459.984375 733 464 732 L 462 737 C 466 735.769531 481.203125 723.636719 471.960938 719.347656 C 469.582031 718.242188 469.199219 722.785156 469 724 L 468 724 C 469 712.398438 479.257813 704.703125 487 697 C 502.847656 681.230469 522.390625 670.777344 543 662.601563 C 553.832031 658.304688 565.285156 654.210938 577 657 L 577 658 C 573.234375 658.164063 569.71875 657.476563 566 657 L 568 662 C 553.722656 663.246094 530.347656 673.015625 521 684 C 533.710938 682.121094 544.664063 676 558 678.46875 C 582.957031 683.175781 592.605469 720.761719 597 742 L 596 742 C 586.625 709.460938 549.296875 703.519531 522 717.371094 C 510.851563 723.03125 502.289063 733 493 741 C 505.539063 718.507813 525 709.777344 548 702 L 548 701 C 530.222656 701 509.339844 699.636719 495 712.183594 C 485.824219 720.214844 479.472656 730.339844 472.238281 740 C 468.828125 744.554688 464 750.277344 458 750.769531 C 442.328125 752.03125 441.835938 729.386719 440.828125 719 C 438.40625 694 446.503906 669.488281 454.332031 646 C 456.972656 638.078125 466.804688 622 464 614 M 1029 616 C 1040 650.3125 1053 681.285156 1053 718 C 1053 728 1051 753.03125 1036 751.28125 C 1029 750.484375 1024.496094 743.179688 1021 738 C 1014.402344 728.222656 1007 719 998 711.214844 C 983.761719 699.144531 962.359375 701 945 701 L 945 702 C 967.957031 709.261719 988.355469 718.808594 1001 741 C 980.855469 721 946.234375 697 917 716.109375 C 907.425781 722.410156 903.214844 733.535156 896 742 C 899.195313 720.351563 911.507813 683.089844 936 678.46875 C 948.769531 676.058594 959.839844 682 972 684 C 964.265625 672 937.820313 662.601563 924 662 C 934.300781 653.75 945.453125 660.625 956 665.148438 C 973 672.476563 988.828125 681.285156 1003 693.429688 C 1010.378906 699.746094 1016.449219 710.671875 1025 715 C 1017.523438 687.671875 989.460938 670.484375 967 656.574219 C 955.199219 649.269531 943 642 930 637.34375 C 915.527344 632.273438 893.617188 628.199219 882.53125 642.039063 C 879.742188 645.523438 872.371094 662.644531 879.316406 665.304688 C 882.875 666.664063 892.496094 659.664063 893.574219 666.148438 C 894.65625 672.675781 883.589844 679 882.328125 686 C 880 698.695313 890.296875 708.777344 888.695313 721 C 884.898438 750 850.53125 784.066406 883 808.523438 C 887 811.546875 891.195313 814.46875 896 816 C 894.535156 810.640625 892 805.542969 891.300781 800 C 890.203125 792.359375 892.761719 775.648438 903 775.332031 C 908.878906 775.152344 914.652344 780 920 782 C 930.496094 785.675781 944.421875 786.234375 955 782.449219 C 968.8125 777.511719 972.917969 753.214844 987 752.175781 C 991.265625 752 995.203125 754.421875 999 756 L 999 757 C 985.503906 758.390625 980.699219 773.042969 972.816406 782 C 968.386719 787.03125 962.496094 790.613281 960 797 C 970 797 980.816406 797.667969 988.960938 790.671875 C 998.816406 782.203125 1006.761719 761.097656 1023 765.789063 C 1038.570313 770.289063 1025.671875 801 1023 812 C 1016 842.289063 1006.617188 871.820313 995.945313 901 C 990 917.210938 980.320313 933.777344 978 951 L 979 951 C 998 918.238281 1011 881 1023 845 C 1029 826.746094 1037.425781 806.261719 1039 787 L 1040 787 C 1049.691406 817.621094 1067.316406 847.785156 1068 881 L 1070 881 C 1070 864.613281 1067.753906 848.34375 1067 832 C 1066.324219 815.632813 1067.464844 799.328125 1065.828125 783 C 1064.875 773.472656 1060.707031 764.605469 1060 755 C 1059.308594 742.816406 1063 730.152344 1063.910156 718 C 1064.878906 704 1061.691406 688.382813 1057.328125 675 C 1052.714844 661 1046.167969 647.6875 1040.425781 634 C 1037.722656 627.558594 1035.472656 619.539063 1029 616 M 926 656 C 919.417969 661.234375 914.710938 656.007813 926 656 M 584 657 C 583 659.125 583 659.101563 581 660 C 581.480469 657.636719 581.636719 657.480469 584 657 M 913 657 C 913 658.796875 912.984375 658.519531 912 660 L 911 660 C 910 658.523438 910 658.796875 910 657 L 913 657 M 588 658 C 598.289063 660.253906 592.570313 667.363281 588 658 M 904 659 C 899.871094 666.683594 895.453125 661.570313 904 659 M 1021 716 C 1017.417969 725.582031 1021 735.007813 1032 736 C 1031.386719 734.339844 1030.957031 733.515625 1030 732 C 1033 731.371094 1034.425781 730.71875 1036 728 L 1032 728 L 1032 727 C 1034.851563 727 1037.269531 726.808594 1040 726 C 1035.539063 723.179688 1029.96875 720.808594 1025 719 L 1025 724 L 1024 724 C 1023.535156 721 1022.875 718.515625 1021 716 M 1026 725 L 1025 726 L 1026 725 M 546 730.289063 C 570 727.160156 601.507813 757.210938 570 772.214844 C 566.523438 774 562.824219 775.148438 559 775.699219 C 546.949219 777.4375 535.246094 773.386719 527.328125 764 C 518.808594 754 520.429688 739.429688 533 734 C 537 732.066406 541.558594 731 546 730.289063 M 936 730.328125 C 946.25 728.53125 962.511719 730.273438 969.351563 739.105469 C 981.574219 755 960.855469 773.191406 946 775.675781 C 932.746094 778 910.890625 770.730469 909.421875 755 C 908.277344 742.738281 925.621094 732.148438 936 730.328125 M 1030 731 L 1029 732 L 1030 731 M 544 738.589844 C 535.636719 740.800781 538 750.507813 541.363281 756 C 545.5625 763.132813 553.28125 765.199219 561 763.070313 C 568 761.113281 579.667969 748 571.410156 740.648438 C 567.96875 737.625 562.792969 742.585938 559 742.574219 C 553.542969 742.554688 549.777344 737.066406 544 738.589844 M 948 739 C 943.367188 739 939.726563 743 935 742.707031 C 931.65625 742.589844 925.90625 737.816406 923 740.648438 C 913.785156 750 929.433594 765.183594 939 764.726563 C 946.492188 764.367188 953 759.121094 955.199219 752 C 956.828125 746.570313 955 738.699219 948 739 M 493 741 L 492 742 L 493 741 M 1003 743 C 1001.363281 742.453125 1001.546875 742.636719 1001 741 C 1002.636719 741.546875 1002.453125 741.363281 1003 743 M 896 742 L 895 743 L 896 742 M 588 911 L 589 911 C 599.214844 893.515625 607.425781 874.8125 623 861.183594 C 631.453125 853.785156 644 852.273438 651.609375 843.816406 C 659.617188 834.824219 656.265625 821.195313 664.46875 812.285156 C 677.582031 798.046875 706.242188 787.8125 710 767 C 702.800781 770.484375 697.191406 777.183594 690 781.136719 C 679 787.140625 664.746094 790.460938 656.214844 800.039063 C 649.3125 807.785156 650.179688 819.300781 642.816406 826.824219 C 634.714844 835.101563 623 838.550781 615 847.015625 C 606 856.601563 604.25 870.15625 599.550781 882 C 595.765625 891.539063 589.535156 900.753906 588 911 M 783 767 C 786 788 811 797.207031 825 810.089844 C 830.566406 815.253906 835.21875 821 837.933594 828 C 839.996094 833.441406 839.835938 840.046875 843.648438 844.699219 C 848.582031 850.722656 857.585938 853.277344 864 857.441406 C 871.660156 862.410156 878.234375 869.800781 883.765625 877 C 890.472656 885.734375 896.882813 905.8125 906 911 C 900 893.621094 894.769531 872.261719 884.480469 857 C 876 844.566406 863.785156 835.371094 854 824 C 847.335938 816 843 805.261719 834.960938 798.519531 C 825.980469 791.117188 813.792969 788.53125 804 782.304688 C 796.816406 777.738281 790.589844 770.539063 783 767 M 546 791 L 546 793 C 554.933594 793.703125 564.324219 795.160156 573 797.445313 C 576.195313 798.285156 580.175781 800.035156 579.828125 804.003906 C 578.976563 813.71875 565.515625 822 562 831 C 572.628906 825 589.683594 811.582031 595.992188 801 C 599.332031 795.394531 598.800781 786.429688 591.984375 783.742188 C 585 781 577.488281 785.175781 571 787.253906 C 563 789.804688 554.34375 791 546 791 M 932 831 C 927.863281 823.578125 912.789063 811.824219 913.542969 803.042969 C 913.863281 799.3125 917.941406 798.121094 921 797.453125 C 929.558594 795.582031 938.3125 794.097656 947 793 C 942.273438 789.132813 936.644531 790.613281 931 789.675781 C 922 788.175781 901 775.460938 895.742188 789.015625 C 893.910156 793.679688 895.84375 799.152344 898.636719 803 C 905.445313 812.328125 921.394531 826.511719 932 831 M 603 911 C 626.214844 901.1875 642.660156 867.195313 670 866.265625 C 675.722656 866.070313 680.800781 869.140625 686 871 C 683.242188 855.546875 666.511719 847.484375 653 855.476563 C 633.199219 867.183594 612.847656 890.183594 603 911 M 807 871 C 812.222656 869.132813 817.257813 866 823 866.132813 C 830.980469 866.390625 838.652344 871.691406 845 876.027344 C 860.789063 886.820313 873.382813 902.53125 890 912 C 887.765625 905.003906 882.378906 899.550781 877.753906 894 C 864.722656 878.363281 833.425781 833 811.394531 861.003906 C 809 864 808 867.417969 807 871 M 413.433594 934.753906 C 419 932.722656 421.453125 952 415 953.078125 C 413.832031 953.289063 412.316406 935.148438 413.433594 934.753906 M 604 1149 C 603.285156 1132.390625 595.773438 1116.589844 594.171875 1100 C 592.566406 1083.445313 597.425781 1067.65625 604.753906 1053 C 607.238281 1048.023438 617.96875 1025 625.667969 1029.136719 C 633.6875 1033.472656 614.898438 1046.027344 612 1048 L 612 1049 C 621.234375 1048.054688 628.59375 1041.382813 636 1036.34375 C 643.460938 1031.265625 651.777344 1027 657.675781 1020 C 665.175781 1011.097656 668.574219 999.558594 675 990 C 679.234375 984 684.925781 979.160156 689 973 C 676.707031 976.617188 666.855469 987.289063 660.453125 998 C 656.308594 1005 651.863281 1016.269531 643 1018.289063 C 632 1020.769531 634.652344 1002.515625 636.347656 997 C 643.523438 973.644531 662.332031 956.519531 670 934 C 664.871094 936.765625 661.800781 942.519531 658.195313 947 C 650.96875 956 643.511719 964.730469 636.628906 974 C 622 993.542969 609.742188 1015 597.71875 1036 C 589.964844 1049.628906 581.714844 1063.039063 580.171875 1079 C 578.929688 1091.804688 582.6875 1105.09375 587 1117 C 590.472656 1126.320313 595.445313 1143.398438 604 1149 M 823 934 C 832 956 849.757813 973.203125 856.972656 996 C 858.722656 1001.527344 862.4375 1020.558594 851 1018.238281 C 842 1016.417969 837.527344 1005 833.394531 998 C 827 987.386719 817.214844 976.59375 805 973 C 809 980.019531 815.523438 985.15625 819.910156 992 C 825.253906 1000.332031 828.453125 1010.121094 834.527344 1018 C 843.824219 1030.058594 866.316406 1045.761719 881 1050 C 879 1047.351563 859.71875 1031.253906 869.230469 1028.753906 C 877 1026.699219 886.5 1047.589844 889.242188 1053 C 906.300781 1086.636719 893.617188 1114.71875 889 1149 C 898.269531 1143.332031 903.367188 1125 906.667969 1115 C 911.644531 1100.070313 914.644531 1083.609375 911.535156 1068 C 908.988281 1055.210938 900.582031 1044 894 1033 C 882.171875 1013.320313 870.511719 993.695313 857 975 C 848.429688 962.824219 836.757813 940.433594 823 934 M 1078.785156 934.753906 C 1080 934.703125 1080 953 1078.773438 953.078125 C 1073.398438 954.125 1071.628906 935.011719 1078.785156 934.753906 M 836 1055 C 827.597656 1054 819.320313 1051.613281 811 1050 C 827.46875 1067 844.980469 1079.578125 845 1106 C 851.226563 1099.4375 854 1082.652344 852 1074 L 853 1074 C 858.941406 1086.703125 861.757813 1105 850.894531 1116 C 842 1125 817.617188 1129.304688 811.898438 1114 C 808.484375 1105 819.949219 1103 819.945313 1096.015625 C 819.941406 1091.101563 810.410156 1090.3125 807 1090.089844 C 786.738281 1088.769531 771.878906 1109 774.183594 1128 C 775.566406 1139.378906 785 1152.222656 794 1159 C 792.503906 1155.453125 790 1148.773438 794.316406 1146.027344 C 799.707031 1142.46875 807.953125 1148.691406 814 1147.457031 C 825.425781 1145.117188 833.300781 1135 844 1131 C 840.457031 1144 829.617188 1152 821.667969 1162 C 815.863281 1169.363281 810.992188 1178.804688 802 1182.785156 C 793.835938 1186.398438 785.5 1184.023438 777 1184 C 779.613281 1180.285156 784.652344 1176.652344 785.460938 1172 C 786.363281 1166.8125 781 1161.433594 777.910156 1158 C 769.175781 1148.617188 758 1143.324219 754.898438 1130 C 753 1122.351563 752.578125 1114.617188 750.28125 1107 C 749.828125 1105.503906 748.863281 1100.054688 746.703125 1100.054688 C 744.269531 1100.054688 742.925781 1105.277344 742.359375 1107 C 739.921875 1114.425781 740 1122.40625 738.335938 1130 C 735.554688 1142.320313 725.632813 1148.035156 717 1156.171875 C 713.492188 1159.523438 707.300781 1165.664063 707.617188 1171 C 707.917969 1176.050781 713.28125 1180.121094 716 1184 C 708.96875 1184.019531 701.9375 1186 695 1184.074219 C 681 1180.28125 674.816406 1165 665.828125 1155 C 658.652344 1147.023438 650.589844 1141 648 1130 C 658.300781 1135.132813 666.308594 1145 678 1147.46875 C 684.328125 1149 693 1142.304688 698.683594 1146.027344 C 702.835938 1148.773438 700.496094 1155.449219 699 1159 C 714 1148.230469 726 1127.066406 716.597656 1109 C 709.546875 1095.542969 682.347656 1079.714844 668.636719 1095 C 666.550781 1097.214844 671.4375 1100.238281 672.816406 1101.589844 C 676.609375 1105.308594 679.792969 1111 676.398438 1116 C 670.660156 1124.542969 656.773438 1125.621094 648 1122.070313 C 633.835938 1116.332031 637.527344 1100.390625 634.886719 1088 C 634.390625 1085.675781 633.40625 1075 638.453125 1076 C 640.695313 1076.402344 640.175781 1082.324219 640.4375 1084 C 641.671875 1091.792969 645.175781 1098.71875 648 1106 L 649 1106 C 649.953125 1083.804688 665.40625 1067.246094 680 1052 L 656 1057 C 660.722656 1050.4375 667.847656 1047.09375 675 1043.703125 C 701.457031 1031.160156 723.363281 1037.617188 751 1037 C 767.320313 1036.613281 782.683594 1032.542969 799 1035.808594 C 812 1038.425781 827.996094 1043.734375 836 1055 M 531 1164 C 525.359375 1159.527344 525.851563 1153.699219 526 1147 C 526.34375 1133.535156 528.988281 1119.652344 533.585938 1107 C 535.296875 1102.296875 537.96875 1092 543.960938 1091.058594 C 551.589844 1090 548 1104.574219 547 1108 C 544.652344 1117 540.257813 1125.113281 537.886719 1134 C 535.253906 1144 534.582031 1154.453125 531 1164 M 949 1090 C 956 1107.339844 961.4375 1124.355469 964 1143 C 964.902344 1149.578125 966.914063 1156.507813 965 1163 C 959.503906 1155 961.925781 1139.605469 959 1130 C 956 1120.066406 947.566406 1113 944.789063 1103 C 943.320313 1097.742188 944.992188 1093.445313 949 1090 M 512 1173 C 505 1168 500.441406 1159.359375 499 1151 C 510.714844 1153.121094 512 1163 512 1173 M 994 1154 C 991.945313 1161.128906 988 1167.640625 982 1172 C 980.703125 1161.738281 982.683594 1155.703125 994 1154 M 527 1166 C 531 1174 529 1181.46875 529 1190 C 522.519531 1185.703125 522.96875 1172 527 1166 M 967 1170 C 968.308594 1175.308594 968.984375 1180.535156 969 1186 L 968 1186 C 966.347656 1180.800781 964 1175.039063 967 1170 M 792 1281 L 792 1282 C 776.996094 1282 763 1274.5 748 1274.128906 C 731.476563 1273.71875 714.367188 1280 698 1282 C 702.503906 1277.121094 709 1274.6875 715 1271.753906 C 722.390625 1268.058594 729.84375 1263.410156 738 1261.667969 C 759.179688 1257.152344 774 1273.480469 792 1281 M 521 1289 C 514 1287.660156 508.273438 1282.6875 506 1276 C 513.1875 1277.28125 519.5 1281.5625 521 1289 M 989 1276 C 986 1282.8125 981 1287 974 1289 C 976.359375 1282.0625 982 1278 989 1276 M 804 1323 L 804 1324 C 769.855469 1338.691406 724.6875 1333.273438 690 1324 C 706 1312.058594 727 1323.214844 744 1324.671875 C 754 1325.542969 764 1320.164063 774 1319.171875 C 784.582031 1318.113281 793.699219 1322.160156 804 1323 M 843 1332 C 833.59375 1332 827.5625 1326.710938 819 1324 C 827 1320.601563 837.917969 1325.511719 843 1332 M 672 1324 C 666.617188 1331.230469 658.457031 1332 650 1332 C 654.523438 1324.171875 663.886719 1324 672 1324 "/>
</g>
</svg>
