<?xml version="1.0" encoding="UTF-8"?>
<svg xmlns="http://www.w3.org/2000/svg" xmlns:xlink="http://www.w3.org/1999/xlink" width="1500pt" height="1500pt" viewBox="0 0 1500 1500" version="1.1">
<g id="surface1">
<path style=" stroke:none;fill-rule:nonzero;fill:rgb(0%,0%,0%);fill-opacity:1;" d="M 724 200.425781 C 668.171875 207.753906 616.652344 215.730469 567 245 C 537.671875 262.066406 515.996094 290.714844 485 304.6875 C 448.976563 321 400 314.027344 370 343.09375 C 366.496094 346.519531 363.214844 351 363.1875 356 C 363 360.285156 366.25 364.75 363.394531 368.699219 C 358.492188 375.476563 347.757813 379.019531 341 383.722656 C 325 394.773438 309.636719 407.011719 298.441406 423 C 293.464844 430.101563 289 439.097656 290.183594 448 C 290.910156 453.8125 296.863281 459.09375 294.539063 465 C 290 476.15625 279.539063 486.195313 272.722656 496 C 262.589844 510.566406 254.476563 526.667969 245.574219 542 C 212.550781 599 161.378906 651.488281 152.28125 719 C 147.804688 752.25 153.277344 785.277344 166.425781 816 C 178.265625 843.660156 197.96875 872 198.957031 903 C 199 908.410156 198 917.375 191.980469 919.351563 C 182.972656 922.269531 161.289063 905.558594 160 926 C 159.90625 928.25 159.832031 930.808594 160.433594 933 C 161.835938 938.113281 166.792969 941.261719 171 944 C 181.65625 950.746094 194.304688 958 207 959.699219 C 211.863281 960.402344 220.535156 958 224.605469 961.003906 C 229.902344 965.023438 229.847656 982.605469 231.210938 989 C 235.425781 1008.78125 242.796875 1029.382813 254.570313 1046 C 258.578125 1051.65625 263.835938 1056.320313 271 1057 C 277.640625 1057.453125 286.371094 1053.425781 290.785156 1060.058594 C 300.183594 1074.171875 311.863281 1100.050781 306.25 1117 C 304.496094 1122.296875 301.214844 1128 296.90625 1131.472656 C 289.410156 1137.753906 268.21875 1144.332031 282 1156.671875 C 296 1169.210938 318.914063 1170 336 1164.652344 C 370.820313 1153.785156 403.664063 1131.757813 433 1110.574219 C 439.519531 1106 446.320313 1101 451.824219 1095 C 454.195313 1092.425781 456.515625 1087.566406 460 1086.597656 C 465.191406 1085.214844 470.777344 1093 474 1095.828125 C 480.300781 1101.519531 489.472656 1108.644531 489.851563 1118 C 490.292969 1129 471.410156 1141.261719 489 1148.515625 C 499.496094 1153 514.714844 1150.554688 523.984375 1144.148438 C 527.648438 1141.617188 533.375 1131.296875 538.425781 1132.613281 C 542.417969 1133.652344 546 1139.164063 549 1141.828125 C 557.605469 1149.570313 568.609375 1156.390625 572.398438 1168 C 575 1176.0625 570.273438 1186.035156 578.1875 1192.148438 C 584 1196.636719 596.394531 1198 602.984375 1194.542969 C 605.652344 1193.164063 608.34375 1187.546875 611.273438 1187.679688 C 616.707031 1188 624.402344 1195 629 1197.601563 C 641.550781 1205.125 655 1210.359375 668 1217.308594 C 686.699219 1227.421875 704.988281 1240.515625 714.730469 1260 C 720.363281 1271.269531 717.972656 1292 729 1299.273438 C 737 1304.621094 748.453125 1301.023438 754.960938 1295 C 757.214844 1292.773438 760.351563 1287.054688 763.828125 1287.054688 C 766.828125 1287.054688 768.621094 1292 770.378906 1293.785156 C 773.660156 1297.230469 778.347656 1298.496094 783 1297.785156 C 796.449219 1295.722656 790.953125 1277.328125 792.300781 1268 C 794.179688 1255 802.816406 1242.175781 812 1233.171875 C 827.769531 1218 847.816406 1208.640625 867 1198.742188 C 872.269531 1196.023438 879.949219 1189.242188 885.894531 1188.828125 C 889.421875 1188.582031 891.976563 1194 895 1195.425781 C 902 1199 914.503906 1197.578125 920.894531 1193.03125 C 929.257813 1187.078125 924.238281 1176.304688 926.636719 1168 C 929.808594 1157.03125 941.238281 1150.382813 949 1143 C 952 1140 955.734375 1134.617188 960 1133.257813 C 965.546875 1131.484375 971.816406 1142.335938 976 1145.03125 C 985.242188 1151 999.785156 1153.191406 1010 1148.636719 C 1027.894531 1140.660156 1009 1130.160156 1009.289063 1119 C 1009.535156 1109.304688 1019.371094 1101.332031 1026 1095.574219 C 1029.179688 1092.816406 1034 1086 1038.984375 1086.832031 C 1043 1087.609375 1046.304688 1093.234375 1049 1096 C 1055 1102.175781 1061.984375 1107.382813 1069 1112.421875 C 1091.4375 1128.535156 1115.285156 1143 1140 1155.246094 C 1158 1164.308594 1178.628906 1172 1199 1166 C 1206.933594 1163.660156 1225.601563 1157.304688 1222.332031 1146.015625 C 1220 1138.46875 1210.605469 1137.394531 1205 1133.363281 C 1197 1127.671875 1191.796875 1117.691406 1191 1108 C 1190 1093.820313 1198.589844 1082.113281 1204.628906 1070 C 1206.648438 1066 1207.71875 1059.300781 1212 1057.066406 C 1216.714844 1054.722656 1224.523438 1058.113281 1230 1056.761719 C 1242.457031 1053.683594 1248 1041.441406 1253.515625 1031 C 1261 1016.625 1265.765625 1001 1268.996094 985 C 1270.234375 979 1269.53125 967.109375 1273.601563 962.316406 C 1277.492188 957.738281 1287.652344 960.46875 1293 959.699219 C 1305.390625 958 1332.824219 948.417969 1337.992188 936 C 1338.898438 933.800781 1339 931.339844 1338.953125 929 C 1337.929688 905.785156 1314.785156 926.136719 1306.394531 918.550781 C 1301 913.683594 1300.878906 903.558594 1301.71875 897 C 1303.710938 881.457031 1309.359375 868.242188 1315.574219 854 C 1322.214844 838.789063 1330.6875 824.605469 1336.574219 809 C 1349.972656 773.472656 1354.234375 734.765625 1343.277344 698 C 1330 654 1303 616.699219 1277.671875 579 C 1260.636719 553.730469 1246.660156 526.828125 1230.574219 501 C 1223.789063 490.109375 1214.96875 480.757813 1208 470 C 1202.21875 460.820313 1207.644531 458.046875 1209.609375 449 C 1210.957031 442.796875 1208.976563 436.507813 1206.238281 431 C 1196.578125 411.550781 1176.589844 396 1159 384.027344 C 1152 379.3125 1142.808594 376.238281 1137 370 C 1132.777344 365 1136.785156 359 1135.660156 353 C 1134.34375 346.121094 1128.371094 341.085938 1123 337.160156 C 1088.625 312.039063 1041.886719 320.789063 1006 299.394531 C 980.953125 284.464844 960.4375 263 935 248.011719 C 886.714844 219.820313 831.527344 204.734375 776 201 C 759.191406 199.753906 740.789063 198.21875 724 200.425781 M 1088 350 L 1088 351 L 1081.996094 352.09375 C 1060.640625 356.226563 1093.722656 360 1099 361.214844 C 1101 361.707031 1104.65625 362.382813 1105 365.035156 C 1106.433594 373.570313 1083.707031 364 1086.207031 372.015625 C 1088.683594 380.046875 1111 383.488281 1118 386.78125 C 1136.699219 395.632813 1163.652344 415.234375 1173 434 C 1157.421875 427.277344 1146.9375 415.769531 1129 414.074219 C 1125.675781 413.761719 1116.214844 411.355469 1114.207031 415.421875 C 1113 417.664063 1117.757813 418.488281 1119 418.785156 C 1126.40625 420.542969 1133 423 1140 426.246094 C 1148 430.246094 1157 434.691406 1162.582031 442.003906 C 1166.453125 447.089844 1168 453.679688 1171.859375 459 C 1179.992188 470.429688 1188.773438 481.394531 1196.65625 493 C 1216.441406 522.125 1231.390625 554.191406 1250 584 C 1280.558594 632.738281 1318.828125 680.40625 1322.910156 740 C 1323.828125 753.375 1319.757813 766 1318 779 L 1317 779 C 1317 755.503906 1315.394531 732.101563 1310.800781 709 C 1310 705.242188 1307.238281 686.472656 1300.277344 690 C 1295.925781 692.078125 1297.933594 701.269531 1298.425781 705 C 1300.367188 719.746094 1300 735.125 1300 750 C 1300 776 1296.742188 802 1290 827 C 1284.722656 847.421875 1275.554688 867.710938 1274 889 C 1273 904 1277.890625 915.714844 1280 930 C 1267.960938 924.703125 1266 914.789063 1264.714844 903 C 1262.207031 882.027344 1266.679688 860.050781 1272.71875 840 C 1278 822 1286.535156 804.796875 1289.5625 786 C 1295.414063 749.644531 1286 713.28125 1271.71875 680 C 1265.328125 665.132813 1259.699219 646 1246 636 C 1247 650 1255.167969 662.074219 1259.65625 675 C 1269.371094 703 1277.960938 733.054688 1275.910156 763 C 1272.824219 808.082031 1240 845.652344 1239 891 C 1238.625 908 1245.78125 924.140625 1246.910156 941 C 1247.980469 957.023438 1243.214844 974.566406 1239.371094 990 C 1236.753906 1000.523438 1234.644531 1014.636719 1226 1022 C 1226 990.6875 1236.472656 961.390625 1228.625 930 C 1226.4375 921.242188 1224 912.171875 1220 904 C 1219 901.742188 1215 894.59375 1212.351563 899.257813 C 1209 905 1214.878906 916.101563 1215.914063 922 C 1219.378906 941.675781 1220 961.085938 1220 981 C 1220 986.273438 1222.480469 1000.507813 1218.261719 1004.339844 C 1213.734375 1008.449219 1213.191406 999.335938 1213.671875 997 C 1215.660156 987.304688 1220.644531 978.117188 1218 968 C 1217.316406 965 1215.339844 958.550781 1211 959.035156 C 1206.671875 959.535156 1207.246094 966 1206.363281 969 C 1203.925781 977.324219 1196.574219 983.773438 1192 991 C 1171.8125 1023.457031 1149.285156 1069.566406 1152 1109 C 1162.289063 1089.472656 1165.460938 1065.707031 1173 1045 C 1180.382813 1025.019531 1192.171875 1007.535156 1204 990 L 1205 990 C 1204.621094 998.675781 1200.433594 1006.027344 1197.425781 1014 C 1192 1028.21875 1186.4375 1042.386719 1179.628906 1056 C 1173.359375 1068.542969 1165.65625 1081 1163.285156 1095 C 1160.808594 1109.703125 1166.519531 1123.238281 1171 1137 C 1131.675781 1121.742188 1091.847656 1096.425781 1065.660156 1063 C 1050.496094 1043.644531 1041.371094 1021.117188 1033.667969 998 C 1018.34375 952.027344 1009.890625 901.125 1018.25 853 C 1022.855469 826.480469 1034 802 1043.574219 777 C 1054.601563 748.015625 1064.367188 718.371094 1070.789063 688 C 1074.972656 668.214844 1075.257813 648.027344 1077.171875 628 C 1080.691406 591.125 1085 554.066406 1085 517 C 1091.9375 521.242188 1095 533 1098.304688 540 C 1107.980469 561.457031 1115.4375 584.742188 1119.246094 608 C 1125.660156 647.15625 1111.8125 679.738281 1108.171875 718 C 1104.570313 755.796875 1118.882813 793.203125 1138 825 C 1144.265625 835.417969 1150.703125 848.066406 1160 856 C 1154.769531 838 1143.171875 821.121094 1135.308594 804 C 1126.589844 785.011719 1121.652344 765.800781 1120.183594 745 C 1118.574219 722.191406 1127 698.125 1131.550781 676 C 1135.675781 655.382813 1136.273438 634.726563 1132.390625 614 C 1127.640625 588.65625 1118.699219 564.519531 1106 542 C 1100 531.253906 1086.464844 519 1084.328125 507 C 1082.609375 497.382813 1083.8125 486.796875 1082.832031 477 C 1078.722656 436 1069 390.324219 1038.996094 360 C 1030.644531 351.5625 1019.628906 341.421875 1008 338 C 1011.734375 345.355469 1021.1875 349.164063 1026.910156 355.039063 C 1036.644531 365.03125 1044 377.214844 1049.574219 390 C 1072.691406 444.058594 1059 503.5625 1059 560 L 1058 560 C 1058 523.101563 1046.570313 482.570313 1020 456 C 1012 448.140625 1003.214844 441 993 436.3125 C 989.800781 435 984 432.179688 981.621094 436.265625 C 979.273438 440.214844 984.183594 443 987 444.457031 C 997.761719 450.507813 1007.558594 456.488281 1015.699219 466 C 1032.335938 485.4375 1037 509.234375 1037 534 C 1036.996094 542.398438 1036.921875 554.429688 1032.441406 562 C 1029.273438 567.09375 1024.601563 562.191406 1022 559 C 1015.824219 550.675781 1010.664063 541.488281 1004.570313 533 C 983.21875 503.253906 949 470.289063 910 488.308594 C 903.414063 491.347656 897.460938 495.539063 892 500.289063 C 879.457031 511.199219 868.71875 524.285156 858 537 C 854.402344 541.394531 849.652344 548.460938 843 546 C 828.597656 540.597656 824.675781 518.097656 822 505 C 814.597656 468.679688 823.695313 442.429688 847.84375 415 C 855.695313 406.082031 864 395.484375 876 392 C 873.972656 395.640625 864.601563 406.476563 870.332031 410.246094 C 875 413.34375 885.84375 398.289063 893 398.648438 C 906.339844 399.316406 920.695313 396.066406 934 398.464844 C 946.796875 400.773438 958.410156 409 969 416 C 971.3125 417.542969 988.792969 431.558594 988.792969 423 C 988.792969 418.335938 981.175781 414 978 411.425781 C 968.421875 404 958.316406 397.035156 947 392.453125 C 941 390.070313 933 390 931 383 C 944 385.753906 954 394.433594 966 400 C 956.683594 381.296875 931 371.03125 911 371 C 871.980469 371 828.300781 393.488281 810.984375 430 C 801.597656 449.796875 809.375 493.507813 777 491 C 767.554688 490.148438 758.4375 484 755 475 C 753.976563 472.003906 752.71875 459.054688 748.425781 459.054688 C 744.257813 459.054688 743.570313 473.039063 742.4375 476 C 737.78125 488.132813 717.222656 496.09375 706.1875 487.347656 C 694 477.796875 696.390625 450.65625 691.289063 437 C 683 415.179688 659.769531 392.808594 640 381.429688 C 615.371094 367.25 582.414063 367.269531 557 379.757813 C 547.230469 384.558594 536.339844 389.757813 533 401 C 543.617188 391.25 555.992188 386 570 383 C 566 390.179688 558.894531 390.382813 552 393.285156 C 541.238281 397.8125 531.207031 404.277344 522 411.425781 C 518.632813 414.039063 511.296875 418.339844 510.632813 423 C 509.347656 431.785156 525.367188 420.085938 527 419 C 539 410 552.695313 400.488281 568 398.300781 C 580.238281 396.550781 592.632813 399.574219 605 398.226563 C 611.773438 397.484375 624.585938 412.28125 628.242188 408.457031 C 634.589844 401.820313 618.304688 389.320313 615 385 C 628.269531 389.328125 637.316406 398.316406 647 408 C 674.757813 435.757813 685 463.183594 678.585938 502 C 676.203125 516.207031 672.734375 538.597656 658 545.527344 C 648.453125 550.019531 640 535 635 529 C 619.59375 511.046875 602.601563 488.488281 578 483.449219 C 544 476.492188 516.167969 506 498.425781 531 C 492 540 486.605469 549.386719 479.789063 558 C 477.839844 560.460938 474.816406 565.363281 471 565 C 464 564.203125 463.339844 542.269531 462.914063 537 C 460.648438 508.792969 469.292969 476.328125 492 457.617188 C 498.882813 452 506.472656 448.246094 513.996094 443.648438 C 516 442.363281 519.546875 440.113281 518.652344 437.144531 C 517 431.8125 509 435.304688 506 436.808594 C 495.289063 442.113281 486.371094 449.589844 478 458 C 451.617188 484.507813 445.5 522.414063 441 558 L 440 558 C 439.832031 496.683594 428.664063 433.160156 458.257813 376 C 467 359.109375 483.527344 351.5625 494 337 C 481.566406 340.65625 470.90625 351.050781 462 360 C 431.691406 390.453125 421.191406 436.695313 416.285156 478 C 415 487.546875 416.269531 497.578125 414.785156 507 C 413 517.335938 401.378906 527.785156 396.304688 537 C 384 559.34375 373.902344 583 368.800781 608 C 359 656.105469 382.195313 700.046875 378.910156 748 C 377.410156 770 372.34375 791.15625 362.742188 811 C 355.621094 825.714844 343.796875 840.011719 340 856 C 353.265625 846.574219 360.347656 828 367.78125 814 C 384.371094 782.761719 392.511719 750.417969 390.960938 715 C 390 693.339844 381.230469 672.578125 379.171875 651 C 376.820313 626.417969 381.246094 601.535156 388 578 C 392.335938 563 397.511719 548.210938 404.21875 534 C 407.246094 527.589844 409.261719 520.503906 415 516 C 415 562.675781 416.464844 611.800781 423.273438 658 C 427.972656 690 436.886719 721.640625 447.691406 752 C 456.425781 776.539063 467.511719 800.527344 473.347656 826 C 485.453125 878.8125 480 936.0625 466 988 C 459.328125 1013.300781 450.761719 1038.546875 435.253906 1060 C 424.917969 1074.300781 411 1086 397 1096.371094 C 382.996094 1107 368.195313 1116.175781 353 1125 C 345.390625 1129.195313 337.773438 1134.488281 329 1136 C 333.320313 1122.71875 338.816406 1110.320313 336.5625 1096 C 333.589844 1077.121094 322.449219 1060 314.257813 1043 C 309.746094 1033.675781 306.980469 1023.648438 303.292969 1014 C 299.828125 1005 295 999.1875 295 989 L 296 989 C 308 1010.789063 322.664063 1030.054688 330.644531 1054 C 335.808594 1069.488281 337.441406 1096.085938 349 1108 C 338.785156 1066.539063 331.699219 1025.269531 306.972656 989 C 302.65625 982.671875 295.933594 976.445313 293.648438 969 C 292.722656 966 293.347656 959.542969 288.933594 959.035156 C 284.777344 958.5625 282.867188 965 282.328125 968 C 280.613281 977.746094 284.167969 986.703125 286.347656 996 C 286.835938 998.085938 288.578125 1007.417969 283.296875 1004.824219 C 278.394531 1002.414063 280.234375 985.730469 279.910156 981 C 278.578125 961.574219 280.535156 941.15625 284.449219 922 C 285.59375 916.40625 291.691406 904.597656 287.976563 899.296875 C 285 895.28125 281.554688 901.8125 280.492188 904 C 276.503906 912.238281 273.84375 921.199219 271.425781 930 C 262.625 962.027344 271.484375 990.132813 274 1022 L 273 1022 C 261.8125 1005.023438 258.574219 983.746094 255.730469 964 C 254.574219 956 252.402344 947.089844 253.171875 939 C 255.300781 916.613281 262.445313 898.136719 258.566406 875 C 250.898438 829.304688 219.609375 789 224.171875 741 C 226.410156 717.457031 233 694.070313 241.425781 672 C 245.734375 660.578125 255 647.683594 253 635 C 226.867188 670.28125 203.90625 725.21875 208.171875 770 C 210.84375 798.089844 223 824 230 851 C 234.730469 868.574219 236.753906 886 235 904 C 234 914.761719 231 925.726563 220 930 C 223 917.289063 226.820313 904.195313 225.910156 891 C 224.21875 866.433594 213.519531 842.773438 207.882813 819 C 202.328125 795.558594 200.726563 772 199 748 C 198 733.5625 199.421875 718.308594 201.28125 704 C 201.753906 700.367188 203.929688 691 198.867188 689.347656 C 191.957031 687.230469 190.191406 704.035156 189.398438 708 C 185 729.59375 182 752 182 774 L 181 774 C 180 751.769531 176 732.34375 181.234375 710 C 191.328125 666.761719 219.742188 630.601563 243.308594 594 C 259.746094 568.46875 272.988281 541.023438 288.601563 515 C 300.679688 495 315 476.796875 329 458 C 333.695313 451.824219 334.378906 443.695313 340 438.441406 C 353.585938 426.039063 370.820313 421.234375 388 417 C 369.753906 403.734375 341.578125 426.707031 326 435 C 328.691406 428.054688 334.832031 423.167969 340 418 C 352 406 365.351563 394.171875 381 387.027344 C 388.820313 383.460938 397 381 405 377.796875 C 407.804688 376.679688 412.625 375.265625 413.652344 372.003906 C 416 364.136719 393.328125 373.605469 394.464844 365.117188 C 395.382813 358.289063 415.253906 360.484375 419.996094 359.316406 C 428.875 357.132813 422.542969 353.117188 417 352.300781 C 415 352.007813 413 352.015625 411 352 C 417.292969 344.660156 429 343.308594 438 341.128906 C 460.324219 335.707031 485 336.109375 505 323.300781 C 517.390625 315.335938 527 304 539 295.429688 C 553.722656 285 570.3125 277.152344 586 268.148438 C 603.964844 258 621.535156 246.449219 641 239.0625 C 727.371094 206.304688 835.875 216.160156 916 261.425781 C 935.796875 272.609375 954.714844 285.644531 972 300.429688 C 983.84375 310.558594 994.878906 323.128906 1009 330.191406 C 1021.355469 336.367188 1035.636719 336.351563 1049 338.425781 C 1062.863281 340.574219 1075 344.644531 1088 350 M 580 401.4375 C 567.707031 403.359375 553.59375 408.160156 544 416.328125 C 538.488281 421.039063 535 429.109375 542 434.347656 C 548.222656 439.015625 557.695313 438.25 565 439.285156 C 575.863281 440.828125 586.925781 444.117188 597 448.425781 C 605.53125 452.074219 613.4375 457.089844 621 462.425781 C 623.566406 464.234375 628 468.621094 631.640625 467.289063 C 637.792969 465 623.824219 453.128906 622 451.589844 C 610.625 442 598 434.222656 584 429.34375 C 580.515625 428.140625 568.765625 427.191406 567.207031 423.59375 C 565.890625 420.554688 573.171875 418.347656 575 417.605469 C 582.492188 414.566406 593 414.03125 599.851563 410 C 609.195313 404 593.898438 401.007813 590 401 C 586.65625 401 583.316406 401 580 401.4375 M 937 425 C 917.285156 426 895.925781 437.179688 881 449.464844 C 878.339844 451.65625 864 462.8125 868 467 C 872.4375 471.476563 886.519531 457.785156 890 455.546875 C 908 444 928.253906 441.015625 949 437.703125 C 955.230469 436.707031 962.378906 433.367188 961.871094 426 C 961.449219 420 955.847656 416 951 413.015625 C 939.996094 406.441406 926.949219 401.332031 914 401.015625 C 910.65625 401 893.273438 400 897.289063 407.621094 C 899.445313 411.742188 907 412 911 413 C 920.371094 415.25 929.589844 418.699219 937 425 M 361 446 C 345.378906 484.074219 327.90625 521.632813 306.800781 557 C 289.839844 585.421875 267.683594 612.699219 258.425781 645 C 249 677.476563 252.421875 710.085938 257.273438 743 C 262.441406 778.105469 269.667969 813 274.730469 848 C 275.976563 856.652344 277.203125 865.304688 278 874 C 278.195313 875.179688 278.808594 881.707031 281.402344 879.824219 C 284 878 282.898438 871.8125 283 869 C 283.882813 857.453125 283.8125 846.546875 283 835 C 279.9375 789.804688 270.964844 745.152344 268 700 C 263.972656 635.335938 312.59375 588.660156 337.691406 534 C 346 515.546875 353.476563 496.597656 358.847656 477 C 361 469 361.285156 454 365.9375 447.226563 C 368.921875 443 375.433594 443.082031 379 439 C 369.867188 436.300781 358.6875 440 350 443.054688 C 347.34375 444.019531 341.539063 445.441406 340.921875 448.789063 C 340 453.101563 358.792969 447 361 446 M 1120 439 C 1123.804688 443 1130 443.035156 1133 448.042969 C 1138 456.132813 1138.761719 469 1141.425781 478 C 1146.496094 495.363281 1152.753906 512.546875 1160.308594 529 C 1178.445313 568.507813 1208.761719 603 1222.921875 644 C 1231.167969 668 1232.21875 693 1229.828125 718 C 1225.90625 759.074219 1217 799.632813 1217 841 C 1217 849.679688 1212.765625 875.460938 1221 880 C 1221 814.667969 1250.832031 751.550781 1247.960938 686 C 1245.171875 622.300781 1201.261719 574.535156 1172.308594 521 C 1159.769531 497.8125 1153.882813 467.828125 1138 447 C 1145.339844 448.425781 1152.488281 450.675781 1160 451 C 1154.535156 440.3125 1130.753906 435.820313 1120 439 M 973 447.757813 C 967.582031 450.09375 972.222656 455.78125 975 458.113281 C 987.996094 468.820313 1000 478.675781 1009.308594 493 C 1011.441406 496.308594 1016.246094 507 1021.683594 504 C 1027.699219 500.585938 1020.261719 487.816406 1018 484 C 1010.925781 471.039063 1000.792969 460.078125 988 452.453125 C 984 450.164063 977.828125 445.792969 973 447.757813 M 520 448.53125 C 503.757813 452.171875 489.546875 469 482.257813 483 C 480.609375 486.191406 470.902344 504.363281 480 504.363281 C 486.34375 504.363281 490.230469 493.425781 492.863281 489 C 497.785156 480.734375 504.558594 472.566406 512 466.464844 C 516.507813 462.769531 522.839844 460.320313 526.566406 455.816406 C 531.414063 450 525.457031 447.304688 520 448.53125 M 1093 449 C 1094.449219 457 1101.40625 463.253906 1105.679688 470 C 1113.300781 482.027344 1119.75 495.0625 1125.691406 508 C 1145.652344 551.476563 1161.949219 596.730469 1174 643 C 1187.925781 695.523438 1194.699219 749.105469 1199.828125 803 C 1201 815.761719 1201.523438 829.171875 1200.960938 842 C 1200.527344 852 1198.738281 861.367188 1202 871 C 1208.3125 863.355469 1208 852.363281 1209.425781 843 C 1212.890625 819.59375 1214 796.644531 1214 773 C 1214 686.613281 1185.5625 603.621094 1147.246094 527 C 1138 508.53125 1127 491.164063 1115.667969 474 C 1109.539063 464.808594 1103 454.234375 1093 449 M 299 874 C 299 769.757813 315 664.230469 351 566 C 360.863281 539.152344 371.421875 512.304688 384.78125 487 C 391.382813 474.496094 403 463.691406 407 450 C 397.917969 453 393.382813 461.640625 388 469 C 375.734375 486.425781 364.679688 505.0625 354.746094 524 C 313.914063 602 289.8125 685.0625 285.960938 773 C 284.859375 798.148438 287.171875 823.066406 291.246094 848 C 292.515625 855.777344 291.734375 869.238281 299 874 M 212 657 C 227.949219 656.128906 237.949219 631.023438 245 619 C 268.574219 579 295.539063 540.691406 321.332031 502 C 328.980469 490.53125 335.726563 478.492188 343.332031 467 C 345 464.320313 350.472656 458.066406 347.929688 454.617188 C 344.851563 450.445313 337.175781 458.210938 335 460.171875 C 323.824219 470.238281 315.507813 483.492188 307.34375 496 C 278.894531 539.578125 254.59375 585.660156 229 631 C 224 640.09375 217 648 212 657 M 1287 658 C 1282.578125 644.121094 1270.367188 630.046875 1263.308594 617 C 1241 575.761719 1216.964844 535.726563 1192 496 C 1184.335938 483.695313 1175.898438 471.59375 1165.910156 461.003906 C 1163.480469 458.429688 1156.839844 450.808594 1152.617188 454.046875 C 1148.789063 457 1154.980469 464.449219 1156.667969 467 C 1164.664063 479.085938 1171.882813 491.714844 1179.574219 504 C 1202.867188 541.199219 1229.710938 576.148438 1251.988281 614 C 1260.832031 629.027344 1268.574219 652.679688 1287 658 M 598.363281 469.03125 C 594 472.097656 600.800781 477.632813 603 479.574219 C 614.261719 489.492188 623.292969 501 630.71875 514 C 631.960938 516.179688 637.230469 527.4375 640.972656 524.824219 C 644.679688 522.234375 639.339844 511 638.1875 508 C 632.914063 494.382813 625 482.1875 613 473.722656 C 609.574219 471.324219 602.777344 466 598.363281 469.03125 M 896.996094 468.550781 C 879.984375 471.777344 868.398438 491.324219 862.453125 506 C 861.464844 508.445313 854 527 860 526 C 864.921875 525.132813 867.789063 516.691406 869.859375 513 C 874.871094 504.074219 880.808594 495.308594 888 488.003906 C 892.320313 483.640625 899.308594 479.675781 901.953125 474.003906 C 903.835938 470 900.796875 467.828125 896.996094 468.550781 M 1022 551 C 1019.261719 529.78125 1008.695313 509.050781 994.710938 493 C 992.46875 490.425781 979.972656 476.511719 975.832031 480.136719 C 972.925781 482.679688 985 494 986.703125 496 C 995.671875 506.609375 1002.898438 519 1009.5625 531 C 1013.441406 538.0625 1015.277344 546.003906 1022 551 M 478 549 C 484.597656 546 487 539 490.601563 533 C 497.589844 521.195313 504.746094 509.414063 512.355469 498 C 514.230469 495.183594 523.839844 484.695313 519.957031 481.070313 C 515.675781 477.074219 504.230469 490.324219 501.871094 493.015625 C 487.949219 509 480.617188 528.296875 478 549 M 714 504.285156 C 739.609375 501.140625 755.195313 534 739.441406 554 C 733.894531 561.027344 724.992188 561 717 563 C 707.492188 565.28125 698.265625 569.441406 690 574.695313 C 664.683594 590.78125 644.472656 612.359375 624 634 C 611.75 647.011719 598.199219 663.761719 579 665.824219 C 540.648438 670 513.207031 637.503906 493.433594 609 C 487.65625 600.664063 482.28125 591.09375 480.464844 581 C 479.914063 578 479 572.164063 481.742188 570 C 487.734375 564.6875 500.71875 584.382813 504 588 C 522.183594 607.421875 546.550781 631 575 630.113281 C 600.921875 629.398438 625.238281 611 644 594.71875 C 651.507813 588.222656 659.96875 581.167969 664.324219 572 C 667.230469 566 664.726563 559.234375 666.652344 553 C 668.46875 547.109375 673.554688 542.230469 676.691406 537 C 686.539063 520.578125 693.238281 507 714 504.285156 M 774 504.390625 C 798.460938 499.070313 812 518.808594 823.203125 537 C 826.382813 542.203125 831.351563 547.167969 833.296875 553 C 835.808594 560.527344 832.554688 567.769531 837 575 C 850.859375 597 876.789063 613 900 623.136719 C 931.382813 637.011719 959.652344 624.066406 983 601 C 991.199219 593 999 584.667969 1006.71875 576 C 1009.203125 573.164063 1012.4375 568.519531 1016.851563 569.378906 C 1020.609375 570.105469 1020 575.136719 1019.960938 578 C 1019.578125 586.816406 1015.5 595.601563 1010.933594 603 C 996.570313 626.269531 970.730469 658.417969 943 665.101563 C 918.195313 671.078125 899.570313 656.570313 883 640 C 860.78125 617.78125 840.605469 593.617188 814 576.34375 C 805.894531 571.082031 796.535156 567 787 565.09375 C 778.535156 563.488281 767.847656 563.816406 761.683594 556.8125 C 749 542.558594 753 509 774 504.390625 M 580 514.433594 C 588.175781 512.117188 598.636719 519.445313 603.722656 525.175781 C 606.394531 528.183594 608.480469 534.769531 602.941406 536.207031 C 600.214844 537 578.613281 532.289063 576.433594 530.398438 C 571.628906 526.222656 574 516.128906 580 514.433594 M 914 514.328125 C 921.347656 513.054688 930.464844 520.148438 924.257813 527.683594 C 921.859375 530.589844 904 535.308594 900 535.769531 C 894.1875 536.410156 892 531.480469 895.320313 527 C 899.453125 521.410156 907 515.542969 914 514.328125 M 517 539 C 516 553.4375 518 568.625 526 581 C 542.550781 606.667969 578 615.742188 603 596.472656 C 613.316406 588.484375 621 577.027344 623 564 C 623.761719 559.375 621.765625 553.71875 623.316406 549.335938 C 624.179688 547 626.507813 548.179688 627.976563 549.335938 C 640.445313 559.179688 631.371094 579.339844 623.53125 589 C 608 608.089844 572.742188 624.8125 550 611.714844 C 531.878906 601.28125 510.28125 582.769531 510 560 C 509.910156 552.40625 509.269531 543.019531 517 539 M 877 542 C 876.902344 554 874.980469 564.578125 880.324219 576 C 894.648438 606.621094 934.542969 616.296875 961 595.480469 C 974.289063 585.027344 979.382813 572.394531 984.441406 557.019531 C 985.332031 554.316406 988 550 991.398438 553 C 994.359375 555.433594 991.679688 561.066406 990.65625 564 C 986.898438 574.757813 980.652344 584.675781 972.910156 593 C 962.671875 604.011719 949 617.394531 933 618 C 920.726563 618.230469 907.449219 611.433594 897 605.6875 C 877.707031 595.085938 847.859375 559 877 542 M 310 901 C 315.226563 896.507813 316.523438 889.230469 319 883 C 324.296875 869.675781 329.421875 856.292969 334.800781 843 C 349 807.730469 365.269531 773.550781 367.910156 735 C 370 704.226563 362 673.691406 362 643 C 362 621.761719 362 599.347656 369 579 C 370.21875 575.402344 376.820313 562.417969 369.867188 560.832031 C 363.5625 559.394531 360.222656 572 358.601563 576 C 351.609375 593.625 348 612.066406 348 631 C 348 675.644531 358 720.691406 348.789063 765 C 342.367188 795.371094 331 824.496094 321.65625 854 C 316.824219 869.121094 310 885 310 901 M 1190 900 C 1189.957031 884.128906 1182.96875 868 1178 853 C 1168.195313 823.582031 1156.546875 794.492188 1150.449219 764 C 1141.746094 720.488281 1152 675 1152 631 C 1152 612.148438 1147.992188 593.558594 1141.1875 576 C 1139.570313 571.828125 1136.171875 560.347656 1130 561.035156 C 1123 562 1129.847656 576 1130.921875 579 C 1137.949219 599.570313 1138 622.53125 1138 644 C 1138 680.144531 1128.777344 715.757813 1133.285156 752 C 1137.425781 785.273438 1153.636719 816.566406 1166.71875 847 C 1171.6875 858.558594 1176.414063 870.285156 1180.996094 882 C 1183.503906 888.402344 1184.578125 895.351563 1190 900 M 495 632 C 502.398438 635.453125 506.53125 643.238281 512 649 C 522 659.578125 534.519531 669.796875 549 673.523438 C 556.894531 675.550781 574.59375 674 578.257813 683.042969 C 582 692.59375 569.757813 702.03125 565.242188 709 C 552.5 728.675781 542 751.585938 535.28125 774 C 532.6875 782.589844 529 793.613281 518 792.773438 C 503.90625 791.707031 494.648438 776.804688 488.199219 766 C 471.753906 738.4375 456 697.703125 459.171875 665 C 460 655.09375 463.230469 645.242188 466.8125 636 C 468.308594 632.132813 472.257813 626.378906 471.25 622.101563 C 469.277344 613.722656 457.316406 637.679688 452.359375 624 C 447 609.402344 447 593.011719 450.210938 578 C 450.957031 574.480469 452.953125 561.777344 458.828125 564.175781 C 465.625 567 469.210938 582.726563 471.574219 589 C 479.988281 611.316406 479.71875 653 502.996094 666 C 504.652344 667 508.355469 668.054688 508.167969 665 C 507.945313 661.050781 503.570313 657.222656 501.796875 654 C 498 647.152344 495.621094 639.800781 495 632 M 1005 632 C 1004.40625 639.445313 1002.386719 647.542969 998.523438 654 C 996.699219 657.046875 991.199219 661.636719 991.445313 665.410156 C 991.632813 668.292969 995.636719 666.746094 997 666 C 1020.394531 652.742188 1019.550781 611.351563 1028.605469 589 C 1030.78125 583.628906 1036.386719 565.578125 1042.285156 563.753906 C 1047.195313 562.230469 1048.929688 575.078125 1049.574219 578 C 1052.851563 593 1052.960938 609.496094 1047.789063 624 C 1044.535156 633.121094 1039.894531 626.402344 1035.714844 622.121094 C 1033.71875 620.082031 1029.902344 617.746094 1029 622.125 C 1028 626.660156 1031.917969 632 1033.546875 636 C 1037 644.523438 1039.910156 653.804688 1040.828125 663 C 1044.1875 696.585938 1027.925781 737.425781 1011.574219 766 C 1005.316406 777 996 792.152344 982 793 C 970.800781 793.476563 968 782.578125 965.328125 774 C 957.902344 751.230469 947.589844 729.128906 934.558594 709 C 930 702.113281 917.964844 692.480469 921.605469 683.042969 C 925.175781 673.789063 942.179688 675.605469 950 673.765625 C 965.898438 670.019531 978.898438 658.367188 989.984375 647 C 994.855469 642.007813 998.605469 635.046875 1005 632 M 727 570.289063 C 743.726563 568.109375 768 567.257813 784 573 C 808.75 581.546875 827.277344 602.5625 846 620 C 861.246094 634.039063 878 646.738281 891.195313 663 C 918.21875 696.414063 935.992188 738.757813 952.851563 778 C 968.964844 815.519531 969.328125 848.742188 945 883 C 935.726563 896.058594 924.566406 907.578125 908 909.710938 C 885.167969 912.648438 867.695313 891.273438 857.203125 874 C 837.757813 842 819.265625 800.558594 780 789.429688 C 731.429688 775.660156 688.664063 799.054688 661.355469 840 C 644 866 637.363281 908.0625 599 908 C 594 908 589.71875 907.3125 585 905.804688 C 578.90625 904 573 901.0625 568 897.238281 C 561 892.039063 555.488281 885.183594 550.671875 878 C 519.527344 831.578125 544.351563 786.132813 564.695313 741 C 572.445313 723.804688 579.421875 706.070313 589.425781 690 C 597.558594 677 607 665.507813 617.285156 654 C 629.667969 640 644.863281 627.808594 659 615.574219 C 678.964844 598.296875 699.179688 574 727 570.289063 M 879 675 C 873.214844 675 867.617188 675.175781 862 673.570313 C 834.746094 665.792969 839.929688 635.152344 826.210938 616 C 812.972656 597.515625 789.691406 590.574219 768 589.089844 C 735 586.828125 692.5625 588 672.550781 619 C 664.703125 631.183594 666.632813 647.1875 658.210938 659 C 650.300781 670.097656 639.78125 673.246094 627 675.019531 C 624.761719 675.332031 622.265625 676.179688 623.890625 679 C 632.65625 693.746094 656.972656 663.371094 665.425781 680.042969 C 672.589844 694.160156 650.5 707.421875 639 708.816406 C 636.835938 709.078125 623.644531 707.820313 626.175781 712.828125 C 628.542969 717.511719 638.886719 716.359375 643 715.480469 C 655.40625 713 671.414063 698.605469 682.773438 711.105469 C 690.25 719.335938 682.453125 728.644531 675 733.21875 C 672.945313 734.496094 668.570313 737.453125 672.335938 739.785156 C 675.746094 742 681 739 684 737.03125 C 692.367188 731.617188 694.832031 723 706 723.003906 C 709.386719 723.027344 713.933594 723.015625 715.972656 726.277344 C 720.9375 734.234375 711 745.050781 706 749.828125 C 704.265625 751.492188 699.433594 755.359375 702.621094 758 C 707 761.582031 714.21875 755 716.894531 752 C 724 744.308594 725.777344 721.472656 739.996094 723.273438 C 753.222656 725 741.292969 744.601563 749.378906 747.246094 C 752.773438 748.359375 753.714844 743.1875 753.90625 741 C 754.492188 734.316406 752.183594 723.636719 762 723.152344 C 775.644531 722.476563 776.613281 744 783.519531 751.824219 C 786 754.816406 793.257813 761.046875 797.621094 758 C 801.253906 755.390625 795.789063 751.359375 794 749.714844 C 788.96875 745.046875 776.984375 730.011719 787 724.574219 C 800.707031 717.269531 806.621094 731 816 737.03125 C 818.707031 738.792969 826.5 743.039063 828.824219 738.605469 C 830.613281 735.191406 823.976563 732.675781 822 731.210938 C 816.71875 727.1875 810.695313 718.40625 815.4375 712.019531 C 825.703125 698.195313 844 711.457031 856 715 C 860.253906 716.199219 871.375 718.023438 873.824219 712.828125 C 876.25 707.683594 864.292969 709.09375 862 709 C 851 708.015625 826.886719 693.761719 834.179688 680.042969 C 843.175781 663.117188 869.277344 695.226563 879 675 M 749 660 C 746 653.070313 746.84375 645 743.289063 638.003906 C 742.339844 636.132813 740 632.164063 737.445313 633.207031 C 733.3125 634.789063 737 645 737.277344 648 C 737.71875 660.191406 730 675 716 672.785156 C 714.535156 672.558594 710.394531 671.652344 711.347656 669.316406 C 713.40625 664.246094 724.917969 662 728.894531 658 C 739.222656 647.546875 733.507813 620.648438 717.285156 619 C 710.929688 618.332031 699.171875 626.265625 698.832031 633 C 698.578125 638.058594 711.34375 644 699.996094 645.785156 C 691 647.21875 679.945313 644.074219 683.472656 633 C 693.238281 602.328125 733.441406 606.117188 758 606 C 768 606 777 604.605469 787 607.746094 C 798.40625 611.386719 818.539063 621.527344 817.496094 636 C 816.957031 643.511719 799.746094 652.578125 795.175781 644.261719 C 793.351563 641 799.582031 637 798.894531 633 C 796.464844 619.179688 777.730469 616.152344 769.183594 625.09375 C 758.6875 636.078125 761 650.414063 772 659.789063 C 774.320313 661.78125 788.664063 667.316406 786.824219 670.671875 C 781.855469 679.714844 766.351563 668 763.53125 663 C 760.71875 658.101563 759 651.636719 759.628906 646 C 759.964844 643.019531 762.492188 636.238281 759.976563 633.753906 C 757.597656 631.402344 754.714844 636.378906 753.917969 638.003906 C 750.726563 644.554688 749.910156 653 749 660 M 1084 640 C 1091.480469 634.125 1093.609375 622.105469 1094 613 C 1086.175781 617.441406 1084.65625 631.769531 1084 640 M 409 623 C 409.316406 630 411.453125 636.644531 417 641 C 416.414063 634.304688 413.996094 627.617188 409 623 M 352 1033 C 357.839844 1029.796875 358.917969 1022.816406 361.203125 1017 C 366.851563 1002.605469 372.578125 988 376.859375 973 C 387 937.339844 396.75 902 401.71875 865 C 404.984375 840.738281 405.253906 816.140625 408.425781 792 C 410.953125 772.746094 410.890625 753.300781 414 734 C 414.648438 730.570313 418.71875 717.210938 413.6875 715.753906 C 407.476563 714 404.234375 727.042969 403 731 C 398 749.558594 397.746094 769.019531 395.28125 788 C 389.210938 834.703125 386.710938 882 376.574219 928 C 371.578125 950.753906 366.34375 973.410156 360.625 996 C 357.554688 1008.128906 352.542969 1020.398438 352 1033 M 1148 1033 C 1147.914063 1022.609375 1143.894531 1013 1141.375 1003 C 1136.738281 984.699219 1132.238281 966.367188 1127.882813 948 C 1115.285156 895 1104.917969 837.699219 1104 783 C 1103.707031 765.335938 1101.292969 747 1096.421875 730 C 1095.355469 726.28125 1092.378906 714 1086.429688 715.753906 C 1081.300781 717.285156 1084.992188 729.597656 1085.566406 733 C 1088.628906 751.261719 1090.96875 770.496094 1091 789 C 1091 851.65625 1104.222656 914.664063 1124 974 C 1128.59375 987.785156 1133.203125 1001.503906 1138.601563 1015 C 1141 1021.296875 1142.710938 1028.464844 1148 1033 M 620 735.425781 C 606.191406 737.238281 591 740.039063 579 747.46875 C 575.78125 749.453125 562.894531 760.210938 573 761.5625 C 579 762.375 585.714844 757.691406 591 755.3125 C 599.171875 751.632813 608.195313 749.566406 617 748.082031 C 621.84375 747.265625 629.582031 748.105469 633.5625 745 C 641.871094 738.242188 623.949219 735 620 735.425781 M 874 735.46875 C 870.570313 736.117188 860.679688 739.5625 865.378906 744.488281 C 868.84375 748.121094 875.527344 746.742188 880 747.4375 C 890.507813 749.078125 901.386719 751.632813 911 756.257813 C 915.535156 758.441406 922.628906 763.160156 927.851563 761 C 936.8125 757.160156 922.40625 747.757813 919 746 C 906.640625 739.171875 888.234375 732.777344 874 735.46875 M 368 1093 C 374.542969 1089.78125 376.304688 1082.207031 379.253906 1076 C 385.722656 1062.402344 391.828125 1048.632813 398.21875 1035 C 427.261719 973.050781 448 906 456 838 C 458.699219 816.734375 456.757813 794.195313 449.414063 774 C 447.238281 768.023438 443.613281 756.539063 436 755.582031 C 428.425781 754.617188 432.464844 766.496094 433.425781 770 C 439.226563 791.226563 435.253906 812.46875 434.996094 834 C 434.199219 900.550781 410.800781 966.601563 390 1029 C 382.992188 1050.023438 372.480469 1071.359375 368 1093 M 1133 1092 C 1124.632813 1062.515625 1111.691406 1034.257813 1102.34375 1005 C 1084.835938 950.199219 1071.378906 894.273438 1064.949219 837 C 1062.570313 815.8125 1060.667969 793 1065.894531 772 C 1066.703125 768.753906 1071.324219 754.621094 1063.941406 755.582031 C 1056.539063 756.542969 1052.53125 768.125 1050.203125 774 C 1042.386719 793.734375 1042 816.054688 1043 837 C 1046 905.59375 1074.929688 970 1101.71875 1032 C 1107.976563 1046.5 1115.367188 1060.496094 1121.574219 1075 C 1124.179688 1081.089844 1126 1089.746094 1133 1092 M 605 776.425781 C 590.667969 778.375 576 781.507813 564 790 C 560.640625 792.234375 548 804.464844 559 805 C 565.976563 805.179688 572 800.15625 578 797.257813 C 586.457031 793.140625 595.726563 790.105469 605 788.464844 C 610.308594 787.523438 619.34375 789 623.675781 785.257813 C 633.601563 777 608.582031 776 605 776.425781 M 881 776.484375 C 877 777.34375 871.40625 781.410156 876.191406 785.261719 C 881 789.214844 889.21875 787.535156 895 788.4375 C 906.265625 790.199219 916.96875 794.5 927 799.78125 C 931.398438 802.097656 937.566406 806.628906 942.851563 804.394531 C 952.945313 800.121094 935.515625 789.078125 932 787.257813 C 917 779.503906 898.175781 772.710938 881 776.484375 M 1015 789 C 1009.703125 801.71875 1000.414063 811.320313 993.453125 823 C 982.753906 841 977.652344 862.152344 979 883 C 981.917969 924.070313 999.914063 966.023438 1012 1005 C 1016.242188 1018.570313 1027.886719 1039.769531 1025.847656 1054 C 1025 1059.410156 1019.835938 1062.691406 1016 1066 C 1007.769531 1073.101563 999.851563 1080.535156 993 1089 C 990.609375 1092 985.90625 1099.59375 981.214844 1097.671875 C 972.945313 1094.289063 978.429688 1080 974.257813 1074.121094 C 970.679688 1069.136719 965.554688 1072 962.652344 1076.019531 C 958.585938 1081.703125 959.996094 1089.4375 960 1096 L 959 1096 C 957.914063 1092.328125 958.328125 1088.734375 957.671875 1085 C 956.453125 1078.074219 948 1069.214844 943.195313 1079.019531 C 939 1087.253906 943.996094 1096.523438 937 1105 C 933.265625 1099 930 1092.265625 923 1089.371094 C 919.625 1088 914.59375 1088.503906 914 1093.019531 C 913.488281 1097.226563 918.503906 1102.046875 919.777344 1106 C 923.726563 1118.277344 921.902344 1133 911 1141 C 914.464844 1128.675781 915.695313 1115.289063 911.300781 1103 C 909.871094 1099.007813 904.984375 1088 899.433594 1093.335938 C 894.167969 1098.464844 897.542969 1111.324219 896.824219 1118 C 895.582031 1129.582031 889.308594 1141.433594 883 1151 L 882 1151 C 886.410156 1132.476563 880.652344 1111.191406 866.996094 1098.039063 C 862 1093.292969 855.609375 1089.125 849 1087.121094 C 846.421875 1086.339844 841.484375 1086.179688 841.484375 1090.109375 C 841.484375 1094.558594 848.195313 1098.261719 850.960938 1101.039063 C 856.5 1106.609375 861.605469 1114.179688 863 1122 C 841.644531 1109.671875 818.476563 1087.460938 791 1094 C 798.335938 1100.027344 807.773438 1102.273438 816 1107 C 828 1113.644531 839.25 1122.28125 850 1131.078125 C 854.726563 1135 864 1138.109375 866.398438 1144.039063 C 869.632813 1152.390625 864.773438 1166 857.957031 1171 C 841.464844 1183.320313 820.507813 1188.382813 803 1199.0625 C 787.921875 1208.261719 777.898438 1222.003906 764 1232 C 769.953125 1216.566406 774.890625 1200.25 769 1184 C 767.699219 1180 759.652344 1162.429688 753.605469 1169.335938 C 750.382813 1173.023438 754 1179.078125 755 1183 C 757.234375 1191.800781 756.886719 1201.160156 755.195313 1210 C 754.683594 1212.675781 753.789063 1221.792969 749.910156 1221.792969 C 746.242188 1221.792969 744.84375 1213.609375 744 1211 C 741.726563 1201.777344 741.300781 1192.308594 743.503906 1183 C 744.421875 1179.113281 748 1173.046875 745.21875 1169.324219 C 739.742188 1162.296875 732.21875 1177.195313 730.617188 1181 C 724.191406 1196.246094 728.496094 1209.726563 732 1225 C 719.753906 1219.289063 710 1206 698 1199 C 680.222656 1188.410156 655.824219 1183.222656 640 1170.238281 C 634 1165.230469 629 1150.507813 633.179688 1143.09375 C 635.730469 1138.40625 642 1136.210938 646 1132.820313 C 658.816406 1121.753906 671.988281 1108.445313 688 1102.066406 C 690.796875 1101 707.832031 1096.011719 705.792969 1091.558594 C 703.886719 1087.398438 690 1091.820313 687 1092.628906 C 675.527344 1095.566406 664.5625 1100.101563 655 1107.15625 C 647.984375 1112.332031 642.273438 1119.800781 634 1123 C 636.671875 1113.785156 641 1105.800781 648 1099.039063 C 650.632813 1096.464844 657 1092.589844 656.167969 1088.148438 C 655.316406 1084.339844 650.527344 1085.527344 648 1086.46875 C 640.914063 1089.109375 635.246094 1093.65625 630 1099 C 615.777344 1113.546875 616 1131 616 1150 L 615 1150 C 609.855469 1137.640625 603.210938 1126.53125 601.433594 1113 C 600.652344 1107.058594 604.523438 1098.160156 599.566406 1093.335938 C 594 1088.078125 589.683594 1098 588.359375 1102 C 584.183594 1114.605469 585.59375 1127.226563 588 1140 C 576.894531 1131.800781 574.765625 1119.53125 579 1107 C 580.585938 1102.707031 586.371094 1095.78125 583.929688 1091.148438 C 577.304688 1078.589844 563.894531 1103.765625 560.320313 1101.824219 C 553.65625 1098.199219 558.769531 1084 555.683594 1078.058594 C 553 1073.066406 547.730469 1074.136719 544.652344 1078.109375 C 540.855469 1083.007813 541 1090.128906 541 1096 L 539 1096 C 539 1089.160156 541 1082.453125 537.558594 1076.042969 C 534.796875 1071.082031 528.546875 1068.636719 524.859375 1074.109375 C 520.726563 1080.238281 526.59375 1094.570313 517.941406 1097.824219 C 512.808594 1099.753906 508.347656 1091.089844 505.699219 1088 C 498.285156 1079.351563 489.636719 1071.527344 481 1064.132813 C 476.75 1060.492188 470.796875 1057.097656 470 1051 C 468.558594 1036.101563 479.660156 1015.019531 484.332031 1001 C 495.289063 968.136719 506.484375 934.371094 511.574219 900 C 514.890625 877.574219 514 853.363281 505.9375 832 C 500 816.746094 490.269531 803.476563 485 788 C 501.292969 791.769531 522 805.394531 525.46875 823 C 527.1875 832.113281 522.699219 839.417969 526.226563 849 C 535.910156 875.28125 552.261719 901.3125 576 917 C 582 921 591.292969 927.113281 599 926.71875 C 604.808594 926.421875 609.871094 921.75 615 919.4375 C 624.570313 915.117188 634.40625 912.363281 645 913.089844 C 659.378906 914.074219 672.945313 919.5 687 922.195313 C 701.683594 925.011719 717 925.308594 732 926 C 756.976563 927.054688 786.367188 927.742188 811 923.386719 C 821.527344 921.523438 830.519531 914.457031 841 913.183594 C 852.441406 911.796875 865.363281 914.242188 876 918.449219 C 886 922.425781 895.730469 929.492188 907 926.214844 C 935.171875 918.019531 964.503906 886.707031 972.960938 859 C 976.53125 847.296875 972.964844 835.761719 975.3125 824 C 978.667969 807.214844 998.535156 791.46875 1015 789 M 353 1082 C 358.390625 1078.820313 360.902344 1072.300781 363.859375 1067 C 370.359375 1055.351563 375.914063 1043.332031 380.988281 1031 C 395.605469 995.46875 403 957.355469 411.425781 920 C 415.675781 901 422.292969 882.398438 425.410156 863 C 428.230469 845.460938 428 827.636719 430 810 C 430.535156 805.6875 433 795.632813 427.738281 793.175781 C 421.847656 790.488281 421.292969 804 420.949219 807 C 418.945313 825 414.992188 842.472656 411.210938 860 C 400.445313 910 394.945313 961 380.859375 1010 C 376.574219 1025 371.179688 1040 364.691406 1054 C 360.449219 1063.238281 353.90625 1071.601563 353 1082 M 1148 1081 C 1139.34375 1054.445313 1125 1030.128906 1117.425781 1003 C 1104 956.140625 1098.902344 907.546875 1088.789063 860 C 1085 842.367188 1081 825 1078.578125 807 C 1078 803.761719 1078 791.082031 1072.183594 792.753906 C 1066.558594 794.339844 1069.457031 806.070313 1069.828125 810 C 1071.519531 827.738281 1071.742188 845.277344 1074.589844 863 C 1077.601563 881.734375 1084 899.558594 1088.347656 918 C 1097 955.75 1104.945313 994 1119.601563 1030 C 1124.652344 1042.398438 1130.601563 1054.136719 1136.742188 1066 C 1139.648438 1071.613281 1142 1078.097656 1148 1081 M 807 894 C 815.601563 892.335938 822.945313 885 829 879 C 831.671875 876.371094 835.714844 871.007813 839.957031 871.257813 C 847 871.679688 846.695313 885.417969 845 890 C 841.714844 900.144531 829.53125 905.582031 820 908.253906 C 804.890625 912.488281 786.351563 912.433594 771 909.539063 C 762.921875 908.015625 755.289063 904.222656 747 904.015625 C 728.621094 903.558594 711.640625 912.820313 694 912.820313 C 682 912.820313 662.886719 904.753906 655.855469 895 C 652.273438 890 651.855469 874.75 660.183594 873.425781 C 664.269531 872.777344 668.214844 877.050781 671 879.429688 C 678.242188 885.605469 684.597656 892.292969 694 895 C 688.367188 885.257813 676.492188 878.171875 676 866 C 675.777344 858.726563 678.964844 852.101563 682.605469 846 C 700.296875 816.324219 734.441406 816.816406 765 819 C 775.296875 819.617188 785.429688 819 795 823.660156 C 803.390625 828 808.277344 835.4375 813.332031 843 C 817.296875 849 826 855.613281 826.691406 863 C 827.664063 875.824219 812.175781 884.023438 807 894 M 773.996094 822.589844 C 767.242188 823.566406 762 828.617188 755 829 C 745.222656 829.433594 735.417969 826.671875 726 824.375 C 722.277344 823.464844 716.632813 821.679688 713.335938 824.601563 C 707.613281 829.675781 719.8125 834.160156 723 835.753906 C 735.492188 842 747 846 761 842.335938 C 767.277344 840.738281 773.582031 837.425781 777.347656 832 C 780 828.121094 780.503906 821.644531 773.996094 822.589844 M 361 831 C 355.972656 843 356.929688 858.273438 352.976563 871 C 343.628906 901.078125 325 932.417969 328.171875 965 C 329.367188 977.601563 331.742188 990 335.671875 1002 C 336.273438 1004 338.777344 1014.367188 342 1012.652344 C 344.804688 1011.300781 342.4375 1004.136719 342 1002 C 340.574219 991.148438 339.5625 979 340 968 C 341.535156 933.496094 357.78125 902.695313 363.246094 869 C 364.859375 859.042969 368.523438 839.027344 361 831 M 1158 1015 C 1168.277344 1006.648438 1169.300781 984.363281 1171 972 C 1175.957031 936 1160.441406 909 1148.691406 876 C 1143.351563 861.003906 1141.867188 846.449219 1139 831 C 1135 833.738281 1136 838.648438 1136 843 C 1136 853.441406 1135.753906 863.683594 1137.613281 874 C 1142.757813 902.523438 1157 929 1159.828125 958 C 1160.859375 968.75 1160.980469 981.277344 1159.714844 992 C 1158.863281 999.207031 1155.984375 1008 1158 1015 M 545 835.136719 C 537.226563 839 544.742188 855 547.269531 860 C 555 875.433594 580.324219 901.300781 599.847656 888 C 602.859375 886 602.964844 882.277344 599.769531 880.3125 C 594.890625 877.316406 588.28125 878.667969 583 877 C 571.488281 873.027344 562.527344 862.351563 556.898438 852 C 554.878906 848.285156 551.554688 832.074219 545 835.136719 M 951.171875 834.800781 C 947.238281 836.199219 946.210938 841.570313 944.945313 845 C 942.367188 852 938.824219 858.421875 933.824219 864 C 928.710938 869.714844 922.4375 875 915 877.226563 C 910.476563 878.621094 902.972656 877.65625 899.324219 880.742188 C 895.71875 883.789063 898.671875 887.65625 902 889.144531 C 907.808594 891.722656 914 890.738281 920 889.074219 C 935.578125 884.675781 947.652344 870.59375 953.546875 856 C 954.902344 852.648438 960.847656 831.351563 951.171875 834.800781 M 320 986 C 320 952.222656 329.769531 924.671875 339.652344 893 C 341 888.636719 345.867188 867.636719 337 867.636719 C 331.265625 867.636719 327 889.277344 325.199219 894 C 316.277344 916.3125 312.3125 937.125 313 961 C 313.230469 968.367188 313.25 981.539063 320 986 M 1181 986 C 1187.71875 980.132813 1186.335938 971.054688 1187.285156 963 C 1190 939.542969 1185 916.542969 1175.851563 895 C 1172.738281 887.746094 1170.703125 880.410156 1168 873.003906 C 1167.230469 870.546875 1165.496094 867 1162.210938 867.753906 C 1153.535156 870.066406 1159.683594 889.8125 1161.34375 895 C 1171.273438 926 1180.996094 952.820313 1181 986 M 545 1048 C 540.664063 1014 551.59375 988 574 962 C 581.453125 953.359375 589.5625 947.066406 600 942.425781 C 602.238281 941.429688 607.449219 939.679688 605.824219 936.234375 C 604 932.6875 598.992188 933.570313 596 934.238281 C 587 936.242188 578.921875 941.378906 572 947.300781 C 550.488281 965.710938 537 991.558594 537 1020 C 537 1029.449219 535.527344 1042.523438 545 1048 M 954 1048 C 961.4375 1041.792969 962 1030.113281 962 1021 C 961.917969 995.46875 951 969.324219 932 952.171875 C 924.832031 945.710938 916.839844 940.101563 908 936.183594 C 905.570313 935.105469 900 932.511719 898 935.601563 C 896.171875 938.480469 900 941.496094 902 943 C 909.53125 948.613281 916.339844 954.328125 923 961 C 939.328125 977.355469 953.550781 999.496094 955.945313 1023 C 956.820313 1031.59375 954.175781 1039.503906 954 1048 M 697.980469 936.628906 C 689.632813 938.269531 683.722656 949.09375 680.269531 956 C 664.332031 988 686.976563 1014.441406 702 1041 C 706.695313 1049.003906 709 1058 713.527344 1066 C 714.925781 1068.5625 717.476563 1072.070313 720.890625 1071.246094 C 730 1069.027344 725.890625 1044.121094 724 1038 C 720.460938 1025.703125 710.976563 1016.699219 704.464844 1006 C 693.300781 987.660156 692.800781 968.632813 700.550781 949 C 701.945313 945.464844 705.578125 935.136719 697.980469 936.628906 M 796.320313 937.042969 C 792.835938 939.261719 795 944.09375 796.191406 947 C 799.703125 956.410156 801.839844 966 800.828125 976 C 797.710938 1007.191406 773.308594 1032 769.289063 1063 C 768.554688 1068.660156 771.925781 1094.421875 781.890625 1089.761719 C 790.988281 1085.507813 784.242188 1066.742188 787.351563 1059 C 799.492188 1028.78125 820.839844 1008 819.984375 973 C 819.714844 962 814.878906 950.390625 807.675781 942.015625 C 805.246094 939.195313 800.433594 934.429688 796.320313 937.042969 M 653.980469 944.800781 C 648.359375 945.730469 644 952.566406 641.464844 957 C 633 971 631.167969 988.640625 636.355469 1004 C 637.832031 1008.371094 644.984375 1024.429688 651.394531 1022.246094 C 655.773438 1020.757813 648.628906 1005 647.898438 1002 C 642.9375 981.675781 650.804688 971 657.925781 953 C 659.253906 949.664063 658.996094 944 653.980469 944.800781 M 846.320313 946.78125 C 840.800781 949.238281 847.726563 958.320313 849.636719 961 C 861.640625 978 853.25 993 846.816406 1010 C 845.8125 1012.667969 843 1021.195313 849 1020 C 854 1018.742188 857.347656 1012.0625 859.796875 1008 C 867.738281 994.824219 871.507813 977.621094 865 963 C 862.6875 957.414063 854.269531 943.242188 846.320313 946.78125 M 609.980469 963 C 604 964.304688 592 978 588.914063 983.089844 C 586.683594 986.683594 588.644531 990.375 593 990.007813 C 601.28125 989.308594 609 979.769531 612.671875 973 C 614.230469 970.027344 616.535156 961.335938 609.980469 963 M 887.226563 963 C 882.710938 964.304688 885.453125 970.335938 886.902344 973 C 890.238281 979.121094 900 993.648438 908.851563 990.21875 C 912.726563 988.691406 911.636719 984.628906 909.679688 982 C 906.511719 977.738281 893 961.003906 887.226563 963 "/>
</g>
</svg>
