<?xml version="1.0" encoding="UTF-8"?>
<svg xmlns="http://www.w3.org/2000/svg" xmlns:xlink="http://www.w3.org/1999/xlink" width="1500pt" height="1500pt" viewBox="0 0 1500 1500" version="1.1">
<g id="surface1">
<path style=" stroke:none;fill-rule:nonzero;fill:rgb(0%,0%,0%);fill-opacity:1;" d="M 451 108 C 441.203125 109 433 115.539063 423 116 C 424.625 118.042969 425.644531 119 428 120 C 414 131.464844 388.628906 143 371 147 L 371 148 C 389.554688 148 404.191406 138.4375 421 132.0625 C 431.558594 128.0625 441.960938 127.394531 453 126 L 453 127 C 430.570313 130 418.746094 146.800781 406.574219 164 C 393.753906 182.121094 380.945313 200.238281 367.628906 218 C 358.894531 229.644531 347.492188 241 341 254 C 348.792969 251.414063 354.339844 244.660156 360 239 C 342.828125 266.574219 324.355469 300.351563 299 321 C 307.75 306.820313 315.582031 292.4375 322 277 C 320.339844 277.613281 319.515625 278.042969 318 279 C 329.925781 253.484375 348 229.136719 364 206 C 370.386719 196.785156 378.527344 188.363281 383 178 L 364 180 L 364 179 C 368.632813 177.515625 371.488281 175.148438 374 171 L 365 173 L 365 172 C 382.230469 165.476563 399 152.316406 415 143 L 415 142 C 393.976563 142.433594 370.386719 151.53125 353 163 C 361.847656 170.609375 350.960938 171 347 178 C 355.195313 180.511719 347.59375 188.34375 345 193 L 361 191 C 347.945313 201.808594 332.992188 210.191406 320 221.273438 C 294.363281 243.132813 270.871094 267.328125 245 289 C 232 299.710938 205 313.347656 202 331 C 209.199219 329.03125 216 325.699219 223 323 C 211.808594 339.449219 197.238281 351.425781 183 365.039063 C 140.667969 405.519531 88 457.738281 98.4375 522 C 102.9375 550 117.757813 575.746094 127.574219 602 C 142 641 151.886719 681.65625 176.425781 716 C 189.691406 734.5625 205.570313 751.34375 221 768 C 228.96875 776.457031 238.761719 784 244.652344 794 C 251.25 805.324219 251.523438 819.410156 254 832 C 258.304688 854 263.488281 876.304688 274.3125 896 C 279.699219 905.804688 287.179688 914.636719 298 918.453125 C 316.414063 925 341.421875 912.824219 347 894 L 348 894 C 343.1875 917.332031 341.464844 946.304688 331.6875 968 C 325.535156 981.648438 315.242188 993 306.722656 1005 C 295.5 1021 286 1038.042969 278.425781 1056 C 256.871094 1106.519531 247 1167.226563 247 1222 L 248 1222 C 252 1189.445313 260.769531 1157.636719 272.425781 1127 C 277.328125 1114.101563 286.222656 1102.113281 290 1089 L 291 1089 C 291 1105.195313 291.742188 1131 309 1139 C 308.222656 1129.238281 305 1120 305 1110 C 314 1120.429688 324 1129.578125 337 1135 C 331.476563 1124.648438 320.261719 1118.125 315 1107 C 336.777344 1129.566406 364.453125 1134.433594 393 1144.34375 C 414.902344 1152 436.167969 1163 455 1176.429688 C 489 1201 511.398438 1238.097656 546 1262 C 576.765625 1283.207031 612.21875 1296.796875 646 1312.308594 C 683.460938 1329.507813 720 1348.453125 759 1362.308594 C 790.851563 1373.644531 824 1381.101563 857 1388.652344 C 892.304688 1396.753906 935.515625 1414.828125 972 1408 C 987.910156 1405 1001 1394.6875 1013 1384.421875 C 1036 1364.683594 1057.980469 1341.554688 1069.546875 1313 C 1083.378906 1279 1086.417969 1236.742188 1077.523438 1201 C 1069.96875 1170.628906 1055.171875 1142.507813 1052.171875 1111 C 1049.878906 1087 1061.214844 1066.132813 1062.910156 1043 C 1063.726563 1032 1060.367188 1022.472656 1057 1012 C 1048.742188 985.039063 1037 958.289063 1020.972656 935 C 1017.417969 930 1007.429688 912.410156 1000 913.832031 C 996.5625 914.492188 994.371094 918.730469 992 921 C 994.601563 912.4375 994.78125 903.667969 986 899 C 985.175781 909.425781 980 920.523438 981.316406 931 C 982.734375 942.53125 991.851563 952 996.679688 962 C 1007.445313 984.589844 1009 1031 1040 1034 L 1040 1035 C 1034.300781 1035 1022.28125 1032.507813 1020 1039 L 1019 1039 C 1014.4375 1030.703125 987.945313 1031.007813 979 1031 L 979 1032 C 991.574219 1040.320313 1003.863281 1045 1019 1045 L 1019 1047 C 1002 1047.140625 984 1050.65625 967 1052 C 976.761719 1065.738281 997.546875 1073.660156 1014 1074 L 1014 1075 C 998 1078.78125 979.472656 1086.292969 965 1094 L 965 1095 C 973 1095.351563 980.847656 1095.066406 989 1095 C 982.386719 1101.613281 975.683594 1108.171875 968 1113.558594 C 963.921875 1116.421875 957.933594 1118 955 1122 C 962.261719 1122 968.871094 1121.382813 976 1120 C 972 1125.816406 967.976563 1131.632813 965 1138 C 983.761719 1138.804688 1002.289063 1140.523438 1021 1142 L 1021 1143 C 1010.914063 1145.390625 1002 1151.101563 992 1154 C 979.894531 1157.160156 966.902344 1157.449219 955 1161 C 962.3125 1166.46875 974 1168 983 1168 L 983 1169 C 968.941406 1172 956.382813 1176.542969 942 1173 C 945.875 1179 956.417969 1180.414063 963 1181 C 982.570313 1182.742188 1002.269531 1177 1018 1165 C 1013.914063 1182.65625 1005.757813 1199.078125 1002.199219 1217 C 1001.554688 1220.257813 998.21875 1232.46875 1001 1235 C 1004 1237.5625 1013.386719 1231 1016 1229.304688 C 1031 1219.707031 1034.976563 1206.210938 1046 1194 C 1046 1212.828125 1044.804688 1234 1036.191406 1251 C 1032.742188 1258 1026.476563 1262.484375 1023 1269 C 1034.679688 1264.136719 1046.449219 1255.664063 1052 1244 L 1053 1244 C 1046.316406 1267.546875 1032.480469 1289.324219 1027 1313 C 1038.367188 1309 1048.402344 1301.78125 1060 1298 C 1047.578125 1311 1036 1325.304688 1025.722656 1340 C 1012.691406 1358.523438 998.996094 1379.367188 976 1386 C 964.742188 1389.1875 953.335938 1387.097656 942 1385.421875 C 920.355469 1382.21875 899.359375 1376.574219 878 1372 C 785 1352.089844 694.761719 1320.328125 612 1273.28125 C 590.804688 1261.230469 569.304688 1250 549 1236.332031 C 538.292969 1229.191406 526.574219 1221.371094 520 1210 C 528.613281 1214.027344 537.699219 1216.195313 547 1218 C 537.691406 1205.363281 522.246094 1196.625 512 1184 C 519.941406 1186.539063 527.605469 1189 536 1189 L 536 1188 C 509.730469 1174.019531 480 1153.175781 468 1125 C 485 1140 503.808594 1153 523 1164.808594 C 531.34375 1170 539.28125 1176.691406 549 1179 C 543.628906 1167 531.824219 1156.28125 523.601563 1146 C 507.65625 1126.070313 492.96875 1105.484375 485 1081 C 489.996094 1086.703125 494.949219 1092 502 1095 C 497.421875 1079.105469 484.484375 1067.050781 478 1052 C 484.199219 1056.589844 490.214844 1061.613281 498 1063 C 487.242188 1044.296875 466.808594 1032.789063 456 1014 C 468.808594 1020 480.265625 1030.328125 495 1031 L 495 1030 C 481.226563 1021.570313 468.511719 1012.414063 457 1001 C 468 1004.023438 477.40625 1009.027344 489 1010.167969 C 495.207031 1010.78125 500.496094 1011.234375 502 1004 L 503 1004 L 502 1009 C 515.21875 1007.640625 524.601563 992.796875 528 981 L 529 981 C 527.65625 988.214844 525.46875 996.679688 526.433594 1004 C 528.1875 1017.34375 535 1029.453125 541.574219 1041 C 556.90625 1068.140625 578 1102.429688 613 1104 C 628.898438 1104.65625 643.277344 1098 657 1090.703125 C 664.484375 1086.777344 673.335938 1082.015625 680.984375 1088.277344 C 693.589844 1098.59375 688.609375 1119.105469 687 1133 C 683.910156 1161 681 1190.382813 671.304688 1217 C 667.441406 1227.605469 660.328125 1236.597656 656 1247 C 670.753906 1241.40625 682.328125 1227.121094 690.199219 1214 C 713 1176 710 1132.382813 710 1090 C 714.621094 1091.773438 719.347656 1093 722.484375 1097.042969 C 725.882813 1101.589844 726 1108.578125 726.921875 1114 C 729 1126.597656 731 1139.210938 731 1152 L 732 1152 C 732 1138.371094 732.496094 1124.441406 730 1111 C 745 1119.617188 764.992188 1140.378906 782.984375 1124.785156 C 789.339844 1119.28125 792.433594 1111.1875 798 1105 C 793.808594 1122.652344 804.519531 1142.203125 811 1158 L 812 1158 C 810.242188 1138 790.199219 1105.105469 812 1089 C 812 1130.335938 837 1170.121094 862.425781 1201 C 874.957031 1216.296875 891.289063 1231.308594 912 1233 C 905.421875 1219.152344 892.890625 1208.09375 883.652344 1196 C 867.765625 1175.199219 853.710938 1152.351563 844 1128 C 838.570313 1114.390625 830.324219 1095 838.996094 1081 C 845.921875 1070 856.917969 1071 868 1073.628906 C 883.679688 1077.523438 900.617188 1083.414063 917 1081.828125 C 947.492188 1079 961.988281 1043.664063 973.230469 1019 C 977.6875 1009.226563 982.332031 998 982.542969 987 C 982.691406 979.457031 978.671875 972.226563 977 965 C 991.234375 980.464844 995.503906 1004.667969 1013 1017 C 1012 997 999.792969 977.636719 991.257813 960 C 989 955.578125 985.859375 942.804688 980 942 C 973.476563 941 972.792969 966.753906 963.339844 960.339844 C 955 954.679688 955.703125 934.574219 956.714844 926 C 957.328125 920.789063 958 913 952.90625 909.660156 C 945.890625 905.214844 943.738281 923.144531 942.480469 927 C 937.601563 942 931.546875 956.617188 925 971 C 921.953125 978.152344 916.808594 985.09375 916 993 L 917 993 C 924.378906 976 936.769531 961.367188 944 944 L 945 944 C 945 962 949.800781 979.003906 955 996 C 958 1006 961.996094 1017.59375 955.351563 1027 C 949.285156 1035.574219 938.921875 1038 930 1042.257813 C 919.242188 1047.503906 908.429688 1057.765625 896 1058.386719 C 876.527344 1059.359375 860.238281 1026.269531 850 1013 C 843.390625 1004.183594 827.761719 994.359375 827 983 C 817.449219 987.710938 815 984.714844 815 974 C 812 976.011719 811 980.609375 807.816406 982.078125 C 801.519531 985 800.28125 971.527344 800 968 L 799 968 C 798.226563 970.445313 797.820313 977.726563 794.691406 978.367188 C 789.765625 979.378906 790 965.695313 790 963 L 789 963 C 784.511719 976.648438 777.488281 968.652344 777 958 C 774.457031 959.355469 771.894531 963 769 963.371094 C 764 964.046875 761.34375 953.464844 760 950 L 759 950 C 757.972656 953.621094 755.976563 964.34375 750 961.246094 C 747 959.660156 745.765625 956 743 954 C 743 956.578125 743.628906 970.59375 738.234375 968.652344 C 734.960938 967.476563 734.726563 962.0625 732 960 C 731.96875 971.472656 724.765625 982.820313 724 965 L 723 965 C 720.878906 973.109375 712.972656 987.398438 710 971 C 705.996094 974.050781 706.597656 990.394531 698.984375 987.828125 C 696 987 693.765625 984.277344 691 983 C 692.480469 997.003906 673.277344 1009.796875 665.289063 1021 C 655.65625 1034.511719 647 1049 636.789063 1062 C 631.996094 1068.078125 626.335938 1074.101563 618 1074 C 605.519531 1073.707031 595 1063.597656 584 1059.203125 C 573.886719 1055.21875 563.378906 1053.773438 556.851563 1044 C 550 1034 553.609375 1021 556 1010 C 559.515625 995.214844 561.808594 980.109375 563 965 L 564 965 C 570.507813 979 581.566406 1004 595 1012 C 584.699219 985.492188 567.46875 962.300781 558.332031 935 C 556.496094 929.515625 554.574219 909.648438 547.957031 909.253906 C 543.878906 909.011719 539.996094 911.722656 540.386719 916.015625 C 541.617188 929.539063 551 941.546875 549.699219 956 C 548.824219 965.1875 543.765625 983.652344 534.351563 968 C 533.203125 966.085938 532.238281 964.027344 531.308594 962 C 529.355469 957.738281 527.902344 953.277344 526 949 C 515.25 957.4375 506 983.570313 505 997 L 504 997 C 505 984.460938 509.949219 970.328125 515.320313 959 C 520 949 526.503906 939.308594 519.558594 928.148438 C 514.558594 920.117188 500.800781 932.34375 496 935.722656 C 474.636719 950.746094 458.878906 971.320313 441 990 C 450.414063 970.101563 468.40625 953.363281 485 939.4375 C 490.851563 934.527344 506.246094 927.242188 508.742188 920 C 511.417969 912.1875 498 912 494 914.050781 C 480.699219 921.003906 467.78125 933.683594 457 944 C 463.8125 934.328125 473.824219 925.734375 483 918.3125 C 487 915 494.597656 912 496.914063 907 C 498.851563 902.71875 494 901 491 900 L 491 899 L 497 899 C 491.6875 890 482.402344 897.355469 477.285156 903.015625 C 464.816406 916.808594 450.992188 933.738281 446 952 L 445 952 C 447.808594 935.136719 461.65625 916.792969 472 903 C 475.839844 898 484 894.800781 487 891 C 489.5625 887.582031 478.398438 884.410156 479 882 L 467 880 L 467 879 L 471 879 L 471 878 C 445.390625 867 413.511719 885.246094 388 889 L 388 888 C 414 884.152344 436.761719 869.003906 464 869 C 460.941406 864.332031 454.257813 862.25 449 861 L 449 860 L 457 861 C 451.671875 853.597656 441.996094 848.347656 433 847 L 433 846 L 440 846 C 436.1875 841.550781 430.566406 839.523438 425 838 L 425 837 L 430 837 L 430 836 C 423.542969 833 416.972656 831.351563 410 830 L 410 829 L 423 828 C 420 823.113281 411.222656 821.171875 406 819 L 406 818 C 412.578125 818 418.605469 817.65625 425 816 L 425 815 C 420 813.425781 415 811.753906 410 811 L 410 810 C 412.542969 809.472656 413.535156 809.121094 415 807 L 409 807 C 418 791.402344 423 773.8125 429.425781 757 C 431 752.78125 432.804688 741.410156 436.816406 739.023438 C 439.496094 737.429688 443.222656 741.496094 445 743 L 436 743 L 436 744 C 439.550781 745.738281 443 746.492188 447 747 C 443.722656 750 440.546875 752.457031 438 756 L 456 755 L 456 756 C 452 758 449.507813 760.472656 447 764 C 450.761719 764 454.300781 763.6875 458 763 C 455.1875 766 452.691406 768.371094 451 772 L 458 771 C 456.828125 776 456.410156 781.5 463 780 C 461.796875 785.199219 457.382813 792.726563 465 794 C 463.210938 796 455.636719 799 455.636719 801.300781 C 455.636719 802.398438 461.472656 814.429688 462.4375 815.472656 C 464 817.265625 467.78125 818.242188 468.792969 820.503906 C 469.722656 822.570313 466.175781 823.304688 466.203125 825.230469 C 466.242188 827.628906 469.90625 828.386719 469.949219 830.753906 C 469.992188 833.070313 466.410156 833.207031 466.757813 836.144531 C 468 847 479.652344 862 488 868 C 493.265625 859 499 848.570313 500 838 C 496.769531 839 493.976563 840.441406 491 842 C 505.191406 822.464844 508.339844 798.417969 504.726563 775 C 502.46875 760.390625 497 746.003906 499.300781 731 C 501.386719 716.507813 512.261719 702 522.460938 692.203125 C 532.566406 682.605469 535.601563 671.316406 551 671 L 551 672 C 549.203125 672 549.480469 672.015625 548 673 L 548 674 L 553 674 C 544 684.824219 535.816406 706.03125 557 707 C 557.320313 713.363281 570.972656 711.335938 571 720.128906 C 571.347656 729.527344 563.753906 742.785156 561 752 C 554.402344 775.769531 549 799.777344 544.199219 824 C 542.269531 833.65625 540.53125 843.34375 538.601563 853 C 538 855.285156 536 860.808594 538.617188 862.398438 C 541.964844 864.429688 549.65625 863.328125 551.566406 860 C 556.636719 850.621094 555.699219 833.511719 557.800781 823 C 565.546875 784.261719 573.941406 743.765625 591.257813 708 C 599.195313 691.609375 615 679.34375 622 663 C 610 667.410156 603 678 593 685 C 599 672 604.25 658.195313 610.308594 645 C 614.867188 635.074219 620.738281 625.8125 623 615 L 616 616 L 616 615 C 624.3125 612.601563 627.816406 607.085938 617 606 L 617 605 L 621 604 L 621 603 L 608 603 L 608 602 C 616.871094 601.59375 625 597.390625 634 597 L 634 595 L 623 595 L 623 594 L 643 588 L 643 587 L 636 586 L 636 585 C 639.679688 584.242188 643.246094 583.308594 647 583 L 647 581 L 628 579 L 628 578 C 633.71875 577.011719 638.425781 574.617188 642 570 L 628 570 L 628 569 C 635.765625 567.398438 643.902344 565.492188 649 559 C 645.238281 559 641.699219 558.6875 638 558 L 638 557 C 642 556.820313 645.976563 555.828125 650 555 L 650 554 L 647 554 L 647 553 C 652.613281 552 656.675781 547.316406 662 545 C 659.957031 543.585938 658.488281 543.253906 656 543 L 656 542 L 668 542 C 665.675781 535 670.570313 526.011719 670.960938 518 C 673 473.335938 701.441406 441.007813 711 399 C 717.480469 371.339844 712.425781 343 701.574219 317 C 695.804688 303.234375 687.257813 290.285156 682.886719 276 C 681.550781 271.640625 679.421875 265.609375 680.355469 261.015625 C 680.902344 258.328125 683.566406 256.519531 683.84375 253.828125 C 684.203125 250.328125 680.789063 247.585938 680.515625 244.171875 C 680 239.09375 682.234375 236.292969 680 231 C 686.425781 232.082031 685.5 227.78125 684 223 C 691.578125 226.1875 688.613281 218.332031 687 214 C 690.277344 215.328125 692.585938 215.050781 696 215 C 694.910156 211.167969 693.855469 207.535156 692 204 L 698 207 C 697.335938 202.078125 695.777344 197.617188 694 193 C 696 194.261719 697.777344 195.191406 700 196 C 699.652344 191.746094 698.484375 188 697 184 C 703.394531 184.578125 701.84375 178.546875 701 174 L 702 174 C 702.546875 176 703 177.257813 704 179 C 706.296875 175.640625 705.996094 172 706 168 C 713 170.75 717.359375 159.480469 722 155.300781 C 733.785156 144.8125 748.207031 144.28125 763 146 C 767.359375 146.441406 775.585938 146.671875 777.878906 151.226563 C 779.992188 155.421875 775 163.519531 774.4375 168 C 772.800781 178.410156 774.390625 189 777 199 C 774.257813 197.753906 770.476563 196.621094 770.332031 201.058594 C 770 208.480469 777.898438 213.226563 779.582031 220 C 781.785156 229 776.261719 237.730469 774 246 C 777 245.097656 779.382813 244 782 242 L 776 264 C 778.363281 262.398438 779 260.691406 780 258 L 781 258 C 777.703125 272 776.695313 285.421875 771.574219 299 C 764 318.730469 751.542969 338.417969 751 360 C 750 398 771.410156 431.09375 773 468 L 765 464 C 770 481.515625 779 498.695313 785.308594 516 C 787.386719 522 788.382813 532.53125 794.214844 536 C 802.449219 540.832031 822.476563 537 832 537 L 832 538 C 827.878906 539 823.480469 539.382813 821 543 C 828.378906 543 835.722656 543.351563 843 542 L 843 543 C 840.296875 543.644531 838.222656 544.335938 836 546 C 839.296875 547.117188 842.527344 547.722656 846 548 L 846 549 L 842 549 L 842 550 C 846.222656 552 850.378906 553.375 855 554 L 855 555 L 850 555 L 850 556 C 854 557.132813 857.808594 558 862 558 L 862 559 L 851 560 L 851 561 C 857.988281 564.113281 865.386719 567 873 568 L 873 569 L 859 570 C 862.277344 575 869.601563 575.480469 875 577 L 875 578 L 866 578 L 866 579 C 867.476563 580 867.203125 580 869 580 L 869 581 L 856 581 L 856 583 C 861.445313 583.445313 866.597656 585.273438 872 586 L 872 587 L 863 587 L 863 588 C 869 590.0625 875.625 592.441406 882 593 L 882 594 L 872 594 L 872 595 C 880.496094 599.453125 892.46875 601 902 601 L 902 602 L 880 603 L 880 604 L 884 606 L 880 608 L 880 609 C 883.242188 611 886.371094 612.136719 890 613 L 890 614 C 887.558594 614 885.378906 613.570313 883 613 C 884.367188 628.554688 896.214844 643.359375 903 657 C 904.695313 660.328125 906.753906 669.441406 911 670.078125 C 914.351563 670.546875 916 666.152344 917.785156 664.226563 C 921.277344 660.273438 926.996094 652.339844 932 650.808594 C 943.40625 647.320313 948.640625 659.777344 959 660 L 955 666 C 958.351563 667 961.515625 667 965 667 L 965 668 C 963.203125 668 963.480469 668.015625 962 669 L 962 670 C 970.644531 670.007813 970.953125 676.449219 978 677 L 978 678 L 972 680 L 972 681 C 976.191406 682 979.851563 682.226563 984 681 C 982.1875 683.34375 980.316406 685.34375 979 688 C 985.535156 689.386719 981.84375 699.386719 985.617188 704.816406 C 988.335938 708.726563 992.558594 710.070313 994 715.003906 C 997.382813 726 991.371094 739.214844 989.425781 750 C 986.28125 767.394531 986.558594 783.515625 986.984375 801 C 987.179688 809 983.824219 825.050781 988.859375 831.605469 C 993.324219 837.425781 1013.402344 841.617188 1018.253906 835 C 1020.613281 831.558594 1018 829.234375 1018.824219 826.039063 C 1019.414063 823.640625 1022.6875 822.757813 1022.800781 820.117188 C 1022.878906 818.390625 1020.425781 817.105469 1021.199219 815.398438 C 1023.574219 810.164063 1030.71875 807 1032.972656 801.015625 C 1035.183594 795.207031 1028.488281 797.324219 1027.996094 793.136719 C 1026.972656 784.382813 1034.910156 777.132813 1031 769 C 1038.460938 770.585938 1035.441406 765.722656 1032 762 L 1041 762 C 1038.496094 758.457031 1035.945313 756 1032 754 L 1032 753 C 1037.382813 753.046875 1042.765625 753.738281 1048 755 C 1045.828125 747.34375 1042.292969 748 1048 741 C 1046 740.453125 1044.746094 740 1043 739 C 1052.394531 738.203125 1052.675781 753.289063 1055.191406 760 C 1059.214844 770.714844 1062.84375 781.738281 1067.96875 792 C 1069.894531 796 1074.371094 801.289063 1073 806 C 1071.679688 811 1065 811.601563 1061 813 L 1061 814 C 1066.417969 814.683594 1071.734375 815.519531 1077 817 L 1077 818 C 1072.644531 819.785156 1067.921875 821.398438 1064 824 C 1068 826.414063 1073.363281 826.632813 1078 827 L 1078 828 C 1071.839844 829 1065.503906 831.101563 1060 834 L 1060 835 L 1067 834 L 1067 835 C 1061.582031 836.285156 1054.167969 838.167969 1051 843 C 1055 843 1058.964844 842.75 1063 842 L 1063 843 C 1056.570313 844.328125 1049.535156 846.003906 1046 852 C 1067 857.761719 1085.355469 872.042969 1106 878 L 1106 879 C 1088.820313 875 1072.585938 864.796875 1056 858.679688 C 1050 856.492188 1041 852.007813 1037 859 L 1043 858 L 1043 859 C 1038.589844 860.203125 1026.625 862.472656 1025.921875 868.042969 C 1025.203125 873.710938 1035.296875 878 1039 880.4375 C 1053.523438 890.617188 1066.492188 902.492188 1079 915 C 1064.660156 906.03125 1052.710938 893.105469 1039 883.152344 C 1032 878.078125 1024.589844 873 1016 877 L 1016 878 C 1018 878.644531 1019.796875 879 1022 879 L 1022 880 C 1019.773438 880.183594 1011.207031 880.660156 1011.207031 884.015625 C 1011.207031 887.519531 1024.246094 893 1027 894.679688 C 1043.464844 905.054688 1059.710938 915.78125 1074 929.089844 C 1077.882813 932.707031 1088.707031 948 1094.605469 946.246094 C 1099 945.015625 1101 933 1102.605469 929 C 1109.230469 912.644531 1118.605469 897.480469 1125 881 C 1142.328125 904.375 1180.644531 940.765625 1212 920 C 1222.382813 913 1228.339844 900.253906 1232.796875 889 C 1244 860.453125 1241.84375 827.777344 1255.257813 800 C 1269.246094 771.035156 1296.789063 748.335938 1315.277344 722 C 1343.21875 682.199219 1358.503906 636.511719 1377 592 C 1387 568 1400.5625 545.34375 1403.714844 519 C 1410.308594 464 1369 414.4375 1332 379.039063 C 1314.171875 362 1293.238281 346.1875 1280 325 C 1286.601563 327.558594 1293 330.398438 1300 332 C 1296.914063 315 1271.261719 303.324219 1259 292.71875 C 1234 271.160156 1210.320313 248.351563 1185 227.246094 C 1168.800781 213.746094 1152.355469 199.632813 1132 193 L 1132 192 C 1138.214844 193.152344 1144.699219 193.503906 1151 194 C 1147.921875 188.59375 1143.898438 184 1140 179 C 1142.710938 178.351563 1145.214844 178.058594 1148 178 C 1144.945313 172.332031 1138.347656 169.285156 1133 166 C 1146 161.640625 1130 156.082031 1124 154.003906 C 1108.519531 148.726563 1091.5 143.136719 1075 143 L 1075 144 C 1093 153.65625 1112.277344 169.308594 1132 175 L 1132 176 C 1126.257813 175.226563 1120.820313 173.253906 1115 173 L 1115 174 C 1119.492188 177.027344 1123.683594 179.726563 1129 181 L 1129 182 C 1122.6875 182 1116.203125 181.152344 1110 180 C 1112.96875 190.28125 1121.324219 199.507813 1127.628906 208 C 1144.609375 231 1167.890625 251.324219 1179 278 C 1175.246094 278.660156 1180 287.511719 1181.285156 290 C 1186.910156 302.242188 1194.773438 313.113281 1201 325 C 1175.261719 300.363281 1148.488281 271.410156 1131 240 C 1138 245.390625 1143.84375 252.125 1152 256 C 1148 243 1135.238281 232.664063 1127 222 C 1111.242188 201.105469 1095.808594 180 1079.882813 159 C 1068.785156 144.453125 1057.84375 130.164063 1038 130 L 1038 129 C 1067.636719 129.082031 1092.714844 148.394531 1122 149 L 1122 148 C 1109 140.496094 1094.816406 135 1081 129.449219 C 1074.695313 127 1065.542969 126 1071 118 C 1060.679688 116 1051.3125 110.523438 1041 109 C 1042.578125 111.28125 1045.695313 114.082031 1045.964844 117 C 1046.636719 124.109375 1030.734375 126 1026 126.570313 C 1006.480469 129.367188 987.257813 124.8125 969 118.308594 C 958.59375 114.601563 947.804688 106.074219 937 104.507813 C 928.597656 103.289063 918.496094 106.328125 910 107 C 890.910156 108.21875 872 107.675781 853 105.828125 C 817.996094 102.441406 783.308594 92.148438 748 93.015625 C 720.683594 93.683594 694.292969 103.765625 667 105 C 634.863281 106.367188 604.25 101.523438 572 106.753906 C 540.605469 112 509 124 477 124 C 465.707031 124.035156 441 123.277344 451 108 M 624 130 L 624 131 C 609.550781 131 594.753906 131.109375 581 136.230469 C 567.546875 141.238281 556.859375 151 546 160 C 527.910156 175.035156 510.273438 191.261719 494.714844 209 C 473.855469 232.78125 448.238281 258 433.484375 286 C 422.203125 307.527344 415.992188 332.535156 410 356 C 396.210938 411.671875 389.46875 469 398.273438 526 C 402.796875 555.273438 418.984375 581 427.566406 609 C 440 649.632813 438.449219 693.40625 426.574219 734 C 413.578125 778.429688 390.914063 820.003906 362 856 C 350 870.804688 336.574219 888 318 894.453125 C 283.589844 906.574219 275.316406 864.050781 268.574219 841 C 265.5625 830.691406 262 821 263.171875 810 C 264.308594 798.636719 269.351563 788.167969 271 777 L 272 777 C 272 800.097656 276.253906 825.09375 272 848 C 277.933594 841.207031 278.316406 827.675781 280 819 L 281 819 C 281 826.53125 282.253906 834.675781 284 842 L 285 842 C 286.695313 835.128906 288.730469 828.703125 291 822 L 292 822 C 289.773438 839.609375 286.398438 859 293 876 C 298 889.023438 310 894.15625 322 886.449219 C 326 883.816406 329.5625 880.417969 333 877 C 338.441406 871.585938 343.417969 866 348.199219 860 C 382 817.410156 409.304688 767.324219 421.351563 714 C 427.195313 688.117188 428.800781 661.097656 423.550781 635 C 418.550781 610.152344 406 587.703125 397.691406 564 C 388.863281 539.222656 384.878906 513.140625 383 487 C 378.402344 418.53125 390.351563 345.792969 423.308594 285 C 437.515625 258.792969 458.542969 237 473 211 C 471.519531 212 471.796875 212 470 212 C 475.289063 201 485.488281 193.488281 494 185 L 480 190 L 480 189 C 489 183 498.628906 177.042969 505 168 L 494 172 L 494 171 C 501 166.222656 510 162.050781 516 156 C 508 158.050781 500 161 492 162 L 492 161 C 499.796875 157.753906 506.332031 152.226563 514 149 L 514 148 C 509.582031 149.261719 505.582031 151.3125 501 152 L 501 151 C 504.652344 149.582031 508.21875 148.035156 512 147 L 512 146 L 505 147 L 505 146 C 507.949219 144.691406 510.855469 143.726563 514 143 L 514 142 L 507 142 L 507 141 C 520.421875 136.632813 533.847656 134 548 134 L 548 133 C 538.652344 132.597656 529.375 131.007813 520 131 L 520 130 C 537.589844 127.765625 553.296875 127 571 127 L 571 126 L 560 125 C 564.628906 121 572 121 578 121.003906 C 593.480469 121.164063 609.203125 125.832031 624 130 M 976 136 L 976 137 L 940 137 L 940 138 C 957.339844 138.746094 973.933594 145.703125 991 148 L 991 149 L 982 149 L 982 150 L 992 155 L 992 156 C 987.90625 155.398438 983.980469 154.128906 980 153 C 986.371094 158.8125 994 162.699219 1002 166 L 1002 167 C 994 166.660156 986.515625 164.117188 979 162 L 979 163 C 986.433594 166.207031 992.664063 171.570313 1000 175 L 1000 176 L 989 173 C 997.710938 180.585938 1009 186.644531 1016 196 C 1011 195.128906 1006.632813 192.796875 1002 191 C 1009.285156 201.34375 1020.800781 208.105469 1026 220 L 1023 219 C 1035 240.574219 1051.289063 259.347656 1061.691406 282 C 1094 352.589844 1107.304688 430.777344 1099.828125 508 C 1095.898438 548.628906 1076.40625 581.519531 1065.425781 620 C 1056 653 1056.457031 688 1065 721 C 1080 777.527344 1111 830.636719 1151.171875 873 C 1167.746094 890.480469 1192.714844 900.324219 1208 876 C 1210.464844 872.304688 1212.335938 868.273438 1213.320313 864 C 1216.558594 850 1209.832031 837.59375 1208 824 C 1211.285156 826.578125 1213 830.109375 1216 833 C 1216.253906 827.179688 1218.226563 821.742188 1219 816 L 1220 816 C 1220 824.246094 1221 833 1223 841 L 1224 841 C 1222.199219 818.195313 1226.8125 797.589844 1227 775 L 1228 775 C 1230.652344 788 1234.882813 800.714844 1233.910156 814 C 1233.253906 823 1228.839844 831.457031 1226.429688 840 C 1223.65625 849.824219 1222.695313 860.074219 1220.347656 870 C 1216.53125 886.109375 1206 903.527344 1187 900.5625 C 1167.613281 897.539063 1151.308594 881.242188 1138 868 C 1105 835.277344 1079.613281 796 1064.34375 752 C 1049.175781 708.316406 1042.792969 662.136719 1055 617 C 1064.332031 583.472656 1084 554.1875 1087.835938 519 C 1095.367188 449 1081 378 1057 312 C 1049.820313 292.203125 1044.277344 271.105469 1033.1875 253 C 1021.585938 234.058594 1004.523438 220.496094 989 205 C 958.941406 175 930.824219 146.398438 892 128 C 898.777344 125 905.882813 127 913 127 C 933.972656 127.203125 955.445313 132.128906 976 136 M 467 161 C 453.859375 180.808594 426.46875 187.734375 414.351563 208 C 405 223.460938 401.40625 242.207031 395.304688 259 C 391.289063 270.050781 385 280.40625 382.667969 292 C 380.960938 300.074219 384.269531 308 381.640625 316 C 377.980469 327.269531 370.503906 336.664063 365 347 C 373.710938 338.265625 383 328.324219 386 316 L 387 316 C 387.1875 338.425781 386.59375 359.722656 382.574219 382 C 376.195313 417.367188 364.765625 452.160156 361.167969 488 C 359.839844 501.234375 360 514.214844 364.355469 527 C 365.535156 530.542969 367.574219 538.492188 372 539.078125 C 375.585938 539.53125 379.371094 535 382 533 C 382 568.339844 402.925781 598.421875 410.765625 632 C 422.65625 683 408.425781 735.398438 385.242188 781 C 376.832031 797.542969 366.578125 823.335938 350 833 C 366.535156 774.292969 401 719.496094 402.742188 657 C 404 606.339844 360.949219 573.078125 352.613281 526 C 343.457031 474.289063 369.796875 423.339844 372 372 C 364.484375 377.773438 355.46875 383.371094 346 385 C 349.890625 371.285156 356.667969 358.683594 360.574219 345 C 366 326 368.609375 306 374.746094 287 C 379.472656 272.402344 386.726563 258.765625 391 244 C 389 246 387.207031 247.46875 385 249 C 387.65625 237.796875 394.621094 228.511719 399 218 C 396.746094 220.203125 394.574219 222.191406 392 224 C 401.902344 203.070313 421.683594 190.078125 440 177.28125 C 448.390625 171.417969 457 164.121094 467 161 M 706 167 L 705 168 L 706 167 M 365 173 L 365 174 L 362 174 C 363.246094 173.316406 363.546875 173.25 365 173 M 701 173 L 700 174 L 701 173 M 1002 176 L 1001 177 L 1002 176 M 697 183 L 696 184 L 697 183 M 1056 188 C 1068.761719 196.609375 1085.222656 207 1091 222 L 1086 219 C 1091.183594 228.738281 1096.953125 237.273438 1100 248 C 1097.582031 247 1096 245.757813 1094 244 C 1097.929688 258.375 1105.304688 272 1110.308594 286 C 1116.683594 304 1119.304688 322.824219 1124.722656 341 C 1129 355.796875 1136.449219 370.015625 1140 385 C 1130.628906 382.832031 1122.292969 378.214844 1115 372 C 1115 423.710938 1142.960938 473 1134.5625 525 C 1130.480469 550.347656 1114.199219 570.0625 1102.308594 592 C 1089 616.371094 1080.171875 646 1082 674 C 1084.339844 707 1091.214844 739 1104.863281 769 C 1114.371094 790 1129.722656 808.183594 1135 831 C 1120.257813 820.605469 1111.710938 801.363281 1103 786 C 1077 739.402344 1062.332031 684 1074.882813 631 C 1082.941406 597.046875 1104.261719 566.757813 1105 531 C 1107.664063 533 1111.414063 537.523438 1114.957031 537.078125 C 1119.730469 536.480469 1121.5 528.738281 1122.574219 525 C 1126.203125 512.339844 1126.285156 500 1124.714844 487 C 1117.988281 431.496094 1088.480469 373.671875 1099 317 L 1100 317 C 1104.820313 328.570313 1112.449219 340.015625 1123 347 C 1113.863281 337.074219 1104.277344 323.726563 1102.300781 310 C 1101.335938 303.304688 1104 296.554688 1102.210938 290 C 1096 268.351563 1084.265625 247 1075.800781 226 C 1072.265625 217.273438 1067.949219 208.792969 1062.65625 201 C 1060 197.238281 1055.3125 192.757813 1056 188 M 1085 218 L 1086 219 L 1085 218 M 363 236 C 361.894531 237.457031 361.457031 238 360 239 C 361 237.542969 361.542969 237.101563 363 236 M 1130 237 L 1131 240 C 1129.710938 238.558594 1129.597656 238.765625 1130 237 M 869 274 L 869 275 C 854.882813 283.328125 842.242188 293.53125 834 308 C 847.246094 297.488281 862.246094 286 879 282 L 879 283 C 872 286 865 290.308594 860 296 C 878.785156 291.476563 902.941406 292.300781 920 302 L 920 303 C 909 299.539063 897.371094 299 886 299 L 886 300 C 893.660156 301.824219 902 302.007813 910 303 L 910 304 C 904.5625 304 899.386719 304.320313 894 305 C 900.535156 311.625 911.601563 316.078125 920 320 L 920 321 C 914.269531 320 908.617188 318.582031 903 317 C 908 322 914.921875 325.414063 918 332 L 906 332 C 908 335 913.277344 339.765625 909.636719 343.296875 C 903.195313 349.554688 892 351.488281 885 358.089844 C 863.644531 378 849.847656 409.738281 844 438 L 843 438 C 838.957031 428.289063 833.941406 419.164063 831 409 L 830 409 L 830 414 L 828 414 C 826.597656 403 817 397.105469 814 387 C 809.230469 371.019531 811.953125 355.242188 812 339 L 811 339 C 809.984375 346.527344 807 353.710938 805 361 C 801.265625 352.105469 807.605469 340.183594 811 332 C 822.25 305 840.722656 283.199219 869 274 M 681 369 L 680 369 C 679.527344 363.226563 677.472656 357.773438 677 352 L 676 352 C 675.957031 367.578125 672.996094 382.054688 669 397 C 667.601563 396.339844 667.1875 396.035156 666 395 C 664.28125 403.296875 659.285156 409 657 417 L 656 417 L 656 410 C 651.582031 419.335938 648.621094 431.007813 642 439 C 637.398438 431 636 421.667969 632.945313 413 C 626.792969 396.070313 618.484375 378.75 606.699219 365 C 598 355 587.796875 352.429688 578.324219 345 C 573.785156 341.316406 579.417969 336 582 333 C 577.578125 333 573.378906 332.554688 569 332 C 573.359375 326 579.90625 323.167969 585 318 L 570 321 L 570 320 C 578 315.269531 586.765625 312.148438 594 306 C 588.917969 306 584 305.398438 579 305 L 579 304 C 586.394531 303.683594 593.558594 302.003906 601 302 L 601 301 C 590.808594 301 581 301.128906 571 303 L 571 302 C 589.949219 293.136719 608.859375 294.441406 629 297 L 629 296 C 622.414063 292.636719 616.414063 287.785156 610 284 L 610 283 C 627.492188 289 638.757813 301.476563 654 311 C 644.574219 298.734375 636.359375 285.152344 622 278 C 630.40625 275.519531 641.269531 287 646.996094 292 C 668.484375 310.585938 680.921875 340.652344 681 369 M 1180 278 L 1179 279 L 1180 278 M 1206 349 C 1202.472656 346.492188 1199.996094 344 1198 340 L 1197 340 C 1197.363281 357.648438 1201.648438 375.722656 1205 393 L 1204 393 C 1195.960938 375.222656 1189.832031 356.726563 1181.691406 339 C 1173.820313 322 1163.832031 305.605469 1157 288 C 1162.824219 290.601563 1166.402344 295.578125 1171 299.828125 C 1184.808594 312.605469 1200.667969 330.488281 1206 349 M 329 297 C 326.535156 305.550781 321.867188 313.519531 319 322 L 320 322 C 322.390625 317.394531 325.773438 314 330 311 C 325.625 324 318.207031 335.332031 313.425781 348 C 307.617188 363.390625 304.378906 379.640625 296 394 L 295 394 C 300.601563 376.484375 302.558594 357.28125 304 339 L 303 339 C 301.230469 342.714844 299.261719 345.480469 296 348 C 302.578125 332.195313 315.367188 307.519531 329 297 M 1029 463 L 1028 463 C 1028 415 993.960938 371.691406 947 360 C 929.210938 355.425781 910.882813 356.667969 893 360 C 904.867188 348.109375 932 350.222656 947 353.199219 C 984.941406 360.742188 1018.613281 389 1028.371094 427 C 1031.214844 438.109375 1033 452.027344 1029 463 M 596 363 L 596 364 C 578.511719 363.640625 561.480469 360 544 363.660156 C 493.253906 374.648438 457 419.589844 457 471 C 449 457.730469 457 431 462.863281 418 C 480.964844 377.046875 524.984375 353.003906 569 356.089844 C 578.398438 356.746094 586.9375 361 596 363 M 998 424 C 984 416.816406 975.402344 402.421875 959 399.464844 C 912.347656 391.054688 889.804688 448.371094 883 485 C 877.476563 472.6875 886.328125 455.316406 891 444 C 896.777344 430.785156 901.257813 417.757813 913 408.519531 C 939.339844 387.789063 981 394.636719 998 424 M 604 486 L 603 486 C 601.824219 471.140625 595.238281 459.8125 588.308594 447 C 574.550781 421.5625 560.253906 397.621094 527 403.324219 C 510 406.234375 500.210938 420.703125 487 430 C 499.394531 398 545.863281 392.570313 571 410.785156 C 591.589844 425.703125 604 461.347656 604 486 M 991 430 C 976.96875 421.261719 964.34375 408.414063 947 407 C 959.828125 401.667969 985.382813 419.261719 991 430 M 539 409 L 539 410 C 519.984375 411.554688 508.550781 426.140625 493 435 C 503.179688 420.550781 521.167969 409.769531 539 409 M 939 417.300781 C 974 414 993.398438 460.144531 962 479.53125 C 957.5 482.308594 952.273438 484.261719 947 484.824219 C 912.339844 488.550781 888.550781 440.707031 923 422.125 C 927.972656 419.441406 933.378906 418 939 417.300781 M 539 420.300781 C 554.558594 418.007813 572.679688 426.476563 577.894531 442 C 584.285156 461.023438 569.777344 484.777344 550 487.699219 C 523.335938 491.636719 491.507813 464.71875 510.636719 438 C 513.886719 433.464844 518.335938 429.703125 523 426.699219 C 527.761719 423.632813 533.359375 421.132813 539 420.300781 M 939 421.46875 C 910.496094 427 917.878906 475.574219 947 470.675781 C 976.65625 465.6875 969.300781 415.761719 939 421.46875 M 538 423.46875 C 507.421875 429.226563 514 479.394531 546 473.671875 C 573.515625 468.746094 567.410156 418 538 423.46875 M 939 427.386719 C 950.539063 425.738281 952.328125 444.039063 941 445.757813 C 929 447.574219 927.511719 429.027344 939 427.386719 M 544 429.632813 C 555.75 430 556.253906 448 544 448 C 532.253906 448 532.34375 429.410156 544 429.632813 M 999 446 C 996.226563 456 995 466 989.769531 475 C 967.808594 512.808594 920.308594 493 886 493 C 896.277344 483.46875 911.84375 488.382813 924 490.574219 C 939.441406 493.359375 955.527344 493 969 484 C 976.5 479 983.386719 471.179688 987.203125 463 C 990.503906 456 989.472656 447.070313 999 446 M 600 494 C 592.605469 497.554688 583.882813 495.210938 576 496.4375 C 553.957031 500 530.457031 507.476563 510 494.300781 C 498.867188 487.128906 492.640625 476.304688 488.671875 464 C 487.796875 461.292969 484.738281 454.117188 487.636719 451.832031 C 489.984375 450 492.3125 453.261719 493.199219 455.046875 C 497.550781 463.800781 498.847656 471.675781 506 479 C 518.84375 492.109375 534.972656 496.632813 553 494.828125 C 569.5625 493.171875 583.707031 486.789063 600 494 M 899 458 C 901.207031 467.289063 907.238281 475.53125 915 481 L 915 482 C 901.839844 482 883 471 899 458 M 588 460 C 595.628906 478.351563 585.511719 481.726563 569 486 C 571.316406 481.136719 575.894531 478.304688 579 474 C 582.394531 469.496094 584 464 588 460 M 774 468 L 773 469 L 774 468 M 233 469 C 229.726563 477.453125 221.289063 483.710938 215 490 L 218 489 C 217.332031 504.554688 213.964844 520.722656 211 536 L 212 536 C 214.480469 528.710938 217.789063 520.796875 224 516 C 223 526.765625 218.941406 537.640625 216 548 C 219.566406 544.402344 229 529.792969 234.851563 532.175781 C 242 535.148438 236.410156 552 235 557 C 228.640625 583 226 609.324219 226 636 L 225 636 C 221.523438 610.183594 211.558594 583.761719 203.65625 559 C 200 548 195 535.695313 194 524 C 188.453125 526.832031 184.1875 531.546875 178 533 C 182 523.546875 189 516 194 507 C 191.671875 508.316406 189.566406 509.261719 187 510 C 195.664063 491.46875 214.402344 476.742188 233 469 M 1024 470 C 1029.515625 479.449219 1035 490 1036 501 L 1031 498 C 1034.25 515.5 1029 536.257813 1017.675781 550 C 1005 565.136719 990 574 980.308594 592 C 975.332031 601.179688 969.960938 612.265625 970.257813 623 C 970.589844 635 977.335938 644.777344 980 656 L 979 656 C 972.421875 644.140625 963 632.03125 962 618 C 960.894531 601.707031 969.359375 589.398438 977.398438 576 C 990.179688 554.707031 1004.628906 534.25 1015.753906 512 C 1019.640625 504.21875 1023 495.738281 1023.960938 487 C 1024.496094 481.5 1021.933594 475.070313 1024 470 M 1271 470 C 1286.996094 482.296875 1309.921875 492 1316 513 L 1309 510 C 1314 518.207031 1321.277344 526.75 1324 536 C 1320.785156 534.148438 1314.34375 527.308594 1310.429688 529.816406 C 1304.855469 533.394531 1303.621094 551 1301.65625 557 C 1293 584.039063 1281.796875 612.792969 1278 641 L 1277 641 C 1277 613.304688 1275 587 1268.371094 560 C 1267.304688 555.734375 1259.292969 536.203125 1263 533.132813 C 1264.90625 531.59375 1268.429688 534.113281 1270 535.070313 C 1276.390625 539 1281 544.5625 1287 549 L 1278 517 C 1284 522 1288.203125 530.445313 1290 538 L 1291 538 C 1290.753906 526.0625 1288 513.710938 1285.804688 502 C 1285.183594 498.757813 1286 492.570313 1284.855469 490 C 1281.660156 483.355469 1268.660156 478.8125 1271 470 M 465 478 C 457.402344 519 497.371094 558 517.425781 590 C 523.65625 600 531.933594 610.011719 533.699219 622 C 536.421875 640.484375 524 656.679688 516 672 L 515 672 C 518.792969 656 527.234375 644.148438 523 627 C 518.839844 609.316406 507.199219 589.546875 493.984375 577.09375 C 485.539063 569.132813 475.335938 564.773438 468.4375 555 C 457.429688 539.394531 455.847656 523.355469 456 505 C 454.34375 506.664063 453 508 451 509 C 452.878906 499.019531 455 483.105469 465 478 M 125 490 C 136 549.339844 148 610.265625 170 667 C 172.257813 663.128906 174.277344 659.136719 176 655 L 177 655 C 177.3125 692.542969 205.570313 725 228.4375 752 C 235.253906 760.070313 243.660156 766.75 249 776 C 237 770.425781 225.367188 755.363281 216 746 C 198 728.101563 180.839844 708.003906 169.785156 685 C 161.9375 668.675781 158.617188 651.261719 153.574219 634 C 147.945313 614.726563 141 596 134.308594 577 C 124.367188 549.167969 102.195313 517.527344 125 490 M 1379 493 C 1382 504.195313 1390.464844 515 1389.789063 527 C 1389.300781 535.773438 1384.585938 544 1381.691406 552 C 1375.714844 568.78125 1369.839844 585.453125 1363.199219 602 C 1349.855469 635.257813 1338.953125 671.128906 1320.546875 702 C 1309.296875 721 1294.472656 737.527344 1279 753 C 1270.269531 761.730469 1261.527344 771.414063 1251 778 C 1255.492188 768.3125 1265.359375 760.371094 1271.996094 752 C 1292.863281 725.683594 1321.902344 691.394531 1322 656 L 1323 656 C 1324.921875 660.058594 1326.734375 664.117188 1329 668 C 1338 645.75 1347.382813 623.695313 1352.199219 600 C 1354 591 1349.539063 582.335938 1352 574.058594 C 1353.277344 570.050781 1357 571 1358.933594 567.761719 C 1360.855469 564.414063 1357.574219 561 1358.777344 557.546875 C 1360.726563 552.179688 1366.9375 548.546875 1368.972656 542 C 1372.222656 531.558594 1375 521 1376.570313 510 C 1377.371094 504.402344 1375.699219 497.828125 1379 493 M 1051 497 C 1058.484375 510 1059.410156 525 1063.425781 539 C 1065.597656 546.597656 1069.300781 554 1067.472656 562 C 1064.386719 575.652344 1053 586.039063 1051 600 L 1050 600 L 1049 533 C 1052.546875 536.050781 1053.71875 539.585938 1055 544 L 1056 544 L 1051.714844 511 C 1051 506.421875 1049.203125 501.402344 1051 497 M 436 504 C 435.339844 519.402344 431.316406 534.578125 431 550 L 432 550 L 437 537 L 438 537 L 437 605 L 436 605 C 432.65625 591 420.601563 577 419.199219 563 C 418 551.566406 424.757813 539.789063 427.523438 529 C 429.628906 520.78125 429.386719 510.046875 436 504 M 800 560.4375 C 797 560.757813 793.753906 561 791 562.007813 C 785 564.414063 781.488281 571.761719 787 576.488281 C 791.449219 580.078125 798.695313 580.359375 804 579.828125 C 825 577.71875 819 558.371094 800 560.4375 M 607 603 L 607 604 L 603 604 C 604.507813 603.316406 605.3125 603.175781 607 603 M 665 619.601563 C 657.503906 621.136719 650.984375 629.789063 649.546875 637 C 648.34375 643.03125 652.847656 648 659 646.71875 C 665.976563 645.402344 672.804688 636.625 674.4375 630 C 675.941406 624 671.5 618.269531 665 619.601563 M 1044 625 C 1039.316406 644.660156 1033.984375 672.539063 1038 692 L 1034 690 C 1035.402344 693.015625 1036.996094 695.824219 1038 699 L 1032 697 L 1036 710 L 1028 707 C 1029.578125 714.644531 1031.382813 722.191406 1032 730 L 1031 730 C 1029.796875 726 1027.816406 723.140625 1025 720 C 1026 728.402344 1025 735.648438 1024 744 L 1023 744 L 1021 736 L 1020 736 C 1018.53125 743.097656 1016.355469 749.585938 1013 756 L 1012 756 L 1011 750 L 1010 750 C 1008 757 1003.707031 763 1000 769 L 999 769 C 999 731.488281 1010.453125 695.203125 1025 661 C 1029.863281 649.5625 1034.195313 633.121094 1044 625 M 443 628 C 448.949219 641.808594 457.988281 654.519531 464.730469 668 C 480.53125 699.601563 492 734.394531 492 770 C 485.257813 765.144531 481 757.558594 478 750 L 477 750 L 478 757 C 472.382813 752.183594 469.796875 743.726563 467 737 L 466 737 C 465.980469 740 465.808594 742.269531 465 745 C 459.804688 738.472656 461 729 461 721 C 458.1875 724.433594 456.429688 727.804688 455 732 L 454 732 C 455 724.089844 455.554688 716.648438 458 709 L 448 711 C 448.980469 706.71875 451.308594 703.039063 453 699 L 446 701 L 451 692 C 449.199219 692.5625 447.878906 692.824219 446 693 C 451.507813 678.824219 446.414063 661.546875 444.273438 647 C 443.40625 641.121094 440.628906 633.660156 443 628 M 850 629 C 861.59375 643.332031 876 654.367188 886.804688 670 C 909.675781 703.570313 921.886719 743.289063 932.859375 782 C 936.433594 794.605469 940 807.242188 943 820 C 943.949219 824.011719 946.394531 830.34375 951.851563 828.351563 C 957.316406 826.359375 953.789063 817.824219 952.882813 814 C 949.476563 799.621094 946 785.300781 942.371094 771 C 932 731.546875 918 689.351563 891 658 C 881 646.265625 865.898438 632 850 629 M 777 642.652344 C 758.378906 648.488281 767.488281 680.15625 787 673.382813 C 804.167969 667.421875 795.496094 637 777 642.652344 M 694 646.636719 C 683.535156 649.65625 676.339844 660.734375 674.46875 671 C 672.519531 681.707031 681.222656 687.1875 691 684.363281 C 700.769531 681.539063 707.640625 670.722656 708.816406 661 C 710 651 704.761719 643.53125 694 646.636719 M 960 659 L 959 660 L 960 659 M 833 676.027344 C 827 679.238281 827.269531 686.394531 832 690.441406 C 838 695.488281 852.5625 699.519531 859.957031 695.683594 C 865.988281 692.550781 865.902344 685 860.785156 681 C 854.613281 676.195313 840.445313 672.078125 833 676.027344 M 266 682 C 268.515625 702 271.285156 723 269.910156 743 C 268.457031 764.214844 262.667969 785 261 806 L 260 806 C 247.597656 778.023438 257.492188 745.75 261.726563 717 C 263.265625 706.5625 262 691.476563 266 682 M 1227 685 C 1234.625 712.066406 1242.355469 740.753906 1243 769 C 1243.28125 780.515625 1243.53125 791.5 1238 802 L 1237 802 C 1234.808594 774.285156 1229.816406 746.804688 1227.910156 719 C 1227.269531 709.621094 1223.371094 693.648438 1227 685 M 1031 696 L 1032 697 L 1031 696 M 708 909 C 713.195313 906.652344 713.875 909 714 914 C 718.542969 910.265625 720.601563 908.664063 721 916 C 723.417969 915 724.988281 913.757813 727 912 L 727 917 C 729.25 916 729.847656 915.25 731 913 L 732 913 L 732 917 L 734 916 L 733 922 C 735.582031 920.429688 736.675781 918.71875 738 916 L 739 916 L 739 921 C 741 919.785156 741.785156 919 743 917 L 744 917 L 743 924 C 747.589844 921.316406 753.648438 922.746094 755 918 C 756.863281 920 758.46875 921.792969 760 924 L 761 924 L 761 917 L 762 917 C 764.242188 920.578125 765.453125 918.179688 766 915 L 767 915 C 767.546875 917 768 918.253906 769 920 C 770.515625 918.546875 770.914063 918.1875 773 918 L 773 914 L 774 914 C 775.410156 916.5625 776.402344 917.671875 779 919 C 778.519531 914.644531 779.980469 914.164063 784 915 L 783 909 C 785.277344 911.128906 787.179688 912.699219 790 914 L 790 906 L 796 910 C 797.359375 905.824219 800.910156 907 803.710938 904 C 816.882813 889.617188 837.839844 886.414063 853 874.480469 C 867.425781 863.128906 866.78125 848.277344 870.652344 832 C 876.445313 807.652344 888.433594 790 878.769531 764 C 870.46875 741.699219 850.832031 731.78125 834 716.832031 C 823.871094 708 813.566406 697.082031 799 697.078125 C 781.265625 697.074219 766.671875 711.328125 749 711 C 730.398438 710.390625 716.273438 695.214844 697 697.105469 C 683.980469 698.382813 674.929688 711.792969 666 719.828125 C 645.847656 738 616.257813 750.042969 614 781 C 612.753906 800.089844 621.984375 812 627.53125 829 C 629.351563 834.578125 627.75 839.414063 628.300781 845 C 629.539063 857.578125 635.734375 867.089844 646 874.277344 C 658.386719 883 673 888.21875 687 893.800781 C 695.570313 897.230469 704.351563 899.710938 708 909 M 605 715.480469 C 597 716.769531 590.417969 722.078125 588.53125 730 C 586.507813 738.496094 590 747.359375 600 745.671875 C 608.316406 744.265625 616.929688 737.171875 619.351563 729 C 622 720 613.28125 714.125 605 715.480469 M 693 729.324219 C 714.800781 725.683594 735.316406 740 757 739 C 775.421875 738.175781 793.476563 723.28125 812 731.527344 C 824.625 737.152344 831 752.347656 834 765 C 835.273438 770 836.796875 778.816406 830.941406 781.257813 C 820.367188 785.664063 805.34375 774.5625 794 775.039063 C 776.597656 775.773438 759.488281 779.414063 742 779 C 727.542969 778.632813 713.585938 775 699 775 C 689.78125 775.003906 673.472656 783.195313 665.277344 779.398438 C 659.433594 776.6875 663.886719 766.214844 665.34375 762 C 670 748.269531 676.96875 732.003906 693 729.324219 M 631 777 C 631 793.570313 633.667969 815.410156 648 826.070313 C 656.992188 832.742188 677.214844 833.148438 677.851563 818 C 678 811.222656 672.527344 806.164063 669 801 C 676.261719 796.761719 684.472656 792.703125 693 792.089844 C 746.324219 788.261719 738.503906 880.265625 690 871.535156 C 682.574219 870.199219 675.304688 867.230469 669 863.136719 C 662 858.59375 655.945313 853 653 845 C 667.734375 848.050781 684.921875 858.320313 700 851.636719 C 720.328125 842.621094 728.496094 811.820313 707 799.53125 C 695.761719 793.109375 684 796.464844 673 801 C 678.320313 806.335938 684 812.066406 684.800781 820 C 686.234375 834.597656 667 838.625 656 836.53125 C 633.9375 832.371094 622.960938 796.164063 631 777 M 870 782 C 869.992188 795.664063 868.402344 812 859.472656 823 C 850.636719 834 827.761719 837.054688 818.433594 825 C 813.996094 819.199219 816.914063 811.542969 820.269531 806 C 821.886719 803.328125 825.851563 799.644531 823.453125 796.394531 C 818.570313 789.777344 803 793 797 796 C 772.699219 808.265625 779.28125 841.085938 803 849.453125 C 819.410156 855.238281 833.976563 843.296875 849 839 C 842.476563 861.605469 810.917969 880.285156 789 867.070313 C 770 855.6875 767 825.480469 776.378906 807 C 783.9375 792.027344 801.511719 787.101563 817 791.15625 C 820.515625 792.074219 827 793.175781 829.261719 796.417969 C 832.949219 802 820.214844 810.722656 824.457031 819 C 829.421875 828.648438 842.363281 827.664063 850 822.210938 C 864.4375 812 863.789063 796.398438 870 782 M 582 788.589844 C 569.285156 792 563.742188 821.203125 581 816.566406 C 593 813.339844 598 784.492188 582 788.589844 M 753 813 C 753 830.714844 750 848.328125 750 866 L 749 866 C 749 851 745.78125 826.578125 753 813 M 949.660156 836.015625 C 946.691406 838.460938 952.757813 842.015625 954.953125 840 C 957.820313 837.222656 952.199219 834 949.660156 836.015625 M 991 838.664063 C 979 841.375 993.617188 858.28125 1001.984375 856.074219 C 1005.246094 855.210938 1012.421875 847.648438 1009.867188 844 C 1007.460938 840.441406 994.96875 837.769531 991 838.664063 M 433 845 L 433 846 L 429 846 C 430.507813 845.316406 431.316406 845.175781 433 845 M 950 848.042969 C 945.886719 852.144531 955.765625 865.136719 959.882813 861 C 963.617188 857.109375 954.898438 843.253906 950 848.042969 M 987.859375 857.121094 C 982 861.15625 987.714844 877.367188 995.722656 873 C 1005.601563 867.453125 995 852 987.859375 857.121094 M 1044 857 L 1043 858 L 1044 857 M 444 858.332031 L 444.332031 858.667969 C 443.839844 858.832031 443.226563 858.332031 444 858.332031 M 449 859 L 449 860 L 446 860 C 447.246094 859.316406 447.546875 859.25 449 859 M 496.332031 871 C 491.792969 872.566406 497.84375 880.421875 501.679688 878.742188 C 506.570313 876.601563 500.445313 869.300781 496.332031 871 M 540 871.78125 C 530.832031 875.113281 535.855469 888 545.980469 884 C 555 880.125 547.75 869.003906 540 871.78125 M 953 875.046875 C 949 878.570313 950.332031 895 952.574219 899 C 953.757813 901.179688 957.234375 905.773438 960.257813 904 C 964.671875 901.078125 963.867188 884.023438 961.820313 880.003906 C 960.65625 877.71875 956 872.332031 953 875.046875 M 1113 881 L 1113 882 L 1106 880 C 1108.53125 879.464844 1110.511719 880.21875 1113 881 M 995 894 C 994.996094 891.421875 990.492188 875.378906 986.257813 883.605469 C 984 887.714844 992.339844 892.460938 995 894 M 1115 882 L 1114 883 L 1115 882 M 502 885 C 502.273438 887.039063 502.597656 889.015625 503 891.003906 C 506 901.40625 514.210938 894.328125 508.566406 888.417969 C 506.800781 886.566406 504.339844 885.820313 502 885 M 646 888.464844 C 633.96875 890.628906 625.855469 903.226563 634.394531 914 C 640.523438 921.707031 651.511719 924.675781 661 922.609375 C 671.847656 920.246094 677.902344 907.425781 671.347656 898.003906 C 665.984375 890.300781 655 886.832031 646 888.464844 M 388 889 L 388 890 L 382 891 C 384 889.773438 385.660156 889.355469 388 889 M 1010 898 L 1010 899 C 998.335938 901.453125 1019 921.808594 1022.847656 927 C 1043.503906 955.441406 1063.902344 996.019531 1064 1032 C 1072.28125 1027.214844 1075 1006 1078 997 C 1081 987.585938 1084.359375 978.117188 1088.28125 969 C 1090.292969 964.320313 1093.539063 958.265625 1092.257813 953 C 1090.449219 945.566406 1081.421875 939.617188 1076 935 C 1060.644531 921.324219 1043.949219 909.1875 1026 899.304688 C 1021 896.585938 1008 886.441406 1002.324219 890.039063 C 995.777344 894.132813 1007.261719 897.589844 1010 898 M 381 891 L 381 892 L 378 892 C 379.246094 891.316406 379.546875 891.25 381 891 M 376 892.332031 C 376.773438 892.332031 376 892.832031 375.667969 892.667969 L 376 892.332031 M 373 893 L 372 894 L 373 893 M 540 893.742188 C 532.453125 897 536.996094 906.535156 544.984375 903.234375 C 554.804688 899.175781 549 890.003906 540 893.742188 M 511.375 905.347656 C 508.246094 907.070313 511.382813 916.011719 514 913.824219 C 515.769531 912.347656 513.820313 904 511.375 905.347656 M 837 908.785156 C 829.175781 911.40625 829.441406 926 838.957031 922.253906 C 845.613281 919.667969 845.492188 906 837 908.785156 M 1080 915 C 1081.1875 916.1875 1081.527344 916.585938 1082 918 C 1080.453125 916.738281 1080.191406 916.804688 1080 915 M 814 918.746094 C 806.183594 922 808 938.199219 817.894531 934.253906 C 825.804688 931.0625 823.722656 915 814 918.746094 M 682 931.480469 C 675.285156 933 665 941.671875 673.226563 948.03125 C 678.90625 952.46875 691.277344 952.101563 698 950.46875 C 704.484375 949 711.945313 940.582031 704.773438 935 C 699 930.53125 688.796875 930.074219 682 931.480469 M 457 944 C 454.445313 948 451.738281 951.25 448 954 C 450.488281 950.019531 453.179688 946.746094 457 944 M 445 952 C 444 959 441.546875 964.007813 438 970 L 437 970 C 439 964.089844 441.230469 957 445 952 M 437 971 L 436 972 L 437 971 M 441 990 L 440 991 L 441 990 M 438 995 C 437.453125 996.636719 437.636719 996.453125 436 997 C 436.546875 995.363281 436.363281 995.546875 438 995 M 457 1000 L 456 1001 L 457 1000 M 815 1006 C 819.304688 1013.375 822.625 1021.386719 823 1030 L 824 1030 C 824.425781 1023.390625 824 1016.632813 824 1010 C 831 1015.449219 834.3125 1024.753906 837 1033 L 838 1033 C 837.320313 1027.644531 836 1022.414063 836 1017 L 837 1017 C 840.773438 1025.085938 855.175781 1041.0625 853.382813 1050 C 850.570313 1064 829.390625 1074.800781 817 1077.574219 C 798.335938 1081.753906 779 1081.550781 760 1082.015625 C 737.640625 1082.5625 714.9375 1084.019531 694 1074.109375 C 685.65625 1070.160156 679.203125 1063.46875 672 1058 C 669.316406 1055.808594 664.828125 1053.480469 663.957031 1050 C 662.304688 1043.136719 675 1026.097656 680 1022 L 677 1032 L 678 1032 C 680.863281 1025.164063 685 1018.222656 692 1015 C 691.796875 1019.746094 690.605469 1024.300781 690 1029 L 691 1029 C 693.378906 1022.019531 697.402344 1011.324219 705 1009 C 704.234375 1015.054688 704 1021 704 1027 L 705 1027 C 707 1019.484375 709.914063 1013.628906 714 1007 L 715 1007 L 714 1030 L 715 1030 C 715.609375 1022.519531 718.246094 1015.460938 722 1009 C 725.597656 1014.265625 724 1022.820313 724 1029 L 726 1029 C 726 1022.515625 727.269531 1012 733 1008 L 733 1030 L 735 1030 C 735.492188 1023.832031 736.484375 1014.644531 742 1011 C 742 1017.722656 742.773438 1024.390625 744 1031 L 745 1031 C 745.308594 1023.820313 747.554688 1017 749 1010 L 750 1010 C 751.925781 1017.445313 753.394531 1025.332031 754 1033 L 755 1033 C 756.691406 1026 758 1018.234375 759 1011 L 760 1011 C 763.753906 1017.664063 764.84375 1025.410156 765 1033 L 766 1033 C 766.941406 1025.589844 768.492188 1018.304688 770 1011 L 771 1011 C 771.582031 1018.375 773 1026 775 1033 L 776 1033 C 776 1024.488281 775.992188 1017.070313 779 1009 L 780 1009 C 781.285156 1015.628906 781.644531 1024.6875 786 1030 C 784.78125 1023.757813 785.234375 1014.285156 789 1009 C 792 1016.09375 793.394531 1024.324219 794 1032 L 795 1032 L 796 1007 L 797 1007 C 801.359375 1014.667969 801.984375 1022.621094 804 1031 L 805 1031 L 806 1007 L 807 1007 C 809.871094 1014.453125 811.835938 1022 812 1030 L 813 1030 C 813 1022.601563 810.625 1012.398438 815 1006 M 456 1013 L 455 1014 L 456 1013 M 478 1051 L 477 1052 L 478 1051 M 291.667969 1087.667969 C 291.722656 1087.722656 291.777344 1088.777344 291.332031 1088.332031 C 291.277344 1088.277344 291.222656 1087.222656 291.667969 1087.667969 M 800 1094 C 795.8125 1104.007813 788.277344 1116.789063 778 1121.441406 C 759.851563 1129.660156 734 1111 727 1095 C 752 1098.164063 775.171875 1094.066406 800 1094 M 990 1094 L 989 1095 L 990 1094 M 312 1100 L 315 1107 L 314 1107 C 312.632813 1104.554688 311.53125 1102.765625 312 1100 "/>
</g>
</svg>
