<?xml version="1.0" encoding="UTF-8"?>
<svg xmlns="http://www.w3.org/2000/svg" xmlns:xlink="http://www.w3.org/1999/xlink" width="1500pt" height="1500pt" viewBox="0 0 1500 1500" version="1.1">
<g id="surface1">
<path style=" stroke:none;fill-rule:nonzero;fill:rgb(0%,0%,0%);fill-opacity:1;" d="M 316 579 L 317 579 C 317 595.054688 320 607.734375 317 624 C 327.40625 625.660156 320.644531 647.238281 319.714844 655 C 315.359375 691.398438 325.453125 724.644531 335.976563 759 C 340.53125 774 344.34375 790.359375 343.984375 806 C 343.542969 825.355469 339 844.625 339 864 C 339 901.699219 348.878906 943.007813 359.71875 979 C 367.945313 1006.308594 381.585938 1030.339844 400 1052 C 408.777344 1062.101563 426.382813 1072.121094 431.78125 1084 C 434.527344 1090.039063 430 1101.332031 430 1108 C 429.71875 1123.074219 435.546875 1138.5625 445.300781 1150 C 455.730469 1162.230469 469.363281 1170.074219 485 1173.574219 C 498 1176.496094 508.222656 1174.667969 520 1182.515625 C 561.796875 1210.363281 601.289063 1239.453125 649 1257 C 683.261719 1269.507813 713.933594 1271 750 1271 C 763 1271 775.988281 1272.800781 789 1272 C 810.550781 1270.433594 831.808594 1264.347656 852 1257 C 899.464844 1239.542969 941.277344 1210.605469 982 1181.429688 C 993.242188 1173.371094 1004.179688 1174.4375 1017 1171.5 C 1032.429688 1168 1047.320313 1160 1056.84375 1147 C 1064.957031 1136.007813 1070.214844 1122 1069.945313 1108 C 1069.800781 1100.390625 1064.703125 1090.039063 1068.859375 1083 C 1074.9375 1072.699219 1087.691406 1064.648438 1095.960938 1056 C 1110 1041.261719 1122.527344 1023.800781 1130.574219 1005 C 1147.980469 964.332031 1158 914.152344 1159.960938 870 C 1160.996094 846.363281 1154.9375 822.433594 1157.171875 799 C 1160.214844 767 1173.65625 737.707031 1178.574219 706 C 1180.792969 691.703125 1183.902344 676.503906 1182.910156 662 C 1182 651.101563 1177.945313 640 1178 629.015625 C 1178.230469 624.707031 1182.75 624.433594 1183 620.828125 C 1183.597656 614.796875 1180.863281 608.242188 1181 602 C 1181.203125 594.226563 1183.839844 586.773438 1184 579 L 1185 579 C 1185.933594 624.28125 1191.238281 672.027344 1202.375 716 C 1206 730.820313 1214 755 1233 755 C 1240.851563 755 1246.925781 750.148438 1249.730469 743 C 1252.808594 735.152344 1252.59375 726.179688 1254.425781 718 C 1257.234375 705.4375 1261.675781 693 1266.449219 681 C 1277.988281 652.152344 1293 625 1308.425781 598 C 1319.96875 577.609375 1333.46875 557.164063 1338.574219 534 C 1343.910156 509.800781 1340.558594 484.160156 1332.308594 461 C 1309.636719 397.363281 1254.195313 349 1194 321.308594 C 1182.414063 316 1170.285156 311 1158 307.429688 C 1150.746094 305.382813 1142.816406 305.039063 1136 301.621094 C 1126.417969 296.816406 1120.960938 287.1875 1113 280.4375 C 1098.222656 268 1081.242188 257.519531 1064 248.757813 C 1026 229.503906 968.6875 212.03125 946.871094 263 C 943.648438 270.53125 942.351563 279 942 287 L 941 287 C 936.453125 275.515625 922.453125 275.359375 912 276.71875 C 897.203125 278.640625 882.304688 280.59375 868 285.027344 C 860.601563 287.316406 853.46875 293.113281 846 294.425781 C 840.886719 295.320313 837.1875 291.164063 833 289 C 826 285.414063 817.734375 282.632813 810 282.089844 C 797 281.179688 784.484375 282.644531 772 286.15625 C 764.746094 288.195313 757.679688 292.285156 750 292.539063 C 733.800781 293.082031 719.191406 281.75 703 281.039063 C 692.609375 280.585938 681.605469 282.417969 672 286.464844 C 666.246094 289 660.65625 294.785156 654 293.453125 C 647.625 292.183594 642 287.496094 636 285.34375 C 620.476563 280 603.511719 276.027344 587 276 C 576.933594 276 565.457031 276 560 286 C 556 279.316406 556.242188 271.308594 554 264 C 551.421875 255 545.859375 247.402344 539 241.09375 C 504.894531 209.734375 448.730469 241.761719 417 260.800781 C 408.371094 266 399.929688 271.449219 392 277.660156 C 382.472656 285.128906 374.640625 295.808594 364 301.648438 C 355.566406 306.277344 345 306.433594 336 309.34375 C 319.332031 314.683594 303.519531 322.246094 288 330.257813 C 226.78125 362 166.976563 426.769531 160.171875 498 C 156.253906 539 177.277344 571 196.574219 605 C 213 634.308594 227.78125 664.457031 239.574219 696 C 245.363281 711.476563 244.53125 730.480469 251.542969 745 C 255.585938 753.359375 265.171875 757.015625 274 754.351563 C 290.324219 749.425781 295.542969 726.339844 299 712 C 310 668.460938 310.289063 623.214844 316 579 M 491 387 C 485.960938 383.78125 486.429688 394.613281 486 398 L 485 398 L 485 394 C 478.894531 400.042969 476.617188 409.515625 472.679688 417 C 467.226563 427.367188 459.527344 436.324219 453 446 C 467 440.0625 478.578125 420.402344 482 406 L 483 406 C 488.875 406.582031 493.679688 391.226563 498 387.285156 C 510 376.253906 522.847656 366 535 354.828125 C 541.546875 349 546.550781 342 554 337 C 553.453125 344 551.65625 350 556 356 C 560.9375 340.429688 560.839844 308.050781 577 299.140625 C 590 292 613.855469 301.761719 627 305.71875 C 630.792969 307 641.425781 308.570313 640.804688 314.042969 C 639.890625 322.058594 627.570313 334.179688 623 341 C 602.519531 371.566406 577.328125 399 542 412 C 531.273438 416 520.179688 418.164063 509 420.398438 C 503 421.589844 495.679688 422 491 426 C 538.519531 420 585.535156 409.820313 622 376 C 634.296875 364.476563 644 352 653.332031 338 C 660.976563 326.535156 668.199219 313.214844 681 306.808594 C 705.300781 294.652344 726 315 750 315 C 768.925781 315 785.949219 302.285156 805 303.515625 C 827.558594 305 835.675781 321.085938 847 338 C 854.921875 349.828125 863.691406 361.105469 874 371 C 909.527344 405 959.867188 425 1009 425 L 1009 424 C 996.742188 421.078125 984 420.535156 972 416.65625 C 935.179688 405 904.882813 381 883.328125 349 C 877.398438 340.214844 871 331.660156 865 323 C 862.914063 320.046875 859.167969 316 861 312.109375 C 864.363281 305.390625 878.589844 304.683594 885 303.128906 C 895.421875 300.601563 916.308594 293.386719 925.894531 300.5625 C 930.921875 304.328125 933.492188 312.300781 935.5625 318 C 938.675781 326.558594 940.527344 336.007813 941.871094 345 C 942.183594 347.109375 942.40625 352.710938 945 353.367188 C 949 354.320313 948 339.179688 948 337 C 968.394531 348.789063 984.910156 371.277344 1001.90625 387.425781 C 1006.371094 391.667969 1007.277344 397 1010.363281 402 C 1010.9375 403 1013.289063 406.675781 1014.8125 405.078125 C 1016.355469 403.460938 1014.238281 398 1014 396 C 1013.171875 383.523438 1002.675781 381.082031 996 370 C 983 348.644531 971.589844 327.804688 966.804688 303 C 964.925781 293.25 963.195313 281.5 966.925781 272 C 979.890625 239 1017.925781 252.277344 1042 262.578125 C 1088.707031 282.570313 1120.492188 313.292969 1140.421875 360 C 1144.628906 370 1150.421875 380.324219 1152 391 L 1151 391 C 1143.402344 372.484375 1132.894531 348.824219 1117 336 C 1143.492188 381.347656 1165 426.277344 1176.210938 478 C 1179.445313 493 1183.957031 508.589844 1184 524 L 1183 524 C 1181.242188 502.476563 1169.246094 480.566406 1160.851563 461 C 1136.9375 405.289063 1104.988281 337 1045 314 L 1045 313 C 1051 313 1057 312.234375 1063 313.761719 C 1085.703125 319.613281 1093.695313 339.328125 1108 355 C 1100.605469 337.238281 1087.617188 317.640625 1070 308.808594 C 1053.242188 300.410156 1030.324219 302.777344 1020.996094 321 C 1017.582031 327.671875 1018 334.738281 1018 342 L 1017 342 C 1009.410156 328.164063 1006.984375 312.75 1009.4375 297 C 1009.816406 294.582031 1013.636719 283.441406 1009.773438 282.632813 C 1004.6875 281.5625 1002.1875 297.761719 1001.613281 301 C 997.890625 322.085938 1007.21875 342.195313 1015.425781 361 C 1037.691406 412.035156 1072.714844 457.5 1109.285156 499 C 1124.824219 516.632813 1147.632813 532.230469 1160 552 C 1142.753906 543.050781 1127 523.101563 1113.910156 509 C 1092.285156 485.746094 1070.316406 462.660156 1050.261719 438 C 1040 425.394531 1032 411 1021 399 C 1028.890625 418 1042 433.003906 1054.574219 449 C 1071.796875 471.066406 1088.664063 493.738281 1108 514 C 1122.820313 529.460938 1140.675781 542.03125 1154.824219 558 C 1162.167969 566.285156 1160.632813 579.480469 1159.910156 590 C 1159.503906 596 1159.328125 604.09375 1152 599 C 1153.210938 603.292969 1154.402344 607.574219 1155 612 L 1151 611 C 1156.304688 639.460938 1162.785156 668 1158.570313 697 C 1153.914063 729.144531 1138.265625 758.457031 1135.171875 791 C 1132.324219 821 1139.273438 851 1137.960938 881 C 1136.753906 908.59375 1128.289063 936.347656 1121.628906 963 C 1114.203125 992.6875 1100.398438 1018.078125 1080 1041 C 1075.257813 1046.398438 1070.609375 1051.648438 1065 1056.242188 C 1063.539063 1057.4375 1060 1061.09375 1057.847656 1059.742188 C 1055.1875 1058.109375 1059 1053.316406 1060.214844 1052 C 1065.535156 1045.605469 1071.253906 1039.609375 1076.347656 1033 C 1100 1002.242188 1105.976563 969.511719 1118 934 C 1110.667969 941.726563 1110.171875 960 1106.65625 970 C 1099.351563 991.109375 1088.230469 1010.195313 1074.871094 1028 C 1071 1033 1060.992188 1050.523438 1054.28125 1050.652344 C 1049.578125 1050.746094 1055.335938 1042.160156 1056 1041 C 1063.273438 1030.808594 1070.199219 1020.671875 1076.601563 1010 C 1094.875 979.527344 1107.46875 944.660156 1109.910156 909 C 1111.300781 888.695313 1109 868.296875 1109 848 L 1107 848 C 1106.871094 895.09375 1092 940.3125 1073.425781 983 C 1066.652344 998.523438 1056.570313 1023.519531 1043 1034 C 1043 1018.789063 1055.378906 1007.503906 1061 994 C 1055.78125 999.378906 1052.625 1007.785156 1048 1014 C 1046.914063 1015.699219 1044.828125 1019.792969 1042.339844 1019.792969 C 1039.925781 1019.792969 1040 1015.539063 1039.925781 1014 C 1039.21875 1007 1037.984375 1000 1036.601563 993 C 1032.480469 972.371094 1027.308594 951.539063 1019.394531 932 C 1015.785156 923.085938 1006.769531 912.179688 1009.316406 902 C 1011.292969 894.113281 1022.714844 891.125 1029 887.574219 C 1043 879.589844 1059.730469 870.277344 1067 855 C 1060.878906 858.132813 1054.710938 860.460938 1048 862 L 1048 861 C 1086.855469 844.234375 1096.894531 801.738281 1116 769 C 1121.664063 776 1122.9375 786.425781 1124 795 C 1127.933594 822.296875 1118 845.585938 1116 872 L 1117 872 C 1124.96875 844 1131.707031 817.425781 1130.984375 788 C 1130.566406 771 1123 754.324219 1125.289063 737 C 1127.40625 720.71875 1136.753906 706.722656 1140.84375 691 C 1146.765625 668.25 1144 643.085938 1136.667969 621 C 1133.628906 612 1131.3125 600.753906 1124 594 C 1138.371094 618.714844 1139.675781 650.621094 1133.996094 678 C 1132 687 1129.828125 701.484375 1121 706 C 1120.953125 689.207031 1112.984375 674.261719 1104.851563 660 C 1094.269531 641.457031 1081.613281 623.140625 1065 609.464844 C 1041 589.769531 1011.746094 580 985 565.140625 C 958 550.222656 926.203125 530.804688 894 535.429688 C 873.976563 538.304688 856 550.164063 842.714844 565.015625 C 837.542969 570.765625 832.707031 576.597656 828.34375 583 C 826.886719 585.140625 824.796875 590 821.925781 590.367188 C 818.882813 591 817.757813 586.078125 817.238281 584 C 815.441406 576.804688 815 569.378906 815 562 C 815 541.496094 822 522.667969 833.910156 506 C 839.6875 498 848.820313 491 853 482 C 841.722656 485.601563 830 498.128906 822.589844 507 C 798 536.117188 788.941406 573.691406 796.449219 611 C 798.699219 622.183594 803.722656 632.558594 804.828125 644 C 805.773438 653.738281 803.429688 663.328125 804 673 C 804.59375 680.382813 807.933594 691.742188 804.261719 698.679688 C 802 703 795 699.507813 792 698.097656 C 781 693.074219 772.902344 683.382813 767.308594 673 C 749.554688 640.050781 750 593.429688 750 557 L 748 557 C 748 594.527344 753.433594 638.710938 735.21875 673 C 729.714844 683.359375 720.785156 693.148438 710 698.097656 C 706.652344 699.636719 699.988281 702.765625 697.316406 698.679688 C 693.859375 693.390625 696 682.09375 696 676 C 696 654.4375 697.625 636.8125 703 616 C 713.253906 577.570313 703.371094 535.742188 677 506 C 669.597656 497.425781 659 485.558594 648 482 C 652.398438 491.433594 662.46875 499.304688 668.5625 508 C 679.929688 524.21875 686 543.234375 686 563 C 685.988281 569.417969 686 586 680.386719 590.246094 C 676.644531 593.023438 666 574 663.714844 571 C 647.449219 551.4375 626 536.027344 600 534.183594 C 572 532.214844 545.523438 552 522 563.753906 C 491.371094 579.175781 456.804688 592 431 615.171875 C 414 630.367188 402.808594 649 392.753906 669 C 386.296875 682 381 695.488281 380 710 C 371.738281 703.621094 369.195313 691.738281 366.882813 682 C 360.179688 653.746094 364.742188 624.785156 375 598 C 369.53125 603.65625 366.363281 615.449219 364 623 C 357.433594 645.820313 353.757813 670.722656 360.425781 694 C 364.757813 709.105469 374 723.167969 375.824219 739 C 377.753906 757 370.300781 773.335938 369 791 C 367.171875 819 373.332031 847.378906 384 873 L 385 873 C 375.320313 837.523438 369.5625 803.203125 384 768 L 385 768 C 399 802 415.472656 845.257813 452 861 L 452 862 C 444.945313 861.050781 438.789063 858 432 856 C 440.628906 868.683594 451.347656 877.304688 465 884.242188 C 472.554688 888.085938 486.890625 892.085938 490.972656 900.015625 C 495.554688 909 485.8125 921.085938 482.605469 929 C 474.5625 949 468.636719 970.058594 464.210938 991 C 462.1875 1000.5625 464 1014 458 1022 C 451.710938 1012.671875 446.316406 1002.585938 439 994 C 443.324219 1005.148438 449.71875 1014.648438 455.53125 1025 C 456.921875 1027.472656 458.773438 1037 453.589844 1031.664063 C 444.953125 1023 439.191406 1008 433.753906 997 C 417.675781 965 405.21875 931.308594 398.199219 896 C 395.933594 884.589844 394 872.644531 394 861 C 393.996094 860 394.558594 850 392.285156 850.632813 C 390 851.394531 391 858.257813 391 860 C 390.996094 869.671875 390 879.285156 390 889 C 390 931.761719 401.429688 974.300781 423.449219 1011 C 429.445313 1021 436 1030.535156 442.84375 1040 C 444.179688 1042 449 1047.683594 446.867188 1050.167969 C 444.796875 1052.492188 440.542969 1047.242188 439.429688 1046 C 433.828125 1039.664063 428.570313 1033 423.722656 1026 C 405.304688 999.765625 384.683594 966.148438 384 933 L 382 933 C 386.40625 968 399 998.242188 419.425781 1027 C 425 1035 430.996094 1042.585938 437.269531 1050 C 439 1052.050781 443.667969 1056.214844 442.289063 1059.378906 C 440.925781 1062.5 436 1058 435 1057 C 428.570313 1051.070313 422.664063 1044.597656 417 1038 C 396.507813 1014.121094 384.433594 986.242188 376.871094 956 C 370.445313 930.285156 362.667969 903.671875 362 877 C 361.332031 849.085938 369 821 365.714844 793 C 361.355469 756.160156 344.699219 722 341.171875 685 C 338.984375 662.117188 343.703125 634.253906 349 612 L 345 613 L 348 600 L 343 604 C 340.414063 594.003906 337.484375 573.539063 342.457031 564.039063 C 344.910156 559.347656 350.210938 556.425781 354 553 C 363.414063 544.171875 373.199219 535.652344 381.714844 526 C 405.5 499.035156 428.554688 472 449.882813 443 C 460.402344 428.703125 472 414.511719 479 398 C 470.207031 407.648438 463.785156 420.664063 455.390625 431 C 434 457.179688 411.558594 481.746094 389.285156 507 C 376 522 360.289063 543.300781 342 552 C 346.882813 543.554688 355.21875 538 361.996094 531 C 374 519 385.628906 506.015625 396.726563 493 C 431.398438 452.339844 463.324219 407.472656 486.21875 359 C 494.582031 341.296875 502 320.742188 498.714844 301 C 498 297.070313 495.777344 283.609375 491 282.632813 C 486.820313 281.765625 489.984375 292.414063 490.375 294 C 494.429688 310.546875 489 325.386719 484 341 L 483 341 C 482.996094 307.453125 453.460938 295.214844 426 312 C 408.394531 322.640625 400.871094 341.089844 391 358 C 396.589844 353 399.328125 345.007813 404 339 C 417.433594 321.800781 432.375 313 454 313 L 454 314 C 392.316406 337.652344 357.648438 415.019531 335.574219 473 C 328.640625 491.210938 320.960938 510 317 529 L 316 529 C 318.910156 492.121094 326.71875 451.386719 340.605469 417 C 350 393.519531 366 371.285156 373 347 C 364.335938 356.5 357.929688 370.15625 353 382 C 351.335938 372.488281 362.964844 355.746094 366.859375 347 C 386.953125 302 431.246094 269.570313 478 255.027344 C 484.523438 253 491 251.085938 498 251.003906 C 503.808594 251 509.421875 251 515 252.75 C 539.628906 260.828125 537.59375 290.757813 532.265625 311 C 529 322.804688 524.699219 334.089844 519.246094 345 C 512 359.363281 504 377.027344 491 387 M 772.378906 329 C 767.316406 331 784.421875 339.46875 786 340.679688 C 804.652344 355.027344 812.195313 379.808594 798.226563 400 C 794.410156 405.515625 789.433594 410 785.230469 415 C 784.238281 416.214844 781.636719 419.234375 783 421 C 786 424.210938 793.335938 415.628906 795 414.015625 C 802.90625 406.34375 817.527344 390.53125 830 395.488281 C 837 398.269531 840.792969 405.492188 845.4375 411 C 852.171875 419 859.925781 426.761719 868 433.382813 C 890.753906 452.042969 918.644531 463.214844 944 477.71875 C 965.941406 490.273438 987.3125 507.101563 1001.796875 528 C 1005.492188 533.335938 1008.34375 539.0625 1010.953125 545 C 1011.453125 546.109375 1012.625 549.621094 1014.527344 548.652344 C 1019 546.324219 1011 533.625 1009.777344 531 C 1000.519531 513.292969 988.429688 496.699219 974.914063 482 C 951.261719 456.269531 921.78125 446.726563 894 427 C 866.980469 407.816406 845.59375 382 824 357 C 813.804688 345.007813 801.492188 335.398438 786 331.152344 C 782.476563 330.1875 775.964844 327.449219 772.378906 329 M 716 329.519531 C 693.9375 334.226563 679.695313 353.628906 666.390625 370 C 655.492188 383.40625 643.648438 396.132813 631 408 C 616.824219 421.113281 600.929688 432.742188 584 442.140625 C 565 452.609375 543.929688 461.566406 529.285156 478.003906 C 515 494 500.890625 511 491.246094 530 C 490.390625 531.703125 480.878906 549.792969 486.804688 549.792969 C 488.980469 549.792969 492 538 493 536 C 500.199219 522.570313 511.425781 511.808594 523 502.25 C 552.949219 477.511719 590.367188 464.484375 622 442.277344 C 632 435.199219 641.558594 427.148438 649.828125 418 C 656 411.113281 661.273438 402 669 396.652344 C 680.976563 388.4375 697 405.523438 705 413.039063 C 706.6875 414.652344 715 425 717.863281 421.289063 C 720.53125 417.714844 712 411.097656 710 409 C 701 399.3125 694.183594 388.6875 694.746094 375 C 695.269531 362.203125 701.863281 350 712 342.042969 C 715.839844 339.09375 726.867188 336.265625 728.652344 331.757813 C 730.269531 327.6875 717.78125 329.136719 716 329.519531 M 342 332 C 332 357.640625 314.785156 379.308594 292 394.804688 C 281.980469 401.621094 270.378906 405.277344 260 411.453125 C 242.644531 421.777344 228.722656 437.347656 220.875 456 C 212 477 216 500.304688 223 521 C 235 557.316406 256.183594 590.128906 264 628 L 263 628 C 239.34375 571.101563 191.902344 505.355469 220 442 C 228.558594 422.820313 245.746094 409.003906 258.6875 393 C 273.199219 375.058594 280.390625 353.785156 305 347 C 298.511719 369.519531 277.5 379.253906 265 397 C 283.480469 389.265625 299 373.324219 311.539063 358 C 320.523438 347 326.441406 334.105469 342 332 M 1237 397 C 1221.828125 382 1202.285156 368.8125 1196 347 C 1220.742188 356.601563 1226.886719 373.730469 1242.460938 393 C 1257.746094 412 1276.808594 428.339844 1284.921875 452 C 1300.984375 499 1275.722656 546.023438 1255.246094 587 C 1249 599.414063 1244.984375 613 1238 625 L 1237 625 C 1248.46875 569.582031 1306.359375 507 1277.191406 449 C 1251.972656 399 1169.265625 394.730469 1160 332 C 1174.679688 334.167969 1179.691406 345.355469 1188 356 C 1199.632813 371 1217.90625 392.1875 1237 397 M 1251 333 C 1251.546875 334.636719 1251.363281 334.453125 1253 335 C 1252.230469 333.6875 1252.3125 333.769531 1251 333 M 1254 335 C 1255.222656 336.195313 1255.421875 336.316406 1257 337 C 1255.777344 335.804688 1255.578125 335.683594 1254 335 M 1260 335 C 1260.546875 336.636719 1260.363281 336.453125 1262 337 C 1261.453125 335.363281 1261.636719 335.546875 1260 335 M 384 342 C 360.3125 369.792969 343.851563 415 339 451 C 346.355469 444.675781 346.777344 432.785156 349.671875 424 C 355.78125 405.433594 363 386.230469 372.308594 369 C 376.171875 361.832031 386.617188 350.625 384 342 M 1116 345 C 1118 359.015625 1128.871094 371.324219 1134.691406 384 C 1144.683594 405.765625 1150.34375 429.214844 1160 451 C 1163 443.402344 1157.269531 431.515625 1155 424 C 1149.476563 404.015625 1141.648438 385.496094 1132.242188 367 C 1128.4375 359.515625 1123.632813 349.085938 1116 345 M 373 346 L 374 347 L 373 346 M 749 360 C 748.359375 375 742.898438 389.304688 740.433594 404 C 737.71875 420.191406 737.613281 436.613281 738 453 C 738.632813 478.285156 748.929688 502.574219 749 528 L 751 528 C 752 502.191406 762.347656 477.0625 762.984375 451 C 763.761719 419.238281 753.460938 391.164063 751 360 L 749 360 M 1166 364 C 1179.589844 381 1193 402.433594 1211 415 C 1206.378906 399.339844 1226.417969 411 1233 414.246094 C 1249.832031 422.664063 1264.613281 435.441406 1272 453 C 1295.519531 507.660156 1245.765625 559.144531 1238 611 L 1237 611 C 1237 577.324219 1248.828125 542.382813 1243.5625 509 C 1239.507813 483.304688 1222.761719 462.050781 1212 439 L 1211 439 C 1220.347656 459.121094 1232.960938 480.238281 1233.960938 503 C 1235.195313 531.144531 1222 558.171875 1224 586 C 1210 577.554688 1209.796875 549.355469 1207.730469 535 C 1201.898438 494.539063 1193.789063 454.320313 1182.578125 415 C 1179.300781 403.496094 1175.414063 392.230469 1171.304688 381 C 1169.332031 375.605469 1165.257813 370 1166 364 M 334 368 C 329.773438 386.277344 321 404 315.71875 422 C 305.886719 454.78125 299.425781 488.1875 294.421875 522 C 291.734375 540.152344 293 573.085938 278 586 C 270.175781 555.757813 261.742188 521.019531 268.886719 490 C 273 472 283.9375 456.585938 289 439 L 288 439 C 278.828125 462.277344 262.183594 481.828125 257.613281 507 C 251.558594 540.355469 263 576.210938 263 610 L 262 610 C 259.976563 596.304688 252.746094 582.679688 247.425781 570 C 232.621094 534.722656 213.449219 493.507813 228 455 C 234.976563 436.796875 249.953125 423.777344 267 415.246094 C 274.476563 411.507813 293.996094 399.15625 290 416 C 306.316406 403 316 378.691406 334 368 M 352 383 L 350 389 L 349 389 C 349.710938 386.589844 350.425781 385 352 383 M 1251 385 C 1265.652344 399.652344 1281.246094 413.558594 1292.65625 431 C 1301 443.78125 1307.964844 457.539063 1312.921875 472 C 1320.183594 493.179688 1322 517.707031 1314.304688 539 C 1306.675781 560.015625 1290.917969 576.324219 1277.882813 594 C 1262 615.496094 1247 641.730469 1241 668 L 1240 668 C 1243.453125 641.253906 1253.53125 614.628906 1266.308594 591 C 1287.179688 552.410156 1309.492188 521 1304.828125 475 C 1302.574219 452.78125 1291.191406 431.730469 1276.867188 415 C 1270 407 1253.449219 395.109375 1251 385 M 348.667969 390.667969 C 348.722656 390.722656 348.777344 391.777344 348.332031 391.332031 C 348.277344 391.277344 348.222656 390.222656 348.667969 390.667969 M 246 391 C 240.472656 400 232 406.226563 225.285156 414 C 214.308594 426.515625 205 441.050781 200 457 C 185.210938 503.398438 205.203125 538.277344 226.691406 578 C 241.40625 605.203125 255.835938 637.078125 260 668 L 259 668 C 252.828125 641.324219 238.363281 615.097656 222.574219 593 C 209.859375 575.210938 194 559.011719 186.695313 538 C 179 516.355469 181.234375 492.390625 188.695313 471 C 193.785156 456.40625 201 442.828125 209.667969 430 C 219 416 230.648438 399 246 391 M 1152.667969 392.667969 C 1152.722656 392.722656 1152.777344 393.777344 1152.332031 393.332031 C 1152.277344 393.277344 1152.222656 392.222656 1152.667969 392.667969 M 1016 395 C 1016 414.292969 1029.371094 436.390625 1046 446 C 1044 436 1034.574219 428.59375 1029.453125 420 C 1024.691406 412.011719 1022.945313 401.414063 1016 395 M 485 399 L 485 402 L 484 402 C 484.25 400.546875 484.316406 400.246094 485 399 M 484 404 L 483 405 L 484 404 M 622 732 C 628 717.292969 634.664063 704 637.246094 688 C 638.238281 682 639.539063 674 635 669 C 634.246094 678.210938 631.570313 690.140625 624 696 C 623.246094 678.4375 629.953125 663.214844 630 646 L 629 646 C 625.726563 656.058594 621.414063 666.492188 620 677 L 619 677 C 615.226563 662.414063 618 647.785156 618 633 C 613 637.695313 613.507813 646.554688 613 653 L 612 653 C 611.167969 642.488281 604 622.277344 612.515625 613.320313 C 616.945313 608.605469 623 613.484375 626.382813 617.09375 C 634 625.710938 640.285156 637.089844 644 648 L 645 648 C 643.707031 639.210938 640.621094 630.519531 638 622 C 636.394531 616 634 610.203125 630.640625 605 C 626.300781 598.570313 620.496094 594.222656 613 592.15625 C 576.503906 582.097656 560.882813 613.535156 530 623 C 499.558594 632.253906 470 627.703125 443 648.664063 C 432.792969 656.574219 423.761719 665.773438 415.886719 676 C 409.402344 684.425781 404.453125 694.53125 395 700 C 404.429688 627 476.195313 600.15625 533 571.753906 C 559.628906 558.4375 593.601563 541.40625 623 557 C 644 568 658.289063 588 668.21875 609 C 672.226563 617.488281 676.566406 627.414063 675.910156 637 C 674.746094 654 663.730469 673.035156 656.246094 688 C 648.523438 703.445313 637.921875 723.742188 622 732 M 1105 700 C 1087.191406 687.421875 1077.917969 664.332031 1060 650.652344 C 1044.703125 639 1026.996094 631.429688 1008 628.4375 C 995.3125 626.441406 982.375 627 970 623 C 940.246094 613.511719 920.574219 578.039063 885 593.339844 C 880.195313 595.402344 875.734375 598.269531 872 602.039063 C 867.457031 607 864.863281 612.777344 862.695313 619 C 859.445313 628.320313 857.203125 638.382813 855 648 C 863 638.488281 867.578125 613.738281 881.996094 611.785156 C 887.203125 611.082031 889 617 889.984375 621 C 892.496094 632.328125 888.890625 642.792969 888 654 L 887 654 C 886 647.335938 886.78125 638.097656 882 633 C 880.8125 647.253906 883 661.597656 882 676 C 873.980469 670.6875 876.273438 654.777344 870 647 C 871.40625 664.691406 876 680.023438 876 698 L 875 698 C 869.441406 688.472656 867.902344 678.132813 864 668 L 863 668 C 863 679.78125 862.296875 691.574219 865.722656 703 C 868.902344 713.621094 875.445313 722.566406 879 733 C 863.304688 724 852.65625 704.761719 844.753906 689 C 837.195313 674 824.628906 653.175781 824 636 C 823.886719 627.652344 827.789063 619.46875 831 612 C 841.195313 588.300781 859 566 883 555.3125 C 910.550781 543 942.390625 558.449219 967 570.753906 C 995 584.796875 1029.652344 596.5 1054 616.464844 C 1068 628.050781 1078.40625 643.535156 1087.796875 659 C 1095.351563 671.441406 1104.347656 685.003906 1105 700 M 585 729 L 586 729 C 586 711.648438 583.621094 692 592 676 C 597.308594 684.449219 598.300781 697.242188 599 707 C 600.785156 728.125 599 751.820313 586.90625 770 C 575.832031 786.441406 556.703125 799.351563 541 811.128906 C 526 822.304688 508.898438 834 490 836.699219 C 476.953125 838.5625 466 834.078125 454 830 C 467.605469 843.75 487.222656 847.066406 505 843 L 505 844 C 469.957031 857.589844 438.335938 838.757813 420 807 C 428.542969 809.726563 435.949219 817.5625 443 823 C 423.582031 795.433594 400.664063 769.683594 404.171875 733 C 410.4375 667.398438 488.859375 612 547 657.667969 C 556 665 563.625 674.046875 569.546875 684 C 577.679688 697.667969 583 713.25 585 729 M 1057 823 C 1065.617188 818.195313 1072.175781 810.394531 1081 806 C 1061.273438 837.546875 1032 855.757813 996 844 L 996 843 C 1014.355469 845.320313 1030.402344 843.410156 1045 831 C 1033.285156 833.710938 1023.417969 838.515625 1011 836.5625 C 992.890625 833.710938 976.605469 823 962 812.421875 C 945.671875 800.753906 928 789.199219 915.898438 773 C 901.730469 754.285156 897.757813 726.8125 900.71875 704 C 901.921875 694.726563 902.910156 684.089844 908 676 C 916.242188 691.640625 914 711 914 728 C 918.53125 720 919.273438 710.539063 922.613281 702 C 930.808594 681.0625 945 661.289063 965 650.3125 C 1022.453125 618.753906 1090 672.371094 1095.828125 732 C 1099.347656 768.328125 1077.34375 795.550781 1057 823 M 677 644 C 677 671 671.195313 707.65625 649 726 C 650.609375 707.5625 662.996094 687.738281 668.65625 670 C 671.3125 661.671875 671.671875 651.121094 677 644 M 824 645 C 827.699219 656 829.964844 667.199219 834.203125 678 C 840.476563 694 849 710.253906 853 727 C 847.4375 722.707031 843.820313 716 840.203125 710 C 830.285156 693.675781 815.722656 664.726563 824 645 M 412 727 L 413 727 C 417.242188 719.730469 422.203125 712.4375 426 705 C 425.730469 714.019531 421.441406 722.773438 421 732 C 419.621094 764.371094 432.296875 794 462 809.515625 C 494.820313 826.714844 524 807.503906 551 788.425781 C 562.988281 780 577.65625 773.828125 577.660156 757 C 577.671875 718.660156 541.390625 672.242188 504 664.808594 C 465.894531 657.230469 413.851563 684.507813 412 727 M 1074 706 C 1079.929688 712.070313 1083 718.640625 1087 726 C 1089.960938 718.738281 1083.449219 709.050781 1079.796875 703 C 1068.308594 684 1049.800781 670.394531 1028 665.667969 C 976.28125 654.449219 923 706.632813 923 758 C 923 772.121094 933.746094 777.035156 944 784.027344 C 963.546875 797.355469 986 816.492188 1011 817 C 1020.175781 817.164063 1028.863281 814.253906 1037 810.242188 C 1077.539063 790.261719 1087 746.296875 1074 706 M 505 684 C 496.46875 685.824219 486.769531 680.378906 478 680 C 485.46875 677 498.761719 679 505 684 M 1022 679 L 1022 680 C 1012.90625 681.175781 1004.195313 684.808594 995 685 C 1001.527344 677.527344 1012.980469 679 1022 679 M 507 690.328125 C 513 689.226563 520.816406 689.769531 525.945313 693.648438 C 534.675781 700.253906 527.234375 708.222656 519 709.671875 C 512.679688 710.78125 504.339844 710.472656 499 706.351563 C 490.824219 699.824219 499.527344 691.667969 507 690.328125 M 984 690.300781 C 989.929688 689.425781 998 690.011719 1002.566406 694.558594 C 1009.796875 702 999.777344 708.699219 993 709.699219 C 986.527344 710.65625 977.222656 710.691406 972.316406 705.605469 C 964.785156 697.792969 977.625 691.242188 984 690.300781 M 467 703.449219 C 474.980469 701.398438 479.320313 712.636719 470.957031 714.523438 C 463.769531 716.140625 458.933594 705.546875 467 703.449219 M 1029 703.605469 C 1036.519531 700.578125 1043 711.121094 1034.941406 714.242188 C 1028 717 1021.421875 706.742188 1029 703.605469 M 1074 705 L 1073 706 L 1074 705 M 520 717.660156 C 525.554688 717.070313 526.355469 725.769531 520.960938 726.339844 C 515.433594 727 514.8125 718.230469 520 717.660156 M 980.945313 718.085938 C 986.585938 719.203125 984.675781 727.511719 979 726.457031 C 973.394531 725.382813 975.390625 717 980.945313 718.085938 M 505 719 C 510.199219 719 509.203125 727.136719 504 726.535156 C 499.746094 726.015625 500.804688 719 505 719 M 952 718 C 951.480469 730.0625 947.847656 742.085938 951.75 754 C 960.183594 779.738281 992.519531 802.566406 1020 799.828125 C 1034 798.433594 1045 790.617188 1057 784 C 1037 818.390625 994 805.457031 968 788.691406 C 961.402344 784.453125 952 780.773438 947.601563 774 C 945.214844 770.296875 946.578125 766.03125 945.582031 762 C 944.417969 757.296875 940.507813 753.824219 939.570313 749 C 937.734375 739.53125 945.261719 724.226563 952 718 M 995.910156 719.007813 C 1000.996094 719.085938 1000.167969 727 995 726.339844 C 990.195313 725.808594 991.253906 719 995.910156 719.007813 M 550 719 C 554 729 561.789063 739.574219 559.773438 751 C 559 755.128906 555.703125 758 554.742188 762 C 553.742188 766.164063 555.910156 770.054688 553.398438 774 C 548.640625 781.460938 538.3125 785.710938 531 790.1875 C 503.230469 807.199219 462 816.667969 442 782 C 452.804688 787.691406 462.824219 796.148438 475 798.714844 C 503.433594 804.707031 536 784.019531 547 758 C 550.265625 750.554688 551.472656 742.035156 550.910156 734 C 550.5625 729.035156 548 723.769531 550 719 M 1019 996 C 1010.402344 989.652344 1007 978 1001.800781 969 C 990.816406 950.589844 979.175781 932.617188 966.976563 915 C 933.363281 866.464844 890.945313 825 843 790.578125 C 835.808594 785.4375 831.753906 779 825.570313 773.601563 C 819 768 805.269531 761.792969 797 758.453125 C 784.320313 753.332031 770.390625 754 757 754 C 740.476563 754 722.9375 752.269531 707 757.519531 C 698.34375 760.371094 691.835938 765.746094 684 770.03125 C 681.425781 771.441406 677.863281 771.320313 675.558594 773.023438 C 672.785156 775.078125 671.773438 779.140625 668.957031 781.472656 C 639.730469 805.628906 609.855469 826.824219 583 854 C 555.191406 882.148438 531.722656 915.613281 510.679688 949 C 504.289063 959.144531 498 969.449219 492.308594 980 C 489.222656 985.703125 486.8125 992.582031 481 996 C 484.738281 966.578125 497.421875 937.726563 509.691406 911 C 549 825.179688 621.949219 738 720 721.433594 C 839.195313 701.4375 936.316406 801.152344 985.246094 899 C 995 918.714844 1003 939.195313 1010.34375 960 C 1014.5 972 1018.992188 983.144531 1019 996 M 464 721.449219 C 473.238281 720.441406 475.332031 734.804688 465.996094 735.714844 C 457.246094 736.5625 455 722.433594 464 721.449219 M 1035 721.476563 C 1043.582031 719.621094 1046 733.59375 1037.980469 735.546875 C 1028.820313 737.753906 1025.753906 723.476563 1035 721.476563 M 537 732 C 537 747.671875 531.902344 766.601563 515 772 C 519.503906 765.191406 525.34375 759.367188 529 752 C 532.214844 745.628906 532.722656 737.71875 537 732 M 965 732 C 968.792969 748.390625 977.925781 758.03125 986 772 C 973.933594 766.691406 956.621094 746 965 732 M 441 751 C 449.882813 765.460938 460.933594 779.277344 477 786 L 477 787 C 463.230469 784.148438 435.46875 769.214844 441 751 M 1061 751 C 1058.453125 769.824219 1042.550781 784.5 1024 787 L 1024 786 C 1042.242188 778.402344 1047.695313 763.289063 1061 751 M 565.910156 757.753906 C 570.78125 756.390625 569 767.136719 565 768.246094 C 559.410156 769.785156 561.667969 759 565.910156 757.753906 M 933.300781 757.753906 C 937.96875 756.363281 941.992188 766.414063 937.496094 768.339844 C 932.484375 770.484375 928.445313 759.195313 933.300781 757.753906 M 919 908 C 896.617188 898.679688 876.550781 884.402344 852 881 C 844 880 832.464844 878.378906 826 884 C 854.777344 884 881 895.203125 906 908.691406 C 924.195313 918.53125 942.3125 927.503906 958 941.285156 C 978.585938 959.371094 998.425781 990.238281 1010 1015 C 984.742188 1002.105469 968.613281 969.789063 948.910156 950.089844 C 921.265625 922.445313 887.851563 908.378906 851 898 C 856.742188 903.800781 865.640625 904.734375 873 907.613281 C 884.515625 912.121094 895.730469 918.507813 906 925.355469 C 935.289063 945 952 970.707031 972.898438 998 C 980.199219 1007.597656 991.433594 1015.269531 997 1026 C 963.320313 1011.277344 944.390625 971 909 958 L 909 959 C 922.394531 966 933.984375 980.652344 945 991 C 958 1003.082031 975.761719 1015.472656 986 1030 C 970.363281 1023.488281 959.980469 1011.496094 948 1000.039063 C 931.542969 984.300781 915 968.042969 896 955.355469 C 872.734375 940 843.214844 928.277344 815 927.039063 C 799.382813 926.355469 784.464844 930 769 930 L 769 932 C 782.847656 932 796 930.574219 810 932.285156 C 845.96875 936.71875 879 952.769531 907 975.613281 C 940.984375 1003.472656 969.703125 1050.265625 1015 1061 L 1015 1062 C 1005 1062.785156 995.859375 1063.507813 986 1061.101563 C 961 1055.011719 943.644531 1035.652344 923 1022 C 938.707031 1049.171875 971.789063 1066.421875 1001 1074 L 1001 1075 C 915.953125 1075 897.277344 956.011719 810 956 L 810 957 C 844.4375 961.355469 871.675781 982 893.5625 1008 C 909.28125 1026.738281 921.820313 1048 941 1063.535156 C 954.480469 1074.527344 970.402344 1082.042969 987 1087 C 994.929688 1089.316406 1006 1088.394531 1012.851563 1093.703125 C 1020.820313 1100.003906 1010.394531 1107.695313 1004 1108.695313 C 936.621094 1119.238281 900.863281 1038 860 1001 C 845.5625 987.824219 824.332031 972.421875 804 972 L 804 973 C 856.859375 980.125 879.695313 1032.691406 907.898438 1070 C 925.183594 1093 950.476563 1112.207031 979 1118 C 988.476563 1120 997.433594 1120.324219 1007 1119 C 1021.574219 1117 1032.332031 1109.742188 1045 1103 C 1042.585938 1158.34375 972.195313 1158 939 1132.496094 C 918.699219 1117 905.683594 1094.609375 891.28125 1074 C 875.585938 1051.539063 858.316406 1030.597656 837 1013.261719 C 813.519531 994.164063 772.488281 990.222656 759.3125 961 C 743.554688 926.046875 782 903.464844 807 888.398438 C 819.226563 881.019531 831 873.390625 846 874.039063 C 866 875 882.167969 889.574219 900 897 C 895.175781 887 885.617188 882.054688 876 877.246094 C 852.917969 865.714844 827 861.136719 804 875.46875 C 792.460938 882.632813 778.476563 907 762 899.347656 C 755.972656 896.570313 754.628906 890 753.949219 884 C 752.441406 870.746094 753 857.339844 753 844 C 753 840.203125 754.945313 827.148438 750.59375 825.207031 C 745.875 823.097656 747 840.78125 747 843 C 747 856.714844 748.484375 871.398438 746.710938 885 C 745.949219 890.832031 744.230469 897.335938 737.984375 899.347656 C 726.179688 903.148438 716.75 892 709 885 C 698 875.097656 684.953125 867.136719 670 866.089844 C 649 864.628906 628.601563 872.347656 612 884.761719 C 607.265625 888.300781 605.378906 893.183594 601.414063 897.035156 C 596.363281 902 587.445313 905.316406 581 908 C 586.824219 887.828125 608.257813 873.019531 624 860.792969 C 630.964844 855.382813 639.6875 849.011719 649 849.261719 C 674.703125 850 703.816406 871.832031 725.816406 847 C 737.347656 834 731.605469 818.050781 723.304688 805 C 721 801.535156 717.609375 794.4375 713 793.78125 C 707.492188 793 707.910156 802.773438 708.285156 806 C 709.5625 817 714.898438 836 700 839.46875 C 697 840.175781 693.972656 840.03125 691 840 C 659 839.617188 678 796.160156 691 784.09375 C 698.191406 777.402344 708.804688 771.207031 719 772.175781 C 728.894531 773.117188 737.980469 778.609375 748 779 C 760.671875 779.203125 772.21875 771.257813 785 772.089844 C 808.632813 773.632813 832.53125 805.179688 827.65625 829 C 824.890625 842.5 801.914063 845.109375 793.570313 835.671875 C 787.480469 828.789063 791.304688 816.195313 792.285156 808 C 792.75 804.125 794.578125 796.152344 789.773438 794.035156 C 785 792 780.617188 801.011719 778.691406 804 C 771.515625 815.140625 764.292969 828 770.996094 841 C 787.40625 873.058594 823 852 848 849.175781 C 869.9375 846.824219 894.730469 873 907.699219 888 C 912.578125 893.703125 917.660156 900.496094 919 908 M 657 799 C 661.5625 813.398438 653.203125 814 641 814 C 643.402344 807 650.789063 802.539063 657 799 M 860 814 C 857 814.234375 854 815 851 814.519531 C 846.640625 814 837 806 844.519531 802.242188 C 849.9375 799.53125 858.1875 810.117188 860 814 M 701 815 C 698 818.535156 694.929688 822.28125 690 822.695313 C 687.554688 823 681.984375 820.253906 680 822.117188 C 677 825.097656 683.871094 830.40625 686 831.425781 C 696.316406 836.367188 707.65625 824.742188 701 815 M 799 815 C 799 819.542969 797.894531 826 800.742188 829.785156 C 807.746094 839.332031 820.230469 830.148438 823 822 C 811.816406 822.480469 808.339844 821.496094 799 815 M 923 888 C 907.277344 876.832031 896 860.625 879 850.453125 C 869.375 844.730469 853.273438 844.328125 846 836 C 854.976563 832.210938 866 834.578125 875 837.695313 C 898.777344 846 916 864 923 888 M 656 835 C 649.324219 843.503906 636.230469 843.515625 627 848.257813 C 609.429688 857.285156 590.953125 871.441406 580 888 C 575.863281 878.140625 585.449219 867.335938 592 861.039063 C 610.644531 843.132813 630.527344 835 656 835 M 718 862.550781 C 710 864.164063 708 875.378906 718 873.640625 C 725.8125 872.265625 727 860.703125 718 862.550781 M 779 863 C 769.976563 866 781.65625 876.089844 787.941406 874.011719 C 797 871.015625 785.1875 860.8125 779 863 M 456 1105 C 478.898438 1110.4375 493.898438 1123.519531 519 1119.5625 C 571.527344 1111.273438 592 1064.703125 620.882813 1027 C 640.335938 1001.496094 665.53125 982.308594 696 972 L 696 971 C 637.511719 984.53125 612.941406 1037.070313 574 1076 C 554 1096 523.632813 1115.808594 494 1108.625 C 487.859375 1107.136719 479.59375 1099.542969 487 1094 C 494 1089 504.925781 1090 513 1087.570313 C 528.246094 1083.289063 543.390625 1076.40625 556 1066.765625 C 587 1043.011719 603.410156 1005.140625 635 982 C 646 973.703125 658.210938 967.675781 671 962.601563 C 677.285156 960.109375 685.789063 959.285156 691 955 C 661.292969 961.128906 634 973 612.171875 994.285156 C 586.640625 1019.171875 569.664063 1055.503906 535 1069.546875 C 523 1074.355469 510.636719 1075 498 1075 L 498 1074 C 527.925781 1070 561 1049.328125 576 1023 C 566 1030.371094 557.417969 1039.382813 547 1046.136719 C 528.957031 1057.824219 508.195313 1062 487 1062 L 487 1061 C 506.371094 1048.339844 526.246094 1039.285156 544 1023.714844 C 578.851563 993.144531 607.210938 958.332031 652 941.425781 C 678.640625 931.371094 703.199219 932 731 932 L 731 930 C 718.242188 929.453125 705.878906 926.476563 693 927.039063 C 658.332031 928.558594 625 941.355469 597 961.425781 C 567.785156 982.304688 546 1013 514 1030 C 519.390625 1022.347656 527.222656 1017.222656 534 1011 C 545.863281 1000 556.972656 988.050781 569 977.171875 C 576.574219 970.316406 586.179688 964.386719 593 957 C 571.65625 969.585938 553.722656 985.011719 535 1001.128906 C 525 1009.703125 516 1020.300781 504 1026 C 510 1014.183594 521.96875 1005.691406 529.84375 995 C 540.59375 980.402344 549.566406 965.289063 562 952.003906 C 586 926.46875 617.457031 908.519531 651 899 L 651 898 C 610.589844 903.21875 572.171875 927.144531 545.171875 957 C 529 974.8125 513.71875 1002.734375 492 1014 C 495.648438 1002.476563 505.238281 992.226563 511.574219 982 C 519.273438 969.574219 526.753906 956.589844 537.171875 946.171875 C 556.960938 926.371094 582.828125 913.21875 608 901.691406 C 629.585938 891.808594 650.992188 884 675 884 C 670.199219 879.445313 663.261719 880 657 880.015625 C 640 880.429688 623.921875 889 608 894 C 612.65625 888.277344 619.414063 885 626 881.78125 C 660 865.675781 685.304688 881.574219 714 900.34375 C 731.914063 912.0625 751.242188 930.246094 745.238281 954 C 736.582031 988.273438 691.238281 992.484375 666 1011.15625 C 640.90625 1029.71875 621.578125 1055.53125 604 1081 C 586.820313 1106 569.414063 1133.144531 540 1144.796875 C 507 1157.804688 459.261719 1146 456 1105 M 542 981 C 562.296875 969.6875 579 951.816406 599 939.425781 C 629.480469 920.449219 659.328125 912.4375 694 906 C 683 901.410156 662.96875 907.59375 652 910.710938 C 622.472656 919.101563 593.476563 932.511719 569 951.128906 C 559 958.621094 546.539063 969.199219 542 981 M 807 905 L 807 907 C 846.835938 907.027344 883.8125 927 916 948.671875 C 928.914063 957.375 942.4375 976 958 979 C 949.589844 966.28125 937 956.621094 925 947.628906 C 889.644531 921.375 850.472656 908.429688 807 905 M 904 1131 C 874.636719 1127.042969 869.570313 1102.039063 852.816406 1083 C 841.785156 1070.464844 826.5 1062.816406 814 1052 C 818.296875 1065.460938 832.960938 1071.019531 841.699219 1081.015625 C 854.539063 1095.703125 858 1116.144531 858 1135 L 857 1135 C 856.9375 1112.007813 839.21875 1087.785156 821 1075 C 835.960938 1090.003906 859.359375 1133.636719 833 1149 C 834.910156 1142.3125 838.910156 1136.15625 838.921875 1129 C 838.953125 1104.21875 815 1071.75 790 1068 L 790 1069 C 810.519531 1075.039063 823.753906 1100.71875 823.996094 1121 C 824 1127.351563 825.304688 1138 818.785156 1141.820313 C 807.75 1148.359375 784.320313 1137.386719 774 1133 C 770.546875 1131.53125 761.535156 1129.394531 760.921875 1125 C 760.316406 1120.554688 772.429688 1112.105469 775 1108 C 764.429688 1109 754.773438 1112.484375 744 1112 C 740.386719 1111.785156 733.730469 1108.113281 730.464844 1109.695313 C 727 1111.308594 733.871094 1116.570313 734.996094 1117.574219 C 741.601563 1123.476563 740.675781 1127.449219 733 1131.6875 C 721.839844 1138 708.496094 1140.394531 696 1142.128906 C 691.296875 1142.785156 685.433594 1144.121094 681.214844 1141.140625 C 671 1134.007813 676.230469 1111.34375 679.816406 1102 C 685.972656 1086 698.1875 1078.296875 710 1067 C 688 1078.519531 659.746094 1101.140625 661 1129 C 661.460938 1136.273438 665.277344 1142.464844 668 1149 C 657.949219 1144.566406 656.984375 1136 657 1126 C 657 1107.699219 665.496094 1090.074219 678 1077 C 660 1089.496094 643.1875 1113.40625 643 1136 L 642 1136 C 642 1118.070313 644 1099.789063 655.527344 1085 C 664.65625 1073.152344 677.515625 1064.644531 687 1053 C 673.894531 1060.566406 656 1072.09375 646.667969 1084 C 632.464844 1102 624 1130.4375 597 1131 C 602.632813 1119.09375 613 1110 620.328125 1099 C 633.574219 1079.257813 644.335938 1056.539063 662 1040.171875 C 706.421875 999.054688 777 992.292969 826 1029.652344 C 845.589844 1044.609375 859 1065.441406 872 1086 C 881.351563 1100.660156 897.871094 1115.0625 904 1131 M 922 1021 L 923 1022 L 922 1021 M 707 1046 C 722.5625 1044.726563 736.859375 1037.078125 753 1037.078125 C 768 1037.078125 781.433594 1045.335938 796 1046 C 782.246094 1028.472656 745.894531 1030.1875 727 1035.578125 C 720 1037.558594 710.898438 1039.394531 707 1046 M 711 1057 C 722.945313 1055.390625 733.859375 1048.589844 746 1048.039063 C 761.414063 1047.339844 775 1054 790 1056 C 786 1049 778.382813 1046.511719 771 1044.429688 C 753.585938 1039.515625 721.480469 1038.765625 711 1057 M 712 1078 C 724 1077.03125 734.933594 1070 747 1069.089844 C 761.449219 1068.03125 774.433594 1075.152344 788 1079 C 773.867188 1048.695313 728.484375 1052.300781 712 1078 M 685 1069 C 681.949219 1071.378906 679.796875 1073.566406 678 1077 C 681.347656 1075.257813 685 1073.066406 685 1069 M 816 1070 C 817.550781 1072.136719 818.863281 1073.449219 821 1075 C 819.449219 1073 818 1071.550781 816 1070 M 592 1074 C 582 1081.78125 576.300781 1094.585938 567.828125 1104 C 544.1875 1130.265625 517.453125 1140.492188 483 1134 C 489.515625 1142.769531 499.957031 1143.015625 510 1143 C 539 1143 562.644531 1124.15625 578.328125 1101 C 582.820313 1094.371094 593.761719 1082.519531 592 1074 M 907 1074 C 917.253906 1105.457031 946.785156 1136.082031 980 1142 C 991 1144 1008.242188 1146 1016 1136 C 990.9375 1136.015625 968.242188 1137 948 1118.824219 C 938.320313 1110.1875 929.226563 1100.410156 921.476563 1090 C 917.285156 1084.367188 914 1076.054688 907 1074 M 470 1118 C 483.558594 1136.367188 529.355469 1138 543 1119 C 530.386719 1119.550781 518.785156 1126 506 1126 C 493.296875 1126 482.253906 1119.808594 470 1118 M 964 1118 C 976.773438 1134.265625 1018.820313 1135 1031 1118 C 1019.492188 1119 1008.726563 1123.269531 997 1123 C 985.804688 1122.714844 975.226563 1118.09375 964 1118 M 797 1155 L 797 1156 C 779.59375 1156 762.488281 1152.585938 745 1153.015625 C 727.914063 1153.433594 711.167969 1157 694 1157 C 699.988281 1153.816406 707.476563 1154.671875 714 1153.335938 C 727.761719 1150.511719 740.730469 1146.105469 755 1147.089844 C 769.257813 1148.070313 782.777344 1154.386719 797 1155 M 804 1156 L 804 1157 L 799 1157 C 800.769531 1156.222656 802 1156.089844 804 1156 M 852 1197 C 846.613281 1204 836.742188 1206.765625 829 1210.308594 C 808.6875 1219.609375 787.378906 1226.234375 765 1228 L 765 1230 C 815.808594 1230 859.46875 1200.582031 910 1201 C 906.964844 1206 900 1208.542969 895 1211.21875 C 883 1217.511719 871.339844 1223.550781 859 1229 C 835.230469 1239.058594 810 1248.128906 784 1250 C 770.746094 1250.816406 757.300781 1248 744 1248 C 718.886719 1248.011719 696.472656 1249.070313 672 1241.566406 C 650.652344 1235.019531 629.699219 1224.613281 610 1214.21875 C 607.792969 1213.054688 590.238281 1204.1875 592.753906 1202.074219 C 595.289063 1200 600 1201.554688 603 1201.828125 C 612.636719 1202.746094 621.507813 1202.554688 631 1205.152344 C 664.902344 1214.429688 697.179688 1230 733 1230 C 724.3125 1224.605469 713.710938 1225.347656 704 1223.113281 C 691.476563 1220.230469 679.757813 1215 668 1210 C 663.421875 1208 650.183594 1203.714844 648.347656 1198.71875 C 646.925781 1195 656.75 1193.347656 659 1192.710938 C 671.847656 1189.058594 684.855469 1188.304688 698 1186.574219 C 714.1875 1184.445313 730.765625 1190 747 1190 C 783.582031 1190.058594 816.535156 1183.621094 852 1197 "/>
</g>
</svg>
