<?xml version="1.0" encoding="UTF-8"?>
<svg xmlns="http://www.w3.org/2000/svg" xmlns:xlink="http://www.w3.org/1999/xlink" width="1500pt" height="1500pt" viewBox="0 0 1500 1500" version="1.1">
<g id="surface1">
<path style=" stroke:none;fill-rule:nonzero;fill:rgb(0%,0%,0%);fill-opacity:1;" d="M 433 126 L 433 127 C 455.515625 137 483.265625 146 508 147 C 521.601563 147.554688 535.628906 147.242188 549 144.550781 C 557.195313 143 565.515625 138.503906 574 139.097656 C 583 139.734375 590.425781 146.53125 599 149 C 596 143 589.980469 140.191406 586 135 C 592 135 598 133 604 133.210938 C 617 134 628.519531 139.042969 641 142 C 636.355469 134 626 128.792969 617 128 L 617 127 C 630.183594 127 641.945313 125.398438 655 129 C 665.523438 131.695313 674.539063 138.140625 685 141 C 678 131.136719 664.460938 124.300781 653 121 L 653 120 C 674.980469 120 689.539063 134.351563 710 138 C 703 128.238281 688.796875 120.765625 677 119 L 677 118 C 697.242188 118.011719 712 128.550781 729 138 C 725.683594 128.246094 713.867188 120.757813 704 119 L 704 118 C 717.425781 118 730.621094 120.8125 744 121 C 757.339844 121.148438 770.625 118 784 118 L 784 119 C 775.355469 123.089844 763.1875 129.046875 759 138 C 776.773438 129.6875 787 119.058594 808 119 L 808 120 C 797.464844 122.503906 785.605469 129.367188 779 138 C 798.839844 134.464844 813.609375 121.441406 835 121 L 835 122 C 825.53125 125 809.4375 131.6875 805 141 C 827.589844 131.609375 844.199219 125.042969 869 127 L 869 128 C 860.507813 130.015625 852.484375 135.21875 847 142 C 856.605469 140.582031 865.335938 135.660156 875 134.285156 C 884.589844 133 893.4375 135 903 135 C 898 139.484375 891.882813 143 889 149 C 897.339844 146.597656 904.222656 140.207031 913 139.183594 C 926.347656 137.628906 942.371094 145.53125 956 146.828125 C 975.496094 148.6875 996.21875 144.199219 1015 139.371094 C 1024.527344 137 1047 134 1053 126 C 1040.632813 126.53125 1028.347656 130.507813 1016 132 C 990.675781 134.554688 965.3125 135 940 131.714844 C 896.367188 126.144531 856.773438 106.21875 812 106 C 788.46875 106 765.300781 112.558594 742 112 C 733.292969 111.773438 724.679688 109.011719 716 108.171875 C 693.542969 106 671.429688 105.261719 649 108.28125 C 606 114.054688 566.492188 132 523 135 C 506.574219 136.035156 489.234375 135.171875 473 132.5625 C 459.707031 130.425781 446.546875 126.113281 433 126 M 811 118 L 811 119 L 808 119 C 809.246094 118.316406 809.546875 118.25 811 118 M 836 120 L 835 121 L 836 120 M 357 192 C 366.304688 189.457031 374.773438 184.53125 384 181.722656 C 426.945313 168.640625 470.851563 157 516 157 C 509.652344 152.191406 496.800781 154 489 152.574219 C 477 150.425781 462.972656 142.453125 451 143.214844 C 433.925781 144.292969 417.710938 160.714844 402 167 C 389 172.183594 364.785156 180 357 192 M 968 155 L 968 157 C 1025.785156 157 1076.976563 173.722656 1131 192 C 1117.523438 173.742188 1085.945313 168.757813 1067 157.546875 C 1057.605469 152 1047.472656 143.03125 1036 143.027344 C 1027 143.027344 1018.523438 148 1010 150.105469 C 996.289063 153.546875 982 155 968 155 M 1023 173 C 1029.527344 177 1038.625 176.796875 1046 178.425781 C 1055.636719 180.550781 1065 185.550781 1075 186 L 1075 187 C 1068.320313 187 1057.242188 185.808594 1053 192 C 1066 194.539063 1079.753906 197 1092 202.4375 C 1098.421875 205.296875 1103.472656 210.488281 1110 213 L 1110 214 C 1100.542969 212.046875 1092.679688 210.238281 1083 211 L 1083 213 C 1114.621094 213.652344 1127.78125 237.425781 1151 253.789063 C 1169.4375 266.785156 1192.171875 271.070313 1212 281.257813 C 1225 288.011719 1234.421875 299.730469 1247 307 C 1235.949219 272.324219 1188.902344 264.257813 1162 247 C 1144.664063 235.730469 1133.972656 217.601563 1120 203 C 1138.402344 205.707031 1152 217.621094 1169 223 C 1162.828125 211.203125 1147.324219 205.414063 1136 199.753906 C 1104.308594 184 1058.945313 169.054688 1023 173 M 320 223 C 335.757813 217.265625 349.757813 205.503906 367 204 L 367 205 C 351.621094 213 344.296875 232.6875 331 243.671875 C 308.71875 262.074219 278.304688 264.796875 257 286 C 250.96875 292.003906 243.683594 298.289063 242 307 C 253.183594 299.0625 261.613281 289.023438 274 282.308594 C 291.921875 272.59375 312.238281 268 330 258 C 346 249.03125 356.726563 233.566406 372 223.699219 C 382 217.144531 393.597656 217.09375 404 212 L 404 211 C 395 210.621094 387.625 211.242188 379 214 L 379 213 C 392.265625 206.402344 402.203125 200 417 196.652344 C 423 195.28125 431.644531 194.804688 435 189 C 428.207031 188.121094 421.894531 187 415 187 L 415 186 C 432.226563 185.257813 447.59375 175.144531 465 175 C 457.761719 169.515625 436.648438 175.164063 428 176.804688 C 399.90625 182.132813 372.628906 190 347 202.753906 C 337.511719 207.496094 324.726563 213 320 223 M 432 204 C 454.664063 203.53125 479.8125 197.796875 501 190.054688 C 506.75 188 513.8125 187.128906 519 184 C 512 181.636719 506 183 499 183 C 478.503906 183.238281 445.625 186.355469 432 204 M 969 183 L 969 185 C 981 186 991.496094 192.066406 1003 195.253906 C 1019.210938 199.746094 1038.28125 202 1055 204 C 1051.457031 196.753906 1042 193.582031 1035 190.8125 C 1013.949219 182.664063 991.1875 183 969 183 M 416 221 L 416 222 C 424.644531 221.246094 432.617188 217 441 215 C 457 211 479 214 490 199 C 463.320313 201.125 440.347656 211.011719 416 221 M 999 199 C 1002.828125 205 1011.527344 207.046875 1018 209 C 1036 214.320313 1054.808594 219.035156 1073 224 C 1068 217.691406 1060.226563 214.699219 1053 211.800781 C 1036.210938 205.0625 1017.253906 199.050781 999 199 M 368 203.332031 C 368.773438 203.332031 368 203.832031 367.667969 203.667969 L 368 203.332031 M 401 237 L 401 238 C 410.753906 238.199219 420.3125 240.234375 430 241 L 430 242 C 406.707031 242.480469 369.328125 249.832031 355 270 C 378.34375 263.277344 396.894531 252 422 250 L 422 251 C 395.308594 253.125 366.871094 268 344 281 C 336.921875 285.046875 325 289.773438 321 297 C 343.675781 289.609375 365.285156 273.503906 389 270 L 389 271 C 366.605469 276.320313 346.558594 296 330 310.832031 C 322.242188 317.8125 312.855469 325 309 335 C 336 321.210938 355 288.78125 387 284 L 387 285 C 380.339844 287.4375 374.839844 292.070313 369 296 C 353.269531 306.589844 331.640625 321 324 339 C 340.875 331 352.234375 314.40625 371 309 L 371 310 C 350.640625 319.632813 324 342.113281 315 363 C 321.699219 360 325.609375 353.382813 331 348.589844 C 341.25 339.578125 353.441406 330.410156 366 325 L 366 326 C 350.230469 334 331.382813 354 326 371 C 341.273438 360.234375 350.890625 344.109375 368 335 C 357.746094 345.253906 343.292969 356.761719 341 372 C 351.300781 369.03125 360.703125 361.578125 369 355 C 364.460938 366.066406 356.777344 376.3125 354 388 C 364.472656 382 371.359375 365.820313 380 357 C 374.1875 369.289063 362.839844 378.699219 359 392 L 365 388 C 360.539063 399 354.679688 411 356 423 C 359.714844 418.089844 363 411 365 405 L 366 405 C 361.402344 431.726563 342.234375 453.832031 342 482 L 343 482 C 346.882813 471.714844 350 461.777344 355.308594 452 C 360.257813 443 367 434.074219 370 424 L 371 424 C 366.671875 442.230469 353.738281 457.636719 347 475 C 358.859375 466.445313 371.464844 443.125 378 430 L 379 430 C 376.417969 447.480469 364.316406 461.800781 356.320313 477 C 349.648438 489.679688 345.796875 504 344 518 C 350.269531 513 352.835938 496.5625 356.308594 489 C 364.371094 471.445313 375.933594 454.195313 389 440 C 378.675781 480 355 519.183594 355 561 L 356 561 C 361.546875 546.300781 366 531.496094 372.425781 517 C 378.203125 503.679688 386 489.527344 388 475 L 389 475 C 386 512.628906 358.953125 544.617188 356 582 L 357 582 C 364 568.601563 373.816406 552.523438 378 538 L 379 538 C 372.378906 561.160156 355.605469 590 363 615 L 364 615 C 365.800781 600.761719 369 587.195313 374.859375 574 C 380.398438 561.371094 388.941406 547.734375 391 534 L 392 534 C 390 548.042969 384.496094 562.265625 380.882813 576 C 373.878906 602.644531 368.828125 628.316406 370 656 C 371.671875 693.269531 391.390625 725.546875 396 762 L 397 762 C 397 723.804688 379.679688 688.792969 377 651 C 375.9375 634.203125 380.253906 618.09375 384.371094 602 C 387.519531 589.703125 388.6875 576.117188 397 566 C 381.390625 631.566406 401.382813 693.527344 402.984375 759 C 403.457031 778.273438 398.183594 794.511719 395 813 L 394 813 C 394 800.027344 391.628906 787.808594 390 775 C 385.707031 778.253906 385.578125 786 384.753906 791 C 382.601563 804.136719 382.972656 830.5 370 838 C 370 828.394531 373.242188 819.503906 374 810 L 372 810 C 370.28125 829.671875 356.429688 849.179688 345.65625 865 C 343 868.710938 336.734375 880.015625 331 878.539063 C 325.253906 877 327.820313 865.128906 325 861 C 321 868.753906 321 878 318 886 L 317 886 C 314.234375 878.820313 312 871.746094 312 864 L 311 864 C 309.300781 867.222656 308 870.535156 307 874 L 306 874 C 305.246094 864.542969 304.324219 853 301 844 L 300 844 L 299 861 L 298 861 C 292.585938 844 280.425781 830.128906 275.894531 812 C 268.765625 783.472656 275 758.503906 275 730 C 264.53125 735.441406 262 756.429688 260 767 L 259 767 C 255.289063 742 245 719.074219 245 693 L 243 693 C 240.488281 712.753906 238.328125 728.148438 241 748 L 240 748 C 238.324219 735.546875 234.59375 723.695313 234 711 C 232.398438 673.507813 238 636.414063 238 599 L 239 599 C 246.363281 626 254.191406 657.046875 249 685 C 255.722656 680 254.339844 660 255.285156 652 C 259.691406 614.785156 250.761719 578 250 541 L 251 541 C 251.484375 552.269531 255.925781 563.195313 258.847656 574 C 263.601563 591.570313 267.691406 609.34375 272 627 C 274 634.675781 275.613281 652.160156 282 657 C 278.71875 631.042969 279.550781 604.816406 274.738281 579 C 270.753906 557.625 261.382813 536.617188 259.175781 515 C 258.691406 510.28125 260.3125 505.695313 259.695313 501 C 257.65625 485.429688 250 470 243.363281 456 C 240.347656 449.683594 237 440 231 436 C 232.78125 449.789063 239 462.382813 241.535156 476 C 242.84375 483.410156 242 491.492188 242 499 L 241 499 C 239.765625 490.609375 235.769531 469.132813 229 464 C 233 495.695313 242 529.039063 242 561 L 241 561 C 238.429688 552.269531 231.570313 545.601563 228.4375 537 C 225.777344 529.703125 226.289063 519.269531 222 513 C 218.46875 525 220 540.6875 220.910156 553 C 222.347656 574.007813 224.472656 595 225.910156 616 C 227.761719 643.007813 222 668.285156 222 695 L 221 695 C 214 664.757813 214 633.707031 210.285156 603 C 209.238281 594.59375 210.28125 585.089844 208 577 L 207 577 L 203 606 L 202 606 C 201.46875 580.265625 193 555.105469 193 529 L 191 529 C 189.664063 545.792969 183.78125 562.085938 183 579 C 181.90625 605 188 630.222656 188 656 C 188 685.324219 185.644531 717.6875 201 744 L 202 744 C 201 737.808594 197.816406 732.273438 197.175781 726 C 196 715.832031 200 702.277344 204 693 C 208.238281 705.554688 211.625 718.371094 215.65625 731 C 217.347656 736.296875 217.867188 743.03125 223 746 L 224 736 L 225 736 C 230 754.632813 236.9375 771.617188 239.574219 791 C 243.730469 821.519531 236.738281 852.351563 269 871 C 263.332031 856.050781 248.601563 845.820313 250.175781 828 C 250.828125 820.558594 254.523438 814.808594 257 808 L 258 808 C 266.449219 845 295.5625 869 311.21875 902 C 315.753906 911.585938 318.375 922 321.289063 932 C 322.550781 936.382813 323.222656 942.164063 327 945 C 326.847656 937.667969 324.886719 930.285156 326.761719 923 C 331 906.433594 349.414063 893.585938 361 882 C 356.675781 897.808594 347.9375 913 341.425781 928 C 325.933594 963.710938 311 1001.480469 311 1041 L 313 1041 C 316.328125 1016.273438 326 991 337.78125 969 C 341.871094 961.304688 348.488281 955 352 947 L 353 947 C 349.414063 962.132813 343.234375 977 339 992 C 326.355469 1039.253906 313.503906 1084.429688 284.964844 1125 C 279.550781 1132.695313 272.953125 1140.300781 265 1145.453125 C 260.460938 1148.394531 253.21875 1149.707031 250 1154 C 332.613281 1143.550781 349.257813 1046.480469 373.425781 983 C 381.515625 961.746094 396.71875 942.8125 403 921 C 400.269531 921.117188 397.6875 921.5 395 922 C 411.871094 905.265625 430.761719 887.722656 454 880.722656 C 462 878.28125 471.484375 876 480 876.128906 C 485.453125 876.261719 491.933594 878.660156 496.894531 875.257813 C 500.964844 872.464844 502 867.144531 504.320313 863 C 508.292969 855.449219 513.289063 848.527344 518.753906 842 C 524.210938 835.476563 530.480469 829.632813 538 825.519531 C 543 822.753906 550.761719 822.078125 554 817 C 556.660156 812.808594 555.734375 807.558594 556.171875 803 C 557 793.324219 558.496094 783.589844 560 774 C 564.640625 746.40625 575.414063 721.058594 581 694 C 573.527344 695 568.289063 695 568 686 C 560.574219 692.367188 556.910156 705 553.691406 714 C 544.640625 739.410156 540 767.171875 537.914063 794 C 537.1875 803.003906 529 814 531 822 C 514.957031 810.15625 508 778.746094 505.429688 760 C 504.335938 752.359375 506.46875 744.066406 502.582031 737.003906 C 492.722656 719.09375 473 730 473 747 C 487 743.808594 491 752.503906 494 765 C 498.304688 782.652344 501.851563 801.828125 502 820 C 471.691406 799.550781 452.582031 769 451 732 L 450 732 C 444.40625 747 447.785156 763.617188 449 779 L 448 779 C 445 759.675781 436 743.128906 436 723 C 431.511719 726.414063 431.421875 735.664063 431 741 L 430 741 C 429.742188 728.601563 427 716.515625 427 704 L 425 704 L 424 726 L 423 726 C 423 714.578125 422.621094 703.339844 421.285156 692 C 420.902344 688.753906 421.808594 684.300781 420.261719 681.335938 C 417.699219 676.425781 415.226563 684 415 686 L 414 686 C 414 665.046875 420.371094 646.460938 422 626 L 420 626 C 418.5625 634.085938 413.222656 641 412 649 L 411 649 C 411 635.582031 411 622.242188 413.425781 609 C 415.203125 599.21875 419.207031 590 420 580 C 412.453125 583.550781 408.703125 592 408 600 L 407 600 C 407 586.644531 409 572.722656 413.195313 560 C 415.484375 553 419.878906 546.472656 421 539 C 412.664063 543.0625 407 555.296875 405 564 L 404 564 C 405.699219 550.566406 408.320313 537.269531 414.257813 525 C 422.4375 508.09375 435.203125 491 438 472 L 439 472 C 439.742188 477.746094 440.984375 483.167969 441 489 C 449.460938 486.804688 459.449219 485.328125 465.894531 479 C 472.234375 472.5625 473.777344 463.15625 481 457.394531 C 486 453.378906 495.519531 450.59375 497.9375 459.003906 C 499.945313 466 494.578125 475 494 482 C 497.898438 479.074219 498.808594 468.789063 504.679688 468.460938 C 508 468.273438 504.269531 475 503.753906 476 C 499.375 485 496.273438 494.132813 495 504 C 501.246094 500 504.210938 492.023438 511 487.699219 C 517 484 520.445313 485.785156 519.191406 493 C 518.785156 495.339844 518.304688 497.640625 518 500 C 526.738281 495.21875 541 482 535 501 C 539.425781 499.535156 563 484 560.96875 498 C 560.453125 501.394531 558.792969 504.648438 558 508 C 566.339844 503 568.414063 489.480469 576.925781 485 C 584.242188 481.09375 585.449219 495.046875 583.453125 499 C 581.546875 502.773438 579.207031 506 578 510 C 588.332031 504.726563 597.953125 494 599 482 L 600 482 C 600.605469 486.695313 601.796875 491.253906 602 496 C 610.300781 489.820313 609 481.21875 608 472 C 611.96875 473.53125 615.851563 475.039063 620 476 C 617 460 600.882813 447.773438 597 431 L 598 431 C 604.277344 452.328125 627.84375 461 634 435 C 614.523438 439.4375 602.863281 420 596 404 C 605.730469 407 610.546875 400 611.710938 391 C 613.539063 377 611.597656 359.007813 606 346 L 605 346 C 606.402344 363.753906 611.382813 382 604 399 C 595 380.023438 581 361.003906 558 360 C 561.273438 364.464844 568.386719 366.265625 573 369.359375 C 582.710938 376 590.457031 384.144531 595 395 C 575.929688 375.074219 563.839844 363 535 363 L 535 364 C 553.625 369.660156 570.488281 371.664063 579 392 C 558.585938 383 533.300781 383.449219 515 397 C 504.289063 404.808594 496.328125 415.671875 487 425 C 480.972656 431.027344 470.796875 435.394531 466 442 C 495.253906 438.039063 510.460938 403.1875 539 395.488281 C 551.667969 392.070313 560.203125 396.601563 572 400 L 572 401 C 540.496094 395 519 409.773438 495 428.347656 C 485.628906 435.566406 475 442.058594 467.183594 451 C 459.609375 459.617188 455.34375 469.65625 447 478 C 448.808594 470.183594 452.191406 462.816406 454 455 C 448.601563 457.636719 445 463.160156 444 469 L 443 469 C 443.324219 461.4375 446.347656 454.464844 447 447 C 440 450.296875 434.371094 455.578125 432 463 L 431 463 L 432 453 C 424.539063 455.195313 417.902344 460.5 412 465.4375 C 409.84375 467.242188 406.414063 471.691406 403.226563 471.230469 C 398.441406 470.535156 399.863281 459.242188 400 456 C 401.199219 440.15625 410 426.292969 416 412 C 404.628906 416 398.902344 432 398 443 L 397 443 C 397.339844 426.53125 404 408.71875 414.464844 396 C 420.34375 388.828125 428.691406 383.308594 433 375 C 413.554688 379.621094 393.890625 403.417969 391 423 L 390 423 C 394.21875 391.667969 424.273438 377.175781 436 350 C 420.730469 356 409.730469 373.351563 399 385 C 405 369.152344 414.335938 353.628906 424.476563 340 C 429.847656 332.785156 436.59375 327 441 319 C 428.226563 323.078125 416.78125 338.390625 411 350 L 410 350 C 416.636719 326.785156 432 309.476563 445 290 C 439 292.019531 434.453125 296.640625 430 301 C 432.875 294.089844 436.210938 286.660156 441.183594 281 C 446 275.503906 452.851563 271.75 456 265 C 443.738281 267.1875 435 279.386719 430 290 L 429 290 C 431.351563 280.144531 430.875 269.085938 438.328125 261.183594 C 447.546875 251.414063 461.523438 251.03125 470 239 C 464 240.152344 459.558594 244.261719 454 246.523438 C 447.519531 249.164063 439.820313 250.421875 433 252 L 433 251 C 444.179688 246.6875 451 237.738281 458 228 L 456 228 C 462.5625 222.40625 475.167969 219.4375 480 213 C 453.933594 213.015625 424.5 226.582031 401 237 M 1008 213 L 1008 214 C 1017 218.070313 1026.304688 224.675781 1036 227 L 1036 228 C 1032 231 1036.375 233.5625 1038.816406 236.171875 C 1041.703125 239.25 1043 243.613281 1046.339844 246.347656 C 1049.292969 249 1053 249.296875 1056 252 C 1043.929688 248.574219 1032.171875 241.164063 1020 239 C 1027.226563 251.464844 1040.257813 251.492188 1049.957031 260.214844 C 1057.433594 267 1058.589844 278.480469 1059 288 L 1058 288 C 1054.367188 276.597656 1043.570313 266.75 1032 264 C 1035 271.273438 1041.691406 275.175781 1046.699219 281 C 1052.824219 288.125 1057.460938 296.8125 1062 305 C 1056.546875 299.546875 1051.332031 293 1044 290 C 1046.949219 295.683594 1052 299.746094 1055.652344 305 C 1064.820313 318.261719 1073.789063 333.699219 1079 349 C 1069 338.171875 1061 325.511719 1048 318 C 1050.457031 325.695313 1057 330.71875 1061.871094 337 C 1072.535156 351.019531 1085.851563 367.53125 1090 385 C 1078.324219 373.078125 1067.855469 355.703125 1052 349 C 1063.511719 375.675781 1097.566406 392.675781 1099 424 L 1098 424 C 1094.488281 403.605469 1074.523438 382 1056 374 C 1059.660156 383.449219 1069.347656 389.214844 1075.480469 397 C 1085.355469 409.527344 1091.671875 427.015625 1092 443 L 1091 443 C 1089.414063 432.253906 1083.304688 417 1073 412 C 1075.875 422 1081.710938 431 1084.570313 441 C 1087.792969 452.421875 1086.917969 463.371094 1086 475 C 1078.347656 467.347656 1069.378906 456.488281 1058 455 L 1058 464 L 1057 464 C 1054.726563 456.128906 1049.328125 448 1041 446 C 1043 452.714844 1044 459 1044 466 L 1043 466 C 1042 461.492188 1040 458.199219 1036 456 C 1037.21875 464.25 1041 472 1043 480 C 1033.710938 471.4375 1031.683594 461 1023.785156 452.039063 C 1016.859375 444.222656 1007 439.074219 999 432.539063 C 982.859375 419.445313 967.375 403.242188 946 399.464844 C 937.371094 398 928.613281 399.628906 920 400 L 920 399 C 931.671875 397 939.835938 392.488281 952 396 C 979.617188 403.722656 993.453125 433.597656 1022 441 C 1017.957031 434.1875 1006.871094 429 1001 423 C 993.621094 415.609375 987.246094 407.164063 979 400.667969 C 957.5625 383.777344 933.625 381.761719 909 392 C 917.445313 373.070313 935.765625 365.167969 956 365 L 956 364 C 930.882813 356.574219 910 377 894 393 C 901.648438 376.828125 916.375 369.535156 931 361 L 931 360 C 910.476563 361.675781 889.789063 379 885 399 L 884 399 C 882.488281 380.027344 880 364 885 345 C 879.800781 348.558594 878.910156 358.125 877.921875 364 C 875.222656 380.023438 871.730469 405 894 405 C 884 418 873.644531 441.617188 855 435 C 855.933594 438.234375 857.222656 441.179688 859 444 C 874 466.410156 895.371094 435 897 419 L 898 419 C 896.960938 432.078125 891.90625 445.386719 884.214844 456 C 879.421875 462.617188 871.683594 467.621094 870 476 C 873.859375 475.082031 877.34375 473.5 881 472 C 879.296875 481.179688 878.777344 490.03125 887 496 C 887 489.523438 888.34375 484.199219 890 478 L 891 478 C 888.558594 491.359375 899.804688 505.285156 912 510 C 909.867188 504.367188 903.800781 498.339844 904.332031 492 C 904.695313 487.691406 909.40625 482.367188 913.785156 485.542969 C 921 491 922.527344 502.433594 931 507 C 930.355469 504.636719 929.414063 502.363281 928.785156 500 C 924.199219 482.699219 947.460938 498 953 500 C 948.964844 482.34375 962.226563 495.308594 971 499 L 969.664063 493 C 968.28125 486 971.953125 483.542969 978 487.390625 C 984.890625 491.769531 987.878906 499.554688 994 504 C 993.570313 494.066406 989.894531 484.632813 985 476 C 984.628906 475.074219 980.175781 468.207031 983.417969 468.207031 C 988.816406 468.207031 991 478.382813 995 481 C 994 476.636719 993 472.324219 992 468 C 989.203125 455.6875 998.566406 449 1009 457.339844 C 1019 465.488281 1023.589844 478.460938 1035 485.121094 C 1042.503906 489.503906 1049 492 1049.910156 481.003906 C 1050 478.679688 1050 476.328125 1050 474 L 1051 474 C 1063 503.640625 1080.835938 531.761719 1085 564 L 1084 564 C 1080.585938 554.609375 1075.265625 544 1067 538 C 1068.265625 546.4375 1073.398438 554 1075.972656 562 C 1079.984375 574.664063 1081.890625 588.738281 1082 602 L 1081 602 C 1080 596.207031 1077.757813 590.007813 1074.648438 585.019531 C 1073.839844 583.722656 1070 579 1068.785156 582.378906 C 1066.914063 587.5 1073.4375 599 1074.847656 604 C 1079.523438 621.050781 1081 636.5 1081 654 L 1080 654 L 1068 626 L 1067 626 C 1067.402344 645.457031 1074 664.378906 1074 684 L 1073 684 C 1072.195313 681.109375 1071.324219 680 1069 678 C 1067.171875 692.46875 1064.300781 707.417969 1064 722 L 1063 722 C 1063 715.339844 1063.550781 708.511719 1062 702 L 1061 702 C 1061 715.78125 1058.28125 729.304688 1058 743 L 1057 743 C 1056.722656 736.585938 1055.21875 730.285156 1054 724 L 1053 724 C 1053 743.664063 1044.203125 758.382813 1041 777 L 1040 777 L 1041 731 L 1039 731 C 1038.902344 767.023438 1017 801.53125 987 820 C 987.980469 807.574219 990.503906 795.382813 991.835938 783 C 992.828125 773.730469 993 763.371094 997.648438 755 C 999.5 751.628906 1002 748.488281 1006 747.433594 C 1008.820313 746.660156 1015 748.234375 1016.292969 744.683594 C 1019.898438 734.628906 1001.566406 725.554688 994.183594 731.574219 C 985.246094 739 984.859375 753.644531 982.574219 764 C 978.207031 783.8125 972.621094 807.246094 958 822 C 959.609375 813.34375 951.835938 803.328125 951 794 C 948.933594 767.261719 944.945313 739.277344 935.679688 714 C 932.171875 704.429688 927.925781 691.742188 920 685 C 919.542969 693.804688 915 696.566406 907 694 C 913 720.40625 924 745 928.75 772 C 930.414063 781.582031 931.863281 791.320313 932.832031 801 C 933.304688 805.722656 932.6875 812.597656 935.179688 816.785156 C 938.863281 823 953 826.316406 959 831.015625 C 968.519531 838.472656 975.949219 848.40625 981.691406 859 C 984.589844 864.34375 986.953125 873.636719 993 876.105469 C 999.914063 879 1007.960938 876 1015 876.210938 C 1026.941406 876.828125 1039.320313 881.089844 1050 886.257813 C 1060.183594 891.1875 1069.703125 897.359375 1078 905.089844 C 1083.617188 910.320313 1087.949219 917.710938 1095 921 L 1095 922 C 1092 921.480469 1087.296875 920.46875 1087.675781 925.058594 C 1088.363281 933.371094 1096.972656 942.699219 1100.742188 950 C 1109 966.242188 1115.890625 982.675781 1121.667969 1000 C 1142.265625 1061.796875 1163.851563 1140.1875 1238 1154 C 1234.554688 1148.785156 1226 1146.628906 1221 1142.710938 C 1211.304688 1135.128906 1203.644531 1125.335938 1197 1115 C 1182.695313 1092.492188 1170.441406 1068.640625 1162.71875 1043 C 1156.691406 1023 1154.304688 1002.15625 1148.847656 982 C 1145.976563 971.386719 1141 961.5 1138 951 L 1139 951 C 1143.367188 960.195313 1150.496094 968.125 1155.574219 977 C 1166.265625 995.691406 1175 1018.285156 1176 1040 L 1178 1040 C 1177.515625 981.492188 1145 933.511719 1127 880 C 1139 892.355469 1157.507813 906.660156 1162 924 C 1163.925781 931.019531 1162 938 1162 945 C 1172.171875 936.117188 1172 913.265625 1177.890625 901 C 1189.179688 877 1210.820313 859.5625 1221.421875 835 C 1224 828.714844 1226.242188 822.554688 1228 816.003906 C 1228.578125 814.546875 1229.25 811.054688 1231.3125 811.054688 C 1235.753906 811.054688 1238.433594 822.722656 1238.816406 826 C 1240.882813 843.746094 1225.5625 855.808594 1220 871 C 1253 850.328125 1246 816.738281 1250.285156 784 C 1252.453125 767.027344 1259.371094 752.195313 1264 736 L 1265 736 C 1265.328125 740.136719 1265.625 744.542969 1268 748 C 1273.652344 731.304688 1282.476563 709.460938 1284 692 L 1285 692 C 1288 703.011719 1292.847656 714.355469 1291.90625 726 C 1291.371094 732.613281 1287.660156 738.417969 1287 745 L 1288 745 C 1304.609375 718 1300.269531 686.402344 1301 656 C 1301.382813 641 1305 626.101563 1305 611 L 1306 611 C 1306 618.265625 1303.507813 630.621094 1309 636 C 1312 626 1314 621.613281 1322 614 C 1317.25 634.535156 1310 652.507813 1310 674 L 1311 674 C 1323.453125 629.78125 1351.371094 592.089844 1353.789063 545 C 1354.417969 532.777344 1350.691406 520.746094 1348 509 C 1350.984375 511 1353.726563 512.742188 1357 514 C 1354.214844 504.625 1345.28125 499.464844 1339.527344 492 C 1333.941406 484.746094 1331 475.648438 1326 468 L 1325 468 C 1325 496.757813 1342.785156 521.789063 1339.828125 551 C 1338 569 1327 579.363281 1321 595 L 1320 595 C 1325.207031 570 1330.359375 548.300781 1322 523 C 1320 517.117188 1318.230469 506.578125 1313 503 C 1313 524 1313.8125 545.15625 1311.828125 566 C 1310.417969 580.832031 1307 596.128906 1307 611 L 1306 611 C 1306 583.285156 1306.199219 555 1298 528 L 1297 528 C 1297 555.179688 1288 581.167969 1287 608 L 1286 608 C 1285.992188 597.554688 1283 587.421875 1283 577 L 1281 577 C 1281 617 1271 657.265625 1268 697 L 1267 697 C 1266.949219 679 1261.789063 661.050781 1262 643 C 1262.566406 599.597656 1268 556.503906 1268 513 L 1267 513 C 1264.347656 521 1263.695313 529.164063 1260.769531 537 C 1257.511719 545.726563 1252 552.792969 1248 561 L 1247 561 C 1247.671875 528.371094 1260 496.832031 1260 464 L 1259 464 C 1254.347656 474.5 1249.675781 487.640625 1248 499 L 1247 499 C 1247 477.351563 1253.960938 457 1259 436 C 1254.34375 438.648438 1253 444.367188 1250.753906 449 C 1244.882813 460.828125 1238.941406 472.609375 1234.320313 485 C 1229.183594 498.773438 1230.484375 512.792969 1227 527 C 1216.851563 570.296875 1208 613.355469 1208 658 L 1209 658 C 1215.808594 631.683594 1222.777344 605.390625 1229.371094 579 C 1232.503906 566.484375 1237.730469 553 1238 540 L 1239 540 C 1238.996094 561.773438 1233.546875 583.269531 1233 605 C 1232.351563 632.117188 1237.847656 658.128906 1239 685 L 1241 685 C 1241 655.566406 1243.417969 627.707031 1250 599 L 1251 599 C 1252.402344 631.609375 1257.386719 665.40625 1255.960938 698 C 1255.210938 715.105469 1251.265625 731.171875 1249 748 L 1248 748 C 1249 734.316406 1251.503906 720.808594 1249.246094 707 C 1248.472656 702.277344 1248 696 1244 693 C 1243.984375 718.378906 1230 741.726563 1230 767 L 1228 767 C 1227.964844 754.339844 1224.738281 737 1214 729 C 1214 744.441406 1217.191406 759.582031 1217.546875 775 C 1218.179688 803 1209.671875 839.386719 1190 860 C 1190 854.398438 1190.96875 848 1188 843 C 1185 853 1183.34375 864 1181 874 L 1180 874 C 1179.386719 870 1178.601563 865.464844 1175 863 C 1175 870.6875 1175.324219 881 1170 887 C 1169.695313 880 1168.25 866.277344 1162 862 C 1161.683594 866 1162 876 1157.773438 877.824219 C 1151.757813 880.359375 1144.21875 866 1141.691406 862 C 1130 844 1122.867188 826.117188 1116 806 L 1115 806 C 1115 813.457031 1116.757813 820.710938 1118.199219 828 C 1118.566406 830 1120.179688 834.367188 1118.550781 836 C 1115.722656 838.742188 1111 824.601563 1110.589844 823 C 1105.828125 807.089844 1105.796875 789.453125 1100 774 L 1099 774 C 1097.210938 788.148438 1096 801.726563 1096 816 L 1095 816 C 1092.640625 800.035156 1087.699219 785.429688 1087.257813 769 C 1086 723.488281 1097.96875 677.476563 1099.960938 632 C 1100.945313 609.527344 1093 588.265625 1093 566 L 1094 566 C 1103.894531 593.234375 1113.929688 623.53125 1111.910156 653 C 1109.394531 689.710938 1092 724 1092 761 L 1094 761 C 1095.496094 726.226563 1117.425781 695.019531 1118.960938 660 C 1120.269531 630.136719 1114.335938 601.796875 1107 573 C 1103.910156 560.144531 1098 547.265625 1097 534 L 1098 534 C 1100.453125 562.117188 1124.394531 584.574219 1125 614 L 1127 614 C 1126.769531 586.359375 1115 563.21875 1109 537 L 1110 537 C 1113.222656 548 1120.628906 558.746094 1125.753906 569 C 1127.773438 573.046875 1129.210938 578.414063 1133 581 C 1129 560.417969 1122.363281 541.402344 1114.601563 522 C 1108.828125 507.574219 1101.277344 491.644531 1100 476 L 1101 476 C 1102.875 497.492188 1116.289063 520.410156 1124.71875 540 C 1127.378906 546.183594 1129.328125 557.128906 1135 561 C 1132.496094 541.191406 1128.820313 521.808594 1121.945313 503 C 1114.78125 483.398438 1103.804688 462.8125 1101 442 L 1102 442 C 1110 469.464844 1141.355469 486 1142 517 L 1144 517 C 1143.332031 484.628906 1114.199219 462.160156 1110 431 C 1121.453125 444.4375 1126.320313 464.632813 1141 475 C 1136.554688 456.289063 1122.265625 441.273438 1117 423 L 1118 423 C 1122 437.050781 1133.472656 449.25 1139 463 C 1141.371094 468.417969 1142.210938 477.402344 1147 481 C 1144.707031 452 1125.804688 428.054688 1120 400 L 1121 400 C 1123.304688 408 1128.429688 415.464844 1132 423 L 1133 423 C 1132.886719 409.171875 1127.183594 397.453125 1122 385 C 1124.5625 387.21875 1127 389.207031 1130 391 C 1125.785156 376.675781 1111.917969 366.71875 1106 353 C 1116.855469 364 1123.511719 380.480469 1135 390 C 1131.945313 377.101563 1123.253906 366.484375 1119 354 C 1128.222656 361.109375 1137.8125 368.328125 1148 374 C 1147.234375 357.320313 1130.871094 345 1120 334 C 1137.542969 343.339844 1147.328125 360 1163 371 C 1157 352.324219 1138 337.351563 1124 325 C 1143.515625 334.121094 1155.757813 350 1172 363 C 1170.550781 355 1164.632813 348.707031 1158.996094 343 C 1147.636719 331.503906 1134.78125 318 1120 311 L 1120 310 C 1136.441406 317 1148.863281 332 1165 338 C 1155 321 1136.910156 308 1121 296.722656 C 1114.417969 292.09375 1107.746094 286.453125 1100 284 L 1100 283 C 1121.617188 287.519531 1139.34375 303.074219 1156 316.609375 C 1163.410156 322.632813 1170.992188 330.535156 1180 334 C 1174.957031 325.265625 1167.441406 318.480469 1160 312 C 1141.761719 295.550781 1117.242188 272.78125 1092 269 L 1092 268 C 1118.554688 271.578125 1140.367188 290.066406 1166 296 C 1161.722656 289 1150.910156 286 1144 282 C 1123.476563 270.277344 1098.367188 253.0625 1074 252 L 1074 251 C 1097.34375 251.0625 1114.363281 265 1136 270 C 1132.644531 264.765625 1125.269531 261.722656 1120 258.601563 C 1101 247.425781 1081.773438 243 1060 242 L 1060 241 C 1068.84375 239.175781 1077 238.335938 1086 240 C 1082.519531 233.652344 1074.1875 231.726563 1068 228.742188 C 1049.363281 219.75 1028.871094 213.003906 1008 213 M 1111 214.332031 C 1111.773438 214.332031 1111 214.832031 1110.667969 214.667969 L 1111 214.332031 M 1082 230 C 1087.953125 239.089844 1108.777344 244.636719 1119 247 C 1112.65625 236.046875 1093.507813 232.382813 1082 230 M 368 248 C 377 245.382813 398.734375 239 404 231 C 393.410156 232 373.761719 238.574219 368 248 M 1074 250 L 1074 251 L 1070 251 C 1071.507813 250.316406 1072.3125 250.175781 1074 250 M 156 390 C 169.167969 384 177 369.824219 191 364 C 179 377 167.628906 390.335938 154 401.535156 C 139.878906 413.140625 122.175781 422.089844 117 441 C 123 437.300781 126.984375 430.074219 133 425.78125 C 143.433594 418.332031 155.421875 413.261719 166 406 C 182.183594 394.824219 196.960938 381.773438 213 370.425781 C 220.261719 365.285156 227.808594 360.515625 236 357 C 241.320313 354.71875 248.824219 353.09375 252 348 C 242.890625 348 234 349.609375 225 350 L 225 349 C 231.820313 347.035156 237.410156 342.59375 244 340.066406 C 256.199219 335.378906 269.261719 332.253906 282 329.425781 C 288.363281 328.011719 300.929688 327.371094 305 322 C 282.914063 322 267.648438 323.402344 247 332 C 261.335938 317.664063 277.265625 302.304688 296 294 C 308.308594 288.320313 321.421875 287.257813 334 283 L 334 282 L 312 283 C 324.726563 271.3125 340 265 355 257 C 339.558594 250.523438 313.476563 269.714844 301 277.199219 C 277.828125 291.105469 255.414063 306.398438 234 323 C 225.3125 329.578125 217.929688 338 209 344.21875 C 188.851563 358.550781 166.492188 365 156 390 M 1134 256 L 1134 257 C 1148.828125 264.027344 1162.546875 277.109375 1178 282 L 1178 283 C 1169.308594 282.820313 1160.710938 281.023438 1152 281 L 1152 282 C 1160.542969 284.699219 1169.527344 285.605469 1178 288.8125 C 1202.554688 298.113281 1223.527344 313.527344 1242 332 C 1221.378906 326.359375 1205.699219 322 1184 322 L 1184 324 C 1202.992188 325.511719 1226 333.164063 1244 339.695313 C 1251.214844 342.324219 1257.402344 347.644531 1265 349 L 1265 350 C 1255.613281 349.804688 1246.445313 348 1237 348 C 1241.328125 353.035156 1248 354.433594 1254 357.257813 C 1262.796875 361.515625 1271 366.785156 1279 372.425781 C 1294.664063 383.507813 1309.195313 396.085938 1325 407 C 1334.648438 413.621094 1345.441406 418.472656 1355 425.210938 C 1361.28125 429.636719 1365.535156 437.371094 1372 441 C 1365.59375 422.1875 1349.398438 413.6875 1335 401.5625 C 1320.992188 389.765625 1308.9375 376 1296 363 C 1311.308594 369.03125 1319.679688 380.066406 1332 390 C 1327.808594 366.773438 1298.246094 356.464844 1281 345.300781 C 1271 339 1263.347656 329.792969 1254 322.652344 C 1232.203125 306.007813 1209.507813 290.136719 1186 276 C 1169.984375 266.371094 1153.246094 256.011719 1134 256 M 1092 267 L 1092 268 L 1085 267 C 1087.394531 266.257813 1089.492188 266.699219 1092 267 M 400 267 L 400 268 L 397 268 C 398.246094 267.316406 398.546875 267.25 400 267 M 396 268 L 396 269 L 389 270 C 391.3125 268.605469 393.308594 268.234375 396 268 M 392 282 L 391 283 L 392 282 M 1099 282.332031 C 1099.773438 282.332031 1099 282.832031 1098.667969 282.667969 L 1099 282.332031 M 390 283 L 390 284 L 387 284 C 388.246094 283.316406 388.550781 283.25 390 283 M 1179 283.332031 C 1179.773438 283.332031 1179 283.832031 1178.667969 283.667969 L 1179 283.332031 M 430 301 L 429 302 L 430 301 M 744 305 C 740.554688 331.695313 736.351563 357 737 384 C 737.507813 404.066406 742 424 742 444 L 743 444 C 755 412.167969 749 374.09375 749 341 C 748.960938 332.402344 751.445313 310.660156 744 305 M 1111 305 L 1110 306 L 1111 305 M 377 306 L 376 307 L 377 306 M 1113 306 L 1112 307 L 1113 306 M 375 307 L 375 308 L 371 309 C 372.457031 308 373.246094 307.5625 375 307 M 1120 309 L 1120 310 L 1114 308 C 1116.273438 307.589844 1117.78125 308.210938 1120 309 M 373 321 L 372 322 L 373 321 M 1118 321 L 1117 322 L 1118 321 M 371 322 L 371 323 L 366 325 C 367.664063 323.496094 368.894531 322.800781 371 322 M 1120 322 L 1124 324 L 1124 325 C 1122 324.453125 1120.746094 324 1119 323 L 1120 322 M 459 371 C 465.976563 369 471.636719 364.160156 478 360.78125 C 491.351563 353.691406 505 347 519 341 C 526.183594 338 540.378906 334.285156 545 328 C 515.984375 328.019531 471.828125 342.21875 459 371 M 942 328 L 942 329 C 962.910156 335 982 344.351563 1001 355 C 1010.21875 360 1020 367.828125 1030 371 C 1012.945313 341.355469 974.394531 328 942 328 M 247 332 L 246 333 L 247 332 M 1245 334 L 1242 333 C 1243.765625 332.597656 1243.558594 332.710938 1245 334 M 1120 333 L 1119 334 L 1120 333 M 369 334 L 368 335 L 369 334 M 1080 349 L 1081 352 C 1079.710938 350.558594 1079.597656 350.765625 1080 349 M 224 350 L 223 351 L 224 350 M 410 350 L 409 351 L 410 350 M 1266 350.332031 C 1266.773438 350.332031 1266 350.832031 1265.667969 350.667969 L 1266 350.332031 M 383 353 L 381 357 L 380 357 C 380.9375 355.050781 381.390625 354.449219 383 353 M 253 378 L 252 378 L 253 374 C 235.417969 380 223.261719 405 220.589844 422 C 219.71875 427.59375 217.714844 439.574219 223 443 C 224.753906 421.527344 242.203125 405.113281 248 385 L 249 385 C 242 415.160156 249.5625 445.074219 262 473 L 263 473 C 261.992188 460.25 259.476563 448 260 435 C 260.796875 417.746094 265.171875 401.695313 269 385 L 264 386 C 266.714844 377.507813 267 370 267 361 C 260.171875 364.183594 255 370.824219 253 378 M 1222 361 C 1222 370 1222.222656 377.460938 1225 386 L 1221 385 C 1227.359375 415.804688 1227.339844 442.808594 1226 474 L 1227 474 C 1239.425781 446 1245 418.226563 1241 388 L 1242 388 C 1245.921875 401.605469 1255.175781 414.195313 1261.21875 427 C 1263.519531 432 1264.652344 439.734375 1269 443 C 1271.503906 423.199219 1265.574219 401.457031 1252.675781 386 C 1248.910156 381.492188 1240.382813 371.394531 1234 375 C 1232 369 1227.753906 363.691406 1222 361 M 192 363 L 191 364 L 192 363 M 288 371 C 266 393.4375 265 421.429688 265 451 L 266 451 C 269.535156 432.015625 275.40625 414.132813 282 396 C 284.699219 388.789063 291.21875 378.742188 288 371 M 436 427 C 444 425.027344 451.761719 423.824219 459 419.546875 C 481.917969 406 496.980469 382.414063 522 372 C 515 369.316406 506.371094 376.054688 501 380 C 485.695313 390.703125 472.644531 404.636719 457 415 C 451 418.765625 439.820313 421.421875 436 427 M 969 371 L 969 372 C 996.691406 388.328125 1018.667969 419.730469 1051 426 C 1046.554688 419.210938 1034.632813 415.65625 1028 411 C 1009 397.101563 992.679688 376.609375 969 371 M 1200 371 C 1203.585938 398.769531 1219.253906 424.207031 1223 452 L 1225 452 C 1225 426.71875 1226.480469 384.738281 1200 371 M 814 374 C 805.535156 417.648438 810.78125 454.757813 840 490 C 847.707031 499.171875 856 511.222656 868 515 L 868 516 C 865 516.125 852.675781 516.71875 854.347656 522 C 855.789063 526.410156 864.445313 528.757813 868 531.300781 C 877.203125 538 884.804688 546.796875 891.277344 556 C 915.832031 591 933.648438 631.484375 956 668 L 957 668 C 954.953125 654.324219 945.394531 642.425781 939.859375 630 C 927.460938 602.152344 918 572 898.382813 548 C 890.574219 538.472656 880 527.578125 868 524 L 868 523 C 880.65625 523.035156 892.4375 528.460938 905 529 L 905 528 C 860 507.027344 826 467 814.886719 418 C 812.992188 409.648438 812.316406 400.535156 813.171875 392 C 813.765625 386.066406 816.425781 379.777344 814 374 M 1236 375 L 1237 378 C 1235.710938 376.558594 1235.597656 376.765625 1236 375 M 672 376 C 683.679688 425 657.597656 471.789063 622 503.828125 C 614.398438 510.671875 605.855469 516.355469 597 521.421875 C 592.574219 524 585.886719 525.769531 583 530 C 595.25 527.625 607.535156 524 620 523 L 620 524 C 581.367188 543.136719 567.433594 588.4375 551 625 C 544.972656 639 536.171875 652.40625 532 667 C 542.660156 661 548 644.398438 553.769531 634 C 568.253906 607.367188 579.511719 578.320313 597.898438 554 C 604.8125 545 612.710938 537 622 530.15625 C 625 528 633.226563 525.144531 634.652344 521.496094 C 636.3125 517.257813 624.335938 516.105469 622 516 C 654.1875 491.476563 679 453.339844 679 412 C 679 402.492188 681.4375 381.753906 672 376 M 252 379 L 251 380 L 252 379 M 251 381 L 250 382 L 251 381 M 249.667969 383.667969 C 249.722656 383.722656 249.777344 384.777344 249.332031 384.332031 C 249.277344 384.277344 249.222656 383.222656 249.667969 383.667969 M 1240 384 L 1239 385 L 1240 384 M 399 385 L 398 386 L 399 385 M 1091 385 L 1090 386 L 1091 385 M 264 386 C 263.453125 387.636719 263.636719 387.453125 262 388 C 262.546875 386.363281 262.363281 386.546875 264 386 M 1226 386 L 1228 390 L 1227 390 C 1226.199219 388.261719 1225.945313 387.804688 1226 386 M 1240.667969 386.667969 C 1240.722656 386.722656 1240.777344 387.777344 1240.332031 387.332031 C 1240.277344 387.277344 1240.222656 386.222656 1240.667969 386.667969 M 366 387 L 365 388 L 366 387 M 269 490 C 274.644531 485.722656 276.183594 470.792969 278 464 C 285 440.152344 294 416 296 391 C 286.519531 395.433594 282.742188 406.675781 279.671875 416 C 271.929688 439.515625 269 465.339844 269 490 M 1193 391 C 1193.207031 416 1205.601563 439.3125 1211.84375 463 C 1213.859375 470.652344 1212.796875 484.238281 1220 489 C 1214.445313 465.6875 1216.765625 441.496094 1209.855469 418 C 1206.996094 408.28125 1202.753906 395.5625 1193 391 M 1120 398 L 1119 399 L 1120 398 M 368 400 L 367 405 L 366 405 C 366.386719 403 366.746094 401.75 368 400 M 920 400 L 920 401 L 917 401 C 918.246094 400.316406 918.550781 400.25 920 400 M 573 401 L 572 402 L 573 401 M 570 450 C 572.726563 444.15625 575.84375 439.640625 576 433 C 574.609375 435 573.433594 437 572 439 C 562 454.460938 563.539063 427.75 556.957031 427 C 554.554688 426.617188 552.671875 428.613281 551 430.003906 C 545.71875 434.394531 528.664063 437.496094 531.476563 425.042969 C 532.792969 419.222656 542 417.78125 547 416.808594 C 556.785156 415 571.898438 414.132813 579.660156 421.527344 C 589 430.570313 581.734375 447.632813 570 450 M 941 443 C 938.835938 438.113281 936.402344 425.367188 929 426.175781 C 923.976563 426.722656 918 438.515625 912.742188 432.550781 C 908.898438 428.226563 911.621094 421.296875 916 419 C 922.695313 415.210938 947.570313 413.574219 951.242188 422.226563 C 952.988281 426.339844 949.613281 431.53125 947.6875 435 C 945.882813 438.253906 943.925781 440.742188 941 443 M 373 420 L 372 421 L 373 420 M 1116.667969 421.667969 C 1116.722656 421.722656 1116.777344 422.777344 1116.332031 422.332031 C 1116.277344 422.277344 1116.222656 421.222656 1116.667969 421.667969 M 371.667969 422.667969 C 371.722656 422.722656 371.777344 423.777344 371.332031 423.332031 C 371.277344 423.277344 371.222656 422.222656 371.667969 422.667969 M 947 449 C 949 442.65625 952.441406 436.636719 953.679688 430 C 953.933594 428.648438 953.828125 424.207031 956 424.207031 C 958.855469 424.207031 957.804688 430.496094 957.535156 432 C 956.316406 438.832031 953.496094 446 947 449 M 1100 424 L 1100 427 L 1099 427 C 1099.25 425.546875 1099.316406 425.246094 1100 424 M 597 428 L 597 431 L 596 431 C 596.25 429.550781 596.316406 429.246094 597 428 M 115 566 C 113.398438 555.117188 110.320313 545.199219 111 534 C 112 518.277344 118.734375 503.496094 120 488 L 121 488 C 121 490.527344 121.277344 492.582031 122 495 C 127.175781 486.359375 123.691406 473.582031 127.875 464 C 133.421875 451.296875 146 443 151 430 C 110.199219 436.113281 97 498.234375 101.574219 532 C 103.1875 544.136719 104.234375 558.234375 115 566 M 1338 430 C 1342.746094 442.335938 1354.738281 451.050781 1360.625 463 C 1365.808594 473.511719 1364.578125 484.738281 1366 496 L 1367 496 C 1367.648438 493.289063 1367.941406 490.785156 1368 488 L 1369 488 C 1370.691406 499.464844 1375.285156 510.371094 1376.714844 522 C 1378.507813 536.609375 1376.78125 551.664063 1374 566 C 1385.210938 558 1385.757813 543.546875 1387.425781 531 C 1391.46875 500.585938 1383.914063 464.199219 1360 443.289063 C 1353.679688 437.765625 1346.464844 431.511719 1338 430 M 1191 431 C 1194.820313 451.515625 1194 468.695313 1203.753906 488 C 1206.238281 493 1208.367188 501 1213 504 C 1212.226563 486 1204.648438 469 1199.347656 452 C 1197 444.820313 1196.96875 436.210938 1191 431 M 296 432 C 286.210938 454.085938 277 482.75 276 507 L 277 507 C 285 489.65625 293.546875 471.050781 296.269531 452 C 297 445.808594 299.746094 437.484375 296 432 M 161 435 C 139 462.558594 116.941406 495.53125 117 532 C 117 543.789063 119.574219 562 129 570 C 124.804688 537 129 510.683594 142.425781 480 C 146.980469 469.527344 152 459.214844 157.246094 449 C 159.402344 444.6875 162.875 440 161 435 M 1327 435 C 1329.796875 455.761719 1344.839844 474.722656 1352.550781 494 C 1362.960938 520.027344 1363.519531 542.761719 1360 570 L 1361 570 C 1381.984375 534.046875 1368.515625 493.289063 1347 461 C 1341.199219 452.292969 1335.511719 441.269531 1327 435 M 557 471 L 557 472 C 535.476563 478.050781 524.777344 465.660156 509 453.527344 C 505.277344 450.667969 500.71875 449.664063 497 447 C 500.28125 444.652344 504.65625 440.40625 508.996094 440.65625 C 516.667969 441.105469 522 459 528 463.621094 C 536.492188 470.464844 546.617188 471 557 471 M 1100.667969 440.667969 C 1100.722656 440.722656 1100.777344 441.777344 1100.332031 441.332031 C 1100.277344 441.277344 1100.222656 440.222656 1100.667969 440.667969 M 993 447 L 993 448 C 979.671875 449.804688 973.566406 460.613281 963 467.453125 C 954 473.214844 945.1875 473 935 473 C 943 469.617188 951.21875 470.78125 959 465.210938 C 965.488281 460.566406 972.929688 442.511719 980 441.425781 C 984.492188 440.746094 989.199219 445.203125 993 447 M 300 462 C 296.1875 475.234375 289.246094 487.609375 285.425781 501 C 279.613281 521.367188 279.355469 540.167969 281 561 L 282 561 C 290.664063 538.035156 298.804688 511.328125 302.269531 487 C 303.175781 480.648438 305.695313 466.335938 300 462 M 1208 561 C 1214.730469 538.234375 1206.628906 506.496094 1198.679688 485 C 1197.355469 481.414063 1192.832031 463.207031 1188.300781 463.207031 C 1183.941406 463.207031 1186.285156 484.109375 1186.753906 487 C 1189.488281 504 1195.371094 519.707031 1200.28125 536 C 1202.660156 544 1203.707031 554 1208 561 M 431 463 L 430 464 L 431 463 M 934 477 C 919.910156 473.152344 903.878906 464.753906 892 478 C 891.222656 472.148438 899 467 904 465.25 C 914.382813 461.675781 928.550781 468 934 477 M 596 475 C 579.855469 468.289063 571 473.195313 555 477 C 565 463 585.558594 460.21875 596 475 M 1045 466 L 1044 467 L 1045 466 M 164 467 C 160.382813 475.6875 155.722656 484.742188 149.675781 492 C 143.238281 499.722656 135 505.558594 131 515 C 135.671875 513.230469 139.328125 510.351563 143 507 C 123.234375 567.769531 160 619.371094 179 675 L 180 675 C 179.828125 654.132813 172.632813 635.019531 168 615 C 172.6875 618.570313 178.53125 623 179.777344 629 C 179.972656 630 179.824219 634.597656 181.804688 634.078125 C 184 633.46875 183.941406 628.742188 183.984375 627 C 184.191406 619.097656 183.199219 610.792969 181.921875 603 C 176.511719 570.039063 176 536.324219 176 503 L 175 503 C 158.726563 533.554688 160.949219 563 170 595 L 169 595 C 165.746094 588.148438 160.222656 582.769531 156.808594 576 C 149.96875 562.4375 147.273438 545.03125 149.429688 530 C 151.617188 514.710938 158.855469 501 162.625 486 C 164 480.03125 166.496094 473 164 467 M 390 471 L 390 474 L 389 474 C 389.25 472.550781 389.316406 472.246094 390 471 M 1100 473 L 1100 476 L 1099 476 C 1099.25 474.546875 1099.316406 474.25 1100 473 M 446.667969 478.667969 C 446.722656 478.722656 446.777344 479.777344 446.332031 479.332031 C 446.277344 479.277344 446.222656 478.222656 446.667969 478.667969 M 1044 480 L 1043 481 L 1044 480 M 462 492 C 459.53125 499.785156 460.308594 504.773438 464 512 C 459.222656 510.476563 455.351563 507.421875 451 505 C 452 514.65625 459.941406 519 469 519 C 470.769531 519.019531 479.792969 520 479.792969 517 C 479.792969 514.339844 471.816406 510.578125 470 509 C 464.273438 503.53125 464.75 498.496094 462 492 M 1025 492 C 1024.988281 506.503906 1014.894531 508.027344 1006 517 C 1017.921875 521.035156 1034.234375 520.425781 1038 506 C 1032.972656 507.59375 1028.757813 510.777344 1024 513 C 1028.28125 506.445313 1031.847656 498.042969 1025 492 M 1348 508 L 1347 509 L 1348 508 M 303 509 C 292.644531 533.066406 293 564.242188 291.960938 590 C 290.25 629.09375 286 669 286 708 L 287 708 C 306.9375 663.023438 307 609.1875 307 561 C 307 546.820313 310.445313 521.347656 303 509 M 1185 509 C 1185 560.320313 1179.9375 609 1189.804688 660 C 1192 671.46875 1194.890625 682.71875 1197.882813 694 C 1199 698.566406 1200 705.078125 1204 708 C 1200.722656 690.59375 1201.730469 673.5625 1200.960938 656 C 1199.632813 625.628906 1198.523438 595.316406 1196 565 C 1195 552.234375 1192.820313 539.636719 1190.753906 527 C 1189.730469 520.730469 1189.613281 513.773438 1185 509 M 465 512 L 464 513 L 465 512 M 867 522.332031 L 867.332031 522.667969 C 866.839844 522.832031 866.226563 522.332031 867 522.332031 M 986 523 C 992.171875 534.523438 1008.269531 537 1020 537 L 1020 538 L 1015 538 C 1018.871094 542 1022.574219 540.480469 1027 538 L 1027 537 L 1022 537 L 1022 536 C 1025.699219 535.253906 1027.664063 534 1030 531 L 986 523 M 457 531 C 458.902344 534.289063 461.371094 535.125 465 536 L 465 537 L 461 537 C 468 545.679688 491.769531 561.695313 500 546 C 486.4375 546 477.546875 540.417969 465 538 L 465 537 C 480 539 490.449219 532.679688 503 525 C 497.714844 522.804688 492.265625 526 487 527 C 477.402344 529.066406 466.804688 530.578125 457 531 M 1106 528 L 1105 529 L 1106 528 M 320 529 C 319.9375 551 313.230469 572 316.429688 594 C 318.8125 610.457031 325.292969 626 329 642 C 335.304688 668.070313 338.929688 700.457031 334 727 C 337.328125 724.308594 337.402344 719.054688 338 715 C 339.804688 704.675781 341.210938 694.367188 342.574219 684 C 348.234375 641.054688 336.65625 605.582031 325.292969 565 C 322.464844 555 325.5625 537.144531 320 529 M 383 529 L 382 530 L 383 529 M 1168 529 C 1167.980469 559.390625 1154.417969 587.691406 1148.210938 617 C 1141 651 1143.527344 694 1154 727 L 1155 727 C 1154.777344 700.097656 1153.480469 674.664063 1159 648 C 1164 623.179688 1175.628906 600 1173.171875 574 C 1172 561.777344 1174.996094 539.226563 1168 529 M 1107 530 C 1107.867188 532.355469 1108.574219 534.53125 1109 537 L 1108 537 C 1107.21875 534.511719 1106.464844 532.53125 1107 530 M 381.667969 531.667969 C 381.722656 531.722656 381.777344 532.777344 381.332031 532.332031 C 381.277344 532.277344 381.222656 531.222656 381.667969 531.667969 M 393 531 L 393 534 L 392 534 C 392.25 532.546875 392.316406 532.246094 393 531 M 1097 531 L 1097 534 L 1096 534 C 1096.25 532.546875 1096.316406 532.246094 1097 531 M 381 534 L 380 538 L 379 538 C 379.5625 536.246094 379.917969 535.457031 381 534 M 988 547 C 993.722656 553.652344 1003.253906 553.527344 1011 550.53125 C 1013.316406 549.636719 1019.503906 547.101563 1018.246094 543.589844 C 1017.355469 541.089844 1012.738281 542.507813 1011 543 C 1003.457031 544.515625 995.339844 544.808594 988 547 M 482 560 L 482 561 C 495 561 513 558.3125 518 544 C 505.550781 548.71875 495 556.265625 482 560 M 970 544 C 977.691406 557.308594 991.550781 561 1006 561 L 1006 559 C 991.617188 558.371094 982.660156 548.800781 970 544 M 955 554 C 960.421875 572.824219 971.628906 590.335938 978 609 L 979 609 C 978.988281 590.0625 971 565.382813 955 554 M 531 555 C 520.890625 571.515625 509 589 509 609 L 511 609 C 512 596.125 519.5625 583.371094 525.246094 572 C 527.640625 567.210938 532.878906 560.429688 531 555 M 515 644 C 520 640.507813 521.839844 631.691406 523.65625 626 C 528.910156 609.539063 532 592 536 575 C 528.386719 578.015625 525.6875 585.683594 523.34375 593 C 518.167969 609.152344 516.328125 627.148438 515 644 M 954 575 C 954 597 961 625 972 644 C 974 639 972 631.402344 971.269531 626 C 969.257813 612 968.441406 582.378906 954 575 M 684 579 C 687.878906 591.53125 685.226563 589.675781 675 585 C 673.933594 636.308594 601.308594 630 581 665 C 593.59375 660.128906 603.691406 650.335938 617 645.695313 C 634 639.730469 651.777344 640.101563 669 636 C 666 632.230469 662.578125 630.320313 658 629 C 667.789063 619.210938 676.203125 608.535156 685 598 C 691.429688 590.570313 696.488281 582.710938 684 579 M 831 629 C 826.253906 630.128906 822.324219 631.523438 820 636 C 843.261719 639 865.246094 641.777344 887 651.4375 C 894.796875 655 900.488281 661.5 908 665 C 890.320313 633.28125 842 636.628906 820.789063 607 C 815.945313 600.238281 814.5 593 813 585 C 803.398438 591.316406 800.847656 590.0625 804 579 C 800.382813 580.074219 794.890625 582.199219 795.875 587.003906 C 796.875 592 802.355469 596.308594 805.386719 600 C 813.550781 610 821.929688 620 831 629 M 520 649 C 533.601563 642.601563 536 621.742188 540.691406 609 C 542.84375 603 545.679688 597.308594 547 591 C 527.660156 600.042969 525.703125 631.160156 520 649 M 942 591 C 943.261719 605.367188 951.953125 623.066406 958.257813 636 C 960.660156 641 963.226563 647.082031 968 650 C 963.933594 632.261719 960 599.609375 942 591 M 1320 595 L 1319 596 L 1320 595 M 171 596 L 170 597 L 171 596 M 743 603 C 742.808594 612.199219 735.539063 619.832031 735.4375 628 C 735.332031 636.601563 747.40625 639.308594 752.683594 633.722656 C 759.285156 626.726563 748.585938 608.160156 743 603 M 168 614 L 167 615 L 168 614 M 654 819 C 650.816406 820.242188 647.949219 821.140625 646 824 C 659.730469 821.421875 665.746094 828.746094 675 838 C 655.714844 839 633.65625 853.425781 623 869 C 636 865 646.949219 854.0625 660 849.066406 C 673.671875 843.832031 685.878906 846 700 846 L 700 847 C 669.710938 851.097656 641.617188 879 616 894 L 616 895 C 646.859375 890.441406 668.519531 858.652344 701 856 L 701 857 C 685.335938 861.519531 671 875.722656 657 884 L 657 885 C 666.738281 885 676.265625 882.199219 686 882 L 686 883 C 671.210938 884.292969 659.914063 895.640625 648 903.300781 C 634.597656 912 617.902344 917.742188 602 919 L 602 920 C 631.40625 923.234375 653.5625 906.648438 679 896 L 679 897 C 666 903.707031 659.246094 919.449219 649.824219 930 C 636.644531 944.765625 620.6875 954.785156 604 965 L 604 966 C 628 962.765625 646.777344 943.222656 663 927 C 653.183594 950.453125 629.4375 972.804688 604 977.382813 C 589.386719 980.015625 578.4375 974 565 982 C 574.195313 972.046875 562.429688 962.648438 553 971 C 560.339844 957 550.832031 948 548 934 C 545.484375 921.570313 548.238281 910.074219 551 898 C 545 899.753906 541.277344 903.734375 537 908 C 537 895.585938 538.914063 882.621094 543.464844 871 C 546 864.472656 550.753906 859 552 852 C 545.953125 854.058594 541 857.046875 536 861 C 537.320313 845 547.46875 838.457031 555 826 C 536 830 522.761719 845.183594 511.628906 860 C 507.472656 865.527344 497.636719 876.703125 509 880 L 509 881 C 501.984375 881.019531 496.878906 882.148438 496 890 C 505.683594 887.613281 514.238281 888.582031 524 889 L 524 890 C 515.660156 893.234375 507 896.363281 499 900 L 499 901 C 508.191406 900.273438 516.777344 897.804688 526 900 C 523.964844 902.265625 522.386719 904.296875 521 907 C 525.464844 906.082031 532.496094 904 534.292969 910.042969 C 535.75 915.082031 531.609375 923.132813 532.171875 929 C 534.445313 953 541.59375 976.019531 558.171875 994 C 568 1004.816406 583.636719 1014.414063 599 1012.710938 C 606.429688 1012 614.695313 1006.382813 622 1007.265625 C 634.980469 1009 652 1023.015625 658 1034 C 671.261719 1058.1875 671.671875 1090.335938 676 1117 C 682.5 1156 692.910156 1193.617188 712.578125 1228 C 717 1236 722 1243.777344 726.242188 1252 C 728.238281 1256 729.34375 1261.308594 733 1264 C 731.503906 1253 725.550781 1243.253906 721.449219 1233 C 712.949219 1211.75 704.476563 1189.566406 700.261719 1167 C 691.238281 1118.691406 699.234375 1066.824219 684 1020 L 685 1020 C 702.640625 1057.78125 702.785156 1101 714.289063 1141 C 717.453125 1152.011719 722 1176.496094 732 1183 C 717.875 1138.828125 716 1093.085938 716 1047 L 717 1047 C 717 1076.414063 723.730469 1108.183594 733 1136 C 735.253906 1142.757813 737.640625 1149.4375 740.425781 1156 C 741 1157.511719 742.246094 1161.792969 744.394531 1161.792969 C 749.785156 1161.792969 755.410156 1142.230469 756.945313 1138 C 766.210938 1112.5 772.925781 1080.171875 773 1053 L 774 1053 C 774 1084.226563 773 1115.140625 767.917969 1146 C 765.730469 1159 759.898438 1171.148438 758 1184 L 759 1184 C 788.355469 1133.703125 780 1073.175781 804 1022 L 805 1022 C 794.328125 1068.132813 799.886719 1115.605469 790.550781 1162 C 786 1184.324219 777.765625 1206 769.398438 1227 C 764.640625 1239 757.914063 1252.203125 756 1265 C 766.476563 1256.027344 773 1237.265625 779.246094 1225 C 799.691406 1184.007813 809.589844 1142.0625 815.871094 1097 C 820.890625 1061 824.847656 1021.476563 864.828125 1008.398438 C 869.472656 1007 874.71875 1010.496094 879 1012 C 885.402344 1014.023438 892.308594 1014.378906 899 1014 C 913.25 1013 925.269531 1004.695313 934.195313 994.015625 C 939 988.234375 943 986.722656 940 979 L 941 979 L 942 982 C 955.503906 970.8125 958.535156 940.382813 956.570313 924 C 955.753906 917.15625 955.714844 910.640625 950 906 L 950 909 L 949 909 C 946.773438 903.6875 944.195313 899.71875 939 897 C 939 908.503906 942.988281 919.40625 941.828125 931 C 940.785156 941.421875 933 951.171875 932.515625 961 C 932.269531 965.53125 935.320313 970 937 974 L 936 974 C 934.84375 971.558594 933.261719 967.339844 930.480469 966.304688 C 925.976563 964.628906 919.457031 973.070313 919.457031 977 C 919.457031 981.492188 924 985.105469 927 988 C 922.800781 985.351563 918.925781 979.488281 913.996094 978.527344 C 910 977.761719 905.855469 980.269531 902 980.828125 C 894.230469 982 886.496094 981.355469 879 979 C 859 972.640625 839.757813 948.199219 829 931 C 843.171875 945.171875 857.265625 959.324219 878 962 C 872.75 954.296875 858.335938 949.433594 851 942.828125 C 835.683594 929.042969 824.410156 900.515625 804 894 L 804 893 C 815.714844 895.78125 824.371094 904.71875 835 910 C 850.789063 917.574219 868.625 920 886 920 L 886 919 C 871.71875 916.230469 856.632813 913.078125 844 905.546875 C 829.585938 897 819 883.375 801 883 L 801 882 C 811 882.007813 820.921875 884.792969 831 885 L 831 884 C 815.449219 876.628906 800.691406 866.65625 788 855 C 801.777344 859 815.695313 863.773438 828 871.203125 C 837.464844 877 846.277344 886 857 889 C 853.738281 883.449219 846.992188 879.589844 842 875.601563 C 827.710938 864.1875 809 849 790 848 L 790 846 C 799.265625 846 807.71875 844.777344 817 846.464844 C 834.183594 849.582031 848 859.707031 863 868 C 857.796875 852.738281 829.460938 838.328125 814 838 C 821.292969 828.265625 830 822.519531 842 823 C 840.289063 821.398438 836.707031 819.707031 837.496094 817 C 838.957031 811.695313 846 807.179688 849.332031 803 C 856 794.382813 861.429688 784.640625 864.242188 774 C 868 759.738281 864.976563 745.296875 863.285156 731 C 859.605469 700 854.632813 675.792969 823 661.308594 C 801.992188 651.6875 778.519531 653 756 653 C 722 653 685 647.515625 655 667.75 C 633.835938 682.003906 628.496094 704.191406 625.832031 728 C 624.820313 737.054688 621.339844 745.792969 621.339844 755 C 621.339844 780.683594 636.578125 801.566406 654 819 M 777 666 L 777 667 C 754.824219 667.003906 734 671.289063 712 667 C 717.207031 663.289063 725.734375 663.078125 732 663.003906 C 747 662.824219 762 664.113281 777 666 M 758 716 L 758 715 C 766.230469 711.808594 774 707.730469 783 707 L 783 705 L 707 705 C 712.777344 710.046875 723.746094 712.1875 731 715 C 726 716.507813 720 713.371094 715 712.464844 C 705.628906 710.761719 696.332031 710.632813 687 712.667969 C 670.996094 716.160156 655.929688 744.007813 638 736 C 628.945313 732 633.78125 716.171875 635.628906 709 C 641.824219 685 664.8125 677 687 673.425781 C 706.910156 670.335938 726 675.234375 746 675 C 756.371094 675 766.628906 671.796875 777 671.089844 C 793.511719 670 812.8125 673.582031 828 680.015625 C 844.488281 687 852.742188 701 855 718 C 856 725.273438 857.363281 733.570313 848.996094 737 C 833.859375 742.785156 821.230469 719.472656 809 714.476563 C 792 707.546875 775 714.636719 758 716 M 467 699 C 472.425781 695 480.757813 688 484 682 C 476.28125 685 469.390625 691 467 699 M 1005 682 C 1008.554688 688 1016.390625 695 1022 699 C 1019.480469 690.503906 1013 685.023438 1005 682 M 222.667969 695.667969 C 222.722656 695.722656 222.777344 696.777344 222.332031 696.332031 C 222.277344 696.277344 222.222656 695.222656 222.667969 695.667969 M 451 711 L 451 712 C 462.988281 711.484375 483 710.039063 491 700 C 477.757813 702.734375 463.402344 705.511719 451 711 M 999 700 C 1004 707.390625 1028.199219 711.699219 1037 713 C 1028.199219 703.472656 1011.261719 701.558594 999 700 M 997 704 C 999 710.027344 1003.6875 714.726563 1010 716 C 1006.523438 711.066406 1002.234375 707.023438 997 704 M 480 717 C 486.332031 715.117188 490.589844 711.140625 493 705 C 487.574219 707.515625 483 712 480 717 M 640 729 L 640 730 C 652.59375 731.796875 658.585938 722.507813 668 716.09375 C 673 712.632813 679.300781 711 684 707 C 666.363281 701.796875 655.476563 724.476563 640 729 M 807 707 C 809.789063 710.804688 815.175781 712.050781 819 714.789063 C 828.855469 722 832.933594 730 846 730 C 836.652344 719.304688 821.683594 707.640625 807 707 M 646 789 L 655 802 C 644 797.300781 637.28125 788.101563 633.671875 777 C 632.730469 774.109375 628.734375 763.554688 634 763.332031 C 656.21875 762.433594 661.710938 793.375 686 786 C 697 782.578125 716.183594 773.164063 716 759.425781 C 716 754.054688 711.167969 750.289063 710.679688 745.113281 C 710.359375 741.707031 713.457031 741.648438 716 742.203125 C 740.65625 747.5625 721.550781 778.179688 709.996094 786.570313 C 688.773438 802 668.738281 795.5 646 789 M 829 804 C 832.5625 799 836.890625 794.457031 840 789 C 819.460938 797.425781 795.992188 801.109375 777 786.472656 C 765.527344 777.628906 748.648438 748.398438 771.996094 742.269531 C 774.535156 741.601563 777.636719 741.722656 777.320313 745.113281 C 776.847656 750.136719 772.367188 753.796875 772 759 C 771.589844 772.226563 789.339844 781.757813 800 785.25 C 811 789 821.402344 786.484375 830 778.824219 C 836 773.367188 844.484375 762.691406 853.9375 764 C 860.492188 764.691406 855.601563 775.445313 854.304688 779 C 849.867188 791.175781 841.234375 800 829 804 M 242 748 L 243 754 L 242 754 C 241.613281 751.730469 241.324219 750.164063 242 748 M 1248 748 L 1247 754 L 1246 754 C 1246.355469 751.65625 1246.773438 750.011719 1248 748 M 243.667969 755.667969 C 243.722656 755.722656 243.777344 756.777344 243.332031 756.332031 C 243.277344 756.277344 243.222656 755.222656 243.667969 755.667969 M 1245.667969 755.667969 C 1245.722656 755.722656 1245.777344 756.777344 1245.332031 756.332031 C 1245.277344 756.277344 1245.222656 755.222656 1245.667969 755.667969 M 245 758 L 244 759 L 245 758 M 1245 758 L 1244 759 L 1245 758 M 246 761 L 245 762 L 246 761 M 1040 777 L 1040 780 L 1039 780 C 1039.25 778.546875 1039.316406 778.246094 1040 777 M 373.5 807.5 C 372.871094 808.128906 373.871094 809.128906 374.5 808.5 C 375 808 374 807 373.5 807.5 M 394 813 L 394 816 L 393 816 C 393.25 814.550781 393.316406 814.246094 394 813 M 934 825 C 936.726563 830.105469 941.984375 833.277344 945.363281 838 C 950.570313 845.273438 952.3125 854.273438 953 863 C 950.976563 861.140625 940 850.574219 937 854.707031 C 934.988281 858 943.238281 867.097656 944.742188 870 C 951.859375 883.753906 947.628906 904.523438 966 907 C 961.234375 893.15625 977.6875 899.640625 986 900 L 986 899 C 978.917969 895.644531 971.839844 892.0625 964 891 C 970 887.632813 976.238281 887.742188 983 888.039063 C 985 888.128906 990.320313 890 991.863281 888 C 994.855469 884.308594 986 881 985.308594 878.351563 C 979 855.226563 957 833 934 825 M 1081 887 C 1071.480469 881.523438 1063.777344 873.574219 1054 868.308594 C 1035.644531 858.425781 1016.367188 857 996 857 C 1021.976563 827.753906 1067 862.136719 1081 887 M 501 857 C 476.597656 856 455.96875 858.605469 434 871 C 425 875.824219 417.761719 883 409 888 C 416.3125 862.671875 447.207031 847.082031 472 847 C 482 847 494.175781 848.761719 501 857 M 702 855.332031 C 702.773438 855.332031 702 855.832031 701.667969 855.667969 L 702 855.332031 M 536 861 L 535 862 L 536 861 M 725 868 L 725 869 C 717.390625 873.683594 728.726563 892.777344 726 902 C 716.371094 895.070313 707.957031 871.097656 725 868 M 767 868 L 767 869 C 752 875.1875 743 888.191406 731 871 C 734.976563 873 739.4375 876.636719 744 876.5625 C 751.210938 876.449219 759.519531 869.546875 767 868 M 728 869 L 727 870 L 728 869 M 772 869 C 774.515625 881.195313 775.992188 895.203125 763 902 C 763 893.339844 764.320313 874.359375 772 869 M 730 870 L 729 871 L 730 870 M 705 877 C 705.9375 888.457031 711 898.152344 711 910 C 701.6875 903.121094 697.738281 886.757813 705 877 M 786 877 C 789.605469 887.652344 789.222656 901.359375 780 909 C 780 898.492188 780.214844 886.195313 786 877 M 362 881 L 361 882 L 362 881 M 377 1039 L 379 1039 C 379.640625 1024.15625 386.679688 1009.339844 392.695313 996 C 406 966.265625 421.980469 938.503906 446 916.023438 C 457.730469 905.046875 470.832031 899.492188 485 892.671875 C 487.988281 891.234375 495.234375 887 494 882.605469 C 493 878.832031 477.558594 884.234375 475 885.027344 C 455.382813 891.105469 435.921875 902.222656 419 913.746094 C 382.679688 938.480469 377 999.175781 377 1039 M 801 881 L 800 882 L 801 881 M 993 881 C 997.292969 892.515625 1008.183594 893.09375 1018 898 C 1029.550781 903.707031 1038.972656 912 1048 921 C 1078.824219 952 1100.636719 996 1111 1038 C 1116 1025.8125 1110.375 1004.644531 1108.246094 992 C 1104 967 1095.171875 939.582031 1078.382813 920.039063 C 1072 912.78125 1063 908.253906 1055 903.398438 C 1036 892.074219 1015.597656 881.0625 993 881 M 686 892 L 685 893 L 686 892 M 803 892.332031 L 803.332031 892.667969 C 802.839844 892.832031 802.226563 892.332031 803 892.332031 M 684 893 L 684 894 C 682.253906 895 680.875 895.453125 679 896 L 679 895 L 684 893 M 712 922 C 704.917969 918.324219 696 910.164063 691 904 C 700.179688 907.183594 707.640625 913.25 712 922 M 799 904 C 793.730469 910.378906 785.777344 917.226563 779 922 C 781.984375 912.648438 790 907.054688 799 904 M 806 915 C 805.320313 923.613281 803.871094 934.109375 797 940 C 799.304688 931.804688 799.730469 921.261719 806 915 M 686 916 C 689.234375 924 691.375 931.628906 693 940 C 687.210938 935.023438 682.902344 923.382813 686 916 M 395 922 L 394 923 L 395 922 M 1096 922 L 1095 923 L 1096 922 M 664 926 L 663 927 L 664 926 M 826 926 L 829 931 C 827 929.351563 826 928.503906 826 926 M 697 935 C 706.414063 944.417969 716.78125 955.042969 718 969 L 720 969 C 720 961.445313 719.699219 954.054688 722.902344 947 C 727.679688 936.492188 732.984375 940.289063 733 950 L 733 957 C 737 953.019531 738.585938 945.585938 743.996094 943.085938 C 747.992188 941.242188 748.371094 946 751.386719 946.796875 C 754.902344 948 757.640625 942.351563 759 940 L 760 940 C 763.527344 949.15625 765.316406 958.265625 763 968 C 773.71875 957.054688 779.566406 945.683594 794 938 L 790 955 C 808.492188 944.257813 819.875 959.726563 832 972 C 837.761719 977.824219 844.863281 983 849 990 C 837.582031 993.792969 830.941406 987.554688 820 983 L 820 997 C 811 991 805.414063 982.574219 798 975 C 798 980.191406 798.699219 985 800 990 C 782 985 764.675781 987 746 987 C 726.976563 987 709.328125 984.769531 691 990 C 692 985.746094 692.453125 981.339844 693 977 C 684.351563 983.085938 677 992.125 667 996 C 668 991.746094 668.453125 987.339844 669 983 C 660.820313 985.785156 653.953125 991 646 994 L 647 990 L 640 991 C 643.585938 986 648.613281 982.332031 653 978 C 664.867188 966.269531 680 947.382813 699 953 C 698.535156 947.308594 694.878906 940.4375 697 935 M 354 946 L 353 947 L 354 946 M 1136 946 C 1136.890625 947.746094 1137.453125 949.125 1138 951 L 1137 951 C 1136.359375 949.160156 1135.917969 948 1136 946 M 430 951 C 408.238281 988.285156 396.730469 1031.820313 381.574219 1072 C 367.859375 1108.363281 349.71875 1143.03125 337.671875 1180 C 331 1200.121094 328 1221 328 1242 C 328 1248.832031 326.382813 1258 330 1264 C 332.171875 1244.242188 330.9375 1226.386719 337.695313 1207 C 350.796875 1169.410156 374 1137.074219 392.214844 1102 C 403.546875 1080.179688 411.890625 1055.8125 417.871094 1032 C 422.847656 1012.207031 428.171875 992.378906 430 972 C 430.683594 965.472656 434.316406 956.695313 430 951 M 1058 951 C 1058 1005.777344 1076.332031 1061.707031 1101.257813 1110 C 1127.660156 1161.148438 1159.960938 1206.070313 1160 1266 L 1161 1266 C 1161 1243.648438 1162.421875 1221 1157.574219 1199 C 1151.386719 1171 1138 1145.242188 1126.851563 1119 C 1115 1091.398438 1105 1063.089844 1094.425781 1035 C 1087 1015.429688 1078.433594 996.386719 1070.605469 977 C 1067 968.441406 1065.246094 957.210938 1058 951 M 553 971 C 552.453125 972.636719 552.636719 972.453125 551 973 C 551.546875 971.363281 551.363281 971.546875 553 971 M 1004 973 C 1004 1006.53125 1013.398438 1038.496094 1020.574219 1071 C 1026.761719 1099.007813 1030.953125 1127.410156 1032.910156 1156 C 1035.503906 1194 1022.757813 1227.339844 1016.753906 1264 C 1013.230469 1285.519531 1013.300781 1308.101563 1023.246094 1328 C 1026 1333.765625 1029.355469 1341.574219 1035 1345 C 1031.671875 1333.449219 1024.550781 1323.621094 1025 1311 C 1026.367188 1282.234375 1043 1257.472656 1052.304688 1231 C 1058.636719 1213 1059.214844 1192.054688 1057.910156 1173 C 1055.3125 1135.050781 1047.9375 1097.738281 1034.574219 1062 C 1024 1033.71875 1006.257813 1004 1006 973 L 1004 973 M 484 974 C 481.65625 1003.449219 466.699219 1031.757813 456.425781 1059 C 443.789063 1092.503906 434.539063 1128.195313 432 1164 C 430.570313 1186.164063 429.867188 1209.542969 436.746094 1231 C 445 1257 461 1281.328125 462.910156 1309 C 463.890625 1323.214844 456.285156 1332.730469 454 1346 L 455 1346 C 465.3125 1330.367188 473 1313.789063 474.828125 1295 C 477.390625 1268.199219 466.546875 1240.726563 460.652344 1215 C 456.195313 1195.554688 455.769531 1176 456 1156 C 456.742188 1094.066406 486 1035.6875 486 974 L 484 974 M 938 974 C 938.890625 975.746094 939.453125 977.125 940 979 L 939 979 C 938 977 937.589844 976.140625 938 974 M 446 980 C 433.226563 1013.109375 425.734375 1048.042969 412.550781 1081 C 403.464844 1103.71875 386.667969 1125.136719 381 1149 C 392.996094 1142.777344 399.996094 1128.796875 407.34375 1118 C 427 1089.035156 442.402344 1059.042969 447.421875 1024 C 449 1012.617188 453.242188 989.734375 446 980 M 1042 980 C 1042 994.808594 1040.511719 1009.183594 1042.285156 1024 C 1046.183594 1056.589844 1060.648438 1086 1078.667969 1113 C 1086.410156 1124.617188 1094.886719 1143 1108 1149 C 1105.605469 1135.574219 1095.359375 1123.335938 1089.859375 1111 C 1078 1084.519531 1068 1057.601563 1059.34375 1030 C 1054.8125 1015.8125 1052.703125 990.597656 1042 980 M 565 982 C 563.394531 984 562.21875 985 560 986 L 560 985 L 565 982 M 929 990 C 927.363281 989.453125 927.546875 989.636719 927 988 C 928.636719 988.546875 928.453125 988.363281 929 990 M 483 1103 L 484 1103 C 493.378906 1082 509.761719 1062.414063 515.523438 1040 C 517.808594 1031.105469 516 1023 516 1014 C 510.585938 1017.300781 508.789063 1026.695313 505.253906 1032 C 489.722656 1055.261719 483 1075 483 1103 M 1007 1102 C 1006.996094 1084.382813 1004.449219 1066 996.394531 1050 C 990.175781 1037.742188 979 1028.09375 977 1014 C 971.519531 1017.554688 973.597656 1031.269531 974.886719 1037 C 978.796875 1054.34375 988.992188 1069.675781 997.574219 1085 C 1000.496094 1090.21875 1001.988281 1098.582031 1007 1102 M 582 1019 C 582 1045 581.925781 1070 574.574219 1095 C 564.78125 1128.488281 547.472656 1162.253906 549 1198 C 552.179688 1269.722656 621.398438 1309.285156 674 1344.355469 C 682.699219 1350.15625 690.625 1356.59375 698 1364 C 702.1875 1368.207031 705.777344 1374.1875 711 1377 C 699.746094 1342.414063 665.757813 1326.390625 640 1303.714844 C 613.765625 1280.617188 594.773438 1251.105469 584 1218 C 591 1226.355469 592.875 1236.539063 597.890625 1246 C 604.996094 1259.410156 614.9375 1270.625 626 1281 C 652.617188 1305.664063 688.632813 1317.789063 715 1343.039063 C 724.566406 1352.199219 731.910156 1362.765625 736.988281 1375 C 738.578125 1379 740.582031 1390.777344 744.484375 1392.652344 C 747.503906 1394.105469 749.492188 1383.683594 750 1382 C 754 1369.347656 761 1356.757813 770 1347 C 796 1319.003906 832.980469 1305.210938 862 1281.078125 C 873.683594 1271.363281 887.574219 1258.039063 892 1243 L 893 1243 C 882.253906 1280.3125 848.175781 1303.136719 820 1326.585938 C 803 1340.660156 785.699219 1355.023438 780 1377 C 784.648438 1374.019531 787.203125 1368.03125 791 1364 C 797.660156 1357.046875 805 1351.457031 813 1346.023438 C 850.671875 1320.058594 888.40625 1297.785156 915.847656 1260 C 927.511719 1244 938.519531 1224.226563 939.910156 1204 C 942.886719 1160.804688 921.863281 1122.664063 911 1082 C 905.632813 1061.039063 907 1040.324219 907 1019 L 905 1019 C 903 1042.066406 897.570313 1064.753906 896 1088 C 894.9375 1106.09375 898 1124.738281 896.910156 1143 C 894.691406 1175.429688 883.429688 1206.089844 865.484375 1233 C 844.933594 1263.816406 817.78125 1289 789 1311.800781 C 773.65625 1324.023438 749 1340.222656 745 1361 C 735.539063 1351.640625 730 1338.515625 720 1329.089844 C 705 1315.171875 688 1303.527344 673 1289.828125 C 641.242188 1261.097656 613.890625 1227.402344 601 1186 C 589.621094 1149.304688 592.183594 1112.703125 592 1075 C 591.933594 1061.554688 589.433594 1048.160156 586.800781 1035 C 585.753906 1029.777344 585.335938 1023.234375 582 1019 M 805.667969 1020.667969 C 805.722656 1020.722656 805.777344 1021.777344 805.332031 1021.332031 C 805.277344 1021.277344 805.222656 1020.222656 805.667969 1020.667969 M 932 1028 C 922.410156 1069.828125 954.851563 1099.050781 969 1136 L 970 1136 C 970 1117.324219 968.40625 1098 959.742188 1081 C 950.363281 1062.710938 934.449219 1049.730469 934 1028 L 932 1028 M 556 1029 C 555.589844 1048.738281 540.226563 1061.765625 531.3125 1078 C 521.40625 1096.039063 519 1115.761719 519 1136 L 520 1136 C 523.855469 1127.347656 526.703125 1118.265625 531.425781 1110 C 541 1093.230469 553 1078 558 1059 C 560.261719 1051 564.488281 1034.8125 556 1029 M 495 1158 L 496 1158 C 496.171875 1137.152344 501.738281 1117.449219 511.257813 1099 C 521.328125 1079.488281 536.332031 1059.34375 533 1036 C 527.355469 1040 523.933594 1050.28125 519.859375 1056 C 498.992188 1085.269531 488.304688 1122 495 1158 M 956 1036 C 953.675781 1065.46875 973.90625 1087.019531 984.394531 1113 C 990.40625 1128 988.65625 1143.304688 993 1158 C 995.640625 1151.703125 994.988281 1141 995 1134 C 995 1106.582031 986.8125 1083.097656 972.425781 1060 C 968 1053.15625 962.953125 1040 956 1036 M 659 1078 C 644.765625 1154.390625 658.328125 1230.097656 710 1290 C 716.695313 1297.761719 723 1313.597656 731 1319 C 729.992188 1295.542969 715.644531 1276.117188 705.257813 1256 C 690.292969 1227.003906 678.421875 1196.789063 670.882813 1165 C 666.277344 1145.574219 663 1126 661.171875 1106 C 660.386719 1097.789063 663.199219 1085.152344 659 1078 M 829 1078 C 829 1129.675781 817.515625 1180.554688 797 1228 C 784.910156 1256.515625 759 1288.183594 759 1320 L 760 1320 C 767.40625 1297.269531 787 1283.59375 799.5625 1264 C 823.691406 1226.121094 837 1181 837 1136 C 837 1122.023438 836.511719 1107 834.710938 1093 C 834 1088.003906 833.246094 1081.128906 829 1078 M 234 1226 L 235 1226 C 258.179688 1186.320313 301.640625 1165.484375 328.203125 1128 C 334.226563 1119.503906 342 1112.261719 345 1102 C 333.441406 1107.390625 323.484375 1121.246094 314 1129.828125 C 293.640625 1148.253906 274 1167.15625 256 1188 C 246.757813 1199 235.996094 1211.234375 234 1226 M 1144 1102 C 1161.328125 1142.214844 1199.855469 1167 1231 1195.171875 C 1240 1203.386719 1245.753906 1218.226563 1255 1225 C 1251.992188 1210.621094 1242.257813 1199.011719 1233 1188 C 1215.300781 1166.660156 1194.804688 1148.15625 1174 1130 C 1164.28125 1121.289063 1155.433594 1108 1144 1102 M 480 1122 C 463 1166.800781 460.28125 1230.40625 492 1269 C 516.609375 1298.761719 563.605469 1318.039063 567 1361 L 568 1361 C 576.839844 1324 542.859375 1299.097656 521.171875 1275 C 503 1255 490.851563 1227.476563 486.25 1201 C 483 1182.292969 484 1164.769531 484 1146 C 484 1138.230469 485.46875 1128.261719 480 1122 M 924 1362 C 921.375 1347.648438 929.925781 1334.554688 938.753906 1324 C 956.976563 1302.214844 983.222656 1287.769531 1000.238281 1265 C 1030.316406 1224.753906 1022 1168.21875 1010 1123 C 1004.640625 1126.769531 1005 1139 1005 1145 C 1004.90625 1164.472656 1005.964844 1183.789063 1002.195313 1203 C 997.371094 1227.601563 986.355469 1252.507813 970.539063 1272 C 958.410156 1287 943.222656 1299.101563 932.203125 1315 C 925.816406 1324.21875 911.429688 1352.433594 924 1362 M 515 1146 C 501.707031 1180.722656 495.511719 1229.519531 519.503906 1261 C 545.53125 1295.152344 600 1309.769531 609.191406 1356 C 611.339844 1366.796875 607.535156 1375.5625 606 1386 L 607 1386 C 610.4375 1380.742188 612.867188 1375.050781 614.570313 1369 C 628.605469 1319.1875 573.792969 1288.492188 546.171875 1258 C 538.359375 1249.378906 531.34375 1240.503906 526.257813 1230 C 518.753906 1214.5 515 1196.191406 515 1179 C 514.996094 1169.558594 518.605469 1154.589844 515 1146 M 972 1146 C 980.535156 1179 973.808594 1221.59375 951.5625 1248 C 932 1271.164063 905.632813 1287.359375 887.640625 1312 C 875.828125 1328.175781 869.359375 1348.085938 874.476563 1368 C 875.996094 1374 878.75 1382.5625 884 1386 C 881.933594 1378.273438 878.777344 1370.152344 879.210938 1362 C 881.570313 1317.449219 935.480469 1298.082031 961.910156 1270 C 976.519531 1254.472656 982.628906 1235.820313 984 1215 C 985.316406 1197.472656 984 1180.058594 979.425781 1163 C 977.875 1157.359375 977.183594 1149.425781 972 1146 M 905 1218 C 902.511719 1226.636719 897.457031 1234.6875 894 1243 L 893 1243 C 895 1234.355469 898.605469 1224.34375 905 1218 "/>
</g>
</svg>
