<?xml version="1.0" encoding="UTF-8"?>
<svg xmlns="http://www.w3.org/2000/svg" xmlns:xlink="http://www.w3.org/1999/xlink" width="1500pt" height="1500pt" viewBox="0 0 1500 1500" version="1.1">
<g id="surface1">
<path style=" stroke:none;fill-rule:nonzero;fill:rgb(0%,0%,0%);fill-opacity:1;" d="M 244 891 L 244 892 C 266.316406 892 289.84375 888.328125 312 885.714844 C 321 884.648438 337.957031 882.042969 345.773438 888 C 352.242188 892.664063 346 904.429688 346.261719 911 C 346.597656 919.671875 352.710938 926.699219 354.480469 935 C 356.601563 945 354.394531 956 355 966 C 356.425781 985.421875 364.558594 1005.308594 372 1023 C 381.964844 1046 392 1068.304688 406 1089 C 372.703125 1089 344.644531 1095.195313 315 1111 L 315 1112 C 324.253906 1110.632813 332.34375 1105.347656 341 1102.0625 C 353.53125 1097.3125 366.773438 1094.59375 380 1092.730469 C 388.519531 1091.527344 402.835938 1093.171875 404.292969 1104 C 405 1110.289063 400.4375 1117.359375 398.203125 1123 C 393.230469 1135.550781 387.585938 1149.371094 387 1163 L 388 1163 C 393 1149.664063 396 1136.007813 402.222656 1123 C 403.878906 1119.53125 406.820313 1111.046875 412 1112.347656 C 415.761719 1113.289063 418.59375 1117.726563 422 1119.582031 C 427.359375 1122.503906 434.511719 1122.621094 438.257813 1128.105469 C 442.441406 1134.226563 437 1143.148438 434.574219 1149 C 429 1162.027344 420.953125 1176.679688 426 1191 C 430 1202 438.660156 1212.539063 448 1219.441406 C 452.734375 1223 458.566406 1223.808594 462.824219 1228.105469 C 472.546875 1238 476.871094 1251.824219 486.175781 1262 C 506 1283.796875 542.570313 1282 569 1276.550781 C 576.824219 1275 584.9375 1270.203125 593 1270.359375 C 598.964844 1270.472656 603.34375 1275.386719 609 1276.609375 C 613.546875 1277.589844 619.789063 1274.464844 623.773438 1277 C 629.730469 1280.578125 632.949219 1295.789063 636.308594 1302 C 647.339844 1322.394531 664.6875 1355.554688 687 1365 C 673.472656 1340.730469 651.847656 1322.113281 641 1296 C 639.324219 1292 630.417969 1270.054688 641 1270.054688 C 646 1270.054688 653.671875 1283.480469 657 1287 C 669.800781 1300.347656 685.199219 1318.472656 703 1325 C 694.488281 1310.269531 678.867188 1299.007813 667 1287 C 663.324219 1283.273438 654.183594 1275.476563 655.273438 1269.441406 C 656 1265.316406 661.589844 1263.769531 665 1263 C 675.6875 1260.15625 686 1260.0625 697 1261.167969 C 717.984375 1263.300781 737.589844 1270.386719 759 1269 C 781 1267.394531 801.761719 1256.507813 824 1257.015625 C 834.417969 1257.253906 844.945313 1259.824219 855 1262.375 C 857.949219 1263.121094 863.3125 1263.800781 864.425781 1267.226563 C 866 1272.417969 857 1279 854 1282 C 842.265625 1293.734375 822 1304.789063 815 1320 C 831.789063 1314.648438 847.84375 1298.15625 860 1286 C 863.976563 1282.023438 871.847656 1270.636719 877.941406 1270.636719 C 887.253906 1270.636719 878.867188 1290.292969 877.28125 1294 C 871.429688 1307.671875 863.972656 1321 855.253906 1333 C 849.511719 1341 841 1348.527344 838 1358 C 857 1347 870.894531 1322.082031 880.742188 1303 C 884 1296.542969 888.644531 1278.335938 895 1275.117188 C 898.515625 1273.441406 903.304688 1275.398438 907 1274.773438 C 913.167969 1273.738281 917.570313 1267.003906 924 1267.320313 C 928.777344 1267.558594 932.863281 1271.503906 937 1273.511719 C 945 1277.402344 953.234375 1280.785156 962 1282.550781 C 987.1875 1287.617188 1013.835938 1277 1030.824219 1258 C 1038.78125 1249.128906 1044 1238.210938 1053 1230.175781 C 1067.726563 1217 1090.429688 1208.394531 1092.824219 1186 C 1094.21875 1173 1088.59375 1159.027344 1084.308594 1147 C 1082.554688 1142.082031 1079 1136.367188 1079.320313 1131 C 1079.714844 1122.660156 1094.171875 1118.386719 1101 1118 C 1109.578125 1117.179688 1115.574219 1126.765625 1119.65625 1133 C 1127.261719 1144.625 1133.65625 1157.183594 1138.988281 1170 C 1141.332031 1175.632813 1142.882813 1185.496094 1148 1189 C 1143.398438 1169 1134 1149.613281 1123.546875 1132 C 1119.261719 1124.816406 1108.902344 1115 1109.414063 1106 C 1109.847656 1098.402344 1119.765625 1093.554688 1126 1091.519531 C 1143.6875 1085.75 1163.335938 1090.574219 1181 1094 C 1177.574219 1089.496094 1168.332031 1089.421875 1163 1088.589844 C 1145.503906 1086 1123 1085 1106 1090 C 1120.679688 1058.597656 1136.496094 1029.242188 1147.328125 996 C 1155.308594 971.519531 1156.796875 946.132813 1167.671875 923 C 1172 913.777344 1168.386719 904.300781 1166 895 C 1164.921875 890.019531 1162.964844 884.445313 1167.230469 880.394531 C 1173.359375 874.574219 1186 874.695313 1194 874 C 1217.460938 872 1240.578125 875 1264 876 L 1264 874 C 1242.984375 871.34375 1222.183594 870 1201 870 C 1191.949219 870 1179.53125 874 1171 870.734375 C 1162 867.339844 1161 849.804688 1156.398438 842 C 1151.761719 834.160156 1146.992188 826.285156 1146.175781 817 C 1144.832031 801.785156 1153.84375 786.5 1157 772 C 1159.480469 761.5 1157 750.589844 1159.425781 740 C 1164.414063 717.734375 1181.683594 697.808594 1199 683.804688 C 1215.867188 670.164063 1245 660.535156 1253 639 C 1257.867188 626.097656 1252.660156 612.234375 1254.285156 599 C 1256.46875 581.230469 1263.671875 565.113281 1264.910156 547 C 1266.878906 518.277344 1261.714844 489.605469 1261 461 C 1260 422.648438 1269 386 1272.828125 348 C 1275.902344 316.257813 1274.332031 283.640625 1271.167969 252 C 1267.617188 216.476563 1259 181.234375 1232 156.089844 C 1175.542969 103.773438 1100.84375 161.175781 1059 203 C 1050.308594 211.6875 1041.183594 219.515625 1033.285156 229 C 1009.617188 257.425781 995.589844 292.359375 981 326 C 972.492188 346.175781 962 365.601563 954 386 C 943.605469 412.0625 938.539063 446.335938 915 464.472656 C 889.296875 484.273438 850.199219 465.648438 822 462.285156 C 813.765625 461.304688 804 463.113281 797 467.351563 C 792.808594 470 789.207031 475.492188 784 475.550781 C 777.53125 475.625 771.675781 471.714844 765 472.09375 C 755 472.660156 742.84375 479.257813 733 476.566406 C 723 474 718.765625 463.574219 707 462.171875 C 670.453125 457.8125 629.339844 487.535156 597 458.699219 C 576 440 576 407.8125 564.191406 384 C 557.414063 370.449219 547 358.816406 540.863281 345 C 524.554688 309.054688 514.675781 270.398438 491.253906 238 C 474.507813 215 451.507813 196.386719 430 178 C 397 149.582031 356.847656 124.230469 313 144.308594 C 276.21875 161.148438 258.3125 197.691406 251.921875 236 C 242.695313 291.28125 247.367188 345.035156 256.585938 400 C 259.566406 417.769531 262 436 260.910156 454 C 259.46875 475.082031 253.964844 496 253 517 C 251.746094 546.503906 260 572.28125 264.5625 601 C 266.496094 613.292969 263.339844 626 266.789063 638 C 270.261719 650.152344 281.671875 656.632813 292 662.304688 C 307.335938 670.730469 324 678 334 693 C 339 700.523438 344.703125 710 345.816406 719 C 347.363281 731.769531 343.886719 744.273438 346.261719 757 C 350.421875 779.296875 370 799.144531 368.960938 822 C 368.398438 833.632813 360.675781 843.542969 356.453125 854 C 353.402344 861.554688 353.25 873.042969 345.894531 878 C 338 883.28125 326.835938 880.328125 318 881.171875 C 294 883.441406 266.992188 884.011719 244 891 M 356 157 C 366 164 371.523438 174.5 380 183 C 378.371094 176.152344 374.636719 171 371 165 C 377.261719 170 380.390625 177.332031 387 182 C 384.832031 177.421875 382.402344 173 381 168 C 397.492188 173.71875 403 188.507813 416 198 L 413 191 C 431 199.609375 445.257813 215.527344 453.914063 233 C 456.394531 238 460.800781 239.039063 461 245 C 463.585938 242.042969 463.984375 238.296875 466 235 C 468.214844 240.246094 468 245.390625 468 251 C 469.910156 249.121094 470.910156 247.457031 472 245 L 473 245 C 473 252.046875 472.851563 258 481 255 C 480.242188 266.785156 486 263 491.300781 270.058594 C 496.949219 278 500.300781 288.066406 503.988281 297 C 514.574219 322.648438 523.898438 349.128906 536.246094 374 C 548.382813 398.441406 563.738281 422 569 449 C 564.921875 447.703125 553.683594 447.5625 551.179688 444.398438 C 549 441.71875 551.476563 430.054688 546.304688 430.054688 C 542.308594 430.054688 539 439.242188 537.25 442 C 531.542969 450.488281 522.695313 459.324219 513 463 L 519 448 C 511.699219 455.019531 507.1875 464.738281 499 471 L 504 453 C 498.402344 460.238281 493.535156 469.554688 490 478 L 489 478 L 490 465 L 489 465 C 485.824219 473.230469 481.773438 482.160156 481 491 L 480 491 L 480 475 L 478 475 C 477.304688 483.761719 475 492.136719 475 501 L 474 501 C 473.914063 499.03125 471 482 467.972656 485.636719 C 462.28125 492.316406 470.226563 513.226563 473 520 C 474.398438 523.375 478.617188 530 475.242188 533.242188 C 470.304688 538.140625 465 528.53125 463.707031 525 C 459 513.046875 453.371094 497 456.53125 484 C 458.394531 476.386719 465.59375 475 470.894531 470.472656 C 474.90625 467.039063 477 461.675781 479.21875 457 C 494.425781 424.808594 499.34375 392 490.371094 357 C 486.652344 342.566406 479.980469 325.253906 466 318 C 471.832031 341.664063 477 363.414063 477 388 L 476 388 C 475.722656 374.570313 470.730469 361.523438 466.34375 349 C 455.320313 317.542969 440.257813 285.300781 417 261 C 438 306 458.859375 349 459 400 L 458 400 C 456.996094 392.582031 454 385.648438 448 381 C 450.324219 399.382813 453 416.375 453 435 L 452 435 C 451.574219 430.152344 450 426.78125 447 423 L 446 461 L 445 461 C 443.976563 453 444.339844 445.621094 439 439 C 433.566406 453.113281 438 467.550781 440.410156 482 C 440.867188 485 443.820313 494.683594 440.398438 496.308594 C 434.980469 499 421.890625 492.792969 416 492 C 423.796875 499.730469 434.820313 504.445313 441.609375 513.003906 C 448.871094 522.15625 449.929688 535.097656 453 546 C 445.464844 543.242188 439.332031 537 431 536.222656 C 423.914063 535.6875 416.984375 541.398438 410 539 C 404.308594 536.75 399.96875 531.128906 395 527.746094 C 387.207031 522.441406 378.628906 518.441406 370 514.71875 C 363.171875 511.773438 356.242188 509.128906 349 507.375 C 347.425781 507 343.222656 505.507813 342.207031 507.625 C 340.878906 510.390625 346.320313 512.351563 348 513.035156 C 356.71875 516.582031 365.316406 520.390625 374 524 L 374 525 L 367 525 C 372.402344 530.15625 378.433594 533.542969 385 537 L 385 538 C 381.515625 537 378.34375 535.390625 375 534 C 382 541.03125 391.863281 547.175781 395 557 C 383.820313 551.050781 374 543.425781 362 539.054688 C 359 538 352.445313 535 349.464844 537.0625 C 346 539.539063 352.269531 542.757813 354 543.558594 C 361.582031 547.054688 369.847656 549.316406 378 551 L 378 552 C 373.914063 552.660156 372 555.050781 376 558.03125 C 384.34375 564.085938 397.183594 563.683594 403.257813 573.039063 C 411.402344 585.582031 391.730469 592.414063 385.527344 599.300781 C 381.855469 603.378906 380.773438 609.640625 375.894531 612.582031 C 348.421875 629.148438 316.835938 603.253906 289 615 C 304.671875 619.414063 320.90625 622.089844 337 624.421875 C 341.640625 625.09375 352.203125 624.433594 355.246094 628.636719 C 358 632.503906 350.46875 634.652344 348 635 C 341.640625 635.519531 335.390625 633.40625 329 634.109375 C 320.710938 635.019531 317.921875 639.824219 309 637 C 320.375 649.769531 342.84375 650 345 671 C 339.976563 667.160156 336.46875 662 331 658.46875 C 314.609375 648.285156 270.703125 633.828125 283.417969 606 C 293.5 584 329.46875 593.710938 330.960938 563 C 331 559.015625 331 555 330 551 C 322.8125 524.15625 285.984375 518.15625 274.878906 492 C 268.953125 478.042969 281.546875 465.492188 279.574219 451 C 273.257813 404.578125 259.863281 357.027344 261 310 C 261.628906 285 264.527344 256.210938 270.882813 232 C 273.328125 222.6875 276 211 284 204.789063 C 293.355469 197.621094 301.320313 204.824219 309.808594 201.355469 C 314.707031 199.355469 308.519531 192.46875 307 190 C 313.679688 192.652344 316.296875 190.382813 311.46875 184 C 307 178.246094 300.535156 175.328125 296 170 C 308.828125 168.574219 316.679688 177.679688 325 186 C 322.195313 176.28125 314.582031 171 309 163 C 317.964844 165.582031 325.773438 171.269531 333 177 C 331.894531 172.390625 329.414063 168.480469 328 164 L 342 171 C 340.652344 169.230469 339.878906 168.015625 339 166 C 345.691406 169.472656 350.714844 175.714844 356 181 C 353.226563 174.335938 349.679688 168.078125 348 161 C 353.21875 163.433594 356.964844 168 361 172 C 359.4375 167.410156 355.203125 161.792969 356 157 M 1165 157 C 1163.789063 161.199219 1161.675781 165 1160 169 C 1164 166 1167.507813 162.332031 1172 160 C 1169.765625 167 1165.980469 173.117188 1164 180 C 1169 175 1173.296875 168.375 1179 164 L 1177 170 C 1179.257813 168.078125 1181.429688 166.472656 1184 165 L 1182 169 C 1185.335938 167 1188.457031 164.683594 1192 163 L 1187 175 C 1195 169.621094 1202.625 164.191406 1212 161 L 1212 162 C 1204.285156 168 1196.503906 175.011719 1195 185 C 1204 175.769531 1210.214844 168.113281 1224 168 C 1218.953125 177.710938 1207.546875 181.460938 1203 193 C 1206.9375 192 1210.300781 189.726563 1214 188 C 1212.449219 190.277344 1205.414063 197.289063 1209.421875 200 C 1211.890625 201.472656 1216.320313 199.308594 1219 199.09375 C 1225.863281 198.546875 1233.53125 199.738281 1238.894531 204.390625 C 1245.859375 210.429688 1247.257813 221.535156 1249.371094 230 C 1255 252.808594 1257.933594 276.550781 1258.960938 300 C 1261 348.089844 1250 396.765625 1242.246094 444 C 1239.660156 459.523438 1244.953125 477.613281 1239.382813 492 C 1228.242188 520.753906 1191.78125 523.4375 1188.289063 555 C 1184.613281 588.246094 1242 584.34375 1237.816406 619 C 1235 640.804688 1206.648438 647.773438 1191 657.46875 C 1184.996094 661.1875 1180.410156 667.027344 1174 670 C 1180 652.1875 1197.214844 648.671875 1210 637 C 1200.367188 638.789063 1194.210938 634.730469 1185 633.703125 C 1179.929688 633.140625 1175 635.261719 1170 635 C 1167.371094 634.683594 1160 632.523438 1162.175781 628.496094 C 1164.363281 624.207031 1174.972656 625 1179 624.269531 C 1195.570313 622 1212.367188 617.324219 1229 616 C 1222.953125 610.335938 1212.53125 612.765625 1205 613 C 1183.792969 613.609375 1161.804688 624.324219 1141 612.558594 C 1135.46875 609.390625 1136.605469 602.585938 1132.722656 598.09375 C 1128 592.804688 1120.78125 591.3125 1116.277344 586 C 1103.441406 570.691406 1133.8125 563.519531 1141.960938 558.007813 C 1145.902344 555.339844 1145.484375 552.738281 1141 552 L 1141 551 C 1148.933594 549 1157.566406 546.523438 1164.996094 543 C 1166.707031 542.121094 1172.421875 538.488281 1168.621094 536.476563 C 1165.28125 534.707031 1159.210938 538 1156 539 C 1143.957031 543.015625 1135 550.480469 1124 556 C 1127.976563 545.730469 1138.558594 540.421875 1145 532 C 1142.390625 533.523438 1139.785156 535 1137 536 L 1137 535 C 1142.785156 531.621094 1148 528.671875 1153 524 C 1150.269531 524.117188 1147.6875 524.5 1145 525 L 1145 524 C 1149.738281 522.027344 1154.242188 519.546875 1159 517.601563 C 1161.25 516.683594 1180.199219 510.542969 1176.363281 507.015625 C 1173.167969 504.078125 1164.28125 508.152344 1161 509.449219 C 1146.828125 515.054688 1133.332031 522 1120 529.304688 C 1116 531.472656 1108 538.109375 1103.320313 535.636719 C 1099 533.503906 1103.589844 516.050781 1101.894531 511 C 1097.898438 499.089844 1084.847656 493.726563 1080.742188 483 C 1076.492188 472 1084.230469 459.328125 1082.816406 448 C 1082.328125 444.109375 1078.949219 437.496094 1076 444.039063 C 1074 449 1074 455 1074 460 L 1073 460 C 1072 447.648438 1072 435.410156 1072 423 C 1069.234375 426.191406 1067.664063 428.8125 1067 433 L 1066 433 C 1065.996094 415.335938 1069.640625 398.386719 1070 381 C 1065.609375 385.824219 1063 391 1061 397 L 1060 397 C 1060 347.25 1082.503906 307.417969 1101 263 C 1077.753906 286.441406 1062 319 1051.667969 350 C 1047.882813 361.246094 1043 373 1043 385 L 1042 385 C 1042 362 1045.894531 340 1053 318 C 1039 324.132813 1032.816406 341.261719 1028.859375 355 C 1017.769531 393.511719 1024.769531 425.515625 1041.179688 461 C 1045.8125 471.019531 1060.238281 473.753906 1062.605469 484 C 1065.601563 497 1060 513.214844 1054.984375 525 C 1053.589844 528.253906 1047.261719 538.59375 1043 532.550781 C 1040.175781 528.46875 1044.894531 521.808594 1046.386719 518 C 1050 508.558594 1056.589844 489.726563 1049 481 C 1048.46875 487.515625 1045.945313 493.570313 1045 500 L 1044 500 C 1043.820313 491.359375 1042 482.574219 1041 474 L 1040 474 L 1040 493 L 1039 493 C 1037.695313 483 1033.414063 474.398438 1030 465 L 1029 465 L 1030 478 L 1029 478 C 1025.667969 470.003906 1018.898438 462.730469 1018 454 L 1016 454 C 1016.503906 460.179688 1018.621094 466 1020 472 L 1019 472 C 1014.558594 464.199219 1008.796875 456 1002 450 C 1003.902344 455 1005.804688 460 1007 465 L 1006 465 C 1000.992188 458 993 454.203125 987.300781 448 C 981.425781 441.527344 978.398438 433 972 427 C 969.832031 444.070313 965.339844 446 949 448 C 969.425781 398.21875 992.308594 349.722656 1012.859375 300 C 1017 289.679688 1021.28125 278.375 1027.46875 269.023438 C 1030 265.113281 1032.175781 266.824219 1035.410156 265 C 1038.328125 263.109375 1037.941406 257 1038 254 L 1045 258 L 1045 244 C 1047.257813 245.816406 1049 247.828125 1051 250 C 1050.523438 244 1050.457031 239.722656 1053 234 L 1054 234 C 1054.550781 237.660156 1055.410156 240.324219 1058 243 L 1057 237 L 1058 237 L 1062 242 C 1065.34375 219.679688 1087 198.320313 1107 190 L 1104 197 L 1111 191 L 1108 198 C 1116.886719 194.089844 1127.511719 183.574219 1130 174 L 1118 183 C 1123 176 1130.566406 170.429688 1139 168 C 1137.804688 172.179688 1136 176.164063 1134 180 C 1140 175.621094 1143.230469 168.695313 1149 164 C 1145.761719 169.695313 1141.632813 174.53125 1140 181 C 1149.953125 174.722656 1154 161.648438 1165 157 M 389 176 C 393 184.742188 401 195.65625 411 198 C 409 188.183594 399.175781 177.105469 389 176 M 356 359 C 352.371094 346.410156 344 335 338.863281 323 C 332.167969 308 328.804688 291.367188 326.84375 275 C 326 268.003906 326.316406 261 325.269531 254 C 325 252.738281 324.992188 248.207031 322.984375 248.207031 C 320.484375 248.207031 320 254.375 319.753906 256 C 318.421875 264 318.214844 273 318 281 C 317.429688 305 322.804688 325.746094 338.84375 344 C 343.8125 349.652344 348.65625 356.503906 356 359 M 1164 359 C 1191.199219 343.277344 1205.527344 305.09375 1201.574219 275 C 1200.660156 268.03125 1200.542969 261 1199.574219 254 C 1199.378906 252.597656 1199.371094 248.371094 1197.546875 248 C 1195.183594 247.34375 1195 251.726563 1195 253.003906 C 1194.644531 259.683594 1193.910156 266.371094 1193 273 C 1190.4375 291.652344 1186.347656 310.609375 1178.984375 328 C 1174.535156 338.511719 1165.730469 347.464844 1164 359 M 1102 260 C 1101 261.476563 1101 261.203125 1101 263 C 1102.289063 261.558594 1102.402344 261.765625 1102 260 M 1160 402 C 1171.636719 398.285156 1179.730469 385.546875 1189 378 C 1186.359375 385.75 1182 392.242188 1175.984375 397.828125 C 1171.804688 401.710938 1164.644531 405.703125 1162.238281 411.019531 C 1157.839844 420.738281 1176 410.191406 1178 409 C 1173.179688 415 1168.328125 421 1163.605469 427 C 1162.347656 428.609375 1158.949219 432.019531 1160.257813 434.351563 C 1161.433594 436.453125 1164.671875 434.546875 1166 433.730469 C 1171.539063 430.339844 1176.414063 425.546875 1181 421 C 1173.753906 437.578125 1156.746094 447.625 1149 464 C 1159.429688 463.085938 1168.1875 455.816406 1176 449.386719 C 1197.621094 431.585938 1211.351563 406.621094 1221.601563 381 C 1225 372.191406 1228 363.210938 1230.371094 354 C 1230.980469 351.554688 1232.894531 346.738281 1230.382813 344.753906 C 1224.753906 340.296875 1217.640625 359.398438 1217 363 L 1216 363 C 1216.808594 344.160156 1227.394531 326.472656 1227.890625 308 C 1228 303.183594 1224.621094 299.511719 1220.214844 303.324219 C 1216.414063 306.605469 1214.714844 312.226563 1214 317 C 1211.890625 310 1214.183594 301.472656 1213.984375 294 C 1213.917969 291.414063 1213.921875 286.644531 1210.738281 285.75 C 1203 283.589844 1201.914063 306.503906 1200.996094 311 C 1197 330.386719 1189 349.0625 1178.984375 366 C 1172 377.449219 1161.210938 388.148438 1160 402 M 307 319 L 306 319 C 305.257813 314 303.675781 308.128906 300.210938 304.234375 C 295.355469 298.777344 291.984375 305.082031 292 310 C 292.292969 327 301.640625 343.8125 303 361 L 302 361 C 301 358 294.777344 340.816406 289.777344 345.660156 C 287.503906 348 289 352.40625 289.652344 355 C 291.605469 363.582031 294.632813 371.765625 297.679688 380 C 310 413.660156 332.964844 452.730469 369 465 C 368 457.640625 361.867188 452.359375 357 447 C 350 439 343 430.488281 338 421 C 342.589844 425.578125 347.410156 430.734375 353 434.109375 C 354.304688 435 358.382813 437 359.167969 434.390625 C 360.820313 429 345.941406 414.722656 343 410 C 345.347656 411.632813 361.847656 420.207031 356.792969 411 C 352.519531 403.183594 343 397.6875 337.183594 391 C 336.503906 390.21875 330.21875 382.507813 333 381.769531 C 335.515625 381.15625 339.574219 386.582031 341 388 C 346.71875 393.695313 352 400.476563 360 403 C 356.855469 388 346.5625 377 339 364 C 330 348.703125 323.609375 332.128906 319 315 C 317.8125 310 317.433594 286.636719 310 286.636719 C 306.46875 286.636719 306 291.457031 305.589844 294 C 304.214844 302.441406 306.335938 310.605469 307 319 M 304 361 L 304 364 L 303 364 C 303.25 362.550781 303.316406 362.246094 304 361 M 343 410 C 341.363281 409.453125 341.546875 409.636719 341 408 C 342.636719 408.546875 342.453125 408.363281 343 410 M 338 420 L 337 421 L 338 420 M 1182 420 L 1181 421 L 1182 420 M 1161 503 C 1184.953125 497.457031 1206.726563 482.511719 1215.574219 459 C 1217 455 1224 435.265625 1218.246094 432.347656 C 1215.230469 430.832031 1208.894531 446.71875 1207.753906 449 C 1201.410156 461.683594 1193.851563 472.394531 1183 481.699219 C 1175.898438 487.789063 1163.65625 493.546875 1161 503 M 300 432 C 291 469.277344 324.941406 497.175781 358 504 C 355.542969 496.777344 348.8125 493.265625 343 489 C 334.855469 482.714844 326.960938 476 320.464844 468 C 312 457.773438 309.445313 440.246094 300 432 M 1075 462 L 1074 463 L 1075 462 M 510 566 C 530.6875 548.097656 557.410156 529.601563 584 522 L 584 523 C 574 527.140625 564.71875 532.445313 557 540 C 578 537 597.273438 523 618 517.628906 C 621.484375 516.734375 636.945313 515.011719 636.945313 510.210938 C 636.945313 506.46875 627.867188 509 626 509.261719 C 614.324219 511.441406 603.386719 516 592 519 L 592 518 C 606.257813 512 615.234375 498.199219 629 491.378906 C 635.78125 488.015625 642.75 488.582031 650 487.714844 C 661.4375 486.347656 672.648438 483.492188 684 481.585938 C 691.871094 480.265625 701 478 709 479.328125 C 712 480 717.921875 482.386719 715.710938 486.585938 C 713.839844 490.144531 706.484375 491.171875 703 492.332031 C 691 496.320313 678.941406 500 667 504.003906 C 641.261719 512.691406 626.445313 528.054688 611 550 C 625.679688 546.515625 638.859375 535.433594 652 528.308594 C 673.832031 516.472656 696.824219 509.753906 720 501.304688 C 732.238281 497 741.53125 490.609375 755 490.039063 C 779.246094 489.015625 801.832031 501.378906 824 509.808594 C 845.273438 518 865.238281 527.574219 885 539 C 887.71875 540.398438 902.546875 550.480469 905 548 C 906.648438 546.242188 902.890625 543 901.976563 542 C 897.304688 537.050781 892.769531 532 887.960938 527.039063 C 871.6875 510.773438 850.269531 503.722656 829 496.667969 C 822.941406 494.65625 806 493.03125 803 486.777344 C 801.304688 483 805.886719 480.121094 809 479.394531 C 816.710938 477.597656 826.359375 480.046875 834 481.425781 C 850.941406 484.480469 873.46875 485.109375 889 492.324219 C 900.988281 498 909.527344 508.605469 921 515 L 921 516 C 908.910156 512.769531 897.675781 509.007813 885 509 L 885 510 C 898.824219 514.496094 912.691406 519 926 525 C 937.769531 530.058594 949.394531 537.082031 962 540 C 954.988281 533.046875 947 527.804688 938 524 L 938 523 C 965.507813 530.523438 987.273438 551.179688 1010 567 C 988.742188 544.789063 967.96875 528 940 514.78125 C 930.972656 510.515625 910.511719 504.195313 907.890625 493.015625 C 906.359375 486.492188 919.914063 483.730469 924 481.386719 C 940.195313 472.085938 956 461 973 475.300781 C 992 491.628906 1003.734375 515 1021 533 C 1062.910156 576.789063 1121 622.570313 1139.277344 683 C 1143.398438 696.679688 1142.644531 710.085938 1144.285156 724 C 1145.457031 734 1148.605469 745.050781 1146.480469 755 C 1142.816406 772.179688 1131.753906 785.460938 1131.257813 804 C 1130.667969 826.105469 1144.59375 845.742188 1148.386719 867 C 1150.503906 879 1149.96875 891.015625 1151.167969 903 C 1151.523438 906.527344 1154 914.15625 1152.355469 917.351563 C 1151 919.496094 1147.574219 917.5625 1146 917 C 1149.277344 943 1141.816406 965.542969 1133.667969 990 C 1129.398438 1002.808594 1123.285156 1016.3125 1123 1030 L 1122 1030 C 1121.847656 1027 1121.328125 1024.75 1120 1022 C 1117.699219 1028.75 1114 1035 1113 1042 L 1112 1042 L 1111 1038 C 1108.53125 1043.125 1109 1048.417969 1109 1054 L 1108 1054 C 1107.9375 1051 1107.5625 1048.023438 1107 1045 C 1086.621094 1067.328125 1072 1096 1072 1126 L 1071 1126 C 1066 1102.117188 1056.175781 1082.796875 1063.289063 1058 C 1065.9375 1048.777344 1069.453125 1040 1073 1031 C 1074 1028.253906 1076.925781 1023.316406 1074.9375 1020.425781 C 1071.269531 1015.101563 1064.859375 1028.789063 1063.753906 1031 C 1056.898438 1044.703125 1050.226563 1060.585938 1049 1076 L 1048 1076 C 1038.410156 1053 1026.964844 1028.535156 1021.804688 1004 C 1013.207031 963.125 1012.222656 920.0625 993.191406 882 C 984.59375 864.804688 972.511719 849 958 836.289063 C 947 826.824219 933.445313 820 925 808 C 944 816.230469 962 823.179688 982 829.671875 C 998 835 1014.34375 840 1031 834.480469 C 1051.613281 827.664063 1062.355469 808.726563 1063 788 C 1063 784.363281 1064.65625 778 1069.851563 779.660156 C 1076.257813 782 1068.175781 800.648438 1066.65625 805 C 1060.960938 821.289063 1049.488281 832.703125 1033 838 C 1023 841.152344 1008.761719 841.472656 1001 849 C 1010.984375 846.65625 1012 855 1020 858.292969 C 1026 860.816406 1033.953125 858.566406 1040 857 L 1040 856 C 1030.550781 856.078125 1019.917969 858.046875 1013 850 C 1019 850.132813 1024.886719 852.820313 1031 852.820313 C 1042.628906 852.820313 1054.910156 846.355469 1062.5625 838 C 1083.382813 815 1085.492188 777.636719 1073.988281 750 C 1068.648438 737.164063 1059.183594 723.371094 1045 720 C 1052.25 727.25 1061 735 1064 745 C 1046 739.390625 1064.832031 757.519531 1068 763 C 1050.167969 755.535156 1035 742.644531 1015 741 C 1021.617188 732.644531 1033.960938 735.140625 1043 738 C 1032.976563 727.117188 1012 729.132813 1000 734.78125 C 983.578125 742.480469 969.207031 754.523438 957.175781 768 C 946.769531 779.652344 938.695313 794.378906 921 795 C 902.628906 795.382813 903.65625 777.640625 894 768 C 895.261719 773.296875 897.257813 784.777344 889.957031 786.527344 C 883.835938 788 876.207031 782.316406 871 779.757813 C 855.914063 772.339844 839.488281 767.484375 826 757.101563 C 823 754.820313 814.390625 741 811.214844 741.632813 C 806.5625 742.5625 810.410156 753.628906 811.570313 756 C 819.890625 773.015625 845.261719 776.226563 861 782.605469 C 886.664063 793 909.582031 809.699219 930 828.171875 C 963.539063 858.503906 988.191406 894.675781 998.347656 939 C 1002.925781 959 1001.582031 980.445313 1006.757813 1000 C 1010.316406 1013.453125 1018 1025.3125 1023.574219 1038 C 1032.640625 1059.191406 1039.71875 1081.15625 1047 1103 C 1052.167969 1118.503906 1057.558594 1134 1064 1149 C 1073 1170.191406 1084.675781 1184.199219 1062.996094 1202.785156 C 1052.480469 1211.804688 1038.664063 1209.699219 1026 1211.425781 C 1014.863281 1213 1003.257813 1215.320313 992 1213.5625 C 941.34375 1205.648438 911.328125 1159.496094 875 1128.429688 C 858.941406 1114.695313 839.878906 1105.128906 824 1091.15625 C 816.570313 1084.617188 809.625 1077.238281 801 1072.230469 C 794.496094 1068.457031 785.617188 1067.167969 780.214844 1061.785156 C 769.492188 1051.109375 762.964844 1028 770 1014 C 776 1002.035156 804.792969 991.777344 816.957031 999.742188 C 824.382813 1004.605469 825.222656 1015.320313 833 1020 C 837.183594 1022.484375 842.386719 1021.050781 847 1022.132813 C 856.898438 1024.453125 867 1028.078125 876 1033.039063 C 890.449219 1041.097656 901.667969 1054 915 1063.574219 C 937.230469 1079.699219 961.324219 1093.167969 985 1107 C 980.699219 1101 974.441406 1096.589844 968 1093 L 968 1092 C 974.550781 1092.019531 982.777344 1092.085938 988.941406 1094.484375 C 991.300781 1095.402344 993.265625 1101 994.886719 1101 C 999.410156 1101 1000.449219 1092.519531 1007.566406 1098.089844 C 1011.542969 1101.199219 1009.972656 1108.074219 1008.320313 1112 C 1004.253906 1121.648438 995.671875 1129.046875 985 1130 C 957 1132.160156 928.527344 1108.71875 907 1094 C 910 1118.015625 944.191406 1126 963 1136.769531 C 968.84375 1140.132813 981.527344 1142.191406 982.757813 1150.015625 C 984.75 1162.699219 966.601563 1166.40625 963 1177 C 970.226563 1173.207031 978.65625 1172.453125 984.957031 1166.785156 C 992.574219 1160 993.449219 1149.394531 998.476563 1141 C 1005.777344 1128.8125 1016.441406 1121 1021 1107 C 1029.261719 1113.324219 1034.308594 1123.484375 1038 1133 L 1039 1133 C 1034.753906 1117.472656 1022.679688 1105.527344 1018.488281 1090 C 1013.300781 1070.769531 1018.324219 1051.199219 1010.546875 1032 C 1004.324219 1016.636719 991.617188 1004.335938 986 989 C 982 978.09375 981.917969 966.199219 979 955 C 975.300781 940 967.953125 925.183594 958.191406 913 C 945.960938 897.734375 927.71875 889.8125 913 877.410156 C 889.476563 857.589844 870.320313 832.328125 841 820.453125 C 818.472656 811.328125 793.824219 812 770 812 C 735.816406 812 699.539063 809.5625 668 825.371094 C 642.726563 838.039063 625.21875 860.664063 604 878.5625 C 588 892 569.378906 901.304688 556.425781 918 C 547.316406 929.738281 540.808594 943.472656 537.660156 958 C 535.203125 969.347656 535 981.054688 530.933594 992 C 523.984375 1010.15625 509.378906 1024.167969 503.722656 1043 C 498.695313 1059.734375 503.550781 1077.828125 498.25 1094 C 493.738281 1107.773438 483.316406 1118.675781 480 1133 L 481 1133 C 484.609375 1124.328125 489.472656 1114.816406 496 1108 C 499.183594 1113.59375 501 1120 505 1125 C 509.5625 1130.703125 515.894531 1134.773438 519.867188 1141 C 524 1147.511719 524.847656 1155.554688 529 1162 C 534.808594 1170.628906 545.386719 1173.777344 555 1176 C 550.785156 1167.035156 535.6875 1164 535 1153 C 534.667969 1143.171875 550.265625 1140.304688 557 1136.1875 C 564.859375 1131.386719 572.621094 1126.1875 581 1122.308594 C 589.28125 1118.476563 599.460938 1116 605.773438 1109 C 609.554688 1104.722656 610 1099.082031 612 1094 C 587.960938 1104.371094 568.917969 1128.691406 541 1130 C 527.746094 1130.5625 517.96875 1126.289063 510.359375 1115 C 507.757813 1111.140625 503.902344 1105 507.601563 1100.417969 C 510.390625 1097.09375 516 1097 520 1096.273438 C 530.222656 1094.765625 540.679688 1092.441406 551 1092 C 546.507813 1098.097656 539.554688 1102 534 1107 C 570.539063 1091.785156 599.683594 1063.003906 631 1040.160156 C 643.90625 1030.742188 659.988281 1028 674 1020.742188 C 683.308594 1016 689.304688 1007.378906 698 1002 C 709.265625 995.019531 730.644531 1004.644531 742 1008.691406 C 746.792969 1010.398438 752.234375 1012.144531 754.683594 1017.015625 C 757.839844 1023.300781 756.617188 1036.308594 752.296875 1042 C 750 1044.773438 745.988281 1045.101563 743.859375 1048.148438 C 739.671875 1054.132813 742.894531 1063 737.441406 1068.46875 C 732.800781 1073.261719 724.910156 1073.804688 719 1076.285156 C 707.394531 1081.152344 696.632813 1087.617188 686 1094.320313 C 667.808594 1105.785156 650.285156 1118.828125 635 1134.003906 C 604 1164.699219 575.3125 1206.328125 529 1213.5625 C 518.378906 1215.21875 507.503906 1213.605469 497 1212.128906 C 484 1210.3125 468.996094 1213.257813 458 1204.609375 C 451.898438 1199.8125 442.898438 1189.015625 442 1181 C 441.242188 1172.09375 447.644531 1163.820313 451 1156 C 458.445313 1138.636719 465 1121 471 1103 C 477.84375 1082.46875 484.722656 1062 493.28125 1042 C 499 1028.671875 506.945313 1016.015625 510.960938 1002 C 516.6875 982.019531 515 959.523438 519.882813 939 C 530.425781 894.574219 556.472656 857.441406 590 827.171875 C 609.914063 809.191406 632.945313 793.136719 658 783.203125 C 674.195313 776.78125 698.640625 773.175781 707.3125 756 C 708.460938 753.726563 712.296875 742.5625 707.867188 741.632813 C 704.898438 741.007813 695.734375 755.300781 693 757.53125 C 679.796875 768.3125 662.84375 772.53125 648 780.320313 C 643.390625 782.738281 635.703125 789 630.226563 785.804688 C 623.785156 782.074219 627.554688 768.585938 629 763 C 617 772.691406 616.453125 792.613281 599 795.671875 C 578 799.351563 566.597656 777.074219 554.828125 764 C 540.980469 748.613281 520.429688 729.292969 498 730.042969 C 490 730.304688 483 734.222656 476 737 L 476 738 C 480.410156 737.808594 493.804688 733.082031 496.824219 737.636719 C 499 741 488.804688 743.714844 487 744.453125 C 474.441406 749.585938 463.675781 758.082031 451 763 C 454.59375 756.785156 472.671875 739.097656 454 745 C 459.285156 735.113281 467.335938 728.675781 474 720 C 431.5625 740.164063 426 815.554688 463 843.761719 C 476 853.753906 488.851563 851.125 504 851 L 504 852 C 495.21875 852.699219 486.863281 855.816406 478 856 L 478 858 C 486.496094 858.007813 506.996094 853.789063 513.785156 858.742188 C 519.292969 862.757813 520.71875 871.785156 522 878 L 523 878 C 523 870.378906 526.566406 850 520.683594 844.515625 C 515.25 839.476563 499.292969 841.605469 492 840.195313 C 471.675781 836.265625 457.566406 821.1875 451 802 C 449.304688 797.035156 445 788.664063 447.601563 783.421875 C 453 772.449219 456.207031 791.398438 456.578125 794 C 457.664063 801.5625 459.332031 808.488281 463.546875 815 C 495.859375 865 557.675781 820.816406 597 808 L 597 809 C 550.179688 837.757813 519.855469 877.789063 505.882813 931 C 493.371094 978.644531 495.628906 1029 470 1073 C 461.488281 1061.757813 459.785156 1045 454.28125 1032 C 452.773438 1028.480469 450.613281 1020.386719 446 1019.632813 C 440.175781 1018.640625 446.640625 1039.25 447.425781 1042 C 450.816406 1054 457.496094 1065.636719 458.824219 1078 C 460.535156 1094 453.953125 1107.355469 449 1122 L 448 1122 C 445.644531 1109.320313 445.449219 1096.636719 442 1084 C 439.460938 1074 433.480469 1064.523438 433 1054 L 429 1057 L 428 1044 C 426.230469 1045.347656 425 1046.121094 423 1047 L 422 1033 C 420 1034.605469 419 1035.78125 418 1038 L 417 1038 C 415.636719 1032.273438 415.253906 1026 415 1020 C 412.964844 1022.265625 411.386719 1024.296875 410 1027 L 409 1027 L 409 1010 C 407 1012 405.53125 1013.792969 404 1016 L 403 1016 L 403 999 C 401 1001 399.53125 1002.792969 398 1005 L 397 1005 L 398 990 C 395 992.617188 393.238281 995.261719 392 999 L 391 999 L 392 982 C 389.207031 984.3125 387.558594 986.726563 386 990 L 385 990 L 388 971 C 385.195313 974.125 383 977.398438 381 981 L 380 981 C 380 973.59375 381.308594 967.496094 385 961 C 380.753906 964.054688 378.371094 968.136719 375 972 C 367.476563 956.628906 370.679688 931.710938 376 916 C 361.449219 920.5625 364.886719 896 365 886 C 365.28125 862.714844 377.890625 842.511719 385 821 C 387.757813 812.648438 392.285156 802 390.773438 793 C 389.234375 784 378.425781 781.039063 374.804688 773 C 368.867188 759.832031 371 738.144531 372 724 C 377.699219 642.160156 448.570313 583.792969 500.960938 529 C 514 515.300781 523.914063 499.222656 536.289063 485 C 539.308594 481.527344 542.609375 478.203125 546 475.09375 C 561.554688 460.816406 575.472656 470.824219 591 479.574219 C 594.855469 481.75 609.726563 486 609.652344 491.054688 C 609.511719 501.058594 589.441406 509.375 582 512.769531 C 555.355469 525 526.582031 541 510 566 M 757 500.6875 C 749.417969 502.601563 743.460938 509.457031 736 512.136719 C 714.199219 520 688.179688 523 671 540.089844 C 663.265625 548 660.777344 559.203125 656.257813 569 C 654.816406 572.132813 652.398438 578.3125 658 578.582031 C 670.941406 579.199219 667.460938 560.472656 669.804688 553 C 671.183594 548.605469 674.480469 545.453125 678 542.667969 C 700.203125 525.109375 737.863281 515.484375 766 518.171875 C 789 520.371094 821.550781 524.574219 838.984375 541.09375 C 848.1875 549.808594 846 560.433594 851.1875 571 C 853 575 857 579 861.851563 577.664063 C 867.308594 576.289063 863 570 861.628906 567 C 856.804688 557.449219 855.453125 547.125 847.90625 539.003906 C 830.367188 520.132813 803.464844 519.726563 781 510.546875 C 773.871094 507.632813 765.269531 498.601563 757 500.6875 M 1064 545 C 1066 536.464844 1072.613281 515.679688 1080 510.757813 C 1086.804688 506.355469 1097.789063 515.5625 1095.355469 523 C 1093.90625 527.410156 1088.761719 529.304688 1085 531.257813 C 1077.527344 535.140625 1071.339844 541 1064 545 M 1246.683594 512.460938 C 1250.882813 513.730469 1250 524.691406 1249.984375 528 C 1249.660156 541.410156 1248.464844 556.171875 1244.25 569 C 1242.765625 573.519531 1239.941406 580.570313 1234 579.292969 C 1224.933594 577.339844 1196.433594 563.019531 1204.230469 551.183594 C 1209.226563 543.601563 1220.46875 544.203125 1226.699219 537.816406 C 1232.476563 532 1234.914063 523.585938 1239.789063 517.015625 C 1241.199219 515.113281 1243.863281 511.609375 1246.683594 512.460938 M 269.433594 513.828125 C 280.265625 511 286 536.40625 291.214844 542 C 296.671875 547.695313 307.941406 547.09375 311.820313 554.105469 C 318 565.492188 290.882813 582 282 584.089844 C 275.9375 585.605469 274.445313 578.539063 274 574 C 272.929688 559.226563 270.261719 544.679688 268.28125 530 C 267.847656 526.78125 264.777344 515.101563 269.433594 513.828125 M 923 516 L 922 517 L 923 516 M 591 519 L 590 520 L 591 519 M 588 520.332031 L 588.332031 520.667969 C 587.839844 520.832031 587.226563 520.332031 588 520.332031 M 586 521 L 585 522 L 586 521 M 937 522 L 936 523 L 937 522 M 1136 536 L 1135 537 L 1136 536 M 1086 580 C 1080.238281 578.160156 1072 573.125 1073.296875 566 C 1073.9375 562.082031 1082.503906 550.171875 1087.394531 552.332031 C 1089.617188 553.3125 1088.480469 557.261719 1088.285156 559 C 1087.496094 566 1086.550781 573.011719 1086 580 M 431 580 C 430.457031 575.703125 426.953125 556.726563 430.78125 554.136719 C 434.984375 551.296875 443 561.570313 443.628906 565 C 444.824219 571.832031 436.410156 578 431 580 M 508 568 C 509.636719 567.453125 509.453125 567.636719 510 566 C 508.6875 566.769531 508.769531 566.6875 508 568 M 779 579 C 780.992188 592.496094 790.964844 602.800781 797.9375 614 C 799.535156 616.566406 803.988281 626.136719 808.257813 622.339844 C 811.96875 619.035156 808.261719 611.488281 806.6875 608 C 801.535156 596.566406 792.269531 581.566406 779 579 M 735.851563 580.796875 C 724.742188 582.730469 715.644531 599.542969 712 609 C 711 611.492188 706.609375 623.363281 712.226563 623.363281 C 715.902344 623.363281 718.515625 618.691406 720 616 C 725.503906 607.074219 730.828125 598.046875 735.984375 589 C 737 587.214844 740.992188 580 735.851563 580.796875 M 697 797 L 697 798 L 821 799 C 815.296875 789.699219 796.765625 789 787 786.652344 C 782.585938 785.652344 776.511719 785.3125 774 781 C 772.523438 778.214844 773.214844 775 772.351563 772 C 771 767.789063 768 764.417969 767.328125 760 C 765.554688 750.066406 768.878906 740 768.996094 730 C 769.363281 699.242188 766.996094 668.667969 767 638 C 767 631.402344 767.289063 625 770.402344 619 C 771.742188 616.421875 776.488281 611.789063 775.261719 608.605469 C 774.472656 606.554688 771.417969 607.496094 769.996094 608.09375 C 766.402344 609.601563 763.175781 614.050781 759 613.6875 C 755.78125 613.40625 748 605.347656 745 608.132813 C 742.726563 610.355469 747.996094 616.179688 749 618 C 754.558594 627.304688 753 638.628906 753 649 C 752.988281 675 750.988281 701 751 727 C 751 745.730469 754.703125 761.0625 746.4375 779 C 744 784 736.71875 784.445313 732 785.628906 C 720.351563 788.539063 707.507813 791.023438 697 797 M 678 608 C 680 634.101563 681 662.191406 675.320313 688 C 672.746094 699.394531 664.6875 708.683594 662 720 C 673.921875 711.597656 680.894531 697 688.695313 685 C 691.503906 680.6875 696.855469 675.546875 696.582031 670 C 696.195313 662.082031 687 659.40625 687.753906 650 C 688.757813 637.011719 694.253906 613.542969 678 608 M 858 722 C 855.925781 710.351563 846.964844 700.59375 843.925781 689 C 842.375 683.089844 843.449219 677 842.714844 671 C 839.9375 648.40625 837.613281 630.621094 842 608 C 825.179688 613.734375 831 636 831.910156 649 C 832.578125 659 822.683594 661.773438 822.441406 670 C 822.277344 675.523438 827.597656 681 830.574219 685 C 839 696.804688 846.710938 712.808594 858 722 M 575 629 C 589 629 603 626.722656 617 630 C 623.765625 631.421875 628.726563 636.671875 635 638.226563 C 639 639.253906 649 637.113281 649.535156 632 C 650.359375 623.800781 636.34375 622.796875 631 622 C 615.945313 619.449219 585.5625 615.007813 575 629 M 945 629 C 936 614.40625 901.984375 619.714844 888 621.730469 C 882.347656 622.542969 870 623.160156 869.546875 631 C 869 636.425781 880 638 884 637.382813 C 889.558594 636.558594 894 631.6875 900 630.617188 C 914.734375 628 930 629 945 629 M 426 725 C 430.863281 719 432.203125 711.066406 438 705.003906 C 451.449219 691.082031 471.554688 681.589844 487 670 C 492.765625 665.535156 498.910156 663 506 661.613281 C 507.585938 661.316406 512.53125 661.355469 512 658.726563 C 511.40625 654.8125 506 654.097656 503 654.015625 C 494.355469 653.785156 487 657.667969 480 662.355469 C 457.964844 677.035156 426.25 695 426 725 M 1092 722 C 1091.925781 694.621094 1060 674.121094 1039 661.605469 C 1033.457031 658.304688 1011.625 647.023438 1007.347656 658 C 1006.402344 660.339844 1010.566406 661 1012 661.195313 C 1018.417969 662.621094 1024.484375 664 1030 667.773438 C 1044.820313 678 1062.835938 689 1076 701.089844 C 1082.246094 707 1085.761719 717.320313 1092 722 M 370 655 C 369.640625 663.25 366 670.5625 362.847656 678 C 361.738281 680.480469 359.886719 685.277344 356.265625 684.246094 C 352.453125 683.164063 353.960938 677.515625 354.933594 675 C 357.820313 667.554688 363.546875 659.640625 370 655 M 581 660 C 582.746094 661 584 661.453125 586 662 L 586 663 C 573.515625 662.015625 553.964844 663.304688 547 676 C 555 674.808594 562.738281 671.359375 571 671 L 571 672 C 563.746094 672.632813 545.441406 676.140625 541 682 C 555.332031 682.296875 570.558594 685.800781 584 690.695313 C 587.800781 692.078125 596.429688 698.078125 600.382813 695 C 605.175781 691.171875 594.367188 680.71875 592 678 L 599 678 C 598.453125 676.125 597.890625 674.746094 597 673 C 599.378906 673.570313 601.558594 674 604 674 C 601.707031 670.113281 598.261719 668.261719 594 667 C 597 666.667969 599.976563 667.136719 603 667 C 605.972656 666.671875 613.449219 663.78125 608.664063 660.140625 C 603 656 586.546875 656.210938 581 660 M 925 666 L 925 667 C 913.167969 671.070313 922.378906 676 930 676 C 927.347656 678.652344 914.921875 688.59375 920.605469 693 C 924.269531 695.769531 933.25 691 937 689.671875 C 950.621094 685.230469 965.636719 682.039063 980 682 L 980 681 C 970.527344 677 959 674.328125 949 672 L 949 671 C 957.386719 672.730469 965.753906 674.675781 974 677 C 967.171875 662.398438 948.761719 661.726563 935 662 L 935 661 C 936.796875 661 936.519531 661 938 660 C 933.476563 656.441406 913.324219 655 910.257813 661.390625 C 907 668.195313 922.378906 666.488281 925 666 M 1150 657 C 1152.71875 661.027344 1155.257813 665.214844 1158.3125 669 C 1161.523438 673 1166.417969 677.335938 1165.726563 683 C 1165.363281 686 1162 691.324219 1158.417969 689.742188 C 1155.84375 688.648438 1155 684.324219 1154.308594 682 C 1151.902344 675.273438 1145.617188 663.699219 1150 657 M 935 662 L 934 663 L 935 662 M 587 663.332031 C 587.773438 663.332031 587 663.832031 586.667969 663.667969 L 587 663.332031 M 590 664.332031 C 590.773438 664.332031 590 664.832031 589.667969 664.667969 L 590 664.332031 M 593 665.332031 C 593.773438 665.332031 593 665.832031 592.667969 665.667969 L 593 665.332031 M 927 665 L 926 666 L 927 665 M 574 670 L 574 671 L 571 671 C 572.25 670.316406 572.546875 670.25 574 670 M 948 670 L 947 671 L 948 670 M 655 737 C 671.691406 728.113281 683.804688 714.566406 695.449219 700 C 697.574219 697.339844 707.859375 687.539063 704.207031 683.710938 C 700.421875 679.742188 692.472656 690.742188 690.585938 693 C 679.402344 706.375 661.320313 720.566406 655 737 M 863 736 C 855.777344 720.414063 839 705.515625 828.335938 692 C 826.613281 690 818.515625 679.417969 815 683.699219 C 811.914063 687.621094 821 696.234375 823 699 C 833.726563 713 845.21875 731 863 736 M 532 686 L 532 688 C 539.914063 689.1875 545.730469 694.246094 553 697 L 553 698 C 549.609375 697.5625 546.3125 697 543 696 C 543.613281 697.660156 544 698.484375 545 700 L 541 699 L 542 701 L 538 700 C 539.8125 704 542 706.1875 546 708 L 546 709 C 542.292969 708.152344 538.820313 707.175781 535 707 C 542.183594 718.757813 562 722.109375 571.5625 733.015625 C 573 735 578.742188 744.019531 581.976563 741.824219 C 585.332031 739.542969 584.921875 725 585 721 C 589.371094 725.792969 596.4375 743.171875 602.9375 744.078125 C 607.304688 744.6875 608.503906 737 608.824219 734 C 610 723.078125 606.191406 714.421875 598 707.183594 C 581.226563 692.371094 553.871094 686.003906 532 686 M 931 723 L 932 723 C 932 730.132813 932.476563 741.6875 939 746 C 942.929688 732.644531 956.601563 724.394531 968 718 C 973.53125 714.675781 980.847656 711.757813 984 706 L 974 708 L 974 707 C 977.417969 705.664063 979.324219 704.277344 981 701 L 973 703 L 973 702 C 975.566406 701.261719 977.671875 700.316406 980 699 L 980 698 C 976.917969 698.414063 973.992188 699.15625 971 700 L 974 696 L 968 697 L 968 696 C 973.800781 694.328125 983.386719 691 987 686 C 966.695313 686 931 693.3125 916.328125 708.324219 C 909.789063 715 903.910156 738.660156 913.277344 745.351563 C 919.816406 750.023438 929.179688 727.808594 931 723 M 967 697 L 966 698 L 967 697 M 554 698 L 553 699 L 554 698 M 439 751 C 446.277344 745.484375 447.761719 728.789063 454.324219 721.003906 C 470.683594 701.609375 495.753906 706 518 706 C 511.980469 701.1875 502.414063 701 495 700 C 485.972656 698.613281 474.851563 697.566406 466 700.210938 C 444.605469 706.601563 439 731.246094 439 751 M 1002 704 L 1002 705 C 1027.445313 705 1053 702.058594 1068.175781 727 C 1072.746094 734.570313 1074.875 743 1078 751 C 1080.675781 744.621094 1077.550781 737.300781 1075.882813 731 C 1073.734375 723 1071.382813 714.511719 1065.675781 708.042969 C 1050.925781 691.328125 1020.625 700.53125 1002 704 M 548 702 L 545 701 C 546.765625 700.597656 546.558594 700.710938 548 702 M 970 700.332031 C 970.773438 700.332031 970 700.832031 969.667969 700.667969 L 970 700.332031 M 543 701 L 542 702 L 543 701 M 974 708 L 973 709 L 974 708 M 547 709 L 546 710 L 547 709 M 972 709 L 971 710 L 972 709 M 549 710 L 548 711 L 549 710 M 611 764 C 617.695313 757 622.382813 737.660156 621.960938 728 C 621.800781 724.421875 620 714.082031 614.3125 715.753906 C 610 717 613.492188 724.441406 614 727 C 616.953125 739.003906 611 752 611 764 M 907 763 C 910.429688 751.28125 902.484375 738.433594 904.804688 726 C 905.21875 723.773438 907.503906 716.546875 903.699219 716 C 898.300781 715.03125 897 724.566406 897 728 C 896.722656 739.308594 900.96875 753.417969 907 763 M 528 735 C 532.886719 744 546.59375 749.796875 553.984375 757.039063 C 559.328125 762.277344 563.402344 770.445313 570 774 C 568.425781 766.386719 565.601563 760 562 753 C 565 756.128906 567.964844 759.117188 572 761 C 562.816406 745 546.339844 735.785156 528 735 M 945 769 C 948.855469 767 951 763.285156 954 760 C 952.71875 763.332031 951.53125 766.460938 951 770 C 959.425781 765.128906 964.65625 756.5625 972 750.300781 C 977.867188 745.296875 985.589844 742.253906 989 735 C 968.492188 740.054688 953.492188 748.605469 945 769 M 1091 738 C 1088.242188 749.585938 1090.71875 762.179688 1089.910156 774 C 1088.4375 795.5 1083.359375 816.785156 1075.945313 837 C 1066.574219 862.558594 1053.90625 886.773438 1039.796875 910 C 1034.515625 918.695313 1024.667969 925.5625 1021 935 C 1016.621094 946.300781 1023.386719 966.527344 1025.804688 978 C 1026.90625 983.242188 1028 988.386719 1033 991 C 1033 974.671875 1031.964844 958 1036.722656 942 C 1042.550781 922.597656 1057.675781 904.28125 1066.753906 886 C 1079.226563 861 1086 833.554688 1090.753906 806 C 1093 792.246094 1092.859375 778.757813 1094.171875 765 C 1094.953125 756.746094 1096.25 745.054688 1091 738 M 465 1012 L 466 1012 C 477.96875 989.523438 483.667969 964.132813 479 939 L 480 939 C 482 948.03125 486.289063 957.574219 485.789063 967 C 484.734375 987 469.683594 1005.554688 465 1025 C 472 1021.699219 475.851563 1014.300781 479.996094 1008 C 491.988281 989.777344 502.703125 959.1875 497.605469 937 C 496 930.695313 490.257813 926.722656 486.324219 922 C 481.808594 916.578125 478.351563 910.101563 474.851563 904 C 459.636719 877.496094 446 849.421875 437.425781 820 C 431.703125 800.4375 428 779.414063 428 759 C 427.996094 756.605469 429.648438 740.207031 427 740.207031 C 423.46875 740.207031 424 753.664063 424 756 C 423.992188 773.324219 425.546875 791 428.414063 808 C 432.566406 832.757813 438.265625 858.277344 449.257813 881 C 456.484375 896 472.367188 913.667969 475 930 C 479.570313 957.089844 465 985 465 1012 M 562 752 L 561 753 L 562 752 M 935 756 L 935 760 L 936 760 L 937 756 L 935 756 M 957 756 L 955 760 L 954 760 C 954.953125 758.230469 955.566406 757.394531 957 756 M 513.605469 763.707031 C 518.964844 761.375 531.65625 774.378906 523.363281 777.425781 C 518 779.347656 508.574219 766 513.605469 763.707031 M 1002.941406 763.660156 C 1010.71875 761.261719 1001.984375 776.191406 997.910156 777.59375 C 995.339844 778.480469 991.441406 776.351563 992.347656 773.269531 C 993.332031 770 999.691406 764.664063 1002.941406 763.660156 M 478 764 C 476.703125 774.035156 474 783 477.222656 793 C 484 814.722656 510 829.265625 531 817.652344 C 545.449219 809.613281 545.601563 795.386719 555 784 C 561.722656 800.039063 542.804688 818.246094 529 823.132813 C 504.515625 831.800781 477.792969 816.089844 472.808594 791 C 471 782.089844 470.273438 770.105469 478 764 M 1043 765 C 1062.570313 799.429688 1018.410156 838.367188 985 821.621094 C 973.742188 816 954.800781 794.46875 964 781 C 967.457031 791.191406 968.441406 800.683594 976.175781 809 C 993.339844 827.347656 1021.644531 824.519531 1035.777344 804 C 1040.558594 797.058594 1043.378906 788.453125 1043.542969 780 C 1043.644531 775 1040.949219 770 1043 765 M 953 796 L 955 808 C 948.710938 805.199219 946 800.039063 953 796 M 562 809 C 562.191406 806.59375 562 799.511719 564.699219 798.347656 C 567.453125 797.117188 568.800781 802.105469 568.289063 804 C 567.472656 806.753906 564.433594 808 562 809 M 728 825.285156 C 740 824 752.855469 825 765 825 C 789.484375 825 817.171875 824.027344 840 834.3125 C 849.921875 838.78125 865.984375 847.476563 870.484375 858 C 873.21875 864.375 862.371094 864.566406 864 871 C 865 875.148438 870 878.601563 874 879.582031 C 880.261719 881.140625 888.519531 876.730469 893.984375 879.222656 C 901.617188 882.699219 921.476563 908 905.996094 912.425781 C 900.613281 914 878.351563 915.617188 875.742188 910 C 871 899.726563 878.933594 889.09375 868.957031 880.328125 C 862.667969 874.808594 854 872.257813 847 868 C 827.953125 856.324219 809.703125 844 787 841.15625 C 761 838.011719 733.917969 837.617188 709 846.695313 C 688.84375 854.035156 668.273438 868.222656 650 879.351563 C 638.324219 886.46875 648.414063 898.085938 644.257813 908 C 641.238281 915.011719 628.3125 914.238281 622 914 C 600.226563 913.007813 606.359375 889.382813 621 880.761719 C 628.488281 876.355469 641.769531 880.550781 648.980469 874.652344 C 658.605469 866.777344 643.222656 863.660156 650.53125 854 C 668 830.734375 701.429688 828.421875 728 825.285156 M 778 862 L 778 863 L 773 867 C 777.503906 866.605469 781.617188 865.015625 786 864 L 786 865 C 781.671875 868 776.65625 870.289063 773 874 L 787 870 L 787 871 C 783.914063 873.109375 781.285156 875.035156 779 878 C 799.371094 872.726563 823.441406 866.414063 836.730469 888 C 840.179688 893.601563 841.660156 899.800781 843.59375 906 C 845.492188 912.101563 854.328125 920.644531 849.640625 927 C 841.851563 937.441406 812.691406 943 807.652344 927 C 804.699219 917.640625 814.769531 911 812.550781 902.003906 C 811 896.371094 804.453125 893.1875 799 894 C 778.769531 896.332031 779.609375 928.5625 782 943 C 782.753906 947.421875 786.625 952.363281 785.640625 957 C 784.167969 963.644531 771.914063 961.207031 768.511719 957.582031 C 763.71875 952.46875 765.390625 943.34375 764.195313 937 C 762.851563 930 761.253906 923 759 916 L 758 916 C 754.722656 927.65625 756.320313 942.566406 749.519531 953 C 743.894531 961.464844 732.4375 959.402344 725 965.394531 C 708.570313 978.671875 741.335938 988.441406 750 993 L 750 994 C 742 992.105469 734.910156 987.660156 727 985.429688 C 722.339844 984.113281 716.277344 984.304688 712.390625 981.121094 C 706.234375 976.078125 704.257813 968.222656 697 963.550781 C 689.800781 959 676.371094 958.679688 672 951 C 687.402344 952.257813 711.675781 962 725.984375 953 C 741.933594 943.128906 738.429688 901.136719 721 894.5625 C 714.640625 892.164063 703.617188 895.339844 704.863281 904 C 705.839844 910.804688 722 931.59375 703 930.785156 C 700.992188 930.699219 698.949219 930.222656 697 929.765625 C 694 929.0625 690.722656 928.242188 688 926.722656 C 674.832031 919.21875 678.605469 893 688 884.214844 C 697.871094 875.222656 717.800781 875.09375 730 878 C 725.476563 874.351563 720.46875 872.78125 715 871 L 715 870 C 723.679688 870.683594 732.308594 872.628906 741 873 L 741 872 L 726 868 L 726 867 L 745 869 C 728.871094 858.023438 701.667969 872 688 882.527344 C 684.804688 885.003906 676.460938 899 672.292969 897.539063 C 668.453125 896.257813 671.785156 889.160156 672.796875 887 C 676.835938 878.371094 684.480469 872.691406 693 869 C 712.550781 860.082031 731.613281 864.488281 752 865 C 760.914063 865.203125 769.210938 862.699219 778 862 M 788 863 L 787 864 L 788 863 M 678 869 C 672.359375 877.101563 660.644531 885.53125 659.496094 896 C 658.984375 900.714844 669.691406 910.613281 664.640625 914 C 655.699219 920 650.40625 898.339844 651.214844 893 C 653 881 667.929688 873.191406 678 869 M 844 875 C 850 877.535156 866 885.34375 867.679688 892.015625 C 868.867188 897 862.566406 913.511719 855.605469 910.339844 C 852.433594 909 855.835938 901.542969 855.722656 899 C 855.335938 890.316406 847.261719 882.789063 844 875 M 1265 875 L 1266 876 L 1265 875 M 239 891 C 240.3125 892.617188 240.878906 892.691406 243 893 C 241.457031 891.734375 240.953125 891.511719 239 891 M 834 964 C 853.730469 964 880.945313 964.589844 897.984375 976.800781 C 908.820313 984.566406 911.832031 999.179688 920.300781 1009 C 931.664063 1022.171875 950 1031.324219 965 1040 L 965 1041 C 963.242188 1041.277344 955.480469 1043 957.921875 1046.234375 C 960.308594 1049.511719 967.699219 1044.027344 971 1044.523438 C 977.386719 1045.488281 982.425781 1053 985.53125 1058 C 988 1062.003906 998 1083.605469 989.773438 1085.640625 C 980.234375 1088.003906 963.867188 1075.46875 956 1071 C 926.6875 1054.351563 901.617188 1030.105469 871 1016.304688 C 862.957031 1012.679688 853.820313 1007.691406 845 1006.484375 C 837.984375 1005.523438 834.699219 1013.085938 828.898438 1006 C 815.421875 989.386719 824.699219 978.746094 830 962 C 818.1875 966.527344 809.441406 975.0625 798 980 C 803.332031 972.339844 809.980469 959 818 954.089844 C 826.191406 949.191406 836.8125 951.273438 845 946.03125 C 851.867188 941.632813 856.390625 934.367188 863 929.636719 C 872.851563 922.585938 887.328125 922.003906 899 923.171875 C 914.421875 924.714844 926.171875 937.617188 942 939 C 932.191406 929.636719 923.40625 924.242188 918.203125 911 C 917.417969 909 913.265625 900.011719 916.617188 898.816406 C 921.203125 897.179688 929.863281 905.042969 933 907.617188 C 947.863281 919.816406 957.855469 938.796875 963.277344 957 C 964.714844 961.816406 969.363281 976.039063 964.398438 980 C 957.867188 985.144531 940 977 933 975.609375 C 915.335938 972.28125 897.234375 972 880 966.253906 C 872.277344 963.753906 861.601563 954 854 954 C 849 954 837.699219 960.671875 834 964 M 602 899 C 600.695313 908 597 919.230469 590.785156 926 C 586.296875 930.691406 579.988281 932.625 576 938 C 590 936.769531 602.363281 923.289063 616 923.597656 C 634.382813 924.011719 643.390625 925 658 936.738281 C 662 940.027344 670.316406 944.722656 666.382813 951 C 651.953125 974 616.441406 966.507813 595 972.152344 C 583.492188 975.183594 569 982.722656 557 981.605469 C 544.378906 980.4375 552.777344 959.257813 555 952 C 561.515625 931.03125 577.980469 902.613281 602 899 M 477 932 L 476 933 L 477 932 M 478 934 L 477 935 L 478 934 M 478.667969 936.667969 C 478.722656 936.722656 478.777344 937.777344 478.332031 937.332031 C 478.277344 937.277344 478.222656 936.222656 478.667969 936.667969 M 871 947 C 874.394531 946.34375 890.410156 945.359375 891.652344 942.414063 C 893 939 886 937.335938 884 937.359375 C 877.878906 937.425781 872.90625 941.441406 871 947 M 647 947 C 645.402344 941.363281 640.851563 938.304688 635 938.046875 C 632.8125 938 626.226563 938.035156 626.921875 941.789063 C 627.515625 945.007813 643.742188 946.15625 647 947 M 933.335938 950 C 928.320313 952 944.734375 967.488281 950.382813 964.378906 C 952.804688 963.042969 950.703125 959.535156 949.566406 958.09375 C 946.808594 954.597656 938.261719 947.75 933.335938 950 M 589 950 C 581.535156 950.019531 575.441406 951.457031 570 957.042969 C 568.699219 958.457031 565.929688 961.167969 567.175781 963.390625 C 571 970.3125 587 952.828125 589 950 M 551 1042 C 563.578125 1026.777344 586.339844 1022.1875 599.710938 1007 C 607.433594 998.222656 611.59375 986.253906 620.175781 978.328125 C 628.859375 970.308594 650.359375 965.566406 662 965.039063 C 675.539063 964.425781 703.421875 971 697.402344 989 C 692.171875 1004.730469 669.683594 1008.21875 656 1013.425781 C 622 1026.304688 597.585938 1052.054688 566 1069.230469 C 556.808594 1074.230469 547.691406 1079.148438 538 1083.140625 C 534.566406 1084.554688 529 1087.160156 525.316406 1085.394531 C 519.796875 1082.765625 524.511719 1071 526 1067 C 529.351563 1059.0625 536.253906 1048 545 1045.238281 C 549.195313 1044 558.21875 1050.1875 560.941406 1046 C 563.613281 1041.597656 552.777344 1042 551 1042 M 594 976.300781 C 615.570313 973.113281 601.9375 992 593.824219 1001 C 575.378906 1021.636719 546 1029 529.785156 1052 C 522.683594 1062.082031 521.992188 1071.28125 520.941406 1083 C 520.675781 1086 519.351563 1088.542969 516 1088.542969 C 509.179688 1088.542969 510.421875 1080.367188 510.828125 1076 C 511.992188 1063.59375 512 1052 516.4375 1040 C 525.765625 1014.324219 543.535156 1006.28125 565 992.304688 C 574 986.414063 582.917969 978 594 976.300781 M 921 979.34375 C 937.332031 976 947.804688 986.1875 960 994.296875 C 965.167969 997.734375 971.851563 997.417969 977 1000.726563 C 989.652344 1009 996.167969 1027.207031 1000 1041 C 1003.335938 1052.105469 1005.984375 1063.382813 1006 1075 C 1006 1078.777344 1006.855469 1085.652344 1001.949219 1087 C 998.636719 1087.703125 998 1084.414063 998 1082 C 997.445313 1072.015625 995.445313 1062.484375 989.898438 1054 C 974.5625 1030.542969 946.398438 1022.058594 927.171875 1002.828125 C 922.695313 998.355469 907.753906 982.113281 921 979.34375 M 666.65625 983.042969 C 664 985.207031 668.179688 988.445313 670.578125 987 C 673.785156 985 669.246094 981 666.65625 983.042969 M 848.621094 983.03125 C 845.507813 985.3125 849.976563 988.660156 852.628906 987 C 856 984.734375 851.316406 981.058594 848.621094 983.03125 M 650 988.746094 C 642.820313 991.550781 644.511719 1003.53125 652.957031 1000.253906 C 660.179688 997.449219 658.488281 985.46875 650 988.746094 M 862 989.03125 C 854.816406 993.324219 865.417969 1004.226563 871.5625 1000 C 877.859375 995.613281 868.238281 985.46875 862 989.03125 M 571 996.777344 C 564.695313 999.285156 573.722656 1004.1875 577.832031 1002.398438 C 583.761719 999.824219 574.671875 995.414063 571 996.777344 M 944 996.589844 C 936.542969 997.496094 939.675781 1004.398438 945.980469 1003.371094 C 952.929688 1002.242188 949.890625 996 944 996.589844 M 631.941406 1003 C 624.28125 1003.457031 614 1021.566406 625 1021.121094 C 633.179688 1020.792969 640.503906 1002.425781 631.941406 1003 M 884.433594 1003.070313 C 876.683594 1007.792969 888.375 1026.011719 896.71875 1020.816406 C 904.71875 1016 891.46875 998.785156 884.433594 1003.070313 M 613.945313 1012.058594 C 610.675781 1012.605469 608.660156 1019.078125 613 1018.535156 C 616.894531 1018.066406 618.445313 1011.3125 613.945313 1012.058594 M 703 1011 L 703 1014 L 706 1014 L 706 1011 L 703 1011 M 812 1011 C 812.898438 1013.125 812.875 1013.101563 815 1014 C 813.898438 1012.542969 813.457031 1012.101563 812 1011 M 903.328125 1012.175781 C 899.355469 1012.789063 903.539063 1019 906.691406 1018.535156 C 910.78125 1018 906.457031 1011.691406 903.328125 1012.175781 M 683.945313 1029.007813 C 678.238281 1029.089844 675.414063 1039.703125 682 1039.703125 C 687.847656 1039.703125 690.382813 1029 683.945313 1029.007813 M 813 1030.175781 C 809.5 1030.742188 811.191406 1036.335938 814.570313 1035.25 C 817.441406 1034.324219 815.964844 1029.730469 813 1030.175781 M 832 1030.070313 C 826.605469 1033.0625 832.847656 1041.8125 837.851563 1039.757813 C 844.1875 1037.15625 837.84375 1027.015625 832 1030.070313 M 703.601563 1031.082031 C 701 1033 703.917969 1036.714844 706.398438 1035 C 708.867188 1033.128906 706 1029.285156 703.601563 1031.082031 M 579 1033.722656 C 568 1037.054688 569.890625 1052.078125 562.609375 1058.644531 C 558.410156 1062.429688 552.449219 1058.3125 548.871094 1064.058594 C 546.445313 1068 548.503906 1071.300781 553 1070.765625 C 563.183594 1069.566406 577.691406 1052.035156 583.195313 1044 C 586 1039.820313 586.492188 1031.421875 579 1033.722656 M 936.230469 1033.785156 C 930.667969 1036 935 1043.089844 937.300781 1046 C 943.308594 1054 950.851563 1062.507813 959 1068.199219 C 961.632813 1070.039063 966.335938 1073 969.550781 1070.78125 C 972.699219 1068.753906 970.855469 1064.335938 968.722656 1062.320313 C 964.792969 1058.609375 959.347656 1062.175781 955.390625 1058.5625 C 950 1053.695313 947.511719 1029.351563 936.230469 1033.785156 M 641 1040.800781 C 635.917969 1042.558594 635.351563 1052.421875 641.960938 1050.339844 C 647.285156 1048.65625 647.621094 1038.582031 641 1040.800781 M 875 1041 C 869.273438 1042.375 873.738281 1051.445313 878.867188 1050.574219 C 884.816406 1049.5625 880.460938 1039.699219 875 1041 M 696.183594 1045 C 692.484375 1046.007813 692.390625 1053.492188 696.925781 1052.246094 C 700.984375 1051.132813 700.894531 1043.46875 696.183594 1045 M 820.304688 1045.085938 C 816.488281 1047.300781 819.359375 1054.496094 823.570313 1052.59375 C 827.746094 1050.703125 824.722656 1042.523438 820.304688 1045.085938 M 663.996094 1046.59375 C 656.359375 1047.804688 649 1060.738281 661 1058.765625 C 667.421875 1057.710938 673.558594 1045.070313 663.996094 1046.59375 M 851.316406 1047.066406 C 843 1052.0625 857.6875 1063 864.523438 1057.820313 C 870.363281 1053.425781 856 1044.171875 851.316406 1047.066406 M 629 1049 L 628 1050 C 629.222656 1051.195313 629.421875 1051.316406 631 1052 C 630.316406 1050.421875 630.195313 1050.222656 629 1049 M 887.5 1050.5 C 886.871094 1051.128906 887.871094 1052.128906 888.5 1051.5 C 889 1051 888 1050 887.5 1050.5 M 715 1054 C 714 1055.480469 714 1055.203125 714 1057 C 715.289063 1055.558594 715.402344 1055.765625 715 1054 M 801 1054 L 801 1055 L 805 1056 C 803.457031 1054.734375 802.953125 1054.511719 801 1054 M 835.214844 1062 C 830.761719 1063.214844 833.488281 1070.003906 837.695313 1068.339844 C 841.433594 1067 839 1060.761719 835.214844 1062 M 680.449219 1063.046875 C 676.804688 1065.539063 681 1071.042969 684.394531 1068.199219 C 687.496094 1065.511719 683.894531 1060.6875 680.449219 1063.046875 M 624.996094 1067.347656 C 621.238281 1068.539063 618 1078.777344 624 1077.246094 C 628.363281 1076.125 630 1065.742188 624.996094 1067.347656 M 890.605469 1068.085938 C 886.285156 1071 893 1080.34375 897.214844 1077 C 900.765625 1074.050781 894.503906 1065.457031 890.605469 1068.085938 M 764.945313 1070 C 770.40625 1069.199219 768.742188 1077.03125 764 1077.753906 C 756.960938 1078.824219 760.171875 1070.550781 764.945313 1070 M 707 1075 C 708.921875 1074.097656 709 1074 710 1072 C 707.875 1073 707.898438 1073 707 1075 M 808 1072 L 810 1076 C 810.558594 1073.691406 809.996094 1073.242188 808 1072 M 655.984375 1079 C 649.429688 1080.691406 642.363281 1097.539063 653 1095.507813 C 660.886719 1094.003906 665.460938 1076.191406 655.984375 1079 M 859.230469 1079.070313 C 851.289063 1083.390625 862 1099.652344 869.757813 1095 C 877 1090.488281 866.363281 1075.191406 859.230469 1079.070313 M 784 1093 C 777.546875 1099.074219 764.1875 1097.542969 756 1096.425781 C 753.886719 1096.136719 747.207031 1096.3125 747.207031 1093 C 747.207031 1089.757813 753.824219 1089.289063 756 1089 C 765.683594 1087.285156 775.355469 1088.085938 784 1093 M 631 1094 C 624.773438 1095.296875 618.902344 1112.289063 628 1110.507813 C 635.890625 1109 640.648438 1092 631 1094 M 886 1094 C 876.296875 1096.054688 884.878906 1113.078125 892.890625 1111.042969 C 901 1109 893.171875 1092.445313 886 1094 M 826 1141 C 830.503906 1146 837.179688 1147.460938 841.90625 1152.105469 C 850 1160.195313 852.601563 1173 854 1184 L 855 1184 C 854.957031 1168.546875 845.964844 1155.21875 844 1140 C 852.34375 1144.535156 853.882813 1154.132813 857.90625 1162 C 860.289063 1166.644531 865.183594 1169.21875 867.347656 1174 C 872 1184.339844 868.34375 1199.148438 864 1209 C 861.804688 1214.425781 857.398438 1226.53125 850.976563 1228.109375 C 839.242188 1231 840.707031 1202.804688 833.722656 1200.421875 C 829 1198.816406 822.925781 1207 819 1208.695313 C 810.710938 1212.515625 800.488281 1211 792 1211.621094 C 786.828125 1212.097656 783 1216 778.1875 1211.683594 C 769.894531 1204.519531 770 1189.75 766.972656 1180 C 765.53125 1175.476563 763.242188 1169.304688 757.996094 1168.105469 C 752.582031 1167 749.40625 1172.722656 748.171875 1177 C 745.628906 1185.808594 750.515625 1202.410156 740.945313 1208 C 729.519531 1214.3125 705.902344 1213.28125 694 1209 C 689 1207.128906 680.832031 1197.257813 676 1198.460938 C 668.949219 1200.285156 672.699219 1214.316406 673.660156 1219 C 674 1221.28125 675.683594 1226.203125 671.847656 1226.402344 C 668 1226.601563 664.394531 1222.398438 662 1220 C 653.246094 1211 650 1199.152344 648.835938 1187 C 648.410156 1183.058594 646.292969 1175.523438 650.429688 1172.753906 C 657.492188 1168.015625 659.96875 1191.375 660 1195 L 662 1195 C 661.992188 1185 660 1175.703125 664 1166 C 671.421875 1148.164063 697.472656 1139 714 1132 C 703.617188 1146.425781 682.644531 1149 672 1164 C 686 1152.777344 703.941406 1146.570313 716.960938 1134 C 722.226563 1128.789063 727.398438 1119.328125 736 1120.371094 C 742.949219 1121.214844 748.742188 1127.003906 751.675781 1133 C 753.355469 1136.433594 755 1143.515625 760 1143.515625 C 766 1143.515625 766.507813 1135 769 1131.226563 C 771.738281 1127.46875 784.445313 1120.320313 789 1120 C 796.757813 1119.082031 801.773438 1129 805.925781 1134 C 816.914063 1147.324219 831.765625 1157.757813 844 1170 C 846 1153.609375 815.558594 1148.234375 810 1134 C 809 1131.011719 807.3125 1114.804688 813.71875 1116 C 816.546875 1116.414063 818.253906 1122 819.789063 1124 C 824.210938 1129.828125 833.695313 1131 837.246094 1137.046875 C 840.316406 1142.300781 828.507813 1141 826 1141 M 707 1118 C 706.375 1132.328125 695.53125 1139 682 1139 L 682 1138 C 691.703125 1132.597656 698.289063 1124.410156 707 1118 M 607.203125 1123.175781 C 602.527344 1125.226563 601.269531 1139.53125 607.910156 1136.824219 C 613 1134.71875 613.335938 1120.488281 607.203125 1123.175781 M 908.265625 1123.136719 C 902.496094 1126.117188 907.472656 1140.410156 913.566406 1137 C 918.617188 1134.015625 914 1120.128906 908.265625 1123.136719 M 448 1123 L 447 1124 L 448 1123 M 730 1137 C 729.171875 1138.019531 731 1139.320313 731.882813 1138.316406 C 732.832031 1137.238281 730.996094 1136 730 1137 M 788 1137.027344 C 786.921875 1138.363281 789.792969 1140.089844 790.675781 1138.488281 C 791.433594 1137.105469 789 1136.027344 788 1137.027344 M 810 1145 C 803.21875 1146.808594 810.273438 1158.824219 815.945313 1158 C 823.890625 1156.519531 816.648438 1143.214844 810 1145 M 705.996094 1145.746094 C 700.609375 1147.753906 695 1161 704 1158.199219 C 709.804688 1156.382813 715.65625 1142.148438 705.996094 1145.746094 M 773.1875 1151 C 769.488281 1152 771.1875 1157.261719 774.777344 1156.25 C 778.347656 1155.242188 776.71875 1150.015625 773.1875 1151 M 720.5625 1152.160156 C 718.550781 1153.425781 720.28125 1157.039063 722.4375 1155.746094 C 724.480469 1154.523438 722.742188 1150.792969 720.5625 1152.160156 M 742.796875 1152.042969 C 740.347656 1154.136719 744 1157.574219 746.382813 1156 C 749.296875 1154 745.339844 1150 742.796875 1152.042969 M 796.640625 1152.15625 C 794.429688 1153.511719 797.417969 1156.515625 799.269531 1155 C 801 1153.449219 798.292969 1151.144531 796.640625 1152.15625 M 692 1158 C 687.960938 1160.359375 683.609375 1162.273438 680 1165.328125 C 675.980469 1168.757813 667.285156 1188.363281 678.984375 1188.363281 C 681.46875 1188.363281 682.511719 1186.078125 682.851563 1184 C 683.402344 1180.597656 682.578125 1177.207031 684.179688 1174 C 686.875 1168.601563 694.632813 1164.832031 692 1158 M 825 1158 C 825 1165.152344 829.738281 1168.542969 831.257813 1175 C 832 1178.429688 830 1181.585938 830.402344 1185 C 830.566406 1187.058594 831.703125 1189.363281 834 1189.363281 C 840 1189.363281 842.429688 1179.496094 841.78125 1175 C 840.613281 1167 831.804688 1161.234375 825 1158 M 724.601563 1170.175781 C 721.261719 1172.097656 724.882813 1179.414063 728.40625 1177 C 731.433594 1174.765625 727.921875 1168.269531 724.601563 1170.175781 M 793 1170 C 790 1171 788.925781 1178.515625 792.925781 1177.246094 C 796 1176.234375 797.519531 1168.453125 793 1170 M 694 1180.136719 C 684.492188 1184.59375 700.859375 1198.351563 706.183594 1194.648438 C 709.679688 1192.214844 699.589844 1177.625 694 1180.136719 M 816 1182.027344 C 811 1184.59375 807.609375 1196.519531 816 1192.40625 C 822.730469 1189.113281 825.789063 1177 816 1182.027344 M 855 1184 C 854.597656 1186 854.597656 1186.054688 855 1188 L 856 1188 C 855.824219 1186.316406 855.683594 1185.507813 855 1184 M 887 1184 C 894.324219 1191.679688 899.792969 1201.039063 898.90625 1212 C 898.648438 1215.191406 896.761719 1223.558594 892 1223 C 888.769531 1222.53125 888.300781 1216.515625 887.804688 1214 C 886 1205.441406 883.53125 1192.269531 887 1184 M 793 1204 C 799.800781 1203 803.613281 1200.089844 804 1193 C 799 1195.3125 795.507813 1199.167969 793 1204 M 716 1194 C 720 1207.613281 729.296875 1198.523438 716 1194 M 848 1221 C 850.980469 1218 858.535156 1198.617188 851.699219 1196.460938 C 848.609375 1195.488281 846.523438 1199.742188 845.804688 1202.003906 C 843.8125 1208.261719 845 1215.339844 848 1221 M 628 1229 C 620.683594 1224.757813 605.183594 1200.789063 623 1198.582031 C 631.523438 1197.527344 630.179688 1212.011719 629.960938 1217 C 629.78125 1221.058594 628.769531 1225.023438 628 1229 M 596 1209 C 576.316406 1240.449219 517.714844 1243.769531 487 1231 L 487 1230 C 494.464844 1230.152344 501.554688 1232.800781 509 1233 C 542.480469 1233.808594 568.359375 1228 596 1209 M 1032 1231 L 1032 1232 C 1013.730469 1242.386719 970.3125 1247 955 1229 C 964.65625 1230 973.242188 1235.519531 983 1236 C 999.640625 1236.714844 1015.496094 1231.339844 1032 1231 M 514 1258 L 515 1261 C 512.3125 1261.5 509.730469 1262 507 1262 C 507 1260.203125 507 1260.480469 508 1259 C 495.511719 1259 489.691406 1247.300781 488 1236 C 502.527344 1238.175781 516 1245.335938 531 1247.15625 C 535 1247.648438 542.773438 1248 544.863281 1252.210938 C 546.9375 1256.480469 540.992188 1258.652344 538 1259.558594 C 529.679688 1262.078125 521.171875 1263.726563 514 1258 M 794 1254 L 794 1255 C 771.300781 1252.132813 747.886719 1253 725 1253 C 729.589844 1251.074219 735 1252.292969 740 1251.714844 C 757.671875 1249.628906 776.800781 1248.546875 794 1254 M 521 1258 L 525 1259 C 523.613281 1257.023438 523 1257 521 1258 M 530 1256 C 530.480469 1258.363281 530.636719 1258.519531 533 1259 C 532 1257 532 1257 530 1256 M 509 1259 L 509 1260 L 513 1259 C 511.191406 1258.425781 510.929688 1258.535156 509 1259 M 812.5 1320.5 C 811.871094 1321.128906 812.871094 1322.128906 813.5 1321.5 C 814 1321 813 1320 812.5 1320.5 "/>
</g>
</svg>
