<?xml version="1.0" encoding="UTF-8"?>
<svg xmlns="http://www.w3.org/2000/svg" xmlns:xlink="http://www.w3.org/1999/xlink" width="1500pt" height="1500pt" viewBox="0 0 1500 1500" version="1.1">
<g id="surface1">
<path style=" stroke:none;fill-rule:nonzero;fill:rgb(0%,0%,0%);fill-opacity:1;" d="M 429 249 C 464.25 248.273438 499 236 533 228 L 533 229 C 517.203125 235.644531 502 244.375 486 251 C 451.375 265.277344 415.585938 276.421875 380 288 L 380 289 C 405.171875 289 428.863281 277.015625 454 277 L 454 278 C 436.972656 278.742188 419.480469 287.007813 403 291.128906 C 387.566406 295 370.894531 295.300781 356 301 L 356 302 C 384 302 411.941406 300 440 300 L 440 301 C 425.652344 301.011719 410.871094 304.660156 397 308.128906 C 346 321 281.757813 352.238281 277 412 L 278 412 C 299.617188 366.375 340.972656 343.359375 386 325.199219 C 401.328125 319.019531 418.183594 310.347656 435 310 L 435 311 C 419.804688 313.277344 405.65625 324 392 330.515625 C 347.878906 351.566406 291.195313 379.402344 290 437 L 291 437 C 297.359375 426.113281 303.203125 415.195313 312 406 C 295.25 492.371094 218.957031 540.085938 169 606 C 150.800781 630.246094 126.472656 675 150 704 C 151 694 151.511719 684.730469 155.453125 675 C 159.417969 665.214844 166.363281 657.320313 171 648 L 172 648 C 167.738281 658.238281 161.382813 667.695313 160.175781 679 C 156.722656 711.199219 171.675781 742.328125 166.5625 775 C 160.792969 811.832031 133 838 118.871094 871 C 115 879.660156 111.421875 890.429688 112 900 C 113 915 122.199219 902.503906 124 895 L 125 895 C 121.757813 908.652344 109.503906 914.199219 104 926 C 119.171875 928 137 927.011719 147.609375 914 C 156.511719 903 154.921875 889.105469 156.171875 876 C 157.609375 861 161.363281 846.785156 167.890625 833 C 176.796875 814.179688 193.191406 799.199219 208 785.039063 C 222.226563 771.433594 234 761.152344 235 740 L 236 740 C 236.695313 756.167969 240 771.816406 237.714844 788 C 235.632813 802.664063 228.605469 816.175781 227.171875 831 C 225.59375 847.273438 228 863.746094 228 880 L 227 880 C 225 866.761719 219 854.621094 218 841 C 217 827.023438 221.214844 814.519531 223.738281 801 C 225.40625 792.070313 225.339844 783 227 774 C 219 777.714844 215.226563 786.429688 209.90625 793 C 203.28125 801.179688 195 809.101563 191 819 C 181.445313 842.675781 194.503906 868 195 892 L 194 892 C 192 870.589844 178.765625 850.769531 176 829 C 169.410156 834 169.457031 846.550781 168.910156 854 C 167.550781 872.582031 169.753906 893.6875 158.894531 910 C 146.332031 929 121.484375 939 102 948.757813 C 93 953.265625 79.453125 957.53125 75 967 C 91.503906 963.585938 106.667969 955.777344 123 952 L 123 953 C 105.582031 958.015625 83.203125 976.449219 80 995 C 87.6875 993.628906 93.949219 988.515625 101 985.425781 C 114.679688 979.425781 128.84375 974.402344 143 969.667969 C 148.40625 968 161.871094 960.347656 165.59375 968.132813 C 169.808594 977 156.34375 988.046875 150.996094 993.089844 C 138 1005.199219 125.664063 1018 113.828125 1031 C 108 1037.328125 100.679688 1042.609375 98 1051 C 107.726563 1045.824219 115.378906 1038.15625 124 1031.425781 C 138.894531 1019.796875 154.289063 1008.535156 166.5625 994 C 171.320313 988.363281 175.886719 982.574219 180.730469 977.003906 C 182 975.488281 184.867188 971.132813 187.398438 972.207031 C 189.808594 973.226563 188.851563 978.113281 188.5625 980 C 187.324219 988.027344 184.40625 995.605469 181 1003 C 167.753906 1033.269531 144.625 1058.675781 132 1089 C 146.910156 1086.113281 158.570313 1067.601563 170 1058.464844 C 188.917969 1043.339844 216.40625 1040.585938 229.351563 1017 C 239.191406 999.070313 234 976.351563 238 957 C 245.847656 918.589844 277 884 313 869 C 304.660156 876.113281 295 881.59375 287 889.089844 C 270 904.808594 257.683594 926 251.429688 948 C 244.230469 973.511719 251.308594 1002.035156 237.960938 1026 C 219.433594 1059.257813 182.628906 1075.734375 148 1087 L 148 1088 C 176.25 1088 202.191406 1078.679688 226 1064 C 201.414063 1088.585938 177.976563 1115.324219 167 1149 C 176.433594 1144.589844 181.621094 1132.660156 188.289063 1125 C 201.21875 1110.136719 215.578125 1096.277344 231 1084.003906 C 235.675781 1080.285156 249.292969 1067.394531 255.683594 1069 C 261.324219 1070.1875 257 1091.042969 256 1095 C 253.523438 1106.394531 247.738281 1116.679688 244.894531 1128 C 240.546875 1145.316406 240 1163.25 240 1181 C 246.800781 1175.664063 248.621094 1166.515625 252.257813 1159 C 261.261719 1140.394531 274.558594 1119.257813 275 1098 L 276 1098 C 276.230469 1109.121094 280.804688 1120 280.546875 1131 C 280.320313 1140.738281 276.394531 1149.527344 275 1159 C 287 1149 283.558594 1128.09375 291 1115 C 294.714844 1130.421875 293.632813 1149.019531 285.535156 1163 C 281.828125 1169.398438 276.203125 1174.03125 272 1180 C 291.523438 1178.242188 295.832031 1152.765625 296.910156 1137 C 297.226563 1132.410156 295 1121.007813 299.632813 1118 C 302.175781 1116.183594 303.992188 1121.421875 304.480469 1123 C 306.351563 1129.058594 307.429688 1136.6875 306.828125 1143 C 304.957031 1162.6875 292.328125 1169.082031 281 1183 C 288.351563 1181 294.609375 1175.457031 302 1173.65625 C 305.96875 1172.6875 310 1177 313.214844 1173.664063 C 335.90625 1149.832031 294.957031 1107.824219 323 1087 C 316.933594 1112.675781 335.597656 1137.460938 325.933594 1163 C 320.6875 1177 310.878906 1187.308594 299 1196 C 293.933594 1199.488281 285.632813 1202.046875 282 1207 C 291.402344 1205.175781 299.828125 1202.253906 308 1197.1875 C 318.550781 1190.644531 338 1176.515625 341.566406 1164 C 344.308594 1154 338.574219 1140.574219 335.859375 1131 C 330.703125 1112.816406 326.320313 1095.089844 328.171875 1076 C 331.335938 1043.320313 349.289063 1012 366.996094 985 C 373.765625 974.730469 379.429688 964 388 955 C 370.511719 992 348.59375 1023.351563 342.425781 1065 C 336.453125 1105.351563 361.554688 1143.339844 343.6875 1183 C 338.332031 1195 330.730469 1205.136719 321 1213.824219 C 315.859375 1218.414063 309.390625 1221.6875 305 1227 C 313 1226 320.535156 1223.613281 328 1220.421875 C 335.660156 1217.144531 345.621094 1214.121094 351.960938 1208.671875 C 374.722656 1189.09375 370 1157.257813 368 1131 C 395.480469 1150.519531 384 1189.4375 362 1207.671875 C 353.8125 1214.425781 340.464844 1215.816406 334 1224 C 358.566406 1219.371094 389.214844 1219.609375 398.640625 1191 C 404.234375 1174.027344 399 1154.265625 406 1138 C 415.394531 1158.214844 419.527344 1185.285156 401.90625 1203 C 395.488281 1209.324219 383.8125 1211.5 379 1219 C 390.96875 1217.488281 403.441406 1218.394531 415 1214.300781 C 457.367188 1199.292969 443.683594 1155.292969 437 1123 C 460.609375 1143.625 475 1173.28125 452.53125 1201 C 444.644531 1210.707031 429.421875 1217 424 1228 C 460 1217.832031 501.765625 1199.722656 505.828125 1157 C 506.691406 1148 502.796875 1139.671875 501 1131 C 525.699219 1146.449219 546.605469 1182.613281 514 1201.535156 C 506.394531 1206 497.5625 1207.625 489 1209.082031 C 484.390625 1210 477.964844 1210.085938 475 1214 C 501.75 1207.632813 531.558594 1218.511719 553.558594 1195.710938 C 577.339844 1171.070313 562 1132.753906 567.328125 1103 C 568.71875 1095.078125 574.386719 1088.195313 577.691406 1081 C 583.667969 1068 588.726563 1054.671875 592.972656 1041 C 602 1012 598.527344 985 590.882813 956 C 585.601563 936 579.898438 919 565 904 C 601.347656 914.464844 630.992188 940.054688 670 943.828125 C 683.382813 945.125 698.699219 944.578125 711 938.671875 C 715.921875 936.308594 723.78125 925 729.285156 926.671875 C 735 928.582031 739.382813 935 744 938.480469 C 761.257813 952.074219 788.644531 980 813 972.480469 C 830 967.238281 826.804688 942.554688 841 933.109375 C 852 925.777344 872 928.074219 871 945 C 878.367188 943.308594 886.78125 938 888 930 C 892.609375 933.238281 893.519531 935.679688 895 941 L 894 941 C 893 939.074219 892.921875 939 891 938 C 891 953.085938 892.78125 978.144531 910 984 C 906.320313 969.777344 907.550781 954.214844 918.300781 943.183594 C 922.230469 939.148438 930.359375 933.273438 935.890625 937.472656 C 941.574219 941.785156 941.660156 950.792969 944 957 L 945 957 C 947.894531 935.539063 963.195313 931.699219 981 939 C 981.613281 924.675781 987.515625 911.417969 1001 905 C 1001.332031 921.113281 1009.996094 934.578125 1016 949 C 1014.414063 947.140625 1010.742188 940.207031 1008 940.207031 C 1005.652344 940.207031 1005.199219 945.378906 1005 947 C 1004.710938 954 1008 961.222656 1011.453125 967 C 1028.878906 996.386719 1053 1014.589844 1056 1051 L 1057 1051 C 1060 1026.371094 1059.785156 1005.402344 1048 983 C 1065.289063 987 1081.699219 998.363281 1091.777344 1013 C 1095.355469 1018.195313 1097 1030.707031 1102.226563 1033.820313 C 1109.726563 1038.394531 1121.992188 1031.277344 1128 1027 C 1128 1039.714844 1124.570313 1051.542969 1119 1063 C 1116.816406 1067.816406 1109.839844 1075 1111.359375 1080.679688 C 1112.40625 1084.660156 1118 1081.078125 1120 1080 C 1127.441406 1076 1133.617188 1075.230469 1138.890625 1083.015625 C 1144.554688 1091.371094 1145.175781 1102.21875 1150 1111 C 1160.667969 1130.191406 1176.890625 1145.105469 1190.539063 1162 C 1197.765625 1171 1201 1182.183594 1208.464844 1191 C 1221.753906 1206.792969 1244.996094 1214 1265 1214 L 1265 1213 C 1252 1207 1238.722656 1203 1230.929688 1190 C 1229.460938 1187.550781 1223.222656 1176.160156 1228.320313 1174.664063 C 1232.667969 1173.390625 1240.320313 1180 1244 1181.742188 C 1256.484375 1188.179688 1270.269531 1194.824219 1284 1198 C 1281.53125 1190.679688 1275 1185.714844 1271.3125 1179 C 1259.769531 1158.039063 1269.472656 1146.460938 1279 1128 L 1280 1128 C 1277.285156 1149.371094 1272.773438 1186.789063 1302 1192 C 1299.613281 1186.355469 1295 1182.039063 1293.488281 1176 C 1288.5625 1158.070313 1299.390625 1139.351563 1309 1125 C 1311.261719 1121.621094 1319 1106.820313 1323.761719 1107.632813 C 1326.429688 1108.097656 1327.371094 1113 1328.324219 1115 C 1330.816406 1120.304688 1334.234375 1124.613281 1339 1128 C 1336.382813 1110.285156 1337 1099.792969 1344.769531 1083 C 1345.957031 1080.394531 1348.972656 1069.34375 1352.558594 1069.742188 C 1357.996094 1070.34375 1364 1076.378906 1370 1077.765625 C 1381 1080.367188 1392.792969 1079 1404 1080.425781 C 1407 1080.824219 1420.953125 1083.453125 1422.652344 1080.476563 C 1423.769531 1078.53125 1419 1077.503906 1417.996094 1077.234375 C 1411.992188 1075.644531 1405.972656 1074.125 1400 1072.421875 C 1388.335938 1069.09375 1374.828125 1064 1369.527344 1052 C 1365 1042.109375 1367 1029.558594 1367 1019 L 1368 1019 C 1372.429688 1037.472656 1389 1044 1406 1046.269531 C 1410 1047 1421 1049.132813 1423.972656 1045.398438 C 1429.839844 1038 1407.96875 1028.351563 1403 1026 C 1406.679688 1024.199219 1423.792969 1022.433594 1423.792969 1017.324219 C 1423.792969 1014.246094 1416.820313 1015.003906 1415 1015 C 1405.78125 1015 1394.433594 1016.699219 1387 1009.785156 C 1379.359375 1002.472656 1383.984375 994.015625 1383.972656 985 C 1383.960938 979.632813 1381.6875 975 1380 970 C 1389.488281 979.484375 1400 988 1414 989 C 1404.8125 977.105469 1391.222656 973.046875 1386.222656 957 C 1378.230469 931.363281 1396.644531 904 1390 877 C 1395.585938 882.585938 1400.929688 889.332031 1408 893 C 1404 867 1389.980469 842 1380 818 L 1381 818 C 1388.4375 833 1400 846.390625 1408.421875 861 C 1413 869.058594 1415.425781 879.152344 1423 885 C 1422 842.039063 1391.34375 792.492188 1361 764.089844 C 1337.78125 742.355469 1309 724.511719 1292 697 C 1274.972656 669.445313 1291.808594 637.792969 1288.828125 608 C 1286.179688 581.484375 1269.789063 560.824219 1263 536 L 1264 536 C 1267.246094 547.03125 1277 556.402344 1283.308594 566 C 1291.953125 579.433594 1297.582031 593.523438 1304 608 L 1305 608 C 1304.996094 576.1875 1294.941406 543.640625 1281.691406 515 C 1278 507.273438 1272.621094 500.65625 1269 493 C 1282.210938 506.808594 1292.238281 524 1300.753906 541 C 1304.679688 549 1309.652344 564.1875 1317 569 C 1316.238281 532.128906 1304.464844 488 1288 455 C 1282.449219 444 1274.546875 434.511719 1268 424 C 1284.410156 440.457031 1301.933594 463.761719 1302 488 C 1311.785156 481.320313 1307.660156 463 1303.6875 454 C 1291.546875 427 1271.949219 396.125 1251 375 C 1260 378.78125 1266.78125 385.15625 1272.511719 393 C 1276 398 1278.378906 404.128906 1284 407 C 1283.679688 368.261719 1235 337.726563 1205 321 C 1196 316 1186.839844 309 1177 306 L 1177 305 C 1204.402344 312.492188 1236 327.324219 1260 342.691406 C 1272.464844 350.722656 1283.429688 364.257813 1297 370 C 1293.492188 358 1282.980469 348.242188 1274.84375 339 C 1256 317.746094 1234.488281 298.53125 1209 285.753906 C 1201.367188 282 1193.546875 277.28125 1185 276 L 1185 275 C 1197.449219 276 1209.46875 277 1222 277 L 1222 276 C 1199.59375 263 1172.988281 258.222656 1149 248.796875 C 1127.867188 240.492188 1105.609375 226.339844 1083 223 L 1083 222 C 1109.679688 224.179688 1134.757813 236 1162 236 L 1162 235 C 1153.402344 230.46875 1143.765625 228.15625 1135 224 C 1124.207031 218.644531 1113.765625 211.769531 1102 209 C 1085.273438 204.816406 1067.808594 207.363281 1051 203.789063 C 1035.648438 200.527344 1023.847656 192.550781 1010 186 L 1010 185 C 1028.445313 187.332031 1047.96875 191.707031 1066 196 C 1061.285156 188.441406 1046.808594 187.5625 1039 184.140625 C 1014.339844 173.324219 990 161.804688 965 151.800781 C 920 134 871.671875 121 823 123.039063 C 806.703125 123.753906 791.671875 132.015625 776 133 C 768.636719 133.304688 761.210938 129.648438 754 128.433594 C 741 126.253906 728 125.660156 715 127.285156 C 692 130.140625 670.195313 139.242188 649 148 C 612 163.230469 575.945313 180.769531 541 200.140625 C 516.464844 213.738281 490.542969 226.441406 464 235.65625 C 455.328125 238.667969 434 241.398438 429 249 M 936 184 C 932.261719 189.3125 927 193.457031 925.316406 200 C 921.882813 213.132813 933 219.003906 944 215 C 942.671875 222 939.296875 232.195313 946.214844 237.257813 C 950.644531 240.5 956.320313 237.761719 961 236.652344 C 972.53125 234 984.273438 232.480469 996 231 L 996 232 C 993.417969 232.5 981.773438 233.769531 982.632813 238 C 983 240.503906 988 241.113281 990 241.71875 C 997 244 1004 246.503906 1011 249.054688 C 1031 256.445313 1051.253906 265.402344 1070 276 C 1078.949219 281 1086.503906 288.027344 1096 292 C 1083.472656 276.21875 1068.203125 257.820313 1048 252 L 1048 251 C 1062.214844 251.570313 1058.335938 243.832031 1051.195313 235 C 1041.671875 223.21875 1026.742188 216.152344 1018 204 C 1051.949219 211.007813 1077.789063 237.34375 1099.246094 263 C 1106.191406 271.304688 1112.726563 280 1118.65625 289 C 1122 294.207031 1124.328125 300 1131 301 C 1128.285156 309.460938 1137.769531 320 1141.851563 327 C 1151.773438 344.382813 1164 363.382813 1165 384 L 1164 384 C 1158.414063 360.425781 1140.285156 342 1125.210938 324 C 1118.816406 316.410156 1116.71875 309 1107 304.324219 C 1091.890625 297.246094 1061.898438 294.246094 1046 300.132813 C 1039.644531 302.484375 1034.800781 307.664063 1029 311 C 1031.6875 301.667969 1038.347656 294.359375 1043 286 C 1034.46875 291.351563 1027 298.675781 1018 303 C 1021 295.726563 1025.941406 289.339844 1029 282 C 1022.433594 286.46875 1016.328125 292 1009 295 C 1011.789063 287 1017.398438 280.613281 1021 273 C 1011.34375 279.03125 1003.660156 287.539063 993 292 C 996 283.785156 1002.402344 276.484375 1007 269 C 996.789063 274.816406 989.203125 286.285156 978 290 C 980.40625 281.644531 986.46875 274.597656 988 266 L 987 266 C 983 274.488281 974.832031 282.101563 967 287 C 968 279.757813 972.222656 273.671875 975 267 C 968.929688 273.070313 962.636719 283 954 285 C 954.65625 280.121094 956 275.496094 958 271 C 953.359375 275.496094 942.414063 294.128906 942 277 L 941 277 C 939.417969 282.46875 937.65625 288 935 293 C 932 288.242188 931.4375 281.492188 931 276 L 930 276 C 921.359375 322.507813 944.753906 353 977 384.039063 C 1007.804688 413.707031 1042.257813 439.417969 1077 464.289063 C 1099 480.101563 1124.660156 496.648438 1136.679688 522 C 1146.785156 543.316406 1148.402344 567.269531 1153.425781 590 C 1157.941406 610.457031 1166.386719 629.804688 1171.847656 650 C 1174.25 659 1175.957031 668 1176.828125 677 C 1177.242188 681.308594 1175.839844 687.09375 1178.601563 690.785156 C 1181.421875 694.554688 1186.933594 695.480469 1191 697.3125 C 1199.734375 701.25 1207.765625 707.339844 1217 710 C 1208 696.574219 1195 676 1200 659 C 1208.171875 669 1211.609375 683.054688 1218.425781 694 C 1233.3125 718 1256.929688 743.601563 1282 757 L 1282 758 L 1274 755 C 1298 790.816406 1325 828.785156 1331 873 L 1330 873 C 1316 812.535156 1276 753.632813 1223 721.601563 C 1209.601563 713.515625 1192.675781 702.347656 1177 700 C 1182.914063 708.027344 1193.210938 712.558594 1201 718.660156 C 1217.308594 731.4375 1234.980469 747 1244 766 L 1243 766 C 1229.671875 747.464844 1213.363281 731.402344 1195 718 C 1191.210938 715.09375 1177.699219 702.273438 1174.796875 711.035156 C 1172.183594 719 1185.933594 726.382813 1191 730 C 1211.707031 744.789063 1229.515625 763.273438 1250 778 L 1249 775 L 1250 775 C 1259.496094 789.339844 1271.300781 801.265625 1281.523438 815 C 1300.171875 840.0625 1318.710938 872.683594 1327 903 L 1326 903 C 1315.703125 876.460938 1303 850.738281 1287.332031 827 C 1279.953125 816 1272.75 804.191406 1262 796 L 1263 800 L 1262 800 C 1247.6875 775.503906 1221.902344 757.328125 1199 741 C 1188.964844 734 1170.824219 716.480469 1170.265625 739 C 1169.996094 750.015625 1183.292969 757 1189.828125 764.015625 C 1202 777.308594 1216.183594 797.292969 1217 816 L 1219 816 C 1220 801.40625 1221.734375 791 1216 777 C 1245.191406 786.347656 1222.671875 816.070313 1226 834 L 1225 834 C 1218.832031 830.445313 1214.25 847.777344 1212 852 L 1211 852 C 1211 841.191406 1217 830.253906 1216.722656 820 C 1216.453125 813.367188 1212 806.769531 1209.246094 801 C 1200.570313 783.648438 1188.777344 765.496094 1172 755 C 1174.535156 787 1187.496094 819.027344 1168 849 C 1161.28125 859.605469 1143 876 1130 864.605469 C 1121.65625 857.316406 1124 843 1122.5625 833 C 1119.859375 815.695313 1112.828125 798.625 1103.304688 784 C 1086.496094 758.1875 1046.402344 741 1044 708 C 1043.714844 702.640625 1044 697.285156 1044.921875 692 C 1050.339844 660 1081.894531 660.269531 1102.984375 642.535156 C 1114.914063 632.503906 1117.8125 618.753906 1123 605 C 1113 606.785156 1105.433594 614.402344 1095 615.710938 C 1073.871094 618.359375 1064 596.761719 1064 579 L 1065 579 C 1078 603.683594 1097 600.671875 1121 596.464844 C 1126 595.570313 1135.613281 598.097656 1139.257813 593.683594 C 1142.621094 589.605469 1140.707031 582 1141.171875 577 C 1143.320313 554.304688 1133.289063 530.53125 1117.910156 514 C 1076.53125 469.519531 1008.238281 475.144531 957 497.148438 C 939.773438 504.546875 923.523438 515 910 528.011719 C 905.757813 532.101563 899.734375 536.203125 897.730469 542 C 896.226563 546.351563 898.558594 550.660156 898.90625 555 C 899.660156 564.394531 899 573.710938 901.234375 583 C 904.296875 596.003906 914.972656 617 931 615.773438 C 942 615 951.277344 607.300781 963 607.015625 C 980.375 606.589844 1010.886719 608.308594 1012 584 L 1014 584 C 1013.6875 591.289063 1012.660156 599 1010.558594 606 C 1000 641.195313 959.296875 629.230469 934 621 C 938.75 631.796875 949.234375 637 959 642.425781 C 987 658.277344 1028.75 666 1033.710938 704 C 1034.277344 708.335938 1034 712.71875 1033.195313 717 C 1026.792969 750.40625 986.785156 745.011719 966 764.09375 C 947.726563 781 934.730469 802 917.910156 820 C 885.835938 854.4375 844.464844 881.574219 796 881 C 773.929688 880.734375 757 864 736 862 C 743.730469 879.4375 751.457031 897.660156 769 907.660156 C 787.414063 918.160156 807.574219 913 826 905.398438 C 864.261719 889.769531 898.746094 866.664063 924.339844 834 C 939.972656 814.042969 953.632813 790.277344 974 774.679688 C 993.445313 759.789063 1013.757813 765.386719 1036 767 C 1055.652344 768.257813 1075.785156 766.261719 1080.539063 791 C 1083.996094 809 1079 828 1073.65625 845 C 1071 853.257813 1065.929688 862.132813 1066 871 C 1066.40625 890 1105.867188 880.566406 1100.605469 904 C 1094.753906 930.0625 1043.238281 923.742188 1043 897 C 1037.394531 902.800781 1036 917.054688 1035 925 L 1034 925 C 1035 912.351563 1038.710938 899.652344 1040.285156 887 C 1040.773438 883.089844 1043.65625 875.769531 1040.394531 872.503906 C 1037.296875 869.394531 1029.585938 873.265625 1026 874.117188 C 1012.445313 877.332031 998.851563 879 985 880 C 972.945313 880.730469 958.734375 879 947 876.101563 C 939.894531 874.367188 932.457031 870.109375 925 870.359375 C 918.570313 870.574219 913.476563 876.425781 908 879.191406 C 900.34375 883.054688 889.300781 884.667969 883.433594 891.328125 C 877 898.625 882.417969 914.0625 885 922 L 884 922 C 882.476563 919.390625 881 916.785156 880 914 C 877.289063 920.296875 875.390625 927.289063 874 934 L 873 934 C 874.832031 919.816406 879 906.449219 879 892 C 870.273438 896.082031 861.671875 899.472656 854 905.519531 C 845.410156 912.285156 838.804688 921.414063 829 926.675781 C 810.972656 936.347656 777.621094 936.15625 759 928.546875 C 738.652344 920.230469 709 897.425781 700.339844 877 C 697.464844 870.335938 698 863.011719 696.675781 856 C 695.386719 849.242188 691.199219 843 684 846 C 684.304688 836.597656 677.328125 829.589844 678.175781 820 C 679.519531 804.710938 690 793.316406 694 779 L 688 782 C 692.238281 776.460938 698.179688 772.394531 702.675781 767 C 711 757.003906 717.816406 744.355469 724 733 C 726.625 728.535156 732.566406 717.203125 727.398438 712.546875 C 722.988281 708.578125 709.960938 723.078125 707 726.003906 C 689.535156 743.261719 674.542969 766.082031 668 790 L 667 790 C 670.535156 766 686.207031 741.671875 702.171875 724 C 706.824219 719 725.414063 707.734375 722.933594 700.003906 C 720.460938 692.308594 714.40625 694.335938 709 697.167969 C 697.867188 703 686.691406 708.800781 676 715.425781 C 639.875 737.796875 600.226563 777 590 820 L 589 820 C 590.546875 809.527344 596 799.367188 600.753906 790 C 615.957031 759.671875 640.914063 733.402344 669 714.667969 C 679 708 689.214844 701.203125 700 695.808594 C 704.933594 693.34375 712.933594 691.664063 716 686.785156 C 719.660156 681.3125 715.363281 662.5625 706.996094 665 C 690.492188 669.613281 671.199219 684.378906 659 696.039063 C 648.511719 706.0625 639.429688 719.257813 628 728 C 638.589844 706.738281 661.359375 689.492188 681 677.054688 C 688.589844 672.246094 705.363281 667.261719 710.167969 659.785156 C 713.542969 654.535156 707.796875 635.359375 704 631 C 703.46875 637.714844 702 644.234375 702 651 L 701 651 C 694.71875 642.152344 690 633.03125 690 622 C 684.304688 628 686 637.394531 686 645 L 685 645 C 679.550781 636.734375 677.285156 623.363281 670 617 C 670.328125 624.644531 671 632.410156 672 640 L 671 640 C 667.597656 631.828125 661.414063 624.324219 662 615 C 662.597656 608.183594 667.4375 603.578125 672 599 C 680.972656 590 690.5625 580.265625 701 573 C 697.4375 578.117188 692.855469 582.402344 690 588 C 709.730469 572.339844 725.515625 551.371094 746 537 C 740.871094 546 734 554.65625 728 563 C 743 554.398438 762.714844 537.074219 771.523438 522 C 774.257813 517.316406 773.675781 511.703125 776.175781 507.171875 C 777.847656 504.144531 780.980469 502.316406 782.257813 499 C 783.242188 496.441406 782.1875 493 783.601563 490.640625 C 784.90625 488.515625 788.496094 489.484375 790.257813 487.527344 C 794.78125 482.492188 789.726563 472.3125 788 467 C 802.980469 467 798 456.285156 793 447 C 808.1875 448.1875 803 440.304688 797 431 C 808.496094 428 800.785156 423.417969 803.707031 416.601563 C 805 413.59375 810.953125 415.75 813.257813 413.398438 C 818.957031 407.574219 812.738281 396.035156 811 390 C 814.296875 390.4375 818.671875 394 821.773438 393.269531 C 831.585938 391.277344 822.324219 371 821 366 C 823.425781 367.148438 827.746094 371 830.5 370.269531 C 835.394531 369.140625 835 356.578125 834.5625 353 C 832.570313 340.222656 825.945313 329 817.90625 319 C 809.816406 309.019531 800.445313 299.429688 789 293.324219 C 777.257813 287.0625 763.882813 284.421875 752 278.394531 C 739.878906 272.246094 729.46875 262.199219 716 259 C 729.398438 270.597656 744.972656 281.3125 754 297 C 747 293.449219 742.691406 287 736 283 L 737 293 C 721.980469 284.671875 705.578125 276.707031 689 272 C 697.871094 281.679688 714 292 727 295 L 727 296 C 705.859375 296 692.171875 290.613281 674 280 C 679.894531 290.195313 691.605469 299.710938 703 303 L 703 304 C 687.660156 304 673.207031 298.203125 658 297 L 658 298 C 667.910156 302.128906 677.476563 307.507813 688 310 L 688 311 C 671.9375 311 656 309 640 309 L 640 310 C 649.613281 313.074219 659.554688 314.363281 669 318 L 669 319 C 660.746094 318.691406 649.558594 318.269531 643 324 C 646.957031 322.660156 650.824219 322.085938 655 322 L 655 323 C 637 323.773438 621.535156 332.425781 607 342 C 613.695313 332.496094 627.832031 326.71875 633 317 C 635.773438 312.152344 630.199219 308 630.21875 303 C 630.242188 295.410156 639.320313 290 645 286.449219 C 663.46875 275.277344 682.917969 265.152344 703 257.203125 C 709.230469 254.738281 723.589844 253 727 246.671875 C 730.859375 239.652344 715.867188 231.101563 711 229 L 711 228 C 715 228.316406 722 230.71875 725.394531 227.398438 C 728.808594 224 724.941406 217.402344 723.242188 214 C 717.96875 203.453125 708 192.164063 696 190 L 696 188 L 706 188 C 699.96875 180 688.71875 177.199219 679 177 L 679 175 C 688.703125 174.800781 698.261719 173 708 173 C 699.820313 165.65625 690.464844 164 680 162 L 680 161 C 690.359375 159.691406 702.5625 159.738281 712 155 C 702 151 692.976563 148.03125 682 148 C 699.28125 140.546875 728.886719 139 747 143.375 C 760.847656 146.816406 775.472656 155.425781 790 155 C 799.171875 154.636719 804.925781 145.777344 813 142.476563 C 829.496094 135.734375 850.277344 136.734375 867 142.027344 C 879.519531 146 891.46875 153.019531 900.984375 162.089844 C 913.8125 174.320313 916.59375 185.53125 936 184 M 1083 221 L 1083 222 L 1080 222 C 1081.246094 221.316406 1081.550781 221.25 1083 221 M 746 244 C 754.597656 255.648438 771.417969 262.636719 782 273 C 766.945313 268.09375 753.433594 258.65625 738 255 C 745.550781 268.0625 762.886719 280 777 285 C 783.519531 287.25 790.851563 287.183594 797 290.519531 C 808.734375 297 815.527344 309.367188 827 316 C 825.292969 306.535156 817.519531 298.460938 811.871094 291 C 796.300781 270.4375 773.511719 246.246094 746 244 M 1046 250.332031 C 1046.773438 250.332031 1046 250.832031 1045.667969 250.667969 L 1046 250.332031 M 547 262 C 545.765625 276.121094 536.660156 288.03125 530 300 C 536.765625 293 542.355469 282.277344 552 279 C 547.4375 295.199219 539.585938 308.71875 533 324 C 540.757813 315.03125 545.640625 303 557 298 C 554 319.316406 537.179688 334.015625 529 353 C 538.222656 343.703125 544.46875 330.664063 556 324 C 554.308594 343.242188 535.632813 364.667969 526 381 C 542.546875 367.65625 551.621094 346.496094 570 335 C 567.707031 350.523438 556.613281 364.492188 549.308594 378 C 541.753906 392 536.898438 407 532 422 C 552.179688 410.335938 561.664063 382.640625 574 364 L 575 364 C 571 393.363281 556.367188 421.25 554 451 L 555 451 C 561.261719 437.160156 569 424.015625 575 410 L 576 410 C 572 436.378906 557.238281 456 564 484 C 557.710938 480.152344 556.304688 471.203125 553 465 C 551.535156 469.613281 550.386719 474.164063 550 479 L 549 479 C 544.515625 470.453125 540.480469 443.632813 526 446.363281 C 518.816406 447.714844 516.464844 456.433594 513.675781 462 C 512.855469 463.636719 510.976563 467.59375 508.519531 466.078125 C 503.976563 463.277344 506 450.472656 506 446 C 506 425.769531 505.867188 406.179688 505 386 C 500.289063 391.007813 499.835938 400.386719 498.753906 407 C 495.636719 426.027344 495 444.765625 495 464 C 495 518.644531 509.238281 574.480469 529.449219 625 C 537.175781 644.320313 546.402344 663.003906 554.859375 682 C 557.535156 688.007813 564.957031 698.175781 564.351563 705 C 563.734375 711.675781 551.277344 702.105469 550.648438 709.148438 C 549.585938 721.03125 568 730.675781 574 739 C 565 736.355469 558.277344 728.785156 552.171875 722 C 536.855469 705 526.335938 684 517.421875 663 C 483.535156 583.585938 473.5625 495.425781 481.828125 410 C 484.269531 384.800781 488.40625 360 492.75 335 C 493.710938 329.488281 499.886719 314 496.304688 309.332031 C 493 305.117188 485.816406 310 482 311 C 490.726563 296.554688 511.492188 287.777344 525 278.277344 C 532.414063 273.0625 538.789063 266 547 262 M 1184 274 L 1183 275 L 1184 274 M 455 276.332031 L 455.332031 276.667969 C 454.839844 276.832031 454.226563 276.332031 455 276.332031 M 1171 288.332031 C 1171.773438 288.332031 1171 288.832031 1170.667969 288.667969 L 1171 288.332031 M 1167 289 L 1167 290 L 1164 290 C 1165.246094 289.316406 1165.550781 289.25 1167 289 M 1163 290 L 1163 291 L 1159 291 C 1160.507813 290.316406 1161.3125 290.175781 1163 290 M 1158 291 L 1158 292 C 1152.550781 292.800781 1147.363281 294.769531 1142 296 C 1146.339844 292.769531 1152.65625 291.464844 1158 291 M 1141 296 L 1140 297 L 1141 296 M 1137 385 C 1126.191406 372.617188 1117 360.796875 1103 351.691406 C 1092.503906 345 1079.613281 342.628906 1070 334.472656 C 1062.996094 328.375 1052 318.671875 1055.917969 308.105469 C 1060.167969 296.214844 1085.355469 304.308594 1091.867188 309.636719 C 1097.296875 314.082031 1097 322.527344 1101.324219 328 C 1115 345.625 1136.492188 360.46875 1137 385 M 1173 303.332031 C 1173.773438 303.332031 1173 303.832031 1172.667969 303.667969 L 1173 303.332031 M 1176 304.332031 C 1176.773438 304.332031 1176 304.832031 1175.667969 304.667969 L 1176 304.332031 M 436 309.332031 L 436.332031 309.667969 C 435.839844 309.832031 435.226563 309.332031 436 309.332031 M 676 320 L 676 321 L 666 321 C 669 319.671875 672.585938 320 676 320 M 665 321 L 665 322 L 656 322 C 658.890625 320.785156 661.875 321.003906 665 321 M 531 326 C 532.636719 325.453125 532.453125 325.636719 533 324 C 531.363281 324.546875 531.546875 324.363281 531 326 M 444 325 C 435.558594 360.53125 395.679688 375.71875 368 392.449219 C 349.746094 403.480469 331.535156 422.222656 323 442 L 322 442 C 328.832031 395.746094 374.785156 380 408 357 C 421.421875 347.707031 430.972656 334.175781 444 325 M 1243 375 C 1234.8125 371.828125 1229.628906 364 1222 359.527344 C 1204.800781 349.753906 1182.851563 348.773438 1172 330 C 1180 331.183594 1186.671875 335.4375 1194 338.574219 C 1212.6875 346.570313 1235.691406 354 1243 375 M 1167 336 C 1173.824219 343.132813 1180 350.285156 1188 356.253906 C 1212.492188 374.605469 1242 387.230469 1242 422 L 1241 422 C 1236.429688 391.0625 1206.582031 381.335938 1185 364.332031 C 1178.398438 359.128906 1163.261719 345.683594 1167 336 M 699 351 L 699 352 C 687.898438 352.476563 675.988281 354.535156 669 364 C 695.597656 363 725.347656 364.257813 747 382.324219 C 753.898438 388.082031 758.679688 395.769531 763.859375 403 C 769.871094 411.390625 775.515625 419.640625 777.382813 430 C 777.84375 432.554688 779 438 776.972656 440 C 774.960938 442 769.6875 441.53125 767 443 C 761 446 756.347656 451.050781 750 453.152344 C 744.183594 455.074219 737.925781 454.355469 732 455.46875 C 721.503906 457.433594 712.441406 464.105469 702 466.332031 C 685.597656 469.828125 668 466.375 652 462.371094 C 640 459.386719 617 455.535156 614.339844 441 C 608.539063 411 646.648438 393 661 373 C 630 383.464844 604.679688 399.558594 595 433 L 594 433 C 598.695313 408.785156 611.785156 392.015625 621 370 C 609.871094 381.371094 602.273438 402.167969 586 407 C 588 393.4375 598.492188 380.695313 606.476563 370 C 608.230469 367.648438 615.746094 360 611.578125 357.066406 C 607.328125 354.117188 598.246094 360.777344 594 362 C 598.199219 346.648438 608.296875 346.457031 622 343.128906 C 649.585938 336.429688 672.925781 341 699 351 M 1078 341 L 1077 342 L 1078 341 M 1076 342 L 1076 343 C 1054.90625 345 1042 368.46875 1038.398438 387 C 1037.25 392.707031 1034.308594 401.710938 1038.5625 406.722656 C 1043.871094 413 1059.441406 412.042969 1067 413.132813 C 1087.179688 416.03125 1115.675781 424.621094 1124.910156 399 C 1126.324219 395.074219 1126.914063 391.148438 1127 387 C 1135.714844 407.769531 1113.617188 437.3125 1093 439.816406 C 1080.222656 441.367188 1069.808594 435.117188 1059 429.308594 C 1049.941406 424.441406 1039.246094 422.128906 1032.328125 414 C 1016.34375 395.164063 1024.890625 364.488281 1043 350.527344 C 1052.957031 343 1063.945313 342 1076 342 M 528 353 L 529 354 L 528 353 M 440 355 C 432.65625 382 404.574219 397.257813 383 411.34375 C 360.414063 426.089844 339.640625 445.097656 328 470 L 327 470 C 333 425.476563 376.300781 407.121094 408 384 C 419.683594 375.460938 428.273438 363.261719 440 355 M 1093 369 C 1089.480469 369 1073.3125 368.25 1076.40625 361.304688 C 1079.761719 353.78125 1091 366.191406 1093 369 M 1061.960938 363 C 1065.839844 363 1064.992188 369.035156 1061.175781 368.535156 C 1057.570313 368.0625 1058.65625 363 1061.960938 363 M 1227 451 L 1226 451 C 1225.941406 429.683594 1213.175781 414 1198 400.171875 C 1188.800781 392 1172.972656 378.15625 1176 364 C 1182.71875 369.46875 1187 377.71875 1193 384 C 1209.980469 401.722656 1238.941406 423 1227 451 M 1111 370 C 1114.828125 377.3125 1117.613281 384.636719 1115.210938 393 C 1110.332031 410 1088 417.828125 1073 409.582031 C 1067.554688 406.613281 1052 392 1059.699219 384.800781 C 1062.554688 382.09375 1065 387.210938 1066.527344 389.003906 C 1071.625 395.40625 1078.546875 400 1087 398.699219 C 1096 397.390625 1104.238281 390.648438 1107.441406 382 C 1108.941406 378 1108.375 373.460938 1111 370 M 688 373.4375 C 666.285156 376.832031 650.617188 393.003906 638 410 C 633.691406 416.085938 626 425 630.574219 433 C 634.207031 439.367188 642.371094 441.753906 649 443.707031 C 665.984375 448.707031 686.351563 451.339844 704 448.5625 C 717.828125 446.382813 727.925781 436.652344 741 432.785156 C 745.183594 431.546875 753.554688 432.140625 755 427 C 756.882813 420.636719 748.839844 412 745.808594 407 C 733.726563 387.660156 712.410156 369.625 688 373.4375 M 1047.828125 374.632813 C 1050.199219 375.082031 1051 379.160156 1051.859375 381 C 1054.414063 387.113281 1058.691406 403 1046 399.679688 C 1038.324219 397.699219 1041.683594 386.242188 1043 381 C 1043.707031 379.054688 1044.90625 374.074219 1047.828125 374.632813 M 683.996094 385.332031 C 691.484375 384.140625 693.292969 393.382813 685.980469 394.773438 C 673.71875 397.101563 671.34375 387.347656 683.996094 385.332031 M 701.226563 385.707031 C 705.535156 384.289063 715.539063 392.441406 709.675781 395.398438 C 702.273438 399.128906 693 388.375 701.226563 385.707031 M 439 391 C 432.753906 410.566406 414.992188 427.144531 407.226563 446 C 404.808594 452 407 459.734375 406.996094 466 C 406.894531 474.410156 404.695313 483 402.277344 491 C 395 514.824219 376.839844 533.65625 370.898438 558 C 365.792969 579 371.984375 600 372 621 L 371 621 C 340.324219 568.242188 378.664063 501.570313 399 452 C 380.226563 460.101563 372 478.308594 357 490 C 361.289063 461 394.851563 444.210938 409 420 C 398.550781 425.5625 387.777344 432.179688 379 440.171875 C 372 446.429688 367.207031 454.257813 359 459 C 369.949219 425.410156 406.691406 402.003906 439 391 M 725 394 C 737.367188 406.269531 730.183594 428.703125 716 436.355469 C 699 445.46875 674.699219 443.203125 657 437.652344 C 651.636719 436 644.742188 433.535156 642.222656 428 C 639.5625 422.128906 648.292969 411.042969 653.722656 409.347656 C 656.519531 408.472656 657.484375 413.25 658.378906 415 C 661.878906 422 667.320313 427.765625 674 431.652344 C 691.230469 441.671875 713.648438 434.722656 721.535156 416 C 724.582031 408.765625 722.300781 400.621094 725 394 M 740 409 C 744.875 416.386719 742.449219 422.488281 734 425 C 735 419.464844 736.398438 413.460938 740 409 M 1268 424 C 1266.363281 423.453125 1266.546875 423.636719 1266 422 C 1267.636719 422.546875 1267.453125 422.363281 1268 424 M 1178 454 C 1184.441406 482 1199.46875 508.347656 1213.425781 533 C 1224.796875 553.085938 1237.882813 575.179688 1238 599 C 1238 611.785156 1240.230469 636.546875 1230 646 C 1233 622 1231.65625 595.050781 1220.628906 573 C 1210.167969 552.078125 1192.367188 536.085938 1183.8125 514 C 1178.386719 500.003906 1175 485.050781 1175 470 C 1174.996094 464.460938 1174.320313 458.492188 1178 454 M 818 479 L 824 480 L 824 481 C 820.191406 482.613281 817.515625 484.722656 815 488 C 817.730469 488.808594 820 489 823 489 L 823 490 C 817.597656 492.078125 812.941406 495.410156 811 501 L 823 501 L 823 502 C 820.363281 503.382813 818.828125 504.652344 817 507 C 829.414063 507 840.402344 502.570313 852 498.667969 C 855.949219 497.339844 862.488281 496.316406 865.339844 493.035156 C 869.28125 488.496094 859.488281 487.117188 857 487 L 857 486 C 864.609375 482.800781 867.449219 476.574219 857 476 C 858.535156 474.289063 863.269531 471.199219 861.824219 468.472656 C 860 465.0625 853 466 850 466 C 838 466 824.511719 467.640625 818 479 M 1267 489 L 1269 493 L 1268 493 C 1267.199219 491.261719 1266.945313 490.804688 1267 489 M 414 497 C 410.699219 513 403.4375 527.367188 399 543 C 390.949219 573 386.410156 607 389 638 L 388 638 C 377 604.058594 377.765625 564.1875 391 531 C 395.824219 519 402.421875 504 414 497 M 1102 528 C 1080.765625 521.09375 1066.167969 528.816406 1045 530.828125 C 1029.429688 532.3125 1013.53125 529.53125 998 531.574219 C 988.914063 532.773438 979.957031 533.488281 971 535.625 C 968.484375 536.226563 964 537.683594 962.617188 534.5625 C 960.667969 530.449219 965 525 967.46875 522.039063 C 974.941406 513.242188 987 508 998 504.722656 C 1029.800781 495.140625 1084.933594 492.082031 1102 528 M 806 525 C 823.972656 525 841.621094 518 857 509 C 852.261719 507.015625 846.859375 508.828125 842 509.800781 C 830.714844 512.058594 811.679688 513.378906 806 525 M 434 511 C 437.5 520.347656 437 531.152344 437 541 C 437 575.144531 424 607 414 639 C 407.96875 658.488281 403.777344 678.457031 395 697 L 394 697 C 405.953125 654.5625 412.359375 610.203125 421 567 C 423.539063 554.300781 426.300781 541.640625 429 529 C 430.460938 523 430.652344 516.328125 434 511 M 819 546 C 840.40625 546 817.820313 556.460938 812 564 C 819.699219 563.667969 827.269531 562.019531 835 562 C 829.765625 566.464844 823.230469 569.519531 819 575 C 831.71875 573.285156 844.507813 569.121094 857 566.128906 C 861.578125 565.035156 868.816406 565.15625 872.507813 562 C 875.996094 559 870 556.578125 871.203125 553.453125 C 872 551.136719 875.632813 550.828125 876 548.121094 C 876.542969 545.277344 872 545.339844 872 542.785156 C 871.796875 536.234375 876.765625 534.097656 866 534 C 871.945313 528.457031 873.542969 525.203125 864 525 C 868.820313 520.785156 873.628906 517.121094 876 511 C 863.609375 514.207031 851.425781 518.019531 839 521.128906 C 836 522 827.800781 522.511719 826.347656 525.488281 C 825 528.089844 833.945313 530.550781 833.945313 534.027344 C 833.945313 539.566406 822.226563 542.246094 819 546 M 328 512 C 317.890625 549 291.308594 579.640625 294 620 C 296.171875 650.214844 315.941406 673.015625 324 701 C 312.652344 695.113281 305.636719 681.699219 299.425781 671 C 274.667969 628.367188 280.996094 587.730469 304.71875 546 C 311.1875 534.621094 317 519.816406 328 512 M 1263 535 L 1262 536 L 1263 535 M 323 548 C 321.65625 565 315.429688 581.191406 313.285156 598 C 311.46875 612.222656 313 625.800781 313 640 L 312 640 C 303.476563 613.792969 297.4375 567.742188 323 548 M 333 554 C 333 575 332 596.144531 334.171875 617 C 335.261719 628 340 638.117188 341 649 L 340 649 C 327.769531 625.753906 322.820313 603.179688 326.578125 577 C 327.648438 569.546875 327.828125 560 333 554 M 449 561 C 457.429688 575.828125 457.292969 594.5625 456 611 C 453.175781 650.761719 434.230469 688.316406 420 725 L 419 725 C 423.523438 691.40625 438.503906 660 442.714844 626 C 445 606.695313 439.710938 578.46875 449 561 M 1197 563 C 1205 575.253906 1210.3125 590.242188 1210.960938 605 C 1211.554688 618.542969 1207.980469 632 1213.464844 645 C 1222.78125 667.109375 1247.835938 675 1249 702 L 1248 702 C 1243.914063 692.1875 1237.59375 683.15625 1229 676.761719 C 1220.945313 670.765625 1210.90625 667.054688 1204.527344 659 C 1189.230469 639.621094 1201.445313 614 1199.910156 592 C 1199.269531 583 1193.257813 572 1197 563 M 767 574 C 754.308594 604.328125 741.46875 632.21875 756 665 L 757 665 C 762.996094 654.722656 770 642.097656 770.910156 630 C 771.648438 620 768 610.105469 768 600 C 767.996094 592.476563 771.78125 580.3125 767 574 M 817 596 L 817 597 C 824 597 842.519531 594.175781 839 605 L 846 605 L 845 609 C 853.585938 608.824219 864.195313 606.769531 870 600 C 868.253906 599.109375 866.875 598.546875 865 598 C 869.941406 590.511719 859.566406 590.152344 854 590.015625 C 840.78125 589.691406 829 590.265625 817 596 M 784 629 C 787.3125 628.144531 790.609375 627.4375 794 627 L 794 628 C 789.421875 630 782.832031 632 780 636 C 786.460938 636.375 792.613281 636 799 635 C 805.433594 634 821.855469 633.765625 826.246094 628.546875 C 828.570313 625.78125 823 625.078125 822.183594 623.441406 C 820.433594 620.398438 821.75 612.617188 815.816406 611.410156 C 806.628906 609.539063 787.675781 621.183594 784 629 M 844 654 C 840 661.292969 834.527344 667.546875 831 675 C 844.824219 674.28125 851.257813 661.359375 857.859375 651 C 861.300781 645.605469 865.925781 638.363281 857.453125 634.589844 C 845.453125 629.238281 833 652.007813 844 654 M 272 635 C 275.757813 653.164063 282.789063 670.097656 281.960938 689 C 281.289063 704.34375 274.644531 718.746094 273.171875 734 C 271.824219 748 275 762.449219 271 776 C 266.195313 769.257813 266.691406 758.011719 265.835938 750 C 263 724.164063 269.621094 698.027344 268.984375 672 C 268.730469 661.625 265.824219 644.039063 272 635 M 1154 635.785156 C 1147.929688 638.09375 1151.773438 648.292969 1157.890625 646.339844 C 1164.664063 644.175781 1160.90625 633.265625 1154 635.785156 M 859 638 L 858 639 L 859 638 M 883 665 C 879.855469 665.40625 877.710938 666.347656 875 668 L 875 669 C 878.703125 671 894.386719 674.449219 895.230469 678.691406 C 896.203125 683.589844 877 683.136719 879.347656 687.273438 C 880.941406 690.257813 891.9375 690.15625 895 690.574219 C 912 693 933.320313 690.164063 939 671 C 933.828125 672.414063 928.730469 674.480469 924 677 C 925.300781 673 926.632813 669.210938 927 665 C 923.734375 665.675781 918.585938 668.078125 915.316406 667.097656 C 912.480469 666.242188 913.535156 662.628906 911.972656 660.742188 C 909.402344 657.644531 904 660.035156 901 661 C 908.878906 650 908 646.289063 895 649 L 897 642 C 892.722656 642.578125 871.839844 645.410156 871.597656 650.148438 C 871.296875 656 879.90625 660.796875 883 665 M 175 644 L 173 648 L 172 648 C 172.9375 646.050781 173.390625 645.449219 175 644 M 456 647 C 463.820313 660.398438 466.386719 675.40625 471 690 C 479.601563 717 493.773438 744.0625 485.570313 773 C 477.671875 801 451.652344 818 430 834.652344 C 420.59375 842 411.847656 851 401 856 C 406 846.300781 417 839.269531 425 832 C 444.585938 813.667969 468 793 472.5625 765 C 476 742.433594 458.472656 720 458 697 L 457 697 C 457 723.207031 465.484375 750.253906 457.253906 776 C 448.769531 802.542969 423 820.648438 403 838.285156 C 393 847 382.347656 861.214844 370 866 C 389.695313 832 430.449219 812.394531 442.972656 773 C 447.652344 758.273438 445 743.105469 446 728 C 447 713.511719 451.917969 699.476563 452.910156 685 C 453.703125 673.410156 449.769531 657.386719 456 647 M 1154 653.785156 C 1147 656.328125 1150.1875 669.148438 1157.941406 666.378906 C 1164.96875 664 1161.667969 651.050781 1154 653.785156 M 757 676 C 768.203125 675 760 667.75 757 676 M 768 679 C 763.746094 679.824219 756.621094 680.171875 755 685.109375 C 754 688.144531 756.816406 702.792969 760.976563 702.792969 C 764.933594 702.792969 767.542969 682.390625 768 679 M 988.433594 683.03125 C 983.367188 686.40625 988.398438 695 993.851563 692 C 999.90625 688.648438 993.9375 679.367188 988.433594 683.03125 M 1091 683.046875 C 1084.585938 686.429688 1089.277344 697.191406 1095.851563 693.777344 C 1101.890625 690.640625 1097.6875 679.636719 1091 683.046875 M 1009 692.800781 C 1002.65625 695 1006.738281 705 1012.890625 703 C 1019.566406 701 1015.230469 690.746094 1009 692.800781 M 265 693 C 263.703125 709.441406 257.425781 724.75 255.289063 741 C 253.171875 757.101563 255 773 255 789 L 254 789 C 240.945313 764.230469 240.277344 711.210938 265 693 M 448 693 C 439.414063 723.246094 432.839844 760.710938 411.710938 785 C 397 801.800781 376.453125 811.328125 359 824.652344 C 347.828125 833.183594 338.820313 846 326 852 C 340.644531 817.0625 379.589844 802.792969 400.84375 774 C 414 756.160156 421.238281 735.128906 432 716 C 436.609375 708.183594 440.644531 698.429688 448 693 M 1093 706 C 1087 707.738281 1089.886719 718.09375 1095.90625 716.289063 C 1101.976563 714.46875 1099.382813 704 1093 706 M 1076 706.800781 C 1069.417969 707.554688 1070.320313 717.816406 1076.960938 717.621094 C 1083.820313 717.425781 1082.898438 706.019531 1076 706.800781 M 767 743 C 767.753906 737.414063 769.59375 732.253906 771.574219 727 L 774.574219 719 C 777.429688 711.324219 772.335938 703.105469 764.511719 710.652344 C 757.570313 717.347656 758.5625 738.199219 767 743 M 624 734 C 621.867188 741.253906 616.929688 747.601563 613 754 L 612 754 C 614.785156 747 618.179688 739.183594 624 734 M 750.390625 749.347656 C 736.917969 753.640625 750.746094 779.828125 753.878906 787 C 755.382813 790.433594 758.363281 795 762.816406 793.351563 C 765.546875 792.390625 766.929688 789.316406 768.28125 787 C 775.722656 774.277344 770 769.65625 761.601563 759 C 759.488281 756.363281 754.597656 748.003906 750.390625 749.347656 M 1284 758 L 1283 759 L 1284 758 M 610 759 L 609 760 L 610 759 M 609 761 L 608 765 L 607 765 C 607.5625 763.246094 607.917969 762.457031 609 761 M 890 770 C 884.328125 771.601563 885.746094 781.382813 891.960938 780.027344 C 898.484375 778.609375 896.519531 768 890 770 M 866 779.800781 C 859.761719 782 863.578125 791.8125 869.851563 789.378906 C 875.519531 787.179688 871.878906 777.832031 866 779.800781 M 776 847 C 784.230469 840.179688 787.351563 828.171875 792.308594 819 C 794.398438 815.128906 797.902344 810.664063 797.421875 806 C 796.898438 801 792.210938 796.671875 789 793 C 786.167969 789.433594 781.636719 780.539063 776 781.175781 C 770.644531 781.789063 765.933594 792.3125 765.371094 797 C 764.875 801.15625 767.226563 805 767.828125 809 C 769.730469 821.761719 770.714844 835.058594 776 847 M 687 782 C 685.898438 783.457031 685.457031 784 684 785 C 685 783.542969 685.542969 783.101563 687 782 M 905.230469 784.03125 C 899.820313 787.242188 904.242188 796 909.851563 793 C 915.796875 789.828125 911.324219 780.414063 905.230469 784.03125 M 1042 803 C 1039.285156 793.777344 1034 789 1047 790 C 1035.964844 776 1001 782.242188 988 790.699219 C 984.398438 793.019531 970.515625 803.65625 973.300781 809.144531 C 974.296875 811.097656 978.1875 811.183594 980 812 C 985.730469 814 990.804688 820.351563 996.90625 815.566406 C 998.972656 814 1002.503906 806.054688 1005 806.054688 C 1010 806.054688 1009.921875 819.742188 1017.957031 818.027344 C 1024.714844 816.589844 1022.660156 807.402344 1025.742188 803.136719 C 1029.972656 797.289063 1036.699219 801.488281 1042 803 M 224 784 C 219.597656 803.03125 205.914063 819.234375 204.175781 839 C 202.375 859.433594 214.398438 879.753906 212.910156 901 C 210.226563 939.296875 165 961 131 961 L 131 960 C 158.765625 953.574219 193.4375 937.191406 200.761719 907 C 206 885.371094 193 865.394531 193 844 C 193 827.722656 205.519531 813 213.996094 800 C 217.4375 794.773438 219.71875 788.574219 224 784 M 667 791 L 666 792 L 667 791 M 495 795 C 494.171875 804.433594 488.753906 813.25 485.425781 822 C 478.507813 840.167969 471.429688 859.429688 470 879 C 468 907.144531 484.324219 932.351563 493 958 C 482.199219 952.277344 476.964844 937.421875 471.753906 927 C 465.796875 915.089844 460 903.386719 458.289063 890 C 455.195313 866.199219 466.953125 842.179688 478 822 C 483 813 486.566406 801.507813 495 795 M 665 799 L 664 803 L 667 802 C 664.246094 807 661.769531 811.570313 660 817 L 659 817 C 658.511719 814.078125 659 814.488281 657 815 C 659.742188 809.785156 661.882813 804 665 799 M 520 802 C 519.207031 811.078125 514.542969 819.453125 511.667969 828 C 505.523438 846.257813 498.890625 865.582031 498 885 C 496.511719 920 517.703125 947.410156 528 979 C 517.878906 973.296875 511 958.699219 505.203125 949 C 495.992188 934 487.90625 918 486.171875 900 C 484 878 493.183594 855.777344 501.71875 836 C 506.613281 824.65625 511 811 520 802 M 1380 817 L 1379 818 L 1380 817 M 538 827 C 531.734375 852.425781 523.652344 881.625 527.429688 908 C 530.246094 927.691406 540.625 944.226563 546.277344 963 C 553.617188 987.363281 552 1013.0625 543.996094 1037 C 540.394531 1047.570313 536.289063 1061.144531 527 1068 C 535.941406 1041.574219 544.496094 1018.570313 539.714844 990 C 536.34375 970 524.320313 952.601563 519 933 C 512.632813 908.238281 517.574219 882 525.328125 858 C 528.519531 848.179688 530.238281 834.308594 538 827 M 1232 827 C 1249 853.15625 1222.230469 882.289063 1222 910 C 1204 894.414063 1221 864.066406 1226.640625 847 C 1228.699219 840.625 1227.679688 832.277344 1232 827 M 452 833 C 451.789063 843.136719 448 853 448 863 C 447.671875 891.039063 452.742188 921.660156 440.691406 948 C 429.675781 972.074219 409.261719 989.523438 391 1008 C 380.222656 1019 371.210938 1034.238281 357 1041 C 377 1003.378906 415.660156 978.121094 430 937 C 441.429688 905 424.820313 860 452 833 M 1272.667969 835.667969 C 1272.722656 835.722656 1272.777344 836.777344 1272.332031 836.332031 C 1272.277344 836.277344 1272.222656 835.222656 1272.667969 835.667969 M 1274 839 L 1274 846 L 1273 846 C 1273 843.457031 1273 841.332031 1274 839 M 684 847 L 683 848 L 684 847 M 1275 847 L 1275 867 L 1274 867 C 1274 860.832031 1272.601563 852.714844 1275 847 M 630 856 C 628.273438 860.148438 626 864.027344 624 868 L 623 868 C 624.34375 863.339844 626.421875 859.304688 630 856 M 417 859 C 403.695313 898.070313 356 916.78125 329 945 C 322.292969 952.058594 316 960.234375 311.808594 969 C 309.355469 974 308.796875 980.828125 304 984 C 306.734375 973.425781 308.871094 963 313.808594 953 C 328.46875 923.679688 355.410156 903 381 883.625 C 391.765625 875.503906 403.503906 862.09375 417 859 M 433 863 C 429.417969 880.347656 423.398438 898 412.332031 912 C 393.414063 936.046875 365.28125 951.199219 344 973 C 325.855469 991.613281 315.910156 1016 303 1038 L 302 1038 C 309 1004.015625 329 969 354 945.039063 C 367.730469 932 384.476563 922.359375 398 909 C 406.6875 900.410156 414.519531 891.15625 421.328125 881 C 425.265625 875.132813 427.789063 867.8125 433 863 M 314 868 L 313 869 L 314 868 M 379 870 C 372 878.390625 359.898438 882 351 888.027344 C 332.648438 900.519531 315.59375 916.003906 303.8125 935 C 289.253906 958.484375 291.398438 981.410156 285.347656 1007 C 277.730469 1039.1875 251.722656 1071.199219 220 1082 C 224.273438 1076.199219 230.757813 1072.769531 236 1068 C 247.207031 1057.523438 258 1046 264.679688 1032 C 275.460938 1009.257813 271.730469 983.570313 279 960 C 292.914063 915.132813 336 884.539063 379 870 M 1331.667969 874.667969 C 1331.722656 874.722656 1331.777344 875.777344 1331.332031 875.332031 C 1331.277344 875.277344 1331.222656 874.222656 1331.667969 874.667969 M 1275 881 L 1275 898 L 1274 898 C 1274 892.636719 1272.914063 886 1275 881 M 1251 968 C 1232.558594 954.378906 1242.746094 929.027344 1246.195313 911 C 1247.386719 904.769531 1247.203125 898.304688 1248 892 C 1254.496094 895.5625 1257 905 1256.945313 912 C 1256.585938 931.171875 1250 948.425781 1251 968 M 670 894 L 669 895 L 670 894 M 668.667969 898.667969 C 668.722656 898.722656 668.777344 899.777344 668.332031 899.332031 C 668.277344 899.277344 668.222656 898.222656 668.667969 898.667969 M 565 903 L 565 904 L 561 903 C 562.660156 902.59375 563.242188 902.691406 565 903 M 668 903 L 668 906 L 667 906 C 667.25 904.546875 667.316406 904.246094 668 903 M 1328 904 L 1330 910 L 1329 910 C 1328.210938 907.78125 1327.589844 906.273438 1328 904 M 1330.667969 911.667969 C 1330.722656 911.722656 1330.777344 912.777344 1330.332031 912.332031 C 1330.277344 912.277344 1330.222656 911.222656 1330.667969 911.667969 M 667 914 L 666 915 L 667 914 M 1332 914 L 1331 915 L 1332 914 M 1332.667969 916.667969 C 1332.722656 916.722656 1332.777344 917.777344 1332.332031 917.332031 C 1332.277344 917.277344 1332.222656 916.222656 1332.667969 916.667969 M 1333.667969 919.667969 C 1333.722656 919.722656 1333.777344 920.777344 1333.332031 920.332031 C 1333.277344 920.277344 1333.222656 919.222656 1333.667969 919.667969 M 665 922 L 665 926 L 664 926 C 664.175781 924.316406 664.316406 923.507813 665 922 M 1034 926 L 1034 930 L 1033 930 C 1033.175781 928.316406 1033.316406 927.507813 1034 926 M 888 929 L 887 930 L 888 929 M 1032.667969 932.667969 C 1032.722656 932.722656 1032.777344 933.777344 1032.332031 933.332031 C 1032.277344 933.277344 1032.222656 932.222656 1032.667969 932.667969 M 1266 933 C 1271.84375 951 1281.285156 967.308594 1302 969 L 1302 970 C 1280.925781 981.804688 1248.277344 953.105469 1266 933 M 1339 934 L 1341 942 L 1340 942 C 1339 939.183594 1338 937 1339 934 M 602 936 C 602.574219 964 615.601563 989.457031 612.828125 1018 C 610.277344 1044.28125 594.484375 1067.15625 591 1093 L 592 1093 C 613 1058.648438 630.480469 1017 621.996094 976 C 619.308594 963.050781 612.964844 944.09375 602 936 M 872.667969 936.667969 C 872.722656 936.722656 872.777344 937.777344 872.332031 937.332031 C 872.277344 937.277344 872.222656 936.222656 872.667969 936.667969 M 1077 938.4375 C 1080.480469 937.390625 1084.621094 938.703125 1088 939 C 1093.808594 939.511719 1101.230469 940.25 1105.605469 944.53125 C 1113.9375 952.683594 1111.742188 975.785156 1114.628906 987 C 1116.96875 996.085938 1123.824219 1005.414063 1123.640625 1015 C 1123.503906 1022.144531 1115.855469 1029.765625 1109 1031.089844 C 1101 1032.632813 1101 1020.121094 1099.996094 1015 C 1096 996 1090 977 1082.421875 959 C 1080.8125 955.238281 1070.824219 940.429688 1077 938.4375 M 896 941 L 895 942 L 896 941 M 1342 943 L 1341 944 L 1342 943 M 901 947 L 905 953 C 902.652344 951.226563 900.914063 950 901 947 M 1016.667969 949.667969 C 1016.722656 949.722656 1016.777344 950.777344 1016.332031 950.332031 C 1016.277344 950.277344 1016.222656 949.222656 1016.667969 949.667969 M 125 951.332031 C 125.773438 951.332031 125 951.832031 124.667969 951.667969 L 125 951.332031 M 390 953 C 389.453125 954.636719 389.636719 954.453125 388 955 C 388.546875 953.363281 388.363281 953.546875 390 953 M 477 972 C 477.945313 994 499.40625 1027.113281 476 1044 C 476 1035.316406 477.761719 1026.730469 476.824219 1018 C 475.347656 1004.183594 465.300781 984.105469 477 972 M 1007 982 C 1011 999.347656 1019.449219 1015.382813 1022.738281 1033 C 1026 1051.328125 1024 1070.402344 1024 1089 L 1025 1089 C 1028.527344 1082.269531 1029.332031 1074.394531 1030.800781 1067 C 1036.1875 1040 1035.859375 997 1007 982 M 469 1000 C 479.746094 1028.691406 459 1058.816406 432 1068 C 437.757813 1057 449.664063 1050.542969 455.214844 1039 C 460.902344 1027.164063 459.4375 1009.472656 469 1000 M 866 1001 C 836.992188 1022 811.460938 1075.832031 833.75 1109 C 842 1121.277344 853.683594 1130.558594 863.996094 1141 C 868.980469 1146.046875 875 1152.242188 873.65625 1160 C 871.1875 1173.734375 853.277344 1179.28125 842 1183.308594 C 803.179688 1197.171875 771 1217.335938 771 1263 C 771 1282.277344 772.777344 1311.414063 798 1314 C 792.84375 1306.742188 784.871094 1302.753906 781.699219 1294 C 769 1259.03125 793.320313 1215.808594 825 1200 C 845.261719 1190 876.335938 1191 886.660156 1167 C 895.550781 1146.40625 883.519531 1121.769531 870.535156 1106 C 863.9375 1098 853.925781 1092 852.300781 1081 C 849.675781 1063.230469 854.742188 1044 859.578125 1027 C 861.648438 1019.753906 867.6875 1008.398438 866 1001 M 927 1023 C 927.253906 1053.628906 943.640625 1092.355469 969 1110.214844 C 979.640625 1117.707031 1007 1128.121094 1015 1112 C 976.234375 1119.195313 956.902344 1073.476563 941.425781 1046 C 936.945313 1038.050781 934.601563 1028.644531 927 1023 M 814 1026 C 794.394531 1051.507813 785 1089.644531 810 1115 C 814.65625 1119.707031 819.570313 1124.09375 826 1126 C 819.390625 1108.539063 805.503906 1096 805 1076 C 804.738281 1064.742188 807 1053.757813 810.292969 1043 C 811.800781 1038 815.863281 1031.246094 814 1026 M 243 1050 C 241.171875 1052.21875 239.484375 1053.546875 237 1055 C 238.828125 1052.652344 240.363281 1051.382813 243 1050 M 926 1057 C 925.398438 1071 921.65625 1085.078125 920 1099 C 916.945313 1129.089844 921.355469 1161.585938 889 1176 L 889 1177 C 908 1179.390625 917 1165.535156 922.667969 1149 C 932.238281 1120.296875 930.351563 1086.792969 928 1057 L 926 1057 M 232 1059 C 230 1061.445313 228.761719 1062.699219 226 1064 C 227.828125 1061.78125 229.515625 1060.453125 232 1059 M 682 1095 C 680.703125 1125.09375 654.597656 1147.324219 642 1173 C 626.417969 1205.261719 627.269531 1235.449219 630 1270 L 632 1270 C 632 1244.019531 634.335938 1218 645.308594 1194 C 655 1172.550781 671.351563 1154.339844 679.300781 1132 C 683.566406 1120.015625 684 1107.5625 684 1095 L 682 1095 M 1092 1128 C 1066 1147.773438 1066 1184 1066 1213 L 1065 1213 C 1064.75 1201 1061.945313 1189.003906 1061 1177 L 1059 1177 C 1058.921875 1186.324219 1055.730469 1195.695313 1056.210938 1205 C 1057.589844 1232 1074 1267.105469 1099 1280 C 1097.921875 1267.648438 1092.746094 1255.082031 1089.882813 1243 C 1085.242188 1223.410156 1082 1203.140625 1082 1183 C 1082 1171.632813 1082.976563 1160 1086.519531 1149 C 1088.445313 1143.089844 1093.816406 1134.144531 1092 1128 M 368 1130 L 367 1131 L 368 1130 M 501 1130 L 500 1131 L 501 1130 M 831 1291 C 828 1282.28125 823.722656 1274.21875 822.296875 1265 C 817.921875 1236.71875 835 1219.097656 850 1198 C 804.910156 1200.339844 789.195313 1271.507813 831 1291 M 1067 1214 L 1067 1218 L 1066 1218 C 1066.175781 1216.316406 1066.316406 1215.507813 1067 1214 M 982 1378 C 978.890625 1372.015625 971.496094 1370.710938 966 1367.382813 C 957 1362.007813 949.238281 1355.300781 944.328125 1346 C 924.1875 1308 960.296875 1261.054688 989 1240 C 999.355469 1232.246094 1015.972656 1226.6875 1024 1217 C 1013.605469 1218.402344 1004.40625 1223.371094 995 1227.691406 C 965 1241.402344 936 1263 924.691406 1295 C 916.976563 1316.675781 917.667969 1345.226563 936 1361.699219 C 949.605469 1374 965.359375 1374 982 1378 M 875 1335 C 871.175781 1326.800781 863 1322.273438 860.664063 1313 C 859.234375 1307.398438 858.785156 1301.769531 859 1296 C 860.796875 1256 898.976563 1252 928 1239 C 920.910156 1236.054688 911 1241.246094 904 1242.789063 C 888.363281 1246.1875 871 1250.082031 860.328125 1263 C 843.4375 1283.382813 847.988281 1325.636719 875 1335 M 985 1351 C 980.203125 1342.699219 972.46875 1337 968.324219 1328 C 960.929688 1312.195313 964.191406 1295.097656 971.808594 1280 C 975 1273.464844 980.667969 1268.390625 982 1261 C 975.941406 1264 971.289063 1270.703125 967.234375 1276 C 950 1298.328125 944.558594 1325.148438 970 1343.421875 C 974.703125 1346.796875 979.222656 1350 985 1351 M 1031 1288 C 1038.667969 1320.285156 1076.320313 1327.738281 1101 1342.453125 C 1112.269531 1349.171875 1119.761719 1358.273438 1127 1369 L 1128 1369 C 1125 1333.1875 1083.183594 1322.078125 1057 1307.6875 C 1047.273438 1302.34375 1040.28125 1293.808594 1031 1288 "/>
</g>
</svg>
