<?xml version="1.0" encoding="UTF-8"?>
<svg xmlns="http://www.w3.org/2000/svg" xmlns:xlink="http://www.w3.org/1999/xlink" width="1500pt" height="1500pt" viewBox="0 0 1500 1500" version="1.1">
<g id="surface1">
<path style=" stroke:none;fill-rule:nonzero;fill:rgb(0%,0%,0%);fill-opacity:1;" d="M 437 696 L 438 696 C 441.40625 722.390625 451.574219 748.433594 461.398438 773 C 465.617188 783.539063 472 793.820313 474.480469 805 C 476.210938 813.140625 474.1875 821.773438 475.183594 830 C 475.929688 836.15625 479.324219 841.71875 479.539063 848 C 479.785156 855.027344 477.1875 862 477 869 C 476.828125 880.601563 478.472656 892.296875 477.960938 904 C 477 924.617188 473.503906 945.378906 472 966 C 470.21875 993.320313 473 1022.433594 465.574219 1049 C 459.3125 1071 451.550781 1095 440.691406 1115 C 425.234375 1143.597656 405.460938 1168.601563 393.398438 1199 C 386.960938 1215.222656 370 1238 378.363281 1256 C 383.183594 1266.515625 391.9375 1259.722656 394.929688 1252 C 399 1241.164063 399 1229.140625 402 1218 C 404 1211.011719 408.652344 1205.480469 411.675781 1199 C 415.238281 1191.367188 417 1183.328125 421.453125 1176 C 435.863281 1151.777344 465.648438 1123.539063 467 1094 L 468 1094 C 468 1149.238281 473 1205.15625 493.601563 1257 C 497.683594 1267.300781 501.519531 1277.699219 505.601563 1288 C 507.277344 1292.226563 508.300781 1298.222656 512 1301 C 509.996094 1286.132813 502.828125 1272.335938 498.710938 1258 C 491.3125 1232.261719 485.921875 1205.742188 484 1179 C 482 1149 489.996094 1118.777344 492.828125 1089 C 495 1066 492 1042.191406 493 1019 C 494 994.296875 497.9375 969.710938 499 945 L 497 945 C 491.644531 987.378906 483 1031.25 483 1074 L 482 1074 C 482 1023.480469 488.445313 973.328125 491.910156 923 C 493.59375 898.539063 491.933594 873.265625 495 849 L 496 849 C 499.371094 860.699219 508.75 869.429688 512.644531 881 C 516.679688 893 516.238281 905.574219 517 918 C 517.96875 931 520.304688 943.035156 519.984375 956 C 519.671875 969 514 979.027344 510.441406 991 C 506.867188 1003 506.320313 1016.714844 508.304688 1029 C 510.523438 1042.761719 528.25 1044.597656 530.671875 1058 C 534.734375 1080.511719 511.859375 1111.625 525.703125 1132 C 529.476563 1137.535156 538.480469 1146.265625 544 1150.03125 C 548.773438 1153.234375 554.578125 1154.175781 558.824219 1158.214844 C 566 1165.132813 568.863281 1175.421875 575.324219 1183 C 587.167969 1197 610.546875 1203.28125 628 1198.511719 C 639.214844 1195.445313 647.492188 1186.800781 656 1179.425781 C 659.503906 1176.386719 663.976563 1170.242188 669 1170.199219 C 679 1170.109375 687.871094 1184 696 1188.652344 C 709.667969 1196.617188 727.507813 1198.28125 743 1199 C 761.960938 1199.789063 785.84375 1198.414063 803 1189.625 C 812.222656 1185 819.4375 1172.035156 830 1170.335938 C 835.324219 1169.480469 839.480469 1175.613281 843 1178.714844 C 851.910156 1186.566406 861 1196 873 1198.761719 C 890.21875 1203 913 1196.679688 924.671875 1183 C 931 1175.457031 933.644531 1165 941.175781 1158.390625 C 951.640625 1149.199219 966 1145.703125 974 1133 C 987.660156 1111.828125 965 1081 969.214844 1058 C 971.574219 1045.101563 989 1043.15625 991.675781 1030 C 997.542969 999.5 979.28125 974 980 944 C 980.503906 924 980.941406 899.0625 987.355469 880 C 991.207031 868.558594 1001.875 860 1004 848 L 1005 848 C 1006.878906 871.796875 1006.457031 895.203125 1008 919 C 1011.789063 973 1018 1027 1018 1081 L 1017 1081 C 1017 1035.433594 1005.949219 990.402344 1004 945 L 1002 945 C 1002 976.738281 1006.574219 1008.328125 1007.960938 1040 C 1008.65625 1056 1005.648438 1072 1007.171875 1088 C 1010.457031 1122.535156 1017.296875 1157.148438 1014.910156 1192 C 1012.300781 1230.097656 995.445313 1265.167969 987 1302 C 991.203125 1299.222656 992.351563 1293.484375 994.28125 1289 C 998.949219 1278.140625 1003 1267.046875 1007.191406 1256 C 1026.734375 1204.445313 1032 1149.671875 1032 1095 L 1033 1095 C 1034.683594 1115.617188 1050.960938 1134.441406 1062 1151 C 1079 1176.539063 1095.65625 1204.683594 1102.652344 1235 C 1104.351563 1242.363281 1105.703125 1252 1110.636719 1258 C 1113.328125 1261.144531 1118 1262.804688 1120.910156 1258.769531 C 1129.726563 1246.277344 1117.9375 1222.386719 1112.246094 1211 C 1104 1194.75 1098.21875 1177.492188 1088.574219 1162 C 1076.769531 1143.039063 1061.523438 1126.191406 1053.679688 1105 C 1045.632813 1083.246094 1035.835938 1061.066406 1032.273438 1038 C 1027.976563 1010.175781 1030.503906 981.078125 1027.828125 953 C 1025.203125 925.402344 1024.171875 898.644531 1022.960938 871 C 1022.640625 863.664063 1020 856.367188 1020.261719 849 C 1020.46875 842.367188 1024 836.488281 1024.816406 830 C 1025.699219 822.722656 1024.183594 815.246094 1025.464844 808 C 1027.410156 797 1033.296875 787.199219 1037.574219 777 C 1047.722656 752.804688 1061.78125 720.492188 1062 694 C 1066.589844 709.523438 1064.707031 728.738281 1067.433594 745 C 1071.9375 772 1079.472656 798 1087.28125 824 C 1092.53125 841.507813 1096.851563 859.648438 1105.257813 876 C 1124 912.511719 1171.4375 896.574219 1187.6875 867 C 1200.488281 843.707031 1202.710938 817 1200.910156 791 C 1200 779.039063 1199 768.027344 1198.996094 756 C 1198.933594 750.679688 1197.476563 746 1200.214844 741 C 1216 712.441406 1249.441406 695.164063 1270.714844 671 C 1309.367188 627.09375 1333.1875 579.191406 1356 526 C 1367.671875 498.785156 1387.621094 473.167969 1377.972656 442 C 1360 384.382813 1313.609375 354.832031 1264 327.140625 C 1221.816406 303.59375 1178.171875 281.28125 1137 256.074219 C 1123.644531 248 1115.925781 233.765625 1104.984375 223.039063 C 1092.945313 211.238281 1078 203.65625 1064 194.773438 C 1056.679688 190.160156 1050.183594 184.167969 1042 181.066406 C 1025 174.625 1010.863281 186 995 190.074219 C 986.804688 192.222656 978 190.226563 970 188.117188 C 949.257813 182.644531 930.207031 172.585938 909 168.609375 C 881.542969 163.464844 853.382813 164.589844 826 158.789063 C 797.519531 152.757813 771.683594 140.289063 742 141.015625 C 719.628906 141.5625 698.625 153.183594 677 157.789063 C 646.96875 164.183594 616 163.453125 586 169.601563 C 564.339844 174.027344 544.609375 184.8125 523 189.574219 C 499.488281 194.757813 479.898438 172.683594 457 181.09375 C 449 184.023438 442.980469 190.324219 436 195 C 423 203.382813 409.496094 210.824219 398 221.171875 C 381 236.332031 370.5 252.601563 350 263.691406 C 306.230469 287.367188 262.726563 310.566406 220 336.199219 C 183.742188 358 146.546875 384 128.863281 424 C 123.335938 436.5 119 450.199219 120 464 C 121.652344 486.292969 135.652344 506 143.988281 526 C 165.714844 578.363281 188.695313 624.722656 226.28125 668 C 248 693.015625 277.757813 711.058594 297.238281 738 C 307 751.566406 300 776.414063 299 792 C 297 820.742188 300.320313 855.394531 320.183594 878 C 342.960938 904 381 905 396.691406 871 C 404 855 407.996094 837.753906 413.34375 821 C 426.347656 780.261719 437 739.003906 437 696 M 950 204 C 940.992188 205.140625 932 205 923 205 L 923 207 C 935.402344 207 947.601563 209 960 209 C 964.816406 209 972.714844 207.511719 976.773438 210.601563 C 981.820313 214.441406 981.601563 223.40625 983.347656 229 C 987.679688 243 993.390625 256.207031 1000.308594 269 C 1030.46875 324.761719 1068.652344 376.339844 1077 441 L 1076 441 C 1070.964844 416.597656 1066 377 1037 370 C 1045.339844 382.359375 1056.199219 393.15625 1062 407 C 1070.289063 426.054688 1073.621094 447.59375 1076.28125 468 C 1077.429688 476.820313 1080 486.117188 1079.980469 495 C 1079.882813 502.539063 1076.210938 509.492188 1076 517 C 1075.90625 524.105469 1079.316406 531 1078.816406 538 C 1076.871094 565.542969 1069.933594 592.085938 1064.210938 619 C 1056.578125 655 1049.3125 691 1038.71875 726 C 1030 754.746094 1018 782.464844 1006.28125 810 C 1003.917969 815.480469 998.285156 834.347656 992.730469 836.652344 C 990.210938 837.699219 990 833.382813 990 832 C 990.289063 826.214844 992.859375 820.417969 994.667969 815 C 1003.488281 788.535156 1007.742188 759.820313 1008.960938 732 C 1009.253906 725.316406 1009.867188 717.492188 1008 711 C 1007.566406 709.171875 1005.578125 703.09375 1002.699219 705.636719 C 998.988281 709 1000 718.519531 999.410156 723 C 996.964844 738.691406 994.3125 754.390625 991.390625 770 C 987.515625 790.679688 979.785156 810.371094 975.804688 831 C 973 845.507813 973.40625 860.363281 971.835938 875 C 968.886719 902.421875 964.953125 928.464844 965 956 C 965 963.492188 965.234375 971.660156 966.820313 979 C 968 985.105469 972 989.484375 974.671875 995 C 980.355469 1007.078125 980.523438 1032.664063 964 1036 C 967 1023.046875 958.859375 1014.765625 959 1003 C 959.328125 994.738281 965.582031 987.488281 963.210938 979 C 960.976563 971 953.957031 965.222656 952.472656 957 C 950.339844 945.183594 958.476563 936.117188 950 925 C 945.914063 937.5625 944.511719 950.277344 949 963 C 951.679688 970.195313 957.367188 976.210938 958.292969 984 C 959.171875 991.433594 954.367188 997.765625 954 1005 C 953.84375 1014.046875 960.324219 1021.707031 959.960938 1031 C 959.472656 1043.378906 952.503906 1054.410156 953 1067 C 953.75 1083.679688 964.980469 1101.214844 958.53125 1118 C 953.59375 1131 940.175781 1135.003906 931 1144.089844 C 923.324219 1152 920.375 1162.683594 913.332031 1171 C 905.617188 1180 886 1186.308594 875 1181 C 879.988281 1177.375 879 1176.082031 874 1173 C 875.621094 1170.253906 877.910156 1167.386719 876.882813 1164.015625 C 875 1158.089844 865.21875 1156.125 865.375 1164.003906 C 865.4375 1167.128906 867.839844 1170.183594 869 1173 C 853.875 1170.734375 848.519531 1155.8125 840 1145.015625 C 836.65625 1140.597656 831.773438 1137.546875 828.511719 1133 C 826 1129.628906 825.46875 1125.113281 821.890625 1122.605469 C 816.617188 1119 810.640625 1124.003906 805 1123.441406 C 797.695313 1122.714844 799.753906 1119 795.566406 1116 C 793.664063 1114.507813 790.320313 1117 787.984375 1116.238281 C 781.738281 1114.574219 776.695313 1107.574219 774.183594 1102 C 770.46875 1093.738281 773.84375 1081.289063 783 1077.742188 C 786.238281 1076.496094 793 1079.199219 795 1075.683594 C 796.574219 1073 792.65625 1070.527344 791 1069 C 804.726563 1061.3125 810.371094 1084 823.394531 1071.359375 C 827 1068 822.539063 1058.636719 823.328125 1054 C 824.90625 1044.742188 832.203125 1035.546875 837.433594 1028 C 846.523438 1015 859.671875 1004.457031 867.882813 991 C 879 972.761719 879.199219 943.699219 881.171875 923 C 881.929688 915.015625 884 903.65625 880.992188 896 C 876.445313 884.789063 857.195313 879 848 871.601563 C 833 859.667969 814.777344 848 795 847.039063 C 780.175781 846.386719 765.761719 851.507813 751 852 C 734.300781 852.285156 717.789063 846.492188 701 848.171875 C 678.851563 850.386719 662.625 865.039063 645 877 C 638.710938 881.226563 631 883.210938 625 887.789063 C 615.441406 895.015625 617.195313 905.550781 617.910156 916 C 619 933.167969 621.503906 949.128906 624.996094 966 C 627 975.734375 628.167969 985.746094 634 994 C 646.960938 1011.636719 663.335938 1025.136719 673.511719 1045 C 675.832031 1049.53125 677.308594 1055 676.824219 1060 C 676.511719 1063.277344 673.855469 1068.59375 676.617188 1071.382813 C 678 1073 680 1072.507813 681.960938 1073 C 684.769531 1073.328125 687.832031 1076.5 690.710938 1075 C 695.636719 1072.199219 695.957031 1064.695313 703.835938 1066.40625 C 708.792969 1067.484375 703.171875 1073.535156 706.421875 1076.085938 C 710 1079 715.582031 1075.355469 719.816406 1078.652344 C 731.773438 1088 727 1105.695313 715.996094 1113.347656 C 711.296875 1116.613281 705.6875 1115.628906 701 1119 L 705 1119 L 705 1120 C 699.796875 1121.203125 694.421875 1124.121094 689 1124 C 684.867188 1123.652344 680.246094 1119.820313 676.394531 1122.757813 C 673 1125.34375 672.699219 1130.609375 670.347656 1134 C 666.964844 1139 661.902344 1142.339844 658.234375 1147.015625 C 649.722656 1158 645.257813 1171 630 1173 C 631.582031 1170.566406 633.992188 1168 634.457031 1165.003906 C 635.710938 1157.0625 623.4375 1156.25 622.660156 1164.003906 C 622.367188 1167 624.601563 1169.640625 626 1172 C 619.503906 1175 618 1177.808594 625 1181 L 625 1182 C 611.730469 1186 593.414063 1179.707031 584.925781 1169 C 579 1161.460938 576.457031 1152 569.90625 1145.015625 C 561 1135.605469 546.671875 1130.597656 541.480469 1118 C 534.625 1101.355469 545.566406 1083.824219 546.253906 1067 C 546.722656 1055.523438 541.371094 1045.203125 540.175781 1034 C 539 1024 545.234375 1016.535156 545.902344 1007 C 546.441406 999.3125 541.742188 992.578125 542 985 C 542.574219 975.132813 549.953125 967.296875 552.570313 958 C 555.703125 947 553 935.078125 551 924 C 542.488281 934.625 549.765625 945.054688 547.671875 957 C 546 966.4375 537.574219 973.492188 536.367188 983 C 535.351563 991.027344 542.3125 998 541.242188 1006 C 539.867188 1016.46875 533.417969 1025.125 536 1036 C 521.207031 1033.3125 520.601563 1006.429688 525.226563 995 C 527.476563 989.433594 531.386719 985.078125 532.53125 979 C 533.882813 972 533.480469 964.242188 534.171875 957 C 536.714844 930.273438 531 902.597656 528 876 C 526.398438 859.503906 526.949219 842.152344 523 826 C 513.421875 785.160156 498.351563 744.636719 498 702 C 487.375 711.109375 490.949219 728.800781 492.574219 741 C 495.199219 760.699219 495.722656 780.695313 501 800 C 504 811.285156 512.4375 826.257813 509 838 C 500.65625 831 496.574219 816 492.28125 806 C 480.988281 779.828125 470.476563 753.316406 462.28125 726 C 451.988281 691.691406 444.253906 657 436.574219 622 C 431 597 424.601563 571.558594 422.171875 546 C 421 535.425781 424.417969 525.414063 423.960938 515 C 423.457031 503.480469 420.523438 492.796875 421 481 C 422.859375 439.484375 436.824219 401.132813 464 370 C 439 374.433594 426.785156 413.148438 425 435 L 424 435 C 424.367188 417.125 432 398.410156 438.601563 382 C 455 340.449219 480.539063 303 502 264 C 508 253.148438 513.4375 241.042969 516.523438 229 C 518 223.191406 517.957031 214.542969 523.214844 210.601563 C 527.320313 207.527344 535 209 540 209 C 552 209 563.929688 207 576 207 L 576 205 C 567 205 558.902344 204.296875 550 205 C 556.699219 195.574219 568.265625 191.375 579 188.289063 C 601.628906 181.789063 624.832031 181.464844 648 178.714844 C 684.65625 174.359375 720.230469 156.113281 757 157.015625 C 773.890625 157.429688 790 165.484375 806 170.28125 C 823.753906 175.628906 841.6875 177.554688 860 179.714844 C 886.710938 183 931.597656 180.011719 950 204 M 710 180 C 700.640625 215.019531 686.800781 245.328125 659 269.714844 C 645 282 625.636719 290 613 303 C 623.320313 304.046875 634 297.3125 643 292.742188 C 671.792969 278 695 253.019531 705.328125 222 C 708.191406 213.3125 719 187 710 180 M 789 180 C 789 240 830 289.726563 888 304 C 885 298.207031 878.359375 296.03125 873 292.796875 C 863.21875 287 853.785156 280.222656 845 273 C 817 249.660156 795.71875 216.542969 791 180 L 789 180 M 823 193 C 826.992188 200.300781 836.296875 205.078125 841.484375 212 C 848.59375 221.480469 850.960938 234.28125 859.183594 243 C 868.511719 252.6875 883 253.789063 895 259 C 903.632813 262.578125 910.972656 269.34375 920 272 C 910.539063 254 883.976563 252.207031 869 240.472656 C 861.472656 234.570313 858.273438 225.816406 853.304688 218 C 845.757813 206.128906 836.441406 197.382813 823 193 M 581 271 C 590.273438 268.328125 598 262.066406 607 258.453125 C 618.316406 254 632 252.144531 640.816406 243 C 649.347656 234 651.691406 220.585938 659.46875 211 C 664.503906 204.792969 672.839844 200.535156 677 194 C 652.269531 195.144531 647.855469 226.53125 632 239.671875 C 616.246094 252.722656 593.449219 253.328125 581 271 M 408 240 C 420.382813 236.414063 430.792969 230.007813 444 230 C 435.207031 247.675781 420.765625 262.515625 411.308594 280 C 390.628906 318.234375 376.621094 360.15625 369.433594 403 C 363 440.394531 362.6875 479.652344 369.425781 517 C 377.488281 561.703125 393.507813 604.585938 397.828125 650 C 400.796875 681.183594 392 714.132813 388.285156 745 C 385.277344 769.414063 387 794.394531 387 819 L 388 819 C 390 810.636719 392.910156 801.542969 393.824219 793 C 394.675781 785.058594 393 777 394.667969 769 C 396.546875 760.140625 400.761719 752 402.382813 743 C 404.960938 728.8125 404.722656 714.261719 407 700 C 410 682.085938 413.570313 664.28125 411.828125 646 C 407.585938 601.417969 390.78125 559.191406 384.273438 515 C 375.804688 457.53125 382.683594 399 401 344 C 406.546875 327.367188 411.277344 310 420.863281 295 C 433.382813 275.582031 451.226563 260.238281 463.996094 241 C 470.5 231.199219 482 205.136719 497.851563 209.332031 C 506 211.527344 492.910156 231.15625 490.71875 235 C 481 252 469.261719 267.335938 457.628906 283 C 452 290.476563 447.675781 299.480469 440 305 C 449 283.082031 465.566406 265.539063 477 245 C 441.238281 282.367188 415.605469 330.183594 399.332031 379 C 392.371094 400 386 422 385 444 C 384 467 389.402344 489.425781 392.726563 512 C 399.5625 558.394531 407.878906 604.566406 414.425781 651 C 416.574219 666.261719 420.859375 681.648438 421.910156 697 C 424.515625 735 412.492188 772.097656 401.71875 808 C 396.246094 826.246094 392.703125 845.636719 384.691406 863 C 375.597656 882.707031 351.996094 886.445313 336 871.816406 C 325.273438 862 320.203125 847 317.398438 833 C 307.765625 785.136719 325.167969 735.246094 323.984375 687 C 323.394531 663 312.746094 640.625 311 617 C 310 603.800781 314.796875 589.386719 319 577 C 314.257813 581.074219 312.703125 587.378906 310.28125 593 C 307 600.292969 303.3125 608 303 616 C 302.359375 636.441406 313.945313 655.53125 314 676 L 313 676 C 309.234375 662.808594 306.847656 645.769531 298 635 C 299.625 648 298.21875 665 305.796875 676 C 307.996094 679.210938 314.523438 685.125 310.394531 689.257813 C 301.679688 698 290.609375 680.546875 286.921875 675 C 285.71875 673.191406 281.578125 666.652344 279.59375 671.207031 C 273 686.105469 298.171875 695 304 702.53125 C 307.925781 707.378906 305.4375 715.480469 305 721 C 298.359375 718 294 711.117188 289 706 C 280.335938 697.296875 270.6875 689.675781 262 681 C 215.996094 635.070313 182.476563 581.371094 158.9375 521 C 150.242188 498.699219 131.179688 476.503906 136.515625 451 C 151.375 380 232 347.8125 288 315 C 303.476563 306 319 297 335 288.742188 C 342 285.035156 348.878906 280.21875 357 279 C 354.957031 286.089844 350.382813 292.015625 348 299 C 380 271.195313 399.601563 233.3125 438 212.230469 C 447.636719 207 455.527344 196.5625 467 195.1875 C 469.433594 195 479.785156 194.710938 479 199.058594 C 478.171875 204.65625 466.699219 211.054688 462 213.121094 C 441.96875 222 424.496094 223.640625 408 240 M 1152 299 C 1151.199219 296.226563 1142.402344 281 1145.621094 279.816406 C 1149 278.585938 1155.253906 283.582031 1158 285.148438 C 1168.925781 291.382813 1180 297.164063 1191 303.421875 C 1217.398438 318.554688 1243.613281 334.003906 1270 349.148438 C 1289.859375 360.550781 1310.96875 371.28125 1326.960938 388 C 1343 404.800781 1363.902344 432.789063 1364.960938 457 C 1366 481.671875 1348.542969 503.273438 1339.425781 525 C 1313.367188 587.097656 1279 645.308594 1228 690.285156 C 1217.839844 699.230469 1207 715.355469 1195 721 C 1194.765625 715.550781 1192.644531 709.203125 1195.316406 704.042969 C 1197.832031 699.195313 1204 698.148438 1208 694.785156 C 1216.261719 687.777344 1220.777344 677.757813 1221 667 C 1214.28125 672 1211.734375 680.113281 1205.816406 685.785156 C 1202.671875 688.800781 1187.910156 694.667969 1187.710938 686 C 1187.578125 680.109375 1195 675.292969 1197.183594 670 C 1201 659.824219 1201 646.785156 1202 636 L 1201 636 C 1196 648.738281 1192.746094 662.703125 1187 675 L 1186 675 C 1187.300781 644.683594 1202 620.824219 1189.28125 591 C 1187.214844 586.207031 1185.664063 580.777344 1182 577 C 1183.503906 588.65625 1190 600.199219 1189.742188 612 C 1189 640 1175.324219 666 1176 694 C 1177 739 1191 785.328125 1183.566406 830 C 1181 844.296875 1176.347656 860.320313 1165.824219 870.824219 C 1148.375 888.253906 1123.179688 881.726563 1113.871094 860 C 1107.238281 844.511719 1104 827.128906 1099.28125 811 C 1087.65625 772.257813 1077.25 732.78125 1079 692 C 1079.539063 680.5625 1083.191406 669.316406 1084.71875 658 C 1090.171875 617.515625 1096.253906 577.269531 1103.25 537 C 1107.484375 512.632813 1113.875 487.757813 1114.960938 463 C 1117.492188 405.21875 1093.421875 347.183594 1063.425781 299 C 1052 280.742188 1040.210938 262.339844 1025 247 C 1036 267.726563 1054.664063 285 1061 308 L 1060 308 C 1048.746094 282 1024.886719 261.304688 1010.203125 237 C 1007 232 995.484375 216.636719 999 210.4375 C 1002.296875 205.023438 1012.761719 211.472656 1016 213.789063 C 1028.628906 222.832031 1034.523438 239.089844 1044 251 C 1056.46875 266.664063 1071.25 280.691406 1081.546875 298 C 1100.679688 330.160156 1109.882813 373.460938 1115.921875 410 C 1122.371094 449.03125 1121.304688 489.242188 1113.550781 528 C 1105.921875 566.144531 1091.875 603.085938 1088.171875 642 C 1085.800781 667 1093.1875 690.4375 1094.910156 715 C 1095.660156 725.691406 1096.269531 736.550781 1098.894531 747 C 1100.976563 755.28125 1105.21875 763.421875 1105.90625 772 C 1107 786.144531 1103.859375 807.351563 1114 819 C 1113.917969 809.273438 1111.886719 799.785156 1112 790 C 1112 777.339844 1114.230469 765.765625 1112.714844 753 C 1108.601563 718.371094 1099.695313 682 1102 647 C 1105.800781 592.789063 1129.679688 542.128906 1134.828125 488 C 1141.546875 417.421875 1121.976563 343.449219 1089.742188 281 C 1080.289063 262.683594 1065.9375 247.828125 1056 230 C 1070 230 1079.871094 236.246094 1093 240 C 1076.21875 223.230469 1056.761719 223.285156 1037 212.675781 C 1033.320313 210.699219 1020.207031 203 1020.207031 198.339844 C 1020.207031 195 1028.8125 195 1031 195.042969 C 1042.554688 195.472656 1050.585938 205.707031 1060 211.128906 C 1098.386719 233.226563 1121.980469 267.632813 1152 299 M 505 221 C 505.421875 217.648438 505 211.070313 507.742188 208.648438 C 510.265625 206.316406 514.242188 209 514 212.039063 C 513.71875 216.589844 508.558594 219.300781 505 221 M 994 221 C 990.851563 219.175781 986.953125 217 986 213.011719 C 985.242188 209.632813 989.28125 206 992.257813 208.648438 C 995 211.265625 994 217.539063 994 221 M 553 213 C 563 226.660156 588.554688 227 604 227 C 594.949219 215.546875 566.773438 213.007813 553 213 M 896 227 C 911.445313 227 936.851563 226.660156 947 213 C 933.273438 213 905 215.71875 896 227 M 736 227 C 728.703125 239.5 722.882813 253.058594 711 262.101563 C 704.539063 267.015625 690.195313 269.039063 686 275 C 707.910156 275 720.941406 268.304688 731.242188 248 C 734.328125 242 738.863281 234 736 227 M 566 228 C 554.527344 236 547.335938 247.613281 537 256.714844 C 504.671875 285.179688 462 315.273438 462 363 L 463 363 C 478.738281 322 505 296 538 267.28125 C 546.867188 259.566406 554.921875 251 561.300781 241 C 563.675781 237.308594 567.226563 232.46875 566 228 M 763 228 C 768.546875 256.59375 785.1875 275 815 275 C 805.695313 267.347656 793.277344 266.378906 784 257 C 776.308594 249.1875 772.28125 233.089844 763 228 M 933 228 C 946 266.453125 988.554688 285.550781 1012 317 C 1019.382813 326.71875 1025.363281 337.148438 1030.753906 348 C 1033 352.761719 1034.535156 360 1039 363 C 1039 317.671875 993.585938 283.644531 963 256.714844 C 953.316406 248.1875 945.542969 232.265625 933 228 M 373 284 C 385.199219 275.40625 393.558594 262.425781 406 253.722656 C 412.59375 249.109375 425.382813 246.152344 430 240 C 407 240.003906 378.71875 261.3125 373 284 M 1070 240 C 1076 247.058594 1086.59375 247.550781 1094 253 C 1106.3125 262 1114.4375 275.410156 1127 284 C 1125.601563 276.777344 1119.921875 271.421875 1115.269531 266 C 1103.261719 252 1089.285156 240.054688 1070 240 M 1023 244 C 1023.683594 245.578125 1023.804688 245.777344 1025 247 C 1024.316406 245.421875 1024.195313 245.222656 1023 244 M 467 295 C 446.644531 342.238281 403 388 402 442 L 401 442 C 401 401.367188 420.308594 361.097656 442.332031 328 C 449.609375 317.0625 456.445313 303.074219 467 295 M 1036 298 C 1064.742188 340.253906 1098.964844 387.429688 1099 441 L 1098 441 C 1096.46875 406 1072.992188 367.144531 1056.691406 337 C 1052 328.59375 1047.464844 320.195313 1042.550781 312 C 1040 307.804688 1035.945313 303.046875 1036 298 M 352 307 C 341.792969 317.664063 332.214844 328.539063 318 334 C 291 344.167969 246.925781 342.609375 237 377 C 247.46875 371.003906 254.589844 360.730469 266 355.320313 C 278.375 349.453125 290.695313 348.324219 304 346.574219 C 308 346.039063 316.230469 344.363281 318.394531 349.226563 C 322.730469 359 310.761719 378.714844 307.667969 388 C 300.5625 409.304688 293.511719 430.621094 286.65625 452 C 282.394531 465.289063 277 477.804688 277 492 L 278 492 C 298 446.515625 313.933594 399.164063 332.398438 353 C 336.679688 342.304688 342 332.007813 347.71875 322 C 350.34375 317.382813 354.199219 312.40625 352 307 M 1146 307 C 1149.734375 323.140625 1161.78125 335.488281 1167.308594 351 C 1183.839844 397.40625 1197.515625 448 1222 491 L 1223 491 C 1222.894531 478.269531 1217.757813 466.015625 1214 454 C 1207 432 1199.65625 410 1192.332031 388 C 1189.246094 378.738281 1186.523438 369.351563 1183.71875 360 C 1182.824219 357.011719 1180.5625 352.265625 1182 349.226563 C 1184.582031 344.429688 1192.777344 346.019531 1197 346.574219 C 1210.40625 348.335938 1222.660156 349.800781 1235 356 C 1245.871094 361.40625 1252.898438 371.214844 1263 377 C 1256.417969 340.527344 1202.972656 345.109375 1178 332.621094 C 1165.554688 326.398438 1158.1875 312.683594 1146 307 M 797 310 C 797 326.101563 797.390625 342.582031 791.910156 358 C 786.558594 373.050781 775.433594 387.242188 777 404 C 778 413.121094 787.1875 417 791.753906 424 C 799.492188 436 801.804688 450.671875 809 463 L 810 463 C 809.960938 449.183594 805.917969 433.320313 799.625 421 C 795.960938 413.820313 787.601563 407.46875 787 399 C 786.609375 389.140625 793.214844 379 796.574219 370 C 801 358.03125 803 345.714844 803 333 C 803 325.230469 802.703125 316 797 310 M 702 311 C 698.53125 327.820313 695.996094 344.074219 700.746094 361 C 704 373 713.824219 385.148438 712.878906 398 C 712.257813 406.503906 704.425781 412.730469 700.761719 420 C 694.347656 432.714844 690 448.734375 690 463 C 698.601563 457.363281 700.546875 440.066406 704.425781 431 C 708.410156 421.691406 721 415.429688 722.773438 406 C 726.230469 387.027344 712.234375 368.171875 706.515625 351 C 701.929688 337.226563 703.996094 325.074219 704 311 L 702 311 M 462 474 C 450 478.652344 443 498.023438 446.804688 510 C 448.582031 515.761719 457.429688 526.734375 464.675781 523.242188 C 469.863281 520.742188 461.5625 514.40625 461.886719 511 C 462.25 507.1875 466.769531 504.695313 467.878906 501 C 470.714844 491.554688 468.585938 482.675781 473.257813 473 C 483 452.722656 497.605469 425.371094 516 412 C 537 396.578125 575.585938 392.484375 577 360 C 568.222656 366.375 563.976563 378 554 384.453125 C 537 395.46875 508 397.683594 498 417 L 497 417 C 510 377.054688 528 344.523438 565 323 C 554 319.140625 535 337.238281 528 344.089844 C 508.460938 363.164063 498.800781 390.21875 488.800781 415 C 483 429.144531 476.234375 442.730469 470.808594 457 C 465.496094 471 464.351563 481.710938 462.683594 496 C 462.371094 498.640625 460.246094 502.144531 457 502 C 453.960938 501.617188 453.953125 497.300781 454.1875 495 C 454.9375 487.707031 459.257813 480.6875 462 474 M 936 322 C 938.84375 326.34375 944.707031 328 949 330.699219 C 956 335.277344 962 341 967.984375 347 C 986.578125 366.066406 999 394.238281 1005 420 L 1004 420 C 998 402.769531 974.757813 398 960 391.574219 C 944 384.738281 933.996094 374.648438 925 360 L 924 360 C 925.378906 391.625 963 396.738281 984 411.4375 C 1002 424.179688 1017 451.332031 1026.742188 471 C 1031.730469 481.234375 1029.929688 490 1032.449219 500 C 1033.441406 504 1037.71875 506.167969 1038.65625 510 C 1039.65625 514.105469 1030.371094 519.476563 1035.335938 522.804688 C 1042.3125 527.484375 1051.949219 515.683594 1053.441406 510 C 1056.765625 497.339844 1049.992188 479.597656 1038 474 C 1040.320313 480.808594 1044.566406 487 1046.234375 494 C 1046.875 496.695313 1046.957031 501.355469 1042.984375 501.246094 C 1037.566406 501.101563 1038 493.648438 1038 490 C 1037.96875 474.554688 1031.46875 460.046875 1025.574219 446 C 1007.597656 403.152344 988.789063 333.035156 936 322 M 347 351 C 344.664063 363.589844 348.90625 375.507813 349.914063 388 C 351.949219 413.191406 350.964844 442.046875 360 466 L 361 466 C 361 438 362 410 358 382 C 356.703125 371.734375 355.703125 358 347 351 M 1139 466 C 1147.410156 461.136719 1145.3125 445.378906 1146.425781 437 C 1150.207031 408.542969 1148.765625 379.1875 1154 351 C 1144.40625 355.71875 1144 370.625 1142.589844 380 C 1138.1875 408.1875 1145.609375 438.234375 1139 466 M 278 360 C 281 360.0625 284 360.308594 287 361.171875 C 307.546875 367.105469 292.597656 391.257813 292 405 C 302.441406 399.660156 314.792969 372.789063 306.484375 362.105469 C 301.546875 355.753906 282.878906 352.476563 278 360 M 1208 405 C 1206.367188 392.359375 1194.832031 372.054688 1209 363 C 1212.664063 360.664063 1216.96875 360.277344 1221 359 C 1213 353.585938 1194.839844 356 1191.652344 366 C 1187.917969 378 1197 399.660156 1208 405 M 1300 369 C 1287.875 378.746094 1285 400.457031 1282.425781 415 C 1275 456.023438 1284.347656 502 1269.1875 541 C 1261.367188 561.1875 1247.765625 578.765625 1233.71875 595 C 1224.910156 605.179688 1212.90625 615.714844 1209 629 C 1220.507813 624.78125 1228 614.152344 1237 606.285156 C 1265.679688 581 1286.265625 547.59375 1288.910156 509 C 1290.441406 486.644531 1285.648438 464.363281 1288.285156 442 C 1290.203125 425.75 1291.917969 409.804688 1296.421875 394 C 1298.492188 386.734375 1303 376.367188 1300 369 M 290 629 C 287 616.667969 276.378906 607.332031 268.425781 598 C 255 582.382813 241.910156 565.769531 233.308594 547 C 215.976563 509.179688 223.71875 467.011719 219.828125 427 C 218.386719 412.136719 215.1875 397.023438 210 383 C 209 380.417969 205.914063 369.550781 201.589844 371.347656 C 197.277344 373.132813 202 384.203125 202.847656 387 C 207 402.496094 210.992188 419 211 435 C 211 467.695313 205.492188 503.253906 215.203125 535 C 222.816406 560 238.660156 580.015625 255.828125 599 C 265.585938 609.785156 276.648438 622.65625 290 629 M 655 370 C 655.765625 378.726563 660.691406 386.636719 663 395 C 667.527344 410.480469 669.8125 427 670.910156 443 C 672.535156 466.699219 663.332031 485.445313 660 508 C 670.914063 503 676.476563 489 679.570313 478 C 686.566406 453.203125 681.859375 425.53125 675.871094 401 C 672.761719 388.257813 667.46875 376 655 370 M 845 370 C 831.707031 378.175781 827.257813 390.414063 823.628906 405 C 818 427.007813 814.863281 450.574219 819.449219 473 C 821.832031 484.652344 827.695313 502.8125 840 507 C 832.898438 476.304688 827.566406 449.761719 832 418 C 833.625 407.601563 836 396.804688 839.8125 387 C 841.722656 382.0625 846.46875 375.300781 845 370 M 290 478 C 296.324219 474.53125 300 465.132813 303.574219 459 C 313.894531 441 322.800781 421.191406 327.871094 401 C 329.539063 394.359375 331 387.789063 332 381 C 332.175781 379.707031 333.621094 374.496094 331.660156 374 C 329.75 373.359375 328.902344 378 328.574219 379.003906 C 326.621094 385.417969 324.257813 391.707031 321.945313 398 C 312 425 298.902344 450.644531 290 478 M 851 493 L 852 493 C 851.347656 478 845.179688 463.296875 845.179688 448 C 845.179688 412.722656 873 371.769531 912 379 C 908.386719 373.484375 901 373 895 373.003906 C 879.386719 373.171875 863.351563 384.097656 854 396 C 833.304688 422.414063 834.820313 464.566406 851 493 M 1167 373 C 1172.324219 400.445313 1181.25 427 1193.753906 452 C 1197.710938 460 1202.265625 473.273438 1210 478 C 1202.925781 452.125 1188.585938 427.726563 1180.34375 402 C 1177.421875 393 1176.214844 378.054688 1167 373 M 590 379 C 628.535156 369.824219 653.972656 415.402344 653.972656 448 C 653.972656 463.582031 648.664063 478.597656 648 494 C 654.769531 487.300781 656.371094 476.003906 658.199219 467 C 663.675781 440.046875 661 410.714844 640.910156 390.039063 C 631.203125 380.074219 618.886719 374 605 374 C 599.355469 374 593 373.574219 590 379 M 574 403 C 584.253906 401.675781 595.496094 399.089844 605 395 C 596 391.253906 579.878906 395.5625 574 403 M 898 394 C 904.285156 401.3125 917.8125 402.605469 927 403 C 920.632813 395.59375 907.300781 394.191406 898 394 M 633 449 C 643.761719 442.21875 632.292969 416 624 411 L 624 410 L 628 411 C 625 400.570313 604.363281 395.371094 596.433594 403.429688 C 592 408 593.894531 417.558594 595 423 C 595.488281 425.371094 596 427.75 596.929688 430 C 604.476563 448.519531 616.507813 427.808594 626.890625 433.066406 C 631.921875 435.617188 632.367188 444.097656 633 449 M 873 411 L 876 410 C 868 418.175781 856 439 867 449 C 867.683594 443.605469 867.730469 434 874 432 C 884.753906 428.378906 894.539063 447.527344 903 431 C 904 428.796875 904.777344 426.390625 905.347656 424 C 906.6875 418.371094 908.996094 409.417969 905 404.339844 C 897.765625 394.757813 876.539063 400.828125 873 411 M 749 401 C 748.847656 419.644531 744.394531 438.390625 743 457 C 742 472.472656 743.4375 489.761719 740.851563 505 C 739.785156 511.195313 730.894531 508.746094 730 517 C 728.429688 534.527344 737.597656 552.757813 739.714844 570 C 741.570313 585.101563 733.347656 608.03125 743 621 C 747.175781 607 749.847656 586.65625 747.5625 572 C 745 556.152344 737.777344 540.191406 738 524 C 738.207031 517.394531 744.40625 516.472656 746.597656 511 C 749.601563 503.445313 749.367188 494 750 486 L 751 486 C 751 494 750.5625 504.523438 753.878906 512 C 756.191406 517.027344 761.5625 517.558594 761.957031 524 C 763 541.164063 753.800781 557.15625 752.171875 574 C 750.664063 589.5625 755.996094 604.519531 756 620 C 767.945313 612.105469 759.261719 585.015625 760 573 C 761.394531 554.023438 771.171875 536.320313 769.957031 517 C 769.441406 509 761.328125 511.269531 759.433594 505 C 754.589844 488.738281 757.648438 468 755.425781 451 C 753.929688 439.605469 753 427.492188 753 416 C 752.976563 411.128906 753.289063 404.027344 749 401 M 882 420 L 883 420 L 885 424 C 887.460938 421.160156 893.640625 412.023438 887.683594 409.144531 C 885.507813 408.09375 881.492188 409.292969 879 409 C 881.761719 407.261719 884.851563 406.3125 888 405.429688 C 891.492188 404.449219 897.394531 402.675781 900.382813 405.742188 C 903.921875 409.375 898.316406 424.703125 894.773438 427.398438 C 887.738281 432.75 881 427.359375 882 420 M 621 408 L 621 409 C 617.503906 411 617 413.121094 617 417 C 616 414.675781 615.945313 406.269531 611.414063 409.800781 C 603 416.339844 619.453125 423.554688 616.246094 427.183594 C 614 429.722656 608.652344 429.21875 606.214844 427.398438 C 602.988281 425 596.742188 410.328125 599 406.601563 C 600.945313 403.777344 608.246094 405 611 405.324219 C 614.394531 406 617.648438 407.222656 621 408 M 623 409.332031 C 623.773438 409.332031 623 409.832031 622.667969 409.667969 L 623 409.332031 M 878 409 L 877 410 L 878 409 M 510 439 C 528.523438 432.578125 547.261719 419.117188 567 432.109375 C 581.722656 441.796875 596.46875 470.003906 599.996094 487 C 600.945313 491.566406 602.367188 503.671875 609 498 C 609.777344 501.003906 610.410156 504.042969 611.347656 507 C 612.441406 510.441406 617.875 521 621.398438 513 C 624.511719 505.707031 621 481.253906 610 489 C 615.757813 472.121094 638.550781 459.050781 628.992188 438.109375 C 623.578125 426.253906 611.472656 447.078125 604 443.152344 C 592.542969 437.132813 597.882813 420.585938 587.894531 413.742188 C 580.964844 409 571.871094 414.625 565 416.570313 C 548 421.359375 519.609375 421.164063 510 439 M 890 488 C 879.703125 483.238281 876.675781 507.21875 879.601563 514 C 882.300781 520 887.585938 513.257813 888.882813 510 C 889.761719 507.777344 890.359375 505.359375 890.699219 503 C 891.222656 499.382813 891 495.644531 891 492 L 892 492 C 892 494.773438 893 502.425781 896.726563 496.832031 C 899.972656 491.765625 900 484.578125 902.203125 479 C 911.179688 456.085938 927 423.53125 956 427.289063 C 968.4375 429 979 435.613281 991 439 C 982.335938 420.800781 951.769531 421 935 416.621094 C 928.929688 415.058594 920.28125 409.671875 914 413.027344 C 904.195313 418.339844 908.191406 435.789063 897.960938 442.253906 C 889.222656 447.773438 877.671875 426.148438 871.316406 438.058594 C 860.285156 458.742188 885.765625 471.246094 890 488 M 496.667969 417.667969 C 496.722656 417.722656 496.777344 418.777344 496.332031 418.332031 C 496.277344 418.277344 496.222656 417.222656 496.667969 417.667969 M 1006 420 L 1005 421 L 1006 420 M 731 426 C 731 438.019531 731.859375 450.066406 733.285156 462 C 733.816406 466.433594 733 472.246094 737 475 C 737 458.671875 735 442.191406 733 426 L 731 426 M 767 427 C 763.976563 443.28125 764.953125 458.675781 765 475 L 767 475 C 767 459 769 443.066406 769 427 L 767 427 M 1333 434 C 1323.78125 445 1320 458.601563 1316.289063 472 C 1309.363281 496.136719 1304.410156 520.769531 1297.847656 545 C 1292.792969 563.664063 1281.898438 581.367188 1278 600 C 1286.917969 592.414063 1291.34375 577.636719 1295.601563 567 C 1307.476563 537.308594 1312.84375 505.640625 1321.578125 475 C 1324 466 1326.8125 457 1330 448 C 1331.648438 443.636719 1334.632813 438.601563 1333 434 M 167 435 C 170.585938 450.632813 176.617188 465.550781 180.847656 481 C 187.609375 505.703125 192.890625 530.667969 201 555 C 205.527344 568.578125 210.867188 590.457031 222 600 C 219.9375 584.6875 210.65625 571.546875 206 557 C 197.527344 530.285156 191.5 502.355469 185.425781 475 C 182.726563 463 179.355469 441.039063 167 435 M 139 450 C 156.6875 443 169 481.179688 172.625 495 C 183 536.476563 189.789063 580 214.34375 616 C 223 629 235.597656 646.074219 252 649 C 239.171875 630.789063 221.222656 618.828125 211.320313 598 C 200.453125 575.140625 193.464844 550.699219 188.210938 526 C 184.628906 509.160156 182.945313 491 176 475 C 171.433594 464.03125 162.929688 446.101563 153.816406 438.316406 C 145.675781 431.367188 139.996094 443.363281 139 450 M 424 436 L 424 440 L 423 440 C 423.175781 438.316406 423.316406 437.507813 424 436 M 1248 649 C 1264.304688 646.554688 1275.53125 630.460938 1284.421875 618 C 1310 582.011719 1316.847656 537.78125 1327.882813 496 C 1331.351563 483 1337.453125 471.566406 1344.398438 460 C 1349 452.117188 1352.351563 446.15625 1362 450 C 1361 443.753906 1355.984375 432 1348 438.320313 C 1338.910156 446 1329.371094 464.082031 1324.8125 475 C 1309.730469 511.132813 1309.171875 551.738281 1293 588 C 1285.867188 604.441406 1277 620.632813 1264.828125 634 C 1259.738281 639.585938 1252.765625 643.230469 1248 649 M 521 452 C 534.960938 449.082031 549.832031 437.757813 564 446 C 574 451.808594 577 466.277344 588 470 C 585 459.765625 577.445313 445.808594 568 440.367188 C 555.351563 433.078125 526.375 436.523438 521 452 M 912 471 C 923.199219 467.160156 926 452.394531 936 446.132813 C 949.8125 437.351563 966.472656 449.160156 980 453 C 973.316406 438.703125 946.414063 431.667969 933 440 C 923.4375 446 915.554688 460.574219 912 471 M 518 442 C 499.484375 446.285156 486.933594 463.339844 477.761719 479 C 475.484375 483 469.957031 498 477.210938 500.109375 C 483.328125 502 483.175781 489.351563 484.222656 486 C 490.382813 466.238281 506.945313 457.566406 518 442 M 983 442 C 994 457.578125 1009.644531 466.683594 1016.453125 486 C 1017.507813 489 1017.65625 502.140625 1022.949219 500.503906 C 1031 498 1025.5625 483.496094 1022.984375 479 C 1014.855469 464.820313 1000.832031 443.570313 983 442 M 1100 442 L 1100 448 L 1099 448 C 1099 445.746094 1099 444.050781 1100 442 M 401 443 L 401 448 L 400 448 C 400 446.035156 400.222656 444.769531 401 443 M 1078 443 L 1077 444 L 1078 443 M 514 467 C 525.773438 466 535.695313 460 548 460 L 548 461 C 530.835938 461.046875 515.34375 467.703125 502 478.210938 C 497 482.101563 491.222656 486.523438 489.679688 493 C 488 499.5625 494.273438 506.011719 497.65625 511 C 507.90625 526.113281 516.472656 540.464844 535 546 C 550.5625 550.585938 566.453125 548.152344 582 545.003906 C 586 544.164063 598.171875 539.570313 601.296875 542.539063 C 607.917969 548.828125 601.316406 563.746094 593 564.683594 C 588 565.242188 583 562.742188 578 563.175781 C 565.8125 564.207031 554.292969 569.355469 542 570 C 530.359375 570.410156 518.785156 565.648438 508 562 C 511.390625 569 519.820313 572.074219 527 573.765625 C 547.710938 578.640625 566.257813 566.75 586 569.183594 C 597.914063 570.652344 605.738281 581.75 617 585 C 605.804688 546.117188 602.792969 496.433594 573.382813 465.289063 C 560.277344 451.410156 523.886719 446.253906 514 467 M 883 585 C 895.59375 583.105469 903 570.550781 916 569.175781 C 926.332031 568.066406 935.964844 573.265625 946 574.699219 C 962.308594 577.03125 979.335938 573.011719 993 564 L 993 563 C 979.835938 564.773438 966.488281 571.488281 953 569.410156 C 942.652344 567.8125 932.460938 563.703125 922 563.09375 C 916.421875 562.769531 909.1875 566.574219 904 564 C 898 561.003906 892.265625 544.636719 901 541.695313 C 906.414063 540 915.515625 544.355469 921 545.128906 C 938.601563 547.609375 957.316406 551.070313 974 542.730469 C 989.210938 535.125 998.242188 521.816406 1005.488281 507 C 1007.496094 503 1011.742188 499 1011.28125 494 C 1010.226563 482.800781 993.703125 472.070313 984 469 C 987.617188 462.113281 976 457.753906 971 456.207031 C 957 452.023438 941 452.824219 930 463.09375 C 920.523438 472 915.496094 483.460938 910.230469 495 C 896.867188 524.292969 891.761719 554.566406 883 585 M 960 460 L 960 461 L 955 461 C 956.769531 460.222656 958 460.089844 960 460 M 973 463 L 973 464 L 961 462 C 964.90625 460.476563 969 462.179688 973 463 M 975 464.332031 L 975.332031 464.667969 C 974.839844 464.832031 974.226563 464.332031 975 464.332031 M 984 467 L 984 468 L 977 466 C 979.53125 465.464844 981.511719 466.21875 984 467 M 625.429688 474.046875 C 618.738281 478.214844 622.960938 499 631.773438 494 C 638.925781 490 633 469.261719 625.429688 474.046875 M 871.210938 474.085938 C 864.84375 477.378906 864.800781 499.175781 873.890625 495 C 880.765625 491.691406 878.558594 470.285156 871.210938 474.085938 M 536 480.347656 C 542 479.042969 557.859375 487.515625 546.941406 490.5625 C 541.546875 492.066406 528.230469 482.039063 536 480.347656 M 946.191406 481.601563 C 951.90625 479 966.425781 486.644531 957.851563 490.398438 C 952.59375 492.699219 939.25 485 946.191406 481.601563 M 891 488 L 891 491 L 890 491 C 890.25 489.550781 890.316406 489.246094 891 488 M 980 488 C 991.730469 495.523438 990.855469 509.371094 983.210938 520 C 972.40625 535.023438 944.449219 544.074219 931.417969 527 C 928.40625 523.050781 927.199219 517.820313 926.4375 513 C 925.226563 505.308594 927.464844 498.4375 929 491 L 930 491 C 930.273438 503.800781 938.402344 507.144531 946.335938 515.328125 C 948.84375 518 952.355469 524.519531 956.851563 522.671875 C 964 519.667969 954 511.832031 957 507.617188 C 959.347656 504.480469 967.238281 508.421875 970.960938 506.425781 C 978.648438 502.296875 977 494.710938 980 488 M 568 491 C 580.660156 501 577 524 564 532.003906 C 549.269531 541.203125 528.667969 533.804688 518.679688 521 C 513.203125 514 507.460938 499.503906 516 492.4375 C 523.847656 486.152344 528.179688 500.695313 532 505 C 543 517.035156 555.5 516.785156 565.566406 503 C 568.226563 499.351563 567.996094 495.296875 568 491 M 628.199219 501.058594 C 620.660156 502.28125 622.585938 528.359375 630.882813 526.246094 C 638.230469 524.378906 636.269531 499.753906 628.199219 501.058594 M 644.320313 501.347656 C 638.964844 503.460938 637.339844 522.175781 638.226563 527 C 638.804688 530.125 641.238281 534 644.949219 532.59375 C 652.339844 530.015625 650.578125 514.832031 649.332031 509 C 648.917969 507.0625 647.613281 500.046875 644.320313 501.347656 M 854.222656 501.347656 C 846.316406 504.089844 849.296875 536.429688 858.894531 533.339844 C 867.53125 530.554688 861.222656 513.503906 859.574219 508 C 858.933594 506 857.59375 500.175781 854.222656 501.347656 M 869.226563 502.085938 C 862.28125 505.644531 865 529.640625 872.621094 525.710938 C 879.457031 522.128906 877.566406 497.808594 869.226563 502.085938 M 472 506 C 472.417969 526.25 479 552.660156 501 559 C 500.316406 555.558594 498.78125 553.003906 497 550 C 498.746094 551 500 551.453125 502 552 C 498.53125 538.621094 491.367188 530.707031 483 520 C 479.300781 515.238281 476.835938 509.734375 472 506 M 1027 507 C 1016 519 999.78125 535 999 552 C 1001.417969 551 1002.988281 549.757813 1005 548 C 1002.628906 551.632813 1000.246094 554.804688 999 559 C 1016.246094 556.40625 1022.984375 538 1026.210938 523 C 1027.332031 517.796875 1029 512.113281 1027 507 M 607 509 C 607.574219 521.585938 617 531.652344 627 538.558594 C 630.5 541.015625 640.558594 544.125 641.367188 548.816406 C 641.898438 552 636.886719 552 635 552 C 628 551.535156 622 547 616 544 C 619.550781 556.324219 629.382813 567.003906 642 570 C 639.382813 564.390625 634.46875 560 629 557 L 629 556 C 634.625 556 649.863281 556.710938 649.621094 548 C 649.484375 543 643.898438 539.167969 640 537 C 626.925781 529.191406 618.867188 517.734375 607 509 M 892 509 C 885.628906 518.367188 878.476563 526.285156 869 532.640625 C 863.453125 536.359375 854 539.09375 851.761719 546 C 848.390625 555.699219 865.667969 555 871 555 C 866.320313 559.679688 861 564.074219 858 570 C 869.890625 569 881.90625 556.59375 884 545 C 880.933594 546.277344 878 548 875 549.207031 C 873.210938 550.019531 856.585938 554.359375 859.921875 548.078125 C 861.648438 544.824219 867 543.351563 870 541.535156 C 879.359375 536 897.40625 522 892 509 M 295 510 C 295 520.542969 298 530 305.183594 538 C 311.625 545.238281 321 549.238281 321.90625 560 C 323.773438 582.664063 316 604.4375 317 627 C 318 652 330.203125 675.125 331.910156 700 C 333.238281 719.394531 329.410156 738.730469 328 758 C 327 773.171875 328.8125 788 330 803 L 332 803 C 331.988281 787.757813 331.273438 773.261719 333.28125 758 C 335.8125 738.746094 340.816406 719.539063 339.960938 700 C 338.839844 674.363281 326.542969 650.601563 325 625 C 324.285156 610.757813 329.507813 596.140625 330.828125 582 C 331.484375 575.007813 329.566406 568 329.210938 561 C 328.957031 556.085938 331.1875 551 329.257813 546.039063 C 326.710938 539.703125 316.953125 536.257813 312 531.710938 C 305.257813 525.320313 302.402344 515.5 295 510 M 1168 803 C 1172.5 799.574219 1171.648438 791.214844 1172.167969 786 C 1173.851563 769.160156 1172.433594 752.78125 1171 736 C 1169.824219 720.285156 1167.171875 703.761719 1169.429688 688 C 1172.328125 667.742188 1181.5 648.472656 1182.910156 628 C 1184.398438 606.410156 1175 585.558594 1177.171875 564 C 1179.382813 541.148438 1205.984375 534.382813 1206 510 C 1198.570313 513.539063 1195.523438 522 1190.53125 528 C 1185 534.746094 1174.367188 538.273438 1170.574219 546.015625 C 1167.640625 552 1170 559.597656 1170 566 C 1170 585.539063 1174.921875 604.617188 1174.921875 624 C 1174.921875 650.1875 1161.867188 675 1160 701 C 1158.871094 719 1164.460938 737.34375 1166.714844 755 C 1168.742188 771 1168 787.007813 1168 803 M 917 516 C 921.242188 527.566406 932.632813 538.144531 945 540 L 945 541 C 932.1875 540 904.167969 533.152344 917 516 M 585 519 C 590 535.207031 568.953125 539.257813 556 541 L 556 540 C 568.726563 537 574.878906 526.128906 585 519 M 438 522 C 428 551.367188 443 584.160156 448.386719 613 C 452.890625 637.824219 450.460938 663.214844 455.449219 688 C 457.9375 700.363281 463.328125 728.378906 475 735 C 469.191406 717.175781 462.609375 701 460.285156 682 C 457.511719 659.460938 459.800781 636.492188 456.570313 614 C 454 597 447.5 580.722656 443.375 564 C 441.464844 556.265625 439.472656 548 439.257813 540 C 439 533.703125 441 528 438 522 M 1061 523 C 1061 552.332031 1049.953125 579.480469 1044.609375 608 C 1039.949219 633 1042.699219 658.039063 1039.714844 683 C 1037.546875 701.121094 1028.621094 717.246094 1026 735 L 1027 735 C 1046.800781 705 1045.886719 667.339844 1049.171875 633 C 1051 613.574219 1055.964844 595 1060.625 576 C 1063.738281 563.386719 1065.304688 551 1064.984375 538 C 1064.871094 533.324219 1064.929688 526 1061 523 M 988 524 C 984.507813 529.570313 980.199219 533.648438 974 536 L 974 535 C 978.753906 531.378906 982.671875 526.761719 988 524 M 451 525 C 452.46875 528.007813 463.359375 539.628906 466.824219 533.398438 C 470.691406 526.441406 454.308594 525.007813 451 525 M 515 525 C 519.304688 529.214844 523.753906 533.011719 529 536 L 529 537 C 523.570313 535.402344 515.398438 531.320313 515 525 M 1041 525.539063 C 1036.226563 526.617188 1027.621094 536.269531 1037 534.589844 C 1043 533.507813 1051.746094 523.109375 1041 525.539063 M 492 668 C 485.867188 641.257813 476 614.785156 476 587 L 477 587 C 479.957031 595.773438 488.535156 600.832031 492.621094 609 C 496.589844 617 495.316406 626.21875 502 632.816406 C 510.902344 641.367188 525.265625 641.570313 530.632813 654 C 536.765625 668.207031 528.46875 692.027344 527 707 C 526 717.488281 521.492188 727.597656 521 738 C 520.949219 740.050781 520.339844 747.792969 523.808594 747.792969 C 526.332031 747.792969 527.410156 741.746094 528 740 C 530.945313 732.125 534.476563 724.484375 538.246094 717 C 544.5625 704.460938 552 692.386719 556.644531 679 C 560.765625 666.738281 561.65625 653.59375 564.425781 641 C 565.628906 635.523438 572.347656 619.59375 569.386719 614.660156 C 566.988281 610.664063 563 620.777344 562.574219 622 C 557.242188 634.386719 545.800781 644.085938 542 657 L 541 657 C 540.75 645.742188 545.222656 640 552.996094 632 C 555.90625 629.039063 562.484375 623.257813 560.351563 618.332031 C 558.886719 615 554.769531 617.789063 553 619.230469 C 548.316406 623.035156 542.609375 632.648438 536 633 C 532.429688 633.058594 529.578125 629.503906 527 627.515625 C 521 623 513.507813 620.195313 508 614.828125 C 503.320313 610.046875 506.855469 607.242188 512 605.347656 C 519.511719 602.585938 533.574219 599.082031 533.832031 589.015625 C 533.957031 584.171875 530 583.144531 526 583.015625 C 516.179688 582.707031 506.828125 583.777344 497 583 C 502.449219 594.050781 518 589 528 589 C 523.8125 591.820313 519.609375 594.59375 515 596.6875 C 489.703125 608.171875 482.75 576.007813 474.242188 559 C 471.574219 553.667969 462.828125 532.378906 455 535 C 445.957031 537.808594 457.625 560.828125 459.574219 566 C 468.570313 590 471 615.570313 478 640 C 480.554688 648.414063 484.183594 663.21875 492 668 M 973 590 L 973 589 C 982.386719 589 997.9375 593.261719 1003 583 C 993.578125 585.242188 984.445313 582.765625 975 583.015625 C 971.464844 583.109375 967.261719 584 966.542969 588.042969 C 964 602.207031 1003.511719 603.675781 990.941406 615.816406 C 986.46875 620.132813 970 633.097656 964 632.421875 C 956.835938 631.628906 952.300781 622.820313 946.960938 619 C 945 617.5625 941 615.132813 939.617188 618.332031 C 937.5625 622.707031 942.582031 628.089844 945.175781 631 C 951.824219 638.46875 958.515625 644.40625 959 655 C 951.175781 646.820313 945.167969 637.167969 940.257813 627 C 937.371094 621.023438 936.386719 614.140625 930 611 C 932.960938 648.515625 944.601563 684.53125 963 717 C 967.320313 724.625 969.179688 733 972.453125 741 C 972.988281 742.320313 975.207031 749 977.476563 747.652344 C 980.601563 746.023438 979.46875 738.667969 979 736 C 977.527344 723.570313 973.773438 711.546875 972.285156 699 C 970.726563 685.828125 964.339844 665.488281 969.96875 653 C 974.882813 642.105469 988.785156 641.132813 996.957031 633.785156 C 1004.9375 626.613281 1003 616.539063 1008.226563 608 C 1012.910156 600.109375 1021.292969 595.113281 1024 586 L 1025 586 C 1021.800781 603.222656 1020.570313 620.738281 1016.996094 638 C 1014.96875 647.800781 1010.453125 657.152344 1009 667 C 1017.636719 660 1020 646.390625 1022.882813 636 C 1028.929688 613.089844 1032.347656 589.472656 1040 567 C 1041.742188 562 1054 537 1043.941406 535.425781 C 1040 535 1037.300781 538.160156 1035.46875 541.015625 C 1030.328125 549.035156 1025 558.1875 1021.402344 567 C 1016.496094 579.015625 1011.183594 601.273438 994 599.101563 C 986.171875 598.113281 980 593 973 590 M 973 536 L 972 537 L 973 536 M 531 537 L 530 538 L 531 537 M 663 540 C 661 550.703125 660.195313 582 642 577.4375 C 634.222656 575.507813 629 567.535156 622 564 C 622.832031 568.664063 624.96875 573 627.46875 577 C 629.503906 580.28125 632 583.277344 635 585.785156 C 656.523438 604.136719 678.683594 553.828125 663 540 M 877 565 C 870.445313 568.113281 864.523438 575.199219 857 575.769531 C 841.628906 577 838.226563 551 838 540 C 831 543.632813 831.925781 552.273438 832.871094 559 C 834.730469 572.246094 846.304688 601 863.960938 586.605469 C 866.566406 584.503906 868.617188 581.757813 870.480469 579 C 873.441406 574.613281 875.773438 570.15625 877 565 M 494 546 L 497 550 C 495.242188 548.621094 494.460938 548.105469 494 546 M 1006 547 L 1005 548 L 1006 547 M 966 564 C 970.464844 563.132813 975.253906 562.667969 979 560 C 974 558.648438 968.710938 559.347656 966 564 M 523 560 L 523 562 L 536 564 C 533 559.511719 527.914063 560.003906 523 560 M 476 584 L 476 587 L 475 587 C 475.25 585.546875 475.316406 585.246094 476 584 M 632 586 C 625.742188 594.210938 629.875 605.324219 626 615 C 622 625.265625 614.863281 634 610.617188 644 C 606 655 607.261719 667 603.300781 678 C 599.898438 687.515625 592.488281 694.207031 588 703 C 597.691406 700.148438 603.828125 692.097656 607.546875 683 C 611.78125 672.636719 613 661.292969 617.464844 651 C 625.398438 632.117188 645 607.785156 632 586 M 912 703 C 908.585938 695.339844 901.816406 689.753906 898.3125 682 C 893.429688 671.195313 894.722656 659.050781 890.898438 648 C 887 637 878.742188 628 874.464844 617 C 871.472656 609.359375 872.457031 602 871.957031 594 C 871.835938 592.117188 871.308594 587.351563 868.324219 588 C 865.847656 588.394531 865.703125 593.121094 865.429688 595 C 864.328125 602.570313 864.246094 611.640625 866.441406 619 C 869.554688 629.460938 876.519531 638.230469 881 648 C 889.507813 666 889.652344 696 912 703 M 899 589 C 901 594.367188 904.632813 598 910 600 C 908.847656 593.652344 905.347656 590.152344 899 589 M 561 602 L 562 602 C 564 598.03125 564.90625 594.472656 565 590 C 560.199219 592.585938 559.570313 597.015625 561 602 M 590 600 C 595.261719 598.210938 598.84375 594.480469 602 590 C 595.257813 590.21875 591.890625 593.640625 590 600 M 936 591.175781 C 933.679688 593.019531 937.335938 601.082031 940.261719 599.652344 C 943.589844 598.03125 938.878906 589 936 591.175781 M 613 684 C 623.316406 681.101563 626 667.605469 632.46875 660.015625 C 646.410156 643.277344 677.785156 635.652344 678 610 C 671.882813 613.695313 667.628906 621 662 625.535156 C 652.191406 633.578125 640 639 631.175781 648.089844 C 621.835938 657.816406 617.773438 671.691406 613 684 M 822 610 C 822.550781 636 853 644.246094 867.816406 661 C 874.328125 668.433594 876.507813 679.558594 886 684 C 883 671.167969 877.675781 657.3125 867.984375 648.089844 C 859.667969 640.175781 848.960938 635.542969 840 628.480469 C 833 623.089844 828.828125 615.226563 822 610 M 737.226563 632.046875 C 731.886719 635.074219 736 645.148438 741.570313 641.777344 C 746.332031 639 743.175781 628.675781 737.226563 632.046875 M 758.433594 632.03125 C 753.355469 635.421875 758 645.597656 763.566406 641.238281 C 768.195313 637.558594 764 628.214844 758.433594 632.03125 M 690.242188 633.742188 C 683.34375 637.035156 694.1875 642.4375 698.757813 640.257813 C 705.550781 637.019531 694.605469 631.660156 690.242188 633.742188 M 803 633.742188 C 796.289063 636.800781 804.890625 643 809.851563 641 C 816.628906 638 808 631.507813 803 633.742188 M 921 634 C 921 652.007813 930.269531 668 937 684 L 938 684 C 937.480469 672.617188 931 661.707031 927.671875 651 C 925.792969 645.242188 925 638.609375 921 634 M 578 635 C 572.28125 650 562.734375 668 562 684 L 563 684 C 569.640625 672.621094 583.65625 648.476563 578 635 M 716 648 L 716 649 C 718.417969 649.722656 720.472656 650 723 650 C 720.691406 648.238281 718.90625 648.082031 716 648 M 779 648 L 779 650 C 780.878906 649.824219 782.199219 649.5625 784 649 C 782.230469 648.222656 780.964844 648.089844 779 648 M 738.214844 654 C 733 655.601563 735.679688 665 740.855469 662.824219 C 745.644531 660.824219 743.621094 652 738.214844 654 M 759.277344 654.085938 C 754.671875 656.566406 757.503906 665.5 762.773438 662.761719 C 767.707031 660.199219 764.378906 651.339844 759.277344 654.085938 M 960 655 L 959 656 L 960 655 M 669 658 C 656.605469 670.386719 639.847656 678.066406 628.183594 691.015625 C 618 702.164063 614.28125 717.425781 612.925781 732 C 612.316406 738.539063 609 748.292969 613 754 C 621.496094 739.390625 620.878906 721.738281 628.898438 707 C 635.433594 695 646.863281 688.128906 657 679.5625 C 662.570313 675 672.316406 666.15625 669 658 M 830 658 C 833.195313 679.617188 857 686.753906 868.558594 703 C 879.265625 718.246094 877.792969 738.164063 887 754 L 888 754 C 893.476563 735.480469 885 704.734375 871.90625 691.039063 C 864.789063 683.664063 854.96875 679.753906 847 673.480469 C 840.953125 668.722656 836.300781 662.4375 830 658 M 551 664 C 550.695313 671.078125 549.84375 681.328125 543 685 C 543 677.125 544.703125 669.222656 551 664 M 951 665 C 955.753906 671 956.9375 677.558594 957 685 C 951 681.632813 948.394531 671.222656 951 665 M 738 667 C 731.753906 669 735.867188 679.019531 741.941406 677.289063 C 748.59375 675.390625 744.210938 665 738 667 M 759 667 C 753.4375 668.613281 754.3125 679.386719 760.945313 677.199219 C 766.628906 675.324219 765.664063 664.8125 759 667 M 718 680.742188 C 709.277344 684.183594 713.464844 693.5625 721.996094 690.257813 C 731 686.71875 726.996094 677.203125 718 680.742188 M 774.230469 680.746094 C 766 684.445313 779.699219 693.71875 785.835938 690 C 793.632813 685.210938 779.175781 678.492188 774.230469 680.746094 M 591 944 L 592 944 C 592 922.8125 594.566406 902.019531 595 881 L 596 881 C 596 889.140625 599.410156 903.445313 604.644531 888 C 607.769531 878.78125 609 869.675781 609 860 C 603.527344 862 600.625 865.53125 599 871 L 598 871 C 602.316406 837.566406 621.285156 809.429688 631.480469 778 C 636.726563 761.824219 629.867188 748.113281 639.230469 732 C 645.175781 721.769531 654.386719 713.453125 664 706.722656 C 671.324219 701.589844 680 698.117188 683 689 C 662.882813 692 640.777344 711.769531 631.3125 729 C 622 745.773438 628.570313 761.351563 622.316406 778 C 603.738281 827.460938 567.644531 889.71875 591 944 M 902 873 L 901 873 C 900 868 890.574219 855.773438 891.1875 867.003906 C 891.601563 874.550781 893.65625 883.0625 896.628906 890 C 901.175781 900.589844 904 891.265625 904 885 L 905 885 C 905 904.300781 910 923.585938 908 943 C 912.449219 940 913.210938 933.074219 913.84375 928 C 915.4375 915.203125 914.941406 902.765625 913.28125 890 C 907.847656 848.15625 888.195313 812.511719 875.359375 773 C 872.789063 765.097656 876.304688 759 875.960938 751 C 875.601563 743 871.574219 734.035156 867.6875 727 C 859.984375 713.058594 846.898438 705 834 696.332031 C 831.671875 694.789063 821.726563 687 819.257813 691.601563 C 817.214844 695.492188 825.671875 699.777344 828 701.332031 C 839.953125 709.324219 851.878906 718.578125 859.53125 731 C 869.542969 747.246094 863 761.261719 868.347656 778 C 878.390625 810.394531 897.554688 838.589844 902 873 M 737 696 C 731.878906 697.589844 737.699219 704 741.679688 702.34375 C 746.300781 700.480469 740.894531 694.621094 737 696 M 760 696 C 754.570313 697.554688 757.828125 704.402344 762.773438 702.378906 C 767.273438 700.53125 764.496094 694.46875 760 696 M 700 705.761719 C 693.417969 706.796875 696 713.527344 701.980469 712.832031 C 708.648438 712.042969 705.710938 705 700 705.761719 M 795.621094 707.023438 C 791.449219 710.441406 800 715.382813 803.574219 712.246094 C 807.933594 708.316406 798.859375 704.375 795.621094 707.023438 M 744 713 C 753 721.5625 756.628906 707.46875 744 713 M 726 718.640625 C 716.695313 719.429688 713.902344 731.4375 725 730.785156 C 736.199219 730.128906 738.566406 717.574219 726 718.640625 M 772 718.574219 C 760 721 770.828125 732.128906 778.996094 730.640625 C 790.507813 728.546875 779.945313 717.003906 772 718.574219 M 694 719.800781 C 689.839844 721.335938 691.304688 727.671875 695.960938 726.289063 C 700.90625 724.816406 699 718.027344 694 719.800781 M 802.363281 720.046875 C 798.257813 722.746094 804 728 807.625 725.164063 C 811.335938 722.203125 805.570313 718 802.363281 720.046875 M 748 723.757813 C 740.429688 726.699219 747.554688 736 753.851563 733.253906 C 760.578125 730.355469 754 721.414063 748 723.757813 M 550 726 C 529.175781 757.574219 523 801.710938 533.425781 838 C 537 850.644531 547.882813 859 552.53125 871 C 556.800781 882.105469 554.867188 894.515625 557 906 C 568.214844 899.121094 563.941406 875.039063 559.664063 865 C 554.695313 853.351563 545.78125 844 541.4375 832 C 530.679688 802.5 537 770.320313 548 742 C 553.640625 750 547.621094 759 545 767 C 540.535156 781.125 537.582031 797.308594 541.238281 812 C 544.34375 824.460938 557.308594 827.382813 565.785156 818 C 574.925781 807.796875 582.992188 783.398438 585 770 C 567 777 571.695313 805.132813 555.988281 812 C 547 815.796875 547.90625 796.453125 548 792 C 548.46875 773.445313 564.257813 742.175781 550 726 M 948 726 C 947.597656 735.195313 944.230469 743.617188 945.171875 753 C 946.554688 767 952.414063 780 952.960938 794 C 953 798.476563 952.734375 814.28125 945 812.226563 C 939.890625 811 937.253906 803.253906 935.222656 799 C 930.230469 788.539063 926.300781 775.269531 915 770 C 917.886719 783.808594 924.707031 807.375 934.328125 818 C 943.480469 828 956.664063 824 959.480469 811 C 962.5 797.085938 958.828125 781.347656 955 768 C 952.617188 759.703125 948 750.5 951 742 C 956 748.371094 956.769531 756.285156 958.847656 764 C 965 787.082031 966.777344 812.414063 957.546875 835 C 953.867188 844.003906 946.972656 851.226563 942.785156 860 C 937.882813 870.273438 935.585938 882.71875 937.617188 894 C 938 896.632813 938.757813 903.261719 941.472656 904.652344 C 944 906.015625 944.820313 897.300781 944.910156 896 C 945.820313 883.003906 945.605469 872.0625 953.640625 861 C 975.8125 830.476563 974.777344 792.128906 963.328125 757 C 960.171875 747.308594 957.871094 731.046875 948 726 M 375 785 C 378.554688 773 375.523438 753.78125 371.640625 742 C 370.882813 739.695313 367.304688 728.757813 363.609375 730.347656 C 360 732 360 742 360.441406 745 C 361.792969 757.125 364.890625 777.171875 375 785 M 1124 785 C 1138.53125 778 1143.972656 743.300781 1137 730 C 1123.390625 740.753906 1124 769.28125 1124 785 M 735 738 C 736.554688 741 737.792969 741.503906 741 742 C 739.425781 739.28125 738 738.628906 735 738 M 759 740 C 763.804688 744.355469 765.9375 738.109375 759 740 M 627 810 C 627 825.515625 646.257813 837.101563 657.472656 823 C 667.429688 810.441406 664.617188 792.496094 669.21875 778 C 673 765.824219 684 756.109375 695 750.257813 C 696.609375 749.398438 708.28125 743.269531 702.636719 741 C 694.792969 737.449219 679.921875 750.285156 675 755.039063 C 660.902344 768.667969 660.644531 785.304688 655.574219 803 C 653.796875 809.199219 650.835938 818.699219 643 819 C 636.550781 819.222656 632.234375 812.671875 627 810 M 795 742 C 802.851563 752.570313 817 756.703125 825.210938 768 C 836.933594 784.367188 830.882813 807 842.789063 823 C 854 838.300781 870.714844 823.695313 874 810 C 868.195313 812.457031 861.902344 821.402344 855 819 C 844.363281 815.152344 843 797.304688 841.199219 788 C 837.820313 771.09375 830.910156 757.550781 816 748 C 809.816406 744 802.371094 738.773438 795 742 M 719 746.652344 C 709.296875 748 717 757.472656 723.996094 756.253906 C 734.222656 754.433594 726.171875 745.78125 719 746.652344 M 777 746.484375 C 767.71875 748.066406 772.574219 757.761719 780 756.460938 C 789.617188 754.777344 785.792969 745 777 746.484375 M 347 749 C 347.839844 768.503906 358.785156 785.691406 364.277344 804 C 368.484375 818.015625 367.699219 834.457031 368 849 C 373.898438 845.179688 373 830.472656 373 824 C 373 804.261719 366.90625 787 358.769531 769 C 355.59375 762.039063 353.179688 754 347 749 M 1151 749 C 1139.515625 773.597656 1127 796.035156 1127 824 C 1127 832.230469 1125.535156 842.160156 1131 849 C 1134.828125 837.691406 1131.925781 825.644531 1133.175781 814 C 1134.617188 800.507813 1141 786.59375 1145.808594 774 C 1148.21875 767.636719 1155.335938 755.226563 1151 749 M 736 754.046875 C 731.445313 756.664063 735.324219 762.613281 739.851563 760.574219 C 745 758.234375 740.945313 751.382813 736 754.046875 M 759.621094 754.042969 C 755.859375 757.054688 762.945313 763.578125 766.34375 760.214844 C 769.742188 757 762.976563 751.359375 759.621094 754.042969 M 699 758.53125 C 694 759.621094 688.578125 763.046875 686.746094 768 C 684.671875 773.609375 688.964844 779.484375 695 778.425781 C 706.945313 776.320313 716.707031 754.660156 699 758.53125 M 794 758.742188 C 782.421875 763.589844 799.886719 781.828125 808.957031 778.394531 C 822.648438 773.203125 805 754.164063 794 758.742188 M 746 761.46875 C 729.941406 764.589844 749.761719 772.085938 757.890625 769.566406 C 761.644531 768.402344 762 764.265625 758.769531 762.179688 C 755.464844 760.132813 749.636719 760.761719 746 761.46875 M 723.660156 764.011719 C 720.542969 766.535156 726.941406 769.109375 729 767 C 731.746094 764.410156 725.671875 762.386719 723.660156 764.011719 M 771.753906 764 C 769.191406 766.195313 775.976563 769.285156 777.824219 767.011719 C 779.84375 764.527344 773.535156 762.472656 771.753906 764 M 720 772.507813 C 715 773.203125 709.386719 776 706.605469 780.042969 C 704.1875 783.671875 705.328125 787.609375 710 787.273438 C 715.652344 787 725.773438 784.101563 729.507813 779.613281 C 734.179688 774 723.691406 772 720 772.507813 M 774 772.585938 C 769.503906 773.824219 768.515625 778 772.230469 781 C 776.261719 784.035156 787.488281 788.730469 792.679688 787 C 796.78125 785.574219 793.332031 780.316406 791.515625 778.527344 C 787.523438 774.59375 779.695313 771.03125 774 772.585938 M 742.597656 779.117188 C 740.808594 780.1875 742.828125 782.210938 744.308594 781 C 745.6875 779.820313 743.898438 778.339844 742.597656 779.117188 M 756.210938 779.035156 C 754.5625 779.410156 755.242188 781.453125 756.789063 781.113281 C 758.4375 780.753906 757.773438 778.679688 756.210938 779.035156 M 740 788.085938 C 735.203125 789.152344 738.503906 795.496094 742.855469 794.507813 C 747.84375 793.375 744.214844 787.210938 740 788.085938 M 758 788 C 753.316406 789.160156 756.417969 796 760.839844 794.339844 C 765.1875 792.804688 761.988281 787.015625 758 788 M 724 792.472656 C 711.703125 794.6875 715.765625 806 726.996094 803.65625 C 736.929688 801.636719 733.429688 790.773438 724 792.472656 M 748.601563 793.082031 C 746 795 748.917969 798.714844 751.398438 797 C 753.867188 795.128906 751 791.285156 748.601563 793.082031 M 770 792.832031 C 759.859375 796.277344 771.289063 806 778.980469 803.347656 C 789.347656 800 776.355469 790.707031 770 792.832031 M 908 796 C 908 813.003906 916.21875 827.34375 917.828125 844 C 919.976563 866.183594 915.53125 889 919.324219 911 C 921.527344 923.828125 929.21875 934.546875 930.53125 948 C 931.628906 959.222656 920.980469 967.824219 922 979 C 922.9375 987.117188 929.359375 983.75 934 981 C 932.601563 989.402344 940.648438 997 938.550781 1005 C 936.472656 1013 924.453125 1015.300781 925.273438 1026.015625 C 925.699219 1031.574219 930.871094 1035.171875 933 1040 C 936.351563 1047.429688 934.804688 1056.472656 932.558594 1064 C 929.179688 1075.335938 919.921875 1079.539063 914.851563 1089 C 913 1092.441406 916.847656 1094.179688 915.808594 1097.210938 C 914.703125 1100.4375 902 1110.339844 912 1110 C 909.238281 1115.804688 906.398438 1121.632813 900.996094 1125.488281 C 898.660156 1127.15625 891.207031 1128.234375 891.207031 1132 C 891.207031 1137.546875 902.171875 1132.09375 904 1131 C 911.640625 1126 919.226563 1115.703125 922 1107 L 923 1107 C 919 1126.070313 910 1144.25 910 1164 C 913.855469 1161.511719 913.726563 1156.199219 915 1152 C 917.9375 1142.578125 921.359375 1133.160156 925 1124 C 933.488281 1102.648438 942.890625 1081 945.714844 1058 C 946.910156 1048.25 944.503906 1038.679688 945 1029 C 945.414063 1022.335938 949.445313 1016.601563 950.34375 1010 C 951.851563 999 945.46875 986.480469 939 978 C 941.972656 977.769531 944.714844 977.34375 945.476563 974 C 947.703125 964 943 945 940.523438 935 C 937.859375 924.652344 930.890625 916 930 905 C 928.488281 883.152344 930 861 929 839 C 928.242188 822.625 923 804.734375 908 796 M 591 1165 C 590.585938 1145 580.863281 1127.449219 578 1108 L 579 1108 C 582.1875 1116.40625 589.363281 1126.027344 597 1131 C 598.570313 1132 608.792969 1136.582031 608.792969 1131.789063 C 608.792969 1128.710938 603 1127.441406 601 1126.121094 C 595.203125 1122.335938 591.300781 1116 588 1110 L 596 1110 C 593 1106 587 1102.589844 585.3125 1098 C 583.996094 1094.625 587 1091.453125 585 1088.183594 C 582.785156 1084.132813 577.472656 1081.773438 574.527344 1078 C 568.46875 1070.214844 565.570313 1058.765625 565.570313 1049 C 565.570313 1039.589844 575.371094 1032.398438 574.503906 1024.128906 C 574.21875 1021.410156 572 1013.574219 570.332031 1011.648438 C 567.613281 1008.742188 563.410156 1008.375 562.320313 1004 C 560.527344 996.746094 566.402344 988.328125 567 981 C 571.652344 985 578 987.574219 578.886719 979 C 580 967.496094 569.191406 958.628906 570.175781 947 C 571.226563 934.535156 578.46875 924.792969 580.675781 913 C 584.789063 891.027344 580 868.136719 582.171875 846 C 583.75 829.398438 591.660156 813.425781 592 797 C 581.566406 800.46875 577 811.253906 574 821 C 566.773438 844.4375 572.5625 871 570.910156 895 C 569.378906 917.363281 558.699219 936.8125 555.273438 959 C 554.554688 963.65625 553 969.285156 554.316406 974 C 555.175781 977.335938 558.484375 979.277344 558 983.015625 C 557.265625 991 550.746094 997 550 1005 C 549.3125 1014.558594 555 1021.769531 555.621094 1031 C 556.199219 1040.328125 553.226563 1049.5625 554.171875 1059 C 556 1077.523438 564.355469 1096 571.199219 1113 C 576 1125.242188 580.867188 1137.476563 585 1150 C 586.550781 1154.695313 586.734375 1162.246094 591 1165 M 740.601563 803.070313 C 738 804.816406 740.988281 808.503906 743.398438 807 C 745.914063 805.160156 743 801.335938 740.601563 803.070313 M 755.660156 804.027344 C 752.75 806.273438 758 809 760.25 807 C 762.613281 804.625 757.503906 802.605469 755.660156 804.027344 M 705 806.746094 C 697.675781 809.6875 703.328125 818.785156 709.941406 816.242188 C 717.324219 813.402344 711.78125 804.070313 705 806.746094 M 788 806.746094 C 780.859375 810 790 819.222656 795.941406 816.589844 C 804 813 794.273438 804.058594 788 806.746094 M 338.648438 808.347656 C 336 809.566406 337 815.828125 337.285156 818 C 338.398438 827.078125 340.859375 836.035156 345.429688 844 C 346.765625 846.324219 349.953125 853 353.554688 851.652344 C 356.859375 850.457031 354.886719 844.296875 354.347656 842 C 352.230469 833 348.550781 824.445313 344.847656 816 C 344 814.265625 341.59375 807 338.648438 808.347656 M 1146 854 C 1161 844.417969 1165 823.496094 1163 807 C 1152 812.636719 1143.492188 842.433594 1146 854 M 725 812.667969 C 715.484375 815.597656 724.726563 826.050781 731.980469 823.253906 C 741.378906 819.632813 731.976563 810.542969 725 812.667969 M 766 814.027344 C 758.53125 818.613281 769.734375 826.53125 775.769531 822.820313 C 783.902344 817.820313 772.234375 810.367188 766 814.027344 M 671 817.800781 C 664.753906 819.820313 665.953125 830 672.894531 827.238281 C 678.207031 825.179688 677.46875 815.734375 671 817.800781 M 691 818.085938 C 686.464844 820.472656 690.351563 826.53125 694.5625 823.800781 C 698.261719 821.402344 695 816.097656 691 818.085938 M 805.476563 818.046875 C 801.234375 821 807.726563 827 811.214844 824 C 814.625 821.015625 808.875 815.703125 805.476563 818.046875 M 824.332031 819.03125 C 819 822.53125 827 829.816406 831.679688 827 C 837.523438 823.269531 829.269531 815.691406 824.332031 819.03125 M 619 825.085938 C 615.753906 827 616.792969 832.585938 620.871094 830.824219 C 624.746094 829.148438 623.46875 822.808594 619 825.085938 M 877.648438 825.070313 C 874.265625 827.664063 880.234375 833.320313 883.351563 831 C 886.734375 828.335938 880.765625 822.679688 877.648438 825.070313 M 708 827.761719 C 701.1875 830.324219 705 840.023438 711.867188 837.242188 C 718 834.6875 714.472656 825.367188 708 827.761719 M 788 827.785156 C 781.3125 830.375 787.75 839.824219 793.851563 837.382813 C 800.441406 834.742188 793.789063 825.648438 788 827.785156 M 727 828.742188 C 721 831.449219 728.816406 835.230469 732.675781 833.257813 C 737.882813 830.597656 730.554688 827.222656 727 828.742188 M 765.660156 829.023438 C 761.738281 832.46875 772.339844 837 775.246094 834 C 778.582031 830.605469 768.582031 826.460938 765.660156 829.023438 M 865 830.757813 C 853.6875 832.660156 867 847.164063 874.890625 845.472656 C 884.410156 843.410156 871.921875 829.597656 865 830.757813 M 629 831.742188 C 619.953125 835.230469 619 848.816406 631 844 C 640 840.132813 640.175781 827.4375 629 831.742188 M 682.871094 832 C 680.96875 833.664063 684.460938 835.398438 685.917969 834.011719 C 687.71875 832.304688 684.347656 830.683594 682.871094 832 M 812.175781 832 C 810.351563 834.179688 815.511719 836.226563 817.167969 834.820313 C 819.386719 833 813.847656 830 812.175781 832 M 657 835.757813 C 651.257813 838.226563 657 844.351563 661.851563 842.253906 C 667.746094 839.703125 661.859375 833.785156 657 835.757813 M 836.621094 836.03125 C 832.4375 839.445313 840.855469 845.113281 844.339844 842 C 847.894531 838.765625 839.890625 833.367188 836.621094 836.03125 M 685 836.53125 C 674.378906 839 664.457031 847.535156 657 855.003906 C 655.792969 856.21875 646 866 652.191406 866.453125 C 655.777344 866.773438 659.40625 863 662 861 C 668 856.285156 674.273438 851.691406 681 848.121094 C 684.457031 846.285156 689.871094 845 692.199219 841.613281 C 695.640625 836.65625 688 835.832031 685 836.53125 M 808.621094 837.042969 C 805.453125 839.59375 809.96875 843.363281 812 844.648438 C 821 850.320313 830.386719 855 839 861.421875 C 840.875 863 846.398438 867.769531 848.914063 865 C 851.546875 862.015625 844.65625 856.546875 842.960938 855 C 836 848.222656 828 841.699219 819 838.230469 C 816.386719 837.238281 811.207031 835 808.621094 837.042969 M 726.660156 841.011719 C 722.886719 844.226563 732.589844 847.597656 735.246094 845 C 738.421875 842 729.203125 839 726.660156 841.011719 M 765.335938 840.742188 C 760.503906 843.167969 768.59375 847 771.664063 845.398438 C 776.5 843.0625 768.589844 839.109375 765.335938 840.742188 M 613.980469 843.800781 C 609.195313 845.285156 601.289063 859.207031 610 857.246094 C 615.679688 856 622.453125 841.175781 613.980469 843.800781 M 882.605469 844.042969 C 877.445313 848 887 860.214844 892.679688 857 C 898.980469 853.179688 888.199219 839.800781 882.605469 844.042969 M 645 846.679688 C 637.78125 848 638.273438 858.207031 646 856.523438 C 652.964844 855.003906 652.578125 845.320313 645 846.679688 M 852 847 C 844 849.40625 851.777344 858.226563 857.890625 856.550781 C 865.445313 854.480469 857.917969 845 852 847 M 632 847 C 618.785156 847.429688 627.917969 858.652344 632 847 M 870.890625 848.070313 C 868.425781 850.390625 873.875 854.78125 876.289063 853 C 879.167969 850.695313 873.359375 845.746094 870.890625 848.070313 M 869 946 L 868 946 C 868 928 864.492188 908 858 891 L 857 891 C 853.480469 902.097656 857.441406 911.015625 859.386719 922 C 862.726563 941 860.910156 972.167969 841 982 C 837.3125 983.65625 829.953125 985.820313 827 981.566406 C 821.960938 974.207031 828.679688 960.222656 823.582031 951.003906 C 812.292969 930.585938 780.691406 950.273438 774.339844 965 C 767.683594 980.425781 771.902344 1000.601563 791 1002.53125 C 800.707031 1003.515625 810.636719 999.566406 820 997.664063 C 824.726563 996.707031 829.339844 998.261719 834 997.304688 C 845.910156 995 855.953125 984.617188 861 974 L 862 974 C 859.832031 990.027344 846.511719 998.242188 836 1009 C 824.882813 1020.40625 816.648438 1034.71875 800 1038.332031 C 789.171875 1040.679688 777 1043.714844 766 1044 C 763.230469 1044.054688 756.949219 1045.078125 755 1042.398438 C 752.554688 1038.648438 755.65625 1028.363281 756 1024 L 757 1024 C 769.261719 1048.613281 791 1038.253906 804 1020 C 794.863281 1024.070313 780.621094 1030.292969 772.789063 1020.8125 C 765.453125 1012 764.96875 986.695313 750 986.296875 C 738.46875 986 736.582031 1006.277344 732.625 1014 C 724.503906 1030 710.667969 1026.058594 697 1020 C 702.691406 1030 717.449219 1044 730 1038.46875 C 736.667969 1035.589844 739.6875 1029.390625 745 1025 C 745 1029.539063 747.996094 1038.578125 744.972656 1042.398438 C 742.6875 1045.28125 736 1044 733 1043.574219 C 722.25 1042.164063 711.570313 1041.269531 701 1038.625 C 686.710938 1035.050781 679.914063 1025.035156 669.996094 1015 C 658 1003.007813 642 992.226563 638 975 L 639 975 C 644.628906 984.785156 654.277344 995.449219 666 997.441406 C 671 998.292969 675.875 996.734375 681 998 C 691.433594 1000.234375 703.230469 1004.085938 714 1001.46875 C 730.503906 997.457031 730.554688 974.371094 724.671875 962 C 717 946.164063 686.707031 932.617188 676.378906 953.003906 C 671.851563 962 678 973.5625 673.816406 981 C 670.851563 986 663.171875 983.710938 659 981.621094 C 638.871094 971.554688 637 940.261719 640.804688 921 C 642 914 648.367188 901.054688 643.839844 894.296875 C 639.984375 888.542969 638.34375 904.289063 637.996094 906 C 635.175781 920 632 932.65625 632 947 C 626 937.417969 628.996094 922.816406 627.574219 912 C 626.996094 907.582031 625.855469 901.269531 628.179688 897.183594 C 631.4375 891.460938 639.773438 889.65625 645 886.300781 C 656.746094 878.753906 666.300781 868.273438 679 862.109375 C 699.488281 852.164063 720.542969 859.027344 742 860 C 759.832031 860.734375 777 853 795 854.089844 C 816.691406 855.574219 832.410156 869.683594 849 882.105469 C 855.515625 887 867.957031 890.5625 871.683594 898.015625 C 873.761719 902.179688 872.230469 906.632813 872 911 C 871.523438 922.765625 869.925781 934.28125 869 946 M 656 886 C 674.710938 886 690.507813 873.226563 709 873.003906 C 724.269531 872.820313 738.824219 879.144531 754 878.742188 C 768.289063 878.359375 782.699219 871.4375 797 873.289063 C 813.609375 875.441406 828 886 845 886 C 840.4375 881.589844 833.699219 881.503906 828 879.125 C 816.859375 874.476563 806.242188 868.394531 794 867.171875 C 779.378906 865.707031 764.746094 870 750 869 C 730.59375 867.582031 711.945313 863 693 870.066406 C 684.476563 873.269531 676.5625 878 668 881 C 663.921875 882.421875 658.589844 882.332031 656 886 M 598 871 L 598 875 L 597 875 C 597.175781 873.316406 597.316406 872.507813 598 871 M 903 873 L 903 876 L 902 876 C 902.25 874.546875 902.316406 874.246094 903 873 M 597 876 L 597 880 L 596 880 C 596.175781 878.316406 596.316406 877.507813 597 876 M 995 879 C 995 899.484375 989.835938 919.554688 989 940 C 988.472656 954.617188 992 969.339844 992 984 L 994 984 C 994 949 997 914 997 879 L 995 879 M 503 880 C 503 915.402344 506 950.585938 506 986 L 507 986 C 514 962.097656 510 932.421875 508 908 C 507.273438 899.6875 508.488281 886.707031 503 880 M 749.589844 935.085938 C 746.910156 937 749.433594 942 752.410156 939.761719 C 755 938 752.472656 933.027344 749.589844 935.085938 M 749 948.761719 C 740.777344 951.765625 743 969.09375 752.957031 965.390625 C 761.195313 962.308594 758 945.464844 749 948.761719 M 584 964 C 577.640625 964.480469 578.707031 973.265625 584.972656 972.792969 C 591.304688 972.3125 590 963.378906 584 964 M 915 964 C 909.175781 965.285156 910.722656 974.761719 916.945313 973.621094 C 923 972.515625 920.984375 962.644531 915 964 M 593 976.695313 C 586 978.539063 587.667969 988.109375 594.996094 986.523438 C 602.722656 985 600.652344 974.683594 593 976.695313 M 903 977 C 895.847656 979.390625 904.601563 989.269531 910.679688 986.253906 C 916.710938 983.265625 907.894531 975.175781 903 977 M 582 1004.652344 C 571.894531 1008 576.613281 1022.449219 586.957031 1018.257813 C 595.6875 1014.71875 591.480469 1001.601563 582 1004.652344 M 912 1004.742188 C 902.578125 1008.785156 912.335938 1022 920.890625 1018.257813 C 930.1875 1014.28125 920.441406 1001.210938 912 1004.742188 M 611 1006.757813 C 603.554688 1009.644531 608.882813 1021 615.941406 1017.636719 C 623 1014.28125 618.28125 1004 611 1006.757813 M 884 1006.757813 C 876.664063 1009.605469 881.996094 1020.699219 888.890625 1018.214844 C 896.40625 1015.507813 891.613281 1004 884 1006.757813 M 597 1020.046875 C 590.851563 1023.199219 593.746094 1034.167969 600.773438 1031.238281 C 606.527344 1029 603.878906 1016.578125 597 1020.046875 M 899.226563 1019.785156 C 892.832031 1022.300781 897.214844 1034.769531 903.851563 1031.710938 C 909.984375 1029 906 1017.105469 899.226563 1019.785156 M 630 1021.785156 C 620.167969 1025.152344 628.515625 1041.089844 636.957031 1038.214844 C 646.832031 1035 638.484375 1019 630 1021.785156 M 866 1021.695313 C 858 1023.757813 854.253906 1041 865 1038.523438 C 873.257813 1036.730469 876.671875 1019 866 1021.695313 M 610 1038.03125 C 604.742188 1041 606.566406 1049.382813 612.945313 1046 C 618.519531 1043 616.511719 1034.527344 610 1038.03125 M 655 1037.722656 C 646 1038.683594 644.859375 1052.578125 654.996094 1052 C 664.351563 1051.21875 664.972656 1036.660156 655 1037.722656 M 843 1037.761719 C 832.941406 1039.285156 838.253906 1054.011719 846.996094 1052.460938 C 857 1050.683594 851.570313 1036.464844 843 1037.761719 M 884.320313 1038.042969 C 878.648438 1041.65625 886.742188 1049.25 891.675781 1046 C 897 1042.40625 888.863281 1035.152344 884.320313 1038.042969 M 578 1042.800781 C 570.648438 1045.050781 568.574219 1060.585938 577.988281 1057.378906 C 584.445313 1055.175781 586.640625 1040.15625 578 1042.800781 M 918 1042.785156 C 909.570313 1046 917.90625 1060.746094 925.773438 1057.253906 C 933.367188 1054 925.253906 1040.210938 918 1042.785156 M 623 1047.761719 C 615.648438 1050.484375 619.59375 1061.761719 626.957031 1059.351563 C 634.761719 1056.796875 630.589844 1045 623 1047.761719 M 872 1048 C 865.242188 1050.675781 868.652344 1062.171875 875.957031 1060 C 884 1057.347656 879.730469 1044.769531 872 1048 M 744 1072 L 743 1072 C 739.664063 1064 733.96875 1057.105469 731 1049 C 734.777344 1049 741.410156 1047.058594 744.667969 1049.195313 C 749.222656 1052.179688 744 1067.152344 744 1072 M 757 1074 C 753.609375 1069.441406 749.820313 1054.421875 754.601563 1049.742188 C 756.984375 1047.410156 767.339844 1047 767.96875 1051.304688 C 768.6875 1056.4375 759.535156 1069.160156 757 1074 M 593 1056.03125 C 586.199219 1059.785156 590.53125 1071 597.890625 1067 C 604.566406 1063.34375 600.296875 1052.128906 593 1056.03125 M 902 1055.761719 C 894.777344 1058.5625 899.949219 1070 906.941406 1067.378906 C 914.367188 1064.722656 909 1053.078125 902 1055.761719 M 661 1061.742188 C 653.234375 1065 654.414063 1078.789063 663.996094 1075.253906 C 673.34375 1071.804688 671.898438 1057.347656 661 1061.742188 M 831.230469 1062.027344 C 823.8125 1066.585938 834 1078.59375 840.890625 1075 C 849.863281 1070.179688 838.71875 1057.429688 831.230469 1062.027344 M 614.226563 1068.761719 C 608 1071.316406 613 1081.292969 618.851563 1079.339844 C 625 1077.226563 620.734375 1066.058594 614.226563 1068.761719 M 880.226563 1069.027344 C 874.5 1072.492188 878.1875 1082.625 884.890625 1079 C 891.722656 1075.242188 887.320313 1064.742188 880.226563 1069.027344 M 641 1072.757813 C 632.96875 1075.796875 635.9375 1090 644.890625 1086.253906 C 652.414063 1083.191406 649.753906 1069.480469 641 1072.757813 M 855 1072.695313 C 845.9375 1075.140625 851 1089.085938 859.890625 1086.5625 C 867.835938 1084.28125 863 1070.527344 855 1072.695313 M 482 1074 L 482 1084 L 481 1084 C 481 1080.585938 480.671875 1077.164063 482 1074 M 699 1078.800781 C 691.179688 1079.660156 692.3125 1092 699.988281 1091.621094 C 708 1091.394531 706.855469 1078 699 1078.800781 M 675 1079.785156 C 666.746094 1082.617188 670.421875 1097.554688 678.957031 1095 C 687.425781 1092.230469 683.890625 1076.765625 675 1079.785156 M 798 1079.761719 C 791 1082.507813 795.507813 1094.5 802.773438 1091.253906 C 809 1088.449219 805 1077.042969 798 1079.761719 M 821 1079.761719 C 812.789063 1082.746094 815.855469 1098 824.980469 1095.164063 C 833.542969 1092.519531 830 1076.480469 821 1079.761719 M 712.226563 1087.761719 C 706.679688 1090.082031 710 1098.613281 715.851563 1096.378906 C 721.441406 1094.203125 717.992188 1085.351563 712.226563 1087.761719 M 783.230469 1088.046875 C 778 1091.019531 782.675781 1099 787.769531 1096 C 792.964844 1093 788.324219 1085.132813 783.230469 1088.046875 M 656 1091.761719 C 647.722656 1093.496094 649.289063 1106.679688 657.957031 1104.546875 C 665.726563 1102.636719 664.386719 1090.007813 656 1091.761719 M 843 1092 C 834.324219 1092.214844 836.28125 1105.0625 844 1105.261719 C 853 1105.496094 851.550781 1091.542969 843 1092 M 601.945313 1095 C 596.433594 1095.355469 592.824219 1105.265625 600 1104.535156 C 604.953125 1104.03125 608.300781 1094.527344 601.945313 1095 M 895.476563 1096.042969 C 890.683594 1099.425781 899.332031 1107.117188 903.382813 1104 C 907.792969 1100.515625 899.691406 1093.070313 895.476563 1096.042969 M 697 1098.785156 C 689.675781 1101.316406 693.917969 1111.105469 700.941406 1108.757813 C 707.996094 1106.402344 703.714844 1096.496094 697 1098.785156 M 805 1109 C 805.398438 1117.734375 814.800781 1107.347656 805 1109 C 807.898438 1103.441406 802.835938 1094.324219 796.4375 1099.746094 C 789.824219 1105.351563 799.859375 1110.394531 805 1109 M 677 1100.800781 C 670.628906 1103 672.949219 1113.714844 679.941406 1111.351563 C 686.257813 1109.21875 683.695313 1098.640625 677 1100.800781 M 821 1100.800781 C 813.660156 1101.609375 815.839844 1112.695313 822.957031 1111.457031 C 829.992188 1110.234375 827.746094 1100.058594 821 1100.800781 M 577.667969 1106.667969 C 577.722656 1106.722656 577.777344 1107.777344 577.332031 1107.332031 C 577.277344 1107.277344 577.222656 1106.222656 577.667969 1106.667969 M 608 1106.785156 C 599.871094 1109.585938 603.625 1124.089844 611.957031 1121.351563 C 620 1118.660156 616.453125 1104 608 1106.785156 M 890 1107 C 881.859375 1108 882.195313 1123.222656 890.980469 1121.507813 C 898.675781 1120.003906 898.675781 1105.699219 890 1107 M 690.707031 1109.171875 C 688.3125 1110.738281 692 1114.804688 694.265625 1113 C 696.234375 1111.171875 692.644531 1108 690.707031 1109.171875 M 664 1116.761719 C 657 1119.1875 655.816406 1132.8125 664.957031 1129.390625 C 671.414063 1127 672.949219 1113.613281 664 1116.761719 M 831.433594 1117.03125 C 825 1121.238281 833.480469 1133.144531 839.773438 1129.777344 C 847.601563 1125.585938 838.335938 1112.402344 831.433594 1117.03125 M 627.210938 1118.761719 C 621.558594 1121.078125 623.628906 1131.449219 629.945313 1128.710938 C 635.753906 1126.191406 633.835938 1116.046875 627.210938 1118.761719 M 869.316406 1119.046875 C 864 1122.234375 869 1131.796875 874.851563 1128.777344 C 880.933594 1125.589844 874.769531 1115.707031 869.316406 1119.046875 M 618.390625 1127.175781 C 615.453125 1128.804688 617.492188 1134.09375 620.4375 1132 C 622.558594 1130.34375 621.257813 1125.582031 618.390625 1127.175781 M 641 1144 C 624 1154 657.425781 1159.503906 644 1144 C 649.1875 1141.152344 654 1129.015625 644.90625 1127.378906 C 634.359375 1125.480469 635.886719 1139.503906 641 1144 M 855 1143 C 844.882813 1158 870.585938 1156.699219 859 1143 C 865.960938 1139.347656 865 1127.78125 856 1127.574219 C 846.648438 1127.355469 849.242188 1140 855 1143 M 879.617188 1128.171875 C 877.800781 1129.410156 879.664063 1132.5 881.632813 1131.660156 C 884 1130.632813 881.730469 1126.730469 879.617188 1128.171875 M 886 1137 C 877 1138.355469 883.402344 1151.191406 890.941406 1149.636719 C 899 1148 892.96875 1135.714844 886 1137 M 610 1137.746094 C 603 1140.558594 604.746094 1153.078125 612.945313 1149.382813 C 619.734375 1146.320313 618.59375 1134.3125 610 1137.746094 M 624 1143.042969 C 617.957031 1146.507813 623.539063 1157.296875 629.773438 1153.800781 C 635.976563 1150.324219 630.636719 1139.410156 624 1143.042969 M 871 1142.761719 C 864.945313 1145.128906 867 1156.480469 873.945313 1154.339844 C 880.394531 1152.316406 878.546875 1140 871 1142.761719 M 798 1172 C 792.328125 1177.480469 781.554688 1177.734375 774 1178.011719 C 758.21875 1178.585938 742.796875 1179.335938 727 1177.828125 C 722.964844 1177.445313 707 1178 705.347656 1173.589844 C 704.242188 1171 722.394531 1162.265625 725 1160.425781 C 731.875 1155.570313 739.40625 1150.222656 748 1149.183594 C 762 1147.484375 771 1158 782 1165 C 787 1168.125 792.777344 1169.257813 798 1172 M 606 1169 C 590.207031 1175.371094 624.902344 1184.621094 613 1172.609375 C 612.175781 1171.769531 611 1171.492188 610 1171 C 611.511719 1169.757813 613 1168.683594 613.992188 1167 C 619.511719 1156.054688 600.230469 1150.476563 603.414063 1164 C 603.878906 1166 604.902344 1167.339844 606 1169 M 727 1166 L 758 1166 C 760.316406 1166 767.523438 1167.089844 768 1163.699219 C 768.882813 1158.800781 759.375 1156.238281 756 1155.519531 C 745.382813 1153.253906 732.335938 1155.808594 727 1166 M 890 1170 L 890 1171 C 885 1172.488281 883 1179.53125 890 1178.664063 C 895.804688 1178 899.851563 1170.617188 892 1170 C 893.382813 1168.695313 894.601563 1167.632813 895.449219 1166 C 904.875 1146.421875 871 1163.015625 890 1170 M 744 1168.464844 C 742.53125 1168.730469 732.496094 1171.011719 735.753906 1174.015625 C 740.410156 1178.316406 759.359375 1176.34375 764.9375 1174.441406 C 770.203125 1172.648438 766.433594 1169.710938 762.996094 1168.765625 C 757.363281 1167.214844 749.722656 1167.433594 744 1168.464844 M 680 1179 C 675.386719 1195.421875 674.390625 1212.539063 669.574219 1229 C 660.796875 1259.011719 647.769531 1287.671875 637 1317 C 633.332031 1327.183594 629.558594 1338.003906 630 1349 C 630 1351 630.449219 1358.792969 633.300781 1358.792969 C 636 1358.792969 638.253906 1352 639 1350 C 643.574219 1340.046875 647.734375 1330 652 1320 C 666.652344 1287.15625 677.648438 1252.660156 682.28125 1217 C 683.585938 1207 688 1186.714844 680 1179 M 820 1179 C 812.796875 1189.777344 816.328125 1207 818 1219 C 822.855469 1254.34375 835 1288.351563 849 1321 C 852.773438 1329.804688 857.269531 1338.25 861 1347 C 863.238281 1351.753906 864.269531 1357.308594 869 1360 C 869 1318.277344 848.429688 1282.742188 835.515625 1244 C 831 1231 827.167969 1217.59375 824.449219 1204 C 822.863281 1196.074219 823.183594 1186.378906 820 1179 M 508 1318 C 508.652344 1320.433594 509 1321.28125 511 1323 C 510.25 1320.746094 509.65625 1319.6875 508 1318 M 991 1318 C 990 1319.515625 989.613281 1320.339844 989 1322 C 990.996094 1320.757813 991.558594 1320.308594 991 1318 "/>
</g>
</svg>
