<?xml version="1.0" encoding="UTF-8"?>
<svg xmlns="http://www.w3.org/2000/svg" xmlns:xlink="http://www.w3.org/1999/xlink" width="1500pt" height="1500pt" viewBox="0 0 1500 1500" version="1.1">
<g id="surface1">
<path style=" stroke:none;fill-rule:nonzero;fill:rgb(0%,0%,0%);fill-opacity:1;" d="M 563 1267 C 570.652344 1261.078125 571.761719 1250.832031 574 1242 C 579.292969 1223 588.289063 1202.628906 590 1183 L 591 1183 C 591 1200.371094 593.828125 1219 592.519531 1236.015625 C 591.308594 1251.742188 581 1269.085938 585.433594 1285 C 586.722656 1289.726563 591.167969 1292.699219 593.3125 1297 C 595.46875 1301.328125 593.984375 1305.472656 594.660156 1310 C 596 1319.09375 603.628906 1324.738281 612 1327.214844 C 625.472656 1331.199219 643.277344 1329.472656 653.984375 1319.816406 C 657.996094 1316.199219 659.835938 1308.351563 664.226563 1305.816406 C 667.261719 1304.0625 671.863281 1306.789063 675 1307.382813 C 680.386719 1308.394531 686 1307.804688 691 1305.320313 C 703.316406 1299.132813 701 1286.175781 709.429688 1278.5625 C 717.433594 1271.265625 737.296875 1282.460938 746 1284.625 C 752.871094 1286.332031 759.925781 1287.144531 767 1287 C 769.210938 1287 773.285156 1285.792969 774.972656 1287.691406 C 779 1292.410156 775 1310.773438 775 1317 C 774.949219 1348.207031 766 1379 766 1410 C 771.625 1406 773 1393.550781 774.847656 1387 C 780.824219 1364.296875 784 1340.441406 784 1317 C 784 1309.390625 780.574219 1290.230469 786.433594 1284.652344 C 790.398438 1281 811.453125 1277.28125 814.820313 1282.316406 C 819.566406 1289.410156 817.96875 1306.289063 820.429688 1315 C 829.570313 1347.398438 852.390625 1394.363281 890 1400 C 884.28125 1387.734375 869.234375 1378.832031 860 1369 C 844.535156 1352.273438 832.652344 1330.417969 828 1308 C 825.335938 1295.148438 818.804688 1279.175781 834 1273.203125 C 837 1272.015625 840.734375 1270.367188 843.890625 1272.042969 C 848.667969 1274.574219 848.289063 1280.761719 850.453125 1285 C 852.855469 1289.699219 857.414063 1293 859 1298 C 860.988281 1303.445313 859.328125 1309.429688 860.519531 1315 C 864.402344 1333.21875 881.859375 1355.753906 899 1363 C 894.445313 1353.230469 883.65625 1347 877.441406 1338 C 869 1326.019531 866.410156 1313 863 1299 C 870.234375 1301.3125 877.351563 1302.742188 885 1301.816406 C 889 1301.328125 892.914063 1299 897 1299.484375 C 908.816406 1301.085938 917 1307.078125 930 1305.828125 C 940.613281 1304.804688 954.542969 1301.605469 960.65625 1292 C 963.363281 1287.6875 963 1282.40625 965.53125 1278 C 969.910156 1270.277344 975.988281 1266.632813 975.992188 1257 C 976 1241 967.210938 1226.070313 962.722656 1211 C 958 1195.304688 957 1178.285156 957 1162 L 958 1162 C 962.898438 1180 979.972656 1200 979.371094 1219 C 979.195313 1224.472656 974.621094 1229 973 1234 C 976.695313 1231.828125 979 1228.144531 982 1225 C 983.261719 1230.316406 986.285156 1235.398438 985.878906 1241 C 985.496094 1246.324219 981.933594 1250.765625 981 1256 L 982 1256 C 984 1252.402344 986.234375 1248.78125 988 1245 L 989 1245 C 990.472656 1248.3125 991.765625 1250.320313 995 1252 C 993.882813 1248.121094 991 1244.128906 991.316406 1240 C 991.871094 1230 1002.871094 1216.816406 1006.574219 1207 C 1013.871094 1187.648438 1017.378906 1166.660156 1014.421875 1146 C 1013.390625 1138.8125 1013.457031 1122.136719 1007 1118 C 1011.988281 1144.765625 1010.960938 1170.800781 997.28125 1195 C 994.949219 1199.121094 988.949219 1213.414063 984 1214.367188 C 980.511719 1215.046875 977.238281 1199.710938 976.332031 1197 C 969.964844 1178 955.179688 1159.433594 955.179688 1139 C 955.179688 1127.046875 954 1110.035156 959.1875 1099 C 963.875 1088.75 975.710938 1082.058594 976.609375 1070 C 977 1063.824219 976.96875 1051 975.195313 1045 C 972.949219 1037.601563 966.546875 1034.257813 970.324219 1026 C 984.644531 994.71875 1016.613281 971 1022 935 L 1023 935 C 1022.996094 973.664063 1004.785156 1009.046875 1001.171875 1047 C 995.660156 1105 1027 1161 1053.21875 1210 C 1063.574219 1229.496094 1075 1255.519531 1095 1267 C 1090.5625 1253 1078.886719 1240.277344 1072.246094 1227 C 1048.71875 1180 1018.792969 1128 1012.285156 1075 C 1008 1041.160156 1021.667969 1010.6875 1027.574219 978 C 1034.878906 937.59375 1035.988281 897 1034.984375 856 C 1034.484375 835.585938 1027.222656 818.441406 1023 799 C 1020.875 789.113281 1022 779 1020.195313 769 C 1018 757.6875 1011.53125 745.683594 1013.617188 734 C 1017 714.714844 1026.246094 696.355469 1032.78125 678 C 1035.734375 669.710938 1036.671875 659.003906 1042.394531 652.042969 C 1049.753906 643.09375 1063.28125 645.179688 1070.441406 636 C 1075.785156 629.082031 1071 621 1075 614.210938 C 1079.195313 607.074219 1089.789063 602.046875 1095 595 C 1104.328125 582.753906 1109.203125 568 1117.324219 555 C 1124.269531 544 1137.402344 540.21875 1142.289063 527 C 1145 519.628906 1143.699219 511.6875 1144 504 C 1144.316406 497.722656 1147.402344 491.273438 1146.492188 485 C 1145.5625 478.570313 1140.742188 474.007813 1138.785156 468 C 1135.527344 458 1135.621094 447.140625 1132.84375 437 C 1130.683594 429.132813 1125.976563 422.046875 1124.46875 414 C 1122.222656 402.011719 1129.453125 392.398438 1129.953125 381 C 1130.585938 366.578125 1119.324219 354.042969 1117.300781 340 C 1115.8125 329.664063 1118.621094 319.351563 1117.910156 309 C 1116.550781 289.113281 1112 269.121094 1106.574219 250 C 1100.984375 230.417969 1093.398438 211 1083.691406 193 C 1077.472656 181.53125 1069.566406 171.148438 1064.601563 159 C 1051.78125 127.597656 1024.261719 85 984 93.453125 C 948.839844 101 934 155.15625 925.578125 185 C 921 200.46875 919.839844 216.632813 915.277344 232 C 908.972656 253.253906 899.546875 273.558594 893.882813 295 C 890.488281 308 890.28125 321.160156 887 334 C 885.1875 341.722656 880.585938 348.425781 878.21875 356 C 875.671875 364.148438 876.214844 372.828125 873.789063 381 C 870.75 391.242188 864.441406 400.152344 860.453125 410 C 857.328125 417.714844 855.617188 426.71875 857.527344 435 C 858.269531 438.199219 863.90625 445.152344 862 448.132813 C 860.390625 450.652344 856.382813 450.082031 854 449.441406 C 840.386719 445.777344 834.851563 451.363281 822 452.8125 C 815.539063 453.539063 810.257813 449.605469 804 449.09375 C 793.378906 448.222656 783.46875 452 773 452 C 764.679688 452 757.605469 447.648438 749 448.039063 C 742 448.351563 735.835938 451.59375 729 452.371094 C 721.933594 453.171875 715 451.449219 708 453.015625 C 701.429688 454.460938 694.859375 459.296875 688 458.773438 C 682.566406 458.363281 678 454.789063 673 453.105469 C 663.90625 450.066406 650.914063 461.121094 644.238281 456.472656 C 639 453 646.242188 442.792969 646.816406 438 C 647.929688 428.710938 643.527344 420.210938 638 413 C 632 405 624.394531 398 619.519531 389 C 615.886719 382.355469 615 374.621094 611.324219 368 C 607.785156 361.753906 602.496094 356.574219 599.519531 350 C 593.332031 336.355469 590.621094 321.640625 583.753906 308 C 571.988281 284.636719 554.960938 264.386719 543.269531 241 C 530.175781 214.808594 521.324219 189.722656 501.867188 167 C 491.28125 154.636719 479 139.195313 464 132.3125 C 435.933594 119.535156 395.671875 132.589844 382.863281 161 C 376 176 374.921875 192.371094 370.574219 208 C 359.824219 246.683594 349.253906 283.222656 351 324 C 351.941406 344.628906 360 364.644531 360.542969 385 C 360.839844 396.296875 353.902344 406.710938 354.261719 418 C 354.574219 428 364 434.144531 363.945313 444 C 363.832031 452 360 459.207031 359.171875 467 C 357.730469 480 359.605469 493.289063 357.558594 506 C 356.445313 513 351.496094 519 351.589844 526 C 351.679688 532.816406 356.546875 538.464844 357.984375 545 C 359.554688 552.132813 358 559.4375 361.953125 566 C 368 576.414063 380.347656 579.582031 389 587.183594 C 401.867188 598.492188 409.65625 614.164063 422 626 C 429.433594 633.0625 440.851563 635 447.730469 642.328125 C 453.863281 649 448.546875 660.226563 456.328125 667.609375 C 463.386719 674.304688 473.984375 672 481.984375 676.417969 C 490.3125 681.070313 494.195313 693.613281 497.550781 702 C 511 735.746094 512 771.203125 512 807 C 512 821.136719 508 839.449219 511.339844 853 C 514.363281 865.640625 525.339844 874.460938 528.710938 887 C 531 896 529.996094 905.785156 531.425781 915 C 533.972656 931.433594 539 947.804688 545.863281 963 C 555.851563 985.597656 572.210938 1003.757813 578.847656 1028 C 580.460938 1034 584 1042.285156 582.921875 1048.425781 C 581.996094 1053.476563 577.683594 1057.230469 575.96875 1062 C 573.628906 1068.515625 574.804688 1077.386719 576.210938 1084 C 578.597656 1095.21875 586.417969 1098.160156 592.296875 1107 C 595.378906 1111.632813 595.722656 1118.566406 595.960938 1124 C 597.65625 1162.703125 581.828125 1202.164063 571.574219 1239 C 568.980469 1248.328125 564.417969 1257.402344 563 1267 M 1030 126 C 1037.960938 135.1875 1041.851563 149.492188 1048.695313 160 C 1075.464844 201.109375 1097.308594 238.765625 1105.566406 288 C 1108.65625 306.4375 1106.578125 324.597656 1108 343 C 1108.816406 351.773438 1114 359.589844 1116.242188 368 C 1118.21875 375.464844 1117.589844 382.429688 1116.832031 390 C 1115.945313 398.808594 1115.699219 410.363281 1110.867188 418 C 1100.546875 434.300781 1082 442.503906 1083 465 C 1084.339844 490.121094 1118.761719 494.105469 1122.671875 516 C 1124.761719 527.71875 1117.191406 536.609375 1111.605469 546 C 1102.835938 560.742188 1097 577.410156 1086.332031 591 C 1080.648438 598.222656 1071.277344 610.292969 1062 602 C 1053.882813 594.511719 1052.25 584.625 1048 575 C 1043.390625 564 1034.476563 553.820313 1037.761719 541 C 1041.234375 527.445313 1052.765625 518 1056 504 C 1060.324219 486.476563 1057.183594 467.429688 1065.890625 451 C 1074.175781 435.363281 1088.261719 423 1093.996094 406 C 1100.5 386.734375 1100.914063 365 1100 345 C 1098.5 310 1094.769531 273.164063 1082 240 L 1081 240 C 1083.539063 252.367188 1087.792969 264.484375 1089.726563 277 C 1093.398438 300.789063 1093 325 1093 349 C 1093 365.566406 1094 383 1089.570313 399 C 1082.421875 424.335938 1059.628906 442.125 1054 468 C 1051 481.566406 1051.628906 495.699219 1047.25 509 C 1044 518.632813 1037.875 527.054688 1033.257813 536 C 1030.894531 540.578125 1025.652344 556.25 1020 557.078125 C 1016.636719 557.574219 1014.964844 552.359375 1014 550 C 1010.695313 541.152344 1010.449219 531.359375 1011 522 C 1012.261719 505 1019.585938 490.558594 1022.574219 474 C 1026.632813 451.554688 1026.273438 428.128906 1032 406 C 1025.488281 413 1024.699219 428 1022.652344 437 C 1019.355469 451.585938 1017.429688 466.558594 1013.511719 481 C 1009.496094 495.792969 1004 506.207031 1004 522 L 1003 522 C 992.3125 508.023438 987.957031 520 976 524 C 978.78125 513.246094 977 474.1875 997.5625 482.285156 C 1000.410156 483.414063 1002.621094 487.078125 1005 489 C 1004.445313 478.332031 996.890625 474.082031 987 474 L 987 473 C 989.457031 472 991 471 993 469 L 984 470 L 984 469 C 986.289063 468 988 466.640625 990 465 L 982 466 L 982 465 C 984.417969 464 985.988281 462.757813 988 461 L 980 462 L 980 461 C 982.207031 459.46875 984 458 986 456 L 977 456 L 977 455 C 980.382813 454.386719 982.566406 453.433594 985 451 L 974 452 L 974 451 C 984.738281 448.8125 979 443 971 443 L 971 442 C 974.210938 441.359375 975.84375 440.457031 978 438 L 969 438 L 969 437 C 975.714844 436 971.492188 433.144531 967 433 L 967 432 C 968.480469 431.015625 968.203125 431 970 431 C 968 429.460938 966.171875 428.21875 964 427 C 968.921875 421.574219 952.917969 403.777344 950.417969 398 C 947 390.171875 952.207031 388 956 382 L 952 383 C 952.96875 380.066406 954.421875 377.652344 956 375 L 952 375 C 953.347656 370.328125 955.957031 366.375 958 362 C 955.414063 364.308594 953.28125 366 950 367 C 951.269531 361.714844 953.820313 357.375 957 353 L 953 354 C 955.304688 347 960.816406 340.160156 962 333 C 958.351563 338.511719 955.464844 344.066406 950 348 C 954.328125 323 973.511719 301.71875 982 278 L 981 278 C 977.605469 285.269531 973.648438 292.457031 969 299 L 968 299 C 973.765625 284.136719 981.507813 270 987 255 C 982 260.089844 979.574219 267.800781 976 274 C 968.8125 287.214844 959.199219 301.421875 955 316 L 954 316 C 954 300.097656 961.488281 286.179688 965 271 L 964 271 C 946.777344 315.402344 925.273438 359.710938 941.355469 408 C 946.207031 422.566406 952.929688 437.246094 961.519531 450 C 966.71875 457.714844 976.425781 465.355469 977.78125 475 C 978.695313 481.476563 975.4375 488 973.894531 494 C 970.890625 506 968.328125 518.628906 969 531 L 968 531 C 966.171875 526.347656 958 514.6875 953.851563 512.175781 C 947.253906 508.183594 942 509.421875 937 502 C 922.558594 480.199219 928.34375 452.125 902 438.757813 C 898.347656 437 894.222656 434.371094 890 434.371094 C 883.328125 434.371094 877 439.757813 871 442 L 873 434 C 864.765625 434.714844 866.429688 423.503906 868 418 C 871.71875 405.472656 879.445313 394.433594 883.480469 382 C 885.992188 374.253906 884.785156 365.816406 887.222656 358 C 889.496094 350.699219 894.277344 344.503906 896 337 C 900 320.375 900.695313 303.679688 905.71875 287 C 911 269.058594 919.691406 252.179688 924.371094 234 C 934.421875 195 940.785156 154.589844 963 120 C 973 104.523438 992.855469 97 1010 106 C 1014.871094 108.476563 1037.972656 120.160156 1030 126 M 645 467 C 634.914063 481.316406 618.621094 490 608 504 C 621 494 632.300781 482 646 472.28125 C 651.429688 468.480469 657.195313 463.085938 664 462.1875 C 673.472656 461 680.824219 467.527344 690 468 L 690 469 C 664.28125 484.011719 634.648438 491.527344 613 513 C 635.734375 501.035156 660.976563 492 683 479.121094 C 689.367188 475.40625 693.714844 469.269531 700 465.480469 C 705.886719 462 713.199219 460.707031 720 461.039063 C 721.984375 461.136719 726.707031 461.300781 726.652344 464.238281 C 726.523438 471.613281 708.421875 478.042969 703 480.753906 C 689.1875 487.65625 673.894531 492.0625 661 500.75 C 650 508.089844 641.246094 518.753906 632 528 C 644.214844 521.765625 652.863281 510 665 503.3125 C 686.511719 491.488281 712 486.6875 730 469 C 735.625 463.429688 741.5625 457.246094 750 457.054688 C 752.496094 457 757.230469 457.082031 757.863281 460.277344 C 758.925781 465.648438 751 471.46875 748.222656 475 C 745.222656 478.632813 744 483.296875 739.957031 486.007813 C 727.417969 494.34375 707.304688 496.804688 697 508 C 704.480469 505.136719 712.386719 503.203125 720 500.667969 C 725.820313 498.726563 744.355469 488.53125 749.570313 492.644531 C 752.597656 495.03125 752.972656 500.542969 754 504 C 755 507.476563 756.777344 511.429688 754.96875 515 C 752 520.449219 744.601563 523.089844 740.285156 527.300781 C 729.710938 537.617188 712.800781 566 726 580 C 726.808594 561.203125 737 531 757 525 C 756 547.089844 754.574219 570 756 592 C 757.519531 613 761.570313 634.097656 762 655 L 764 655 L 765 527 C 774.257813 534.148438 781.1875 549.53125 786.214844 560 C 787 562 789.824219 572 792.191406 572 C 794 572 793.945313 568.097656 793.976563 567 C 794 561.039063 792.246094 555.429688 789.988281 550 C 784.394531 536.546875 773.890625 527.167969 766.613281 515 C 762.328125 508 759.921875 497.109375 758 489 C 770.339844 489.640625 779.289063 500.816406 789 507.328125 C 805 518.152344 820.472656 525 840 525 C 832.699219 518 818.179688 515.480469 809 510.742188 C 796.828125 504.457031 787.253906 494.832031 776 487.21875 C 772.667969 485 758.519531 481.617188 757.347656 478.4375 C 756 475.03125 769.820313 460.273438 773.410156 462.175781 C 776 463.585938 775.9375 469.511719 777.304688 472 C 779.777344 476.464844 784.648438 479.296875 789 481.6875 C 811.613281 494.117188 849.617188 501.34375 865 523 C 858.503906 521.460938 852.566406 518.371094 846 517 C 856 530.59375 878.359375 532.171875 892 541.722656 C 911.171875 555.140625 919 573.449219 934 590 C 924.738281 570.621094 911.214844 553.257813 894 540.238281 C 887 535.03125 878.652344 532.15625 872 526.671875 C 859.386719 516.269531 851 502 836 494.636719 C 822.800781 488.335938 808.800781 484.003906 796 477 C 791.472656 474.335938 783.855469 471.433594 784.335938 465.042969 C 784.988281 456.363281 800.710938 456.824219 805.996094 460.007813 C 812.199219 463.746094 815.734375 470.644531 822 474.53125 C 832.417969 481 844.898438 484.175781 856 489.308594 C 866.929688 494.367188 876.835938 501.351563 888 506 C 866.882813 485 838.433594 479 814 463 L 814 462 C 824.796875 462.433594 833.984375 455.613281 844 456.214844 C 855.609375 457 866 466.785156 876 472 C 872.839844 469.15625 864.757813 465.582031 864 461.066406 C 863.644531 458.378906 879 446 882 446.113281 C 900.804688 447 914.714844 467.027344 917 484 C 912 480.570313 908.554688 476.371094 906 471 L 905 471 C 908 480.816406 916 488.523438 922.832031 496 C 935.792969 510.402344 949.710938 523.832031 962.910156 538 C 977.492188 553.652344 994 571.066406 1002.570313 591 C 1005.917969 598.824219 1005.445313 607.074219 1008 615 C 1011 624 1016.371094 631.75 1018.332031 641 C 1021 654.160156 1018.421875 670 1016 683 C 1019.316406 679.1875 1019.433594 673.808594 1020.628906 669 C 1025.1875 650.648438 1019.222656 630.75 1028 614 C 1024 615.007813 1019.613281 614.65625 1017 611 C 1014.203125 606.507813 1014.847656 600 1013.789063 595 C 1012 587.128906 1009.179688 580.800781 1005 574 L 1007 575 C 1001.632813 567.289063 994.777344 560.757813 991 552 L 996 552 C 993.410156 549 990.902344 547.707031 987 547 C 988.441406 540.660156 983.238281 541.585938 981 536.785156 C 978.921875 531.613281 987.679688 525.195313 991.984375 524.476563 C 1001 523 1003.53125 549 1006.492188 555 C 1012.511719 567.484375 1026.183594 571.605469 1035.824219 580.464844 C 1042.382813 586.488281 1045.546875 595.273438 1051.300781 602 C 1056.273438 607.808594 1063.640625 613 1064.78125 621 C 1067.25 638.550781 1043.699219 635 1035.789063 645.09375 C 1031 651.171875 1029.394531 659.816406 1027 667 C 1022.59375 680.21875 1017.664063 693.574219 1014 707 L 1013 707 C 1013 688.296875 1011 669.667969 1011 651 C 1010.996094 643.796875 1011.871094 631.601563 1007 626 C 1013.828125 662.785156 1008 701.769531 1009 739 C 1009.5 759 1010.558594 779.289063 1013 799 C 1014 805.53125 1018.25 811.476563 1018.414063 818 C 1018.632813 827 1013.613281 835.796875 1010.691406 844 C 1004.953125 860.128906 1001.464844 882 992 896 C 997.480469 891.699219 999.398438 885.011719 1002.550781 879 C 1009.480469 865.796875 1016.277344 852.769531 1022 839 L 1023 839 C 1023 861.59375 1027.765625 884.449219 1023.539063 907 C 1016 947 990.171875 977.4375 971 1012 L 970 1012 C 971.378906 994.550781 976.90625 978.140625 979.914063 961 C 981.691406 951 977.6875 941.054688 979.464844 931 C 981.597656 919 987.890625 908 990.574219 896 C 998.773438 859.414063 1004 821.476563 1004 784 L 1002 784 C 1002 801 997.695313 817.515625 994.210938 834 C 990.414063 852 987.953125 870.222656 983.265625 888 C 979.875 901 974.523438 913.144531 971 926 C 967.394531 940.371094 972.617188 956 969.601563 971 C 963.941406 999.289063 961.675781 1027.648438 956.75 1056 C 951.503906 1086.21875 944 1115.234375 948 1146 C 936.273438 1136.308594 942.335938 1128.207031 943.816406 1116 C 944.726563 1108.503906 943.414063 1101.160156 941.277344 1094 C 932.429688 1064.308594 922.417969 1038.503906 921 1007 C 920 984 920 960.121094 920 937 C 920 919.089844 920.578125 900.144531 915 883 L 914 883 C 914.238281 911.597656 916 940.257813 916 969 C 915.867188 996.496094 913.460938 1023 920 1050 L 919 1050 C 913.488281 1040.308594 912 1028.019531 912 1017 L 910 1017 C 909.238281 1026.671875 908 1036.585938 911.441406 1046 C 915.371094 1057.148438 923.828125 1066.277344 926.332031 1078 C 927.367188 1083 929.398438 1097.730469 921.957031 1098.46875 C 913.167969 1099.339844 906.714844 1085.71875 901 1081 C 904.367188 1095.171875 930 1123.429688 934 1095 L 935 1095 C 935.6875 1111.003906 935.441406 1119.59375 927.78125 1134 C 925 1139.0625 922.78125 1145 917 1147.105469 C 909.941406 1149.816406 903 1145.707031 896 1146 C 911 1157.4375 928.726563 1160.203125 934 1138 L 935 1138 C 934.777344 1148.726563 932.460938 1159.3125 932 1170 L 931 1170 C 928.949219 1165.621094 927.710938 1161.238281 924 1158 C 925.527344 1163.273438 928 1168.519531 928.683594 1174 C 932 1202.8125 891.96875 1186 879 1184 C 890.359375 1194.433594 905.296875 1201.738281 921 1198 C 921 1211.359375 920.394531 1224.453125 925.875 1237 C 926.5625 1238.574219 934 1252.074219 936.667969 1247.289063 C 938 1244.492188 928.871094 1231 927.898438 1227 C 924.28125 1212.390625 928.191406 1201 932 1187 C 936.816406 1190.285156 938.527344 1198.636719 940.332031 1204 C 945.21875 1218.519531 947.511719 1245.332031 960 1255 C 953.972656 1239.257813 950.371094 1223 944.996094 1207 C 942.453125 1199.464844 937 1192 936.183594 1184 C 934.339844 1169.015625 942.941406 1155 940 1139 L 941 1139 C 953.902344 1164.316406 947.597656 1192 956 1219 C 959.707031 1231 970.457031 1248.449219 967.464844 1261 C 963.21875 1279 927.742188 1290.5625 912 1284.234375 C 896.367188 1278 889.484375 1259.625 881.71875 1246 C 872.222656 1229.335938 859.847656 1214 845 1201.613281 C 831.648438 1190.621094 816.304688 1183.503906 800 1178.003906 C 785 1173 769.492188 1171.757813 768 1153 L 766 1153 C 764.40625 1173.148438 746.6875 1176.667969 731 1184.257813 C 716.457031 1191.296875 702.230469 1201 691.425781 1213.015625 C 678.910156 1227.074219 669.167969 1242 661.308594 1259 C 655.824219 1271 652.792969 1286.464844 641 1294.03125 C 630.824219 1300.558594 618.515625 1297.542969 608 1293.574219 C 604 1292.09375 598.449219 1290.609375 597.332031 1286 C 595.839844 1279.726563 600.234375 1272 601.847656 1266 C 605.449219 1253 608.886719 1238.695313 609 1225 L 607 1225 C 606.949219 1243.660156 601.550781 1268 594 1285 L 593 1285 C 593 1263.277344 598.246094 1241.289063 602.601563 1220 C 603.511719 1215.546875 605.765625 1201.160156 610.597656 1199.347656 C 615.507813 1197.503906 619.363281 1211 620 1214 C 624 1230.601563 616.195313 1246.730469 611 1262 C 627.992188 1252.117188 625.3125 1225.640625 624 1209 C 637.953125 1211.300781 650.335938 1203.242188 660 1194 C 649 1198.226563 620.800781 1211.171875 616.394531 1192 C 614.878906 1185.398438 618 1179.375 619 1173 L 618 1173 L 614 1185 L 613 1185 C 610 1175.644531 608 1166 608 1156 L 609 1156 C 618.613281 1172.222656 629.855469 1167.152344 642 1156 C 636 1157.371094 629.167969 1161 623 1159.179688 C 617.214844 1157.484375 615.203125 1151.742188 612.398438 1147 C 604.421875 1133.515625 603 1122.386719 603 1107 L 604 1107 C 604 1109.015625 604 1111.027344 604.484375 1113.003906 C 609.324219 1134.703125 629 1106.410156 632 1098 C 627.328125 1102.488281 623.476563 1111.824219 616 1112.351563 C 608.34375 1113 609.828125 1098.625 610 1094 C 610.507813 1083.734375 616.894531 1075.363281 620.304688 1066 C 623.328125 1057.695313 623 1049.710938 623 1041 L 624 1041 C 625 1049 628.6875 1055.175781 634 1061 C 631.8125 1033.496094 616.828125 1007.210938 624.746094 979 C 627.652344 968.652344 634 959.792969 640 951 L 635 953 C 643.324219 931.535156 656.738281 912.417969 664.933594 891 C 669.910156 878 668.484375 861.585938 676.800781 850.015625 C 683.257813 841.03125 695.671875 837.097656 704 830 C 693.65625 834.308594 680.542969 839.6875 673.789063 849.003906 C 665 861.035156 665.976563 876.675781 660.546875 890 C 655 903.207031 644.179688 913.132813 638 926 C 631.945313 939.109375 631 954.421875 624 967 L 623 967 L 623 892 L 621 892 C 620.46875 904.359375 617.582031 916.609375 617 929 C 615.335938 968 616.363281 1005.347656 611.28125 1044 C 608.847656 1062.523438 607.914063 1088.769531 598 1105 C 586.898438 1086 592.847656 1064 590.828125 1043 C 588.886719 1023 578.804688 1003.757813 574.664063 984 C 572 971.570313 575.6875 959.296875 572.984375 947 C 570 934.136719 563 922.261719 558.425781 910 C 551 890.664063 545.726563 870.628906 539.328125 851 C 535.21875 838.382813 529.578125 825.414063 529 812 L 527 812 C 529 838.675781 541.863281 864.613281 543 891 L 542 891 C 534.789063 878.046875 523.695313 866 520.519531 851 C 517.253906 835.707031 521 815.8125 521 800 C 521 772.0625 518.328125 744.699219 514.71875 717 C 511.96875 696 504.828125 672.203125 506 651 C 506.367188 645.328125 509.738281 640.554688 510.675781 635 C 511.949219 627.445313 511.785156 620.210938 514.871094 613 C 536.488281 562.480469 584.632813 525.332031 619 484 C 609.945313 490.378906 603 499.621094 594 506 C 594.175781 485 601.726563 464.019531 620 452.21875 C 621.503906 451.246094 632.691406 444.796875 627.703125 442.691406 C 616.871094 438.125 598 453.707031 592.390625 461 C 578.308594 479 590.917969 506.160156 574.671875 522.785156 C 570.597656 527 565 527.285156 560 529.398438 C 555.402344 531.3125 554.882813 541.613281 548.417969 539.292969 C 544.601563 538 544.691406 530.257813 543.84375 527 C 540.910156 515.714844 528.695313 497.140625 533.363281 486 C 539.425781 471.53125 548 459.480469 552.574219 444 C 563.277344 406.484375 552.640625 369 538.398438 334 C 533.273438 321.417969 528 301.285156 518 292 C 524.308594 304 531.40625 317.199219 532 331 L 531 331 C 522.628906 316 510.628906 302.320313 503 287 L 502 287 C 506.824219 300.253906 515.628906 312 521 325 C 504.753906 313.460938 496.503906 290.664063 483 276 C 489.8125 287.039063 498.488281 297.207031 504 309 C 497 305.253906 493.855469 298 489 292 C 495 308.628906 508.511719 324.308594 519.449219 338 C 524.722656 344.601563 531.546875 350.71875 534 359 C 525.601563 355.027344 517 349 510 343 C 516.308594 351.222656 528.457031 354.460938 533 364 C 527.910156 360.816406 523.878906 356.433594 519 353 C 524.761719 360.015625 532 365.21875 537 373 C 531.3125 371.027344 526.304688 367.792969 521 365 C 525.671875 371.105469 532.527344 375.023438 539 379 L 539 380 L 526 375 C 530.324219 379.289063 534.664063 383.027344 540 386 L 540 387 C 535.882813 386.824219 531.984375 386.03125 528 385 C 531.335938 388.367188 535.429688 390 540 391 L 540 392 L 534 391 C 536.507813 393.351563 538.589844 393.816406 542 394 L 542 395 L 536 395 C 537.222656 396.195313 537.421875 396.316406 539 397 C 539.578125 401.429688 545.589844 399 545.972656 404.027344 C 546.550781 411.800781 540 421.628906 543 429 C 540.660156 430.175781 538.859375 431.179688 537 433 L 542 433 L 542 434 C 538.734375 435.015625 537.660156 436.222656 540 439 L 540 440 L 533 440 C 534.894531 442.019531 536.414063 443 539 444 L 539 445 L 530 445 C 531.589844 446.753906 532.953125 447.792969 535 449 L 535 450 C 528.324219 452.117188 535.597656 454.691406 539 455 L 539 456 L 527 455 C 529.585938 457.308594 531.71875 459 535 460 L 535 461 L 526 461 C 528.230469 463 530 463.539063 533 464 L 533 465 L 524 464 L 524 465 C 527 466.226563 529.792969 467.429688 533 468 L 533 469 C 529.578125 469 526.363281 468.625 523 468 C 525.675781 470.589844 528.339844 471.449219 532 472 L 532 473 L 524 473 L 524 475 L 532 476 L 532 477 C 528.546875 477 525.367188 476.800781 522 476 C 524.371094 478.398438 526.894531 479.695313 530 481 L 530 482 L 521 482 C 522.652344 483.511719 523.894531 484.179688 526 485 L 526 486 L 521 487 C 522.570313 488.640625 524 489.75 526 491 L 526 492 C 521 492.667969 504.613281 495.449219 507.703125 503.703125 C 508.257813 505.179688 523.988281 499.132813 528.347656 503.515625 C 536.625 512 537.371094 532.085938 540 543 C 529.511719 537.644531 522.40625 526.769531 513 540 L 512 540 C 509.839844 524 499.445313 512 492.257813 498 C 481.351563 477 470.648438 452.460938 463 430 L 462 430 C 463 437.652344 466.8125 444.578125 468.847656 452 C 473.179688 467.804688 476.644531 484.136719 483.785156 499 C 489.503906 511 497.714844 521.359375 501.996094 534 C 505.511719 544.378906 512 565.410156 503.582031 575 C 496.601563 582.636719 489 569 485.347656 564 C 471.800781 546.417969 459.3125 529 451.425781 508 C 447.757813 498.273438 445.285156 488.550781 439 480 C 426.644531 463 408.6875 450.394531 399.257813 431 C 391.679688 415.414063 388.769531 398 385.398438 381 C 378.59375 347 375 312.675781 375 278 L 373 278 C 373 329.527344 372.300781 388.277344 394.890625 436 C 403.554688 454.308594 421.242188 464.097656 432.839844 480 C 444.414063 496 444.863281 516.023438 453.890625 533 C 460.550781 545.527344 474 553.128906 480.175781 566 C 482.175781 570.210938 482.660156 575.484375 481.363281 580 C 479.597656 586.132813 474.867188 591 472.699219 597 C 468.710938 608.058594 469.589844 624.8125 458.824219 632.257813 C 450.316406 638.144531 438 626.644531 432 621.5625 C 418.484375 610.15625 409.410156 595.53125 398.335938 582.015625 C 389.894531 571.71875 380.347656 566.605469 383.667969 551 C 388.335938 529.09375 418.378906 519 416.90625 495 C 415.726563 476 396.230469 468.113281 384 456.710938 C 378.300781 451.273438 375.605469 444.242188 372.8125 437 C 368.878906 426.808594 366.320313 416 367 405 C 367.664063 396.789063 370.496094 389.382813 369.910156 381 C 369 368.203125 363.839844 355.804688 362.285156 343 C 360 324.445313 360.808594 305.582031 362 287 C 363.710938 263.484375 367.191406 236.085938 378.398438 215 C 384.851563 203 402.382813 183.355469 398 168 L 398 167 C 402.394531 163.691406 401.511719 159.449219 397 157 C 411 137 445.324219 132 466 144 C 481 152.605469 492.753906 168.101563 502.847656 182 C 518.265625 203.226563 525.78125 228.199219 538.3125 251 C 551 274.191406 567.566406 294.703125 578.691406 319 C 583.71875 330 585.929688 342 590.617188 353 C 593.734375 360.378906 599.453125 366.007813 603.203125 373 C 611 387.621094 615.261719 400 626.246094 413 C 631.234375 419 637.445313 425.753906 637.734375 434 C 638.210938 447.554688 623.421875 461.8125 645 467 M 933 221 C 938 216.324219 939.785156 208.285156 942.425781 202 C 947.539063 189.808594 952.9375 177.597656 959.3125 166 C 963.460938 158.445313 970 152 971 143 C 964.179688 146.246094 960 154 956 160 C 944.324219 177.746094 935.726563 200 933 221 M 472 175 C 480.453125 188.515625 494.351563 198.140625 503.84375 211 C 510.375 220 515.640625 233.164063 526 238 C 518.8125 220.738281 508.488281 205.082031 496.269531 191.003906 C 490 183.828125 481.871094 176 472 175 M 1051 250 C 1053.421875 260.171875 1052.921875 271.550781 1054.28125 282 C 1057.503906 306.746094 1061.707031 331.394531 1055.371094 356 C 1052.214844 368.265625 1044.945313 385.761719 1032 390.386719 C 1012 397.5 990.824219 378 971 377 C 973.617188 382.5625 978.5625 385.621094 984 388.214844 C 997.515625 394.667969 1030 405.324219 1042.984375 394.660156 C 1072.730469 370.015625 1070.496094 317.59375 1062.878906 284 C 1060.804688 275 1059.761719 255.0625 1051 250 M 966 268 C 965 269.480469 965 269.203125 965 271 C 966.289063 269.558594 966.402344 269.765625 966 268 M 982.5 275.5 C 981.871094 276.128906 982.871094 277.128906 983.5 276.5 C 984 276 983 275 982.5 275.5 M 411 280 C 407.726563 321.453125 403.914063 370.21875 432 405 C 437.3125 411.441406 443.757813 418.71875 452 421.199219 C 463.902344 424.785156 484.714844 415.628906 496 411.425781 C 504.847656 408.128906 516.570313 406.007813 520 396 C 501.984375 398.660156 486.480469 411.554688 468 413 C 451 414.15625 440.542969 404 432 390 C 417.375 366 419 335 415.425781 308 C 414.300781 299.539063 415.976563 287.164063 411 280 M 1069 306 C 1069 329.015625 1070.597656 352.53125 1060.691406 374 C 1055.339844 385.59375 1042.976563 394.300781 1039 406 C 1064.53125 395.296875 1072 355.605469 1072 331 C 1072 323.390625 1073.960938 312.304688 1069 306 M 911 332 C 911.773438 341 915.984375 349.21875 917.535156 358 C 919.9375 371.589844 917.777344 385.5 920.886719 399 C 925.957031 421.019531 937.644531 441 945.574219 462 C 950.382813 474.753906 951.929688 488.136719 956 501 L 957 501 C 957 487.652344 957.273438 475 953.574219 462 C 946.449219 437.035156 932.34375 414.394531 926.664063 389 C 922.761719 371.542969 924.757813 345.378906 911 332 M 574 339 C 569.519531 352.773438 565.335938 367.402344 565 382 C 564.808594 394.746094 568.792969 407.144531 567.910156 420 C 566.546875 440 559.335938 459.085938 557.976563 479 C 557.234375 490 553.941406 516.257813 565 523 C 559.46875 493.210938 573 463.230469 576.714844 434 C 578 422.601563 578.371094 411.378906 576.5625 400 C 575.488281 393.261719 572.371094 387 572 380 C 571.585938 370.625 573 361.269531 574.28125 352 C 574.882813 347.535156 576.8125 343 574 339 M 407 347 C 407 370.40625 413.859375 396.492188 430 414 C 432.4375 416.53125 447.675781 433.058594 451.824219 428 C 453.691406 425.71875 437.976563 415.132813 436 413.421875 C 423.339844 402.4375 416.710938 387 412.628906 371 C 410.785156 363.796875 411.585938 352.828125 407 347 M 518 352 L 519 353 L 518 352 M 995 397 C 999.734375 405.191406 1017.742188 406 1025 401 C 1015.914063 398.390625 1004.765625 399.238281 995 397 M 1031 435 C 1038.261719 431.53125 1040.839844 423.621094 1041 416 C 1035.632813 419.125 1033.359375 429.328125 1031 435 M 467 421 C 472 427.75 489.894531 423.265625 494 417 C 484.71875 418.371094 476.566406 421 467 421 M 1133 527 L 1132 527 C 1131.941406 506.214844 1122.328125 487.632813 1108 473 C 1112 480.375 1117.246094 487 1120 495 C 1096.382813 486 1086 461.714844 1101 441 C 1104 437 1111.269531 426.433594 1116.785156 426.347656 C 1122.945313 426.25 1124.980469 446.578125 1125.75 451 C 1126.945313 458 1127 465.417969 1129.558594 472 C 1131.375 477 1135.703125 480.820313 1136.722656 486 C 1137.816406 491.558594 1134.761719 496.59375 1134.175781 502 C 1133.269531 510.316406 1134 518.65625 1133 527 M 452 438 C 452.714844 446.113281 456.972656 454.265625 465 457 C 462.1875 450.246094 458.679688 441.601563 452 438 M 978 446.332031 L 978.332031 446.667969 C 977.839844 446.832031 977.226563 446.332031 978 446.332031 M 976 447 L 976 448 L 972 448 C 973.507813 447.316406 974.316406 447.175781 976 447 M 382 533 C 383.875 525.125 384.933594 516.101563 385 508 L 384 508 C 378.214844 528.542969 374 545 375 566 C 367 559.796875 369.179688 551.722656 367.53125 543 C 366.453125 537.285156 361.585938 532.703125 361.175781 527 C 360.761719 521.246094 365.226563 516.417969 366.472656 511 C 368.242188 503.285156 368 494 368 486 C 368 478.59375 367.949219 471.355469 368.84375 464 C 369 462.480469 368.910156 457.207031 371.34375 457.207031 C 374.875 457.207031 382.898438 466.828125 386 469.117188 C 393.6875 474.785156 403.40625 480.570313 406.867188 490 C 412.265625 504.703125 392.992188 525.191406 382 533 M 1032 481 C 1023 493.515625 1022.464844 508.40625 1019.738281 523 C 1018 532.121094 1015 540.621094 1015 550 C 1033.542969 539.34375 1028.640625 518 1029.46875 501 C 1029.800781 494.203125 1034.835938 487.769531 1032 481 M 891 483 C 896.234375 493 909.6875 506.632813 920 511 C 913.269531 499.34375 902.34375 490.003906 891 483 M 1069 485 C 1069 501 1067.675781 516.273438 1067 532 C 1074.769531 526.113281 1071 504.800781 1071 496 C 1071 492 1071.476563 488.269531 1069 485 M 1097 499 C 1099.78125 504.445313 1106.277344 508.175781 1112 510 C 1108 504.648438 1102.730469 502.015625 1097 499 M 607 504 C 601.554688 510.292969 596.308594 517.328125 593 525 C 599 522.132813 609 511.257813 607 504 M 920 512 C 920.898438 514.125 920.875 514.101563 923 515 C 921.898438 513.542969 921.457031 513.101563 920 512 M 583 595 C 590.742188 590.765625 595.652344 579 600.894531 572 C 610.222656 559.546875 621.710938 547.816406 635 539.613281 C 642.382813 535.054688 658.496094 530.703125 661 522 C 635 529.355469 614.636719 546.699219 598.628906 568 C 592.40625 576.273438 585.4375 584.742188 583 595 M 504 565 C 501.257813 553.144531 493.351563 544.507813 487.78125 534 C 487 532.554688 483.703125 523.1875 481.503906 524.347656 C 477.925781 526.226563 479.367188 534.097656 480 537 C 482.828125 546.785156 494.929688 560.679688 504 565 M 630 528 L 630 531 C 631.195313 529.777344 631.316406 529.578125 632 528 L 630 528 M 1056 564 C 1069.449219 561.222656 1080.21875 554.730469 1092 548 C 1096.191406 545.605469 1102 544 1105 540 L 1098 540 C 1102.988281 533.65625 1098.359375 525.804688 1090 529 C 1085 530.683594 1081.347656 535.132813 1077.714844 538.71875 C 1070.183594 546.144531 1058.199219 553 1056 564 M 435 530 C 436.761719 539.34375 437.359375 557.335938 446 563 C 444.195313 554.25 442.835938 535.179688 435 530 M 1097 540 L 1096 541 L 1097 540 M 509 598 L 511 597 C 508.941406 601 505.746094 603.578125 503 607 L 507 606 C 503.425781 618.59375 504.875 641 489 641 C 500.683594 654.558594 501 668.597656 501 686 C 496.234375 681.246094 495.496094 674 489.90625 669.648438 C 480.757813 662.6875 461.574219 668.535156 460 653 C 459 643 467.339844 636.703125 472.300781 629 C 477.171875 621.433594 478.554688 612 484.328125 605 C 492.574219 595.011719 504.585938 589.796875 510.878906 578 C 514.679688 571 515.753906 563 517 555 C 517.597656 552 517.773438 547 520.515625 545 C 524.992188 541.539063 535.363281 550.304688 535.363281 555 C 535.363281 559.128906 529.777344 560.398438 527.226563 562.636719 C 525.1875 564.425781 519.398438 573.328125 518.757813 576 C 518.214844 578.011719 520.238281 579.699219 519.4375 582.09375 C 517.492188 588 512.207031 593 509 598 M 551 545 C 549.898438 546.457031 549.457031 547 548 548 C 549 546.542969 549.542969 546.101563 551 545 M 1040 553 C 1041.597656 558.53125 1044.320313 562.625 1049 566 C 1047.480469 561 1044.722656 555.777344 1040 553 M 806 556 C 805 559 802.421875 560.34375 801.558594 563.15625 C 798 574.742188 800 597 807 607 C 809.402344 596 805.308594 583.382813 806 572 C 806.421875 567.140625 808.582031 560.351563 806 556 M 708 559 C 710.808594 574.121094 706.710938 591.492188 711 606 C 718 595.53125 714.953125 573.058594 714 561 C 712.21875 562 712.40625 562 712 564 L 711 564 C 710.472656 561.457031 710 560.464844 708 559 M 418 575 L 418 576 L 406 576 L 406 577 C 422.683594 583.296875 444 591.628906 462 592 C 456.929688 580.03125 442.359375 574.503906 432 568 C 427.855469 565.324219 423.296875 561.273438 418 562.320313 C 408.886719 564.121094 409.433594 573.265625 418 575 M 803.667969 562.667969 C 803.722656 562.722656 803.777344 563.777344 803.332031 563.332031 C 803.277344 563.277344 803.222656 562.222656 803.667969 562.667969 M 827 679 L 828 679 C 827.734375 647.003906 803.785156 612.296875 830.175781 584.039063 C 834.398438 579.515625 839.617188 576 845 573 C 851.429688 569.273438 858.6875 566.078125 866 565 L 866 563 C 858 563 851.3125 564 844 567.3125 C 796.488281 589 812.40625 641 827 679 M 1053 566 C 1055.964844 572.011719 1061.945313 572.109375 1066.960938 575.800781 C 1072.324219 579.746094 1074 585.683594 1075 592 L 1076 592 C 1077.542969 585 1074.742188 576.316406 1068 573 C 1073.777344 571.296875 1087.472656 575.765625 1090.824219 569 C 1092.863281 564.691406 1085 565.03125 1083 565 C 1072.761719 564.820313 1063.253906 565.191406 1053 566 M 648 565 L 648 567 C 655.539063 568.015625 663 570.347656 670 573.4375 C 675 575.679688 679.757813 579 683.828125 582.617188 C 712.628906 608.761719 693.542969 645.0625 691 677 C 698.390625 669.679688 698.890625 656.6875 701 647 C 708 616.578125 706.316406 578.820313 671 568.039063 C 663.636719 565.792969 655.664063 565.003906 648 565 M 476 573 L 469 591 C 475 588 478.742188 579.550781 476 573 M 856 652 C 854.453125 633.089844 834.753906 598.644531 865 591 C 864 600.453125 878.921875 596.464844 875 607 C 873.8125 606 873.394531 605.660156 872 605 L 872 609 C 856.28125 608.695313 868.933594 645 869 622 L 870 622 C 870 626 869.578125 629.585938 873 632 L 874 627 L 875 627 C 875.179688 632.410156 878 634.601563 881 629 L 882 629 C 882 640.441406 878 653 879 664 C 883 659.464844 883.660156 652.605469 885.695313 647 C 889.851563 635.550781 899 622.507813 898.914063 610 C 898.84375 604.734375 894.769531 601.09375 894 596 C 895.480469 597 895.203125 597 897 597 C 893.90625 586 904.378906 591.421875 911 592 C 905.605469 586.78125 897 586.605469 890 585.578125 C 877 583.714844 862.285156 581.652344 851 589.789063 C 830.996094 604.222656 837.882813 639.203125 856 652 M 605 600 C 612.269531 598.703125 617.359375 596 625 596 L 625 597 C 613.960938 599.007813 622.230469 603 620 609.015625 C 619 612.300781 616.441406 614.308594 616 618 C 615 630.308594 626.253906 643.402344 631.21875 654 C 634 660 634.878906 668.527344 641 672 C 638.445313 659.652344 634.953125 647.257813 632 635 C 634 636.609375 635.746094 638.640625 638 637 C 639.1875 638.1875 639.585938 638.527344 641 639 L 641 632 L 642 632 C 644.996094 638.785156 646.941406 634 647 629 L 648 629 C 649.660156 635 653 632 652.578125 627 C 652 621.722656 648 615.140625 645 611 C 644 612.476563 644 612.203125 644 614 L 636 603 C 641 601.59375 649.339844 593 653 593.121094 C 659.296875 593.515625 665.429688 601.726563 667.4375 607 C 673.207031 622.164063 664 639.015625 662 654 C 679.992188 643.582031 681.972656 606 667.90625 592.105469 C 655 579.453125 636.589844 586.632813 622 591.671875 C 616.441406 593.589844 608.902344 595.574219 605 600 M 454 601 C 449 606.460938 447.570313 611.78125 447 619 C 450.472656 616.394531 451.867188 611 453.691406 607 C 455.328125 603.492188 464.542969 598.085938 464 595.300781 C 463.417969 591.355469 455.363281 593.691406 453 594.078125 C 447.226563 595.035156 431.664063 595.21875 427.753906 600 C 422.882813 605.585938 441 604.328125 443 604 C 446.6875 603 450.304688 602 454 601 M 891 593 L 894 595 L 894 596 L 890 594 L 891 593 M 880 603 L 879 604 L 880 603 M 569 604 C 545.414063 633.71875 519.246094 678.257813 525.4375 718 C 531.242188 755.230469 554.742188 785.800781 566.328125 821 C 574.828125 846.816406 572 874.132813 582 900 L 583 900 C 583 883.4375 579.734375 867.4375 578.171875 851 C 577 838.757813 577.996094 826.777344 573.574219 815 C 560.183594 779.339844 534.757813 746.269531 533 707 C 531.996094 683.160156 540.183594 659 551.167969 638 C 555.378906 630.003906 570.730469 612.730469 569 604 M 636 605 L 637 609 L 636 609 C 635.535156 607.070313 635.425781 606.808594 636 605 M 644 609 L 645 610 L 644 609 M 638 612 C 636.363281 611.453125 636.546875 611.636719 636 610 C 637.636719 610.546875 637.453125 610.363281 638 612 M 750 612 C 751 635.695313 756 659.097656 756 683 L 758 683 C 758 665.691406 758.761719 648.175781 756.425781 631 C 755.5 624.210938 755 617.078125 750 612 M 959 612 C 974 648.632813 993 676.757813 985.574219 718 C 980.359375 747 962.550781 768.042969 953.75 795 C 948.621094 810.707031 949.34375 836.253906 954 852 C 962.980469 835.109375 956 812.632813 961.574219 795 C 965 783.621094 973.859375 774.011719 978.574219 763 C 988.449219 740 997.847656 713.511719 994.714844 688 C 992.859375 673 986.574219 659.644531 980.308594 646 C 975.453125 635.429688 969.945313 617.558594 959 612 M 914 624 C 949.453125 628.503906 960.421875 650.789063 973 681 L 972 681 C 967.6875 672 961 662.640625 954.386719 655.089844 C 950.621094 651 946 647.734375 941 645.257813 C 903.289063 627 882.371094 673.167969 882 704 C 881.851563 716.8125 880.964844 733.007813 895 739 C 893.835938 731.230469 885.640625 721.796875 886.53125 714.144531 C 887.214844 708.269531 897.695313 711.210938 901 712.46875 C 913.964844 717.402344 928.1875 730.761719 942.984375 723.160156 C 953.25 718 951.46875 705 956 696 C 957 693.71875 960.855469 687.363281 964.242188 688.601563 C 967.515625 689.796875 963.363281 697.15625 962.695313 699 C 958.988281 709.210938 956.464844 720.679688 946 726.175781 C 929.335938 735 915.789063 719.367188 900 717 C 911 734.667969 942.929688 742.785156 957.320313 725 C 964.355469 716.242188 966.167969 692.585938 979 697 C 978.585938 692.265625 976.785156 688.351563 975 684 C 977.226563 686.476563 979 688.503906 982 690 C 980 666.257813 968.351563 637.0625 947 625 C 939 620.324219 919.976563 613.507813 914 624 M 540 705 C 545.6875 701.273438 548.894531 691.175781 551.394531 685 C 558.230469 668.128906 561.8125 648 580 639.324219 C 582.882813 638 603.542969 634 601.652344 629.699219 C 600.5625 627.253906 595 628 593 628 C 583.972656 628.027344 575.191406 631 568 636.527344 C 548.960938 651.226563 540 681.78125 540 705 M 877.667969 629.667969 C 877.722656 629.722656 877.777344 630.777344 877.332031 630.332031 C 877.277344 630.277344 877.222656 629.222656 877.667969 629.667969 M 638 635 L 637 636 L 638 635 M 959 678 C 947 670.113281 939.652344 657.378906 928 649 C 941.425781 648 955.726563 666.660156 959 678 M 541 711 C 543.402344 710.394531 547.195313 708 549.605469 709.03125 C 552.421875 710.398438 553.578125 715.359375 554.71875 718 C 557.679688 725 560.601563 732.167969 565.519531 738 C 577.453125 752 594.878906 746.671875 608 738 C 612.628906 735 618 732 621 727 C 607 730.289063 594 745.429688 579 739.046875 C 568.582031 734.628906 564.171875 723.816406 560.199219 714 C 559.546875 712.382813 555.191406 704.621094 557.667969 703.460938 C 560.746094 702.019531 563.460938 709.195313 564.269531 711 C 568.3125 720.058594 570.238281 732.738281 581 736.363281 C 595.242188 741.15625 607.617188 730.03125 619 723.464844 C 622.203125 721.613281 630.222656 717.566406 632.878906 722.316406 C 635 726.164063 630.265625 733.308594 629 737 C 627.640625 741 626 745 625 749 C 637.175781 742.550781 639 727.398438 639 715 C 638.847656 683.820313 614.390625 631 576 656.109375 C 569.527344 660.359375 564.355469 666.664063 560 673 C 552 684.691406 546 697.832031 541 711 M 591 658 L 591 659 C 577.40625 668.574219 572.273438 688.574219 558 696 C 564.296875 679.769531 573 663.164063 591 658 M 915 663.433594 C 922.296875 661.320313 931.433594 668.375 920.996094 671.425781 C 913.996094 673.472656 905.605469 666.183594 915 663.433594 M 939 669 C 956.972656 681.277344 944.636719 703.191406 925 704.8125 C 913.40625 705.769531 904.394531 698 899.796875 688 C 897.226563 682.453125 896.617188 677.65625 899 672 C 907.761719 682.5625 922.738281 698.789063 935 681 C 937.753906 677.214844 937.324219 673 939 669 M 506 671 C 506.269531 684.097656 510 697 510 710 L 509 710 C 504.933594 698 500.738281 683.511719 506 671 M 599 673.601563 C 603.8125 671.6875 617.671875 677.652344 609.847656 681.257813 C 603.664063 684.105469 588.644531 677.800781 599 673.601563 M 955 680 C 957.984375 684.632813 955.820313 686.78125 953 691 L 952 691 C 952.710938 687.1875 952.789063 683.230469 955 680 M 584 681 C 586 695.179688 601 705.484375 614 696.351563 C 619.988281 692.140625 620.523438 686.691406 624 681 C 626.394531 686 626.671875 691.707031 624.894531 697 C 618.921875 714.808594 596.804688 722.417969 582 709.671875 C 571.671875 700.71875 570 687 584 681 M 974 681 C 974.984375 682.480469 975 682.203125 975 684 C 973.710938 682.558594 973.597656 682.765625 974 681 M 891 682 C 892.546875 691 898 698.039063 902 706 C 895.308594 701.28125 885 690.667969 891 682 M 819.667969 688.332031 C 819.222656 688.777344 820.277344 688.722656 820.332031 688.667969 C 820.777344 688.222656 819.722656 688.277344 819.667969 688.332031 M 820 690 C 821.636719 710.558594 832.65625 731.058594 845.210938 747 C 851.628906 755.148438 859.914063 762 865 771 C 871.234375 781.65625 873.441406 796 875 808 L 877 808 C 876.25 771.628906 853.867188 751 836 722 C 830 712.351563 828.695313 697.472656 820 690 M 889 694 C 891.257813 698 893.277344 702 895 706 C 888.5625 705 884.519531 700 889 694 M 632 696 C 630.871094 699.464844 629.699219 702.777344 628 706 L 627 706 C 628 702.269531 629.394531 699 632 696 M 690 696 C 688.339844 734.078125 645.390625 757.15625 642 796 C 649 790.796875 652.855469 775.714844 657.453125 768 C 672 743.445313 692 726.554688 692 696 L 690 696 M 616 720 L 616 721 C 607 724.710938 597 732.316406 587 731.5 C 575.507813 730.574219 566.875 706.730469 565 697 C 571.304688 699.160156 574.203125 710.160156 579 715 C 589.941406 725.761719 602.597656 723.074219 616 720 M 950 697 L 949 698 L 950 697 M 949 699 C 946.972656 723.800781 930.734375 720.273438 913 713 L 913 712 C 928.46875 715 937 707.363281 949 699 M 632 706 C 631.949219 710.160156 631.828125 713 628 715 C 628.625 711.492188 629.730469 708.753906 632 706 M 627 707 L 626 708 L 627 707 M 905 707 L 904 708 L 905 707 M 626 709 L 625 710 L 626 709 M 809 759 C 814.683594 773.699219 831 786 841 798 C 826.65625 793.148438 813.761719 785.828125 799 782 C 802.546875 788.246094 812.75 791.117188 819 794.246094 C 831.207031 800.355469 843.625 807.566406 851.558594 819 C 858.953125 829.664063 857.628906 842.804688 860.210938 855 C 861.238281 860 861.867188 867 866 870 C 866 858.195313 863.503906 846.738281 863 835 L 864 835 C 866.988281 843.210938 874.570313 861.507813 882 866 C 874.453125 833.378906 853.785156 803.789063 831 780 C 823.964844 772.601563 817.792969 764.5 809 759 M 640 874 C 647 869.273438 654.5 848.414063 656 840 L 657 840 C 655.4375 852.371094 655 864.527344 655 877 C 659.1875 873.828125 659.730469 866 660.566406 861 C 662.742188 848.042969 660.921875 833.425781 668.597656 822 C 680.386719 804.460938 709.792969 804.171875 719 786 C 704.289063 789.402344 692.253906 799 678 803 C 682.417969 793.660156 689.527344 784.199219 697 777.089844 C 701 773.230469 707.242188 771 710 766 C 696.246094 769 689 779.539063 680.804688 790 C 661.644531 814.261719 646.28125 843.5625 640 874 M 932 797 C 932 815.730469 933.976563 834.34375 934 853 C 934 864.078125 930.972656 875.019531 933.285156 886 C 936.464844 901.082031 949.761719 912.335938 950.910156 928 C 952.828125 954.140625 941 979 941 1005 L 942 1005 C 951.839844 979.300781 962.625 946.695313 957.679688 919 C 955.621094 907.480469 948.566406 897.824219 944.699219 887 C 941.683594 878.554688 942 869.808594 941.171875 861 C 939.738281 846 940.222656 831.0625 938 816 C 937.191406 809.246094 937 802.054688 932 797 M 678 803 L 677 804 L 678 803 M 599 814 C 592.375 841.75 597.9375 868.363281 595.910156 896 C 594.984375 908.621094 586.816406 919.539063 584.613281 932 C 580.90625 953 588 972 595.800781 991 C 598.460938 997.597656 600.3125 1010.730469 606 1015 C 605.789063 989.386719 590.378906 966.648438 591 941 C 591.378906 926.332031 602.324219 915.109375 604.675781 901 C 607.472656 884.199219 602 866 602 849 C 602 840.070313 604.417969 821.152344 599 814 M 811 825 C 817.308594 836.78125 833.5625 836.609375 841.210938 847.015625 C 849.476563 858.257813 848.652344 873.53125 854.3125 886 C 862.578125 904.203125 876.683594 919.296875 886 937 C 881.4375 935.382813 880.992188 938.316406 883.269531 942 C 887.6875 949.152344 893.9375 954 897.175781 962 C 907.429688 987.402344 898.835938 1014.328125 894 1040 C 900 1036.820313 902.523438 1029.300781 904.410156 1023 C 908.953125 1007.816406 910.339844 991.714844 908 976 C 906.300781 963 899.375 954.65625 894.464844 943 C 889.976563 932.351563 889.25 920.828125 882.640625 911 C 875.929688 901.019531 866.261719 893.386719 860 883 C 852.921875 871 853.796875 855.730469 845.894531 844.003906 C 839.746094 835 821.40625 828 811 825 M 863 832 L 863 835 L 862 835 C 862.25 833.546875 862.316406 833.246094 863 832 M 658 838 L 657 839 L 658 838 M 805 866 C 808.742188 870.769531 814.390625 872.527344 819 876.328125 C 825.816406 882 830.566406 888.484375 835 896 C 839.316406 883.515625 815.476563 867 805 866 M 911 879 C 912 880.457031 912.542969 881 914 882 C 913 880 913 880 911 879 M 541 902 C 548.523438 918.109375 560.722656 934.371094 564.480469 952 C 566 960 565 969 565 977 L 564 977 C 555 960 548 942.648438 543.371094 924 C 541.632813 917.242188 538 908.816406 541 902 M 1024 931 L 1024 935 L 1023 935 C 1023.175781 933.316406 1023.316406 932.507813 1024 931 M 670 971 C 683 965.363281 694 956.085938 708 952.15625 C 724.921875 947.398438 740.835938 951.199219 758 951 C 771.457031 951 784.449219 945.339844 798 945.339844 C 811.992188 945.339844 823.773438 952 837 955 C 828.351563 943.285156 812.394531 942 799 941.089844 C 783.328125 940.023438 767.539063 945.53125 752 946.824219 C 724.839844 949.089844 685.316406 938.160156 670 971 M 857 951 C 857 961.484375 856 972.707031 858.503906 983 C 861.324219 995 869 1006.578125 864 1019 C 859.878906 1029.351563 849 1036.199219 838 1036 C 832 1035.695313 823.6875 1032.015625 823.6875 1025 C 823.6875 1017.8125 833.167969 1015.757813 836 1010 C 822.628906 1010 804.277344 999.355469 792 1006.277344 C 777 1014.65625 771.730469 1049 791 1055.214844 C 806.339844 1060.242188 816.574219 1052.21875 830 1046.761719 C 839.324219 1043 849.554688 1041.644531 859 1038 C 852.753906 1047.824219 842.414063 1051.425781 835.394531 1060.039063 C 827.574219 1069.636719 827.355469 1081.496094 816 1089.148438 C 807.585938 1094.820313 797 1093.753906 788 1097.476563 C 775.832031 1102.449219 768 1118.425781 767 1131 L 766 1131 C 760.980469 1119 753.566406 1103.644531 740 1099.789063 C 730.3125 1097.035156 720.195313 1100.476563 711 1095 C 699.683594 1088 697 1075.019531 686.984375 1067.636719 C 677.957031 1061 667.996094 1060.363281 663 1049 C 672.554688 1054.378906 683.515625 1054.304688 694 1056.449219 C 706.570313 1059.019531 720.875 1066.625 732.894531 1058.03125 C 748.199219 1047.089844 734.414063 1015.332031 719 1011.683594 C 705.914063 1008.589844 693 1019.433594 680 1020 C 683 1025.496094 690.335938 1026 693.851563 1031.105469 C 700.5 1041.066406 685.632813 1046.484375 678 1046 C 674.214844 1045.617188 670.175781 1044.414063 667 1042.296875 C 645.585938 1028.015625 658.957031 1007.675781 660.828125 988 C 661.214844 984 661.636719 963 656.773438 962.546875 C 650 962 646.71875 973.1875 645.476563 978 C 641.253906 994.402344 640.632813 1016.296875 647.792969 1032 C 652 1041.585938 656.46875 1057.402344 664.300781 1064.472656 C 670.671875 1070.21875 679.746094 1070.773438 685.910156 1077.042969 C 693.816406 1085.085938 697.390625 1096.644531 708 1102 C 719 1107.621094 732.5 1102.082031 742.996094 1109.636719 C 754.863281 1118.179688 756 1135 767 1144 C 772.800781 1133.105469 774.316406 1119.230469 783 1110.042969 C 793.300781 1099.386719 809.242188 1102.722656 821 1095 C 832.402344 1087.304688 832.78125 1075.691406 840.417969 1066.039063 C 845.527344 1059.585938 854.238281 1058 859.671875 1052 C 866.488281 1044.28125 870 1028.710938 873.25 1019 C 879.253906 1000.679688 880.84375 956.730469 857 951 M 862 957 C 870.238281 968.675781 868.304688 982.574219 870 996 L 869 996 C 866.882813 985.75 859 967 862 957 M 657 966 C 653.789063 978.402344 651.550781 992.199219 651 1005 L 650 1005 C 649 992.597656 646.917969 975.496094 657 966 M 566 978 L 565 979 L 566 978 M 619 1022 C 619.691406 1038.089844 620 1051.421875 615 1067 L 614 1067 C 615.6875 1053.648438 613.210938 1034.046875 619 1022 M 623 1034 L 623 1040 L 622 1040 C 622 1037.746094 622 1036.050781 623 1034 M 755 1036 C 753.199219 1043.570313 755 1051.363281 755.828125 1059 C 757.296875 1074.410156 755.792969 1097.390625 764 1111 C 768.824219 1094.679688 763.816406 1072.628906 761.949219 1056 C 761 1049 760.65625 1041 755 1036 M 964 1044 C 966.824219 1049.296875 964.867188 1053.375 965 1059 C 965.664063 1069.597656 967.527344 1077.105469 958 1085 C 961.339844 1072.089844 958.863281 1056.128906 964 1044 M 586 1062 C 586.1875 1071.164063 588.832031 1080 590 1089 C 585 1085.785156 582.9375 1067.117188 586 1062 M 675 1096 C 678.847656 1109.324219 690.964844 1116 703 1121 C 698.855469 1113 683.257813 1100 675 1096 M 848 1121 C 843 1111.183594 841 1112.671875 846 1102 C 835.175781 1107.105469 836.832031 1118.3125 848 1121 M 729 1112 C 729.308594 1114.121094 729.382813 1114.6875 731 1116 C 730.488281 1114.046875 730.265625 1113.542969 729 1112 M 734 1113 C 735 1115.25 735.75 1116 738 1117 C 736.785156 1115 736 1114.214844 734 1113 M 679 1114 C 681.925781 1120.257813 687.992188 1123.664063 693 1128.171875 C 699.632813 1134.140625 705.867188 1144.15625 715 1146 C 706.277344 1135.285156 691.410156 1120.183594 679 1114 M 776 1137 C 781.253906 1133.148438 789.222656 1121 792 1115 C 783.558594 1119 776.929688 1127.722656 776 1137 M 822 1119 C 820.636719 1126.71875 823.5625 1132.109375 831 1135 C 828.636719 1129.523438 824.9375 1125.003906 824 1119 L 822 1119 M 800 1120 C 796.875 1123.152344 785.296875 1134 788.242188 1139.261719 C 789.777344 1142.046875 797 1142.265625 800 1143 C 797.765625 1139 794.511719 1138.210938 790 1138 C 793.484375 1133.480469 801.601563 1126.03125 800 1120 M 715 1124 C 717.898438 1129.097656 723.707031 1129.628906 729 1131 C 726.253906 1126 720.335938 1125.105469 715 1124 M 849 1132 C 842.710938 1138.421875 833.789063 1146 830 1154 C 836.515625 1150.753906 850.953125 1140.46875 849 1132 M 804 1133 L 804 1134 C 806.300781 1135.222656 808.53125 1136.160156 811 1137 C 809.257813 1133.832031 807.566406 1133.269531 804 1133 M 746 1136 C 748.535156 1140.148438 753.410156 1140.625 758 1141 C 754.652344 1137.765625 750.476563 1137 746 1136 M 725 1141 L 725 1143 C 733 1143.371094 737.527344 1149.511719 745 1151 C 740.929688 1142.296875 733.746094 1141 725 1141 M 723.332031 1142.667969 C 723.277344 1142.722656 723.222656 1143.777344 723.667969 1143.332031 C 723.722656 1143.277344 723.777344 1142.222656 723.332031 1142.667969 M 721.332031 1143.667969 C 721.277344 1143.722656 721.222656 1144.777344 721.667969 1144.332031 C 721.722656 1144.277344 721.777344 1143.222656 721.332031 1143.667969 M 603 1145 C 603 1151.097656 600.433594 1158.226563 601 1164 C 603 1179 617 1202.355469 600 1214 C 600 1197 598.921875 1180.015625 599 1163 C 599 1157.105469 597.273438 1148.503906 603 1145 M 840 1156 C 841.398438 1155.339844 841.8125 1155.035156 843 1154 C 845.191406 1158.066406 848.734375 1160.359375 853 1162 C 850.601563 1155.117188 842.933594 1155.757813 846 1148 C 842.441406 1150 841 1152.195313 840 1156 M 676 1163 C 681.910156 1160.203125 686.378906 1154.558594 692 1151 C 684.6875 1148.183594 678 1157 676 1163 M 751 1150 C 752.878906 1153.488281 755 1154.386719 759 1155 C 757 1151.511719 754.851563 1150.613281 751 1150 M 778 1150 L 778 1152 L 784 1152 C 781.941406 1150.417969 780.613281 1150.175781 778 1150 M 817 1151 L 818 1152 L 817 1151 M 712 1153 C 713.699219 1159 718 1160.726563 724 1161 C 720.699219 1157.652344 716.292969 1155 712 1153 M 800 1156 C 804.980469 1166.449219 822.804688 1170.296875 833 1174 C 829.390625 1166.664063 821.679688 1167.121094 815 1164.097656 C 809.71875 1161.699219 805.632813 1157.667969 800 1156 M 738 1157 C 743 1163.605469 751.285156 1166.484375 759 1169 C 755.480469 1162.117188 745.367188 1158.105469 738 1157 M 783 1161 L 783 1163 C 788 1163.296875 793 1163.472656 798 1162 C 793.527344 1160.125 787.816406 1161 783 1161 M 835 1165 C 838.296875 1170.699219 842.652344 1175 849 1177 C 845.589844 1171.59375 841 1167.070313 835 1165 M 699 1184 C 706.746094 1179.640625 712.9375 1172.382813 720 1167 C 712 1165.441406 700.464844 1176.738281 699 1184 M 803 1171 C 803.683594 1172.578125 803.804688 1172.777344 805 1174 L 805 1171 L 803 1171 M 954 1284 C 947.652344 1297.492188 924.691406 1299.335938 912 1295.378906 C 905 1293.222656 900.679688 1287.527344 893 1289 C 895.660156 1281.785156 889.480469 1277.636719 885.671875 1272 C 876.628906 1258.613281 869.738281 1244.121094 858.828125 1232 C 838.179688 1209.054688 800.726563 1180.554688 767.574219 1182 C 759.441406 1182.199219 752.203125 1187.15625 745 1190.414063 C 719.4375 1202 697.183594 1220.234375 682 1244 C 675.753906 1254 664.734375 1270.171875 663.5 1282 C 662.652344 1290.125 673.972656 1296.515625 681 1294.347656 C 686.769531 1292.566406 690.585938 1287.128906 693.191406 1282 C 694 1280.265625 695.371094 1275.207031 697.902344 1275.207031 C 703 1275.207031 694.578125 1290.429688 693.386719 1292 C 682.5 1306 668.230469 1295.222656 659 1286 C 657 1294.136719 655.507813 1304.566406 649.785156 1311 C 640.730469 1321.070313 614.609375 1325.160156 605.515625 1313 C 595.867188 1300.011719 610 1301.308594 618 1304 L 618 1305 C 616.203125 1305 616.480469 1305 615 1304 C 618.179688 1327.769531 646.539063 1311.027344 652 1298 C 641.585938 1302.488281 633.941406 1309.210938 622 1307 C 631.523438 1303.003906 640.359375 1304.726563 648.960938 1296.816406 C 664.507813 1282.507813 669.972656 1257 680.605469 1239 C 695.269531 1214.347656 716.789063 1199 742 1186.246094 C 749 1182.699219 759.171875 1174.085938 767 1173.523438 C 774.789063 1173 782.839844 1180 790 1182.332031 C 821.945313 1193.097656 850 1210 868.5625 1239 C 879.246094 1255.765625 889.390625 1284 909 1292 C 925.492188 1298.683594 938.613281 1288.210938 954 1284 M 1008 1183 L 1007 1184 L 1008 1183 M 1007 1185 C 1004.4375 1198.203125 1000.574219 1211.625 995.28125 1224 C 994.351563 1226.164063 991.984375 1234.792969 989 1234.792969 C 984.488281 1234.792969 984.800781 1222.644531 985.394531 1220 C 987 1212.34375 994 1206.304688 998.25 1200 C 1001.488281 1195.183594 1003 1189.3125 1007 1185 M 768 1191 L 769 1189 C 789 1195.492188 821.753906 1197 833.910156 1218 C 843 1233.816406 830.21875 1252 815 1257.300781 C 806.601563 1260.300781 797.699219 1260.066406 789 1261.4375 C 764.832031 1265.253906 747.820313 1267 725 1255.179688 C 721.347656 1253.289063 717.984375 1250.777344 715 1248 C 692 1225.53125 720.78125 1208.363281 740 1198.753906 C 746 1195.734375 761.941406 1187.476563 768 1191 M 608.332031 1219.667969 C 608.277344 1219.722656 608.222656 1220.777344 608.667969 1220.332031 C 608.722656 1220.277344 608.777344 1219.222656 608.332031 1219.667969 M 740 1238 C 743.519531 1241.753906 741.359375 1248.039063 744.800781 1251.246094 C 748.859375 1255.039063 749 1237 749 1235 L 750 1235 C 750 1242.15625 753.324219 1249.003906 753 1256 C 759.703125 1254.570313 758 1240.367188 758 1235 L 759 1235 C 759 1238 758.679688 1253.367188 764.503906 1252.078125 C 767 1251.492188 766.953125 1240.300781 767 1238 L 768 1238 C 768 1250.695313 775.957031 1255.183594 776 1240 L 777 1240 C 777 1244.414063 777 1248.394531 781 1251 L 781 1252 L 771 1253 C 775.914063 1258.410156 792 1254 794 1247 L 795 1247 C 796.429688 1255.53125 801.726563 1248 802 1243 L 803 1243 C 803 1250.503906 807.714844 1252.246094 809 1244 L 810 1244 L 810 1250 C 814.636719 1248.691406 827.800781 1246.683594 825.339844 1239.132813 C 823.59375 1233.777344 812.453125 1234 808 1232.121094 C 787.324219 1223.464844 772.9375 1216.042969 751 1227.484375 C 744.398438 1231 728 1238.554688 734.554688 1248.621094 C 737.792969 1253.605469 739.769531 1239.773438 740 1238 M 593 1225 C 593.777344 1226.769531 593.910156 1228.035156 594 1230 L 593 1230 C 592.835938 1228.214844 592.714844 1226.742188 593 1225 M 977 1239 C 978.949219 1238.0625 979.550781 1237.609375 981 1236 C 978.703125 1236.675781 978.226563 1237 977 1239 M 818 1239 L 817 1245 L 816 1245 C 816.355469 1242.65625 816.773438 1241.011719 818 1239 M 726 1241 L 729 1247 C 727 1245.425781 725.269531 1244.082031 723 1243 C 724.636719 1247.316406 727.699219 1248.753906 732 1250 C 731.382813 1245.527344 730.578125 1242.386719 726 1241 M 786 1241 C 786.246094 1246.40625 788.976563 1251.191406 782 1252 L 782 1251 C 784.644531 1248 784.476563 1244.535156 786 1241 M 867 1253 C 858.734375 1264.125 843.703125 1260 832 1264.054688 C 812 1271.230469 783.304688 1279.34375 762 1278 C 749.238281 1277.050781 737.421875 1271.519531 725 1269.003906 C 711.351563 1266.238281 695.171875 1268.714844 686 1256 C 701 1263.011719 713.191406 1263.316406 729 1267 C 743.382813 1270.136719 755.882813 1276 771 1275 C 791.527344 1273.503906 811.246094 1266.292969 831 1261.15625 C 843 1258 855 1257.578125 867 1253 M 762 1254 L 762 1256 C 764.441406 1256 766.621094 1255.570313 769 1255 C 766.667969 1254.015625 764.542969 1254.019531 762 1254 M 857 1269 C 863.183594 1282.222656 869.660156 1290 885 1292 L 885 1293 C 873.710938 1293 864.179688 1290.765625 858.492188 1280 C 856.613281 1276.445313 854.742188 1272.5625 857 1269 M 888 1291 L 887 1292 L 888 1291 M 620 1305.332031 C 620.773438 1305.332031 620 1305.832031 619.667969 1305.667969 L 620 1305.332031 "/>
</g>
</svg>
