<?xml version="1.0" encoding="UTF-8"?>
<svg xmlns="http://www.w3.org/2000/svg" xmlns:xlink="http://www.w3.org/1999/xlink" width="1500pt" height="1500pt" viewBox="0 0 1500 1500" version="1.1">
<g id="surface1">
<path style=" stroke:none;fill-rule:nonzero;fill:rgb(0%,0%,0%);fill-opacity:1;" d="M 886 92 L 886 91 C 887.925781 90 888 90 889 88 C 873.679688 90.066406 859.671875 98.324219 844 99 L 844 98 C 847.945313 97.65625 851.382813 96.601563 855 95 L 855 94 C 834.726563 95 815.894531 101.429688 796 104 L 796 103 C 797.3125 102.230469 797.230469 102.3125 798 101 C 789.40625 102.773438 779.878906 106.558594 771 105.34375 C 762 104.117188 755.304688 98.078125 747 95.089844 C 736.585938 91.339844 723.933594 91.125 713 92.171875 C 691.78125 94.199219 672 103.125 651 105.714844 C 633.777344 107.828125 616.257813 104.625 599 107.296875 C 584.277344 109.574219 570.902344 117 556 118.714844 C 523.515625 122.652344 495.339844 110.625 471 91 C 472.605469 106.691406 495.714844 127.699219 511 130 L 511 131 C 477.210938 131 448.449219 125.203125 417 113 C 421.425781 126.339844 441.707031 143.765625 455 148 L 455 149 C 436.664063 145.214844 418 136.710938 399 140 C 391.964844 141.109375 382.648438 143.347656 379 150 C 384.671875 148.070313 390 145.164063 396 144.300781 C 415.925781 141.429688 430.921875 151 448 159 L 448 160 C 426.21875 160 404 154 383 162.453125 C 369.238281 168.027344 357.722656 178 350.515625 191 C 347.320313 196.78125 346.226563 203.488281 342.53125 209 C 336.703125 217.6875 328.3125 224.367188 322.347656 233 C 307.519531 254.460938 301 279.1875 301 305 L 302 305 C 305 292.265625 307.410156 280 313.371094 268 C 328.871094 237.070313 359.378906 213.707031 393 206 L 393 207 C 382.449219 210.046875 374.542969 218.445313 367 226 C 343.957031 249.078125 332.988281 281.492188 310 304 C 295.648438 318.027344 277.332031 312.78125 260 319.230469 C 238.578125 327.199219 222 345.136719 207.574219 362 C 201 369.484375 193.964844 376.8125 190 386 C 212 377.53125 227.519531 354 249 343.246094 C 276.34375 329.578125 307.34375 335.316406 330.828125 311.828125 C 345 297.617188 349.828125 277.453125 360.542969 261 C 380 231.074219 416.277344 204.519531 452 200 L 452 201 C 438.238281 205.390625 430.691406 219.773438 420 228.535156 C 397.328125 247.121094 361.925781 249.175781 359 285 C 365 280.535156 367.507813 271.5625 374 266.527344 C 387.484375 256.078125 405.578125 254.53125 420 245.796875 C 439.246094 234.136719 453.675781 216.34375 474 206.246094 C 486.546875 200.015625 500.566406 196.527344 514 192.710938 C 519.886719 191.039063 527.734375 190.738281 531 185 C 516.246094 188 501 191.816406 486 192 C 453.328125 192.386719 421.613281 185.675781 389 192 L 389 191 C 410.234375 183 425.53125 170 450 171.039063 C 462.53125 171.582031 491.765625 181.464844 501 171 C 490.246094 168.21875 478.984375 164.480469 468 163 L 468 162 C 478.433594 162 501.964844 164.601563 508 154 C 492 154 478.546875 153 466 142 C 485.9375 144.683594 502.59375 149 523 146.832031 C 529.621094 146.164063 543.890625 146.285156 549.339844 142.449219 C 553.441406 139.566406 542.613281 136.289063 541 136 L 541 135 C 556.777344 135 572.464844 134.675781 588 131.550781 C 602 128.710938 615.730469 123 630 121 L 630 122 C 626 122.675781 622.300781 123.625 620 127 C 648 124.78125 674.390625 115.722656 702 112 L 702 110 L 693 110 L 693 109 C 705.59375 109 718.46875 105.359375 731 107.617188 C 744.523438 110.050781 755.871094 118.21875 770 118.546875 C 784.199219 119 798 114.160156 812 112.28125 C 834.40625 109.265625 856.722656 108.320313 879 104 L 879 105 C 876.363281 106 875.382813 106.578125 874 109 C 883.664063 108.585938 893.398438 107.214844 903 106 C 902 107.480469 902 107.203125 902 109 C 912.714844 107 922.699219 103.484375 933 100 C 930.410156 103 928.390625 105.40625 927 109 C 940.699219 108 954.210938 106 968 106 L 968 107 C 960.417969 109.183594 952.664063 113.164063 950 121 C 963.441406 117.523438 991.46875 116.136719 996 100 C 980.414063 104.378906 966.558594 97.128906 951 97 L 951 96 C 967 95.308594 982.824219 94 999 94 C 994.570313 88.179688 976 90.484375 969 90 C 961.347656 89.300781 954 85.308594 946.980469 85.019531 C 926.574219 84.179688 906 89.441406 886 92 M 885 92 L 884 93 L 885 92 M 962 119 C 964.597656 123.121094 970.523438 123.605469 975 125 C 991.480469 130.015625 1005.824219 125.707031 1022 122 C 1014.578125 130.578125 1008.59375 140.261719 1000 147.816406 C 994.269531 153 984.988281 155.429688 981 162 C 993.9375 162 1005.636719 157.132813 1018 154 C 1047.539063 146.128906 1083.230469 140.1875 1109 160.808594 C 1118.761719 168.621094 1123.898438 179.058594 1131 189 C 1122.597656 183.03125 1118.722656 173 1111 166.183594 C 1094.519531 151.6875 1069.859375 149.066406 1049 152.296875 C 1033.476563 154.699219 1019.53125 162.179688 1009.183594 174 C 1006.382813 177.199219 999.445313 186.058594 1003.757813 190.378906 C 1005.925781 192.550781 1008.546875 190.695313 1010 189 C 1016 181.8125 1020.871094 175.273438 1029 170.453125 C 1047 159.683594 1075.886719 159.511719 1091 176 C 1067 176 1028 182.042969 1013 203 C 1024.261719 202.769531 1035.730469 198 1047 199.285156 C 1089 204.253906 1106.984375 240.238281 1128 272 C 1108 267.253906 1096.636719 246.320313 1083.949219 232 C 1081.460938 229.191406 1073.265625 217 1068.605469 219.257813 C 1064.742188 221.238281 1069.59375 229.640625 1070.757813 232 C 1076.792969 244.257813 1084.445313 256.195313 1094 266 C 1115 287.46875 1146 289.351563 1164 314 C 1177.484375 332.238281 1187.585938 353.335938 1196.574219 374 C 1199.960938 381.78125 1203.605469 397.527344 1211 402 C 1210 361.488281 1188.25 322.773438 1164.847656 291 C 1155.367188 278.132813 1142.929688 267 1135 253 C 1164.5 274.210938 1187.558594 303.449219 1217 325.117188 C 1243.550781 344.652344 1274.664063 357.0625 1300 378.4375 C 1309.933594 386.820313 1317.167969 396.808594 1325 407 L 1320 405 C 1321.453125 409.554688 1324.234375 413.140625 1327 417 C 1323.320313 414.570313 1320 411.726563 1316 410 C 1319.820313 423.457031 1327.972656 433 1336 444 C 1319.832031 437.269531 1304.960938 430.011719 1287 430 C 1295.507813 448 1307.820313 461.800781 1312 482 L 1311 482 C 1303.199219 455 1272.886719 434.164063 1255.804688 413 C 1249.390625 405.054688 1243 389.609375 1234 385 C 1235.644531 398 1238.382813 412.429688 1246.527344 423 C 1270.210938 453.734375 1313.617188 467.1875 1310 513 L 1309 513 C 1300.25 491.664063 1290.644531 476.195313 1273 460.714844 C 1267.394531 455.796875 1262 449.734375 1255 447 C 1260.21875 459.113281 1269.46875 469.09375 1273 482 L 1272 482 C 1264.308594 461 1240.652344 446.222656 1226.175781 430 C 1220 423.09375 1216.265625 411.453125 1208 407 C 1208 441.753906 1236.542969 457.707031 1253.65625 484 C 1269.410156 508.210938 1272 536 1272 564 L 1271 564 C 1269.382813 545.472656 1260.507813 524.804688 1254.972656 507 C 1253.195313 501.273438 1252 491.507813 1247 488 C 1247.199219 512 1253 535.238281 1255 559 L 1254 559 C 1252 537.039063 1239.203125 516.769531 1236 495 L 1234 495 C 1234.523438 507.132813 1239.953125 518.285156 1242.574219 530 C 1246 546 1247 562.777344 1247 579 C 1239.464844 569.804688 1238.550781 558.019531 1235.277344 547 C 1230.773438 531.808594 1224.335938 517.144531 1217.246094 503 C 1213.820313 496.167969 1209.816406 485 1203 481 C 1206.777344 499.261719 1213.816406 516.375 1216.574219 535 C 1221.203125 566.289063 1218.769531 600 1213 631 L 1212 631 C 1211.746094 618.769531 1207.316406 606.769531 1204.371094 595 C 1203.238281 590.453125 1202.882813 584 1199 581 C 1203 613.632813 1204.660156 643.414063 1202 676 L 1201 676 C 1201 636.511719 1197.210938 589.566406 1181 553 L 1180 553 C 1180 570.371094 1186.527344 587 1188.714844 604 C 1191.679688 627.21875 1191 650.621094 1191 674 L 1190 674 C 1186.609375 651.035156 1174.515625 628.484375 1164.246094 608 C 1159.746094 599.027344 1154.695313 586.550781 1147 580 C 1147.863281 599 1160.339844 620 1165.972656 638 C 1170.988281 654.140625 1176 670.363281 1179.195313 687 C 1180.878906 696 1180.375 705.238281 1183 714 C 1187.847656 729.824219 1203.3125 747.523438 1198 765 C 1191.636719 786.347656 1162.546875 759.621094 1155 752 C 1129.8125 726.546875 1118.488281 685.757813 1114 651 L 1115 651 C 1116.28125 655.449219 1117.933594 660.542969 1122 663 C 1118.785156 649.507813 1118.714844 634.777344 1116.730469 621 C 1112.582031 592.21875 1108 563.105469 1108 534 C 1108 523.484375 1108.847656 513.308594 1111 503 C 1111.605469 500.113281 1112.34375 494.273438 1116 493.769531 C 1120.386719 493.199219 1124 500.015625 1125.929688 503 C 1131.511719 512.09375 1131.535156 530.773438 1140 537 C 1137.71875 508.09375 1132 483 1121 456 C 1131.886719 457.46875 1144.253906 461.757813 1153 468.527344 C 1158 472.449219 1161.257813 478 1167 481 C 1164.914063 467.074219 1153.523438 452.683594 1142 445.109375 C 1135.628906 441 1127.546875 440 1122.390625 434 C 1115.515625 426 1117 411 1107 406 L 1109 422 L 1108 422 C 1105.230469 413.25 1099 405.5 1095.425781 397 C 1090.398438 385.25 1087.542969 373 1083 361 L 1082 361 C 1082 396 1096.839844 428 1101.699219 462 C 1104.234375 479.730469 1097 496.503906 1097 514 L 1096 514 C 1094.21875 493.601563 1076.902344 471.226563 1059 462.269531 C 1037.972656 451.75 1016.929688 449.585938 998 433.5625 C 985.769531 423.203125 977.660156 397.359375 961 394 C 962 397.484375 963.609375 400.65625 965 404 C 959.441406 399.765625 955 393.253906 949 390 C 949 396.8125 950.222656 401.265625 954 407 C 944.964844 402.386719 939.351563 393 930 389 C 926 387.257813 917.328125 388.054688 915 383.722656 C 913 379.699219 918.464844 372.691406 920 369 C 907.390625 371 899.59375 382 889 388 C 890.746094 382.089844 889.546875 375.644531 892.570313 370 C 901.976563 352.4375 922.226563 355.660156 938 351 C 929.695313 340.699219 921.230469 332.507813 915.871094 320 C 912.640625 312.449219 911.839844 300.074219 904 296 C 907.394531 323 901.214844 344 890 368 L 889 368 C 889.5 365.3125 889.882813 362.730469 890 360 C 886.800781 362 885.316406 364.53125 884 368 L 883 368 C 880.960938 357.480469 878 345.574219 869 339 C 870.683594 360.3125 859.914063 381.0625 863.613281 402 C 866.957031 421 871.789063 440.828125 878 459 C 879 462.074219 882.894531 475.792969 886.945313 475.792969 C 890 475.792969 889.992188 460.472656 890 458 L 891 458 C 892 464.363281 894.6875 471 897 477 L 898 477 C 897.996094 469.691406 892.296875 455.046875 895.464844 448.683594 C 898.585938 442.421875 917.25 441.714844 923 443.726563 C 926 444.800781 928.550781 447.46875 932 447.238281 C 938.496094 446.808594 943 439.410156 947 435 C 947.320313 437 948.289063 443.792969 950.988281 443.792969 C 953.878906 443.792969 955 432.203125 956.304688 430.058594 C 960.292969 423 974.726563 423.722656 981 427.140625 C 986.324219 430.039063 989.449219 435.699219 994 439.535156 C 1001.617188 446 1010.597656 450.488281 1017.996094 457.175781 C 1022.804688 461.519531 1026 467.417969 1031 471.472656 C 1036.832031 476.140625 1044.566406 478.195313 1051 482 C 1063.390625 489 1074.746094 498.699219 1082.175781 511 C 1101.945313 543.742188 1092.457031 583.144531 1094 619 C 1094.824219 636.78125 1102 655 1103.832031 673 C 1107.921875 714 1108 755 1108 796 L 1107 796 C 1104 779 1093.433594 747.261719 1079 737 C 1081.175781 746.40625 1085.527344 755.179688 1085.960938 765 C 1087 789.03125 1072 828.511719 1100 843 C 1096.859375 824.761719 1087.882813 813.289063 1094 794 L 1095 794 C 1096 816 1115.894531 841.195313 1138 845 C 1132.675781 833.570313 1121 827 1118 814 C 1128.996094 822.449219 1140.851563 826.296875 1154 830 C 1150.777344 823.40625 1143.289063 821.496094 1138 816.816406 C 1128.90625 808.753906 1124.515625 797 1124 785 L 1125 785 C 1130.277344 801 1149.570313 803.378906 1164 804 C 1160.972656 798.175781 1154.328125 797.074219 1149 794 C 1139.902344 788.5 1127 774.171875 1130.332031 762.164063 C 1132 756.144531 1145.738281 765.15625 1149 766.574219 C 1166.414063 774.152344 1182 782.367188 1187.570313 802 C 1191 814.546875 1186.953125 826.480469 1186 839 C 1184.507813 862 1183 886.015625 1183 909 C 1178.855469 906.078125 1175.625 902.15625 1171 900 C 1171.683594 908.347656 1175.429688 916 1177.347656 924 C 1181.507813 941.5625 1184.429688 960 1183.984375 978 C 1182.921875 1021.488281 1149.914063 1058.5 1175.8125 1101 C 1180 1108.054688 1185.339844 1117.398438 1193 1121 C 1187 1103.425781 1176.675781 1088.300781 1178 1069 C 1179 1055.347656 1186.5625 1042.472656 1191.550781 1030 C 1198.539063 1012.527344 1203.988281 994 1204 975 C 1246.269531 1017.621094 1231.546875 1081.542969 1258.695313 1131 C 1265.175781 1142.8125 1273.375 1165.0625 1286 1171 C 1278.53125 1148.085938 1265.695313 1128 1260.425781 1104 C 1250.878906 1060.699219 1255.652344 1019.136719 1229.921875 980 C 1223.246094 970 1213.84375 962.148438 1205 954 C 1213.183594 956 1220 960.703125 1228 963 C 1226.695313 955.675781 1222.210938 949 1219.449219 942 C 1213.925781 928.191406 1209 913 1208 898 C 1206.800781 879.3125 1209.78125 860.699219 1208.960938 842 C 1208.269531 826.234375 1204 811 1205 795 C 1205.390625 789.464844 1209.296875 787.359375 1211.996094 783 C 1214.890625 778.292969 1215.277344 772.367188 1214.910156 767 C 1214 754.378906 1209.367188 741 1203 730 C 1200.5625 725.519531 1192.769531 718.578125 1193.824219 713.015625 C 1195.632813 703.492188 1207.71875 695.773438 1211.53125 687 C 1214.890625 679.277344 1215.804688 670.671875 1219.246094 663 C 1223.902344 652.628906 1230.203125 645.667969 1232.550781 634 C 1235.714844 618.269531 1234 602 1234 586 L 1235 586 C 1238.550781 598.070313 1249.796875 606.820313 1260 613.304688 C 1264.980469 616.46875 1271.789063 620.5 1275.910156 614 C 1285.230469 599.109375 1275.433594 579 1272 564 L 1273 564 C 1278.207031 572.035156 1285.703125 547 1287 543 L 1288 543 L 1290 564 L 1292 564 C 1292 550.296875 1294.859375 536.75 1293.910156 523 C 1293.210938 513 1289.929688 503 1288 493 L 1289 493 C 1297.875 517.242188 1311.296875 538.503906 1313.828125 565 C 1314.773438 575 1311.769531 584.246094 1311 594 C 1318.640625 588.191406 1317.203125 566 1318 557 C 1320 539.019531 1325.972656 521.160156 1325.972656 503 C 1325.972656 487.304688 1320 472.195313 1317 457 L 1318 457 C 1320.421875 464.601563 1326.25 470.820313 1329.742188 478 C 1335 489.125 1337 500.757813 1337 513 C 1352 505.449219 1341.574219 477.152344 1337 466 C 1349.878906 476.21875 1361.960938 485 1378 489 C 1375.59375 479 1365.597656 473 1359.527344 465 C 1353 456.699219 1350.195313 445.816406 1347 436 C 1355.648438 445.039063 1362.839844 457.390625 1375 462 C 1370 446.703125 1356.617188 432 1347.425781 419 C 1328.507813 392.25 1312.894531 361.722656 1286 341.761719 C 1276 334.351563 1263.695313 332.507813 1253 326.5625 C 1235.425781 316.785156 1219.878906 302.21875 1205 288.832031 C 1180 266.414063 1155.855469 243.269531 1129 223.128906 C 1113.4375 211.453125 1096.960938 199.421875 1078 194 L 1078 193 C 1098 196.792969 1118.265625 200.035156 1136 211.066406 C 1144.296875 216.226563 1149.886719 225.304688 1158 230 C 1156.570313 212.496094 1143.308594 205.226563 1136.316406 191 C 1128.398438 175 1131 157 1112 147 L 1112 146 C 1125.972656 150.023438 1137.183594 162.675781 1144 175 C 1147.554688 181.085938 1148.53125 188.3125 1154 193 C 1153.3125 184.585938 1150.453125 175.738281 1147 168 C 1144.335938 161.496094 1140.296875 155.367188 1135.699219 150 C 1131.730469 145.367188 1127 141.144531 1122 138 C 1093 119.589844 1063.234375 139.75 1033 140 L 1033 139 C 1044.828125 137.253906 1058.542969 133.480469 1070 130 C 1058.324219 123.003906 1040.546875 128 1028 129 C 1038.234375 115.191406 1053.300781 105.765625 1063 92 C 1051 94.296875 1041.609375 106.191406 1030 110.574219 C 1008 119 985 119 962 119 M 843 99 L 843 100 L 840 100 C 841.246094 99.316406 841.546875 99.25 843 99 M 881 103 L 880 104 L 881 103 M 796 104 L 796 105 L 793 105 C 794.246094 104.316406 794.546875 104.25 796 104 M 904 105 L 903 106 L 904 105 M 631 120.332031 L 631.332031 120.667969 C 630.839844 120.832031 630.226563 120.332031 631 120.332031 M 1111 145.332031 C 1111.773438 145.332031 1111 145.832031 1110.667969 145.667969 L 1111 145.332031 M 770 162 C 760.78125 178.214844 762.683594 199.15625 763.910156 217 C 766 248.308594 770 278.484375 770 310 L 771 310 C 781 283.449219 773.933594 260 772 233 C 771 218 775 203.019531 775 188 L 774 188 C 772.3125 191.011719 771.351563 193.5625 771 197 L 770 197 C 769.996094 190 768.597656 183.042969 769 176 C 769.414063 171.363281 771.738281 166.453125 770 162 M 401 170 L 401 171 C 383.261719 181 369.757813 198 351 206 C 356 185.800781 382.351563 174 401 170 M 395 205 L 394 206 L 395 205 M 402 355 L 404 355 C 409.507813 323 433.320313 286.695313 458 266.464844 C 471.433594 255.453125 495.257813 249.605469 503 233 C 494 234.613281 487 242 479 245.679688 C 465.6875 252.023438 452 258.234375 441 268.175781 C 417.980469 288.726563 402 324.019531 402 355 M 368 339 C 374.671875 334.109375 378 322.40625 384 316 C 396.820313 302.261719 413.492188 293.34375 426.472656 280.582031 C 431.597656 275.539063 433.519531 268.210938 439 263.175781 C 451.328125 252 472.597656 249.132813 483 237 C 464.640625 237.003906 441.824219 242 429.679688 257.039063 C 423.429688 264.785156 422.339844 275 414.984375 282 C 395 301 374 309.363281 368 339 M 505 242 C 497.179688 250.246094 495.390625 261.703125 487.894531 270 C 474 285.328125 454 297.011719 438 310 C 452.566406 289.320313 480.851563 281.21875 491 257 C 482.957031 260.117188 477.199219 267.632813 470 272.300781 C 448.890625 286 430.617188 293.726563 421.4375 319 C 415 336.648438 417 362 405.46875 377 C 394 392.039063 376.738281 403.4375 360 411.753906 C 349.824219 416.808594 337 419.265625 329.214844 428.039063 C 322.394531 435.691406 322.175781 446.414063 320.566406 456 C 318.820313 466.386719 315.640625 476.800781 313 487 C 327.878906 478.003906 326.210938 450.609375 336.707031 438.183594 C 348 424.652344 372.949219 422.566406 388 414 C 384.386719 428 382.296875 442.59375 382 457 C 388.804688 452 390.476563 432.1875 393.859375 424 C 400.597656 407.703125 413.199219 395.664063 420.511719 380 C 425.261719 369.820313 424.3125 358.035156 429.378906 348 C 441.21875 324.539063 468.964844 311.667969 485.5625 292 C 494.757813 281.101563 499.207031 269.675781 502.628906 256 C 503.710938 251.660156 506 246.402344 505 242 M 1056 249 C 1065.4375 271.546875 1086 293.085938 1108 303.742188 C 1122.652344 311 1139.746094 311.167969 1150.472656 325 C 1160.894531 338.445313 1167.332031 357.578125 1171 374 C 1172.484375 380 1171.429688 393.011719 1176 397 C 1174.472656 385 1173 372.1875 1173 360 L 1174 360 C 1175.6875 366 1178.328125 371.289063 1184 374 C 1178.828125 358.101563 1171.902344 343.8125 1164.257813 329 C 1159.640625 320.050781 1155.449219 311 1147 304.789063 C 1132 294.09375 1111.753906 292.167969 1096 281.667969 C 1087 275.746094 1078.875 269.035156 1071 261.828125 C 1065.976563 257.230469 1062.546875 251.535156 1056 249 M 1135 252 L 1134 253 L 1135 252 M 361 288 C 346.753906 312.15625 331.746094 335.832031 307 350.546875 C 292.726563 359.035156 275.664063 363 260 368 C 263.59375 363.339844 266.65625 358.65625 272 355.824219 C 285 349 301.785156 349 311 336 C 286 341.777344 255 348 234 363.039063 C 207 382.300781 190.390625 427.570313 189 460 L 191 460 C 194.847656 431.4375 211.90625 391 236 374 C 206.800781 412.753906 201.585938 462.558594 192 509 C 208.777344 501.015625 226.761719 472 231 454 L 232 454 C 231 466.679688 231 479.257813 231 492 C 235 489 237.226563 479 239 474 L 240 474 C 240 494 249.960938 519.808594 235.671875 537 C 228.214844 546 212.960938 547 207 556 C 227.699219 556 246.992188 545.480469 251 523 L 252 523 C 251.316406 539 250.3125 554.011719 251 570 C 253.683594 569 255.695313 567.722656 258 566 C 256.394531 578.632813 251 591.214844 251 604 C 251 618 258.441406 631.199219 266.476563 642 C 270.75 647.742188 275.277344 654.128906 282 657 C 279.46875 637.40625 276 620 276 600 L 277 600 C 277.570313 627.605469 290.75 646.632813 305 669 C 310.367188 677.308594 326 680.070313 324.699219 690 C 320.804688 718.34375 290.925781 730.195313 271 745.664063 C 260.828125 753.5625 249.195313 765.246094 255 779 C 267.777344 765.820313 279.546875 754.664063 296 746 C 285.730469 759.476563 270.308594 766.585938 259.175781 779 C 245.910156 793.789063 243 812 243 831 L 244 831 C 246.289063 824.246094 246.816406 817.386719 250.3125 811 C 260.941406 791.605469 280 780.050781 297 767 C 289.585938 786.109375 281.171875 805.285156 267.699219 821 C 258.25 832.027344 243 840.585938 237 854 C 265.535156 850.136719 284.65625 818.730469 303 800 C 297.796875 822.484375 290.1875 851.308594 272.828125 867.5625 C 264.5625 875.300781 253.664063 879 244 884.429688 C 232.9375 890.796875 222.714844 899.554688 214.171875 909 C 178.65625 948.265625 165.902344 996.234375 146.398438 1044 C 139.625 1060.578125 124.6875 1076.074219 122 1094 C 134.835938 1090.222656 142.964844 1077.0625 152 1068 C 152 1085.722656 149.261719 1103.210938 150 1121 C 150.804688 1138.515625 155 1156.0625 159.371094 1173 C 161.960938 1183.34375 163.523438 1201.644531 174 1207 C 174 1191.605469 176.871094 1176.355469 177 1161 L 178 1161 C 178 1194.425781 183 1242 209 1266 C 223.597656 1279.464844 248.292969 1288 267 1294 C 263.300781 1286.25 253.609375 1283.53125 247 1278.621094 C 234.820313 1269.574219 223.992188 1258.742188 215.695313 1246 C 194.851563 1214 191.449219 1175.050781 188.910156 1138 C 187.488281 1117.230469 182.285156 1097 185.300781 1076 C 186.832031 1065.390625 192.167969 1056 196 1046 C 187.683594 1050 182.671875 1059.054688 178.757813 1067 C 168.878906 1087.050781 167 1110.015625 167 1132 L 166 1132 C 164.640625 1100.457031 156.238281 1061.699219 174.964844 1033 C 181 1023.570313 191.503906 1018.640625 200 1011.738281 C 213.898438 1000.453125 230.828125 981.578125 236 964 C 221.421875 971.445313 210 988.121094 197 998.339844 C 187.578125 1005.71875 173.660156 1012.117188 168 1023 L 167 1023 C 180 991.621094 205.679688 975.695313 231 955.550781 C 243.765625 945.394531 254 933.089844 266 922.171875 C 274.566406 914.328125 282.71875 906.152344 291 898.003906 C 293.28125 895.757813 297 891 300.605469 893.546875 C 305.917969 897.433594 307 910 308 916 C 314 951.421875 277.359375 972.761719 264 1001 C 273.613281 997.8125 280.796875 988.359375 287.285156 981 C 296.445313 970.613281 306.210938 960.789063 316 951 C 316 978.078125 313.304688 1005.011719 299.574219 1029 C 292 1042.0625 278.347656 1052 273 1066 C 305.585938 1052.433594 326.796875 1026.226563 332 991 L 333 991 C 335.703125 1012.273438 339.90625 1036.523438 358 1050.472656 C 368.503906 1058.566406 386.464844 1054.136719 392.671875 1067 C 397.390625 1076.773438 398.789063 1087.671875 401.710938 1098 C 406.425781 1114.667969 412.371094 1131 418.800781 1147 C 422.683594 1156.703125 425.796875 1171.199219 436 1176 C 432.402344 1162.09375 432 1146.308594 432 1132 L 433 1132 C 437.683594 1166.785156 459 1188.382813 477.972656 1216 C 491.949219 1236.464844 502.632813 1260.210938 509.421875 1284 C 512.902344 1296.199219 514.757813 1308.464844 516.425781 1321 C 516.589844 1322.25 517.699219 1335.734375 519.453125 1332.339844 C 521.226563 1329 519.335938 1323.601563 519 1320 C 518.519531 1311.671875 518.699219 1303.332031 518 1295 C 515.996094 1266.429688 508.363281 1239.222656 494.691406 1214 C 483.175781 1192.761719 467.410156 1174.0625 457.308594 1152 C 442 1118.828125 443.976563 1086.105469 444 1051 L 442 1051 C 439.925781 1066.414063 437 1080.292969 437 1096 L 436 1096 C 434.726563 1087.378906 429.515625 1070 422 1065 C 422 1081.597656 420 1102 424 1118 L 423 1118 C 408.375 1086.664063 407 1054.101563 407 1020 C 401 1025.429688 402 1033.597656 402 1041 L 401 1041 C 399.363281 1030.125 390.6875 1021.203125 385.207031 1012 C 381.976563 1006.578125 380 1001 375 997 C 375 1012.515625 382 1025.382813 386 1040 C 350.828125 1031.644531 342.671875 983.617188 351 954 C 346.777344 955.46875 342.285156 965 339.203125 965 C 335 965 330.785156 947.371094 330.300781 944 C 328.589844 932.132813 335.433594 922.632813 339.304688 912 C 342.945313 902 343 892.492188 343 882 L 342 882 C 336.914063 890.308594 332.453125 899 327 907 C 319.527344 878.132813 326 853.742188 338.308594 827 C 343 816.527344 350.328125 806.253906 353 795 C 347.429688 798.382813 343.945313 805.800781 340 811 C 332 822 321.84375 832.699219 316 845 L 315 845 C 332.957031 806.539063 356.375 770.308594 387 741 C 391.699219 766.308594 377.746094 785.253906 370 808 C 382.300781 804.648438 394.59375 786.796875 398 775 L 399 775 C 396.734375 786.675781 389 797.34375 388 809 C 405.902344 799.019531 409 781 409 762 L 410 762 C 418.613281 782.714844 413.738281 797.707031 412 819 C 417.234375 815.3125 421.570313 810.621094 424.6875 805 C 432.679688 790.578125 434.28125 772.742188 429.253906 757 C 421.507813 732.738281 402 706.621094 422 682 C 422.960938 687 423.441406 692.152344 428 695 C 427.890625 682 427.496094 670.0625 430.425781 657 C 433.394531 643.757813 438.96875 631.746094 439.910156 618 C 442.800781 575.808594 430.183594 529 452.425781 490 C 461.71875 473.757813 475.347656 460 491 449.695313 C 502.175781 442.417969 518 436.808594 524 424 C 507.753906 429.195313 491.554688 434.234375 475 438.371094 C 470.59375 439.476563 461.632813 443.769531 457.433594 441 C 453 438.121094 454 429.414063 453.574219 425 C 451.328125 408 453.269531 392 454 375 L 453 375 C 447.71875 384.292969 444.464844 397.324219 444 408 L 443 408 C 442.207031 401.742188 442.265625 393.449219 439 388 C 436 398 437 411.578125 437 422 L 436 422 C 435 416.429688 433 410 428 407 C 428 444.289063 410.324219 475.089844 403.199219 511 C 401.589844 519.105469 400.363281 527.726563 401.171875 536 C 401.296875 537.300781 401.847656 545.03125 404.550781 543.652344 C 408 542 409.714844 526 410.574219 522 C 414.585938 504 417.527344 485.425781 430 471 C 429.679688 486.597656 423.222656 501.796875 420.199219 517 C 416 538 415 558.789063 415 580 C 410.25 580.597656 412 589.125 412 593 C 411.90625 606.242188 409.523438 620.046875 406.796875 633 C 395.847656 685 368.179688 722.5 329 757 C 333.609375 745.113281 340 733.453125 343 721 C 339.300781 723.730469 336.972656 727 335 731 L 334 731 C 338.808594 718.605469 345.71875 706.625 346 693 C 343.835938 694.402344 343 695.644531 342 698 L 341 698 C 342.8125 691.609375 345.46875 684.746094 344.824219 678 C 344 670.34375 339.488281 663.8125 342 656 C 345.703125 645.253906 354.335938 636.65625 359.988281 627 C 368.488281 612.480469 374.597656 596.476563 378 580 C 370.296875 583.679688 368.171875 593.136719 363.933594 600 C 354.34375 615.542969 336.542969 630 332 648 L 331 648 C 333.8125 633 330.667969 616.816406 334.476563 602 C 337.203125 591.398438 344.433594 583.652344 349 574 C 316 580 325.625 622.726563 322.816406 645 C 322.257813 649.402344 319.832031 653.058594 318 657 L 317 657 C 317.839844 637.460938 309.484375 621.75 312.285156 602 C 314.382813 587.207031 319.453125 572.277344 326.257813 559 C 330.1875 551.339844 336.394531 544.175781 339 536 C 327.703125 541 319 554 317 566 L 316 566 L 317 554 C 293.53125 571 296.945313 609.410156 298 634 L 297 634 C 293.820313 615.527344 284.503906 601.609375 287.285156 582 C 291.894531 549.503906 313.976563 521.421875 314 488 C 306.8125 493.269531 304.367188 508.140625 300.21875 516 C 288.898438 537.445313 265 556.597656 263 582 L 262 582 C 262.746094 573 266.601563 564.238281 267 555 L 268 555 L 268 558 L 269 558 C 277 527 286.945313 496.070313 291 464 C 285.691406 467.507813 284.285156 476.183594 282.574219 482 C 278.984375 494.21875 271.34375 504.773438 268 517 L 267 517 C 266.910156 506 264.285156 495.027344 264 484 C 263.523438 464 268.292969 444 277.269531 426 C 281.863281 416.8125 287.949219 408.414063 295 401 C 301 394.625 309.703125 388 312 379 C 303.628906 383 297.433594 389.492188 291 396 C 273 414.207031 251.3125 443.496094 249 470 L 248 470 C 248 440.550781 264 416.613281 264 387 L 262 387 C 261.949219 405 251.964844 420.410156 239.828125 433 C 231 442 219.992188 449.71875 218 463 L 217 463 C 218.300781 432.734375 237.453125 397.671875 263 381.4375 C 283.378906 368.484375 305.976563 364.394531 325 348 C 338.316406 336.523438 348 322.488281 356.21875 307 C 359 301.644531 363.476563 294.070313 361 288 M 1059 289 C 1065.996094 311 1094.988281 313.171875 1101 334 C 1077 322.683594 1054 312.398438 1031 332.617188 C 1026.65625 336.523438 1022.804688 341.355469 1021 347 C 1031.308594 342.40625 1038.710938 333.214844 1050 330.160156 C 1061.996094 327 1069.542969 331.792969 1080 336.675781 C 1084.535156 338.792969 1090.335938 339.742188 1093.398438 344.105469 C 1097.585938 350.074219 1096.980469 362.785156 1098.882813 370 C 1103.359375 387 1110.8125 404.585938 1122.300781 418 C 1140.351563 439.082031 1169 441 1185 465 L 1186 465 C 1184.976563 442.585938 1160.355469 433.78125 1145 422.101563 C 1128.304688 409.398438 1114.738281 388.476563 1110 368 L 1111 368 C 1115.460938 383.484375 1130.410156 401.515625 1147 404 C 1142 395.417969 1134.695313 388.542969 1129.605469 380 C 1119.761719 363.492188 1114.527344 345.730469 1111 327 C 1123.945313 334.207031 1133.863281 350 1147 355 C 1134.398438 324.730469 1110.179688 319.386719 1084 305.738281 C 1075 301.082031 1068.460938 292.585938 1059 289 M 612 301 C 614.308594 309.132813 621.6875 323.589844 616.820313 331.785156 C 614.324219 336 608.265625 336.308594 604 337.375 C 594.683594 339.707031 574.996094 343.199219 570 352 C 584.832031 352 609.648438 351 621.894531 341.351563 C 634.484375 331.582031 623.777344 306.507813 612 301 M 438 310 C 437.453125 311.636719 437.636719 311.453125 436 312 C 436.546875 310.363281 436.363281 310.546875 438 310 M 385 502 L 386 502 C 406.253906 456.3125 422.527344 408.65625 442.859375 363 C 450 346.828125 466 333.671875 471 317 C 454.601563 320.171875 443.652344 340.140625 437.308594 354 C 424 383 416 414.296875 404.949219 444 C 398 462.519531 386.628906 482.039063 385 502 M 777 400 L 778 400 C 777.992188 387.527344 774.320313 375.410156 774 363 C 773.703125 350.371094 777 338.542969 777 326 C 771.375 329.6875 769.972656 338.75 768.921875 345 C 765.984375 362.429688 770.820313 383.617188 777 400 M 1220 341 C 1223.425781 364.199219 1242 384 1256.574219 401 C 1262.851563 408.367188 1268.933594 418 1278 422 C 1270.394531 402 1250.800781 385.023438 1239.21875 367 C 1233.800781 358.570313 1228.953125 346.144531 1220 341 M 647 344 C 643.328125 349.214844 643 358.71875 637.867188 362.382813 C 634.382813 364.8125 629.730469 362.765625 626 362.003906 C 616.863281 360.140625 607.320313 358.398438 598 358 C 601.679688 364.390625 612.363281 367.824219 618 373 C 595.382813 375 578.339844 385.355469 560 397.304688 C 551 403.085938 540.4375 408.234375 537 419 L 544 417 C 541.871094 419.277344 540.300781 421.179688 539 424 C 546.351563 424.585938 552.796875 428 560 429 L 560 430 C 557.558594 430 555.378906 429.570313 553 429 C 555.464844 433.328125 560.507813 434.773438 565 436.550781 C 585.964844 445 600.625 431.335938 621 430.09375 C 637.601563 429.082031 638 444 631.546875 455 C 628.289063 460.507813 624 465.445313 621 471 C 645.96875 467.257813 651.503906 437.359375 655.601563 417 C 657 409.464844 659.808594 401.769531 658.699219 394 C 657.261719 384 652.445313 374.742188 649.746094 365 C 647.882813 358.273438 649.609375 350.214844 647 344 M 536 375 C 544 370.542969 550.878906 366.769531 560 365 L 560 366 C 555.746094 367.648438 552.972656 370 551 374 C 558.804688 371.359375 567 368.421875 570 360 L 556 359 L 556 358 C 559.90625 357 562.953125 355.601563 565 352 C 552.890625 355.4375 540 362.140625 536 375 M 1173 358 L 1172 359 L 1173 358 M 1108.667969 362.667969 C 1108.722656 362.722656 1108.777344 363.777344 1108.332031 363.332031 C 1108.277344 363.277344 1108.222656 362.222656 1108.667969 362.667969 M 1137 362 C 1138 372.332031 1146.4375 380.359375 1152.75 388 C 1164.8125 402.601563 1176.785156 417.308594 1188.738281 432 C 1194.683594 439.308594 1200.265625 450 1209 454 C 1205.664063 445.371094 1197.707031 438.195313 1192 431 C 1180.90625 417.007813 1169.65625 402.8125 1159.671875 388 C 1153.585938 379 1147.65625 366.132813 1137 362 M 1110 365 L 1110 368 L 1109 368 C 1109.25 366.546875 1109.316406 366.25 1110 365 M 241 369 C 239.449219 371.136719 238 372.449219 236 374 C 237.550781 372 238.863281 370.550781 241 369 M 551 381 C 559.175781 378 568.199219 376 576 372 C 568.929688 366.671875 554.371094 374 551 381 M 533 406 C 540.652344 402.195313 551.386719 392.753906 555 385 C 544.5 388.574219 536.175781 395.003906 533 406 M 680 387 C 671.441406 401.660156 662.25 419 657 435 L 660 435 L 660 436 C 654.199219 441.515625 649.171875 448.648438 646 456 C 666.28125 452.074219 669.789063 424 675.34375 408 C 677.453125 402 682.5 393.40625 680 387 M 606 391.476563 C 612.929688 389.824219 614.339844 399.640625 607.960938 401.027344 C 601.984375 402.332031 600.273438 393 606 391.476563 M 539 410 C 546.230469 405.628906 554 401 559 394 C 549.851563 394.824219 541.886719 401.289063 539 410 M 907 400.621094 C 913.476563 398.175781 917.804688 408.101563 910.941406 410.148438 C 905.210938 412 901.390625 403 907 400.621094 M 1187 401 C 1187 419 1201.402344 440.003906 1215 451 C 1213.71875 438.488281 1202.542969 425.058594 1196.746094 414 C 1194.222656 409.191406 1191.949219 403.570313 1187 401 M 586 404 C 600.917969 418.234375 609.996094 412.121094 626 405 C 621.566406 418 610 422.316406 597 419.683594 C 590.261719 418.324219 581 411.414063 586 404 M 966 404 L 965 405 L 966 404 M 957 409 L 954 408 C 955.765625 407.597656 955.558594 407.710938 957 409 M 892 411 C 905.601563 424.5625 914.460938 423 931 416 C 927.9375 428.734375 914.59375 432.597656 903 428.449219 C 895.96875 426 888.683594 419 892 411 M 855 413 C 855.554688 426 859.277344 438.40625 872 444 C 869.628906 435.324219 863.226563 417.109375 855 413 M 545 416 L 544 417 L 545 416 M 1329 419 C 1327.363281 418.453125 1327.546875 418.636719 1327 417 C 1328.636719 417.546875 1328.453125 417.363281 1329 419 M 663 432 C 661.894531 433.457031 661.457031 434 660 435 C 661 433.542969 661.542969 433.101563 663 432 M 863 443 C 863 455.46875 866.761719 464.578125 878 471 C 877.519531 461.609375 871.824219 447.214844 863 443 M 1337 444 L 1336 445 L 1337 444 M 372 447 C 362.785156 460.542969 348.644531 467.613281 338.324219 480 C 326.910156 493.699219 322.203125 511.667969 320 529 C 325.453125 525 327.320313 512.210938 330.871094 506 C 339.746094 490.480469 353.238281 480.1875 364.710938 467 C 369.367188 461.644531 375 454.402344 372 447 M 529 461 L 545 455 L 545 456 C 542.558594 457.367188 541.257813 458.503906 540 461 L 551 460 C 550 461.746094 549.546875 463.125 549 465 C 554.382813 463.179688 559.429688 464.761719 565 463 C 561.605469 467.25 561 470.664063 561 476 C 563 475.121094 564.230469 474.347656 566 473 C 567.597656 482.726563 572.769531 471.429688 573 467 L 568 470 C 568.863281 466.234375 569.261719 463.777344 565 463 L 565 462 C 568.847656 460 560.964844 457.742188 559 457 C 560.1875 455.8125 560.527344 455.414063 561 454 C 557.648438 453.011719 554.484375 453.003906 551 453 L 551 452 C 553.203125 452 554.894531 451.644531 557 451 C 547.195313 443.707031 534.21875 452 529 461 M 233 452 L 232 453 L 233 452 M 656 452 C 650.25 457.75 643.941406 463.238281 641 471 C 648.640625 468.492188 659.808594 461.777344 656 452 M 980 453 C 980 457.800781 979.449219 462.339844 984 465 C 983.792969 460.46875 982.878906 456.566406 980 453 M 1121 455 L 1120 456 L 1121 455 M 1209.5 455.5 C 1208.871094 456.128906 1209.871094 457.128906 1210.5 456.5 C 1211 456 1210 455 1209.5 455.5 M 970 461 C 969.488281 465.035156 969 469 969 473 C 973 470.386719 972 465.386719 972 461 L 970 461 M 1337 465 L 1336 466 L 1337 465 M 959 467 L 957 480 C 961 476.339844 960.996094 472.246094 961 467 L 959 467 M 871 469 C 872.253906 473.421875 874.691406 475.53125 879 477 C 877.179688 473.132813 874.78125 471 871 469 M 568 470 C 567.316406 471.582031 567.195313 471.777344 566 473 C 566.683594 471.421875 566.804688 471.222656 568 470 M 582 503 L 583 503 C 586.984375 492.589844 591 481.171875 592 470 C 580.910156 475.75 582 492.425781 582 503 M 576 492 L 577 492 L 578 471 C 570.726563 475.539063 573.484375 485.296875 576 492 M 936 507 L 935 507 C 935 501.5625 935.320313 496.386719 936 491 C 927.28125 497.605469 928.566406 523.832031 932 533 C 944.472656 515 953.984375 497.4375 954 474 C 946.902344 479 938.40625 498.648438 936 507 M 870 476 C 873.222656 493.097656 881.480469 507.820313 889.691406 523 C 900.214844 542.457031 910.441406 562.113281 922 581 C 925 573.046875 915.839844 562.707031 912.320313 556 C 902.296875 537 893.695313 516.617188 884.691406 497 C 881.367188 489.757813 878.386719 478.40625 870 476 M 881 479 C 883.398438 489.359375 887.644531 499.828125 893 509 L 894 509 C 893 498.769531 889.363281 485.460938 881 479 M 1274 482 L 1275 486 L 1274 486 C 1273.691406 484.242188 1273.59375 483.660156 1274 482 M 868 505 C 860.257813 522.492188 863.960938 544.203125 874 560 C 878.726563 567.230469 885.949219 572.5 890 580 C 896.511719 591.609375 897.84375 606.195313 900.398438 619 C 902.609375 630.0625 905.441406 641 907.789063 652 C 909 658 909.308594 664 914 668 C 914 647 921.460938 626.03125 915.84375 605 C 908.765625 578.476563 886.183594 560.03125 874.246094 536 C 871.554688 530.578125 869.488281 525.101563 869 519 C 868.773438 514.148438 870.84375 509.234375 868 505 M 920 523 C 922.558594 533.722656 926.519531 546.003906 927 557 L 929 557 C 929 547.3125 932 526.707031 920 523 M 765 550 C 770.535156 546.613281 772.488281 539.234375 771.894531 533 C 771.699219 531 770 523.816406 766.5625 525.347656 C 764.5625 526.238281 765.515625 529.484375 765.867188 531 C 767.429688 537.726563 766.296875 543.324219 765 550 M 564 593 C 580.746094 582.4375 583.535156 561.441406 591.808594 545 C 595.488281 537.6875 602 533 606 526 C 581.957031 526.203125 581.460938 555.03125 574.546875 572 C 571.570313 579.308594 566.203125 585.367188 564 593 M 760 542 C 764.761719 530.628906 749 523.003906 756.855469 537 C 757.8125 538.710938 758.910156 540.347656 760 542 M 797 537 C 792.582031 544.558594 788.402344 551 782 557 C 776 562.671875 768.183594 567.601563 766 576 C 777.605469 574.5 788 571 800 571 L 800 572 C 796 572.707031 793.589844 574 791 577 C 798.609375 576.671875 806.621094 574.503906 814 577.480469 C 830.464844 584.132813 838.351563 598 858 598 L 858 597 C 842 589.464844 830 575.785156 814 569 C 810.386719 567.320313 795.863281 565.742188 794.417969 562.410156 C 793.390625 560.039063 796 556.234375 796.777344 554 C 798.328125 549.007813 799 542 797 537 M 767 559 C 780.417969 552.6875 768.3125 544.550781 767 559 M 768 563 C 771.804688 562 774 560.558594 776 557 C 772.195313 558.132813 769.851563 559.441406 768 563 M 1256 560 L 1256 563 L 1255 563 C 1255.25 561.546875 1255.316406 561.246094 1256 560 M 716 572 L 725 571 L 725 572 C 716 573.335938 707.605469 579.070313 702 586 L 709 585 L 709 586 C 707.6875 586.769531 707.769531 586.6875 707 588 C 718.933594 586.210938 736.183594 580.074219 747 574.511719 C 749.671875 573.136719 757.710938 570.171875 757 566.234375 C 756.4375 562.226563 748.769531 563.003906 746 563 C 737 563 721.449219 563.683594 716 572 M 738 569 L 738 570 L 733 570 C 734.769531 569.222656 736 569.089844 738 569 M 731 570 L 731 571 L 727 571 C 728.507813 570.316406 729.316406 570.175781 731 570 M 262 582 L 261 606 L 260 606 C 260 598.351563 258.609375 589.058594 262 582 M 712 583 C 710.777344 584.195313 710.578125 584.316406 709 585 C 710 584 710.613281 583.691406 712 583 M 943 589 C 946.523438 607.28125 967.433594 621.640625 977 637 L 978 637 C 977 619.726563 957.359375 597.003906 943 589 M 538 696 C 535 722.195313 552.691406 747.621094 559.570313 772 C 571.574219 814.539063 566.3125 862.289063 588.3125 902 C 592.910156 910.300781 603 920.128906 612.960938 913.296875 C 616.175781 911.0625 618.277344 905.402344 622 904.34375 C 625.371094 903.4375 628 907.285156 631 908.238281 C 638 910.574219 640.539063 902.246094 641 897 C 650.691406 907.523438 634 915.488281 625 919.691406 C 622.898438 920.664063 613.726563 923.523438 616.753906 927.273438 C 623.730469 936 644.6875 923.734375 653.984375 927.707031 C 660.976563 930.695313 659.285156 939 664.226563 943.472656 C 670.523438 949.367188 680 950.242188 686.960938 955.222656 C 694.46875 960.617188 698.308594 969.335938 703 977 C 677.488281 973.703125 671.839844 950.21875 652 938.148438 C 646.964844 935.085938 636.878906 934.714844 637.4375 943 C 637.792969 948.261719 642 953 645 957 C 629.6875 954.027344 624.535156 943.667969 612 936.226563 C 604.652344 932 596.3125 932.472656 590.789063 925 C 585.308594 917.554688 583.746094 908.117188 579.628906 900 C 576 893.15625 570.183594 888 566.910156 881 C 564.4375 875.777344 563.898438 869.765625 560.363281 865.039063 C 552.320313 854.289063 527 845.269531 514 845 C 520.710938 861 538 874.0625 550 886 C 543.710938 882.652344 538 878.667969 531 877 C 534.304688 889.082031 542.386719 900 549.578125 910 C 562.996094 928.773438 576.9375 952 598 962.742188 C 619 973.621094 642.679688 976.078125 665 983.195313 C 681.359375 988.410156 695.980469 996.699219 713 1000 C 705.351563 1010.753906 706 1022.511719 706.910156 1035 C 708.8125 1062.601563 713.234375 1094 723 1120 L 724 1120 C 723.714844 1106.238281 719 1092.773438 718 1079 C 715.722656 1044.421875 727 1008.546875 762 995.425781 C 770.859375 992.089844 780.554688 990.40625 790 990 L 790 991 C 774 994.785156 760.222656 1007.058594 754 1022 C 770.550781 1014.625 783 994 804 998.519531 C 821.179688 1002.246094 826.722656 1025 846 1022.824219 C 863.660156 1021 879 1006 891 994 C 900.203125 985 913.714844 977.226563 921.363281 967 C 926.878906 959.558594 926.296875 949.460938 929 941 C 932.824219 929.675781 940.234375 919.648438 943 908 C 931 915.042969 925.980469 932 918.867188 943 C 911.664063 954.222656 897.699219 953.746094 888 961.527344 C 879.964844 968.035156 877.238281 978.742188 869.960938 986 C 856.992188 998.808594 825 1002.777344 814.660156 984 C 811.527344 978.339844 820.691406 974.191406 823.894531 971 C 829.832031 964.832031 831.949219 954.421875 839 949.605469 C 845.609375 945.214844 852.703125 952 857.910156 943 C 862.660156 935 850.828125 923.367188 858 920.058594 C 862.339844 918.148438 867 931.292969 869.328125 934 C 876.542969 942.503906 888 946.484375 899 943.648438 C 912.640625 940.085938 918.191406 925.449219 920.539063 913 C 926.746094 880.085938 928.539063 847.15625 939 815 L 942 822 L 943 822 L 943 781 L 944 781 C 946.957031 788.796875 953.214844 797.179688 960 802 C 960 777.324219 958 753.035156 952 729 C 951 724.660156 947.945313 707.207031 942 707.207031 C 936.925781 707.207031 935 723.261719 934 727 C 927.964844 748.121094 922.4375 769.484375 918 791 C 923.710938 787.335938 925.730469 779.195313 930 774 C 929.777344 785 926.316406 795.601563 923.425781 806 C 917.722656 826.507813 913.578125 848.695313 895 861.789063 C 881 871.644531 862.285156 878.273438 847 867.558594 C 827.199219 853.683594 822 829.402344 806.699219 812.015625 C 798.234375 802.429688 784.992188 802 776.527344 791 C 770.351563 783 767.492188 772.671875 771 763 C 779.214844 741.1875 808.992188 746.757813 824.996094 735.210938 C 832.167969 730.035156 835.464844 721.496094 841.183594 715 C 847.890625 707.378906 857.460938 702 862.636719 693 C 870.496094 679.460938 869.9375 649 863 635 C 859.183594 627.351563 852.484375 621.5 847 615 C 841.640625 608.457031 836.507813 600.722656 829 596.363281 C 811.996094 586.496094 792 593.78125 774 594 C 745.78125 594.332031 714.628906 592 689 606.3125 C 682 610.253906 678 620 675.199219 627 C 666.5625 648.417969 666.765625 672 676.3125 693 C 682.578125 707 692.851563 722.371094 706 730.53125 C 724.976563 742.308594 759.363281 744.316406 756.671875 775 C 754.371094 801.222656 724 801.683594 708 814.390625 C 684 833.332031 665.710938 883.496094 627 861.125 C 620.945313 857.625 615.910156 853 611 848 C 604.664063 841.644531 599.492188 834.644531 594.8125 827 C 580.765625 804.070313 577.925781 779 569.972656 754 C 565.9375 741.320313 556.769531 731.398438 550.285156 720 C 545.964844 712.398438 543.542969 702.714844 538 696 M 494 617 C 503.363281 614.78125 523.410156 609 528 600 C 518.390625 603.132813 499.699219 608.300781 494 617 M 516 610 C 501.667969 618.375 489.765625 629.457031 485 646 C 493.832031 639.78125 503.695313 630.386719 510.53125 622 C 513.214844 618.707031 516.730469 614.386719 516 610 M 840 657 C 824.882813 652.214844 809.632813 638 793 647 C 767.699219 660.546875 785 699.210938 810 700.785156 C 824.230469 701.6875 830.6875 685.65625 843 682 C 837 702.324219 811.355469 727 790 730 L 790 729 C 794.472656 726.609375 811 718.035156 810.230469 712.070313 C 809.617188 707.664063 801.214844 706.742188 798 705.179688 C 789.578125 701.085938 780.96875 694.160156 776.222656 686 C 772.4375 679.503906 772.425781 671.28125 773.285156 664 C 773.691406 660.546875 775.34375 654.402344 772.257813 651.660156 C 768 648 765.222656 656.140625 765 659 C 764.175781 673 765.878906 685.054688 763 699 L 762 699 C 762 686.140625 766.363281 673.574219 761.53125 661 C 760.511719 658.34375 754.945313 646 750.914063 651.296875 C 748.738281 654.246094 751 659 751.976563 662 C 753.851563 668.148438 755.195313 675.660156 753.363281 682 C 749.695313 694.691406 724.445313 699.785156 725.632813 713 C 726 717.253906 729.976563 721.367188 732 725 C 714.3125 720 694.667969 702.382813 689 685 C 703.578125 695 717 701 734 690.53125 C 752.996094 678.800781 752.175781 650.476563 729 644.160156 C 723.210938 642.582031 714.933594 643.121094 710.269531 647.378906 C 707.449219 650 708.644531 655 703.941406 655 C 696.578125 654.71875 693.726563 647.738281 697.652344 642 C 710.480469 623.261719 743.707031 622.589844 763 629.546875 C 769.535156 632 775 638 782 639.101563 C 788.824219 640.335938 794.628906 632.339844 801 630.710938 C 818.320313 626.277344 835.558594 641.679688 840 657 M 507 631 C 491.378906 640.257813 478.808594 659.429688 478 678 L 479 678 C 482.703125 666.644531 488.535156 656.121094 496.300781 647 C 499.84375 643 507.796875 637 507 631 M 489 686 C 497.863281 678.402344 499.238281 664.246094 506.285156 655 C 507.46875 653.445313 513 647.433594 509.394531 645.660156 C 505.652344 643.824219 502.21875 650.652344 500.871094 653 C 495.246094 662.816406 490.515625 674.75 489 686 M 1012 646 C 1013.335938 655.046875 1017.894531 664 1027 667 C 1024.300781 659.589844 1019 649.816406 1012 646 M 1113.667969 649.667969 C 1113.722656 649.722656 1113.777344 650.777344 1113.332031 650.332031 C 1113.277344 650.277344 1113.222656 649.222656 1113.667969 649.667969 M 1006 665 C 1011.738281 678.066406 1024.851563 686.066406 1033.550781 697 C 1037.820313 702.367188 1041 710.410156 1047 714 C 1046 706.742188 1042.722656 700.210938 1038.9375 694 C 1037.316406 691.34375 1034.425781 688.480469 1037 686 C 1034.183594 678 1028.851563 669.105469 1020 667 L 1024 675 C 1018 671.140625 1012.9375 666.75 1006 665 M 1026 677 C 1024.363281 676.453125 1024.546875 676.636719 1024 675 C 1025.636719 675.546875 1025.453125 675.363281 1026 677 M 1028 679 C 1030.207031 681.253906 1032.191406 683.425781 1034 686 C 1031.285156 684.070313 1028.796875 682.285156 1028 679 M 1010 685 C 1010 699.820313 1009.824219 720 1014 734 L 1015 734 L 1016 707 L 1017 707 C 1019.378906 723.117188 1027.390625 742.09375 1034 757 L 1035 757 C 1033.601563 740 1027.84375 721.074219 1021.945313 705 C 1019.269531 697.699219 1016.398438 689.753906 1010 685 M 502 692 C 494.617188 699.527344 497.921875 708.585938 498 718 L 500 718 C 500 710.226563 504.199219 699.171875 502 692 M 340.667969 698.667969 C 340.722656 698.722656 340.777344 699.777344 340.332031 699.332031 C 340.277344 699.277344 340.222656 698.222656 340.667969 698.667969 M 340 701 L 339 702 L 340 701 M 513 714 C 512.210938 720.261719 509.261719 732.632813 515 737 C 515 729.136719 515.621094 722 515 714 L 513 714 M 789 730 L 788 731 L 789 730 M 334 731 C 333.316406 732.578125 333.195313 732.777344 332 734 C 332.691406 732.609375 332.984375 732.140625 334 731 M 1013 736 L 1013 742 L 1014 742 C 1013.953125 739.746094 1013.875 738.050781 1013 736 M 527 737 C 522.605469 748.734375 524.484375 768 537 774 C 533.496094 763.621094 532.824219 745.523438 527 737 M 1006 737 C 1003.773438 748.484375 998.691406 759.53125 997 771 L 996 771 L 996 758 L 995 758 C 992.699219 765.269531 991 773.363281 991 781 L 990 781 L 990 769 L 989 769 C 984.714844 781.554688 977.773438 794.832031 976 808 C 990.410156 798 1001.40625 773 1005.207031 756 C 1006.554688 750.003906 1009.359375 742.644531 1006 737 M 297 745 L 296 746 L 297 745 M 470 764 C 464.839844 782.175781 453 796.382813 453 816 L 454 816 C 461.523438 804.632813 467.558594 792.453125 470.195313 779 C 471.171875 774.03125 473 768.4375 470 764 M 448 847 C 457 841.214844 467.425781 820.515625 469 810 L 470 810 C 470 837.253906 450 854.066406 442 879 C 446 876.597656 447.898438 871.765625 450.640625 868 C 456.636719 859.765625 464 852 467 842 L 468 842 C 466.429688 861.753906 452.382813 877.550781 439 891 C 432 898.015625 422.644531 905.59375 419 915 C 427.683594 911.203125 434.886719 904.253906 442 898.128906 C 468.175781 875.59375 480 854.578125 480 820 C 480 811.28125 480.207031 802.660156 479 794 C 478.878906 791.730469 479 786.566406 476.511719 785.347656 C 474 784.125 468.253906 797.066406 467 799 C 458.464844 814.230469 451.351563 829.722656 448 847 M 304 799 L 303 800 L 304 799 M 1118 813 L 1117 814 L 1118 813 M 758 901 L 757 901 C 755.671875 899.246094 754.753906 898.328125 753 897 C 754.96875 908.429688 755.5 917.320313 755 929 C 759.867188 921.160156 760 912 761.4375 903 C 763.859375 888 767.207031 873 770.199219 858 C 771.335938 852.316406 771.539063 836.488281 776.515625 833.03125 C 781 830 788.390625 835.089844 792 837.519531 C 804.425781 846 812 859 823 868.824219 C 830.601563 875.769531 842.40625 880 846.515625 890 C 854.929688 910.578125 834.40625 934 824.425781 950 C 820.246094 956.707031 816.785156 964.417969 810.960938 970 C 801.484375 978.789063 786.621094 974.003906 775 974 C 755.984375 974 733.621094 976.339844 717 965.085938 C 700.664063 954.023438 693.207031 933 684.753906 916 C 680.421875 907.3125 676.566406 898.511719 671.859375 890 C 669.761719 886.203125 667 881.476563 668.605469 877 C 671.46875 869 682.191406 864 689 859.796875 C 705.433594 849.8125 719.316406 834.386719 739 831 C 743.675781 830.101563 760.71875 825.527344 763.972656 829.605469 C 767 833.554688 764.285156 843.402344 763.914063 848 C 762.496094 865.65625 758.367188 883.285156 758 901 M 305 839 C 298.828125 865.65625 275 893.582031 248 900 L 248 899 C 258.347656 891.203125 270 883.808594 278.710938 874 C 288.242188 863.0625 294.660156 849.140625 305 839 M 315 845 C 314.191406 847.222656 313.261719 849 312 851 L 311 851 C 312 848.65625 313.222656 847 315 845 M 311 852 L 310 853 L 311 852 M 310 854 L 309 855 L 310 854 M 300 871 L 299 872 L 300 871 M 299 873 L 298 874 L 299 873 M 770 895 C 776.355469 892.816406 777.863281 888.332031 778 882 C 773 884.660156 771.40625 890 770 895 M 552 888 C 550.363281 887.453125 550.546875 887.636719 550 886 C 551.636719 886.546875 551.453125 886.363281 552 888 M 775 895 C 763.925781 918.398438 763 944.539063 763 970 C 779.285156 962.222656 767.796875 931.597656 771.234375 917 C 772.828125 910.234375 777.863281 902 775 895 M 459 904 C 452 911 444.449219 917.511719 436 922.546875 C 430 926.070313 422.3125 927.523438 419 934 C 431.851563 931.339844 442.695313 926.382813 451.996094 917 C 455.390625 913.574219 460.425781 909.21875 459 904 M 528 906 C 523 920.503906 516.632813 931.445313 505 941.824219 C 497 948.824219 487.222656 952.191406 479 958.527344 C 466.246094 968.359375 456.625 983.335938 453 999 C 461.359375 994.085938 467 982 474 975 C 489.597656 959.246094 511.613281 950.046875 522.6875 930 C 526.433594 923.222656 531.257813 913.757813 528 906 M 1085 934 C 1083.277344 926.75 1079.382813 920.234375 1075.382813 914.003906 C 1074.253906 912.238281 1071.425781 907.464844 1068.644531 909.175781 C 1066 910.773438 1069 915.363281 1070 917 C 1073.765625 923.109375 1078.433594 931 1085 934 M 1042 911 C 1044.289063 928 1058.414063 945.570313 1073 954 C 1071.871094 948.167969 1068 944 1064.863281 939 C 1058.507813 929.15625 1053.195313 916.21875 1042 911 M 262 913 C 246.617188 945.324219 198.632813 947.527344 184 981 C 182.71875 973.289063 193.472656 964.191406 198.171875 959 C 213.894531 941.621094 238.980469 919.644531 262 913 M 993 916 C 994.628906 926.832031 1004.738281 939.054688 1015 943.007813 C 1020.6875 945.195313 1027.210938 943.644531 1031.351563 949.058594 C 1038.386719 958.253906 1037.46875 976.011719 1047 983 C 1045.691406 967 1037.851563 948.453125 1031.761719 934 C 1030.171875 930.226563 1029.390625 921 1025 919.347656 C 1022.417969 918.367188 1022 922.445313 1022.230469 924.003906 C 1022.570313 929.335938 1025.851563 935.171875 1028 940 C 1014 935.269531 1004.90625 924 993 916 M 974 931 C 974.523438 956.304688 997.382813 959 1009.839844 976 C 1015.214844 983.359375 1017.589844 998.105469 1025 1003 C 1024.992188 989.71875 1024 972.09375 1013.816406 962.324219 C 1007.21875 956.066406 997.984375 953.492188 991 947.675781 C 984.890625 942.585938 980.363281 935.683594 974 931 M 446 936 C 438.753906 937.722656 430.738281 941.519531 425 946.378906 C 423.597656 947.613281 419.175781 951.664063 421 954 C 422.9375 956.015625 427.449219 953.054688 429 952.007813 C 434.621094 948.214844 442.929688 942.050781 446 936 M 1092 942 C 1094.820313 956.570313 1111.308594 965 1114 980 L 1116 980 C 1115.863281 963.628906 1107.328125 948.425781 1092 942 M 514 1063 L 515 1063 C 515 1039.015625 514.996094 1014.375 521 991 C 525.382813 975 534.660156 960 538 944 C 531.371094 948.339844 527.707031 960.03125 524.246094 967 C 513.511719 988.628906 513 1011.394531 513 1035 C 513 1044 511.46875 1054.4375 514 1063 M 1125 945 C 1126.390625 959 1133.917969 971.511719 1134.910156 986 C 1136.273438 1006 1130 1025.210938 1130 1045 L 1129 1045 C 1128 1039.335938 1126.234375 1033 1121 1030 C 1120.980469 1062.386719 1109.53125 1097.117188 1093.574219 1125 C 1080.710938 1147.476563 1064.34375 1167.765625 1052.753906 1191 C 1045.863281 1204.808594 1041.421875 1219.414063 1043.285156 1235 C 1043.925781 1240.339844 1044.175781 1246.8125 1049 1250 C 1042.601563 1225.273438 1052.800781 1203.265625 1066.332031 1183 C 1081.804688 1160 1099.246094 1138.402344 1112.859375 1114 C 1118.992188 1103.007813 1125.960938 1089.722656 1127 1077 L 1128 1077 C 1130.929688 1092.730469 1134.6875 1114.394531 1151 1122 C 1147.207031 1102 1147.785156 1082.765625 1153.425781 1063 C 1159.34375 1042.273438 1170 1023.3125 1174.195313 1002 C 1176.824219 988.371094 1180.527344 961 1172 949 C 1164.882813 968 1165 989.535156 1159.277344 1009 C 1154.175781 1026.128906 1142.824219 1044 1142 1062 L 1141 1062 C 1142.316406 1031.355469 1150.4375 1003.546875 1140.972656 973 C 1137.851563 963 1133.769531 951.472656 1125 945 M 956 953 C 956.867188 973.234375 963.496094 994 970 1013 C 972.398438 1020.007813 976.742188 1026.644531 978 1034 C 980.578125 1049 972.242188 1063.625 978 1079 L 979 1079 C 979.625 1064.476563 988.820313 1051.589844 988.820313 1037 C 988.820313 1017.320313 975.492188 999.34375 968 982 C 964.90625 975 961.871094 957.449219 956 953 M 492 1021 L 493 1021 C 494.316406 1015.492188 495.242188 1009.617188 496 1004 L 497 1004 C 495.648438 1021.105469 495 1037.800781 495 1055 C 500.421875 1047.714844 498.363281 1037.480469 499.171875 1029 C 500.738281 1012.507813 503.992188 996 508.722656 980 C 509.992188 975.738281 517.304688 961.578125 513.933594 957.710938 C 510 953.300781 502.207031 967.636719 500.875 970 C 491.933594 986 492 1003.371094 492 1021 M 870 959 C 858.886719 960 851.285156 969 842 974.125 C 840.546875 975 832.246094 977.527344 833.347656 980 C 834.859375 983.03125 842.234375 982.113281 845 982 C 857.632813 981 867 971 870 959 M 1081 963 C 1088.734375 976.570313 1098.5625 987.550781 1105 1002 C 1110.910156 988 1094.644531 965.433594 1081 963 M 978 972 C 981.835938 985.042969 991.882813 995 993.710938 1009 C 997.171875 1035.554688 985 1060.753906 984 1087 C 991 1082.105469 991.429688 1067 993.375 1059 C 999.386719 1034.640625 1011.765625 983.476563 978 972 M 1095 1033 C 1101.945313 1024 1093.890625 1003.441406 1088.449219 995 C 1086.84375 992.503906 1080.679688 983.234375 1076.707031 986.136719 C 1073.503906 988.476563 1080 995.207031 1081.335938 997 C 1088.785156 1007.058594 1094.457031 1020.410156 1095 1033 M 1082 1071 C 1086.660156 1067.449219 1085 1059.191406 1084.425781 1054 C 1082.507813 1039.390625 1083.851563 1024.738281 1074.957031 1012 C 1073 1009.324219 1064.714844 996.441406 1060.710938 998.347656 C 1057.402344 1000 1067.410156 1012.09375 1068.546875 1014 C 1078.808594 1031.214844 1082 1051.265625 1082 1071 M 1035 1003 C 1035.257813 1015.441406 1039.414063 1027.542969 1039.960938 1040 C 1041.28125 1070.117188 1035.898438 1100.308594 1026.972656 1129 C 1015.65625 1165.378906 987.332031 1195.730469 987 1236 L 988 1236 C 1004.410156 1201.371094 1028.730469 1170.035156 1041.945313 1134 C 1050.921875 1109.53125 1053.34375 1082 1050.285156 1056 C 1048.347656 1039.617188 1049.378906 1014.285156 1035 1003 M 749 1105 C 755.898438 1100.699219 756.417969 1089.101563 759.203125 1082 C 767.410156 1061.089844 785.207031 1039.542969 787 1017 C 780 1020.738281 774.9375 1030.429688 770.8125 1037 C 757.296875 1058.507813 753.746094 1080.519531 749 1105 M 166.667969 1023.667969 C 166.722656 1023.722656 166.777344 1024.777344 166.332031 1024.332031 C 166.277344 1024.277344 166.222656 1023.222656 166.667969 1023.667969 M 837 1173 C 836.820313 1151.523438 834.890625 1131 851 1114 C 850.226563 1131.71875 841.871094 1149.34375 839.273438 1167 C 833.960938 1203.050781 836.261719 1237.085938 841.578125 1273 C 843 1283.625 842.984375 1295.796875 846 1306 L 847 1306 C 847 1273.207031 844.664063 1240.703125 848 1208 C 849.988281 1191 852.625 1173.539063 857 1157 C 859.796875 1147.339844 864.765625 1138.046875 865.824219 1128 C 866.753906 1119.207031 863 1110.75 863 1102 C 863 1086 871.882813 1071.144531 871.996094 1055 C 872 1049.484375 871.914063 1041.367188 867 1038 C 871.671875 1075 841.332031 1093.609375 832 1126 L 831 1126 C 828.175781 1107 821.886719 1090.640625 827.429688 1071 C 831 1058 840.640625 1047.804688 845 1035 C 833.492188 1037.226563 825.230469 1050 821 1060 C 809.90625 1086.699219 816.207031 1116.613281 825 1143 C 827.640625 1151 830 1168.210938 837 1173 M 696 1039 C 686.308594 1055.4375 674.433594 1074.492188 673 1094 C 671 1124.289063 691.179688 1152.59375 696.386719 1182 C 700 1202.777344 694 1227.191406 700 1247 C 705 1239 705.847656 1227.226563 707 1218 C 709.273438 1202.585938 710.570313 1185.527344 708.714844 1170 C 707 1156.285156 702 1143 702 1129 C 719 1146.046875 724.996094 1167.226563 725 1191 L 727 1191 C 729.234375 1173.691406 733.269531 1155.703125 725.6875 1139 C 717 1120.109375 698.550781 1107.546875 692.921875 1087 C 691 1080.34375 690 1072.785156 691.761719 1066 C 693.878906 1057.609375 699.648438 1047.695313 696 1039 M 387 1040 L 386 1041 L 387 1040 M 575 1045 C 560.328125 1064.242188 563.800781 1086.59375 566.71875 1109 C 568.898438 1125.734375 571 1142.566406 578.320313 1158 C 584.179688 1170.359375 592.726563 1181.117188 597.574219 1194 C 603.945313 1211 606.378906 1229.28125 609.574219 1247 C 612.816406 1265 615 1283.105469 618.601563 1301 C 620 1308.234375 620 1317 626 1322 C 622.710938 1304.285156 627.707031 1287.550781 628.910156 1270 C 629.5625 1260.507813 627 1251.421875 627 1242 L 628 1242 C 629.660156 1253.070313 636.195313 1262.460938 636.789063 1274 C 638.324219 1303.609375 629.519531 1331 642 1360 L 643 1360 C 642.535156 1337.511719 638.351563 1317.527344 643 1295 L 644 1295 C 646.910156 1305.113281 651.402344 1314.722656 654 1325 C 655.324219 1329.570313 655.910156 1335.203125 660 1338 C 660 1279.007813 635 1227 612.28125 1174 C 607.964844 1164 604 1153.613281 601.375 1143 C 599.941406 1137.269531 600 1130.054688 597 1125 C 592 1135.265625 595.625 1150.109375 597 1161 C 579 1141.378906 566.878906 1106.574219 568 1080 C 568.335938 1073.1875 568.863281 1065.476563 571 1059 C 572.65625 1054.496094 576.429688 1050 575 1045 M 958 1045 C 944.894531 1069.609375 952 1093.296875 947.382813 1119 C 943.984375 1137.71875 931.703125 1152.277344 922 1168 C 929.679688 1166.175781 935.640625 1159 940.5625 1153 C 961.472656 1128.179688 957 1105.753906 957 1076 C 957 1067.207031 961.308594 1053 958 1045 M 609 1052 C 609 1086 604.742188 1120 614.722656 1153 C 621.492188 1175.480469 637.488281 1193.65625 644.65625 1216 C 653 1242.15625 654.96875 1272 669 1296 L 670 1296 C 670 1260.816406 657.613281 1228.246094 651.425781 1194 C 648 1175.152344 649 1157.019531 649 1138 C 639.671875 1144.164063 641 1161.289063 641 1171 C 618.410156 1151 615 1112.007813 611.425781 1084 C 610 1074.324219 615.558594 1060.011719 609 1052 M 684 1086 C 687.480469 1101.054688 690.183594 1115.828125 693 1131 L 692 1131 C 687.5 1120.179688 675 1096.820313 684 1086 M 1010 1087 C 1012.699219 1121.183594 1002.46875 1147.523438 983.484375 1176 C 969.789063 1196.539063 951.199219 1216.6875 944.640625 1241 C 937.878906 1266.058594 947.171875 1289.257813 959.425781 1311 C 962.695313 1316.804688 965.359375 1326.304688 971 1330 C 964.832031 1303.351563 945 1280.050781 952.476563 1251 C 957.367188 1232 970.445313 1216.730469 981.574219 1201 C 995.382813 1181.480469 1008.347656 1161 1015.65625 1138 C 1020.273438 1123.53125 1023.589844 1097.664063 1010 1087 M 770 1179 L 771 1179 C 769.535156 1161.054688 764.226563 1144.371094 765 1126 C 765.539063 1114.648438 770.992188 1104.5 771 1093 C 764 1097 760.929688 1107.636719 759 1115 C 754 1136 758 1161.023438 770 1179 M 931 1093 C 923.878906 1106.511719 922 1122.589844 917.328125 1137 C 912.421875 1152 903.695313 1167.066406 903 1183 C 909.285156 1180 911.777344 1173 914.753906 1167 C 922.628906 1151.136719 926 1133.3125 929 1116 C 930.308594 1109.082031 934.75 1099.582031 931 1093 M 979 1093 C 980.617188 1130.707031 959.351563 1171.679688 934.710938 1200 C 925.792969 1210.25 914.296875 1217.589844 905.425781 1228 C 879 1259 857 1296.214844 857 1338 L 858 1338 C 860.355469 1330.046875 861 1322 864 1314 C 867.5625 1305 873.289063 1296.414063 876 1287 L 877 1287 C 875.949219 1311.109375 869 1334.433594 869 1359 L 870 1359 C 874 1345.277344 874.554688 1330.046875 877.882813 1316 C 886 1281.511719 899.539063 1251 923 1224 C 919.488281 1236.460938 915 1249 915 1262 C 924.230469 1254.144531 930.210938 1239.265625 936.679688 1229 C 954.425781 1201 972.976563 1171.40625 981.847656 1139 C 984.988281 1127.523438 991.371094 1101.113281 979 1093 M 464 1102 C 459.253906 1127.578125 469 1153.300781 483.722656 1174 C 492.246094 1186.125 502.914063 1196.710938 509.742188 1210 C 523.695313 1237.160156 524.710938 1277 526 1307 L 528 1307 C 530 1290.3125 534 1274 534 1257 L 535 1257 C 535.6875 1272.804688 545.308594 1302.039063 558 1312 C 556.71875 1303.3125 552.210938 1295.386719 549.722656 1287 C 544.820313 1270.488281 540.753906 1253.503906 536 1237 C 548 1250.160156 557.636719 1267 565.21875 1283 C 568.695313 1290.363281 572.386719 1298.703125 570.472656 1307 C 567.65625 1319.199219 554.953125 1326.480469 553 1339 L 554 1339 C 562.25 1328.171875 575.660156 1319 578.710938 1305 C 583.824219 1281.628906 564.40625 1256.527344 551.371094 1239 C 520.285156 1197.207031 466 1158.261719 466 1102 L 464 1102 M 1262 1197 L 1264 1197 C 1264 1175.742188 1260.636719 1149.214844 1251 1130 C 1247.914063 1123.765625 1243.945313 1117.789063 1240 1112.019531 C 1239.453125 1111.136719 1235.988281 1105.738281 1234.691406 1108.660156 C 1232.359375 1114 1243.417969 1129.035156 1245.691406 1134 C 1254.300781 1152.804688 1261 1176.253906 1262 1197 M 905 1111 C 897.867188 1141.820313 889.824219 1175.789063 877.574219 1205 C 872.804688 1216.378906 864.914063 1226 860 1237 C 873 1233.164063 881.636719 1221 886.847656 1209 C 895.828125 1188.484375 901.640625 1167.0625 905.246094 1145 C 906.777344 1135.632813 911.878906 1119 905 1111 M 852 1113 L 851 1114 L 852 1113 M 513 1127 C 519.410156 1154 521.90625 1177.582031 537 1202 C 557.238281 1234.5 592.179688 1267.40625 593.960938 1308 C 595.203125 1336.359375 574.167969 1349.167969 567 1374 C 577.464844 1369.398438 584.964844 1359 591.625 1350 C 596.714844 1343.183594 601.230469 1336.085938 603.996094 1328 C 624.378906 1268.398438 575 1218.054688 541.210938 1175 C 533.535156 1165.246094 526.402344 1155.378906 521.3125 1144 C 518.796875 1138.371094 518.695313 1130.292969 513 1127 M 432 1131 L 431 1132 L 432 1131 M 1252 1203 C 1257.417969 1190.089844 1248.644531 1163.453125 1243.796875 1151 C 1242.703125 1148.191406 1238.5 1134.324219 1233.59375 1137.175781 C 1229.207031 1139.722656 1235.871094 1150.128906 1237 1153 C 1244.261719 1169.125 1247.613281 1186.046875 1252 1203 M 1223 1164 C 1224 1176.179688 1231.796875 1187.773438 1234.195313 1200 C 1237.902344 1219 1235.8125 1236.097656 1235 1255 C 1239.980469 1249.75 1239.335938 1241 1240 1234 C 1242.402344 1215.203125 1242.191406 1196.339844 1233.742188 1179 C 1231 1173.660156 1228.421875 1166.816406 1223 1164 M 535 1234 C 535.984375 1235.480469 536 1235.203125 536 1237 L 535 1237 C 534.785156 1235.578125 534.726563 1235.328125 535 1234 M 833 1388 L 835 1388 C 835 1371.152344 839 1353.699219 830.675781 1338 C 823.941406 1325.453125 811.6875 1318.035156 802.171875 1308 C 783.746094 1288.457031 780.945313 1266.042969 788 1241 C 779.390625 1244.40625 775.234375 1254.628906 772.722656 1263 C 765.359375 1287.550781 775.277344 1315.109375 794 1331.824219 C 803.242188 1340.078125 814.667969 1345.632813 821.957031 1356 C 828.1875 1365 831.5625 1377.339844 833 1388 M 754 1285 C 739.511719 1309 735.628906 1349.003906 756 1371 C 765.398438 1381 778 1382 790 1387.3125 C 807.734375 1395.300781 823.523438 1408 842 1414 C 839.699219 1405.15625 829.925781 1399.59375 823 1394.375 C 808.546875 1383.488281 791.988281 1373.632813 782 1358 C 775.96875 1348.328125 775.480469 1327.214844 766 1321 C 765.992188 1330.53125 765.246094 1339.453125 766 1349 L 765 1349 C 758.585938 1335.257813 754 1323.417969 753.210938 1308 C 752.832031 1300.660156 757.859375 1291.777344 754 1285 M 877.667969 1285.667969 C 877.722656 1285.722656 877.777344 1286.777344 877.332031 1286.332031 C 877.277344 1286.277344 877.222656 1285.222656 877.667969 1285.667969 "/>
</g>
</svg>
