<?xml version="1.0" encoding="UTF-8"?>
<svg xmlns="http://www.w3.org/2000/svg" xmlns:xlink="http://www.w3.org/1999/xlink" width="1500pt" height="1500pt" viewBox="0 0 1500 1500" version="1.1">
<g id="surface1">
<path style=" stroke:none;fill-rule:nonzero;fill:rgb(0%,0%,0%);fill-opacity:1;" d="M 493 142 C 495.265625 147.085938 499.238281 151.15625 502 156 C 496.671875 152.207031 481.90625 145.253906 488 158 C 478.949219 154.285156 469.761719 149.441406 460 148 C 463 154.503906 469.1875 159 476 161 L 476 162 C 469.1875 161.457031 462.667969 159.375 456 158 C 457.847656 163.433594 462 167.015625 466 171 C 454 167 452 165.066406 452 179 L 451 179 L 448 163 L 447 163 L 448 191 C 443.625 186.625 439.539063 182 434 179 C 434 195.828125 433.230469 206.515625 426 222 L 425 222 C 424.917969 212.023438 421.992188 193 413 187 C 415.453125 197.355469 424 208 421.609375 219 C 420.511719 224.070313 416 231 410.171875 227.246094 C 407.933594 225.832031 406 223.601563 404 222 C 405.199219 230.007813 409.5 237.332031 412 245 C 405.59375 239 399.488281 237.457031 399 248 L 398 248 C 398 246.203125 397.984375 246.476563 397 245 C 393 251.664063 395 261.640625 395.828125 269 C 396.96875 281 397.296875 292.164063 395 304 L 394 304 C 392.261719 292.234375 388.402344 278.402344 385 267 L 384 267 C 384 281.4375 383.535156 295.769531 386.449219 310 C 388.3125 319.089844 394 327.472656 392 337 L 391 337 C 388 330.785156 383.441406 325.53125 381 319 C 376.269531 305.617188 377 291 377 277 L 375 277 C 375 304.042969 372.871094 331.003906 373 358 C 373 371.496094 377 385.519531 374.53125 399 C 372.429688 410.222656 364.285156 419 359.484375 429 C 352 444.421875 349 461.03125 349 478 L 348 478 C 347.882813 472.296875 347.816406 461.660156 343 458 C 343 470.007813 344.777344 482.207031 347 494 L 346 494 C 344.542969 489.390625 342 483.695313 338 481 C 338 514 351.820313 554 320 576 C 315.242188 579.246094 309.769531 582 304 582.699219 C 297.933594 583.59375 290.949219 583.417969 285 582 C 291.1875 597.273438 315.683594 592.464844 328 589 C 320.304688 596.695313 310.390625 605.359375 307 616 C 314.308594 614.265625 320.199219 610 327 607 C 315.46875 619.527344 300 636 294 652 C 301.613281 649.210938 307.351563 643.636719 313 638 C 306.519531 665.277344 281.351563 682.652344 272 708 C 274.355469 707.25 275.949219 706.398438 278 705 C 275.960938 710.296875 276 717.578125 272.707031 722 C 267 729.117188 257.433594 732.320313 254 741 C 260 739 265.679688 735.503906 272 734 C 265 749 249.5625 758.277344 243 773 C 284.554688 763.382813 296 713.667969 324 687.039063 C 337.636719 674 357.203125 664.671875 360 644 C 346.640625 648 335.851563 658.648438 323 664 C 340 644.519531 359.738281 627.136719 380 611.003906 C 385 607 390.328125 603.125 395.996094 600 C 397.3125 599.101563 400.792969 597.828125 400.792969 596 C 400.792969 592.25 388.484375 592.050781 386 592 L 386 591 C 404.71875 588.234375 414.734375 573 431 566.664063 C 440.398438 563.078125 451.992188 567 462 564.789063 C 481.589844 560.625 496.558594 548 511 534.828125 C 519.203125 527.40625 526.246094 519 533.996094 511 C 537.398438 507.546875 542 504 539 499 C 556 491 569.523438 470 585 458.375 C 606.621094 442.160156 631.824219 433.441406 656 422 C 653.957031 420.585938 652.488281 420.253906 650 420 L 650 419 C 674 408 655.578125 370 653 350 L 654 350 C 659.585938 373.523438 676.804688 395.207031 687 417 L 688 417 C 687.96875 405.097656 683.960938 393.253906 678 383 C 681.847656 384.429688 689.863281 391.777344 693.679688 390.542969 C 698.179688 389.085938 693.832031 378 693 375 C 697.839844 379 704 390.660156 709 392.652344 C 712 393.769531 712.578125 388.671875 712.425781 387 C 711.917969 381.320313 708.21875 375.519531 705 371 C 717 376.078125 719.472656 387.761719 729 394 C 727.304688 384.828125 731.167969 382.671875 738.984375 388.09375 C 745 392.273438 746.546875 400.003906 752 404 L 753 382 L 754 382 C 754.691406 390.46875 757.910156 398.558594 759 407 L 761 407 C 761.96875 399.820313 765 393.179688 766 386 L 767 386 C 766 393.015625 765 400 765 407 C 772 402 776.878906 395 785 391 C 783.464844 395.71875 782 400 782 405 C 789 399.316406 793.503906 392.042969 802 388 C 796.5625 396.699219 788.910156 404 786 414 C 801.277344 407.53125 809.980469 389.769531 824 381 C 820.207031 385.707031 816.695313 390.121094 815 396 C 822.894531 390.441406 829 383.214844 838 379 L 838 380 C 831.4375 383.402344 825.976563 389.234375 823 396 C 831.558594 394.664063 838 388.289063 846 385 C 840.53125 396.558594 833 405.742188 832 419 C 838.480469 414.25 845.59375 398 847 390 L 848 390 L 848 399 L 849 399 C 857.242188 385 871 366.121094 874 350 L 875 350 C 871.890625 371.054688 845.660156 411.398438 872 425 L 872 426 L 867 426 C 871.480469 434.625 885.636719 436.214844 894 439.605469 C 909.839844 446.019531 925 456.097656 938 467.289063 C 952 479.503906 966.703125 494.6875 977.351563 510 C 991.847656 531 1002.367188 552.382813 1024 567.558594 C 1036.355469 576.226563 1051.230469 580.457031 1066 582.570313 C 1072.246094 583.464844 1079 582 1085 584.652344 C 1098.566406 590.765625 1105.339844 604.238281 1122 605 L 1122 606 C 1119.738281 606.019531 1111.207031 605.589844 1111.207031 609.246094 C 1111.207031 614 1125.507813 620.617188 1129 623.027344 C 1146.398438 635.015625 1162.664063 647.4375 1177 663 C 1167.953125 659.234375 1159.597656 653.277344 1150 651 C 1150.648438 666 1160.710938 676.460938 1171 686.089844 C 1182.609375 697 1194 707.605469 1202.921875 721 C 1215.949219 740.824219 1228.476563 771 1254 777 C 1248.652344 765.757813 1237.539063 758.265625 1234 746 C 1238.804688 749 1243.546875 751.507813 1249 753 C 1245.234375 737.160156 1224 733.742188 1220 717 C 1223.652344 719.78125 1226.828125 723.058594 1231 725 C 1224.207031 706.449219 1206.609375 694 1202 674 C 1206.488281 677.652344 1210.554688 682 1216 684 C 1209 668.34375 1196.488281 657 1191 640 C 1196.304688 642.203125 1201.289063 645.015625 1207 646 C 1202.257813 635.144531 1192.222656 627.222656 1184 619 C 1195 619.230469 1213.8125 624.578125 1220 612 C 1197.664063 612 1173.554688 601.300781 1169.46875 577 C 1168.226563 569.613281 1171 561.285156 1172.246094 554 C 1174.480469 540.246094 1176.863281 525 1175.910156 511 C 1173 470.046875 1158.882813 431 1156 390 C 1154 361 1162.996094 331.207031 1163 302 L 1161 302 C 1159.300781 323.535156 1153.515625 344.441406 1138 360 C 1137 348.828125 1143.230469 348.277344 1146.929688 339 C 1151.710938 327 1153.964844 312 1154 299 L 1153 299 C 1148.242188 309.167969 1142.648438 321 1141 332 L 1140 332 C 1139.519531 320.808594 1137.640625 309.179688 1139.613281 298 C 1141.425781 287.746094 1147 278.332031 1148 268 L 1147 268 C 1143.554688 274 1140 280.175781 1139 287 L 1138 287 C 1138 276 1139.96875 265.03125 1140 254 C 1133.675781 257.46875 1131 266.203125 1130 273 L 1129 273 C 1129 260.003906 1136.5625 253.6875 1140 242 C 1134.878906 244.617188 1130.613281 248.582031 1126 252 C 1124.75 242.71875 1120.265625 233.523438 1122.53125 224 C 1124.304688 216.546875 1130 210.074219 1133 203 C 1118 208.085938 1113.285156 231.066406 1113 245 L 1112 245 C 1110.640625 239.265625 1107.570313 234 1107 228 C 1106 215.785156 1113.535156 206.722656 1118 196 C 1112.476563 199.019531 1109 206 1108 212 L 1107 212 L 1107 202 C 1102.171875 204 1098.363281 207.28125 1094 210 C 1094.183594 201.148438 1097.816406 193 1098 184 L 1097 184 L 1092 197 L 1091 197 C 1090.992188 188.820313 1089.75 188.671875 1082 189 C 1085.324219 185.59375 1088 182.746094 1089 178 C 1081.691406 180.054688 1074.582031 181 1067 181 L 1067 180 C 1072.878906 177.554688 1081.769531 174.691406 1085 169 L 1055 177 L 1055 176 C 1058.769531 174.027344 1061 171.769531 1063 168 C 1055.363281 168.605469 1048.246094 170.640625 1041 173 C 1044.636719 168 1049.644531 164.445313 1054 160 C 1042.257813 159 1028.9375 169.398438 1020 176 L 1025 160 C 1019.730469 163 1017.886719 169.136719 1013 172.625 C 1009.609375 175.046875 1006.628906 171.542969 1003.511719 174.453125 C 993.546875 183.757813 987.425781 202.199219 980.574219 214 C 967.6875 236.207031 952.574219 257 937.976563 278 C 928.257813 292.03125 912 307.683594 909 325 L 908 325 C 908 313 909.203125 299.714844 912 288 C 907.648438 290.632813 906.386719 296.390625 904.679688 301 C 900.578125 312.089844 896.402344 323.398438 894 335 L 893 335 L 893 328 C 890.703125 329.746094 883.410156 356.285156 883 340.046875 L 883 336 C 880.957031 337.625 880 338.644531 879 341 C 874.703125 339.082031 870.527344 343.242188 867 345.722656 C 857.230469 352.578125 847.460938 359.726563 838 367 C 845.382813 354.167969 858.601563 345.464844 865 332 C 855.84375 335.035156 848.21875 343.429688 841 349.578125 C 830 359 819.339844 366.789063 807 374 C 812.960938 363.535156 821.316406 354.679688 827 344 C 810.695313 350.316406 800.808594 368.003906 784 375 C 786.8125 363 793 351.828125 797 340 C 789.582031 344.058594 785.277344 355.421875 779.996094 362 C 778.636719 363.691406 775.402344 368.824219 772.613281 367.652344 C 769.203125 366.226563 773.859375 350.269531 774 347 C 764.449219 350.257813 759.402344 362.632813 758 372 L 757 372 C 756.222656 368.644531 753.355469 353.445313 749 353.347656 C 744.742188 353.246094 748.570313 366.792969 749 369 C 743.714844 363.714844 738.691406 357.472656 732 354 C 732 359.597656 733.761719 364.59375 735 370 L 734 370 C 730.394531 357.511719 720.625 346 715 334 L 714 334 C 714.191406 343 718.679688 350.523438 721 359 C 713.65625 351.023438 707.980469 341.230469 697 338 C 704.414063 351 717.613281 357.828125 720 374 L 719 374 C 715 361.566406 701.722656 350.699219 691 344 C 691.574219 349.613281 694.414063 354.085938 697 359 C 685.539063 348.03125 673.722656 333 660 325 C 662.417969 341.382813 673.636719 355.296875 675 372 L 674 372 C 672.472656 361.804688 665.503906 352.515625 660 344 C 656.734375 339 651.308594 333.628906 651 343 L 650 343 C 649.226563 337.757813 647.46875 332.679688 645 328 L 644 328 C 643.960938 333 642.976563 337.269531 642 342 L 641 342 C 640 335.285156 640 328.769531 640 322 C 636.886719 324.359375 636.503906 328.261719 636 332 L 635 332 C 634.691406 317 630.296875 299.035156 625 285 L 624 285 C 623.902344 297 622 309 622 321 L 621 321 C 618 304.121094 603 286.273438 594 272 C 577.792969 246.316406 562.894531 219.578125 552.320313 191 C 549.355469 183 546 175.070313 543.34375 167 C 542.578125 164.800781 541.800781 159.410156 539.402344 158.347656 C 537 157.3125 535.628906 161.613281 535 163 C 532.734375 158 530.816406 152.828125 528 148 L 527 148 L 530 162 L 529 162 C 525.675781 155.320313 520.699219 148.484375 514 145 C 514.367188 149.523438 515.621094 153.691406 517 158 C 510 151.113281 502.726563 144.332031 493 142 M 1041 173 C 1040.453125 174.636719 1040.636719 174.453125 1039 175 C 1039.546875 173.363281 1039.363281 173.546875 1041 173 M 1055 177 L 1054 178 L 1055 177 M 421 182 C 421.328125 185.734375 421.804688 188.8125 425 191 C 424.78125 187.015625 424 184.660156 421 182 M 589 423 C 581.664063 421.757813 581.847656 440.585938 576 445 C 576 431.292969 585 411.769531 580 399 C 568.511719 425.691406 560.933594 450.332031 539.960938 472 C 535.316406 476.796875 512.429688 492.449219 509.921875 476.300781 C 508.867188 469.523438 526.929688 476.789063 525.402344 471 C 523.832031 464.734375 517.304688 458.34375 513.949219 453 C 505.425781 439.414063 497.339844 424.445313 497 408 C 507.554688 415.59375 511.707031 429.128906 522 437 C 518.839844 423.699219 512 411.796875 509.398438 398 C 508.859375 395.300781 505.476563 386.023438 508.617188 384.242188 C 511.359375 382.6875 515.851563 386.632813 518 388 C 526.328125 393.003906 534.714844 394.765625 544 397 C 540.46875 392.40625 539.910156 385 535.851563 381.429688 C 531.867188 378 526.777344 378.667969 522 377.65625 C 519.859375 377.203125 516.175781 376 516.632813 373.050781 C 517.347656 368.554688 524.566406 368 528 368.042969 C 538 368.347656 553.980469 370.546875 562 363 C 553.894531 365 544.351563 363.207031 536 363 C 533.957031 363 528.210938 363 528.207031 359.824219 C 528.203125 357.128906 533.199219 354.503906 535 353 C 528.195313 353 522.664063 350.699219 517 347 L 517 346 C 531.375 346 551.753906 353.269531 562 340 C 544.992188 340.011719 526.179688 344.160156 510 337 C 520.324219 326.457031 542.980469 337.617188 554 325 C 536.394531 325 517.789063 325 502 316 L 502 315 C 514.296875 315.792969 527.808594 315.195313 540 313.574219 C 541.839844 313.332031 553.726563 312.726563 551 308.648438 C 548.566406 304.777344 538.988281 306 535 305.269531 C 521.835938 303.394531 510.488281 301 499 294 L 499 293 C 515.476563 293.136719 530.527344 294.34375 547 293 C 543 289 537.367188 289.375 532 288.714844 C 519.488281 287.179688 507.433594 286.566406 495 284 L 495 283 C 510.3125 283.128906 530.714844 291.609375 542 277 C 527.371094 277 513.628906 276.832031 500 270.6875 C 492.457031 267.289063 482 256.488281 474 256 C 468.695313 255.613281 459.550781 267.058594 459 272 L 458 272 C 453.886719 265.226563 450.320313 273.214844 450 278 C 449.40625 289.023438 452 300.050781 453 311 C 448 308.6875 444.507813 304.832031 442 300 L 441 300 C 440.605469 309.1875 440.179688 319.671875 436 328 C 434 326.394531 433 325.21875 432 323 C 413.910156 359.039063 437.699219 402.714844 445 438 C 438.972656 433 436 424.140625 433 417 C 426 401.066406 418 384.730469 418 367 L 416 367 C 416 401.722656 433.902344 429.816406 446 461 C 432 453.597656 422.84375 430.320313 418 416 L 417 416 C 417 430.65625 424.527344 443 430 456 C 416.347656 451.359375 409.960938 431.800781 407 419 L 406 419 C 406.398438 428.136719 410.9375 436.117188 412.535156 445 C 414.257813 454.578125 413 465.285156 413 475 C 404.742188 469.136719 401.207031 460.117188 397.601563 451 C 388.492188 428 389 403.3125 389 379 L 390 379 C 392.171875 382.214844 394 385.375 397 388 C 393.964844 380 386.5625 361.589844 388.40625 353.1875 C 389.242188 349.394531 396 347.382813 397.570313 342 C 409.449219 301 421.648438 261.738281 444.574219 225 C 455.683594 207.203125 475.488281 179.71875 500 187.75 C 519.949219 194.285156 532.386719 215 542.601563 232 C 565.550781 270.230469 583.789063 310.132813 601.429688 351 C 605.898438 361.359375 613.933594 368.496094 622 376.023438 C 625.191406 379.003906 631.394531 383.027344 631.289063 388 C 631 397.597656 608.925781 400.371094 602 400 C 598.976563 399.707031 595 398.269531 592.304688 400.03125 C 586.617188 403.617188 589 417.296875 589 423 M 1132 407 L 1140 399 C 1134.398438 422.519531 1136.589844 444.261719 1125.246094 467 C 1121.34375 474.828125 1117.304688 484.117188 1109 488 C 1109.511719 478.28125 1108.710938 468.667969 1110.464844 459 C 1112 450.121094 1116.167969 442 1118 433 L 1117 433 C 1111.84375 445.570313 1105.695313 460.414063 1093 467 C 1097.277344 452.453125 1107.703125 441 1109 425 L 1108 425 C 1102.859375 440.101563 1089.488281 464.480469 1075 472 C 1082 455 1092.273438 439.058594 1099.574219 422 C 1104.519531 410.4375 1106.40625 398.820313 1110 387 C 1105.554688 391.683594 1104.21875 400.007813 1101.800781 406 C 1096 420.222656 1088 440.148438 1076 450 C 1088.390625 412 1103.226563 381 1100 340 L 1094 345 L 1093 317 C 1088.863281 320.578125 1085.503906 324.828125 1081 328 C 1081.648438 313 1089.335938 295.714844 1078 283 L 1077 294 L 1076 294 C 1075.800781 289.433594 1075.179688 284.625 1071.773438 281.226563 C 1068 277.476563 1061.179688 278.570313 1064 272 C 1052.246094 275.832031 1042 283.632813 1030 286.496094 C 1019 289.09375 1006.210938 286.085938 996 291 C 1012.359375 297.3125 1025.941406 296.347656 1043 295 L 1043 296 C 1030.34375 299 1018 301 1005 301 C 1001.988281 301 993.738281 299.734375 992.207031 303.324219 C 990.589844 307.125 1000 308 1002 308 C 1013.414063 308.480469 1024.65625 307.234375 1036 307 L 1036 308 C 1024.429688 312.488281 1012.527344 316 1000 316 C 995.578125 316.050781 984.902344 314.058594 981.636719 317.699219 C 978 321.636719 990.171875 323.105469 992 323.414063 C 1003.96875 325.425781 1016.839844 328 1029 327 L 1029 328 C 1013.289063 337 991.425781 335 974 335 C 980.628906 341 994.417969 342.40625 1003 344 C 1006.246094 344.484375 1013.933594 344.175781 1015.824219 347.40625 C 1018.40625 351.8125 1005.777344 351 1004 351.171875 C 991.253906 352.382813 978.777344 350 966 350 C 979.824219 361.359375 996.621094 357.339844 1013 357 L 1013 358 C 1006.429688 361.816406 1000.1875 362.285156 993 364 C 996.386719 365.816406 999.449219 367.078125 1002 370 C 991.675781 374.359375 975.835938 374.578125 965 372 C 972.683594 380.070313 990.664063 377.753906 1001 379.1875 C 1003.367188 379.515625 1011.8125 382.4375 1007.574219 386 C 1001.628906 390.699219 989.953125 385.347656 984.582031 390.027344 C 982.605469 391.746094 984.46875 394.828125 984.230469 397 C 983.679688 402.039063 978.21875 403.566406 974 404 L 974 406 C 983.699219 406 992.859375 406.375 1002 402.535156 C 1005.332031 401.136719 1011.578125 395.730469 1015.394531 397.648438 C 1018.992188 399.453125 1014.5 408.40625 1013.71875 411 C 1009.503906 425 1001.664063 436.542969 997 450 C 1007 443 1013.847656 426 1025 422 C 1024.523438 444.453125 1004.183594 465.730469 993 484 C 997.554688 484 1004.457031 481.476563 1008.664063 483.742188 C 1014.808594 487.050781 1001.863281 492.789063 999 492.789063 C 991.203125 492.789063 984 485.425781 979.429688 480 C 967.636719 466.261719 957.746094 451.488281 950.230469 435 C 947.449219 429 945.894531 422.5625 944.609375 416 C 944.367188 414.757813 944 410.054688 942 410.054688 C 939.539063 410.054688 941.234375 418.601563 941.425781 420 C 942.867188 430.621094 943.652344 441.351563 945 452 C 936.265625 447.703125 936.179688 435.621094 936 427 C 934.8125 428.1875 934.414063 428.527344 933 429 C 933 423.289063 935.96875 410.324219 929.855469 407.066406 C 927 405.558594 923 407 920 407 C 912.382813 407.074219 891.785156 403.527344 892.257813 393 C 892.5 387.582031 899.273438 384.207031 903 381.195313 C 911.242188 374.53125 918.8125 367.515625 923.742188 358 C 944.824219 317.28125 969.199219 279 997.800781 243 C 1008.972656 229 1021.195313 210.160156 1039 204.105469 C 1065.179688 195.195313 1082.957031 224 1093.851563 243 C 1113.660156 277.722656 1127.9375 318.335938 1133.28125 358 C 1133.753906 361.484375 1133.992188 366 1135.9375 369 C 1137.644531 371.527344 1141.570313 372.539063 1141.527344 376.109375 C 1141.40625 385.574219 1134.621094 397.761719 1132 407 M 1106.667969 212.667969 C 1106.722656 212.722656 1106.777344 213.777344 1106.332031 213.332031 C 1106.277344 213.277344 1106.222656 212.222656 1106.667969 212.667969 M 489 225 C 492.210938 238.515625 501.941406 249.128906 510 260 C 496.183594 251.367188 484.78125 240.375 469 235 C 471.886719 241.144531 478 244.613281 483 249.074219 C 495.304688 260.214844 509.414063 273.636719 527 274 C 522 262.457031 510.167969 254.242188 503 244 C 498.734375 237.816406 495.671875 229 489 225 M 1008 286 C 1026.273438 286 1040 275.347656 1054 264.574219 C 1059.285156 260.476563 1066 257.1875 1069 251 C 1052.777344 255.695313 1040.953125 267 1026 274 C 1035.699219 264.21875 1046.738281 251.726563 1050 238 C 1039.738281 244.027344 1033 259.246094 1024.910156 268 C 1019.511719 273.804688 1011.386719 278.796875 1008 286 M 512 262 C 510.363281 261.453125 510.546875 261.636719 510 260 C 511.636719 260.546875 511.453125 260.363281 512 262 M 1026 274 L 1025 275 L 1026 274 M 668 319 C 670 323.226563 673.539063 325.519531 678 327 C 675.265625 323.210938 672.269531 321 668 319 M 651.667969 345.667969 C 651.722656 345.722656 651.777344 346.777344 651.332031 346.332031 C 651.277344 346.277344 651.222656 345.222656 651.667969 345.667969 M 877 346 L 876 347 L 877 346 M 652.667969 348.667969 C 652.722656 348.722656 652.777344 349.777344 652.332031 349.332031 C 652.277344 349.277344 652.222656 348.222656 652.667969 348.667969 M 875.667969 348.667969 C 875.722656 348.722656 875.777344 349.777344 875.332031 349.332031 C 875.277344 349.277344 875.222656 348.222656 875.667969 348.667969 M 721.667969 359.667969 C 721.722656 359.722656 721.777344 360.777344 721.332031 360.332031 C 721.277344 360.277344 721.222656 359.222656 721.667969 359.667969 M 839 378 L 838 379 L 839 378 M 826 379 C 825.453125 380.636719 825.636719 380.453125 824 381 C 824.546875 379.363281 824.363281 379.546875 826 379 M 598 387 C 589.898438 375.632813 585.566406 385.71875 598 387 M 804 386 C 803.453125 387.636719 803.636719 387.453125 802 388 C 802.546875 386.363281 802.363281 386.546875 804 386 M 849 388 L 848 389 L 849 388 M 925 396 C 938.566406 391.296875 930.992188 384.492188 925 396 M 381 439 C 381.628906 447 382.699219 455 381.714844 463 C 380.484375 473.007813 374.742188 484.523438 383 493 C 397.597656 507.378906 416.511719 489.441406 431.984375 490.414063 C 438.324219 490.8125 438.972656 499.117188 438.535156 504 C 438.207031 507.6875 437.675781 511.363281 437 515 C 442 509.324219 445 502.738281 444.980469 495 C 444.941406 492.011719 441.707031 484.113281 444.613281 482.085938 C 451.214844 477.480469 453 495 452.960938 498 C 452.332031 512.308594 439.445313 530.394531 425 533 L 426 527 C 412.882813 536 397 554 379 548.347656 C 367.953125 545 363.910156 530.199219 363 520 C 361 498.183594 364.800781 478.375 372.796875 458 C 375.226563 451.808594 376.308594 444 381 439 M 1145 454 C 1147.242188 464.832031 1152.867188 474.414063 1155.84375 485 C 1160.660156 502.128906 1160.429688 521.738281 1156.347656 539 C 1153.363281 551.613281 1145.4375 567.335938 1130 564.671875 C 1114.796875 562.050781 1103.90625 548.195313 1091 541 L 1092 547 C 1078.449219 542.671875 1067 526.058594 1066.214844 512 C 1065.957031 508 1069.203125 490 1076.578125 494.289063 C 1079.726563 496.179688 1075.375 503.234375 1075 506 C 1074.324219 514 1075.453125 522 1082 527 C 1079.234375 517.644531 1082 505.308594 1094 506.183594 C 1106.859375 507.128906 1130.554688 522.453125 1139.632813 507 C 1148.835938 491.304688 1131.601563 468 1145 454 M 747 464 C 747.285156 498.394531 744.28125 531.574219 747 566 L 746 566 C 743.660156 550.160156 735.972656 535 733 519 L 732 519 C 732 545.015625 745.316406 566.050781 749 591 L 748 591 C 744.691406 579.519531 734 561.191406 723 556 C 729 577.164063 745.96875 592.289063 747 616 L 746 616 C 744.269531 606.28125 736.960938 595.652344 729 590 C 729.558594 603 738 613 741.238281 625 C 747.515625 649.460938 749 676.023438 758 700 L 759 700 C 762 675.523438 763.945313 650.039063 769.898438 626 C 772.515625 615.4375 779.53125 606.671875 782 596 C 774 600.089844 768 608.753906 765 617 L 764 617 C 765.875 593.457031 783.644531 575.601563 791 554 C 780.921875 558.703125 767.988281 576 766 587 L 765 587 C 766.628906 575 773.742188 564.34375 774 552 C 768.46875 555.355469 764.757813 563 763 569 L 762 569 C 762 542.371094 771.191406 516.265625 764.625 490 C 762.859375 483 760.242188 470.257813 754 466 L 755 480 L 754 480 C 753.480469 474.085938 751.253906 468.210938 747 464 M 439 480 C 441 476 441.507813 473.425781 440 469 C 442 469.019531 454.761719 469.691406 452.652344 474.253906 C 451.1875 477.425781 442 479.097656 439 480 M 1083 477 L 1083 478 C 1078.574219 480.464844 1074.238281 483.082031 1071 487 C 1074.992188 487.328125 1078.347656 488.378906 1082 490 L 1082 491 C 1075.59375 491 1069.320313 490.824219 1063 492 C 1065.742188 482.773438 1074 479 1083 477 M 755.667969 481.667969 C 755.722656 481.722656 755.777344 482.777344 755.332031 482.332031 C 755.277344 482.277344 755.222656 481.222656 755.667969 481.667969 M 348 495 L 347 496 L 348 495 M 562 505 C 559 507.390625 557.390625 509.476563 556 513 C 559.414063 511.367188 562.542969 509.070313 562 505 M 426 601 C 447 595.265625 472.53125 589.753906 491 578 C 502.984375 570.226563 512.214844 559.660156 521.425781 549 C 528.1875 541.171875 538.933594 533.675781 541 523 C 522.449219 531.636719 509.300781 553.167969 492 564.644531 C 473.660156 576.8125 433.78125 577.535156 426 601 M 773 534 C 771 538.566406 770 543.03125 770 548 C 774.273438 545.070313 774.925781 538.585938 773 534 M 1093 622 C 1082.925781 600.410156 1053.632813 597.726563 1035 587.691406 C 1025.246094 582.4375 1014.675781 576.117188 1007 568 C 1003.910156 564.625 1003.308594 559.710938 999.851563 556.789063 C 994 552 985.691406 550 979 546.746094 C 976.628906 545.632813 973 543.410156 970.605469 545.648438 C 967.773438 548.28125 970.1875 552.515625 972.226563 554.714844 C 978.570313 561.546875 986.734375 567.1875 994 573 C 1005.921875 582.535156 1018 592.566406 1032 599.214844 C 1044.488281 605.214844 1058 608.066406 1071 612.691406 C 1078.5 615.363281 1085.382813 619.804688 1093 622 M 748 566 L 748 569 L 747 569 C 747.25 567.550781 747.316406 567.246094 748 566 M 478 630 C 484.570313 628.136719 490.5625 625.191406 497 623 L 497 624 C 480 631.289063 464.410156 644.25 448 653 L 448 654 C 459.757813 654 470.308594 649.386719 481 645 L 481 646 C 471 650.144531 450.390625 654.175781 445 664 C 459.289063 662.15625 472.929688 657 487 654 L 487 655 C 478.390625 657.480469 471 663 463 666.691406 C 457.230469 669.359375 450.347656 670.730469 445 674 C 457.464844 676.699219 472.3125 670.546875 485 670 C 461.257813 692 429.5 691.59375 399 694 C 404.636719 702.226563 428.902344 698 438 698 L 438 699 C 430.828125 699.148438 424.171875 702 417 702 L 417 704 L 454 703 L 454 704 C 443.234375 704.222656 432.285156 707.753906 422 710.710938 C 417.863281 712 412.675781 712.4375 410 716 L 452 717 L 452 718 C 446.414063 718.257813 441.710938 719.683594 438 724 L 463 724 L 463 725 C 456 725.605469 449.855469 729 443 730 L 443 732 C 455.429688 732 466.765625 729.578125 479 728 L 479 729 C 474 730 470 732.277344 466 735 L 466 736 C 478.800781 735 491.699219 731.085938 504 727.578125 C 509.375 726.046875 515 725.203125 518 720 C 515.335938 720 512.664063 720.050781 510 720 C 508.320313 720 506.652344 720 505 719.53125 C 487.359375 716.085938 517.476563 704.429688 520 701 C 510.191406 702.265625 500.863281 706.195313 491 707 C 505.929688 692.113281 524.324219 682.585938 543 673.246094 C 551 669.226563 566 664.59375 571 657 C 544.644531 661 518.503906 680 494 690 L 494 689 C 506 683.246094 524.570313 672.355469 529 659 C 522.605469 661.023438 517 665.171875 511 668 L 511 667 C 519.183594 663.128906 531.824219 656.242188 536 648 C 520.304688 652.523438 507.671875 664.539063 491 667 C 503.90625 654.65625 520.664063 653 534 643 C 523.726563 640.773438 512.183594 645.628906 502 647 L 502 646 C 516.296875 639.234375 528.957031 631.050781 544 625.425781 C 549.855469 623.234375 560.167969 622.101563 564 617 C 543.640625 617.003906 525.488281 623.300781 507 631 L 507 630 C 516.96875 625.339844 529.542969 619.089844 536 610 C 527.527344 610.175781 520 612.800781 512 615 L 512 614 C 523 610.820313 532.554688 603.480469 543 599 C 550.628906 595.488281 559.644531 593.828125 565 587 C 541.957031 591.769531 520.335938 603.445313 500 615 C 493 618.703125 481.851563 623 478 630 M 764.667969 587.667969 C 764.722656 587.722656 764.777344 588.777344 764.332031 588.332031 C 764.277344 588.277344 764.222656 587.222656 764.667969 587.667969 M 749.667969 591.667969 C 749.722656 591.722656 749.777344 592.777344 749.332031 592.332031 C 749.277344 592.277344 749.222656 591.222656 749.667969 591.667969 M 751 594 L 750 595 L 751 594 M 809 710 C 806.738281 702.148438 802.398438 695.085938 800.667969 687 C 796.480469 667.40625 801.617188 647.140625 811.425781 630 C 818.5 617.644531 830.964844 607.277344 836 594 C 826.464844 597.160156 819.890625 606.460938 813.804688 614 C 795 637.164063 771.933594 690.769531 809 710 M 678 595 C 684 617.210938 700.464844 635.332031 702.828125 659 C 704.738281 678.105469 697.21875 691.246094 693 709 C 704.636719 704.488281 709.390625 690.28125 711.789063 679 C 718.191406 649 704.488281 611.566406 678 595 M 954 596 L 954 597 C 969.179688 604.101563 983.703125 613.410156 999 620 L 999 621 C 993.226563 619.675781 987.984375 618.050781 982 618 C 985.605469 625.707031 994.527344 630.507813 1002 634 L 1002 635 C 986.257813 628.445313 972.296875 624.144531 955 624 L 955 625 C 975.242188 636.519531 997.628906 641.386719 1015 658 C 1002.785156 654.558594 989.652344 649.035156 977 648 L 977 649 C 989.859375 657 1004.417969 667 1018 673 L 1018 674 C 1004.222656 670.230469 992.59375 661 979 657 C 981.398438 662.132813 985.902344 665.226563 990 669 L 985 667 C 989.683594 679.765625 1005 692 1017 698 L 1017 699 C 990.800781 690.078125 969.496094 670.363281 942 664 C 946.722656 671 961.585938 674.746094 969 679 C 986.742188 688.707031 1003.632813 700.640625 1018 715 C 1009.617188 713.078125 1001.570313 710.105469 993 709 C 996.28125 713.460938 1003.179688 713.335938 1006.351563 718.183594 C 1012 727.050781 994.253906 727 990 727 C 992.988281 731.785156 998.867188 732.308594 1004 733.628906 C 1015.289063 736.53125 1026.394531 740.5 1038 742 C 1035.863281 738.671875 1032.71875 737.179688 1029 736 L 1029 735 C 1039.746094 735.222656 1050 738 1061 738 L 1061 737 C 1054.757813 734.234375 1047.726563 731.15625 1041 730 L 1041 729 C 1050 729.023438 1058.9375 731 1068 731 C 1064.972656 726.417969 1058 725.1875 1053 724 L 1053 723 C 1067.285156 721.195313 1081.617188 723 1096 723 L 1096 722 C 1084.167969 715.273438 1064.570313 711.109375 1051 710 L 1051 709 C 1063.394531 709.53125 1075.554688 712 1088 712 L 1088 711 C 1082.277344 708.808594 1076 706.535156 1070 706 L 1070 705 C 1081.746094 705 1093.3125 704.503906 1105 704 C 1100.566406 696.753906 1084.605469 698.652344 1077 698 C 1057.21875 695.710938 1036.777344 692.769531 1024 676 C 1037.28125 676.273438 1049.796875 682 1063 683 C 1060 679.183594 1054.25 678.601563 1050 676.6875 C 1041.324219 672.78125 1033.648438 666.636719 1025 663 L 1025 662 C 1038 664.707031 1051 668.34375 1064 672 C 1059.203125 662 1037.949219 656.289063 1028 652 L 1028 651 C 1039.382813 655.738281 1050 660 1062 663 C 1058.839844 656.820313 1051.730469 655 1046 651.664063 C 1035.855469 646 1027.597656 637.011719 1017 632 L 1017 631 C 1023.261719 633.605469 1029.21875 637 1036 638 C 1030.519531 630.28125 1021.835938 626.257813 1014 621.320313 C 996 610.027344 976 596.183594 954 596 M 512 615 L 512 616 C 506.894531 618.125 502.261719 621.335938 497 623 C 500.925781 619.035156 506.667969 616.535156 512 615 M 747.667969 616.667969 C 747.722656 616.722656 747.777344 617.777344 747.332031 617.332031 C 747.277344 617.277344 747.222656 616.222656 747.667969 616.667969 M 763.667969 617.667969 C 763.722656 617.722656 763.777344 618.777344 763.332031 618.332031 C 763.277344 618.277344 763.222656 617.222656 763.667969 617.667969 M 1004 623 L 1004 624 L 999 622 C 1001 621.589844 1001.960938 622.03125 1004 623 M 1006 624 L 1005 625 L 1006 624 M 1008 625 L 1007 626 L 1008 625 M 1010 626 L 1013 628 L 1013 629 L 1009 627 L 1010 626 M 1017 630 L 1017 631 C 1015.421875 630.316406 1015.222656 630.195313 1014 629 L 1017 630 M 507 631 L 507 632 L 502 634 C 503.6875 632.34375 504.746094 631.75 507 631 M 501 634 L 500 635 L 501 634 M 499 635 L 499 636 L 495 638 L 495 637 L 499 635 M 1003 635 L 1008 638 L 1008 639 L 1002 636 L 1003 635 M 494 638 L 493 639 L 494 638 M 492 639 L 491 640 L 492 639 M 1011 641 C 1009.363281 640.453125 1009.546875 640.636719 1009 639 C 1010.636719 639.546875 1010.453125 639.363281 1011 641 M 490 640 L 490 641 C 487 642.703125 484.261719 644.0625 481 645 L 481 644 L 490 640 M 1013 641 L 1016 643 L 1016 644 L 1012 642 L 1013 641 M 1019 646 C 1017.363281 645.453125 1017.546875 645.636719 1017 644 C 1018.636719 644.546875 1018.453125 644.363281 1019 646 M 1021 646 L 1028 650 L 1028 651 C 1025 650.054688 1022.625 648.714844 1020 647 L 1021 646 M 501 647.332031 C 501.773438 647.332031 501 647.832031 500.667969 647.667969 L 501 647.332031 M 499 648 L 498 649 L 499 648 M 1178 663 L 1177 664 L 1178 663 M 592 669 C 594.488281 669.320313 613 673 609 678 C 606 682 592.214844 678.078125 588 678.078125 C 572.867188 678.078125 542.625 683.039063 539 701 C 544.207031 698.535156 548.777344 695 554 692.488281 C 573 683.550781 612.746094 676.699219 621.890625 703 C 623.339844 707.164063 623 711.660156 623 716 C 599.246094 702.136719 573.386719 705.15625 548 712.722656 C 543.515625 714.058594 521.796875 718.542969 524.175781 725.003906 C 526.484375 731.273438 536.859375 735.128906 542 738.722656 C 558.320313 750.125 573.691406 763 593 769 C 599.335938 771 609.390625 768.757813 614.773438 772.027344 C 624 777.71875 619.757813 797.082031 630 803 L 631 781 L 632 781 C 632.195313 790.394531 634 805 639 813 C 641.910156 803.152344 643.183594 790.328125 644 780 L 645 780 C 645 795.285156 648.75 784.433594 647 775 C 655.511719 776.128906 654.1875 769.695313 651 764 C 656.953125 764 662.449219 764.296875 666.347656 759 C 667.769531 757.007813 669.84375 753.023438 667.382813 751.03125 C 664 748.375 658.476563 752.199219 655 752.632813 C 648.246094 753.472656 642.390625 748.304688 638.96875 743 C 633.589844 734.660156 633 722.660156 633 713 C 632.996094 710.175781 632 704.761719 635.316406 703.214844 C 639 701.386719 645.589844 706.570313 649 708 C 646 693.480469 625 675.289063 613 667.710938 C 606.746094 663.78125 596 661.136719 592 669 M 831 748 C 831.28125 759.722656 839.917969 762 850 762 C 848 764.695313 843.753906 771 847.601563 774 C 849.378906 775.300781 852.183594 774.15625 853.398438 776.40625 C 855.230469 779.808594 854 786.214844 854 790 C 857.464844 787.363281 856.988281 783.058594 857 779 L 858 779 C 858 791.101563 861 803 861 815 L 863 815 C 864.515625 803.761719 869.90625 793.464844 870 782 L 871 782 C 871 792.21875 871.292969 801.765625 870 812 C 877.246094 807.25 881.410156 791.082031 883.972656 783 C 885.203125 779.113281 885.554688 773.183594 889.226563 770.695313 C 892.382813 768.554688 897.539063 770.660156 901 771.128906 C 907.253906 772 913.859375 771.359375 920 770 C 937.78125 765.554688 951.660156 753.277344 966 742.628906 C 972.640625 737.699219 980 734 985 727 C 952 713.527344 906.269531 695.117188 876 724 C 876 718.636719 875.507813 713.101563 877.46875 708 C 887.199219 682.675781 921.898438 686.261719 942 695 C 948.867188 697.8125 954.898438 702.753906 962 705 C 949.484375 676.546875 907.710938 687.554688 885 677 L 885 676 C 893.300781 676 900.855469 674.097656 909 673 C 904.847656 664.578125 896 665.828125 889 670 C 876.867188 676.820313 861.9375 692 854.882813 704 C 849.648438 713 868.789063 702.171875 871.3125 713 C 876.425781 735 850.734375 756.039063 831 748 M 511 668 L 511 669 C 508 670.800781 505 672.539063 502 674 C 504.609375 671.152344 507.390625 669.367188 511 668 M 1018 686 L 1018 687 C 1008.257813 682.445313 998.964844 676 990 670 C 997.671875 669.339844 1011.503906 681.699219 1018 686 M 1202 673 L 1201 674 L 1202 673 M 501 674 L 501 675 L 497 677 L 497 676 L 501 674 M 1019 674 L 1018 675 L 1019 674 M 496 677 L 495 678 L 496 677 M 494 678 L 493 679 L 494 678 M 685 686 C 685 697.140625 686.636719 709.59375 681.8125 720 C 680.222656 723.425781 675.78125 730.472656 671.417969 726.621094 C 667.644531 723.292969 667.867188 716.421875 666 712 C 660.742188 719.695313 666.539063 738.414063 678 735.179688 C 692.386719 731.121094 692 710.65625 690.246094 699 C 689.476563 694.246094 689.273438 689 685 686 M 820 688 C 808.664063 695.734375 808.40625 728.386719 820 736 C 830.59375 742.820313 845 724.335938 837 717.175781 C 835.40625 715.691406 831.234375 730.792969 826.960938 730.792969 C 822.480469 730.792969 820.40625 724.40625 819.429688 721 C 816.203125 709.765625 819.515625 699.21875 820 688 M 245 797 C 257.757813 791.503906 268.234375 781.546875 279 773 C 269.328125 788.480469 257.789063 805.65625 246.480469 820 C 241.28125 826.597656 232.777344 830.824219 230 839 C 246.992188 833.214844 258.34375 818.765625 270.171875 806.015625 C 279.1875 796.292969 290 788.320313 298.535156 778 C 309.707031 764.375 317.261719 747.59375 325.246094 732 C 330.351563 722.023438 335.839844 712.441406 340 702 C 341 699.261719 344.4375 693.265625 341.382813 690.738281 C 339 688.800781 335.851563 691.613281 334.183594 693.148438 C 328 698.75 322.746094 705.558594 317.601563 712 C 303.664063 729.445313 293.222656 749.636719 277.910156 766 C 268 776.445313 251 783.796875 245 797 M 493 690.332031 C 493.773438 690.332031 493 690.832031 492.667969 690.667969 L 493 690.332031 M 1272 843 C 1268.492188 837 1262 832.566406 1257.667969 827 C 1245.6875 811.792969 1233.21875 794.40625 1223 778 C 1232.722656 787 1243.382813 797.40625 1256 802 C 1248.785156 786.53125 1228 775.40625 1217.261719 762 C 1209.230469 752.125 1202.191406 741.46875 1194.972656 731 C 1187.503906 720.164063 1179.953125 708.59375 1170.910156 699.003906 C 1169 697.09375 1163.21875 690.25 1160 693.070313 C 1157 695.652344 1160.882813 702.382813 1162 705 C 1166.546875 715.644531 1171.894531 726 1177.574219 736 C 1186.949219 752.632813 1194.699219 770 1206.664063 785 C 1215.621094 796.257813 1227 805.488281 1236.910156 816 C 1246.691406 826.5 1256.800781 840.722656 1272 843 M 1018 699 L 1017 700 L 1018 699 M 281 702 C 279.898438 703.457031 279.457031 704 278 705 C 279 703.542969 279.542969 703.101563 281 702 M 459 702 L 459 703 L 454 703 C 455.769531 702.222656 457 702.089844 459 702 M 606 725 C 603.742188 727 601.570313 728.527344 599 730 C 599 716.589844 616.582031 716 619.683594 728.015625 C 626.3125 754 586.394531 759.140625 573.214844 744 C 568.316406 738.355469 564.53125 727 569.726563 720.226563 C 572.203125 717.074219 582.585938 714.558594 584.824219 719.3125 C 587.242188 724.457031 577.457031 724.527344 578.773438 729.132813 C 584 747.382813 601.917969 737 606 725 M 902 733 C 899.398438 731 898.507813 729.34375 898 726 L 896 726 C 896.617188 739.472656 911 749.390625 921.664063 737.816406 C 929.816406 729 914.839844 730.09375 916.890625 723.261719 C 918.90625 716.546875 935.757813 721.230469 937.851563 726.105469 C 948 750 908.960938 764.34375 893 751.472656 C 887.253906 746.792969 880 733.550781 885.742188 726.394531 C 891.898438 718.675781 907.300781 721.476563 902 733 M 1028 734.332031 C 1028.773438 734.332031 1028 734.832031 1027.667969 734.667969 L 1028 734.332031 M 363 807 C 370.847656 801.300781 374.609375 790.03125 383 783.761719 C 394.710938 775.007813 420.289063 771.132813 427 758 C 397.546875 758 363 773.214844 363 807 M 248 836 C 255.480469 834.664063 262 830 269 827 C 259 840.667969 248.675781 858.511719 242 874 C 248.746094 871 252.226563 864.175781 258 859.761719 C 264 855.191406 271.304688 852.800781 277 847.816406 C 293.273438 833.574219 304.289063 814.425781 316.710938 797 C 324 786.558594 336 775.082031 338 762 C 326 764.792969 315.492188 777.097656 306 784.347656 C 296.929688 791.269531 286 795.21875 277 802 C 266.632813 809.585938 254.371094 824.820313 248 836 M 513 765 C 516.21875 778.0625 521.285156 791 524 804 L 523 804 L 521 800 L 520 800 C 521.78125 821.828125 534.84375 847.449219 557 854 C 566.765625 856.824219 576 855.082031 586 855 C 581.628906 849.253906 571.878906 852.628906 566 849 C 555.738281 842.578125 546 827.808594 539 818 C 542.363281 818.625 545.578125 819 549 819 C 546.539063 811.707031 540.179688 807.171875 535.902344 801 C 528.222656 790 526.21875 771.21875 513 765 M 1081 766 C 1087 775 1108.523438 778.710938 1118 785 C 1131.320313 793.515625 1137.84375 810 1152 817 C 1144.265625 784.359375 1114 761.828125 1081 766 M 1164 765 C 1164.699219 778.644531 1176.585938 788.507813 1183.964844 799 C 1197.257813 818 1208.644531 838.242188 1226 854 C 1230.503906 858 1236.238281 860 1241 863.527344 C 1246.765625 868 1250.332031 875 1257 878 C 1252.582031 862.660156 1243.335938 845.125 1233 833 C 1239.765625 835.816406 1246 839.628906 1253 842 C 1250.878906 835.355469 1245.78125 831.246094 1241.464844 826 C 1236.960938 820.527344 1233.253906 814.195313 1227.910156 809.464844 C 1217.738281 800.457031 1204.773438 795.296875 1194 787.101563 C 1184 779.519531 1176 769.214844 1164 765 M 958 822 L 970 819 C 966 832.363281 953.683594 844 942 851 C 935.941406 854.503906 927.605469 855.425781 924 862 C 932.863281 862.382813 940.5 863.113281 949 859.535156 C 969 851.0625 985.402344 822 989 801 C 986.984375 802 985.769531 802.652344 984 804 C 987.910156 792 993.894531 778.742188 994 766 C 982 773.191406 978.980469 793.136719 971 804 C 966.800781 810 959.992188 815 958 822 M 280 772 L 279 773 L 280 772 M 855 773 L 854 774 L 855 773 M 524.667969 804.667969 C 524.722656 804.722656 524.777344 805.777344 524.332031 805.332031 C 524.277344 805.277344 524.222656 804.222656 524.667969 804.667969 M 984 804 L 983 805 L 984 804 M 526 812 C 532.496094 826 543.421875 834.820313 552 847 C 540.628906 842.09375 522.628906 826.261719 526 812 M 1174 812 C 1178.457031 830.761719 1191.886719 849.296875 1205 863 C 1190.167969 853.722656 1181 833.429688 1164 828 C 1169.207031 840.070313 1179 849.429688 1186.574219 860 C 1195.882813 873.023438 1202.691406 887.453125 1214 899 C 1195.191406 890.207031 1184.601563 871.128906 1167 862 C 1174.8125 880.109375 1190 903.039063 1204 917 C 1210.578125 923.539063 1219 927.160156 1225.960938 933.300781 C 1232.722656 939.355469 1236.992188 947.570313 1242 955 C 1227.289063 953.019531 1212.953125 947.308594 1198 947 C 1205.898438 957.066406 1219.589844 956.671875 1226.664063 969 C 1241.542969 995 1247.171875 1025.039063 1262 1051 C 1267.683594 1061 1273.683594 1073.617188 1285 1078 C 1281.664063 1066.425781 1275 1055.101563 1270.28125 1044 C 1262.605469 1026.160156 1255.738281 1008 1248.398438 990 C 1245 981.832031 1231.324219 954.59375 1252 964 C 1249 947.027344 1240.269531 929 1232 914 C 1235.914063 914 1240.53125 913.335938 1243.960938 915.601563 C 1249 919.011719 1250.855469 925 1257 927 C 1254 914.046875 1248 900.578125 1240 890 L 1249 893 C 1246 883 1239.269531 871 1230.996094 864.390625 C 1220.378906 856 1207.777344 852.347656 1198.171875 842 C 1190.714844 834 1183.449219 816.648438 1174 812 M 323 815 C 314.382813 824.003906 307.65625 834.628906 298 842.675781 C 290 849.234375 280 852.257813 272 858.527344 C 263.1875 865.382813 256.671875 877.003906 252 887 C 255.722656 886.671875 258.695313 885.734375 262 884 C 254 896.753906 245 908 242 923 C 247.632813 920 249.191406 912.753906 255 910.066406 C 259.5 908 265 910.105469 270 908 C 261.570313 924.023438 253.835938 942 248 959 C 251.339844 958.285156 259.28125 953.234375 262 956.617188 C 266 961.511719 254.683594 980.789063 252.601563 986 C 244.773438 1005.566406 238.476563 1025.828125 229.691406 1045 C 225.527344 1054.089844 218.941406 1062 215 1071 C 226.179688 1067.679688 233.621094 1055.628906 239 1046 C 252.609375 1022.421875 257.890625 994.816406 272.699219 972 C 279.554688 961.433594 296.9375 955 301 944 C 287.296875 947.265625 272.167969 945.40625 259 951 C 266.988281 932.460938 281.175781 926.597656 295 914 C 305.507813 904.261719 312.59375 892.671875 320.519531 881 C 325.425781 873.773438 333 868.160156 334 859 C 316.855469 871.074219 303.855469 887.445313 284 896 C 295.480469 883 305.269531 868.515625 316.261719 855 C 324.527344 845 335.425781 834.496094 340 822 C 321.535156 828 312.425781 849.507813 296 859 C 305.21875 849.773438 313 839.566406 319.21875 828 C 321.289063 824.078125 324.539063 819.453125 323 815 M 296 859 L 295 860 L 296 859 M 1207 865 C 1205.363281 864.453125 1205.546875 864.636719 1205 863 C 1206.636719 863.546875 1206.453125 863.363281 1207 865 M 276 943 C 284.171875 940.640625 289.734375 935 296 929.425781 C 309.976563 917.304688 326.742188 901.09375 336 885 C 317.523438 888.292969 305.476563 909.121094 293.828125 922 C 287.660156 928.820313 280.242188 934.6875 276 943 M 1166 890 C 1173.386719 906.578125 1191.628906 921.511719 1205 933.285156 C 1210.632813 938.242188 1215.679688 943.667969 1223 946 C 1216.558594 929.34375 1197 912.824219 1184 901.285156 C 1178.65625 896.597656 1173.183594 891.300781 1166 890 M 284 896 C 283.453125 897.636719 283.636719 897.453125 282 898 C 282.546875 896.363281 282.363281 896.546875 284 896 M 1232 914 L 1214 900 C 1220.859375 899.410156 1228.421875 909 1232 914 M 273 905 C 271.898438 906.457031 271.457031 907 270 908 C 271 906.542969 271.542969 906.101563 273 905 M 308 1005 C 314.714844 1000.40625 317 985.402344 320.28125 978 C 328.449219 959.015625 341 944.707031 351 927 C 338.746094 929.371094 330.644531 943.222656 323 952 C 327.230469 939.578125 339.898438 931 343 919 C 327.464844 926 310.730469 944.515625 309.179688 962 C 308.726563 967.078125 312.851563 970.214844 312.503906 975.015625 C 311.769531 985.121094 308 994.738281 308 1005 M 1158 924 C 1165 936.800781 1176.226563 946.140625 1182 960 C 1172.828125 950.636719 1165 937.183594 1152 933 C 1155.324219 941.644531 1162.941406 948.25 1167.910156 956 C 1173.996094 965.5 1177.839844 976.570313 1182 987 C 1184.699219 993.765625 1186.734375 1006 1193 1010 C 1192.972656 1000.214844 1190.445313 990.714844 1189.949219 981.015625 C 1189.617188 974.585938 1192.304688 967.375 1191.179688 961 C 1188.632813 946.558594 1171.625 928.519531 1158 924 M 352 982 L 352 984 C 393.75 985.792969 436.210938 986.808594 459 944 C 445.949219 947.765625 436.902344 959.578125 425 965.742188 C 402.199219 977.546875 377.519531 982 352 982 M 1044 949 C 1045.929688 959 1055.378906 966.8125 1063 972.789063 C 1086.269531 991.035156 1118.773438 995.304688 1147 988 L 1147 987 C 1129.988281 983 1113 986.003906 1096 979.574219 C 1076.539063 972.253906 1062.386719 957.035156 1044 949 M 323 952 L 322 953 L 323 952 M 380 1004 C 392.53125 1006.324219 404.6875 1004.539063 417 1002 L 417 1003 C 412.96875 1005.007813 409.746094 1007.421875 407 1011 C 418.347656 1012 429.609375 1014.765625 441 1015 L 441 1016 C 439.230469 1016.566406 428.378906 1021.625 432.660156 1024.394531 C 435 1026 439.445313 1024.265625 442 1024.089844 C 448.898438 1023.617188 455.234375 1025.125 462 1026 L 462 1027 C 459.433594 1027.738281 457.328125 1028.683594 455 1030 L 455 1031 C 462.460938 1030.679688 469.71875 1028.503906 477 1027 L 477 1028 C 471.808594 1030 462.269531 1033.554688 459 1038 C 470 1038 498.175781 1029 499 1044 C 514.738281 1038.460938 518.289063 1053.269531 530 1060 C 529.335938 1055.089844 527.574219 1050.667969 526 1046 C 532 1053.089844 536.796875 1061.285156 542 1069 L 543 1069 C 543.984375 1063.175781 542.738281 1057 542 1051 L 543 1051 C 544 1056.773438 546.59375 1062.34375 552 1065 C 551.988281 1045.253906 534.378906 1037 531.328125 1019 C 530.707031 1015.347656 535.613281 1001.375 531.679688 1000.363281 C 527 999.183594 521.722656 1004.246094 518 1006.21875 C 508.640625 1011.179688 499 1013.496094 489 1016 C 497.453125 1006.324219 510.367188 997.214844 515 985 C 489 990.378906 466 1001 439 1003 L 439 1002 C 455 997.351563 479.339844 975.046875 482 958 C 467.566406 964.730469 457.9375 978.714844 442 984.300781 C 432 987.800781 435.257813 977.59375 428.867188 978 C 423.925781 978.257813 419.433594 984 416 986.820313 C 410 992 402.589844 996 395 998.078125 C 389.929688 999.46875 383.179688 999.355469 380 1004 M 1182.667969 960.667969 C 1182.722656 960.722656 1182.777344 961.777344 1182.332031 961.332031 C 1182.277344 961.277344 1182.222656 960.222656 1182.667969 960.667969 M 1019 962 C 1023.382813 980.449219 1043.425781 1001.546875 1062 1006 L 1062 1007 C 1045.792969 1007 1029.472656 1003.769531 1014 999 C 1005.359375 996.296875 997 991 988 990 C 993.226563 1001 1003.566406 1010.390625 1012 1019 C 994.699219 1018.640625 982.832031 1006.796875 967 1003 C 968.839844 1009.734375 971.929688 1015.796875 970.671875 1023 C 967.695313 1040.003906 951.601563 1051.597656 948 1069 C 953.671875 1066.289063 956.3125 1061 958 1055 L 959 1055 L 956 1072 C 962.832031 1069.78125 969.808594 1057.253906 973 1051 L 974 1051 C 971.972656 1057 968.941406 1062.707031 968 1069 C 978.367188 1060.4375 985.335938 1041.371094 1001 1049 C 1001.382813 1033.101563 1028.730469 1040.316406 1040 1043 C 1036.9375 1037.601563 1028.519531 1034.578125 1023 1032 L 1023 1031 C 1029.753906 1032 1036 1034 1043 1034 L 1043 1033 L 1039 1032 L 1039 1031 L 1069 1030 C 1066.195313 1026.050781 1062.632813 1023.171875 1059 1020 C 1069.5 1018 1080.253906 1016.089844 1091 1016 C 1089.585938 1012 1087 1009.121094 1084 1006 C 1091.710938 1008.167969 1100.949219 1010.289063 1109 1009.675781 C 1110.511719 1009.558594 1116.792969 1009.386719 1116.792969 1007.074219 C 1116.792969 1004.738281 1111.636719 1003.445313 1110 1002.8125 C 1102.511719 1000 1094.742188 997.78125 1088 993.25 C 1083.792969 990.421875 1077.554688 982.316406 1072 982.597656 C 1065.421875 983 1071.800781 994 1061 989.546875 C 1044.894531 983.144531 1034 969.660156 1019 962 M 307 1086 L 308 1086 C 324.511719 1057.710938 331 1028.515625 338 997 C 340.417969 986.140625 345.90625 976.3125 346 965 C 338 970.191406 333.507813 985.542969 329.695313 994 C 316.628906 1023 307 1054 307 1086 M 1156 971 C 1156.804688 981 1160.738281 990.363281 1162.789063 1000 C 1167.324219 1021.300781 1171.316406 1042.527344 1178.949219 1063 C 1182 1071.421875 1186.261719 1087 1194 1092 C 1193.914063 1061.382813 1182.824219 1030.054688 1171.601563 1002 C 1167.601563 992.007813 1164.761719 978 1156 971 M 719 1150 L 719 1151 C 708.972656 1151.429688 699 1152 689 1152 C 690.976563 1156.039063 693.640625 1158 698 1159 L 698 1160 C 695.246094 1160.511719 687.605469 1160.375 686.347656 1163.410156 C 684.433594 1168.015625 703.855469 1172.535156 707 1173 L 707 1174 C 683 1181 666.230469 1193 642 1178.546875 C 636.972656 1175.550781 632.425781 1172 628 1168.128906 C 623.695313 1164.433594 611.664063 1156.476563 612 1150.015625 C 612.355469 1146.597656 616.574219 1144.210938 619 1142.375 C 625.546875 1137.421875 632.222656 1132.785156 637 1126 C 629.703125 1128.671875 623.359375 1133.648438 617 1138.023438 C 614.589844 1139.683594 611.25 1143 608 1142.320313 C 601.96875 1141.097656 588.1875 1116.4375 593.332031 1111.703125 C 603.511719 1102.335938 623.5 1109 635 1102 C 626.347656 1096.816406 611.308594 1100.546875 602 1102.449219 C 597.710938 1103.328125 591.3125 1107 587.417969 1103.476563 C 582.972656 1099.617188 580.226563 1088 584.316406 1083.214844 C 593.175781 1073.175781 613 1067.390625 625 1061.78125 C 627.386719 1060.660156 643.992188 1055.390625 640.824219 1051.027344 C 638.320313 1047.578125 627.679688 1053.550781 625 1054.769531 C 614 1059.769531 603 1064.554688 591 1066.269531 C 587 1066.824219 581.652344 1068.183594 578.742188 1064.683594 C 575.507813 1060.789063 575.800781 1052.808594 574.625 1048 C 570.59375 1031.503906 568.59375 1000.816406 553 991 C 550.4375 999.589844 547.886719 1011 548 1020 C 548 1025.375 550.648438 1031.777344 555 1025 C 558.988281 1035.277344 562.546875 1045.539063 566 1056 C 566.949219 1059 570 1064.496094 568.648438 1067.484375 C 567.371094 1070.164063 562.488281 1070.167969 560 1070.585938 C 551.925781 1072 543.804688 1074 536 1076.34375 C 511.957031 1084.011719 488.980469 1094 466 1104.304688 C 458.96875 1107.476563 445.378906 1110.585938 441 1117 C 453 1114.136719 464.472656 1107.734375 476 1103.203125 C 496.996094 1095 518.316406 1087.515625 540 1081.289063 C 548 1079 556.613281 1076.339844 565 1075.179688 C 568 1074.746094 572.507813 1076 571.941406 1080 C 571 1086.46875 557.867188 1091.183594 553 1094.34375 C 536.445313 1105.09375 511 1116.332031 499 1132 C 518.839844 1123.824219 536.246094 1110.015625 555 1099.695313 C 560.273438 1096.792969 566 1091.449219 571.890625 1090 C 577.195313 1088.433594 581 1103.242188 578.382813 1106.722656 C 575.886719 1110.015625 570.648438 1110.570313 567 1112 C 558.710938 1114.796875 540.878906 1119.613281 536 1127 C 549.832031 1123.074219 566.523438 1112.410156 581 1113 C 564.648438 1128.015625 541 1140 533 1162 C 546.496094 1154.207031 556 1141 568 1131 C 571.792969 1127.746094 576.933594 1121.371094 581.957031 1120.40625 C 585.394531 1119.75 586.960938 1123.523438 588.242188 1126 C 591 1131.4375 600.222656 1142.789063 596.242188 1148.824219 C 586 1164.164063 560.332031 1166.773438 550 1181 C 563.296875 1179.007813 576.753906 1170.167969 588 1163.1875 C 590.570313 1161.589844 598 1154.589844 601.363281 1156.417969 C 603.496094 1157.605469 599.785156 1160.777344 598.960938 1161.484375 C 594 1165.722656 588.359375 1169.351563 583 1173 L 583 1174 C 590.300781 1173.253906 600.355469 1163.0625 606.957031 1164.738281 C 611.59375 1166 614 1173.332031 616.425781 1177 C 622 1186.066406 628.863281 1194 637 1201 C 648.867188 1211 662.886719 1218.730469 676 1227.054688 C 697.898438 1241 718.546875 1254.320313 745 1256.828125 C 774 1259.597656 801.539063 1240.183594 825 1225.8125 C 836.636719 1218.683594 848.878906 1212.519531 860 1204.574219 C 866 1200.203125 872.660156 1195.578125 877.699219 1190 C 880.566406 1186.765625 883.5 1180.542969 888 1179.457031 C 892 1178.453125 896.972656 1184.066406 900 1186.253906 C 907.964844 1192.007813 919.765625 1201.226563 930 1201 C 920 1191.570313 906.460938 1186.632813 897.484375 1176 C 893.640625 1171.320313 893.664063 1162.277344 901 1160.664063 C 906.40625 1159.484375 914.417969 1167.386719 919 1169.742188 C 930.351563 1175.574219 944 1180.445313 957 1181 L 957 1180 C 941.355469 1173.03125 916.921875 1169.457031 905.332031 1155.785156 C 901.488281 1151.25 912 1125.253906 918 1123.554688 C 925.421875 1121.445313 939.464844 1131.214844 947 1133 C 941.296875 1124.367188 923.800781 1126.039063 919 1117 C 916.660156 1112.203125 922.667969 1094.515625 928 1093.359375 C 933.265625 1092.234375 939.910156 1096.125 945 1097.195313 C 957.917969 1100 970.925781 1101.347656 984 1103 C 980.898438 1099.164063 973.648438 1099.335938 969 1098.398438 C 958.648438 1096.316406 936.84375 1094.289063 929.257813 1086.582031 C 923.300781 1080.53125 934.484375 1080 938 1080.613281 C 953 1083.238281 967.875 1086.089844 983 1088 C 979.996094 1084.289063 973.46875 1084.371094 969 1083.347656 C 956 1080.394531 943.34375 1076.035156 930 1076 C 937.5 1063.746094 934.960938 1053 939 1040 C 941.480469 1032.507813 944 1026.167969 951 1033 C 954.648438 1020.652344 949 1005.765625 949 993 C 935.769531 1004.339844 930.433594 1031.519531 927.753906 1048 C 926.753906 1054.144531 927.699219 1069.382813 921.773438 1073 C 918.617188 1075 914.386719 1073.320313 911 1073.089844 C 903.390625 1072.570313 895.625 1073 888 1073 L 888 1074 C 896.1875 1076 913.308594 1073.714844 919.679688 1079 C 925.390625 1083.46875 916 1100.601563 914 1106 C 913 1108.683594 912 1112.351563 908.890625 1113.210938 C 905 1114.230469 900.390625 1111 897 1109.695313 C 888.183594 1106.496094 879.179688 1104.730469 870 1103 C 874.171875 1109 889 1111.644531 896 1114 C 899.328125 1115.132813 905 1116.101563 906.207031 1120.109375 C 908.300781 1128.035156 892.722656 1144.5625 887.828125 1150 C 873.390625 1166.042969 850.910156 1184 828 1183.820313 C 817.402344 1183.808594 805.519531 1178.21875 796 1174 C 804.492188 1171.800781 814.804688 1170.785156 819 1162 L 805 1161 L 805 1160 C 809.609375 1158.527344 812.679688 1156.269531 815 1152 L 784 1152 C 800.324219 1132.367188 821.605469 1121.597656 832.6875 1097 C 837.441406 1086.449219 839 1075.371094 840.171875 1064 C 840.953125 1056 840.566406 1048.082031 839.246094 1040 C 831.308594 991.425781 784 988 744 988 C 721.765625 988 695.285156 989.070313 678 1005.175781 C 659 1023 656 1053.003906 661.210938 1077 C 664 1090.152344 670 1102.347656 678.234375 1113 C 688.257813 1126.109375 702.6875 1144.792969 719 1150 M 274 991 C 264.21875 1021.058594 254.945313 1050.617188 240.753906 1079 C 237.417969 1085.671875 233.652344 1092.234375 230.53125 1099 C 229.808594 1100.5625 228.191406 1104.28125 230.605469 1105.289063 C 237.851563 1108.300781 248.929688 1087.746094 251.796875 1083 C 264.28125 1062.335938 271.757813 1040 275.273438 1016 C 276.390625 1008.414063 279.835938 997.230469 274 991 M 1226 997 C 1223.839844 1004.304688 1225 1012.539063 1225.832031 1020 C 1228.1875 1043.585938 1235.558594 1066 1248.226563 1086 C 1252.414063 1092.644531 1257.265625 1098.582031 1263 1104 C 1264.816406 1105.65625 1268.535156 1109.636719 1271.394531 1108 C 1277.304688 1104.203125 1266 1086 1263.859375 1082 C 1254 1064.316406 1244.574219 1046 1237.425781 1027 C 1233.820313 1017.449219 1233 1004.675781 1226 997 M 418 1001 L 417 1002 L 418 1001 M 309 1145 C 314.472656 1142.203125 316.601563 1136.289063 319.246094 1131 C 325.175781 1119.144531 332.382813 1105.492188 333 1092 L 334 1092 C 338.574219 1128.203125 322.371094 1163.082031 329.601563 1199 C 331.839844 1210.128906 334.703125 1227.617188 346 1233 C 341 1206.253906 337.234375 1176 342.261719 1149 C 343.949219 1140 352.761719 1133.117188 353.683594 1125 C 354.390625 1118.734375 351.621094 1111.179688 350.585938 1105 C 348.195313 1090.75 345.539063 1076.390625 344.171875 1062 C 342.664063 1046.203125 348.988281 1031.539063 349 1016 C 340.285156 1021.125 334.175781 1035.179688 329.753906 1044 C 314 1075.375 315.972656 1111.21875 309 1145 M 728 1028 C 742.613281 1014.449219 772.703125 1020.605469 790 1024.425781 C 794.53125 1025.425781 812.9375 1029.359375 809.339844 1037.398438 C 807.1875 1042.199219 793.203125 1035.214844 790 1034.195313 C 769.386719 1027.621094 749.386719 1026.3125 728 1028 M 1151 1021 C 1151 1037.621094 1156.414063 1054.355469 1154.828125 1071 C 1153 1089.269531 1143.734375 1108.636719 1145.226563 1127 C 1145.777344 1133.824219 1150.972656 1139 1153.535156 1145 C 1158.765625 1157.375 1163.652344 1172.488281 1163.984375 1186 C 1164.414063 1203.550781 1156 1219.5625 1156 1237 C 1164 1233.230469 1169 1224.015625 1172.1875 1216 C 1183.242188 1187.726563 1166.867188 1163.25 1164.171875 1135 C 1162.816406 1121 1164.894531 1107 1166 1093 L 1167 1093 C 1167 1114 1178.355469 1133.609375 1189 1151 C 1192.875 1141.746094 1185.636719 1127.527344 1184.285156 1118 C 1182.308594 1104.058594 1183.335938 1090 1180.550781 1076 C 1178 1063.703125 1172.214844 1053 1166.308594 1042 C 1162.339844 1034.660156 1158.882813 1025 1151 1021 M 525.667969 1044.667969 C 525.722656 1044.722656 525.777344 1045.777344 525.332031 1045.332031 C 525.277344 1045.277344 525.222656 1044.222656 525.667969 1044.667969 M 974.667969 1049.667969 C 974.722656 1049.722656 974.777344 1050.777344 974.332031 1050.332031 C 974.277344 1050.277344 974.222656 1049.222656 974.667969 1049.667969 M 364 1072 C 364 1111.417969 343 1148.183594 349.273438 1188 C 350.679688 1197.09375 353.28125 1206 354.917969 1215 C 355.230469 1216.734375 355.769531 1223.726563 358.792969 1223.078125 C 361.351563 1222.527344 361.308594 1217 361.574219 1215 C 362.796875 1206.164063 363.765625 1197 363.984375 1188 C 364.691406 1159.191406 371 1130.828125 371 1102 C 371 1093.015625 373.445313 1077 364 1072 M 592 1072 L 592 1073 C 587.558594 1074.617188 583.707031 1077.160156 579 1078 C 580.859375 1071.269531 585.96875 1072 592 1072 M 1142 1232 L 1143 1232 C 1147 1220.027344 1145 1205.507813 1145 1193 C 1145 1174.058594 1146 1154.816406 1143.714844 1136 C 1141.222656 1116 1135 1096.289063 1135 1076 C 1126.527344 1081.289063 1126.753906 1104 1127 1113 C 1127.824219 1137.480469 1132.394531 1161.644531 1134.832031 1186 C 1136.34375 1201.121094 1134.714844 1218.171875 1142 1232 M 721 1093 L 721 1094 C 708.785156 1097.441406 698 1098 686 1094 C 698.992188 1089 707.949219 1089.242188 721 1093 M 816 1098 C 808.457031 1103.644531 793.921875 1105.507813 785 1102.671875 C 781 1101.402344 774.601563 1097.234375 775.957031 1092.148438 C 776.957031 1088.394531 781.34375 1089.300781 784 1090.351563 C 795.316406 1094.828125 805.304688 1091.699219 816 1098 M 415 1110 C 415 1159.632813 400.992188 1204.226563 422.769531 1252 C 427 1261.351563 431 1274.195313 439 1281 C 439 1269.277344 437.945313 1257.695313 438 1246 C 438 1240.066406 439.882813 1234 438.609375 1228 C 437 1221 431.542969 1215.644531 429 1209 C 423.597656 1194.105469 420.402344 1176 420 1160 C 419.726563 1148.28125 419 1136.726563 419 1125 C 419 1119.742188 419.808594 1113.292969 415 1110 M 811 1110 L 811 1111 C 803.78125 1116.171875 798 1120 789 1120 C 794.441406 1113.070313 802.949219 1112.085938 811 1110 M 1059 1288 C 1071.203125 1282.183594 1075.683594 1262.671875 1080.1875 1251 C 1097.859375 1205.234375 1085 1161.109375 1085 1114 C 1080.308594 1117.109375 1080 1123.761719 1080 1129 C 1079.867188 1140.597656 1079.703125 1152.425781 1078.910156 1164 C 1077.789063 1180.390625 1076 1197.332031 1070.792969 1213 C 1068 1221 1061.59375 1227.707031 1060.34375 1236 C 1057.789063 1253 1062.230469 1270.671875 1059 1288 M 437 1130 C 434.660156 1139.820313 436 1151 436 1161 C 436 1177.363281 433.964844 1195.148438 438.722656 1211 C 440.914063 1218.3125 444.964844 1230.34375 452 1234 C 451.527344 1211.128906 443 1189 442 1166 C 441.613281 1156.351563 443.25 1137.636719 437 1130 M 1047 1239 C 1055.585938 1232.808594 1059.453125 1221.074219 1061.386719 1211 C 1066 1186.832031 1063 1159.546875 1063 1135 C 1057.335938 1139 1058.332031 1155.378906 1057.964844 1162 C 1056.527344 1187.8125 1047 1213.363281 1047 1239 M 455 1153 C 447.867188 1191.289063 458.9375 1228.699219 459 1267 C 459 1276.046875 457.980469 1285 458 1294 C 458 1296 457.324219 1302.71875 460.921875 1302.078125 C 464 1301.523438 464 1296.347656 464.609375 1294 C 466.273438 1285.28125 468.648438 1276.703125 470.398438 1268 C 473.445313 1253 476.375 1237.367188 473.535156 1222 C 471.425781 1210.574219 463.832031 1201.777344 460 1191 C 455.914063 1179 457 1165.574219 457 1153 L 455 1153 M 501 1153 C 502.976563 1178.011719 509.203125 1205 516 1229 L 517 1229 C 517 1206.738281 519.984375 1169.273438 501 1153 M 1042 1159 C 1041 1171.160156 1040.949219 1183.160156 1037.574219 1195 C 1033.617188 1209 1026.617188 1222.542969 1025.171875 1237 C 1023.941406 1249.304688 1026.1875 1261.019531 1028.601563 1273 C 1030.488281 1282.382813 1032.953125 1291.675781 1035 1301 C 1035.480469 1302.558594 1036.464844 1310.113281 1039.503906 1308.652344 C 1041.84375 1307.53125 1041 1302.03125 1041 1300 L 1041 1274 C 1041 1245.15625 1047 1217 1047 1188 C 1047 1180 1049.65625 1164.242188 1042 1159 M 996 1160 C 985.792969 1177.488281 983.703125 1195.328125 981.828125 1215 C 981 1223.304688 979.601563 1233 982 1241 L 983 1241 C 988.332031 1223 989.265625 1201.71875 993.425781 1183 C 994.996094 1176 998.972656 1167.089844 996 1160 M 368 1161 C 368 1193.691406 364.234375 1229.136719 377.285156 1260 C 381.402344 1269.738281 386.445313 1283.824219 397 1288 C 387.59375 1259.089844 381.792969 1230.140625 377.429688 1200 C 375.714844 1188.171875 377 1170.015625 368 1161 M 959 1161 C 959 1201.371094 956.300781 1243.4375 947.574219 1283 C 945 1294.453125 939 1304.804688 936.527344 1316 C 931.9375 1336.015625 940.453125 1357.417969 931.480469 1377 C 927.730469 1385.183594 919.707031 1386.703125 915 1393 C 943.71875 1389.113281 941.761719 1356.609375 946.882813 1335 C 955.433594 1299 967.507813 1263.316406 968.960938 1226 C 969.804688 1204.277344 962.703125 1182.570313 961 1161 L 959 1161 M 584 1384 C 579.410156 1378 571.882813 1377.128906 568.183594 1369 C 558.621094 1348 565.917969 1321.421875 560.984375 1299 C 555 1272.074219 542.800781 1247.707031 539.835938 1220 C 538.289063 1205.585938 538 1191.503906 538 1177 C 538 1175.050781 539 1164.207031 535.945313 1164.207031 C 532.632813 1164.207031 529.59375 1173.539063 528.695313 1176 C 523.9375 1189.054688 521.652344 1205.148438 523.285156 1219 C 528.496094 1263.152344 547.652344 1303.355469 555.25 1347 C 558.179688 1363.828125 564.367188 1382.394531 584 1384 M 1129 1169 C 1128 1213 1109.3125 1254.246094 1103 1297 C 1113.675781 1290.777344 1119.230469 1277.1875 1123.304688 1266 C 1134.320313 1235.757813 1130.996094 1200.550781 1131 1169 L 1129 1169 M 489 1177 C 489 1201.113281 486.242188 1225.148438 482.726563 1249 C 479.769531 1269.089844 475.585938 1290.640625 484.3125 1310 C 492.632813 1328.453125 509.609375 1340 523.984375 1353.171875 C 533.660156 1362.144531 541.894531 1376.816406 555 1381 C 550.515625 1362.074219 539.328125 1339.746094 526.699219 1325 C 514.585938 1311 499.746094 1303.3125 494.894531 1284 C 488.617188 1259.007813 494 1233.300781 494 1208 C 494 1198.53125 496 1184.371094 489 1177 M 943 1391 C 956.542969 1387.015625 965.214844 1372.398438 975 1363.039063 C 988.523438 1350.109375 1005.183594 1339.445313 1013.507813 1322 C 1023.878906 1300.261719 1019.5625 1276 1016.269531 1253 C 1013 1230.296875 1011 1208 1011 1185 C 1004.527344 1188.484375 1005 1197.464844 1005 1204 C 1004.992188 1220.386719 1007 1236.644531 1007 1253 C 1007 1268.621094 1008.351563 1285.246094 1002 1300 C 995.703125 1315.210938 980.960938 1322.4375 971.234375 1335.003906 C 958.761719 1351.117188 950.789063 1372.289063 943 1391 M 393 1186 C 393 1204.71875 389.515625 1223.78125 395.519531 1242 C 401.917969 1261.421875 416.503906 1276.132813 425.742188 1294 C 430 1302.40625 431.640625 1323 439 1328 C 436 1290.117188 414.949219 1259.164063 402.695313 1224 C 400 1216.304688 397.714844 1208.132813 397 1200 C 396.601563 1195.460938 396.835938 1189 393 1186 M 1105 1192 C 1103.925781 1244.175781 1061 1284.738281 1061 1336 L 1063 1336 C 1064 1311 1081.21875 1292.4375 1093.550781 1272 C 1102.882813 1256.527344 1107.972656 1239.125 1108 1221 C 1108 1212.257813 1110.222656 1199.515625 1105 1192 M 651.320313 1196.601563 C 656.753906 1194 665.832031 1198.242188 671 1200.003906 C 689.628906 1206.347656 705.703125 1218.105469 724 1225.1875 C 761 1239.527344 791.933594 1215.175781 825 1202 C 831.945313 1199.234375 839.515625 1197 847 1196.171875 C 849.605469 1196 856.449219 1196.265625 853.199219 1200.601563 C 850.785156 1203.816406 845.59375 1204 842 1204.609375 C 834 1206.097656 826.4375 1208.257813 819 1211.203125 C 787.972656 1223.496094 752.816406 1251.371094 718 1235.6875 C 697.453125 1226.433594 680.777344 1213.648438 659 1206.65625 C 656.347656 1205.804688 643.863281 1200.285156 651.320313 1196.601563 M 566 1221 C 585.65625 1258.359375 585.8125 1302.765625 607 1339 C 614.570313 1352 626.5625 1368.445313 641 1374 C 639 1369 635.625 1364.71875 633 1360 C 648.652344 1370.558594 668.601563 1385.304688 688 1387 L 688 1386 C 670.28125 1374.046875 646.402344 1358.765625 640 1337 C 656.914063 1354 675.898438 1363.683594 695 1377.429688 C 704.914063 1384.5625 712.597656 1394.492188 723 1401 C 720 1392 711.523438 1385.523438 705 1379 C 693 1367.019531 681.21875 1355 670.273438 1342 C 652.542969 1321.03125 640.179688 1297.664063 630.679688 1272 C 624.847656 1256.238281 620 1232.429688 606 1222 C 606 1233.808594 609.710938 1245.277344 610.828125 1257 C 612.71875 1276.742188 612.777344 1295 619 1314 C 602 1294.136719 598 1267.824219 586.753906 1245 C 582.277344 1236 576.523438 1223.734375 566 1221 M 880 1320 C 889.785156 1290 885.367188 1257.652344 894 1227 C 885.546875 1231 882.207031 1241 878.71875 1249 C 870.761719 1267.453125 864.851563 1286.679688 856.5625 1305 C 845.847656 1328.691406 828.503906 1351 810 1369 C 796.316406 1382.332031 780.671875 1394 770 1410 C 781.214844 1405.660156 789.347656 1394.371094 799 1387.429688 C 818.828125 1373.160156 840.558594 1362.429688 858 1345 C 851.597656 1360.300781 838.523438 1371.613281 826 1382 C 820.464844 1386.46875 812.65625 1389.679688 809 1396 C 830.324219 1391.066406 846.625 1377.054688 866 1368 C 862.652344 1372.65625 858.859375 1377.027344 856 1382 C 866.875 1378.777344 877 1367.707031 883.984375 1359 C 906.382813 1330.417969 908.886719 1293 917.628906 1259 C 920.761719 1247 929.714844 1235.820313 932 1224 C 924 1227.832031 918.953125 1237.691406 914.605469 1245 C 900.679688 1268.402344 899.316406 1300.21875 880 1320 M 772 1356 C 781 1353.523438 788.976563 1343.832031 795 1337 C 813.332031 1316.429688 826.171875 1291.675781 832.871094 1265 C 835 1256.304688 838.5625 1246.050781 837.8125 1237 C 837.625 1234.761719 837 1229.457031 834.710938 1228.347656 C 832.234375 1227.195313 830.585938 1233.574219 830 1235 C 827.191406 1242.613281 824.570313 1250.285156 822 1258 C 809.953125 1294.136719 790.289063 1323.019531 772 1356 M 667 1243 C 670.980469 1274.511719 679.996094 1303.757813 700 1329 C 706.453125 1337.140625 712.378906 1346.421875 722 1351 C 712.839844 1326 694.257813 1304.304688 684.683594 1279 C 680.761719 1268.636719 676.929688 1249.070313 667 1243 M 639 1251 C 639 1298.492188 670.679688 1333.019531 704 1363.171875 C 712.265625 1370.648438 718.722656 1379.65625 728 1386 C 724.703125 1375.652344 715.574219 1366.257813 708.75 1358 C 694.980469 1341.335938 680 1325.617188 667.425781 1308 C 660 1297.6875 652.882813 1286.742188 648 1275 C 644.859375 1267.40625 643.933594 1257.59375 639 1251 M 852 1263 C 844.46875 1299.382813 818.691406 1329.242188 795.585938 1357 C 785.5 1369.121094 770.660156 1382.066406 765 1397 C 777.195313 1390.675781 787.335938 1376.664063 797 1367 C 826 1338 853.640625 1306.527344 854 1263 L 852 1263 M 472 1293 C 474.269531 1305.175781 476.703125 1317.015625 479.882813 1329 C 481.375 1334.617188 482.546875 1341.144531 488 1344 C 487.464844 1331.582031 482.863281 1318 479.277344 1306 C 477.863281 1301.304688 476.226563 1295.769531 472 1293 M 1026 1303 C 1020.550781 1319.75 1017 1336.050781 1013 1353 C 1023.878906 1347.636719 1023.894531 1327.550781 1025.589844 1317 C 1026.328125 1312.398438 1027.855469 1307.433594 1026 1303 M 573 1312 C 573 1334.75 573 1368.265625 602 1372 C 599.710938 1360.167969 587.433594 1352.246094 583 1341 C 579.925781 1333 580.550781 1317.167969 573 1312 M 620 1314 L 619 1315 L 620 1314 M 880 1320 L 879 1321 L 880 1320 M 897 1380 C 926.496094 1378.714844 925.9375 1342 926 1320 C 920.949219 1323.238281 921 1332.519531 919.574219 1338 C 917.261719 1346.425781 914.574219 1354.695313 909.640625 1362 C 905.492188 1368.144531 899.382813 1372.816406 897 1380 M 640 1336 L 639 1337 L 640 1336 M 633 1359 L 632 1360 L 633 1359 M 867 1367 L 866 1368 L 867 1367 "/>
</g>
</svg>
