<?xml version="1.0" encoding="UTF-8"?>
<svg xmlns="http://www.w3.org/2000/svg" xmlns:xlink="http://www.w3.org/1999/xlink" width="1500pt" height="1500pt" viewBox="0 0 1500 1500" version="1.1">
<g id="surface1">
<path style=" stroke:none;fill-rule:nonzero;fill:rgb(0%,0%,0%);fill-opacity:1;" d="M 243 818 C 251.511719 814.328125 258 807.554688 266 803 C 245.242188 842 238.789063 886.285156 212.421875 923 C 205.710938 932.34375 197.191406 940.09375 187 945.511719 C 184.53125 946.824219 176.265625 949 176.921875 952.824219 C 177.582031 956.722656 185.285156 956.074219 188 956 C 197.890625 955.542969 207.214844 953 216 948.433594 C 218.273438 947.289063 221.699219 945.648438 222.667969 949.164063 C 224.449219 955.628906 218.453125 966 216.308594 972 C 208.710938 993.34375 188.796875 1043.746094 221 1055 C 221 1045.082031 220.492188 1035.082031 227.328125 1027.015625 C 229.453125 1024.507813 233 1020.484375 236.867188 1022.136719 C 241.746094 1024.316406 240.996094 1031.695313 241 1036 C 241 1048.773438 243.195313 1061.039063 247.8125 1073 C 252.757813 1085.820313 258 1099.480469 267.324219 1110 C 271 1114.3125 276.816406 1116.539063 280.363281 1121.09375 C 285.179688 1127.273438 287.433594 1135.410156 291.699219 1142 C 301.179688 1156.644531 316.828125 1169.027344 334 1173 C 333.695313 1158.199219 324.339844 1138.429688 334 1125 C 341 1142.136719 355.960938 1158.539063 371 1169.363281 C 377.773438 1174.234375 385.96875 1175.714844 391.816406 1182.039063 C 398 1189 401 1198.035156 407.183594 1205 C 413.824219 1212.546875 423.515625 1217 429.582031 1225 C 433.847656 1230.652344 433 1238.785156 439 1243.347656 C 447.1875 1249.507813 458 1240.496094 464.824219 1246.269531 C 470.605469 1251.253906 474.183594 1259.25 479.285156 1265 C 487 1274 497.625 1281.054688 508 1286.691406 C 512.425781 1289.097656 519.515625 1294.65625 524.851563 1293.589844 C 531.777344 1292.199219 522.679688 1273.785156 521 1270 C 533.566406 1277.824219 544 1289 558 1294.546875 C 573.707031 1301 591.773438 1301.503906 605.984375 1311.359375 C 612.996094 1316.222656 613.96875 1323.480469 618.636719 1330 C 624.335938 1338 635.191406 1343.066406 645 1342.738281 C 660 1342.238281 655.75 1327.476563 652.191406 1318 C 651.613281 1316.449219 647.609375 1307 652 1307.78125 C 656.789063 1308.59375 660.578125 1317.40625 662.808594 1321 C 670.6875 1333.710938 678 1347.351563 689 1357.714844 C 695.605469 1364 703.683594 1369.722656 713 1370 C 717.675781 1370.054688 722.386719 1367.589844 727 1368.433594 C 734.460938 1369.796875 739.273438 1377.074219 747 1378.53125 C 758.199219 1380.644531 764.265625 1373.605469 774 1370.652344 C 779.863281 1369 785.929688 1371.738281 792 1370 C 810.335938 1364.578125 822.628906 1346.738281 831.714844 1331 C 834.902344 1325.480469 841.824219 1309 848.683594 1307.632813 C 852.574219 1307 849 1315.644531 848.671875 1317 C 845.742188 1326.027344 840.515625 1341.441406 855 1342.609375 C 878.75 1344.523438 880.972656 1321.414063 896 1310.636719 C 908.476563 1301.6875 924.933594 1300.679688 939 1295.5625 C 953.914063 1290.140625 966.699219 1279.761719 979 1270 C 978.195313 1275.4375 971 1286.628906 974 1291.667969 C 977.382813 1297.203125 989.535156 1288.207031 993 1286.304688 C 1004.390625 1280.050781 1014 1272.53125 1022.910156 1263 C 1027.855469 1257.691406 1031.972656 1249.613281 1038 1245.601563 C 1045.398438 1240.738281 1055.472656 1248.601563 1062.890625 1242.566406 C 1068.871094 1237.703125 1067.957031 1228.734375 1073.214844 1223.175781 C 1077.789063 1218.335938 1084 1215.53125 1088.824219 1210.824219 C 1093.964844 1205.691406 1097.210938 1199 1103 1194.394531 C 1107.230469 1191.078125 1112.890625 1190.496094 1116.816406 1186.773438 C 1120.898438 1183 1122.777344 1177.308594 1126.328125 1173 C 1132 1166.054688 1139.214844 1160.6875 1146 1155 C 1153.757813 1148.214844 1159.242188 1141.246094 1163.589844 1132 C 1164.359375 1130.371094 1166.507813 1125.132813 1169 1127 C 1171.628906 1128.585938 1171.578125 1135.335938 1171.828125 1138 C 1172.949219 1150 1167.507813 1161.253906 1167 1173 C 1185 1168.804688 1200.792969 1156.488281 1210.921875 1141 C 1215 1134.644531 1217.285156 1127.136719 1221.789063 1121.015625 C 1225.574219 1116 1231.488281 1113.003906 1235.480469 1108 C 1244.84375 1096.261719 1251 1081.277344 1255.277344 1067 C 1257.652344 1059.042969 1259.78125 1050.332031 1259.984375 1042 C 1260 1037 1258.34375 1028.609375 1261 1024.152344 C 1264.28125 1018.742188 1270 1024 1272.785156 1027.015625 C 1279.328125 1034.496094 1277.609375 1042.324219 1280.433594 1051 C 1281.179688 1053.097656 1282.902344 1053.707031 1285 1052.761719 C 1295.777344 1048.027344 1298.882813 1031.324219 1297.421875 1021 C 1293.679688 994.589844 1281.34375 970.304688 1278 944 C 1288.929688 950.058594 1299.183594 955.402344 1312 956 C 1314.839844 956.085938 1323.394531 957 1324 952.816406 C 1324.761719 948.707031 1316.636719 946.523438 1314 945.191406 C 1303.5 940 1294.324219 930.65625 1287.746094 921 C 1271.453125 897.078125 1261.566406 869.792969 1251.1875 843 C 1246.328125 830.453125 1238.976563 817.382813 1237 804 C 1240 806.070313 1243 808.1875 1246 810.371094 C 1248.5 812.214844 1253.90625 817.359375 1257.398438 816.183594 C 1260.375 815.179688 1258.921875 806.4375 1259 804 C 1259.710938 795 1261 786.101563 1261 777 C 1260.996094 773.273438 1259.878906 768.191406 1262.554688 765.140625 C 1269.175781 757.574219 1294.554688 762 1304 762 C 1300.847656 754 1292.972656 748.796875 1286 744.027344 C 1283 742.089844 1277.398438 739.78125 1276.207031 736.285156 C 1274.820313 732.226563 1289.894531 724.390625 1292.996094 722.757813 C 1294.476563 722 1299.417969 720.007813 1297.246094 717.636719 C 1293 713.066406 1276.234375 715.253906 1270 713.253906 C 1251.855469 707.4375 1233.964844 690.03125 1227.699219 672 C 1222.839844 658.007813 1240.59375 660.71875 1242.636719 650 C 1244.53125 640.078125 1229 637.679688 1228.175781 629.003906 C 1227.664063 624.363281 1234.179688 621.632813 1236.894531 619 C 1241.425781 614.328125 1242.917969 608.285156 1241.65625 602 C 1238.59375 586.71875 1210.972656 589.441406 1209.972656 574.015625 C 1209.292969 563.566406 1233.65625 568.277344 1231.320313 555 C 1229.6875 545.738281 1217 545.046875 1210 543.347656 C 1207.359375 542.714844 1201 541.617188 1201 538 C 1201 534 1208 532.023438 1210.472656 529.609375 C 1213.5 526.527344 1214.835938 522.269531 1218 519.339844 C 1224.890625 513.261719 1234 513.03125 1234.785156 502 C 1235.585938 489.761719 1224.359375 478.09375 1225.488281 467 C 1226.675781 455.359375 1242.84375 451.695313 1239.472656 437 C 1238 430.628906 1233.597656 426.34375 1228 423.324219 C 1224.753906 421.574219 1218.28125 420.164063 1218.195313 415.558594 C 1218 410.007813 1223.3125 404.472656 1224.480469 399 C 1225.960938 392.082031 1224.910156 385 1226.757813 378 C 1230.945313 362.152344 1238.769531 347.625 1239.910156 331 C 1242.527344 292.8125 1225.808594 257.457031 1222.171875 220 C 1219.730469 195 1222.960938 154.722656 1201.960938 136.324219 C 1188 124.238281 1166.449219 123 1149 123 C 1088.285156 123 1044.296875 168.1875 1002 207.085938 C 990.714844 217.464844 979.285156 234.300781 966 241.730469 C 958.570313 246 946.242188 237.65625 937 240 C 925.875 242.601563 915.503906 250 907 257.4375 C 903.867188 260.238281 899.683594 267.789063 895 267.792969 C 891.277344 267.796875 887.835938 262.78125 885 260.800781 C 878.527344 256.28125 868.230469 254 861 258.089844 C 846.492188 266.613281 861 286.070313 859 298 C 857.949219 305.226563 848.261719 309 843.425781 313.464844 C 839.960938 316.734375 836.230469 322.636719 831 323 C 827 323.074219 822.855469 320.492188 819 319.667969 C 813.710938 318.539063 808.277344 319.566406 803 318.484375 C 795.585938 317 788.734375 313.59375 781 314.089844 C 774.285156 314.519531 766.980469 316.277344 761 319.402344 C 757.625 321.164063 753.710938 325.488281 749.574219 324.804688 C 745.4375 324.121094 741.753906 320.109375 738 318.324219 C 731.175781 315.085938 723.519531 313.699219 716 314.039063 C 705 314.53125 691.707031 317.695313 681 320.015625 C 675.59375 321.183594 670.261719 324.335938 665 321.105469 C 659.628906 317.808594 641.917969 303.214844 641.398438 297 C 640.410156 285.121094 654.351563 265.375 638.984375 257.457031 C 632 254 621.992188 256.273438 616 260.789063 C 613 263.054688 610 268.515625 606 268.515625 C 600.710938 268.515625 596 260.371094 592.910156 257.039063 C 585.472656 249.414063 575.332031 243 565 240.160156 C 555.390625 237.570313 542.730469 246 535 241.824219 C 520 234 510.355469 216.347656 498 205.171875 C 482.828125 191.445313 466.558594 179 451 165.726563 C 434.519531 151.675781 418.585938 137.171875 398 129.425781 C 376.238281 121.238281 352.699219 120.789063 330 124.4375 C 312.835938 127.195313 298.199219 132.578125 289.972656 149 C 277.703125 173.476563 281.261719 202.683594 277.71875 229 C 272.199219 270 254.730469 308.050781 264 350 C 266 359.402344 271 367.820313 273.792969 377 C 275.96875 384.25 275.507813 391.6875 277 399 C 278.257813 404.121094 283.195313 409.617188 282.496094 415 C 281.835938 420.074219 275.703125 421.203125 272 423.363281 C 266.855469 426.359375 262.4375 431.195313 260.789063 437 C 256.710938 451.355469 273.824219 455.519531 275.578125 467 C 276.1875 471.007813 273 475.371094 271.695313 479 C 268.769531 487.027344 265.644531 496.324219 267.226563 505 C 268.644531 512.753906 276.722656 514.042969 281.957031 518.390625 C 285.808594 521.589844 287.632813 526.34375 291.183594 529.785156 C 293.449219 532 299.945313 534.246094 299.945313 538 C 299.945313 541.339844 294.476563 542.46875 292 543.105469 C 285.171875 545 274.925781 545 271.179688 552.042969 C 263.609375 566.511719 292.980469 564 291.199219 575.003906 C 288.757813 590.214844 263.242188 587.105469 259.53125 603 C 258 609.113281 260.675781 615.203125 265.183594 619.335938 C 267.960938 622 273.347656 624.625 273.246094 629 C 273 638.050781 256.261719 640.007813 258.570313 650 C 260.972656 660.382813 278.449219 658.410156 273.757813 672 C 267.660156 689.648438 250.746094 706.609375 233 712.480469 C 225.667969 715 217.679688 715.605469 210 716 C 208.167969 716.09375 203.441406 716 202.921875 718.378906 C 202.378906 721 207.367188 722.078125 209 722.695313 C 213.738281 724.484375 223.351563 729 224.21875 734.714844 C 224.640625 737.53125 220.851563 740 218.996094 741.339844 C 214.867188 744.617188 197.851563 754.316406 198.921875 760.4375 C 199.539063 764 206.816406 762.371094 209 762.167969 C 217.191406 761.414063 232 757.816406 238.683594 764.417969 C 242.664063 768.410156 240 775.058594 240 780 C 240 792.683594 243 805.277344 243 818 M 562 286 C 567 281.089844 561.660156 271 565.605469 268.273438 C 572.34375 263.726563 582 277 580.484375 283 C 578.613281 290 571.671875 295.234375 567.746094 301 C 558.550781 314.507813 553.449219 334 538 342 C 515.886719 353.320313 494.914063 327.550781 474 335 C 487.742188 347.542969 499.8125 360.808594 513 374 C 516.511719 377.511719 523 386.566406 528.851563 386 C 536.992188 384.808594 524.636719 371.222656 528.695313 368.121094 C 530.875 366.457031 534.457031 369 536.960938 368.210938 C 540.546875 367.277344 541.878906 363.175781 545.183594 361.742188 C 556.417969 357 566.964844 362.71875 566 345 C 565.972656 342.734375 565.78125 336.164063 569.847656 337.496094 C 573.394531 338.660156 575.226563 345.007813 576.757813 348 C 579.835938 354.011719 583.453125 358.179688 589 362 C 585.648438 347.511719 579.53125 334.296875 582.664063 319 C 583.410156 315.371094 585.203125 305.347656 590.699219 306.175781 C 593.4375 306.589844 595.46875 322.800781 597.800781 326 C 598.867188 327.4375 601.863281 331.292969 603.972656 329.246094 C 606.289063 327.003906 604.410156 319.148438 604.925781 316 C 606.507813 306.359375 610.441406 290.496094 618 284 C 619.730469 291.269531 618 298.699219 619.464844 306 C 620.996094 314.519531 624.964844 322.488281 626.535156 331 C 627.421875 335.789063 626.480469 345.085938 630.511719 348.535156 C 637.894531 355 638.863281 333.207031 643.191406 333.207031 C 646.765625 333.207031 646 341 645.621094 343 C 643.59375 353.28125 638.367188 362.402344 637 373 C 646.917969 363.082031 656.910156 354.445313 670 349.011719 C 677.523438 346 686.644531 342.382813 683 354 C 697.328125 346 713.296875 329.09375 730.996094 339.367188 C 737.460938 343.117188 742.191406 358 750 358.050781 C 757.269531 358.253906 764.558594 342.089844 772 339 C 790.367188 331 802.910156 346.828125 818 354 C 813 342.234375 823.59375 345.578125 831 348.320313 C 845.738281 353.773438 852.621094 363.351563 864 373 C 861.5 363 855.835938 352.390625 855 342 C 854.898438 339.34375 854.320313 332.589844 858 332 C 861.699219 331.277344 862.683594 356.511719 870.273438 348.621094 C 874 344.707031 872.777344 337 873.886719 332 C 876 322.535156 880 313.621094 881.5625 304 C 882.597656 297.351563 881 290.480469 883 284 L 884 284 C 890 293.292969 893.964844 304 895.558594 315 C 896 318.355469 893.339844 327 896.738281 329.078125 C 899.480469 330.804688 902.355469 325.816406 903.351563 324 C 905.472656 320.128906 904.894531 300.207031 909 300.207031 C 914.367188 300.207031 916.398438 310.222656 917.371094 314 C 921.625 330.546875 918 346.484375 912 362 C 919.527344 357 923.617188 350.566406 926.65625 342 C 927.683594 339.097656 928.949219 333 932.957031 332.753906 C 938.445313 332.582031 934.1875 352.082031 936.742188 356 C 941.617188 363.351563 948.175781 359.132813 954.984375 360.660156 C 963.78125 362.640625 963.183594 369.792969 974 367 C 972.527344 371.660156 966 378.828125 967.707031 384 C 969.730469 390 978.574219 382.511719 981 380.535156 C 992.554688 371.136719 1001.277344 359.257813 1012 349.039063 C 1014.667969 346.5 1026.3125 340 1024.832031 335.554688 C 1023.449219 331.421875 1012.550781 335.105469 1010 336 C 996.269531 340.082031 979.578125 349.132813 965 343.53125 C 946.890625 336.574219 943 314.03125 932.476563 300 C 928.25 294.433594 920.464844 288.332031 919.453125 281 C 918.675781 275.371094 930.898438 264 936.210938 269.03125 C 939.953125 272.597656 932.960938 280.671875 939 286 C 939.628906 279.074219 943.246094 274.675781 949 271 C 949.289063 283 957.796875 279.105469 965 274.113281 C 977.71875 265.308594 988 254 999 243 C 1018.765625 223.234375 1040.785156 206 1062 187.730469 C 1082 170.574219 1101.699219 152.550781 1128 146.128906 C 1148.277344 141.179688 1180.246094 140.726563 1191.675781 162 C 1203 183.285156 1196.839844 211.800781 1199.167969 235 C 1202.488281 268.074219 1220.210938 300.601563 1217.910156 334 C 1216.855469 349.308594 1207.882813 361.113281 1202.617188 375 C 1200 381.792969 1202.453125 388.171875 1201.167969 395 C 1199.714844 402.726563 1194.523438 409.226563 1193.328125 417 C 1192.53125 422.214844 1196 432.765625 1200.429688 436.0625 C 1202.535156 437.683594 1210.816406 437.804688 1210 441.789063 C 1209.578125 444.5 1190.386719 447.03125 1187 448.464844 C 1172.5625 454.570313 1163.738281 469.074219 1156 482 C 1154 485.59375 1148.613281 491.367188 1149.300781 496 C 1150.34375 502.640625 1160.324219 491.613281 1161.675781 490 C 1175.847656 473.015625 1181.820313 460.3125 1205 455 C 1200.222656 471.828125 1203.496094 477.460938 1210 493 C 1199.773438 493 1188.605469 493.621094 1180 499.789063 C 1177.402344 501.652344 1172.664063 505.128906 1173.613281 509 C 1175.574219 516.6875 1205.996094 513 1189.957031 525.210938 C 1177.601563 534.648438 1160.589844 534 1147 540.808594 C 1143.699219 542.464844 1135 547 1137.175781 551.773438 C 1138.953125 556 1144.734375 554.417969 1148 553.625 C 1159.261719 551 1170.398438 549.511719 1182 550.039063 C 1186.320313 550.234375 1195.238281 551.703125 1194.535156 558 C 1194 562.117188 1185 561.464844 1182 562 C 1168.828125 563.441406 1159.246094 569.777344 1150 579 C 1172.269531 576.1875 1182 586.042969 1200 597.1875 C 1204.355469 600 1214.453125 600.796875 1216.351563 606.132813 C 1219.914063 616.140625 1205.515625 613.429688 1204.605469 620.046875 C 1203.371094 629 1212.53125 638 1213 647 C 1206.535156 644 1202.25 636.328125 1197.574219 631.003906 C 1191.847656 624.476563 1184.527344 618.238281 1177 614 C 1147.515625 596.796875 1112 588.410156 1081 574.230469 C 1070.320313 569.359375 1059.753906 564.117188 1049 559.425781 C 1047.363281 558.710938 1039.570313 554.089844 1038.347656 556.707031 C 1036.582031 560.476563 1046.621094 566.605469 1049 568.277344 C 1062.992188 578.125 1077.695313 587.097656 1093 594.753906 C 1107.671875 602.09375 1122 610 1137 616.695313 C 1151.980469 623.429688 1167.734375 628.660156 1179.960938 640.171875 C 1196.261719 655.519531 1204.488281 678 1218.613281 695 C 1225 703 1232.914063 710.816406 1241 717.179688 C 1244.300781 719.78125 1251.378906 722.617188 1252.652344 727 C 1254.238281 732.296875 1242.871094 732.136719 1240 732 C 1235 731.511719 1223.292969 723.238281 1219.421875 726 C 1216.582031 728 1219.449219 732.027344 1220.75 734 C 1225.335938 741 1231 747.003906 1235.65625 754 C 1236.539063 755.363281 1242 763.144531 1238.382813 764.117188 C 1233.542969 765.421875 1225.378906 753.519531 1222 750.808594 C 1210.71875 741.753906 1197.871094 735 1184 730.722656 C 1178.976563 729.230469 1172 726.789063 1167 729.320313 C 1161.644531 732.027344 1161.789063 737 1166 740.609375 C 1172 745.765625 1180.507813 745.796875 1186.960938 750 C 1192.753906 753.765625 1195.910156 761 1198.691406 767 C 1218 809.34375 1231.753906 854.425781 1248 898 C 1252 908.691406 1256.386719 919.164063 1260 930 C 1261 933.34375 1264 939.125 1262.382813 942.636719 C 1260.734375 946 1256.652344 942.382813 1255 941 C 1249.847656 936 1246.5 929.066406 1242.679688 923 C 1232.472656 906.789063 1222 890.625 1212.578125 874 C 1207.59375 865.300781 1201.472656 856.300781 1201 846 C 1206.746094 848 1208.742188 853.097656 1213 857 C 1209 845.15625 1205.578125 827.324219 1198.996094 817.019531 C 1191 804.546875 1188 825.574219 1188 831 C 1177.632813 823.675781 1169 812.007813 1160 803 C 1157.855469 801 1153 794.40625 1149.4375 796.175781 C 1145.75 798 1148 804.289063 1149 807 C 1152.453125 816.761719 1158.777344 825.234375 1165.429688 833 C 1180 850.207031 1198.207031 864.324219 1211.277344 883 C 1225.328125 903.070313 1233.171875 927 1245.425781 948 C 1253 961.328125 1262.996094 975 1262.996094 991 C 1262.996094 995.679688 1262.902344 1005 1256.972656 1006.246094 C 1249.636719 1008 1243.8125 987 1241.5625 982 C 1232.640625 962.226563 1219 942.160156 1202 928.667969 C 1198.410156 926 1181 918.421875 1181.921875 913.277344 C 1182.910156 907.410156 1202.609375 912.730469 1206 914 C 1203.507813 897.433594 1184.839844 898.503906 1175.300781 888 C 1170 882.1875 1166.949219 875 1161.816406 869 C 1157.773438 864.390625 1153.5625 859.648438 1148.984375 855.574219 C 1128.574219 837.40625 1086.347656 807.660156 1062 837 C 1089.753906 834.808594 1127.699219 844.050781 1141 872 C 1121 870.265625 1105.558594 854.058594 1085 854 C 1096.488281 864 1110 871.816406 1123 879.808594 C 1129.746094 884 1138 887.652344 1143 894 C 1119.652344 894 1099.902344 879.242188 1077 877.074219 C 1072.238281 876.625 1057.636719 874 1055.207031 880.078125 C 1054 882.738281 1058.476563 883 1060 883.148438 C 1066.449219 884.058594 1072.703125 885.199219 1079 887 C 1105.199219 894 1125 916.539063 1136.753906 940 C 1156.820313 980.140625 1155.949219 1029.339844 1154 1073 C 1153.339844 1089 1155.222656 1108.027344 1148.53125 1123 C 1145.472656 1129.820313 1132.828125 1135.742188 1127 1141 C 1125.476563 1142.234375 1122 1145.453125 1120 1143.289063 C 1116.523438 1139.648438 1119.988281 1127.671875 1120 1123 C 1117.761719 1125.058594 1111.238281 1132.550781 1107.742188 1130.742188 C 1105.253906 1129.457031 1106 1124.234375 1106 1122 C 1105.949219 1114.328125 1103.875 1108.011719 1101 1101 L 1100 1101 C 1100 1125.371094 1099.203125 1150.707031 1088.242188 1173 C 1084.394531 1180.832031 1080.277344 1190.128906 1072 1194 C 1072.386719 1175.285156 1081.523438 1157.816406 1081.984375 1139 C 1082.960938 1099.132813 1072 1056.722656 1045.699219 1026 C 1032 1010.167969 1014.691406 998.621094 1000 984 C 988.316406 972.371094 976.707031 961 969.246094 946 C 968 943.558594 964.824219 933 961 933.632813 C 956.851563 934.535156 959.871094 946.292969 960.273438 949 C 962.753906 966 971.644531 978.269531 977 994 C 963 990.691406 952.710938 978.3125 938 978 C 964.671875 1004.667969 999 1023 1020.484375 1055 C 1023.796875 1060 1035.171875 1085.5 1043.566406 1077.546875 C 1052 1069.40625 1035.4375 1047 1035 1037 C 1046.46875 1045.257813 1050.382813 1063.144531 1054.667969 1076 C 1071 1125.011719 1057 1167.597656 1048 1216 C 1041.597656 1211.480469 1044 1197 1044 1190 C 1044 1165 1042 1140 1042 1115 L 1040 1115 C 1040 1147 1038.898438 1179.417969 1028.667969 1210 C 1024.898438 1221.261719 1021 1235 1011 1242 C 1011.972656 1219.722656 1020.992188 1196.464844 1023.714844 1174 C 1029 1130.019531 1015.988281 1083.691406 982 1054 C 982.773438 1062.820313 988.355469 1069.332031 992.191406 1077 C 997.269531 1087.148438 1001.238281 1098.039063 1004 1109 C 1016.578125 1156.464844 1008.464844 1210.105469 972.996094 1246 C 963 1256.089844 952.226563 1266.707031 938 1270 C 940.953125 1257.570313 950.234375 1247.371094 955.742188 1236 C 963.910156 1219.132813 968 1201.46875 970.574219 1183 C 972 1171.273438 973.226563 1154.027344 963 1146 C 963 1191.351563 945.191406 1232.386719 915 1266 C 907 1275.132813 887.496094 1296.707031 873 1289.425781 C 861 1283.417969 873 1261 875.574219 1252 C 886.460938 1214 893.980469 1181.023438 923 1152 C 910.375 1155.027344 901.457031 1166 894 1176 C 875.894531 1201.152344 869.910156 1232 857.851563 1260 C 853.574219 1270 847.546875 1286.191406 838 1292 C 838 1279.644531 841.722656 1267.1875 843.753906 1255 C 848 1229.195313 851.785156 1206 863 1182 C 856 1185 848.976563 1196.496094 841 1196.289063 C 834.507813 1196.109375 843 1172.160156 836.320313 1178.296875 C 825.507813 1188.109375 829.792969 1211.132813 828.910156 1224 C 826.945313 1252.714844 823 1282.585938 814 1310 C 810.367188 1321 806.722656 1333.824219 797 1341 C 781.40625 1286.449219 792.429688 1227 821 1178 C 808.910156 1186.523438 801.273438 1201.691406 795.578125 1215 C 782.289063 1246.046875 780.386719 1279.753906 771.425781 1312 C 768.246094 1323.425781 765.570313 1335.34375 760.191406 1346 C 758.324219 1349.699219 755 1356.03125 750 1355.417969 C 745.257813 1355 743 1348.734375 741.308594 1345 C 736 1333.570313 732.667969 1321.164063 729.628906 1309 C 720.984375 1274.4375 719.261719 1237.640625 701.425781 1206 C 695.792969 1196.007813 691.363281 1185 681 1179 C 702.605469 1211.648438 710.355469 1254.339844 711 1293 C 711.203125 1305.039063 712 1316.210938 708.253906 1328 C 707.402344 1330.667969 704.855469 1340.746094 700.511719 1337.339844 C 693 1331.449219 688.578125 1315 686 1306 C 678.355469 1277.558594 674.957031 1248.28125 672.171875 1219 C 670.761719 1204.21875 674.71875 1185 661 1175 C 661 1179.792969 665.515625 1190.40625 662.730469 1194.394531 C 658.636719 1200.253906 643.605469 1184.292969 640 1182 C 642.917969 1192.203125 647.9375 1201.597656 650.523438 1212 C 654.664063 1228.636719 656.28125 1246.09375 659 1263 C 660.660156 1272.535156 663.800781 1282.34375 664 1292 C 653 1286.6875 645.996094 1266.804688 641.8125 1256 C 631.273438 1228.804688 624.25 1200.234375 607.277344 1176 C 600.292969 1166.023438 591.355469 1155 579 1152 C 606.878906 1180 616 1215.007813 625.882813 1252 C 628.207031 1260.789063 640.203125 1283.523438 627.957031 1289.347656 C 612.746094 1296.574219 593.1875 1275 584.921875 1265 C 556.863281 1231.390625 538 1190.375 538 1146 L 537 1146 C 525.179688 1174.433594 531.925781 1206.785156 544.78125 1234 C 549 1243.011719 554.589844 1251.203125 559.21875 1260 C 560 1261.792969 563.683594 1267 561.867188 1269 C 558.371094 1272.792969 544.617188 1261.679688 542 1259.535156 C 524.878906 1245.5 510.824219 1226.503906 502.453125 1206 C 489.542969 1174.382813 489 1139.605469 498.425781 1107 C 501.96875 1094.585938 507.171875 1082.515625 512.96875 1071 C 514.410156 1068.140625 519.941406 1062 518.441406 1058.464844 C 517 1055.332031 512 1061 511.171875 1062.003906 C 505.203125 1068.472656 499.90625 1076.234375 495.78125 1084 C 481.378906 1111.109375 477.644531 1138.71875 478 1169 C 478.300781 1194 489.796875 1217.628906 490 1242 C 480.296875 1235 476.628906 1221 473 1210 C 462.769531 1179.003906 462 1147.269531 462 1115 C 456.480469 1121.34375 457.644531 1132.109375 456.714844 1140 C 453.796875 1164.722656 463 1193.339844 454 1217 L 453 1217 C 451.292969 1195.371094 442.519531 1175.355469 439.429688 1154 C 435.734375 1128.496094 438.839844 1102.65625 445.859375 1078 C 449.429688 1065.460938 455.484375 1045.253906 466 1037 C 467.371094 1046.265625 459.773438 1056.324219 457 1065 C 455.777344 1069 453.941406 1074.1875 457.433594 1077.550781 C 465.441406 1085.261719 476.714844 1063.128906 479.800781 1058 C 500.25 1024 535.328125 1005.101563 563 978 C 548 978.039063 539.921875 990.519531 526 993 C 529.617188 977.742188 539 964.730469 541.5625 949 C 541.996094 946.222656 543.714844 934.816406 540.492188 933.347656 C 536.691406 931.609375 533.410156 943.800781 532.371094 946 C 525.347656 961 512.890625 974 501 985 C 485.550781 999.300781 468 1011.78125 454.4375 1028 C 428.1875 1059.113281 418 1100 419 1140 C 419.464844 1158.328125 427.558594 1175.738281 429 1194 C 420.875 1190.132813 416.753906 1179.824219 413.179688 1172 C 402.257813 1148.105469 404.179688 1125.148438 401 1100 L 400 1100 C 396.960938 1111.144531 395 1121.363281 395 1133 C 389.789063 1130.796875 385.976563 1127 382 1123 C 381.71875 1126.589844 382.636719 1140.796875 379.972656 1143 C 377.847656 1144.511719 374.453125 1141.1875 373 1140 C 367.570313 1134.65625 357 1130.316406 353.417969 1124 C 343.726563 1107 348 1083.613281 348 1065 C 348 1014 344.875 952 383 912 C 394.195313 900.316406 406.484375 891.828125 422 887.027344 C 430 884.546875 442.839844 885.777344 449 880 C 438.980469 879.183594 430.191406 876.644531 420 878.464844 C 398.945313 882.21875 379.714844 894 358 894 C 362.757813 888 370.6875 884.710938 377 880.277344 C 389.96875 871.175781 402.242188 861.144531 417 855 L 417 854 C 395.351563 853.222656 380.785156 871.09375 360 872 C 362.917969 864.464844 369.8125 859.832031 376 855.015625 C 394.652344 840.488281 415.59375 834.042969 439 837 C 408 806.816406 362.988281 842.558594 341.175781 867 C 335.382813 873.488281 331.785156 881.652344 325.824219 888 C 318.671875 895.523438 299.941406 897 297 908 C 294.203125 918.4375 321.71875 906.015625 320.367188 914.105469 C 319.710938 918.050781 312.953125 920.242188 310 922.066406 C 300.710938 927.800781 292.460938 934.757813 285.289063 943 C 274.535156 955.359375 264.769531 970.792969 258.605469 986 C 256.246094 991.808594 253.71875 1004 246.910156 1006.199219 C 242.230469 1007.726563 240 1002.546875 239 999 C 236.992188 991.152344 238.539063 982.484375 241.464844 975 C 246.433594 962.285156 254.644531 951.132813 260.753906 939 C 270.257813 920.117188 277.800781 900.394531 290 883 C 308.363281 857 340.246094 841 351.769531 810 C 353.21875 806.113281 355.886719 791.089844 347.167969 797.59375 C 334 807.296875 326.753906 823 313 832 C 313 829 314.285156 811.664063 308.761719 812.632813 C 305.246094 813.246094 302.625 819.140625 301.347656 822 C 296.363281 833.183594 292.457031 845.511719 288 857 C 291.824219 852.8125 294.460938 848 300 846 C 299.746094 858 292 868.261719 286 878 C 276.515625 893.230469 267.484375 908.769531 257.949219 924 C 254.300781 929.832031 250.910156 937.058594 245.816406 941.769531 C 244.242188 943.226563 240.96875 945.609375 239 943.351563 C 236.566406 940.480469 239.378906 934.019531 240.34375 931 C 243.8125 920.136719 248.402344 909.664063 252.425781 899 C 269.457031 853.832031 283 806.269531 304.757813 763 C 311.238281 750.050781 320 748.492188 331.996094 742.671875 C 335.167969 741.128906 339.601563 738.203125 338.425781 734.015625 C 336.246094 726.246094 326.601563 728.195313 321 729.628906 C 305 733.683594 289.210938 741.144531 277 752.175781 C 274 755 267.460938 765.390625 262.605469 764.117188 C 259 763.195313 263.355469 756.445313 264.207031 755 C 268.238281 748.171875 273.347656 742.242188 278.195313 736 C 279.480469 734.34375 282.800781 731 281 728.644531 C 279 726 273.347656 729 271 729.652344 C 261.816406 732.472656 253.804688 731.390625 245 728 C 256.359375 714.648438 273 706.148438 284.539063 692 C 299.3125 673.792969 308.214844 650.320313 327 635.519531 C 337.519531 627.226563 349.957031 623.109375 362 617.695313 C 377.226563 611 392 603.21875 407 595.753906 C 422.351563 588.078125 437.199219 579.632813 451 569.371094 C 453.851563 567.25 463.984375 561.625 463.230469 557.347656 C 462.550781 553.496094 454.554688 558.472656 453 559.246094 C 442 564.660156 431 569.742188 420 574.574219 C 390 587.585938 354.933594 596 327 612.453125 C 311.375 621.75 302.761719 639.085938 288 648 C 288.792969 639 296.816406 630.03125 295.8125 621.019531 C 295 614 280.960938 616 284.757813 606.105469 C 287 600.179688 297 600 302 597 C 318.671875 586.714844 328.960938 575.09375 350 579 C 342 567.75 330 563.359375 317 561.574219 C 313.992188 561.164063 305.910156 561.785156 306.464844 557 C 306.988281 552.375 313.304688 551 317 550.300781 C 328.1875 548.648438 340 550.574219 351 552.800781 C 354.453125 553.503906 361.835938 556.414063 363.824219 551.769531 C 365.933594 547 357.355469 542.402344 354 540.785156 C 340.277344 534.167969 322.992188 535 311 524.671875 C 296 511.78125 324.988281 517 327.742188 509 C 329 504.8125 323.894531 501.023438 321 499.109375 C 312.664063 493.601563 301.691406 493 292 493 C 293.898438 486.429688 298.785156 481 299.636719 474 C 300.40625 467.730469 297.253906 461.0625 296 455 C 319 459.785156 325.878906 472.769531 339.519531 490 C 340.878906 491.71875 350.496094 502.402344 351.726563 495.832031 C 352.582031 491.28125 347.386719 485.59375 345.203125 482 C 337.226563 469 328.960938 454.585938 314 448.453125 C 308.265625 446.105469 302.203125 444.28125 296 444.011719 C 294.234375 444 290.386719 444.25 289.921875 441.816406 C 289.203125 438.050781 297.648438 437.585938 299.6875 436.0625 C 303.84375 433 308.753906 422.125 308 417 C 307 409.574219 302.167969 403.253906 300.527344 396 C 299 389.355469 301 382.519531 298.53125 376 C 293.71875 363.300781 285.582031 352.714844 283.4375 339 C 278 305.214844 297.238281 269.445313 300.835938 236 C 303.390625 212.210938 297.753906 185.28125 308.492188 163 C 319.753906 139.640625 355.824219 140.429688 377 146.429688 C 401.273438 153.308594 420.324219 170.796875 439 187 C 463.972656 208.363281 488.6875 229.6875 512 253 C 519.546875 260.546875 534 279.039063 545.980469 279.125 C 550.304688 279.15625 550.394531 272.464844 554 273.058594 C 559.4375 274 561.550781 281.609375 562 286 M 415 192 C 419.859375 206.269531 431.285156 216 440.871094 227 C 463.246094 253 488.800781 275.800781 513 300 C 521.332031 308.332031 529.589844 316.742188 538 325 C 540 327.074219 544.785156 332.574219 548.253906 330 C 551.882813 327.210938 547.605469 321.445313 545.839844 319 C 539 309.757813 531 301.074219 523 293 C 499.394531 269.28125 474.671875 246.671875 451 223 C 441 213.136719 428.703125 196.070313 415 192 M 1085 193 C 1072 197 1059.414063 213.585938 1050 223 C 1026 247 1001.839844 270.160156 978 294 C 970 302 961.398438 309.621094 955 319 C 953.519531 321.261719 949.371094 327.242188 952 330 C 955 333.066406 960.929688 327.796875 963 326 C 971.53125 318.121094 978.847656 309.15625 987 301 C 1011.867188 276.132813 1038.335938 252.746094 1061.269531 226 C 1069 216.816406 1082.777344 205.277344 1085 193 M 346 271 C 354.769531 268.472656 362.238281 262.804688 371 260.027344 C 390.671875 253.800781 412.535156 255 432 261.332031 C 438.699219 263.558594 445.277344 266.183594 452 268.328125 C 453.464844 268.796875 457.558594 270.550781 458.503906 268.355469 C 459.738281 265.5 454.824219 262.347656 453 261.09375 C 445.441406 256 436.703125 251.539063 428 248.671875 C 404 240.816406 356.960938 242.710938 346 271 M 1041 271 C 1067.878906 264.375 1090.347656 252.261719 1119 257.464844 C 1131.832031 259.792969 1141.820313 267.492188 1154 271 C 1151.257813 262.417969 1143.542969 257.632813 1136 253.4375 C 1115 241.777344 1088.917969 242.753906 1067 251.0625 C 1057.527344 254.65625 1043.230469 260 1041 271 M 335 333 C 345.320313 328.082031 353.640625 312.167969 362 304.015625 C 381.710938 284.796875 410.898438 275.089844 438 282 C 447.253906 284.21875 455.695313 288 464 292.574219 C 465.65625 293.496094 471.183594 297.089844 472.246094 293.640625 C 473.714844 289 465 283.765625 462 281.671875 C 449.855469 273.464844 435.824219 267.6875 421 267.039063 C 383.722656 265.40625 341.640625 294.4375 335 333 M 1166 333 C 1157.464844 296.128906 1120.363281 266.820313 1083 267 C 1067.308594 267.074219 1051.777344 272.777344 1039 281.722656 C 1035.996094 283.824219 1027.535156 289 1028.832031 293.523438 C 1029.808594 297.019531 1035.425781 293.296875 1037 292.421875 C 1045.339844 287.808594 1053.757813 284.449219 1063 282.128906 C 1091.460938 275 1120.34375 285.804688 1140.984375 306.039063 C 1149.527344 314.410156 1154.574219 328.148438 1166 333 M 388 351 C 397.578125 350.242188 406.53125 346.679688 416 345.453125 C 419 345.054688 424.484375 345.316406 425.539063 349.089844 C 426.953125 354.15625 416.195313 356.316406 413 357.28125 C 401.792969 360.65625 390.332031 364.160156 382 373.015625 C 379.492188 375.824219 374.710938 381.425781 376.621094 385.679688 C 378.253906 389.308594 383.523438 386.613281 386 385.570313 C 395.570313 381.542969 404.625 378.527344 415 377.285156 C 427.796875 375.753906 442.246094 377.503906 454 383 C 457.519531 384.519531 466.363281 392.535156 470.382813 390 C 472.839844 388.234375 470.953125 384.003906 470 382 C 466.90625 374.234375 461.859375 367.765625 457 361 C 482.996094 369.457031 457.851563 343.019531 450 336.269531 C 448.273438 334.785156 442.992188 331.453125 443.632813 328.644531 C 444 326.601563 447.898438 328.078125 449 328.445313 C 452.671875 329.664063 467.65625 336.308594 467.636719 328 C 467.621094 319.160156 455.597656 311.011719 449 307.09375 C 423.523438 292 389 304.144531 368 321.464844 C 362.390625 326.082031 347.90625 338.410156 349.421875 347 C 350.378906 352.175781 357.484375 348.023438 360 346.546875 C 370.375 340.464844 380.214844 333.332031 392 330.160156 C 395 329.34375 408.410156 327.089844 405.824219 334.039063 C 402.875 342 391.679688 343.175781 388 351 M 1059 327 C 1053.84375 337 1042.472656 342.164063 1035.679688 351 C 1027.300781 362 1033.765625 363.339844 1044 361 C 1039.421875 367.394531 1034.542969 373.78125 1031.3125 381 C 1030.292969 383.28125 1028 388 1030.757813 390 C 1034.691406 393 1043.417969 385 1047 383.464844 C 1059.785156 378.0625 1074.175781 375.449219 1088 377.429688 C 1098 379 1106.695313 382.304688 1116 386.125 C 1118.328125 387.082031 1122.949219 389 1124.351563 385.679688 C 1125.964844 382 1121.90625 376.699219 1119.671875 374 C 1111.535156 364.179688 1099.824219 360.546875 1088 357.140625 C 1084.796875 356.21875 1074 354.242188 1075.460938 349.089844 C 1076.519531 345.300781 1081.914063 345.082031 1085 345.441406 C 1094.816406 346.589844 1104 350.570313 1114 351 C 1109.914063 343.484375 1099.507813 342.410156 1095.753906 335 C 1092.203125 328 1104.710938 329.144531 1108 330.015625 C 1120.1875 333.25 1130.261719 340.253906 1141 346.546875 C 1143.789063 348.179688 1150.882813 352 1151.351563 346 C 1152 337.457031 1139.546875 327.125 1134 322.175781 C 1115.417969 305.589844 1086.46875 295.683594 1062 303.203125 C 1052.578125 306.101563 1043.550781 312.34375 1037.339844 320 C 1035.460938 322.316406 1031.855469 327.289063 1034 330.398438 C 1037.921875 335.800781 1053.675781 327.242188 1059 327 M 449 320 C 445.691406 321.390625 425.796875 324.023438 426.921875 317.039063 C 428.289063 308.535156 445.84375 318 449 320 M 1052 322 C 1054.464844 319 1074.363281 308.292969 1074.363281 318.023438 C 1074.363281 324.410156 1056 322 1052 322 M 362 357.800781 C 350.957031 361.269531 350.945313 382.078125 352 391 C 352.34375 393.320313 354.289063 403.460938 358.441406 401.652344 C 361.84375 400.175781 359.167969 391.65625 359.179688 389 C 359.222656 380 365.308594 372.570313 367 364 C 367.730469 360.527344 366.339844 356.4375 362 357.800781 M 1136.320313 358.175781 C 1132.902344 359.761719 1134.769531 364.539063 1135.730469 367 C 1139.703125 377.152344 1141.679688 386.085938 1140.429688 397 C 1140.203125 399 1139.773438 403.070313 1143 402 C 1154 398.347656 1148.648438 373.429688 1145.519531 366 C 1144.28125 363.058594 1140.492188 356.238281 1136.320313 358.175781 M 1045 360 L 1044 361 L 1045 360 M 438 454 L 438 455 C 427.585938 455 416.882813 454.546875 407 458.464844 C 403.257813 460 397.304688 467.632813 393.894531 467.230469 C 384.652344 466.144531 376.289063 449.660156 365 457.601563 C 354.640625 465.039063 363.1875 485 366.800781 494 C 368 497.09375 370.960938 501.542969 370.183594 505 C 368.503906 512.414063 357.515625 511 352 511 C 349.503906 511.019531 344.519531 510.605469 344.175781 514.148438 C 343.457031 521.566406 357.648438 526.777344 363 528.65625 C 384.785156 536.296875 407.277344 535 430 535 C 425.167969 526.640625 405.761719 525.800781 397 523 L 397 522 C 418.96875 522.003906 440.847656 526 463 526 C 456.519531 518.464844 444 519 435 516.277344 C 417.488281 511.082031 397.644531 502.628906 386 488 C 399.488281 491.121094 412 496.484375 426 498.050781 C 430.367188 498.542969 437.203125 500.332031 440 495.722656 C 444.761719 488.496094 423.382813 483 431.167969 478.433594 C 439.65625 473.625 454.429688 481.492188 463 483.191406 C 465.585938 483.703125 472.375 485.238281 473.539063 481.570313 C 475.554688 475.222656 457.246094 469.753906 453 469 L 453 468 C 462 468 471 469.136719 480 470.421875 C 481.941406 470.699219 487.574219 472.078125 488.539063 469.398438 C 489.34375 467.15625 486.363281 464.480469 485 463 C 480.757813 457.777344 476.570313 452.808594 473 447 C 483.191406 449.355469 493 453.476563 503 456.65625 C 506.964844 458 512.734375 460.171875 516.851563 458.394531 C 522.445313 456 518.9375 448.40625 515.785156 445.527344 C 509 439.332031 495.710938 436.488281 487 434 L 487 433 C 499.898438 433 512 430.109375 525 432.425781 C 527.28125 433 535.734375 435.539063 535.652344 431 C 535.589844 427.164063 528.644531 424.125 526 422.328125 C 517.914063 417 510.589844 410.03125 505 402 C 518.769531 410.035156 530.375 411.710938 546 410 C 549 409.609375 560.671875 409.246094 559.246094 404 C 557.777344 398.570313 547.414063 398.324219 543 398.023438 C 529.257813 397.085938 517 393 506 385 C 500.378906 380.769531 489.722656 370.117188 482 371.421875 C 477 372.28125 477.851563 379.332031 478.285156 383 C 479.242188 391.09375 480.816406 399.007813 482.398438 407 C 482.984375 410 484.351563 414.058594 481.644531 416.382813 C 477.699219 419.765625 469.9375 415.175781 466 413.601563 C 455.652344 409.464844 441.972656 402.425781 431 408.441406 C 420 414.457031 444 426.152344 448 433 C 449 434.714844 451.605469 438.253906 450.582031 440.355469 C 447.882813 446 429.386719 430.773438 426.753906 442.058594 C 425.472656 447.53125 433.972656 452.296875 438 454 M 996 403 C 990.179688 411.359375 982.59375 417.8125 974 423.191406 C 971.382813 424.832031 964.421875 428.183594 964.347656 432 C 964.269531 435.511719 972.277344 433.277344 974 433 C 988 429.519531 998.941406 433 1013 433 L 1013 434 C 1003.894531 437.53125 992.6875 440.246094 985 446.527344 C 981.898438 449.113281 977.316406 456 983 458.398438 C 987.671875 460.367188 993.730469 457.824219 998 456.308594 C 1007.910156 452.785156 1017.640625 449.011719 1028 447 C 1022.386719 454.808594 1013.976563 461.675781 1011 471 C 1024.179688 471 1036.90625 468.03125 1050 467 L 1050 468 C 1046.570313 469.246094 1043.378906 471 1040 472.394531 C 1035.726563 474.160156 1020.574219 484.675781 1034 483.808594 C 1042.652344 483.246094 1062.925781 471 1070.535156 478.742188 C 1075.417969 483.78125 1057.953125 488.164063 1060.40625 495 C 1062.46875 500.492188 1070.6875 498.433594 1075 498 C 1089.75 496.292969 1103.292969 492.621094 1117 487 C 1103.628906 500.363281 1087.878906 509.035156 1070 515 C 1060.960938 518.015625 1044.546875 519.121094 1038 526 C 1059.777344 526 1081.246094 522 1103 522 L 1103 523 C 1094.4375 525.449219 1077 527.675781 1071 534 C 1089.953125 539.601563 1120.789063 536 1139 529 C 1143.777344 527.101563 1158.355469 520.300781 1156.253906 513.316406 C 1154.210938 506.539063 1135.363281 515 1131 507 C 1128.953125 503.003906 1132 498.527344 1133.546875 495 C 1137.832031 484.378906 1146.886719 449.429688 1124 457.105469 C 1121.179688 458.050781 1118.5 459.492188 1116 461.089844 C 1111.816406 463.765625 1107.886719 467 1104 470 C 1100.804688 452.367188 1076.417969 455 1063 455 C 1064.953125 453.132813 1066.984375 451.386719 1068.984375 449.570313 C 1072.953125 446 1076.472656 438.265625 1067.996094 438.148438 C 1061.332031 438.054688 1054.484375 441.65625 1048 443 C 1051.464844 435.691406 1054.648438 428.566406 1061 423.226563 C 1064.503906 420.28125 1072.878906 419.269531 1074.59375 414.789063 C 1076.90625 408.75 1065.855469 406.507813 1062 406.1875 C 1051.671875 405.332031 1041.386719 411 1032 414.320313 C 1028.597656 415.570313 1022.792969 418.617188 1019.605469 415.394531 C 1017.269531 413.03125 1018.605469 409 1019 406 C 1020.429688 398 1021.765625 390.074219 1022.714844 382 C 1023 378.5625 1023.84375 372.050781 1018.941406 371.648438 C 1008.972656 370.824219 996.210938 384.546875 988 389.136719 C 979.53125 394 970.578125 396.355469 961 397.714844 C 955.511719 398.492188 947.6875 398.007813 943.167969 401.703125 C 938 406 944.308594 408.082031 948 408.75 C 956.816406 410.34375 966 412 975 410.382813 C 982.464844 409.039063 988.8125 405.070313 996 403 M 451 402 C 442.652344 386 418.335938 384.285156 403 389.699219 C 399.503906 391 381.65625 399.761719 385.257813 405.183594 C 387 408 397.8125 400.382813 400 399.464844 C 418.6875 391.621094 432.773438 401.613281 451 402 M 1050 402 C 1062.359375 402 1073.492188 395.171875 1086 396.089844 C 1097.175781 397 1106.636719 404.472656 1117 408 C 1111 383.347656 1060.746094 379.019531 1050 402 M 331.609375 400.042969 C 327.441406 403.257813 334.230469 410.566406 336.300781 413 C 344.921875 423.136719 352.992188 433.464844 361 444 C 362.996094 446.410156 367.484375 452.601563 371.257813 450 C 375.398438 447 371.511719 437.59375 370.328125 434 C 365.808594 420.28125 357.988281 410 345 403.257813 C 341.886719 401.65625 335 397.363281 331.609375 400.042969 M 1164.996094 399.484375 C 1148.734375 401.113281 1137.21875 417.097656 1131.605469 431 C 1130.238281 434.378906 1123.195313 451.113281 1131 451 C 1136 451 1139.574219 444.496094 1142 441 C 1150.441406 429.777344 1160.863281 419.734375 1168.386719 408 C 1171 403.730469 1171.332031 399 1164.996094 399.484375 M 997 402 L 996 403 L 997 402 M 374 416 C 370.371094 428.300781 383.476563 452.613281 394 459 C 394 443 409.789063 446.773438 421 450 C 419.910156 446.582031 414.210938 434.796875 409.476563 436.347656 C 405.949219 437.496094 404.710938 443.546875 400 441.824219 C 394.746094 440 394.429688 432.507813 393 428 C 379.859375 435.132813 381.652344 423.046875 374 416 M 1107 428 C 1106.78125 432.792969 1104.394531 444.734375 1097 441.710938 C 1094.535156 440.679688 1092.726563 436.199219 1089.976563 436.207031 C 1085.601563 436.21875 1081 446.554688 1080 450 C 1090.617188 446.410156 1105.945313 444.027344 1106 459 C 1113.867188 452.828125 1122.171875 438.210938 1126 429 C 1127 427 1130.84375 419 1127.449219 417.347656 C 1124.1875 416 1120.632813 427.039063 1118.773438 428.832031 C 1114.886719 432.585938 1111.199219 429.375 1107 428 M 386 487 L 385 488 L 386 487 M 899 757 C 895.671875 731.214844 875.546875 713.488281 860.425781 694 C 857.3125 690 845.273438 674.253906 848.40625 668.707031 C 849.710938 666.402344 854.519531 669.535156 856 670.21875 C 863.875 674 872.449219 676.074219 881 677.410156 C 909 681.800781 933.898438 668.148438 957 654.0625 C 962.339844 650.808594 979.75 645.390625 978 637.015625 C 976.453125 629.351563 960.878906 625 955 621 C 928.46875 603.546875 896 591.472656 868 613 C 859.277344 619.539063 852.828125 629.589844 847.425781 639 C 846 641.484375 843.800781 648 840 647.367188 C 833.976563 646.445313 826.273438 629.796875 822.859375 625 C 807 602.742188 796.574219 582.523438 804.425781 555 C 807.496094 544.246094 816.277344 533 817 522 C 795.710938 531.492188 785.695313 568.679688 789.464844 590 C 794.214844 617 816 636.640625 829.9375 659 C 835 667.265625 840 676.230469 841.558594 686 C 842.410156 692 840.1875 697.21875 842.480469 703 C 846.328125 712.699219 855.671875 718.261719 863 725.089844 C 874.40625 735.71875 883.859375 751.257813 899 757 M 654 666 C 645 692.28125 627.175781 708.710938 613 732 C 609.871094 737.148438 606.742188 742.335938 604.621094 748 C 604 749.363281 602.269531 753.441406 604.617188 754.167969 C 608.886719 755.488281 615.484375 746.515625 618 744 C 629.542969 732.457031 644.566406 722 654.472656 709 C 660.746094 701 658.921875 693.371094 660.300781 684 C 661.34375 677 665 670.265625 668.257813 664 C 682.390625 636.621094 711.820313 615.40625 711.820313 582 C 711.820313 571.507813 708.871094 560.777344 705.304688 551 C 702.246094 542.609375 696.734375 529.742188 688.964844 524.746094 C 686.265625 523.011719 682.894531 523.097656 684 527.058594 C 690.773438 550.675781 706.933594 571.308594 696.546875 597 C 692.5625 607 685.863281 615.242188 680 624 C 675.808594 630.257813 669.914063 645.566406 662 647.652344 C 657.9375 648.742188 655.21875 641.699219 653.601563 639 C 647 628.128906 639.605469 617.523438 629 610.222656 C 599.703125 590.046875 569.558594 605.191406 544 622.328125 C 538 626.289063 528.980469 629 524.320313 634.214844 C 521.285156 637.710938 522.722656 641.355469 526 644 C 534.191406 650 544.375 654.277344 553 659.679688 C 574.214844 673 598.832031 681.617188 624 676.550781 C 634.46875 674.445313 643.945313 669.402344 654 666 M 608 525.785156 C 605.425781 526.621094 596.414063 533.574219 600 537 C 600 537 616 537.550781 616.835938 537.292969 C 623.984375 535 614.167969 523.785156 608 525.785156 M 902 539 C 900.332031 532 894.792969 522.429688 886 527.179688 C 883.503906 528.59375 879 534.285156 882.609375 537 C 885.53125 539.078125 889.90625 535.679688 893 535.605469 C 896.183594 535.53125 899 537.828125 902 539 M 578 528.53125 C 570.5625 530.164063 570.386719 536.484375 564.785156 539.820313 C 561.34375 542 556.714844 541.242188 553 543 C 548.652344 545.03125 546.664063 549.523438 542.910156 552.351563 C 537.613281 556.34375 531 557 526.519531 562.175781 C 524.703125 564.242188 514.824219 583.792969 522.433594 583.792969 C 527.832031 583.792969 534.414063 573 539 570.148438 C 544.519531 566.789063 551.203125 569.195313 556.851563 566.4375 C 560.507813 564.652344 559.621094 560.082031 562.316406 557.429688 C 565.867188 554 572 555.21875 575.382813 551.488281 C 577.679688 548.820313 575.527344 545.054688 577.644531 542.292969 C 581.269531 537.550781 590.175781 543 592.863281 537.683594 C 596.671875 530.347656 582.363281 527.574219 578 528.53125 M 981 585 C 980.972656 575.011719 978.574219 565 969.996094 558.636719 C 966.3125 556 961.65625 555.1875 958 552.488281 C 954.34375 549.730469 952 545.371094 947.996094 543.164063 C 944.578125 541.351563 940.425781 541.714844 937 540 C 929.410156 535.589844 919.226563 518.785156 908.894531 532.339844 C 901.476563 542.066406 920.378906 538.324219 923.472656 542.28125 C 925.664063 545.082031 923.351563 548.796875 925.617188 551.570313 C 928.28125 554.828125 933.46875 554.371094 936.878906 556.441406 C 940.769531 558.808594 938.953125 563.613281 942.320313 566 C 947.414063 569.574219 955.363281 567.070313 961 570.214844 C 968.347656 574.3125 973 582 981 585 M 593 549 C 596.722656 556 608 557.34375 613.90625 563.09375 C 622 571.335938 623.546875 582.714844 629.964844 592 C 634.984375 599.183594 642.65625 601.558594 647.3125 610 C 649.625 614.199219 658 630 664.640625 626.757813 C 668.898438 624.648438 662.792969 617.214844 661.425781 615 C 654.742188 604.179688 651.703125 593.589844 654.199219 581 C 655 576.132813 658.835938 564.339844 653.582031 560.753906 C 647.183594 556.382813 645.648438 577.679688 638 575.652344 C 632.25 574.117188 627.789063 563.066406 622.960938 559.238281 C 613.75 552 603.828125 551.578125 593 549 M 907 550 C 895.242188 550 883.988281 553.054688 875 561.300781 C 871.625 564.515625 867.820313 574.507813 862.910156 575.21875 C 856.835938 576.097656 851.800781 557 846.726563 561.660156 C 840.929688 567 847.8125 581.691406 848.523438 588 C 849.585938 597.46875 844.605469 607.3125 839.65625 615 C 838.421875 617 832.566406 624.496094 836.605469 626.339844 C 843 629.277344 851.410156 613.042969 853.949219 609 C 858.882813 601.148438 867.183594 598.3125 872 591 C 878 582 879 571.101563 887 563.09375 C 892.453125 557.734375 903.371094 556 907 550 M 592 597 L 592 595 C 577.472656 593.164063 563.613281 594.535156 551 602.699219 C 549 604 536.199219 613 540.660156 615.757813 C 544 618 551.414063 610.539063 554 609 C 566 601.066406 578 598.761719 592 597 M 908 595 L 908 597 C 918.410156 598.316406 928.417969 599.632813 938 604.257813 C 946.363281 608.296875 953.273438 614.78125 962 618 C 959.609375 594.824219 925 595 908 595 M 580 614 L 580 615 C 540.292969 643 610.796875 687.042969 630 649 C 632.363281 644.316406 632.957031 639.160156 633 634 C 641.300781 645 627.578125 661.671875 617 664.699219 C 603.417969 668.589844 575.359375 664.679688 565.394531 653.785156 C 553.363281 640.640625 564.617188 617.695313 580 614 M 924 614 C 928 617.03125 932.183594 619.773438 935.210938 624 C 941.613281 633 943.640625 646.597656 934.894531 654.785156 C 929.894531 659.46875 921.460938 661.078125 915 663 C 890.277344 669.613281 866 665 866 635 L 868 635 C 868.710938 669.226563 914.328125 672.371094 929.636719 646 C 938 631.347656 926.902344 626.574219 924 614 M 607 615.644531 C 620.640625 616.410156 612.367188 639.6875 600 638.480469 C 586.539063 637.167969 595.765625 615.015625 607 615.644531 M 903 615.492188 C 917.347656 615.234375 909.714844 639.492188 897 638.597656 C 883.28125 637.632813 891.949219 615.691406 903 615.492188 M 405 619 C 372.910156 619 336.171875 631.148438 317.359375 659 C 310.851563 668.636719 305.773438 682.1875 307.429688 694 C 307.914063 697.476563 308.460938 703.136719 312 704.824219 C 314.886719 706.070313 315.796875 703.070313 315.902344 701 C 316.414063 690.773438 316.238281 683 322.441406 674 C 335.289063 655.621094 354.175781 643.097656 374 633.246094 C 382.179688 629.183594 400 626.550781 405 619 M 1095 619 C 1100.574219 627.507813 1117.167969 629 1126 633.257813 C 1146 643 1166.613281 655.820313 1178.910156 675 C 1185.285156 685 1183.78125 692.148438 1185.1875 703 C 1185.4375 704.761719 1186.757813 706.058594 1188.664063 705 C 1192.621094 702.539063 1192.945313 696.03125 1192.996094 692 C 1193 680.246094 1190.597656 670 1184 660 C 1165.820313 631.792969 1127.269531 619.089844 1095 619 M 868 633 L 867 634 L 868 633 M 635 660 C 636.820313 653.714844 639.429688 647.558594 640 641 C 649.195313 646.238281 644.363281 658.746094 635 660 M 860 641 C 860.769531 644.714844 866.4375 656.28125 863.929688 659.292969 C 861.386719 662.339844 856.757813 657.144531 855.898438 655 C 853.929688 650 856.246094 644.300781 860 641 M 1158 771 C 1154.914063 758.125 1144 748.625 1138.269531 737 C 1128.183594 717 1123.796875 694.367188 1114.292969 674 C 1109.570313 664 1103.789063 653.125 1093 648.46875 C 1074.3125 640.402344 1054.183594 648.121094 1035 649 C 1020.753906 649.585938 1010.414063 644.488281 997 642 C 992.507813 641.148438 991.273438 644.226563 993 648 C 997.929688 658.617188 1011.546875 662 1022 663.421875 C 1047 667.023438 1078.265625 652 1095.839844 676 C 1117.253906 705.351563 1116.789063 760.21875 1158 771 M 343 771 C 355.707031 769.726563 365.179688 759 371.972656 749 C 387.796875 725.800781 390 694.699219 408.324219 673 C 425.425781 652.578125 458.882813 666.65625 482 662.195313 C 491 660.445313 502.5625 657 507 648 C 509.378906 643.402344 506.402344 641.664063 502 642.523438 C 488 645.242188 476.675781 650 462 649 C 445.332031 647.769531 424.917969 641.257813 409 648.519531 C 398.492188 653.3125 392.640625 663.066406 387.757813 673 C 377.820313 693.203125 373.550781 715.722656 363.742188 736 C 358 747.753906 346.628906 758.777344 343 771 M 525 656 C 532.5625 681.695313 565.746094 705.117188 592 705 C 602.875 705 620.589844 702.144531 624 690 C 599 696.433594 578 698.226563 556 682.074219 C 545.59375 674.449219 537 660.660156 525 656 M 974 656 C 954 672.242188 938 694.300781 910 695.789063 C 898.828125 696.382813 888 689.8125 877 691 C 895.21875 719.503906 940.296875 701 957.828125 682 C 963 676.273438 977.40625 665 974 656 M 374.867188 662.175781 C 369.257813 664.542969 366.546875 672.613281 362.789063 677 C 355.191406 686 344.566406 692 337.390625 701 C 334.585938 704.582031 330.265625 714.753906 339 713.410156 C 352.871094 711.273438 366.96875 690.617188 372.515625 679 C 373.382813 677.175781 381 659.574219 374.867188 662.175781 M 1124.59375 662.347656 C 1120 664.21875 1127 675.632813 1128.246094 678 C 1134 689.523438 1142 699.613281 1152 708 C 1155 710.453125 1161.289063 715.722656 1165.683594 713 C 1170.839844 709.710938 1165.507813 703 1162.90625 700 C 1154.429688 690.714844 1143.464844 684 1135.667969 674 C 1133.855469 671.695313 1128.355469 660.761719 1124.59375 662.347656 M 369 818 C 383.347656 811.808594 394 798.695313 405 788.015625 C 418.515625 774.828125 433.257813 762.59375 448 750.800781 C 456.679688 744 474.179688 736 479 726 C 458.496094 726.171875 439.769531 741.277344 424 753 C 418.800781 756.710938 408.421875 768.230469 401 765.382813 C 396.804688 763.6875 397.667969 758.511719 398.75 755 C 401.550781 746 407.3125 737.703125 412.722656 730 C 431.171875 703.71875 460.902344 677 494 672 C 490.730469 667 483 669.21875 478 670.347656 C 463.953125 673.503906 450.257813 677 437 682.71875 C 397.550781 699.742188 387.679688 739 378 777 C 374.777344 790.375 369.597656 804.132813 369 818 M 1006 670 C 1014.964844 676.777344 1027.996094 680 1038 685.308594 C 1058.546875 696.421875 1076.460938 711.621094 1089.65625 731 C 1094.710938 738.421875 1100.261719 746.28125 1102.789063 755 C 1103.941406 759 1104.175781 764.484375 1098.957031 765.460938 C 1092.863281 766.601563 1086.367188 759.753906 1082 756.476563 C 1070 747.535156 1057.324219 739.433594 1044 732.753906 C 1039.824219 730.660156 1029.507813 723.476563 1024.660156 726.605469 C 1021.890625 728.398438 1026.746094 732.011719 1028 733 C 1034.929688 738.121094 1042 743 1049 748.128906 C 1067 761.769531 1084.472656 776.691406 1101 792.089844 C 1110 800.507813 1119.925781 813.144531 1132 817 C 1131.863281 800.316406 1125.550781 784 1121 768 C 1113 740.4375 1106.578125 710.089844 1082 692.160156 C 1071.917969 684.804688 1059.757813 680.503906 1048 676.671875 C 1036 672.765625 1018.488281 666.308594 1006 670 M 508.875 685.066406 C 505.960938 687.613281 512.488281 692.664063 514.914063 690 C 517.289063 687.3125 511.300781 683 508.875 685.066406 M 985 691 C 997 690.085938 989 679.226563 985 691 M 480 697 C 492.257813 703 487.386719 689.546875 480 697 M 1015.332031 695.027344 C 1011.6875 697.226563 1015.917969 699.832031 1018.628906 698 C 1021.800781 695.824219 1017.75 693.566406 1015.332031 695.027344 M 526 706 C 517.621094 708.554688 528.6875 713.742188 533.9375 712.0625 C 541.539063 709.628906 529.726563 704.792969 526 706 M 969 706.535156 C 960 708.617188 967 714.042969 972.980469 712.667969 C 980.617188 711 974.5625 705.246094 969 706.535156 M 987 718 C 994.746094 718 1002.265625 716.0625 1010 716 C 1005.339844 707.113281 991 710.003906 987 718 M 490 716 C 497.734375 716.0625 505.253906 718 513 718 C 509 710.230469 494.515625 707.394531 490 716 M 667 762 C 665 751.152344 654.328125 738.804688 643 737.21875 C 636.851563 736.355469 623 740.488281 624.425781 749 C 624.910156 751.769531 627.746094 751.703125 630 751.015625 C 635.195313 749.433594 639.359375 747 645 748.652344 C 653.460938 751.289063 658 760.265625 667 762 M 835 762 C 843.28125 759.207031 848.390625 751.230469 857 748.789063 C 864 746.761719 871 750 878 751 C 871.527344 724.078125 837 741.761719 835 762 M 529 744 C 533.882813 747.335938 541.289063 746 547 746 C 560 746 587.402344 752.621094 595 738 C 573.480469 744.046875 550.425781 737.652344 529 744 M 905 739 C 908.367188 744.132813 916.230469 745.652344 922 746.5625 C 937.699219 749.03125 954.242188 746 970 746 C 966.859375 741.265625 959.308594 741.085938 954 741.019531 C 937.457031 740.808594 921.492188 739.707031 905 739 M 564 813 C 569.359375 814.597656 575.214844 814.160156 579.957031 817.652344 C 585.90625 822.035156 592.488281 841.636719 593.296875 849 C 593.695313 852.574219 587.492188 854.339844 589.175781 857.609375 C 590.886719 861 607 867.75 611 869 C 611.179688 863 622.5625 863.671875 620.824219 860.078125 C 617.230469 852.65625 594.167969 855 598.902344 840.40625 C 600.261719 836.253906 615.792969 843.683594 615.792969 837.675781 C 615.792969 832 599.867188 835.402344 596.761719 831 C 592.769531 825 601.730469 823.796875 601 819 C 600.605469 815.476563 596.289063 813.738281 595.71875 810 C 595.425781 808.0625 595.894531 806 596.285156 804 C 599.914063 786.5 613.25 800 624 801 C 620.984375 794.667969 605.691406 790.757813 605.253906 785 C 604.933594 780.636719 609.921875 776.148438 611 772 C 605.746094 775.285156 600.53125 782.285156 594 782.613281 C 589.226563 783 584.617188 780.144531 580 779.320313 C 568.867188 777.335938 556.738281 777.707031 546 781.546875 C 527.167969 788.277344 510.953125 825 530 840 C 532.667969 833.371094 530.566406 825.097656 531 818 C 531.832031 808 537.910156 798.582031 546 792.789063 C 555.832031 785.746094 568.371094 785 580 786.574219 C 584 787.121094 592 787 590.898438 793.019531 C 590 797.613281 586.976563 806.347656 582.785156 808.820313 C 577 812.21875 568.296875 808.636719 562 809.089844 C 546.242188 810.222656 531.996094 823.609375 536.488281 840 C 540.875 856 555.3125 851.238281 563.351563 862.042969 C 568.710938 869.246094 568.195313 879.261719 572.527344 887 C 578 897 588.394531 903 593.597656 913 C 596.601563 918.789063 594.667969 926.605469 598.726563 931.773438 C 602.847656 937.015625 611.664063 934.394531 616.984375 938.429688 C 625.246094 944.695313 627.964844 955.398438 632.871094 964 C 635 968 638.71875 971.660156 639.898438 976 C 641.550781 982.082031 634.175781 987.609375 631 992 C 623.191406 1003 616.632813 1015.160156 612.355469 1028 C 606.285156 1046.21875 605.472656 1066.285156 609.664063 1085 C 611.574219 1093.527344 615.828125 1101.300781 617 1110 L 616 1110 C 615.199219 1107.488281 609.972656 1096.488281 606 1100.710938 C 602.785156 1104.191406 608 1111.15625 610 1114 C 599.800781 1106.753906 597.679688 1095.285156 594.28125 1084 C 590.257813 1070.640625 583.738281 1057.3125 585.171875 1043 C 587.402344 1020.699219 605 1004.8125 611 984 C 601.984375 987.070313 595.613281 992.234375 589 999 C 551.449219 1037.507813 569.410156 1092.0625 597.628906 1130 C 606.957031 1142.542969 617.367188 1154.359375 629 1164.828125 C 631.789063 1167.339844 638.183594 1174.210938 642.527344 1172.34375 C 645.785156 1171 643.675781 1164.484375 643.195313 1162 C 641 1151.109375 637.335938 1143.585938 632 1134 C 640 1139.515625 646.683594 1146.65625 656 1150.183594 C 657.863281 1151 664.171875 1153.535156 665.246094 1150.398438 C 666.601563 1146.449219 659.316406 1142.617188 657 1140.675781 C 647.921875 1133.0625 640.304688 1123.464844 634.78125 1113 C 615.882813 1077.203125 619.636719 1028.027344 650 999.109375 C 659.167969 990.488281 669 1004 676 1009.535156 C 696.378906 1026.144531 724.617188 1037.085938 751 1037 C 773.359375 1037 796.222656 1029.238281 815 1017.304688 C 822.320313 1012.652344 829.59375 1007.789063 836 1002 C 838.65625 999.476563 842 995.054688 845.996094 995 C 849.875 995 852.6875 999.34375 854.789063 1002 C 860.480469 1009.1875 865 1016.808594 869.246094 1025 C 885.347656 1057.28125 880.546875 1094.726563 859.964844 1124 C 853 1133.699219 837.699219 1141.203125 834 1152 C 848.636719 1151.695313 859.453125 1142.183594 870 1133 C 863 1147 857.6875 1158 857 1174 C 874.558594 1169.828125 886.226563 1153.128906 897 1140 C 929 1101.304688 954.507813 1039.164063 911.996094 998.039063 C 905.8125 992.058594 898.9375 987.304688 891 984 C 892.511719 998.765625 906 1010.394531 911.1875 1024 C 919.488281 1045.828125 912.59375 1067 906 1088 C 903 1097.53125 900.996094 1107.320313 893 1114 C 898.402344 1100 890.234375 1097.191406 885 1111 L 884 1111 C 889.910156 1082.445313 899 1058.425781 889.65625 1029 C 885.496094 1016 879.4375 1004.242188 871.652344 993 C 868.578125 988.5625 860.859375 983 861.550781 977 C 862 972.679688 866 968.664063 868 965 C 873 956.265625 876.445313 944.707031 885 938.652344 C 890 935.015625 898.210938 936.699219 902.347656 931.773438 C 906.355469 927 904.824219 919.527344 907.414063 914 C 912.328125 903.496094 923.292969 897 929 887 C 933.335938 879.554688 932.1875 870 937.558594 863.042969 C 946 852.070313 960.992188 855.296875 964.957031 839 C 968.664063 823.746094 954.539063 810.261719 940 809.09375 C 933.65625 808.585938 926 811.808594 920 810 C 915.761719 808.515625 906.726563 793 910.53125 789.226563 C 914 785.707031 923.308594 786.023438 928 786 C 946.410156 786 964.230469 793.238281 968.960938 813 C 970.574219 819.753906 969.773438 826.210938 969.171875 833 C 969 834.4375 968.4375 838.640625 970.558594 839.078125 C 975.566406 840.113281 976.519531 828 976.835938 825 C 978.277344 811.734375 977.65625 797.808594 966.984375 788.183594 C 955.3125 777.65625 936.722656 777 922 779.324219 C 916.78125 780.203125 911.375 783.332031 906 782.746094 C 899 782 894.835938 775.027344 889 772 C 890.441406 775.804688 895.507813 780.824219 894.976563 785 C 894 791.710938 879.304688 795 876 802 C 887.210938 800.003906 900.734375 786.328125 904.542969 805 C 904.953125 807 905.398438 809.34375 904.988281 811.382813 C 904.34375 814.621094 900.378906 816 899.921875 819.050781 C 899.222656 823.726563 908.476563 824.476563 904 830.773438 C 901 835.074219 886.207031 832.253906 886.207031 837.816406 C 886.207031 843.601563 900.816406 836.199219 902 840.40625 C 906.320313 854.652344 883.601563 852.789063 880.175781 860.164063 C 878 864.59375 891.417969 861.039063 891 869 C 895.910156 866.492188 899.800781 862.394531 905 860.394531 C 906.765625 859.714844 910.726563 859.328125 911.652344 857.40625 C 912.589844 855.460938 907.21875 852.808594 907.363281 850 C 907.554688 846.074219 910.488281 842.496094 911.90625 839 C 914.957031 831.480469 914.78125 820.664063 923 816.570313 C 934 811.070313 943.320313 823.269531 938.726563 834 C 934.761719 843.246094 920 851.433594 913.171875 859 C 901.179688 872.25 889.558594 886.273438 874 895.546875 C 848 911 806.730469 912.078125 780 897.09375 C 772.566406 893 772 887 779 881.789063 C 795.5625 869.554688 819.792969 866.261719 828.175781 845 C 840.78125 813.015625 830.523438 770.472656 796 758.089844 C 779.925781 752.324219 760.671875 755.421875 744 755.015625 C 726.972656 754.597656 708.773438 753.820313 694 763.75 C 667 782 656.671875 831.789063 680.175781 857 C 691 868.59375 707.625 873 720.996094 881 C 727.515625 884.734375 729.949219 890.300781 722.984375 895.351563 C 715.910156 900.480469 705.324219 902 697 904 C 650.535156 915.152344 618.589844 894.550781 588.574219 860 C 581.871094 852.28125 563.582031 842 561.332031 832 C 559.988281 826.058594 563.734375 819.050781 564 813 M 786 770 L 786 771 C 762 775.5 739.871094 772.066406 716 772 C 721 767.121094 728.414063 767.449219 735 766.574219 C 752.445313 764.257813 769 765.21875 786 770 M 706 766 C 692.992188 785.664063 677.28125 794.03125 684 820 C 677.597656 816.460938 677.464844 808.609375 678.175781 802 C 679.75 787.320313 691.570313 770.167969 706 766 M 818 786 C 826 795.335938 826.941406 812.476563 817 821 C 817.308594 814 820.21875 807.15625 819.957031 800 C 819.785156 795.308594 816.667969 790.507813 818 786 M 701.945313 799.386719 C 707.675781 798.773438 703.726563 804.339844 700 804.574219 C 694.316406 805 698.269531 799.78125 701.945313 799.386719 M 797.660156 799.644531 C 800.175781 798.289063 806.441406 802.683594 803.339844 804.355469 C 800.824219 805.710938 794.558594 801.316406 797.660156 799.644531 M 1237 803 L 1236 804 L 1237 803 M 633.191406 811.777344 C 629.742188 813.210938 632 816.101563 634 817.53125 C 638 820.359375 649.710938 827.117188 654.621094 823.78125 C 657.777344 821.640625 653.835938 818.386719 651.980469 817.109375 C 647.871094 814.273438 638.265625 809.671875 633.191406 811.777344 M 861 812.464844 C 856.601563 813.230469 851.648438 814.8125 848.230469 817.789063 C 844 821.34375 846 824.351563 851 823.808594 C 857.902344 823.0625 875.890625 810 861 812.464844 M 721.390625 814 C 725 813 724.949219 825.195313 724.699219 827 C 723.429688 836.125 718 844.273438 709 847.214844 C 702 849.492188 693.96875 849.542969 688 844.605469 C 685.886719 842.792969 681.617188 837.808594 684.78125 835.027344 C 688.210938 832.019531 694.542969 835.726563 698 836.78125 C 703.664063 838.503906 709.394531 837.664063 713.984375 833.773438 C 717.832031 830.507813 720.914063 826.203125 720.867188 821 C 720.855469 819.632813 719.367188 814.480469 721.390625 814 M 777.960938 814 C 780 813.453125 779.648438 817 779.558594 818.019531 C 778.984375 825.226563 781.460938 831.664063 788 835.46875 C 797 840.746094 804.695313 831.597656 813.851563 834.316406 C 822.300781 836.828125 809.222656 846.429688 806 847.578125 C 794.242188 851.777344 780.652344 844.480469 776.550781 833 C 775.351563 829.652344 772.433594 815.132813 777.960938 814 M 489 830.65625 C 478.964844 833.664063 472 846.433594 465.726563 854 C 464.222656 855.792969 458.359375 861.316406 462.363281 863.394531 C 471.8125 868.300781 484.511719 852.503906 493.785156 860.433594 C 497.847656 864 498.621094 870 502.328125 873.699219 C 508.628906 880.265625 517.582031 883.398438 523.910156 890.015625 C 526.808594 893.046875 531.8125 901.714844 536.785156 901 C 544.566406 899.726563 542.300781 880 540.777344 875 C 535.683594 858.640625 518.597656 851 507 840 C 502.222656 835.425781 496.445313 828.425781 489 830.65625 M 1006 830.65625 C 999.472656 832.613281 994.800781 839.460938 990 844 C 980 853.121094 966.222656 859.414063 961.386719 873 C 959.777344 877.527344 957.273438 902.175781 966 901 C 971 900.234375 974 893.359375 977.183594 890.039063 C 983.886719 882.800781 994.25 879.636719 1000.441406 872 C 1003.902344 867.59375 1004.832031 860 1011 858.472656 C 1017.554688 857 1025.75 862.082031 1032 863.625 C 1033.941406 864.105469 1038.410156 865.769531 1039.757813 863.382813 C 1041.695313 860 1035.480469 854.316406 1033.660156 852 C 1027.75 844.46875 1017.820313 827.109375 1006 830.65625 M 630 845 C 633.347656 845.425781 636.65625 846.09375 640 846.570313 C 642 847 643.980469 847 646 847 C 665.640625 847.195313 637.710938 832.644531 630 845 M 871 845 C 863.382813 832.796875 833 847.097656 855 847 C 857 847 859 847 861 846.710938 C 864.355469 846.273438 867.640625 845.433594 871 845 M 661 865 C 658.347656 862.695313 639.207031 858.703125 639.207031 865 C 639.207031 869.769531 658.371094 866.109375 661 865 M 844.167969 862.726563 C 837.792969 865.515625 855.375 868.734375 859.621094 866.480469 C 864.207031 864.046875 847.613281 861.21875 844.167969 862.726563 M 620 876 C 623.570313 878.125 626.328125 877.734375 630 876 C 626.511719 873.632813 623.675781 874.242188 620 876 M 682 877 C 672.933594 870.253906 668.472656 879.503906 682 877 M 819 878 C 823 878 826.308594 877.777344 830 876 C 826 873.058594 821.484375 873.75 819 878 M 870 875 C 872.800781 878.660156 876.71875 877.597656 880 875 C 876.488281 874.035156 873.578125 874.550781 870 875 M 659 884 L 651.996094 884 C 650.332031 884.007813 648.660156 884 647 884.171875 C 633.507813 885.554688 653.421875 893.792969 659 884 M 842 884 C 848.191406 894 866.394531 884.671875 854 884.039063 C 852.339844 884 850.664063 884 849 884 L 842 884 M 481 889.464844 C 478.875 890 462 894.441406 465.753906 898 C 469 901.058594 484.636719 897.40625 489 896.53125 C 502 894 487.9375 888.214844 481 889.464844 M 696 893 C 699.929688 892.816406 702.863281 892.488281 705 889 C 700.949219 889.097656 698 889.34375 696 893 M 795 890 C 802.238281 896.285156 805.277344 887.054688 795 890 M 1003 894 C 1014.761719 896.695313 1024.847656 899.535156 1037 898 C 1031.933594 888.761719 1009.285156 884 1003 894 M 659 897 C 662.539063 898.703125 682.792969 901.019531 682.792969 894 C 682.792969 891.585938 678.546875 891.207031 677 891.183594 C 671.316406 891.105469 663.507813 893.628906 659 897 M 817 893 C 821.378906 897.097656 827 898.804688 833 899 C 834.445313 899 838.792969 899.253906 838.792969 897 C 838.792969 890.042969 820.625 891.777344 817 893 M 476 914 C 470.625 907.15625 461.1875 906 453 904.589844 C 431.273438 901.195313 408.796875 905.464844 390 917.066406 C 383.1875 921.269531 360.78125 935.050781 369.742188 945.566406 C 376.214844 953.164063 387.558594 940.113281 392 936.171875 C 415.636719 915.1875 446 914 476 914 M 1024 914 C 1055 914 1085 916 1110 936.753906 C 1114.6875 940.65625 1125.894531 953.605469 1131.90625 944.773438 C 1139 934.253906 1120 922.5 1113 918.203125 C 1092.6875 906 1069.445313 901 1046 904.753906 C 1038.519531 906 1027.855469 906.585938 1024 914 M 519 913 C 517.199219 910.707031 503.800781 900.203125 501.753906 906.457031 C 499.324219 914 515.34375 914.078125 519 913 M 982 914 C 984.355469 914 986.667969 914 989 913.558594 C 990.960938 913.242188 1004 909 998.378906 905.363281 C 993.78125 902.472656 983.90625 910.328125 982 914 M 366 908 C 364.21875 917.214844 355.71875 927.46875 346 928 C 348.738281 918.519531 355.886719 909.578125 366 908 M 1137.425781 908.710938 C 1143.222656 906.378906 1151 918.214844 1153.515625 922 C 1154.300781 923.222656 1156.929688 927.273438 1154.378906 928.183594 C 1148.9375 930.117188 1140.714844 918.625 1138.367188 915 C 1137.480469 913.628906 1134.75 909.789063 1137.425781 908.710938 M 725 912.324219 C 732.414063 911.753906 739.878906 915.628906 743.636719 922.003906 C 745 924.40625 747 933 750.574219 933 C 753.679688 933 756 924.214844 757.46875 922.003906 C 761.179688 916.066406 767 912.765625 774 912.1875 C 785.457031 911.238281 797.710938 917.75 809 919.421875 C 811.601563 919.808594 818.515625 919.683594 819 923.238281 C 819.652344 927 813.460938 929.589844 811 931 C 801.777344 936.105469 791.316406 939.171875 781 941.195313 C 755.453125 946.207031 728.664063 944 704 935.667969 C 699 934.054688 681.460938 929.636719 681.347656 923.183594 C 681.277344 919.257813 689.503906 919.828125 692 919.386719 C 703 917.429688 713.773438 913.195313 725 912.324219 M 973 919 C 979.257813 927.402344 990.941406 928.226563 1000 932.3125 C 1015.316406 939.214844 1029.890625 949.441406 1042 961.039063 C 1046.789063 965.625 1051.394531 970.640625 1055.316406 976 C 1056.210938 977.226563 1058.847656 980.328125 1057.167969 982 C 1054 984.675781 1042.257813 978 1039 976.691406 C 1022.625 971 1002.453125 960.371094 985 960 C 987.894531 968.488281 997.480469 972.421875 1005 976.242188 C 1020.328125 984.035156 1038.75 989.394531 1049.210938 1004 C 1061 1020.617188 1068.316406 1046.351563 1073.371094 1066 C 1074.621094 1071 1076 1087.574219 1081.394531 1089.652344 C 1086.316406 1091.609375 1089.507813 1075 1089.824219 1072 C 1091.945313 1052.203125 1082.320313 1034.683594 1078 1016 C 1085.902344 1022.070313 1090.433594 1030.789063 1097.171875 1038 C 1100.417969 1041.417969 1104.910156 1044.105469 1106 1049 C 1107.277344 1053.78125 1104.964844 1059.328125 1104 1064 C 1112.722656 1061 1110 1052.339844 1111.214844 1045 C 1111.964844 1040.0625 1114.945313 1036.160156 1114.96875 1031 C 1115 1020.160156 1109.386719 1009.730469 1108 999 C 1118.847656 1012.199219 1121.234375 1032.511719 1122.828125 1049 C 1123.671875 1057.675781 1122.980469 1069.5625 1132 1074 C 1130.683594 1068.261719 1127.277344 1061 1129.742188 1055.105469 C 1131.777344 1050.261719 1137 1048.582031 1138.472656 1043 C 1141.996094 1029.1875 1139 1013.289063 1134.644531 1000 C 1128.734375 982.261719 1120.980469 959.179688 1106 947.515625 C 1102.5 944.789063 1079 930.394531 1079.375 943.019531 C 1079.519531 948.152344 1085.367188 951.246094 1089 954 C 1095.464844 958.507813 1101 963.382813 1104 971 C 1085 961.382813 1066 952.28125 1047 942.753906 C 1023.746094 931.132813 999.628906 919.019531 973 919 M 397 971 C 400.449219 964 404.753906 959.015625 411 954.234375 C 414.523438 951.539063 420.875 948.78125 421.878906 944 C 422.890625 939.152344 417.707031 937.753906 414 938.332031 C 406.519531 939.507813 398.722656 944.765625 393 949.464844 C 379 961 371.667969 984.214844 366 1001 C 361.660156 1014 358.742188 1029.726563 363 1043 C 364.84375 1048.488281 370.757813 1051.367188 371.769531 1057.003906 C 372.828125 1063 370.253906 1069.097656 370 1075 C 377.582031 1069.046875 377.359375 1059 378.574219 1050 C 380.882813 1033.257813 381.796875 1013.636719 393 1000 C 392.550781 1010.34375 386.8125 1019.730469 386.214844 1030 C 385.898438 1035.390625 389.382813 1039.765625 389.894531 1045 C 390.667969 1053 388.839844 1059.636719 397 1064 C 396.339844 1059.523438 393.53125 1054.542969 394.613281 1050 C 395.996094 1044.183594 401.964844 1041 405.824219 1037 C 412 1030.390625 416.648438 1022.488281 423 1016 C 421.429688 1035.222656 407.296875 1052.042969 410.4375 1072 C 411 1075.566406 413.457031 1090 418.878906 1089.078125 C 422.226563 1088.539063 422.972656 1082.558594 423.710938 1080 C 426.390625 1070.671875 428.632813 1061.230469 431.671875 1052 C 437 1035.621094 443.800781 1011.5625 456.175781 999.175781 C 463 992.304688 472.457031 988.519531 481 984.246094 C 490.527344 979.480469 500 975 509 969 C 510.738281 967.832031 517.453125 964 514.914063 961.027344 C 511.894531 957.550781 500.304688 963.738281 497 965 C 479.289063 971.425781 461.519531 979.179688 443 983 C 452.910156 962.140625 476.890625 945.308594 497 935.246094 C 506.558594 930.464844 521 928.335938 528 920 C 480.957031 920 437.960938 952 397 971 M 348 950 C 343.703125 965.257813 338.703125 981.164063 337.171875 997 C 335.75 1011.648438 336.730469 1026.417969 334.574219 1041 C 332.351563 1056 327.570313 1070.457031 323.421875 1085 C 320.46875 1095.347656 316.230469 1105.351563 314.433594 1116 C 313.980469 1118.691406 314 1125.363281 310 1125.363281 C 302.703125 1125.363281 303 1102.726563 303 1098 C 303 1081.582031 303.167969 1065.132813 306.660156 1049 C 309.28125 1037 315.738281 1025.535156 316 1013 C 303.511719 1026.085938 292.386719 1044.695313 287 1062 C 285.703125 1066.261719 284.457031 1082.03125 279.824219 1083.539063 C 275.820313 1085 273.390625 1075.480469 272.398438 1073 C 267.671875 1061.183594 265 1049.734375 265 1037 C 265 1004.796875 276.617188 973.1875 296.808594 948 C 303.488281 939.664063 313.632813 927.257813 324.984375 925.589844 C 332.8125 924.4375 329.835938 934 328 938 C 322.488281 951.355469 312.421875 962.273438 307.4375 976 C 306.351563 979 301.433594 991.398438 307.214844 992.367188 C 312.785156 993.304688 315.449219 979.523438 317.324219 976 C 323.570313 964.257813 334.207031 952.066406 348 950 M 1154 950 C 1167.652344 953.242188 1178.765625 964.554688 1184.679688 977 C 1186.292969 980.398438 1189.375 993.339844 1194.699219 992.367188 C 1199.878906 991.421875 1195.261719 978.6875 1194.300781 976 C 1189.503906 962.5625 1179.757813 952 1173.902344 939 C 1172.40625 935.71875 1168 925.359375 1175 925.363281 C 1187.34375 925.371094 1202.871094 945.167969 1209.253906 954 C 1229.5625 982.09375 1242 1020.5 1234.347656 1055 C 1232.453125 1063.390625 1231.253906 1075.136719 1225.210938 1081.753906 C 1222.429688 1084.796875 1219.644531 1083.550781 1218.34375 1080 C 1211.902344 1062.289063 1208.21875 1046.40625 1197.949219 1030 C 1196.605469 1028 1189.941406 1014.433594 1186.738281 1016.207031 C 1184.84375 1017.253906 1186.597656 1021.589844 1187 1023 C 1189 1029.6875 1191.734375 1036.1875 1193.347656 1043 C 1197.988281 1062.617188 1199.84375 1084 1198.960938 1104 C 1198.714844 1109.660156 1198.582031 1121.570313 1193.597656 1125.339844 C 1189.4375 1128.480469 1187.824219 1121.753906 1187.210938 1119 C 1184.648438 1107.519531 1180.992188 1096.394531 1178 1085 C 1173.769531 1067.675781 1168.414063 1050.8125 1166.285156 1033 C 1164.414063 1017.367188 1165.222656 1001.625 1162.867188 986 C 1161 973.769531 1155 962.371094 1154 950 M 659 936.4375 C 668.320313 934 675.1875 945.402344 682 949.519531 C 694.890625 957.316406 713.199219 960.34375 728 961.832031 C 754.175781 964.457031 782.84375 963.109375 808 954.644531 C 818.539063 951.097656 830.191406 934.796875 840.996094 936.164063 C 852 937.558594 846 956.351563 843.972656 963 C 837.5625 983.164063 817.867188 993.628906 799 1000 C 759.234375 1013.414063 718.898438 1013.808594 682 991.1875 C 667.335938 982.199219 658.792969 971 655.398438 954 C 654.328125 948.671875 651.703125 938.5 659 936.4375 M 840 941 C 828 944.425781 821.230469 955.636719 810 960.382813 C 776.453125 974.570313 738.679688 974.34375 704 965 C 691.582031 961.449219 680.394531 956 671 947 C 669.785156 946 664.238281 939.804688 662.707031 943.425781 C 660.898438 947.714844 667.585938 954.296875 670 957 C 679.65625 967.324219 691 974.136719 704 979.394531 C 737.816406 993.09375 775.472656 991.015625 808 974.753906 C 821.828125 968 837.527344 957.503906 840 941 M 432 967 C 426.917969 980.09375 416.824219 1002.03125 406 1011 C 406 995.265625 415.679688 972 432 967 M 1072 967 C 1084.449219 978.46875 1095.628906 992.144531 1096 1010 C 1086.925781 1005.285156 1081.75 987.671875 1076.550781 979 C 1074.34375 975.320313 1070.789063 971.429688 1072 967 M 569.851563 981.253906 C 562 980.703125 550.890625 997.109375 546 1002 C 539.714844 1008.285156 533 1014.347656 528.464844 1022 C 509 1053.800781 535 1082.039063 551.1875 1108 C 556.542969 1116.644531 560.503906 1126.730469 560.960938 1137 C 561 1138.304688 560.253906 1145.683594 562.925781 1145.078125 C 565.921875 1144.398438 566.234375 1138.324219 566.570313 1136 C 567.988281 1126.230469 567.207031 1115.648438 565.390625 1106 C 563 1093.65625 557.882813 1083 551.71875 1072 C 547.335938 1064.289063 541 1055.300781 541.785156 1046 C 543 1030.273438 556.914063 1019.515625 564.769531 1007 C 566.667969 1004 578.835938 982 569.851563 981.253906 M 929.757813 982.070313 C 926.199219 984.699219 930.210938 994 931.453125 997 C 937.296875 1011.472656 949.941406 1021.230469 956.726563 1035 C 965.34375 1052.480469 952.3125 1066 944.808594 1081 C 938.9375 1092.746094 936 1105.089844 934.425781 1118 C 933.503906 1125 934 1132.160156 935.464844 1139 C 935.769531 1140.464844 936.914063 1146 939.503906 1144.652344 C 941.863281 1143.527344 940.964844 1138.042969 941 1136 C 941.210938 1128.179688 943.785156 1121 947.246094 1114 C 961.308594 1086 993.40625 1061.464844 975.742188 1027 C 968 1012.039063 955 1002 943 990.828125 C 940.5 988.539063 934 979 929.757813 982.070313 M 730 1097 L 729 1097 C 725.9375 1107.335938 728 1117.511719 728 1128 C 727.992188 1130 728.476563 1138.066406 724.828125 1137.367188 C 719.996094 1136.445313 718.492188 1125 717.660156 1121 C 713.753906 1103 714.402344 1084.011719 718.210938 1066 C 718.898438 1062.746094 725.320313 1046.355469 721.394531 1044.710938 C 715 1042.101563 708.90625 1058.121094 706.96875 1062 C 699 1078 694.324219 1098.230469 697.464844 1116 C 698.257813 1120.492188 705 1135.050781 699.679688 1138.117188 C 695.90625 1140.289063 691.75 1134.304688 689.71875 1132 C 682.886719 1124.242188 675.882813 1116.078125 672.773438 1106 C 666.289063 1085 679.6875 1065.167969 694 1051.003906 C 700 1045.039063 707.675781 1040.417969 712 1033 C 694.421875 1033.765625 678 1047.039063 667.324219 1060 C 662.867188 1065.347656 658.425781 1077.1875 651 1079 C 640.957031 1081.253906 646.1875 1061.011719 647.875 1057 C 652.394531 1046.261719 659.867188 1037.34375 670 1031.464844 C 674.851563 1028.648438 680.621094 1027.535156 685 1024 C 655.554688 1015.300781 627.445313 1052.421875 631.589844 1079 C 638.652344 1124.304688 678.507813 1149.183594 707.960938 1180 C 717.320313 1189.789063 723.800781 1201.3125 730.425781 1213 C 731.726563 1215.296875 735.484375 1224.117188 739.277344 1221.246094 C 744.96875 1217 744 1196.507813 743.984375 1190 C 743.226563 1158.5 730 1128.515625 730 1097 M 816 1024 L 816 1025 C 833 1030.40625 846.183594 1038.355469 853.175781 1056 C 854.863281 1060.265625 861.347656 1079.363281 851.957031 1079.363281 C 844.246094 1079.363281 837.75 1064.136719 833.535156 1059 C 822.96875 1046.117188 806.179688 1033.75 789 1033 C 792.511719 1040.46875 801.222656 1045.222656 807 1051 C 821.40625 1065.40625 834.6875 1086 827.972656 1107 C 824.800781 1117 817.804688 1125.402344 810.828125 1133 C 808.96875 1135.023438 804.808594 1140.195313 801.554688 1138.027344 C 796.628906 1134.753906 803 1120.550781 803.710938 1116 C 806 1097.679688 801.21875 1078.601563 793.859375 1062 C 792 1058 786 1042.046875 779.601563 1044.710938 C 775.375 1046.460938 781.609375 1061.777344 782.347656 1065 C 786.464844 1083 787.566406 1102 784 1120 C 783.25 1123.8125 781.851563 1137 776.273438 1137 C 773 1137 774 1130 774 1128 C 773.996094 1118 773 1108.011719 773 1098 L 771 1098 C 771 1140.710938 748.488281 1181.273438 762 1224 C 774.25 1215.160156 780 1194.757813 790.289063 1183 C 817 1152.257813 857 1130 868.242188 1088 C 875.816406 1059.378906 850.621094 1014.054688 816 1024 M 618 1110 L 617 1111 L 618 1110 M 893 1114 L 892 1115 L 893 1114 M 632 1134 C 630.363281 1133.453125 630.546875 1133.636719 630 1132 C 631.636719 1132.546875 631.453125 1132.363281 632 1134 M 871 1132 L 870 1133 L 871 1132 "/>
</g>
</svg>
