<?xml version="1.0" encoding="UTF-8"?>
<svg xmlns="http://www.w3.org/2000/svg" xmlns:xlink="http://www.w3.org/1999/xlink" width="1500pt" height="1500pt" viewBox="0 0 1500 1500" version="1.1">
<g id="surface1">
<path style=" stroke:none;fill-rule:nonzero;fill:rgb(0%,0%,0%);fill-opacity:1;" d="M 485 724 L 486 724 C 486.671875 738.652344 495 752.558594 497.738281 767 C 503.757813 799.226563 504.953125 836.308594 501.828125 869 C 498 908.09375 477.339844 942.761719 464 979 C 453.640625 1007.402344 443.851563 1040.445313 445 1071 C 446.382813 1105.453125 459 1138.375 478 1167 C 489.753906 1184.824219 508 1219 531 1223 C 520.363281 1207 505 1194.117188 494 1178 C 465.953125 1136.820313 449.519531 1086.660156 459.449219 1037 C 465 1009.207031 475.910156 983.199219 486.398438 957 C 491.410156 944.488281 499.644531 930.511719 501 917 L 502 917 C 502 962.703125 522.730469 1006.171875 533 1050 C 537.214844 1067.300781 537.324219 1091.429688 553 1103 C 551.902344 1090.417969 544.96875 1078.507813 542.609375 1066 C 534.972656 1025.496094 526.742188 984.746094 520.425781 944 C 512.859375 895.21875 516.507813 846 511.828125 797 C 509.800781 775.738281 501.820313 756 499 735 L 500 735 C 502 746.484375 512.371094 757.503906 519.84375 766 C 535.691406 784.007813 555 800.070313 565.742188 822 C 581.59375 854.527344 559.660156 899 592 923.765625 C 613.917969 940.605469 633.277344 963 663 961 C 673 960.214844 683.710938 958 693 953.6875 C 696.601563 952.078125 700.6875 949.300781 703 954.074219 C 706.386719 961.027344 705 970.523438 705 978 C 705 1005.332031 693.964844 1029 684.425781 1054 C 674.890625 1079.0625 673.335938 1103.683594 670.828125 1130 C 669.566406 1143.285156 667 1156.636719 667 1170 C 671.464844 1166.617188 671.585938 1158.242188 672.410156 1153 C 674.914063 1137.085938 674.882813 1121 677.4375 1105 C 683.207031 1069.09375 707.449219 1040.296875 714.550781 1005 C 717 992.765625 717 978.308594 715 966 C 714 960.546875 709 951.285156 711.199219 946.015625 C 713.566406 940.175781 720.558594 939 726 939.757813 C 741.894531 942.140625 757 946 773 941.511719 C 778.9375 940 788.261719 933.109375 793 940.136719 C 796.238281 944.59375 795 952 795 957 C 795 967 795.96875 977.148438 797.425781 987 C 802.914063 1024.082031 822 1058.132813 822 1096 C 821.976563 1111.535156 817.308594 1126.363281 819.171875 1142 C 819.828125 1147.523438 821 1156 826 1159 C 819.753906 1133.0625 831 1109 829.960938 1083 C 828.847656 1056.628906 815.597656 1033.367188 810 1008 C 807.492188 996.542969 805.890625 984.695313 805 973 C 804.59375 965.734375 806 958.035156 804 951 C 826.179688 962.804688 851 969 874 954 C 883.613281 947.625 890.421875 938.429688 899 931 C 909.703125 921.734375 922.589844 914.199219 927.25 900 C 932.292969 884.640625 928.347656 868.773438 929 853 C 929.597656 840.230469 933.429688 828.265625 939.257813 817 C 954 788.503906 989.953125 770.335938 999 739 L 1000 739 C 997 761 989.617188 781.675781 988 804 C 985.835938 837 990.40625 870.011719 988.960938 903 C 987.46875 937.070313 978.867188 970.605469 972.609375 1004 C 969.257813 1022 969 1040.28125 964.625 1058 C 959.890625 1077 944.667969 1090.246094 939 1108 C 955.984375 1100 963.929688 1079.527344 970.191406 1063 C 979.292969 1039 982.886719 1013.140625 987.425781 988 C 991.726563 964.144531 997 940.335938 997 916 L 998 916 C 1000.242188 931 1010.761719 945.140625 1016.574219 959 C 1029 989 1039.285156 1019.675781 1043 1052 C 1044.203125 1060.742188 1046.65625 1070.1875 1045.828125 1079 C 1042.320313 1116.347656 1022.527344 1153.148438 1000.847656 1183 C 991.273438 1196.183594 974.824219 1207.644531 969 1223 C 991.605469 1216.347656 1008 1186.40625 1020.332031 1168 C 1037.796875 1141.800781 1052.792969 1111.78125 1055.828125 1080 C 1063.175781 1003.128906 1006.195313 938.769531 999.171875 865 C 996 833.269531 996.675781 796.257813 1002.804688 765 C 1005.808594 749.683594 1013.738281 735.316406 1016 720 C 1021.738281 733.578125 1019.191406 749.808594 1023.4375 764 C 1029 782.691406 1059.679688 818 1077.53125 790 C 1084.6875 778.757813 1085.382813 764.824219 1087.273438 752 C 1090 732.796875 1094.386719 712.609375 1106.667969 697 C 1125.246094 673.382813 1153.976563 661.234375 1173.824219 639 C 1193.484375 617 1201 588.042969 1211 561 C 1217.347656 543.832031 1230.273438 524.820313 1222.742188 506 C 1218.464844 495.308594 1209.691406 488.394531 1202.285156 480 C 1174 448 1134.796875 429.683594 1103 402 C 1082.9375 384.28125 1063.785156 365.699219 1044 347.828125 C 1031.207031 336.273438 1018.6875 324 1003 316.257813 C 992.726563 311.265625 981.875 314 972 310 C 964 307 958.933594 298.382813 950 297.1875 C 937.71875 295.550781 927.628906 302.242188 915 299.347656 C 890.980469 294 868.550781 282.589844 844 279.28125 C 812.265625 275.007813 780.785156 279 749 279 C 714.351563 279 679.402344 275.207031 645 281.425781 C 624.402344 285.144531 605.238281 294.046875 585 299.105469 C 572.488281 302.230469 563.179688 296.109375 551 297.09375 C 541 298 535.867188 307.144531 527 310.347656 C 516.570313 314.113281 505.816406 311 495 316.269531 C 481.234375 323.152344 470.277344 334.644531 459 344.828125 C 438.78125 363.089844 419.828125 383 399 400.410156 C 368.871094 425.828125 333.980469 445.019531 306 473 C 296.777344 482.222656 285 492 279.519531 504 C 270.414063 524.09375 284.574219 543.757813 291.796875 562 C 303.207031 590.828125 311.230469 620.800781 333 644 C 354.375 666.585938 385.261719 678.746094 400.6875 707 C 410.980469 726 412.785156 748.304688 417 769 C 419 779 422 792.214844 432 797.316406 C 443.910156 803.484375 457.90625 797 466.246094 787.828125 C 481.316406 771.546875 485 745.332031 485 724 M 732 289 L 732 290 L 725 289 L 725 290 C 730.835938 292.441406 736.359375 295.738281 740.984375 300.09375 C 743.3125 302.285156 746.386719 307.691406 749.753906 308.21875 C 753.265625 308.765625 757.601563 302.324219 760 300.324219 C 765.992188 295.332031 776 288.652344 784 288.054688 C 804.753906 286.503906 826.460938 285.425781 847 289.261719 C 867.851563 293.152344 887.730469 301.265625 908 307.277344 C 917.664063 310.148438 927 311.734375 937 309.253906 C 940.375 308.410156 947.371094 305.195313 950.222656 308.605469 C 952.992188 312 948.632813 319.296875 948.183594 323 C 946.914063 333.519531 952.628906 342.824219 954 353 C 942.214844 345.636719 932.300781 332.550781 918 330 L 918 331 C 944.878906 342.25 966 376.566406 981.667969 400 C 1004.660156 434.492188 1024 474.003906 1026.910156 516 C 1028.578125 540.34375 1024 564.757813 1023 589 C 1021 634 1015.648438 680.601563 996.691406 722 C 980.710938 757 950.925781 780.566406 931.605469 813 C 923.277344 827 919.925781 844 920 860 C 920 880 924 901.445313 904.984375 914.777344 C 893.96875 922.457031 877.738281 922.085938 865 920.269531 C 834.929688 916 808.207031 903.261719 784 885.105469 C 774.550781 878.019531 747.945313 857.480469 757 842.328125 C 760 837.183594 769.832031 833 775 830 C 774.964844 831.09375 774.503906 835 776.867188 834.371094 C 779.308594 833.75 779.253906 827.566406 782 825.796875 C 794.191406 818.195313 807 813.632813 818 803.828125 C 834.882813 788.558594 847.675781 751.511719 839.1875 729 C 833.429688 713.734375 809.8125 697.316406 794 694.464844 C 783.496094 692.570313 771.660156 694 761 694 C 730.40625 694 701.519531 691.261719 677 713 C 671.402344 717.773438 665.695313 722.761719 663 730 C 659.183594 741 662.597656 752.027344 664.574219 763 C 666.261719 772.347656 667.761719 782 673 790 C 686.449219 810.226563 709.933594 816.773438 729 829.746094 C 733.953125 833.117188 747.941406 840 748.847656 846.019531 C 751 860.511719 733.6875 873.375 724 881.195313 C 695 904.59375 658.972656 922 621 921 C 616 921 610.726563 920.1875 606 918.789063 C 573.851563 909.277344 584.199219 874.773438 581.828125 850 C 580.3125 834.117188 575.253906 819.25 566.328125 806 C 546.234375 776.175781 518.886719 754.738281 503.859375 721 C 483.484375 675.242188 481.265625 628 477.910156 579 C 475 537.464844 471.417969 500 487.203125 460 C 502.890625 420.398438 529.175781 383.035156 558 352 C 565.722656 343.804688 575.359375 338 583 330 C 569 334.007813 560.773438 347 548 353 C 550.816406 339.390625 560 321.152344 547 310 C 547 365.476563 496.863281 406.441406 478 456 C 457.339844 510.640625 470 567.589844 470 624 C 462.957031 609.34375 463 587.09375 460.730469 571 C 456.398438 541 452.957031 510.199219 457.425781 480 C 462.488281 445.800781 477.425781 413.65625 492.753906 383 C 505.328125 358 517.929688 328.332031 542 312.027344 C 554.863281 303.316406 571 312.449219 586 309 C 635 297.050781 680.410156 279.421875 732 289 M 759 289 L 759 290 L 739 290 C 744.714844 287.601563 752.832031 289 759 289 M 772 289.332031 L 772.332031 289.667969 C 771.839844 289.832031 771.226563 289.332031 772 289.332031 M 734 291 L 733 292 L 734 291 M 769 291 L 769 292 C 764.1875 294.683594 755.320313 305.304688 749.976563 305 C 745.410156 304.523438 738.875 295.785156 735 293 C 741 290.429688 746.835938 293.824219 753 294.078125 C 758 294.292969 763.929688 292 769 291 M 753 292.332031 C 753.773438 292.332031 753 292.832031 752.667969 292.667969 L 753 292.332031 M 1033 620 L 1032 620 C 1032 587.597656 1038.382813 555.449219 1036.960938 523 C 1035.714844 494.570313 1027.664063 467 1016 441 C 1002 409.617188 979.445313 383.050781 964.78125 352 C 958.980469 339.71875 950.910156 324 955 310 C 981.714844 326.710938 996.652344 359.433594 1009.308594 387 C 1028.320313 428.40625 1046 468.703125 1046.984375 515 C 1047.6875 550.796875 1035.804688 584.773438 1033 620 M 518 320 C 515.835938 327.300781 510 332.753906 506 339 C 500 348 495 357.582031 489.859375 367 C 472.796875 397.785156 457.78125 431.660156 449.652344 466 C 432.246094 539.570313 460.710938 610.71875 470.871094 683 C 474.433594 708.355469 475.683594 734.078125 468.574219 759 C 465.308594 770.4375 459.804688 783 448 787.519531 C 438 791.480469 432 784 429.4375 775 C 422.910156 753.4375 421.355469 731 412 710 C 396.867188 675.457031 365 662.5625 340 637 C 319 615.402344 312.558594 586 301.546875 559 C 296.554688 546.777344 288.21875 535.335938 286.300781 522 C 283 499.164063 314.578125 476.804688 330 464.261719 C 361.453125 438.679688 395.789063 418.164063 426 390.828125 C 454.292969 365.230469 480 330.683594 518 320 M 982 321 C 998.855469 322.378906 1011.695313 334 1024 344.421875 C 1047 364.0625 1068.179688 385.808594 1091 405.714844 C 1118.910156 430.0625 1151.886719 447.625 1180 471.730469 C 1191.710938 481.769531 1206 494 1213 508 C 1221 524.476563 1208.179688 540 1202.695313 555 C 1193 581.226563 1186.5 609.398438 1167.710938 631 C 1155.617188 645 1139.257813 654.058594 1125 665.449219 C 1107.617188 679.335938 1091.445313 696.597656 1084 718 C 1078.398438 734.511719 1077.785156 752.148438 1073.625 769 C 1071 779.367188 1066.457031 793.449219 1053 787.078125 C 1041.433594 781.605469 1035.65625 767.683594 1032.882813 756 C 1026.527344 729.207031 1028.257813 701 1032.753906 674 C 1043.972656 606.800781 1068.355469 537.515625 1052 469 C 1043.367188 432.09375 1027.566406 397.011719 1009 364 C 1000.941406 349.3125 988.488281 336.5 982 321 M 583 329 L 584 330 L 583 329 M 768 409 C 760 422.34375 754.390625 436.71875 751.613281 452 C 750.667969 457.21875 748 465.304688 753 469 C 753 455.0625 757.964844 441 762.695313 428 C 764.800781 422.230469 770.433594 415.253906 768 409 M 423 412 C 419 424.550781 416.570313 436.804688 411 449 C 401.472656 470.703125 388.757813 490.644531 383 514 C 380.941406 523.089844 376.707031 545 386 551 C 390.675781 514.785156 405.722656 485.675781 418.425781 452 C 422.476563 441.25 430.84375 422.539063 423 412 M 1075 412 C 1075 461.492188 1110.839844 502.265625 1117 551 C 1123.628906 546 1121.554688 529.34375 1120.410156 522 C 1115.890625 493.070313 1097.835938 470.222656 1086.425781 444 C 1083.207031 436.605469 1080.953125 416.203125 1075 412 M 581 462 C 587.925781 457.8125 593 448.722656 599 443.039063 C 603.800781 438.449219 610.828125 435 614 429 C 598.46875 431.101563 583.742188 446.609375 581 462 M 888 429 C 890.609375 433.632813 896.1875 436.261719 899.996094 440.015625 C 907 447.019531 912.433594 455.636719 921 461 C 918.234375 445.503906 902.917969 432.121094 888 429 M 866 474 C 870.535156 471.226563 871.652344 466 875.214844 462.105469 C 879.558594 457.480469 885.980469 455.394531 892 454 C 881.460938 438.113281 866.214844 464 866 474 M 611 455 C 625.90625 455.351563 627 467.25 637 474 C 638.339844 466 635.238281 458 627.984375 453.484375 C 622.859375 450.371094 614.386719 449.199219 611 455 M 531 511 C 532.433594 500.347656 537.910156 490.597656 544 482 C 548.523438 476 554.636719 470.527344 556 463 C 545 469.234375 533.664063 484.054688 529.75 496 C 528.183594 500.773438 526.457031 507.542969 531 511 M 945 463 C 950 475.253906 959.9375 484.597656 966.535156 496 C 969 500.535156 969.847656 508 974 511 C 973.644531 493.773438 962.441406 469 945 463 M 539 500 C 547.410156 495.136719 552.726563 486.601563 561 481.46875 C 577 471.5 595.703125 471 614 471 C 608.242188 465.597656 600 467.648438 593 468 C 572.746094 469 542.601563 476 539 500 M 888 469 L 888 471 C 904 471 921.546875 470 936 478.453125 C 946 484.410156 952.433594 495 963 500 C 957 466.457031 913 468 888 469 M 711 469 C 710.996094 492.394531 700 513.128906 690.859375 534 C 688.675781 539 685.449219 552.402344 679 553.367188 C 674.863281 554.011719 673.933594 545.730469 673 543 L 672 543 C 669.796875 550.457031 672.292969 568.503906 684 561.257813 C 690.421875 557.28125 694 549.527344 697.242188 543 C 704.925781 527.414063 711 510.332031 713 493 C 713.867188 485.738281 716.441406 474.808594 711 469 M 790 470 C 785 497 796 523.574219 808.257813 547 C 811.785156 553.816406 826.546875 572.777344 831.425781 556 C 832.519531 552.238281 832 548 832 544 L 831 544 C 829.699219 546.433594 827.667969 554 824 553.367188 C 819.597656 552.648438 816.472656 542.492188 814.757813 539 C 807 523.246094 798.414063 506.265625 794.667969 489 C 793.328125 482.828125 794 475.042969 790 470 M 1172 472 C 1174.910156 481.121094 1182.664063 488.796875 1187.546875 497 C 1190.359375 501.726563 1191.988281 507.253906 1197 510 C 1194.859375 495.507813 1185.519531 478.433594 1172 472 M 888 481 C 870.558594 495.152344 851.199219 515 851 539 C 858.550781 534.433594 865.269531 522 869 514 L 870 514 C 862.980469 531 841 559.292969 873 564 C 871.332031 561.234375 869.285156 559.25 867.175781 556.828125 C 863.464844 552.570313 863.246094 544.214844 871 547.4375 C 879.25 551 882.929688 560.238281 891 564 C 889.515625 559 886.601563 555.6875 883 552 C 898 557 916.425781 558.664063 929.984375 548.386719 C 934 545.257813 939 530.207031 943.945313 530.207031 C 948.753906 530.207031 945.90625 538 944.8125 540 C 940.996094 547.09375 934.445313 552.105469 927 555 C 919.230469 558 901.753906 556.1875 897 563 C 912.875 563 933.28125 564.726563 944.609375 551 C 949.394531 545.148438 949 536.78125 953.652344 531.148438 C 956.664063 527.460938 961.527344 528.230469 964 524 C 958.523438 525.1875 954.433594 524 951.351563 519 C 939.820313 500.445313 928.734375 486 905 486 C 896 486.015625 886.617188 487.742188 883 497 C 891.886719 495 899.808594 493 909 493 L 909 494 C 893.363281 494 878.695313 499.164063 871 514 L 870 514 C 873.84375 506 890.359375 489.632813 888 481 M 613 482 C 616.554688 491.238281 624 498.703125 628 508 C 624 504.210938 619.839844 500.550781 615 498 C 591.632813 485.128906 572.394531 504.605469 557 520 C 565.394531 505.40625 580.5625 493 598 492.710938 C 605.535156 492.585938 612.53125 495.675781 620 496 C 615.972656 487.570313 606.511719 486.011719 598 486 C 573.332031 486 561.917969 501 549.648438 520 C 546.703125 524.496094 542.84375 524.363281 538 525 C 540.808594 527.445313 544.960938 527.585938 547.488281 530.3125 C 550.972656 534.085938 550.996094 540.5625 553.53125 545 C 559.722656 555.828125 571.328125 560.5625 583 562.738281 C 585.769531 563.257813 604.792969 566.429688 604.792969 561.210938 C 604.792969 558.097656 594.882813 559.011719 593 558.828125 C 581 557.683594 569.21875 554.25 561.210938 545 C 559.308594 542.796875 552.28125 533.65625 556.617188 531 C 561.324219 528 569.804688 546 573 548.363281 C 586.179688 558.324219 603 556.398438 618 553 C 615.492188 556.671875 612.621094 559.816406 611 564 C 619.734375 561.03125 622.808594 551.226563 631 547.476563 C 637.710938 544.402344 639.769531 551.457031 635.851563 556 C 633.402344 558.777344 630.703125 560.636719 629 564 C 632.1875 563.71875 635 563.136719 638 561.582031 C 658.644531 550.332031 639.179688 537 637 523 C 642 528.496094 646.222656 535.296875 652 540 C 651.953125 523 640.949219 508.457031 630.269531 496 C 625.332031 490.238281 620.496094 484.226563 613 482 M 946 521 C 933 513.5 924.703125 497.800781 909 495 C 923.234375 489.457031 940.292969 510.75 946 521 M 720 496 C 718.84375 505.152344 716.859375 514 715 523 C 724.519531 518.050781 722.699219 505 722 496 L 720 496 M 1177 499 C 1176.996094 527.257813 1170.308594 558.070313 1161.972656 585 C 1157.867188 598.273438 1150 611.242188 1148 625 C 1156.621094 621 1160 609.511719 1162.996094 601 C 1170.78125 578 1173.707031 554 1177 530 C 1178 522.402344 1184.203125 504.484375 1177 499 M 614 520 C 609.527344 517 603.265625 507.828125 597 509.082031 C 590.902344 510.320313 592 525.070313 584 521 C 578.460938 518.007813 580.929688 511.046875 585 508.144531 C 596.671875 500.109375 611.304688 507.160156 614 520 M 889 520 C 892.808594 507 905.757813 500.527344 917.945313 509 C 921.648438 511.535156 924.890625 517.761719 919.773438 520.816406 C 911.605469 525.6875 912.480469 510.402344 905.980469 509.425781 C 899.175781 508.40625 894.265625 517.144531 889 520 M 629 508 L 628 509 L 629 508 M 630 510 L 629 511 L 630 510 M 290 514 C 293.347656 525.289063 302.796875 534.578125 306.945313 546 C 316.320313 571.792969 312.183594 619.414063 345 628 C 341 618.664063 333.378906 612 330 602 C 322.894531 581.210938 320 559.261719 311.421875 539 C 307 529.117188 300.464844 518.054688 290 514 M 1157 627 C 1168.539063 625.261719 1174.335938 615.121094 1178 605 C 1185.445313 584.824219 1187 562.832031 1195.464844 543 C 1199.566406 533.332031 1208 525.550781 1210 515 C 1200 518.191406 1195 528.066406 1190.78125 537 C 1181.265625 557.140625 1177.890625 579.191406 1170.304688 600 C 1166.902344 609.328125 1158.871094 617.292969 1157 627 M 574 517 C 581.421875 542.71875 616.398438 548.699219 621 518 L 622 518 C 623 522.230469 622.222656 525.804688 621 530 C 616.199219 548.628906 595.621094 550.074219 581 540 C 574.300781 535.1875 568.828125 524.570313 574 517 M 882 518 C 884.308594 523.625 886.347656 530.414063 891 534.472656 C 906.355469 547.476563 924.367188 534 929 518 L 930 518 C 936 538.53125 904 555.078125 888 543.296875 C 883.546875 540 882.605469 534.21875 881.753906 529 C 881 525.246094 880.507813 521.558594 882 518 M 557 520 C 556.453125 521.636719 556.636719 521.453125 555 522 C 555.546875 520.363281 555.363281 520.546875 557 520 M 637 521 L 636 522 L 637 521 M 878 526 C 879 527.140625 879.308594 527.609375 880 529 C 878.179688 528.136719 877.613281 528 878 526 M 626 528 L 625 529 L 626 528 M 523 535 C 523 563.808594 534 605.425781 559 623 C 555 601 537.21875 581.535156 530.34375 560 C 528.257813 553.464844 528.421875 539.128906 523 535 M 976 535 C 975.996094 566.597656 953.496094 593 944 622 C 950.8125 618.8125 954.171875 612.121094 958 606 C 967.335938 591.363281 976.46875 574.644531 977.914063 557 C 978.414063 551 981.8125 539.105469 976 535 M 532 537 C 532 546.753906 530 561.648438 542 565 C 538.933594 555.308594 535.316406 547.359375 534 537 L 532 537 M 967 538 C 966.578125 547.808594 961.660156 555.6875 960 565 C 968.339844 560.464844 973.308594 546.019531 967 538 M 619 552 L 618 553 L 619 552 M 595 663 C 622.476563 655.085938 645.601563 618.066406 653 592 C 645.523438 596.519531 640.445313 611.65625 635.277344 619 C 628.40625 628.773438 620.523438 638.59375 611.984375 647 C 606.527344 652.308594 598.847656 656.285156 595 663 M 850 592 C 857.941406 612.472656 869.351563 632 884.574219 647.828125 C 891.203125 654.746094 898.960938 662.480469 909 663 C 896.335938 649.179688 882.414063 639.113281 871.667969 623 C 865.730469 614.101563 859.636719 597 850 592 M 751 607 C 750.3125 615.710938 744.789063 634.195313 754 640 C 752.613281 629.042969 753 618.039063 753 607 L 751 607 M 652 617 C 642 632 633.578125 647.382813 621.710938 661 C 615 668.566406 604.289063 673.804688 600 683 C 621.464844 678 635 656.300781 644.746094 638 C 647.820313 632.132813 654.683594 624 652 617 M 849 617 C 855.53125 639.6875 877.441406 679.167969 903 683 C 896.753906 670.761719 883.902344 663.644531 875.519531 653 C 867.167969 642.402344 861.558594 623.121094 849 617 M 939 635 L 940 636 L 939 635 M 564 636 C 564.601563 650.015625 567.199219 663 564.539063 677 C 561.867188 691.179688 553.378906 704.441406 553 719 C 552.433594 742.363281 562.433594 764 568.574219 786 C 571.523438 796.601563 573.769531 807.394531 576.707031 818 C 578 823 578.292969 828.277344 583 831 C 577.484375 811.386719 577 790.691406 571.84375 771 C 567.527344 754.804688 558.246094 737.128906 559.210938 720 C 560.351563 699.671875 570 681.019531 570 660 C 570 652 570 642.070313 564 636 M 937 637 C 933 654.410156 931.894531 670.328125 935.449219 688 C 937.980469 700.589844 944 712 942.921875 725.015625 C 939.886719 760.800781 920.757813 794.335938 920 831 C 923.710938 828.214844 924.617188 822.335938 925.859375 818 C 929 806.773438 931.507813 795.324219 934.375 784 C 939.519531 763.679688 949.921875 743.339844 949.921875 722 C 949.921875 705.113281 940.933594 689.347656 937.804688 673 C 935.332031 660.078125 938.449219 649.65625 939 637 L 937 637 M 508 667 C 508 676.386719 507.265625 691.210938 517 696 C 514.464844 688.015625 514.992188 672.25 508 667 M 993 667 C 991 676.558594 986 687.242188 987 697 C 993 691.011719 998.664063 674.480469 993 667 M 517 672 C 517 689.058594 519.464844 715.59375 534 727 C 531.226563 708.222656 521.492188 691.304688 519 672 L 517 672 M 968 726 C 983.9375 718 986 687.605469 986 672 C 981.484375 675.179688 981.863281 683 980.789063 688 C 977.988281 701.226563 971 713 968 726 M 741 680 C 748 680.5625 754.863281 683 762 683 C 760.28125 681.160156 759.433594 680.652344 757 680 C 761.445313 669.644531 744.503906 675.535156 741 680 M 754 679 L 749 678 C 751.300781 677.085938 752.378906 677.121094 754 679 M 749 690 C 743.90625 681.054688 726.457031 687.824219 739 689.164063 L 742.996094 689.714844 C 745 690 746.984375 690 749 690 M 768 686 C 754.976563 686.011719 763.617188 692.601563 768 686 M 672.707031 696.175781 C 670.613281 697.773438 669.261719 708.5625 673.316406 706.652344 C 676.375 705.214844 674.867188 694.527344 672.707031 696.175781 M 827 695 C 827 697 826.964844 699.003906 827 701.003906 C 827.261719 714.414063 836.886719 700.71875 827 695 M 627 700 C 626.921875 729 612 756.207031 605.886719 784 C 602.398438 799.496094 606.414063 815.804688 601.652344 831 C 598 842.496094 580.484375 871.414063 597 880 C 596.742188 874 595.234375 868.023438 596.519531 862 C 598.761719 851.488281 605.492188 842.554688 607.714844 832 C 610.46875 819 608.402344 805.261719 610.285156 792 C 612.414063 777.003906 618.414063 762.820313 621.398438 748 C 623.609375 737.011719 625.621094 726 627.800781 715 C 628.789063 710.007813 630.261719 704.304688 627 700 M 638 746 C 643.34375 742.03125 644.789063 736.304688 648.441406 731 C 654.671875 722 664.984375 713.160156 667 702 C 649.355469 707.09375 638 728.515625 638 746 M 715 702 L 715 703 C 698.644531 707 682.558594 719.445313 675.878906 735 C 670 748.425781 672.730469 763.722656 687 770 C 673.527344 747 682.839844 723.203125 707 712.3125 C 726.246094 703.636719 749.644531 706 770 707.828125 C 779.378906 708.722656 788.253906 708.59375 797 712.785156 C 819.300781 723.480469 829.65625 748.066406 816 769 C 829.179688 766.609375 831.613281 751 828.226563 740 C 822.957031 723 805.984375 708 789 703 L 789 702 C 802.976563 703.140625 823.546875 715.261719 830 728.003906 C 837.277344 742.375 832.191406 768.269531 816 774 C 809.453125 776.175781 795.976563 776.632813 797.488281 766 C 798 761.570313 802.945313 758.527344 802.765625 754 C 802.167969 739.265625 784 739.285156 775 744 C 786.394531 730.753906 801.507813 744.441406 808 755 C 811 741.519531 794.835938 729.132813 782 732.058594 C 771.234375 734.511719 766.285156 745.039063 765 755 C 768 752.269531 769.832031 748.644531 773 746 C 766.90625 757.585938 764 771.191406 774.328125 781.785156 C 778.195313 785.761719 789.589844 787.320313 789.425781 794.039063 C 789.3125 799 784.417969 802.457031 781 805.113281 C 773.226563 811.148438 765.539063 816.578125 759 824 C 770.421875 819.246094 783.296875 813.0625 791.894531 804 C 795.691406 800 796.308594 791 800.316406 788.179688 C 805.375 784.8125 816.832031 785.597656 823 784 C 813.886719 803.265625 793.925781 809 777 819.203125 C 769.609375 823.691406 763.414063 830.523438 755 833 C 755 819.164063 756 804.773438 754.828125 791 C 753.71875 779.320313 749 765.609375 751.679688 754 C 753.351563 746.714844 758.398438 741.320313 762 735 C 750.617188 748.070313 750.308594 746 739 735 C 741.746094 740.808594 746.191406 745.652344 747.761719 752 C 749.976563 761 748 770 748 779 L 748 834 C 740.191406 829.648438 733.71875 823.347656 726 819 C 709.257813 809.179688 688.839844 802.683594 680 784 C 685.949219 785.539063 698.945313 785.011719 703.398438 789 C 706.660156 791.8125 707 798.390625 710.214844 802 C 718.289063 811.414063 732 819.574219 744 823 C 736.828125 815.832031 728.847656 810.335938 721 804 C 718 801.613281 713.621094 798.292969 713.710938 794.015625 C 713.847656 787.691406 724.917969 785.644531 728.671875 781.785156 C 736.640625 773.59375 736 763.207031 734 753 L 739 756 C 734.726563 746.359375 731.546875 733.042969 719 731.367188 C 708 730 687.734375 743.464844 696 755 C 699.230469 738.308594 721.910156 731.414063 731 747 C 728 745 725.328125 742.347656 722 741.007813 C 713.945313 737.765625 701.738281 744.289063 700 753 C 699.296875 757.300781 703.4375 760.789063 703.851563 765 C 704.894531 775.636719 692.402344 776.542969 685 773.515625 C 669.789063 767.296875 665 741.433594 672.351563 728 C 680 713.746094 699 703.304688 715 702 M 836 702 C 838 713.640625 848.199219 721.582031 854.476563 731 C 858 736.34375 859.691406 742.058594 865 746 C 864.953125 729 853 707.085938 836 702 M 875 702 C 875 732 886.734375 760 892.195313 789 C 894.796875 802.820313 891.695313 817.101563 894.464844 831 C 896.671875 842.074219 904.230469 851.140625 907 862 C 908.671875 868.085938 907 874 907 880 C 923.359375 867.816406 906.378906 846 901.4375 832 C 897 819.679688 900.300781 806.664063 898.574219 794 C 895.785156 773.503906 888.996094 754.03125 884 734 C 881.726563 724.097656 881.984375 710 875 702 M 1031 723 C 1034.753906 736.328125 1036.238281 752.378906 1046.324219 762.8125 C 1059.199219 776.125 1073.199219 756.023438 1075 744 C 1069.417969 747.644531 1067.5 755.316406 1061.960938 759.425781 C 1056 763.800781 1050.472656 760.023438 1046.527344 755 C 1040.179688 747 1039.195313 728 1031 723 M 469 724 C 466.757813 733.773438 458.257813 766.6875 443 761 C 434.898438 758 432.425781 748.753906 427 743 C 426.617188 747.445313 428.175781 751.109375 430.3125 755 C 431.679688 757.484375 433.242188 760 435.183594 762 C 450 778 463.230469 753.507813 467 741 C 468.691406 736 472.3125 728.753906 469 724 M 498 730 L 497 731 L 498 730 M 498.667969 733.667969 C 498.722656 733.722656 498.777344 734.777344 498.332031 734.332031 C 498.277344 734.277344 498.222656 733.222656 498.667969 733.667969 M 1002 734 L 1001 735 L 1002 734 M 749 745 C 756.496094 740.023438 747.21875 730.804688 749 745 M 1001 736 L 1001 739 L 1000 739 C 1000.25 737.546875 1000.316406 737.246094 1001 736 M 774 744 L 773 745 L 774 744 M 733 750 C 731.363281 749.453125 731.546875 749.636719 731 748 C 732.636719 748.546875 732.453125 748.363281 733 750 M 734 751 L 733 752 L 734 751 M 689 814 C 680.3125 815 685.273438 821.378906 689 814 M 816 814 C 817 818 819 819.65625 823 821 C 822.300781 816.566406 820.351563 815 816 814 M 809 820 C 808.925781 823.03125 810 823.375 813 824 C 811.671875 822.246094 810.753906 821.328125 809 820 M 691 825 C 693.78125 824.1875 694.628906 823.546875 696 821 C 692.988281 821.507813 692 822.160156 691 825 M 621 825 C 619 827.328125 617.941406 829.171875 617 832 C 620 830.398438 621.933594 828.546875 621 825 M 702 825 C 700 827 699 828.445313 698 831 C 700.820313 829.585938 702.675781 828.289063 702 825 M 800 825 C 801 828.105469 802 829.484375 805 831 C 804.273438 827.574219 803.28125 826.253906 800 825 M 881 826 C 881.804688 829 882.675781 830.09375 885 832 C 884.195313 829.109375 883.324219 828 881 826 M 622 840 C 628.328125 838 630.699219 833.46875 631 827 C 625.519531 829.617188 623.359375 834.277344 622 840 M 711.472656 828.347656 C 708.945313 829.617188 710.617188 837.039063 713.363281 835.652344 C 715.886719 834.378906 714.214844 827 711.472656 828.347656 M 793 837 C 792.988281 823.640625 785.855469 833.058594 793 837 M 880 839 C 877 823 866.761719 834.457031 880 839 M 640 831.058594 C 636.949219 831.660156 633 841.792969 637.277344 841.792969 C 641.796875 841.792969 644.644531 830.179688 640 831.058594 M 868 844 C 867.957031 842 867.925781 840 867.480469 838 C 866.957031 835.644531 861.96875 826.09375 859.367188 832.324219 C 857.375 837.097656 864.550781 842.378906 868 844 M 729 839 C 730.9375 829.605469 721.765625 833 729 839 M 652 844 C 662.667969 834.824219 648.316406 831.148438 652 844 M 853 844 C 852.628906 842.023438 852.378906 840 851.859375 838.015625 C 849.488281 829.121094 841.898438 838.765625 853 844 M 684 845 C 692 837.269531 682.527344 831.269531 684 845 M 815 835 C 815.570313 839.21875 816 842.769531 820 845 C 819.1875 841 818.84375 837.242188 815 835 M 733.59375 841.175781 C 731.335938 842.722656 734 847.460938 736.347656 845.824219 C 738.476563 844.332031 735.929688 839.574219 733.59375 841.175781 M 765 846 C 771 842.539063 766.886719 839.175781 765 846 M 719.210938 843.34375 C 716.863281 844.429688 717.621094 849.386719 720.453125 848.246094 C 722.625 847.375 721.535156 842.269531 719.210938 843.34375 M 800 842 C 800.339844 846.375 801.667969 848.097656 806 849 C 804.78125 845.445313 803.375 843.660156 800 842 M 700.558594 844.15625 C 698.902344 845.191406 699.8125 848.023438 701.773438 847 C 703.574219 845.757813 702.515625 843 700.558594 844.15625 M 783.171875 844.632813 C 780.679688 845.195313 781 850.65625 783.792969 850.078125 C 786.296875 849.527344 785.902344 844.015625 783.171875 844.632813 M 760 847 L 759 852 C 761.28125 850.554688 761.582031 849.6875 762 847 L 760 847 M 747 854 C 746.394531 846.136719 740.859375 850.625 747 854 M 766 859 L 768 859 C 769.191406 855 771.75 852.511719 772 848 C 767 850.386719 766 853.816406 766 859 M 731 849 C 731.585938 854.234375 733.789063 857 739 858 C 737 853.816406 735 851.15625 731 849 M 789 865 C 794.777344 862 795.242188 856 796 850 C 789.714844 853.089844 789 858.550781 789 865 M 614 857 C 616.808594 855.359375 617.328125 854.21875 617 851 C 614.9375 853 614.421875 854.15625 614 857 M 675.171875 852.175781 C 673 853.433594 672.691406 859.644531 675.714844 857.824219 C 677.800781 856.566406 678.378906 850.3125 675.171875 852.175781 M 817 851 C 817.21875 855 817.984375 857.339844 821 860 C 820.902344 856 820.65625 853.136719 817 851 M 826.667969 852.253906 C 824.699219 853.59375 827.335938 857.621094 829.398438 856.65625 C 831.824219 855.523438 828.898438 850.738281 826.667969 852.253906 M 685.519531 853.339844 C 684 854.050781 683.742188 857.644531 685.855469 856.660156 C 687.410156 856 687.507813 852.363281 685.519531 853.339844 M 886.652344 853.339844 C 884.988281 854.242188 886.769531 857.566406 888.449219 856.660156 C 890 855.730469 888.359375 852.417969 886.652344 853.339844 M 714 864 C 713.953125 848.050781 703.351563 858.078125 714 864 M 661.472656 855.15625 C 660 856.148438 660.75 859.097656 662.527344 858 C 663.925781 857 663.25 854 661.472656 855.15625 M 841 855 C 841.804688 858 842.675781 859.09375 845 861 C 844.625 857.714844 844.191406 856.117188 841 855 M 622 858.175781 C 619.34375 859.546875 618.949219 865.691406 622.828125 863.824219 C 625.617188 862.480469 625.839844 856.339844 622 858.175781 M 878 858.085938 C 875.664063 860.277344 879.5625 865.589844 881.945313 863 C 883.816406 861 880.324219 856 878 858.085938 M 774.375 862.347656 C 771.320313 863.542969 772 870.492188 775.789063 869.246094 C 779 868.15625 777.789063 861.007813 774.375 862.347656 M 701 862 C 701.527344 871.554688 708 865.785156 701 862 M 728.261719 863.175781 C 724.949219 863.722656 726.566406 869.570313 729.738281 869 C 733 868.285156 731.425781 862.652344 728.261719 863.175781 M 800 863 C 794.675781 868.273438 802 871 800 863 M 852 865 C 852 867.648438 851.851563 870.367188 852.183594 873 C 853.773438 885.492188 866.980469 878.59375 857.894531 869.058594 C 856 867.175781 854.304688 866.074219 852 865 M 870.589844 866.34375 C 868.589844 867.355469 870.417969 871.714844 872.484375 870.65625 C 874.535156 869.605469 872.730469 865.261719 870.589844 866.34375 M 630.546875 867.085938 C 628.804688 868.402344 628.960938 873.476563 631.828125 871.824219 C 634.46875 870.304688 633.492188 865 630.546875 867.085938 M 647.984375 867.347656 C 643.6875 868.683594 639.253906 882 646 880.246094 C 651 879 653.644531 865.585938 647.984375 867.347656 M 715 869 C 715.324219 879 722 873.050781 715 869 M 785.289063 871.175781 C 783 872.488281 783.632813 877.570313 786.316406 875.824219 C 788 874.648438 787.976563 869.527344 785.289063 871.175781 M 681.320313 872.3125 C 675 875 683.421875 880.121094 687.941406 878.257813 C 696 875 685 870.699219 681.320313 872.3125 M 813 872 C 817.839844 886 828.761719 871.144531 818.988281 871.226563 C 817 871.246094 814.957031 871.753906 813 872 M 840.601563 873.324219 C 838.746094 874.199219 840.714844 877 842.398438 876.253906 C 844.234375 875.460938 842.246094 872.550781 840.601563 873.324219 M 660.742188 874.15625 C 659 875.300781 660.648438 878.027344 662.398438 877 C 664 875.722656 662.449219 873 660.742188 874.15625 M 670.3125 878.046875 C 666.488281 880.460938 669.414063 887.332031 673.6875 885 C 677.835938 882.566406 674.941406 875.128906 670.3125 878.046875 M 827.605469 878.046875 C 824 880.648438 828.769531 887.1875 832.398438 884.761719 C 836.230469 882.203125 831.480469 875.128906 827.605469 878.046875 M 704 878 L 705 886 C 708.917969 883.449219 707.730469 880.058594 704 878 M 798 878 C 790.824219 885.023438 801.480469 889.792969 798 878 M 690 885 C 684.257813 897 697.308594 892.832031 690 885 M 811 885 C 809.5 897.785156 818.453125 889.113281 811 885 M 901 887 C 901 892.410156 902.203125 896.082031 908 897 C 906.738281 892.738281 904.886719 889.292969 901 887 M 601 888 C 591.519531 896.363281 604.253906 897.199219 601 888 M 744 888 L 744 889 C 741.746094 889.75 740.6875 890.34375 739 892 C 744.320313 892 763.46875 896.472656 761 888 C 781.71875 894.742188 799.503906 907.308594 819 916.742188 C 823.324219 919 837.875 922 839.554688 926.636719 C 840.496094 929.296875 836.980469 933 835.695313 935 C 832.773438 939.640625 830.679688 944.441406 831 950 C 820.421875 947.492188 805 941 798.359375 932 C 795.695313 928.339844 803 916.453125 799.234375 915.769531 C 796.691406 915.3125 793.765625 919.265625 792 920.609375 C 787.90625 923.730469 782.914063 925.109375 778 926.371094 C 760.488281 931 743.628906 930.652344 726 927 C 719.78125 925.707031 713.972656 924 709 919.792969 C 707.4375 918.5 704 914.253906 701.65625 915.347656 C 697.828125 917.058594 707.773438 929.03125 709 931 C 700.300781 934.621094 692.230469 939.589844 684 944.140625 C 681.457031 945.546875 676.65625 949 673.703125 947 C 669.554688 944.160156 665.1875 930.679688 662 926 C 665.835938 923.761719 671.183594 920.109375 675.785156 920.078125 C 677.882813 920.0625 681.589844 925.738281 683 924.09375 C 685 922.027344 680 919.605469 679 919 C 698.195313 908.152344 721.519531 890 744 888 M 631.371094 890.175781 C 628.730469 891.613281 629.34375 897.105469 632.539063 895 C 634.578125 893.519531 634.519531 888.460938 631.371094 890.175781 M 868.835938 890.175781 C 866.539063 891.808594 870 896.410156 872.304688 894.824219 C 874.574219 893.25 871 888.601563 868.835938 890.175781 M 679 891 C 669.296875 896.09375 679.808594 905.769531 679.242188 896.019531 C 679 894.339844 679 892.6875 679 891 M 824 891 C 823.691406 892.652344 823.28125 894.339844 823.1875 896.023438 C 822.605469 906.59375 833.71875 897.371094 824 891 M 654 899 C 657.34375 897.316406 658.425781 895.699219 659 892 C 656 893.773438 655 895.789063 654 899 M 648 894 C 644.75 897.398438 641.84375 900.648438 640 905 C 642.644531 904.453125 644.441406 904.140625 647 905 C 648.554688 901.316406 649.578125 897.800781 648 894 M 853 894 C 853.316406 909 863.863281 899.570313 853 894 M 844 900 L 845 900 C 845.5625 898.199219 845.824219 897 846 895 C 843.632813 896.546875 843.542969 897.214844 844 900 M 611.957031 898.347656 C 609.300781 899.265625 606.753906 906.558594 610.933594 905.246094 C 613.75 904.367188 615.871094 897 611.957031 898.347656 M 888 897 C 889.929688 909.105469 897.972656 900 888 897 M 640 899 C 634 902.214844 638.714844 907 640 899 M 663.171875 900.347656 C 660.335938 901.546875 661.441406 908.039063 664.453125 906.652344 C 666.738281 905.605469 666 899.097656 663.171875 900.347656 M 837.550781 901.347656 C 835 902.492188 836.699219 908.414063 839.503906 907.246094 C 842 906.179688 840.246094 900.085938 837.550781 901.347656 M 864 901 C 864.222656 904.007813 864.453125 905.363281 867 907 C 866.777344 904 866.546875 902.636719 864 901 M 621.242188 904.347656 C 619.222656 905.1875 617.808594 911 620.933594 909.652344 C 623 908.785156 624.238281 903.097656 621.242188 904.347656 M 879 903 C 879.972656 911.628906 886 907.152344 879 903 M 849 906 C 845.492188 914.125 854.363281 912 849 906 M 654 908 C 648.863281 913.175781 655.933594 916 654 908 M 717.171875 909.632813 C 714.558594 910.210938 714 917.726563 717 917.652344 C 720.445313 917.570313 720.667969 909 717.171875 909.632813 M 771 909 C 771.652344 924 781.417969 914.140625 771 909 M 783.546875 910.175781 C 781 911.78125 782.394531 920 785.367188 917.824219 C 787.789063 916.175781 786.960938 908.007813 783.546875 910.175781 M 737.683594 911.175781 C 735.402344 912.667969 736.511719 918.703125 739.453125 916.824219 C 741.722656 915.378906 740.480469 909.351563 737.683594 911.175781 M 726 923 C 727.667969 919 728.894531 915.460938 729 911 C 723.292969 913.132813 721.484375 918.574219 726 923 M 760 912.175781 C 757 913.71875 756.367188 922.355469 760.546875 920.652344 C 763.449219 919.472656 763.871094 910.203125 760 912.175781 M 748.183594 913.632813 C 744.988281 914.3125 745 923.785156 748.84375 923.078125 C 752.601563 922.359375 752 912.804688 748.183594 913.632813 M 690 916 C 690.648438 920.164063 692.320313 922.027344 696 924 C 694.761719 920.359375 693 918.289063 690 916 M 809 924 C 811.917969 922.484375 812.921875 921.105469 814 918 C 810 918.652344 809.300781 920.136719 809 924 M 820.257813 921.175781 C 818.214844 922.265625 817.671875 927.761719 820.753906 926.503906 C 823.507813 925.378906 823.738281 919.320313 820.257813 921.175781 M 673 926 C 670 936.453125 681 933.132813 673 926 M 829 928.347656 C 827 929.132813 824.804688 935.753906 828 935.078125 C 831 934.476563 832.363281 927.054688 829 928.347656 M 671 949 L 671 950 C 650 954.308594 626.589844 950.050781 615 930 C 623.597656 930.367188 633 936.503906 641 935.742188 C 645.449219 935.320313 652 928.488281 656.363281 931.070313 C 662.242188 934.675781 664.730469 944.546875 671 949 M 886 930 C 876 949.160156 851.800781 957.414063 832 950 C 835.714844 945.699219 841.964844 933.492188 846.417969 931.132813 C 850.65625 929 856.648438 935.285156 861 935.746094 C 869 936.59375 877.371094 930.070313 886 930 M 498 948 C 498 992.472656 500.496094 1038.449219 514.667969 1081 C 519 1094.277344 524.242188 1116.449219 538 1123 C 534.832031 1109.3125 528.371094 1096.492188 524.425781 1083 C 515.96875 1054.085938 510 1024.832031 506 995 C 504.558594 984.484375 502 973.621094 502 963 C 501.9375 958 502.484375 951.152344 498 948 M 996 960 C 996.28125 994.675781 991 1030.257813 982.871094 1064 C 978.5625 1081.738281 968.378906 1100.753906 968 1119 L 969 1119 C 988.332031 1082.738281 993 1043.066406 998.28125 1003 C 999.691406 992.140625 1004 968.664063 996 960 M 883 984 C 885.816406 993.78125 892.699219 1001.8125 894.535156 1012 C 896.910156 1025.175781 891.40625 1040.082031 889 1053 L 891 1053 C 890.847656 1048.722656 894.433594 1042.441406 895.667969 1038 C 900.253906 1021.484375 903.285156 992.007813 883 984 M 773 1075 C 773 1098.019531 779 1120 779 1143 C 779 1145.066406 779 1164 781.714844 1163.078125 C 784.226563 1162.300781 784.972656 1145.796875 785.410156 1143 C 788.214844 1125.007813 784.171875 1109.269531 779.425781 1092 C 777.921875 1086.527344 777.988281 1078.417969 773 1075 M 714 1077 C 714 1096.003906 721.71875 1114.035156 722.40625 1133 C 722.925781 1147.304688 717 1161 717 1175 L 718 1175 C 731 1152.394531 730.710938 1124.402344 723.410156 1100 C 721.238281 1092.738281 719.4375 1082.425781 714 1077 "/>
</g>
</svg>
