<?xml version="1.0" encoding="UTF-8"?>
<svg xmlns="http://www.w3.org/2000/svg" xmlns:xlink="http://www.w3.org/1999/xlink" width="1500pt" height="1500pt" viewBox="0 0 1500 1500" version="1.1">
<g id="surface1">
<path style=" stroke:none;fill-rule:nonzero;fill:rgb(0%,0%,0%);fill-opacity:1;" d="M 941 398 C 939.613281 405.367188 937.679688 413.582031 939.789063 421 C 944.625 438.019531 963.796875 453.667969 974 468 C 987 486.277344 996 506 1007.8125 525 C 1022.878906 549.597656 1039.410156 573.214844 1054.199219 598 C 1063.929688 614.304688 1078.507813 649.015625 1100 650 C 1086.90625 668.535156 1067.230469 660.015625 1056.359375 644 C 1041.496094 622.105469 1030.367188 597.460938 1018.257813 574 C 1012.371094 562.59375 1007.796875 547.671875 997 540 C 1000.214844 553.5625 1007.917969 566.390625 1013.691406 579 C 1027.753906 609.714844 1044.242188 640.3125 1049.917969 674 C 1051.828125 685.328125 1053.429688 698.03125 1048.867188 709 C 1047 713.34375 1042.363281 719.320313 1037 718.238281 C 1031.554688 717.140625 1027.410156 711.234375 1024.441406 707 C 1015.175781 693.808594 1013.425781 678.539063 1007.546875 664 C 1000.5625 646.722656 985.558594 632.4375 972 620.171875 C 965.332031 614.136719 958.386719 608.332031 952 602 C 950.269531 600.28125 946 597.242188 946 594.515625 C 946 590.820313 963 591.007813 966 591 L 966 590 C 957.757813 587 948.59375 585 940 583 L 940 582 C 948.738281 580.496094 967.429688 576.054688 972 568 C 961.480469 572.375 952.640625 577 941 577 C 942.859375 575.179688 944.660156 574.175781 947 573 L 947 572 C 940 571.375 940.355469 569.453125 943 564 C 928.417969 568.097656 933.875 561 939 552 C 928.59375 555 926.5 555.832031 927 544 L 926 544 C 922.40625 552.113281 919.4375 561.46875 917 570 C 919.46875 570.425781 921.644531 571.132813 924 572 L 918 575 C 919.75 576.253906 920.855469 576.613281 923 577 L 923 578 L 918 578 L 918 579 C 920.949219 580.308594 923.855469 581.273438 927 582 L 927 583 C 912.449219 583.625 893.292969 588 886 602 C 896.777344 598 914 579.683594 926.703125 589.125 C 930.203125 591.730469 925 592.804688 925.203125 595.21875 C 925.246094 597.183594 929.625 598.367188 931 599 C 928.503906 599.820313 926.214844 600.597656 924 602 C 966.308594 618.199219 999.242188 656.328125 1010 700 C 997.964844 689.519531 982.710938 670.699219 968 665 C 975.667969 685 994.625 698.171875 999.765625 720 C 1005.585938 744.726563 989.390625 764.6875 973 781 C 967.417969 786.554688 959.214844 796.003906 951 797.335938 C 944.53125 798.386719 937.992188 791.761719 932 790 C 933.417969 799.609375 938.398438 810.128906 944 818 C 935.679688 814.117188 927.976563 807.058594 919 805 C 919.9375 811.269531 923 816.464844 926 822 L 916 819 C 918.90625 824.027344 922.917969 828 927 832 L 912 826 C 916 833.132813 927.777344 835.652344 933.996094 841.183594 C 941.886719 848.203125 944.746094 858.558594 952 866 C 954.789063 868.601563 961.445313 874.667969 965.484375 871.351563 C 968.960938 868.503906 968 862 968 858 C 968 848 966 834.570313 968.421875 825 C 970.714844 815.597656 981.519531 809.738281 985.671875 801 C 989.875 792.15625 989.589844 781.808594 993.992188 773 C 1004.679688 751.613281 1029.992188 734.324219 1053 729 C 1049 738.148438 1050.570313 747.378906 1049.910156 757 C 1048.242188 781.347656 1047.980469 806.566406 1049 831 C 1049.863281 850 1050 871.667969 1037 887 C 1037.796875 877 1040.398438 867.128906 1039.960938 857 C 1038.949219 833.671875 1033 810.3125 1033 787 L 1031 787 C 1028 810.546875 1028.980469 836.222656 1030 860 L 1029 860 C 1024.523438 855.515625 1022.269531 866 1022 869 L 1021 869 C 1020 866.53125 1019.222656 864.300781 1018 862 C 1014.300781 864.730469 1011.972656 868 1010 872 L 1009 872 C 1008.882813 869.269531 1008.5 866.6875 1008 864 C 1005 866 1004.515625 868.574219 1004 872 L 1001 870 C 998.867188 873.214844 997.972656 876.292969 997 880 C 995.296875 877.117188 994 875.488281 991 874 L 991 889 L 990 889 C 989.480469 885.136719 988.539063 881.582031 987 878 C 984.1875 882.050781 984 887.171875 984 892 L 983 892 C 982.824219 890.121094 982.5625 888.800781 982 887 C 978.976563 890.78125 978.207031 895.238281 978 900 L 977 900 C 976.75 898.546875 976.683594 898.246094 976 897 C 968.46875 910.230469 957.210938 931.304688 962.699219 947 C 965.820313 956 975.871094 960 981.472656 967.015625 C 990 978 993.402344 992.609375 996 1006 L 995 1006 C 991.730469 995 980.855469 985.261719 971 980 C 968 978.304688 960.898438 974.195313 958 977.746094 C 955.933594 980.347656 957.945313 985.238281 958.707031 988 C 960.925781 996.058594 961 1003.703125 961 1012 C 954.199219 1004.140625 949.273438 994 940.996094 987.527344 C 934.9375 982.804688 925 981.152344 921.304688 974 C 905.410156 943.820313 952.175781 956 965 964.054688 C 971.976563 968.484375 978 974.414063 983 981 C 986 985 987.898438 990.316406 992 993 C 985.214844 972.1875 969 955.289063 947 951.09375 C 936.230469 949.050781 919 954.792969 911.808594 946 C 895.9375 927 921 904.023438 916.601563 883 C 914.835938 874.699219 906.550781 869.042969 901.289063 863 C 891.417969 851.652344 880.460938 838.65625 874 825 C 879.546875 829.519531 884.550781 834.785156 891 838 C 887.828125 828.0625 878.789063 822.21875 873 814 C 875.578125 816 878 817.613281 881 819 C 875.945313 803.035156 861 788.0625 850 776 C 853.695313 776.46875 857.265625 777 861 777 L 861 776 C 855 772.058594 849.363281 767 843 764 L 843 763 L 849 763 C 842.957031 755 823.574219 753 815 757 C 818.4375 761.160156 823.199219 764.550781 828 767 L 828 768 C 825.3125 767.5 822.730469 767.117188 820 767 C 822.214844 771.359375 826.351563 774 830 777 L 820 775 C 825.824219 785.644531 842.855469 792.007813 851 802 L 842 799 C 844.988281 806.710938 852.265625 812.265625 858 818 C 854.957031 822 863.335938 831.402344 865.574219 835 C 874.625 849.53125 884.515625 864.4375 891.691406 880 C 894.785156 886.714844 897.652344 902.601563 886.285156 891.695313 C 881 886.738281 878 878.683594 872 875 C 872.84375 880.742188 874.960938 886.21875 875.710938 892 C 877.632813 906.785156 874.488281 915.6875 885.855469 927.285156 C 888.820313 930.308594 889.574219 933.265625 894 934 L 894 935 L 890 935 C 894.429688 941.519531 894.738281 939.777344 892 948 C 894 948 896 947.441406 898 947.328125 C 902 947.101563 909 950.816406 904.636719 955.363281 C 899.980469 960.183594 891.609375 959.035156 888 965 C 892.578125 963.226563 900.902344 957.8125 905.851563 959.648438 C 909.789063 961.105469 909 966.703125 908.710938 970 C 907.542969 979 903.804688 987.195313 897.816406 994 C 891.816406 1000.820313 880.6875 1005 876 1012 C 892.488281 1010.6875 909.445313 998.03125 912 981 L 913 981 C 912.867188 997 907.730469 1013.089844 896.824219 1025 C 892 1030.121094 876.605469 1035.425781 879.242188 1044 C 883 1056.472656 895.503906 1050.570313 901.5625 1044 C 911 1033.425781 916.914063 1020 919.386719 1006 C 920.277344 1001 918.886719 987.035156 922.742188 983.707031 C 925.941406 981 931.601563 986 934 987.820313 C 941.230469 993.484375 956.6875 1006 957.390625 1016 C 957.734375 1021 952.835938 1025.691406 949.828125 1029 C 943.371094 1036.089844 934.363281 1042.523438 925 1045.074219 C 918.726563 1046.78125 911.734375 1046.015625 906 1049.484375 C 897.296875 1054.765625 892 1063.128906 882 1067 C 872.425781 1070.570313 867.570313 1065.003906 858 1065 C 834.734375 1065 811.875 1064.632813 789 1059.789063 C 776.925781 1057.230469 762 1049 750 1049.128906 C 738.644531 1049.40625 727.925781 1056.523438 717 1059.117188 C 697.683594 1063.699219 677.679688 1065.105469 658 1067.171875 C 649 1068.097656 639.886719 1073.179688 631 1071 C 621.28125 1068.277344 616 1059 607 1055.226563 C 601.71875 1053.074219 595.507813 1053.675781 590 1052.238281 C 579.316406 1049.457031 569 1043.363281 561 1035.828125 C 557.675781 1032.664063 550.703125 1026.195313 551.800781 1021 C 553.617188 1012.414063 564.960938 1002.804688 571 997.039063 C 576 992.257813 581.730469 988 588 985 C 588 1003.386719 594.429688 1020 604.671875 1035 C 607 1038.652344 619.578125 1055 623 1044 C 625.804688 1036 614.625 1028.050781 610.300781 1023 C 601.285156 1012.46875 596.757813 999.601563 595 986 L 596 986 C 600.351563 1004.320313 617.933594 1029 638 1031 C 634.195313 1025.617188 628.96875 1021.828125 624 1017.570313 C 612.640625 1008 603.722656 994.714844 600.425781 980 C 599.640625 976.496094 596.882813 967.585938 601.316406 965.480469 C 605.898438 963.304688 613.679688 968.527344 618 970 C 615.582031 966.339844 590.644531 957 606 953.339844 C 607.296875 953.046875 608.675781 953.050781 609.996094 953.015625 C 611.996094 953 614 953 616 953 C 614 949.289063 610.988281 947 608 944 L 614 944 C 613.429688 940.472656 615 937.144531 614 934 C 630.625 925.300781 631 900.230469 631 884 C 624.390625 888.238281 618.425781 905.601563 609 905 C 600 904.191406 608.40625 886.535156 610.308594 883 C 621 863 641.683594 843.378906 647 821 C 645.339844 821.613281 644.515625 822.042969 643 823 C 648 815.449219 656.675781 809.578125 660 801 L 655 802 L 655 801 C 669.550781 794.214844 677.320313 777.328125 686 765 L 682 765 L 682 764 C 685.191406 763.269531 687.511719 762.132813 690 760 C 677.429688 756.285156 656.484375 762 650 774 L 658 772 C 652.847656 777.152344 646.695313 781.660156 643 788 L 645 788 C 640.1875 792.828125 635.453125 797.53125 633 804 C 637.613281 801.816406 641.773438 799 646 796 C 638 808.617188 626.398438 818.316406 620 832 C 625.664063 830.121094 629.796875 826.117188 634 822 C 627.421875 837.804688 617 852.550781 606.574219 866 C 601 873.003906 592.355469 880 590.390625 889 C 586 909.03125 610.65625 938 593.710938 954.730469 C 589.488281 959 580.496094 956 575 956 C 562.816406 956 554 959.390625 543 964 C 549.785156 950 537.8125 927.777344 531.78125 915 C 529.695313 910.582031 527.703125 901 522 901 L 522 893 L 520 893 L 519 901 L 518 901 C 517.996094 895.234375 517.621094 890.222656 515 885 C 513.410156 887.3125 513 889.191406 513 892 L 512 892 C 511.984375 887.066406 508 877 507 887 L 505 887 C 504.664063 883.765625 504 878.683594 500 881 C 498.871094 877.09375 497.601563 874.046875 494 872 C 493.601563 874.300781 493 876 492 878 C 489.945313 874.167969 486.289063 870.378906 484 876 L 483 876 C 481.871094 872.164063 477.261719 861.6875 473 868 L 472 868 C 472 842.589844 469 817.355469 469 792 L 468 792 C 464.242188 821.746094 461.433594 853.234375 466.433594 883 C 468.710938 896.546875 474.867188 908.773438 478 922 C 448.246094 887.09375 448.277344 830.488281 448 787 C 447.9375 777.21875 448.527344 766.6875 447.910156 757 C 447.636719 752.734375 445.578125 747 449.433594 743.605469 C 456.207031 737.761719 478.285156 748.011719 485 751.371094 C 506.71875 762.230469 508 779.550781 519.46875 798 C 525.75 808.175781 534.863281 813.449219 536.574219 826 C 538.210938 838 535.859375 851 536 863 C 536 866.570313 535.941406 874 540.226563 875.292969 C 545.585938 877.046875 552.730469 869.53125 555.671875 866 C 560.660156 860 562.328125 852.066406 567.328125 846 C 574.851563 837 587.195313 828.46875 591 817 C 583.191406 819.707031 577 825.027344 570 829 C 576.808594 822.191406 583.332031 815 591 809 L 591 808 C 584.933594 809.082031 580 812.605469 575 816 C 582 805.351563 590.890625 796 596 784 C 588.558594 786.46875 582.808594 793 577 798 L 578 794 C 570.894531 797 562.988281 802 555 800.667969 C 546.351563 799.25 539.871094 792 534 786 C 518 770 501.253906 747 505.285156 723 C 508.851563 701.808594 527.800781 688.003906 536 669 C 519.492188 675.386719 509.460938 694.191406 494 703 C 499 677.175781 518.953125 654.128906 540 639.277344 C 543.363281 637 552.464844 630.429688 544 629 L 544 628 C 548.832031 626.367188 553.59375 625 557 621 C 553.730469 619.75 550.414063 618.78125 547 618 L 547 617 C 553.425781 616.171875 560.851563 615.15625 566 611 C 557.972656 607.152344 561.289063 607.464844 565 602 C 560.476563 600.3125 562.519531 598.601563 566 597 C 564.183594 594.742188 562.171875 593 560 591 C 582.367188 585.675781 598.363281 603.332031 618 609 C 608 587.558594 582.238281 593.441406 565 585.078125 C 558.222656 581.78125 557 573.699219 551 570 L 552 579 L 548 578 L 549 582 C 540.511719 581.257813 532.835938 577.039063 525 574 C 527.609375 578.3125 559.234375 589.671875 543 594 C 550.492188 608.175781 522.605469 612.671875 513 619 L 513 620 C 515.363281 620 533.328125 616.121094 531.792969 620.136719 C 529.835938 625.25 521 624.714844 518 629 C 522.179688 629.101563 529 630.054688 527.292969 636.003906 C 524.277344 646.011719 510.914063 653.386719 504.289063 661 C 498.53125 667.621094 493.222656 674.75 490 683 C 484.53125 697.453125 482.578125 718.425781 466 725.039063 C 460.214844 727.347656 457 722.796875 455 718 C 451 709.027344 447.484375 698 448.183594 688 C 450.226563 659.132813 464.238281 633.226563 477.257813 608 C 482.363281 598.113281 489 589 492 578 C 480.984375 584 474.570313 598.707031 468.191406 609 C 449.84375 638.605469 437 665.554688 437 701 L 436 701 C 433.835938 674.523438 413.488281 668.371094 396 654 C 420 659.742188 438.226563 637.570313 448.851563 619 C 458.234375 602.59375 466.644531 585.359375 477.746094 570 C 486 558.355469 497.1875 548.410156 504.523438 536 C 512.183594 523.046875 510.859375 508.828125 520.476563 496 C 530.300781 483 540.507813 470.074219 550.375 457 C 555 450.738281 561.703125 444.136719 562.785156 436 C 564.226563 425.175781 555.445313 414.773438 550.425781 406 C 543.335938 393.597656 537 378.347656 536 364 L 537 364 C 539.632813 378.808594 550.269531 394.039063 557.574219 407 C 560.300781 412 562 418.015625 567 421 C 565.785156 414.453125 565 407.660156 565 401 L 566 401 C 566.496094 412.40625 572.96875 437.160156 584 442.683594 C 593.574219 447.460938 614.503906 440.523438 625 439.285156 C 652.265625 436.066406 679.671875 437.3125 707 438 C 717.398438 438.242188 727.691406 439.4375 738 441 C 741.175781 441.3125 747.382813 443.550781 750.394531 442.226563 C 752.707031 441.207031 751.328125 437.625 750.632813 436 C 743.574219 419.492188 721.855469 421 707 421 C 677 421 646.964844 423 617 423 C 608.601563 423 593.257813 427.664063 586 423.105469 C 573.207031 415.039063 573.554688 395.597656 565.5625 384 C 550.839844 362.628906 533.402344 343.210938 518.425781 322 C 508.9375 308.570313 501.632813 293.753906 492.65625 280 C 472.242188 248.730469 445.230469 221.457031 418 196.089844 C 403.382813 182.472656 387.363281 169.464844 374.613281 154 C 355 130.304688 337 109.246094 306 101.375 C 292.300781 98 278.460938 95.75 269.222656 109.003906 C 259.992188 122.238281 259.960938 136.683594 258.910156 152 C 257.8125 168.011719 256 184 254.910156 200 C 252.996094 227.320313 253 254.636719 251.960938 282 C 250.9375 305.328125 248.695313 328.757813 252.4375 352 C 255 368.230469 264.859375 381.554688 269.804688 397 C 276.542969 418.050781 278.277344 440.398438 282.601563 462 C 287.328125 485.636719 292.878906 509.167969 296.574219 533 C 298.613281 546.140625 297 561.125 304 573 C 319 598.449219 344 615.234375 364.960938 635.171875 C 370.625 640.558594 373.492188 648.082031 379.289063 653.332031 C 386.882813 660.207031 397.722656 663 404.210938 671.171875 C 408.773438 677 409.390625 684.46875 412.3125 691 C 416.378906 700.089844 422.640625 708.289063 425.242188 718 C 430.761719 738.589844 422.847656 748.015625 412.601563 765 C 401.652344 783.148438 386 804.613281 383 826 C 390.894531 822.316406 401.167969 804.347656 410.851563 806 C 417.800781 807.179688 411 824.121094 410 828 C 404.664063 849.738281 393.773438 872.710938 392 895 C 396.875 891.34375 398.417969 882.363281 401.261719 877 C 402 875.410156 404 871.074219 406.441406 871.632813 C 408.839844 872.179688 408 878.300781 408 880 L 408 906 C 407.992188 922.363281 405.585938 938.621094 407.171875 955 C 409.300781 977 418.191406 997.207031 409.394531 1019 C 402.453125 1036.203125 390.902344 1051.597656 377 1063.816406 C 369.945313 1070.015625 359.914063 1073.824219 354.738281 1082 C 351.691406 1086.816406 350.878906 1093.6875 348.574219 1099 C 343 1111.765625 336.757813 1124.0625 329.601563 1136 C 317.929688 1155.464844 300.695313 1171.605469 289.675781 1191 C 274.730469 1217.304688 267.355469 1250.667969 256.574219 1279 C 246.355469 1306 229.808594 1334 224 1362 C 258.238281 1354.078125 265.621094 1330.132813 275.667969 1300 C 285.769531 1269.6875 294.214844 1237 307.890625 1208 C 314.203125 1194.667969 326.601563 1184.128906 334.976563 1172 C 349.257813 1151.3125 360.253906 1129.503906 371.257813 1107 C 382.222656 1084.585938 412.242188 1074.339844 420 1050 L 421 1050 C 425.453125 1074 421.949219 1100.578125 423.914063 1125 C 424.601563 1133.535156 423.289063 1146.796875 430 1153 C 433.347656 1146.058594 432.578125 1138.480469 433 1131 C 434 1117.253906 435 1103.820313 435 1090 C 435 1059.675781 436.730469 1029.382813 435.984375 999 C 435.632813 984.632813 433 970.398438 433 956 L 434 956 C 438 966.726563 451.371094 973.367188 453.425781 985 C 454.746094 992.488281 440.765625 995.425781 443.175781 1000.765625 C 445 1005 452.480469 1008.125 455.472656 1012 C 461.753906 1020.140625 464.6875 1030.582031 468.449219 1040 C 469.527344 1042.695313 472.730469 1047.527344 470.304688 1050.257813 C 465.640625 1055.5 452.179688 1048.683594 447 1047 C 451.460938 1056.128906 463.921875 1060.503906 470 1069 C 475.671875 1076.734375 472 1081.507813 463 1080.269531 C 460.316406 1080 457.660156 1079.496094 455 1079 C 461.859375 1091.542969 492.476563 1106.519531 475.609375 1124.785156 C 470.589844 1130.226563 462.695313 1130.023438 458 1136 C 481.671875 1142 486.175781 1161.085938 489.574219 1183 C 490.359375 1188.066406 491 1209.601563 496.328125 1211.652344 C 499.371094 1213 500.992188 1207 501.558594 1205 C 504 1196.5625 504 1187.710938 504 1179 C 509.90625 1183.761719 516 1189.363281 524 1190 C 527.769531 1190.160156 533.792969 1189.222656 532.199219 1184 C 530.683594 1179.011719 524.988281 1175.058594 521.898438 1171 C 515 1162.039063 507 1151 504 1140 C 515.335938 1151.335938 526.882813 1161.664063 543 1165 C 538.972656 1156.363281 529.464844 1149.179688 523 1142 C 510.882813 1128.035156 498.203125 1112.296875 491 1095 C 511 1107.574219 527.574219 1131.238281 551 1138 C 547.789063 1128.480469 538.675781 1123.035156 532 1116 C 519.808594 1103 507.945313 1088.261719 498.425781 1073 C 487.21875 1055.035156 487.21875 1037.152344 483.574219 1017 C 480.664063 1001 475 985.246094 473 969 L 474 969 C 476 983.425781 488 997.480469 496.425781 1009 C 520.4375 1042.257813 550.273438 1070.082031 583 1094.628906 C 593.992188 1103 605 1111.164063 617 1118.140625 C 621.835938 1121 630.507813 1124.175781 632.351563 1130.015625 C 635 1139 619.921875 1148.460938 617 1156 C 621 1155.386719 639.207031 1146.664063 641.792969 1152.589844 C 643.457031 1156.398438 633.375 1160.109375 631 1161.128906 C 616.90625 1167.164063 603.78125 1166.003906 589 1166 L 589 1167 C 597.382813 1171 607.570313 1175.027344 617 1173.699219 C 619.605469 1173.332031 627 1170.265625 628.742188 1173.605469 C 630 1176.273438 626 1180.207031 624.558594 1182 C 618.671875 1188.683594 610.363281 1192.023438 604 1198 C 614.304688 1200.601563 628.566406 1197.089844 639 1195.410156 C 642 1195 649.722656 1192 652.453125 1194.066406 C 656.898438 1197.632813 643.375 1206.28125 641 1207.769531 C 627.230469 1216.402344 609.996094 1219 594 1219 C 599 1225.644531 616.304688 1225 624 1225 C 626.636719 1225 634.246094 1223.730469 635.746094 1226.601563 C 638.5 1232 625.292969 1240.476563 622 1242.789063 C 605 1254.695313 585.355469 1259.605469 565 1258 L 565 1257 C 576.828125 1250.15625 566 1240.292969 558 1236.246094 C 540.886719 1227.664063 520.933594 1225 502 1225 C 503.957031 1231.140625 501.507813 1235.296875 499.199219 1241 C 497.34375 1245.589844 494.78125 1254.167969 488.996094 1255.117188 C 484.167969 1256 479 1249.136719 476.289063 1246 C 466.214844 1234.4375 461.246094 1224.039063 466 1209 C 468.363281 1201.660156 472.183594 1193.34375 481 1194 C 479.601563 1189.144531 471.800781 1170.414063 465 1172.347656 C 461.175781 1173.488281 459.832031 1180.699219 458.574219 1184 C 454.613281 1194.410156 441.566406 1213 443.429688 1224 C 444.859375 1232.464844 453.285156 1239 458.574219 1245 C 470.8125 1259.089844 483.757813 1272.777344 498 1285 C 504.988281 1290.796875 515.621094 1295.613281 520 1304 C 522.683594 1309.070313 520.265625 1315.636719 520 1321 C 519.496094 1334 522 1351.003906 533 1359.210938 C 545.355469 1368.386719 562.820313 1359.386719 572.980469 1350.671875 C 576.789063 1347.40625 578.414063 1337.808594 584 1339.152344 C 618.265625 1347.371094 649.515625 1362.414063 685 1366.714844 C 788.425781 1379.25 905 1342.210938 963.65625 1252 C 979 1228.292969 982.40625 1202.757813 989 1176 C 982.246094 1178.296875 977.753906 1184.5 972 1188.5625 C 960.765625 1196.488281 946.871094 1202.402344 933 1203 C 937 1209 951.382813 1206.804688 952.867188 1215.09375 C 954.433594 1223.820313 939 1235.335938 933 1239.300781 C 915.632813 1250.550781 898.761719 1248.320313 880 1253 C 870 1255.332031 861.375 1262.714844 852 1267 C 783.433594 1297.175781 703.21875 1304.199219 630 1289.550781 C 602 1284 577 1271.417969 550 1264 C 552.5625 1273.335938 543.238281 1278.738281 540.359375 1287 C 535.285156 1301.554688 532 1341.738281 556 1342 C 561.726563 1342 566 1338.332031 571 1336 C 567.824219 1359.433594 543.976563 1357.550781 533.878906 1340 C 522.175781 1319.660156 525.210938 1294.382813 531.722656 1273 C 534.246094 1264.703125 538.398438 1253.269531 547 1249.5 C 554.554688 1246.191406 559.878906 1257.730469 565 1261.351563 C 571.953125 1266.265625 581.824219 1266.71875 590 1265.714844 C 623.675781 1261.578125 647.964844 1240 678 1227 L 678 1228 C 660.824219 1236.769531 646.296875 1251.089844 629 1260.21875 C 620.863281 1264.515625 609.214844 1267.152344 605 1276 C 627.503906 1276 652.539063 1271.6875 673 1261.742188 C 683.453125 1256.660156 691.972656 1248.714844 702 1243 C 690.757813 1252.8125 678.691406 1261.726563 667 1271 C 661.179688 1275.613281 654.488281 1279.675781 652 1287 C 680 1285.792969 701.289063 1265.289063 726 1255 C 714 1266 695.398438 1273 686 1286 C 731.636719 1286 775.871094 1279.824219 820 1268.117188 C 833.378906 1264.566406 858.207031 1260.199219 867 1249 C 861.515625 1246 855.238281 1243.074219 849 1242 L 849 1241 C 867.359375 1241.789063 884.664063 1244.671875 903 1240.789063 C 910.8125 1239.136719 919 1237.703125 924 1231 C 897.3125 1231 875.714844 1226 850 1220 L 850 1219 C 864.492188 1219 879.523438 1218 893 1212.128906 C 896 1210.832031 906 1206.402344 902.914063 1201.601563 C 900.875 1198.496094 892.183594 1200 889 1200 C 875.964844 1200 863 1199 850 1199 L 850 1198 C 865.273438 1194.46875 880 1187.683594 896 1187 L 896 1185 C 879.195313 1182.828125 861.253906 1179.328125 846 1171.753906 C 842.3125 1170 830.660156 1165.066406 833.175781 1159.277344 C 835.292969 1154.40625 843 1156.792969 847 1157 C 860.269531 1157.539063 873.734375 1158 887 1158 C 876.433594 1144.183594 853.382813 1133.488281 854 1113 C 854.453125 1104.253906 861.238281 1097.671875 869 1094.707031 C 885.53125 1088.390625 902.371094 1083.808594 918 1075.140625 C 930.363281 1068.28125 941 1057.5625 954 1052 C 949 1065.136719 935.453125 1075.828125 934 1090 C 938.535156 1088.015625 942.265625 1085.230469 946 1082 C 940 1096 927.203125 1105.789063 922 1120 C 934.78125 1116.238281 945.789063 1104.132813 955 1095 C 948.628906 1106.433594 939.613281 1117.324219 930.828125 1127 C 926.511719 1131.757813 921 1135.234375 918 1141 C 933.96875 1138.152344 947.953125 1123.800781 961 1115 C 948.738281 1134.6875 928.601563 1146.226563 915 1164 C 936.558594 1160.816406 951 1142.242188 969 1132 C 952.769531 1152 936 1171 915 1186 L 915 1187 C 936 1186.03125 950 1165.484375 968 1157 C 956.921875 1168.078125 941.398438 1177.746094 932 1190 C 947.816406 1189.664063 963.980469 1178.800781 976 1169.332031 C 980.203125 1166.019531 987.371094 1155.207031 992.957031 1155.207031 C 996.78125 1155.207031 998.898438 1161.195313 1000.21875 1164 C 1004.984375 1174.128906 1006 1185 1006 1196 C 1005.984375 1206 1004.65625 1217.328125 999.523438 1226 C 988.648438 1244.378906 966.980469 1254.792969 957.378906 1274 C 953.554688 1281.644531 953 1291.574219 953 1300 C 963 1295.261719 966.851563 1282.460938 976 1276 C 973.316406 1286 968.789063 1295.117188 966 1305 C 963.347656 1315.523438 961.664063 1327.207031 963.808594 1338 C 964.207031 1340.007813 966.324219 1351.308594 970 1348.246094 C 976.320313 1343.152344 977.523438 1327.378906 979.722656 1320 C 986 1299 994.417969 1277.671875 1004.246094 1258 C 1006.863281 1252.761719 1013.816406 1232.726563 1019.996094 1231.632813 C 1023.953125 1231 1025.8125 1240.429688 1026.667969 1243 C 1030.796875 1255.4375 1034 1269 1034.910156 1282 C 1035.75 1294.246094 1033.949219 1306.410156 1029.921875 1318 C 1027.855469 1324 1022 1330.488281 1022.332031 1337 C 1022.503906 1342.152344 1029.515625 1343.621094 1032.816406 1346.527344 C 1036.949219 1350.175781 1038.933594 1355.65625 1039.699219 1361 C 1042.816406 1382.679688 1024.976563 1398.117188 1019 1417 C 1026.992188 1416.398438 1031.464844 1409.027344 1035.84375 1403 C 1046.796875 1388 1056.738281 1366 1052.714844 1347 C 1051.804688 1342.710938 1050 1338.390625 1046.8125 1335.394531 C 1044.28125 1333.121094 1039.261719 1332.105469 1039.539063 1328 C 1039.863281 1323.078125 1044.1875 1318.464844 1045.933594 1314 C 1049.488281 1305 1051.953125 1294.785156 1052 1285 C 1052 1268.59375 1050.527344 1253.175781 1043.6875 1238 C 1039.824219 1229.425781 1032.378906 1222.011719 1029.789063 1213 C 1027.492188 1205.007813 1028.8125 1195.328125 1027.71875 1187 C 1025.402344 1169.398438 1021.550781 1152.03125 1016.574219 1135 C 1013.53125 1124.582031 1010.40625 1114 1006 1104 C 1003.570313 1098.03125 998.734375 1091.796875 999.226563 1085 C 1000.363281 1069.253906 1012 1053.007813 1015.195313 1037 C 1019.335938 1015.40625 1013.371094 990.464844 1022.914063 970 C 1027.859375 959.398438 1038.765625 953.042969 1044.652344 943 C 1054.746094 925.785156 1058.867188 905 1064.425781 886 C 1067.652344 875 1072.496094 863.574219 1073 852 L 1072 852 C 1068.246094 857.691406 1065.4375 863.777344 1061 869 C 1063.371094 839 1064.355469 809.222656 1063.996094 779 C 1063.824219 764.628906 1060 750.402344 1062.300781 736 C 1064 725 1071.382813 715.28125 1075.546875 705 C 1078.921875 696.675781 1079.4375 687.097656 1082.742188 679.042969 C 1084.90625 673.773438 1091.359375 672.796875 1096 670.6875 C 1102.773438 667.609375 1108.804688 663.351563 1113.960938 658 C 1121.355469 650.3125 1120.476563 639.375 1127.214844 632.425781 C 1149.628906 609.304688 1182.644531 590.746094 1199.535156 563 C 1207.816406 549.398438 1207 533.230469 1209.425781 518 C 1213.269531 493.195313 1218.945313 468.722656 1223.25 444 C 1226.835938 423.402344 1228.503906 401.726563 1235.695313 382 C 1241.394531 366.371094 1252.898438 353.828125 1255.714844 337 C 1259.476563 314.523438 1257 292.511719 1256 270 C 1254.890625 243.726563 1254.65625 217.28125 1254 191 C 1253.660156 176.582031 1251.667969 162.378906 1251 148 C 1250 128 1252.886719 108 1239.480469 91 C 1229 78 1213.476563 79.40625 1199 83.722656 C 1167.453125 93.121094 1148.542969 113.476563 1128 138 C 1091.738281 181.554688 1043.714844 215.371094 1013.425781 264 C 1000.773438 284.3125 990.675781 306.15625 977.253906 326 C 965 344 950 360 938.210938 378 C 929.433594 391.398438 931.246094 410.085938 916.996094 420.566406 C 908.566406 426.765625 891.832031 422 882 422 C 852.539063 422 821.191406 419.742188 792 423.574219 C 781.757813 425 753.941406 423.226563 754.707031 440.683594 C 754.863281 444.253906 760.949219 442.367188 763 442.171875 C 772.316406 441.273438 781.714844 440.796875 791 439.574219 C 821.902344 435.507813 852 438.636719 883 439.003906 C 893.183594 439.125 907.378906 444.617188 917 441 C 933 434.5625 931 410 941 398 M 1189 249 C 1200.53125 243.542969 1211.519531 232.53125 1217 221 L 1218 221 C 1217.988281 235.671875 1214.175781 252.285156 1209 266 C 1215.417969 261.089844 1220.558594 253.273438 1224 246 L 1225 246 C 1225 289.832031 1205.195313 322.523438 1189 362 C 1193.929688 357.121094 1196.789063 349.785156 1200.671875 344 C 1208.757813 332 1217.394531 320.382813 1225 308 L 1226 308 C 1226 322 1231.769531 335 1229.5625 349 C 1227.535156 362 1221 373.285156 1215.859375 385 C 1205.171875 409 1193.5625 432.546875 1181.753906 456 C 1177.8125 463.828125 1173.28125 471.742188 1166.960938 478 C 1160 484.597656 1150.503906 489.539063 1149.183594 500 C 1148.660156 504.152344 1150.652344 528.070313 1158.675781 522.417969 C 1165.644531 517.507813 1164.984375 506.144531 1171.214844 500.390625 C 1176.957031 495.085938 1189.382813 492 1189.867188 503 C 1190.292969 512.734375 1186.207031 522.289063 1186 532 C 1185.835938 541.046875 1190.210938 549.34375 1185.671875 558 C 1176.84375 575 1157.539063 584.449219 1143 595.652344 C 1135.226563 601.640625 1127.597656 608.320313 1119 613.121094 C 1116 614.746094 1111.566406 617.113281 1108.320313 615 C 1104.484375 612.429688 1107.570313 608 1110 605.785156 C 1119.488281 598.128906 1130.753906 594.28125 1138 584 C 1124.40625 584.113281 1111.367188 588.664063 1098 590.570313 C 1086.554688 592.207031 1083.339844 586.007813 1087.902344 576 C 1089.171875 573.214844 1090.8125 570.59375 1092.425781 568 C 1095.171875 563.589844 1098.273438 559.414063 1101 555 C 1094.640625 560.558594 1087.511719 569.226563 1079 571.34375 C 1068.347656 574 1072.230469 556.746094 1075 552 C 1086.730469 533 1107.433594 521.375 1120 503 C 1106.234375 516.765625 1092.386719 531.511719 1076 542.238281 C 1072.578125 544.480469 1056.648438 552.191406 1058.628906 542 C 1059.710938 536.398438 1065.238281 532 1068.984375 528 C 1076.941406 519.804688 1084.609375 511.6875 1093 504 C 1126.417969 473 1166 449.421875 1192 411 C 1158.984375 432.816406 1121 453.800781 1093 482 C 1085.589844 489.46875 1080.207031 498.285156 1074.410156 507 C 1073 509 1068.796875 514.824219 1067.320313 509.832031 C 1065.765625 504.570313 1069.5625 498.589844 1071.574219 494 C 1078.359375 478.539063 1089.46875 464.550781 1103 454.476563 C 1108.554688 450.34375 1122.714844 443.457031 1120.820313 434.714844 C 1119 427.03125 1109.648438 421.207031 1104 416.574219 C 1088.914063 404.210938 1074.238281 391.390625 1059 379.199219 C 1054.75 375.800781 1037.386719 366.363281 1040 360 C 1042.195313 355.003906 1048.171875 351.476563 1052 348 C 1060 340.351563 1067.835938 332.421875 1076 325 C 1096.234375 306.304688 1115 285.070313 1136 267.4375 C 1146.25 258.804688 1158.371094 253 1169 245 C 1178.996094 237.265625 1185.632813 227.074219 1194 218 C 1196 216 1200.851563 209.550781 1204.398438 210.75 C 1207.667969 212 1205 219 1204.410156 221 C 1201.265625 231.679688 1195.550781 240.15625 1189 249 M 300 231 C 313.539063 239.492188 320 253.425781 332 263.5625 C 343 273 356.734375 278.355469 368 287.460938 C 389.929688 305.183594 408.929688 326.347656 430 345.050781 C 440.605469 354.464844 450.972656 364 461 374 C 463.5 376.5 470.480469 381.503906 469.964844 385.582031 C 469.613281 388.34375 465 388.691406 463 389.078125 C 455.519531 390.503906 448.21875 392.59375 441 395 C 417.574219 402.816406 397.921875 425.773438 382 444 C 402.523438 443.0625 418.964844 424.78125 434 412.800781 C 441.574219 406.765625 451.625 398.226563 461.996094 402.703125 C 469.324219 406 469.730469 414.175781 468.335938 421 C 465 436.605469 458.492188 454 461.328125 470 C 463.933594 485 479.40625 501.042969 487 514 C 490.308594 519.617188 499.765625 534.621094 489.890625 539 C 484.640625 541.308594 478.34375 537.6875 474 535 C 461.929688 527.191406 450.980469 517.21875 441 507 C 437.652344 503.554688 433.40625 496.339844 428 496 C 418.953125 495.34375 429.453125 513.136719 430.683594 516 C 431.371094 517.601563 433.347656 522.363281 429.90625 522.363281 C 426.28125 522.363281 423.699219 516.492188 421.976563 514 C 416.324219 505.824219 409.695313 498.246094 402.910156 491 C 388.234375 475.324219 369.96875 461.398438 352 449.695313 C 338.8125 441.105469 324.460938 434 313 423 C 332.890625 458.695313 371.710938 481.675781 402 507.578125 C 412.363281 516.441406 431.777344 528.449219 437.410156 541 C 442 551.542969 427.726563 548.113281 423 545.183594 C 408.902344 536.457031 397.628906 522.628906 386 511 C 397 529.035156 413.941406 543.050781 423.742188 562 C 425.199219 564.816406 432.976563 578.324219 428.382813 580.742188 C 425.980469 582.007813 422.6875 578.699219 421 577.421875 C 415.425781 573.1875 409.941406 568.699219 404 565 C 407.511719 569.324219 411.199219 573.527344 414.523438 578 C 416.410156 580.539063 418.203125 583.195313 419.675781 586 C 424.59375 595.378906 421.855469 604.109375 410 602.40625 C 393 600 376.425781 594.628906 360 590 C 368.6875 598.316406 379 604.339844 387.980469 612.300781 C 390.558594 614.609375 395.25 620 390.679688 622.804688 C 382 628.332031 362.976563 608.121094 357 603.261719 C 343.359375 592.167969 322.558594 580.207031 317.765625 562 C 315.613281 554 318.84375 544.515625 317.710938 536 C 316.683594 528.277344 313.304688 520 314.203125 512 C 315.410156 501.480469 327.511719 505.253906 332.90625 510.214844 C 338.855469 515.683594 349.503906 547.519531 354.761719 526 C 355.320313 523.710938 355.75 521.355469 355.910156 519 C 356.992188 503.199219 344.558594 496.546875 335.4375 486 C 327.746094 477.078125 322.476563 466.457031 317.246094 456 C 302.617188 426.738281 281.574219 392.628906 276.4375 360 C 274.277344 346.257813 281.449219 333.578125 280 320 L 281 320 C 286.65625 333.515625 296.949219 345.078125 305.28125 357 C 309.539063 363.09375 312.730469 370.804688 318 376 C 302.59375 341.414063 282 307.070313 282 268 L 283 268 C 286.644531 275.699219 292 282.011719 298 288 C 293.203125 273.261719 288 258.683594 288 243 L 289 243 C 296.453125 254 305.347656 263.503906 317 270 C 310.4375 260.390625 295.34375 244 300 231 M 989 337 C 988.816406 345.792969 985.667969 354.394531 984 363 C 990.402344 355.671875 989.636719 344.546875 998 338 C 996.652344 347.15625 992.742188 355.6875 992 365 C 994.808594 361.8125 997.222656 359 1001 357 C 996.480469 366.667969 990 369 983 376.019531 C 974.230469 385.136719 966.203125 395.226563 958 405 C 956.328125 407.109375 946 422.050781 942.605469 416.382813 C 939.9375 412 945 404 946.71875 400 C 952 387.515625 957.910156 373.664063 959 360 L 960 360 C 959.390625 374.21875 953.792969 388 952 402 C 960.789063 393.304688 970 376.492188 974.796875 365 C 978.71875 355.476563 981 344.179688 989 337 M 513 341 C 524.59375 360.652344 539.757813 379.34375 545 402 L 544 402 C 539.191406 393 533.980469 383.644531 527 376 C 527.949219 383.359375 529.625 390.703125 531 398 C 518 390.574219 506.800781 373.460938 501 360 C 509.898438 364 516.855469 371.273438 521 380 L 522 380 C 521.902344 368.078125 509.691406 352 513 341 M 535.667969 362.667969 C 535.722656 362.722656 535.777344 363.777344 535.332031 363.332031 C 535.277344 363.277344 535.222656 362.222656 535.667969 362.667969 M 1045 397.617188 C 1050.96875 396.65625 1056.949219 402.738281 1060.714844 406.425781 C 1071.261719 416.75 1081.90625 429.449219 1085.839844 444 C 1092.183594 467.449219 1060.628906 497.074219 1045 510.574219 C 1039 515.695313 1031.484375 523.59375 1023 523.707031 C 1011.316406 524 1016.925781 506.796875 1019.757813 501 C 1027.242188 485.664063 1036 470.8125 1044.578125 456 C 1048.3125 449.476563 1054.859375 441.695313 1055.578125 434 C 1056.46875 424.441406 1046.480469 415.1875 1042.800781 407 C 1041.328125 403.726563 1040 398.429688 1045 397.617188 M 1120 503 C 1121.457031 502 1121.898438 501.457031 1123 500 C 1121 501 1121 501.074219 1120 503 M 730 542 C 729.964844 554.269531 727.558594 567 725.195313 579 C 724.617188 582 723.601563 590.078125 719 589.367188 C 716 589 714.40625 584.363281 713.308594 582 C 709.882813 574.628906 707 567.042969 703 560 L 702 560 L 703 572 L 702 572 C 700.691406 568.445313 699.332031 566 696 564 L 702 582 C 691.363281 576.070313 683.980469 565 673 560 C 676.191406 573.429688 685.367188 586.359375 691 599 C 682.582031 595.070313 675.167969 589.175781 666 587 C 667.226563 595.199219 671.914063 602.210938 674.480469 610 C 677.976563 620.609375 679 632 679 643 C 679 648.246094 676.640625 661.472656 680.742188 665.378906 C 684.765625 669.207031 689.503906 661.765625 691.300781 659 C 697.238281 650 702.398438 637.832031 704 627 L 705 627 C 705 634.101563 704.890625 641 704 648 C 708.738281 644 710.1875 638.03125 711 632 L 712 632 C 712 637.511719 713 643.277344 716 648 C 716.617188 644.363281 716 640.707031 716 637 C 720.535156 642.335938 722.960938 651.574219 729 655 C 728.722656 641.617188 726 628.417969 726 615 L 727 615 C 731.6875 627.386719 739.675781 642 747 653 L 748 653 C 748 625.355469 740.953125 599.191406 737 572 C 735.964844 563.703125 737.375 547.429688 730 542 M 821 552 C 815.664063 559.34375 810.523438 568.246094 808 577 L 807 577 C 806 569.214844 805.558594 561.773438 807 554 C 804 556 802.992188 558.757813 801.574219 562 C 797.1875 572.054688 783 610.125 777 582 C 776.296875 578.691406 776 575.347656 775.574219 572 C 774.941406 567.332031 775 562.703125 775 558 L 774 558 C 766.265625 582.460938 760 613.296875 760 639 C 766.425781 634.601563 769 622.175781 775 616 C 772.652344 628.609375 771 641.175781 771 654 C 777.492188 648.019531 782.539063 632.546875 785 624 L 786 624 C 784.835938 630.273438 784.453125 636.746094 786 643 C 786.394531 644.375 787.824219 650 790.246094 648.652344 C 793.375 647.097656 794.914063 634.398438 796 631 L 797 631 C 797.425781 636.21875 798.625 643.71875 803 647 C 802.796875 642.253906 801.605469 637.699219 801 633 L 802 633 C 803.464844 641.242188 808.582031 649.230469 813.347656 656 C 814.597656 657.769531 817.464844 662.414063 820.261719 660.824219 C 824.414063 658.464844 821.910156 642.246094 822 638 C 822.5625 615.660156 835 603.726563 844 585 C 834.277344 586.734375 825.382813 594.054688 817 599 C 821.429688 585.394531 824.664063 572 828 558 C 824.285156 560.03125 822.484375 563.085938 821 567 L 820 567 C 821 562.078125 823 557 821 552 M 704 572 L 703 573 L 704 572 M 826 685 C 829.726563 701.101563 840.207031 708.425781 856 710.574219 C 861.707031 711.351563 870.242188 711.59375 874.351563 706.773438 C 884 695.285156 883.265625 673.496094 890.875 660 C 893.894531 654.648438 913.324219 638.464844 909 635 C 914.820313 630.300781 921.96875 628.289063 929 626 L 929 625 C 922.59375 625.132813 916.40625 627 910 627 L 910 626 C 917.433594 624.71875 924.535156 620.773438 931 617 C 923.707031 614 916.472656 620.71875 909 619.121094 C 895.492188 616.226563 879.257813 589.011719 865.429688 607.019531 C 858.636719 616 863.894531 628.0625 863.996094 638 C 864.210938 658.648438 848.265625 684 826 685 M 578 627 L 578 628 C 582.5 630.105469 587 632.15625 592 633 L 592 634 L 572 634 L 572 636 C 580 637.089844 587.867188 640 596 641 L 596 642 C 588 641 579.980469 640.023438 572 640 C 575 644.207031 581.261719 644.519531 586 646.027344 C 592.703125 648.164063 598.976563 652 603.828125 657.039063 C 613 667 619.835938 679.445313 624.574219 692 C 627.425781 699.554688 628.992188 709.515625 637 713.429688 C 648.210938 719 663.6875 714.8125 671.894531 706 C 674.644531 703.023438 679.445313 697 677.382813 692.433594 C 675.328125 688.035156 665.878906 690.632813 662 689 C 654.332031 685.363281 647.992188 677.109375 643.875 670 C 639.910156 663.15625 638.378906 657 639.171875 649 C 640.335938 637.359375 647.207031 619.378906 632.996094 612.574219 C 621.730469 607.179688 610.261719 620 601 624.367188 C 593.75 627.816406 585.808594 627 578 627 M 706 626 L 705 627 L 706 626 M 800.667969 630.667969 C 800.722656 630.722656 800.777344 631.777344 800.332031 631.332031 C 800.277344 631.277344 800.222656 630.222656 800.667969 630.667969 M 929 661.4375 C 906.21875 665 897.585938 684.019531 889 703 C 886.734375 708.402344 880.238281 717.675781 882.757813 723.8125 C 884.636719 728.386719 891.957031 729.78125 896 731.753906 C 909.421875 738.300781 923.785156 744 939 741.5625 C 957.503906 738.648438 965.511719 725.410156 974.964844 711 C 977.640625 707 983.546875 703.273438 983.664063 698 C 983.785156 692.484375 978.53125 687.015625 975.335938 683 C 965.191406 670.269531 945.90625 658.824219 929 661.4375 M 568 667.4375 C 552.351563 670 538.820313 677.425781 528 689 C 524.195313 693.203125 519 699 519.203125 705 C 519.378906 711.636719 527.683594 714.558594 531.5625 719.015625 C 544.503906 734 558.203125 749.699219 580 746.570313 C 590.785156 745.023438 599.890625 740.074219 609 734.320313 C 612.292969 732.238281 617 730.03125 618.304688 726 C 620 720 613.746094 711.316406 611.425781 706 C 603.542969 688 591.761719 663.738281 568 667.4375 M 919 677.390625 C 935.796875 673.730469 940.226563 695.066406 924 698.277344 C 908.480469 701.34375 902 681.058594 919 677.390625 M 946 681.601563 C 957.667969 676.554688 965.453125 693.363281 966.699219 702 C 968.679688 715.730469 959.871094 725.8125 948 731.625 C 934.3125 738.328125 915.8125 736.574219 905.324219 725 C 901.945313 721.152344 893.433594 709.667969 898.605469 704.609375 C 904.296875 699.039063 909.851563 712 912.378906 715 C 919.59375 724 930.898438 726.542969 941 720.789063 C 947.230469 717.242188 957.308594 708.238281 955.523438 700 C 954.550781 695.511719 937.742188 685.285156 946 681.601563 M 575 682.570313 C 583.722656 682.574219 597.710938 687.640625 591 699 C 580.609375 716.808594 557.21875 683.226563 549.523438 702.019531 C 541.6875 721.152344 573.25 735.527344 586.957031 724.46875 C 591.308594 721 595.375 709.027344 601.90625 709.546875 C 607.484375 710 605.371094 718 604 721 C 600.386719 729.664063 593.171875 737 584 739.511719 C 567.257813 744.105469 540.539063 736.777344 537.332031 717 C 534.179688 697.5625 558.691406 682.566406 575 682.570313 M 801 683 C 802.445313 694.414063 805.929688 705 808.847656 716 C 810.1875 721.089844 810.53125 727 815 730.296875 C 825.820313 738.253906 841.578125 738 853 746.679688 C 865 756.039063 873.269531 771 887 778 C 880.488281 763 864.484375 744.175781 851 734.800781 C 843.820313 729.808594 833.609375 729.378906 827.519531 722.785156 C 817.363281 711.796875 820.347656 692.730469 809 683 L 810 695 C 807.402344 690.550781 805.664063 685.558594 801 683 M 692 689 C 686.980469 700.328125 685.855469 719.773438 677.605469 728.785156 C 672.324219 734.5625 663.472656 735 657 738.765625 C 643.40625 747 631.246094 761.5 625 776 C 640 770.167969 648 752.425781 663 745.320313 C 670.664063 741.675781 687.328125 741 692 734 C 699.699219 723 697.890625 702 702 689 C 697.324219 690.515625 695.34375 694.46875 694 699 L 693 699 C 693 695.585938 693.328125 692.164063 692 689 M 693 700 L 692 701 L 693 700 M 893 713 C 895.605469 717.464844 897.800781 722 899 727 C 893.699219 724 888 719 893 713 M 987 716 C 986.277344 724.207031 981.800781 730.351563 975.996094 736 C 961.796875 749.683594 943.390625 757.015625 924 752 C 911.851563 748.605469 897.863281 739.832031 885 742 C 917.519531 762.558594 962.980469 780.496094 984.730469 737 C 988.222656 730.019531 989 723.683594 989 716 L 987 716 M 518 723 C 518.574219 751 544.988281 776 573 772.824219 C 586.976563 771.324219 606.945313 759.367188 618 751 C 606 749 592.632813 755.359375 581 757.539063 C 564.28125 760.671875 546.210938 756.8125 533 745.675781 C 525.378906 739.242188 524.21875 730 518 723 M 611 723 C 610 725 609.609375 725.550781 608 727 C 608.953125 725.234375 609.566406 724.394531 611 723 M 681 765.332031 C 681.773438 765.332031 681 765.832031 680.667969 765.667969 L 681 765.332031 M 734 777 C 731.957031 792.8125 735.679688 809.589844 732 825 C 746.261719 818.183594 736 789.671875 736 777 L 734 777 M 831 777.332031 C 831.773438 777.332031 831 777.832031 830.667969 777.667969 L 831 777.332031 M 648 785 C 646.898438 786.457031 646.457031 787 645 788 C 646 786.542969 646.542969 786.105469 648 785 M 774 820 C 773.828125 816.828125 773.644531 815 771 813 C 771 826.5625 780.960938 823.273438 791 822 C 787.671875 830.175781 803.390625 838.160156 809 843 C 814 847.425781 820.277344 851.460938 824.277344 857.003906 C 826.582031 860.199219 826.210938 865.550781 829.316406 868 C 837.40625 874.058594 857.972656 876.203125 868 877 C 863.472656 870.089844 848 863.429688 840 862 L 840 861 C 848.21875 862.105469 855.835938 865.792969 864 867 C 858.9375 859.109375 841.921875 850.625 833 848 L 833 847 C 838.402344 848.476563 843.46875 851.046875 849 852 C 840.933594 840.644531 826 836.257813 816 827 C 821.847656 828.390625 827.28125 831.136719 833 833 C 828.949219 822.542969 816.421875 815.003906 806 812 L 806 811 C 810.339844 809.816406 816.359375 808.785156 819 805 C 806 805.007813 797 810.109375 786 816 C 792.328125 808.734375 800 800.304688 803 791 C 789.183594 795.066406 783.464844 810.335938 774 820 M 693 792 C 702 803.015625 715.996094 806.675781 722 821 C 715.433594 814.734375 698.78125 804.777344 691 815 C 695.929688 815.015625 700.222656 816 705 817 L 705 818 C 696.230469 820.027344 683.371094 823.445313 679 832 C 684.707031 830.820313 690 829.121094 696 829 C 685.226563 840.753906 666.273438 843 656 855 C 664.167969 853.792969 671.757813 850.109375 680 849 L 680 850 C 670.585938 851.410156 650.273438 860 645 868 C 652.859375 867.660156 660.207031 864.636719 668 864 L 668 865 C 659.433594 867.46875 649.765625 872.585938 642 877 L 642 878 C 650.175781 877.648438 672.371094 876.671875 678.398438 871 C 680.679688 869 680 864.695313 681.703125 862 C 684.875 856.492188 690.363281 852.300781 695 848.089844 C 702 841.660156 715.714844 836.414063 711 825 C 715.828125 826 722.175781 828.074219 726.941406 826.105469 C 734.800781 823 729.953125 810.523438 725.785156 806.183594 C 717.984375 798.058594 704 792.484375 693 792 M 648 794 C 647.453125 795.636719 647.636719 795.453125 646 796 C 646.546875 794.363281 646.363281 794.546875 648 794 M 577 798 C 573.515625 803 569 806.796875 564 810 C 567.511719 805.410156 572.277344 801.324219 577 798 M 859 798 L 858 799 L 859 798 M 852 802 L 851 803 L 852 802 M 865 805 C 867.875 808 870.65625 810.671875 873 814 C 869.71875 811.6875 865.96875 809.003906 865 805 M 575 816 C 573.898438 817.457031 573.457031 818 572 819 C 573 817.542969 573.542969 817.101563 575 816 M 786 816 L 785 817 L 786 816 M 859 818 L 858 819 L 859 818 M 635 821 L 634 822 L 635 821 M 927 822 L 926 823 L 927 822 M 874 825 C 872.363281 824.453125 872.546875 824.636719 872 823 C 873.636719 823.546875 873.453125 823.363281 874 825 M 816 826 L 815 827 L 816 826 M 928 832.332031 L 928.332031 832.667969 C 927.839844 832.832031 927.226563 832.332031 928 832.332031 M 830 845 L 829 846 L 830 845 M 832 846.332031 C 832.773438 846.332031 832 846.832031 831.667969 846.667969 L 832 846.332031 M 1031 860 L 1030 861 L 1031 860 M 671 863 L 671 864 L 668 864 C 669.246094 863.316406 669.546875 863.25 671 863 M 664 1034 C 668.882813 1041 687.214844 1040 695 1040 L 695 1041 L 663 1050 L 663 1051 C 681.867188 1056.578125 711 1052 729 1044.796875 C 735.941406 1042.035156 743.820313 1033.332031 751 1032.746094 C 759.179688 1032.074219 768.484375 1040.617188 776 1043.300781 C 790.179688 1048.363281 805 1049 820 1049 L 820 1048 C 818.394531 1047.039063 813 1045 814.207031 1042.328125 C 815.363281 1039.546875 821.507813 1039.25 824 1038.625 C 830.753906 1037 836.738281 1034.734375 841 1029 C 829.46875 1030 819.183594 1030.015625 808 1026.328125 C 805.496094 1025.503906 799.273438 1024.210938 798.632813 1021.0625 C 797.921875 1017.585938 810.648438 1015.457031 813 1014.535156 C 825.621094 1009.59375 835.820313 1000.042969 839.972656 987 C 842.941406 977.664063 841.980469 967.621094 843.804688 958 C 845.421875 949.472656 847.496094 940.683594 846.269531 932 C 845.316406 925.242188 843.671875 919.015625 840.335938 913 C 820.824219 877.804688 783 881.011719 749 881 C 738.972656 881 729 879.597656 719 880.039063 C 664.386719 882.433594 649.445313 943.359375 669.3125 987 C 673.339844 996 680.253906 1002.222656 687 1009 C 689.753906 1011.769531 694.9375 1015.695313 695 1020 C 695.351563 1031.136719 671.625 1034 664 1034 M 716 903 C 728.859375 907.421875 745.386719 899 758 896 C 773.527344 892.199219 791 891.566406 806 898 C 828.730469 907.441406 845.601563 935 833 959 L 832 959 C 828.886719 936 802.324219 928 783 936.796875 C 773.960938 941 767.476563 950.496094 757 951 C 745.589844 951.464844 740 943.324219 731 938.175781 C 716.476563 930 694.671875 929.609375 683.214844 943.003906 C 679.199219 947.699219 678.367188 953.503906 676 959 C 668.925781 953.25 669.546875 943.269531 670.730469 935 C 673.664063 914.441406 686.679688 896.488281 707 890.027344 C 713.554688 888 721 886.390625 728 887.175781 C 730 887.417969 734.792969 888.058594 734.792969 891.035156 C 734.792969 895.289063 719.277344 900.078125 716 903 M 1036.667969 887.667969 C 1036.722656 887.722656 1036.777344 888.777344 1036.332031 888.332031 C 1036.277344 888.277344 1036.222656 887.222656 1036.667969 887.667969 M 524 902 L 524 906 L 523 906 C 523.175781 904.316406 523.316406 903.507813 524 902 M 479 922 L 480 925 C 478.710938 923.558594 478.597656 923.765625 479 922 M 433 955 L 432 956 L 433 955 M 550 1021 L 549 1021 C 546.363281 1014.171875 543.898438 1007.457031 545.378906 1000 C 545.992188 997 550 990.484375 547.304688 987.695313 C 540.609375 981.015625 527.734375 1001 524 1004 C 517.210938 981.027344 544.777344 964.304688 564 961 C 569 960.019531 588.203125 957.039063 590 964.148438 C 593.933594 978.550781 581 983.335938 572 989.789063 C 562 997 552 1008.765625 550 1021 M 543 964 L 543 965 C 534.21875 970.074219 526 978.65625 522 988 L 521 988 L 525 974 L 518 978 C 521.894531 964.515625 530.824219 964 543 964 M 716 1000 C 727.273438 1004.6875 736.734375 1007 749 1007 C 739.796875 1018.71875 718.507813 1014.046875 708 1006.210938 C 704 1003.195313 701.285156 999 697 996.132813 C 690.402344 992 682.496094 990.742188 677.648438 984 C 673.796875 978.617188 673 971.410156 673 965 C 686.710938 968.257813 697 979.753906 711 982.175781 C 722.910156 984.246094 728.320313 968 738.890625 969.621094 C 745.375 970.644531 742 979.53125 740 983 C 734.738281 992.714844 725.507813 995.765625 716 1000 M 829.980469 968.410156 C 838.679688 967 832.691406 978.746094 830.363281 982 C 825.28125 989.09375 810.710938 999.484375 802 1001.238281 C 793.613281 1003 779.789063 987 775 981 C 773.449219 979 768.992188 973.476563 771.707031 970.699219 C 775.214844 967.109375 785.335938 975.605469 789 976.777344 C 804.621094 981.769531 815.757813 971 829.980469 968.410156 M 595 983 L 595 986 L 594 986 C 594.25 984.546875 594.316406 984.246094 595 983 M 910 1041 C 922.527344 1040 933.824219 1033.242188 944 1026.328125 C 947.441406 1024 952.953125 1020.75 953 1016 C 953 1007.425781 935.234375 993.449219 927.226563 999.601563 C 923.171875 1002.722656 923.308594 1009.472656 921.964844 1014 C 919 1023.539063 913.800781 1032 910 1041 M 603 1046 C 598.679688 1036.300781 590 1029.109375 586 1019 C 584.234375 1014.320313 583 1007 577.894531 1004.742188 C 569 1001.058594 552.429688 1015.742188 556.550781 1025 C 563.304688 1040 588.855469 1044.214844 603 1046 M 955 1051 L 954 1052 L 955 1051 M 947 1081 L 946 1082 L 947 1081 M 809 1087 C 779.175781 1106.652344 723.300781 1108.796875 693 1089 C 698.84375 1085.5 706.46875 1087.453125 713 1086.828125 C 734.574219 1084.777344 756.480469 1087 778 1084.828125 C 787 1084 801 1081.566406 809 1087 M 491 1094 L 490 1095 L 491 1094 M 962 1114 L 961 1115 L 962 1114 M 971 1130 C 970.453125 1131.636719 970.636719 1131.453125 969 1132 C 969.546875 1130.363281 969.363281 1130.546875 971 1130 M 504 1139 L 503 1140 L 504 1139 M 970 1155 C 969.453125 1156.636719 969.636719 1156.453125 968 1157 C 968.546875 1155.363281 968.363281 1155.546875 970 1155 M 342 1409 C 342 1398.160156 345 1388.445313 350.3125 1379 C 352 1375.742188 354.746094 1371 359 1370.707031 C 366.644531 1370.441406 375.761719 1380 382 1383.574219 C 399.371094 1393.71875 418.667969 1408 439 1411 C 433.292969 1404 424.730469 1399 418 1392.828125 C 408.535156 1384.269531 400 1374.226563 392.476563 1364 C 382 1350 373.21875 1334.53125 365.257813 1319 C 361.8125 1312.273438 359.984375 1304.332031 356 1298 C 351.898438 1312 355 1330.527344 355 1345 L 354 1345 C 350.789063 1323.253906 343.382813 1302.113281 341.171875 1280 C 339.960938 1268 342.367188 1256.023438 342.894531 1244 C 343.246094 1236.050781 341 1228 341 1220 C 336.875 1222.515625 336 1227.6875 334.394531 1232 C 330.636719 1241.308594 326.191406 1250.316406 323.425781 1260 C 313 1296.203125 313.339844 1335.734375 323 1372 C 326.351563 1384 330.613281 1402.410156 342 1409 M 679 1226 L 678 1227 L 679 1226 M 706 1240 L 705 1241 L 706 1240 M 848 1240.332031 C 848.773438 1240.332031 848 1240.832031 847.667969 1240.667969 L 848 1240.332031 M 704 1241 C 703.453125 1242.636719 703.636719 1242.453125 702 1243 C 702.546875 1241.363281 702.363281 1241.546875 704 1241 M 729 1253 C 727.777344 1254.195313 727.578125 1254.316406 726 1255 C 727 1254 727.613281 1253.691406 729 1253 M 905 1257.628906 C 914 1258 915.859375 1269 914.53125 1276 C 912 1288.578125 899 1297.152344 889 1303.5625 C 835.710938 1337.492188 756.710938 1370.597656 693 1348 C 683.847656 1344.734375 668.652344 1328.074219 680.226563 1318.703125 C 684.386719 1315.335938 690.957031 1315.375 696 1314.71875 C 710 1313 723.996094 1313.164063 738 1311.828125 C 776.605469 1308.15625 812.863281 1302 849 1287 C 862 1281.574219 875 1275.285156 887 1267.558594 C 892.539063 1264 897.796875 1257.402344 905 1257.628906 M 544 1320 C 547.449219 1322.265625 549.34375 1324 550 1328 C 546.632813 1326.355469 543.671875 1324 544 1320 M 356 1346 L 355 1347 L 356 1346 "/>
</g>
</svg>
