<?xml version="1.0" encoding="UTF-8"?>
<svg xmlns="http://www.w3.org/2000/svg" xmlns:xlink="http://www.w3.org/1999/xlink" width="1500pt" height="1500pt" viewBox="0 0 1500 1500" version="1.1">
<g id="surface1">
<path style=" stroke:none;fill-rule:nonzero;fill:rgb(0%,0%,0%);fill-opacity:1;" d="M 700 149 C 692.277344 142.433594 685 140.722656 689 153 C 683.519531 147.519531 678 141.550781 671 138 C 637.183594 121 598.328125 144.457031 568 157.121094 C 560.410156 160.292969 551.933594 160.003906 544 162 C 530.378906 165.117188 517.292969 170.660156 505 177.308594 C 477.488281 192.191406 453 213 434.476563 238 C 424.535156 251.371094 417.226563 266.46875 407.574219 280 C 397.660156 294 383.523438 305 375.3125 320 C 357.75 352.164063 363.238281 401.054688 327 422 C 346.800781 394.742188 344.175781 356 360.308594 326 C 366.449219 314.636719 373.535156 303 383 294.089844 C 390 287.457031 400.734375 282.601563 404 273 C 373.503906 280.058594 351 310.707031 341.515625 339 C 334.871094 358.757813 332.722656 380.664063 320.253906 398 C 302.582031 422.566406 271.839844 432 246 445.257813 C 209.613281 464.039063 178 492.148438 153.882813 525 C 142.253906 540.808594 131 558.800781 131 579 C 143 569 149.28125 549.398438 159.425781 537 C 184 507 216 483.695313 250 465.230469 C 263.730469 457.761719 277.917969 449.332031 294 449 L 294 450 C 250.339844 471.621094 214.90625 496.671875 185 536 C 177.453125 546.136719 168.5625 556.316406 163.3125 568 C 162 570.792969 159.9375 575.410156 162 578.296875 C 163.554688 580.394531 167.363281 580.386719 167.867188 583.277344 C 168.390625 586.273438 165.730469 590.347656 164.574219 593 C 160 603.164063 154 612.644531 150 623 C 133.839844 665.382813 126.296875 715.019531 134.425781 760 C 137.421875 776.597656 143.226563 794.128906 153 808 C 157.714844 814.601563 168 818.160156 170.277344 826 C 176.726563 848.246094 177.226563 872.4375 183.710938 895 C 186.335938 904.144531 193.273438 916.488281 190.226563 926 C 184.472656 944 159.515625 949.660156 143 950 C 158.636719 968.191406 186.363281 948.058594 198 936 C 205 966.601563 215.492188 994 209.195313 1026 C 207.179688 1036.28125 203.820313 1047.261719 197.90625 1056 C 193.964844 1061.820313 185.351563 1068.066406 186.628906 1076 C 188 1085.578125 199.574219 1089.578125 208 1090 C 226.988281 1090.824219 244.214844 1084.15625 258 1071 C 258.921875 1078.304688 258.734375 1084.789063 257 1092 C 266.234375 1087.65625 268 1076.570313 271.863281 1068 C 275.238281 1060.386719 280.167969 1055 286 1049 C 284.574219 1067.046875 280.746094 1088 265 1099.210938 C 258.832031 1103.632813 251.359375 1105.773438 244 1107.195313 C 242 1107.574219 236.300781 1107.449219 235.460938 1109.742188 C 234 1113.488281 241.460938 1117.429688 244 1118.53125 C 254.460938 1123.066406 266 1122 277 1121 C 273.277344 1128.476563 266.660156 1134.210938 263.476563 1142 C 262.453125 1144.5 261.597656 1147.300781 261.339844 1150 C 259 1173.304688 294.261719 1162.582031 306 1161 C 299.519531 1172 291.8125 1181.46875 281 1188.453125 C 274 1193 262 1194.460938 258 1202 C 272.820313 1202 287.886719 1202.554688 302 1197.1875 C 311 1193.753906 318 1187 327 1183.464844 C 336 1180 345.988281 1179.609375 355 1176 C 370.296875 1169.625 384 1156.4375 394.5625 1144 C 405 1131.582031 413.511719 1117.496094 420.753906 1103 C 421.730469 1101.039063 425.941406 1089.023438 428.605469 1090.207031 C 431.988281 1091.710938 434.964844 1099.015625 437 1102 C 443.765625 1111.765625 451.402344 1121.007813 459 1130 C 474.25 1147.59375 490.628906 1164.621094 503.484375 1184 C 525.332031 1217 541 1251.050781 567.835938 1281 C 584.800781 1300 606.683594 1322 634 1322 C 630.179688 1314.15625 620.371094 1309.566406 614 1303.828125 C 601 1292.269531 588.167969 1278.722656 579 1264 C 594.570313 1279.5625 612.21875 1294.140625 632 1304.03125 C 646.347656 1311.203125 665.375 1315 678 1324.679688 C 692.476563 1335.816406 701 1353.515625 707.988281 1370 C 712.394531 1380.589844 716.347656 1394.773438 728 1399.515625 C 733.898438 1402 739.960938 1400.035156 744.828125 1396.210938 C 747.894531 1393.804688 750.511719 1389.15625 755 1390.140625 C 766.558594 1392.683594 776.191406 1402 788.957031 1396.003906 C 801.242188 1390.378906 784.699219 1375 783.328125 1367 C 781.371094 1355.753906 788.648438 1344.21875 795.464844 1336.003906 C 809 1319.628906 831.589844 1314.820313 850 1306.109375 C 872.621094 1295.410156 893.359375 1279.628906 911 1262 C 902.253906 1276.167969 890.476563 1289.714844 878 1300.714844 C 870.84375 1307.027344 859 1313.3125 855 1322 C 880.597656 1322 900 1302 917 1285 C 945.484375 1256.375 958.96875 1221.289063 980 1188 C 992.398438 1168.511719 1009.746094 1152.550781 1024.574219 1135 C 1032.984375 1125.046875 1041.410156 1115 1048.644531 1104 C 1051 1100.308594 1054.238281 1091.707031 1058.738281 1090.207031 C 1062.9375 1088.808594 1065.964844 1100.328125 1067.257813 1103 C 1074.597656 1118.160156 1084.488281 1132.230469 1095.429688 1145 C 1106.953125 1158.453125 1121.414063 1171 1138 1177.546875 C 1146.359375 1181 1155.851563 1180.523438 1164 1184.402344 C 1184.226563 1194.027344 1202.425781 1206 1226 1203 C 1222.25 1196.339844 1212 1192.820313 1206 1188.359375 C 1195.742188 1181 1187.628906 1171.777344 1181 1161 C 1191.492188 1163.425781 1214 1172.199219 1218.566406 1156 C 1219.488281 1152.628906 1219 1148.464844 1218.960938 1145 C 1218.742188 1140.210938 1212.398438 1126.597656 1215.199219 1122.773438 C 1216.6875 1120.746094 1222.796875 1122 1225 1122 C 1232.6875 1122.011719 1240 1121.152344 1247 1117.621094 C 1249.285156 1116.464844 1254.816406 1113.675781 1253.652344 1110.304688 C 1252.660156 1107.417969 1247.355469 1108 1245 1107.5625 C 1237.304688 1106.34375 1229.402344 1104 1223 1099.363281 C 1206.925781 1088 1202.796875 1067.5625 1202 1049 C 1214.203125 1061.46875 1215.636719 1081.796875 1230 1092 C 1229 1084.617188 1227 1077.488281 1227 1070 C 1240.59375 1083.480469 1256.613281 1091.332031 1276 1090 C 1284 1089.320313 1294.910156 1085.074219 1296.371094 1076 C 1297.542969 1068.734375 1290.511719 1062.617188 1287 1057 C 1281.957031 1048.667969 1279.363281 1038.507813 1277.449219 1029 C 1271 997.347656 1279.375 966.097656 1289 936 C 1301.257813 948.226563 1328.429688 968.792969 1344 950 C 1327.949219 950 1295 941.1875 1295.484375 920 C 1295.613281 913 1299.769531 905.59375 1301.996094 899 C 1305.738281 888 1308.625 876.457031 1310.996094 865 C 1313.5625 852.605469 1312 834.164063 1317.433594 823.015625 C 1320.230469 817.160156 1327.453125 815.480469 1331.675781 811 C 1338.5 803.480469 1342.683594 793.40625 1345.921875 784 C 1368.488281 718.414063 1351.171875 639.550781 1317 581 C 1325.976563 580.183594 1326.84375 574.382813 1323.191406 567 C 1317.722656 556 1309.847656 545.730469 1302.347656 536 C 1283.804688 512 1262.347656 490.421875 1237 473.515625 C 1223.234375 464.335938 1208.257813 458.113281 1194 450 C 1211 446 1228 460.0625 1242 468 C 1273.476563 485.421875 1301.808594 507.203125 1324.917969 535 C 1335.695313 548 1342.417969 568.292969 1355 579 C 1354.945313 558.773438 1343.386719 540 1331.847656 524 C 1307 490 1275.503906 462.484375 1238 443.257813 C 1211.507813 429.679688 1181.46875 421.679688 1163.441406 396 C 1152.34375 380.191406 1150.691406 360 1144.972656 342 C 1138.308594 321.0625 1124.828125 300.832031 1108 286.753906 C 1100.242188 280.265625 1092.226563 274.511719 1082 273 C 1086.898438 282.445313 1097.679688 288.371094 1104.960938 296 C 1114.855469 306.363281 1122 319.117188 1128.21875 332 C 1141.730469 360.625 1140 399.015625 1162 423 C 1121.527344 403.742188 1127.234375 346.652344 1106.769531 314 C 1098.96875 301.550781 1087.464844 292 1079 280 C 1068 264.398438 1059.8125 247.140625 1048 232 C 1032.550781 212 1012.539063 195.433594 991 182.0625 C 979.484375 175 966.878906 168.644531 954 164.355469 C 947.167969 162.078125 939.550781 162 933 158.8125 C 921.238281 153.378906 912 143 900 137.308594 C 860.375 119.152344 825.363281 127.050781 787 143 C 789.464844 138.320313 791.175781 133.167969 792.335938 128 C 793.207031 124.109375 793.976563 120 793.972656 116 C 793.925781 90 760 106.769531 750 116.175781 C 747.1875 118.832031 743.511719 125.585938 739 125.652344 C 733.871094 125.734375 730.601563 108.644531 723.984375 106.164063 C 717.804688 104 712 108.355469 708.53125 113.003906 C 700.925781 123 700 137.074219 700 149 M 770 126 C 767.605469 143.789063 761.285156 161.003906 759 179 C 770.730469 172.46875 781.410156 165.1875 794 160.203125 C 828.410156 146.582031 862.507813 148.328125 897 160 L 897 161 C 871.597656 165.714844 832.546875 171.386719 824 201 C 855 183 899.5625 172 935 179.660156 C 965.433594 186.253906 993 204.554688 1016 225 C 1029.625 237.039063 1049.648438 255 1055 273 C 1043.820313 270.320313 1034.863281 261.511719 1026 254.652344 C 1009 241.617188 992.539063 228.035156 974 217.425781 C 908.292969 179.820313 827.871094 195.273438 775 248 C 789.496094 239.742188 802 228.523438 817 220.785156 C 836.417969 210.699219 858.378906 206.570313 880 205.089844 C 941.660156 201 989.183594 239.160156 1035 274.117188 C 1054.722656 289.164063 1078.679688 303.453125 1090.675781 326 C 1099.617188 342.800781 1099 362.566406 1099 381 L 1098 381 C 1079.785156 337.480469 1037.476563 297.824219 1000 270.746094 C 983.675781 259 965.804688 249.542969 950 237 C 958.238281 248.691406 971.90625 256 983 264.660156 C 1006.578125 283.136719 1038.410156 307.722656 1052 335 C 1036.191406 328.179688 1024.808594 313.820313 1009 307 C 1030.363281 328.363281 1050.574219 350.261719 1068 375 C 1048.59375 373.414063 1036.46875 357.355469 1019 351.089844 C 996.488281 343.011719 965 347.722656 942 352 L 942 353 C 965.574219 353 989 352 1012 358.425781 C 1026 362.449219 1039 370.257813 1052 376.753906 C 1067.375 384.441406 1083.953125 392 1093.558594 407 C 1104.742188 424.507813 1106.996094 448.671875 1107 469 L 1106 469 C 1096.777344 454 1087 438.117188 1074 426.171875 C 1037.183594 392.753906 979.785156 381.34375 934 402.308594 C 922.320313 407.65625 911 414.800781 902 424.015625 C 895.398438 430.792969 890.828125 439.46875 883 445 C 883 391.804688 938 374 983 374 L 983 373 C 947 366.335938 907.992188 374.511719 884.898438 405 C 876.179688 416.511719 870.847656 442.429688 858 449 C 858.269531 416.269531 870.339844 391 889 365 C 879.453125 366.4375 871.625 373.398438 865 380 C 843 402 838 426.691406 842 456 L 841 456 C 818.359375 397.308594 867.53125 326.777344 930 324.039063 C 950.957031 323.121094 971.398438 326.21875 991 333.8125 C 1003.671875 338.722656 1014.617188 347 1028 350 C 979 301.527344 897.757813 302.671875 850 351 C 835.777344 365.394531 820.4375 387 820 408 L 818 408 C 818 387.484375 817.507813 369.441406 828 351 C 808.515625 365.015625 806 397.117188 806 419 C 801 415.800781 800.28125 408.472656 800 403 C 799.441406 389.488281 802.425781 376.417969 803 363 L 801 363 C 800.945313 383.335938 787 401.328125 791 422 L 790 422 C 781.273438 400.726563 786.550781 384.503906 791 363 L 790 363 C 785 381 775.652344 397 775 416 C 774.613281 429.441406 783.394531 449 775 461 C 768.824219 450.136719 770.183594 438 768.714844 426 C 766.519531 408.121094 762 388.457031 758 371 C 749.648438 390.765625 757 420 757 441 L 756 441 C 755.347656 425.789063 746.1875 413 745 398 C 744.992188 396.675781 745.441406 383.574219 742.710938 385.207031 C 739.421875 387.171875 741 396.78125 740.828125 400 C 739.464844 413.652344 734.28125 427.6875 731 441 L 730 441 C 730 417.339844 735.1875 395.148438 729 372 L 728 372 C 724.296875 390 720.675781 407.808594 718.28125 426 C 716.75 437.640625 717.589844 450.351563 712 461 C 702.304688 448.824219 712.257813 429 711.984375 415 C 711.621094 396.503906 701.949219 379.4375 697 362 L 696 362 C 700 381.511719 706.644531 402.121094 697 421 L 696 421 C 696.414063 400.269531 686.421875 382.335938 686 362 L 685 362 C 685 375.410156 687.554688 388.527344 686.960938 402 C 686.71875 407.472656 685.84375 414.800781 681 418 C 681 394.65625 677.835938 369.640625 661 352 C 666.464844 372.023438 670.660156 387 669 408 L 668 408 C 662.832031 391.664063 658.820313 377.28125 648.570313 363 C 616.632813 318.507813 560.726563 306.613281 510 321.140625 C 492 326.257813 470.636719 334.785156 459 350 C 474.265625 345.664063 487 336.535156 502 331.34375 C 534.699219 320 573.746094 320.417969 604 338.453125 C 632.496094 355.441406 651.601563 389.785156 651.996094 423 C 652 434 653.535156 447.511719 644 455 C 653.675781 420.566406 635.449219 374.347656 599 364 C 618 391.3125 628 415.121094 628 449 C 614 438.28125 612.246094 416.785156 602 403 C 578.53125 371.09375 539.800781 368.476563 504 373 L 504 374 C 542.878906 374 613.925781 390.527344 604 444 C 587.433594 432.296875 579 413.601563 560 404.257813 C 514.488281 382.078125 456 390.125 418 423.289063 C 402.933594 436.398438 393 453.65625 382 470 L 381 470 C 381.421875 449.542969 382.757813 424.675781 394 407 C 403.722656 392 420.585938 384.460938 436 376.753906 C 448.21875 370.644531 459.894531 363.183594 473 359.027344 C 494.734375 352.140625 517.5 353 540 353 L 540 352 C 517.898438 346.722656 488.601563 343.171875 467 351.613281 C 450.832031 358 437 374.613281 419 375 C 428.914063 361.648438 439 346.410156 450.175781 334 C 458.976563 324.136719 469.644531 316.277344 479 307 C 463.324219 315.726563 450 329.804688 433 336 C 460 295.03125 506 271 540 237 C 497.84375 257 455.761719 293.257813 425.285156 328 C 416.488281 338.03125 408.394531 349 401 360 C 396.617188 366.800781 393.5625 375 387 380 C 389.21875 362.449219 386.773438 342.0625 395.324219 326 C 407.269531 303.550781 431.417969 290.050781 451 275.117188 C 498 239.175781 544 202.285156 607 205.039063 C 650.4375 207 681.554688 225.832031 716 250 C 662.789063 192.230469 578.949219 180.023438 511 219 C 483.894531 234.371094 461.476563 265.21875 431 274 C 437.351563 255.683594 455.84375 238.511719 470 226 C 503.878906 196 545.59375 173.75 592 178.171875 C 616.984375 180.550781 639.808594 189.003906 663 198 C 655.726563 177.023438 632.421875 167.636719 612 165 L 612 164 C 639.582031 157.675781 664 159.503906 688 176.027344 C 695 181 701.492188 186.320313 708 191.828125 C 709.320313 193 712.839844 196.527344 714.816406 195 C 717.828125 192.617188 714.1875 181.371094 714 178 C 713.515625 166.054688 713.699219 151 724 143 C 729.527344 159.359375 732 175.726563 732 193 C 747.808594 172.488281 746.929688 142.253906 770 126 M 741 238 C 736.597656 230.828125 732.203125 222.203125 724 219 C 725.949219 227.222656 730 234.757813 732 243 C 735 255.054688 735 267.675781 735 280 C 702 247.042969 654.734375 221.386719 608 214.730469 C 591 212.328125 563.210938 211.816406 552 227 C 564 227 575.859375 223.507813 588 224.039063 C 619.453125 225.417969 651.53125 238 678 254.425781 C 693.972656 264.390625 713 280.597656 713.960938 301 C 714.867188 321.179688 695.480469 327.828125 690 345 C 707.359375 341.40625 719.996094 330.148438 731.269531 317 C 736.449219 311 742 305.238281 743 297 L 744 297 C 750.472656 319 777.476563 338.054688 798 345 C 793.300781 325.230469 770.214844 318 774 294 C 777 276.375 796.664063 264 811 256 C 848.480469 235 889.796875 221 933 221 L 933 220 C 921.527344 215.695313 909 216 897 216 C 842.441406 216 795.550781 249.683594 754 281 C 753.996094 252.507813 749.175781 223.25 770.175781 200.003906 C 778.949219 190.289063 797.625 186.421875 804 176 C 775 182.054688 749.847656 211 741 238 M 949 236 L 950 237 L 949 236 M 982 282 C 977 267.640625 958.179688 263.34375 945 260.804688 C 906 253.28125 873.382813 265.269531 838 280 C 846.691406 259.261719 873.328125 250.785156 894 248 C 887.886719 239.238281 865.585938 244.59375 857 247 C 826.339844 255.074219 806.679688 281.511719 802.71875 312 C 801.742188 319.511719 800.996094 338 807.636719 343.339844 C 812 347 815.886719 336.753906 817 334 C 824.289063 318.3125 836 304.542969 849 293.289063 C 875.5 270.242188 915.628906 259 950 267.476563 C 961.714844 270.390625 970.707031 278.679688 982 282 M 595 246 L 595 247 C 605.191406 249.636719 615.871094 249.40625 626 252.441406 C 645.597656 258.3125 663.191406 275.253906 666 296 L 665 296 C 660.820313 283.707031 645 276 634 270.78125 C 605.785156 257.460938 571.292969 254.746094 541 261.425781 C 527.332031 264.4375 512.410156 269.527344 506 283 C 519.652344 277.832031 530 269 545 266.433594 C 583.804688 260 623.746094 274.792969 649.824219 304 C 661 316.582031 667.804688 332.058594 677 346 C 685.789063 339.472656 687 328.222656 687 318 C 687 295.035156 680.238281 273.117188 661 259 C 641.511719 244.542969 617.933594 246 595 246 M 773 250 C 774.636719 249.453125 774.453125 249.636719 775 248 C 773.363281 248.546875 773.546875 248.363281 773 250 M 717 251 C 717.769531 252.3125 717.6875 252.230469 719 253 C 718.453125 251.363281 718.636719 251.546875 717 251 M 770 251 C 769 252.480469 769 252.203125 769 254 C 770.289063 252.558594 770.402344 252.765625 770 251 M 488 325 C 500 319.476563 507.945313 308.800781 521 304.054688 C 551 293.132813 584.960938 296.503906 612 313.695313 C 624.371094 321.5625 633.636719 333.265625 646 341 C 632.769531 295.074219 572 283.683594 532 293.628906 C 514.652344 298 493.421875 306.183594 488 325 M 842 341 C 854 335 862.628906 323.292969 874 316.054688 C 903.890625 297.027344 937.710938 292.546875 971 304.695313 C 982.773438 309 989.332031 319.464844 1000 325 C 995.707031 307.085938 973.382813 297.53125 957 293.652344 C 918.59375 284.566406 854.636719 297.136719 842 341 M 479 306 L 480 307 L 479 306 M 1008 306 L 1009 307 L 1008 306 M 660 351 L 661 352 L 660 351 M 572 429 C 555.191406 428.277344 538.984375 425.296875 522 426.039063 C 490.253906 427.429688 458.304688 438.035156 431 454.011719 C 413.484375 464.261719 400.253906 478.550781 384 490 C 396.222656 431.527344 465.332031 395.542969 521 405 C 537.246094 407.65625 561.84375 415.242188 572 429 M 1105 490 C 1094.707031 485.640625 1086.316406 475.4375 1078 468.15625 C 1068.433594 459.777344 1057.277344 453.078125 1046 447.257813 C 1024.539063 436.179688 1000.242188 427.75 976 426.089844 C 955.722656 424.699219 936 429 916 429 C 926.414063 416.125 945.4375 410 961 406.128906 C 1018.691406 392.050781 1091 430.078125 1105 490 M 743 419 C 744.5 431 745.496094 442.808594 750 454 C 754 463.738281 761.609375 471.3125 763.535156 482 C 766.546875 498.691406 759.195313 516.824219 763 533 C 771 518.804688 777.769531 504 786.425781 490 C 796.335938 474.007813 808.453125 457.746094 815 440 L 816 440 C 815 450.59375 810.734375 461 807.722656 471 C 802.753906 487.664063 798.382813 504.453125 793 521 C 813.195313 514.125 830.347656 500.183594 850 492 C 837.496094 513.738281 814.492188 532.0625 798 551 C 811.257813 546.488281 823.636719 539.296875 838 539 C 830.898438 552.6875 812.332031 562.601563 800 571.277344 C 797.65625 573 786.597656 579.128906 790.378906 583.074219 C 792.5625 585.355469 797.84375 582 800 581 C 809.492188 577 818.695313 570.773438 829 569 L 821 579 L 853 578 L 853 579 C 842.28125 581.546875 833.835938 589.09375 825 595.28125 C 811.6875 604.601563 798.542969 613 783 618 C 790.839844 607.75 802.476563 600.679688 810 590 C 802.257813 593.425781 793.597656 594.359375 786 598.136719 C 780 601.042969 775.914063 606.289063 770 609 C 773.710938 599 781.824219 591 786 581 C 773.191406 585.082031 763 598 758 610 L 757 610 C 754.703125 597.8125 753 579.140625 744 570 C 745.925781 580 744 591.796875 744 602 C 736 595.773438 735.378906 583.191406 733 574 L 732 574 L 733 611 C 725.527344 604.828125 720.730469 596 713 589.617188 C 711.433594 588.351563 705 582.785156 703.828125 587.253906 C 702.191406 593.394531 714.753906 604.078125 717 610 C 703.976563 603.066406 691.597656 594.378906 677 591 L 677 592 C 689.78125 597.613281 697 610.703125 708 619 L 708 620 C 681 613.625 664.890625 585.152344 639 579 L 639 578 L 666 579 C 664 576.390625 662.421875 574 661 571 C 670.597656 573.273438 679.183594 578.492188 688 582.742188 C 690.238281 583.820313 695.988281 587.222656 698 584.359375 C 700.984375 580.507813 690.300781 574.105469 688 572.375 C 674.84375 562.464844 657.40625 552.546875 649 538 C 662.796875 540.675781 675.910156 546 689 551 C 673.929688 529.605469 650.230469 515.21875 637 492 C 657.234375 497.828125 675.453125 513 695 521 C 684.988281 494.464844 677.691406 466.300781 670 439 L 671 439 C 690.402344 468.320313 709.628906 499.40625 723 532 L 724 532 C 723.949219 514.253906 718 496.652344 722.925781 479 C 726.214844 467.066406 736.84375 459 740 447 C 742.507813 438 738.535156 427.398438 743 419 M 327 422 L 326 423 L 327 422 M 555 444 L 555 445 C 543.875 448.382813 532 449.5 521 453.34375 C 483.933594 466.167969 443.613281 493.429688 434 534 C 454.351563 515.257813 473.855469 497.703125 501 490 C 486.890625 522.699219 449.886719 543 428.894531 571 C 406.257813 601.230469 403.539063 634.097656 399 670 C 388.375 663.039063 384 637 384 625 C 383.503906 582.789063 407 539.71875 428 504 C 417.722656 510 411 521 405.285156 531 C 393.265625 551.832031 385.71875 572.785156 380 596 C 376.488281 587.628906 378.359375 574.125 377.960938 565 C 377.300781 550 377.535156 535.460938 382.699219 521 C 397.550781 479.414063 442 449.148438 484 440.210938 C 508.980469 435 530.441406 443.492188 555 444 M 1109 595 L 1108 595 C 1099.824219 563.488281 1086.835938 523.445313 1060 503 C 1074.949219 547 1109 583.449219 1102 633 C 1100.683594 643.378906 1098.429688 664.824219 1089 671 C 1085.945313 632.316406 1080 596.078125 1054.738281 565 C 1039.972656 547 1021.367188 532.394531 1005.835938 515 C 999.253906 507.632813 991 499.605469 988 490 C 1015.839844 495.402344 1035.632813 515.632813 1055 535 C 1038.21875 483.511719 986.875 450.207031 934 446 C 944.464844 437.554688 965 438 978 438 C 1026.796875 438 1083.320313 470 1103 516 C 1113.921875 541.128906 1109 568.59375 1109 595 M 1125 462 C 1149.933594 490.542969 1181 510.660156 1208 537.015625 C 1230 558.734375 1242.914063 584.148438 1274 594 C 1267.757813 580.613281 1250.953125 572 1241.171875 561 C 1224.644531 542.636719 1215.9375 519.082031 1201.960938 499 C 1194.214844 488 1181.191406 478.15625 1177 465 C 1220.445313 482 1273.332031 514.308594 1294 558 C 1285.394531 553.203125 1277.242188 546.652344 1270 540 C 1275.644531 560.625 1293.25 577.042969 1302.730469 596 C 1324.4375 639.417969 1336.992188 687.394531 1333 736 C 1331.644531 754 1328.523438 785.550781 1314 798 C 1313.324219 782.296875 1306 767.757813 1301.34375 753 C 1291 720.648438 1283.992188 693.007813 1259 668 C 1263 685.128906 1273.238281 701.109375 1278.65625 718 C 1283.480469 733.039063 1285.496094 748.574219 1288.601563 764 C 1295.171875 796.652344 1300.171875 825.789063 1294 859 L 1293 859 C 1280.585938 805.332031 1258.535156 756.738281 1229.574219 710 C 1204.230469 669.097656 1172.5625 628.589844 1154 584 C 1170.664063 590.410156 1184.507813 608.691406 1195.585938 622 C 1217.355469 648.15625 1234.339844 677.382813 1250.859375 707 C 1260 723.40625 1270.722656 740.511719 1275 759 L 1276 759 C 1273.558594 742.40625 1265.96875 725.339844 1259.421875 710 C 1241.75 668.589844 1218.203125 631.460938 1190.574219 596 C 1168.769531 568.011719 1138.394531 534.730469 1131 499 C 1137.589844 504.445313 1140.300781 513.0625 1145 520 C 1152.265625 530.613281 1160.824219 540.035156 1170 549 C 1177.207031 556.015625 1185.339844 562.394531 1194 567.546875 C 1200.703125 571.535156 1208.519531 574 1213.660156 580.015625 C 1226.570313 595.535156 1223 618 1247 625 C 1237.675781 615.25 1233 605.417969 1232 592 C 1273.339844 610 1291.609375 663.355469 1300 704 L 1301 704 C 1301 663 1291.746094 622.742188 1260 594.171875 C 1236.679688 573.179688 1206.828125 561.269531 1183 541 C 1164.539063 525.0625 1149.226563 506.113281 1135.671875 486 C 1131.597656 480 1122.699219 469.777344 1125 462 M 363 463 C 360.894531 477.046875 349.636719 491 341.371094 502 C 327 521.226563 308.625 539.476563 289 553.277344 C 271.808594 565.371094 252.484375 574.335938 236 587.449219 C 198.660156 617.15625 185 658 185 704 L 187 704 C 187 673 207.832031 634.714844 229 613 C 233.722656 608.175781 245.992188 592.660156 253.566406 593.167969 C 257.367188 593.421875 255.433594 601 254.984375 603 C 252.730469 613.4375 246.8125 618.53125 240 626 C 250.515625 622 259.710938 614.496094 264.480469 604 C 268.332031 595.535156 268.664063 585.199219 275.214844 578.09375 C 283.65625 569 297 565 307 557.523438 C 326.582031 543 344.652344 521.160156 355 499 L 356 499 C 354.914063 512.273438 347 524 340.398438 535 C 326 559 308.800781 580.820313 291.882813 603 C 256.308594 649.648438 227.882813 702.074219 210 758 C 218.828125 748 223.679688 729.066406 230.304688 717 C 248.878906 683.179688 267.488281 649.4375 292.730469 620 C 303.398438 607.558594 316.585938 589.828125 333 585 C 325.398438 607.328125 309.820313 628.097656 297.425781 648 C 269.59375 692.683594 238.964844 735.820313 217.304688 784 C 209.914063 800.441406 203.96875 817.6875 199 835 C 198.40625 837.0625 195.894531 851.210938 192.570313 849.652344 C 189.785156 848.351563 189.507813 841.589844 189 839 C 186.6875 827.164063 187 816 188.730469 804 C 193.175781 772.785156 199.992188 741.8125 210.34375 712 C 215.394531 697.449219 224.441406 684.023438 228 669 C 214.21875 678.710938 204.953125 695.660156 198.800781 711 C 187.59375 739 180.214844 769.058594 172 798 L 171 798 C 163 777.644531 155.261719 758 153.171875 736 C 148.421875 686.136719 163.652344 637.199219 185.753906 593 C 194.695313 575.113281 204.984375 556.269531 218 541 C 209.644531 545 203.222656 552 195 556 C 210.667969 523 245.796875 498.605469 277 481.691406 C 287.972656 475.742188 299 469.035156 311 465 C 304.242188 478.570313 291.972656 489.296875 283.695313 502 C 271.484375 520.738281 262.335938 542 247.699219 559 C 237 571.398438 221.296875 579.648438 213 594 C 242.59375 587.148438 259.292969 558.058594 278.285156 537.015625 C 293.875 519.742188 315.339844 508.464844 333 493.5625 C 343.886719 484.375 351.402344 471.167969 363 463 M 580 499.34375 C 590.296875 498 588 509 582.890625 513.773438 C 575.796875 520.367188 570.984375 514.050781 564 516.300781 C 560.714844 517.378906 559 522.363281 555.304688 522.363281 C 549.742188 522.363281 556.34375 509.746094 557.636719 508.042969 C 561.449219 503.027344 573.796875 500.242188 580 499.34375 M 876 522 C 879 514.609375 884.949219 505.042969 893 502.320313 C 896.316406 501.199219 899.640625 502.796875 903 502 C 907.585938 500.800781 917 496 918.457031 504.042969 C 919.824219 511.738281 908.710938 518.664063 902 518 C 899 517.480469 896.90625 514.707031 893.960938 515.015625 C 888.226563 515.613281 881.960938 520.621094 876 522 M 533 512 C 533 547 565.996094 570 600 561.335938 C 609.996094 558.792969 616 550.445313 625 546 C 624.664063 561.679688 612 571 597 571 C 575.675781 571 550.6875 564.792969 536.4375 548 C 532 543 522.730469 536.648438 520 531 C 516.925781 524 527.652344 514.492188 533 512 M 862 545 C 872.789063 551.238281 879 559.6875 892 562.335938 C 924 569 955.996094 544.789063 956 512 C 958.71875 513.273438 960.679688 514.734375 962.699219 517.019531 C 975.539063 531.535156 960.53125 539.132813 950.714844 550 C 930.390625 572.453125 867.324219 586.238281 862 545 M 930 518.582031 C 937 517.640625 935.636719 530.078125 929 530.246094 C 922.839844 530.40625 924.632813 519.292969 930 518.582031 M 606 519.621094 C 613 517.074219 614.660156 527 608.894531 529.621094 C 602.476563 532.558594 600 522 606 519.621094 M 678 634 L 650 633 C 655.851563 638.113281 661.800781 642.726563 665 650 C 650.914063 643.8125 639.863281 632.703125 625 627.0625 C 604.839844 619.417969 583.359375 616.382813 562 615 C 521 612.089844 474.519531 614.496094 444 646.003906 C 430.597656 660 424.632813 676.777344 417 694 C 438.3125 675.546875 449.480469 651 475 636.429688 C 517.238281 612.402344 570.695313 623.230469 614 637.667969 C 629.476563 642.824219 651.175781 649.171875 661 663 C 647.835938 660.734375 635.398438 654.121094 622 651.609375 C 590.667969 645.742188 557.960938 647.371094 527 655 L 527 656 C 541.84375 656 556 654.730469 571 656.171875 C 592.554688 658.257813 612.925781 664.648438 634 669 L 634 670 C 607.234375 670 580.25 670.625 554 676.425781 C 531.246094 681.449219 509.640625 690.605469 488 699 L 488 700 C 534.449219 685.148438 580.554688 681 629 681 L 629 682 C 600 687.375 574.476563 689 548 704 C 538.617188 709.359375 528 715.070313 523 725 C 555.722656 706 589.980469 703.414063 627 708 C 639 709.285156 652 709.222656 663 715 C 646.75 728.464844 628.8125 736.734375 614.171875 753 C 599.441406 769.367188 592.726563 790.050781 579.332031 807 C 571 817.53125 558.339844 823.292969 548 831.515625 C 540.515625 837.46875 534.828125 845.484375 527 851 C 548.363281 799.6875 597.355469 766.082031 620 715 C 611.320313 723.558594 605.199219 735.75 596.828125 745 C 571 773.484375 543.722656 799.265625 524.425781 833 C 490 893.113281 486.847656 970.109375 508.667969 1035 C 520.558594 1070.359375 544.984375 1119.761719 584 1131 L 584 1132 C 551.507813 1131.730469 522.75 1105.453125 504.375 1081 C 460.597656 1022.75 450.511719 937.320313 470 868 C 455.722656 880.476563 452.496094 902.515625 448 920 C 435.398438 971 433.90625 1036.796875 472 1078 C 488.523438 1095.734375 511.542969 1105.414063 527.90625 1123.003906 C 530.875 1126.191406 542.234375 1139.527344 536.394531 1144 C 533 1146.484375 526.28125 1143 523 1141.679688 C 509.261719 1136.597656 498.757813 1128.160156 488 1118.425781 C 448.289063 1082.328125 426.792969 1029.199219 419.269531 977 C 409.921875 912.121094 411.203125 826.332031 463 778.089844 C 488.359375 754.46875 524 746.636719 549 722 C 518.753906 734.597656 482.53125 750.09375 458 772.171875 C 404.921875 820 401.367188 906.648438 413.609375 972 C 417.878906 994.785156 426.320313 1016.386719 431 1039 L 430 1039 C 421.722656 1019.789063 411.238281 1002.359375 405.425781 982 C 393.261719 939.371094 396 895 404.996094 852 C 409.421875 830.632813 413.316406 808.3125 426 790 C 447.894531 758.542969 481.667969 742.261719 508 716 C 457 730 402.960938 776 392 829 L 391 829 C 394.628906 783.003906 413.980469 739.726563 448 708.089844 C 463.386719 693.78125 482.847656 684.492188 498 670 C 432.375 682.363281 383.179688 749.65625 383 815 L 382 815 C 372.574219 790.566406 374.613281 768.144531 380 743 C 391 691.019531 420.945313 640.71875 468 614 C 484 604.695313 501.710938 598.378906 520 595.4375 C 528.257813 594.109375 536.914063 595 545 593 L 545 592 C 529.808594 590.789063 515.371094 588 500 588 C 510 579.675781 527.582031 580 540 580 C 576.441406 580 611.425781 590.515625 643 608.578125 C 653.765625 614.734375 672.535156 622.386719 678 634 M 988 587 L 988 588 C 975.71875 588 952.824219 585.449219 943 594 C 1024.945313 594 1086.863281 658.78125 1106.371094 735 C 1112.367188 758.429688 1120.214844 793.425781 1106 815 L 1105 815 C 1104.960938 752.738281 1057.582031 675.519531 990 670 L 990 671 C 998.300781 674.511719 1005.429688 681.402344 1013 686.308594 C 1059.582031 716.480469 1095.960938 768.664063 1096 826 L 1095 826 C 1093.242188 785.714844 1050.847656 752.757813 1020 733.320313 C 1007.65625 725.539063 993.851563 717.214844 979 716 C 1007.492188 743.265625 1043.546875 760.773438 1065.304688 795 C 1078.855469 816.3125 1081.542969 842.484375 1084 867 C 1088.53125 907.796875 1087.921875 948.234375 1076.574219 988 C 1071.898438 1004.382813 1064.507813 1019.367188 1058 1035 L 1057 1035 C 1060.78125 1016.683594 1068.253906 999.363281 1071.996094 981 C 1086.535156 909.699219 1086.570313 815.484375 1023 766.5 C 999.792969 748.617188 968.261719 733.578125 941 723 C 966 748 1003.539063 755.140625 1027.910156 781.003906 C 1053.238281 808 1064.851563 844.023438 1069 880 C 1075 929 1072.855469 980.003906 1056.996094 1027 C 1044.492188 1064.058594 1022 1102.335938 991 1126.789063 C 982.253906 1133.675781 972.578125 1139.121094 962 1142.644531 C 959.988281 1143.316406 953 1146.335938 951.777344 1143.382813 C 948.277344 1135.257813 961.917969 1121.734375 967 1117.4375 C 989.71875 1098.230469 1015 1083 1029.691406 1056 C 1061.984375 996.433594 1047.292969 925.710938 1020 868 L 1019 868 C 1019 888.507813 1025.753906 908.488281 1025.996094 929 C 1026.695313 988 1012.222656 1048.144531 972 1093 C 954.3125 1113 930 1131.769531 902 1132 L 902 1131 C 914.496094 1129 925.289063 1119.679688 934 1111 C 953.878906 1091.183594 967.59375 1065.0625 977.425781 1039 C 1004.507813 967.179688 993.964844 881.71875 953.574219 817 C 936.328125 789.367188 912 766.664063 890 743 C 882 734.378906 876.285156 723.035156 868 715 C 881.714844 745.785156 903.285156 771 924.199219 797 C 937.183594 813.226563 952.214844 831.078125 959 851 C 952 846.09375 947.480469 839 940.996094 833.464844 C 930.777344 825 917.835938 819 909.761719 808 C 895.796875 789.253906 887.886719 767.777344 871.828125 750 C 857.34375 734 840.449219 726.496094 823 715 L 823 714 C 854.984375 711.476563 885.65625 702.640625 918 707.425781 C 935.410156 710.003906 948.613281 719.277344 965 724 C 940.367188 691.667969 891.679688 685 854 685 L 854 684 C 866 684 878 681.566406 890 681.039063 C 923.542969 679.570313 966.910156 684.140625 997 700 C 988.433594 690.722656 973.566406 688.347656 962 684.65625 C 926.675781 673.382813 889.898438 670 853 670 L 853 669 C 888.910156 661.566406 922 656 959 656 L 959 654 C 935.882813 653.808594 913.40625 648.488281 890 650.089844 C 869 651.523438 848.589844 659.121094 828 663 C 834.527344 649.296875 860.546875 642.488281 874 638 C 919.765625 622.730469 975.570313 611.777344 1019 639.699219 C 1032.199219 648.183594 1043 659.75 1052.789063 672 C 1058.578125 679.339844 1063.40625 688.410156 1071 694 C 1060.871094 675.003906 1054.617188 655.035156 1038 640.175781 C 998.605469 605 928.550781 609 881 622.425781 C 868.269531 626.058594 855.410156 630.664063 844 637.453125 C 835 642.804688 827.996094 650.765625 817 651 C 819.957031 642.308594 831 635 839 631 L 839 630 L 808 637 C 817.226563 624.011719 837 615 851 607.757813 C 883.808594 591.078125 919.695313 578.53125 957 581.089844 C 967.574219 581.8125 977.683594 585 988 587 M 689 625 C 671.894531 622.4375 657.703125 609.386719 643 601.3125 C 634.917969 597 624 594.710938 617 589 C 639.816406 579.371094 680.277344 604.1875 689 625 M 873 589 C 868.878906 594.484375 857.214844 596 851 599 C 833.90625 607 818.175781 622.128906 799 625 C 804.195313 614.015625 812.859375 609.304688 823 603.574219 C 840 594 852.820313 586.449219 873 589 M 345 611 C 337.902344 632.808594 322.671875 649.652344 309.425781 668 C 279.882813 709 250.976563 753.398438 263 806 L 264 806 C 263.398438 792 262.511719 779 266 765 C 279.714844 713.53125 323.902344 680.625 346 634 L 347 634 C 342.242188 654 341.503906 673.371094 333.796875 693 C 321.421875 724.519531 303.40625 753.296875 289.308594 784 C 268.214844 830 255.273438 881.246094 261.285156 932 C 264.511719 959.242188 271 986.503906 267.949219 1014 C 266.808594 1024.039063 263.921875 1039.152344 254 1044 C 262.871094 1007.171875 253 966.761719 248.28125 930 C 243 891 243.605469 853.089844 254 815 C 239.261719 832.042969 237.382813 854.496094 235.910156 876 C 233 917.660156 237.800781 959.691406 243.425781 1001 C 246.886719 1026.433594 245.914063 1063.828125 215 1071 C 217.195313 1061.753906 223.285156 1054.035156 226.25 1045 C 232.894531 1024.738281 233.542969 1002 230.71875 981 C 225.339844 941.066406 200.265625 904.496094 202 864 C 205.351563 788.378906 262.414063 722 307.199219 666 C 315.523438 655.597656 324.4375 645.410156 331.386719 634 C 335.910156 626.5625 338.535156 617 345 611 M 1144 611 C 1192.78125 690.6875 1278.605469 767.589844 1282.960938 867 C 1284.433594 900.597656 1266.515625 929 1259.425781 961 C 1252.234375 993.550781 1250.925781 1028.289063 1265.742188 1059 C 1267.746094 1063.152344 1272.792969 1072.558594 1263.996094 1070 C 1239.503906 1062.648438 1242 1028 1242 1008 C 1242 966.710938 1254.738281 925.296875 1251.910156 884 C 1250.921875 869.566406 1249.746094 855 1245.253906 841 C 1242.246094 831.722656 1236.691406 823.339844 1234 814 L 1233 814 C 1235 839 1243.289063 862.65625 1242.996094 888 C 1242.539063 927.5625 1231.773438 966.570313 1229 1006 C 1228.226563 1018.667969 1231.894531 1031.359375 1232 1044 C 1222.964844 1039.585938 1220 1027.164063 1218.589844 1018 C 1214.699219 993.09375 1223.261719 968.703125 1223.984375 944 C 1225.398438 895.78125 1224.886719 848.496094 1206 803 C 1184.277344 750 1142 696.628906 1142 637 L 1143 637 C 1159.816406 677.386719 1197 706.140625 1214.574219 747 C 1222.472656 765.53125 1223 786.175781 1223 806 L 1224 806 C 1224.953125 794 1228 782.238281 1226.828125 770 C 1223.316406 733.214844 1201.867188 701.265625 1181 672 C 1170.808594 657.710938 1160.402344 643.609375 1150.667969 629 C 1147.375 624.058594 1141.597656 617.222656 1144 611 M 811 707 C 807.203125 732.335938 776 732 757 728 L 757 727 C 764 727 769.65625 725 776 722 L 776 721 C 767.878906 721 758.914063 721.730469 752 716.363281 C 748.800781 713.757813 745.761719 703.054688 741.285156 703.054688 C 737.285156 703.054688 733.886719 714.089844 730.894531 716.582031 C 724.9375 721.546875 716.246094 721 709 721 C 714.664063 725.570313 720.820313 727 728 727 L 728 728 C 713.332031 730 698.578125 732.4375 686 722.320313 C 683.480469 720.253906 673.621094 710.726563 677.699219 707.027344 C 681.1875 704 693.652344 708.046875 698 708.570313 C 711.972656 710.261719 726.285156 703 730.558594 689 C 733.324219 680 730.875 670.460938 722.984375 664.800781 C 715.414063 659.367188 701.402344 658.609375 696.320313 668.042969 C 688.25 683.015625 725.777344 681.488281 706 692 C 707 690.210938 710.441406 686 707.574219 684.210938 C 704.773438 682.558594 699.632813 685.59375 697 686.574219 C 686.925781 690.328125 666.488281 696.792969 666 680 C 665.941406 677.347656 665.933594 674.601563 666.527344 672 C 670.46875 654.832031 688.871094 647.222656 704 642.585938 C 732.289063 634 762.191406 633.1875 790 644.203125 C 801.324219 648.691406 813.304688 654.605469 819 666 C 823.226563 674.449219 824.914063 692.152344 812 693.582031 C 804.5625 694.402344 798 689.316406 791 688.339844 C 787.628906 688 778 693.367188 776 691.183594 C 772.917969 687.628906 780.324219 682.808594 783 682.28125 C 790 681 802 686.40625 796 673 C 791.734375 663.390625 779.957031 658.761719 770 661.636719 C 748.8125 667.761719 754.332031 692 768 702.472656 C 781 712.640625 796 709.011719 811 707 M 1131 642 C 1133.835938 678 1151.828125 713.070313 1165 746 C 1185.558594 797.40625 1203.75 846.773438 1210.285156 902 C 1212.941406 924.449219 1212.320313 949.730469 1208.585938 972 C 1207.261719 980 1207.371094 990.4375 1201 996 C 1200.363281 981.433594 1195 966.527344 1193 952 C 1186.253906 902.648438 1177 853.058594 1160.308594 806 C 1149 774.222656 1132 743.289063 1123 711 C 1138.496094 722.152344 1146.40625 743.332031 1161 756 C 1149.964844 737.109375 1134.996094 717.460938 1129.476563 696 C 1127.222656 687.234375 1128 678 1128 669 C 1128 660.652344 1126.554688 649.421875 1131 642 M 358 643 C 358.542969 655.636719 362 668.285156 360.828125 681 C 358 709.257813 341.472656 733.0625 326 756 C 343.238281 744 350.34375 722 366 709 C 360.257813 736.742188 343.808594 763.328125 334 790 C 317.667969 834.804688 307 880.019531 299.246094 927 C 296.363281 944.304688 294.445313 962 290.789063 979 C 290.246094 981.550781 288.394531 994.792969 284.976563 994.792969 C 280.851563 994.792969 279.253906 978.042969 278.753906 975 C 275 952.679688 273.628906 929.503906 276.285156 907 C 279 883.117188 281.808594 859.226563 288.425781 836 C 300.808594 792.566406 320.84375 751 337.601563 709 C 343 695.222656 348.679688 681.402344 352.371094 667 C 354.199219 660 353.910156 649 358 643 M 940 722 L 941 723 L 940 722 M 670 729 L 670 730 C 654.765625 741 640.367188 754.554688 631 771 C 647 758.269531 665.535156 743.179688 687 743 L 687 744 C 664 751.789063 641 771.671875 639 797 L 640 797 C 643.167969 783.660156 654.699219 769.246094 668 765 C 663.421875 776 655.640625 785 654 797 L 655 797 C 660.371094 780.527344 674 767.648438 690 761 C 679.652344 779.160156 663.769531 791.761719 662 814 L 663 814 C 671.664063 794 692.710938 771.492188 713 763 C 711.257813 772.769531 702.582031 779.238281 697 787 C 711.515625 782.816406 716.917969 770.121094 729 764 C 726.75 776 722.875 786.542969 719 798 C 726.886719 793.441406 732.269531 786 740 781 C 737.527344 800.460938 732 820.492188 725.65625 839 C 722 849.011719 716.714844 859 707 864 C 712.261719 845.730469 723.835938 831 724 811 C 718.300781 817.308594 715 826.824219 710.328125 834 C 697.871094 852.574219 677 876.003906 655 883 C 658.894531 864.179688 674.40625 855.808594 684.789063 841 C 693 829.191406 694.703125 814.433594 699 801 C 690.292969 810.539063 687.691406 822.132813 681.382813 833 C 673.601563 846.414063 661.382813 856.332031 647 862 C 647.234375 850.6875 651.433594 842.464844 643 833 C 642.8125 842.128906 639.554688 850.199219 635 858 L 634 858 C 636.527344 845.757813 644.4375 827.832031 633 818 C 634.730469 833.761719 625.542969 849.316406 615.914063 861 C 599 881.5 577.980469 897.429688 564.863281 921 C 551.382813 945.21875 547.585938 976 552.804688 1003 C 555.847656 1018.769531 562.402344 1033.449219 566 1049 L 565 1049 C 540.277344 1006.632813 521.910156 945.601563 545.269531 899 C 555.8125 878 576 864.1875 590.332031 846 C 605.535156 826.664063 615.175781 802.75 624 780 C 607.246094 799.234375 597.855469 823 582.335938 843 C 568.96875 860.222656 550.171875 873.484375 539.78125 893 C 529.691406 912 527 933.648438 518 953 C 513.917969 943.273438 518.851563 929.121094 519.828125 919 C 522.378906 892.675781 527.886719 866.308594 546.171875 846 C 558.300781 832.527344 575.183594 824.339844 586.480469 810 C 593.546875 801.03125 598 790.347656 604.722656 781 C 621.648438 757 641.65625 738.066406 670 729 M 970 952 L 969 952 C 965.394531 927.582031 953.714844 898.546875 938.765625 879 C 929 866.425781 916.476563 856.445313 906.667969 844 C 898 833.195313 892.570313 820.433594 884.996094 809 C 878.609375 799.363281 870.503906 790.757813 866 780 L 865 780 C 871 805.347656 887.625 834.386719 904.429688 854 C 916.453125 868.035156 931.640625 879.535156 940.6875 896 C 959 929.554688 954.679688 970 943 1005 C 938.578125 1018.257813 932.957031 1041 922 1050 C 939.179688 1005.398438 945.445313 952.511719 917.253906 911 C 897.191406 881.457031 854 858.527344 854 819 C 844.539063 831.367188 851.816406 844.40625 853 858 C 846.171875 852.144531 844.371094 841.621094 844 833 L 843 833 C 838 844 839.523438 851.5625 841 863 C 816 852.59375 799.460938 826 791 801 L 790 801 C 790.988281 813.425781 794.761719 828.566406 801.75 839 C 812.21875 854.628906 826.613281 864.246094 833 883 C 813.621094 875.808594 793.863281 858 782.519531 841 C 775.890625 831.117188 772.300781 819.75 764 811 C 766.769531 821 767 831.28125 770.355469 841 C 773 849.335938 778.574219 856.578125 781 865 C 769.597656 859.082031 765.34375 846.601563 762 835 C 756.789063 817 751.394531 799.242188 747 781 C 755.914063 784.773438 761.234375 793.53125 769 799 C 764 787.753906 759.972656 775.3125 759 763 L 760 763 C 767.464844 774.796875 777.695313 783.46875 791 788 C 784.515625 781.378906 776.675781 774.085938 774 765 C 788.710938 770.097656 802.507813 782 811.984375 794 C 816.796875 800.140625 819.957031 808.003906 826 813 C 818.367188 792.773438 814.273438 775 796 761 L 796 760 C 817.503906 766 821.878906 783.46875 835 798 C 831 786.1875 823.386719 775.734375 820 764 C 832.777344 770.828125 843.214844 782.191406 848 796 L 849 796 C 845.394531 771.589844 824.335938 750.722656 801 744 L 801 743 C 824 743.0625 839 759.152344 857 771 C 847 755 832.503906 745.222656 821 731 C 859.347656 739.019531 878.914063 778.207031 899.210938 807 C 911.777344 824.832031 931.960938 835.738281 945.335938 853 C 966.558594 880.394531 970 918.589844 970 952 M 472 978 L 473 978 C 476.375 952 486 926.574219 492 901 C 500.515625 865.558594 505 828.417969 525 797 C 532.628906 785.035156 541.199219 774.09375 553 766.027344 C 565.441406 757.527344 582.628906 751.371094 588 736 C 579.855469 739.449219 573.660156 746.777344 566 751.269531 C 553.816406 758.410156 540.371094 764.234375 530 774.171875 C 493.816406 809.226563 491.480469 857.628906 483.753906 904 C 479.648438 928.640625 472 953 472 978 M 901 736 C 903.433594 749.492188 917.394531 755.328125 928 761.601563 C 939.550781 768.4375 949.210938 777 956.964844 788 C 984.8125 827.589844 990.277344 877 1000.882813 923 C 1003.945313 936.332031 1006.554688 950 1010.289063 963 C 1011.640625 967.757813 1011.90625 975 1016 978 C 1013.777344 950 1006.878906 922.792969 1002.246094 895 C 994.945313 851.167969 991.902344 812 960.710938 777.015625 C 949.96875 765 934.488281 759.003906 921 750.796875 C 913.871094 746.457031 908.210938 740.164063 901 736 M 432 907 L 433 907 C 447.21875 882.636719 449.65625 853.445313 461.308594 828 C 471.625 805.46875 488.179688 791.617188 502 772 C 489.894531 774.160156 480 785.511719 471.925781 794.039063 C 451.414063 815.671875 448.441406 840.476563 442 868 C 439 881.007813 433.78125 893.761719 432 907 M 986 772 C 998 789.183594 1014.355469 801.378906 1023.679688 821 C 1036.640625 848.269531 1038.949219 879.558594 1054 906 C 1057.429688 897.195313 1047.910156 878.183594 1045.628906 869 C 1038 839 1035.214844 811.464844 1011.996094 788 C 1004.753906 780.683594 996.511719 773.574219 986 772 M 345 800 C 344.988281 817 340.871094 833.464844 338 850 C 332.941406 880.425781 327.199219 911.191406 325 942 C 323 971 323.417969 1000.1875 326.171875 1029 C 327.875 1047 331.628906 1065.09375 332 1083 C 342.226563 1072.773438 350.921875 1062 359 1050 L 360 1050 C 358.78125 1065.429688 350.667969 1079.65625 350 1095 L 351 1095 C 356.246094 1076.78125 371.53125 1061.210938 381 1045 L 382 1045 C 378 1065.351563 377.285156 1090 369.546875 1109 C 364.300781 1122 355.347656 1132.527344 346.28125 1143 C 340 1150.210938 334.195313 1159.4375 325 1163 C 330.8125 1145.8125 332.191406 1128.578125 337 1111 L 336 1111 C 330 1125.296875 317 1141.136719 301 1144 C 307.746094 1129.554688 319 1117 318 1100 C 312.492188 1107.6875 307.515625 1118.382813 299 1123 C 298 1111.097656 295.816406 1099 297.285156 1087 C 300.277344 1062.640625 309.46875 1039.800781 311.828125 1015 C 313.25 1000.070313 310.382813 985.003906 311 970 C 312.757813 930.789063 317.835938 891.144531 327.371094 853 C 331.515625 836.433594 333.816406 813.496094 345 800 M 1141 801 C 1152 820.003906 1155.789063 842.8125 1160.652344 864 C 1169.476563 902.453125 1175.21875 941.675781 1177.910156 981 C 1179.207031 1000 1177.203125 1019.054688 1178 1038 C 1178.648438 1051.824219 1186 1064.53125 1188.539063 1078 C 1191.554688 1094 1189 1110 1189 1126 C 1177.671875 1122.140625 1175.925781 1108 1167 1101 C 1168.441406 1119.277344 1176.257813 1129.652344 1185 1145 C 1169.804688 1141.355469 1157.785156 1125.824219 1152 1112 L 1151 1112 C 1154.902344 1124 1154.21875 1134 1156.328125 1146 C 1157.414063 1152.1875 1160.988281 1158.054688 1163 1164 C 1154.492188 1159.585938 1147.652344 1150.171875 1141.425781 1143 C 1132.652344 1133 1124.210938 1123.460938 1118.871094 1111 C 1110.691406 1092 1109.613281 1066.5625 1107 1046 L 1108 1046 C 1115 1056.503906 1122.246094 1067.15625 1128.796875 1078 C 1132 1083.554688 1134.375 1090.425781 1139 1095 C 1133.574219 1080.539063 1130.855469 1064.160156 1128 1049 L 1129 1049 C 1133 1058.800781 1139.53125 1067.511719 1147 1075 C 1148.433594 1076.433594 1153.488281 1083 1155.972656 1081.078125 C 1158.277344 1079.324219 1156.972656 1071.640625 1157.285156 1069 C 1158.71875 1057 1161 1045.011719 1163 1033 C 1172.667969 975.53125 1160.492188 919.707031 1150.917969 863 C 1148.613281 849.335938 1146.480469 835.445313 1143 822 C 1141.539063 815.636719 1138.339844 807.347656 1141 801 M 744 813 L 745 834 L 744 834 C 743.714844 827.316406 741.324219 819.375 744 813 M 344 837 C 344 868.496094 337 899.578125 337 931 L 336 931 C 336 909.59375 338.804688 888.289063 340.828125 867 C 341.730469 857.535156 339.789063 845.761719 344 837 M 1142 844 C 1148.425781 870.675781 1153 901.574219 1153 929 L 1152 929 C 1151.945313 908.761719 1146 888.136719 1143.835938 868 C 1143 861 1139.171875 850.800781 1142 844 M 611 890 C 599.328125 918.023438 570.816406 936.21875 561 965 L 560 965 C 560 933.773438 582.371094 902 611 890 M 928 965 L 927 965 C 919 936 886.625 919.308594 878 890 C 907.417969 901.152344 925.605469 935 928 965 M 810 892 C 833 917 862.621094 945.097656 875.546875 977 C 888.941406 1010.0625 882.359375 1048 872.859375 1081 C 867.191406 1100.761719 856.421875 1132 837 1142 C 842 1130 849.933594 1119.292969 854.574219 1107 C 863.238281 1084.046875 865 1059.300781 865 1035 L 863 1035 C 862.601563 1083 834.550781 1128.113281 805.390625 1164 C 794.695313 1177.160156 783.949219 1192.398438 769 1201 C 778.660156 1178.03125 801 1160.464844 812.742188 1138 C 842.738281 1080 836.648438 1017.40625 817 957 L 816 957 C 816 1009.179688 827 1065.53125 798.800781 1113 C 792.3125 1124 784.925781 1136.164063 774 1143 C 785.195313 1097.554688 787.613281 1052 772.667969 1007 C 769.300781 997 767 981.003906 760 973 C 775.8125 1019.710938 764.871094 1070.308594 758 1117 L 757 1117 C 757 1095.210938 753.59375 1069.164063 739 1052 C 745.683594 1079.753906 747 1110.585938 747 1139 C 747 1153.132813 747.863281 1167.257813 744 1181 L 743 1181 C 731.839844 1152.0625 735.972656 1124.085938 733.910156 1094 C 732.960938 1080.140625 728.488281 1066.808594 727.171875 1053 C 725.34375 1034 728.785156 1014 731.578125 995 C 732.789063 986.832031 732.664063 978 735 970 C 725.359375 980 720.601563 1001 716.859375 1014 C 708.757813 1042.460938 704.355469 1071.457031 707.171875 1101 C 709 1121.234375 716.433594 1140.117188 719 1160 L 718 1160 C 704.351563 1141 689.90625 1122 681.203125 1100 C 668.457031 1067.824219 668.472656 1034 669.960938 1000 C 670.578125 986 669.425781 971 672 957 C 661.539063 967.824219 659.320313 995.503906 656.921875 1010 C 648.347656 1061.753906 657.960938 1111.648438 686 1156 C 697 1173.433594 713.953125 1187.367188 724 1205 C 710.316406 1198.183594 701 1184 690.976563 1173 C 656.757813 1136.273438 625 1087 625 1035 L 623 1035 C 623 1059.5 624.683594 1085 633.425781 1108 C 637.980469 1120.066406 646 1130.15625 651 1142 C 632.628906 1132.46875 622 1105.308594 615.191406 1087 C 601.953125 1052.160156 595.285156 1009 611.308594 974 C 620.371094 954.222656 635.347656 938 649.914063 922 C 658.871094 912.261719 666.347656 899.734375 678 893 C 664.277344 922.390625 641 945.183594 634.449219 978 C 630.570313 997.273438 631 1017.714844 634.613281 1037 C 636.671875 1048.34375 641.757813 1059.402344 642 1071 L 644 1071 C 637.519531 1019.710938 632.855469 969.632813 667.210938 926 C 675.277344 915.757813 685 905.644531 697 900 C 690.800781 916 679.808594 929.382813 675 946 C 686 934 695.695313 920.15625 711 913 C 706.710938 924.785156 698.929688 934.726563 695.425781 947 C 686.945313 976.71875 680.976563 1015.121094 683 1046 C 684.597656 1068 690.5625 1088.5625 695 1110 L 696 1110 C 695.996094 1081.074219 691.855469 1053.734375 698.652344 1025 C 703.53125 1004.390625 717.191406 986.707031 721.480469 966 C 722.777344 959.75 719.539063 954.148438 719 948 C 718.382813 938.359375 720 930.097656 723 921 L 724 921 C 723.742188 927 721.605469 933 722.175781 939 C 722.925781 947 726.652344 954.054688 727 962 L 729 962 C 729 949.015625 730.382813 936.691406 733 924 C 739.96875 928.226563 743.839844 940.253906 745 948 C 748.332031 944.488281 748.929688 928.824219 753.199219 928 C 755.75 927.382813 756.308594 932.46875 756.558594 934 C 757.472656 939.5625 754.234375 953.105469 757.984375 957.363281 C 760.628906 960.363281 763.429688 951.429688 763.921875 950 C 766.851563 941.453125 766 932.785156 765 924 C 777.496094 934.75 765.875 955.335938 768.890625 969 C 772.871094 987.050781 782.417969 1003.199219 787 1021 C 794.25 1048.042969 793.488281 1082.816406 787 1110 C 796 1101 796.527344 1078.246094 798.269531 1066 C 801.371094 1044.230469 796.234375 1022.589844 794.171875 1001 C 792.191406 980.304688 796.714844 959.328125 790.5625 939 C 787.613281 929.265625 780.9375 921.667969 776 913 C 793 917.039063 802.277344 933.691406 813 946 C 807.492188 929.109375 795.996094 915.382813 790 899 C 847.675781 931.148438 859 1015 844 1073 C 850 1065.546875 850.703125 1049.410156 852.246094 1040 C 858 1004.046875 855.515625 970.375 837.695313 938 C 831.667969 927.050781 824.953125 916.050781 817.523438 906 C 814.648438 902.113281 809.257813 897.113281 810 892 M 1154 930 L 1154 939 L 1153 939 C 1153 936 1152.785156 933 1154 930 M 863 1130 C 863 1177 851.804688 1222.21875 828 1263 C 868 1246.28125 890.9375 1202.183594 914 1168 L 915 1168 C 913.9375 1180.152344 907.222656 1192 902.425781 1203 C 885.644531 1241.574219 859.546875 1271.753906 826 1297 C 814.386719 1305.570313 801 1318 787 1322 C 799.3125 1293.460938 834 1285.71875 851 1261 C 836.871094 1271.058594 819.480469 1275.746094 805 1285.355469 C 779 1302.496094 763 1333.144531 763 1364 C 746.800781 1357.71875 747 1334.546875 747 1320 L 746 1320 C 745.804688 1329.550781 742.726563 1338.65625 741 1348 C 739.671875 1356.023438 739.40625 1366 735 1373 C 719.644531 1347.65625 716.660156 1316.296875 695.714844 1294.089844 C 681.253906 1278.757813 657.394531 1270.679688 639 1261 C 651.953125 1274 667.574219 1283.261719 680.910156 1295.71875 C 686.59375 1301.027344 693.472656 1307.101563 695 1315 C 680.527344 1308.234375 668 1297.070313 656 1287 C 627.675781 1263.277344 601.378906 1235.246094 584.753906 1202 C 579.285156 1191.066406 572.804688 1179.230469 571 1167 L 572 1167 C 593.808594 1208 623.5 1239.523438 662 1265 C 655.695313 1250 646.304688 1236.167969 640 1221 C 629.261719 1195.09375 624.230469 1166 624 1138 L 625 1138 C 642.675781 1180.457031 682.492188 1206 714 1237.003906 C 721.792969 1244.703125 729.476563 1252.4375 736.335938 1261 C 738.3125 1263.464844 741 1268.273438 744.914063 1266.824219 C 748 1265.628906 750.210938 1261.464844 752.296875 1259 C 757.851563 1252.433594 763.613281 1246 770 1240.171875 C 792.570313 1219.757813 817.714844 1202.402344 836.347656 1178 C 843.6875 1168.382813 849.496094 1158 854.742188 1147 C 857.449219 1141.390625 858.605469 1134.527344 863 1130 M 757 1308 C 769.269531 1302.277344 778.207031 1286 787.171875 1276 C 809.269531 1251.617188 847.40625 1223.535156 849 1187 C 838 1193.574219 828.285156 1211.28125 819.714844 1221 C 797.539063 1246.140625 762.261719 1272.375 757 1308 M 643 1192 C 643 1232 678.574219 1253 702.910156 1279 C 711.628906 1288.363281 719.238281 1304.46875 731 1310 C 729.53125 1300.199219 723.207031 1291.34375 718.199219 1283 C 703.769531 1259 684 1240.328125 665 1220 C 657.292969 1211.632813 651.789063 1199 643 1192 M 575 1260 C 573.363281 1259.453125 573.546875 1259.636719 573 1258 C 574.636719 1258.546875 574.453125 1258.363281 575 1260 M 912 1261 L 911 1262 L 912 1261 "/>
</g>
</svg>
