<?xml version="1.0" encoding="UTF-8"?>
<svg xmlns="http://www.w3.org/2000/svg" xmlns:xlink="http://www.w3.org/1999/xlink" width="1500pt" height="1500pt" viewBox="0 0 1500 1500" version="1.1">
<g id="surface1">
<path style=" stroke:none;fill-rule:nonzero;fill:rgb(0%,0%,0%);fill-opacity:1;" d="M 385 956 C 394.703125 976.476563 405.941406 995.070313 421.167969 1012 C 431.242188 1023.199219 448.875 1038.6875 452 1054 C 453.664063 1061.734375 450.503906 1071.316406 449.246094 1079 C 446 1098 442.828125 1117 435.933594 1135 C 432.25 1144.628906 424.253906 1154.269531 424.34375 1165 C 424.410156 1173 430.257813 1179.710938 434.308594 1186 C 443.964844 1201 453.308594 1217.359375 468 1228.074219 C 474.523438 1232.828125 485.558594 1234.246094 490.257813 1241.105469 C 493.765625 1246.222656 491.429688 1254.152344 492.667969 1260 C 494.917969 1270.601563 500.472656 1280.832031 507.613281 1289 C 523.671875 1307.070313 553.71875 1316.605469 576 1304.675781 C 584.269531 1300.246094 589.703125 1288.773438 598 1286 C 602.824219 1284.28125 609 1286.574219 614 1287 C 623 1287.535156 632 1286.566406 641 1284.574219 C 676.292969 1276.675781 694 1239.636719 694 1206 C 708.269531 1212.316406 727.324219 1212.308594 739.910156 1202.238281 C 745.800781 1197.527344 750.554688 1185.023438 759 1184.621094 C 767.425781 1184.222656 773.839844 1198.78125 780 1203.210938 C 793 1212.566406 808.535156 1211.625 823 1207 C 823.273438 1240 841.710938 1277 876 1284.574219 C 884.820313 1286.546875 893.964844 1287.53125 903 1287 C 908 1286.566406 914 1284.152344 919 1286 C 927.683594 1289.027344 933.433594 1300.464844 942 1305.097656 C 963.90625 1317 992.792969 1306.785156 1008.960938 1290 C 1016.628906 1282.03125 1022.566406 1271 1024.535156 1260 C 1025.660156 1253.742188 1023.292969 1245.574219 1027.5625 1240.214844 C 1032.757813 1233.691406 1043.46875 1232.34375 1050 1227.320313 C 1063.808594 1216.699219 1072.703125 1201.414063 1081.949219 1187 C 1085.863281 1181 1091.457031 1174.402344 1092.492188 1167 C 1093.835938 1157.40625 1084.699219 1144.101563 1081.667969 1135 C 1073.652344 1111 1064.464844 1084.695313 1065 1059 C 1065.25 1048.046875 1072.929688 1039.816406 1079.71875 1032 C 1091 1019 1103.304688 1006.183594 1113.277344 992 C 1121.476563 980.34375 1124.808594 965.8125 1134 955 C 1134.347656 972 1143 987.78125 1147 1004 C 1150.722656 1019 1149.832031 1035 1159 1048 C 1166.332031 1058.320313 1180.796875 1069.632813 1194 1063 C 1208 1056 1208.96875 1036.617188 1211.425781 1023 C 1214.359375 1006.722656 1217.234375 990.542969 1217.960938 974 C 1218.898438 952.558594 1217.402344 932.007813 1223 911 C 1234.519531 869.464844 1263 835.828125 1285.574219 800 C 1309.9375 761.089844 1335.550781 721.460938 1345.574219 676 C 1351.207031 650.46875 1350.863281 624 1349 598 C 1347.894531 580.570313 1348 562.742188 1342 546 C 1334.316406 523.796875 1312.855469 512.738281 1297 497 C 1271.886719 472.058594 1251.191406 442.78125 1228 416 C 1209.34375 394.183594 1189.421875 373.394531 1170.167969 352 C 1158.898438 339.476563 1148.675781 325.792969 1135 315.734375 C 1113 299.59375 1086.863281 290.1875 1062 279.578125 C 1021.742188 262.398438 981 246 940 231 C 914.789063 221.726563 889.46875 212.824219 864 204.332031 C 850.4375 199.8125 836.335938 193.605469 822 192.171875 C 799 190 779.40625 204.671875 757 204 C 735.230469 203.261719 716.320313 190 694 192.171875 C 678.675781 193.703125 663.53125 200.59375 649 205.328125 C 621.792969 214.195313 594.785156 223.472656 568 233.574219 C 525 249.761719 482.679688 266.554688 441 285.691406 C 421.425781 294.679688 400.472656 302.289063 383 315.15625 C 365.941406 327.714844 352.960938 345.382813 338.828125 361 C 318.378906 383.605469 297.566406 405.820313 277.730469 429 C 257.464844 452.675781 239.214844 478.042969 217 500 C 203.898438 513 185.515625 521.464844 177.664063 539 C 168 560.414063 168.269531 585.023438 167.996094 608 C 167.382813 659.609375 176.453125 703.050781 201.308594 749 C 231.644531 805.085938 279.367188 855.050781 295 918 C 301 941.734375 298.449219 963.035156 300 987 C 301 1001.128906 304.550781 1015.074219 306.917969 1029 C 309.394531 1043.554688 313.335938 1065 332 1065 C 345 1065 356.914063 1053.261719 362 1042 C 366.941406 1031.484375 367.601563 1019.230469 369.804688 1008 C 373 991.320313 378 971.519531 385 956 M 942 254 C 937.871094 258 929.949219 260.765625 928.84375 267.003906 C 927.851563 272.589844 934.390625 277.5625 938 280.828125 C 948.523438 290.355469 959.382813 299.523438 970 309 C 1003 338.320313 1038.523438 365.804688 1063.332031 403 C 1070.351563 413.523438 1081.734375 425.285156 1084 438 C 1080 437 1076.699219 434.726563 1073 433 C 1080.359375 440.339844 1090 445.78125 1096.472656 454 C 1102.859375 462.265625 1105 474 1107 484 L 1106 484 C 1097.183594 460.105469 1073.640625 451 1054 438 C 1065.949219 457.105469 1085 469.589844 1093.988281 491 C 1104.382813 516.046875 1107 544.09375 1105.960938 571 C 1105.394531 584 1102.199219 597.03125 1103 610 C 1104.339844 628.273438 1109.542969 646 1112.566406 664 C 1115.742188 683 1116.359375 702 1118.171875 721 C 1119.535156 735.363281 1121.90625 750.554688 1120.910156 765 C 1118.304688 803 1097.992188 841 1087.425781 877 C 1081.828125 896.128906 1076.773438 915.464844 1072.800781 935 C 1069.515625 951.171875 1067.542969 968.664063 1059 983 L 1058 983 C 1057.917969 953.441406 1051.175781 924 1045.398438 895 C 1032.4375 830.191406 1014 765.445313 977 710 C 956 678.664063 929 643.179688 889 638 L 889 639 C 940.503906 653.613281 965.617188 717.195313 984.851563 762 C 991.953125 778.550781 999.332031 795.277344 1003 813 C 975.9375 809.003906 962.785156 779.71875 943.996094 763.429688 C 934.585938 755.269531 919.21875 749.441406 911.652344 739.816406 C 907.636719 734.703125 906.554688 724.347656 906 718 C 932.558594 725.652344 953.234375 748.234375 972 767 C 961.984375 745.574219 942.773438 725.761719 923 713.089844 C 914.714844 707.777344 904.875 705 897 699 C 890.585938 693.738281 886.992188 686.183594 881.699219 680 C 874.171875 671.203125 864.75 663.640625 855 657.4375 C 821.785156 636.300781 782.324219 632.28125 744 634 C 720.878906 635 697.847656 638 677 649 C 661 657.265625 647.40625 668.003906 635 681 C 629.601563 686.714844 626.339844 694.261719 619.984375 699.074219 C 610.757813 706.066406 599.480469 709.796875 590 716.441406 C 571 729.679688 556.910156 747.539063 545 767 C 565.949219 749 584.175781 726.066406 612 718 C 611.453125 725 610.464844 734.535156 605.722656 740 C 597.28125 749.4375 582.785156 755.703125 573 764.285156 C 555.59375 779.554688 539.550781 810.753906 514 813 C 517 800.101563 523.316406 787.429688 527.949219 775 C 540.664063 741 555.691406 707.097656 577.882813 678 C 590.320313 661.695313 605.1875 644.816406 626 640 L 626 639 C 588.421875 639.78125 561.65625 679.386719 542.660156 707 C 504.210938 763 484.589844 828.070313 471.398438 894 C 465.539063 923.292969 459 953.015625 459 983 L 458 983 C 444.363281 954.328125 444.214844 923 435.277344 893 C 426.167969 862.425781 414.535156 832.632813 405.574219 802 C 401.558594 788.261719 396.503906 774.472656 396 760 C 394.488281 711.246094 408.824219 663 414.714844 615 C 416.28125 602.226563 413.59375 589.679688 413 577 C 411.761719 547.804688 412.953125 516 425.308594 489 C 434.660156 468.574219 451.574219 456.628906 464 439 C 441.796875 446.511719 421.199219 463.023438 412 485 L 411 485 C 413 475.277344 414.855469 463.277344 420.648438 455 C 426.9375 446.015625 437 440.324219 445 433 L 434 438 C 437 425.328125 447.511719 412.78125 454.667969 402 C 480.320313 363.347656 517.605469 335.433594 552 305.15625 C 561.746094 296.574219 571.820313 288.1875 580.996094 279 C 584 276 588.890625 271.816406 588 267.003906 C 587.179688 261 579.652344 257.753906 575 255 C 582.621094 247 596.902344 245.636719 607 242 C 626.492188 234.824219 646.3125 228.566406 666 222 C 678.851563 217.710938 691 212.132813 705 213.089844 C 721.90625 214.253906 737 223.730469 754 225 C 773.667969 226.289063 792 213.238281 812 213.003906 C 829 212.800781 844 220.007813 860 225 C 886.929688 233.34375 917.347656 240 942 254 M 508 374 C 533.625 359.734375 555.859375 338.664063 580 322.027344 C 605.921875 304.160156 634 290.238281 663 278 C 682 269.695313 701.402344 262.265625 721 255.667969 C 727.675781 253.421875 740.707031 251.71875 745 246 C 730 244.109375 706.617188 243 692 247.039063 C 672.8125 252.507813 654.441406 266.113281 637 275.695313 C 609.316406 291 581.675781 307 557 326.804688 C 541.488281 339.273438 516.253906 355.480469 508 374 M 771 246 L 771 247 C 786 253.679688 802.542969 257.644531 818 263.425781 C 850.257813 275.488281 881.9375 289 912 306 C 932.859375 317.570313 953 331.054688 972 345.652344 C 984.195313 355.046875 995.503906 366.476563 1009 374 C 1006 366.574219 999.574219 362.289063 994 357 C 981.453125 345 968.910156 333.074219 955 322.628906 C 927.324219 302 897.375 285.121094 867 268.691406 C 853.640625 261.464844 838.789063 250.515625 824 247 C 806.6875 242.667969 788.519531 246 771 246 M 756 253 C 754.175781 262 752.28125 271.667969 744.984375 277.726563 C 727.625 292.136719 695.972656 293 688.925781 319 C 681.773438 345.410156 706.910156 368.28125 713.570313 392 C 723.238281 426.40625 704.464844 465 684.371094 492 C 676.515625 502.558594 667.617188 512.523438 656 519 C 664.992188 507 671.988281 495.53125 672 480 L 671 480 C 651.621094 511.515625 612 512.621094 588.804688 484 C 582.863281 476.6875 573.621094 468.253906 575.667969 458 C 578.4375 444.109375 585.675781 425.65625 599 419 C 613.984375 411.164063 637.921875 420.273438 637.921875 439 C 637.921875 447.144531 632 454 629 461 C 647.996094 447.582031 646 416.691406 627 404.109375 C 615.539063 396.574219 598.628906 398 586 401.429688 C 564.539063 407.511719 545 421.664063 527 434.28125 C 509.40625 446.574219 491.457031 458.371094 474 471 C 457.753906 482.480469 442.53125 495 437 515 C 431 538.011719 434.367188 562.644531 436 586 C 436.75 595 440.183594 604 438.335938 613 C 435 629 426.84375 643.28125 422.894531 659 C 417.699219 679.691406 417.328125 701 414.714844 722 C 413.308594 733.285156 407.933594 745.601563 409.433594 757 C 413 785.226563 431 808.355469 439.65625 835 C 445.523438 853.3125 443 872.253906 445.285156 891 C 447.5 909.71875 454.191406 928.183594 455 947 L 456 947 C 461.285156 929.117188 456.417969 906.785156 459.4375 888 C 461.613281 874.453125 466.476563 861.539063 468.574219 848 C 480.558594 770.757813 493.179688 696 536.65625 629 C 544.40625 617.066406 550.277344 603.46875 560 593.003906 C 581.304688 570.382813 615.429688 557.8125 642 542.578125 C 663.984375 530 682.785156 517 699.828125 498 C 705.699219 491.503906 714.710938 477.707031 725 479.429688 C 737.789063 481.574219 736.691406 495.3125 745 501 C 745 487 742 479.125 732 469 C 744.707031 465 750.894531 452.601563 751 440 L 750 440 C 742.921875 450.363281 733.738281 458.117188 721 460 C 728.878906 439.691406 735.214844 419.773438 737.714844 398 C 739.402344 383.273438 738.171875 369.015625 741 354 C 734.296875 358.394531 732.527344 370.609375 731 378 C 726.457031 372.65625 717.355469 362 716.320313 355 C 715.554688 350 719.601563 344.425781 721.703125 340 C 728 326.535156 740.691406 304.0625 758 303.277344 C 777.371094 302.402344 796.988281 334.582031 800.46875 351 C 802.484375 360.523438 790.617188 370 788 379 L 787 379 C 785 370.796875 782.488281 358.660156 776 353 C 780.671875 389.160156 781 426.222656 797 460 C 781.683594 458.746094 777.5625 447 766 440 C 766.953125 452 772.894531 466.464844 786 469 C 776.25 480.28125 774 487.136719 774 502 L 776 502 C 777.414063 492.558594 785.882813 475.714844 798 480 C 803.980469 482 807.789063 487.660156 812 492 C 821.816406 502.0625 830.660156 513 842 521.371094 C 865.65625 539 892.4375 552.1875 918 566.71875 C 931.1875 574.21875 946.308594 580.773438 956.824219 592.039063 C 965.792969 601.640625 971 614.152344 978.332031 625 C 1009 671.105469 1028.722656 722.707031 1039.195313 777 C 1043.726563 800.488281 1045 824.34375 1048.289063 848 C 1050 861.5625 1055.402344 874.492188 1057.75 888 C 1061.203125 908 1060.859375 927 1060 947 L 1061 947 C 1075.324219 913.710938 1067.859375 876.316406 1075.425781 842 C 1081.800781 813.074219 1103.925781 788.429688 1107.710938 759 C 1109 748.039063 1104.496094 736.78125 1103 726 C 1100.375 703.664063 1099.59375 681 1094 659 C 1090.71875 645.457031 1082.402344 633.597656 1079.519531 620 C 1077 608.503906 1080.722656 596.425781 1081.828125 585 C 1084.191406 560.609375 1085.523438 536 1079 512 C 1073.375 490.566406 1054.214844 478 1037 466 C 1004.503906 443.46875 973.273438 415.148438 935 402.746094 C 919.90625 398 901.914063 395.476563 888 405 C 870.644531 416.6875 868.542969 446.4375 886 459 C 883 450 876.257813 442.28125 879.96875 432 C 888 409.394531 919.226563 413 930.300781 430 C 935.785156 438.464844 942.917969 452.539063 941.746094 463 C 941 469.433594 935.371094 475.269531 931.410156 480 C 919.660156 494.023438 903.488281 506.761719 884 506 C 873.613281 505.433594 863.558594 501.15625 856.171875 493.824219 C 851.863281 489.554688 849.1875 483.148438 844 480 C 844.695313 496.238281 852.785156 509.691406 864 521 C 849.792969 514.277344 839.574219 501.796875 831 489 C 812.582031 461.507813 794.617188 426 803.921875 392 C 810.375 368.445313 833 348.128906 828.675781 322 C 823.746094 292.714844 787 293 769.183594 277.316406 C 761.824219 271 763.824219 258.132813 756 253 M 504 296 C 522.679688 290.695313 539.8125 281.722656 559 278 C 556.519531 284.382813 550.777344 288.300781 546 293 C 535 303.757813 523.230469 313.628906 512 324.089844 C 490.914063 343.730469 470 364.179688 452.425781 387 C 441.925781 400.527344 435.308594 419 421 429 C 421 412 428.664063 394.011719 441 382.09375 C 446.519531 376.816406 453.488281 373.398438 458.828125 368 C 481.410156 344.703125 503 321 526 298 C 492.648438 312 455 327 426 348.628906 C 412.980469 358.316406 399.960938 369.421875 394 385 C 384 411.5 398.972656 438.152344 386.832031 464 C 378.527344 481.675781 366.449219 497.265625 358.308594 515 C 337.828125 559.613281 331.597656 609.417969 345 657 L 346 657 C 346 636.328125 341.675781 607 361 593 C 360 604.339844 354.867188 615 352.425781 626 C 345.585938 657 337.914063 693.253906 340 725 C 343 769.175781 352.609375 814.300781 359.753906 858 C 363.726563 882.3125 369.941406 908.257813 366.574219 933 C 362.675781 961.648438 352.265625 988.691406 346.804688 1017 C 345.539063 1023.554688 343.472656 1042.230469 333 1040.574219 C 328.632813 1040 329 1033.363281 328.574219 1030 C 326.96875 1018.609375 324.351563 1007.390625 322.730469 996 C 315.550781 945.652344 337.371094 895.542969 333.910156 845 C 330.640625 797.234375 324.9375 749.644531 319.835938 702 C 316.523438 671.105469 309.949219 640.234375 312 609 C 314.347656 576.03125 325.976563 544.074219 336.332031 513 C 353 462.71875 372.269531 410.378906 398 364 C 424.269531 317.15625 468.433594 296.636719 516 277.011719 C 526.609375 272.632813 537.257813 268.222656 548 264.191406 C 552.949219 262.335938 558.363281 260.746094 562.9375 264.433594 C 571.835938 271.609375 556.539063 273.097656 552 274.4375 C 540.546875 277.828125 529.855469 284.316406 519 289.230469 C 514 291.46875 508 292.390625 504 296 M 992 299 C 1012.46875 319.300781 1031.894531 340.375 1052 361 C 1060 369.285156 1070 375.425781 1077.824219 384 C 1088.324219 395.703125 1094.726563 412.550781 1097 428 C 1081 422 1071 396.019531 1061 383 C 1042 358.359375 1019.285156 335.824219 996 315.285156 C 984.761719 305.371094 963.910156 292 958 278 C 976.40625 280.378906 992 291 1010 295 C 996.328125 286 978.960938 278.066406 963 274.234375 C 959.441406 273.382813 947.890625 272.152344 951.660156 266.042969 C 957.628906 256.371094 975.609375 267 983 269.800781 C 1013 281.828125 1045 293.691406 1072 312.027344 C 1104.882813 334.449219 1122 366.714844 1138.308594 402 C 1155 438.730469 1169.230469 476.6875 1182 515 C 1193 548.078125 1203.511719 581 1205.910156 616 C 1207.707031 642.222656 1200.949219 669.03125 1198 695 C 1192.714844 746 1186.585938 797 1183 848 C 1180.660156 883.445313 1190.578125 918.074219 1194.714844 953 C 1197.449219 976.085938 1193.46875 997.3125 1189.753906 1020 C 1188.945313 1025 1189.558594 1043.335938 1181 1040.238281 C 1175.84375 1038.351563 1173.785156 1031.789063 1172.429688 1027 C 1168.6875 1013.8125 1166.347656 1000.21875 1162.578125 987 C 1157 967.566406 1151.476563 948.257813 1150 928 C 1147.210938 886 1159.382813 843.183594 1166.246094 802 C 1171.316406 771.582031 1177 741 1177 710 C 1177 693.277344 1171.308594 675.367188 1172.429688 659 C 1173.191406 648 1177.363281 636.269531 1178.714844 625 C 1181.472656 602 1180 578.496094 1174.523438 556 C 1165.308594 519.148438 1141.40625 490.582031 1127.453125 456 C 1118.386719 433.527344 1132 409.492188 1124 387 C 1111 349.515625 1060.5 329.070313 1027 314.140625 C 1015.453125 309 1004.421875 302 992 299 M 670 287 C 652.824219 298 651 316.394531 651 335 C 632.859375 325.441406 610.417969 330.171875 594 341 L 594 342 C 616.710938 338.65625 632.621094 334.425781 654 347 C 661.289063 351.121094 666.574219 358.148438 674 362 C 668 348.402344 658.851563 336.828125 660.175781 321 C 661 309.558594 670 297.507813 670 287 M 847 287 C 849 299.214844 857.371094 309 856.957031 322 C 856.480469 337 846.488281 348.050781 844 362 C 860.976563 350.042969 876.195313 334.5 899 336.089844 C 906.617188 336.621094 913.816406 339.660156 921 342 C 915.179688 331.742188 893.664063 329 883 330.183594 C 878.90625 330.675781 872.308594 334.492188 868.433594 332 C 864 329.09375 866.386719 319.488281 865.238281 315 C 862.46875 304.167969 856.179688 293.472656 847 287 M 1108 326 C 1139.640625 344.46875 1176.265625 381 1185 418 C 1190 438.78125 1187 460 1187 481 L 1186 481 C 1177.292969 443.363281 1159.394531 404 1139.601563 371 C 1133.371094 360.621094 1126.660156 350.160156 1118.710938 341 C 1115 336.792969 1108.300781 332 1108 326 M 410 327 C 394.835938 351.351563 375.445313 371.566406 363.308594 398 C 351.507813 423.703125 346.730469 456.589844 331 480 C 328.550781 471.71875 330 461.605469 330 453 C 330 429.046875 332.628906 406.46875 346.359375 386 C 353.710938 375.042969 363.820313 365.441406 372.984375 356 C 383.898438 344.757813 394.242188 331.539063 410 327 M 481 413 C 510.878906 415.664063 535.273438 382.539063 560 371.3125 C 590.464844 357.480469 647.632813 365.433594 663 399 C 670.972656 416.085938 665.957031 433.742188 662 451 C 669.730469 444.589844 671.171875 433.359375 673 424 C 680.335938 386.414063 657.242188 348.128906 617 344.171875 C 605.953125 343.085938 594 348 584 351.808594 C 556.382813 362.277344 535.886719 379.589844 512 396.277344 C 502.214844 403.117188 490.886719 406.75 481 413 M 855 451 C 851.347656 436.175781 846.773438 417.820313 852.46875 403 C 865.355469 369.441406 915.757813 358.574219 947 367.429688 C 965.175781 372.578125 978.589844 386 994 396 C 1007 404.589844 1021 409.792969 1036 414 C 1030 404.199219 1010.539063 400.132813 1001 393.65625 C 969.285156 372.117188 924 329.332031 882 348.3125 C 850.839844 362.355469 837.234375 393.632813 844.652344 426 C 846.335938 433.351563 848.382813 446.628906 855 451 M 326 405 C 321.394531 424.4375 313.835938 441.578125 313 462 C 312.390625 478.648438 320.363281 495.53125 315.226563 512 C 311 525.246094 297.5625 534.8125 290.863281 547 C 277.863281 570.65625 274.78125 607 281 633 L 282 633 C 282 602.230469 293 573 309 547 L 310 547 C 306.929688 570.777344 297.605469 593.824219 297 618 C 296.335938 645.6875 303 672.6875 306.71875 700 C 311.53125 736.59375 313.96875 773.425781 318.285156 810 C 320.816406 831.445313 320.234375 855.609375 317.425781 877 C 316.890625 881.078125 317.851563 894.433594 313.484375 896.652344 C 310.816406 898.011719 308 888.585938 307.398438 887 C 302.851563 875.640625 298 864.414063 291.574219 854 C 263.867188 809.496094 231.355469 768.050781 209.695313 720 C 192.347656 681.519531 188.996094 646.425781 189 605 C 189 585.652344 188.839844 562.21875 198.878906 545 C 205.199219 534.148438 217 528.257813 226 520 C 239.816406 507.0625 251.703125 492.460938 263.753906 478 C 277 462 290.582031 446.046875 303.917969 430 C 310.847656 421.664063 317 411.320313 326 405 M 1192 405 C 1223.191406 436.195313 1247.773438 473.285156 1277.285156 506 C 1290.96875 521.144531 1311.863281 529.617188 1320.6875 549 C 1328 565.320313 1326.519531 583.664063 1328.171875 601 C 1330 620.675781 1330.851563 641.433594 1327.386719 661 C 1314.792969 732.117188 1264.5625 790.378906 1227.425781 850 C 1217.835938 865.394531 1212.347656 882.15625 1204 898 L 1203 898 C 1202.765625 886.542969 1199.257813 875.386719 1198.171875 864 C 1196 842.824219 1197 821.148438 1199.171875 800 C 1202.507813 765 1206.6875 730 1211.28125 695 C 1214 674.199219 1219.472656 653 1219.984375 632 C 1220.703125 602.648438 1208 576 1208 547 L 1209 547 C 1220.933594 575.511719 1236 600 1236 632 L 1238 632 C 1238 604.089844 1241 577.414063 1229 551 C 1222.476563 536.226563 1206.222656 527 1201.925781 511 C 1196.351563 490.414063 1206.488281 466.398438 1203.574219 445 C 1202.410156 436.445313 1200.804688 428.039063 1197.546875 420 C 1195.632813 415.277344 1191.570313 410.210938 1192 405 M 568 431 C 558.503906 453.691406 527.59375 474 503 475 C 509.265625 467.253906 518.953125 463 527 457.277344 C 539.949219 448.1875 552.46875 435.476563 568 431 M 951 431 C 973 444.015625 993.753906 459.664063 1015 474 L 1015 475 C 995.652344 474.167969 975.476563 463.472656 962 450 C 957.71875 445.707031 949.175781 437.675781 951 431 M 721 460 L 720 461 L 721 460 M 469 546 C 481.234375 527.503906 501.976563 511.476563 525 511 L 525 509 C 500.386719 509.066406 476 522.695313 463.871094 544 C 457.753906 554.695313 456.402344 566.617188 450 577 C 448.703125 571.324219 451 563.113281 451 557 C 451 535.445313 449.351563 512 470 498.105469 C 485.3125 488 504.507813 488 522 485 C 528.820313 483.769531 534.925781 482.0625 541 478.667969 C 543.433594 477.308594 546.773438 474.304688 549.785156 475.371094 C 560.683594 479.230469 560.539063 502.011719 553.785156 508.785156 C 543.675781 519 524.789063 515.238281 512 519.035156 C 494 524.34375 483.667969 535.667969 469 546 M 1066 571 L 1065 571 C 1057.640625 548.421875 1047 526.683594 1024 516.4375 C 1013.277344 511.667969 1002.476563 510.449219 991 509 L 991 510 C 1018.546875 516.785156 1040.996094 525.179688 1054 553 C 1038.890625 541.410156 1030 527.609375 1011 521 C 995.742188 515.492188 972 521 961.652344 506 C 957.269531 499.769531 958.691406 476.121094 968.214844 474.421875 C 975.5625 473.109375 985.25 483.542969 993 485 C 1007.589844 487.5 1022.953125 487.21875 1037 492.4375 C 1070.945313 505.054688 1064.746094 541.796875 1066 571 M 404 511 C 397.820313 544.253906 404 577 400.828125 610 C 399.1875 627 391.804688 643.453125 387.882813 660 C 381.96875 685 378.835938 710.484375 377 736 C 374.945313 767.304688 381 800.285156 386.574219 831 C 394 872.503906 402.613281 914.453125 420.308594 953 C 427.320313 968.273438 439.535156 979.609375 447 994 C 432 990.453125 420.558594 977.730469 413 965 C 397.699219 939.152344 389.792969 908.417969 384.921875 879 C 379.589844 846.8125 377 814.308594 372.71875 782 C 370.390625 764.738281 364.441406 747.457031 364 730 C 362.953125 686.625 372.78125 639.363281 381.789063 597 C 386 577 390.882813 557 396 537 C 398.285156 528.746094 398.804688 518 404 511 M 1116 512 C 1118.714844 532.148438 1125.167969 552.152344 1129.574219 572 C 1140.242188 620.035156 1151.820313 670.699219 1153.960938 720 C 1154.808594 739.53125 1148.226563 759 1145.273438 778 C 1140.664063 808 1138 838.046875 1134 868 C 1129.582031 900.164063 1122 934.824219 1105.394531 963 C 1097 977 1086.375 990.210938 1070 994 C 1079 979.300781 1089.726563 967 1097.21875 951 C 1112.800781 918.015625 1120.941406 881.664063 1127.609375 846 C 1136.175781 800.222656 1142.339844 753.59375 1137.828125 707 C 1134.613281 673.769531 1121.550781 642.683594 1117.289063 610 C 1114.878906 591.511719 1118.96875 573.46875 1119 555 C 1119 546 1118.875 537.003906 1117.570313 528 C 1116.855469 523.058594 1114.289063 516.765625 1116 512 M 567 514 C 568 516.371094 568.621094 518.449219 569 521 C 564 520 563 517.402344 567 514 M 947 522 C 949.882813 512.414063 958 518.722656 947 522 M 656 519 L 655 520 L 656 519 M 542 529.609375 C 549.335938 526.628906 554.449219 537.695313 546.941406 540.378906 C 540.398438 542.714844 535.777344 532.25 542 529.609375 M 971 529.617188 C 977.921875 527.011719 982 537.527344 975.773438 540.242188 C 968.859375 543.214844 964 532.328125 971 529.617188 M 513 711 L 514 711 C 548.359375 660.070313 585.351563 609.519531 641 580.320313 C 669.730469 565.246094 703.238281 562.089844 735 560 C 782.46875 556.65625 833.261719 559.203125 877 580 C 895.792969 588.777344 911.707031 603.066406 927 616.832031 C 957.742188 644.5 982.226563 674.40625 1003 710 C 1004.460938 705.046875 1000.59375 700.226563 998.308594 696 C 992.558594 685.363281 987.265625 674.519531 981.28125 664 C 953.5625 615.265625 912.488281 570 859 549.683594 C 837.75 541.671875 817.179688 540.058594 795 537 C 782.414063 535.058594 769.8125 531.480469 757 532.039063 C 742.628906 532.667969 728.269531 536 714 537.714844 C 685.292969 541.253906 657.566406 546.597656 632 561 C 596.433594 580.707031 568.628906 612.5 546.332031 646 C 533.703125 665 518.320313 688.605469 513 711 M 512.867188 535 C 517.414063 536 517.632813 544.527344 519.519531 548 C 523.75 555.800781 530.875 562.5625 540 563.683594 C 550.421875 565 561.4375 556.675781 566.199219 548 C 567.925781 545 570.472656 535.066406 575.773438 538.660156 C 583.765625 544.082031 573.425781 555 569 558.675781 C 556.777344 569 540.199219 573 525 567.640625 C 515.648438 564.414063 506.886719 556.210938 503 547 C 500.683594 541.175781 506 533.4375 512.867188 535 M 1003.511719 534.789063 C 1010.316406 532.4375 1017 541 1015 547 C 1012.503906 555 1003.324219 562.609375 996 566.179688 C 981.605469 573.195313 962.53125 570.277344 950 560.761719 C 945.195313 557.109375 933 546.003906 941.265625 539.761719 C 946.496094 535.753906 949 546 951.222656 549 C 957.199219 557.699219 966.761719 565.820313 978 563.660156 C 986.921875 562 993.824219 553.59375 997.878906 546 C 999.285156 543.363281 1000.488281 536 1003.511719 534.789063 M 469 547 C 468.453125 548.636719 468.636719 548.453125 467 549 C 467.546875 547.363281 467.363281 547.546875 469 547 M 524 576 C 519.40625 582.519531 512.519531 589.09375 505 592 C 507 582.355469 502.484375 572.375 496.332031 565.089844 C 493.636719 562 487.46875 558.492188 487 554 C 486.617188 549.636719 492.183594 546.121094 495.785156 548.621094 C 499.410156 551.136719 500.886719 556.570313 503.527344 560 C 508.878906 567 515.929688 572.617188 524 576 M 1013 594 C 1008.972656 591.707031 993.46875 582.214844 995.347656 576.609375 C 996.863281 572.074219 1008.386719 566.785156 1011.90625 563 C 1015.707031 559 1018.183594 551.492188 1023 548.710938 C 1026.339844 547 1030.484375 549.566406 1031.25 553.015625 C 1032.40625 558.253906 1023.34375 563.421875 1020.519531 567 C 1014.4375 574.695313 1011.222656 584.28125 1013 594 M 568 565 C 569.773438 562.507813 578.492188 551.53125 582 554.753906 C 588.773438 560.707031 570.871094 564.613281 568 565 M 948 565 C 945.40625 564.464844 930.203125 561.152344 935 555.734375 C 938.511719 552 946.792969 562.464844 948 565 M 458 564 L 457 565 L 458 564 M 1067 572 L 1066 573 L 1067 572 M 1058 630 C 1051.484375 621.523438 1046.371094 612.03125 1047 601 C 1047.851563 589.347656 1058 583.292969 1068.484375 591.164063 C 1073.679688 595.066406 1069.75 615.632813 1070 622 C 1070.476563 631.605469 1075.472656 640.457031 1076.710938 650 C 1078.171875 661.234375 1076 672.753906 1075.996094 684 C 1075.890625 693 1075 706.152344 1065 709.347656 C 1053 713.113281 1042.199219 704.632813 1036.453125 695 C 1025.292969 676.292969 1020 654.644531 1008.796875 636 C 998.46875 619 981.378906 603.652344 976 584 C 998.910156 587.445313 1009.738281 615.019531 1034 617 C 1027 608.820313 1019.410156 599.539063 1020.214844 588 C 1020.820313 579.316406 1031.714844 573.277344 1038.394531 580.652344 C 1042.972656 585.703125 1035.726563 595.183594 1035.917969 601 C 1036.328125 613.476563 1047.894531 624.367188 1058 630 M 483 618 C 489.582031 615.515625 496 614.261719 502 610.25 C 515.816406 601 525.773438 588.492188 542 583 C 533.371094 603.617188 517.6875 620.597656 506.863281 640 C 497 657.660156 491.726563 677.46875 481.664063 695 C 476 704.664063 464.699219 713.023438 453 709.347656 C 442.375 706.007813 442.21875 692.203125 442 683 C 441.699219 670.421875 439.332031 658.59375 441.296875 646 C 442.738281 636.761719 447.371094 628.296875 448.699219 619 C 449.617188 612.566406 445.335938 594.113281 451.230469 590.570313 C 462.59375 583.730469 470.574219 590.105469 470.957031 602 C 471.308594 613 466.210938 623.09375 459 631 C 469.410156 625.199219 480.453125 614.550781 481.8125 602 C 482.449219 596.09375 474.71875 585.199219 479.359375 580.652344 C 486.460938 573.691406 497.898438 579.773438 497.734375 589 C 497.523438 601 489.347656 609 483 618 M 599 641 L 599 642 C 608.417969 641.179688 617.242188 636.324219 626 633.050781 C 649.453125 624.277344 672.726563 612.613281 698 610.171875 C 719.339844 608.105469 740.730469 612.246094 762 612 C 786 611.710938 810 607.375 834 613 C 861.527344 619.21875 887.355469 637 915 641 C 910.234375 635 902.578125 632.292969 896 628.574219 C 882 620.753906 868.5625 612.578125 854 606.140625 C 825.921875 593.726563 790.175781 578.65625 759 578.054688 C 748.226563 578 737.417969 581.769531 727 584 C 679.714844 594.132813 640.980469 618.613281 599 641 M 256 727 C 252.21875 697.070313 244.941406 667.265625 237.628906 638 C 233.921875 623.183594 227.316406 607.335938 227 592 C 216.433594 597.046875 215 613 212.289063 623 C 203.328125 654.578125 210 681 230.921875 706 C 237.21875 713.574219 246 724.433594 256 727 M 1158 592 C 1174.671875 610.265625 1172 632.265625 1172 655 L 1171 655 C 1169.863281 640.703125 1165.800781 625.757813 1161.859375 612 C 1160.199219 606.21875 1155.890625 598 1158 592 M 1262 727 C 1270 723.15625 1275 716.3125 1281 710 C 1303.277344 686.734375 1314.339844 663.335938 1307.339844 631 C 1305.21875 621.207031 1301.878906 611.359375 1298.316406 602 C 1297.464844 599.773438 1295.425781 593.207031 1292.324219 593.207031 C 1290 593.207031 1289.304688 598.449219 1288.859375 600 C 1286.554688 608 1284.363281 616 1282.375 624 C 1277.324219 644.46875 1274 665.328125 1270 686 C 1267.363281 699.398438 1263 713.425781 1262 727 M 837 797 C 825.492188 813.1875 801.773438 810.308594 790.789063 795 C 781 781.464844 780.746094 764.550781 777 749 L 776 749 C 776 759.054688 775.867188 769.035156 777.4375 779 C 781 802.113281 799.191406 823.019531 824 811.214844 C 837 805.023438 845.878906 793.417969 857 784.667969 C 867.355469 776.519531 879.875 772 891 765 C 897 761.117188 902 755.300781 909 753 C 908 768.507813 885.765625 774.425781 876 784.089844 C 859.179688 801 846 833.769531 817 828.535156 C 807.679688 827 799.523438 821.660156 791 818 C 783.933594 814.710938 775.773438 812.222656 770 806.816406 C 761.609375 798.828125 764 785.527344 764 775 C 763.992188 758.574219 760.996094 741.628906 756 726 L 755 726 C 755 743.726563 754 761.289063 754 779 C 754 787.109375 755.527344 797.007813 750.488281 804 C 743 814.371094 728.179688 817.8125 717 822.578125 C 709.265625 826 700.691406 830.53125 692 829.8125 C 663.375 827.4375 651.3125 790.375 630 775.4375 C 624.980469 772 606.28125 763.613281 608.816406 755.363281 C 610.203125 751 618.480469 758.808594 620 760 C 631.441406 769 645.257813 774 657 782.429688 C 670.5 792.125 680.808594 807.292969 697 813 C 736.617188 826.613281 742 775 742 749 L 740 749 C 739.664063 765.214844 735 786.699219 723.816406 799 C 712.296875 811.476563 690.21875 811 680 797 C 688 798.667969 696.933594 802.09375 705 798.441406 C 726.613281 788.65625 736.660156 744.761719 723.210938 726 C 715.355469 715.046875 701.484375 710.453125 689 716.054688 C 683.289063 718.617188 676.613281 724.019531 677.257813 731 C 678.261719 742 699.375 752.761719 693.527344 764 C 690 770.359375 679.410156 771.339844 673 770.570313 C 657.71875 768.742188 636 766.074219 626.703125 752 C 621.523438 744.265625 625.304688 735 628 727 C 635.171875 706.03125 648.917969 688.804688 668 677.453125 C 705.921875 655 755.84375 655.707031 798 661.730469 C 816.621094 664.390625 835.90625 668.460938 852 678.695313 C 870.410156 690.402344 883 707.398438 889.996094 728 C 892.847656 736.453125 895.753906 747.546875 888.785156 754.816406 C 877.96875 766.097656 856.199219 771.253906 841 771 C 834.546875 770.710938 824 769 823.320313 761 C 821.972656 747.566406 844.226563 741.566406 840.332031 728 C 833.171875 703.054688 798.832031 714.5625 791.175781 732 C 782.9375 750.761719 793 790.007813 813 798.632813 C 820.605469 802 829.480469 799.117188 837 797 M 647 739 C 660.285156 729.613281 664.246094 712.15625 676 701.300781 C 692.257813 686.484375 718.527344 688 739 687 C 732 681.039063 719.496094 683.039063 711 683 C 700.574219 683 689.902344 681.625 680 686 C 662.636719 693.335938 650.183594 721.140625 647 739 M 778 685 L 778 687 C 799.710938 688 824.457031 685.644531 841.910156 701.4375 C 852.523438 711.042969 857.824219 731.339844 870 738 C 864 718 853.269531 689.203125 831 683.476563 C 813.457031 679 795.617188 685 778 685 M 431 755 C 431 745 434 735.78125 436.335938 726 C 436.984375 723.105469 436.933594 717 440.417969 715.789063 C 444 714.597656 455 719.523438 453.761719 724.105469 C 451 733.046875 438 749.089844 431 755 M 1086 755 C 1079.203125 747.203125 1067.507813 734 1064.285156 724.105469 C 1062.644531 719.101563 1074.773438 714.523438 1078.296875 717.042969 C 1080.984375 719 1081.234375 724.039063 1081.75 727 C 1083.363281 736.269531 1084.816406 745.671875 1086 755 M 471 722 C 468.574219 738.421875 461.460938 754.570313 458.199219 771 C 456.582031 779.15625 457 790.160156 452 797 C 445.765625 788.296875 432.46875 773.320313 432.667969 762 C 432.757813 757 437.269531 752.65625 440.199219 749 C 449 738.007813 458.460938 728.605469 471 722 M 1048 722 C 1058.34375 730.394531 1068.945313 738.769531 1077.5625 749 C 1080.871094 753 1084.9375 757.515625 1084.722656 763 C 1084.261719 774.652344 1070.902344 787.429688 1065 797 L 1064 797 C 1061.765625 779.324219 1058.480469 762.085938 1053.277344 745 C 1051.234375 738.289063 1045 729 1048 722 M 236 725 C 242.304688 755.457031 257.695313 783.632813 273.601563 810 C 279.621094 820 285.972656 833.539063 295 841 C 288 812.121094 268 784.089844 254.484375 758 C 248.910156 747.335938 245.523438 733 236 725 M 1280 725 C 1261.941406 763.632813 1233.855469 799.523438 1222 841 C 1229.277344 836.585938 1234 825.125 1238.574219 818 C 1251.265625 797.730469 1262.171875 777 1271.578125 755 C 1275 747 1283.703125 734 1280 725 M 752 866 C 724.527344 859 693.421875 855 673.667969 880 C 662 894.691406 658.859375 931.8125 636 933 C 644.207031 940.6875 656.699219 929.5 663 923.828125 C 681.660156 907.035156 689.191406 875.355469 716 870.613281 C 724.269531 869.152344 733.597656 869 742 869 C 745.308594 869.007813 749.800781 868.488281 751.398438 872.148438 C 754.316406 879 750.882813 892 750.167969 899 C 747.894531 921.753906 745.921875 944.527344 741.398438 967 C 737.230469 987.722656 728.53125 1007 714.699219 1023 C 704.914063 1034.414063 692.429688 1043.441406 684 1056 C 659.988281 1091.769531 642.285156 1131.449219 616.371094 1166 C 596 1193 577.441406 1212.386719 543 1218.078125 C 521.644531 1221.609375 497.914063 1222.574219 480 1208.480469 C 469.21875 1200.003906 460.519531 1188.214844 452.773438 1177 C 443.195313 1163.132813 452.34375 1151.601563 457.304688 1138 C 465.199219 1116.351563 470 1093 472.84375 1070 C 480.210938 1008.652344 482 948 494.199219 887 C 497.300781 871.492188 501.539063 856.332031 505.371094 841 C 506.992188 834.527344 507.546875 825.550781 511.703125 820.132813 C 515.484375 815.199219 523.511719 815.261719 529 813.300781 C 537.628906 810.222656 545.792969 805.167969 553 799.574219 C 564.660156 790.527344 575.21875 780.019531 586 770 C 589.527344 766.691406 595.667969 759.328125 600.785156 759 C 604.382813 758.570313 613.191406 773.175781 616 776 C 632.972656 793.054688 646.976563 816.125 667 829.640625 C 678.828125 837.625 689.933594 835.449219 703 838.527344 C 709.789063 840.128906 715.171875 845.0625 722 846.761719 C 734.804688 850 747 852.0625 752 866 M 881 933 C 856.191406 930.460938 853.6875 889.03125 838 874.039063 C 815.9375 853 792 864 766 865 C 770 851.46875 784 849.667969 796 846.761719 C 802.804688 845.089844 808.292969 840.390625 815 838.613281 C 828.839844 835 839.550781 837 852 828 C 871.363281 813.691406 885.433594 791.746094 902.910156 775.285156 C 905.984375 772.390625 912.824219 759.492188 916.390625 759.035156 C 921.746094 758.351563 931.433594 769.628906 935 773.039063 C 949.167969 786.585938 963.367188 800.703125 981 809.742188 C 987.476563 813.0625 999.734375 814 1004.488281 819.277344 C 1009 824.390625 1009.738281 834.535156 1011.375 841 C 1015.671875 858 1019.964844 874.820313 1023.398438 892 C 1036.808594 959.054688 1035.652344 1028 1048.804688 1095 C 1051.820313 1110.375 1055.457031 1126.339844 1061 1141 C 1064.171875 1149.121094 1070.253906 1158 1068.671875 1167 C 1066.699219 1178.308594 1054.746094 1190.488281 1047.5625 1199 C 1018.222656 1233.769531 952.1875 1223.4375 923 1193 C 885.9375 1154.261719 864.652344 1104.585938 836.304688 1060 C 824.59375 1041.582031 806 1029.355469 794 1011 C 775.738281 983.089844 772 949.457031 768.832031 917 C 767.601563 904.714844 761.789063 885 765.433594 873.109375 C 766.761719 868.796875 771.269531 869.019531 775 869 C 784.269531 869 794.972656 869.109375 804 871.234375 C 827.953125 877 838.339844 907.761719 855 924 C 860.988281 929.820313 872.90625 940.582031 881 933 M 972 767 L 973 768 L 972 767 M 753 845 C 737.703125 841.367188 722.183594 840.65625 707 837 C 715.625 830.039063 730.71875 826.683594 741 822.140625 C 743.476563 821.046875 749.496094 817 751.972656 819.695313 C 755.71875 823.808594 753 839.546875 753 845 M 811 836 L 811 837 C 802.898438 839.277344 795.214844 838.304688 787 839.285156 C 779.21875 840.214844 772.515625 843.21875 765 845 C 765 840 762.234375 822.609375 766 819.042969 C 768.832031 816.40625 775.421875 821 778 822.246094 C 788.632813 827.546875 799.929688 831.707031 811 836 M 507 1087 L 508 1087 C 507.746094 1056.257813 498 1028.652344 508.695313 998 C 515.648438 978.058594 528.464844 961.585938 541 945 C 556.539063 924.785156 572 904.605469 588.25 885 C 598 873.171875 611.390625 861 618 847 C 610.449219 850.523438 605 858.289063 599 864 C 586.921875 875.160156 574.671875 886.328125 563 898 C 534.984375 926.011719 495.890625 960.277344 487.808594 1001 C 484 1019.46875 487.4375 1039.308594 493.332031 1057 C 496.792969 1067.382813 500.960938 1078 507 1087 M 899 847 C 904.566406 861.683594 919.738281 874 929.574219 886 C 955.328125 917.417969 987.644531 950.792969 1004.691406 988 C 1014 1008.640625 1015.953125 1031.707031 1013.828125 1054 C 1012.792969 1065 1008 1077.234375 1009 1088 C 1017 1079.277344 1021 1065.265625 1024.289063 1054 C 1028.890625 1037.816406 1031.902344 1020.828125 1029.710938 1004 C 1024 960.230469 984.492188 929.699219 956.285156 900 C 939 881.707031 921 859.554688 899 847 M 501 960 C 508 955.65625 510.261719 943.507813 512.65625 936 C 520.476563 911.492188 520.902344 880.601563 522 855 C 511.816406 859.75 507 871.796875 504.292969 882 C 497.414063 906.546875 499 935 501 960 M 995 855 C 1000.542969 882 995.84375 908.53125 1004.667969 935 C 1007.53125 943.59375 1009.570313 954.171875 1017 960 C 1017 934 1020.90625 907.597656 1013.574219 882 C 1010.613281 871.675781 1005.710938 859.152344 995 855 M 962 860.746094 C 953.835938 864 958.6875 877.722656 966.980469 875.164063 C 976 872.375 971 857.1875 962 860.746094 M 625 874.800781 C 616.675781 876.183594 613.457031 894.765625 623.988281 893.714844 C 632.914063 892.820313 634.753906 873.1875 625 874.800781 M 889 875.042969 C 881.570313 879.246094 887.6875 897.558594 896.941406 892.804688 C 905.738281 888.285156 897.910156 870.179688 889 875.042969 M 715 905 C 722.703125 901.378906 732.554688 885.167969 724.683594 877.316406 C 715.65625 868.316406 712 886.199219 712.792969 892 C 713.308594 896.367188 714.4375 900.640625 715 905 M 795 875.746094 C 786.21875 879.171875 791 891.222656 794 897 C 795 899.027344 797.46875 904.59375 800.609375 903.539063 C 803 902.691406 803.390625 898.140625 803.726563 896 C 804.628906 890.238281 806.367188 871.351563 795 875.746094 M 594 921.761719 C 584.804688 923.683594 587 939.089844 596.957031 936.550781 C 605 934.46875 602.632813 920 594 921.761719 M 691 922.761719 C 682 926.015625 681.230469 947.636719 692.957031 943.242188 C 700.964844 940.242188 701 919.125 691 922.761719 M 821 923.070313 C 812.863281 927.242188 818.214844 947.800781 827.945313 943.589844 C 837.660156 939.386719 829.886719 918.65625 821 923.070313 M 882 945 C 884.902344 955 893 962.171875 899.398438 970 C 910.3125 983.640625 920.617188 997.652344 930.566406 1012 C 939.308594 1024.613281 947.300781 1038.039063 953.691406 1052 C 972 1092.246094 983.664063 1158.542969 1040 1161 L 1040 1160 C 1019.578125 1146.488281 1007.386719 1132.148438 994 1112 C 1024 1121.632813 1034.984375 1091.050781 1035 1066 C 1024.535156 1074 1024 1096.785156 1006 1096.628906 C 1000 1096.574219 995.347656 1091.515625 992.222656 1087 C 984.308594 1075.566406 980.308594 1061.238281 973.691406 1049 C 958.277344 1020.503906 938.878906 995 916 972 C 906.324219 962.324219 894.800781 950.382813 882 945 M 482 1066 C 482 1091 492.742188 1121.59375 523 1112 C 515.953125 1124.070313 509.363281 1135.808594 498.910156 1145.421875 C 492.832031 1151.011719 481.609375 1155 477 1161 C 533.503906 1158.535156 545.722656 1091.488281 564.308594 1051 C 570.527344 1037.453125 578.636719 1024.308594 587 1012 C 601.34375 991.007813 627.242188 970.5 635 946 C 625 949.304688 616.921875 959.292969 609 966 C 581 989.269531 560.371094 1019.410156 542.859375 1051 C 536.179688 1063.050781 527.945313 1098 510 1096.691406 C 492.933594 1095.546875 492.597656 1073.769531 482 1066 M 681 961 C 677.949219 996 634 985.800781 623 1015 C 634.777344 1011.609375 644.503906 1004.613281 657 1003 C 654.507813 1011.429688 657.40625 1020.550781 654.386719 1029 C 651.246094 1037.785156 641.960938 1039.570313 636.390625 1046.09375 C 630.851563 1052.582031 629.589844 1062 622.90625 1067.609375 C 613.292969 1075.816406 599.984375 1073 589 1077.480469 C 572.667969 1084.347656 567 1108.132813 570 1124 L 571 1124 C 574.617188 1078.546875 632.214844 1090.601563 654.238281 1061 C 661.699219 1051 665 1038.121094 667.390625 1026 C 668.65625 1019.285156 669.261719 1009 675.214844 1004.492188 C 679.910156 1001 686.753906 1006.035156 692 1006 C 702.746094 1005.523438 714.90625 996.671875 719 987 C 709.96875 990.78125 689 1005.144531 684.433594 988 C 682.242188 980.007813 688.871094 966.492188 681 961 M 834 962 C 834 975.601563 837.753906 1002.738281 815 994.757813 C 809.355469 992.777344 804.460938 989.351563 799 987 C 802.449219 997.144531 816 1006.261719 827 1006 C 831.890625 1005.6875 838.320313 1000.484375 842.605469 1004.359375 C 847.210938 1008.519531 847.953125 1017.292969 849.371094 1023 C 852.769531 1036.648438 855 1050.554688 863.898438 1062 C 884.957031 1089.105469 945 1079.21875 946 1123 L 948 1123 C 948 1110 947.304688 1095.628906 938.621094 1085.015625 C 927.6875 1071.652344 909.84375 1078.339844 897 1069.351563 C 888.628906 1063.492188 887.480469 1054.46875 881.472656 1047.039063 C 874.566406 1038.507813 864.246094 1037.054688 861.667969 1025 C 860.875 1021.28125 858.800781 1006.5 862.601563 1004.210938 C 869.578125 1000.015625 887.390625 1013 894 1015 C 887.664063 993.046875 863.867188 996.125 849 983.480469 C 842.304688 977.671875 841.421875 966.539063 834 962 M 831 1127 C 829 1116.757813 827.214844 1105.421875 827 1095 L 828 1095 C 837.945313 1119 847.363281 1147.640625 832.742188 1172 C 825.742188 1183.664063 814.589844 1190.023438 801 1189 C 796.960938 1188.574219 788.859375 1186.585938 787.753906 1182 C 786.597656 1177.023438 793.847656 1173.03125 796.480469 1170 C 802.503906 1162.777344 805.921875 1153 808 1144 C 803 1148.820313 800.484375 1154.683594 794 1158.003906 C 781.769531 1164.265625 767.167969 1161.464844 754 1162.039063 C 744 1162.472656 735.304688 1164.304688 726 1159.621094 C 717.972656 1155.582031 714.996094 1149 709 1143 C 711.582031 1152.101563 714.191406 1161.558594 720.328125 1169 C 722.917969 1172.140625 730.632813 1177.199219 729.941406 1181.816406 C 729.230469 1186.535156 720.832031 1188.59375 717 1189 C 703.707031 1190 693 1184.011719 685.75 1173 C 669.804688 1149.167969 679 1120 689 1096 L 690 1096 C 688.648438 1106.480469 687 1116.375 687 1127 C 694 1117.054688 697 1106.566406 707 1098.464844 C 733 1077.015625 778.472656 1077.316406 806 1096.09375 C 817.65625 1104.042969 820.867188 1118 831 1127 M 577 1138 C 600.214844 1130.148438 625.921875 1120.613281 626 1092 C 619.773438 1096.078125 616.699219 1105.597656 610.996094 1111 C 600.722656 1120.46875 583.21875 1124.664063 577 1138 M 891 1092 C 894.554688 1120 915.464844 1130.015625 940 1138 C 934.691406 1124.582031 915.886719 1120.421875 906 1111 C 900.359375 1105.417969 897.710938 1096.070313 891 1092 M 661 1169 C 661.242188 1180.703125 667.378906 1191 670 1202 C 674.269531 1219.070313 668.394531 1238 656.816406 1251 C 646.878906 1262.257813 633.605469 1266 619 1266 C 615.90625 1266.003906 607.179688 1267.464844 605.328125 1264.257813 C 603 1260.289063 608.402344 1249.128906 609.578125 1245 C 614.429688 1228 621.636719 1210.558594 624 1193 L 625 1193 L 627 1210 C 639.335938 1196.019531 639.730469 1175.257813 661 1169 M 889 1209 C 891.457031 1203.179688 891 1197.210938 891 1191 C 895.167969 1195.726563 895.632813 1203.023438 897 1209 C 900.226563 1221.398438 903 1234 907.34375 1246 C 908.835938 1250.292969 914.433594 1259.199219 911.882813 1263.683594 C 909.804688 1267.332031 902.46875 1266 899 1266 C 885.683594 1266 871.46875 1263.671875 862.324219 1253 C 845.695313 1233.550781 843.707031 1213.398438 851.328125 1190 C 852.761719 1185.613281 853.472656 1173.199219 858.277344 1171.253906 C 862.222656 1169.660156 867.554688 1175.679688 869.996094 1178.039063 C 878.960938 1186.703125 884.332031 1197.621094 889 1209 M 594 1224 C 590.300781 1243.085938 586 1265 572.699219 1280 C 560.574219 1293.46875 535.785156 1291 525 1277 C 540.4375 1276.679688 553.414063 1271.019531 561 1257 C 563.980469 1251.734375 563.875 1231.753906 572.679688 1233.425781 C 577 1234.25 571.617188 1248.015625 571 1251 L 572 1251 C 577 1240.265625 582.664063 1229 594 1224 M 948 1252 C 946.9375 1249 940 1232 947 1233.492188 C 955.402344 1235.285156 953.324219 1251 956.542969 1257 C 963.652344 1270.597656 977.179688 1277 992 1277 C 980.96875 1290.550781 956.816406 1293.683594 944.617188 1280 C 931.546875 1265.140625 926.875 1242.777344 923 1224 C 937.910156 1227 938.863281 1243 948 1252 M 553 1241 C 549.890625 1253 542.417969 1268.640625 527 1264.210938 C 522.375 1263 507 1252.019531 513 1245.753906 C 514.722656 1244 516.597656 1247 517.410156 1248.0625 C 520.835938 1253.144531 524.972656 1259.199219 532 1258.691406 C 542.207031 1258 544.773438 1245.011719 553 1241 M 965 1241 C 973 1245.175781 974.269531 1257.238281 985 1258.503906 C 991 1259.21875 995.675781 1253.414063 998.691406 1249.019531 C 999.546875 1247.773438 1001.878906 1243.59375 1003.984375 1245.175781 C 1008.675781 1248.703125 999.640625 1259.050781 996.960938 1261 C 981.257813 1271.667969 965.351563 1257.488281 965 1241 "/>
</g>
</svg>
