<?xml version="1.0" encoding="UTF-8"?>
<svg xmlns="http://www.w3.org/2000/svg" xmlns:xlink="http://www.w3.org/1999/xlink" width="1500pt" height="1500pt" viewBox="0 0 1500 1500" version="1.1">
<g id="surface1">
<path style=" stroke:none;fill-rule:nonzero;fill:rgb(0%,0%,0%);fill-opacity:1;" d="M 459 739 L 459 741 C 487.863281 741 512.527344 739.453125 539 752.257813 C 542.191406 753.800781 562.367188 761.628906 560.792969 765.535156 C 559.558594 768.59375 551.789063 769.699219 549 770.691406 C 540.605469 773.683594 527.925781 777.207031 522 784 C 534.664063 780.40625 553.890625 766.535156 567 768.488281 C 576.722656 770 587 789.15625 581.382813 798 C 573.40625 810.347656 553.742188 811.542969 547 826 C 556 821.707031 563.707031 814.554688 572 809 C 574.449219 807.359375 579.328125 802.78125 582.566406 804.253906 C 585.34375 805.511719 585.183594 810.484375 585.589844 813 C 586.878906 821.015625 588 829.035156 589.601563 837 C 594.613281 862.074219 599.917969 887.175781 609.449219 911 C 613.492188 921.109375 624.992188 935.027344 623.8125 946 C 622.863281 954.8125 618 963.660156 615.332031 972 C 602.621094 1009.628906 579.996094 1039.414063 561.78125 1074 C 553.980469 1088.8125 550.671875 1105.382813 544.945313 1121 C 537 1142.5 526.371094 1163 513.667969 1182 C 499.773438 1202.804688 482.625 1221.035156 467.628906 1241 C 459.445313 1252 450.296875 1262.746094 450 1277 L 451 1277 C 458.578125 1257.234375 471.960938 1245.34375 487 1231 C 511.484375 1207.546875 545.777344 1174.363281 551 1139 L 552 1139 C 552 1173.628906 548.734375 1206.269531 541 1240 C 545.46875 1237.070313 547.175781 1231 548.945313 1226 C 554 1212.03125 554.78125 1197.59375 556.171875 1183 C 559.34375 1149.683594 556.613281 1117.171875 571.484375 1086 C 580.753906 1066.578125 594.464844 1049.613281 605 1031 C 609.996094 1022.554688 616 1013 617 1003 L 618 1003 C 617.96875 1014.058594 615.285156 1025 615 1036 C 613.816406 1085 618.644531 1131.191406 642 1175 L 643 1175 C 641.523438 1160.25 630.429688 1147.777344 628.300781 1133 C 626 1117.140625 641.78125 1096.128906 652 1085 C 653.453125 1096.25 656.71875 1107.433594 660.8125 1118 C 662.921875 1123.449219 667.730469 1130 667.308594 1136 C 666.691406 1144.777344 656.535156 1154.753906 653 1163 C 650.394531 1169.082031 647.746094 1175.097656 644.753906 1181 C 643.980469 1182.523438 642.460938 1187 640.285156 1187 C 638.480469 1187 637.34375 1183.234375 636.679688 1182 C 633.660156 1176.375 630.464844 1171 628 1165 C 618.554688 1142.207031 613 1110.550781 615 1086 C 608.277344 1091.117188 612.777344 1107.769531 613.71875 1115 C 615.984375 1132.390625 618.1875 1149.480469 624.425781 1166 C 627.984375 1175.425781 637 1185 638 1195 C 638.535156 1201.0625 634.96875 1207.1875 633.664063 1213 C 631.265625 1223.714844 630 1235.035156 630 1246 L 632 1246 C 632 1234.046875 634 1221.554688 637 1210 C 637.613281 1208.257813 639 1199.027344 641.953125 1200.207031 C 653.253906 1205 655.546875 1224.222656 669 1228 C 661.808594 1217.128906 646 1207.386719 643.574219 1194 C 642.460938 1188.117188 646.738281 1182.019531 649.246094 1177 C 655.554688 1164.386719 664.429688 1153 670 1140 C 672.378906 1144.457031 673.539063 1150.300781 678 1153 C 676.453125 1147.628906 671.691406 1141.675781 674.316406 1136 C 678.714844 1126.496094 696.210938 1115.496094 696 1134 C 695.964844 1140 689.894531 1146.367188 688 1152 C 692.503906 1149.410156 694.453125 1138.636719 699.648438 1138.199219 C 703.667969 1138 709.980469 1146.234375 713 1148.589844 C 718 1152.574219 729 1156.332031 732 1162.066406 C 733.949219 1165.5625 731.6875 1170.402344 731 1174 C 729.503906 1183.226563 729 1192.648438 729 1202 L 731 1202 C 731 1192.640625 732 1183.195313 733.804688 1174 C 734.386719 1171 734.558594 1166 737.433594 1164.042969 C 740.585938 1162 745.710938 1164.539063 749 1165.191406 C 757.207031 1166.820313 766.628906 1167 775 1167 C 765 1184 754.445313 1200.242188 742.628906 1216 C 727.5625 1236.085938 710 1257.621094 710 1284 L 712 1284 C 712.25 1254 737.28125 1231.484375 753.847656 1209 C 761.433594 1198.699219 767.390625 1185.535156 777 1177 C 778.652344 1186.265625 789.34375 1194.078125 789.566406 1203 C 789.71875 1209.164063 784 1215.828125 781.308594 1221 C 772.96875 1236.414063 760.753906 1251 754 1267 C 768.585938 1258.648438 778 1237.492188 785.246094 1223 C 786.90625 1219.679688 790.523438 1207.003906 795.4375 1207.78125 C 799.195313 1208.378906 802.496094 1214.433594 805 1217 C 812.609375 1224.28125 822 1234.148438 832 1238 C 825.9375 1227.511719 814.484375 1220.484375 806 1212 C 802.726563 1208.726563 797.609375 1205 797.242188 1200 C 796.859375 1194.792969 801.242188 1184.324219 807 1183.605469 C 813 1183 820 1187.019531 826 1188.335938 C 836.75 1190.742188 848 1191.128906 859 1191 C 868.894531 1191 879.359375 1189.332031 889 1187.113281 C 893.429688 1186.09375 899.421875 1183 903.957031 1183.503906 C 909 1184.210938 911.507813 1192.667969 912.300781 1197 C 913.421875 1203.144531 907.929688 1207.109375 904 1211 C 894.804688 1220.085938 881.195313 1227.730469 876 1240 C 886.789063 1235.058594 896.242188 1223.753906 905 1215.828125 C 907.378906 1213.679688 911.867188 1207.238281 915.53125 1207.769531 C 920.59375 1208.507813 923.820313 1221.078125 925.757813 1225 C 931.808594 1237.28125 942.878906 1263.027344 957 1267 C 950.671875 1255.59375 942.71875 1245.171875 936 1234 C 931.230469 1226.0625 919.539063 1211.648438 920.332031 1202 C 920.679688 1197.78125 924.398438 1194.347656 926.640625 1191 C 927.933594 1189.070313 932.347656 1178.164063 934.976563 1179.207031 C 942.324219 1182.121094 949.59375 1199.625 954 1206 C 971.496094 1230.320313 997.910156 1254 998 1286 L 1000 1286 C 999.996094 1250.464844 972.253906 1224.570313 953.671875 1197 C 948.578125 1189.445313 938.242188 1178.253906 936.542969 1169.226563 C 935.878906 1165.699219 940.761719 1166.035156 943 1166.003906 C 950 1166 965.871094 1160.535156 971.773438 1163.351563 C 978.960938 1166.785156 978.941406 1189.09375 979 1196 L 981 1196 C 981 1188.398438 980.675781 1180.472656 979.191406 1173 C 978.488281 1169.460938 976 1164.675781 978 1161.214844 C 981 1155.648438 991.929688 1152.367188 997 1148.496094 C 1000.429688 1146 1006.300781 1137.636719 1010.964844 1138.175781 C 1016.324219 1138.796875 1018.40625 1147.480469 1023 1150 C 1020.71875 1144.710938 1013.789063 1138.023438 1014.839844 1132 C 1017.828125 1115 1035.542969 1128.476563 1036.730469 1139 C 1037.375 1144.699219 1032.789063 1150.746094 1031 1156 C 1034.417969 1154 1036.695313 1144 1040.960938 1144.632813 C 1044.746094 1145.21875 1047.511719 1152.132813 1049.320313 1155 C 1055.332031 1164.546875 1067.328125 1180.027344 1066.304688 1192 C 1065.910156 1196.644531 1061.738281 1200.648438 1058.867188 1204 C 1052.539063 1211.398438 1046.960938 1220.304688 1040 1227 L 1040 1228 C 1052 1224.101563 1060.988281 1206.261719 1069 1197 C 1071.699219 1215.28125 1077.949219 1232.132813 1078 1251 L 1080 1251 C 1079.992188 1238.476563 1078.640625 1225.214844 1075.765625 1213 C 1074.390625 1207.171875 1070 1200.089844 1071.6875 1194 C 1074 1185 1081.492188 1176 1085 1167 C 1094.472656 1144.355469 1104.175781 1107.277344 1097 1083 L 1096 1083 C 1096.757813 1098.609375 1091.238281 1115.328125 1090 1131 L 1089 1131 C 1088.195313 1112.28125 1092.625 1093.769531 1093.910156 1075 C 1095.519531 1051.535156 1093.195313 1028.421875 1093 1005 L 1094 1005 C 1102.449219 1034.554688 1126 1056.574219 1138.691406 1084 C 1151.941406 1113 1151.878906 1145.019531 1154.828125 1176 C 1156.371094 1192.1875 1157.566406 1208.148438 1161.628906 1224 C 1163 1229.355469 1164.257813 1237.753906 1169 1241 C 1162.484375 1207.410156 1158 1174.246094 1158 1140 L 1159 1140 C 1160.488281 1148.359375 1165.929688 1156.476563 1169.757813 1164 C 1181.699219 1187.496094 1199.476563 1210.164063 1219 1227.828125 C 1233.660156 1241.097656 1255.890625 1256 1259 1277 L 1261 1277 C 1260.347656 1262.699219 1249.707031 1250.675781 1241.199219 1240 C 1225.640625 1220.476563 1208.910156 1201.773438 1195 1181 C 1182 1161.730469 1171.945313 1140.789063 1164 1119 C 1158.753906 1104.359375 1155.644531 1089.03125 1148.628906 1075 C 1141.238281 1060.214844 1130.703125 1047.257813 1122.425781 1033 C 1110.871094 1013.105469 1101.632813 991.8125 1094.332031 970 C 1091.554688 961.691406 1087.316406 952.746094 1086.316406 944 C 1085 933.53125 1096.917969 918.789063 1100.796875 909 C 1109.976563 885.824219 1115.851563 861.558594 1119.921875 837 C 1121.242188 829.019531 1122.855469 821.03125 1123.84375 813 C 1124.171875 810.367188 1124 805.464844 1127.277344 804.445313 C 1130.644531 803.375 1135.484375 808 1138 809.71875 C 1146.546875 815.691406 1154.863281 822 1164 827 C 1156.363281 812.695313 1135.820313 810.578125 1127.78125 798 C 1125 793.707031 1127.921875 787.613281 1127.980469 783 C 1128 778.832031 1124.269531 770.050781 1127 766.617188 C 1129.761719 763.226563 1138.675781 767.507813 1142 768.371094 C 1157 772.304688 1170.984375 779.738281 1186 784 C 1173 769 1145.367188 765.410156 1127 762 L 1127 761 C 1135.6875 758.496094 1143 753.070313 1152 751 C 1167.773438 747.046875 1185 749.003906 1201 751 L 1201 750 C 1176.484375 739.613281 1144.855469 747.242188 1123 760 C 1123 738 1125 716.015625 1125 694 C 1125 682.65625 1122.929688 667.386719 1128.441406 657.003906 C 1132.886719 648.632813 1143.527344 646.261719 1149.238281 639 C 1156.503906 629.671875 1160 618.101563 1167.617188 609.015625 C 1175.300781 599.792969 1185.984375 593.515625 1193.480469 584 C 1201.738281 573.523438 1204.671875 561.335938 1210.90625 550 C 1214.945313 542.65625 1221 537.265625 1223.558594 529 C 1236.792969 485 1215.90625 444.699219 1209.296875 402 C 1206.949219 387 1210.632813 371.347656 1209.960938 356 C 1208.789063 329.285156 1205.828125 302.515625 1202 276 C 1196 232.726563 1180.367188 190 1155.28125 154 C 1146 141 1131.972656 119.734375 1113 126.105469 C 1089.320313 134.054688 1070.765625 164.261719 1057.667969 184 C 1018.550781 243 991 313 966.425781 379 C 962.296875 390.078125 959.304688 402.21875 958.171875 414 C 956.902344 427.160156 961.296875 436.386719 949.90625 447 C 945.199219 451.175781 938.804688 450.171875 933 451.527344 C 926 453.132813 920.238281 457.664063 913 458 C 906 458.066406 899.863281 454.195313 893 454.054688 C 886 454 879.789063 457.101563 873 457.824219 C 866.816406 458.488281 861 456.320313 855 456.339844 C 850.285156 456.355469 845.734375 458.1875 841 458.285156 C 832.753906 458.453125 825.246094 454 817 454.054688 C 809.894531 454.199219 803 458.316406 796 457.777344 C 790.6875 457.371094 786 454.289063 781 453 C 766.691406 449.070313 757.4375 450.820313 750.414063 435 C 747.636719 428.742188 750.542969 421.609375 750 415 C 749.378906 403.152344 746.398438 391.238281 742.667969 380 C 732.1875 348.449219 718.285156 318.363281 704.859375 288 C 690.449219 255.40625 676.203125 222.320313 657.316406 192 C 644.484375 171.402344 630.171875 151 611 135.664063 C 599.933594 127 587.765625 121.082031 575 130.171875 C 556.863281 143.085938 546.441406 164.628906 536.753906 184 C 510.53125 236.445313 503 291.320313 499 349 C 497.84375 367.179688 502.730469 387.25 499.535156 405 C 492.488281 444.160156 465.777344 494.773438 487.875 534 C 496.726563 549.710938 504.363281 567.210938 514.722656 582 C 522.265625 592.769531 533.449219 599.046875 541.671875 609 C 548.382813 617.121094 551.960938 627.417969 558 636 C 564 644.554688 576.261719 647.507813 580.648438 657.003906 C 587 671 583 688.15625 584 703 C 584.992188 716.175781 585.710938 730 587.425781 743 C 587.949219 747.007813 589.410156 756.351563 585.410156 759.171875 C 582.921875 761 579 758 577 756.78125 C 569.316406 752.753906 561.339844 749.53125 553 747.140625 C 535.789063 742.207031 517.960938 737.824219 500 737.039063 C 486.304688 736.441406 472.675781 739 459 739 M 624 294 C 632.761719 308.007813 646.453125 318.222656 655.644531 332 C 669.898438 353.367188 677.882813 380.445313 672 406 C 668.945313 420.027344 662.246094 432.070313 656.308594 445 C 653 452.195313 649.648438 459.503906 647 467 C 645.992188 470.164063 645.761719 475 643.273438 477.398438 C 639.300781 481.289063 631 477 626 478.261719 C 618.675781 480.285156 614.585938 486.496094 609 491 C 602.820313 445.140625 561.574219 409.816406 548 366 C 532 314.183594 549.484375 263.285156 556 212 L 555 212 C 540.785156 265.699219 524.753906 326.058594 546.605469 380 C 561.246094 416.148438 590.410156 446.40625 599 485 C 601 493.585938 597.988281 501.476563 598.359375 510 C 598.878906 522 610.789063 523.296875 603.726563 537 C 598 547.808594 589.703125 541.550781 585.425781 533 C 581.230469 524.609375 582.757813 514.625 579.234375 506 C 576.390625 499.03125 569.894531 494.429688 566 488 C 561.34375 480 558.96875 470.382813 554.753906 462 C 545.492188 443.597656 532.464844 426.328125 527.652344 406 C 525 395.40625 526.433594 384.765625 525.960938 374 C 525 355.722656 521.832031 337.359375 523 319 C 524.640625 296.367188 530.8125 273.648438 531 251 L 530 251 C 527.382813 271.277344 522.488281 291.5625 521 312 C 520 326.699219 521.929688 341.375 522 356 C 522 375.199219 521.355469 395.738281 528 414 C 533.75 429.539063 543.910156 443 550.6875 458 C 555 467.628906 555.539063 478.160156 559 488 C 561.765625 495.414063 568.234375 500 571.441406 507 C 574.742188 514.214844 573.460938 522.507813 575.773438 530 C 577.476563 535.519531 580.808594 540.792969 585 544.675781 C 587.949219 547.269531 592.800781 549.460938 592.457031 554.003906 C 591.90625 561.316406 575.757813 577.136719 569 579.164063 C 560.628906 581.675781 556.820313 574.601563 550 584 C 552.949219 582.695313 561.410156 578.644531 563.863281 582.601563 C 566.523438 587 554.441406 603.300781 551 606 C 547.671875 595.582031 537.460938 591.121094 530.171875 583.828125 C 519.796875 573.453125 512.167969 559.242188 508.886719 545 C 505.664063 531 505.777344 513.671875 515.519531 502.089844 C 523.738281 492.3125 539.816406 485.742188 539.820313 471 C 539.824219 460.597656 532.515625 450.527344 527.398438 442 C 520.828125 431.042969 515.449219 419.570313 512.804688 407 C 508.5625 387 510 366.375 510.960938 346 C 512.261719 316.332031 514.964844 287.09375 521.425781 258 C 528.894531 224.363281 541.890625 190.394531 561.585938 162 C 567.671875 153.226563 577.1875 135 590 136.253906 C 596.765625 137 603.183594 143 608 147.171875 C 658 192.308594 681.328125 263.148438 708.304688 323 C 721.246094 351.707031 738.550781 382.820313 739.960938 415 C 741 441 719.332031 447 703 462.285156 C 692.457031 472.304688 684.757813 486.066406 678.246094 499 C 675.765625 504 666.230469 528.011719 657.703125 523 C 651.457031 519.101563 651.605469 498.238281 652.425781 492 C 656.371094 462 675 437.535156 680.386719 408 C 688.574219 361.753906 654 324.15625 624 294 M 1156 604 C 1152.613281 598.054688 1135.3125 576.699219 1153.996094 582.039063 C 1156 582.617188 1158 583.351563 1160 584 C 1152.207031 575 1149 581.527344 1140 579.203125 C 1132.996094 577.410156 1117.457031 560.390625 1116.972656 553.042969 C 1116.742188 549.597656 1120.792969 547.714844 1123 545.789063 C 1127.671875 541.71875 1131.382813 537 1133.226563 531 C 1135.4375 524 1134.621094 516.085938 1137 509 C 1139.554688 502.035156 1145.746094 497.570313 1148.8125 491 C 1153.945313 480 1154.878906 467.289063 1159.453125 456 C 1164.984375 442.347656 1174.191406 430.488281 1180 417 C 1187.933594 399.316406 1186.554688 380 1187 361 C 1187.855469 326.605469 1189.476563 290.730469 1180 257 L 1179 257 C 1183.480469 292.445313 1185.597656 325.375 1184 361 C 1183.398438 375.617188 1185.703125 390.671875 1182 405 C 1177.316406 424.058594 1165.933594 441 1156.691406 458 C 1151.3125 468 1148.386719 479.339844 1142.648438 489 C 1139 495.085938 1132.949219 499.398438 1130 506 C 1126.53125 514.304688 1127.84375 523.738281 1124 532 C 1120 541 1111.828125 548.105469 1105.890625 537 C 1098.839844 523.808594 1110.347656 521.8125 1110.800781 510 C 1111 501.5 1107.851563 493.550781 1109.898438 485 C 1118.960938 447.132813 1147.964844 417.632813 1162.394531 382 C 1184.378906 327.726563 1168.355469 267.199219 1155 213 L 1154 213 C 1154.316406 228.351563 1160.222656 243.820313 1162.574219 259 C 1168.171875 295.089844 1170.753906 333.472656 1160.574219 369 C 1153.441406 394 1137.679688 415.066406 1124.605469 437 C 1117.378906 449.121094 1110.425781 462 1105 475 C 1103.925781 477.613281 1102 487.597656 1099.410156 488.539063 C 1095.699219 489.816406 1088.476563 481.003906 1085 479.417969 C 1079 476.75 1072.699219 481 1067.277344 478.394531 C 1063.980469 477 1063.882813 472.027344 1062.960938 469 C 1060.65625 461.425781 1057.28125 454.066406 1053.753906 447 C 1047.320313 434.128906 1040.640625 421.203125 1037.664063 407 C 1031.722656 378.628906 1041.4375 350.144531 1057.722656 327 C 1068.59375 311.546875 1084.53125 299.398438 1094 283 C 1086.890625 289 1081.371094 297.289063 1074.960938 304 C 1048.285156 332 1021.613281 368.027344 1029.261719 409 C 1034.652344 438 1053.558594 461.566406 1057.425781 491 C 1058.292969 497.621094 1058.484375 517.585938 1052.296875 522 C 1044.890625 527.1875 1036 509.613281 1033.753906 505 C 1025.210938 488 1016.523438 471 1002 458.183594 C 990 447.683594 972.484375 442.519531 969 425 C 964.210938 399.734375 979.398438 373.40625 989 351 C 1012 297.015625 1032.910156 241.136719 1065.667969 192 C 1075.710938 177 1086 162 1099 149.015625 C 1104 144 1110.65625 137.464844 1118 136.34375 C 1130.472656 134.441406 1139.546875 150.480469 1145.574219 159 C 1164.933594 186.363281 1178 218.585938 1186 251 C 1192.730469 277.507813 1195.21875 305 1197 332 C 1198.832031 357.28125 1201 383 1195.996094 408 C 1191.578125 429.625 1171 448.296875 1170 470 C 1169.25 488.097656 1191.425781 494.515625 1198 509 C 1214.171875 544 1184 585.433594 1156 604 M 538 224 C 543.257813 220.816406 544.476563 212.335938 547.175781 207 C 554.628906 192.253906 562 178 572.449219 165 C 576.816406 159.542969 582.390625 152.523438 590 152.144531 C 597.4375 151.777344 604 158 608.828125 163.003906 C 619.390625 174.554688 628.78125 187.277344 637.859375 200 C 665.578125 239 678.980469 280.011719 695.425781 324 C 704.492188 348.257813 716.488281 373.425781 713.828125 400 C 710.929688 429 685.449219 447.035156 676 473 C 684.640625 467 689.578125 456.671875 695.332031 448 C 703.34375 436 712 423.15625 715.839844 409 C 724.53125 377 707 345.382813 696.691406 316 C 684.722656 282.363281 671.9375 249.542969 653.1875 219 C 641.769531 200.394531 628.902344 182.75 614.921875 166 C 608.925781 158.816406 601 150 591 149.226563 C 581.78125 148.539063 574.753906 157.640625 569.613281 164 C 555.335938 181.65625 545 202.457031 538 224 M 1032 470 C 1022.523438 444 996.335938 424.304688 995 395 C 993.9375 370.054688 1005.566406 347 1013.945313 324 C 1022 301.644531 1028.347656 278.695313 1038.308594 257 C 1047.359375 237.285156 1059.316406 219 1071.332031 201 C 1080 187.789063 1089.894531 174.378906 1101 163 C 1105.90625 158 1111.445313 152.082031 1119 152.085938 C 1139.722656 152.09375 1145.21875 184.128906 1158 195 C 1152.523438 180.640625 1134.539063 144.269531 1115 149.789063 C 1106.492188 152.191406 1099.460938 159.527344 1093.871094 166 C 1081.59375 180.214844 1071.402344 196.398438 1061 212 C 1037.308594 247.539063 1024.492188 284.328125 1009.945313 324 C 1002 345.328125 991 366.714844 991 390 C 991 413.164063 1003.875 433 1016.859375 451 C 1021.269531 457.15625 1025.515625 466 1032 470 M 1158 196 L 1159 197 L 1158 196 M 1159 199 C 1159.683594 200.578125 1159.804688 200.777344 1161 202 L 1161 199 L 1159 199 M 1162 205 L 1163 206 L 1162 205 M 1164 208 L 1165 209 L 1164 208 M 1166 213 L 1167 214 L 1166 213 M 538 225 L 537 229 L 538 229 C 538.308594 227.242188 538.40625 226.660156 538 225 M 536.667969 230.332031 C 536.222656 230.777344 537.277344 230.722656 537.332031 230.667969 C 537.777344 230.222656 536.722656 230.277344 536.667969 230.332031 M 1172 232 C 1173.3125 231.230469 1173.230469 231.3125 1174 230 C 1172.363281 230.546875 1172.546875 230.363281 1172 232 M 535 232 C 534 235.019531 533.277344 238 533 241 L 535 241 C 535.308594 237.777344 536.496094 235 535 232 M 564 235 C 571.609375 251 596.625 255 610 264.761719 C 617.683594 270.4375 624 279.519531 633 283 C 622.675781 266.492188 604.460938 257 588 247.574219 C 580.382813 243.273438 572.335938 237.636719 564 235 M 1079 282 C 1088.554688 276.023438 1095.355469 266.796875 1105 260.8125 C 1117.644531 253 1138 248.3125 1146 235 C 1139.476563 236.679688 1133.890625 241.558594 1128 244.769531 C 1111.953125 253.515625 1086 263.734375 1079 282 M 1175.332031 238.667969 C 1175.277344 238.722656 1175.222656 239.777344 1175.667969 239.332031 C 1175.722656 239.277344 1175.777344 238.222656 1175.332031 238.667969 M 532 242 C 531.4375 245.023438 531 248 531 251 L 533 251 L 534 242 L 532 242 M 1177 250 C 1177.683594 251.578125 1177.804688 251.777344 1179 253 L 1179 250 L 1177 250 M 1178 256 C 1179.3125 255.230469 1179.230469 255.3125 1180 254 C 1178.363281 254.546875 1178.546875 254.363281 1178 256 M 614 282 C 616 287.21875 618.871094 291.558594 624 294 C 621.867188 289 618.441406 285.152344 614 282 M 1076 283 L 1074 288 C 1076.421875 286.617188 1077 285.636719 1078 283 L 1076 283 M 633 284 C 633.898438 286.125 633.875 286.101563 636 287 C 634.898438 285.542969 634.457031 285.101563 633 284 M 641 295 C 651 311.199219 666.828125 323.121094 677.480469 339 C 695 365.132813 700 397.269531 688.933594 427 C 683.21875 442.199219 673.382813 455.769531 668 471 C 675.394531 464.300781 679.910156 452.8125 684.242188 444 C 705.710938 400.332031 698.210938 358 667.566406 321 C 659.824219 311.695313 652 300.503906 641 295 M 1040 467 C 1036 453.6875 1027.320313 441.789063 1022 429 C 1010.742188 402 1012.304688 375 1026.308594 349 C 1033 336.613281 1042 325.535156 1051.285156 315 C 1056 309.492188 1062.585938 305.160156 1065 298 C 1054.839844 302.832031 1046 315.308594 1039.210938 324 C 1012.550781 357.804688 1004 392.527344 1020.601563 433 C 1024.503906 442.550781 1030.808594 461.789063 1040 467 M 543 321 C 548 345.40625 554.21875 393.621094 584 400.472656 C 612.621094 407.050781 639.796875 387 669 393 C 664.53125 384 650.648438 385.089844 642 386.4375 C 622.210938 389.53125 596.988281 402.71875 578 390.449219 C 562.402344 380.375 557 359.550781 551.667969 343 C 549.472656 336.390625 549 325.050781 543 321 M 1163 323 C 1160.941406 348.222656 1142.871094 396.65625 1112 395 C 1094.355469 394 1077.742188 386.085938 1060 386 C 1052.320313 386 1044.386719 385.734375 1039 392 C 1046.898438 392 1054 391.191406 1062 392.4375 C 1087.6875 396.480469 1123.640625 412.097656 1143.480469 387 C 1150.175781 378.535156 1153.570313 368.070313 1157 358 C 1160 349 1169.761719 332 1163 323 M 507 419 C 510 430 515.875 440.335938 521.601563 450 C 525.570313 456.695313 531 464.785156 529.667969 473 C 527.75 484.492188 515.316406 489.253906 508.183594 497.039063 C 499.566406 506.453125 498 518.820313 498 531 L 497 531 C 487.429688 502.667969 491.953125 475.480469 498.871094 447 C 501 438.097656 501 426.328125 507 419 M 1203 420 C 1214.417969 456.101563 1220.480469 495.011719 1212 532 L 1211 532 C 1211.566406 520.085938 1209.890625 507.367188 1201.789063 498.003906 C 1195.488281 490.71875 1185 486.234375 1181.226563 477 C 1175 462.464844 1189.675781 448 1195.628906 436 C 1198.246094 430.765625 1199.300781 424.582031 1203 420 M 699 497 C 713 488 730 484.21875 744 475 C 749.992188 471 753.589844 461.550781 761 460.230469 C 767.707031 459.035156 787.84375 462.785156 790.355469 470.054688 C 792.566406 476.445313 785.34375 484.488281 781.789063 489 C 769.636719 504.433594 752.6875 515.179688 738 528 C 755.503906 520.675781 773.402344 506.429688 785.5625 492 C 790.519531 486.113281 794.640625 470.613281 801 467.703125 C 814.359375 461.652344 822.515625 464.660156 814.6875 479 C 808.699219 490 798.195313 503.191406 787 509 L 787 510 C 798.480469 506.34375 810 495 816.449219 485 C 819.25 480.65625 820.589844 469.71875 826 468.332031 C 839.738281 465 834.679688 481.46875 832.71875 488 C 826.308594 509.367188 815.65625 523.0625 802 540 C 820 530.65625 830.996094 510.367188 837.773438 492 C 840 485.804688 840 477.574219 843.84375 472.109375 C 847.265625 467.203125 856.726563 466.65625 861.980469 468.742188 C 870.300781 472.046875 870.535156 487.65625 873.449219 495 C 880 512 890.183594 530.324219 907 539 C 893.347656 523.21875 883 508.425781 877 488 C 875.433594 482.066406 870 465.269531 882.945313 468.332031 C 888.996094 469.765625 890 480.414063 893 485 C 899.953125 495.441406 911.890625 507.140625 924 511 L 924 510 C 911.527344 504.066406 901.519531 490.800781 894.875 479 C 887.488281 466 895.695313 462 907.957031 467.804688 C 914.945313 471.167969 919 486.65625 924.4375 493 C 937 508 958.199219 525.765625 977 532 L 977 531 C 958 522 936.386719 502.058594 924.441406 485 C 912.535156 468 929 458.78125 946 460.0625 C 953.246094 460.609375 957.945313 470.402344 964 474.183594 C 978 483.035156 994.605469 489.589844 1010 496 C 1004.355469 490.355469 998.960938 484 992 480 C 983 474.707031 972.53125 472.328125 965 465 C 960.71875 460.601563 956.714844 450.191406 963.226563 445.648438 C 969.175781 441.5 979.480469 453.761719 984 456.769531 C 1006.871094 472 1015.253906 495 1029.695313 517 C 1033 522.144531 1037.484375 527.730469 1043 530.695313 C 1046.261719 532.449219 1050.710938 532.195313 1053 535.304688 C 1055.984375 539 1056 544.796875 1057.875 549 C 1061.425781 557.433594 1066.632813 565.441406 1071.746094 573 C 1085.609375 593.5 1106.964844 610.625 1114.277344 635 C 1120 654.363281 1115 675.367188 1113.171875 695 C 1111 717 1111.820313 738.121094 1112 760 C 1103.71875 755 1104 740.742188 1104 732 C 1103.789063 714.058594 1106 697.742188 1101.625 680 C 1100 673.675781 1098.886719 666.605469 1094 662 C 1104.703125 688.265625 1096.738281 716 1100.289063 743 C 1100.957031 748.101563 1102.222656 754 1105.417969 758 C 1107.816406 761.097656 1113 763.765625 1113.535156 768.015625 C 1114 774 1106.503906 777.425781 1102 779 L 1102 780 C 1107 781.375 1113.386719 772.59375 1115.914063 774.753906 C 1119.507813 777.824219 1118.671875 789.085938 1115.859375 792.398438 C 1114.898438 793.527344 1110.226563 794.140625 1110.628906 796 C 1111 797.824219 1114 798.171875 1114.667969 800.300781 C 1115.757813 804.113281 1113.558594 809.21875 1112.921875 813 C 1111.347656 822.320313 1109.976563 831.675781 1108.414063 841 C 1103.761719 868.738281 1096.703125 897 1083.742188 922 C 1075.476563 938.019531 1064 952.109375 1054 967 L 1053 967 C 1055.238281 956.1875 1060.398438 946.488281 1063.652344 936 C 1066.476563 927 1065.574219 917.066406 1068.519531 908 C 1075.769531 885.675781 1086.445313 865.253906 1091.574219 842 C 1098.191406 812.007813 1096 780.511719 1096 750 C 1096 718.558594 1095 687.371094 1079.691406 659 C 1066.683594 635 1044.75 620.605469 1025 602.828125 C 1009.316406 588.714844 997.300781 562.269531 976 556 C 980.460938 559.664063 985.820313 562 989.910156 566.042969 C 1001.390625 577.679688 1010 591.582031 1022 603 C 1043 623.113281 1066.691406 640.042969 1079.742188 667 C 1091.75 691.804688 1092 720.035156 1092 747 C 1092 774 1093.402344 800.238281 1088.574219 827 C 1084.238281 851.054688 1074.535156 874 1067 897 L 1066 897 C 1064.21875 875.207031 1051.515625 855.558594 1054.285156 833 C 1057.222656 809.105469 1070.386719 789.253906 1078.308594 767 C 1084.796875 748.761719 1086 730.15625 1086 711 L 1085 711 C 1080.722656 729 1080.683594 746.296875 1073.601563 764 C 1065.734375 783.660156 1050.679688 803.332031 1049 825 C 1046.683594 858 1065 888.257813 1060.710938 922 C 1058.65625 937.820313 1050.496094 952.105469 1045.34375 967 C 1038.351563 987.214844 1035 1011.8125 1039 1033 C 1026.300781 1030.8125 1013.359375 1020.777344 1010.238281 1008 C 1008 999.117188 1009.527344 990.019531 1008.910156 981 C 1007.441406 959.570313 1006.945313 937.59375 999.996094 917 C 989.976563 887.304688 963 863.800781 963 831 L 961 831 C 961 859.226563 980.863281 881 990.796875 906 C 1001.238281 932.355469 1002 961.058594 1002 989 L 1001 989 C 996.195313 972.324219 984 957.359375 969 949 C 973.472656 954.039063 979.253906 957.628906 983.480469 963 C 996.695313 979.789063 1009.976563 1010.46875 1010.757813 1032 C 1010.882813 1035.441406 1008.242188 1037.757813 1008 1041 C 1007.730469 1045.007813 1011 1048.65625 1010.957031 1053 C 1010.769531 1059.828125 1006.757813 1065.40625 1005.847656 1072 C 1005.445313 1075 1003.707031 1080 1003.996094 1082.6875 C 1004.21875 1084.792969 1006.90625 1085.042969 1007.960938 1086.585938 C 1009.980469 1089.539063 1007.726563 1097.03125 1005.722656 1099.640625 C 1000.953125 1106 986.582031 1090.003906 980.972656 1098.144531 C 979.726563 1100 981.183594 1101.808594 983 1102.023438 C 988.878906 1102.65625 992 1098.5625 997.847656 1103 C 1006.933594 1110 989.546875 1117.511719 984 1118 C 988.996094 1122.484375 994.539063 1125.234375 1001 1127 C 998.792969 1124.746094 996.808594 1122.574219 995 1120 C 997.785156 1118 1000.59375 1113.550781 1004 1112.753906 C 1013 1110.644531 1005 1124 1003.332031 1126 C 996.9375 1134.132813 987.761719 1142.714844 978 1146.632813 C 964.945313 1152 965 1118.34375 949.296875 1133.617188 C 948.359375 1134.527344 947 1136.71875 949.296875 1137.085938 C 952.824219 1137.691406 955.257813 1133.117188 958.996094 1133.832031 C 964.542969 1135 972.816406 1148.457031 965.851563 1152.003906 C 959.542969 1155.21875 948.960938 1155 942 1155 C 922.871094 1155.089844 904.695313 1152.648438 886 1148.660156 C 879.339844 1147.238281 863.335938 1146.648438 862 1138 C 861.726563 1134.757813 862.683594 1131.207031 863 1128 C 865.9375 1102.644531 883.703125 1107.175781 902 1098.675781 C 913 1093.523438 922 1084 928.960938 1074 C 934.929688 1065.410156 938 1055.820313 941.332031 1046 C 946.382813 1031 953.488281 1005.015625 941.441406 991.214844 C 936.921875 986.03125 929.207031 985.574219 924.289063 980.785156 C 914.222656 971 908.425781 964.570313 894 961.804688 C 879.378906 959.003906 868 965 854 964.542969 C 843 964.246094 834 959.773438 823 961.15625 C 807.75 963.054688 797.777344 969.53125 786.910156 980 C 780.527344 986 770.871094 986.601563 766.441406 995 C 762.703125 1002.09375 764 1011.269531 764 1019 C 764 1046.554688 776.332031 1075.027344 798 1092.53125 C 813.1875 1104.800781 842 1098.191406 844.832031 1123 C 845.3125 1127.261719 846 1131.707031 845.976563 1136 C 845.679688 1145.414063 834.363281 1146.472656 827 1148 C 806.894531 1152.160156 786.53125 1155 766 1155 C 760 1155 745.664063 1156.570313 742 1150.582031 C 739.382813 1146.109375 745 1136.066406 750 1135.527344 C 756.371094 1134.828125 760.28125 1140.570313 765.257813 1142.824219 C 770.195313 1145.058594 778.539063 1144.308594 784 1145 C 782 1143.117188 780.691406 1142.53125 778 1142 L 779 1140 C 765.941406 1140 755.902344 1133.785156 744 1129.019531 C 741.171875 1128 734.824219 1122.671875 731.636719 1124.390625 C 729.488281 1125.550781 733.183594 1128 734 1128.441406 C 736.710938 1130 742 1130.007813 743.867188 1132.726563 C 746.273438 1136.550781 739.90625 1147.296875 735.957031 1148.183594 C 726.226563 1150.363281 710.535156 1130.351563 705.285156 1124 C 703 1121.3125 698.652344 1116.359375 700.617188 1112.476563 C 702.3125 1109.132813 706.730469 1112.589844 708.195313 1114.328125 C 711.542969 1118.300781 711.289063 1122.703125 709 1127 C 711 1126.527344 713 1126.007813 715 1125.300781 C 732.828125 1119 710.496094 1116.40625 710.347656 1106.105469 C 710.296875 1102.828125 715.980469 1100.1875 718 1098 C 710 1100.507813 701.6875 1099 703.488281 1088.132813 C 704 1084.566406 708.175781 1084.074219 707.503906 1080 C 706 1071.332031 700 1064 699.1875 1055 C 698.636719 1050 702 1046 701.824219 1041 C 700.507813 1017 707.871094 996.488281 719.863281 975 C 724.773438 966.195313 730.8125 955.769531 740 951 L 740 950 C 723.980469 956.074219 715.1875 974.140625 709 989 L 708 989 C 708 961.167969 708.613281 933.316406 718.8125 907 C 729.296875 880 748.980469 856.246094 749 826 L 747 826 C 746.996094 861.503906 719.695313 886.699219 709.34375 919 C 703 938.765625 701.941406 960.433594 701 981 C 700.613281 990.761719 701.785156 1000.414063 699.335938 1010 C 696.226563 1022.164063 682.445313 1030.703125 671 1034 C 671 1013.796875 672.179688 993.644531 666.574219 974 C 660.785156 953.71875 648.980469 934.476563 648 913 C 647.339844 897.035156 649.835938 881.402344 653.882813 866 C 657.621094 851.789063 663 837 660.195313 822 C 656.523438 802.804688 645.695313 786.589844 637.859375 769 C 629.820313 751 625 730.820313 625 711 L 623 711 C 623 730.316406 624.339844 748.695313 631 767 C 639.332031 789.578125 653.464844 810.535156 655.828125 835 C 657.78125 855.171875 647.980469 876.757813 643 896 L 642 896 C 624 843.269531 614 792 617.910156 736 C 619.90625 707 621 681 636.453125 655 C 649.773438 632.609375 670 619 689 601.828125 C 701.542969 590.5 710 576 722 564.09375 C 727 559.164063 734 558.40625 739 554 C 713.957031 559.234375 702.84375 587.0625 685 602.714844 C 666.191406 619.210938 644.570313 633.800781 631.871094 656 C 612 690.65625 612.269531 728.40625 613.960938 767 C 614.902344 788.535156 611.773438 810.691406 615.613281 832 C 620.265625 857.800781 631.714844 881.359375 640 906 C 643 914.808594 642.28125 924.113281 644.746094 933 C 647.96875 944.636719 653.824219 955.371094 657 967 C 648.796875 960.671875 642.71875 949.582031 637 941 C 615.808594 909.203125 606 871.289063 599.921875 834 C 598.253906 824 594.617188 812.261719 595 802.058594 C 595.230469 799.207031 599 798 598.949219 796 C 598.902344 794.164063 595 793.574219 594 792.402344 C 591.886719 790 590 779.222656 593.742188 777.175781 C 596.46875 775.632813 602.335938 781 605 782 C 602.804688 777.492188 595.75 774.472656 596.285156 769 C 596.796875 763.753906 602.234375 760.082031 605 756 C 608.269531 751.199219 609 745.636719 609.714844 740 C 612.855469 713.738281 603.914063 688.765625 615 663 C 610.855469 666.824219 610 672.765625 608.332031 678 C 603.453125 692.710938 602.46875 709.585938 604.285156 725 C 605.601563 736.164063 607.449219 753 598 761 C 598 732.449219 595.207031 704.4375 593.960938 676 C 593.460938 664.554688 589.878906 652.40625 592.761719 641 C 600 612 625.515625 591.183594 641.644531 567 C 645.8125 560.753906 649.796875 554.011719 652.535156 547 C 653.953125 543.375 653.949219 537.574219 656.738281 534.726563 C 659.277344 532.136719 663.871094 532.199219 667 530.558594 C 672.175781 528 676 522.804688 679 518 C 694.59375 494.203125 700.808594 473.054688 726 457 C 730.3125 454.1875 741.332031 441.460938 746.347656 446.453125 C 752 452.101563 747.90625 462 742.894531 466.332031 C 729 478.394531 710 481.308594 699 497 M 950 475 C 957 490.074219 979.824219 500.03125 992 511.074219 C 997.535156 516.097656 1003.644531 523 1011 525 C 998.894531 503.753906 973.847656 482 950 475 M 698 525 C 713.578125 519.007813 727.183594 503.207031 740 492.804688 C 746 488 755 482.765625 759 476 C 752 477.582031 745.945313 482.222656 740 486 C 724.238281 496 706.53125 508 698 525 M 669 579 C 679.710938 572.707031 688.996094 557 698 548 C 713.585938 532.488281 731.921875 520.046875 747.996094 505.085938 C 755 498.4375 763.957031 490.527344 767 481 C 756.949219 486.089844 747.933594 498.128906 739 505.390625 C 713.449219 526.152344 680.816406 546.535156 669 579 M 942 481 C 953 510 991.925781 527 1013 548 C 1021.734375 556.734375 1030.375 573.273438 1041 579 C 1027.601563 546.824219 997.195313 527 971 506 C 961 498.117188 953.371094 486.804688 942 481 M 630 486.421875 C 639.441406 484.117188 648 498.792969 640.257813 505 C 637.859375 507 626 502.125 626 505.253906 C 626 511.8125 639.199219 508.492188 642 511.601563 C 644.828125 514.445313 650.957031 532.617188 644.6875 534.167969 C 638.761719 535.632813 629.628906 523.53125 626 520.015625 C 622.78125 517 611.816406 514.507813 610.355469 511.4375 C 606.882813 504.128906 623.921875 488 630 486.421875 M 1073 486.394531 C 1082.652344 484.140625 1100.277344 500.710938 1098.839844 510.683594 C 1098.398438 513.742188 1091.269531 513.339844 1089 514.742188 C 1081.910156 519.121094 1074.886719 533.371094 1066 534.117188 C 1057.492188 535 1064.214844 516.277344 1066 513.148438 C 1069.390625 508 1081.988281 512.335938 1083.367188 506.042969 C 1083.878906 503.710938 1080 504.234375 1078.996094 504.453125 C 1076 505.003906 1072.328125 507 1069.515625 505 C 1063.9375 501.082031 1066.65625 488 1073 486.394531 M 854 488 C 854 542.644531 851.910156 597.261719 852 652 C 852 701.597656 854 751.359375 854 801 L 856 801 C 856 731 857 661.027344 857 591 C 857 557.265625 860.207031 521.285156 856 488 L 854 488 M 524 513 C 529.648438 531 548.945313 543 564 552.191406 C 569 555.382813 574 559.601563 580 561 C 572.746094 544.1875 555 540.347656 542 529.535156 C 535.6875 524.332031 531.550781 516.519531 524 513 M 1131 562 C 1149.175781 549.347656 1177.425781 536.207031 1185 514 C 1177.5625 517.765625 1172.429688 526.320313 1166 531.675781 C 1154 541.554688 1133.664063 544.296875 1131 562 M 729 534 C 732.785156 533.0625 735.929688 531.347656 738 528 C 734.183594 529.21875 731.554688 531 729 534 M 1127 644 C 1124.816406 617.253906 1100.460938 596.203125 1085.375 576 C 1080.433594 569.382813 1069.785156 557.726563 1069.421875 549.105469 C 1069.222656 544.304688 1083.355469 537 1087 534.101563 C 1088.585938 533 1091 530.382813 1093.363281 531.304688 C 1096 532.402344 1097.519531 537.585938 1098.574219 540 C 1101.78125 547.335938 1105.695313 554.558594 1110.476563 561 C 1125.671875 581.453125 1164.46875 607.75 1137.984375 635 C 1134.601563 638.480469 1131.320313 641.757813 1127 644 M 582 643 C 577.589844 640.542969 573.574219 637.675781 570 634 C 545 607.464844 584.285156 580.09375 599.332031 561 C 603.902344 555.199219 608.199219 548.800781 611 542 C 612.328125 539.210938 613.234375 533.558594 616.394531 532.257813 C 621 530.316406 640 546 639.726563 551.015625 C 639 559.824219 629 569.289063 624 576 C 609.253906 595.820313 584.296875 616.6875 582 643 M 1187 542 C 1177.957031 554 1169.929688 559.570313 1155 560.015625 C 1153.324219 560.066406 1146 560.425781 1146.921875 563.609375 C 1147.578125 566.257813 1157.910156 565.019531 1160 565 C 1169.765625 565 1191.40625 554.742188 1187 542 M 521 543 C 527.285156 564.367188 546.246094 566 565 566 C 560.355469 557.121094 549.742188 561.800781 542 558.648438 C 533.53125 555.199219 529 546.753906 521 543 M 920 572 L 920 575 L 922 575 L 922 572 L 920 572 M 788 575 L 788 578 L 790 578 L 790 575 L 788 575 M 919 577 C 918.988281 592.59375 913.902344 607.734375 911.25 623 C 903.289063 668.8125 898.503906 719.65625 934.960938 754.171875 C 939.507813 758.472656 942.496094 765 948 768 C 939.953125 747.289063 922 734.253906 916 712 C 908.457031 682.769531 911.394531 649.570313 915.28125 620 C 917 605.699219 920.996094 591.453125 921 577 L 919 577 M 789 579 C 794.679688 624 805.425781 670.136719 792.988281 715 C 790 725.347656 785.296875 734.640625 778.539063 743 C 772 751 763.597656 758.382813 762 769 L 763 769 C 773 754.105469 788.945313 743.769531 796 727 C 816 680.378906 797.964844 626.144531 791 579 L 789 579 M 635 688 L 636 688 C 639.917969 676.433594 640.402344 664.3125 647.789063 654 C 655 644 665.804688 637.117188 676 630.332031 C 705.730469 610.550781 734.6875 601.449219 768 617 C 760.320313 601 734.324219 604.738281 720 606 C 699.664063 607.789063 681.804688 619.726563 665 630.320313 C 655 636.523438 645.363281 643.269531 639.992188 654 C 634.648438 664.679688 635 676.410156 635 688 M 940 618 C 948.863281 614 957 609.167969 967 608.171875 C 992.578125 605.609375 1017.515625 619.679688 1038 633.332031 C 1047 639.371094 1056.433594 645.707031 1062.453125 655 C 1068.492188 664.332031 1070.597656 676.132813 1072 687 C 1075.847656 684.28125 1075 679.335938 1074.996094 675 C 1074.863281 664 1069.835938 652.371094 1062.535156 644.089844 C 1042.726563 621.617188 1004.59375 605.738281 975 605.015625 C 962.785156 604.714844 946 605.242188 940 618 M 714 631 C 725.824219 629.507813 741.488281 624.769531 753 629.484375 C 757.625 631.375 759.984375 635.457031 764 638 C 763.535156 618.746094 740.683594 623 728 626 C 723.375 627 716.707031 626.808594 714 631 M 944 642 C 947.773438 639.726563 948.976563 635.34375 952.183594 632.328125 C 959 625.8125 970 625 979 627 L 979 628 C 964.816406 633 954.941406 643.585938 951 658 C 955.832031 655.261719 958.1875 649.050781 962 645 C 968.882813 637.808594 976.570313 632.179688 985 627 C 968.503906 616.109375 947.902344 623.136719 944 642 M 957 665 C 963 661 964.882813 650.613281 970.183594 645.09375 C 979.492188 635.40625 996.539063 635.722656 1009 636 C 1004.898438 633 999 633 994 633 C 973.792969 633.066406 959.71875 644.824219 957 665 M 737 638 C 739.46875 642.082031 744.546875 643.4375 747.785156 647.042969 C 751.824219 651.53125 752.816406 659 758 662 C 759 647 750.679688 641.378906 737 638 M 720 639 C 728 649.707031 733.992188 655.761719 734 670 C 746.269531 662.046875 729.945313 640.800781 720 639 M 973 670 L 975 670 C 975.589844 656.25 981.476563 649.683594 989 639 C 971.574219 639.15625 973 657.003906 973 670 M 1016 643 C 1019.914063 648.164063 1030.476563 649.71875 1036 654 C 1045.929688 661.417969 1052 672 1059 682 C 1062.523438 677.160156 1058.753906 670.683594 1056.207031 666 C 1048.546875 652 1031.488281 644.234375 1016 643 M 693 644 L 694 645 L 693 644 M 648 683 C 654.917969 679.621094 656.554688 672 660.789063 666 C 667.820313 656.183594 679.804688 648.066406 692 647 L 692 645 C 669.46875 645.015625 652 661.605469 648 683 M 983 679 C 988.183594 677.457031 991.753906 673 997 671.222656 C 1011.1875 666.566406 1027.464844 671 1041 676 C 1037.738281 670.101563 1030 669.054688 1024 667.652344 C 1008.878906 664.1875 990.425781 662.113281 983 679 M 666 677 C 681.261719 674.753906 696.390625 666.695313 712 671.785156 C 717.792969 673.675781 721.605469 678.5 727 681 C 723.703125 660.238281 693.847656 665.425781 680 670 C 675.265625 671.566406 668.910156 672.730469 666 677 M 962 738 C 967 734.515625 968 728.226563 975 726.53125 C 982.480469 724.710938 990.488281 726.636719 998 727 C 1019.988281 728 1055.414063 720.394531 1056 693 C 1068 705.128906 1046.457031 720.484375 1037 726 C 1033 728.308594 1027 732.53125 1025 732 L 1025 734 C 1036.882813 731.277344 1049.859375 726.285156 1057.210938 716 C 1060.496094 711.402344 1060.210938 703.273438 1064.429688 699.742188 C 1067.855469 697 1073.90625 698 1078 696 C 1074.429688 694.5 1070.453125 695.355469 1067 693.261719 C 1061.636719 690.011719 1057.550781 685 1052 682 C 1035.601563 672.8125 1001 666.453125 986 681.105469 C 978.527344 688.527344 975 700.484375 970.859375 710 C 966.824219 719.136719 963.902344 728.195313 962 738 M 631 696 L 631 697 C 639.640625 701.160156 644.339844 693.371094 651.488281 695 C 654.257813 695.417969 656 703.699219 657.46875 706 C 661.503906 712.539063 668 717.277344 675 720.511719 C 687.589844 726.429688 701.320313 727.320313 715 727 C 721.882813 726.816406 729.199219 724.644531 735.996094 726.804688 C 742 728.738281 742.910156 735.109375 748 738 C 743 720.808594 736.859375 693.660156 722.824219 681.527344 C 708.972656 669.550781 684 673.273438 668 678.035156 C 654.351563 682.089844 645.636719 694.804688 631 696 M 1029 685 C 1033.339844 686.070313 1039.253906 686.058594 1042.566406 689.429688 C 1049.832031 696.816406 1038.871094 709 1033 713.210938 C 1018 724 980.609375 721.566406 986.398438 695 C 988.363281 686 1005.273438 675.742188 1013.679688 682.742188 C 1016.628906 685.195313 1015.714844 689.289063 1012.851563 691.394531 C 1009.167969 694.101563 1004.746094 690.40625 1001.320313 692.789063 C 993.796875 698.023438 1008.261719 707.71875 1013 708.296875 C 1026.574219 710 1029 694.816406 1029 685 M 698 682.433594 C 722.65625 675.429688 731.847656 709.351563 709 719.046875 C 696.175781 724.484375 679.253906 718.21875 670.679688 708 C 667.332031 704 661.890625 694.648438 666.601563 689.703125 C 668.53125 687.679688 677.480469 684.46875 679.398438 687.617188 C 680.902344 690.097656 679.925781 694.195313 680.804688 697 C 683.226563 704.726563 691.855469 711.273438 700 708 C 703.933594 706.40625 714.296875 698.347656 708.550781 693.691406 C 705.589844 691.296875 700.558594 693.457031 697 691.542969 C 692.441406 689.019531 692.886719 684 698 682.433594 M 647 700 C 647.804688 717.613281 665 731.617188 682 733 C 677.84375 727.332031 668.394531 725 663 720 C 656.929688 714.300781 653.667969 704.28125 647 700 M 982 704 C 984 711.007813 988.933594 715.222656 993 721 C 983.609375 720.253906 976.207031 713.671875 982 704 M 729 705 C 728.992188 715.023438 726.886719 719.1875 717 722 C 720.769531 716.578125 724.367188 709.585938 729 705 M 647 716 C 650.507813 739.402344 693.925781 771.160156 712 743 C 704.378906 744.140625 697.941406 748.308594 690 748 C 669.648438 747.066406 661 726.808594 647 716 M 980 720 L 973 721 C 974.84375 716.652344 976.984375 716.40625 980 720 M 737 722 L 731 721 C 733.6875 718.496094 735.191406 718.820313 737 722 M 1060 718 C 1050.28125 731.515625 1034.316406 748.382813 1016 748 C 1009 747.679688 1003.390625 744 997 742 C 1008.273438 761.613281 1037.667969 749.574219 1049.910156 737.824219 C 1054.542969 733.378906 1062.675781 725 1060 718 M 526 743 L 526 744 L 523 744 C 524.246094 743.316406 524.546875 743.25 526 743 M 581 762 L 581 763 C 561.273438 767.695313 545.464844 749.386719 527 745 C 531.546875 743.367188 537.441406 745.679688 542 747 C 555.550781 750.460938 567.609375 758.171875 581 762 M 576.167969 766.433594 C 581.480469 764.628906 587.699219 771 581.484375 773.742188 C 578 775.3125 571 768.179688 576.167969 766.433594 M 706 793 C 700 813.789063 690.800781 832.164063 678.65625 850 C 673.730469 857.230469 662.5625 865.207031 660 873 C 680.859375 864.253906 692.355469 836.589844 700.574219 817 C 703.453125 810.144531 709 800.449219 706 793 M 1004 796 C 1004.929688 817.371094 1018.792969 839.046875 1030.722656 856 C 1035.714844 863.09375 1042 871.269531 1051 873 C 1043 860.503906 1030.726563 851.714844 1023.308594 838 C 1016.675781 825.734375 1013.546875 806 1004 796 M 770.199219 945 C 766.503906 946 768.4375 951.605469 771.894531 951.078125 C 775.980469 950.453125 774 944 770.199219 945 M 938.304688 945.085938 C 935.207031 947 937 952.570313 940.699219 950.824219 C 944.222656 949.097656 942 942.800781 938.304688 945.085938 M 740 949 L 741 950 L 740 949 M 1076 955 C 1078.636719 964.175781 1072.425781 975 1070.425781 984 C 1065.578125 1005.820313 1061 1027.570313 1061 1050 C 1047 1045.378906 1049.714844 1033.765625 1048.910156 1022 C 1048.316406 1013.335938 1046.550781 1003.613281 1048.527344 995 C 1051.375 982.597656 1066 962.671875 1076 955 M 635 957 C 643.808594 966.589844 656.914063 980.257813 660.507813 993 C 663.292969 1003 661.523438 1013 660.964844 1023 C 660.347656 1034.054688 661.429688 1045.804688 649 1050 C 648 1028.390625 644.53125 1006.121094 640 985 C 638.230469 976.746094 631.535156 965.269531 635 957 M 756 963 C 755 964.480469 755 964.203125 755 966 L 758 966 C 757.316406 964.421875 757.195313 964.222656 756 963 M 952 964 L 952 966 L 955 966 L 955 964 L 952 964 M 847 968 L 847 969 L 844 972 C 861.875 966.332031 887 962.402344 905 969.230469 C 912.90625 972.242188 917 978.34375 923 984 C 927.582031 988.28125 934.683594 989.78125 938.273438 995.042969 C 947 1008 942.898438 1036.136719 934.363281 1048 C 930.375 1053.542969 917.546875 1063.414063 912 1053.773438 C 909.640625 1049.566406 913.726563 1044.53125 912.472656 1040.003906 C 908.960938 1027.347656 893 1030 885 1035.636719 C 874.8125 1043 871.945313 1056.183594 885 1062.378906 C 898.28125 1068.640625 906.550781 1069.515625 920 1064 L 919 1067 C 923.5 1062 927.554688 1057.710938 934 1055 C 930.265625 1070.726563 917 1087.386719 902 1093.546875 C 892.304688 1097.511719 880.902344 1097.246094 872 1103.109375 C 863 1109 863 1121.015625 856 1126 C 855 1117.261719 856.773438 1108.707031 856.984375 1100 C 857.273438 1088.265625 855.902344 1075.460938 858 1064 L 859 1064 C 862.554688 1069.800781 875.792969 1073.199219 882 1077 C 877.40625 1070.535156 864.414063 1059.164063 856 1059 C 846 1058.503906 826.769531 1076.480469 821 1084 C 831.292969 1076.6875 842.597656 1068.394531 854 1063 C 853.613281 1072 854.644531 1084.128906 850 1092 C 851.1875 1090.8125 851.585938 1090.472656 853 1090 C 853 1094.707031 855.644531 1111.109375 849 1110 C 852.925781 1116.621094 853 1120.660156 851 1128 L 850 1128 C 849.765625 1099.78125 824.746094 1102.820313 806 1093.179688 C 791.304688 1085.621094 781 1071.398438 776 1056 C 788.28125 1060.65625 797.601563 1070.773438 812 1067.472656 C 818.503906 1066 823.953125 1061.605469 830 1059 C 828.96875 1064.773438 825.976563 1068.804688 822 1073 C 836.4375 1065.683594 838.441406 1046.261719 825.996094 1036.390625 C 818.671875 1030.578125 802.519531 1027.167969 797.613281 1038.039063 C 795.457031 1042.816406 799.214844 1047.1875 798.175781 1052 C 796 1061.390625 784.710938 1057 780 1052.785156 C 768 1042.335938 767.4375 1024.566406 768.828125 1010 C 769.347656 1004.59375 768.722656 998.789063 772.648438 994.390625 C 775.890625 990.757813 781.277344 990 785 986.773438 C 790 982.523438 793.542969 976.636719 799 972.800781 C 813.261719 962.769531 831 965 847 968 M 816 968 L 816 969 C 820.324219 970 823.984375 968.726563 828 967 C 824 965.625 819.972656 967.464844 816 968 M 1080 966 C 1093 1000 1087.734375 1042.429688 1087 1078 L 1079 1071 C 1081.285156 1074.246094 1085 1077.199219 1086.382813 1081 C 1089.894531 1091.21875 1084.222656 1108.164063 1084 1119 C 1075.601563 1112.40625 1070.921875 1099 1065 1090 C 1062.363281 1086.035156 1059.195313 1082 1059.378906 1077 C 1059.488281 1074.117188 1060.585938 1059.207031 1064.3125 1059.207031 C 1069 1059.207031 1075.175781 1068.308594 1079 1071 C 1074.613281 1065.289063 1066.878906 1061.101563 1064.652344 1054 C 1062.449219 1047 1065.648438 1039 1066.726563 1032 C 1069 1016.628906 1071.265625 1001.28125 1074.195313 986 C 1075.472656 979.347656 1075.644531 971.449219 1080 966 M 631 967 C 637 987 638.839844 1009.414063 642.285156 1030 C 643.550781 1037.550781 647.769531 1046.308594 645.347656 1054 C 642.597656 1062.734375 628.324219 1074 621 1079 C 623.480469 1068.585938 622 1056.667969 622 1046 C 622 1029.210938 622.851563 1012.664063 624.84375 996 C 625.917969 987.042969 624.730469 974.113281 631 967 M 774 1003 C 782.730469 999.640625 789.308594 992 797 986.75 C 806.226563 980.550781 817.964844 977.472656 829 977 L 829 978 C 809.386719 979 782 997.382813 771 1013 C 786.613281 1007.824219 798.492188 992.507813 814 986 C 832.199219 978.085938 858.625 976 878 979.464844 C 885.566406 980.828125 892.460938 984.703125 900 986 L 900 987 C 897.875 988 897.898438 988 897 990 C 909.941406 984.199219 921.679688 1003.1875 932 1008 C 923.28125 990.496094 900.230469 978.398438 881 978 L 881 977 C 890.878906 977.203125 901.566406 979.386719 910 984.710938 C 916.914063 989.074219 922.316406 996.023438 930 999 C 928.476563 994 923.738281 989.371094 919.828125 985.753906 C 896.261719 964 869.324219 978.453125 842 975 C 842.984375 973.519531 843 973.796875 843 972 C 833.953125 976.046875 825.613281 974.039063 816 975.289063 C 799.933594 977.378906 781.589844 988.367188 774 1003 M 746 981 L 746 982 C 748.199219 982.480469 748.800781 982.480469 751 982 C 748.988281 980.527344 748.476563 980.535156 746 981 M 960 980 L 960 982 L 963 982 L 963 980 L 960 980 M 882 985 C 884 984.101563 884 984.125 885 982 C 882.875 983 882.898438 983 882 985 M 891 988 C 892.578125 987.316406 892.777344 987.195313 894 986 C 891.90625 986.40625 891.980469 986.21875 891 988 M 932 994 C 933.578125 993.316406 933.777344 993.195313 935 992 C 933.421875 992.683594 933.222656 992.804688 932 994 M 936 995 L 937 996 L 936 995 M 1093 1003 L 1092 1004 L 1093 1003 M 717.601563 1023.085938 C 714.808594 1025.019531 717.421875 1030.457031 720.695313 1028.824219 C 724.457031 1027 721 1020.734375 717.601563 1023.085938 M 940 1022 L 941 1023 L 940 1022 M 989.347656 1023.085938 C 986.203125 1025.058594 989.339844 1030.339844 992.566406 1028.671875 C 996.183594 1026.804688 992.871094 1021 989.347656 1023.085938 M 696 1024 C 696 1029.746094 696.722656 1036.730469 693.835938 1042 C 686.664063 1055 682.277344 1043.648438 683 1035 L 681 1035 C 680.730469 1038.417969 680.585938 1060.113281 673.496094 1056.742188 C 670.257813 1055.203125 670.984375 1049 671 1046 C 671 1033.832031 685.503906 1027 696 1024 M 1029 1038 C 1027 1041.34375 1026.199219 1044.167969 1026 1048 C 1014.710938 1044.152344 1016.265625 1033.511719 1014 1024 C 1024.882813 1026 1039 1035.449219 1039 1047 C 1038.992188 1049.441406 1039.582031 1055.289063 1037 1056.824219 C 1029.40625 1061.480469 1029.199219 1041 1029 1038 M 975.601563 1041.171875 C 973 1042.714844 975.980469 1046.789063 978.355469 1045 C 980.441406 1043.277344 977.777344 1040 975.601563 1041.171875 M 731.65625 1042.082031 C 729.363281 1043.808594 732.398438 1047.015625 734.644531 1045.828125 C 737.636719 1044.246094 734 1040.234375 731.65625 1042.082031 M 999.222656 1046.257813 C 995.476563 1047.742188 985.699219 1065.472656 995.867188 1062.289063 C 1000.433594 1061 1007.808594 1043 999.222656 1046.257813 M 654 1075 C 653.457031 1071 652.394531 1067.027344 651.753906 1063 C 651.1875 1059.417969 652.402344 1044.660156 659.410156 1047.347656 C 661.574219 1048.175781 661.949219 1053.09375 662.335938 1055 C 664 1063.796875 662.285156 1070.691406 654 1075 M 707.710938 1047.03125 C 705.90625 1048.714844 712.730469 1067.789063 719.390625 1061.253906 C 723.519531 1057.207031 712.253906 1042.796875 707.710938 1047.03125 M 1051 1046 C 1061 1054.386719 1059.234375 1063.511719 1056 1075 C 1047.503906 1069 1046 1055.144531 1051 1046 M 1017 1047 C 1026 1052.722656 1030.699219 1074.191406 1020.605469 1082.394531 C 1013.351563 1088.292969 1008.476563 1079.335938 1010.519531 1073 C 1011.824219 1069 1013.730469 1065.121094 1014.839844 1061 C 1016 1056.417969 1015.195313 1051.296875 1017 1047 M 690 1049.492188 C 694.6875 1048.5 694.980469 1053.753906 695.613281 1057 C 696.871094 1063.480469 706.347656 1080.785156 695.980469 1083.5625 C 684 1086.765625 678.363281 1052 690 1049.492188 M 745.3125 1054.085938 C 741.777344 1056.214844 745 1061.472656 748.40625 1059 C 751 1056.828125 748.515625 1052.15625 745.3125 1054.085938 M 961.617188 1054.042969 C 958.683594 1056.300781 962.730469 1060 965.382813 1058 C 968.316406 1055.699219 964.269531 1052.003906 961.617188 1054.042969 M 627 1120 C 616.652344 1105.109375 620.722656 1080.53125 633 1069.089844 C 635.261719 1067 642.925781 1058.046875 646.273438 1059.347656 C 649.710938 1060.679688 650.898438 1072.804688 650.945313 1076 C 651 1082.644531 646.480469 1087.726563 643 1093 C 637.234375 1101.75 632.277344 1111 627 1120 M 680 1059 L 680 1071 C 675.550781 1067.074219 675.398438 1063 680 1059 M 1031 1059 C 1034 1063.394531 1034.277344 1066.433594 1030 1070 C 1030 1066.300781 1029.558594 1062.433594 1031 1059 M 977.601563 1066.171875 C 975 1067.714844 977.980469 1071.789063 980.355469 1070 C 982.441406 1068.277344 979.777344 1065 977.601563 1066.171875 M 724.5625 1067.160156 C 722.550781 1068.425781 724.28125 1072.039063 726.4375 1070.746094 C 728.480469 1069.523438 726.742188 1065.792969 724.5625 1067.160156 M 737 1066 L 737 1069 C 738.195313 1067.777344 738.316406 1067.578125 739 1066 L 737 1066 M 666 1101 C 669 1098.03125 673.796875 1092.261719 678.695313 1093.371094 C 682 1094.132813 682.488281 1100.3125 683.34375 1103 C 686.632813 1113.308594 684.398438 1127.335938 671.847656 1131.503906 C 668.167969 1132.722656 666.171875 1122.394531 665.34375 1120 C 661.851563 1110 651.511719 1089.347656 656.441406 1079.003906 C 662.480469 1066.332031 677.980469 1076 678.246094 1087 C 678.359375 1091.507813 668.457031 1096.785156 666 1101 M 1040 1135 L 1039 1135 C 1031.1875 1124 1021.773438 1119.8125 1026 1105 C 1027.171875 1101 1027.796875 1092.582031 1034 1094.761719 C 1040.234375 1097 1042.355469 1104.019531 1047 1108 C 1044.535156 1103.351563 1041.933594 1098.765625 1037.960938 1095.214844 C 1035.894531 1093.363281 1031.496094 1091.738281 1030.832031 1088.785156 C 1029.34375 1082.179688 1043.445313 1068.3125 1049.671875 1073.578125 C 1055.597656 1078.589844 1054.640625 1086.257813 1053 1093 C 1049.828125 1107.476563 1045.6875 1121.320313 1040 1135 M 737.257813 1073.058594 C 733.859375 1073.734375 735 1080.414063 738.738281 1079.246094 C 741.902344 1078.222656 740.585938 1072.398438 737.257813 1073.058594 M 967 1073.347656 C 964 1073.40625 964 1078.371094 967 1078.363281 C 970 1078.359375 970 1073.285156 967 1073.347656 M 749.210938 1081.175781 C 746.722656 1081.605469 747.476563 1085.519531 749.957031 1085.082031 C 752.601563 1084.617188 751.78125 1080.730469 749.210938 1081.175781 M 763.175781 1081.058594 C 760.835938 1081.578125 761.398438 1085.574219 763.824219 1085.078125 C 766 1084.601563 765.640625 1080.511719 763.175781 1081.058594 M 943 1082.027344 C 941.921875 1083.363281 944.792969 1085.089844 945.675781 1083.488281 C 946.433594 1082.105469 944 1081.027344 943 1082.027344 M 959.5 1084.5 C 958.871094 1085.128906 959.871094 1086.128906 960.5 1085.5 C 961 1085 960 1084 959.5 1084.5 M 859 1109 C 869 1104 880.300781 1095 886 1085 C 875 1087.105469 862.363281 1098.46875 859 1109 M 822 1086 C 824.71875 1089.777344 827.644531 1092.3125 832 1094 C 830.664063 1095.824219 830.308594 1096.753906 830 1099 L 832 1099 L 832 1095 C 838 1098.492188 841.230469 1103.308594 845 1109 C 846.253906 1107.25 846.613281 1106.140625 847 1104 C 845.203125 1104 845.480469 1104.015625 844 1105 C 843.40625 1094.125 831.898438 1087.484375 822 1086 M 1066 1175 C 1075.355469 1164.636719 1083 1143.773438 1085 1130 C 1091.382813 1133.664063 1088.75 1141 1087.347656 1147 C 1084.339844 1160.128906 1079.585938 1180 1069 1189 C 1064.320313 1180.210938 1061.597656 1170.5625 1056.386719 1162 C 1051.835938 1154.523438 1043.746094 1146.128906 1043 1137 C 1042.683594 1130.636719 1046.683594 1124.828125 1048.644531 1119 C 1052 1108.613281 1055.40625 1096.828125 1057 1086 C 1062.871094 1089.164063 1066.410156 1096.421875 1069.796875 1102 C 1073.71875 1108.453125 1080.691406 1116.414063 1081.78125 1124 C 1084 1140.195313 1069.59375 1159.464844 1066 1175 M 694.300781 1088 C 701.296875 1086.773438 703.640625 1105.792969 698 1105.792969 C 693.496094 1105.792969 689 1088.773438 694.300781 1088 M 710.621094 1088.046875 C 707 1090.75 712.980469 1097.066406 716.390625 1094.761719 C 720.335938 1092.097656 714.28125 1085.199219 710.621094 1088.046875 M 995 1088.175781 C 990.414063 1088.757813 991 1095.597656 995.933594 1094.621094 C 1000.289063 1093.753906 999.46875 1087.617188 995 1088.175781 M 1014.171875 1088.753906 C 1019.851563 1087 1018.394531 1104.117188 1013 1105.078125 C 1008 1106 1009.953125 1090.066406 1014.171875 1088.753906 M 954.175781 1091.175781 C 951.378906 1091.679688 952.890625 1096.234375 955.449219 1095.253906 C 957.59375 1094.433594 956.386719 1090.773438 954.175781 1091.175781 M 754 1092 C 751.957031 1098 757.996094 1096.273438 754 1092 M 724 1095.046875 C 718.757813 1098.027344 723.921875 1105 728.683594 1102 C 733.230469 1099.070313 728.785156 1092.488281 724 1095.046875 M 816.5 1094.5 C 815.871094 1095.128906 816.871094 1096.128906 817.5 1095.5 C 818 1095 817 1094 816.5 1094.5 M 1102 1096 C 1103.199219 1098.796875 1104.351563 1100.496094 1107 1102 C 1105.675781 1099.28125 1104.582031 1097.570313 1102 1096 M 850 1099 C 848.953125 1101 848.488281 1102 848 1104 C 849.847656 1102.21875 850.566406 1101.507813 850 1099 M 664 1101 L 663 1105 C 665 1103.773438 665.324219 1103.296875 666 1101 L 664 1101 M 766.40625 1102.324219 C 764.300781 1103.222656 766.628906 1106 768.363281 1105.253906 C 770.339844 1104.457031 768 1101.597656 766.40625 1102.324219 M 942.175781 1103.054688 C 939.84375 1103.558594 940.414063 1107.277344 942.824219 1106.824219 C 945.183594 1106.382813 944.582031 1102.535156 942.175781 1103.054688 M 735 1104 C 730.300781 1105.144531 733.457031 1111.613281 737.851563 1110.148438 C 742.382813 1108.640625 739 1103.03125 735 1104 M 972.949219 1104.175781 C 968.527344 1104.777344 969.449219 1111.4375 973.867188 1110.246094 C 977.355469 1109.308594 976.722656 1103.660156 972.949219 1104.175781 M 1107 1103 L 1108 1104 L 1107 1103 M 904.507813 1107.320313 C 903.246094 1108.019531 904 1110.289063 905.492188 1109.523438 C 906.753906 1108.824219 905.867188 1106.5625 904.507813 1107.320313 M 804 1112 C 806.992188 1108 802.671875 1106.535156 804 1112 M 1008 1108 C 1009.597656 1109.480469 1010 1110.0625 1011 1112 C 1009 1110.804688 1007.601563 1110.238281 1008 1108 M 749.328125 1110.085938 C 745.3125 1112.445313 749.804688 1118.679688 753.394531 1116 C 756.605469 1113.515625 752.847656 1108.019531 749.328125 1110.085938 M 828.996094 1111.175781 C 826.839844 1111.523438 825.386719 1115.796875 828.261719 1115.796875 C 831 1115.796875 832.355469 1110.636719 828.996094 1111.175781 M 879.644531 1111.171875 C 877.449219 1112.605469 880.277344 1116.035156 882.355469 1114.675781 C 884.535156 1113.253906 881.65625 1110 879.644531 1111.171875 M 956.332031 1111.085938 C 952.484375 1113.359375 957.214844 1118.402344 960.378906 1116 C 963.386719 1113.625 959.320313 1109.320313 956.332031 1111.085938 M 921.601563 1112.046875 C 918.289063 1114.519531 921.578125 1121.132813 925.566406 1118.761719 C 929.789063 1116.253906 925.582031 1109.070313 921.601563 1112.046875 M 784.316406 1113.046875 C 780.511719 1115.460938 783.621094 1121.558594 787.695313 1119 C 791.597656 1116.457031 788.484375 1110.402344 784.316406 1113.046875 M 816.507813 1114.441406 C 815.210938 1115.082031 816 1117.390625 817.492188 1116.699219 C 818.78125 1116.046875 817.863281 1113.769531 816.507813 1114.441406 M 891.601563 1115.15625 C 889.570313 1116.507813 892.296875 1119.570313 893.933594 1118 C 895.328125 1116.535156 893.246094 1114.066406 891.601563 1115.15625 M 727.472656 1117.324219 C 725.917969 1118.101563 726.761719 1121.058594 728.527344 1120.253906 C 730 1119.523438 729 1116.484375 727.472656 1117.324219 M 978.273438 1117 C 975.652344 1117.699219 977.460938 1120.304688 979.683594 1119.359375 C 981.929688 1118.402344 980.1875 1116.265625 978.273438 1117 M 943.257813 1122.175781 C 940.722656 1122.597656 941.460938 1126.511719 943.980469 1126.082031 C 946.738281 1125.613281 945.957031 1121.726563 943.257813 1122.175781 M 963 1131 C 965.246094 1130.804688 982 1127.082031 978.257813 1123 C 975.582031 1120 964.394531 1128.539063 963 1131 M 762.644531 1123.070313 C 760.5 1124.699219 763.300781 1127.753906 765.398438 1126.597656 C 767.988281 1125.167969 764.96875 1121.304688 762.644531 1123.070313 M 877 1130 C 881.910156 1129.300781 885.902344 1127.058594 891 1127 C 885.8125 1121.550781 879.433594 1123 877 1130 M 816 1127 C 822.613281 1128.65625 824.96875 1126.335938 829 1133 C 834.4375 1125.367188 820.882813 1122.015625 816 1127 M 901 1128 L 906 1128 C 903.699219 1130.265625 895.445313 1134 894.496094 1136.292969 C 892 1142.296875 903.269531 1136.453125 904.605469 1135 C 908.761719 1130.035156 907 1121.414063 901 1128 M 800.65625 1126.09375 C 797.953125 1127.769531 802.390625 1130.390625 804.34375 1129.367188 C 806.898438 1128.03125 802.730469 1124.804688 800.65625 1126.09375 M 925.9375 1126.796875 C 922.851563 1126.648438 910 1134.484375 913.285156 1135.117188 C 915.242188 1135.511719 925.878906 1133.027344 927.546875 1131.820313 C 930 1130.019531 928.878906 1127 925.9375 1126.796875 M 779.617188 1128.082031 C 777.601563 1129.730469 780.222656 1133.167969 782.371094 1131.828125 C 784.792969 1130.320313 781.902344 1126.210938 779.617188 1128.082031 M 927 1129 L 926 1130 L 927 1129 M 785 1133 C 787 1133 794.726563 1135.710938 795.863281 1134.28125 C 798.203125 1131.339844 787.796875 1129.042969 785 1133 M 803 1132 C 804 1134 812.335938 1143.074219 814.652344 1138.484375 C 816.484375 1135 805 1132.355469 803 1132 M 854.667969 1135.667969 C 854.722656 1135.722656 854.777344 1136.777344 854.332031 1136.332031 C 854.277344 1136.277344 854.222656 1135.222656 854.667969 1135.667969 M 926 1138 C 925.648438 1145.011719 915.507813 1137.8125 912 1145 C 918.921875 1145 926.316406 1142.710938 933 1143.300781 C 936 1143.578125 941.734375 1145.175781 943.824219 1141.714844 C 945.664063 1138.664063 928.503906 1138.050781 926 1138 M 785 1144 C 792.84375 1150 796.996094 1137.746094 785 1144 M 912 1165 C 891.910156 1183.808594 851.980469 1180.832031 827 1177.269531 C 816.566406 1175.78125 803.8125 1173.820313 797 1165 C 808.539063 1162.15625 820.515625 1161.441406 832 1158.253906 C 839 1156.304688 845.765625 1151 853 1150.253906 C 859.496094 1149.6875 866.851563 1155.070313 873 1157 C 885.636719 1161 899.925781 1160 912 1165 M 857 1152 C 852.625 1156.375 847.871094 1160.460938 845 1166 C 850 1164 858.457031 1158.339844 857 1152 M 678 1155 C 678.546875 1156.636719 678.363281 1156.453125 680 1157 C 679.453125 1155.363281 679.636719 1155.546875 678 1155 M 881.5 1161.5 C 880.871094 1162.128906 881.871094 1163.128906 882.5 1162.5 C 883 1162 882 1161 881.5 1161.5 M 927.851563 1167.710938 C 931.496094 1167.808594 931 1172.566406 930.472656 1175 C 929.382813 1180 924.480469 1194.792969 918 1194.792969 C 913.765625 1194.792969 911.167969 1185.371094 911.464844 1182.015625 C 911.9375 1176.585938 922.378906 1167.566406 927.851563 1167.710938 M 793 1197 C 786.425781 1192.269531 782.292969 1184.71875 780 1177 C 779.394531 1174.769531 778 1169.691406 781.316406 1168.753906 C 784.5625 1167.824219 787.777344 1172 790 1173.613281 C 800.304688 1181.554688 799.496094 1186 793 1197 M 840 1171 C 841.636719 1170.453125 841.453125 1170.636719 842 1169 C 840.6875 1169.769531 840.769531 1169.6875 840 1171 M 979.667969 1205.332031 C 979.222656 1205.777344 980.277344 1205.722656 980.332031 1205.667969 C 980.777344 1205.222656 979.722656 1205.277344 979.667969 1205.332031 M 709 1285 C 709 1289.078125 707.742188 1295.152344 711 1298 C 710.769531 1293.503906 711.816406 1288.71875 709 1285 M 999 1288 L 999 1297 L 1001 1297 C 1000.988281 1293.535156 1001 1290.804688 999 1288 M 1226 1372 C 1228.703125 1377.164063 1233.535156 1378 1239 1378 L 1239 1377 C 1234.859375 1374.828125 1230.375 1373.632813 1226 1372 "/>
</g>
</svg>
