<?xml version="1.0" encoding="UTF-8"?>
<svg xmlns="http://www.w3.org/2000/svg" xmlns:xlink="http://www.w3.org/1999/xlink" width="1500pt" height="1500pt" viewBox="0 0 1500 1500" version="1.1">
<g id="surface1">
<path style=" stroke:none;fill-rule:nonzero;fill:rgb(0%,0%,0%);fill-opacity:1;" d="M 313 245 C 310 242.519531 298.816406 233.511719 295 238.605469 C 292.371094 242.273438 297.238281 250.460938 298.574219 254 C 304.242188 269.027344 305.402344 285 310 300 L 300 298 C 303.195313 303.53125 307.679688 308.3125 312 313 C 297.203125 308.269531 282.503906 306 267 306 C 277 320.101563 288.394531 327.128906 293 345 C 299.257813 368.246094 296.1875 401.566406 311 421 C 300.910156 422.304688 290.226563 424.382813 281 428.785156 C 268.679688 434.664063 257.910156 443.125 244 445 L 244 447 C 262 449.453125 279.550781 466.535156 293 478 C 280 482.078125 265.484375 485 252 485 C 260.785156 497.207031 278.644531 501 292 506 L 292 507 C 271.316406 516 249.875 530.007813 232 543.652344 C 228.957031 546 214.265625 556 219 561 C 221.402344 563.492188 229.824219 562 233 562 C 246.367188 562 259.609375 561 273 561 L 273 562 C 241.550781 566.730469 230.921875 613.398438 225 639 C 238.886719 629.136719 246.910156 616.820313 264 611 C 249.921875 635.121094 238.425781 661.5625 218.574219 681.714844 C 212.511719 688 205.757813 693.308594 198 697.191406 C 192.921875 699.730469 185.277344 701.195313 182 706 L 235 706 C 220.8125 721.40625 207.453125 737.703125 192 752 C 184.660156 758.652344 174.28125 762.257813 169 771 C 183.332031 770 197.929688 767 212 764 C 181.816406 794.179688 165.75 826.761719 159.730469 869 C 158 880.054688 155 896.238281 158 907 L 159 907 C 168.875 892.351563 177.976563 877.0625 190 864 C 177.914063 901.136719 166.871094 939.222656 178 978 C 181.324219 989.582031 184.859375 1004.515625 195 1012 C 201.289063 990 211.753906 968.589844 228 952 C 225.890625 967.644531 218.519531 982.257813 216.285156 998 C 211.40625 1032.417969 222.953125 1064.171875 242.859375 1092 C 249.519531 1101.308594 255.898438 1113.109375 266 1119 C 261.921875 1104.734375 253 1091.464844 254 1076 C 255.273438 1058 267.957031 1044.066406 271 1027 L 272 1027 C 272 1066.007813 280.847656 1104.484375 301.203125 1138 C 307.949219 1149.105469 317 1166.316406 331 1169 C 327 1152.484375 326.171875 1131.816406 328.578125 1115 C 329.441406 1109 329.894531 1101.699219 334 1097 C 334.859375 1138.574219 351.804688 1178.800781 376 1212 C 384.183594 1223 394.933594 1239 408 1244 C 404.765625 1218.414063 401 1195 401 1169 L 402 1169 C 414 1202.605469 436.183594 1249.78125 471 1265 C 470.921875 1236.675781 464.375 1210.65625 468 1182 L 469 1182 C 478.777344 1223.265625 506.671875 1260.113281 533.246094 1292 C 544.320313 1305.289063 558.910156 1322.589844 576 1328 C 574.308594 1307.300781 565 1288.140625 565 1267 L 566 1267 C 568.753906 1276.363281 576.515625 1283.753906 582.730469 1291 C 597.777344 1308.550781 615 1323.199219 632 1339 C 646.503906 1352.417969 659.941406 1368.152344 660 1389 C 674.707031 1382 674.917969 1354.722656 672.191406 1341 C 671.558594 1337.8125 664.335938 1322.070313 668.605469 1320.347656 C 672.753906 1318.671875 678.996094 1329.484375 681 1332 C 690.742188 1343.316406 702 1358.824219 716 1365 C 714.210938 1354.597656 708.65625 1343.734375 704.574219 1334 C 703.878906 1332.335938 699.992188 1325.695313 702.652344 1324.347656 C 706.898438 1322.191406 711.46875 1339.402344 712.332031 1342 C 718.730469 1361.1875 727.824219 1387.246094 750 1392.660156 C 776 1399.019531 790.652344 1369.171875 797.65625 1349 C 799.9375 1342.429688 801.25 1335.167969 804.53125 1329.003906 C 805.363281 1327.441406 807.742188 1323.199219 810 1324 C 812.402344 1324.625 808.6875 1332.703125 808.1875 1334 C 804 1344.59375 797.929688 1355.804688 796 1367 C 809.867188 1357.828125 822.433594 1342.730469 833 1330 C 834.566406 1328.226563 841.992188 1317.527344 844.882813 1320.753906 C 847.910156 1324.128906 840.910156 1337 840.300781 1341 C 837.84375 1357.480469 838 1379.378906 853 1390 C 853.777344 1352.292969 889.984375 1331.414063 914 1308 C 926.824219 1295.472656 935.90625 1280.132813 948 1267 C 943 1286.777344 938.964844 1309 936 1329 C 951.996094 1322.304688 965 1309 976.28125 1296 C 996.972656 1272.222656 1016 1247.3125 1030.246094 1219 C 1035.710938 1208.050781 1041.925781 1195.335938 1043 1183 L 1045 1183 C 1045 1199 1045.996094 1215.148438 1044.910156 1231 C 1044 1242.667969 1041.242188 1254.320313 1041 1266 C 1051.515625 1261 1059.714844 1251.597656 1067.285156 1243 C 1084.710938 1223.207031 1108.777344 1197.039063 1110 1169 L 1111 1169 C 1111 1194.03125 1110.832031 1219.699219 1104 1244 C 1119.453125 1239.453125 1130 1222.5625 1138.660156 1210 C 1161.476563 1176.828125 1178.25 1138.726563 1180 1098 L 1181 1098 C 1181 1122.21875 1185 1145.773438 1182 1170 C 1195.609375 1164.765625 1204.585938 1150 1211.796875 1138 C 1231.785156 1105 1240.210938 1066.316406 1241 1028 L 1242 1028 C 1249.269531 1043.550781 1259.324219 1059 1258.871094 1077 C 1258.511719 1091.359375 1251.308594 1105.535156 1247 1119 C 1256 1114.390625 1263.539063 1101.078125 1269.625 1093 C 1291.558594 1064 1301.339844 1034.367188 1295.726563 998 C 1293.320313 982.410156 1287.28125 967.5 1285 952 C 1300.96875 968.6875 1313.308594 989.277344 1318 1012 C 1327.527344 1005.125 1330.773438 991.683594 1334.332031 981 C 1347.613281 941.121094 1335.425781 902.183594 1323 864 C 1334.695313 876.703125 1342.253906 897 1356 907 C 1356 852.421875 1340.675781 802.773438 1301 764 C 1315.390625 767 1329.324219 770 1344 771 C 1339.292969 762.265625 1326.40625 755.53125 1319 748.828125 C 1304.214844 735.453125 1291 720.101563 1277 706 L 1331 706 C 1324.839844 697 1306.628906 693 1298 685 C 1278 666.378906 1259.453125 636.105469 1249 611 C 1264.71875 615.300781 1276.964844 625.757813 1286 639 L 1287 639 C 1286.78125 612.574219 1269.445313 567.679688 1240 562 L 1240 561 L 1296 561 C 1290.417969 542.164063 1258.917969 528.359375 1243 519.011719 C 1240 517.257813 1222.523438 509.773438 1224.207031 505.609375 C 1225.484375 502.445313 1233 501.496094 1236 500.386719 C 1243.6875 497.378906 1256.460938 492.074219 1261 485 C 1251.285156 485 1241.558594 483 1232 481.246094 C 1229.8125 481 1223.238281 480.613281 1222.632813 477.753906 C 1221.976563 474.671875 1231 470.320313 1233 468.679688 C 1243.777344 459.824219 1253.46875 449 1268 447 C 1264.644531 442.191406 1255.324219 441.628906 1250 439.382813 C 1233.917969 432.609375 1221 422.425781 1203 421 C 1217.476563 396.101563 1212.953125 365.605469 1222 339 C 1227.191406 324.085938 1237.542969 317.449219 1247 306 C 1231.59375 306 1217.214844 310.789063 1202 312 C 1206.21875 307.746094 1210.539063 303.515625 1213 298 C 1200.539063 300.703125 1205.308594 290.15625 1206.996094 282 C 1210.222656 266.425781 1215.429688 251.433594 1219 236 C 1211.886719 237 1205.785156 239.808594 1200 244 C 1201.503906 238.78125 1212.648438 224.765625 1209.648438 219.691406 C 1206.78125 215 1197 222.714844 1195.226563 213 C 1190.710938 188.675781 1193.332031 165.203125 1181.730469 142 C 1178.636719 135.816406 1174.804688 130 1169.960938 125.015625 C 1137.230469 91.578125 1089.5 122 1061 145 C 1064.71875 133.566406 1066.96875 122.070313 1067 110 C 1059.378906 115.195313 1054.785156 127.152344 1047 133.535156 C 1027.597656 149.445313 1004 159.757813 985 176.300781 C 974.992188 185 968.863281 197.289063 960 207 L 961 183 C 949.476563 189.804688 944.574219 205 940.671875 217 C 939.175781 221.636719 938.820313 230.230469 934.640625 233.363281 C 929.417969 237.277344 932.734375 223.488281 933 222 C 936.386719 210.5 942.695313 200.089844 947 189 C 920 191.199219 902.359375 216.003906 889.386719 237 C 880 252.101563 873.433594 261.820313 872 280 L 871 280 C 871.222656 269.292969 873.910156 258.71875 874 248 C 866.566406 250.546875 863.292969 258.078125 858.765625 264 C 851.617188 273.339844 843.296875 281.703125 835 290 C 836.328125 279.507813 839.597656 269.421875 841 259 C 834 265 829.777344 277.09375 829 286 L 828 286 C 828 275.808594 830.566406 266.085938 831 256 C 817.246094 267.097656 804.609375 282.390625 792 295 C 794 286.613281 795.347656 279 799.269531 271 C 803.269531 263.003906 809.46875 255.605469 812 247 C 789.519531 253.613281 777.964844 276.574219 764 293 C 763.835938 289.367188 760.917969 273.207031 756 273.207031 C 751.402344 273.207031 748.3125 290.425781 748 294 L 747 294 C 742 276.722656 719.199219 251.523438 701 248 C 705.757813 264.167969 718.558594 276.335938 720 294 C 705.472656 284.390625 696 266 681 258 C 681.800781 268.121094 684 277.773438 684 288 L 683 288 C 679.835938 281.21875 675.222656 265.792969 669 262 C 670.878906 269.796875 672.929688 278.054688 674 286 C 667.28125 279.28125 660.640625 272.597656 654.898438 265 C 650.195313 258.777344 646.59375 251.003906 639 248 C 639 258.753906 642 269.210938 642 280 L 640 280 C 640 261.554688 632.914063 252.15625 623.425781 237 C 610.242188 216 593 191.21875 566 189 C 567.375 195 569.875 200.421875 572.28125 206 C 575.171875 212.703125 578.277344 219.761719 579.535156 227 C 579.722656 228.070313 580.410156 235.121094 577.5 233.078125 C 573.433594 230.226563 573.464844 221.363281 572.253906 217 C 568.90625 205 563 188.648438 551 183 C 551.65625 191.296875 552.65625 198.675781 552 207 L 551 207 C 536.378906 172 498 158.238281 470 136.5 C 460.691406 129.3125 455.605469 115.8125 446 110 C 446 121.824219 448.378906 132.558594 451 144 C 427.660156 126.410156 393.578125 102 362 111.441406 C 328.964844 121.324219 320.597656 167 317.285156 196 C 316.609375 202 319.183594 208.117188 317.425781 214 C 315.257813 221.222656 303 216.367188 302.53125 220.332031 C 301.554688 227.542969 310.976563 238 313 245 M 413 159 L 414 159 L 411 146 C 443.410156 155.53125 458.316406 188 484 206 C 475.40625 191.277344 474 174.691406 474 158 C 488 162.019531 489.660156 171.53125 495 184 C 502.214844 201 508 223 520 237 C 518.273438 223.34375 519.265625 210.285156 523 197 C 541.351563 210.234375 539 244 544 264 L 545 264 C 545 254.097656 547.605469 245 551.695313 236 C 552.949219 233.246094 555.4375 226.132813 559.585938 229.464844 C 563.273438 232.429688 564.730469 240.601563 565.765625 245 C 569.511719 261 565 278 567.429688 294 C 569.746094 310.144531 580.800781 320.628906 587 335 L 588 335 C 584.242188 318.601563 581.546875 303 583.171875 286 C 584.929688 267.59375 591.554688 250.175781 594 232 L 595 232 C 600.40625 245 609.421875 255.8125 611.914063 270 C 614.84375 286.636719 609.785156 310.429688 622 324 C 617.617188 308 623 301.28125 626.484375 286 C 628 279.191406 627 272 627 265 L 628 265 C 629.234375 293.683594 637.308594 319.726563 635 349 L 637 349 C 638.898438 327.210938 649 307.496094 649 285 C 663.472656 295.65625 671.988281 317.460938 672 335 C 678.640625 329.308594 679.929688 319.347656 680 311 L 681 311 C 685.199219 320 689.796875 328.527344 693 338 L 694 338 C 694.367188 320.238281 694.328125 306.5625 690 289 C 708.601563 302.136719 713.996094 331.652344 714 353 L 716 353 C 716 341.476563 719.90625 330.460938 720 319 L 721 319 L 721 348 L 723 348 C 723 332.566406 730.957031 318.476563 731 303 L 732 303 C 733.988281 313.253906 736.550781 323.527344 737 334 L 738 334 L 738 294 L 739 294 C 742.835938 304 745.828125 313.511719 747.585938 324 C 748.660156 330.410156 748.609375 339 753 344 C 752.867188 328 751.785156 314 756 298 L 757 298 C 761.742188 313 761 327.609375 761 343 L 762 343 C 766 326.179688 767.304688 310.320313 774 294 L 775 294 L 775 333 L 777 333 C 777.734375 323.71875 778.816406 314.0625 781 305 L 782 305 C 782 319.5 788.25 333.824219 791 348 L 792 348 L 792 317 L 793 317 C 793.246094 329.03125 797 341 798 353 L 799 353 C 801.640625 332.097656 802.394531 301 823 289 C 820.726563 306.613281 817.632813 321.105469 818 339 L 819 339 C 822.359375 329.132813 828 320.546875 832 311 L 833 311 C 833 318.511719 834.6875 329.402344 840 335 C 840.34375 318.445313 849.304688 296.730469 863 287 C 863 305.296875 865.3125 334.609375 878 349 C 875.734375 320.285156 878 289.570313 886 262 L 887 262 C 885.921875 270.519531 884.753906 278.46875 886.464844 287 C 887.925781 294.296875 892.925781 300.601563 893.8125 308 C 894.488281 313.621094 892.238281 318.644531 891 324 L 892 324 C 898.972656 306.023438 896.8125 289.386719 900.664063 271 C 903.488281 257.515625 910.859375 244.664063 918 233 L 919 233 C 921.796875 268.132813 936.386719 298.390625 925 334 C 955.523438 302.085938 938.863281 263 954 226 C 964.503906 234.113281 967.738281 251.390625 968 264 L 969 264 C 971.460938 244.535156 971.878906 209.640625 989 197 C 993.398438 208.726563 994.910156 225.769531 992 238 C 998 233 1000.234375 225.078125 1003.28125 218 C 1008.457031 206 1014 194.109375 1018.988281 182 C 1023.605469 170.777344 1025.605469 162.039063 1038 158 C 1038 175 1036 190.050781 1030 206 C 1050.964844 185.035156 1071.960938 154.671875 1102 146 C 1101 150.136719 1099.71875 154.121094 1098 158 C 1106.679688 152 1112.964844 143.550781 1123 139.175781 C 1133.351563 134.660156 1137 139.289063 1129.714844 148 C 1127.738281 150.324219 1125.753906 152.503906 1124 155 C 1129.363281 150.429688 1138.246094 142.476563 1145.984375 144.449219 C 1154.929688 146.726563 1158 164.246094 1158.828125 172 C 1160.632813 190.015625 1154.613281 204.277344 1145 219 C 1157.371094 206.628906 1162 195 1170 180 L 1171 180 C 1171 194.519531 1173.847656 208.5 1171.5625 223 C 1169.191406 238.011719 1161.742188 250.273438 1156 264 L 1182 249 C 1176 274.820313 1155.488281 295.597656 1140 316 C 1154.628906 308 1167.699219 294.695313 1184 290 C 1179.320313 307.109375 1169.753906 324.011719 1159 338 C 1166.394531 339.695313 1173.335938 342 1181 342 C 1173 353.179688 1159.511719 359.417969 1146 360 L 1146 361 C 1174.710938 368 1183 337.136719 1209 331 C 1203.3125 351.046875 1194.640625 370.261719 1182 387 C 1175.980469 395.179688 1167.839844 401.710938 1162 410 C 1172.609375 405.035156 1183.191406 399.5 1194 395 C 1191.8125 409.804688 1180.90625 424.457031 1166 428 L 1166 429 C 1170 428.824219 1174 428.03125 1178 427 C 1173.628906 432.660156 1167.328125 435 1161 437.769531 C 1148.195313 443.609375 1135 450.179688 1121 452 L 1121 451 C 1135.871094 442.527344 1152.179688 427 1162 413 C 1147.503906 421.460938 1132 426.820313 1116 431 C 1119.539063 423.40625 1127.289063 419 1132.910156 413 C 1142.617188 402.695313 1151.351563 390.492188 1158 378 C 1141.808594 387.015625 1127.929688 400 1111 407.691406 C 1091.199219 417 1069.710938 420.089844 1049 426.433594 C 1031.742188 431.722656 1015.449219 439.085938 998 444 L 998 445 C 1023.222656 441.8125 1047.980469 442.789063 1073 436.523438 C 1088 432.765625 1100.953125 423.480469 1116 420 C 1113.578125 427.125 1106.957031 432.285156 1101 436.570313 C 1087.996094 446 1074 458.421875 1059 464 L 1059 465 C 1080 462.167969 1099.238281 450.296875 1120 446 C 1110.703125 459.160156 1092.949219 461.777344 1083 474 C 1094.414063 468.265625 1108.574219 467.085938 1121 464.601563 C 1143.675781 460.0625 1166.191406 455.390625 1189 451.566406 C 1195.96875 450.394531 1218.445313 444.179688 1222.929688 452.277344 C 1225.324219 456.609375 1219.773438 462.1875 1216.960938 464.824219 C 1207 474.152344 1194.644531 476.148438 1183 482 C 1191.191406 485.160156 1200.570313 487.691406 1206 495 C 1193 495.550781 1178.972656 499.4375 1168 506.230469 C 1159.941406 511.222656 1153 519.082031 1144 522 C 1155.382813 531.324219 1169.53125 527 1183 527 C 1201 527.089844 1226.992188 531.832031 1241 544 C 1216.925781 554.65625 1185.484375 548 1160 548 C 1186.222656 572 1233.925781 568 1254 600 C 1239.417969 600 1226.308594 593.148438 1212 591.289063 C 1201.972656 590 1191.980469 592.570313 1182 593 L 1182 594 C 1210.667969 602.296875 1237.597656 627.609375 1249 655 C 1222.988281 649.632813 1199 634 1173 630 L 1173 631 C 1184.378906 635.738281 1193.703125 643.378906 1204 650 C 1225.242188 663.496094 1246.699219 677.253906 1269 689 L 1269 690 C 1248.277344 690 1230.421875 682.066406 1211 676.027344 C 1195.171875 671.101563 1179 668.140625 1163 664 C 1172.402344 672.460938 1189.507813 678.496094 1201 684.246094 C 1222.738281 695.125 1243.976563 707.222656 1264 721.027344 C 1274.414063 728.203125 1287.996094 735.433594 1294 747 C 1279.566406 743.050781 1266.4375 735.023438 1252 730.722656 C 1238.933594 726.828125 1224.835938 726.796875 1212 723 C 1221.199219 733.808594 1238.351563 742.011719 1250 750.425781 C 1281 773 1320.835938 804.242188 1332 843 C 1318.972656 834 1308.660156 821.320313 1296 811.652344 C 1280 799.519531 1263.679688 792.375 1245 786 C 1253 803.117188 1268.527344 817 1278.574219 833 C 1304.949219 875.257813 1320 918.019531 1320 968 L 1319 968 C 1306 939.019531 1296.40625 908.613281 1278.667969 882 C 1274.578125 876 1271.222656 868.152344 1266 863 C 1271.703125 876 1276 889.28125 1282.257813 902 C 1289.296875 916.542969 1298.546875 931.429688 1303 947 C 1287 943.210938 1276 927.796875 1265.871094 916 C 1240.6875 886.753906 1222.195313 852.441406 1196 824 C 1223.175781 881.210938 1266.625 938.09375 1272.828125 1003 C 1274.386719 1019.265625 1272 1034 1270 1050 L 1269 1050 C 1269 988.28125 1227.902344 937.308594 1180 903 C 1200.945313 933.089844 1224.949219 957.585938 1232 995 C 1221.40625 988.375 1214 977 1201 975 C 1235 1019.734375 1211.882813 1081.582031 1193 1127 L 1192 1127 C 1192 1114 1195 1101.167969 1193.828125 1088 C 1191 1059.820313 1176.988281 1034.121094 1160 1012 C 1154 1004.183594 1147.953125 995 1140 989 C 1162.65625 1040 1162 1094.632813 1144.667969 1147 C 1139.601563 1162.191406 1132.65625 1185.515625 1120 1196 C 1120.65625 1180.714844 1126.289063 1166.15625 1127.832031 1151 C 1131.308594 1116.769531 1126.316406 1077 1103 1050 C 1103 1090.675781 1102.671875 1132 1086.28125 1170 C 1081.621094 1180.808594 1076.5 1196.664063 1067 1204 C 1072.863281 1178.421875 1082.980469 1153.664063 1083 1127 L 1082 1127 C 1077.664063 1142.28125 1069.894531 1156.554688 1066.234375 1172 C 1061.445313 1192.238281 1061.746094 1213.585938 1051 1232 L 1050 1232 C 1059.941406 1196.707031 1063.847656 1156.125 1051.300781 1121 C 1046.367188 1107.1875 1034.375 1096.820313 1030 1083 L 1029 1083 C 1029 1100.777344 1030.929688 1118.191406 1028.714844 1136 C 1023.777344 1175.671875 1006.980469 1212.027344 985 1245 C 975.996094 1258.503906 967.496094 1275.492188 954 1285 C 959 1263 969 1242.628906 973.390625 1220 C 977.976563 1195.511719 976.515625 1170.164063 981 1146 C 977.480469 1150.027344 976.753906 1156.054688 974.796875 1161 C 971.296875 1170 966.898438 1178.277344 963 1187 C 948.351563 1221.449219 930.167969 1253.183594 906 1282 C 896.566406 1293.382813 885.894531 1307.699219 871 1312 C 883.992188 1272.066406 908.660156 1235.261719 913.714844 1193 C 916.386719 1170.664063 908.945313 1150.675781 908 1129 L 906 1129 C 906 1150 906.382813 1170.632813 900.574219 1191 C 892.347656 1219.828125 874.238281 1244.601563 859 1270 C 850 1284.789063 839.863281 1308.699219 826 1319 C 826.238281 1290.371094 849.863281 1269.351563 862.6875 1246 C 868.234375 1236 869.574219 1225.265625 871 1214 C 864.582031 1220.347656 860.761719 1230 854.914063 1237 C 839.4375 1255.78125 822.890625 1272.664063 809.332031 1293 C 801.566406 1304.648438 794.949219 1323.429688 784 1332 C 784.214844 1321.695313 785.816406 1311.785156 789 1302 C 775.632813 1313.691406 776.175781 1334 773 1350 C 771.503906 1357.609375 770.398438 1366 764 1371 C 769.992188 1340.105469 774.179688 1309 780 1278 L 779 1278 C 772.847656 1297 764.722656 1316.15625 762.285156 1336 C 760.335938 1352 763.75 1369.234375 756 1384 C 748 1374.140625 751.273438 1357.785156 750.984375 1346 C 750.597656 1330.101563 744.84375 1314.113281 740.425781 1299 C 738.554688 1292.601563 737.460938 1284.058594 733 1279 C 738.699219 1309.582031 741.695313 1340.464844 748 1371 C 743 1366.753906 742 1360.027344 740.425781 1354 C 736 1338.570313 736 1312.789063 723 1302 C 726.191406 1312 726 1322 728 1332 C 718.855469 1324.421875 713.589844 1310 707 1300 C 693.769531 1280.136719 678 1263 663.652344 1244 C 656 1234.148438 650 1221.449219 640 1214 C 644.648438 1224.804688 644.5 1236.417969 650.3125 1247 C 663.613281 1271.222656 683 1290.285156 687 1319 C 681.46875 1317.296875 679.625 1311.574219 676.65625 1307 C 669.734375 1296.34375 662.550781 1286 656 1275 C 636.457031 1242.5 615 1210 607.804688 1172 C 604.941406 1157.164063 606 1143 606 1128 L 605 1128 C 598.65625 1160.710938 594.417969 1191.675781 605.695313 1224 C 615.832031 1253.054688 638.636719 1280.332031 640 1312 C 627.59375 1306.105469 618 1295 609 1285 C 585.5625 1259.3125 567 1229 553.421875 1197 C 548.585938 1185.667969 543.273438 1174.484375 538.8125 1163 C 536.566406 1157.21875 535.289063 1149.519531 531 1145 C 533 1152.246094 532.453125 1160.488281 533.171875 1168 C 534.886719 1186.023438 536.269531 1204.15625 539.609375 1222 C 543.664063 1243.628906 555.84375 1263.632813 559 1285 C 545.804688 1275.699219 536.398438 1258.167969 527.339844 1245 C 503.777344 1210.742188 487.285156 1172.59375 482.835938 1131 C 481.203125 1115.761719 479.570313 1099 484 1084 C 454.75 1109 450.375 1158.726563 454 1194 C 455.472656 1206.171875 460 1218 461 1230 L 460 1230 C 449.28125 1204 448.195313 1175.390625 438.191406 1149 C 435.40625 1141.652344 433.296875 1132 428 1126 C 435 1151.171875 439 1177.507813 445 1203 C 434.707031 1194.621094 429.601563 1179 424.800781 1167 C 409.804688 1129.507813 407.855469 1088.828125 411 1049 C 372.480469 1086.347656 384.371094 1150.195313 393 1196 C 379.386719 1186.203125 374.847656 1166 369.191406 1151 C 349 1097.726563 351.308594 1040.101563 373 988 C 336.886719 1024.113281 308.363281 1075.285156 322 1128 L 321 1128 C 292.515625 1084.816406 285.230469 1020 312 974 C 300.242188 979 292 989 281 994 C 292.289063 959.292969 309 932.238281 332 904 C 319.683594 911.019531 309.925781 922.074219 300 932 C 268.753906 963.246094 243 1002.238281 243 1048 L 242 1048 C 240.882813 1022 240 998.554688 247.425781 973 C 257 939.191406 273.640625 906.820313 290.308594 876 C 299.332031 859.316406 309.890625 843.0625 316 825 C 291.269531 853.328125 272.371094 886.164063 248.246094 915 C 238.363281 926.816406 226.167969 943.117188 210 946 C 220.9375 917.808594 240.75 893.199219 247 863 L 246 863 C 241.519531 873.386719 233.714844 882.253906 228 892 C 219.9375 905.800781 213.449219 920.324219 207 935 C 203.648438 943.160156 200.304688 961 193 966 C 193 948 193.5 930.582031 197.894531 913 C 210 864.15625 240.785156 826.210938 269 786 C 245 792.222656 221.972656 807.441406 203 823.085938 C 195.390625 829.355469 189 837.34375 181 843 C 191.453125 806.714844 229.4375 774.304688 259 753.425781 C 272.445313 744 290.289063 736.75 300 723 C 290 725.355469 279.90625 725.601563 270 728.425781 C 252 733.527344 235.273438 741.300781 218 748 C 225 736.582031 237.214844 729.207031 248 721.574219 C 269.277344 706.523438 291.851563 693.207031 315 681.257813 C 325.570313 675.804688 341.511719 672.238281 350 664 C 330 669.652344 309.777344 674 290 680.027344 C 275.296875 684.59375 260.707031 692 245 690 L 245 689 C 262.777344 675.832031 282.167969 666.234375 301 654.796875 C 314 647 325.78125 637 340 631 L 340 630 C 314 635.347656 289.925781 646.566406 265 655 C 273 626.71875 302.988281 602.804688 330 594 C 305.925781 584 282.890625 600 259 600 C 271 579.0625 304 572 325 563 C 334 559.078125 342.675781 553.394531 352 550 L 352 549 C 328.371094 544.613281 292.664063 558.460938 272 543 C 287.785156 532.589844 308 527.226563 327 527.003906 C 336.820313 527 355.425781 532.234375 363.832031 526 C 370.492188 521.042969 357.421875 514.324219 354 512 C 340 502.484375 324 495.351563 307 495 C 312.597656 487.46875 321.824219 485.625 330 482 C 317.925781 476.652344 306.28125 473.726563 296 464.699219 C 293 462.191406 286 455.117188 290.605469 451.140625 C 298.449219 444.3125 320 450.476563 329 452.195313 C 362.652344 458.648438 395.996094 468.699219 430 473 L 430 472 C 418 467.042969 399.765625 458.109375 394 446 C 413 451.351563 432.851563 457.191406 451 465 C 436.921875 446.644531 406.949219 442.328125 397 420 C 413.402344 423.796875 427.421875 434 444 437.574219 C 467.289063 442.792969 490.96875 440.722656 514 445 C 509.277344 441 500.941406 440.019531 495 438 C 482.878906 434 471.277344 428.75 459 425 C 421.289063 413.378906 387.179688 403.304688 356 378 C 361.894531 391.683594 372.1875 404.09375 382.171875 415 C 387.171875 420.457031 393.523438 424.300781 397 431 C 380.777344 426.429688 366.480469 420.445313 351 414 C 360.894531 428 378 442.667969 393 451 L 393 452 C 378.796875 451 365.730469 444.152344 353 438.308594 C 346.355469 435.257813 339.496094 433.054688 335 427 L 345 429 C 341.460938 426 336.699219 424.773438 333 421.671875 C 325.175781 415.070313 320.277344 404.832031 318 395 C 329.75 399 340.769531 405.746094 352 411 C 334.457031 386.097656 305.699219 364.710938 305 331 C 313.320313 334.230469 321.363281 338 328 344.09375 C 334.636719 350.203125 339.933594 359.402344 349 362.195313 C 354.785156 364 361.238281 362.085938 367 361 L 367 360 C 353.652344 359.425781 339.839844 353.035156 332 342 C 337.28125 342 349.261719 343 351.441406 336.378906 C 352.796875 332.320313 346.945313 326.191406 345 323 C 338.667969 312.585938 332.914063 301.570313 329 290 C 345.652344 294 356.953125 308 372 315 C 358 296.316406 333 273.53125 331 249 C 339.839844 253.65625 348.394531 259 357 264 C 351.746094 251.808594 345 241.089844 341.894531 228 C 337.972656 212.308594 340 195.820313 342 180 L 343 180 C 347 194 355.363281 209.109375 367 218 C 358.5 205.09375 351.988281 192 353 176 C 353.6875 167.332031 356.914063 145.4375 368 144.320313 C 375.398438 143.578125 383.566406 150.820313 389 155 C 386.34375 151.230469 376.78125 144.410156 377.882813 139.316406 C 378.804688 135.039063 386.65625 138 389 139 C 398.652344 143 408.671875 149.160156 413 159 M 452 144 L 451 145 L 452 144 M 407 204 C 412.894531 222.464844 439.234375 237.617188 454 249 C 474.1875 264.289063 488.644531 283.074219 504 303 C 489.6875 296.230469 477.761719 284.730469 464 277 C 433.257813 259.324219 395 248.089844 383 211 L 382 211 C 382.339844 218.4375 385.488281 225.253906 388.425781 232 C 404 268 433.792969 278.339844 467 293.304688 C 475.992188 297.359375 484 302.808594 493 307 L 493 308 C 480.851563 304 469.28125 298.269531 457 294.34375 C 440.242188 289 422.503906 285.054688 408 274.511719 C 394.203125 264.480469 388.328125 248.492188 376 238 C 377 246.132813 380.421875 253.820313 384.308594 261 C 392.3125 275.769531 403.804688 289.113281 419 296.730469 C 441.636719 308.074219 468.347656 307.410156 491 318.808594 C 501.988281 324.339844 510 334 518 343 C 505.886719 341.367188 494.316406 336.390625 483 332 C 485.605469 345.457031 500.453125 356.054688 505 370 C 490 363.019531 476 353.34375 461 347 C 462 350.28125 463.691406 352.414063 466 355 C 435 355 412.980469 331 393 310 C 386.167969 302.8125 380.183594 292.28125 371 288 C 376.238281 300.15625 385.25 310.5 393 321 C 402.28125 333.199219 411 346.734375 424 355.238281 C 434 362 445.175781 358.6875 456 362 C 466.515625 365.105469 475.46875 382.785156 477 393 C 460.734375 379.136719 439.273438 375.636719 422 362.625 C 412.445313 355.429688 403.246094 347.769531 395 339 C 390.234375 333.777344 386.621094 327.097656 380 324 C 389.664063 344.324219 400.820313 369.132813 422 379.730469 C 434.925781 386.199219 447.871094 380.679688 460 385.148438 C 466.515625 387.546875 470.800781 393.824219 475 399 C 465 396.613281 454.855469 396 445 392.644531 C 436.621094 390 429.222656 385 421 382 C 423.386719 395.21875 437.84375 404.582031 449 410.242188 C 478.382813 425.152344 506.238281 424.019531 538 424 L 538 422 C 507 421.742188 491.929688 397.574219 479 373 C 492 374.027344 502.234375 378.382813 512 387.171875 C 523.21875 397.265625 533 411.605469 549 414 C 545 407.359375 537.621094 402.523438 533 396 C 523.167969 382 515.316406 366 507 351 C 530 364.457031 550 380 571 396 C 570 385.828125 564.753906 374.632813 556 369 C 550.3125 365.289063 540.980469 365 538 358 C 535.699219 352.578125 537.390625 345.714844 536.570313 340 C 534.933594 328.566406 531.496094 317.488281 526.691406 307 C 512.847656 276.78125 485.589844 256.148438 460 236.347656 C 443.839844 224 426.5625 210.660156 407 204 M 942 396 C 962.902344 380.015625 983 364.507813 1006 351 C 998.925781 366.15625 990.238281 382.5625 980.238281 396 C 975.390625 402.515625 968.675781 407.363281 964 414 C 982.976563 412.332031 994 392.15625 1008 381.761719 C 1013 378.007813 1022 371.738281 1028.898438 373.355469 C 1036.195313 375.109375 1022.253906 393.742188 1019.964844 397 C 1008.925781 412.699219 992.246094 422 973 422 L 973 423 C 1011.382813 434.664063 1074.703125 421.132813 1093 382 C 1085.242188 384.234375 1078.53125 389.074219 1071 392 C 1061 395.6875 1049.507813 397.171875 1039 398 C 1043 393.417969 1046.976563 387.738281 1053 385.703125 C 1063.777344 382.058594 1075.769531 386 1087 381.769531 C 1104.570313 375.203125 1112.335938 359.109375 1121.398438 344 C 1125.214844 337.644531 1130.328125 331.304688 1132 324 C 1124 329.601563 1118.824219 338.167969 1111.996094 345 C 1102.359375 354.632813 1091 362.734375 1080 370.574219 C 1066.261719 380.273438 1049.664063 382.496094 1036 393 C 1038.402344 383 1044.597656 367.222656 1055 363.007813 C 1066.207031 358.46875 1077.542969 363 1089 355.453125 C 1103.394531 346.132813 1112.9375 330.652344 1122.710938 317 C 1129.167969 308 1136.578125 299.261719 1141 289 C 1128.371094 295 1118 310 1108.828125 320 C 1092.625 338 1072.234375 355 1047 356 C 1049 353.722656 1050.699219 351.820313 1052 349 C 1035.765625 351.433594 1022.699219 363.667969 1008 370 C 1011.585938 354.503906 1025.769531 346.375 1030 332 C 1018.210938 335.222656 1007 340.507813 995 343 C 1022 309.796875 1060.191406 314.597656 1095 296.109375 C 1116.605469 284.632813 1131.667969 260.152344 1138 237 C 1132.84375 240.152344 1129.953125 247.183594 1126.371094 252 C 1119.570313 261.140625 1112.390625 269.21875 1103 275.792969 C 1079.828125 292.011719 1047 297.152344 1021 308 C 1044.859375 287.664063 1078 284.191406 1102 264.535156 C 1111.890625 256.410156 1119.386719 244.671875 1124.421875 233 C 1127.335938 226.242188 1130 219.328125 1131 212 L 1130 212 C 1123.777344 222.664063 1118.183594 232.367188 1109 241 C 1091 257.511719 1067.734375 266 1047 278.011719 C 1034 285.613281 1022.871094 297.015625 1009 303 C 1024.347656 280.25 1040.996094 262 1063 245.371094 C 1076.609375 235.167969 1100.621094 221 1106 204 C 1093.421875 208 1081.167969 217.621094 1070 224.574219 C 1036.394531 245.511719 1003.199219 271.113281 986.308594 308 C 982 317.09375 978.585938 327.039063 977.289063 337 C 976.410156 343.777344 977.902344 352.722656 974.683594 359 C 971.480469 365.15625 963.472656 365.402344 958 368.53125 C 948.449219 374 942.472656 385.203125 942 396 M 367 218 C 368 219.457031 368.542969 220 370 221 C 369 219.078125 368.925781 219 367 218 M 1142 221 C 1143.3125 220.230469 1143.230469 220.3125 1144 219 C 1142.363281 219.546875 1142.546875 219.363281 1142 221 M 1200 244 L 1199 245 L 1200 244 M 314 245 L 313 246 L 314 245 M 1143 264 C 1121.441406 291.160156 1093 308.386719 1063 324.691406 C 1052.761719 330.230469 1040.722656 334 1031 340 C 1038.460938 344.46875 1050.976563 342.019531 1059 340.117188 C 1085.378906 334 1107 314.671875 1124.828125 295 C 1130.328125 289 1145.40625 272.78125 1143 264 M 368 265 C 372 274.675781 377.988281 283 384.613281 291 C 406.367188 317.472656 444.75 350.636719 482 341 C 476 336.070313 467.828125 334.394531 461 331 C 443.390625 322 425.386719 313.167969 409 302 C 394.351563 292 383.667969 272.308594 368 265 M 675 286 L 674 287 L 675 286 M 545 291 C 542.769531 301.804688 540.660156 312.046875 543.476563 323 C 549.550781 346.617188 577 366.007813 599 374 C 589.878906 358 574 346.769531 564.464844 331 C 557 319 555.429688 300.636719 545 291 M 914 374 C 937 367.347656 962.765625 346.757813 969 323 C 971.265625 315 970.765625 308.140625 969.578125 300 C 969.371094 298.570313 969.488281 293.421875 967.675781 293 C 965.949219 292.445313 965.183594 296.011719 964.863281 297.019531 C 963 303 960.949219 308.496094 958.242188 314 C 952.292969 326.101563 945.632813 337.671875 936.867188 348 C 929.523438 356.648438 919.683594 364.167969 914 374 M 505 303 L 504 304 L 505 303 M 1009 303 L 1008 304 L 1009 303 M 497 311 L 493 309 C 495 309 495.484375 309.371094 497 311 M 1021 308 L 1021 309 L 1018 310 C 1019.222656 308.804688 1019.421875 308.683594 1021 308 M 503 314 C 505.546875 316.242188 507.941406 318.308594 510 321 C 506.960938 319.238281 503.875 317.511719 503 314 M 372.5 315.5 C 371.871094 316.128906 372.871094 317.128906 373.5 316.5 C 374 316 373 315 372.5 315.5 M 1010 315 C 1007.949219 317.664063 1005.910156 319.3125 1003 321 C 1005 318.457031 1007.222656 316.746094 1010 315 M 519 343 L 518 344 L 519 343 M 1158 377 L 1159 378 L 1158 377 M 463 477 C 451.664063 500.820313 416.703125 506.804688 393 507 L 393 508 C 412.605469 512.679688 435.980469 511.566406 451.960938 498.191406 C 457.378906 493.660156 466 484.703125 463 477 M 1049 479 C 1056.386719 511 1090.710938 511.074219 1117 509 L 1117 507 C 1098.777344 507 1078.226563 502.652344 1063 492.097656 C 1057.660156 488.394531 1054 483 1049 479 M 388 513 L 388 514 C 390.796875 514.785156 400.945313 516 400.945313 520 C 400.945313 523.046875 392.285156 524.570313 390 525.425781 C 381.542969 528.585938 363.425781 531.765625 358 539 C 368.746094 539 379.390625 541.410156 390 538.511719 C 400.363281 535.679688 409 528.375 419 524.398438 C 425.480469 521.808594 437.753906 520.652344 442 515 C 423.882813 515 406 513.050781 388 513 M 1070 516 L 1070 517 C 1078.308594 519.816406 1086.964844 521.015625 1095 524.78125 C 1104.949219 529.445313 1114 537 1125 539.320313 C 1134.515625 541.472656 1144.429688 539.027344 1154 539 C 1152 536.300781 1149 535.445313 1146 534.34375 C 1137.933594 531.507813 1130 528.285156 1122 525.320313 C 1119.183594 524.277344 1113.648438 523.148438 1111.921875 520.460938 C 1109.507813 516.695313 1121 515.175781 1123 515 L 1123 513 C 1105.390625 513.050781 1087.789063 516 1070 516 M 358 571 L 358 572 C 385.828125 569.726563 417.480469 552.703125 441 538.601563 C 450 533.1875 460.765625 528.773438 467 520 C 429.261719 528.652344 391.203125 551.617188 358 571 M 1045 520 C 1052 528.761719 1063.414063 533.492188 1073 539 C 1098.589844 553.707031 1126 564 1154 573 C 1149 563.273438 1134.363281 559 1125 554.691406 C 1099.867188 543.152344 1072.742188 524.097656 1045 520 M 1002 534 L 1002 535 C 1048.890625 557.21875 1097 584.203125 1148 596 C 1139.703125 585.402344 1122.703125 581.5625 1111 575.753906 C 1078.523438 559.628906 1038.78125 537.003906 1002 534 M 364 595 L 364 596 C 382 593.566406 400.359375 585.519531 417 578.421875 C 447.71875 565.3125 477.8125 550.289063 508 536 C 499.253906 533 479.8125 543.726563 471 546.667969 C 434.910156 558.699219 397 576.191406 364 595 M 709 536 C 706.574219 549.054688 710.710938 561.128906 716 573 L 717 573 C 717 561.046875 719 544.648438 709 536 M 795 573 L 796 573 C 802.425781 562 803.894531 548.613281 804 536 C 792.621094 542 795 562.265625 795 573 M 783 554 C 783 568.410156 780.929688 582.40625 775.945313 596 C 772.367188 605.761719 765.921875 615.53125 765 626 L 764 626 L 767 608 C 760.902344 612 757.625 623.144531 756 630 L 755 630 C 753.859375 623.585938 750.339844 611 745 607 C 745.230469 612.375 746.324219 617.671875 747 623 L 746 623 C 743.675781 607.480469 733.710938 593.738281 731.273438 578 C 730.796875 575 730.84375 564.257813 726 564.347656 C 721.667969 564.425781 721 574 721 577 C 720.691406 586 724.429688 608.71875 732 614 L 730 600 L 731 600 C 732.625 611.003906 737 620.761719 738.167969 632 C 738.675781 637.566406 739.308594 643.089844 733 645 C 734.902344 653.226563 737.976563 660.410156 738 669 C 741.3125 667.117188 742.382813 664.378906 744 661 C 749.539063 673 752.246094 683.648438 756 696 C 762.234375 685.605469 760.871094 672.070313 769 662 C 770.242188 665.183594 771 668.050781 774 670 C 774.183594 661.1875 778 653.457031 780 645 C 778.339844 645.613281 777.515625 646.042969 776 647 C 769.996094 622.074219 783 603.785156 786.570313 580 C 787.613281 572.757813 789.996094 558.792969 783 554 M 991 558 C 995.617188 563.570313 1002.792969 566.484375 1009 570 C 1029.460938 581.59375 1052.800781 587 1075 594 C 1071.527344 587 1062.839844 583.128906 1056 579.757813 C 1042.953125 573.324219 1028.804688 570.265625 1015 566 C 1007 563.503906 999.238281 559.234375 991 558 M 436 593 C 443.433594 593.492188 451.828125 589.789063 459 588 C 481.667969 581.710938 501 572.214844 521 560 C 514.488281 557.464844 505.285156 563.640625 499 565.65625 C 478.363281 572.273438 452.726563 578.46875 436 593 M 586 562 C 587.960938 565 590.726563 566 594 567 L 594 568 C 580.1875 565.148438 568 563.214844 554 565 C 557.777344 570.035156 568.300781 572.398438 574 575.246094 C 582 579.324219 590 583.804688 599 586.253906 C 607.585938 588.636719 616.867188 589.007813 625 593 C 630.203125 595.414063 634.273438 599.769531 639 603 C 635.3125 578.027344 609.703125 562.488281 586 562 M 873 604 C 878.445313 600.398438 883 595.257813 889 592.519531 C 896.808594 589 905.828125 588.734375 914 586.277344 C 922.574219 583.703125 930 579 938 574.78125 C 943.703125 571.777344 954.175781 570.09375 958 565 C 944 565 930.671875 566.425781 917 569 L 917 568 C 919.988281 567.054688 922.375 565.714844 925 564 C 919.859375 560.800781 912.230469 564.0625 907 566.066406 C 891 572.15625 875.992188 586.628906 873 604 M 621 564 C 627 576.339844 647.910156 590.730469 660 597 C 658 576 639.652344 566.742188 621 564 M 852 598 C 857 595.617188 860.546875 591.136719 865 587.75 C 874.1875 580.757813 885 575.289063 891 565 C 871 566.632813 855.828125 578.273438 852 598 M 674 566 C 675.25 581.695313 680.714844 606.191406 694 616 L 694 609 L 695 609 C 696 614.59375 698.832031 618.566406 704 621 C 701 606.199219 697 583.164063 688 571 C 687.226563 578.042969 689 585.035156 690 592 L 689 592 C 687.605469 582.691406 681.269531 572 674 566 M 837 566 C 832.578125 574 826.261719 581.03125 824 590 L 823 590 C 823.527344 583.3125 824.945313 576.726563 825 570 L 824 570 C 818.527344 586.132813 811.277344 604.089844 809 621 C 814.363281 618.4375 816.976563 613.742188 818 608 L 819 608 L 819 615 C 828.429688 607.59375 831.382813 591 835 580 C 836.488281 575.488281 838.886719 570.632813 837 566 M 595 568.332031 L 595.332031 568.667969 C 594.839844 568.832031 594.226563 568.332031 595 568.332031 M 662 571 C 662 582.25 664.433594 593.699219 669 604 C 677.277344 594 673.230469 577 662 571 M 847.957031 573.347656 C 841 576 839.75 589.027344 840 595 C 840 596.667969 840.632813 604 843.832031 602.652344 C 849.304688 600.398438 850.960938 586 850.996094 581 C 851 579.265625 851.457031 572.085938 847.957031 573.347656 M 998 575 C 1000.953125 582.792969 1007 587.519531 1013 593 C 1008.300781 594 1003.769531 594 999 594 L 999 595 C 1014 598.722656 1029.75 602 1045 605 C 1041.695313 600 1034.226563 597 1029 594 C 1018.605469 588 1008.800781 580.109375 998 575 M 513 576 C 503.65625 582.691406 494 589.207031 484 594.691406 C 479 597.398438 471.390625 599.375 468 604 C 482.867188 603.691406 498.65625 598.710938 513 595 L 513 594 L 501 594 C 503.902344 588.402344 513.863281 582.488281 513 576 M 520 589 L 520 590 C 553.84375 590.28125 590.617188 604.785156 618 624.035156 C 628.6875 631.550781 636.492188 644.03125 648 650 C 641 603.417969 582.460938 583 542 586.828125 C 534.855469 587.523438 526.859375 587 520 589 M 865 651 C 873.246094 643.292969 879.914063 634.589844 889 627.652344 C 915.371094 607.519531 956.382813 590.695313 990 590 C 982.402344 583.386719 967.421875 586 958 586 C 928.683594 586.140625 896.382813 598.554688 878 622 C 872 629.558594 864.355469 641 865 651 M 707 593 C 707 615.472656 712.9375 637.570313 713 660 C 718.308594 655.433594 718.96875 648.695313 719 642 C 719 627.222656 718.550781 604 707 593 M 805 593 C 799.625 609.519531 792 626.183594 794.425781 644 C 795.234375 650.089844 794.960938 656.832031 801 660 C 801 645 804.5 630 806.285156 615 C 807 608.464844 808.890625 598.695313 805 593 M 730 597 L 730 600 L 729 600 C 729.25 598.546875 729.316406 598.246094 730 597 M 415 621 L 415 622 C 440.695313 629.238281 464 638.617188 491 632 C 497.742188 630.179688 509 628.09375 513 622 C 510.214844 622.664063 493.34375 624.324219 494.632813 618.175781 C 495.207031 615.421875 502 613.179688 504 611 C 489.308594 611.632813 475.453125 618.300781 461 620.5625 C 445.886719 623 430.277344 621 415 621 M 1009 611 C 1011.742188 615.46875 1017 617.140625 1022 618 L 1022 619 C 1013.710938 620.425781 1007.648438 623.605469 999 622 C 1003 628.214844 1014 630.15625 1021 632 C 1046.628906 638.308594 1071.828125 631.253906 1096 622 C 1086 617.824219 1071.75 623 1061 621.828125 C 1043.222656 620.136719 1026.726563 612.402344 1009 611 M 748 624 L 747 625 L 748 624 M 401 675 C 409.273438 679 422 677.550781 431 676.078125 C 454.675781 672.167969 476.714844 662.28125 499 653.808594 C 509.328125 650 523.917969 647 529 636 C 513.605469 639.675781 497.476563 640.210938 482 644 C 465 648 449.230469 655.402344 433 661.574219 C 423.679688 665.121094 407.765625 667.652344 401 675 M 983 636 C 987.996094 646.488281 1002 649.386719 1012 653.054688 C 1035.507813 661.671875 1058 672 1083 676.078125 C 1091.617188 677.503906 1105.515625 679.332031 1113 674 C 1103.269531 668.320313 1092.417969 666.210938 1082 662.1875 C 1063.910156 655.203125 1046 647 1027 643.003906 C 1012.460938 640 997.398438 639.546875 983 636 M 421 692 L 421 691 C 423.722656 690.371094 426.355469 689.570313 429 688.65625 C 438.203125 685.480469 444 680.128906 430 679.089844 C 418.78125 678.261719 407.25 679 396 679 C 397.648438 682.5 399.496094 684.351563 403 686 L 403 687 C 350.628906 687.144531 317.597656 728.335938 298 772 C 293.457031 782.507813 287.617188 792.699219 285 804 C 301.78125 792.179688 310.910156 769.273438 322.882813 753 C 344 724.125 367.828125 707.136719 403 699 L 403 700 C 390.664063 703.554688 377.550781 713.339844 372 725 C 379 724.378906 385 720.621094 392 719 L 392 720 C 380.246094 724 368.933594 739.15625 362 749 C 373.453125 748.476563 385.652344 744.136719 397 742 L 397 743 C 384.644531 747 377.753906 760.167969 372.242188 771 C 361.425781 792.265625 348.449219 812.148438 341 835 C 356 830 370.820313 808.179688 382 797 C 380.363281 808.089844 373.1875 816.515625 366.398438 825 C 353.441406 841.199219 339.402344 857 324 870.828125 C 317.476563 876.730469 307.167969 882.214844 303 890 C 331.453125 878.152344 354.421875 856 370.574219 830 C 386.84375 804 399.332031 769.476563 434 765 L 434 764 C 419.953125 756.636719 405 763.746094 391 767 C 417.863281 740.136719 448 744 483 744 C 480 740.171875 473.347656 739.214844 469 737.230469 C 449.699219 728.433594 432.59375 729 412 729 L 412 728 C 422.96875 726.109375 432 718.496094 443 716 C 459.605469 712 475.261719 714 492 714 C 487 706.027344 471.945313 700.320313 463 699 L 463 698 C 479 698 494.878906 697.257813 511 698 C 517 698.230469 524.34375 696 529.984375 699.140625 C 540 704.742188 544.738281 721.6875 553 730 C 575.6875 752.527344 612.199219 749.71875 637 733 C 632.449219 749.628906 620 758.742188 606 767 L 606 768 C 613.316406 767.359375 619.347656 763.769531 626 761 C 620.757813 768.070313 612.394531 773.730469 608 781 C 613 779.515625 617.441406 776.746094 622 774 C 608.332031 791 592.945313 807.144531 581.859375 826 C 576 835.8125 574 851.3125 567.335938 859.730469 C 561.492188 867.03125 543.703125 854.003906 540.664063 868.003906 C 539.226563 874.625 544.476563 882.367188 547.242188 888 C 554.660156 903.085938 561.851563 918.03125 571.34375 932 C 581.863281 947.476563 594.75 961.640625 610 972.570313 C 621.898438 981.097656 635.355469 987.332031 647 996.234375 C 657.222656 1004.054688 665.191406 1014.285156 675 1022.5625 C 700.730469 1044.273438 733.375 1061.140625 768 1057.828125 C 816.292969 1053.214844 842.773438 1012 881 987.8125 C 916.246094 965.652344 939.511719 940.605469 959.308594 904 C 964.503906 894.398438 976.1875 878.683594 972.484375 867.042969 C 968.496094 854.492188 951.722656 866.808594 945.5625 859.761719 C 942.523438 856.285156 942.414063 850.234375 940.910156 846 C 938.421875 839 934.816406 832.429688 931 826 C 920.425781 807.355469 905.480469 791.605469 892 775 C 895.988281 777.210938 899.59375 779.703125 904 781 C 899.425781 773.683594 892.957031 767.226563 887 761 C 893.574219 763.734375 899.792969 767.367188 907 768 L 907 767 C 892.492188 758.527344 881.605469 749.457031 876 733 C 901.832031 750.035156 937.695313 752 960.828125 728.828125 C 968.648438 721.011719 973.328125 704.171875 983 699.179688 C 988.304688 696.453125 996.230469 698.214844 1002 698 C 1018 697.253906 1033.867188 698 1050 698 L 1050 699 C 1041.273438 700.308594 1024.953125 706.4375 1020 714 C 1035.296875 714 1050.902344 711.28125 1066 714.664063 C 1078.289063 717.417969 1088.71875 726 1101 728 L 1101 729 C 1087.335938 729 1074.546875 727.492188 1061 731 C 1050 733.65625 1040.28125 740.335938 1029 742 L 1029 743 C 1037.496094 745.503906 1049 743 1058 743 C 1081.769531 743 1105.292969 747.726563 1121 767 C 1106.398438 763.652344 1092.75 757.652344 1078 764 C 1090.476563 771.484375 1102.875 772 1113.714844 784.015625 C 1126.253906 798 1131 814.273438 1140.402344 830 C 1154.546875 853.773438 1181.617188 881.113281 1209 889 C 1203.199219 880.773438 1194.195313 876 1187 869 C 1165.984375 849 1138.609375 824.222656 1129 796 C 1142.238281 806.78125 1154.792969 829.488281 1171 835 C 1163 811.820313 1150 788.359375 1138 767 C 1133.277344 758.285156 1126.925781 747.375 1117 744 L 1117 743 C 1128.199219 743.480469 1140.226563 747 1151 750 C 1146.3125 739 1133.808594 726.144531 1123 721 L 1123 720 C 1128.964844 722.3125 1134.84375 724.265625 1141 726 C 1137 714.484375 1121.421875 703.296875 1110 700 L 1110 699 C 1139.828125 707.140625 1165.777344 720 1184.625 745 C 1194.78125 758.542969 1203.585938 773.125 1213.28125 787 C 1217.472656 793 1221.222656 800.695313 1228 804 C 1224.785156 790.109375 1217.589844 776.691406 1211.246094 764 C 1191 723.820313 1159.878906 687.40625 1111 687 C 1113.480469 684.445313 1115.503906 682.222656 1117 679 C 1105.804688 679 1094 678.050781 1083 679.171875 C 1080.996094 679.371094 1071.675781 680.503906 1073.347656 684.304688 C 1074.578125 687.113281 1084.226563 688.230469 1087 689.21875 C 1089.988281 690.28125 1092.910156 691.285156 1096 692 L 1096 693 C 1081.648438 689.710938 1067.714844 685.746094 1053 684.164063 C 1036 682.34375 1018.386719 683 1002 677.480469 C 971.28125 667.371094 944.183594 644.542969 911 642.183594 C 893.398438 641 875.25 653.039063 864.617188 666 C 859.671875 672.027344 853 687.4375 844 687.546875 C 839.339844 687.601563 835.242188 683.058594 832 680.269531 C 823 672.558594 816.386719 662.003906 806 656 C 808.472656 664.570313 814.523438 672.097656 820 679 C 814 676 808.710938 671.210938 802 670 C 806.605469 682 819.941406 689.664063 829 698 C 820.957031 697.363281 813 695.167969 805 695 C 813.78125 705.523438 831.972656 710 843 718.667969 C 858 730.609375 867.714844 750.503906 875 768 C 870.257813 763.257813 865.675781 756.433594 860 753 C 861 761.542969 865 770.816406 873 775 L 873 776 C 865.609375 774 858.730469 770.632813 851 770 C 856.339844 777.28125 869.777344 782.242188 877 788.429688 C 901.675781 809.570313 933.609375 844.664063 931.789063 880 C 929.335938 927.746094 873.363281 963.582031 828 962.546875 C 801.96875 962 778.335938 948 752 949.039063 C 729 950.039063 707.835938 961.070313 685 962 C 671.527344 962.484375 657.355469 957.691406 645 952.796875 C 600.332031 935.101563 566.90625 896 589.308594 847 C 599.214844 825.378906 617.976563 802.808594 636 787.4375 C 644 780.523438 656 777 663 769 C 654.800781 770.695313 647 774.117188 639 776 L 639 775 C 647.292969 771.101563 651 761.476563 653 753 C 647.460938 756 643.46875 762.519531 639 767 C 647.75 750.371094 654.390625 731.804688 669 719.300781 C 679.914063 710 698.320313 706.058594 707 695 C 699.277344 695.332031 691.707031 697.390625 684 698 C 693.628906 689.597656 705 681.714844 711 670 C 704.890625 671.761719 699.792969 675.503906 694 678 C 699 671.136719 704.695313 664.699219 706 656 C 696.644531 662.589844 689.496094 672.1875 681 679.828125 C 677.683594 682.8125 672.859375 687.746094 668 687.507813 C 658.808594 687.054688 651.804688 670.164063 646.410156 664.039063 C 634.84375 651 616.933594 641 599 642.089844 C 567 644.226563 540.433594 667.039063 511 677.304688 C 496.589844 682.332031 481.941406 681.746094 467 683.171875 C 451.261719 684.671875 436.386719 688.816406 421 692 M 606 661.378906 C 625.976563 660.21875 627.898438 692.367188 608 694 C 586.441406 695.570313 584.675781 662.621094 606 661.378906 M 900 669.394531 C 916.929688 665.492188 926 691.671875 909 695.605469 C 891.824219 699.566406 882.910156 673.335938 900 669.394531 M 694 678 C 693.453125 679.636719 693.636719 679.453125 692 680 C 692.546875 678.363281 692.363281 678.546875 694 678 M 821 679 L 820 680 L 821 679 M 961 684 C 961 694 961.570313 703.199219 956 712 C 941.203125 735.664063 901.851563 739 882 719.824219 C 873 711.109375 870.941406 699 870 687 L 871 687 C 878.5625 719.664063 911.808594 737.660156 940 715.480469 C 951.191406 706.679688 952.53125 694.222656 961 684 M 553 685 C 555.730469 701 566.828125 717.332031 582 723.523438 C 604 732.519531 634.414063 718.503906 640 695 L 641 695 C 636.34375 729.398438 594.28125 742.019531 568 723 C 558.554688 716 543.207031 697 553 685 M 421 692 L 421 693 L 416 694 C 417.75 692.746094 418.855469 692.386719 421 692 M 1110 698 L 1110 699 L 1096 694 C 1100.496094 692.765625 1105.777344 696.363281 1110 698 M 415 694 L 415 695 C 410.988281 696.355469 407 698.023438 403 699 C 406.492188 696.359375 410.757813 695.007813 415 694 M 830 698.332031 L 830.332031 698.667969 C 829.839844 698.832031 829.226563 698.332031 830 698.332031 M 1277 705 L 1276 706 L 1277 705 M 393 718.332031 L 393.332031 718.667969 C 392.839844 718.832031 392.226563 718.332031 393 718.332031 M 1120 718 L 1119 719 L 1120 718 M 481 719 L 481 721 C 497.429688 723.828125 510.390625 738.652344 524 747.304688 C 539 757 554.589844 759.199219 572 757 C 567.410156 751 553.910156 751 547 747.675781 C 525.367188 737.582031 505.953125 720.074219 481 719 M 1122 719 L 1121 720 L 1122 719 M 940 755 L 940 756 C 976.726563 769.753906 996.960938 727.710938 1029 722 L 1029 720 C 995.945313 720.023438 973 753.574219 940 755 M 749 721 C 750.496094 724 752 725.3125 755 727 C 753.960938 723.410156 752.589844 722.039063 749 721 M 741 735 C 745.65625 734 750.238281 734 755 734 C 750.53125 728.136719 744.40625 728.09375 741 735 M 638 732 L 637 733 L 638 732 M 876 732 L 875 733 L 876 732 M 1116 742.332031 C 1116.773438 742.332031 1116 742.832031 1115.667969 742.667969 L 1116 742.332031 M 1167 744 C 1177.464844 776.109375 1199.578125 822.796875 1235 833 C 1223.972656 811 1202.171875 792.191406 1187.710938 772 C 1181.925781 764 1175.496094 749.011719 1167 744 M 343 745 C 328.585938 779.609375 294.261719 800.347656 278 833 C 304.660156 826.609375 322 794.246094 333.78125 772 C 337.597656 764.769531 346.542969 753.527344 343 745 M 757 751 C 751 741 734.992188 748.675781 729.300781 755.039063 C 727.753906 756.769531 721.984375 763.242188 725.617188 765.394531 C 733.609375 770.121094 748.316406 752 757 751 M 627 760 L 626 761 L 627 760 M 887 760 L 886 761 L 887 760 M 639 767 L 638 768 L 639 767 M 718 781 C 727.519531 778 740.257813 778 744 767 C 734.238281 767.425781 722.390625 771.664063 718 781 M 877 770 C 875.363281 769.453125 875.546875 769.636719 875 768 C 876.636719 768.546875 876.453125 768.363281 877 770 M 624 772 C 623.453125 773.636719 623.636719 773.453125 622 774 C 622.546875 772.363281 622.363281 772.546875 624 772 M 892 774 L 891 775 L 892 774 M 874 776 L 873 777 L 874 776 M 689 818 C 711.316406 813 731.773438 801.40625 755 800.09375 C 777.738281 798.808594 802.261719 810 823 818 C 819 806.203125 805.589844 797.285156 795 791.785156 C 762.1875 774.730469 707.390625 782.359375 689 818 M 744 803.429688 C 716 807.425781 701.980469 822 686.425781 844 C 676 858.6875 669.371094 877.257813 679.480469 894 C 684.359375 902.085938 692.507813 907.199219 700 912.578125 C 725 930.59375 750.347656 934.46875 781 929.726563 C 792.359375 928 801 922.746094 810 916 C 820.78125 907.660156 832.824219 899.496094 837.25 886 C 842.890625 868.796875 834.269531 853.300781 824 840 C 818.695313 833.109375 814.605469 825.089844 807.984375 819.300781 C 791.355469 804.761719 765.382813 800.363281 744 803.429688 M 794 895 C 774.535156 899.042969 772.277344 872.480469 768.84375 860 C 767.867188 856.464844 765.261719 847.558594 761 846.632813 C 759 846.191406 758.429688 852.640625 756.683594 853.820313 C 752.742188 856.484375 749 855.472656 745.96875 860.019531 C 737.753906 872.226563 738.613281 896.398438 718 893 L 718 892 C 731.917969 884.589844 751.359375 858 727 848.007813 C 721.910156 846 716.25 847.773438 711 848 C 713.941406 835.734375 723.304688 833 734 829 C 753.464844 821.699219 784.921875 814.644531 798.441406 836 C 809.613281 853.65625 785.816406 843.339844 781 856 C 777.71875 865.046875 776.546875 876 782.789063 884 C 786 888.136719 790.835938 890.605469 794 895 M 699 863.4375 C 709.332031 860.722656 709.652344 874.253906 700.996094 877.0625 C 691.792969 880.050781 690.714844 865.621094 699 863.4375 M 811 863.476563 C 819.183594 861.675781 825 875.664063 815.957031 877.472656 C 807.789063 879.097656 801.660156 865.542969 811 863.476563 M 475 869 L 475 870 C 483.304688 871.054688 491 872.820313 498 877.789063 C 521 894.296875 521.265625 930.691406 546 945 C 540.945313 910.773438 521.386719 849.296875 475 869 M 967 945 C 978.738281 939.523438 984.765625 925 990.246094 914 C 1001 892.222656 1011.996094 873.304688 1038 870 C 1029.234375 861.527344 1010.265625 866.371094 1001 872 C 979 885.113281 968.976563 920.804688 967 945 M 922 871 C 897 901.617188 859 913.316406 823 924 L 823 925 C 854.570313 926.355469 884.996094 920.769531 907.285156 896 C 912.332031 890.375 924.949219 879.527344 922 871 M 590 872 C 598.613281 902 632.652344 918.648438 661 923.414063 C 668 924.605469 685 930 690 923 C 679.410156 924.179688 669.515625 919.417969 660 915.425781 C 644.683594 909 628.230469 903.308594 615 893 C 606.636719 886.460938 599.6875 876.511719 590 872 M 420 905 L 420 906 C 425.933594 908.285156 431.605469 910 438 910 C 426.332031 921.660156 411.96875 931.613281 395 933 C 399.753906 942.277344 413 941.355469 422 941 C 432.890625 940.484375 443 936 454 935.089844 C 471.429688 934 488.636719 937 506 937 C 495.566406 914.8125 459.398438 920 440 920 L 440 919 C 452.355469 916.070313 467.488281 909.574219 475 899 C 455.863281 899 438.671875 900.171875 420 905 M 1071 918 L 1071 919 C 1052.878906 918.625 1037.691406 919.429688 1021 927.753906 C 1016 930.199219 1009.949219 932.179688 1007 937 C 1024.367188 937 1041.558594 934 1059 935.089844 C 1070.738281 936 1082.316406 940 1094 941.421875 C 1102.269531 942.507813 1113.953125 941.222656 1118 933 C 1106.566406 932.066406 1096.183594 926.410156 1087 920 C 1084.832031 918.3125 1077.992188 915 1078.632813 911.496094 C 1079.265625 908.183594 1089.269531 907.03125 1092 906 C 1082.644531 900.386719 1062.925781 898.132813 1052 898.003906 C 1049.53125 898 1040.652344 896.683594 1039.347656 899.429688 C 1038 902.027344 1044.425781 905.203125 1046 906.1875 C 1053.710938 911 1061.914063 916.433594 1071 918 M 332 903 L 333 904 L 332 903 M 806 943 C 810.738281 953.070313 821.296875 953.015625 831 953 C 853.457031 953 873.359375 940.324219 892 929.199219 C 898.222656 925.488281 909 922.066406 913 916 C 898.203125 916.003906 883.257813 919.640625 870 926.269531 C 847.875 937.332031 831.273438 951.425781 806 943 M 598 917 L 598 919 C 624.871094 922.621094 644.953125 944.511719 671 951 C 683.6875 954 697.546875 954.742188 706 943 C 700.21875 944 695 946.441406 689 945.824219 C 671.5625 944.035156 657.6875 930.515625 642 924.011719 C 627.871094 918.152344 613 917 598 917 M 228.667969 950.667969 C 228.722656 950.722656 228.777344 951.777344 228.332031 951.332031 C 228.277344 951.277344 228.222656 950.222656 228.667969 950.667969 M 1285 951 L 1284 952 L 1285 951 M 307 1039 C 314.46875 1035.441406 319.4375 1026.398438 324.425781 1020 C 335 1006.261719 344.902344 992.265625 353.304688 977 C 357.246094 970 362.265625 963.371094 363 955 C 354.984375 958.738281 348.78125 968.128906 343.425781 975 C 329.386719 993.007813 312.363281 1016.414063 307 1039 M 1150 955 C 1152 964.046875 1157.371094 972 1161.769531 980 C 1172.875 1000.410156 1187.96875 1025.109375 1206 1040 C 1204.4375 1029.558594 1198 1020.03125 1193 1011 C 1185.4375 997.6875 1178.296875 984.074219 1168.789063 972 C 1163.671875 965.5 1157.894531 958.058594 1150 955 M 382 1013 C 393.746094 1006.210938 403.207031 995.121094 414 987 C 422.8125 980.160156 435.179688 973.339844 440 963 C 412.953125 968.246094 388.714844 984.667969 382 1013 M 1074 963 C 1080.96875 978 1100.6875 986.246094 1113 996.261719 C 1119 1001.167969 1123.652344 1009 1130 1013 C 1127.566406 985.296875 1098.390625 967.730469 1074 963 M 755 975 C 770.710938 960.824219 786.359375 966.195313 805 973 C 809.46875 974.5625 827.722656 977.253906 823.339844 985 C 819.167969 992.34375 807.433594 997 800 1000 C 775 1010.320313 747.40625 1010.136719 722 1001.667969 C 713.550781 999 705.585938 995 698 990.1875 C 695.554688 988.6875 690.636719 986.441406 690.636719 983.011719 C 690.636719 977.699219 702.207031 975.335938 706 974 C 718 969.558594 749.4375 955.238281 755 975 M 556 985 L 556 986 C 541.421875 988.714844 522 990.691406 515 1006 C 551.402344 1006 588.753906 1004.550781 621 1024.460938 C 643 1038.140625 663 1078.199219 693 1075 C 686.71875 1070.757813 680.566406 1067.324219 675 1062 C 690.949219 1066.558594 705.648438 1074.601563 722 1078.347656 C 764.199219 1088.023438 796 1077.109375 835 1062 C 830 1067 821.644531 1070.4375 818 1076 C 848.410156 1069.722656 863.171875 1044.539063 887 1027.429688 C 915.3125 1007.097656 965 998.234375 999 1007 C 993.207031 990 969.3125 987 954 987 C 961.632813 983.324219 970.71875 984 979 984 C 998.75 984 1018.886719 987 1038 992 C 1047.335938 994.335938 1066.410156 1002.183594 1074.621094 993.625 C 1079.484375 988.5625 1058.523438 984 1055 982.667969 C 1031.972656 975 1010.613281 966.746094 986 969.074219 C 969.714844 970.613281 958.773438 980.351563 944 985.25 C 919.628906 993.328125 896.3125 993.550781 874 1008.519531 C 858 1019.183594 845.558594 1034 830 1045.089844 C 811.445313 1058.328125 787.746094 1066.351563 765 1068 C 730.851563 1070.25 694.25 1059.605469 667 1038.765625 C 653.558594 1028.484375 644.296875 1014 630 1004.699219 C 612.726563 993.539063 592 992.765625 573 986.65625 C 561.640625 983.015625 552.414063 975 541 971.441406 C 514.628906 963.570313 486.921875 973 462 981.332031 C 455.636719 983.460938 449.371094 986 443 988 C 441.25 988.566406 436.613281 989.726563 438.175781 992.546875 C 442 999.488281 460.203125 995.488281 466 994.117188 C 481.957031 990.335938 497.609375 985.730469 514 984.171875 C 527.894531 983 542 985 556 985 M 387 1072 L 388 1072 C 390 1060.347656 392.722656 1050.273438 399 1040 C 407.804688 1026 421.328125 1012.210938 426 996 C 396.667969 1005.730469 387 1045.324219 387 1072 M 1086 996 C 1096.191406 1020.480469 1123.773438 1043.523438 1124 1071 L 1126 1071 C 1126 1045.1875 1116 1003 1086 996 M 822 1004 C 817 1014.371094 802.167969 1021 792 1025 C 765.324219 1036 732.363281 1033.660156 707 1020.21875 C 697.722656 1015.300781 686.542969 1007.738281 682 998 C 696.566406 1003 709.378906 1012.125 724 1016.804688 C 759.578125 1028.195313 789.191406 1017.660156 822 1004 M 537 1037 C 528.789063 1076.789063 544.882813 1114.480469 548 1154 L 550 1154 C 547.699219 1125 546.882813 1096.082031 542.578125 1067 C 541.277344 1058.203125 543 1044 537 1037 M 974 1037 C 974 1055.753906 968.769531 1073.523438 966.28125 1092 C 963.449219 1113.023438 963 1133.8125 963 1155 C 967.550781 1147.453125 967.867188 1135.621094 969.425781 1127 C 973 1106.414063 977.40625 1086 979 1065 C 979.726563 1057.003906 982.292969 1041.828125 974 1037 M 560 1057 C 560 1085.589844 569.417969 1112.769531 570 1141 L 571 1141 C 575.753906 1121.261719 573.183594 1098.761719 569.75 1079 C 568.453125 1071.546875 566.957031 1061.253906 560 1057 M 950 1057 C 938.34375 1085.03125 940 1111.285156 940 1141 L 942 1141 C 942.832031 1121.703125 947.867188 1101.234375 950.425781 1082 C 951.371094 1075 954.652344 1063.140625 950 1057 M 675 1061 L 674 1062 L 675 1061 M 836 1061 L 835 1062 L 836 1061 M 506 1073 C 500.539063 1101.15625 505.285156 1128.171875 511.210938 1156 C 513.804688 1168.183594 518.742188 1180.46875 519 1193 L 521 1193 C 521 1162.15625 518 1131.1875 511.425781 1101 C 509.546875 1092.417969 511.1875 1080.277344 506 1073 M 1005 1073 C 1002.847656 1081 1003.1875 1089.808594 1001.550781 1098 C 995 1130.015625 991 1161.304688 991 1194 L 993 1194 C 993.582031 1165.769531 1004.273438 1137 1008.269531 1109 C 1009.855469 1098 1013.230469 1082.226563 1005 1073 M 638 1084 C 644.734375 1116.535156 665.96875 1144.382813 680 1174 L 681 1174 C 679 1150.589844 665 1124.824219 653.199219 1105 C 649 1098.039063 645.222656 1088.183594 638 1084 M 873 1084 C 859.28125 1102 849.359375 1124.097656 841 1145 C 837.285156 1154.285156 832.46875 1164.054688 831 1174 L 832 1174 C 844.785156 1153.113281 856.671875 1131.746094 865.800781 1109 C 868.574219 1102.089844 875.945313 1091.546875 873 1084 M 725 1124 C 725 1143.71875 728.933594 1163.402344 730.828125 1183 C 732.503906 1200.289063 732.265625 1218.148438 737 1235 L 738 1235 C 738 1207.070313 738.9375 1179.523438 733.398438 1152 C 731.632813 1143.222656 730.742188 1131.113281 725 1124 M 785 1125 C 783.707031 1140.816406 777.410156 1156.207031 775.28125 1172 C 772.539063 1192.359375 774 1213.476563 774 1234 L 776 1234 C 778.859375 1197.78125 787 1161.316406 787 1125 L 785 1125 M 861 1143 C 849.636719 1178 825.789063 1209.8125 825 1248 L 826 1248 C 837.578125 1223.539063 846 1197.613281 854.667969 1172 C 857.433594 1163.691406 864.671875 1151.746094 861 1143 M 650 1144 C 653.425781 1169.445313 664.925781 1195.3125 674.398438 1219 C 677.328125 1226.316406 680.308594 1240.578125 687 1245 C 682.300781 1219.703125 675 1197 665.398438 1173 C 661.53125 1163.511719 657.980469 1150.789063 650 1144 M 620 1151 C 620 1183 627.46875 1216.070313 641 1245 L 642 1245 C 642 1221.628906 636.199219 1199.367188 629.859375 1177 C 627.5 1168.671875 626.3125 1157.300781 620 1151 M 891 1151 C 879.179688 1181.472656 870 1212.046875 870 1245 L 871 1245 C 878 1222.769531 885.988281 1200.121094 889.574219 1177 C 890.796875 1169.132813 894.210938 1158.648438 891 1151 M 766 1218 C 765.992188 1229 762.828125 1239.214844 762 1250 C 761.234375 1262.492188 763.441406 1274.671875 765 1287 L 766 1287 C 769.808594 1271.195313 770 1254.171875 770 1238 C 770 1231.363281 770.601563 1223.285156 766 1218 M 744 1219 C 743.9375 1241 741.832031 1264.296875 747 1286 L 748 1286 C 752.183594 1263.46875 748.835938 1241.421875 746 1219 L 744 1219 M 462 1231 L 461 1232 L 462 1231 M 564.667969 1265.667969 C 564.722656 1265.722656 564.777344 1266.777344 564.332031 1266.332031 C 564.277344 1266.277344 564.222656 1265.222656 564.667969 1265.667969 "/>
</g>
</svg>
