<?xml version="1.0" encoding="UTF-8"?>
<svg xmlns="http://www.w3.org/2000/svg" xmlns:xlink="http://www.w3.org/1999/xlink" width="1500pt" height="1500pt" viewBox="0 0 1500 1500" version="1.1">
<g id="surface1">
<path style=" stroke:none;fill-rule:nonzero;fill:rgb(0%,0%,0%);fill-opacity:1;" d="M 449 110 L 449 111 L 457 114 L 457 115 C 451.960938 114 447.171875 112.234375 442 112 L 442 113 C 455.351563 117.558594 467.933594 123.054688 481 128 L 481 129 L 437 130 L 437 131 C 444.84375 131.066406 454.761719 131 462 134 C 440.859375 142.800781 421.21875 156.125 400 164.1875 C 385.578125 169.664063 369.921875 170 356 177.109375 C 339.789063 185.484375 327 199 311 207.691406 C 287.226563 220.578125 261 229.558594 239 245.429688 C 223.515625 256.5625 212.171875 271.484375 198.984375 285 C 179.777344 304.691406 147 320.714844 139.488281 349 C 136 361.421875 141.796875 373.347656 145.667969 385 C 149 395.472656 151.273438 406.292969 153.871094 417 C 162.4375 452.324219 170.550781 488.40625 187.257813 521 C 204.886719 555.390625 230.503906 584.089844 253.265625 615 C 268.746094 636.023438 281.5625 657.574219 288.265625 683 C 291.203125 694.148438 290.816406 717 301.183594 724 C 310.523438 730.351563 320.882813 720.726563 326.5625 714 C 340.214844 697.820313 353 671.386719 355 650 L 356 650 C 356 688.71875 360.253906 726.289063 376.304688 762 C 391.425781 795.640625 418.894531 823.011719 411.539063 862 C 407.191406 885.066406 396 906.164063 390.886719 929 C 387 945.445313 388.871094 962.632813 380.675781 978 C 372.3125 993.683594 358.582031 1006 347.882813 1020 C 333.4375 1039 321.9375 1059.496094 311.78125 1081 C 294 1118.328125 287.933594 1159.5625 276.84375 1199 C 271.871094 1216.6875 256.984375 1229.320313 251.910156 1247 C 240.789063 1285.734375 246 1326.386719 246 1366 L 247 1366 C 248.953125 1359.394531 248.28125 1352 249.433594 1345 C 252.636719 1326 255.957031 1306.746094 260.882813 1288 C 267.925781 1261.214844 281.738281 1238.003906 289.972656 1212 C 293.789063 1200 292.980469 1187.46875 293 1175 C 293 1173 292.34375 1164.054688 295.882813 1164.054688 C 299.171875 1164.054688 300.285156 1173.714844 300.882813 1176 C 303.597656 1186.324219 305.730469 1203.460938 316 1209 C 315.714844 1195.128906 309.457031 1181.71875 307.425781 1168 C 303.394531 1140.753906 306.199219 1116.011719 315 1090 L 316 1090 L 315 1116 C 319.519531 1113.234375 318.992188 1107.765625 320 1103 C 322.40625 1093.453125 325.214844 1084 329.308594 1075 C 344.476563 1042 375.222656 1016.59375 387 982 C 409.664063 1008 414.929688 1046.738281 428.859375 1078 C 440.859375 1105 455.90625 1130.472656 468.742188 1157 C 477 1174.265625 483 1192.515625 490.859375 1210 C 494.714844 1218.625 501.671875 1225.085938 504.945313 1234 C 513.398438 1257.027344 512.65625 1282.402344 518.882813 1306 C 520.945313 1313.8125 523.796875 1327.507813 531 1332 C 527.257813 1322.355469 522.519531 1312.289063 521 1302 L 522 1302 C 529.453125 1333.453125 560 1359.714844 588 1373 C 581.34375 1361.496094 564.515625 1351.714844 555 1342 C 586.613281 1363.617188 618.976563 1385 658 1390 L 658 1389 C 646.78125 1384.175781 634.335938 1382.421875 623 1377.574219 C 590.21875 1363.554688 549.910156 1334.21875 540 1298 L 541 1298 C 547.484375 1313.320313 565 1335 579 1344 C 577.347656 1339.019531 573.859375 1335.324219 571 1331 C 585.175781 1344.566406 602.78125 1355.832031 623 1356 L 623 1355 C 618.53125 1353.640625 613.632813 1352.679688 609 1352 L 609 1351 C 645 1355.566406 683.773438 1354.246094 717 1337.753906 C 724.933594 1333.8125 733 1330 740 1324.480469 C 753.183594 1314.09375 761 1303.164063 779 1301.167969 C 814.808594 1297.15625 841.867188 1321.414063 875 1330.117188 C 936.777344 1346.339844 1011.519531 1327.417969 1033.644531 1261 C 1037.417969 1249.671875 1039 1238 1039 1226 L 1038 1226 C 1034 1238.71875 1028.65625 1251.3125 1025 1264 L 1024 1264 C 1029 1239.132813 1028.859375 1215.394531 1040.257813 1192 C 1070.277344 1130.414063 1124.523438 1083.210938 1145.65625 1017 C 1152.703125 995 1154.59375 969.800781 1150.195313 947 C 1149.65625 944.21875 1146.269531 925 1142.378906 926 C 1139 926.78125 1142.390625 938 1142.726563 940 C 1145 955 1145 971.164063 1142.726563 986 C 1134.546875 1039 1096 1085 1061 1123 C 1072.386719 1093.648438 1079.804688 1063.226563 1088.421875 1033 C 1099.265625 995 1110.59375 956.457031 1114.835938 917 C 1116.410156 902.347656 1118.234375 886.746094 1116.828125 872 C 1115.925781 862.5 1111.851563 849.277344 1113.339844 840 C 1114.605469 832.144531 1121.265625 823.1875 1124.742188 816 C 1130.902344 803.261719 1136.386719 788.253906 1137 774 L 1138 774 C 1168.722656 855.175781 1212.777344 929.652344 1247.859375 1009 C 1266 1050.347656 1287.804688 1096.644531 1281.710938 1143 C 1278.617188 1166.511719 1266.546875 1188.539063 1250.828125 1206 C 1243.429688 1214.222656 1230 1221.640625 1226 1232 C 1238.996094 1228.25 1248.722656 1216 1257.28125 1206 C 1277.675781 1182.5625 1290.859375 1157.203125 1293.828125 1126 C 1294.601563 1118 1293 1110.039063 1293 1102 L 1294 1102 C 1294.667969 1116.601563 1302.679688 1131.175781 1306.972656 1145 C 1317.25 1178.066406 1327.253906 1211.082031 1340.851563 1243 C 1345.179688 1253.160156 1349.964844 1263.035156 1354.703125 1273 C 1356.84375 1277.503906 1358.734375 1283.207031 1363 1286 C 1339 1163 1286.375 1052.246094 1230.753906 941 C 1213.492188 906.480469 1195.445313 872.304688 1177.742188 838 C 1166.363281 816 1153.964844 793.488281 1148.660156 769 C 1140.558594 731.582031 1154 694.480469 1154 657 L 1155 657 C 1169 690.753906 1163.648438 728.59375 1169.585938 764 C 1171.777344 777.070313 1174.808594 796.296875 1189 802 C 1194.464844 804 1201.398438 803.324219 1203.277344 797 C 1205.582031 789.203125 1202.707031 781 1203 773 C 1203.769531 755.65625 1208.988281 736.453125 1220.296875 723 C 1238.464844 701.390625 1261 684 1277.84375 661 C 1311.789063 614.710938 1325.445313 559.078125 1332 503 C 1333.667969 490.367188 1334.339844 477.527344 1336.613281 465 C 1338 456.523438 1341.8125 447.667969 1339.199219 439 C 1336.269531 429.273438 1326.949219 421 1320 414 C 1306.1875 400.183594 1291.410156 387.300781 1278 373 C 1260.582031 354.203125 1243.816406 334.070313 1223 318.734375 C 1202.722656 303.792969 1178.933594 294.519531 1159 279.113281 C 1133.566406 259.453125 1112.210938 235 1087 215.003906 C 1078.425781 208.203125 1069.488281 201.757813 1060 196.285156 C 1054.273438 193 1046.703125 190.566406 1042 186 C 1058.230469 184 1072.800781 186 1089 186 L 1089 184 C 1070.5625 183.207031 1053.671875 178.640625 1035 181 C 1044.636719 171.570313 1054.816406 168.597656 1067 164 L 1067 163 C 1060.207031 163.296875 1054.355469 166 1048 168 C 1051.375 164.554688 1054.4375 161.09375 1057 157 C 1048.824219 157.667969 1041 161 1034 164.796875 C 1030.808594 166.558594 1026.882813 171 1023 170.605469 C 1018.859375 170.3125 1016 165.085938 1012.960938 162.789063 C 1007.519531 158.71875 1000.515625 156.53125 994 155 C 979.8125 151.332031 964.761719 151.175781 951 146 C 940.402344 142 932.589844 133 921 131.300781 C 906.863281 129.261719 893 137.1875 879 134.53125 C 865.761719 132.050781 855.71875 121.074219 842 120.089844 C 830.511719 119.265625 820.269531 126.335938 809 126 C 796.933594 125.367188 789.519531 115.722656 776 117.175781 C 765.386719 118.3125 755.832031 125 745 125 C 734.996094 125 728.199219 115.066406 718 115.613281 C 708.960938 116.097656 702.972656 124.648438 694 125 C 680 125.398438 669.332031 114 655 115.09375 C 643.523438 116.03125 635.570313 127.253906 624 127.722656 C 616.464844 128.027344 609.828125 122.421875 603 120.105469 C 595.175781 117.449219 586.921875 118 579 120 C 557.570313 125.058594 532.71875 141.726563 510 134.441406 C 504.578125 132.695313 503.332031 127.265625 500.378906 123 C 496.644531 117.613281 491.835938 113 486 110 C 488.628906 116.246094 493.433594 121.273438 497 127 C 480.644531 123.214844 466 110.777344 449 110 M 458 115.332031 C 458.773438 115.332031 458 115.832031 457.667969 115.667969 L 458 115.332031 M 461 116.332031 C 461.773438 116.332031 461 116.832031 460.667969 116.667969 L 461 116.332031 M 464 117 L 463 118 L 464 117 M 484 282 C 512.800781 253.199219 540.511719 222.230469 574 198.722656 C 597 182.550781 623.222656 172.292969 648 159.21875 C 661.25 152.226563 674.683594 145.613281 688 138.742188 C 696.371094 134.421875 704.464844 128.671875 714 127.300781 C 725.375 125.664063 733.203125 135.097656 744 135 C 757 134.59375 768.453125 125.4375 782 128.390625 C 793.371094 131 799.714844 143.363281 805.910156 152 C 814.386719 163.824219 825.199219 174.652344 839 180 C 856.390625 186.59375 875.683594 185 893 192.015625 C 916.464844 201.578125 933.523438 222.523438 951 240 C 937.398438 215.566406 915.972656 189.234375 889 179.4375 C 865.570313 171 839.371094 174.816406 821.589844 154 C 818.351563 150.203125 813 145.292969 812.679688 140.015625 C 812 134.046875 820.796875 133.019531 825 131.671875 C 836 128.128906 858 127 866.183594 138 C 868 140.65625 864.472656 145.054688 864.316406 148 C 864 152.367188 867 156.046875 870 159 C 882.359375 171.390625 897 166.695313 911 173.6875 C 918.871094 177.636719 923.769531 186 931 191 C 946.644531 201.574219 963.9375 208.683594 979 220.425781 C 999 236.117188 1016.667969 255.242188 1032.738281 275 C 1038.550781 282.144531 1042.546875 291.632813 1049 298 C 1032 268.765625 1017 242.019531 991 219.289063 C 975.417969 205.730469 955.226563 198.578125 940 184.824219 C 932.921875 178.429688 927.703125 170.167969 921.410156 163.039063 C 918.664063 160 913.917969 157.101563 912.648438 153 C 911.519531 149.355469 914 145.671875 917 143.742188 C 926.613281 137.433594 938.660156 149.074219 947 152.660156 C 964.464844 160.175781 984.984375 158.164063 1000.996094 169.789063 C 1008.738281 175.410156 1014.363281 189.617188 1008.347656 198.628906 C 1005.785156 202.464844 998.425781 195.625 996 194 C 984.269531 186.140625 973 177.414063 961 170 C 974.335938 187.359375 992 202.433594 1006.714844 219 C 1030.734375 246.332031 1052 275.402344 1073 305 C 1089.679688 328.226563 1109.25 355 1113 384 L 1112 384 C 1104.175781 365.203125 1092.308594 346.378906 1079 331 C 1085.984375 346 1096.585938 359.070313 1103.679688 374 C 1115.289063 398.425781 1120.273438 425.261719 1122.828125 452 C 1125.191406 476.726563 1116 500.5625 1119.28125 525 C 1124.324219 563.355469 1136 600.398438 1139.828125 639 C 1145 694.617188 1133.945313 752.636719 1115.308594 805 C 1105.765625 831.8125 1092.8125 857.460938 1076.804688 881 C 1064.691406 898.8125 1048.4375 913.433594 1037.453125 932 C 1029.695313 945.109375 1026 959.503906 1022 974 L 1021 974 C 1021 925.460938 1056.964844 896.492188 1073.796875 854 C 1084.871094 826.046875 1084.992188 795.113281 1091.425781 766 C 1098.6875 733.109375 1111.613281 702 1122 670 C 1099.839844 684.660156 1097.59375 719.046875 1090.710938 743 C 1078.378906 786 1067.261719 829.4375 1050.796875 871 C 1041.433594 894.636719 1024.867188 917.234375 1019 942 L 1018 942 C 1019.324219 925.242188 1017.90625 907.0625 1023.699219 891 C 1027 881.777344 1034.230469 874.664063 1038.625 866 C 1043.316406 856.757813 1045.207031 846.132813 1046.917969 836 C 1057 776.226563 1068.304688 715.613281 1070.960938 655 C 1072 631.148438 1073 607 1071.960938 583 C 1071.359375 569.273438 1069 555.832031 1070 542 C 1072 514.136719 1085 488.101563 1085 460 C 1085 428.53125 1078.652344 398.238281 1060.277344 372 C 1052.480469 361 1042.457031 351.679688 1033 342 C 1018.28125 327 1004.578125 312.0625 982 312 L 982 313 C 1003.832031 315.820313 1013.558594 334 1027.171875 349 C 1036.644531 359.476563 1046.777344 369.148438 1054.644531 381 C 1073.53125 409.457031 1086.367188 456.425781 1075 490 C 1066.269531 477 1058.902344 458.453125 1055.664063 443 C 1053 431 1053.21875 418.566406 1048.546875 407 C 1037.632813 380 1012.179688 358.402344 987 345 C 1002.425781 362.832031 1023 374.03125 1035.546875 395 C 1048.554688 416.820313 1046.910156 444.566406 1050 469 C 1041.175781 464.6875 1038.574219 453 1033.796875 445 C 1026 432.355469 1015.808594 420.589844 1003 413.015625 C 991.84375 406.417969 975.738281 402 963 406.386719 C 958 408.128906 951.433594 416.792969 946.316406 416 C 942.171875 415.316406 945.410156 403.390625 942.679688 400.183594 C 936 392.34375 923.222656 392.804688 915 387 C 921.636719 396.222656 934.675781 397.816406 937.484375 410 C 941.214844 426.179688 934.195313 437.679688 932.5625 453 C 932 457.492188 935.195313 461.542969 934.269531 466 C 933 471.367188 927.527344 475.265625 927.863281 481 C 928.371094 489.777344 943.757813 508 950 514 C 947.824219 509.089844 946.414063 504 944 499 C 942 494.730469 939 491.066406 936.761719 487 C 931.367188 477.714844 939.3125 472.386719 948 477 C 964 485.3125 975.882813 503.550781 994 508.359375 C 1001.175781 510.261719 1003.875 503.710938 1007.527344 499 C 1016.515625 487.414063 1030.226563 472.761719 1040.996094 489 C 1043 492.222656 1045 495.539063 1046.753906 499 C 1049.207031 504 1050.628906 508.71875 1052 514 L 1053 514 C 1052.652344 506 1050 498.039063 1049 490 C 1071.230469 492.824219 1066.605469 512 1062 529 C 1055.308594 554.769531 1036.34375 573.070313 1021 594 C 1015.292969 602.070313 1012 611.425781 1007 620 L 1006 620 C 991.523438 595.449219 979.460938 569.597656 965 545 C 960.882813 538 958.234375 528 953 522 C 957.675781 542.195313 969.234375 560.714844 976.574219 580 C 992.59375 622.070313 1008.480469 664.199219 1025.199219 706 C 1028.585938 714.460938 1032 723.378906 1037 731 C 1040.953125 736.78125 1047 741 1048.519531 748 C 1050.378906 757.21875 1046.265625 768 1045 777 C 1041.796875 800.132813 1039.183594 823.40625 1032.988281 846 C 1030.886719 853.679688 1028.726563 862 1025 869 C 1024 871.027344 1021.429688 875.421875 1018.601563 873.246094 C 1016.296875 871.476563 1016.421875 865.644531 1016.171875 863 C 1015.230469 853.121094 1016 841.816406 1017.425781 832 C 1022.316406 794.730469 1020 755.585938 1020 718 L 1018 718 C 1018 731.445313 1016.542969 744.722656 1014.410156 758 C 1013.972656 760.734375 1013.605469 770.804688 1009 770.078125 C 1005.949219 769.570313 1004.878906 764.476563 1004 762 C 1001.777344 754.035156 999.414063 746.058594 997.375 738 C 988.808594 704.171875 977.773438 671.003906 970 637 L 969 637 C 974.195313 677.21875 984.910156 716.613281 994.234375 756 C 997.871094 771.363281 1002.832031 786.253906 1004.714844 802 C 1008.953125 837.441406 1013.421875 874.253906 1012.996094 910 C 1012.773438 928.753906 1008.207031 947.132813 1009 966 C 1010.175781 991.710938 1024.882813 1015.417969 1025 1042 C 1025 1051.28125 1024.757813 1065.597656 1014.984375 1070.226563 C 1008.402344 1073.347656 1002.574219 1068.636719 996 1068.484375 C 989.238281 1068.328125 982.785156 1074.03125 976 1070.679688 C 967.695313 1066.5625 966.59375 1055 961.320313 1048 C 951.742188 1035.546875 938.910156 1025.710938 926 1017 L 926 1016 C 934.84375 1019.683594 943 1024.722656 951 1030 C 944.992188 1019.226563 935.921875 1010.148438 925 1004.324219 C 917.507813 1000.328125 908.570313 998.417969 902.214844 992.480469 C 894.878906 985.628906 899.945313 974.378906 895.597656 966 C 889.355469 954 875.839844 948.324219 869 937 C 874 938.199219 878.535156 940.394531 883 943 C 881.4375 931.417969 875.179688 920 865.996094 912.667969 C 860.765625 908.503906 853.730469 906.074219 849.394531 901 C 843.832031 894.277344 847.785156 885.101563 843.261719 878.003906 C 839.558594 872.195313 832.484375 869.769531 828.726563 864 C 825 858.511719 825.558594 852.113281 820.890625 847.015625 C 815.410156 841.027344 807.765625 837.621094 803 831 L 809 831 C 803.992188 824 799.257813 826.660156 793.621094 823 C 791.359375 821.371094 792 818.273438 788.902344 817.523438 C 786 817 783 818.421875 780.210938 817.242188 C 776.957031 816 775.460938 812.378906 771.984375 811.148438 C 767.585938 809.589844 762 810.832031 758.394531 807.484375 C 751.824219 801.519531 754.46875 789 753.425781 781 C 750.464844 758.714844 746.535156 736.488281 745.984375 714 C 745.828125 707.621094 742.28125 698.210938 745.515625 692.277344 C 748.222656 687.3125 755.53125 689.71875 760 689.320313 C 768.679688 688.546875 777 684.355469 784 679.238281 C 791 674.019531 797.328125 667.496094 801.929688 660 C 804.339844 656.078125 805.417969 650.765625 808.636719 647.429688 C 814.402344 641.457031 829.273438 641.515625 837 638.394531 C 855.503906 631 884.667969 605.695313 901.890625 630.089844 C 904 633.082031 904.992188 636.53125 906 640 C 908.804688 634.171875 907.898438 629 906 623 C 926 624.644531 934.621094 644.578125 938 662 L 939 662 C 938.589844 642.21875 927.238281 622.011719 908 615.671875 C 901 613.410156 894 611.441406 887 610.003906 C 884.453125 609.488281 879.757813 609.648438 878 607.398438 C 876 604.777344 877.863281 600 877.957031 597 C 878 591.027344 876.726563 584.714844 875 579 C 869.191406 558.421875 853.621094 542.042969 836 530.691406 C 777.378906 493 690.816406 499.308594 639 546.171875 C 621.632813 562 614.734375 584.332031 601.5625 603 C 589 620.777344 567.714844 630.226563 563 653 C 576 640.460938 584.410156 638.464844 600.996094 633.195313 C 604.183594 632.183594 607.988281 626.515625 611.183594 627.332031 C 624.238281 630.664063 633.859375 644.171875 646 649 C 658.273438 653.738281 672.632813 653 684 660.132813 C 698.5 669.429688 703.816406 685.402344 723 688 L 723 686 C 715.25 685.207031 696.96875 674.417969 697.304688 665.226563 C 697.433594 662 707.175781 656.644531 708.90625 652 C 716.511719 631.585938 715.714844 599.0625 700.675781 582.042969 C 690.367188 570.378906 666.445313 573.707031 662.203125 590 C 659.464844 600.515625 685.28125 616 665.984375 625.425781 C 663.824219 626.488281 661.390625 627 659 626.789063 C 656 626.636719 652.824219 626 650 625 C 625.242188 616.300781 628.957031 596.578125 638.242188 578 C 646.597656 561.277344 652.375 548.265625 669 537.695313 C 712.363281 510.125 781.292969 512.550781 824 540.34375 C 839.515625 550.441406 852.324219 567.550781 862.300781 583 C 866.574219 589.617188 870 598.160156 866.773438 606 C 863.910156 612.644531 855.300781 616.363281 849 619 C 850.320313 616 861.226563 599.78125 856.460938 597.207031 C 852.929688 595.300781 849.878906 609.066406 848.898438 611 C 843.777344 621.09375 829 627.628906 818 625.53125 C 792.652344 620.738281 819.210938 598.671875 820.394531 589 C 821.925781 576.519531 801.238281 569.710938 792 573.484375 C 770.570313 582.238281 766.429688 627.285156 783 641.773438 C 789.402344 647.324219 798 646 806 646 C 800.984375 663.382813 782.539063 678.3125 766 684.136719 C 761.355469 685.769531 750.800781 689.605469 746.601563 685.398438 C 743.644531 682.429688 745.363281 677.800781 749 676.738281 C 756 674.699219 768.339844 675.328125 776 675 L 776 673 C 767.484375 673.070313 758.289063 675.394531 750 672 C 747.386719 670.703125 743.933594 665.785156 748.316406 664.316406 C 751.847656 663.136719 756.472656 664.34375 760 665 C 756 661.816406 747.453125 662.3125 745.660156 657 C 744.253906 652.65625 748.945313 652 752 652.1875 C 766.367188 653.652344 776.503906 655.316406 791 652 L 791 651 C 778.605469 651 762 651.109375 751 644.582031 C 746.4375 642 741.480469 630 747.316406 626.027344 C 750 624.179688 754.832031 625 758 625 L 758 624 C 754.742188 623.195313 749.21875 623.1875 747 620.296875 C 745.828125 618.714844 746.496094 612.054688 743.84375 612.054688 C 741.59375 612.054688 741.222656 616.515625 741 618 C 740.480469 625.046875 742 633.222656 739.261719 640 C 736 647.238281 724.335938 645 718 645 L 718 646 C 722.472656 647.417969 735 646.199219 737.820313 649.601563 C 739.808594 652.136719 738.441406 656.148438 738.171875 659 C 736.789063 673.546875 729.578125 677 715 677 L 715 679 C 719.75 679 732.773438 675.445313 736.398438 678.066406 C 739.921875 680.613281 737 690.277344 737 694 C 736.921875 710.734375 737.226563 727.324219 738 744 C 738.894531 761.613281 749.699219 783.78125 742.363281 801 C 740.320313 805.792969 735.367188 811.71875 730 813.132813 C 727.882813 813.738281 726 812.226563 723.910156 813.617188 C 719.503906 816.472656 717.898438 822.136719 713.816406 825.347656 C 709 829.054688 702.769531 829.324219 698 833.328125 C 689.480469 840.511719 684.566406 851.023438 678.277344 860 C 674.960938 864.738281 670 868.828125 667.457031 874 C 665 879 666.625 884.28125 663.195313 889 C 654.890625 900.121094 643.933594 901.574219 639 916 C 644.242188 913.324219 648.542969 909.355469 654 907 C 647.402344 919.71875 634.90625 933.414063 626 945 L 631 942 C 626.679688 950.683594 620.183594 957.652344 617 967 C 622.273438 962 625.652344 956.347656 633 954 C 630.25 962.4375 625.789063 970 622 978 C 640 978.0625 613.179688 1003.492188 609 1011 C 612.339844 1010 615.523438 1008.597656 619 1008 C 612.179688 1021.691406 599.65625 1033.335938 591 1046 C 596.765625 1043.179688 601.667969 1039.511719 607 1036 C 600.460938 1053 579.21875 1053.824219 564 1051 C 567 1053.574219 570.261719 1055.433594 574 1057 L 574 1058 C 565.71875 1059.046875 558.273438 1058.652344 550 1058 C 558.441406 1065.441406 573.414063 1065 584 1065 C 579 1070.667969 571 1072 564 1073 C 535.792969 1077 515.277344 1058.246094 514 1030 C 512.570313 996.539063 526.175781 964.019531 523.910156 931 C 523 917.800781 517.597656 905.222656 517 892 C 516.742188 885.011719 521.492188 877.601563 520 871 C 518.664063 864.023438 507 857.152344 508 850.285156 C 508.933594 843.492188 517.269531 837.117188 518.5625 829 C 520.421875 817.308594 519.285156 805.726563 520 794 C 521.519531 773.097656 523.996094 752 524 731 L 525 731 C 525 756.601563 532.199219 782.394531 533.910156 808 C 534.929688 823.246094 526.671875 837 527 852 C 527.917969 891.46875 536 930.394531 536 970 C 535.96875 989.09375 530.75 1007.046875 536 1026 C 536.976563 1029.472656 540.78125 1043.621094 546.570313 1040.824219 C 551.917969 1038.238281 548.21875 1023.535156 547.964844 1019 C 547 1003.628906 545 988.433594 545 973 C 545 966.582031 544 959.695313 547.5625 954 C 562.988281 929.039063 586.441406 908 591 877 C 578.921875 885.515625 571 900.152344 562.710938 912 C 559.6875 916.238281 555.429688 925.175781 550 926.652344 C 543.324219 928.507813 539.882813 905.40625 541.652344 901 C 544.984375 892.695313 553.640625 887.246094 558.652344 880 C 570.929688 862.246094 581.601563 841.261719 586 820 C 567.332031 836.582031 562 872 539 884 C 538.414063 870.394531 532.746094 856.683594 535.667969 843 C 538.90625 828 553.851563 820.0625 560.875 807 C 567 795.488281 568.855469 782.203125 573.21875 770 C 578 756.617188 585.355469 744.484375 592 732 C 564.683594 752.8125 561.316406 788.039063 545 816 L 544 816 C 547.886719 795.0625 544.613281 773.199219 548.609375 752 C 554 723.128906 567 695 571 666 L 570 666 C 561.707031 695.4375 548.824219 724 539 753 L 538 753 C 534 734 532.636719 714.257813 529.867188 695 C 527.421875 678 523.433594 661.378906 525.171875 644 C 527.289063 622.824219 539.429688 602.648438 548.753906 584 C 566.171875 549.160156 581.402344 508.007813 611 481.285156 C 634.242188 460.320313 664.894531 453.425781 691 437.050781 C 697.402344 433.035156 706 429.726563 711 424 C 704.90625 424 697.8125 423.007813 692 425.132813 C 682.550781 428.585938 675.707031 436.6875 666 440 C 672.167969 431.269531 682 425.679688 690 418.710938 C 698 411.683594 704.839844 402.246094 710 393 C 722.632813 371.128906 729.351563 344.210938 726.828125 319 C 725.511719 305.828125 717.65625 294.695313 714.652344 282 C 710.8125 265.757813 712 248.566406 712 232 L 711 232 C 707 241.429688 708 259.199219 701 266 C 698.195313 259.359375 699.914063 247.566406 694.488281 242.410156 C 690.8125 239 682.625 243.144531 678 242.816406 C 662.675781 241.726563 641.734375 229.316406 627 237.050781 C 610.503906 245.707031 603.210938 264.703125 593 279 C 604.839844 270.660156 613.527344 257.585938 629 255.300781 C 637.453125 254.050781 646.636719 255.027344 655 256.433594 C 664.707031 258.066406 673.175781 262.207031 681 268.132813 C 725.480469 301.808594 716.246094 368.714844 685.878906 408 C 678.667969 417.328125 664.996094 438.789063 653 441.527344 C 649 442.414063 644.886719 440.394531 641 440.089844 C 627.964844 439.070313 617.660156 437.136719 606 431 C 611.429688 440.390625 620.378906 443.316406 629 449 C 623.863281 452.410156 617.167969 454.152344 611 454 C 607.925781 454 602 451.78125 599.753906 454.742188 C 595.996094 459.539063 609.332031 462 606 468.039063 C 599.167969 481 586.585938 491.128906 579 504 C 559.191406 537.671875 543 575.183594 527.425781 611 C 516.78125 635.460938 514.695313 662 505.191406 687 C 497.214844 708 489.746094 729.132813 481.398438 750 C 479.3125 755.21875 471.597656 767.335938 476 772.726563 C 478.808594 776 482 772.164063 483.839844 770 C 488.414063 764.085938 491.601563 756.734375 494.691406 750 C 506.964844 723.265625 516 693.5625 516 664 L 517 664 C 518.621094 676.5625 522.5 689.226563 521.960938 702 C 520.777344 730.074219 512.605469 759 509.285156 787 C 508 796.695313 510.738281 831.121094 492 822.582031 C 461.917969 809 464.46875 772.316406 464.984375 746 C 465 739.433594 463.441406 733.507813 465.300781 727 C 467.617188 719 473.933594 712.410156 477.742188 705 C 484.230469 692.367188 489 678.453125 493.667969 665 C 500 646.011719 505.828125 626.734375 509.386719 607 C 512 592.328125 512.480469 577.296875 517 563 C 520.46875 552.191406 526.738281 542.003906 532 532 C 524 540.757813 517.761719 551.007813 510 560 C 507.414063 563 504.203125 568.378906 500 569.167969 C 494.753906 570.15625 490.710938 562.398438 488 559 C 479.566406 547.796875 470.851563 536.71875 463 525 C 459.929688 520.414063 457 515 452.90625 511.1875 C 448.675781 507.492188 444 509.007813 441.714844 503 C 430.257813 474 444.839844 441.824219 457.753906 416 C 463.835938 404 470.53125 391.300781 481 382.300781 C 495.835938 369.542969 515.78125 365.742188 534 360.28125 C 545 357 556.265625 353 568 354.175781 C 574 355 580 357.832031 585 361.523438 C 587.480469 363.402344 591 368.019531 594.71875 367.167969 C 599.273438 366.078125 596.601563 358.515625 595.234375 356.003906 C 590.222656 346.777344 578.996094 343.441406 573 335 C 587.792969 334.695313 603 332.027344 617 339 C 610 330.351563 599 325.054688 590 319 C 602 302 628.738281 299.058594 647 307 C 652.636719 309.285156 659.542969 312.261719 662.429688 318.015625 C 668.886719 331 666.496094 357.773438 659.472656 370 C 655.199219 377.433594 647.878906 383 642 389 C 640.734375 390.371094 630.269531 404.054688 638 401.765625 C 643.320313 400.222656 648.652344 395.070313 653 392 C 672.289063 377.542969 691.730469 343 681.515625 318 C 675.691406 303.742188 652.289063 290.53125 638 286.445313 C 628.90625 284 619.894531 289.300781 612 293.246094 C 591.964844 303.265625 574.726563 316.589844 557 330.117188 C 532.394531 349 501.5625 352.144531 476 368.699219 C 446.367188 388 432.414063 428 426.425781 461 C 419.84375 497.417969 428.367188 533.605469 429.960938 570 C 431 597.285156 428.84375 624.714844 430 652 C 431.683594 689.527344 437.886719 727.144531 449.34375 763 C 455.554688 782.433594 462.976563 802 474.355469 819 C 484.769531 834.613281 499 848.167969 505.933594 866 C 509.617188 875.703125 509.863281 886 511.804688 896 C 513.886719 906.792969 517.46875 917 516.960938 928 C 516.410156 940.160156 513 951.484375 513 964 L 512 964 C 511.96875 917.820313 485.453125 887 462 850 C 443 820.136719 427.535156 787.546875 416.355469 754 C 389.273438 672.757813 394.839844 585.515625 405.71875 502 C 409.960938 469.4375 410.402344 434.371094 424.308594 404 C 433.867188 383.121094 447 363.605469 463 347 C 476.648438 332.769531 493.480469 319.820313 504 303 C 475.574219 331.425781 438.917969 356.222656 419 392 L 418 392 C 419.539063 380.570313 426.375 371.082031 429 360 C 409.441406 375 401.1875 400.316406 398 424 L 397 424 C 398.316406 407.332031 400 390.566406 406.617188 375 C 410 367 416.492188 360.390625 419.453125 352 C 421.777344 345.410156 420.207031 338.71875 421.324219 332 C 422.921875 322.421875 428.558594 313.789063 434 306 C 446.738281 288 463.761719 273 478.960938 257 C 508.378906 226.234375 541.800781 191 560 152 C 532.703125 179.296875 508 209.375 482.171875 238 C 471.226563 250.101563 460.828125 266.429688 446 274 C 450.226563 265.121094 458.34375 259.167969 464.828125 252 C 479.292969 236.015625 494.230469 220.550781 506.84375 203 C 513.785156 193.34375 520.367188 181.257813 519.957031 169 C 519.792969 164.105469 512.664063 151.207031 515 147.601563 C 518 143.191406 536.699219 143 542 141.523438 C 558.539063 137.390625 578.847656 125.050781 596 127.183594 C 605.828125 128.410156 613.59375 136.289063 623 139 C 616.347656 147.027344 604.46875 151.105469 596 157.140625 C 573.300781 173.324219 550.769531 190.261719 531 210 C 523.941406 217.046875 514.628906 224.078125 510 233 C 525.203125 227.109375 539.4375 208.566406 552 198.078125 C 578.40625 176.039063 605.910156 156.015625 635 137.679688 C 645.898438 130.8125 658.398438 121.605469 672 126.105469 C 674.59375 127 681.800781 129 682.367188 132.121094 C 683 136.027344 672.628906 139.402344 670 141 C 656.3125 148.453125 643 156.789063 629 163.753906 C 618.425781 169 606.324219 169.710938 596 175.4375 C 564.960938 192.664063 539.382813 220 515.828125 246 C 505 258 492.894531 268.550781 484 282 M 498 127 L 497 128 L 498 127 M 401 249 C 412.578125 240.820313 414.894531 227.496094 419.4375 215 C 427 193.785156 441.457031 169.320313 466 166 C 456.628906 185.695313 437.308594 200.140625 427 220 C 399 274.425781 370.324219 336.488281 364.167969 398 C 362 419.683594 365.820313 440.417969 366 462 L 367 462 C 373.617188 426.355469 372.464844 389.714844 380.652344 354 C 388 321.707031 403.703125 293.523438 415.796875 263 C 423.617188 243.257813 429.488281 221.066406 444.175781 205.015625 C 451.382813 197.136719 460.84375 191.828125 470 186.578125 C 476 183.078125 482 178.734375 489 177 C 478.898438 201.25 454.78125 215.054688 442.785156 238 C 435.511719 252 433.765625 268 427 282 C 415.976563 305.683594 399.234375 325 390 350 C 382.613281 370.296875 376.988281 392.316406 376 414 C 375.261719 431.726563 377.734375 449.316406 376.960938 467 C 376.351563 481 370 494.03125 370 508 C 362.875 503 360.921875 495 355 489 C 369.210938 548.679688 364 607 341.398438 664 C 335.59375 678.636719 329 693.546875 319.332031 706 C 315.921875 710.320313 309.3125 718.027344 303.226563 713.394531 C 295.808594 707.75 298.996094 690.128906 299 682 C 299 653.566406 312 619 301 592 L 300 592 C 299.941406 599.175781 299.453125 607 298.421875 614 C 298.1875 615.601563 298.183594 620.792969 295.699219 620.792969 C 292.273438 620.792969 290.816406 612.402344 289.996094 610 C 286.226563 599 281.773438 588 275.574219 578 C 267.265625 564.683594 254.910156 554.679688 245.746094 542 C 226.597656 515.511719 214.851563 481.828125 219 449 C 214.210938 454.046875 214.925781 461.457031 215 468 C 215.234375 487.222656 224.714844 503 229 521 L 228 521 C 209 490.378906 200.300781 458.460938 192 424 L 191 424 C 191 454.789063 195.941406 485 211.425781 512 C 223.828125 533.664063 243 550.296875 258 570 C 282 601.496094 294 634.570313 294 674 L 293 674 C 286.617188 630.769531 246.5625 594.539063 221.882813 561 C 194.464844 523.738281 176.808594 479.472656 165 435 C 161.722656 422.097656 157 409.28125 155.289063 396 C 154.347656 388.738281 156.566406 381.078125 155.519531 374 C 154.839844 369.40625 144.816406 355.675781 154 354.148438 C 165.867188 352.199219 176.351563 363.035156 183.28125 371 C 185.804688 374 190.589844 377.734375 190.402344 382 C 189.941406 392.566406 172.714844 400 164 400 C 171.867188 410.613281 174.429688 422.066406 180 434 L 181 434 C 179 427 175.3125 419.503906 177.855469 412 C 180.824219 403.226563 191 399 195.636719 391 C 205.1875 374.542969 193.566406 353 178 345 C 171.199219 341.546875 163.296875 341 156 339 C 168.507813 317.046875 193.449219 308.714844 211 292 C 214 289.078125 219.378906 285.242188 220.8125 281.210938 C 222.902344 275.332031 218.445313 273.273438 225 267.171875 C 251.199219 243 287.753906 231 319 214.742188 C 332.710938 207.648438 342.640625 195.40625 356 188 C 367.382813 181.460938 380.566406 180.21875 393 177 C 387.363281 188 377.703125 197.183594 371.425781 208 C 351.414063 242.460938 334.984375 279 314.398438 313 C 300.722656 335.671875 282.867188 356 270 379 C 305.457031 342 332.480469 296.410156 357.574219 252 C 373 224.488281 386.378906 194.621094 410 173 C 426.242188 158 447 149.105469 467 140.308594 C 471.332031 138.394531 486.378906 133.121094 488.167969 141.214844 C 489.28125 146.25 480.484375 152.765625 477 155.199219 C 463.738281 164.460938 445.597656 162.152344 432 172.679688 C 415.257813 185.644531 414 207.152344 409 226 C 407 234 403 241.148438 401 249 M 606 193 C 617.695313 192 629 185 640 180.808594 C 665.636719 171.058594 690.988281 159.289063 718 153.800781 C 727 152 737.253906 150.148438 746 154.328125 C 749.390625 156 753.554688 158.628906 752.621094 163 C 750.414063 173.367188 734 175.269531 726 178 L 726 179 C 733.296875 179.574219 740.648438 180.695313 748 179.816406 C 752.5 179.277344 756.835938 176.789063 760.773438 180.320313 C 767.824219 186.632813 770.726563 202.019531 771.84375 211 C 773.980469 228.148438 769.785156 244 769 261 C 768.171875 280.816406 774.921875 304.59375 759 321 C 756.421875 303.792969 745 288.011719 740.894531 271 C 734.601563 245.824219 741.367188 222 731.398438 197 C 729 191.253906 727.203125 181.316406 721.785156 177.648438 C 717.460938 174.714844 711.847656 179.710938 708 181.511719 C 696.390625 187 683.347656 188.789063 671 192 C 643.761719 198.675781 614 203.636719 591 220.757813 C 573.609375 233.671875 561.230469 252.082031 546.828125 268 C 536.558594 279.351563 523.707031 289.605469 516 303 C 533.507813 297.191406 550.3125 276.203125 564 264.15625 C 592.558594 239.015625 619.722656 219.757813 656 207.667969 C 667.804688 203.730469 681.347656 198.527344 694 199.105469 C 697.628906 199.269531 701.550781 200.09375 705 201.222656 C 735.558594 211.25 711.667969 244.597656 716 266 C 722.4375 297.761719 744.511719 325 745.960938 358 C 747 383.074219 738.394531 409.089844 731.847656 433 C 729.289063 442.34375 725.421875 451.191406 725 461 L 726 461 C 729.65625 454.058594 731.976563 446.3125 734.8125 439 C 738 430.371094 741 421.648438 744.425781 413 C 745 411.21875 746.597656 405.054688 749 405.054688 C 752.890625 405.054688 753.894531 422.074219 754.425781 425 C 757.214844 440.464844 762 469.589844 777 478 C 776.660156 461.625 770.574219 444.796875 766.628906 429 C 765 422.660156 761 413.542969 762.613281 407.003906 C 764.339844 400 771 400.003906 777 400 C 773.75 388.121094 767.550781 376.746094 768.210938 364 C 769 345.761719 781 331 783.570313 313 C 786 296 783 278.171875 783 261 L 784 261 C 786.976563 277.703125 799.449219 291.632813 801.710938 309 C 804.382813 329.519531 799 350.394531 800 371 C 801 395.621094 814 420.671875 831 438 C 811.941406 438 801.652344 429.804688 786 421 C 788 432.355469 799 439.675781 809 444.136719 C 829.382813 453.320313 853.773438 454.457031 872 468.238281 C 892.929688 484.066406 902 508.394531 915.425781 530 C 928.898438 551.757813 945.492188 571.433594 957.691406 594 C 968 613.308594 974 635 979.371094 656 C 983 670.558594 985.433594 685.6875 989.925781 700 C 990.941406 703.242188 996.308594 712.386719 999.730469 706 C 1001.785156 702 998.4375 696.632813 997 693 C 993.269531 683 990.726563 672.394531 988 662 C 981.300781 634.695313 975.214844 607 961.691406 582 C 951 562.4375 935.683594 546.007813 924.203125 527 C 918.464844 517.492188 913.785156 507.273438 909.601563 497 C 908 493.34375 904.992188 488.078125 905.902344 484.003906 C 906.808594 480 911.574219 477.171875 914 474 C 907.925781 474 896 472.808594 892.921875 466.5 C 890.941406 462.613281 900.4375 460.804688 894.832031 457.785156 C 883.578125 451.71875 868.300781 446.0625 856 442.4375 C 849.527344 440.53125 841.773438 441.210938 836 437.296875 C 829.320313 432.746094 826.492188 424.3125 824 417 C 818 399.484375 813.851563 380.519531 813 362 C 811.980469 338 820.585938 316.5 821.789063 293 C 822.21875 284.675781 817.910156 275.203125 810 272 C 811.191406 277 813 283 812.601563 288 C 812.429688 290 811 293.21875 808.59375 291.363281 C 804.292969 288.0625 802.589844 278.773438 800.242188 274 C 791.320313 256 782.726563 243.546875 784.824219 223 C 785.300781 218.339844 781.761719 209.289063 785.742188 205.695313 C 788.371094 203.320313 794.769531 206 798 206 C 809.347656 206.269531 820.609375 204.066406 832 205.171875 C 868 208.65625 903.410156 227.027344 932 248.375 C 945.253906 258.269531 956.632813 271.8125 971 280 C 965.652344 268.328125 953.179688 260.417969 944 252 C 914.347656 224.433594 879.894531 201.0625 840 192 C 826.472656 188.777344 812.300781 192.160156 799 188.511719 C 776 182.214844 773.453125 152.234375 753 142.402344 C 741.484375 137 727.796875 139.691406 716 142.628906 C 688 149.570313 660 161.472656 635 175.574219 C 625.878906 180.714844 612.542969 184.660156 606 193 M 905 141 C 903.664063 144 901.925781 146.519531 899.710938 149 C 886 164.160156 872.964844 142.738281 893 141.09375 C 896.964844 140.769531 901 141 905 141 M 1048 168 L 1048 169 L 1045 170 C 1046.222656 168.804688 1046.421875 168.683594 1048 168 M 1196 777 L 1195 777 C 1183.433594 741.4375 1180.566406 704.167969 1171.523438 668 C 1167.664063 652.554688 1156.40625 632.75 1157.210938 617 C 1158 601.171875 1160.375 586 1159.984375 570 C 1159.636719 555.710938 1156.945313 540.238281 1159.464844 526 C 1161.769531 513 1170 502.503906 1173.789063 490 C 1176.804688 479.808594 1175.65625 469.164063 1173 459 C 1167.90625 438.308594 1157.265625 419.464844 1151.425781 399 C 1142.480469 367.640625 1139.441406 337.167969 1121.308594 309 C 1106.316406 285.714844 1084.621094 271 1067.464844 250 C 1057.316406 237.617188 1048.699219 218.566406 1045 203 C 1068.464844 208.429688 1094.554688 231.246094 1108.761719 250 C 1123.542969 269.515625 1128.539063 298.246094 1137 321 C 1156.59375 373.253906 1184.941406 426.503906 1180.910156 484 C 1180 495.683594 1174 506.574219 1171.808594 518 C 1168.652344 533.523438 1168.984375 549.296875 1167.910156 565 C 1167 577.742188 1163.941406 590.121094 1165.171875 603 C 1170.742188 661.503906 1193.457031 717.824219 1196 777 M 951 240 C 952 242 952 242.097656 954 243 C 952.898438 241.542969 952.457031 241.101563 951 240 M 807 241 C 807.828125 247.132813 810.527344 268 817 270 C 823 271.757813 830 265.773438 835 263.257813 C 845 258.054688 860.351563 251.328125 872 254.636719 C 884.269531 258.121094 893.429688 269.804688 903 277.539063 C 921.820313 292.746094 951.191406 313 976 315 L 976 314 C 945.964844 292.425781 923 256.4375 887 244.101563 C 863.910156 236.191406 843 253.703125 821 249.773438 C 815.519531 248.800781 811.421875 244.023438 807 241 M 294 246 C 283.40625 255.246094 272.382813 265 260 271.6875 C 254.765625 274.5625 244.738281 275.675781 240.703125 279.597656 C 236.660156 283.53125 238 292 236.558594 297 C 234 305.496094 227.480469 312 224 320 C 232.71875 317.222656 241.722656 309.410156 245.472656 301 C 247.460938 296.535156 247.433594 291.046875 250.511719 287.105469 C 257 278.613281 271.558594 272.285156 280 265 C 284.828125 261 296.414063 253.441406 294 246 M 973 247 C 976.589844 257.820313 988 266.160156 996 274 C 1010 288 1024.304688 301.703125 1036.914063 317 C 1045 327 1051.835938 339.648438 1064 345 C 1062.832031 333.597656 1052.433594 325.121094 1045.285156 317 C 1030.261719 300 1015 283.085938 999 267 C 991.398438 259.398438 983.660156 250.136719 973 247 M 1265 376 C 1255.367188 370.636719 1246.699219 362.148438 1236 359 C 1249.613281 379 1270.25 392 1290 405 C 1298.296875 410.53125 1313.429688 417.089844 1317 427 C 1320.214844 435.269531 1298 433 1293 436.003906 C 1275.308594 446.75 1278.570313 468 1291 481 C 1290.203125 462.484375 1292.449219 449.152344 1313 445.714844 C 1316.746094 445.085938 1325 441.816406 1327.972656 445.601563 C 1330.515625 449 1327.796875 455.40625 1327.285156 459 C 1325.613281 470.78125 1325.363281 483.125 1325 495 C 1323.195313 557.042969 1300 623 1258 669 C 1245.292969 683 1231.472656 695.417969 1216 706.277344 C 1212.722656 708.582031 1203.671875 717 1199.429688 715 C 1195 712.6875 1195.414063 702.074219 1194.949219 698 C 1193 681.550781 1188.644531 665.328125 1185.921875 649 C 1179.574219 611 1174.449219 572.542969 1177 534 C 1178.394531 515 1185 497 1186.828125 478 C 1188.257813 463.074219 1185 448.753906 1184 434 C 1202.171875 455 1215.691406 478.066406 1237 496.574219 C 1241.859375 500.796875 1246.339844 505.347656 1250.824219 510 C 1251.835938 511 1254 514.179688 1255.722656 512.363281 C 1259.804688 507.769531 1256.589844 496.105469 1253.46875 492 C 1242.898438 478.105469 1224.933594 467.800781 1212 456 C 1203.628906 448.363281 1189 439.296875 1183.3125 429.675781 C 1177 419.273438 1176 401.769531 1172.847656 390 C 1166.96875 368.28125 1158.390625 347.648438 1149.578125 327 C 1144.246094 314.507813 1139.609375 302 1135.332031 289 C 1133.703125 284.089844 1130.511719 276.40625 1131.488281 271.167969 C 1132.347656 266.546875 1136.824219 271.453125 1138 273.019531 C 1146 282.703125 1155 290.621094 1166 297 C 1179 304.675781 1193.421875 310.433594 1206 319.027344 C 1219.390625 328.179688 1230.457031 339.722656 1242 351 C 1249.886719 358.679688 1260.582031 365.566406 1265 376 M 483 282 C 481 284 480 285.46875 479 288 C 481.277344 286.210938 482.832031 285 483 282 M 987 345 C 977.460938 333.488281 959 333 946 327.546875 C 935 323.089844 925.675781 315.414063 915 310.257813 C 887.878906 297.160156 837.394531 296.730469 833.175781 336 C 829.671875 368.605469 858.425781 381 881 396.722656 C 886.503906 400.574219 891.214844 405.121094 895.828125 410 C 897 411.210938 899.3125 414.570313 901.433594 413.652344 C 903.695313 412.675781 902.421875 408.609375 901.894531 407 C 899.792969 400.597656 895.835938 394.707031 890.984375 390.089844 C 874.613281 374.511719 835.316406 360.691406 846.265625 331 C 851.726563 316.183594 870.953125 315.691406 884 316.015625 C 901.574219 316.453125 917 329 933 335 C 950 341.332031 969.25 341.558594 987 345 M 622 316 C 625.769531 322.765625 632.613281 329.085938 633.785156 337 C 635.402344 348 627 355.765625 619 361.570313 C 605.976563 371 592.574219 377 589 394 C 595.4375 392.753906 600.578125 388.179688 606 384.691406 C 617.210938 377.476563 631.484375 371.714844 637.597656 359 C 644.414063 344.820313 637.738281 321.027344 622 316 M 228 444 L 229 444 C 236.324219 421 229.246094 399.414063 229 376 C 228.832031 359.214844 234.65625 343.433594 236 327 C 229.570313 331.214844 225.558594 345 222.8125 352 C 211.472656 381.289063 211.976563 416.542969 228 444 M 877 329 C 851.90625 346.28125 880.265625 367.753906 898 376.214844 C 906.628906 380.332031 917.472656 383.242188 926 377.347656 C 931.316406 373.671875 935.269531 366.328125 942 365.09375 C 947.765625 364.035156 953.65625 367.667969 959 369.277344 C 967.816406 372 976.980469 373.25 986 375 C 983.378906 371.035156 978 369.765625 974 367.394531 C 963.316406 361.113281 950.28125 350.140625 937 352.214844 C 928.859375 353.484375 924.710938 362.117188 917 364.15625 C 906.675781 367 885.742188 353.699219 879.789063 346 C 875 339.722656 879.171875 335.117188 877 329 M 1067 334 C 1069.445313 347.707031 1086.917969 367.730469 1099 374 C 1093.601563 361.492188 1079.515625 340 1067 334 M 1201 339 C 1204.855469 347.105469 1211.820313 351.617188 1217.714844 358.039063 C 1227.398438 368.597656 1235.71875 381 1241.691406 394 C 1251.367188 415.121094 1252.78125 438.371094 1256.273438 461 C 1258.230469 473.679688 1262 486.15625 1262.910156 499 C 1263.277344 504.382813 1261.667969 509.675781 1262.175781 515 C 1263 524.433594 1269.613281 532 1271.765625 541 C 1275.285156 556 1273.183594 570 1272 585 L 1273 585 C 1283.425781 565.421875 1290.332031 537.078125 1281 516 C 1289.957031 515.808594 1297.167969 512 1300 503 C 1292.921875 503 1284.320313 504.128906 1278 500 C 1272.609375 496.351563 1271.265625 489 1269.578125 483 C 1265.441406 468.507813 1264.25 454 1262.828125 439 C 1259.804688 407.230469 1245.9375 382 1224 359 C 1217 351.785156 1210.988281 342 1201 339 M 1078 366 C 1081.339844 390.765625 1092.734375 415.148438 1097.390625 440 C 1106.539063 488.832031 1109 539.460938 1109 589 C 1109 606.722656 1108.8125 624.339844 1108 642 C 1107.941406 644.199219 1106.695313 658.191406 1110.933594 656.652344 C 1115.546875 655 1116.199219 646 1117 642 C 1119.953125 627.242188 1121 612.027344 1121 597 C 1121 542.8125 1110.636719 488.617188 1103.425781 435 C 1101.71875 422.324219 1100.535156 409.632813 1098.414063 397 C 1097.503906 391.589844 1097.21875 385.808594 1092 383 C 1092.71875 388.664063 1093.882813 394.277344 1094 400 L 1093 400 C 1091.441406 389.4375 1086.257813 373.078125 1078 366 M 471 429 L 481 425 C 471 441.675781 453.824219 449.636719 443 465 C 446.546875 464.691406 451.433594 462.34375 454.851563 463.644531 C 462.28125 466.464844 452.8125 481.585938 451 486 C 460.902344 480.421875 471.449219 456.804688 487 461.648438 C 493.859375 463.78125 501.253906 474.09375 504.859375 480 C 507.488281 484.308594 507.898438 489.644531 514 490 C 528.230469 490.503906 541.820313 476.539063 552 468.398438 C 555.671875 465.464844 560 460.699219 565 460 C 574 458.546875 572.398438 472.738281 571.824219 478 C 571.421875 481.707031 570.351563 485.4375 569.277344 489 C 567.257813 495.714844 564 502.015625 563 509 C 568.960938 505.496094 572.242188 498.003906 575.246094 492 C 590.671875 461.148438 574.296875 439 570.289063 408 C 569.210938 399.6875 570 391 572.695313 383 C 573.488281 380.667969 576 376.054688 573.382813 374.046875 C 570.644531 372 567.375 375.089844 565.761719 377.058594 C 560.34375 383.660156 556.578125 391 549 395.519531 C 540 401 529.847656 400.007813 520 401.289063 C 503.394531 403.449219 478.515625 413 471 429 M 268 380 C 266 382.328125 264.941406 384.171875 264 387 C 266.527344 385 268.449219 383.328125 268 380 M 543 420 L 543 421 C 534.554688 422.242188 526.621094 425.628906 518 426 C 524.488281 419.117188 534.277344 420 543 420 M 992 436 C 985 439 975.980469 435.609375 969 434.007813 C 965.925781 433.300781 962 433.050781 961.421875 437.058594 C 959.816406 446.769531 976.625 457 985 456 C 991 455.273438 1002.898438 438.3125 1004.8125 452 C 1005 453.644531 1005 455.34375 1004.996094 457 C 1004.980469 459.011719 1004.9375 461.03125 1004.46875 463 C 1001.332031 476.160156 988 479 977 474.535156 C 963 469.023438 949 453.003906 952.34375 437 C 955.992188 419.230469 982.347656 432.039063 992 436 M 547.941406 432.566406 C 554.351563 432 549.886719 441.4375 548.480469 444 C 544.488281 451.300781 537.550781 457.746094 529 458.816406 C 516.285156 460.402344 485.316406 449.222656 507 435.605469 C 513.777344 431.347656 520 439.832031 527 440 C 535.222656 440.019531 540.558594 433.3125 547.941406 432.566406 M 548 457 C 549.644531 454.355469 559.695313 438.515625 563.914063 443.695313 C 567.835938 448.503906 551 456.074219 548 457 M 958 473 C 951.675781 470.550781 944.882813 464.667969 942.804688 458 C 942.242188 456.199219 941 451.398438 943.558594 450.347656 C 945.984375 449.289063 947.902344 453.476563 948.742188 455.003906 C 951.980469 461 956 466.492188 958 473 M 1017.980469 463.492188 C 1024.316406 462.257813 1022.316406 469.023438 1020 472 C 1015 478.300781 1001.238281 494 993 494.667969 C 989.21875 495 981.367188 491.054688 984.660156 486.394531 C 987.425781 482.480469 994 482.105469 998 479.773438 C 1004.816406 475.726563 1010 465.046875 1017.980469 463.492188 M 1233 672 C 1256.347656 661 1265.617188 640.285156 1277.3125 619 C 1285 604.808594 1294.597656 592.523438 1299.921875 577 C 1312.3125 541 1311 502.632813 1311 465 C 1293.871094 473.425781 1304.382813 507.078125 1302.425781 522 C 1297.800781 557.226563 1286.375 586.660156 1267.574219 617 C 1260.941406 627.710938 1254.519531 638.6875 1247.277344 649 C 1242.171875 656.277344 1235.550781 663.335938 1233 672 M 541 730 L 543 730 C 543.617188 715.628906 547.460938 701.34375 548.828125 687 C 551.976563 654.082031 553.722656 621.3125 573 593 C 586.234375 573.632813 603.773438 557.160156 622 542.601563 C 668.941406 505.105469 728.675781 475 790 489.234375 C 824 497.195313 854 519.230469 879 543 C 893.386719 556.648438 908.53125 570.210938 918 588 C 911.234375 584.488281 907.691406 577.5 901 574 C 902.484375 580.25 905.277344 586.527344 911 590 C 915.320313 592.601563 919.976563 592.242188 923.699219 596.109375 C 933.878906 606.675781 939.433594 623.285156 943.804688 637 C 954.210938 669.632813 948.75 703.585938 953 737 C 955.730469 756.476563 967.199219 778.535156 974.191406 797 C 981 815.132813 986.464844 834.453125 985.984375 854 C 985.757813 863.378906 982.578125 874 972 876 C 961.96875 878 953.257813 866.539063 947.574219 860 C 937.988281 849 927.363281 839.238281 917 829 C 911.246094 823.3125 905.992188 816.375 898 814 C 901.378906 822.066406 906.824219 828.78125 911.644531 836 C 927.496094 859.730469 952.546875 898.519531 985 879 C 985 886.71875 984 894.304688 984 902 C 983.996094 907 985 913.542969 982.820313 918 C 978.585938 926 962 934.128906 954 928.347656 C 940.503906 918.632813 928.683594 901 918 888 C 913.515625 882.457031 909.632813 875.160156 903 872 C 911.792969 903 945.949219 965.089844 984 935 C 984 958.265625 987.519531 981 989.832031 1004 C 990.976563 1015.464844 990.203125 1028.234375 994.878906 1039 C 998.972656 1048.421875 1008.265625 1052.203125 1018 1053 C 1014.429688 1040.625 1006 1031.152344 1003.609375 1018 C 997.941406 988 999 958.347656 999 928 C 999 894.5 998.210938 861.363281 995.910156 828 C 994.941406 814 985.757813 803.484375 983 790 C 977.921875 765.109375 979 739.269531 979 714 L 977 714 C 977 727.070313 972.402344 736.429688 967 748 L 966 748 C 958.996094 726.476563 961.929688 708.132813 960.960938 686 C 959.859375 661 954.433594 633.398438 942.679688 611 C 929.660156 586.1875 913.824219 563.792969 894 544 C 876.277344 526.304688 855.460938 510.199219 833 499 C 744.761719 455 650.339844 500.464844 585 563 C 601.6875 531.652344 632.425781 506.648438 664 491.257813 C 676.195313 485.3125 693.195313 482.710938 704 475 C 696.539063 474.179688 689.351563 476.050781 682 477 C 684.820313 473.496094 687.554688 470.292969 689 466 C 653.3125 477.632813 617.414063 501.421875 595.429688 532 C 584 547.769531 577.382813 565.753906 568.753906 583 C 560 600.429688 549.265625 616.6875 545 636 C 538.316406 666.445313 541 699.140625 541 730 M 350 569 C 358.347656 566.429688 358 556.242188 358 549 C 357.96875 529.558594 349.3125 513 350.914063 493 C 351.253906 488.769531 355 469.449219 349.738281 467.75 C 346.65625 466.777344 345.53125 471 345 473.003906 C 343.339844 480 342.363281 487.023438 341 494 C 337.910156 510 346.300781 518 350.78125 532 C 354.570313 544 353.351563 557.078125 350 569 M 798 468 L 798 469 C 849.5625 482.375 891.636719 527.121094 923 568 C 931.378906 578.722656 939.625 589.375 946.601563 601 C 949.898438 606.5 952.601563 615.464844 958 619 C 954.503906 605.636719 947.414063 593.304688 941.246094 581 C 920.898438 540.40625 889 503.257813 848 482.753906 C 832 475 815.984375 468.003906 798 468 M 514 472 C 523.871094 468 526.28125 480 514 472 M 682 477 L 681 478 L 682 477 M 395 481 L 395 485 L 394 485 C 394.175781 483.316406 394.316406 482.507813 395 481 M 1139 504 C 1141.199219 513.242188 1140.796875 523.507813 1142 533 C 1145.648438 558.03125 1149 581.65625 1149 607 L 1148 607 C 1143.542969 598.542969 1142.855469 589.125 1140.523438 580 C 1134.996094 558.410156 1115.433594 521.398438 1139 504 M 443 519 C 449.546875 536 459 551.207031 472 564 C 480.863281 572.796875 494.632813 580 497.480469 593 C 499.980469 604.527344 495 617.066406 492 628 C 483.9375 656 465.242188 686.730469 465 716 L 464 716 C 460.925781 691.800781 453.40625 669 449.25 645 C 445.246094 622 445 599.117188 442.828125 576 C 441.5625 562.683594 442.3125 549.371094 441.984375 536 C 441.839844 530.109375 439.773438 524.382813 443 519 M 384 538 C 384.222656 619.269531 382.921875 701.816406 415.425781 778 C 427.5 806.289063 443.308594 832.464844 460.332031 858 C 472.285156 876 486.683594 893.304688 493.644531 914 C 501.667969 938 507.410156 968 507.984375 993 C 508.519531 1016.371094 504.515625 1039.796875 509.886719 1063 C 512.546875 1074.492188 521.195313 1076.015625 526.632813 1085.039063 C 531.570313 1093.234375 531.4375 1103.605469 536.175781 1112 C 544.421875 1126.617188 560.582031 1135.757813 573 1146.425781 C 578.867188 1151.464844 584.773438 1157.460938 593 1158 C 601.726563 1158.347656 606.726563 1150.734375 614 1147.417969 C 619.929688 1144.714844 626.914063 1146.128906 633 1143.351563 C 643 1138.773438 651.921875 1133 655.660156 1148 C 658.597656 1160 655 1172.648438 651.328125 1184 C 639.742188 1219.558594 612 1242.363281 582 1262.804688 C 573 1269 559.523438 1272.699219 552 1280 C 570.953125 1271.558594 588.957031 1263.753906 606 1251.574219 C 616.757813 1244 625.324219 1233.519531 636 1226 C 621.789063 1252.695313 596 1274 575 1295 C 587.179688 1288.058594 597.636719 1277.496094 608 1268.167969 C 626.867188 1251.1875 647 1235 653 1209 L 654 1209 C 650.9375 1231.730469 640.90625 1253.128906 638 1276 L 639 1276 C 647 1244.773438 659.449219 1214.648438 666 1183 L 667 1183 C 664.789063 1211.027344 662.234375 1240 662 1268 L 664 1268 C 664.605469 1238.585938 671.878906 1208.492188 673.910156 1179 C 674.359375 1172.480469 675.554688 1165.507813 674.710938 1159 C 674 1154.578125 671.507813 1148.429688 674 1144.226563 C 677.703125 1138.09375 690.453125 1134.253906 696 1129 C 710.246094 1115.359375 720.457031 1098.117188 728 1080 C 740.402344 1089 747.5625 1108.296875 753.421875 1122 C 776.585938 1176.167969 762.199219 1250.105469 726.574219 1296 C 716.910156 1308.449219 704.90625 1319.265625 692 1328.277344 C 686 1332.429688 677.847656 1334.695313 673 1340 C 687.332031 1335.464844 701.652344 1329.132813 716 1325 L 716 1326 C 693.980469 1339 667.609375 1347 642 1347 L 642 1346 C 647.789063 1345.496094 653 1343.253906 659 1343 L 659 1341 C 642.382813 1343.101563 624.636719 1344.722656 608 1342 C 600.964844 1340.734375 593.640625 1340 589 1334 C 619.382813 1342 651.816406 1342 681 1329 C 671.410156 1329 661.828125 1333 652 1333 L 652 1332 C 663.8125 1330.253906 674.328125 1323.429688 686 1321 L 686 1320 C 659.351563 1323.589844 633.183594 1333.757813 606 1331.171875 C 597.441406 1330.355469 588.785156 1331 581 1326.46875 C 571.886719 1321.234375 569.972656 1311 563 1304 C 565.628906 1308.5 567.996094 1313.1875 570 1318 C 561.589844 1312 555.84375 1301.308594 555 1291 L 553 1291 L 554 1302 L 553 1302 C 551 1297.363281 549 1293 548 1288 L 547 1288 L 548 1296 L 547 1296 C 544.789063 1290.683594 542.757813 1285.492188 541 1280 L 540 1280 L 542 1290 L 541 1290 C 539.445313 1287.757813 538 1285.832031 536 1284 L 537 1291 L 536 1291 C 533.992188 1282.238281 529 1274 529 1265 L 527 1265 L 527 1270 L 526 1270 L 520 1256 L 519 1256 L 519 1263 L 518 1263 C 516.914063 1255.765625 513.324219 1249.445313 513 1242 C 511.363281 1242.546875 511.546875 1242.363281 511 1244 L 510 1244 C 509.816406 1221.628906 501.417969 1202.410156 497 1181 L 496 1181 L 496 1184 L 495 1184 L 496 1179 C 491.882813 1178.347656 490.828125 1165 490 1161 C 485.875 1141.34375 481.902344 1121.617188 477.589844 1102 C 459.375 1019.179688 445.695313 936 424 854 L 426 855 C 423.953125 850 422.238281 845.472656 422 840 C 444.597656 856.253906 454.78125 888.585938 476 907 C 464 889 453.339844 870 440.976563 852 C 422.277344 825 401.910156 798 387.78125 768 C 360.199219 709.613281 351.914063 643 370.976563 581 C 375 568 376.890625 549.636719 384 538 M 1066 555 C 1066 596 1058 636.410156 1054.171875 677 C 1052.328125 696.355469 1056.617188 722 1049 740 L 1048 740 C 1047.21875 731.066406 1042.875 722.578125 1040.425781 714 C 1033.394531 689.347656 1023.941406 658.796875 1025 633 C 1025.945313 611.6875 1041.355469 595.007813 1052.308594 578 C 1057 570.664063 1060 561.355469 1066 555 M 585 563 C 584.453125 564.636719 584.636719 564.453125 583 565 C 583.546875 563.363281 583.363281 563.546875 585 563 M 898 591 C 902.167969 604.046875 916.679688 604.816406 928 608 C 924 600.550781 905.90625 593.519531 898 591 M 623 594 C 625.847656 603.636719 622.808594 612 628.90625 621 C 629.820313 622.34375 633.304688 626.152344 631.253906 627.800781 C 627 631.121094 620 623 618.570313 620 C 614.550781 611.695313 615.585938 600 623 594 M 740 598.53125 C 728.53125 599.769531 743.550781 604.824219 748.941406 603.773438 C 758 602 743.394531 598.167969 740 598.53125 M 854 644 C 848.707031 655.121094 837.71875 661 829 669.089844 C 818 679.277344 809.296875 693.117188 796 700.484375 C 780.609375 709.011719 759.976563 706 757 728 C 761 725.75 764.371094 722.023438 769 720.648438 C 776.300781 718.484375 783.941406 723.265625 791 724.535156 C 795.742188 725.390625 801 724.054688 804.566406 728.148438 C 809 733.375 806.515625 741.144531 812.214844 746.074219 C 819.488281 752.367188 828.945313 754 835.984375 761.003906 C 842.707031 767.800781 847.769531 777.425781 857 781 C 854.339844 769.777344 848.546875 755.148438 839.90625 747.214844 C 833.753906 741.566406 824 743 818.429688 736.671875 C 814.191406 732 815.988281 725.460938 813.851563 720 C 812.636719 717 808 713.472656 808.628906 710 C 809.179688 706 814.84375 702.25 817 699 C 826.308594 685.714844 836 676.785156 846.90625 665 C 851.242188 660.300781 858.539063 650.238281 854 644 M 895 644 C 899.617188 663.210938 917.738281 658 932 655 C 926.972656 648 914.964844 654.308594 908 653.695313 C 901.921875 653.164063 899.234375 647.492188 895 644 M 357 647 L 357 650 L 356 650 C 356.25 648.546875 356.316406 648.246094 357 647 M 939 662 C 938.597656 664 938.597656 664.058594 939 666 L 940 666 C 939.824219 664.316406 939.683594 663.507813 939 662 M 636 775 C 647.6875 769.550781 654 756 663 747.175781 C 668.554688 742 676.742188 739.636719 681.566406 733.816406 C 684.195313 730.644531 683.730469 726.429688 685.859375 723.039063 C 690.542969 715.574219 702.648438 711.378906 711 713.789063 C 718.4375 716 722.300781 722.402344 728 727 C 733.910156 695.050781 697.457031 707.394531 681 696.613281 C 671.261719 690.226563 670.53125 676.378906 658 674 C 649.328125 672.242188 643 671.40625 635 667.324219 C 633.453125 666.535156 629.707031 664.335938 628 666.070313 C 624.664063 669.738281 635.664063 676.449219 638 677.621094 C 644.820313 681.042969 654.171875 680.574219 659.773438 686.226563 C 663.277344 689.761719 663 695.136719 666.417969 698.726563 C 669.976563 702.546875 675.628906 702.761719 675.902344 709.003906 C 676.671875 726.585938 663.277344 727.667969 653.464844 738.183594 C 644.527344 747.765625 638.914063 762.402344 636 775 M 848 710 C 847.554688 705.671875 845.347656 698.601563 840 698.035156 C 833 697.289063 839.976563 705.6875 842 707.03125 C 843.878906 708.28125 845.933594 709.132813 848 710 M 629 713 C 636 712.675781 641.605469 710.027344 644 703 C 637 703.601563 631.335938 706.195313 629 713 M 841 717 C 843.324219 721.476563 847.253906 723 852 724 C 849.652344 719.242188 845.984375 718.046875 841 717 M 635 733 C 641.378906 732 647 729 650 723 C 642.25 723.023438 636.53125 724.5625 635 733 M 842 733 C 845 739.425781 852.625 743.253906 859 746 C 857.511719 736.121094 851.355469 733.078125 842 733 M 608 749 C 614 748.367188 619 745.464844 622 740 C 614.765625 740.0625 610.199219 741.621094 608 749 M 691 765 C 697.929688 757.316406 708.375 750.382813 711 740 C 698.902344 742.15625 689.65625 752.460938 691 765 M 791 749 C 790 747 779.207031 736 779.207031 743.71875 C 779.207031 746.777344 788.699219 748.589844 791 749 M 906 741 C 908.71875 750.238281 915.75 757.589844 920.21875 766 C 931.742188 787.691406 941.910156 825.347656 968 834 C 964.175781 825.820313 958.242188 819 954 811 C 958.847656 816.546875 963.230469 821.777344 970 825 C 967.410156 817 961.386719 809.308594 957 802 C 947.507813 786.179688 938 770.160156 925 757 C 919.289063 751.261719 913.699219 744 906 741 M 890 745 C 890.296875 759 901.402344 767.222656 907 779 L 908 779 C 907.429688 765.773438 902.953125 750.699219 890 745 M 666 764 C 668 762.648438 680.785156 754.25 676.289063 751 C 671.789063 747.59375 666.683594 761.289063 666 764 M 682 755 C 667 791 640 827.171875 640 868 L 641 868 C 648.378906 839.546875 662.910156 814.140625 673.800781 787 C 677.375 778.085938 686 764.765625 682 755 M 884 768 C 883 765.269531 875.59375 752.339844 872.175781 759.328125 C 869.492188 764.820313 880.667969 767.5 884 768 M 588 785 C 593.53125 782.050781 599.769531 776 603.605469 771 C 604.980469 769.210938 607.765625 765.085938 605.214844 763.070313 C 602.984375 761.308594 598.929688 763.691406 597 765 C 590.175781 769.625 589.757813 777.695313 588 785 M 790 771 C 789.21875 767.753906 788.335938 764.007813 784.890625 762.605469 C 783.308594 762 776.203125 761.480469 776.921875 764.796875 C 777.414063 767.082031 787.714844 770.058594 790 771 M 650 776 C 654.789063 773.097656 657.390625 769.621094 658 764 C 653.566406 766.605469 650.964844 771.007813 650 776 M 801.816406 766.070313 C 799 768.601563 806.226563 777.027344 808.957031 774.246094 C 812.171875 771 805.253906 763 801.816406 766.070313 M 872 771 C 873.652344 780.265625 881.832031 788.761719 890 793 C 888.433594 781 883.90625 774.453125 872 771 M 598 824 C 602.269531 821 604 814.273438 607.238281 810 C 615.925781 798.511719 628.289063 789.539063 629 774 C 609.375 779.773438 598.808594 805.1875 598 824 M 779 785 L 791 786 C 787.90625 780.363281 782.367188 778.589844 779 785 M 863 784 C 865 809 892.246094 823.214844 899 847 L 900 847 C 899.984375 822.367188 884.339844 796.320313 863 784 M 716 791 C 720.867188 790.613281 726 790 730 787 C 724.246094 785.304688 719.785156 786.222656 716 791 M 935 823 C 932 813.0625 924.261719 804.136719 916.996094 797.015625 C 914.898438 795 910 789.582031 906.617188 792.070313 C 903.25 794.519531 907.71875 800.796875 909.300781 803 C 915.503906 811.652344 925.433594 818.527344 935 823 M 818 792 C 819.191406 794.296875 826.878906 805.398438 829.824219 799.640625 C 832.753906 794 821.191406 792.144531 818 792 M 688 811 C 692.296875 808 695.574219 803.75 698 799 C 690.746094 799.808594 688 804.046875 688 811 M 778 806 C 780.503906 809.542969 783 812.160156 787 814 C 786.558594 808.171875 783.632813 806.308594 778 806 M 806 807 C 808.453125 811.828125 812.890625 814.484375 818 816 C 816.230469 809.238281 812.355469 808.203125 806 807 M 953 808 L 954 811 C 952.710938 809.558594 952.597656 809.765625 953 808 M 630 837 C 637 832.347656 642.804688 818.285156 643 810 C 633.457031 815 632.292969 827.691406 630 837 M 730 878 C 732.671875 889.359375 723 909.8125 711 912.605469 C 704.957031 914 687.714844 909.304688 686.65625 919.039063 C 685.949219 925.546875 694.535156 931.414063 700 932.609375 C 702 933.070313 706.332031 932.226563 707.882813 934.027344 C 710.636719 937.222656 706.804688 945.4375 709.726563 950 C 716.90625 961.199219 743.65625 967.277344 730.890625 985 C 722.773438 996.097656 706.550781 987 698 981.304688 C 684.328125 972.335938 685.820313 962.679688 679 950 C 676.191406 944.5625 670.921875 941.144531 667.742188 936 C 664.832031 931.289063 662.96875 918.59375 663.273438 913 C 663.742188 904.453125 673.984375 886.726563 679.394531 880.019531 C 681.46875 877.449219 684.464844 874.6875 687.984375 874.6875 C 696.425781 874.6875 695.539063 887.472656 696.824219 893 C 697.445313 895.671875 699.269531 900.363281 702.699219 897.535156 C 705.222656 895.449219 704.804688 891.710938 706.179688 889 C 708.175781 885.0625 712 882.550781 714.5625 879 C 715.636719 877.484375 716.949219 875.277344 715.863281 873.410156 C 713.550781 869.429688 706.5 875.492188 704.710938 870 C 702.5 863 714.972656 864 716.503906 858.789063 C 717.796875 854.484375 711 852.757813 710.421875 849 C 708.972656 840.160156 724 831.003906 731 829 C 738.519531 826.507813 744.4375 836.328125 750.925781 833.632813 C 758.25 830.589844 746.378906 820.523438 755 819.269531 C 761.367188 818.355469 766.554688 824.003906 771 827.550781 C 781 835.601563 791.742188 843 802 850.765625 C 806.34375 854.082031 812.570313 857.140625 813.71875 863.003906 C 815.746094 873.390625 803.476563 877.144531 798.433594 884.003906 C 795 888.527344 797.277344 894.351563 794 898.785156 C 788.535156 906.71875 771.328125 903.117188 765.316406 897.363281 C 761.574219 893.777344 765.789063 886.734375 760.847656 884.492188 C 754.234375 881.488281 748.4375 890.128906 742 889.46875 C 737 889 733.800781 881 730 878 M 695 822 C 692.175781 822.246094 679.207031 824.65625 679.207031 828.378906 C 679.207031 837.667969 693.683594 824.527344 695 822 M 611 869 C 617 861.546875 620.683594 845.328125 624.183594 836 C 624.988281 834 627.765625 826.707031 624.398438 825.347656 C 620.652344 823.828125 617.4375 831.597656 616.453125 834 C 611.9375 845.042969 611 857.21875 611 869 M 415 828 C 431 878.382813 436.332031 934.816406 444.425781 987 C 450 1023 460.976563 1061.605469 461 1098 L 460 1098 C 445.410156 1064.140625 424 1033.160156 409.578125 999 C 403.421875 984.570313 396.738281 970 396 954 C 394.703125 923.40625 412.8125 896.492188 417.5625 867 C 418.816406 859.21875 419.382813 851.785156 417.90625 844 C 416.941406 839 413.453125 833.089844 415 828 M 858 834 C 858.984375 845.191406 868.40625 852.285156 873 862 C 878.179688 851.691406 867.824219 837 858 834 M 660 862 C 664 859.71875 666.460938 855.378906 670 852.300781 C 676.523438 846.636719 684.507813 842.609375 689 835 C 681.894531 835.386719 679.300781 839.660156 673.960938 843.582031 C 664.640625 850.421875 660 848 660 862 M 722 836 C 725 841.566406 740 852.605469 746.566406 847.242188 C 755.722656 839.710938 738.964844 835.003906 734 835.003906 C 729.945313 835 726 835.683594 722 836 M 944 840 C 946.351563 847.367188 952.9375 854.363281 959 859 C 958.96875 848.269531 954.230469 843 944 840 M 1112 842 C 1112 914.824219 1092.425781 985 1070.972656 1054 C 1064.730469 1074.09375 1057.988281 1094.039063 1051.332031 1114 C 1048.257813 1123.226563 1043.425781 1132.339844 1042 1142 L 1041 1142 C 1041.699219 1133.207031 1044 1125 1044 1116 L 1043 1116 C 1040.464844 1148.117188 1030.984375 1181.242188 1021.71875 1212 C 1017.589844 1225.714844 1018.925781 1240.800781 1013.933594 1254 C 1004.738281 1278.324219 976.519531 1303.011719 954 1315 C 955.53125 1312.792969 957 1311 959 1309 C 942.839844 1311.175781 927.503906 1315.042969 911 1314 C 900.730469 1313.207031 891 1310.070313 881 1308 C 892.601563 1319.328125 908.265625 1322 924 1322 L 924 1323 C 898.707031 1323 883.632813 1313 863 1300 C 869.410156 1309.691406 879.347656 1317.410156 890 1322 L 890 1323 C 876.785156 1319.113281 866.371094 1308 858.722656 1297 C 840.6875 1271.226563 831.453125 1233.078125 829 1202 L 828 1202 C 828 1240.746094 844.191406 1270.800781 857 1306 L 856 1306 C 849 1296 842 1286.46875 837.453125 1275 C 811.816406 1211.714844 828.648438 1140.527344 830 1075 C 846.214844 1086.421875 860.953125 1104.414063 873 1120 C 877.636719 1125.789063 884.179688 1131.796875 886.351563 1139 C 888.980469 1147.71875 884.273438 1157.140625 884.59375 1166 C 885.359375 1187.257813 888.824219 1210.269531 897 1230 C 908.738281 1258.265625 935.308594 1279.339844 960 1296 C 951.386719 1283.402344 938.386719 1275.070313 928 1264 C 912.453125 1247.191406 899.839844 1222.132813 898 1199 L 899 1199 C 901.527344 1217.785156 910.734375 1238.609375 923 1253 L 918 1243 L 919 1243 C 933.261719 1261.71875 953 1268 974 1276 C 965 1267.335938 949.328125 1263.664063 939 1255.765625 C 913.855469 1236.53125 907.992188 1210.59375 903.730469 1181 C 901.953125 1168.683594 897.269531 1147 910 1138.742188 C 919.429688 1132.761719 926 1144.742188 932 1149.773438 C 936.828125 1153.824219 942.90625 1154.597656 949 1153.699219 C 965.683594 1151.242188 984 1136.636719 994.535156 1124 C 999 1118.53125 1001.339844 1111.210938 1006.214844 1106.183594 C 1010.660156 1101.597656 1017 1100.558594 1021.980469 1096.609375 C 1027.371094 1092.222656 1034.371094 1078.472656 1036.992188 1072 C 1039.96875 1064.636719 1037.539063 1054.550781 1036.421875 1047 C 1033.972656 1030.453125 1030.234375 1013.691406 1029 997 C 1026.605469 960.71875 1051.863281 928.285156 1072 900 C 1078.355469 891.070313 1084.875 875.820313 1095 871 C 1091.289063 928 1075.5625 986.160156 1060 1041 C 1069.199219 1032.5 1072.785156 1014.644531 1076.667969 1003 C 1087.761719 969.722656 1096.441406 935 1099.828125 900 C 1100.9375 888.554688 1096.445313 877 1097.851563 866 C 1098.886719 858.007813 1106.34375 847.480469 1112 842 M 742 871 C 743.898438 869.496094 745.355469 868.230469 746.433594 866 C 750.773438 857 743.945313 851 735 852.1875 C 732.890625 852.480469 728.277344 853.671875 729.347656 856.777344 C 730.285156 859.503906 734.742188 860.105469 736.8125 861.703125 C 739.847656 864.046875 741 867.429688 742 871 M 426 855 C 435 879 460.535156 898.429688 476.191406 918 C 482.71875 926.160156 488.234375 938.433594 498 943 C 489.253906 920 465.28125 900.292969 450.351563 881 C 443.65625 872.351563 436 859.714844 426 855 M 769 861 C 770.863281 864.195313 772.894531 866.796875 776 869 C 782.191406 873.035156 792.234375 875 797.257813 867.8125 C 801.765625 861.492188 795.535156 855.378906 789 855.789063 C 786.304688 856 783.589844 856.699219 781 857.429688 C 776.996094 858.554688 772.925781 859.660156 769 861 M 851 866 C 853 875.101563 858.839844 883.074219 868 886 C 865.851563 877 861 867.105469 851 866 M 430 871 C 430.683594 872.578125 430.804688 872.777344 432 874 C 431.316406 872.421875 431.195313 872.222656 430 871 M 433 876 C 438.53125 891.195313 449.390625 903.34375 459 916 C 448.445313 908.566406 444.222656 893.203125 434 887 C 442.480469 912 463.832031 927.605469 479 948 C 485.996094 957.203125 492.253906 972 503 977 C 495.394531 959.351563 481.507813 938.617188 468 925 C 472.503906 928.078125 476.269531 932.339844 481 935 C 472 918.367188 457 906 445.871094 891 C 442.445313 886.429688 436.621094 881.433594 435 876 L 433 876 M 641 890 C 643.4375 889.75 657.246094 884 651.300781 880.175781 C 647 877.535156 642 887.269531 641 890 M 826.316406 899.023438 C 832 898.097656 842.921875 911.34375 833.941406 913.679688 C 824.257813 916.195313 820.425781 900 826.316406 899.023438 M 676 912 C 680 912 687.644531 913.078125 689.914063 908.722656 C 691.988281 904.734375 686 899.003906 682 899.832031 C 677.550781 900.785156 676.761719 908.324219 676 912 M 901 922 C 900.996094 917.824219 898 896.765625 889.617188 901.257813 C 883.914063 904.277344 898 920.21875 901 922 M 617 925 C 619.785156 922.730469 631.613281 910 626.355469 906.085938 C 618.429688 900.417969 617 921.71875 617 925 M 744 941 C 740.910156 933.636719 741.773438 922 742.714844 914 C 742.949219 912.035156 742.367188 906.476563 745 906 C 748.257813 905.277344 749 912.09375 749.382813 914 C 751 923.253906 748.96875 933.097656 744 941 M 903 905 C 903.175781 912.496094 907.820313 924.472656 914 929 C 913.246094 919.480469 911 910.824219 903 905 M 476 908 C 476.683594 909.578125 476.804688 909.777344 478 911 C 477.316406 909.421875 477.195313 909.222656 476 908 M 805 910.328125 C 813.203125 909 815.355469 915.464844 821 919.667969 C 824.453125 922.222656 830.472656 919.472656 832.972656 922.605469 C 835.863281 926.230469 832.847656 933.179688 831.894531 937 C 828.683594 950 827 963.113281 823.871094 976 C 821.621094 985 818.339844 1001.371094 807 1002.734375 C 800.933594 1003.464844 795.175781 998.636719 791 994.824219 C 778.757813 983.609375 775.996094 967 765.609375 955.074219 C 759.917969 948.625 752 959.113281 748.179688 953.550781 C 744 947.652344 752.867188 939.65625 755.472656 935 C 758.308594 930 759 922.398438 764.214844 919 C 769.75 915 776.933594 919.289063 783 918.660156 C 790.996094 917.828125 797.171875 911.648438 805 910.328125 M 441 913 C 448.183594 928.183594 460.605469 941 471.910156 953 C 476.722656 958.167969 480.914063 965.011719 488 967 C 479.179688 953 467.332031 940.25 456 928 C 451.273438 922.761719 447.597656 916.085938 441 913 M 598 928 C 599.722656 926.667969 608 918.515625 603.425781 916.347656 C 598.972656 914.28125 598 925.796875 598 928 M 460 916 C 462.875 919 465.65625 921.671875 468 925 C 464.71875 922.6875 460.96875 920.003906 460 916 M 810 956 C 809.945313 949.5 809.585938 942.199219 802 941 C 804.832031 937.058594 805.355469 918.636719 798.6875 917.503906 C 795.605469 917 780.210938 921.261719 781.347656 925.144531 C 783.222656 931.558594 794.203125 938 798.570313 943 C 802.3125 947.367188 805.539063 952.367188 810 956 M 446 929 C 452 948.214844 470.847656 965.125 483.71875 980 C 488.964844 986.0625 493.875 995.1875 501 999 C 492.945313 980.308594 477.566406 964.707031 465 949 C 459.652344 942.316406 453.804688 932.804688 446 929 M 983 930 C 979 937.523438 972 940.394531 964 938 L 964 937 C 971.363281 936.828125 976.535156 933.019531 983 930 M 732 956 C 725.589844 954 719.8125 949 718.394531 942 C 717.855469 939.375 717.804688 931.636719 721.929688 931.636719 C 728.246094 931.636719 730.8125 951.414063 732 956 M 481.667969 936.332031 C 481.222656 936.777344 482.277344 936.722656 482.332031 936.667969 C 482.777344 936.222656 481.722656 936.277344 481.667969 936.332031 M 450 943 C 454.5625 957.414063 468.902344 980.515625 484 985 C 476.46875 971.78125 462.320313 952 450 943 M 928 984 C 930.613281 977.574219 924.789063 973.382813 922.304688 968 C 920.597656 964.308594 920.738281 960 919.761719 956 C 919 953.300781 917.996094 949.746094 914.949219 949 C 907.210938 946.714844 912.507813 968.03125 914.652344 971 C 918.546875 976.269531 924.804688 978 928 984 M 843 950 C 846.320313 975.703125 852 1013.09375 828 1032 C 826.453125 1021.53125 818.527344 1012 820.214844 1001 C 821.265625 994.195313 827 989 830.214844 983 C 835.574219 972.773438 839.519531 961.460938 841 950 L 843 950 M 604 968 L 606 968 C 606.265625 962.21875 608.257813 956.734375 609 951 C 601.710938 954.597656 603 961.113281 604 968 M 597 955 C 593.871094 958.820313 592.257813 962.042969 592 967 C 595.777344 964.03125 598.890625 960 597 955 M 650 961 C 669 990 692 1007 724 1020 L 724 1021 C 705.242188 1021 678.691406 1020 665.183594 1005 C 659 998.28125 656.304688 989.5 653.859375 981 C 652 975.105469 647.828125 967.058594 650 961 M 934 974 C 935.355469 979.714844 938 988.453125 943 992 C 942.980469 984.226563 941.621094 977.585938 934 974 M 866 975 C 867.34375 991.429688 877.851563 1009.578125 870.773438 1026 C 865.40625 1038.464844 841.941406 1046.367188 830 1051 C 841 1024.320313 863.914063 1006.277344 864 975 L 866 975 M 580 977 L 580 983 L 582 983 L 582 977 L 580 977 M 592 1007 C 600.457031 1005.363281 605.5625 998.40625 606 990 C 599.882813 993.125 595.816406 1001.394531 592 1007 M 645 1003 C 657 1017 670 1030.144531 682.285156 1044 C 686.949219 1049.285156 692.722656 1053.679688 696 1060 C 672.25 1056.492188 655 1042.480469 648.410156 1020 C 646.851563 1014.785156 643.332031 1008.433594 645 1003 M 568 1019 C 573.554688 1018 575.195313 1014.339844 576 1009 C 571.804688 1011.144531 569.648438 1014.65625 568 1019 M 1087 1226 C 1104.210938 1223.421875 1117 1205.226563 1129 1194.089844 C 1160.582031 1164.671875 1205.988281 1137.578125 1216.871094 1093 C 1221 1076 1221 1058.527344 1221 1041 C 1221 1038.046875 1222.671875 1025 1218.804688 1024 C 1216 1023.21875 1217 1035.433594 1216.984375 1037 C 1216.605469 1052.5 1214.230469 1068.117188 1209.855469 1083 C 1195.417969 1132.089844 1141.625 1163.105469 1109.574219 1200 C 1102.25 1208.433594 1091.621094 1215.632813 1087 1226 M 895 1024 C 896.355469 1055.515625 909.238281 1084 903 1116 C 894.417969 1111.035156 887.625 1101.6875 879 1096.003906 C 876.253906 1094.195313 870.496094 1092 869.304688 1088.671875 C 867.78125 1084.449219 875 1076.429688 877.1875 1073 C 882 1065 886.574219 1056.296875 888.765625 1047 C 890.527344 1039.511719 890 1030.207031 895 1024 M 364 1031 C 352.738281 1054.796875 341.996094 1079.753906 338.425781 1106 C 337.878906 1110.027344 335.554688 1131.363281 342 1131.363281 C 348.410156 1131.363281 347.992188 1115.050781 348 1111 C 348 1093 350.441406 1074.140625 356.207031 1057 C 358.746094 1049.4375 367.339844 1039.1875 364 1031 M 640 1042 C 653.832031 1055.792969 674 1069.527344 693 1075 L 693 1076 C 689.28125 1076.292969 674.996094 1074 672.828125 1076.066406 C 671.355469 1077.5 673.761719 1086.203125 673 1089 C 670 1102 665.746094 1114.691406 661 1127 L 660 1127 C 651.792969 1107.265625 646.796875 1087 642.601563 1066 C 641 1058.6875 636.960938 1049.246094 640 1042 M 1247 1064 C 1244.324219 1073.738281 1248.238281 1086.722656 1247.984375 1097 C 1247.453125 1118.660156 1239.308594 1140.023438 1224.574219 1156 C 1212 1169.460938 1194.992188 1178.242188 1180 1188.71875 C 1156.308594 1205.273438 1133.472656 1222.527344 1113 1243 C 1101.515625 1254.484375 1088.386719 1265.179688 1083 1281 C 1091.195313 1276.558594 1096.460938 1267 1102.429688 1260 C 1109.855469 1251.332031 1119 1243.796875 1128 1236.609375 C 1174.195313 1199.070313 1252 1174.496094 1252 1105 C 1252 1093.757813 1255.273438 1072.792969 1247 1064 M 386 1076 C 386 1116.246094 397.941406 1156.152344 419.691406 1190 C 426.65625 1201 433.535156 1215.722656 446 1221 C 440.964844 1210.355469 432.683594 1201.507813 427.257813 1191 C 415.402344 1168.03125 407 1143.464844 399 1119 C 395.847656 1109.535156 392.855469 1099.832031 391 1090 C 390.253906 1085.40625 389.894531 1079 386 1076 M 540 1087 C 553.351563 1091 562.566406 1103.328125 578 1101.695313 C 585.632813 1101 591.65625 1097.515625 596.90625 1092 C 598.824219 1090 602 1084 605.644531 1085.40625 C 609.289063 1087.011719 608.996094 1092.777344 608.996094 1096 C 609 1106.105469 605 1116.679688 597.90625 1124 C 575.3125 1146.410156 540 1111.007813 540 1087 M 1293 1098 L 1293 1101 L 1292 1101 C 1292.25 1099.546875 1292.316406 1099.246094 1293 1098 M 353 1180 C 361 1208.0625 379.863281 1237.347656 399 1259 C 407 1268.089844 414.292969 1277.28125 427 1279 C 423.210938 1273.824219 415.6875 1271.101563 411.183594 1266 C 402.570313 1256.242188 395.734375 1244 388.691406 1233 C 378.457031 1217.109375 368.386719 1191.074219 353 1180 M 1009 1185 C 1006.589844 1194.789063 1005.488281 1205 1000.675781 1214 C 988 1237.675781 964.523438 1243.75 943 1256 L 943 1257 C 968.40625 1253.261719 995.394531 1236 1005.570313 1212 C 1008.601563 1205 1013.835938 1192.082031 1009 1185 M 496.667969 1186.667969 C 496.722656 1186.722656 496.777344 1187.777344 496.332031 1187.332031 C 496.277344 1187.277344 496.222656 1186.222656 496.667969 1186.667969 M 897 1187 L 897 1190 L 896 1190 C 896.25 1188.550781 896.316406 1188.246094 897 1187 M 498 1190 L 497 1191 L 498 1190 M 499 1193 L 498 1194 L 499 1193 M 898 1194 L 898 1198 L 897 1198 C 897.175781 1196.316406 897.316406 1195.507813 898 1194 M 500 1196 L 499 1197 L 500 1196 M 528 1196 C 532.773438 1212.542969 548.363281 1220 564 1223 C 561.335938 1218.59375 555.222656 1217 551 1214 C 542.96875 1208.492188 536.386719 1201 528 1196 M 500.667969 1199.667969 C 500.722656 1199.722656 500.777344 1200.777344 500.332031 1200.332031 C 500.277344 1200.277344 500.222656 1199.222656 500.667969 1199.667969 M 501.667969 1202.667969 C 501.722656 1202.722656 501.777344 1203.777344 501.332031 1203.332031 C 501.277344 1203.277344 501.222656 1202.222656 501.667969 1202.667969 M 503 1205 L 503 1208 L 502 1208 C 502.25 1206.546875 502.316406 1206.246094 503 1205 M 519 1207 C 521.585938 1224.183594 541 1235.585938 555 1243.269531 C 557.855469 1245 570.191406 1252.328125 572.742188 1247.398438 C 575 1243.039063 564.675781 1238.234375 562 1236.769531 C 546.515625 1228.292969 533.839844 1216.269531 519 1207 M 655 1207 L 654 1208 L 655 1207 M 512 1245 L 512 1250 L 511 1250 C 511 1248.035156 511.222656 1246.769531 512 1245 M 514 1257 C 517.570313 1265.066406 516.347656 1272.503906 517.171875 1281 C 517.859375 1288.113281 520.382813 1295 521 1302 L 520 1302 C 517 1288 511.742188 1271.460938 514 1257 M 1024 1264 L 1023 1268 L 1022 1268 C 1022.5625 1266.246094 1022.917969 1265.457031 1024 1264 M 520 1267 C 526.984375 1282.757813 528.382813 1300.082031 535 1316 L 534 1316 C 526.171875 1302.585938 517.507813 1283 520 1267 M 1022 1269 L 1021 1270 L 1022 1269 M 525 1271 C 532.339844 1286.6875 538.226563 1303 547 1318 C 553 1328.449219 561 1337.148438 568 1347 C 548.898438 1333.542969 535.878906 1313.097656 529.574219 1291 C 527.789063 1284.753906 524 1277.589844 525 1271 M 530 1274 L 530 1277 L 529 1277 C 529.25 1275.546875 529.316406 1275.246094 530 1274 M 637 1276 C 637.40625 1278.09375 637.21875 1278.019531 639 1279 C 638.316406 1277.421875 638.195313 1277.222656 637 1276 M 530.667969 1278.667969 C 530.722656 1278.722656 530.777344 1279.777344 530.332031 1279.332031 C 530.277344 1279.277344 530.222656 1278.222656 530.667969 1278.667969 M 573 1297 C 574.3125 1296.230469 574.230469 1296.3125 575 1295 C 573.363281 1295.546875 573.546875 1295.363281 573 1297 M 539.667969 1296.667969 C 539.722656 1296.722656 539.777344 1297.777344 539.332031 1297.332031 C 539.277344 1297.277344 539.222656 1296.222656 539.667969 1296.667969 M 549 1297 L 548 1298 L 549 1297 M 953 1315 L 952 1316 L 953 1315 M 536 1317 L 535 1318 L 536 1317 M 538 1320 L 537 1321 L 538 1320 M 540 1323 L 539 1324 L 540 1323 M 895 1324 L 895 1325 L 891 1324 C 892.660156 1323.59375 893.242188 1323.691406 895 1324 M 718 1324 L 717 1325 L 718 1324 M 898 1325 L 897 1326 L 898 1325 M 543 1328 C 541.363281 1327.453125 541.546875 1327.636719 541 1326 C 542.636719 1326.546875 542.453125 1326.363281 543 1328 M 568 1327 L 571 1331 C 569.242188 1329.621094 568.460938 1329.105469 568 1327 M 545 1330 L 549 1335 C 546.910156 1333.445313 545.597656 1332.511719 545 1330 M 530 1333 C 531 1334.457031 531.542969 1335 533 1336 C 532 1334 532 1334 530 1333 M 650 1333.332031 L 650.332031 1333.667969 C 649.839844 1333.832031 649.226563 1333.332031 650 1333.332031 M 550 1336 C 551.863281 1338 553.46875 1339.792969 555 1342 C 552.59375 1340.261719 550.699219 1339 550 1336 M 584 1360 C 582.363281 1359.453125 582.546875 1359.636719 582 1358 C 583.636719 1358.546875 583.453125 1358.363281 584 1360 M 587 1362 C 585.363281 1361.453125 585.546875 1361.636719 585 1360 C 586.636719 1360.546875 586.453125 1360.363281 587 1362 M 589 1362 L 588 1363 L 589 1362 M 591 1363 L 590 1364 L 591 1363 "/>
</g>
</svg>
