<?xml version="1.0" encoding="UTF-8"?>
<svg xmlns="http://www.w3.org/2000/svg" xmlns:xlink="http://www.w3.org/1999/xlink" width="1500pt" height="1500pt" viewBox="0 0 1500 1500" version="1.1">
<g id="surface1">
<path style=" stroke:none;fill-rule:nonzero;fill:rgb(0%,0%,0%);fill-opacity:1;" d="M 442 522 L 417 521 C 420.925781 531.128906 433.617188 534.179688 437.433594 544 C 439.574219 549.503906 432.875 553 432.386719 558 C 431.785156 564.335938 440 570.042969 444 574 C 438.308594 574.242188 432.648438 575.285156 427 576 C 430.816406 586 443.730469 591.265625 445.5625 602 C 447 611.308594 436.40625 622.457031 433.550781 631 C 430.304688 640.71875 440.496094 638.578125 445.996094 635.46875 C 448.617188 634 450.789063 632.015625 453 630 C 450.757813 637.546875 440 643.460938 442.4375 652 C 445 661.539063 461.625 658.335938 466.582031 652.785156 C 469.910156 649.058594 470 643.773438 474 640.417969 C 477.769531 637.332031 485.546875 637.347656 487.714844 632.773438 C 490 627.742188 482.964844 623.304688 481.640625 619 C 479.585938 612.332031 486 601.023438 473 607.371094 C 471.566406 608.085938 470.335938 609.058594 469 610 C 475.390625 598.535156 487.289063 590 491 577 L 485 578 C 495.332031 567.667969 505.605469 557.273438 516 547.003906 C 520.734375 542.324219 527.636719 538.398438 530 532 C 524.761719 533.355469 519.398438 534.570313 514 535 C 527.738281 516.773438 542.972656 497.785156 561 483.667969 C 568.4375 478 583.613281 475 589.246094 468.121094 C 591.234375 465.746094 586.589844 463.644531 588.636719 461.128906 C 593.28125 455.414063 604.710938 458.523438 609.246094 453.011719 C 611.554688 450.210938 605.71875 447.449219 604 446.304688 C 598.257813 442.480469 589.242188 435.527344 595.316406 428.09375 C 603.871094 417.632813 623 419.046875 634 424.375 C 636.910156 425.796875 647.367188 433.496094 649.695313 427.683594 C 652.777344 420 635.316406 417.34375 631 417 L 631 416 C 643.632813 411.796875 652 411 664 418 C 666 419.140625 670.839844 422.195313 672.351563 418.667969 C 675.5 411.320313 660.703125 407.742188 658 403 C 656 399.273438 658.417969 394 655.257813 391 C 652.9375 388.621094 639 389 645.335938 382.628906 C 650.574219 377.355469 665.21875 368 673 369.460938 C 679.878906 371 684.285156 383.609375 690.628906 383 C 693.320313 382.695313 695.25 379.207031 698 378.433594 C 703 377 708.789063 378.734375 714 377.609375 C 718.578125 376.621094 722.371094 373.421875 727 372.570313 C 732.683594 371.523438 738.296875 375 744 374.816406 C 762.363281 374.621094 778.296875 371 796 377.035156 C 804.632813 380.035156 816 372.757813 820 384 C 826 381 829.777344 374.304688 836 371.613281 C 840.917969 369.480469 846.425781 371.773438 851 373.71875 C 854.5625 375.234375 872.277344 380.414063 868.246094 386.566406 C 865.773438 390.347656 859.769531 388.757813 857.316406 393.132813 C 855.246094 396.828125 856.796875 401.335938 853.683594 404.609375 C 851 407.390625 837.648438 412.605469 842 418.382813 C 844.335938 421.386719 848.902344 417.785156 851 416.425781 C 862 409.214844 871 413.25 883 415 L 883 416 C 877.550781 416.703125 870.691406 417.46875 866.226563 421 C 863.367188 423.214844 862 428.476563 867 428.742188 C 872 429.011719 876.546875 424.265625 881 422.476563 C 891.257813 418.363281 919 417.789063 921.621094 433 C 923.191406 442.5625 906.574219 445.730469 903 453 C 908.671875 453.449219 922 454.566406 925 460.300781 C 927 464.132813 921.867188 466.28125 927 469.636719 C 934.199219 474.242188 942.898438 476 950 480.773438 C 969.925781 494.554688 986.941406 514.441406 1001 534 C 995.6875 532.503906 990.542969 531.113281 985 531 C 988.25 537.671875 995.835938 542.640625 1000.960938 548 C 1010.261719 557.726563 1018.515625 568.4375 1028 578 L 1020 576 C 1023.847656 588.054688 1035.914063 596.824219 1043 607 C 1029.183594 602 1036.171875 611.789063 1033.601563 620 C 1032.296875 624.175781 1028 627.316406 1028.335938 632 C 1029.222656 644.296875 1049.550781 647.054688 1047.769531 661 C 1047 666 1043.363281 670 1041 674 C 1051.894531 676.496094 1076.855469 682.339844 1076.78125 697 C 1076.753906 702.785156 1065 708.34375 1067.175781 712.699219 C 1069.410156 717.367188 1078.652344 714.410156 1082 713 C 1082 728.691406 1077 738.0625 1071 752 C 1079 751.65625 1085.554688 748.535156 1093 746 C 1088.46875 760.328125 1083.222656 778.015625 1082 793 C 1097.59375 784 1116.484375 760.308594 1122 743 L 1123 743 C 1117.589844 766.390625 1104.371094 793.230469 1085 808 L 1085 809 C 1096.257813 807.3125 1108.234375 798.699219 1118 793 C 1115.59375 798.785156 1112.484375 804.246094 1110 810 C 1107.65625 815.429688 1103.375 822 1103.292969 828 C 1103.195313 835.394531 1111.527344 835.492188 1115.90625 831.722656 C 1125.386719 823.558594 1131.734375 807.3125 1136.574219 796 C 1138 792.652344 1143.324219 782.21875 1140.800781 778.773438 C 1138.886719 776.164063 1127.175781 778 1124 778 C 1136.960938 762 1141.203125 751.582031 1138.269531 731 C 1137.847656 728.027344 1138.308594 718 1135.972656 716.136719 C 1133.734375 714.375 1129.574219 718.035156 1128 719.328125 C 1121.820313 724.402344 1116.273438 731.269531 1114 739 L 1113 739 C 1113 734.507813 1114.726563 728.175781 1112 724.226563 C 1109.226563 720.042969 1102.679688 720.773438 1101.527344 715 C 1099.574219 705.183594 1110.59375 696.386719 1108.851563 686.109375 C 1107.855469 680.238281 1100 682.6875 1096 681.105469 C 1090.335938 679 1088.183594 672.6875 1082.984375 670.027344 C 1078.328125 667.640625 1072.691406 670 1068 671 C 1069.273438 669.695313 1070.695313 668.40625 1071.816406 667 C 1080.277344 656 1067.820313 654.246094 1062.703125 647 C 1060.261719 643.476563 1059.988281 639.015625 1059 635 C 1061.589844 636.203125 1064.175781 637.371094 1067 638 C 1074 639.308594 1081.835938 635.332031 1079.566406 627.015625 C 1077 618 1066 613.359375 1069.652344 602 C 1071.730469 595.234375 1078.300781 590 1082.957031 585 C 1084.601563 583.238281 1087.957031 580.207031 1086.742188 577.433594 C 1085 573.59375 1073.59375 574.074219 1070 574 C 1074 570 1082 564.328125 1082 558 C 1082 552.242188 1074.671875 549.128906 1077.476563 543 C 1081.570313 534.046875 1092.386719 530 1097 521 C 1088.578125 521 1080.355469 521 1072 522 C 1073.886719 518.597656 1076.894531 515 1077.324219 511 C 1077.75 507.074219 1075.335938 504.609375 1078.207031 501.039063 C 1086.277344 491 1099.296875 489 1103 475 C 1107 460.394531 1103 444.664063 1101.285156 430 C 1099.253906 412.820313 1099.242188 395.25 1098 378 C 1097.554688 370 1099.792969 362 1099.945313 354 C 1100 346.546875 1098 339.523438 1099.285156 332 C 1101.34375 319.335938 1106.800781 307.0625 1105.910156 294 C 1103.664063 261.042969 1088.726563 230.640625 1080.628906 199 C 1071.273438 162.445313 1066.605469 99.601563 1016 99.003906 C 1010 99 1004.636719 99.390625 999 101.4375 C 970.878906 111.652344 954.738281 141 941.742188 166 C 919.4375 209.105469 894 250.613281 872.246094 294 C 864.609375 309.222656 858.417969 329 847.480469 342 C 844 346.058594 838.886719 346.816406 835.316406 350.417969 C 832 353.628906 834.332031 361 829.773438 362.746094 C 826.625 364.023438 823.179688 360.570313 820 360.410156 C 811 360 802.222656 358 793 358 L 795 352 C 785.277344 352 775.640625 351.730469 766 353.171875 C 761.929688 353.777344 758 356.578125 754 356.574219 C 750 356.570313 746.800781 353.792969 743 353.214844 C 734.230469 352 723.890625 352.074219 715 352 C 715.738281 354.566406 716.683594 356.671875 718 359 C 709.339844 359.023438 699.503906 360.441406 691 361.5625 C 688 362 684.261719 365.691406 681.433594 364.09375 C 677.449219 362 679.808594 354.65625 677.257813 351.226563 C 674 347 668.175781 345.609375 664.785156 341 C 656 329.066406 651.335938 314.160156 644.753906 301 C 620.632813 252.757813 593.265625 206.261719 567.304688 159 C 554.585938 136 538.246094 108.386719 511 101 C 504.851563 99.234375 498.351563 98.464844 492 99.289063 C 443.585938 105.582031 440.796875 162.734375 432.574219 200 C 425.445313 232.324219 410.796875 262.679688 408.324219 296 C 407.363281 309 413.472656 321.328125 414.824219 334 C 416.726563 351.769531 415.210938 372 414.996094 390 C 414.796875 407 412.859375 424.171875 410.84375 441 C 409.269531 454.148438 406.757813 468.445313 412.519531 481 C 417.386719 491.613281 430.570313 492.757813 436.203125 502.074219 C 438.203125 505.386719 435.398438 507.699219 435.617188 511.039063 C 435.894531 515.222656 439.4375 519 442 522 M 645 346 L 644 346 C 642.414063 343.382813 641 341 640 338 L 639 338 L 637 352 C 631 347.476563 628 340.425781 622 336 C 623.664063 343 623.996094 350.816406 624 358 L 623 358 C 619.730469 353.214844 616 349.101563 612 345 C 613.714844 352.40625 617.335938 359.386719 618 367 L 601 356 C 602.75 362.125 605.683594 367.710938 607 374 C 600 371.765625 594.765625 366.34375 589 362 C 591 368.613281 597.238281 378 595 385 C 593.453125 390.015625 587.652344 392.722656 586.699219 398 C 585.363281 405.382813 588.308594 416.296875 577 418.472656 C 571.523438 419.527344 564.292969 414.816406 560 412 C 546.371094 402.660156 534.800781 385.003906 531 369 L 532 369 C 539.472656 383.03125 551.5 403.207031 569 405 L 569 404 C 548.929688 394.449219 544.648438 370.578125 541 351 L 542 351 C 544.519531 357.054688 547.3125 364.359375 552 369 C 547.695313 357.753906 543 345.140625 543 333 L 544 333 C 549.1875 351 564.886719 365.796875 579 377 C 571.628906 359.390625 560 343.589844 552.425781 326 C 550.839844 322.359375 544.347656 311.433594 548.605469 308.027344 C 552.644531 304.800781 565 308.613281 570 309 C 562.808594 301.792969 549.214844 299 540 294.691406 C 524 287.394531 512.371094 279.683594 501.484375 266 C 496.820313 260.136719 490.242188 253.40625 482 255.421875 C 470.492188 258.230469 467.257813 273.089844 465.726563 283 C 465.175781 286.558594 463.183594 291.445313 465.195313 294.832031 C 468.914063 301.105469 474.746094 291.160156 476 288 C 478.335938 283 477.914063 276.511719 481 272 C 489 288.769531 477 309.425781 478 327 C 478.964844 342 488.609375 354.371094 490.699219 369 C 492.644531 382.621094 489.375 396.414063 490 410 C 490.359375 416.511719 494.277344 421.722656 495.535156 428 C 497.902344 439.789063 497.742188 451.582031 502 463 C 495.523438 462 489.453125 458.59375 484 455 C 488 464.824219 494.898438 473.199219 499 483 C 482.300781 479.035156 470.167969 464.515625 454 459 C 467.320313 472.320313 480.785156 485.753906 487 504 C 469.796875 496.585938 456.320313 482.25 439 475 C 450.460938 487.441406 462.597656 500.355469 464 518 C 453.8125 515.316406 457.257813 504.816406 450.890625 498.039063 C 442.878906 489.507813 430.515625 487 423.652344 477 C 413.898438 463 424.621094 444.074219 424.984375 429 C 425.210938 419.609375 422.984375 410.390625 423 401 C 423 398.105469 422.390625 392.757813 426 391.75 C 432 390.113281 432.953125 402.488281 433.609375 406 C 436.882813 423.496094 433.359375 439.550781 433 457 C 440.691406 446.300781 448.78125 436.757813 462 433.160156 C 465.472656 432.214844 475.792969 432.183594 475.792969 427 C 475.792969 423.246094 470.5 420.21875 468 418.195313 C 460.402344 412.050781 453.269531 406 447.375 398 C 432.988281 379 428.6875 357.308594 427 334 C 423.222656 277.511719 444.632813 222.199219 458.882813 168 C 464 148.472656 473.730469 119.765625 499 122.171875 C 516.613281 124 529.488281 138 539.789063 151 C 562.941406 180.40625 577.3125 215.605469 595.574219 248 C 613 279 633.988281 312.214844 645 346 M 1082 456 C 1076.707031 440.363281 1077.722656 422 1080.804688 406 C 1081.40625 403 1083 387.488281 1089.414063 392.046875 C 1092.226563 394.0625 1091.203125 399.109375 1091 402 C 1090.710938 410.328125 1089.214844 418.695313 1089 427 C 1088.71875 444.4375 1101 464.507813 1087.671875 480 C 1080.734375 488 1069.285156 490.070313 1062.214844 498.039063 C 1056.515625 504.460938 1057.949219 515 1049 518 C 1050.5 499.164063 1062.867188 489.382813 1073 475 C 1057.226563 484.207031 1042.386719 497.246094 1026 505 C 1032 487.15625 1044.902344 473.101563 1058 460 C 1042.898438 466 1030.585938 478.511719 1015 483 C 1017.8125 473.230469 1024.367188 464.351563 1030 456 C 1024.382813 458.179688 1019 461.101563 1013 462 C 1015.679688 450.316406 1015.722656 438.585938 1018.183594 427 C 1019.320313 421.648438 1023.347656 417.566406 1023.894531 412 C 1025.269531 398 1021.457031 384 1023.289063 370 C 1024.996094 357.027344 1033.964844 346.511719 1034.910156 333 C 1036.230469 314.148438 1023.332031 289.261719 1033 272 L 1034 272 C 1034.847656 278.558594 1035.988281 286.441406 1039.851563 292 C 1041.386719 294.175781 1044.601563 297.703125 1047.445313 295.339844 C 1050.800781 292.546875 1048.367188 285.53125 1047.75 282 C 1046 272 1040.675781 252.714844 1027 254.371094 C 1014.40625 256 1008.742188 271.355469 1000 278.675781 C 984.167969 292 959.695313 293.777344 945 307 L 967 306 C 959 330.464844 940.25 350.628906 935 376 C 949 362 962.28125 346.539063 970 328 L 971 328 C 968.382813 341.492188 964.722656 354.777344 961 368 C 965.511719 363.003906 968.410156 355.21875 971 349 L 972 349 C 971.492188 373.539063 958.691406 387.675781 944 405 C 960.53125 397.164063 971.511719 385.113281 980 369 L 981 369 C 976.667969 385 966.523438 401.402344 953 411 C 948.71875 414 942.539063 418.234375 937 417.679688 C 924.59375 416.433594 928.367188 404.257813 926 397 C 924.75 392.34375 919.503906 390.390625 917.742188 386 C 914.675781 378.253906 921 369 924 362 C 918 366.78125 912.246094 373.535156 905 376 C 906.660156 368.820313 909.589844 362.484375 913 356 C 906.972656 359.207031 901.382813 363.585938 895 366 C 896 359.144531 899.394531 353 900 346 C 895.84375 350.347656 892.378906 355.035156 889 360 L 888 360 C 888.355469 351.683594 889.472656 343.1875 891 335 C 884.871094 340.304688 881.167969 348 875 353 L 874 339 C 871.425781 341.359375 869.703125 344 868 347 C 867 342 871.230469 335.539063 873.308594 331 C 879 318.421875 885.492188 306.316406 891.757813 294 C 901.429688 275 913 257.050781 922.753906 238 C 938.578125 206.570313 953 173.359375 975.613281 146 C 990.578125 127.824219 1018 110 1037.675781 133.003906 C 1053.351563 151.59375 1057.820313 182.042969 1063.882813 205 C 1078.390625 260 1098 310.617188 1081.574219 368 C 1077.355469 382.71875 1069 398.242188 1057.960938 408.828125 C 1053.835938 412.730469 1039 420.726563 1039 427 C 1039 431 1047.1875 431.621094 1050 432.199219 C 1066.652344 435.609375 1070.597656 445.785156 1082 456 M 930 270 L 931 270 C 946.957031 236.285156 954.886719 198.808594 980 170.003906 C 990 158.34375 1007.292969 145.191406 1023 155.132813 C 1041.21875 166.664063 1050.175781 192.527344 1056.667969 212 C 1058.785156 218.355469 1059.566406 226.300781 1063 232 C 1065.773438 222.613281 1062 212.285156 1060.199219 203 C 1055.902344 181.527344 1050.699219 159.253906 1036.382813 142.003906 C 1027.90625 131.789063 1015.324219 124.660156 1002 128.773438 C 987.332031 133.300781 977.367188 146.730469 969.34375 159 C 954.273438 182.046875 945 207.671875 937.578125 234 C 934.1875 246 930 257.523438 930 270 M 449 234 L 451 234 C 452.695313 221.402344 457.738281 208.636719 462.71875 197 C 466.382813 188.441406 470.296875 179.738281 475.519531 172 C 491.308594 148.621094 510.363281 150.175781 528.996094 169 C 548.671875 189 560.21875 216 569.34375 242 C 572.550781 251.148438 575 263.246094 581 271 C 583.703125 260.292969 576.703125 243.546875 573.847656 233 C 565.785156 203.1875 555.195313 171.460938 532.996094 149 C 522.191406 138.070313 509.273438 128.46875 493 131.328125 C 481 133.414063 473.789063 145.105469 468.757813 155 C 456.78125 178.539063 449 207.472656 449 234 M 919 342 C 916 326 924 314 932.667969 301 C 948 278 965.402344 257.589844 985 238 C 991.617188 231.386719 1002.613281 225.1875 1007 217 C 994.890625 220.5625 984 231.628906 975 240 C 954.664063 258.371094 937 278.648438 921 301 C 913.328125 312 899.867188 334.527344 919 342 M 502 220 C 507.921875 232.695313 525 240.523438 535 250.039063 C 561.308594 275.191406 595.203125 310.230469 600 348 C 615.84375 336.203125 601.214844 315.5 592.625 304 C 569.949219 273.632813 539 233.46875 502 220 M 1057 311 C 1056.605469 330.113281 1047 346.507813 1040.695313 364 C 1034.660156 380.613281 1031.566406 399.546875 1029 417 C 1051.171875 410 1062.566406 375.003906 1063 354 C 1057.933594 356 1053.71875 359.375 1049 362 C 1054.335938 349.179688 1060 339.289063 1060 325 C 1060 320.269531 1061.261719 314.011719 1057 311 M 456 312 C 448.367188 330.089844 460.339844 347.367188 466 364 C 461 361 456.257813 357.488281 451 355 C 452 378.230469 465.699219 410.375 488 420 C 483.496094 404.253906 481.4375 387.507813 476.328125 372 C 472.785156 361.238281 466.429688 351.707031 462.695313 341 C 459.597656 332.113281 461.441406 319.636719 456 312 M 954.957031 315.800781 C 949.789063 316.726563 938.882813 332 935.742188 336.300781 C 934.65625 337.808594 933 342.175781 936.320313 342.289063 C 944.21875 342.5625 953 330 956.519531 324 C 957.914063 321.585938 960.425781 314.820313 954.957031 315.800781 M 554 317.070313 C 547.746094 323 566.464844 337.398438 570 339.828125 C 571.636719 341 575.941406 344.15625 577.914063 342 C 579.769531 340 576.28125 336.554688 574.941406 335.324219 C 569.492188 330.3125 565.960938 324.214844 560.785156 319.226563 C 559.410156 318 555.992188 315.257813 554 317.070313 M 793 358 L 792 359 L 793 358 M 1049 362 L 1048 363 L 1049 362 M 531 367 L 530 368 L 531 367 M 982 367 L 981 368 L 982 367 M 705 415 C 711.332031 431.328125 729.894531 427.335938 739.582031 438.214844 C 749 449 748.269531 470.222656 755 483 L 756 483 C 765.226563 469.007813 767.601563 448.636719 778.394531 436.105469 C 787.472656 425.566406 804.625 429.097656 812 415 C 798.980469 417.453125 790.367188 416.726563 783.3125 404 C 780.722656 399.332031 776.355469 382.636719 769.957031 382.636719 C 763.175781 382.636719 761.539063 393.183594 755.269531 394.648438 C 748.851563 396.144531 744 382.21875 737.429688 387 C 728.355469 393.214844 734.386719 417.3125 719 418.667969 C 714.347656 419.078125 709.558594 415.785156 705 415 M 633 390.300781 C 638.375 389.789063 654.945313 393.632813 648.957031 402.484375 C 646.894531 405.535156 642 404.699219 639 405.390625 C 632.886719 406.75 628.28125 412 622 412.773438 C 611.890625 414.070313 593.945313 410.039063 608 398.527344 C 614.839844 393 624.484375 391.109375 633 390.300781 M 874 390.390625 C 884.289063 388.148438 896.445313 391.144531 904.960938 397.105469 C 908.628906 399.671875 916.769531 409 908.941406 411.425781 C 896.730469 415.285156 888.839844 407.828125 878 405.394531 C 873.769531 404.441406 868 406.035156 864.449219 403.0625 C 858.257813 398 869.871094 391.289063 874 390.390625 M 527 414 C 531.335938 424.0625 540.171875 432.425781 543.210938 443 C 545.765625 452 543.25 462.308594 541 471 C 546.234375 469.789063 553.226563 468.113281 555.972656 463 C 557.800781 459.523438 556.550781 455.589844 559.433594 452.527344 C 565.707031 446 578.242188 443.183594 587 443 L 587 444 C 583 446.007813 579.257813 448 575 449 C 584.78125 459.234375 572.28125 459.515625 565.46875 465.214844 C 561.925781 468.175781 560 472.140625 556 475.035156 C 549.757813 479.46875 544.210938 484.785156 538 489.253906 C 535.523438 491.035156 530.535156 493 529 495.632813 C 527.1875 499.328125 531 502.804688 527.679688 506.816406 C 523.574219 511.648438 516.695313 513.78125 512 518.09375 C 502.550781 526.769531 495.316406 537.320313 488.34375 548 C 482.789063 556.511719 473.574219 581 462 581.664063 C 447.679688 582.679688 462.710938 566.378906 465.320313 563 C 479.476563 544.675781 486.804688 523.601563 505 508.132813 C 510.347656 503.589844 523.582031 499.355469 524.757813 492 C 525.691406 486.144531 522.75 479.800781 522.171875 474 C 520.679688 459.089844 522.613281 443.757813 524.574219 429 C 525.253906 424 524.277344 418.546875 527 414 M 984 422 C 988.65625 438.296875 993 451.746094 993 469 C 992.964844 476 987 488.800781 990 495 C 993.226563 501.289063 1003.621094 503.386719 1009 507.527344 C 1019.359375 515.511719 1027.328125 527 1034 538 C 1040.539063 549 1046.746094 560 1054.421875 570 C 1056.226563 572.382813 1061 578.132813 1055.847656 579.679688 C 1050 581.398438 1044.988281 577.355469 1041.785156 573 C 1034.386719 563 1029 551.332031 1021.972656 541 C 1015.949219 532.171875 1009.410156 523.105469 1001 516.378906 C 996.214844 512.550781 989.4375 510.421875 985.449219 505.675781 C 981.882813 501.433594 987.1875 498 985 494.507813 C 979.472656 485.207031 963.898438 478.671875 955 473 C 950.6875 470.140625 949.601563 465.738281 945.855469 462.636719 C 941.792969 459.273438 935.851563 458 931 456 C 937 448 935.441406 448 927 443 L 927 442 C 935.652344 443.679688 946 445.355469 952.851563 451.527344 C 956.308594 454.683594 955.472656 459.394531 958.433594 462.773438 C 962 467 969 468.105469 974 470 C 969.75 455 971.339844 433.570313 984 422 M 810 492 C 801.332031 500.667969 792.335938 509.171875 788 521 C 780.949219 541 790.1875 561 795.570313 580 C 797.707031 587.566406 798.1875 595.40625 800 603 C 796.675781 601.261719 793.710938 599.667969 790 599 C 793.6875 611.539063 806 624.039063 817 631 C 821.335938 633.597656 828 634 831.257813 638.226563 C 834.472656 642.542969 832.90625 650 834.816406 655 C 840.871094 671.140625 851 686 859.304688 701 C 863.5 708.613281 868.949219 716.359375 878 718 C 866.699219 701 858.976563 685.113281 851.398438 666 C 848.789063 659.414063 843.816406 649.28125 851.214844 644 C 854.941406 641.179688 859.777344 642.792969 864 643 C 874.519531 643.515625 885.472656 645.253906 896 643.558594 C 910.269531 641.261719 917.90625 627.808594 931 623.089844 C 936.539063 621.09375 943.933594 619.34375 948.46875 624.226563 C 966 643.238281 942.398438 669.660156 935.613281 687 C 930.386719 700.363281 931.753906 714.167969 933.714844 728 C 934.988281 737 934.503906 746.617188 943 752 C 941.484375 732.789063 940 714.785156 946 696 C 952.339844 676.164063 971.246094 658.335938 964.558594 636 C 963 630.8125 959.996094 626.441406 957 622 C 961.757813 622.097656 966.386719 623 971 624 C 966.621094 605.589844 950.25 612.585938 939 605.398438 C 931.246094 600.4375 928.960938 590.304688 921.960938 584.519531 C 905.890625 571.234375 885 575 866 575 C 870 569.410156 874.1875 564 879 559 C 882.679688 555.261719 886.503906 551.65625 891 549 C 921.949219 530.136719 931.191406 577.378906 953 585 C 947.957031 556.722656 918.882813 537 892 539 L 892 538 C 897.339844 536 907.1875 526.363281 895.996094 525.109375 C 887.507813 524.15625 881.570313 528.292969 875 533 C 875.191406 531.449219 876.449219 527.367188 874.949219 526.175781 C 872.796875 524.46875 868.628906 530.300781 866.410156 530.738281 C 858.882813 532.226563 848 519.25 842.613281 531.042969 C 838.851563 539.277344 849.957031 545 849.867188 553 C 849.691406 568.269531 838.578125 591 830.988281 604 C 828.523438 608.226563 825.296875 616.042969 819.996094 617.253906 C 813.558594 618.722656 806.292969 607.746094 801 605 C 808.753906 598.039063 805.835938 586 803.625 577 C 799.195313 559 792.515625 542.386719 799.425781 524 C 802.519531 515.761719 813.550781 500.730469 810 492 M 702 493 C 704.367188 508.800781 716 521.816406 717.824219 538 C 719.664063 555.167969 711.199219 572.242188 708.589844 589 C 707.765625 594.292969 711 600 710.167969 604.574219 C 708.964844 610.710938 696 620.59375 690 616.441406 C 677 607.4375 670.824219 584.175781 665.996094 570 C 664 564.613281 661 558.828125 661.195313 553 C 661.417969 544.574219 674.746094 538.019531 668.257813 529.148438 C 661.851563 520.390625 653 532.203125 646 531.46875 C 643.675781 531.214844 640 524.492188 638 526.175781 C 636.378906 527.5 637.699219 531.363281 638 533 C 632 528 624.179688 523.179688 616 525.316406 C 606.242188 528 616.457031 536.238281 621 538 L 621 539 C 595.71875 538 583.828125 547.1875 570.988281 569 C 567.75 574.503906 563.230469 579.644531 562 586 C 581.761719 577.308594 590.863281 535.027344 618 546.347656 C 621.585938 548 624.972656 550 628 552.3125 C 632.363281 555.808594 636.40625 559.613281 639.878906 564 C 644.578125 570 647.304688 576.671875 649 584 L 648 584 C 645 574.480469 637.492188 575 629 575 C 615 575 599.308594 576.246094 589.210938 587.09375 C 583.882813 592.816406 582 603 574.960938 606.824219 C 562 613.746094 551 607 544 624 C 548.523438 623.628906 552.691406 622.378906 557 621 C 537.640625 646.1875 555.8125 666.53125 565.550781 691 C 572.71875 709.003906 574.488281 734.140625 570 753 C 579.277344 748.4375 578.75 735 580.246094 726 C 582.410156 713.023438 583.726563 699.339844 578 687 C 569.773438 668.738281 547.636719 646.53125 563.648438 625.042969 C 568.316406 618.777344 574.910156 620.121094 581 623.527344 C 591.640625 629.484375 598.660156 640.101563 611 643.101563 C 621.417969 645.632813 634.554688 644.492188 645 642.539063 C 651.90625 641.246094 659.820313 639.242188 663.820313 647.015625 C 667.367188 654 662 663.675781 659.28125 670 C 654.355469 681.425781 650.554688 694.078125 644.675781 705 C 641.945313 710.074219 637.414063 713.8125 635 719 C 646 715.441406 651.257813 704.6875 656.257813 695 C 663 681.679688 672.199219 669.074219 677.53125 655 C 679.492188 649.832031 677.53125 643 680.859375 638.339844 C 684.367188 633.578125 692.226563 633.023438 697 629.777344 C 707.695313 622.503906 717.992188 611 723 599 C 719.449219 599.640625 716.945313 601 714 603 C 723.359375 569.707031 745.429688 513.253906 702 493 M 639 533 L 638 534 L 639 533 M 875 533 L 874 534 L 875 533 M 514 535 L 513 536 L 514 535 M 622 539.332031 C 622.773438 539.332031 622 539.832031 621.667969 539.667969 L 622 539.332031 M 892 539 L 891 540 L 892 539 M 618 590.433594 C 627.980469 587.601563 637.183594 594.800781 623 599 C 614.777344 601.363281 608.714844 593.078125 618 590.433594 M 882 595 C 885.425781 591.074219 896.539063 586.398438 899.914063 593.144531 C 903.386719 600.085938 892 598.617188 889 597.652344 C 886.597656 597 884.296875 596.019531 882 595 M 607 597 C 609.402344 624.339844 647.6875 625.652344 649 597 L 650 597 C 650.769531 603.101563 652 610 650.195313 616 C 645.492188 631.007813 622.78125 636 611 626.441406 C 603.238281 620.085938 599.320313 604.695313 607 597 M 909 598 C 910.523438 606 912.1875 613.578125 907.910156 621 C 898.742188 637 873.375 633.386719 864.613281 619 C 860.777344 612.683594 862.476563 606.660156 864 600 L 865 600 C 870.761719 613.761719 885.867188 627.277344 899.90625 614.671875 C 905 610 905.183594 603.347656 909 598 M 801 603 L 800 604 L 801 603 M 957 621 L 956 622 L 957 621 M 753 652 C 752.746094 664.183594 747.9375 676.03125 745.921875 688 C 745 692.59375 743.605469 699.574219 746.179688 704 C 749.917969 710.058594 759.574219 701.074219 765 701.132813 C 766.929688 701.152344 772.242188 703 773.1875 700.394531 C 774.292969 697.34375 770.652344 691 769.667969 688 C 766 677.066406 762.503906 659.074219 753 652 M 421 681 C 423.390625 689.054688 430.179688 693.429688 436 699 C 432.203125 700.261719 432 702.324219 433 706 C 422.769531 701.742188 413 694.667969 402 693 C 404.578125 702 410.433594 709.476563 414 718 C 406.726563 714.554688 399 710.203125 391 709 C 395.871094 735 407 752.234375 435 756 C 432.570313 749.59375 427.738281 744.65625 424 739 C 434.683594 745.085938 443.71875 754.082031 456 757 C 451.578125 744.019531 443.589844 733 437 721 C 439 721.78125 459 725.078125 456.652344 719.421875 C 455.347656 716.445313 444.234375 713.441406 447.753906 708.726563 C 449.917969 705.824219 455.921875 706.085938 459 704.429688 C 465.226563 701.085938 469 694.601563 471 688 C 468.703125 689.066406 466.425781 690.554688 464 691.296875 C 451.734375 695.039063 458.785156 677.363281 459.558594 672 C 459.804688 670.289063 460.492188 665.207031 457.566406 665.207031 C 453.464844 665.203125 447.402344 673 444 675.25 C 436.640625 680.195313 429.628906 681 421 681 M 1026 775 C 1014.789063 770.332031 1004.691406 762.367188 993 759 C 996.550781 771.070313 1009.875 783 1022 786 L 1022 787 C 1010.703125 784.410156 999.6875 779.503906 988 779 C 996.414063 793.628906 1015.207031 811.183594 1033 812 L 1033 813 C 1022.539063 813.027344 1013.167969 813.230469 1003 810.113281 C 994.894531 807.632813 987.292969 802.476563 979 801 C 991.175781 822.0625 1016.964844 831 1040 831 C 1037.242188 825.214844 1031.730469 822.398438 1026 820 C 1035.324219 815.320313 1046.890625 815.578125 1054 807 C 1050.242188 806 1027.277344 804.234375 1032.753906 795.394531 C 1036 790.074219 1048.558594 791.652344 1054 790 C 1048.808594 782.78125 1040.484375 778.800781 1034 772.828125 C 1022.8125 762.492188 1013.710938 747.375 1012.171875 732 C 1011.246094 722.773438 1008.652344 702.1875 1013 694.042969 C 1015.511719 689.785156 1034 686.203125 1030.339844 681.398438 C 1025.71875 675.351563 997.753906 674.113281 997 683.019531 C 996.363281 692.015625 1002.1875 700.273438 1003.5625 709 C 1004.871094 717.316406 1003.769531 725.648438 1005.449219 734 C 1008.609375 749.703125 1016.609375 762.324219 1026 775 M 466 812 C 473.511719 813.011719 480.421875 816.382813 488 817 L 488 818 C 482.914063 820.117188 475 822.332031 472 827 C 491.632813 827 526.90625 817 534 796 C 526.679688 800 520 805.160156 512 807.558594 C 502.582031 810.367188 491.734375 809 482 809 L 482 808 C 497.898438 807.273438 519.304688 796 524 780 C 514.972656 781.699219 506 784.667969 497 786 L 497 785 C 508.285156 781.394531 520.429688 768.210938 524 757 C 512.78125 758.683594 502.816406 765.777344 493 771 C 498.523438 761.078125 505 752.113281 508.253906 741 C 511.464844 729.550781 510.324219 717.617188 512.285156 706 C 513.527344 698.632813 518.226563 691.609375 517.902344 684.003906 C 517.5 674.550781 489.96875 676.484375 485.753906 682.390625 C 483.292969 685.832031 500.640625 691 502.679688 695.015625 C 504.515625 698.761719 503 703.039063 503 707 C 502.78125 716.558594 504 725.476563 502.382813 735 C 499.8125 749.160156 492 762.699219 481.828125 772.714844 C 477 777.292969 465.902344 782.339844 463.175781 788.074219 C 461.753906 791.074219 466 791.738281 468 792 C 472 792.246094 484.859375 788.230469 486.167969 794.148438 C 488.183594 803.257813 469.699219 806.398438 466 812 M 723 731 C 736.84375 727.011719 747.90625 720.710938 763 722.171875 C 773.820313 723.21875 782.636719 728.601563 793 731 C 788 711.277344 763.625 715 748 715 C 741.914063 715 733.421875 714.308594 728 718 C 723.6875 720.8125 723 726.148438 723 731 M 753 731 C 749 727.265625 743 726 738 728.007813 C 736.4375 728.65625 730.367188 732.6875 733.660156 734.761719 C 736.285156 736.410156 749 731.171875 753 731 M 760 729 C 763.472656 733.5625 775.433594 734.714844 781 737 C 780.613281 725.136719 768.566406 728 760 729 M 739 737 C 740.855469 738.058594 750 741.339844 748 744.390625 C 744.808594 749.34375 725.917969 749.183594 720 752 C 706.382813 758.152344 699.390625 771.667969 690.574219 783 C 684.8125 790.40625 678.195313 798.050781 678.179688 808 C 678 817.597656 680.421875 827.574219 682 837 C 682.652344 840.21875 684.816406 844.652344 684 848 C 682.707031 853.828125 668.785156 853.128906 670.753906 861 C 672.460938 867.566406 683.523438 860.46875 685.796875 866.292969 C 687 869.746094 683.222656 874.039063 681.902344 877 C 678.183594 885.355469 677.808594 895.074219 685 901.535156 C 687 903.425781 692.179688 906.171875 690.167969 909.675781 C 687.894531 913.636719 681 914.425781 677 915.195313 C 662.339844 918 644.746094 913.441406 634 903 C 629.628906 898.679688 627.574219 891.433594 623 888 C 624.449219 921.226563 666.878906 928.742188 693 927 C 698.761719 926.507813 704.25 924.46875 710 924 L 710 925 C 695.660156 930.5625 681.570313 934.515625 666 932.824219 C 635.976563 929.566406 614.3125 902 603.425781 876 C 596.742188 860.066406 595.207031 829.101563 578 820.457031 C 566.171875 814.515625 558.675781 826 556.425781 836 C 552.785156 852.234375 553.582031 882.695313 567 894.765625 C 576.648438 903.289063 572.894531 877.191406 573 872 L 574 872 C 578 889.476563 590.257813 903.453125 600 918 C 612.828125 937.15625 622.683594 956.074219 637.382813 974 C 642.835938 980.648438 647 987.648438 649.359375 996 C 649.996094 998.363281 652.167969 1004.058594 648.679688 1005.210938 C 641.824219 1007.476563 631 996.09375 627 992 C 613.429688 978.523438 602.632813 966.171875 582 966 C 584.964844 972.222656 591.925781 977 598 980 L 598 981 C 585.976563 977.15625 573.671875 974 561 974 L 561 975 C 574.957031 981.214844 589.5625 985.28125 603 992.78125 C 607.425781 995.253906 614.691406 999.367188 615.351563 1005 C 615.898438 1009.625 611.175781 1015.195313 609 1019 C 603.3125 1029 596.183594 1040 593 1051 C 604.203125 1047.453125 613.835938 1038.167969 623 1031.113281 C 626.390625 1028.503906 631.179688 1023 635.996094 1024 C 647.8125 1026.644531 641 1040.695313 637.742188 1047 C 633.953125 1054.320313 628.1875 1060.417969 624.875 1068 C 616.226563 1087.792969 611 1112 607 1133 C 612.667969 1130.101563 616 1123.175781 619.65625 1118 C 627.730469 1106.136719 635.738281 1094.1875 643.316406 1082 C 646 1077.492188 649.542969 1065.816406 655 1064.207031 C 659.59375 1063 663.363281 1071.199219 665.503906 1074 C 671.6875 1082.097656 689.976563 1098.605469 685 1110 C 676 1131.445313 664.539063 1155.40625 650.347656 1174 C 627.214844 1204.296875 598 1230.800781 586 1268 C 598.949219 1266.058594 609.402344 1255.695313 617.386719 1246 C 628.648438 1232.320313 637 1216.566406 648.4375 1203 C 661.324219 1187.640625 677.378906 1174.386719 686.214844 1156 C 692.183594 1143.582031 693.417969 1129.175781 699.558594 1117 C 701.730469 1112.691406 706.617188 1107.378906 711.996094 1109 C 718.601563 1111 720.914063 1119 720.996094 1125 C 721.183594 1139.066406 716.632813 1153.074219 711.394531 1166 C 694.675781 1207.273438 642.988281 1233.429688 651.246094 1283 C 652.195313 1288.699219 652 1296.023438 655 1301 C 659.867188 1292.351563 660.734375 1282.132813 664.453125 1273 C 669.6875 1260.152344 678.816406 1247.363281 686.722656 1236 C 700.429688 1216.289063 723.207031 1199.140625 732.535156 1177 C 738.328125 1163.253906 743 1147 743.90625 1132 C 744 1128.332031 739.78125 1117.355469 742.695313 1115 C 750 1108.769531 762.867188 1125.714844 764.636719 1131 C 770 1147.488281 764 1164.289063 764 1181 C 763.96875 1188 766.859375 1197.519531 764 1204 C 758.59375 1216.664063 740.210938 1224.203125 730 1232.613281 C 715.191406 1244.8125 704.3125 1263.355469 700 1282 C 718 1274.425781 732.894531 1259.304688 748 1247.199219 C 753 1243.160156 761 1233.355469 767.890625 1233 C 773.378906 1232.652344 771.730469 1241 771 1244 C 787.75 1241.527344 812.65625 1226.738281 818 1210 L 819 1210 C 819.554688 1223 825.554688 1229.710938 835.472656 1217 C 844.3125 1205.660156 842.753906 1189.039063 855 1180 C 855.1875 1195.769531 869 1186.625 875.984375 1180 C 885.347656 1170.8125 889.785156 1156.8125 886 1144 C 890.742188 1147.136719 895.953125 1153.453125 902 1153.597656 C 917.839844 1154 925.664063 1127.070313 926.828125 1115 C 928.433594 1098.433594 921.550781 1084 912 1071 C 939.976563 1077.664063 964.96875 1060.441406 991 1053 C 983 1041 957.320313 1045.636719 945 1041.777344 C 936.621094 1039.15625 930.890625 1032.335938 923 1029 C 923 1053.261719 946 1053 965 1053 L 965 1054 C 952 1055.015625 938.917969 1058.367188 926 1058 C 907 1057.355469 889.246094 1052 870 1052 C 872.847656 1060.019531 882.335938 1063.671875 887.675781 1070.003906 C 896.761719 1080.78125 900 1095.222656 900 1109 C 900 1112.640625 901.554688 1127.15625 896.566406 1128.269531 C 893.28125 1129.003906 888.550781 1124.058594 886 1122.4375 C 877.285156 1117 868 1110.746094 858 1108 C 859 1121.386719 862.777344 1133.457031 861 1147 C 860.78125 1150.117188 861.175781 1157.019531 858.820313 1159.363281 C 856.171875 1162.007813 848 1153.40625 846 1151.75 C 835.84375 1143.355469 823.171875 1132 821.304688 1118 C 818.425781 1096.523438 853 1085 848 1061 C 839 1071.226563 832.652344 1081 820 1087.191406 C 806.566406 1094 792.671875 1095.773438 778 1097.171875 C 735 1101.25 690.171875 1094.707031 666 1055 C 660.890625 1046.601563 656.8125 1038 656 1028 L 657 1028 C 660 1050.769531 675.203125 1063.429688 694 1074 C 726.847656 1092.089844 779.953125 1098.050781 814 1078.574219 C 825 1072.246094 837.613281 1064.695313 844.90625 1054 C 858.59375 1034 856.253906 1008.058594 867.488281 987 C 873.492188 975.75 883.277344 967.328125 890.5625 957 C 897.210938 947.574219 901 936.636719 907.34375 927 C 919.578125 908.15625 932.796875 892.660156 942 872 C 944 880.707031 941 889.207031 941 898 C 961.675781 890 961.261719 856.101563 958 838 C 956.359375 828.246094 950 815.359375 938 819.347656 C 930.429688 822 926.828125 830.210938 924 837 C 917.351563 853.050781 914.867188 870.339844 907 886 C 892.824219 914.394531 866.738281 935.203125 834 933 C 823.425781 932.167969 814.261719 926.535156 804 925 L 804 924 C 834.609375 926.417969 888.386719 930.253906 892 886 C 884.214844 891.703125 880.800781 902.335938 872 908.25 C 861.269531 915.460938 848.519531 917.351563 836 914.714844 C 832.515625 914 825.273438 912.363281 824.632813 908 C 824 904 831.882813 899.183594 833.195313 895 C 835 889 833.945313 881.75 831.535156 876 C 830.445313 873.398438 826.945313 869.269531 828.253906 866.316406 C 830.535156 861.148438 841.808594 867.25 842.535156 861 C 843.480469 852.511719 828.972656 853.160156 829.488281 844 C 830.398438 827.816406 840.371094 812.035156 833 796 C 826.625 781.738281 810.277344 759 796 752.132813 C 784.464844 746.601563 771.398438 749.523438 761 741 C 762.929688 741 776 738.621094 770.621094 735 C 764.523438 731 744.929688 733.425781 739 737 M 424 739 C 422.363281 738.453125 422.546875 738.636719 422 737 C 423.636719 737.546875 423.453125 737.363281 424 739 M 352 740 C 355.222656 751 365.171875 761.007813 373 769 L 354 762 C 356.777344 780.539063 377.585938 799 395 804 L 395 805 C 387.75 805 363 803.746094 360.792969 813.054688 C 359.378906 818.617188 366.679688 825.386719 370 829 C 365.578125 829.003906 361.378906 829.445313 357 830 C 360.988281 839.417969 370.496094 845.011719 379 850 C 400 862.355469 424.914063 868.691406 449 872 C 458 873.242188 467.886719 873.820313 477 872.824219 C 479.730469 872.527344 485.363281 871.734375 485.363281 868 C 485.363281 863.128906 476.4375 862.015625 473 861.433594 C 458.28125 859 443.503906 856.746094 429 853.128906 C 417.222656 850.1875 405 844.050781 393 843 L 393 842 C 404 842.03125 414.929688 844 426 844 C 418.382813 833.414063 404.765625 830.023438 395 822 C 407.398438 818.515625 419.421875 821 432 821 C 426.644531 807.179688 407.257813 794.546875 394 789 L 394 788 C 405.488281 792.429688 417.554688 796.742188 430 797 C 425.40625 790 408 781.367188 400 779 C 413.527344 776.75 426 781.191406 440 776.484375 C 442.320313 775.703125 450.792969 773.503906 450.792969 770.300781 C 450.792969 768.117188 446.367188 768.132813 445 768 C 438.941406 767.425781 432.929688 766.480469 427 765.117188 C 401 759.164063 377.691406 746 352 740 M 1113 740 L 1112 741 L 1113 740 M 1124 741 L 1123 742 L 1124 741 M 683.230469 749.742188 C 675.464844 753.433594 689.386719 766.53125 695.785156 763 C 708 756.089844 692.394531 745.390625 683.230469 749.742188 M 820 749.484375 C 811.914063 751.28125 812.65625 764.753906 821 763.40625 C 833.171875 761.453125 834.730469 746.207031 820 749.484375 M 828 791 C 816.761719 784.597656 808.402344 773.554688 796 769.089844 C 784.789063 765.054688 774.355469 768.710938 763 769 C 752.625 769.234375 742.320313 765.085938 732 766.175781 C 713.773438 768.097656 703.546875 780 689 789 C 704.589844 761.640625 735 761 763 761 C 777.449219 761 791.984375 761.144531 805 768.3125 C 814 773.355469 822 782.53125 828 791 M 374 769 L 373 770 L 374 769 M 493 771 C 492.453125 772.636719 492.636719 772.453125 491 773 C 491.546875 771.363281 491.363281 771.546875 493 771 M 1027 775 L 1026 776 L 1027 775 M 400 777 L 399 778 L 400 777 M 641 778 C 640.855469 795.53125 643 818.027344 635.558594 834 C 634 837.125 633.835938 843.335938 638.214844 844.539063 C 641.242188 845.371094 644.558594 841.722656 647 840.414063 C 649.761719 839 653.214844 838.320313 655.566406 836.148438 C 662.6875 829.558594 645.742188 818 645 810 C 644.355469 801.042969 650.5625 783.566406 641 778 M 872 778 C 867.964844 780.617188 869 785.605469 869 790 C 869 798.253906 870.878906 809.667969 866.261719 817 C 863.429688 821.496094 855.898438 826 856.648438 832 C 857 836.144531 873.273438 845.21875 876.683594 843.167969 C 882.695313 839.550781 875.308594 830.3125 874.390625 826 C 873.230469 820.546875 875.203125 814.574219 874.960938 809 C 874.507813 798.597656 872 788.460938 872 778 M 497 786 L 496 787 L 497 786 M 393 787 L 392 788 L 393 787 M 1023 787.332031 C 1023.773438 787.332031 1023 787.832031 1022.667969 787.667969 L 1023 787.332031 M 738 788.433594 C 742.90625 787.074219 748 788.660156 753 788.660156 C 759.984375 788.660156 769 786 775.816406 789 C 780 790.773438 781.371094 796.175781 785 799 C 790 802.570313 796.6875 803.390625 802 806.609375 C 809.613281 811.222656 822.296875 826.753906 807 830.46875 C 801.738281 831.742188 783 827.425781 787.648438 818.617188 C 790.601563 812.832031 802 829.1875 804.503906 821.726563 C 806 817 797.1875 812.476563 794 810.78125 C 781.449219 804.109375 766.308594 800.113281 752 801.089844 C 739 802 727.847656 805 717 812.105469 C 714.773438 813.59375 706.875 819 709.753906 822.351563 C 713.96875 827.394531 722 813.035156 725.867188 818.621094 C 729.65625 824.230469 717.78125 830 714 830.671875 C 702 832.808594 694.632813 825.726563 702.613281 815.003906 C 708.902344 806.554688 719 804.832031 726.957031 798.472656 C 730.84375 795.300781 732.863281 790 738 788.433594 M 396 805.332031 C 396.773438 805.332031 396 805.832031 395.667969 805.667969 L 396 805.332031 M 1131 835.519531 C 1117.34375 838.386719 1105.988281 847.664063 1093 852.300781 C 1078.511719 857.476563 1063 857.636719 1048 860.25 C 1045.339844 860.714844 1025.25 865.660156 1032.378906 871 C 1037.222656 874.582031 1054 870.195313 1060 869.425781 C 1084.714844 866.167969 1116 867.164063 1136.957031 851.210938 C 1145.21875 845 1142 833.179688 1131 835.519531 M 393 841 L 393 842 L 390 842 C 391.25 841.316406 391.546875 841.25 393 841 M 484 849 C 490 860 509.640625 857.757813 520 863.324219 C 532.777344 870.191406 535.949219 884.0625 551 888 C 549.367188 882.003906 544.398438 877.652344 541.800781 872 C 537.589844 863 540.402344 849.636719 529 845.148438 C 515.59375 840 497.960938 849 484 849 M 964 887 C 977.902344 886.363281 979.929688 874.191406 989 866.328125 C 996 860.28125 1006.238281 859 1015 857 C 1017.847656 856.390625 1029.949219 855 1029 850.328125 C 1028.472656 847.113281 1020.378906 847.78125 1018 847.410156 C 1007.863281 845.828125 992.601563 840.121094 983 846.007813 C 974.210938 851.417969 976 862.632813 972.652344 871 C 970.277344 876.675781 965.875 881.128906 964 887 M 741 846 C 733.925781 859.34375 715 857.089844 707 846 C 717.664063 843.460938 730 846 741 846 M 808 846 L 808 847 C 796.5625 853.019531 780.964844 861.300781 773 846 C 784.742188 846 796.269531 843.824219 808 846 M 764 856 C 767.457031 870.539063 777 871 790 871 L 790 872 C 778.914063 876.046875 765.234375 873.160156 763 888 L 762 888 C 762 878.828125 759.1875 864.03125 764 856 M 749 865 C 749 867.488281 750 873.074219 747.972656 875 C 744.542969 878.058594 728.417969 872.832031 724 872 L 724 871 C 734 871 740 870 749 865 M 1101 879 L 1101 880 C 1094.570313 882 1088.609375 884.632813 1082 886 C 1084.964844 890.34375 1091.679688 892 1096 895.042969 C 1101.785156 899.128906 1105.734375 904.46875 1110 910 L 1094 910 C 1097.207031 921.136719 1105.449219 930.027344 1111 940 C 1102 935.277344 1094.359375 929 1084 928 C 1090.601563 947.414063 1122.71875 944 1125 966 C 1135.804688 959 1122.320313 936.242188 1123.503906 927.003906 C 1124.289063 921 1132.78125 919 1135.722656 914 C 1139.921875 906.792969 1136.53125 898.429688 1135 891 C 1141.511719 892.410156 1156.675781 882.636719 1148.394531 876.027344 C 1143 871.738281 1123.875 874 1117 874 C 1087.199219 874 1057.523438 875.050781 1028 879.421875 C 1019.339844 880.703125 1010.652344 881.808594 1002 883.132813 C 999.351563 883.539063 994.777344 884.023438 993.972656 887.210938 C 992.339844 893.679688 1003.320313 894 1007 893.421875 C 1023 891.472656 1038.996094 888 1055 885.246094 C 1070 882.71875 1085.578125 879.011719 1101 879 M 399 936 C 397.882813 929.273438 401 922.40625 402.859375 916 C 405 908.511719 406.199219 895 412.339844 889.652344 C 417.433594 885.308594 425.773438 886 432 886 C 449 886 466.230469 888.410156 483 892 C 492.773438 894.09375 503.921875 897.558594 514 896.671875 C 517.882813 896.328125 523.925781 895 523.992188 890 C 524 879.210938 496 880 489 880 C 459.515625 880 430.402344 877.429688 401 881.574219 C 392.445313 882.78125 375.824219 883.105469 371.222656 892.179688 C 368 898.300781 379.398438 901.773438 379.941406 908 C 381.6875 928.0625 377.847656 950.765625 376.960938 971 C 376.847656 973.5625 373.753906 992.132813 379 989.824219 C 385.1875 987.203125 389.289063 977.28125 392.691406 972 C 403.382813 955.410156 417.234375 940 421.191406 920 C 422.203125 915 423.699219 902.699219 419.1875 898.753906 C 416.207031 896.144531 412.660156 904.214844 411.601563 906 C 406.277344 915 400.542969 925.558594 399 936 M 995 909 C 989.925781 911.105469 986.339844 922.476563 995 919.253906 C 1002 916.636719 1004.945313 904.574219 995 909 M 1042.367188 909.34375 C 1038.253906 911 1037.230469 915 1032 915 C 1025 915.011719 1012.226563 905.460938 1006.621094 912.300781 C 1003.203125 916.476563 1008.964844 918.003906 1012 918.574219 C 1019.679688 920.023438 1030.351563 923.21875 1037.996094 920.257813 C 1041.878906 918.753906 1046.34375 907.753906 1042.367188 909.34375 M 512.320313 911.746094 C 505.761719 915.03125 517.882813 924.363281 522.679688 922.351563 C 529.421875 919.53125 518.476563 908.664063 512.320313 911.746094 M 470.574219 913.347656 C 466 915.574219 472.726563 922.355469 475 923.257813 C 481.617188 926 500.949219 924.394531 506.664063 920.011719 C 510.386719 917.152344 506.222656 913.539063 502.996094 913.1875 C 495.242188 912.347656 488.492188 920.574219 481 919.160156 C 478.296875 918.652344 472.777344 912.261719 470.574219 913.347656 M 711 923.332031 C 711.773438 923.332031 711 923.832031 710.667969 923.667969 L 711 923.332031 M 803 923.332031 L 803.332031 923.667969 C 802.839844 923.832031 802.226563 923.332031 803 923.332031 M 954 937 L 954 936 C 982.851563 936 1013.433594 926.199219 1042 933 C 1038.367188 926.722656 1028.488281 927.527344 1022 927 C 1002.984375 925.15625 985 924.679688 966 925 C 959.898438 925.097656 945.605469 925.105469 943.972656 933.015625 C 942.316406 941.011719 957.699219 945.316406 963 947.578125 C 980 955 1005.898438 969.796875 1024.980469 967.347656 C 1030.5625 966.632813 1030 961.792969 1026.773438 958.46875 C 1021.4375 953.164063 1012.890625 950 1006 947.203125 C 999.253906 944.53125 992 942.636719 985 941.433594 C 974.855469 939.730469 964.230469 937.8125 954 937 M 474 936 C 487.660156 936 501.34375 934.152344 515 935.089844 C 530.777344 936.171875 546 939 562 939 C 551.535156 942.308594 539.785156 942.390625 529 944.792969 C 522.53125 946.234375 516 948.113281 510 950.605469 C 503.265625 953.332031 495.527344 956.515625 490 961.46875 C 487.96875 963.421875 484.296875 968.167969 488.320313 970.257813 C 493.589844 973 501.871094 969.566406 507 968 C 522.796875 963.066406 537.820313 956.507813 553 950 C 558.1875 947.773438 568.636719 944.546875 569.574219 938 C 570.804688 929.371094 555.699219 928.15625 550 928.015625 C 531.277344 927.554688 512.59375 928.144531 494 930.164063 C 488.292969 930.785156 477.476563 931.058594 474 936 M 1113 942 C 1111.363281 941.453125 1111.546875 941.636719 1111 940 C 1112.636719 940.546875 1112.453125 940.363281 1113 942 M 920 946 C 923 950.496094 930 951.675781 935 953.332031 C 947.890625 957.632813 961.5625 960.488281 974 966 C 968.859375 967.738281 961 969.398438 958 974 C 973 974 988.402344 974.101563 1003 970 C 997.875 964.019531 989.191406 961.535156 982 958.808594 C 962.585938 951.449219 940.832031 946.429688 920 946 M 514 974 C 528.691406 974.003906 543.273438 976 558 976 C 554.695313 971.601563 546.21875 970.207031 541 969 L 541 968 C 553.472656 964.433594 565.207031 959.265625 578 956.425781 C 584.289063 955.027344 591.464844 954 595 948 C 575 952.125 554.363281 954.644531 535 961.34375 C 527.433594 964 517.757813 966.3125 514 974 M 757 1004 C 757 988 766 957.34375 784 952.433594 C 796.304688 949.066406 816.617188 951 829 953.449219 C 834.816406 954.640625 841.691406 957 841.898438 964 C 842.183594 973.6875 830.929688 979.566406 827.480469 988 C 818.980469 1008.796875 830.960938 1030.464844 811 1047.246094 C 800.710938 1056 787.992188 1065.347656 774 1066 C 768.285156 1066.210938 761.289063 1065.6875 758.316406 1060 C 756 1055.648438 757 1049.695313 757 1045 L 755 1045 C 755 1050.261719 756 1057.183594 752.910156 1061.773438 C 749.378906 1067 741.371094 1066.351563 736 1065.382813 C 721.378906 1062.753906 707 1053 697 1042 C 685.460938 1029.238281 690.6875 1011.441406 688 996 C 686 984.164063 669.503906 975.480469 671.242188 964 C 672.574219 955.226563 682.863281 953.703125 690 952.589844 C 711.847656 949.179688 728.710938 956 746.984375 967.347656 C 759.675781 975.296875 747.546875 994 757 1004 M 401 1102 C 405.804688 1093.765625 409.929688 1084.605469 414 1076 L 415 1076 C 409.5 1099.03125 415.914063 1125.054688 428 1145 C 434.765625 1139.183594 437 1127.433594 439 1119 L 440 1119 C 444 1138.480469 453.417969 1156.742188 460.988281 1175 C 464.167969 1182.664063 465.484375 1192.414063 472 1198 C 472.859375 1187.113281 472.394531 1177.804688 471 1167 L 472 1167 C 474.574219 1176 479.921875 1184.753906 485.667969 1192 C 490.332031 1198 494.78125 1200 495 1191 L 496 1191 C 499.722656 1204 509.566406 1215.738281 519 1225 C 520.574219 1226.527344 529 1235.796875 531.394531 1232.339844 C 534 1228.4375 531 1216.578125 531 1212 C 531 1192.609375 530 1173.382813 530 1154 C 522.214844 1160.621094 513.800781 1176 512 1186 L 511 1186 C 511 1166.066406 513.28125 1143.710938 505 1125 L 504 1125 C 497.519531 1134.828125 491.246094 1146.648438 488 1158 L 487 1158 C 483.707031 1135.691406 478 1116.023438 478 1093 C 474 1095.628906 473.171875 1100.773438 471.574219 1105 C 468 1114.355469 462.695313 1124.144531 461 1134 L 460 1134 C 459.996094 1109.476563 452 1085.566406 452 1061 L 451 1061 C 446.46875 1068 441.179688 1075.441406 438 1083 L 437 1083 C 438.839844 1059.695313 436 1036.398438 436 1013 C 427.496094 1017.652344 420.507813 1034 418 1043 L 417 1043 C 419.230469 1025.457031 424.652344 1008.425781 427 991 C 422.167969 992.394531 408.835938 1004 404.617188 1001.699219 C 401.300781 1000.015625 405.742188 992.203125 406.574219 990 C 410.519531 979.535156 415 967.164063 416 956 C 410.628906 958.71875 407 964.414063 403.25 969 C 393.492188 980.8125 381 996.570313 383.183594 1013 C 384.453125 1023.195313 392 1029 392 1040 C 392 1058.816406 388.886719 1086 401 1102 M 859 1045 C 877 1039 887.234375 1012.085938 900 999 C 915.703125 983 934.941406 979.679688 955 972 L 955 971 C 942.496094 971 931 974.492188 919 977 L 919 976 C 924.777344 973.050781 929.984375 968.800781 933 963 C 923.175781 963.203125 910.273438 965.800781 903.183594 973.105469 C 899.222656 977.1875 897.492188 982.726563 893.785156 987 C 888.21875 993.382813 879.804688 996.347656 874.527344 1003.015625 C 865.351563 1014.613281 863.386719 1031.277344 859 1045 M 1095 966 L 1096 1009 L 1095 1009 C 1093.460938 1002.519531 1089.710938 992.742188 1084 989 C 1085 996.386719 1090.226563 1003.464844 1089.855469 1011 C 1089.28125 1022.609375 1082.964844 1035 1082 1047 L 1081 1047 C 1078.863281 1037.765625 1072.90625 1016.394531 1065 1011 C 1065 1031 1056.6875 1048.65625 1055 1068 C 1048 1061 1046.914063 1047.054688 1038 1042 C 1041.527344 1061 1034.648438 1080.75 1027 1098 C 1026 1095 1021.941406 1074.398438 1017.3125 1076.347656 C 1013.96875 1077.753906 1012.21875 1087 1011 1090 C 1006.769531 1101.484375 1002 1112.75 993.824219 1122 C 963 1156.34375 907.46875 1163.777344 893 1214 C 907 1210 917.757813 1196.1875 929 1187.425781 C 949.476563 1171.464844 971.414063 1157.390625 993 1143 C 1003.421875 1136.050781 1018 1127.070313 1021 1114 L 1022 1114 C 1021.5625 1123.597656 1016.175781 1131.8125 1014 1141 C 1026.4375 1136.183594 1034.496094 1120.308594 1040.242188 1109 C 1041.371094 1106.78125 1045.402344 1095.054688 1048 1095.054688 C 1051.816406 1095.054688 1057.953125 1111 1060 1114 C 1068.910156 1104.476563 1074 1083.734375 1076 1071 L 1077 1071 C 1077 1080 1074.699219 1088.207031 1074 1097 C 1089.203125 1089.765625 1096.75 1074 1098.714844 1058 C 1099.527344 1051.375 1098.570313 1044.367188 1101 1038.003906 C 1105.261719 1028 1111.402344 1038.492188 1117.785156 1035 C 1128 1029.285156 1125 1010.214844 1124 1001 C 1136.285156 1008.726563 1149 1001.238281 1137.773438 988.015625 C 1127.925781 976.453125 1109.269531 970 1095 966 M 846 976 C 844.664063 981.761719 843.203125 988.164063 837 990 C 838 984.097656 840.453125 978.710938 846 976 M 678 991 C 671.683594 988.800781 669.460938 983.152344 668 977 C 673.507813 978.820313 676.449219 985.730469 678 991 M 919 977 L 918 978 L 919 977 M 681 1006 L 681 1014 L 680 1014 C 679 1010.777344 679 1008.789063 681 1006 M 835 1008 L 835 1012 L 834 1012 C 834.175781 1010.316406 834.316406 1009.507813 835 1008 M 656 1024 L 656 1028 L 655 1028 C 655.175781 1026.316406 655.316406 1025.507813 656 1024 M 508 1111 C 516.25 1107.148438 520.601563 1098 526 1091 C 538 1075.484375 556.207031 1059.054688 564 1041 C 531.394531 1042.402344 511.878906 1082.21875 508 1111 M 417 1044 L 416 1045 L 417 1044 M 1051 1170 L 1051 1171 C 1031.640625 1172.582031 1011.730469 1184.230469 993 1189.578125 C 986.933594 1191.308594 975.886719 1192.828125 972 1198 C 986.890625 1199.175781 1001.824219 1202.390625 1016 1207 L 1016 1208 C 992.660156 1210.035156 968.800781 1223 946 1228.628906 C 939.527344 1230.246094 924.886719 1230.492188 921 1236 C 934.917969 1238.621094 948.882813 1244 963 1245 L 963 1246 C 946.917969 1248.375 933.40625 1259.675781 917 1261.523438 C 899.234375 1263.519531 879.789063 1256.765625 862 1256 L 862 1257 C 875.570313 1263.425781 891 1269.070313 906 1271 L 906 1272 C 895 1272.496094 885.761719 1283.136719 876 1283.078125 C 871 1283.046875 866 1279 862 1276.578125 C 853.621094 1271.785156 844.441406 1266.242188 835 1264 C 838.386719 1275.757813 846.890625 1285.070313 852 1296 C 840.753906 1290.011719 828 1287.105469 817 1280.546875 C 808.351563 1275.390625 801.667969 1266.085938 792 1263 C 796.644531 1283.070313 809.824219 1300.8125 810 1322 L 809 1322 C 803.3125 1302.253906 790.777344 1297.402344 773 1290 C 774.972656 1303.351563 788 1315.367188 776 1326 C 774.375 1322.121094 772.507813 1318.257813 769.671875 1315.09375 C 767.742188 1313 765.410156 1311.261719 763 1309.699219 C 759.742188 1307.585938 753.335938 1302.804688 749.277344 1305.070313 C 744.808594 1307.566406 744.996094 1317.542969 744.246094 1322 C 742.605469 1331.753906 738.574219 1339.699219 729 1344.023438 C 719 1348.527344 724.4375 1325.492188 713 1330.460938 C 702.738281 1335 697 1346.183594 689.910156 1354 C 681 1363.5625 670 1370.296875 658 1375.136719 C 642.921875 1381.1875 630.238281 1372.417969 620.589844 1361 C 617 1356.800781 613.183594 1349.351563 608 1347.085938 C 602.878906 1345 601.371094 1351.390625 601 1355 C 597.480469 1351.011719 589.917969 1343.632813 588 1339 C 582.332031 1325.074219 587.183594 1309.148438 583 1295 C 575 1301.238281 573 1313.378906 573 1323 C 572.980469 1327.414063 574.453125 1335.054688 571.398438 1338.683594 C 569 1341.464844 563.507813 1342 562.316406 1338 C 560.917969 1333.109375 562.492188 1327 561.949219 1322 C 560.996094 1313.265625 558.183594 1304.832031 558 1296 C 542.875 1300.789063 530.796875 1314 516 1320 C 522.277344 1309.242188 529 1296.445313 531 1284 C 523.75 1285.398438 517.992188 1290.628906 512 1294.65625 C 510 1296 506.886719 1298.722656 504.320313 1297.695313 C 501.277344 1296.476563 502.476563 1292.195313 503.351563 1290 C 506 1283.035156 510.980469 1277.324219 513 1270 C 508.839844 1271.378906 505.691406 1274 502 1276.289063 C 499 1278.15625 486.414063 1282.804688 487.285156 1275 C 488.199219 1266.5625 496.476563 1259.554688 498 1251 C 487.746094 1256 479.5625 1264.046875 470 1270 C 474.34375 1262 479.1875 1252.289063 480 1243 C 475.703125 1245.449219 452 1265.648438 450 1252 C 449.386719 1247 454.792969 1240.085938 456 1235 C 449.839844 1240.242188 447 1250.527344 439 1253.574219 C 432.335938 1256.074219 428 1247.09375 427 1242 C 424 1226.683594 429.484375 1210.730469 426.75 1195 C 424.976563 1184.792969 422.5 1174 419.289063 1164.019531 C 418 1160.289063 414.925781 1158.117188 411.328125 1160.746094 C 400 1169 408.867188 1188.152344 408.996094 1199 C 409.234375 1219 405.796875 1241.214844 413.871094 1260 C 418 1269.800781 426.386719 1279 438 1277.824219 C 443 1277.335938 447.40625 1275 452 1273 C 450 1277.574219 444.96875 1290.292969 450.433594 1294 C 454 1296.46875 459.941406 1293.265625 464 1293.355469 C 470.507813 1293.496094 476.285156 1298 481 1302 C 475.800781 1303.53125 471.425781 1306.035156 469 1311 C 471.375 1311.320313 473.703125 1311.71875 476 1312.445313 C 490.519531 1317.027344 471.964844 1336.480469 479.742188 1346.773438 C 483.6875 1352 491.679688 1349.136719 497 1348.246094 C 514 1345.394531 528.835938 1339.464844 542 1328 C 541.996094 1331.574219 542.402344 1335.671875 540.683594 1339 C 538.683594 1342.75 534.382813 1343.402344 531.636719 1346.394531 C 526.167969 1352.359375 523.289063 1367.773438 528 1374.773438 C 537.855469 1389.03125 557.402344 1368.035156 567.773438 1372.390625 C 574.917969 1375.394531 575 1390.179688 583 1394.722656 C 591 1399.277344 594.613281 1390.46875 600.996094 1392.207031 C 606.363281 1393.667969 607.632813 1401.203125 613 1402.683594 C 625.9375 1406.15625 642.691406 1402.457031 656 1403.039063 C 663.691406 1403.375 671.652344 1405.558594 679 1402.078125 C 688.277344 1397.691406 694.460938 1387.511719 701 1380 C 698.554688 1393.171875 705.558594 1392.753906 716 1388.136719 C 725 1384.089844 733.976563 1378.199219 742 1372.242188 C 746.75 1368.714844 750.773438 1363.773438 757 1363.109375 C 760.949219 1362.6875 766.371094 1362.371094 770 1364.179688 C 777.65625 1368 782 1376.492188 792 1373.144531 C 802.453125 1369.609375 799.585938 1355.304688 807 1352.242188 C 816.457031 1348.464844 828.800781 1370.597656 838.484375 1360.566406 C 842.269531 1356.648438 840.421875 1350.78125 840.59375 1346 C 840.800781 1340.269531 842.894531 1333.609375 841.273438 1328.015625 C 839.238281 1321 831.90625 1314.574219 829 1307 C 840.175781 1311.675781 858.203125 1332.378906 870.894531 1324 C 877.300781 1319.757813 875.984375 1310.230469 883 1306.570313 C 891 1302.386719 902.421875 1304.304688 907 1295 L 904 1296 L 904 1295 C 918 1288.753906 934 1286.550781 948 1280 C 950.710938 1278.660156 964.203125 1269.585938 957 1268 L 957 1267 C 970.824219 1264.621094 985.203125 1258.039063 998 1252.425781 C 1000.4375 1251.355469 1010.3125 1247.699219 1008.652344 1243.726563 C 1007.761719 1241.589844 1002.886719 1241.558594 1001 1241.195313 C 993.679688 1239.789063 986.238281 1238.78125 979 1237 L 979 1236 C 1009.835938 1236 1057.199219 1221.34375 1073 1193 C 1063.664063 1194.378906 1055.621094 1197 1046 1197 L 1046 1196 C 1067.867188 1195.046875 1091.511719 1180.128906 1108 1166.738281 C 1114.769531 1161.242188 1121.792969 1155.339844 1125 1147 C 1107.25 1149.390625 1090 1155.5625 1072 1157 C 1091.636719 1137.417969 1125.960938 1128.640625 1133 1099 C 1136.4375 1085.15625 1136.210938 1067 1129.46875 1054 C 1126.65625 1048.628906 1118.75 1041.261719 1112 1045.027344 C 1106.519531 1048.226563 1108.539063 1056 1109 1061 C 1110.574219 1073 1110.792969 1086.058594 1105.179688 1097 C 1094.230469 1118.339844 1075.1875 1136.085938 1055 1148.199219 C 1050.238281 1151.058594 1031.207031 1159.722656 1031.207031 1166.007813 C 1031.207031 1170.636719 1047.886719 1170 1051 1170 M 669 1108 C 654.910156 1126.328125 642.996094 1145 624 1159 C 598.6875 1177.402344 554.246094 1190.828125 551 1228 C 562.488281 1220.632813 569.765625 1203.8125 581 1194.808594 C 603.359375 1177 631.820313 1166.550781 650.386719 1144 C 656.363281 1136.738281 672.921875 1118.15625 669 1108 M 826 1191 C 814.554688 1181.769531 802.367188 1167.554688 799 1153 L 798 1153 C 798 1170.148438 800.613281 1195.472656 785 1207 C 782 1199.359375 782 1191 779.988281 1183 C 775.261719 1165.738281 767 1148.351563 770.328125 1130 C 772.792969 1116.304688 788.859375 1104.191406 803 1108.652344 C 813.847656 1112.074219 810.644531 1125.304688 811 1134 C 811.945313 1154.003906 826 1170.335938 826 1191 M 1023 1113 L 1022 1114 L 1023 1113 M 1072 1157 L 1071 1158 L 1072 1157 M 470 1162 L 469 1163 L 470 1162 M 471 1164 L 471 1167 L 470 1167 C 470.25 1165.546875 470.316406 1165.246094 471 1164 "/>
</g>
</svg>
