<?xml version="1.0" encoding="UTF-8"?>
<svg xmlns="http://www.w3.org/2000/svg" xmlns:xlink="http://www.w3.org/1999/xlink" width="1500pt" height="1500pt" viewBox="0 0 1500 1500" version="1.1">
<g id="surface1">
<path style=" stroke:none;fill-rule:nonzero;fill:rgb(0%,0%,0%);fill-opacity:1;" d="M 749 133 C 741.71875 124.582031 734.832031 114.679688 731.359375 104 C 729.878906 99.441406 730.5625 91.636719 724.945313 90 C 715.878906 87 708.226563 101.699219 705.308594 108 C 704 110.671875 702.691406 116.644531 698.894531 116.542969 C 694.925781 116.4375 690.574219 111.546875 687 110 C 679.445313 106.421875 672.179688 106 664 106.003906 C 644.761719 106.234375 626.394531 118 607 114 C 596.980469 112 588.246094 108.117188 579 104 C 575 102.128906 570.1875 99.675781 566 102.605469 C 552.386719 112.535156 578.898438 127.710938 572.351563 136.605469 C 568.320313 142.085938 556.863281 142.46875 551 145.488281 C 532.402344 155.074219 516.328125 168.148438 497 176.425781 C 488.734375 180 478 192 493 195 C 485.695313 201.210938 476.859375 204.671875 469 210.027344 C 452.949219 221 436.652344 235.265625 426.464844 252 C 423.996094 256.050781 420.589844 262 422.601563 267 C 423.484375 269 426.507813 270 426.761719 272.300781 C 427.382813 278 420.402344 288.5625 417.210938 293 C 407.421875 306.605469 390.300781 311.589844 382 327 C 375.253906 340 377.738281 353 373 366 C 366.527344 384.054688 351 405 339.332031 420 C 326.855469 436 309 443.261719 295 457.089844 C 287.730469 464.277344 286 474.832031 277.996094 481.535156 C 270.902344 487.457031 263.585938 493.691406 256 499 C 253.371094 500.785156 247.40625 503 246.347656 506.15625 C 244 513 261.171875 510.359375 264 510 C 256.855469 522.238281 249.457031 535 243.871094 548 C 240.664063 555.492188 239.378906 563.703125 235.730469 571 C 230.875 580.710938 222.867188 588.402344 217.78125 598 C 213.324219 606.40625 207.8125 627.203125 225 620 C 223 641.074219 204.269531 656 197 675 C 194.261719 682.410156 190.867188 695.59375 203 694 C 196.351563 706.671875 196.449219 722.324219 192.847656 736 C 187.570313 756.03125 179 775.0625 173.421875 795 C 170.859375 804 165.8125 826.269531 183 818 C 182.878906 832.664063 180.835938 846.597656 185.347656 861 C 189.226563 873.378906 198.480469 883.320313 201.496094 896 C 203.375 904 201.429688 924 207.515625 929.394531 C 212 933.4375 217.539063 927.644531 221 925 C 219.207031 935.589844 221 948.148438 221 959 C 221 963 220 968.464844 222.742188 971.683594 C 225.636719 975.183594 230.730469 973.777344 233.363281 970.773438 C 238.554688 965 242.84375 953.707031 244 946 L 245 946 C 245 976 241.957031 1006.144531 245 1036 C 245.988281 1043.648438 246.714844 1053.375 250.996094 1060 C 253.496094 1064 258.539063 1066.679688 262.296875 1062.566406 C 268.453125 1055.828125 267.347656 1037 269 1028 L 270 1028 C 270 1046 273.882813 1064 271.425781 1082 C 270.992188 1085.179688 267.34375 1097.574219 270.605469 1099.382813 C 273.535156 1101 278.460938 1098.496094 281 1097.09375 C 290.269531 1092 295.859375 1082.460938 303 1075 C 303 1093.324219 307.808594 1110.507813 304.714844 1129 C 303.871094 1134.046875 297.183594 1147 299.644531 1151.355469 C 300.988281 1153.820313 306 1151.574219 308 1151 C 314 1148.722656 319 1144.824219 324 1140.71875 C 325.398438 1139.546875 328 1136.34375 330.183594 1137.207031 C 333 1138.371094 335.789063 1146.378906 337.425781 1149 C 343.894531 1159.371094 352 1171.527344 361.171875 1179.773438 C 368 1186.035156 374.261719 1181.195313 373.960938 1173 C 373.824219 1169.308594 373 1165.710938 373 1162 C 372.945313 1157 373 1152 373 1147 C 378.476563 1153.664063 380 1161.734375 384.351563 1169 C 389.9375 1178.394531 399.867188 1189.726563 407.214844 1198 C 414.894531 1206.566406 428.664063 1207.074219 435 1217.015625 C 443.8125 1230.820313 439.609375 1250.683594 452.183594 1262.785156 C 460.53125 1270.820313 465.617188 1263.21875 468 1255 C 479.625 1266.65625 487.316406 1282.246094 500 1292.773438 C 513.496094 1304 518.992188 1288.523438 519 1277 C 526.789063 1283.734375 532.824219 1292.550781 542 1297.652344 C 549.503906 1301.820313 559 1301.335938 565.984375 1306.558594 C 574 1312.730469 591.359375 1352.410156 604.632813 1330 C 606 1327.511719 606.898438 1324.734375 607.707031 1322 C 608.976563 1317.710938 610 1313.382813 611 1309 L 612 1309 C 618 1325.675781 628.949219 1351.671875 642.464844 1363.566406 C 646.203125 1367 649.820313 1364.195313 653.90625 1365.644531 C 657 1366.777344 658.96875 1370.4375 660.894531 1373 C 666 1379.808594 685.867188 1402.664063 689 1383 L 690 1383 C 695.710938 1399.257813 707.363281 1377.074219 709 1370 L 710 1370 C 715.191406 1383.496094 727.410156 1399.171875 738 1409 C 742.597656 1413.132813 748.507813 1417.441406 755 1415.003906 C 770.535156 1409.175781 780.222656 1387.710938 791 1376 C 792.851563 1389.75 799.894531 1395.464844 810 1384 C 814.757813 1400.4375 833.613281 1380 838.535156 1374 C 840.726563 1371.347656 842.730469 1367.601563 846 1366.199219 C 850 1364.472656 854 1367 857.816406 1363.683594 C 862.394531 1359.765625 864.535156 1353.128906 867.425781 1348 C 874 1336.320313 882.953125 1323.789063 887 1311 L 888 1311 C 888.933594 1315.066406 890 1319.117188 891.617188 1323 C 892.585938 1325.441406 893.6875 1327.816406 895.222656 1330 C 909.90625 1350.449219 923.609375 1313.703125 933 1306.800781 C 940 1301.660156 949.429688 1301.738281 957 1297.675781 C 966.277344 1292.695313 972.898438 1283.597656 981 1277 C 981 1288.507813 986.449219 1304.019531 1000 1292.773438 C 1012.875 1282.09375 1020.824219 1267.171875 1032 1255 C 1033.761719 1266.75 1041.78125 1270 1049.609375 1260 C 1059.4375 1247.632813 1056.273438 1229.730469 1064.96875 1217.042969 C 1070.820313 1208.507813 1084.492188 1208 1091.671875 1200 C 1099.617188 1191.050781 1108.898438 1178.167969 1115 1168 C 1119.375 1161 1121.355469 1153.289063 1127 1147 C 1127 1154.523438 1122 1176.207031 1128.316406 1181.394531 C 1133.890625 1186.054688 1139.863281 1179 1143 1175 C 1152.785156 1163.433594 1164.742188 1149.773438 1169 1135 L 1170 1135 C 1173.511719 1142.472656 1182.511719 1147.800781 1190 1150.792969 C 1192.214844 1151.675781 1198 1154.398438 1199.1875 1150.679688 C 1200.984375 1144.785156 1194.3125 1129.691406 1193.425781 1123 C 1191.316406 1107.132813 1193 1089.4375 1197 1074 L 1198 1074 C 1202.257813 1083 1209.671875 1091 1218 1096.300781 C 1220.445313 1098 1227.464844 1102.320313 1229.304688 1097.679688 C 1231.363281 1092.496094 1227 1081.792969 1227 1076 C 1226.761719 1055.671875 1227 1035.328125 1227 1015 L 1228 1015 C 1229 1023.441406 1232.230469 1031.546875 1233.5625 1040 C 1234.523438 1046.105469 1233.847656 1053.09375 1235.574219 1059 C 1236.964844 1063.753906 1242 1066.710938 1246.472656 1063.257813 C 1253.800781 1057.390625 1254 1042.519531 1255.269531 1034 C 1259.367188 1005.261719 1256 976 1256 947 L 1257 947 C 1258.1875 953.570313 1263.269531 965.65625 1267.648438 970.773438 C 1270.847656 974.507813 1276.230469 974.367188 1278.683594 970 C 1281.828125 964.148438 1278.75 956.0625 1278.171875 950 C 1277.375 941.667969 1279 933.339844 1279 925 C 1282.644531 927.480469 1288 933.183594 1292.683594 929.394531 C 1297.300781 925.589844 1296.347656 912.582031 1297 907 C 1299.527344 890 1309.195313 879.578125 1314.65625 864 C 1319.386719 850.496094 1315.472656 836.109375 1319.316406 823.148438 C 1321 817.117188 1329.691406 820.183594 1329.816406 811 C 1330 791.636719 1318.660156 771 1312.667969 753 C 1306.171875 733.515625 1304.347656 713.511719 1298 694 C 1309 693.640625 1306.292969 682.394531 1303 675 C 1295 656.316406 1281.570313 640.292969 1275 621 C 1293 625.257813 1285.339844 605 1280.742188 596 C 1276.660156 588.0625 1270.1875 581.773438 1265.902344 574 C 1261.417969 566 1260.5 556.398438 1256.6875 548 C 1250.785156 535 1242.53125 523.289063 1237 510 C 1239.921875 510.542969 1255 513.058594 1254 507 C 1253.570313 503.699219 1248.386719 502 1246 500.25 C 1239.390625 495.792969 1234.171875 489.796875 1228 484.804688 C 1217.976563 476.695313 1214.5 466.796875 1205.90625 458.089844 C 1195.226563 447.265625 1181 440.355469 1170 430 C 1157.242188 418 1148.835938 401.800781 1139.796875 387 C 1135.976563 380.742188 1130.457031 375 1127.96875 368 C 1123.753906 356.164063 1126.183594 343.105469 1120.6875 331 C 1111.882813 311.609375 1091.351563 306.75 1081 290 C 1078.828125 286.351563 1072.609375 276.703125 1073.660156 272.375 C 1074.675781 268.195313 1078.476563 267.171875 1077.78125 262 C 1076.953125 255.824219 1072 250 1068.523438 245 C 1058.5625 231.617188 1045.511719 220.546875 1032 211 C 1026.4375 207 1015.707031 203.453125 1011.636719 198.164063 C 1008.226563 193.742188 1019.277344 187.410156 1010.890625 180.800781 C 1004.933594 176.105469 996.578125 174 990 170 C 978.722656 163.390625 968.417969 155.230469 957 149 C 951.390625 145.730469 940.824219 143.757813 936.503906 139.273438 C 933.390625 136.046875 937.695313 130.269531 938.933594 127 C 942 118.65625 947.882813 98.453125 936.957031 93.21875 C 932.203125 91 927.449219 95.136719 924 98 C 916.453125 104.011719 908.511719 109.691406 899 112.242188 C 878.710938 117.683594 859.261719 106.761719 839 107.019531 C 822.714844 107.222656 809.757813 116 797 125 C 797.171875 116.621094 805.398438 94.164063 799.257813 87.707031 C 794.210938 82.398438 785.347656 88.605469 781 91.746094 C 773.277344 97.328125 768.816406 105 762.675781 112 C 756.527344 119 750.476563 123.144531 749 133 M 783 112 C 783 123.664063 783.722656 134.644531 786.628906 146 C 787.261719 148.476563 788 155.476563 790.515625 156.792969 C 792.613281 158 796 150.3125 797 149 C 803.351563 140.054688 812 131.773438 822 127.121094 C 843.257813 117.230469 866.191406 129 888 130 C 901 130.472656 912.96875 123.070313 925 119 C 922 131.304688 913.503906 143.8125 901 147.558594 C 893.226563 150 882.289063 148.527344 876 154 C 907.253906 153.355469 931.558594 151.433594 959 169.34375 C 963.179688 172.074219 978.265625 179 979 184.101563 C 980.300781 191.800781 958.226563 186 955 185.445313 C 951.195313 185 946.578125 186.460938 951 190.203125 C 957 195.09375 966 196.34375 973 199.285156 C 993.722656 208.046875 1014 217.074219 1032 231 C 1039.371094 236.5625 1047.96875 243 1051 252 C 1039.507813 248.113281 1028.523438 243 1017 239 C 1015.320313 238.441406 1006.386719 234.429688 1005.632813 237.574219 C 1004.648438 241.671875 1021.988281 248.386719 1025 250.203125 C 1041.535156 260.191406 1061.265625 274.074219 1066 294 C 1057.753906 292.292969 1051 289 1044 284.34375 C 1042.742188 283.542969 1038.570313 280.253906 1037 282 C 1035 284.140625 1041.378906 289.574219 1042.535156 291 C 1049.859375 300 1052.890625 309.804688 1055 321 L 1054 321 C 1050.839844 316 1047 311.316406 1043 307 C 1047.488281 320.769531 1052.996094 333.269531 1053 348 C 1048.476563 345.652344 1045 342 1041 339 C 1041.878906 350.132813 1043.40625 364 1053 371 C 1052 368 1052 365.167969 1052 362 L 1053 362 C 1063.335938 377.667969 1069.339844 394 1088 402 C 1078 387.203125 1065.386719 371.667969 1065 353 L 1066 353 C 1067 354.609375 1073.453125 364.371094 1075 358.792969 C 1076.1875 355.085938 1073 349.492188 1072 346 C 1069.277344 337.160156 1066.96875 328.136719 1065.433594 319 C 1064.988281 316.332031 1061.988281 306 1067 306.785156 C 1086.796875 309.769531 1106.1875 330.476563 1110.335938 349 C 1112 356.667969 1109.347656 365 1111.402344 372 C 1116.203125 388.6875 1133.421875 399.121094 1138.210938 416 C 1141.902344 429 1134.519531 440.464844 1133.175781 453 C 1131.957031 464.316406 1135.769531 474.832031 1136 486 C 1118.210938 474.230469 1111.824219 454.589844 1107 435 L 1106 435 C 1106.445313 456.570313 1116.933594 477.371094 1131.285156 493 C 1139.683594 502.082031 1149.9375 509.214844 1156.53125 520 C 1163.378906 531.195313 1161.972656 544.707031 1165 557 C 1151 546.726563 1142 526.710938 1130 514 C 1144 547.792969 1190 582.46875 1167 623 C 1183.980469 614.191406 1187.414063 590 1182.839844 573 C 1180.988281 566.152344 1176.554688 560 1175.328125 553 C 1172.425781 536.433594 1174.972656 523.65625 1166.269531 508 C 1160 497 1151.222656 487.386719 1147.746094 475 C 1145 465.644531 1145.953125 456.402344 1147.804688 447 C 1148.316406 444.398438 1148.789063 438.414063 1152.226563 438 C 1155.261719 437.484375 1158 441.160156 1160 443 C 1166.414063 449 1173.882813 453.738281 1179 461 C 1172.878906 461.265625 1166.433594 462.558594 1162 467 C 1176.96875 467.308594 1198.554688 475 1208 487 C 1200.472656 489 1193.355469 491.511719 1186 494 C 1199.464844 500.761719 1211.316406 502.078125 1221.480469 515 C 1223.3125 517.324219 1230 525.800781 1226.933594 529 C 1225.179688 530.683594 1220.929688 528.660156 1219 528.152344 C 1213.328125 526.671875 1204.878906 524 1200 528 C 1216.925781 528.140625 1229.648438 539.210938 1239.574219 552 C 1242.378906 555.613281 1250.253906 564.550781 1245.394531 569.253906 C 1240.585938 574 1230 567 1225 565.679688 C 1216 563.636719 1207.351563 567.28125 1199 570 L 1199 571 C 1219.90625 571.015625 1253.488281 576.378906 1263 598 C 1258.757813 597.121094 1244.234375 590.335938 1240.832031 594.03125 C 1238.21875 597 1249.589844 607.359375 1251.300781 610 C 1261.960938 626.460938 1271.464844 647 1279 665 C 1259 665 1255.742188 647.789063 1244 635 C 1251.3125 666 1286.351563 684.5625 1289 717 C 1279.304688 712.414063 1270.808594 705.042969 1262 699 C 1260.347656 698 1254.226563 692.351563 1252 694.53125 C 1250.578125 696 1254.242188 699.152344 1255 700.015625 C 1259.664063 705.054688 1264.171875 710.144531 1269 715 C 1289.972656 736.085938 1301.65625 760.632813 1309 789 C 1300 787 1292.882813 780.589844 1289.464844 772 C 1288.84375 770.441406 1287 761.804688 1284.429688 762.632813 C 1282.492188 763.222656 1284 768 1284.429688 769 C 1286 775 1288.570313 780.519531 1291.246094 786 C 1304.257813 812.664063 1306.726563 840.351563 1296 868 L 1295 868 C 1293.5625 858.28125 1288.6875 845.367188 1281 839 C 1282.292969 855.371094 1288.917969 872.636719 1284.480469 889 C 1283 894.371094 1278 896.488281 1275.351563 901.015625 C 1269.859375 910 1266.390625 921.667969 1265 932 L 1264 932 C 1258.789063 920 1251.574219 900.71875 1243 891 C 1243 904.605469 1239.347656 917.390625 1239 931 C 1238.328125 959 1241 987.042969 1241 1015 L 1240 1015 C 1236.230469 1001.183594 1229.71875 987.726563 1223.242188 975 C 1222 972.554688 1217.613281 962.453125 1213.597656 965 C 1209.308594 967.558594 1213 984.515625 1213 989 C 1213 1013.347656 1211 1037.691406 1211 1062 L 1210 1062 C 1208.230469 1050.027344 1196.449219 1028.273438 1187.46875 1049 C 1179.335938 1067.769531 1176 1093.710938 1176 1114 L 1175 1114 C 1168.257813 1098.027344 1170 1072.273438 1170 1055 L 1168 1055 C 1167.957031 1070.441406 1162.796875 1085.046875 1159.664063 1100 C 1157.855469 1108.632813 1158.285156 1117.433594 1156 1126 C 1154 1133.734375 1150.523438 1143.324219 1143 1147 C 1148.550781 1123.703125 1140 1098.503906 1139 1075 C 1133.984375 1079.425781 1135.328125 1085 1134.910156 1091 C 1134 1102.039063 1133.484375 1124.585938 1123 1131 C 1120.980469 1105.386719 1112 1080.769531 1112 1055 L 1110 1055 C 1110 1088.238281 1115.605469 1129.269531 1100.191406 1160 C 1096.953125 1166.449219 1091.363281 1171 1087.558594 1177 C 1084.917969 1181.191406 1084.261719 1187 1080.46875 1190.347656 C 1076.652344 1193.757813 1071.378906 1192.375 1069 1188 C 1065 1180.554688 1072.464844 1171.035156 1075.988281 1165 C 1084.4375 1150.527344 1088.910156 1134.519531 1091 1118 L 1089 1118 C 1088.695313 1125 1086.597656 1131.652344 1081.675781 1136.816406 C 1080.210938 1138.347656 1075.453125 1142.8125 1073.601563 1139.574219 C 1070.226563 1133.667969 1075.980469 1119.210938 1077.347656 1113 C 1078.382813 1108.320313 1079 1103.457031 1073 1104 C 1073.5625 1091 1075 1067.636719 1064 1058 C 1064 1095.8125 1049.804688 1137.664063 1025.535156 1167 C 1021.5625 1171.800781 1016.234375 1174.628906 1012 1179 C 1026.636719 1173 1038.441406 1162.105469 1047.25 1149 C 1051.675781 1142.417969 1053.769531 1134.164063 1060 1129 C 1058.390625 1149.234375 1054.574219 1169.789063 1052 1190 C 1050.425781 1204.46875 1049.902344 1221 1043 1234 L 1042 1234 C 1040 1218.757813 1042.519531 1201.785156 1039 1187 L 1038 1187 C 1031.851563 1212.820313 1028.527344 1233.660156 1012 1256 C 1007.257813 1262.613281 1002.660156 1270.429688 995 1274 C 995 1261 997 1247.566406 1000.722656 1235 C 1001.265625 1233.160156 1005 1224.429688 1001.570313 1223.632813 C 997.707031 1222.742188 989.3125 1240 987.425781 1243 C 977.382813 1259.035156 964.429688 1282.472656 944 1286 C 948.328125 1275.65625 954.847656 1266.414063 959 1256 C 964 1244.054688 966.511719 1231.382813 970 1219 C 957 1234.785156 955.453125 1259.601563 938 1272 C 943.902344 1246.246094 954.402344 1220.492188 964.199219 1196 C 975.1875 1168.527344 987 1144.199219 987 1114 C 987 1103.578125 986.925781 1093.367188 986 1083 C 985.894531 1081.796875 984.652344 1071.445313 981.878906 1074.636719 C 978.421875 1078.613281 980 1088.15625 980 1093 C 979.976563 1106.429688 979 1121 975.871094 1134 C 971.988281 1150.109375 962.816406 1164.765625 956.425781 1180 C 945.570313 1206 936.53125 1232.402344 927.667969 1259 C 923 1273 918.5625 1287 914.277344 1301 C 913.21875 1304.484375 911.203125 1314 907.585938 1315.652344 C 905.257813 1316.726563 904.230469 1311.300781 903.894531 1310 C 902.308594 1304 901.554688 1297.328125 901 1291 C 899 1264.21875 897.183594 1236.34375 904 1210 C 896.535156 1217.386719 896 1229.363281 893.289063 1239 C 886.980469 1261.226563 882.554688 1283.660156 873.421875 1305 C 869.695313 1313.703125 865.800781 1324.238281 858 1330 C 857.664063 1313.683594 856.757813 1298.300781 859.273438 1282 C 861.234375 1269.296875 865.953125 1256.800781 867 1244 L 866 1244 C 859.589844 1272 849.6875 1299.382813 841.859375 1327 C 837.992188 1340.640625 834.523438 1357.617188 823 1367 C 822.640625 1358.632813 817.308594 1352 817 1344 C 815.933594 1314.425781 826.664063 1279.398438 837 1252 C 828.171875 1258.8125 823.601563 1271 819.601563 1281 C 809.464844 1306.546875 807 1333.523438 801 1360 L 800 1360 C 795.550781 1346.324219 795.261719 1332.707031 792 1319 C 782.304688 1341.824219 784 1384.1875 755 1394 C 754.351563 1379 751 1364.1875 751 1349 C 741.429688 1358.265625 745.992188 1382 746 1394 C 727.648438 1384.472656 719.417969 1357.253906 713.332031 1339 C 711 1332.148438 710 1322.289063 705 1317 C 704.996094 1330.496094 703.339844 1348 697 1360 L 696 1360 C 692.746094 1334.8125 685.632813 1309.394531 678.710938 1285 C 676.222656 1276.238281 675 1263.214844 668 1257 C 668 1285.113281 678.539063 1312.761719 677.742188 1341 C 677.519531 1348.765625 674.558594 1356.445313 673 1364 L 672 1364 C 655.433594 1325.546875 644.460938 1284.378906 633 1244 L 632 1244 C 633.492188 1255.09375 636.832031 1266 638.75 1277 C 639.964844 1284 640.652344 1291 641.574219 1298 C 642.636719 1306.082031 641.988281 1315.027344 640.335938 1323 C 640 1324.265625 639 1331 636.59375 1329.652344 C 633.1875 1328 629.558594 1312 627.769531 1308 C 617.214844 1285 612 1260.023438 604 1236 C 601.457031 1228.367188 600.65625 1214.515625 595 1209 C 595 1233.695313 598 1258.238281 598 1283 C 598 1293.726563 598.765625 1308 592 1317 C 575.566406 1286.171875 567.992188 1250 557 1217 C 548 1190.09375 533.199219 1165.238281 525.425781 1138 C 519 1116 519.789063 1092.671875 518 1070 L 517 1070 C 512.214844 1083 512.390625 1097.496094 512.960938 1111 C 513.535156 1124.613281 513.523438 1138.742188 517 1152 C 520 1163 526.304688 1172.609375 530.546875 1183 C 542.191406 1211.507813 556 1243.800781 562 1274 C 545.382813 1260.265625 544 1234.535156 530 1220 C 530.511719 1245 546.363281 1263.578125 554 1286 C 534.800781 1280.351563 522 1258 512.191406 1242 C 510.394531 1239.105469 502.46875 1223 498.648438 1223.769531 C 495 1224.550781 498.40625 1233.167969 499 1235 C 503.171875 1248 505 1261.507813 505 1275 C 489.484375 1264.0625 474.859375 1241.121094 469.4375 1223 C 466.4375 1213 466.863281 1196 460 1188 C 460 1203.117188 457.648438 1218 457 1233 L 456 1233 C 442.230469 1199.425781 446.265625 1160.710938 438 1126 L 439 1126 C 451.191406 1146 462.335938 1168.222656 485 1178 C 456.566406 1141 435 1105.359375 435 1057 C 425.945313 1067.367188 428 1087.148438 425.851563 1100 C 425 1104 420.734375 1104.015625 421.34375 1109.003906 C 422.476563 1118.253906 429.960938 1131.308594 426.683594 1140.664063 C 425.246094 1144.761719 419.65625 1139.460938 418.214844 1138 C 413.210938 1132.519531 411.308594 1125.148438 411 1118 L 409 1118 C 410.3125 1134.625 416 1149.71875 424.601563 1164 C 428.207031 1170.09375 435.320313 1180.542969 431.667969 1188 C 429.417969 1192.519531 424 1194 420.214844 1190.566406 C 416.214844 1187.160156 414.746094 1181.28125 411.894531 1177 C 407.914063 1171.019531 402 1166.640625 399 1160 C 384 1127.625 390 1089.460938 390 1055 L 388 1055 C 388 1081 378 1105.296875 376 1131 C 366.726563 1125.636719 365.257813 1101 365 1091 C 364.859375 1084.6875 366 1078.539063 361 1074 C 361 1098.570313 355.492188 1122.4375 356 1147 C 340.703125 1136 341 1114 341 1097 L 336 1102 C 335.675781 1086.304688 332 1070.699219 332 1055 L 331 1055 C 327 1071.5 324.347656 1091.054688 323 1108 L 322 1108 C 317.632813 1089.648438 319.246094 1070.253906 312.921875 1052 C 307.4375 1036.171875 297 1038.46875 291.429688 1053 C 289.78125 1057.261719 288.414063 1061.65625 287 1066 L 286 1066 C 286 1040.296875 286.988281 1014.605469 287 989 C 287 985.414063 289 965.523438 284.773438 964.769531 C 280.617188 964.042969 277 973.21875 275.753906 976 C 269.492188 988.515625 265 1002 260 1015 L 259 1015 C 259 992.070313 258 969 259 946 C 259.449219 936.628906 261.4375 927.433594 261 918 C 260.988281 913.453125 257.644531 910.164063 257.570313 906 C 257.425781 897.28125 260 888.703125 260 880 L 259 880 C 251.617188 898 249.902344 920.46875 234 934 C 234.675781 923.503906 231.863281 910 226 901.023438 C 223.597656 897.375 218.417969 897.21875 217.328125 893 C 212.640625 874.492188 219.21875 857.128906 220 839 C 213 846.539063 206.480469 856.53125 206 867 L 205 867 C 192.964844 846.28125 197.214844 818.378906 205 797 C 209 786 218.785156 772.121094 216 760 L 215 760 C 209.769531 772.8125 206.824219 786.179688 191 789 C 197.472656 768.765625 203.394531 749.28125 216.375 732 C 226.644531 718.332031 243 707.117188 251 692 C 236.222656 697.121094 226.46875 713.242188 211 716 C 222.339844 686.773438 246.871094 665 257 635 C 243.460938 646.832031 238.371094 661.742188 220 668 C 227.945313 648.636719 237.3125 629.078125 247.878906 611 C 249.601563 608.046875 261.761719 597.015625 259 594 C 256.320313 590.589844 241.191406 596.816406 237 597 C 249 576.035156 279.550781 572.683594 301 570 C 293.351563 566.15625 283.539063 563.707031 275 565.519531 C 269.960938 566.585938 261 572.097656 256.320313 568.242188 C 251 564 258.738281 554.6875 261.476563 551 C 271 538.003906 283.273438 528.046875 300 528 C 294 522.074219 279.25 528.125 272 530 C 275.28125 511.011719 295.308594 496.050781 314 496 C 308.992188 490.15625 300.796875 488.179688 294 485 C 300.730469 479.152344 310.507813 474 319 471.21875 C 325.601563 469.082031 333.84375 469 339 464 C 333.664063 463.214844 328 461.730469 323 460 C 327.863281 453.238281 335.25 447.105469 341.285156 441.300781 C 343 439.632813 346 436.640625 348.722656 437.457031 C 354.710938 439.257813 354.351563 460.078125 353.710938 465 C 351.492188 482.066406 341.410156 497.035156 332 511 L 335 510 C 332.511719 518.636719 326.800781 526 325.25 535 C 324 541.730469 327 548.371094 325.210938 555 C 323.242188 562 318.914063 568 317.234375 575 C 312.929688 593.289063 319.679688 612.09375 334 624 C 329.917969 612 326 600 328.464844 587 C 331.214844 571.710938 342.214844 560.09375 351 548 C 359 537.15625 365.25 525.566406 372 514 C 357 525.410156 350.472656 545.828125 336 557 C 337.597656 544.371094 338 531.167969 344.925781 520 C 352.949219 506.792969 365.910156 497.71875 375.675781 486 C 387.355469 472 394.625 452.234375 395 434 L 394 434 C 389 454.144531 383 478 362 487 C 364.746094 475.132813 368 464.417969 366.828125 452 C 365.710938 440.421875 360.746094 430 362.183594 418 C 364.347656 400.15625 380.4375 387.34375 388 372 C 392 364 389.277344 352.144531 392.355469 343 C 399.320313 322.308594 419.925781 311 439 303 C 434.429688 322.289063 425 343.105469 425 363 C 428.9375 359.398438 431.25 354.683594 436 352 C 431.285156 371.578125 423.265625 385.300781 412 402 C 429.902344 394.273438 436.933594 377.261719 447 362 L 448 362 L 448 371 L 449 371 C 452 363.457031 455.695313 357.09375 457.625 349 C 458 347.230469 459.667969 342.183594 456.667969 341.632813 C 453.878906 341.117188 450 345.523438 448 347 C 449 333.574219 453.171875 319.511719 458 307 C 453.675781 310.1875 450.648438 314.351563 448 319 L 447 319 C 447.859375 308.195313 452.367188 298.425781 459 290 C 460 289 465.664063 283.050781 462.960938 281.558594 C 460.804688 280.367188 456.671875 284 455 285 C 448.828125 288.675781 442.1875 292 435 293 C 440.1875 274.035156 457.339844 261.308594 473 251.003906 C 477 248.300781 493.289063 243 494.367188 238.109375 C 495 234.683594 486.171875 237.664063 485 238.027344 C 476.859375 240.539063 468.980469 243.625 461 246.574219 C 459.394531 247.164063 454.617188 249.402344 453.832031 246.589844 C 452 240.035156 468.675781 230.292969 473 227.152344 C 488.957031 215.5625 506.96875 208 525 200.148438 C 532.511719 197 542.425781 195.445313 548.921875 190.355469 C 558.320313 183 531.570313 187.023438 528 187 C 526.300781 187 520 187.398438 521.347656 184.066406 C 523.246094 178.78125 538.179688 171.765625 543 168.8125 C 561.5 157.472656 585 149.742188 607 150.019531 C 616.8125 150.140625 626.171875 154 636 154 L 636 153 C 625.875 150.152344 611.488281 149.34375 603 142.351563 C 598.824219 138.714844 593.863281 130.675781 590 126 C 603.585938 128.558594 617.210938 131.335938 631 129 C 647.511719 126.015625 665.707031 116.605469 682 125.519531 C 700.308594 135.53125 705.636719 157.359375 719 172 C 713 151 708.621094 137.160156 718 116 L 719 116 C 725.773438 126.050781 734.945313 136.78125 739.523438 148 C 743.832031 158.550781 743.984375 171 747 182 C 747.796875 184.285156 752.75 202.710938 756.976563 198.363281 C 759.90625 195.347656 756.765625 186.585938 756.28125 183 C 754.75 171.636719 753 159.378906 759 149 C 763.605469 153.203125 766.546875 169 772.789063 170.21875 C 777.742188 171.226563 774.578125 159.808594 774 158 C 770.203125 142.273438 768 123.011719 783 112 M 657 163 C 661 169 673.683594 171.257813 680 175 C 693.878906 182.8125 703.339844 199.328125 718 205 C 713.707031 176 682.417969 165.007813 657 163 M 783 204 C 796.753906 200.140625 807 181.425781 820 174.175781 C 826.558594 170.503906 836.871094 169.730469 841 163 C 814.417969 163.019531 789.804688 177.773438 783 204 M 733 246 C 729.175781 234.054688 715.222656 231.277344 707 223 C 698.644531 214.324219 692.78125 203.445313 683.984375 195.089844 C 668.761719 180.628906 646.691406 174.023438 626 174 C 613.964844 174 602.328125 176.371094 591 180.34375 C 588.476563 181.230469 581.5625 183 580.921875 186.113281 C 580.253906 189.375 590 189.730469 592 190 C 605.34375 191.472656 617.980469 199.429688 630.980469 200.613281 C 642.382813 201.652344 624.835938 187 635 187.066406 C 651.46875 187.238281 669.761719 197.460938 680.714844 209.089844 C 686.371094 215.09375 689.976563 223.207031 696 228.671875 C 701.4375 233.445313 708.660156 234.433594 715 237.3125 C 721.171875 240.113281 726.324219 244.398438 733 246 M 768 246 C 779.496094 243.242188 798.375 233.300781 806.714844 224.824219 C 815.832031 215.5625 821.476563 204.285156 833 197.453125 C 845 190.265625 858.449219 191 872 191 C 870.335938 192.273438 862 198.136719 866.378906 200.382813 C 869.734375 202.117188 874.878906 199.183594 878 198.054688 C 887 194.773438 896.65625 194 906 191.765625 C 908.703125 191.132813 916.375 190.140625 917.652344 187.273438 C 919.382813 183.40625 908.203125 181 906 180.449219 C 892.347656 177.652344 875.917969 176.136719 862 177.089844 C 845.394531 178.226563 828.320313 182 816.175781 194.171875 C 807.554688 203 803 214.542969 794 223 C 785.804688 230.476563 770.828125 234.113281 768 246 M 519 250 C 528.449219 244.265625 534.261719 230.804688 543 223.4375 C 561.714844 207.667969 581.769531 206 605 203 C 599.972656 193.386719 583.886719 195.789063 575 197.285156 C 549.601563 201.566406 522.898438 223.613281 519 250 M 982 249 C 975.953125 223 951.273438 201.574219 925 197.4375 C 920 196.660156 898.769531 194.5 896.347656 200.300781 C 894.601563 204.472656 911.570313 204.808594 914 205 C 932.378906 206.230469 950 215.0625 962.996094 228.003906 C 969.320313 234.328125 973.933594 245.066406 982 249 M 487 313 C 498.457031 309.628906 507.386719 300.34375 519 297 C 491.4375 325.800781 467.734375 363.023438 461.4375 403 C 456.609375 433.675781 461 468.40625 465 499 C 474.765625 494.011719 480 479 488 471.089844 C 506.964844 452.652344 536 437.554688 563 437 L 563 438 C 554.257813 442.054688 547.539063 450.242188 539 455 C 541.207031 452.746094 543.191406 450.574219 545 448 C 531.808594 452 518.28125 464.132813 509 474 C 505.792969 477.539063 499.382813 483.011719 502 488 C 490.523438 498 480.238281 514.828125 478 530 C 486.707031 526.3125 491.46875 517.488281 498 511.089844 C 508.472656 501 526.183594 493.027344 533 480 L 526 480 C 543 463.328125 568 443.476563 590 434 C 574.386719 453.238281 555.621094 470 541 490 C 530.890625 504.300781 525.6875 521.785156 512 533.570313 C 503.835938 540.601563 496 547.402344 489.429688 556 C 487.738281 558.203125 483 563.300781 485 566.382813 C 486.898438 569.03125 491 566.4375 493 565.40625 C 500.59375 561.304688 508.378906 556.484375 517 555 C 486.511719 593.445313 475 637.585938 466.574219 685 C 460.640625 718 456.648438 751.578125 459.828125 785 C 461.457031 802.109375 461.824219 819.03125 465.199219 836 C 466.324219 841.660156 466.800781 850.726563 472 854 C 469.171875 842.117188 469.984375 829.128906 468.828125 817 C 463.683594 763 473 710.425781 486 658 C 494.855469 623.078125 505.550781 589.257813 530.171875 562 C 543 547.671875 557.429688 536.355469 575 528.308594 C 583.769531 524.292969 593.636719 522.753906 602 518 L 602 517 C 578.402344 518.011719 554.613281 524.628906 532 531 C 554 509.296875 579.476563 492.488281 611 490 L 611 488 C 597.734375 488 581.746094 488.230469 569 492 C 584.839844 455.289063 632.640625 447 668 447 C 664.773438 442.289063 656.394531 441.132813 651 440.296875 C 634 437.675781 619.433594 441.597656 603 445 C 623 425 652.683594 407.265625 682 416 C 691.527344 418.722656 698 426.242188 707 430 C 698.859375 411.140625 676.644531 401.40625 657 401 L 657 400 C 677 398.246094 704.765625 382.542969 723.984375 397.417969 C 728.839844 401.175781 731 407 734 412 L 735 412 C 738.792969 399.171875 734 384.742188 727 374 C 734.4375 375.832031 742 377 748.984375 380.53125 C 752.714844 382.523438 755.371094 387 760 386.5625 C 765.535156 386.179688 770.167969 381.296875 775 379 C 771.726563 387.484375 768.972656 395.816406 769 405 C 769 407.089844 768.410156 412.460938 770.75 413.652344 C 772.984375 414.792969 774.726563 409.234375 775.371094 408 C 779.324219 400.433594 786 395 794 392.089844 C 813.359375 385.121094 828.804688 398 847 401 L 847 402 C 827.34375 402.003906 800.65625 410.109375 794 431 C 801.5625 426.648438 807.570313 420.425781 816 417.519531 C 846.371094 407.042969 875.835938 424 897 445 C 875.863281 440.109375 852 433.367188 832 446 L 832 447 C 840.925781 449.636719 851.664063 448.09375 861 449.285156 C 888.433594 452.785156 918.578125 464.433594 931 491 C 917.296875 491 903.777344 488 890 488 C 894.523438 494.40625 914.308594 495 922 497.8125 C 941.363281 505.148438 955.632813 516.34375 970 531 C 946.492188 526.441406 922.21875 521.53125 899 516 C 904.183594 525.109375 926.644531 528.238281 936 533.308594 C 955 543.660156 971.179688 560.328125 983.5625 578 C 999.808594 601.183594 1007 629 1013.871094 656 C 1022.757813 691.527344 1030.355469 728.339844 1031.960938 765 C 1033.265625 795 1029 824.292969 1029 854 L 1031 854 C 1032.957031 829.21875 1039.207031 805 1040.910156 780 C 1043.601563 740.734375 1037.832031 700.273438 1029.425781 662 C 1020.867188 623.046875 1010.75 586 984 555 C 992.335938 556.246094 999.816406 560.617188 1007 564.796875 C 1008.941406 566 1013.742188 569.277344 1015.929688 567 C 1018.332031 564.410156 1013.777344 559 1012.320313 557 C 1005.664063 548.328125 997 542.027344 989 534.824219 C 975.816406 523.035156 970.523438 506.152344 960.5625 492 C 945.894531 471.164063 926.253906 451.746094 909 433 C 922 438.636719 932.800781 448.574219 944 457.117188 C 954.488281 465.113281 965.605469 471.632813 975 481 C 972.289063 480.351563 969.785156 480.058594 967 480 C 973.535156 492.601563 990.394531 500.339844 1001 509.429688 C 1008.621094 516 1014 525 1022 531 C 1021.652344 514.640625 1010.414063 502.363281 1001.195313 490 C 989.429688 474.226563 974.507813 453 954 447 C 954.613281 448.660156 955 449.484375 956 451 C 949.652344 446.660156 944.46875 440.386719 937 438 L 937 437 C 963.472656 437.546875 993.210938 451.828125 1011.960938 470.089844 C 1020.226563 478.140625 1025.734375 494 1036 499 C 1036 472.371094 1042.734375 445.65625 1040.910156 419 C 1037.570313 370.238281 1012.390625 332 981 296 C 993.878906 299.050781 1002.371094 308.078125 1014 313 C 1011 293.144531 996.273438 284.152344 983 272 C 973.171875 262.796875 965.777344 252 954 245.015625 C 915.433594 222.164063 875.511719 234 834 234 L 834 236 C 874.289063 236 917.878906 236.070313 953 258.691406 C 963.9375 265.738281 976.285156 275 982 287 C 952.597656 271.507813 919.355469 267.445313 887 270 L 887 272 C 951.652344 272.042969 1003.410156 321 1020.574219 381 C 1027.515625 405.328125 1024.496094 429.746094 1029 454 L 1028 454 C 1022.871094 429.226563 1015.257813 403.457031 1005.800781 380 C 1001.796875 370.070313 997.984375 358.464844 989 352 C 989.253906 364.148438 995.59375 374.699219 999.253906 386 C 1005 404.175781 1008.527344 422.304688 1012 441 C 990.597656 418.632813 977.917969 389.34375 964.246094 362 C 961.847656 357.203125 955.277344 335.636719 949.273438 335.636719 C 946.1875 335.636719 947.589844 340.390625 948 342 C 949.941406 348.789063 952.582031 355.40625 955 362 C 965.371094 389.589844 983.757813 413 995 440 C 982.648438 432.71875 972.308594 426.136719 964 414 C 944.910156 386 933 325.089844 888 337.746094 C 871.902344 342.265625 859.3125 354.03125 845 362 C 855.402344 339.742188 876.980469 311.074219 904 310.457031 C 911.699219 310.28125 919.695313 314 927 316 C 924.207031 306.128906 911 303.238281 902 303.015625 C 878.386719 302.433594 857.960938 315.496094 842.871094 333 C 838.453125 338.121094 834 343.316406 830.433594 349 C 829.375 350.636719 827.578125 355 825 354.367188 C 820.808594 353.566406 822.546875 346.519531 823.359375 344 C 826.539063 334.152344 832.421875 324.601563 838 316 C 848 300.730469 863.429688 286.8125 882 283.464844 C 890 282 898.746094 283.042969 907 282 C 901.679688 274.234375 884 276.734375 876 278 C 848 281.804688 816.597656 307.261719 814 337 L 813 337 C 813 325.507813 814.480469 314.5 819.492188 304 C 822.644531 297.394531 827.90625 292.109375 830 285 C 809 295 800.449219 318.152344 800 340 L 799 340 C 797.878906 326.273438 793.6875 314.074219 794 300 C 785.207031 306.664063 787.53125 330.789063 790.519531 340 C 791.851563 344.105469 796 350.355469 794.355469 354.773438 C 792.175781 360.382813 778.953125 360.164063 774 361.746094 C 768.816406 363.402344 763.5625 366.804688 758 366.8125 C 750.289063 366.824219 742.445313 362 735 360.234375 C 724 357.671875 713 358 702 358 C 709.640625 345 711.351563 332 710.984375 317 C 710.859375 311.8125 710.363281 303.308594 706 300 C 706 315.824219 700.34375 329.597656 699 345 L 698 345 C 698 323.4375 694.710938 293.136719 670 286 C 674.582031 302 685.644531 314.6875 686 332 L 685 332 C 679.902344 298.003906 639.828125 275.808594 608 279.714844 C 600.238281 280.667969 585.824219 281 581 288 C 593.410156 286.421875 606.480469 283.097656 619 285.664063 C 652 292.457031 678.570313 326.6875 680 360 C 658 338 639.410156 305 604 304.015625 C 593.28125 303.746094 576.625 303.125 573 316 C 581.734375 314.710938 589.941406 310.308594 599 311.171875 C 626.8125 313.820313 641.980469 341.214844 656 362 C 642.449219 354.445313 630.863281 344.007813 616 338.699219 C 590.65625 329.648438 575 343.691406 563 365 C 547.605469 393 536.636719 426.757813 505 440 C 523.550781 418.238281 534.964844 388.304688 545.398438 362 C 547.179688 357.507813 556 339.742188 552.945313 335.660156 C 549.984375 331.804688 545.625 341.296875 544.757813 343 C 539.277344 353.765625 531.800781 365.203125 529 377 L 528 377 C 536 335.71875 550.691406 295.785156 592 277.3125 C 602 272.820313 612.613281 273.472656 623 271 L 623 270 C 601.464844 268.300781 580.273438 266.550781 559 272 C 545 275.390625 532.882813 283.710938 519 287 C 554 241.441406 608 236 662 236 C 657.90625 232.148438 652.339844 232.3125 647 231.574219 C 634.34375 229.832031 620.734375 228 608 229.574219 C 596.921875 231.03125 585.96875 231.152344 575 234 C 547 241 527.585938 258 508.835938 279 C 500.402344 288.441406 488.359375 299.714844 487 313 M 563 282 C 560.226563 288 554.65625 291.789063 550.761719 297 C 542.902344 307.515625 536.632813 319.601563 532.34375 332 C 525.953125 350.46875 528.335938 369.730469 523.214844 388 C 519.777344 400.265625 511 410.375 504.425781 421 C 499.898438 428.265625 496 436 489 441 C 489.59375 412.222656 502.925781 378.707031 513 352 C 503.738281 357 500.605469 368 496.71875 377 C 486.351563 401.113281 478.316406 428.300781 473 454 C 468.425781 443.097656 473.453125 422.621094 474.84375 411 C 481 359.261719 508.21875 297.660156 563 282 M 981 295 L 980 296 L 981 295 M 520 296 L 519 297 L 520 296 M 687 332 L 687 336 L 686 336 C 686.175781 334.316406 686.316406 333.507813 687 332 M 800.667969 341.667969 C 800.722656 341.722656 800.777344 342.777344 800.332031 342.332031 C 800.277344 342.277344 800.222656 341.222656 800.667969 341.667969 M 639 374 C 630.386719 371 623.804688 365.011719 614 366.183594 C 580.289063 370.21875 570.484375 418.03125 537 424 C 547.609375 405 561.179688 387 573.722656 369 C 579.308594 361.054688 585.726563 351.324219 596 349.472656 C 606.558594 347.566406 618 355.394531 626 361.375 C 630.910156 365.0625 635.449219 369 639 374 M 963 424 C 929.273438 419 918 364.53125 882 366.609375 C 872.554688 367.152344 865.792969 373.558594 858 378 C 861.363281 371.519531 867.234375 366.496094 873 362.132813 C 881.355469 355.800781 893.824219 347 905 349.53125 C 914.394531 351.65625 920.464844 360.644531 925.710938 368 C 938.371094 385.761719 952.417969 405.015625 963 424 M 657 362 L 656 363 L 657 362 M 845 362 L 844 363 L 845 362 M 810 371.324219 C 819 370.648438 832 377.464844 816 378.8125 C 809.332031 379.375 802.800781 377.722656 796 378.574219 C 794.34375 378.78125 790.570313 379.617188 789.753906 377.441406 C 787.605469 371.726563 807 371.546875 810 371.324219 M 688 373.300781 C 694.238281 372.367188 702.773438 372.058594 708.984375 373.226563 C 711.28125 373.660156 716.710938 377.242188 712.636719 379.398438 C 706.804688 382.484375 697.234375 379 691 379.210938 C 688.300781 379.347656 684.929688 380.65625 682.335938 379.398438 C 677 376.808594 686 373.59375 688 373.300781 M 450 378 C 445.742188 383.597656 444 390.191406 440.238281 396 C 429.632813 412.203125 415.9375 427.1875 412.464844 447 C 411.394531 453.109375 414 459 413.980469 465 C 413.808594 479 411.515625 493.617188 407.847656 507 C 401.589844 529.824219 387.425781 550 381.898438 573 C 379.867188 581.492188 384.476563 586.3125 384.566406 594 C 384.683594 604.089844 380.183594 613.640625 381.171875 624 C 382 634 383.351563 645 387.914063 654 C 390 658.398438 396.496094 660.683594 396.386719 666.003906 C 396 679 390 692 389.1875 705 C 388.765625 711.113281 393.859375 713.742188 392.367188 720 C 389.730469 731.050781 380 744.824219 380.527344 756 C 380.820313 763.355469 389.191406 760.332031 393 758 C 391.90625 763.8125 383.617188 790.652344 394 791.453125 C 399.347656 792 401.289063 783.761719 402.679688 780 C 407.851563 766.039063 418.390625 752.691406 421 738 L 422 738 C 419.285156 772.34375 407 805.253906 407 840 C 407 847.152344 405 863.460938 412.394531 868 C 421.589844 873.679688 430 847.003906 431 841 L 432 841 C 433.242188 870 444.277344 898.269531 447.714844 927 C 448.496094 933.527344 448.308594 940.605469 446.761719 947 C 446 950.003906 443.222656 954.671875 445 957.667969 C 450.460938 966.40625 460.5 944.519531 465 950.296875 C 467.828125 953.769531 468 960.765625 469 965 C 472.351563 978 474 992.832031 479 1005 C 486.171875 1021.675781 494.371094 1001 495 993 L 496 993 C 501 1006.386719 506 1020.070313 512.257813 1033 C 517.367188 1043.5625 524 1053.070313 525.558594 1065 C 527.1875 1078.695313 519.710938 1107.019531 533 1117 C 533 1092.566406 538.964844 1069.164063 540 1045 L 541 1045 C 542.871094 1057.484375 550.496094 1069.148438 554.65625 1081 C 556 1085 557.550781 1092 562 1093.289063 C 566.578125 1094.582031 569.546875 1089.273438 571 1086 C 575.703125 1076.378906 578.972656 1065.683594 579 1055 C 585.800781 1061.28125 588.636719 1071.59375 592 1080 C 599.382813 1098.460938 604.839844 1117 603.960938 1137 C 603.402344 1149.769531 599 1162.183594 599 1175 C 610.914063 1169.144531 612.941406 1146.800781 613 1135 C 613 1130.78125 611 1119.800781 614.84375 1116.832031 C 620 1112.652344 624.207031 1132.265625 624.789063 1135 C 629.519531 1157.210938 632.976563 1180.535156 636 1203 L 638 1203 C 638 1170.296875 639.34375 1136 627 1105 C 624.195313 1098 621 1091.050781 618.316406 1084.003906 C 617.484375 1082 616.195313 1078.027344 613.214844 1078.464844 C 608.277344 1079.1875 613 1094.683594 613 1098 L 612 1098 C 604.460938 1081.773438 591.734375 1068.25 584.875 1052 C 583.558594 1049 578.992188 1035.757813 585.1875 1034.632813 C 588 1034.105469 590.910156 1039.195313 592.4375 1041 C 596.980469 1046.363281 615.878906 1068 622.816406 1055 C 626.355469 1048.296875 615.679688 1030.582031 613.882813 1023 C 607.597656 996.46875 607 969.117188 607 942 L 608 942 C 608 958.726563 614.828125 975.605469 620.8125 991 C 622 994.152344 625.710938 1006.382813 630.699219 1004.652344 C 634.5 1003.335938 633 994.035156 633 991 C 633 976 638.804688 962.660156 640 948 L 641 948 C 647.953125 1003 673.40625 1056 731 1073 C 752.773438 1079.425781 773.800781 1073.195313 793 1062.28125 C 833.230469 1039.410156 859 994.28125 859 948 L 860 948 C 861.175781 962.398438 866.320313 976.503906 867.699219 991 C 867.984375 994 865.503906 1003 869.550781 1004.246094 C 874.730469 1006 878 993.222656 879.308594 990 C 885 974 891.855469 955.316406 892 938 L 893 938 C 893 965.722656 892.550781 993.757813 886.789063 1021 C 885 1029.148438 874 1047.769531 877 1055 C 882.917969 1069 903.515625 1046 907.535156 1041 C 909.21875 1039 911.664063 1034.386719 914.929688 1035.347656 C 921.371094 1037.238281 919.390625 1046.089844 916.894531 1050 C 906.933594 1065.605469 897.640625 1083.050781 887 1098 C 886.800781 1094.300781 891.765625 1080.175781 887.414063 1078.347656 C 884.574219 1077.152344 882.597656 1082.199219 881.816406 1084 C 878.683594 1091.214844 875.539063 1098.554688 873 1106 C 862.210938 1137.667969 862 1170 862 1203 L 864 1203 C 865.792969 1180.273438 869.839844 1158.132813 875.375 1136 C 875.984375 1133.554688 881.339844 1113 885.976563 1117.636719 C 888.378906 1120.097656 886.988281 1127.734375 887.425781 1131 C 889 1143.402344 889 1168.671875 902 1175 C 898 1153.8125 894.1875 1130.371094 898.664063 1109 C 902.699219 1089.742188 912.96875 1073.125 920 1055 C 924 1064.539063 924.25 1088.15625 935 1093 C 940.609375 1095.367188 942.984375 1087.761719 944.425781 1084 C 949.304688 1071.253906 957.960938 1058.605469 960 1045 L 961 1045 C 963 1061 965.8125 1077 966.910156 1093 C 967.472656 1101.191406 965.648438 1110.003906 967 1118 C 979.445313 1102.578125 971.882813 1078.742188 975.667969 1061 C 977.566406 1052.113281 983.203125 1045 987.191406 1037 C 993.914063 1023.550781 999.871094 1008.445313 1004 994 L 1005 994 C 1006.371094 1001.285156 1013.566406 1021.773438 1021.429688 1006 C 1025 998.824219 1025 989.71875 1026.882813 982 C 1029.746094 970 1034.921875 957.351563 1036 945 L 1037 945 C 1039 949.140625 1049.324219 962.824219 1055.355469 958 C 1057.613281 956.136719 1055.675781 952.148438 1055 950 C 1053 943.472656 1051.914063 936.785156 1052.714844 930 C 1056.242188 900.128906 1068 871.234375 1068 841 L 1069 841 C 1070 847.035156 1079 873.074219 1087.773438 868 C 1095.285156 863.5625 1093 845.261719 1093 838 C 1093 803 1082.386719 769.523438 1078 735 L 1079 735 C 1081.832031 751 1093.296875 765.726563 1098.65625 781 C 1099.972656 784.746094 1102.734375 794.132813 1108.605469 790.777344 C 1117.519531 785.679688 1106 770.398438 1108.691406 763.164063 C 1110.519531 758.160156 1118.25 763.222656 1119.394531 757 C 1121.367188 746.09375 1109.898438 730.816406 1107.769531 720 C 1106.707031 714.613281 1111.636719 712.109375 1111.722656 707 C 1111.929688 694.222656 1106.925781 681.476563 1104.808594 669 C 1103.519531 661.40625 1110.449219 659.363281 1113 653 C 1117.4375 642.378906 1119.441406 628.429688 1118.960938 617 C 1118.636719 609.355469 1115.492188 601.632813 1115.921875 594 C 1116.3125 587.128906 1120.882813 583.457031 1119 576 C 1112.570313 548.664063 1095.449219 526 1090 498 C 1087.867188 487.085938 1085.449219 474.117188 1086 463 C 1086.398438 459 1089 456 1089.773438 452 C 1090.765625 445.632813 1087.648438 438.679688 1085 433 C 1079 419.203125 1068.867188 408.394531 1060.597656 396 C 1056.964844 390.550781 1056 383.195313 1050 380 C 1050.941406 402 1066 417.527344 1071 438 L 1066 436 C 1067.285156 444.699219 1071.910156 452.425781 1073.714844 461 C 1076 472 1075.421875 483.195313 1078 494 C 1075.542969 491.550781 1069.695313 483.777344 1065.519531 486.136719 C 1060.195313 489.140625 1065.214844 508.636719 1064.570313 514 C 1064.234375 516.816406 1064.527344 521.242188 1062.398438 523.398438 C 1059.285156 526.546875 1055.644531 525.230469 1053.46875 530.019531 C 1047.742188 542.617188 1046 558.320313 1046 572 L 1047 572 C 1051.203125 562.5625 1058.191406 552.144531 1060 542 L 1061 542 C 1061.222656 549 1064.859375 549.441406 1067.546875 543 C 1070.617188 535.625 1071.550781 527.769531 1073 520 C 1079.574219 527.160156 1091.171875 540.785156 1092.378906 550.828125 C 1092.96875 555.75 1090.210938 559.484375 1091.746094 565 C 1099 591.386719 1107.300781 614.433594 1101 642 C 1088.648438 627.472656 1087 604.523438 1071 593 C 1071 603.0625 1075.25 612.386719 1077.847656 622 C 1082.398438 638.8125 1086.480469 656 1090 673 C 1082.664063 664.371094 1079.464844 652.722656 1070 646 C 1070 658.429688 1075.75 669.554688 1079.945313 681 C 1085.253906 695.476563 1089.554688 711 1093 726 C 1082.59375 719.113281 1069.785156 707.765625 1063.351563 697 C 1057 686.570313 1054 674.511719 1047.988281 664 C 1045.570313 660 1037 643 1031.347656 644 C 1027.308594 644.636719 1032.800781 652.574219 1033.683594 654 C 1039.925781 664.050781 1045.46875 674 1049.796875 685 C 1060.90625 713.292969 1065 744.183594 1070 774 C 1073 792.441406 1077.84375 811.238281 1078 830 L 1077 830 C 1074.773438 817.0625 1065.855469 804.113281 1059.199219 793 C 1056.359375 788.253906 1054 782.613281 1049 780 C 1055.296875 806.449219 1055.382813 836.355469 1050.574219 863 C 1047.175781 882 1039.398438 902 1039 921 L 1038 921 C 1035.695313 904 1028.359375 887.410156 1028 870 L 1026 870 C 1026 888.800781 1027.597656 908.394531 1024.726563 927 C 1022.503906 941.386719 1016.300781 955.347656 1016 970 L 1015 970 C 1014.992188 958.269531 1012 946.710938 1012 935 C 1011.980469 933.09375 1013 924.207031 1009.910156 924.207031 C 1005.59375 924.207031 1002.765625 944.433594 1001.871094 948 C 997.738281 964.546875 993 981.101563 986.796875 997 C 982.929688 1007 976 1017.417969 975 1028 L 974 1028 C 974 1002.773438 981.996094 978.214844 982 953 C 973.214844 958.375 972.945313 974.058594 969.574219 983 C 961.234375 1005.117188 952 1035.414063 936 1053 C 936 1030.074219 934.546875 1009.496094 930.464844 987 C 929.210938 980.089844 930.953125 969.785156 927 964 C 924.519531 971.328125 926 978.617188 924.480469 986 C 921.464844 1000.230469 912 1012 902 1022 C 906.398438 1000.6875 912.40625 978 910.910156 956 C 909.855469 940.515625 903 926.199219 902 911 C 901.234375 898.808594 904.6875 887.09375 904.984375 875 C 905.421875 857.15625 902.761719 839.742188 902 822 L 903 822 C 904.230469 836.019531 913.621094 849.832031 918.308594 863 C 923.277344 877 923.773438 892.152344 929 906 L 930 906 C 930 866.761719 919 828 897.332031 795 C 890.664063 785 883 770.101563 871 766 C 874.867188 779.429688 882.808594 791.070313 886 805 C 893 834.367188 891.246094 863.246094 891 893 C 883.613281 884.621094 884 867.519531 880.304688 857 C 875.453125 843.640625 868 831.40625 863.21875 818 C 856.460938 799.09375 852.679688 780.320313 844 762 L 843 762 C 843 775.386719 845.316406 788.542969 844.984375 802 C 844.746094 811.71875 842.199219 821.296875 842 831 L 841 831 C 841 808.460938 836.574219 784.628906 827.230469 764 C 823.933594 756.726563 820.550781 747.679688 813 744 C 816.886719 757.828125 817.78125 773.5625 812 787 C 806 768.347656 804 749.808594 793 733 L 792 733 C 791.882813 747.414063 789.203125 761.027344 786 775 L 785 775 C 784.988281 760.277344 778.65625 746.125 775 732 L 774 732 C 773.792969 742.074219 771.429688 752 771 762 L 770 762 C 769.851563 755 763.648438 721.464844 758 742 C 757.621094 744 757.273438 746 757 748 L 756 748 C 756 731.15625 758.242188 708.75 781 708.726563 C 789.457031 708.71875 800.835938 715.238281 808.785156 710.542969 C 816.722656 706 821.71875 687.601563 827.808594 680 C 832.402344 674.265625 837.707031 669.296875 844 665.464844 C 848.757813 662.566406 855 661 858.257813 656 C 861.550781 651 859 644.507813 859 639 C 858.582031 621.386719 854.714844 608.125 848 592 C 859.929688 600.15625 869 612.542969 876 625 C 880.40625 632.5 882.976563 641.578125 890 647 C 890.90625 638.710938 887.855469 629.691406 884.9375 622 C 876 598.753906 854.367188 570 828 566 L 828 565 C 843.539063 566.238281 858.648438 573.105469 874 576 C 870.925781 569.710938 864.277344 567.78125 858 565.667969 C 846 561.648438 834 558 822 554.28125 C 805.261719 549.257813 787.765625 542.636719 770 544.09375 C 763 544.664063 757.414063 550 750.425781 550.097656 C 742.878906 550.265625 736.570313 544.410156 729 544.039063 C 710.472656 543.132813 692.507813 550.582031 675 555.574219 C 661.5625 559.402344 636 561.089844 629 575 C 644.214844 574.6875 658 567.011719 673 565 L 673 566 C 637.746094 571.285156 614 615.226563 610 647 C 618.285156 642.320313 621.371094 632 625.871094 624 C 632.644531 612.152344 641.6875 600.734375 653 593 C 646.566406 608.457031 641.90625 623.097656 640.964844 640 C 640.648438 645.648438 638.945313 651.796875 642.726563 656.785156 C 646.171875 661.328125 653.222656 663.085938 658 666 C 664 669.390625 668.722656 674.558594 672.984375 680 C 677.320313 685.53125 681.339844 691.527344 684 698 C 685.921875 702.164063 686.976563 708.34375 691.214844 710.820313 C 697.351563 714.40625 709 709.074219 716 709.003906 C 738 708.777344 744 726.664063 744 745 L 743 745 C 742.902344 740.214844 741.90625 735.683594 741 731 C 732.839844 738 730.816406 752.757813 730 763 L 729 763 C 728.992188 752.632813 727 742.363281 727 732 C 723.488281 734.636719 722.644531 740 721.34375 744 C 717.875 755 715.234375 766.566406 715 778 L 714 778 C 712.671875 762.777344 709 748.5625 709 733 C 693.53125 741.035156 694.378906 772.605469 688 787 C 683.648438 771.515625 686.957031 757.601563 687 742 L 686 742 C 667.472656 768.074219 659 799.269531 659 831 L 658 831 C 656.988281 807.402344 657.996094 784.5625 658 761 L 657 761 C 650.601563 777.714844 645.460938 794.558594 638 811 C 626.410156 837.339844 612.265625 863.511719 611 893 L 610 893 C 610 865 608.25 836.546875 614.425781 809 C 617.949219 793.277344 627.316406 779.550781 631 764 C 618.847656 768.707031 610.941406 783.632813 604 794 C 582 826.828125 570 865.519531 570 905 L 572 905 C 574.199219 888.675781 578.539063 870.328125 584.601563 855 C 588.851563 844.25 596.273438 833.507813 598 822 L 599 822 C 597.71875 838.226563 594.324219 854.679688 595 871 C 595.554688 882.785156 599.945313 895.234375 598.824219 907 C 598 914.28125 594.328125 921 592.652344 928 C 589.640625 940.734375 588.46875 954 589 967 C 589.871094 986.007813 596.503906 1004.179688 598 1023 L 597 1023 C 590.800781 1011.03125 580.558594 1002.574219 576.746094 989 C 574.839844 982.210938 576.847656 968.449219 571 964 C 570.453125 976.707031 566.960938 989.277344 566 1002 C 564.835938 1020.320313 566.363281 1037.703125 564 1056 L 563 1056 C 555.894531 1030.027344 539.746094 1006.441406 530.691406 981 C 527.898438 973.152344 526.585938 957.386719 519 953 C 523.433594 977 528 1004.660156 528 1029 L 527 1029 C 525.359375 1019.464844 519.992188 1010 516.398438 1001 C 509.839844 984.601563 503.660156 968.152344 499.371094 951 C 497.402344 943.113281 496.332031 926.46875 489 922 C 487 937.445313 486.230469 953.433594 485 969 L 484 969 C 483 957.628906 478.460938 946.289063 476.425781 935 C 473.953125 921.308594 474 908 474 894 C 474 888.007813 473.734375 882 474.421875 876.003906 C 474.503906 875.28125 475.335938 870.277344 473.285156 871 C 471.226563 871.566406 471.25 881.03125 470.917969 883 C 468.878906 895.117188 465.480469 907 463 919 L 462 919 C 456.578125 889.789063 447.34375 859.765625 446 830 C 445.277344 812.636719 450.953125 796.109375 451 779 C 446.21875 783 444 788.695313 441 794 C 435.171875 804.207031 426 815.257813 424 827 L 423 827 C 424.449219 808.648438 429 790.234375 431.726563 772 C 436 742.601563 439.675781 711.730469 450.800781 684 C 455.1875 673.070313 461 663 467.339844 653 C 468.253906 651.570313 473.773438 643.636719 468.851563 643.636719 C 462.644531 643.636719 454.972656 659.28125 452.285156 664 C 445.910156 675.210938 442.964844 688.191406 435.898438 699 C 428.367188 710.515625 417.199219 718.117188 407 727 C 411 709.449219 417.199219 692.03125 423 675 C 426.28125 665.382813 430.785156 656.359375 431 646 C 423.570313 651.484375 415.832031 664.632813 412 673 L 411 673 C 413 646 428.828125 619.828125 430 593 C 417.964844 598.730469 413.527344 616.792969 408.21875 628 C 405.769531 633.171875 402.203125 637.761719 400 643 L 399 643 C 395.324219 614.542969 400.21875 591.507813 407.960938 564 C 409.472656 558.628906 407 553.039063 408.621094 548 C 411.515625 538.519531 420.449219 527.277344 427 520 C 430.332031 530.484375 430.527344 544 440 551 L 440 542 L 441 542 C 442.421875 550 449.433594 567.1875 456 572 C 454.910156 558.183594 453.714844 542.75 447.753906 530.015625 C 445 524.21875 437.695313 524.464844 436.34375 518 C 435 511.691406 435.511719 503.308594 436.613281 497 C 437 494 438.917969 489.167969 436.253906 486.648438 C 433 483.640625 427 488.597656 424 490 C 424 474.171875 426.8125 459.726563 432.550781 445 C 433.996094 441.28125 435.605469 436.101563 430 437 C 434.695313 423.121094 442.710938 410.738281 447.773438 397 C 449.808594 391.476563 452.367188 383.65625 450 378 M 528 378 L 527 379 L 528 378 M 602 390 C 603.484375 388 613 378 615.246094 384.226563 C 617 390.03125 604.964844 390 602 390 M 898 390 C 894.625 390 881.878906 390.457031 883 384.273438 C 884.457031 377 896.507813 388 898 390 M 627 408 L 627 409 C 605 410.792969 584.359375 424.058594 563 429 C 579.414063 409 602.335938 402.125 627 408 M 937 427 L 937 428 C 922.726563 426.15625 910.515625 418.675781 897 414.34375 C 889.660156 412 880.59375 412.027344 874 408 C 883.796875 405 902.550781 403.222656 912 408 C 921.488281 412.46875 928 421.449219 937 427 M 591 433 L 590 434 L 591 433 M 1072 438 L 1071 439 L 1072 438 M 996 440 L 995 441 L 996 440 M 403 444 C 403 467.042969 399 493.214844 388.730469 514 C 377.496094 536.472656 360.195313 555.332031 349.257813 578 C 344.4375 588 341.84375 599 341 610 C 340.507813 618.496094 342.476563 628 339 636 C 335.273438 644.675781 325.5625 644.3125 321 651 C 330.507813 652.765625 337.652344 651.589844 345 645 C 348.222656 654.523438 352.3125 666.46875 362 671 C 361.910156 660.332031 355.246094 650.527344 356.175781 640 C 356.953125 631.136719 364.941406 619.617188 363.507813 611.148438 C 362.816406 607.050781 358.445313 609 356 610 C 357.871094 586.339844 372 568 381.691406 547 C 396.589844 514.550781 407.851563 480.117188 405 444 L 403 444 M 1096 444 C 1096 469.113281 1096 495.152344 1105 519 C 1117.289063 551.234375 1138.550781 576.375 1145 611 C 1142.847656 609.816406 1138.269531 607.035156 1137.410156 611.164063 C 1135.699219 619.386719 1143.921875 630.589844 1144.824219 639 C 1146 650.421875 1139.960938 660 1139 671 C 1148.5 666.066406 1148 653.492188 1155.648438 649 C 1161.761719 645.128906 1172.738281 658.722656 1179 648 C 1152.492188 644.007813 1161.6875 608.058594 1155.972656 590 C 1145.964844 558.390625 1119.882813 535.453125 1108.425781 505 C 1103.917969 493.015625 1101.480469 479.695313 1100 467 C 1099.242188 459.832031 1100.222656 450.078125 1096 444 M 602 445.332031 C 602.773438 445.332031 602 445.832031 601.667969 445.667969 L 602 445.332031 M 900 447 L 897 446 C 898.765625 445.597656 898.558594 445.710938 900 447 M 957 451 C 958.1875 452.1875 958.527344 452.585938 959 454 C 957.453125 452.738281 957.191406 452.804688 957 451 M 526 480 L 525 481 L 526 480 M 716 516.4375 C 714.398438 516.6875 702.769531 518.328125 704.347656 521.273438 C 706.617188 525.523438 723.515625 524.519531 728 525.761719 C 734.792969 527.640625 739.328125 533.433594 746 535.363281 C 759.21875 539.183594 776.375 532.292969 789 528.710938 C 792.953125 527.589844 803 527.226563 805.824219 524.160156 C 807.464844 522.308594 802.722656 522.050781 801.980469 522.019531 C 796.339844 521.777344 790.644531 522 785 522 C 774 522 762.566406 528.519531 752 527.148438 C 738.566406 525.40625 731 514.085938 716 516.4375 M 494 732 L 496 732 C 497.324219 701.183594 507.285156 661.40625 528.175781 638 C 537.378906 627.6875 547.9375 618.179688 559 610 C 565 605.324219 573.800781 601.820313 576 594 C 558.441406 599 545.628906 608.484375 531 619 C 542.859375 590.667969 570.171875 569.140625 594 551.128906 C 603 544.214844 621.808594 537.152344 627 527 C 612.902344 531 600.265625 539.570313 588 547.191406 C 521.4375 588.550781 494 656 494 732 M 880 534 C 887 543.632813 902.203125 549.695313 912 556.710938 C 937 574.613281 967.535156 600.566406 975 632 C 966.425781 622.183594 956.636719 614.632813 946 607.144531 C 944.554688 606.125 936 599.714844 934.832031 603.617188 C 933.570313 607.65625 941.566406 612.535156 944 614.589844 C 953.90625 623 963.328125 632.617188 971 643 C 997 677.585938 1004.378906 720.257813 1010 762 L 1012 762 C 1013.753906 739.78125 1010.179688 716 1005.800781 694 C 995.484375 642.4375 976.78125 595.628906 934 562.652344 C 919.226563 551.261719 898.886719 536.828125 880 534 M 818 670 C 814.785156 677 807.546875 693.183594 800.890625 696.816406 C 794.917969 700.078125 784 694.695313 779 691.53125 C 761 680.503906 752.585938 658.070313 751 638 L 749 638 C 748 658.082031 738.230469 680.199219 721 691.300781 C 715.886719 694.59375 706.375 699.828125 700 697.253906 C 693.207031 694.421875 684.742188 675.570313 681 669 C 693.578125 669 710.257813 669.808594 719.671875 659.816406 C 739.230469 639.050781 716.828125 613.484375 693 627.089844 C 683.773438 632.359375 685.589844 642.28125 679.261719 648.242188 C 675.917969 651.390625 657.9375 650 654.941406 646.296875 C 648.925781 639.140625 656.238281 616.457031 659.429688 609 C 674 574.574219 719.296875 559.589844 754 560.003906 C 787.5 560.402344 831.199219 578 842.644531 612 C 845 619.226563 851.234375 640 845.398438 646.484375 C 841.394531 651 826.910156 651.746094 822.226563 648.257813 C 814.480469 642.492188 817.394531 631 807 626.363281 C 781.351563 615 763.203125 641.511719 782.328125 661.816406 C 791.363281 671.40625 806 670 818 670 M 848 592 C 846.363281 591.453125 846.546875 591.636719 846 590 C 847.636719 590.546875 847.453125 590.363281 848 592 M 655 591 C 654.453125 592.636719 654.636719 592.453125 653 593 C 653.546875 591.363281 653.363281 591.546875 655 591 M 1123 607 C 1124.910156 622.027344 1127.628906 636.761719 1126.960938 652 C 1126 673.117188 1121.394531 694.800781 1124.429688 716 C 1128.566406 745 1148.527344 777 1136 806 C 1131.40625 795.636719 1130.410156 781.335938 1119 776 C 1129.960938 809.699219 1117.703125 839.039063 1110.425781 872 C 1104.601563 898.363281 1103.796875 926.6875 1110.375 953 C 1114.664063 970.160156 1122.847656 994.636719 1139 1004 C 1135.882813 986.515625 1122 972.019531 1118.449219 954 C 1111 917.214844 1118.71875 871.007813 1131.613281 836.015625 C 1133.710938 830.320313 1139.738281 827.824219 1142 822 L 1143 822 C 1143.316406 837.363281 1146.648438 861.664063 1163 868 C 1159.460938 857.144531 1151.933594 846.492188 1151 835 C 1149.71875 816.277344 1157.746094 798.585938 1156.960938 780 C 1156.300781 764.355469 1149.667969 749.527344 1149 734 C 1144.890625 736.390625 1144.367188 740.496094 1144 745 L 1143 745 C 1140.902344 729.429688 1135.734375 715 1135 699 C 1134.179688 679.300781 1137.902344 659.71875 1134.386719 640 C 1132.90625 631.710938 1130.195313 611.769531 1123 607 M 357 744 L 356 744 C 355.902344 740 355.628906 736.40625 352 734 C 351.273438 751 343.925781 767 344 784 C 344 800.554688 351.621094 816.304688 349.824219 833 C 348.484375 845.492188 339.234375 855.675781 338 868 C 354.566406 858.417969 354.90625 838.660156 358 822 L 359 822 C 361.351563 827.074219 365.804688 830.71875 367.882813 836 C 371.867188 846.140625 373.378906 857.433594 375.882813 868 C 382.648438 896.53125 388 926 381.574219 955 C 377.6875 972.378906 364 987 361 1004 C 379.261719 994.519531 387.847656 964.785156 391.390625 946 C 396 921.058594 394.964844 894.644531 389 870 C 384.433594 850.273438 375.9375 830.457031 375 810 C 374.515625 798.085938 378.628906 787.484375 381 776 C 371 781.386719 368.1875 796.03125 365 806 C 350.910156 779.125 369.707031 746.621094 375.574219 720 C 380.574219 697.320313 375.273438 675.679688 375 653 C 374.824219 638 379.6875 623.75 380 609 C 371.445313 614.609375 368.628906 633.535156 366.804688 643 C 362.496094 665.335938 366.464844 688.429688 364.910156 711 C 364 722.234375 360 733.242188 357 744 M 531 619 L 530 620 L 531 619 M 975.667969 632.667969 C 975.722656 632.722656 975.777344 633.777344 975.332031 633.332031 C 975.277344 633.277344 975.222656 632.222656 975.667969 632.667969 M 601 662 C 582.945313 676.742188 569.675781 700.722656 558.691406 721 C 526.535156 780.351563 516.410156 846.097656 529.800781 912 C 533.566406 930.535156 538.808594 949.019531 544.671875 967 C 546.507813 972.644531 547.832031 982.746094 553 986 C 535.605469 913.769531 533.597656 837.652344 554 766 C 561.335938 741 570.722656 715.15625 584.679688 693 C 589 686.09375 603.203125 670.304688 601 662 M 901 665 C 905.917969 682.074219 918.652344 697 926.21875 713 C 939 740.222656 948.226563 770.394531 953.574219 800 C 960 836.378906 962.390625 872.214844 958.828125 909 C 956.371094 934.410156 948 960.617188 948 986 C 959.5 973.21875 963.285156 945.429688 967.371094 929 C 984.328125 861 976.703125 792 945.246094 729 C 937.199219 713 927.972656 697.6875 917.574219 683 C 912.933594 676.441406 908.492188 668.496094 901 665 M 331 673 C 327.867188 690 328.175781 706.511719 322.308594 723 C 305.230469 771 273.53125 819.363281 280.574219 873 C 282.890625 890.636719 283.296875 923.589844 301 934 C 299.683594 918 290.417969 903.5 290 887 C 288.785156 836.773438 310 790.1875 326.945313 744 C 333.285156 726.652344 338.570313 708.601563 336.285156 690 C 335.523438 683.816406 335.648438 677.65625 331 673 M 411 673 L 410 674 L 411 673 M 1169 673 C 1149.914063 707 1179.335938 754.355469 1190.945313 786 C 1202.203125 816.671875 1213.992188 851.8125 1210.828125 885 C 1209 902.636719 1202.605469 918.132813 1198 935 C 1204.335938 931.761719 1207 924.257813 1209.851563 918 C 1216 903.433594 1218.382813 889.542969 1220.425781 874 C 1222 861.683594 1219.238281 848.195313 1217.246094 836 C 1213.800781 815 1208.921875 794 1201.1875 774 C 1194.871094 757.6875 1186 742.433594 1180 726 C 1176.246094 715.613281 1173.667969 705 1172 694 C 1171.183594 687.253906 1171.804688 679.246094 1169 673 M 270 682 C 246.296875 706.21875 246.34375 746.503906 235.65625 777 C 228.328125 798 213 815.28125 206 836 C 213.566406 834.535156 219.339844 828.464844 225 823.574219 C 241.851563 809.011719 253.261719 788.53125 261.1875 768 C 263.816406 761.195313 265.90625 754.089844 267.625 747 C 268 745.226563 269.414063 741.496094 267.402344 740.175781 C 264.738281 738.429688 262.957031 743.378906 262.347656 745.003906 C 259 753.613281 254 761.472656 251 770 L 250 770 C 253.917969 749.804688 255.898438 728.503906 262.695313 709 C 265.214844 701.777344 272.941406 689.550781 270 682 M 1229 682 C 1229.902344 692.34375 1235.761719 702.042969 1238.570313 712 C 1243.726563 730.269531 1247.570313 750.179688 1250 769 L 1249 769 C 1246.644531 761 1241.402344 753.757813 1238.199219 746 C 1237.65625 744.6875 1235.457031 738.214844 1232.984375 740.175781 C 1228.429688 743.789063 1237.714844 763.699219 1239.320313 768 C 1247 788.746094 1259 809 1276 823.574219 C 1281.773438 828.582031 1287.210938 834.589844 1295 836 C 1289.617188 820.214844 1278 806.460938 1271.425781 791 C 1262 769.023438 1257.851563 745.578125 1250.332031 723 C 1245.78125 709.328125 1242.21875 690 1229 682 M 1094 726 L 1093 727 L 1094 726 M 422.667969 735.667969 C 422.722656 735.722656 422.777344 736.777344 422.332031 736.332031 C 422.277344 736.277344 422.222656 735.222656 422.667969 735.667969 M 1250.667969 769.667969 C 1250.722656 769.722656 1250.777344 770.777344 1250.332031 770.332031 C 1250.277344 770.277344 1250.222656 769.222656 1250.667969 769.667969 M 739 812 C 739 806.058594 738.308594 799.726563 740 794 L 741 794 C 741 841.492188 748.996094 888.707031 749 936 L 751 936 C 751 888.523438 759 841.503906 759 794 L 760 794 C 760.757813 798.074219 759.902344 804.3125 762 808 C 766.980469 816.089844 782.460938 802.0625 787 799 C 789.382813 797.261719 793.390625 794.359375 795.835938 797.476563 C 799.785156 802.511719 796.796875 810.480469 800 816 C 806.175781 826 815 833.609375 820.691406 844 C 831.371094 863.699219 834.851563 883.628906 840 905 C 814.402344 897 803.722656 871.21875 798 848 L 797 848 C 797 871 806.742188 890.347656 822.171875 907 C 827.636719 913 834.390625 917.722656 841 922.253906 C 843.203125 923.769531 847.519531 925.699219 847 929 C 846.480469 933.5 839.269531 935.371094 836 937.351563 C 831 940.328125 828.726563 944.664063 827 950 C 820 971.613281 814.953125 992.210938 799.699219 1010 C 776 1037.621094 735 1042.558594 708 1017 C 687.578125 997.496094 683.726563 972.210938 672.648438 948 C 669 940.265625 655.429688 936.542969 653.460938 930 C 652.570313 927 657 924.824219 659 923.574219 C 666 919.105469 673 914.027344 678.828125 908 C 695.25 890.578125 706 868.175781 703 844 L 702 844 C 701.472656 869.507813 684.808594 895.726563 661 906 C 661.472656 883.089844 671.765625 858.328125 683.449219 839 C 688.929688 830 699 822.445313 703.347656 813 C 706 807 705 799.40625 705 793 C 710.378906 795.507813 713.960938 800.402344 719 803.53125 C 725.304688 807.445313 732 809.382813 739 812 M 422.667969 827.667969 C 422.722656 827.722656 422.777344 828.777344 422.332031 828.332031 C 422.277344 828.277344 422.222656 827.222656 422.667969 827.667969 M 633 933 C 622.746094 916.707031 623 890.085938 627 872 C 628 868.019531 629.269531 853.636719 634.976563 853.636719 C 641.21875 853.636719 639.804688 869.171875 640.171875 873 C 642 893.816406 640.347656 913.292969 633 933 M 867 929 C 853.894531 914 858 891.148438 858 873 C 858 867.730469 856.859375 854.695313 864 853.378906 C 871.433594 852.007813 872.289063 866.296875 873.195313 871 C 876.859375 890 876.257813 911.613281 867 929 M 354 877 C 353.988281 896.1875 350 915.609375 344.859375 934 C 344 937 340.375 952 335.585938 949.792969 C 332.425781 948.4375 333 939.746094 332.910156 937 C 331.972656 924.222656 328.984375 911.390625 325.871094 899 C 325.457031 897.34375 322.265625 883.15625 318.984375 886.753906 C 316.355469 889.632813 319.371094 896.722656 319.867188 900 C 321.605469 911.539063 323.941406 923.304688 324 935 C 324 958.035156 320.289063 981.597656 311.546875 1003 C 307.648438 1012.546875 301 1020.589844 297 1030 C 311 1026.703125 323.214844 1008.144531 327 995 L 328 995 C 327.757813 1006.746094 325 1018.140625 325 1030 L 326 1030 C 341.753906 994.632813 351.496094 954.480469 355 916 C 356 904.726563 360.984375 887.046875 354 877 M 1145 878 C 1144.976563 915.339844 1149.769531 948.589844 1158.871094 985 C 1161.859375 997 1164.941406 1017.050781 1175 1025 C 1175 1013.445313 1171.238281 1002.476563 1171 991 L 1172 991 C 1174 1005.433594 1188.785156 1025.777344 1203 1030 C 1198.238281 1018.5625 1190.835938 1008.691406 1186.425781 997 C 1176.742188 971.328125 1176.644531 948.738281 1177 922 C 1177 912.710938 1179.171875 903.0625 1181 894 C 1181.453125 892.425781 1183 886.511719 1180.503906 886 C 1176.207031 885 1174.519531 897.414063 1173.871094 900 C 1170.882813 912 1167.722656 924.644531 1167 937 C 1166.882813 939.714844 1167.316406 948.441406 1164.273438 949.792969 C 1159.683594 951.832031 1155.929688 936.753906 1155 934 C 1151.796875 922.328125 1149.324219 910.097656 1148.171875 898 C 1147.550781 891.535156 1148.824219 883.589844 1145 878 M 419 943 C 414.816406 960 418.925781 977.328125 422.882813 994 C 424.476563 1000.699219 428.21875 1008.03125 427.785156 1015 C 427 1026 419 1034 414 1043 C 421.65625 1040.746094 427.46875 1035.167969 432.332031 1029 C 434.273438 1026.535156 437.269531 1020.054688 440.933594 1020.054688 C 444.945313 1020.054688 446.863281 1028.246094 448.464844 1031 C 453 1039 459.542969 1045.351563 468 1049 C 465.214844 1041.800781 459.328125 1036.324219 456.464844 1029 C 451.605469 1016.585938 450.730469 1002.132813 449 989 C 448.226563 981.269531 448.324219 968.570313 441 964 C 442 978 445.558594 994.148438 436 1006 C 433.917969 992 427.898438 978.140625 425.261719 964 C 423.964844 957.054688 424 948.304688 419 943 M 1063 1006 L 1062 1006 C 1059.175781 991.445313 1059.878906 978.617188 1060 964 C 1052.890625 968.046875 1052.890625 979.679688 1051.871094 987 C 1049.882813 1001.242188 1049 1016.578125 1043.546875 1030 C 1040.671875 1037.03125 1034.699219 1042.027344 1032 1049 C 1045 1044.527344 1055.941406 1030.742188 1058 1017 C 1066 1026.296875 1072.984375 1038.378906 1085 1043 C 1082 1033.171875 1073.714844 1025.535156 1072.554688 1015 C 1071.484375 1005.3125 1077.371094 994.445313 1079.195313 985 C 1081.890625 971.035156 1081 957 1083 943 C 1076.75 946.363281 1077 954.695313 1076 961 C 1073.390625 977.25 1068.554688 990.734375 1063 1006 M 846 947 C 846 989.671875 823.304688 1032 785 1052.21875 C 767.488281 1061.464844 750.367188 1066.09375 731 1059.644531 C 680.425781 1042.804688 660 996.5 654 948 C 665.738281 952.023438 666.785156 967.8125 670.34375 978 C 676.167969 994.660156 686.839844 1011.269531 699.285156 1023.714844 C 705.386719 1029.816406 712.339844 1035.210938 720 1039.214844 C 762 1061.230469 802.257813 1029.730469 823.398438 994 C 828.566406 985.261719 832.382813 975.71875 835.277344 966 C 837.488281 958.582031 838.320313 950.667969 846 947 M 1171 988 L 1171 991 L 1170 991 C 1170.25 989.546875 1170.316406 989.25 1171 988 M 329 992 L 329 995 L 328 995 C 328.25 993.546875 328.316406 993.246094 329 992 M 653 1019 C 652.269531 1036 650 1053.664063 656.464844 1070 C 657.679688 1073.105469 661.441406 1083.792969 665.578125 1083.792969 C 669.6875 1083.792969 668 1070.390625 667.839844 1068 C 666.511719 1057.535156 661.441406 1048.136719 658.894531 1038 C 657.300781 1031.65625 657.472656 1024.078125 653 1019 M 845 1019 C 841.390625 1036.496094 835.660156 1052.1875 830 1069 C 829 1072.078125 827.53125 1083.363281 833.183594 1083.363281 C 838.464844 1083.363281 841.277344 1073 842.796875 1069 C 847 1058.300781 857.300781 1027.425781 845 1019 M 902 1022 L 901 1023 L 902 1022 M 599 1023 L 598 1024 L 599 1023 M 529 1029 L 528 1030 L 529 1029 M 674 1053 C 674 1060.472656 672.972656 1068.78125 675.222656 1076 C 677.851563 1084.453125 683.730469 1091 684.695313 1100 C 685.441406 1107.054688 683.304688 1115.074219 682 1122 C 702.761719 1112.105469 689.964844 1083.539063 683.308594 1069 C 680.625 1063.140625 679.238281 1057.113281 674 1053 M 825 1053 C 821.253906 1058.007813 819.714844 1063.46875 817 1069 C 809.867188 1083.671875 796.320313 1111 818 1122 C 816.722656 1112 813.816406 1102.027344 816.785156 1092 C 820.488281 1079.484375 830.882813 1067.015625 825 1053 M 1212 1063 L 1211 1064 L 1212 1063 M 725.316406 1094.460938 C 721.941406 1095.507813 723.667969 1100.785156 724.347656 1103 C 727 1111.816406 732.621094 1119.191406 735.277344 1128 C 735.777344 1129.65625 736.859375 1138 739.832031 1136.652344 C 743 1135.316406 742.988281 1129.78125 742.992188 1127 C 743 1117.707031 738.28125 1109.726563 733.601563 1102 C 732 1099.539063 729 1093.285156 725.316406 1094.460938 M 773.945313 1094.175781 C 770.847656 1094.617188 769 1098.636719 767.71875 1101 C 763.492188 1108.328125 758 1116.375 757.1875 1125 C 756.886719 1127.757813 757.304688 1136.792969 761.597656 1136.792969 C 764 1136.792969 765 1130.6875 765.8125 1129 C 769 1120.351563 773.933594 1112.03125 776.238281 1103 C 776.785156 1101 778.210938 1093.570313 773.945313 1094.175781 M 1128 1146 L 1127 1147 L 1128 1146 M 775 1180 C 770.871094 1200.003906 764 1219.351563 764 1240 C 755.9375 1231.496094 753.695313 1221.441406 753 1210 C 752.910156 1207.828125 753 1201.214844 749.210938 1202 C 745.664063 1202.578125 747 1211.519531 747 1214 C 747 1226.054688 746 1230.609375 736 1238 C 736 1223.585938 733.78125 1210 730 1196 C 728.859375 1191.214844 728 1184.074219 724 1181 C 724 1215.269531 727.601563 1248 721 1282 C 731 1274.542969 732.976563 1259.707031 740.527344 1250 C 742.976563 1247 747.425781 1241.433594 751.996094 1242.136719 C 756.789063 1243 759.804688 1249.160156 761.730469 1253 C 766 1261.792969 769.585938 1278.488281 778 1284 C 778 1259.691406 773.976563 1235.273438 775 1211 C 775.4375 1202 780.539063 1188.109375 775 1180 "/>
</g>
</svg>
