<?xml version="1.0" encoding="UTF-8"?>
<svg xmlns="http://www.w3.org/2000/svg" xmlns:xlink="http://www.w3.org/1999/xlink" width="1500pt" height="1500pt" viewBox="0 0 1500 1500" version="1.1">
<g id="surface1">
<path style=" stroke:none;fill-rule:nonzero;fill:rgb(0%,0%,0%);fill-opacity:1;" d="M 417 759 L 418 759 C 418.488281 782.570313 430.796875 806.8125 435.195313 830 C 439.554688 853 436.496094 877.492188 447.246094 899 C 451.355469 907.214844 456.679688 914.652344 464 920.320313 C 470.757813 925.554688 479.371094 928.648438 484.296875 936 C 489 943.082031 490 953 492.425781 961 C 496.90625 976.710938 502 992.132813 506 1008 C 517.390625 1053.054688 518.429688 1096 513.832031 1142 C 510.636719 1174 500.222656 1205.359375 510 1237 C 520 1269.515625 547.765625 1322.71875 586 1326.824219 C 597.328125 1328.042969 608.402344 1325.832031 619 1322 C 623.636719 1320.246094 631 1314.691406 636 1316 C 642.46875 1317.539063 647.65625 1326.136719 653 1330 C 665.65625 1339.015625 679.539063 1346.121094 694 1351.796875 C 738.761719 1369.371094 790.996094 1365.769531 833 1342.6875 C 844.667969 1336.277344 852.707031 1323 864 1317.476563 C 870.664063 1314.25 886.503906 1324.332031 894 1325.738281 C 915.355469 1329.753906 936.53125 1323.433594 951.984375 1308 C 1023 1237 975.589844 1122.8125 987.28125 1036 C 990.53125 1012 997.269531 988.144531 1004.65625 965 C 1007.824219 955.070313 1009.394531 943.566406 1015.789063 935.039063 C 1021.324219 927.65625 1030.65625 924.15625 1038 919 C 1046.902344 912.652344 1054.210938 904 1058.6875 894 C 1070.90625 867 1064.292969 835.558594 1068.429688 807 C 1071.691406 784.453125 1084.773438 763.199219 1087 741 C 1089.488281 749.421875 1086 758.535156 1085 767 C 1082 788.105469 1077 809 1074.28125 830 C 1070.496094 858.09375 1067.277344 887 1073.210938 915 C 1077 933.28125 1084.964844 950.121094 1092.691406 967 C 1100 983.308594 1105.1875 1003.296875 1122 1012.652344 C 1150.433594 1028.46875 1189.453125 1010 1200.53125 981 C 1209.265625 958.246094 1193.308594 935.78125 1194 913 C 1194.378906 902.578125 1199.488281 892.550781 1203.1875 883 C 1210.332031 864.554688 1218.179688 846.585938 1227.257813 829 C 1246.851563 791.046875 1284 769.726563 1308.84375 736 C 1335.878906 699.140625 1346.671875 656.8125 1367.257813 617 C 1374.277344 603.425781 1385.414063 592.800781 1393.5625 580 C 1404.890625 562.210938 1407.34375 542.136719 1401.574219 522 C 1385.222656 465 1337.777344 427.34375 1294 391.738281 C 1269.632813 372 1246.332031 350.832031 1223 329.832031 C 1183.484375 294.269531 1145.8125 249.660156 1097 226.78125 C 1074.914063 216.429688 1054 227.492188 1032 222.101563 C 1011.371094 217.066406 992 207.035156 972 200.332031 C 941.203125 190.066406 909.453125 182.589844 878 174.625 C 833.359375 163.320313 785.695313 137 739 139.039063 C 727 139.566406 715.371094 144.246094 704 147.574219 C 683.28125 153.640625 662.695313 160.136719 642 166.277344 C 609.230469 176.003906 575.65625 183 543 193.027344 C 518.523438 200.632813 494.953125 210.539063 471 219.574219 C 454.304688 226 441.859375 220.027344 425 220.027344 C 412.394531 220.027344 399.941406 224.378906 389 230.308594 C 369.773438 240.730469 355 256.34375 339 270.828125 C 312.25 295.035156 286.828125 320.683594 260 344.832031 C 203.683594 395.519531 132.921875 438.054688 102.859375 511 C 94.484375 531.332031 92.714844 556.105469 103.324219 576 C 111.40625 591.15625 124.488281 603 132.691406 618 C 153.75 657 165.371094 699.703125 191.429688 736 C 212.460938 765.296875 244.714844 784.632813 263.945313 815 C 275.847656 833.789063 284.167969 854.425781 292.398438 875 C 297.757813 888.398438 303.90625 902.417969 304.910156 917 C 306 934.441406 295.554688 949.8125 295 967 C 294.855469 978.023438 301.324219 990.828125 308.300781 999 C 325.617188 1019.285156 362.773438 1025.539063 383.960938 1007.53125 C 393.945313 999.046875 398.683594 985.613281 403.859375 974 C 415.683594 947.472656 427.890625 921.515625 429.910156 892 C 433 846.621094 417.925781 803.765625 417 759 M 1207 829 L 1206 829 C 1208.46875 810 1215 785.660156 1228.183594 771.003906 C 1235 763.183594 1244.890625 759.769531 1253 753.484375 C 1265.734375 743.617188 1276.183594 731.007813 1285.574219 718 C 1299.242188 699.070313 1311.953125 679.179688 1319.65625 657 C 1326.238281 638.035156 1328.199219 617.59375 1335.859375 599 C 1341.835938 584.5 1349 568.789063 1361 558.183594 C 1362.867188 556.527344 1376 549.644531 1375.367188 547.394531 C 1374.421875 544.023438 1363.8125 548.71875 1362 549.453125 C 1350.21875 554.230469 1339.496094 563.449219 1334 575 L 1333 575 C 1336.527344 556 1329.777344 538.5 1326.753906 520 C 1324.835938 508.261719 1326.242188 496.65625 1325 485 C 1310.402344 502 1317.691406 529.125 1315.828125 549 C 1311.640625 593.777344 1305.1875 647 1281.386719 686 C 1270.996094 703.054688 1255 716.117188 1236 722.328125 C 1223.8125 726.304688 1209.199219 725.617188 1199 734.46875 C 1190.230469 742.222656 1186.867188 755 1184.425781 766 C 1177 799.511719 1175 837.765625 1175 872 C 1175 901.230469 1176.394531 923.445313 1161.425781 950 C 1158.46875 955.242188 1156 961.425781 1151.675781 965.65625 C 1144.523438 972.476563 1135.652344 967.53125 1130.527344 961 C 1120.816406 948.601563 1117.71875 932 1114.425781 917 C 1113.992188 915.035156 1110.820313 898.03125 1108.894531 900.636719 C 1105.335938 905.445313 1108.359375 918.523438 1109 924 C 1112 945 1122.484375 985.0625 1145 993 C 1158.738281 997.667969 1171.253906 985 1183 980 C 1173.691406 998 1140.464844 1011.789063 1125.527344 993 C 1117.734375 983.167969 1113.175781 969.390625 1108 958 C 1101.519531 943.027344 1092 927.070313 1088.667969 911 C 1086.605469 901.324219 1087.773438 890 1088 880 C 1088.871094 845 1093.515625 810 1095.910156 775 C 1097.378906 753.59375 1094.441406 731.082031 1099 710 C 1101.183594 700 1107 691.429688 1110.796875 682 C 1118 663.675781 1124.296875 645 1129.574219 626 C 1144 573.621094 1150 519.195313 1150 465 C 1150 439.320313 1150.78125 412.675781 1142.484375 388 C 1134 363.039063 1115.585938 343 1100.425781 322 C 1092.917969 311.601563 1085.800781 301 1079 290 C 1075.933594 285 1073.671875 278.152344 1068.894531 274.332031 C 1064.320313 270.671875 1054.933594 273.769531 1049 272 C 1036.972656 268.289063 1027.761719 260 1017 254 C 1036.71875 281.453125 1055.65625 309.402344 1073.679688 338 C 1085.65625 357.003906 1098.746094 376.441406 1105.65625 398 C 1115 427.257813 1109.71875 459 1111 489 C 1111.992188 510.800781 1118.371094 533.160156 1116.910156 555 C 1115 582.460938 1106.53125 609.363281 1099.871094 636 C 1087.921875 683.808594 1074.875 731.671875 1057.945313 778 C 1051.742188 795 1045 812 1036.742188 828 C 1027.207031 846.476563 1017 863.308594 1013 884 L 1012 884 C 1012 863 1007.398438 843 1011 822 C 1014.636719 801.773438 1025.570313 782.773438 1026 762 L 1025 762 C 1017.507813 788.398438 997.339844 810.644531 993.300781 838 C 988.652344 869.46875 1000.917969 900.414063 994.601563 932 C 985.460938 977.695313 967.320313 1020 964 1067 C 961 1111.667969 974.660156 1154.753906 974.660156 1199 C 974.660156 1220.734375 967.246094 1242.15625 958.988281 1262 C 955.210938 1271.082031 950.394531 1280.09375 944.523438 1288 C 908.941406 1336 849.222656 1291.019531 811 1269.425781 C 798 1262.078125 784.960938 1255 772 1247.425781 C 767.746094 1245 760.199219 1243 758.210938 1238 C 756.996094 1235 758.875 1231 759.578125 1228 C 761.863281 1218.367188 769 1202.640625 777 1196.5 C 790 1186.449219 810.792969 1186.5625 825 1176.777344 C 838.6875 1167.355469 846 1152.566406 856.261719 1140 C 866.582031 1127.292969 879.566406 1117.03125 889.496094 1104 C 898.746094 1092 902.183594 1076.761719 904.75 1062 C 907.902344 1044 910.222656 1024.253906 906.550781 1006 C 899.191406 969.421875 872.9375 940.292969 853 910 C 836.429688 884.808594 821.941406 824.503906 779 840.613281 C 777.335938 841.246094 774 843 776.464844 845 C 780.730469 848.394531 789.777344 848 795 849.441406 C 805 852.464844 814.746094 859.023438 821.5625 867.003906 C 843.472656 892.664063 857 926 873.851563 955 C 882.699219 970.417969 894.617188 984.523438 895.910156 1003 C 897 1019.796875 894.421875 1036.3125 894 1053 C 893.71875 1065.097656 896 1078.601563 891 1090 C 886.484375 1100.710938 876.738281 1106.675781 869.171875 1115 C 852.269531 1133.589844 834.519531 1153 812 1164.679688 C 799.960938 1171.011719 785.808594 1172.777344 774 1179.347656 C 765.746094 1184 762.613281 1193.710938 755 1198 C 755.789063 1190.300781 765.921875 1181.683594 765.25 1175 C 764.628906 1168.828125 758 1160.414063 756 1154 C 752 1141.40625 751.695313 1129 750 1116 C 747.179688 1122.675781 745.929688 1130.8125 745 1138 L 744 1138 C 743.390625 1130.5625 740.996094 1119.667969 736 1114 C 736 1127.699219 737 1142 731.929688 1155 C 730 1159.570313 719 1167 719 1170.300781 C 719 1173.332031 724.902344 1176.214844 727 1177.710938 C 734 1182.777344 744 1187.792969 746 1197 C 738 1193 731.730469 1186.320313 724 1182 C 692.503906 1163.753906 663 1147.019531 637 1121 C 627.605469 1111.609375 615 1103.132813 608.996094 1091 C 601.234375 1075.46875 604.691406 1055.667969 603.960938 1039 C 603.382813 1025.8125 600.53125 1012.183594 602.589844 999 C 605.414063 981 616.910156 967.460938 625.71875 952 C 641.328125 924.605469 654 891.664063 675.175781 868 C 681.542969 861 689 854.21875 698 850.464844 C 703.347656 848.210938 709.796875 848 714.882813 845.363281 C 717.449219 844.050781 717.328125 842.277344 714.882813 841 C 695 830 671.949219 857.140625 664.257813 872 C 657.875 884.339844 652.855469 897.277344 645.308594 909 C 620 948.222656 589.421875 984 590 1033 C 590.269531 1055.441406 595 1082.304688 608 1101 C 617.195313 1114.175781 630.285156 1123.804688 640.5625 1136 C 650.894531 1148.261719 657.992188 1163.253906 671 1173.101563 C 690.949219 1188.203125 731 1191.714844 738.480469 1220 C 739.753906 1225 741.609375 1233.199219 738.972656 1237.816406 C 734.238281 1246.101563 716.199219 1252.71875 708 1257.421875 C 681.6875 1272.507813 655.390625 1287.230469 628 1300.253906 C 613.25 1307.269531 596 1314.121094 580 1307.125 C 564.953125 1300.554688 554 1285.601563 545.8125 1272 C 534.894531 1254.183594 523.476563 1231.246094 522 1210 C 521.226563 1196.792969 526 1183 528.386719 1170 C 531.8125 1151 533.59375 1131.238281 534.910156 1112 C 537.535156 1073.691406 531.84375 1035 522 998 C 514.40625 968.675781 503.285156 940.042969 498.589844 910 C 495.523438 890.371094 497.5625 870.496094 500.753906 851 C 502.429688 840.757813 507.292969 828.378906 505.53125 818 C 503.671875 807.046875 494 799.203125 487.425781 791 C 479.886719 781.800781 474.457031 771.074219 467 762 C 473.871094 778.746094 484.992188 795.628906 486.828125 814 C 489.273438 838.445313 479 861 479 885 L 478 885 C 454.191406 800.484375 420.691406 719.359375 399.625 634 C 394.367188 612.699219 386.886719 590.761719 384.285156 569 C 380.765625 539.578125 387.671875 508.425781 388.960938 479 C 390 453.449219 385.421875 425 392.429688 400 C 408 344.535156 455.726563 303 483 254 C 471.75 260.261719 461.859375 268.171875 449 271.097656 C 441 273 432.800781 267 426 273.148438 C 412.8125 285.347656 405.75 306.167969 395.65625 321 C 381.265625 342.144531 364.269531 362.265625 356.34375 387 C 348.46875 411.582031 350 439.5 350 465 C 349.738281 519 353.980469 571.613281 368 624 C 376.808594 656.007813 394.371094 686 401.339844 718 C 406.410156 741.421875 405.464844 765.289063 407 789 C 409.203125 820 413.972656 851.035156 413.972656 882 C 413.96875 891.203125 410.191406 900.265625 407.710938 909 C 402.566406 927.105469 396.816406 944.664063 389.421875 962 C 385.609375 971 382.699219 981.785156 375.894531 989 C 360 1005.703125 325.214844 1000.757813 316 979 C 325.722656 984.175781 335.257813 993.46875 347 993 C 359.507813 992.285156 368.402344 981.007813 374 971 C 387 948.449219 392.773438 923.519531 396 898 C 390.425781 902.78125 389.242188 910.203125 387.289063 917 C 383.539063 930.070313 381.183594 943.671875 375.214844 956 C 370.847656 965.023438 363 973.605469 352 970.566406 C 340 967.277344 333.523438 942.308594 329.398438 932 C 320.171875 909 324.28125 889.011719 323.996094 865 C 323.699219 840.0625 320.972656 814.746094 317.71875 790 C 315.203125 771 313.460938 747.765625 298 734.183594 C 285 723 265.3125 723.804688 250 717.546875 C 232.726563 710.488281 220.476563 694.214844 212.371094 678 C 202.585938 658.425781 197.21875 636.214844 192.347656 615 C 186.324219 588.742188 180.261719 561.003906 182.828125 534 C 183.949219 522.246094 181.933594 510.425781 179.351563 499 C 178.769531 496.429688 178.242188 488.40625 175 487.632813 C 172 487 173 505.636719 172.828125 508 C 170.691406 530.113281 164 550.558594 164 573 L 163 573 C 156.652344 559.664063 137.722656 544.386719 122 548 C 130.996094 555.445313 140.484375 559.132813 147.570313 569 C 164.75 593 168.4375 621.507813 176.71875 649 C 182.445313 668.003906 191.980469 686.359375 202.691406 703 C 213.738281 720.15625 225.488281 738.21875 241 751.710938 C 251.921875 761.207031 266.585938 766 275.210938 778 C 284.894531 791.519531 288.695313 810 292 826 C 281.613281 813.59375 279.597656 796 269.480469 783 C 261.839844 773.285156 250.984375 768.800781 241 762.109375 C 231.199219 755.542969 222.859375 747.117188 215.460938 738 C 186 702 172.207031 657 151.394531 616 C 139.304688 592.234375 113 574.703125 112.453125 546 C 111.734375 515.011719 134.511719 486 153.949219 464 C 173.75 441.683594 197.386719 424.011719 220 404.726563 C 251.769531 377.640625 283 350.035156 312.960938 321 C 340.980469 293.613281 369 255 408 242.359375 C 422.980469 237.488281 437.832031 242.660156 453 242.660156 C 463.578125 242.660156 474.296875 238.636719 484 234.796875 C 539.558594 212.804688 596.839844 199.425781 654 182.28125 C 671.34375 177.078125 688.820313 172.210938 706 166.484375 C 717.285156 162.722656 728.949219 157.570313 741 157.039063 C 757.40625 156.316406 772.5 163 788 167.289063 C 815.632813 175.230469 843 183.652344 871 190.628906 C 902 198.386719 933.816406 205 964 215.691406 C 986.1875 223.597656 1007 235.824219 1030 241.523438 C 1052.335938 247.074219 1075.761719 235.261719 1097 245.808594 C 1115.332031 255 1130 269.265625 1145 282.828125 C 1169 304.648438 1192.582031 327.214844 1217 348.714844 C 1240.207031 369.148438 1263 390 1287 409.574219 C 1325 440.832031 1372.964844 477.121094 1384.765625 528 C 1392.3125 560.546875 1366.789063 580.792969 1353.257813 607 C 1331 650 1316.960938 698 1286.195313 736 C 1279 745 1271.335938 753.300781 1262 760 C 1252.609375 766.660156 1241.476563 771.117188 1233 779.09375 C 1219.90625 791.449219 1211 811.628906 1207 829 M 324 463 C 324 447 327.386719 431 329.726563 415 C 334.757813 381 340.683594 347.0625 358.605469 317 C 364.921875 306.402344 372.351563 296.445313 380.273438 287 C 381.355469 285.710938 387.785156 279.332031 384.351563 277.707031 C 381 276.160156 375.414063 281.03125 373 282.722656 C 362.335938 290.1875 352.714844 300.289063 345.347656 311 C 320.855469 346.601563 319 382.289063 319 424 C 319 432.433594 316.769531 458 324 463 M 1113 278 C 1118.765625 291.753906 1131.492188 303 1139 316 C 1152.957031 339.503906 1160 365.300781 1164.75 392 C 1167.695313 409 1170.496094 426 1172.71875 443 C 1173.617188 450 1172.597656 459.007813 1178 464 C 1180.683594 449.757813 1180 435.445313 1180 421 C 1180 383.082031 1176.371094 343.816406 1153.570313 312 C 1144.320313 299.089844 1130 279.757813 1113 278 M 749 297 C 748.585938 317.136719 742.917969 337 742 357 C 740.777344 385.820313 745.394531 415.464844 749 444 L 750 444 C 752.441406 433.132813 750.554688 421.09375 751 410 C 752 385.53125 752 361.453125 752 337 C 751.945313 325.78125 755.652344 306.574219 749 297 M 664 557 C 679.261719 549.726563 684 521.074219 684 506 C 684 476.6875 673.3125 449.117188 672 420 C 670.992188 396.128906 679.238281 373.058594 684 350 C 678.808594 353 676.917969 358.722656 674.800781 364 C 670.320313 375.167969 665.796875 386.308594 662.871094 398 C 655.539063 427.339844 665.914063 454.824219 667.910156 484 C 669.59375 508.582031 664.503906 532.585938 664 557 M 299 351 C 285.789063 373.632813 275.34375 398.019531 262.695313 421 C 252.59375 439.347656 239.304688 456.453125 233.882813 477 C 222.46875 520.265625 234.167969 567.140625 249.574219 608 C 254.183594 620.21875 257.910156 633.445313 264 645 L 265 645 C 263.613281 629.082031 255.222656 613.582031 251.652344 598 C 245 569.257813 245.355469 539.53125 252.882813 511 C 263.328125 471.410156 282.878906 434.800781 292.871094 395 C 295.695313 383.761719 303.617188 362.007813 299 351 M 815 351 C 818.34375 375.8125 827.667969 398.355469 825.910156 424 C 823.976563 452.234375 812 479.394531 814 508 C 815 522.765625 820.25 550.789063 835 558 C 831.503906 531 828.550781 505.421875 831.171875 478 C 833.605469 452.511719 841.890625 426.636719 836.339844 401 C 833.257813 386.765625 827 360 815 351 M 1198 352 C 1198.515625 414.183594 1238.199219 466.667969 1249.390625 526 C 1257.199219 567.410156 1244.546875 608.761719 1232 648 C 1236.875 645.027344 1238.355469 637.148438 1240.398438 632 C 1246.261719 617.226563 1251.355469 602.183594 1256 587 C 1266.363281 553.375 1274.535156 510.5625 1264.277344 476 C 1256.429688 449.542969 1239.769531 427.675781 1226.28125 404 C 1219.78125 392.59375 1214 380.742188 1208.246094 369 C 1205.265625 363.03125 1203.242188 356.347656 1198 352 M 502 371 C 486.878906 390.675781 478.75 415 467.753906 437 C 461.675781 449.160156 451.773438 461 448 474 C 471.585938 457.375 489 425.160156 496.859375 398 C 499 390.183594 505.367188 379.039063 502 371 M 995 371 C 1002 399.519531 1009.453125 426.816406 1027 451 C 1033 459.417969 1041.433594 470.539063 1051 475 C 1047.25 462 1038.394531 449.785156 1031.859375 438 C 1024.492188 424.710938 1018.933594 410.605469 1012.242188 397 C 1008 388.695313 1003.589844 375.386719 995 371 M 873 487 C 879.761719 480.460938 880 473.40625 891 471.015625 C 893.207031 470.53125 899.246094 468.769531 899.863281 472.316406 C 900.90625 478.292969 891 487.261719 888 492 C 879.222656 506.28125 870.449219 542.070313 890 552 C 892.207031 524.089844 909.949219 498.621094 934 485 C 942 480.21875 951 476.636719 960 473.746094 C 961.546875 473.242188 968.773438 472.074219 968 469.378906 C 967.800781 468.304688 951.914063 468 949 465.605469 C 936 455.578125 931 442.640625 913 440.289063 C 890.421875 437.351563 861.652344 463.421875 873 487 M 602 526 C 601.519531 516.722656 595 508.683594 592 500 C 591.453125 498.164063 589.179688 492.394531 592.351563 491.59375 C 595.855469 490.707031 599.941406 496.765625 601.710938 499.003906 C 608.722656 508 612.882813 520.050781 615.335938 531 C 615.8125 533.136719 616.21875 543.792969 619.207031 543.792969 C 623.238281 543.792969 623.839844 530.734375 623.960938 528 C 624.652344 512.199219 620.238281 495.292969 611.65625 482 C 610.296875 480 602.253906 469.488281 605.707031 467.242188 C 608.328125 465.535156 613.21875 469.699219 615 471.214844 C 620 475.5 624 480.699219 626 487 C 627 490 626.824219 496 628.980469 498.246094 C 630.304688 499.644531 631.761719 498.003906 632.433594 496.832031 C 636.640625 489.476563 633.34375 476.269531 630.371094 469 C 620.417969 444.617188 578.175781 429 556 447.53125 C 548.632813 454 551.390625 462.644531 555.613281 470 C 564.234375 485.011719 576.53125 496.832031 587.5625 510 C 591.96875 515.261719 595.351563 523.523438 602 526 M 503 457 C 482.601563 469 455.25 480.132813 442.46875 501 C 434.25 514.414063 433 532.648438 433 548 C 439.902344 544.007813 441 529.007813 445.207031 522 C 456 503.726563 473 490 488 475 C 492.386719 470.617188 503.339844 463.746094 503 457 M 995 457 C 997.878906 464.433594 1004.617188 468.390625 1009.910156 474.003906 C 1023.492188 488.410156 1039.515625 502 1051 518 C 1056.976563 526.222656 1058.269531 543.3125 1066 549 C 1066 534.214844 1065.488281 518.503906 1058.730469 505 C 1047.796875 483.152344 1016.882813 466.160156 995 457 M 1090 501 C 1081.996094 522.335938 1081.585938 546.253906 1073.1875 568 C 1062 597 1049 625.195313 1033.574219 652 C 1022.886719 670.414063 1010 687.5 999.578125 706 C 991.894531 719.511719 987.1875 735.402344 987 751 C 986.972656 753.535156 985.707031 765.792969 989.976563 765.792969 C 993.328125 765.792969 994.273438 753.472656 995 751 C 999.871094 736.503906 1009 723.730469 1018.609375 712 C 1030.925781 696.820313 1044.449219 682.570313 1054.945313 666 C 1075.167969 634.078125 1086.1875 597.066406 1092.246094 560 C 1094.542969 546 1095.539063 532.167969 1094.171875 518 C 1093.597656 512.105469 1094 505.703125 1090 501 M 407.609375 503.347656 C 404.710938 504.824219 405 514.234375 405 517 C 404.839844 531 404.945313 544.199219 406.871094 558 C 412 594.816406 424.417969 632.347656 444 664 C 454.8125 681.316406 468.578125 696.386719 481.566406 712 C 491.921875 724.449219 501.613281 738.15625 505.84375 754 C 506.289063 755.660156 508 768.132813 511.390625 765.824219 C 514 764 513.945313 755 513.871094 752 C 513.527344 738.074219 509.503906 724.566406 503.691406 712 C 494 691.136719 478.957031 672.699219 467.199219 653 C 450.285156 624.65625 436.480469 594.824219 424.808594 564 C 419 549 415.410156 533 412.753906 517 C 412.449219 515.183594 411 501.617188 407.609375 503.347656 M 749 507 C 742.78125 527.46875 746.359375 551.816406 744.910156 573 C 743 599.714844 739.863281 626.105469 741 653 C 741.683594 667.691406 744.4375 682.363281 745.828125 697 C 747 710 745.984375 723.34375 749 736 L 750 736 C 750 678 755 620.074219 751 562 C 750.296875 550.402344 749.296875 537.570313 750 526 C 750.511719 519.828125 752.734375 512.46875 749 507 M 437 565 C 451.578125 565 465.53125 570 480 570 C 463.304688 600.445313 516 628 542 624.574219 C 550 623.523438 558 623.035156 566 621.339844 C 568.867188 620.722656 572.949219 619.003906 575.398438 621.492188 C 578.996094 625.152344 576.792969 635.195313 577.425781 640 C 580.234375 661.414063 579.703125 683.617188 577 705 C 589 694.648438 590 665 593 650 C 595.535156 637 599.808594 621.347656 598.910156 608 C 597.457031 586.371094 585.257813 563.136719 575.753906 544 C 571.425781 535.289063 566.371094 526.417969 558 521 C 541.867188 510.460938 520 512.675781 503 519.449219 C 491 524.152344 480 531 470 538.652344 C 459.910156 546.339844 442.523438 553.1875 437 565 M 930 712 C 926.269531 699 919.539063 685.683594 918.171875 672 C 917 661.632813 919.796875 652.175781 920.832031 642 C 921.28125 637.570313 918.859375 622.457031 923.316406 620.328125 C 928.953125 617.636719 942.527344 623 949 623 C 966.574219 623.203125 983.773438 619.625 999 610.546875 C 1008.808594 604.699219 1018.460938 596.492188 1023.46875 586 C 1025.304688 582.144531 1022.960938 575.660156 1025.644531 572.726563 C 1027.953125 570.199219 1032.875 570.085938 1036 569.347656 C 1046 567 1054.671875 564.695313 1065 566 C 1059.429688 554.0625 1042 548.179688 1032 540.199219 C 1021.726563 532.015625 1011.378906 524.71875 999 520.066406 C 980.511719 513.113281 957 511.757813 940 523.105469 C 931.886719 528.507813 927.667969 536.78125 923 545 C 911.691406 565 900 588.707031 899 612 C 898.234375 630.382813 903 648 909.320313 665 C 913.4375 676.140625 918.386719 687 922.800781 698 C 924.632813 702.582031 925.824219 709.140625 930 712 M 957 533.382813 C 968.507813 531.597656 973.992188 550.226563 961.984375 552.722656 C 948.683594 555.484375 943.683594 535.449219 957 533.382813 M 539 539.4375 C 547.527344 537.101563 551.3125 549.441406 542.980469 552.011719 C 534.8125 554.53125 530.84375 541.703125 539 539.4375 M 993 540 C 1009.691406 545.675781 1007.226563 563.683594 999.90625 576 C 990 592.546875 968.75 603.023438 950 596 C 941.753906 592.816406 919 578.175781 931.636719 567.460938 C 936 563.734375 951.34375 579.585938 957 581.210938 C 982 588.429688 992.191406 558.832031 993 540 M 499 549.449219 C 501.316406 549 504.246094 549.234375 505.398438 551.433594 C 511.777344 563.585938 511.757813 574 526 581.179688 C 534.492188 585.53125 543.675781 584.324219 552 580.191406 C 555 578.621094 559.960938 574.101563 563.605469 574.300781 C 567.230469 574.503906 568 581.398438 567.21875 584 C 565.746094 588.160156 560.761719 590.4375 557 592.136719 C 539.953125 599.820313 518.507813 601.789063 505.328125 586 C 499.289063 578.761719 496.5625 568.257813 495.976563 559 C 495.75 555.4375 494.605469 550.691406 499 549.449219 M 313 558 C 315 583.070313 328.695313 609 339.753906 631 C 357.886719 667.265625 377.40625 702.296875 390 741 L 391 741 C 389.953125 690.242188 367.859375 644.597656 342.601563 602 C 334 587.765625 326.746094 568 313 558 M 1185 558 C 1155.847656 596 1129.367188 642.558594 1117 689 C 1113 704.328125 1108.246094 722.046875 1110 738 C 1119 725.324219 1122.660156 704.480469 1129.308594 690 C 1142.648438 661 1159.191406 633.507813 1171.574219 604 C 1175.972656 593.527344 1179.253906 582.785156 1182.746094 572 C 1184.242188 567.371094 1186.960938 562.804688 1185 558 M 679 579 C 673.167969 591.308594 666.996094 603 656.910156 612.28125 C 644.34375 624.019531 627.820313 632.511719 620.675781 649 C 616.429688 658.804688 613.285156 680 622 688 C 626.289063 676.800781 630.339844 667.285156 638.300781 658 C 650.859375 643.347656 667.597656 630.417969 674.933594 612 C 678.40625 603.285156 684.953125 587.714844 679 579 M 818 579 C 809.792969 613.476563 845.578125 640 864.382813 663 C 870.535156 670.574219 873 679.683594 878 688 C 881.261719 683.617188 881.546875 677.347656 881.910156 672 C 884 641 854.847656 628.179688 837.289063 608 C 829.71875 599.296875 825.917969 587 818 579 M 416.667969 755.667969 C 416.722656 755.722656 416.777344 756.777344 416.332031 756.332031 C 416.277344 756.277344 416.222656 755.222656 416.667969 755.667969 M 854 757 C 859.597656 772.164063 872.675781 783 881.652344 796 C 896.394531 817.46875 905.582031 841.121094 908.167969 867 C 909 876.550781 908.816406 885.460938 907.925781 895 C 907.6875 897.527344 907.660156 903.628906 904.789063 904.792969 C 900.917969 906.363281 894.871094 887.027344 893.578125 884 C 887.585938 870 882 856 878.652344 841 C 876.378906 831.089844 876.597656 820.585938 873 811 L 872 811 C 866.628906 823.484375 868.566406 839.777344 869.828125 853 C 873.339844 889.746094 887.449219 920.804688 902.691406 954 C 923 998.316406 933.183594 1042.023438 931.984375 1091 C 931.40625 1114.652344 919 1136.101563 907.574219 1156 C 905.363281 1159.8125 893.980469 1173.730469 898.21875 1178.246094 C 900.738281 1181 907.273438 1172 909 1170.515625 C 920.265625 1161.339844 931.378906 1154 940 1142 C 949.425781 1181.597656 903.546875 1203.808594 873 1214 C 864.226563 1217 855 1219.40625 847 1224 L 847 1225 C 864.605469 1230.191406 893.882813 1221.773438 910 1214.21875 C 915.863281 1211.472656 927.890625 1200.695313 933.957031 1201.253906 C 940.457031 1202 939 1212 937.957031 1216 C 934.210938 1228.769531 925.640625 1241.210938 916.828125 1251 C 909.359375 1259.304688 899.414063 1266 893 1275 C 901.34375 1272.71875 909.289063 1268.609375 917 1264.753906 C 928 1259.203125 938.863281 1252.261719 946.210938 1242 C 965 1215.613281 960.78125 1174.507813 959 1144 C 955.535156 1080.574219 950.214844 1017.277344 944.171875 954 C 942.996094 941.730469 941.691406 928.304688 943.183594 916 C 944 909.230469 948.28125 903.628906 949.53125 897 C 952.316406 882.238281 947.558594 866.203125 941.214844 853 C 928 825.699219 906 804.113281 885 783 C 875.984375 774 866.179688 761.683594 854 757 M 601 1274 C 597.269531 1267.488281 590.335938 1263 585.667969 1257 C 576.746094 1245.675781 570 1232.597656 565.34375 1219 C 564.460938 1216.449219 558.363281 1200.671875 562.605469 1199.617188 C 565 1199.015625 568.339844 1202.6875 570 1204 C 576.332031 1209 582.855469 1213.726563 590 1217.511719 C 606.933594 1226.484375 632.449219 1231 651 1225 C 642.378906 1218.550781 628.179688 1216.464844 618 1213 C 597.476563 1206.003906 578.488281 1195.554688 566.34375 1177 C 561.628906 1169.796875 549.683594 1151 560 1143.617188 C 564.730469 1140.4375 569.777344 1145 573 1148.042969 C 581.976563 1156.546875 586.609375 1168.574219 596 1176.558594 C 597.46875 1177.804688 610 1188.007813 611 1182.527344 C 611.566406 1179.71875 607.679688 1176.753906 606 1175 C 600.710938 1169.316406 595.316406 1163.496094 591 1157 C 578.664063 1138.425781 569.566406 1115.550781 569 1093 C 567.839844 1045.03125 580.847656 994.148438 599 950 C 609.320313 925 625.597656 901.710938 631.574219 875 C 636 855 634.71875 833 629.871094 813 C 628.515625 807.421875 627.726563 797.582031 623 794 C 621.734375 810.023438 625.496094 827.148438 621.765625 843 C 618.945313 855 611.363281 865.132813 605.96875 876 C 602.992188 882 599 900.816406 589 898.328125 C 587.398438 898 586.242188 896.503906 587 894.785156 C 590.359375 888 598 882.433594 601.753906 875 C 614.839844 848.65625 613 818.222656 623.425781 791 C 626.21875 783.597656 630.320313 777.085938 633.726563 770 C 634.3125 768.773438 636.980469 763.28125 633.707031 763.347656 C 631 763.398438 628.613281 767.195313 627 769.003906 C 621.886719 775.128906 616.5 781.125 611 787 C 588.382813 811.304688 563.28125 836.765625 552.671875 869 C 545.976563 889.339844 552.695313 901.644531 556.984375 921 C 560 935.226563 560.90625 950.46875 559.910156 965 C 558.277344 988.828125 552.546875 1012.238281 550.167969 1036 C 545.496094 1082.71875 543 1129.015625 543 1176 C 543 1197.359375 542.886719 1226.238281 554.46875 1245 C 563.632813 1260 584.429688 1270.074219 601 1274 M 703.996094 870.589844 C 685 873.339844 672.433594 898.679688 668.375 915 C 667.597656 918.128906 662.953125 938.363281 668.960938 938.363281 C 671.984375 938.363281 674 921 675 918 C 678.863281 907.382813 685.210938 897.101563 693 889.003906 C 697.414063 884.476563 704 881.222656 707.507813 876 C 709.753906 872.632813 707.90625 870.015625 703.996094 870.589844 M 831 935 C 831 919.199219 829.355469 905.09375 819.847656 892 C 818 889.644531 812.542969 880 808.644531 882.175781 C 805.332031 884.148438 810 892.671875 811 895 C 815 904.054688 819.386719 913 823 922 C 825.210938 927.027344 825.875 932.320313 831 935 M 732 890 C 735.34375 907.746094 740 923 723 935 C 716.28125 939.703125 703.550781 942.328125 699 949 C 717.363281 945.210938 735 936.648438 754 936.042969 C 766 935.65625 777.488281 943.738281 789 943 C 779 933.640625 764 932.035156 754.171875 922 C 745.957031 913.453125 741.972656 895.46875 732 890 M 522 934 C 522.414063 943.59375 526.527344 952 529 961 C 534.539063 979.757813 540 999.371094 540 1019 L 542 1019 C 542 992.199219 545.894531 973.65625 532 949 C 529.175781 943.691406 526.847656 937.804688 522 934 M 613 1014 C 623.769531 1009 630 995.433594 638.171875 987.089844 C 646.554688 978.453125 657.347656 971.515625 667 964.378906 C 672 960.636719 678 957.8125 681 952 C 650.539063 959.050781 622.984375 984.679688 613 1014 M 826 957 C 830.925781 967.011719 849.40625 971.804688 858 979.289063 C 868.371094 988.324219 874.511719 1007.699219 886 1014 C 883.328125 983.421875 856.65625 957.636719 826 957 M 670 1103 C 659.546875 1092 664.238281 1079.03125 679 1074.789063 C 699.320313 1069 720 1081 741 1073 L 741 1072 C 726.347656 1072 707.863281 1071.539063 696 1061.671875 C 683.894531 1051.589844 675.4375 1023.347656 692 1013 C 700.945313 1007.230469 715.921875 1009.789063 726 1008.828125 C 758.570313 1005.730469 809.285156 991.59375 815.570313 1037 C 816.429688 1043.207031 815.304688 1052.371094 812.3125 1058 C 804.910156 1071.773438 778.292969 1062.367188 769 1075 C 782 1075 794.972656 1073.550781 808 1073 C 814 1072.6875 820 1071 826 1073.148438 C 841 1079.082031 843.339844 1098 829 1105 C 835.453125 1091.09375 831.582031 1083 815 1085.4375 C 801.554688 1087.539063 785.863281 1092.648438 776.667969 1103.171875 C 766.449219 1115 763.554688 1144 783 1148.472656 C 794.902344 1151.21875 808.953125 1144.34375 820 1140.667969 C 832.605469 1136.46875 844.320313 1133.746094 855 1125.332031 C 882.894531 1103.351563 892.492188 1062.566406 878.988281 1030 C 861 986.714844 815.898438 972.121094 773 967.832031 C 757.492188 966.28125 740.570313 962.664063 725 964.171875 C 676.738281 969 621.957031 1001.660156 615.289063 1053 C 609.386719 1098.449219 637.46875 1128.183594 679 1140.140625 C 689.375 1143.128906 699.652344 1146.554688 710 1149.65625 C 714.863281 1151.113281 720.617188 1152.164063 723.546875 1147 C 733 1130 725.484375 1098.738281 709 1089.339844 C 699.753906 1084.066406 677 1075.429688 670.820313 1089.015625 C 668.703125 1093.589844 669.625 1098.214844 670 1103 M 824 1116 L 824 1115 C 864.472656 1115 869.714844 1060.117188 854.742188 1031 C 839.171875 1000.722656 798.5 990.378906 767 990.003906 C 727.546875 989.535156 677 991.167969 650.519531 1025 C 628.695313 1052.742188 632.785156 1114 676 1114 C 661.359375 1124.429688 642.332031 1109 637.75 1095 C 629.671875 1070.394531 633.976563 1038 651.171875 1018.003906 C 685.820313 978 756.992188 978.316406 804 991.578125 C 824.410156 997.339844 844.769531 1007.136719 855.984375 1026 C 866.742188 1044.097656 867.507813 1067.820313 863.738281 1088 C 861.71875 1098.816406 857.445313 1109.773438 847 1115 C 839.460938 1118.773438 831.886719 1117.003906 824 1116 M 631.316406 1161.046875 C 626.941406 1163.785156 631.171875 1170.792969 635.5625 1168 C 639.800781 1165.214844 635.757813 1158.265625 631.316406 1161.046875 M 861.433594 1170.03125 C 857.28125 1173 861.304688 1179.550781 865.683594 1177 C 870.222656 1174.214844 866 1166.808594 861.433594 1170.03125 M 628.667969 1194.066406 C 626.707031 1195.660156 629.484375 1198.433594 631.332031 1197 C 633.292969 1195.339844 630.515625 1192.566406 628.667969 1194.066406 M 866.617188 1200.066406 C 864.570313 1201.65625 867.28125 1204.445313 869.167969 1203 C 871 1201.34375 868.535156 1198.582031 866.617188 1200.066406 M 663.316406 1209 C 658.503906 1210.285156 663 1219 667.683594 1217.289063 C 672.335938 1215.628906 667.355469 1208 663.316406 1209 M 831.226563 1210.046875 C 827 1212.425781 829 1219.273438 833.890625 1217 C 838.875 1214.511719 836.367188 1207.101563 831.226563 1210.046875 M 684 1219.085938 C 678.511719 1222 683.289063 1231.566406 688.773438 1228.761719 C 694.339844 1226 689.621094 1216.375 684 1219.085938 M 810 1219 C 803.882813 1220.808594 806 1232.0625 812.773438 1229.238281 C 817.828125 1227.109375 816.167969 1217 810 1219 M 702 1230 C 695.699219 1232 703.761719 1242.007813 708.679688 1240.289063 C 714 1238.40625 707.234375 1228.1875 702 1230 M 793.945313 1230 C 789.273438 1231.074219 784.921875 1241.46875 792 1239.199219 C 795.886719 1238 800.410156 1228.253906 793.945313 1230 M 614 1236 C 606.585938 1237 614.671875 1245.613281 619.851563 1244.472656 C 626.953125 1243 618.757813 1235.199219 614 1236 M 881.984375 1235.761719 C 876.445313 1236.117188 872.769531 1244.828125 880 1244.621094 C 885.746094 1244.460938 889.292969 1235.289063 881.984375 1235.761719 M 850 1242 C 843 1243.117188 843.570313 1252.648438 850.984375 1251.546875 C 858.28125 1250.464844 857.378906 1240.492188 850 1242 M 645 1242.761719 C 636.476563 1244.089844 643.671875 1253.777344 649.890625 1252.472656 C 657.390625 1251 650.570313 1242 645 1242.761719 M 819 1245.613281 C 810.25 1247.777344 816.894531 1256.585938 823.953125 1254.566406 C 832 1252.230469 825.289063 1244.0625 819 1245.613281 M 745 1246.390625 C 754.210938 1244.445313 761.585938 1251.554688 769 1255.691406 C 788 1266.367188 806.5 1278.214844 825 1290 C 829.734375 1293 846.980469 1300.148438 847.453125 1306.183594 C 847.910156 1312 838.992188 1316.640625 835 1319.328125 C 820.285156 1329.25 804.378906 1336.6875 787 1340.574219 C 750.644531 1348.710938 714.957031 1342.347656 682 1325.753906 C 674.214844 1321.832031 666.839844 1317.203125 660 1311.789063 C 657.746094 1310.007813 653.394531 1307.375 653.347656 1304.089844 C 653.265625 1299 669.941406 1291.667969 674 1289.203125 C 690 1279.445313 706 1269.554688 722 1259.574219 C 729 1255.117188 736.589844 1248.167969 745 1246.390625 M 674 1249.667969 C 665.183594 1251.519531 673.65625 1260.289063 679.886719 1258.550781 C 687.242188 1256.5 679 1248.585938 674 1249.667969 M 743 1260.519531 C 729.226563 1263.457031 720.300781 1275.632813 708 1281.507813 C 706.421875 1282.261719 694.691406 1286 697.832031 1289.015625 C 701.621094 1292.761719 716.746094 1291.460938 722 1292.050781 C 744.984375 1294.632813 769 1299.53125 792 1293.519531 C 806.769531 1289.644531 797.3125 1279 789 1273.359375 C 775.902344 1264.46875 759.203125 1257.0625 743 1260.519531 M 683.476563 1311.027344 C 678.640625 1314.605469 686.757813 1319.6875 690.664063 1317 C 695.625 1313.519531 687.347656 1308.164063 683.476563 1311.027344 M 808 1310.746094 C 802.261719 1313.304688 808 1319.398438 812.851563 1317.390625 C 818.742188 1315 813 1308.601563 808 1310.746094 M 716 1318 C 704.253906 1319.773438 721.335938 1334.722656 728.945313 1333.253906 C 734 1332.277344 733.519531 1327.25 730.757813 1324.105469 C 727.476563 1320.371094 721 1317.027344 716 1318 M 779 1318.546875 C 774.609375 1319.414063 769 1322.15625 766.621094 1326.042969 C 763.636719 1330.804688 768.503906 1334.121094 773 1333.4375 C 777.6875 1332.726563 783.402344 1330 785.972656 1325.828125 C 789.246094 1320.570313 783.734375 1317.605469 779 1318.546875 "/>
</g>
</svg>
