<?xml version="1.0" encoding="UTF-8"?>
<svg xmlns="http://www.w3.org/2000/svg" xmlns:xlink="http://www.w3.org/1999/xlink" width="1500pt" height="1500pt" viewBox="0 0 1500 1500" version="1.1">
<g id="surface1">
<path style=" stroke:none;fill-rule:nonzero;fill:rgb(0%,0%,0%);fill-opacity:1;" d="M 770 119 L 769 119 C 767 108.722656 766.429688 97.554688 755 93.75 C 733 86.445313 724.21875 105.09375 705 107.695313 C 695.90625 109 687.191406 102.679688 679 99.695313 C 665.878906 95 651.953125 92.773438 638 94.171875 C 630.683594 95 618.320313 98.265625 615.175781 106 C 614.238281 108.121094 630.183594 114.289063 632.984375 116.617188 C 648 129.203125 650.753906 147.207031 655 165 C 637.769531 155.828125 622.242188 138.507813 603 135.285156 C 567 129.28125 527 143.023438 501 168.039063 C 488 180.402344 479.816406 196.574219 466.996094 209 C 451.902344 223.542969 431 230 415 243.09375 C 405.421875 251 403.269531 262.601563 394.894531 270.570313 C 373.839844 290.605469 345.675781 304.644531 326 326.039063 C 321.203125 331.4375 323.773438 337.164063 320.820313 343 C 317.585938 349.390625 309.78125 351.414063 305.648438 357.039063 C 301.933594 362.097656 301.910156 369.097656 297.605469 373.785156 C 290.933594 381.054688 277.226563 377.15625 271.855469 385.109375 C 266 393.601563 270.265625 406.492188 267.195313 416 C 265.382813 421.613281 260 423.371094 256 427.105469 C 251.257813 431.515625 247.871094 437.0625 245.335938 443 C 242 450.519531 243.578125 458.125 242.828125 466 C 241.742188 477.417969 238.425781 487.117188 232.546875 497 C 220.546875 517.171875 205.894531 541 186 554 C 172.386719 563 145 565.007813 137.96875 581 C 128.21875 602.804688 162 601.183594 157.710938 618 C 154.652344 629.609375 148.230469 641.074219 143.304688 652 C 134.988281 670.453125 126.726563 689.476563 114.84375 706 C 104.261719 720.722656 89.292969 733.3125 83.519531 751 C 80 761.355469 81 772.273438 81 783 C 80.996094 789.203125 78.507813 797.09375 81 803 C 84.195313 810.4375 95.554688 811.050781 100.347656 805 C 103.816406 800.433594 103.382813 794.34375 108 790.648438 C 110.925781 788.445313 120.367188 784 123 788.449219 C 126 793.613281 114.167969 811.816406 111.859375 817 C 101.996094 839.148438 86.9375 867 91.464844 892 C 93 901.089844 98.839844 909.019531 100.429688 918 C 101 922 98.335938 926.167969 100.21875 930 C 102.625 934.652344 109 934.695313 111.257813 940.015625 C 113.617188 946.007813 110.902344 953 113.652344 959 C 115.699219 963.546875 120.308594 966.316406 122 971 C 129.847656 991.179688 131.832031 1015.484375 141.195313 1034 C 145.234375 1042 156.890625 1047.125 161.914063 1055.09375 C 166.628906 1062.566406 165 1072 171.328125 1079 C 176 1084.179688 182.78125 1087 187.535156 1092.171875 C 201.652344 1107.65625 211.390625 1122.046875 232 1130 C 241.90625 1133.726563 252.394531 1136 263 1136 C 267.234375 1136.003906 276 1134.335938 279.398438 1137.601563 C 283.414063 1141.632813 280.480469 1160.808594 281.289063 1167 C 282.886719 1179.269531 289.523438 1190.074219 292.347656 1202 C 295.25 1214.28125 294 1227.453125 294 1240 C 300.617188 1236 304.726563 1226.742188 310 1221 C 305 1241.585938 310.207031 1269.65625 320.3125 1288 C 329 1304 346 1306 348 1285 L 349 1285 C 349 1309.625 349.371094 1342 382 1342 C 386.449219 1342 390.773438 1342.148438 395 1340.53125 C 406.957031 1336 414 1315.527344 427 1319.671875 C 436.769531 1322.824219 446.847656 1327.78125 452 1337 C 458 1347.484375 453.640625 1365.328125 471 1364 C 489.890625 1362.355469 479.9375 1332 496 1330.1875 C 524.699219 1327.113281 529.589844 1389.195313 558.984375 1362.816406 C 563.445313 1358.8125 566.222656 1353.566406 570 1349 C 573.1875 1360.320313 576.339844 1373.734375 586 1381.46875 C 591.734375 1386.007813 600 1387.5625 605.609375 1381.773438 C 612.78125 1374.167969 609.796875 1362.738281 614 1354 C 621.175781 1366.742188 637 1374.03125 648 1383.144531 C 653.390625 1387.640625 658.605469 1392.300781 666 1389.382813 C 672.230469 1387 677.4375 1381 681.699219 1376 C 683.269531 1374.171875 685.902344 1369.054688 688.695313 1369.054688 C 691.703125 1369.054688 692.929688 1376 693.695313 1378 C 696.335938 1385.207031 701.675781 1395.457031 711 1393.589844 C 720.660156 1391.65625 723.6875 1380.109375 725.886719 1372 C 727 1367.789063 728.636719 1362.679688 734 1364.410156 C 750.515625 1369.742188 766.554688 1387 775.5625 1401 C 783 1412.714844 784.191406 1429.566406 801.984375 1424.566406 C 806.660156 1423.253906 809.203125 1418.546875 809.8125 1414 C 810.738281 1407.066406 809.386719 1400 810.289063 1393 C 811.34375 1385 814.871094 1377.789063 817 1370 C 823.773438 1377.078125 829.710938 1388.121094 840 1390.464844 C 847.1875 1392.097656 851.835938 1386.460938 857 1382.523438 C 868.644531 1373.65625 879.476563 1366.523438 890 1356 C 890.234375 1367.429688 893.609375 1389.714844 910 1385.441406 C 919.269531 1383.023438 924.230469 1373.078125 927.714844 1365 C 928.914063 1362.214844 930 1355.339844 933.238281 1354.207031 C 936.613281 1353.023438 940.207031 1360.011719 942 1362 C 948 1368.066406 958.785156 1374 966.816406 1368.121094 C 982 1357 984.636719 1332.367188 1007 1328.535156 C 1014.183594 1327.304688 1015.714844 1334.367188 1016 1340 C 1016.515625 1350.121094 1019.941406 1363.019531 1032 1364 C 1047.78125 1365.058594 1044 1348.441406 1049.996094 1339 C 1055.691406 1329.808594 1065.933594 1325 1076 1322.039063 C 1087.886719 1318.714844 1097 1338.601563 1109 1342.273438 C 1113.269531 1343.59375 1117.53125 1344.15625 1122 1344 C 1154 1342.554688 1155 1306 1152 1282 L 1153 1282 C 1154.691406 1294.554688 1164.40625 1313.160156 1177.480469 1298 C 1180.253906 1294.671875 1182.34375 1290.789063 1184.242188 1287 C 1194.65625 1266.167969 1193 1244.363281 1193 1222 C 1198.5625 1228.433594 1202.203125 1236.785156 1209 1242 C 1209 1231.386719 1207.460938 1219.40625 1209.667969 1209 C 1212.570313 1195.3125 1220 1183 1222 1169 C 1222.941406 1162.351563 1219.628906 1144.097656 1223.605469 1139.433594 C 1227.882813 1134.417969 1237.410156 1138.371094 1243 1137.714844 C 1256.476563 1136.121094 1269.230469 1132 1281 1125.128906 C 1294.789063 1117.238281 1302.640625 1103.660156 1314 1093.183594 C 1320 1087.703125 1328.226563 1084.828125 1332.894531 1078 C 1337.679688 1071 1336.730469 1061.832031 1341 1055.210938 C 1349 1043.175781 1360.671875 1035.535156 1366.4375 1022 C 1368.984375 1016 1367.238281 1009.210938 1368.328125 1003 C 1369.363281 997.105469 1373.425781 992.484375 1375.53125 987 C 1377.382813 982.1875 1376.867188 976.730469 1378.738281 972 C 1380.671875 967.113281 1385.980469 964.824219 1387.992188 960 C 1390.421875 954.132813 1388.3125 947 1390.742188 941.042969 C 1392.683594 936.3125 1398.679688 935.558594 1400.726563 931 C 1402.570313 926.8125 1399.613281 921.570313 1400.761719 917 C 1404.476563 902.203125 1410.996094 889.785156 1409.910156 874 C 1408.554688 854.296875 1400.4375 834.492188 1391.753906 817 C 1388.847656 811.144531 1378.539063 796.597656 1379.878906 790.148438 C 1381.210938 783.730469 1392.273438 789 1394.945313 791.226563 C 1399.289063 795.089844 1410.519531 825.605469 1420.972656 808 C 1428.191406 795.59375 1418.378906 776.027344 1416 764 C 1414.507813 755.632813 1415 747 1411.367188 739 C 1403.824219 723.148438 1388.234375 713 1379 698 C 1370.605469 684.289063 1367.707031 667.800781 1359.523438 654 C 1354 645 1345.355469 638.347656 1342 628 C 1340.296875 622.609375 1338.417969 615.726563 1343.226563 611.316406 C 1347.285156 607.601563 1353 609.765625 1358 608.363281 C 1368.390625 605.359375 1372.703125 594.367188 1367.582031 585 C 1362.246094 575.242188 1348.546875 572.09375 1339 568 C 1324 561.601563 1310 554 1299.808594 541 C 1286.808594 524.78125 1269.523438 504.390625 1261.925781 485 C 1257 472.691406 1260.605469 459 1254 447 C 1248.363281 436.535156 1237.328125 432 1231 422.816406 C 1224.710938 413.738281 1229.695313 399.152344 1220.785156 391.433594 C 1214 385.570313 1195.800781 383.199219 1187 380 C 1189.257813 378.660156 1191.84375 377.476563 1193.722656 375.609375 C 1207.441406 362 1180.632813 355.128906 1175.703125 348 C 1173 344.082031 1172.878906 339.089844 1170.46875 335.039063 C 1167.296875 329.714844 1161.328125 327 1157.527344 322 C 1151.988281 315 1149.199219 306.183594 1143.839844 299.015625 C 1138.90625 292.417969 1129.882813 288.367188 1126.179688 281 C 1123.671875 276.011719 1126.175781 270.070313 1123.859375 265 C 1121.816406 260.519531 1117.761719 257.308594 1115.414063 253 C 1112 246.753906 1111 239.382813 1108 233 C 1103.519531 223.773438 1095.210938 214 1088.609375 206.042969 C 1082 198.351563 1070.78125 201.078125 1064.636719 193 C 1054.761719 180 1056 161.453125 1045.332031 148.003906 C 1038.394531 139.296875 1028 136.3125 1019 130.558594 C 1009.492188 124.515625 1003 115.066406 993 109.785156 C 980 103.023438 965.546875 102.605469 952 98 C 944.21875 95.285156 939.3125 87.789063 931 86.328125 C 917.460938 84 901.300781 89.164063 889 94.425781 C 883.605469 96.734375 877 102 871 102 C 865.472656 102 863.265625 94.578125 859.816406 91.328125 C 853.984375 86 843.292969 79.730469 836 76.417969 C 810.699219 65 776.347656 97.011719 770 119 M 820 118 C 824 115.167969 837 99.683594 843.183594 106.027344 C 846 109.015625 836.265625 120.816406 834.875 124 C 826.585938 143 826.695313 163.101563 823 183 C 829 176.070313 831.636719 165.570313 837.515625 158 C 850.289063 141.539063 868.386719 129.265625 887 120.257813 C 897.628906 115.117188 925.214844 101.097656 920 123 C 942.203125 122.042969 967.996094 118.3125 987 134 C 960.902344 142 940.925781 152.488281 921 172 C 945.976563 159 973.289063 148 1002 152.296875 C 1008.722656 153.335938 1032.328125 158.109375 1028.378906 169 C 1026.238281 174.726563 1017.6875 172.542969 1013 173.324219 C 1004.253906 174.78125 995.808594 179.351563 990 186 C 1002 187 1013.402344 193.453125 1024 198.753906 C 1043 208.261719 1062.292969 217.394531 1078 232.089844 C 1084.792969 238.445313 1102.546875 261.433594 1085.984375 267.734375 C 1070.566406 273.605469 1051.667969 260 1039 253 C 1009.761719 236.539063 979.640625 221.34375 946 217 L 946 218 C 964.371094 224.253906 983.734375 235 998 248.089844 C 1007.328125 256.738281 1014.40625 267.386719 1024 275.816406 C 1040.890625 290.65625 1066.703125 299 1089 299 C 1097.261719 299.003906 1112.285156 297.613281 1114.742188 308.773438 C 1115.730469 313.253906 1101.976563 314.5 1099 314.832031 C 1082.175781 316.714844 1065.191406 315 1050 307 C 1028 295.234375 1016 271.554688 996 257.441406 C 962.464844 234 916.320313 231.300781 878 242.722656 C 865.59375 246.417969 854.996094 253.636719 843 258 C 850.238281 232.503906 879.65625 223.054688 903 217 L 903 216 C 892.335938 217 881.488281 218.304688 871 220.449219 C 868 221.050781 861.414063 224.34375 858.777344 222 C 855.769531 219.234375 860.84375 210 862 207 C 867.628906 193 872.363281 178.496094 877 164 C 857.851563 185.007813 843.738281 213.695313 827 237 C 821.886719 244.382813 816.386719 257.148438 808.894531 262.257813 C 805.898438 264.300781 802.386719 264 799 263.386719 C 790 262 775.4375 263.335938 768 258.296875 C 750.253906 246.242188 739.925781 222.722656 725 208 C 726.902344 213 728.804688 218 730 223 C 709.226563 211.433594 687.3125 190.148438 677.878906 168 C 674.515625 160.097656 676 152.105469 674.332031 144 C 672.589844 135.832031 667.671875 129 665 121 C 680 123.230469 694.191406 134.378906 710 131.535156 C 717.71875 130.148438 724.746094 126.753906 731 122.105469 C 734.855469 119.238281 739.59375 114.519531 744.894531 116.605469 C 752.3125 119.527344 752.972656 135.347656 754.628906 142 C 760.808594 167 768.882813 191.164063 775 216 C 779 208.386719 776.371094 198.382813 777.171875 190 C 779 169.023438 781.671875 147.296875 790.78125 128 C 795 118.726563 800 110.40625 809 105 C 818 99.367188 825.265625 98.457031 822 111 C 821.507813 113.363281 820.742188 115.679688 820 118 M 668 203 L 608 202 L 608 203 C 642.691406 203.023438 678.703125 218.125 707 237.34375 C 717 244.242188 733.800781 254.011719 736.609375 267 C 738.40625 275.316406 734.316406 285.519531 731 293 C 740.320313 286.460938 747.972656 280 759 276.078125 C 787 266.480469 813.847656 287.003906 833 306 C 829.769531 300.175781 824 294.003906 824.1875 287 C 824.21875 277.414063 835 270 842 265.039063 C 863.367188 250 890.480469 246.027344 916 249.285156 C 946.910156 253.230469 979 266.769531 1002 288.089844 C 1016 301.214844 1026.382813 317.480469 1040 331 C 1052.203125 343.105469 1071.230469 347.671875 1079 364 L 1080 364 C 1077.964844 349 1067.433594 338.007813 1063 324 C 1091 324.078125 1128.292969 325.742188 1146.429688 351 C 1150.820313 357.121094 1148 363.332031 1149.929688 370 C 1152.832031 381 1161.398438 390.3125 1170 397.191406 C 1176 402.039063 1182.664063 405.769531 1190 408.304688 C 1194.273438 409.78125 1200 410 1203.347656 413.417969 C 1210.300781 421 1205.367188 434 1212.394531 441.816406 C 1218.6875 449 1229.40625 450 1234 459.003906 C 1238 467 1235.9375 476.53125 1237.464844 485 C 1239.390625 495.6875 1245.515625 505.074219 1251.34375 514 C 1263.457031 532.554688 1276 550.71875 1291 567 C 1299.199219 575.753906 1312.992188 584.371094 1319.257813 594.039063 C 1323.378906 600.398438 1318.226563 609.304688 1317.300781 616 C 1316.191406 624.050781 1319 633.726563 1322.3125 641 C 1326.703125 650.667969 1334.84375 657.667969 1339.738281 667 C 1348 683 1352.910156 700.777344 1362.699219 716 C 1369.570313 726.6875 1380.507813 734.457031 1386 746 C 1374.390625 743.597656 1360.511719 739 1352.324219 730 C 1341.671875 718.152344 1337.765625 700.273438 1331.574219 686 C 1324.425781 669.515625 1316.449219 653.40625 1309 637 C 1276.320313 563.363281 1226 492.464844 1165 440 C 1152.828125 429.394531 1139.933594 419.328125 1126 411.285156 C 1114 404.394531 1100.648438 399.476563 1090 390.535156 C 1084.386719 385.804688 1080.867188 379.304688 1075.828125 374.050781 C 1074.859375 373.035156 1071 369 1069.707031 371.546875 C 1068 374.59375 1072.492188 379.625 1073.9375 382 C 1079.238281 390.710938 1082.816406 400.355469 1086 410 C 1092.515625 429.742188 1094.324219 450.539063 1097.269531 471 C 1099.507813 486.515625 1102.957031 502.285156 1103 518 L 1102 518 C 1095.351563 498.480469 1084 480.074219 1074.308594 462 C 1055.558594 427.339844 1034.910156 393.355469 1003 369.128906 C 985.796875 356.070313 966 346.539063 945 342 C 942.480469 341.460938 922.464844 336.101563 923.632813 342.085938 C 924.628906 347.199219 936.351563 346 940 346.664063 C 955.691406 350 969.589844 359.253906 982 369 C 993.464844 378.003906 1005.730469 386.574219 1015.960938 397.015625 C 1028.507813 409.816406 1038.621094 425.6875 1049.371094 440 C 1063.347656 458.601563 1077.816406 480.371094 1081 504 C 1059 495.488281 1045.4375 475.460938 1030.917969 458 C 1029.25 456 1018.238281 441.355469 1015.574219 448 C 1014 451.378906 1019.96875 456 1021.914063 458 C 1029.445313 466.203125 1038.484375 474.667969 1043 485 C 1024.660156 480.644531 1008.378906 467.222656 991 460.011719 C 980.675781 455.726563 966.355469 454 958.214844 445.785156 C 951 438.542969 949.1875 424.714844 943.253906 416 C 926.507813 391.398438 897.816406 381.648438 869 387 C 874.40625 375.648438 892.175781 369.355469 904 368.171875 C 907.746094 367.796875 919.589844 370.222656 921.621094 366.644531 C 927 357.105469 905.78125 358.523438 902 359 C 888.816406 360.429688 876 364.386719 865 371.695313 C 859.34375 375.398438 855 381.152344 849 384 C 851.429688 372.226563 854.480469 359.472656 862.328125 350 C 865.371094 346.328125 878.792969 339.574219 878.792969 335.015625 C 878.792969 330.003906 870.984375 331.089844 868 331.613281 C 856 333.71875 846.910156 340.433594 836 345 C 837.839844 338.632813 841.472656 333.753906 846 329 C 847.835938 327.089844 851.535156 324.238281 851 321.191406 C 850 314.789063 838.574219 326 837 327.195313 C 826.453125 335.753906 811.769531 345.320313 810.175781 360 C 808.246094 377.710938 816.285156 398.390625 825.691406 413 C 827.890625 416.414063 837.644531 427.046875 833.957031 431.339844 C 829.496094 436.53125 816.644531 418.007813 814.699219 415 C 808.996094 406.171875 805 396.304688 798.480469 388 C 786.59375 373 769.984375 363.589844 752 357.671875 C 746 355.742188 717.515625 346.054688 718.546875 360 C 718.957031 365.496094 727 365.617188 731 366.285156 C 744.167969 368.496094 757.316406 373 769 379.3125 C 788.257813 390 793.992188 411.003906 807.324219 427 C 818.226563 440.082031 834.539063 449.296875 842 465 C 837.988281 465.316406 832.230469 467.261719 828.417969 465.398438 C 825.320313 464 824.636719 458.792969 823 456 C 820.609375 451.503906 816.945313 447.585938 813 444.328125 C 805 437.738281 795.503906 435.496094 788.886719 427 C 783.890625 420.574219 777.632813 404.671875 768.984375 403.09375 C 761.609375 401.746094 761.214844 408 763.917969 413.003906 C 767 418.785156 786.535156 436.609375 775.25 443.824219 C 772.636719 445.496094 769.804688 439.566406 768.855469 438 C 764.386719 430.625 757.3125 423.617188 748 423.488281 C 736.296875 423.328125 730.996094 440 723 446 C 718.898438 437.34375 715.40625 427.539063 709.320313 420.039063 C 700.550781 409.234375 686.847656 413.019531 676 418.257813 C 652 430 639 456.824219 614 465 C 618.726563 451.070313 635.574219 442.214844 646 432.828125 C 664.601563 416.085938 692.214844 367.65625 720.910156 396.09375 C 724.382813 399.535156 727 403.546875 729 408 L 730 408 C 727 395.4375 718 381.71875 706 376.363281 C 701.265625 374.269531 694.496094 375.292969 690.394531 372.140625 C 686.347656 369.035156 685 362.121094 682 358 C 674.804688 348.046875 664.761719 343.28125 653 341 L 657 347 C 650.21875 348 645.269531 342.324219 640 338.746094 C 631.964844 333.289063 623.179688 329.128906 614 326.003906 C 610 324.675781 602.261719 320.617188 598.464844 323.722656 C 595.753906 326 613.316406 331.296875 616 333 C 634.382813 344.09375 643.257813 370.636719 646 391 C 628.460938 378.644531 616.574219 366.257813 594 363.289063 C 589.933594 362.753906 568.910156 360.8125 573.621094 370.59375 C 575.21875 374 587.578125 372 591 372.429688 C 603 374.160156 618.964844 379.605469 625 391 C 617.976563 391 611 388.695313 604 389.09375 C 582.535156 390.316406 565.496094 404 552.460938 420 C 545 429.007813 540 443.433594 530.960938 450.363281 C 522.410156 456.800781 510.695313 458 501 462 C 484.796875 468.539063 469.570313 478.359375 453 484 C 458 473.222656 467.785156 465 475.421875 456 C 476.828125 454.339844 483 448.128906 478.664063 446.304688 C 474 444.410156 468.246094 453.222656 465.921875 456 C 455 469 444.25 483 431 493.332031 C 428.390625 495.382813 416.570313 505 413 502 C 410.53125 499.609375 414.882813 489.671875 415.746094 487 C 420.828125 471.304688 428.46875 456.652344 437.671875 443 C 470.632813 394.101563 524 347 586 347 L 586 346 C 524.230469 331.25 467 377.039063 430.804688 422 C 416 440.167969 400 464 399 488 L 398 488 C 398 443.347656 414.414063 395 449 365.300781 C 470.707031 346.695313 498.488281 340 525 331.328125 C 547.378906 324.035156 568.789063 314.5 592 310 L 592 309 C 577 310.179688 562.601563 315.230469 548 318.199219 C 503.328125 327.277344 462.445313 338.667969 424 364.242188 C 419.425781 367.289063 417.683594 372 413.867188 375.5625 C 408.570313 380.664063 402 384.800781 396 389 C 335 431.125 278.304688 483.664063 237.695313 546 C 209 590 183.820313 637.179688 164.449219 686 C 153.972656 712.402344 146.894531 741.140625 114 746 C 121 733.480469 131.929688 723.277344 139.574219 711 C 151.53125 691.796875 159.785156 670.703125 168.71875 650 C 178.519531 627.285156 186.824219 610.125 174 587 C 204.761719 573.300781 222.511719 552.734375 241 525 C 248.300781 514.050781 256.410156 503.347656 261.1875 491 C 266 478.464844 261.414063 462.503906 268 451.003906 C 272.707031 443.050781 283.269531 442.0625 287.558594 434 C 291.285156 427 287 412 293.433594 407 C 297.496094 403.761719 305 404.808594 310 403.253906 C 320.824219 399.796875 330.769531 393.742188 338.984375 386 C 344.832031 380.335938 350.765625 373.09375 352.480469 365 C 353.757813 359 350.769531 353.535156 354.652344 348.015625 C 367.539063 329.699219 399.851563 324.214844 420 319 C 416 331.242188 410.25 342.46875 407 355 C 430.171875 339.15625 459 323 476.90625 301 C 479.917969 297.28125 496.898438 275.21875 486.941406 272.746094 C 483.269531 272 479.535156 275.730469 477.285156 278.089844 C 470.558594 285.140625 464.601563 291.339844 456 296.136719 C 433 309 399.269531 317 373 318 C 387.808594 297 406.578125 297 428 288.140625 C 450.847656 278.722656 472 265.675781 492 251.152344 C 499.597656 245.609375 507.226563 240.039063 515 234.746094 C 517.5625 233 522.691406 230.75 523.367188 227.347656 C 523.886719 224.757813 519.8125 226.691406 518.996094 227.128906 C 514.171875 229.683594 509.628906 233.050781 505 236 C 486.539063 247.503906 467.628906 260 447 267.308594 C 443.605469 268.515625 424.421875 276.324219 422.445313 271.394531 C 421.214844 268.324219 426 264.132813 428 262.4375 C 435.535156 255.800781 444.421875 251.027344 453 246 C 476.992188 232 501.683594 217 530 214.171875 C 542 213.011719 553.992188 216.050781 566 217 C 550.578125 201.578125 536.222656 186.210938 513 191 C 517.441406 181.476563 528.234375 176 537 171 C 556.664063 159.792969 582.988281 153.539063 605 161.078125 C 618.664063 165.757813 630.238281 175 642 183 C 650.519531 189 662.765625 193.710938 668 203 M 722 285 C 721.847656 267.003906 708 253.5 692 247.425781 C 660.472656 235.484375 622.230469 235.109375 589 230.425781 C 575.667969 228.546875 562.285156 227 549 224.753906 C 546.277344 224.300781 537.644531 221.640625 536.921875 226.1875 C 536.207031 230.695313 544 231.4375 547 232.128906 C 558.378906 235 569.738281 237.78125 581 241 C 604.335938 247.667969 628.214844 253 652 257.601563 C 668.746094 261 686.394531 263.152344 702 270.488281 C 709.710938 274.113281 715.171875 280.195313 722 285 M 578 265 C 586.28125 270 599.585938 269.808594 609 272.425781 C 640.324219 281.128906 674.941406 285.320313 705 297.605469 C 710 299.714844 715 302.527344 718.582031 307.015625 C 721.640625 311 722 315.71875 727 318.03125 C 729.21875 319.0625 736.820313 322.113281 738.882813 320 C 740.964844 317.730469 737.992188 310.339844 737 308 C 732.253906 295.738281 721.789063 286.625 710 281.3125 C 687.40625 271.128906 660.210938 271.570313 636 270 C 616.664063 268.585938 597.410156 265 578 265 M 856 300 L 856 301 C 866.828125 304.230469 878.886719 305 890 307.425781 C 912.347656 312.386719 934.4375 319.019531 956 326.691406 C 969.390625 331.457031 983.191406 336.0625 996 342.257813 C 1009.632813 349 1023 357.554688 1038 361 C 1028.660156 346.066406 1010.65625 337.0625 995 330.140625 C 966 317.34375 935 312.15625 904 307 C 888.242188 304.257813 872 300.328125 856 300 M 592 308 L 592 309 L 596 309 C 594.492188 308.316406 593.683594 308.175781 592 308 M 399 405 C 398.746094 417.304688 394.613281 430.816406 385.5625 439.53125 C 381 443.789063 368 446.160156 367.328125 453 C 366.535156 459.597656 376.453125 457.277344 380 457 C 372.199219 473.398438 354.992188 489.511719 342.828125 503 C 340.480469 505.605469 328.820313 515.265625 334.363281 519.1875 C 338 522 351.8125 515.109375 357 515 C 346.683594 533 328.757813 548 316.722656 565 C 292.871094 599 274.695313 636.285156 257.695313 674 C 249.722656 691.6875 239.394531 710.011719 235 729 L 236 729 C 247.839844 700.566406 265.761719 674.425781 281.398438 648 C 289.683594 634 295.722656 618 307 606.015625 C 315.796875 597 329.210938 589.621094 342 589.039063 C 344.808594 589 352 587.792969 353.867188 590.601563 C 356.953125 595.453125 344.578125 613.0625 342.425781 618 C 333.839844 637.679688 325.390625 657.582031 316.21875 677 C 313 683.714844 304.519531 694.441406 304.703125 702 C 304.832031 707.199219 309.609375 705.148438 311.949219 703 C 316.914063 698.054688 320.519531 691.722656 324.332031 686 C 339.585938 663.117188 356 638.734375 366 613 L 367 613 C 366 624.601563 360.574219 636.125 356.691406 647 C 348.300781 670.492188 339.582031 695.460938 323.535156 715 C 313.78125 727 298.761719 728.117188 288 738.105469 C 274.722656 750.457031 264 778.1875 270 796 C 273.574219 806.332031 281.269531 813 289 820 C 286.285156 800 275.867188 772.671875 299 760 C 306.757813 755.625 316.574219 754.617188 325 752.023438 C 329.917969 750.511719 348 741.734375 352.351563 745.066406 C 356 748 349 755.734375 347.347656 758 C 338.835938 769.164063 329.964844 776.683594 317 782 L 317 783 C 331.402344 784.136719 345.546875 788.730469 358 796 L 358 797 C 336.726563 797.003906 318 811 306 828 C 315 828 323.949219 827 333 827 C 335 827 341 826.027344 341.292969 829.316406 C 341.566406 835.554688 332.90625 843.035156 328.996094 847 C 317.507813 858.644531 305.976563 871.109375 297.226563 885 C 277 917 274 954.699219 282 991 C 286.605469 1012 303.875 1044 282.90625 1061.472656 C 280 1063.777344 272.199219 1069.429688 268.601563 1066.304688 C 265.835938 1064 266.507813 1055.476563 266.171875 1052 C 264.816406 1038 264 1024.074219 264 1010 C 264 948.277344 254.941406 887.683594 272 827 C 261.3125 838.714844 256.542969 854.144531 251.976563 869 C 237.773438 915.183594 247.605469 963 254.421875 1010 C 256.34375 1023.289063 258.449219 1036.652344 259.949219 1050 C 260.546875 1055.3125 259.894531 1063.515625 263.515625 1067.773438 C 271.480469 1077.140625 296.984375 1073 308 1073 C 305.628906 1078.015625 302 1085 296.960938 1087.527344 C 292.558594 1089.71875 288.390625 1087.058594 284 1086.324219 C 276 1085 268 1087.453125 261 1082.351563 C 253.519531 1077 249.75 1067.1875 246.285156 1059 C 225.65625 1010.253906 235 959 235 908 L 234 908 C 231.367188 941.332031 217.398438 973.28125 215 1007 C 212.886719 1039.160156 221.894531 1066.128906 232 1096 L 231 1096 C 218.644531 1078.75 207.765625 1060.292969 204.4375 1039 C 200.945313 1016.625 208.550781 994 211.574219 972 C 214.867188 948.101563 213.445313 924 215 900 C 215.898438 888.195313 220.75 876.695313 221 865 C 215 869.546875 213.25 876.5625 210 883 C 204.3125 894.4375 197.96875 905.554688 192.246094 917 C 188.871094 923.746094 186 931.285156 180 936 C 185.214844 920.582031 193.339844 906.292969 198.945313 891 C 204.425781 876.054688 207.703125 859.707031 216 846 C 229.933594 823.25 254.5 801.578125 260 775 L 259 775 C 254.167969 786.195313 245.351563 794.375 235 800.546875 C 233 801.660156 223.308594 808.152344 222.503906 803.667969 C 221.605469 798.675781 226.519531 791 229 787 C 237.949219 773.472656 251.625 763.804688 260.1875 750 C 276 724.425781 284.542969 694.230469 294.34375 666 C 300.484375 648.308594 308.796875 631.328125 313 613 L 312 613 C 305.238281 629.242188 294.652344 643.574219 286.308594 659 C 273.835938 682.058594 263 706.269531 248.253906 728 C 235.605469 746.570313 219.492188 761.554688 209.269531 782 C 195.652344 809.234375 192.835938 840.039063 184.574219 869 C 179.894531 885.394531 172.960938 902.324219 159 913 C 156.703125 914.710938 145.1875 923.386719 142.601563 919.351563 C 140.359375 916 141.957031 907.0625 142 903 C 142.230469 884.046875 147.988281 865.667969 156.78125 849 C 171.253906 821.570313 192.714844 798.269531 205.691406 770 C 220.816406 737.054688 226.398438 701 235 666 C 240 646.105469 244.199219 625.398438 250.863281 606 C 251.664063 603.65625 258.34375 588.484375 252.320313 588.484375 C 247.171875 588.484375 244.890625 602.335938 243.667969 606 C 237 625.769531 229.589844 645.226563 223 665 C 210.601563 702.199219 197.847656 739.644531 180.742188 775 C 167.90625 801.523438 151.882813 826.355469 137.425781 852 C 129.296875 866.414063 127.566406 887.210938 118 900 C 109.347656 883.496094 117 865 123.398438 849 C 138 812.378906 160.78125 781.792969 178.742188 747 C 184.359375 736.113281 193 724.386719 194.695313 712 C 195.410156 706.589844 193.277344 701.375 193 696 C 192.511719 684.007813 194.183594 671.324219 198.21875 660 C 203.675781 644.675781 211.925781 630.734375 218.691406 616 C 246.722656 555 283.570313 497 334 452 C 353 434.765625 375.222656 415.246094 399 405 M 1382 902 C 1376.722656 893.605469 1375.617188 881.519531 1373 872 C 1369.707031 859.035156 1364.773438 847 1358.753906 835 C 1343.910156 805.527344 1323 779.484375 1308.246094 750 C 1294.273438 722.230469 1286.574219 691.761719 1278 662 C 1274.640625 649.65625 1273.230469 635.765625 1268 624 C 1264.9375 616.667969 1258.691406 611.363281 1255.308594 604 C 1253.351563 599.738281 1248.867188 584.207031 1243 584.207031 C 1236.332031 584.207031 1247.625 601.707031 1248.742188 604 C 1259.703125 626.496094 1263.855469 652.664063 1268.800781 677 C 1276.722656 716 1286.503906 757.191406 1306.425781 792 C 1322 819.441406 1347.773438 840.011719 1356.964844 871 C 1360.394531 882.5625 1361 894.035156 1361 906 C 1360.996094 910 1361.683594 916.183594 1359 919.527344 C 1356.441406 922.746094 1351 920.441406 1348 919.097656 C 1339.445313 915.261719 1332.269531 909 1327.238281 901 C 1311.644531 876.605469 1313.394531 842.417969 1306.371094 815 C 1297.441406 780.160156 1272 759.632813 1251.375 732 C 1236 711.542969 1225.789063 688.367188 1213.691406 666 C 1204 648.21875 1191.796875 631.722656 1184 613 L 1183 613 C 1192.726563 638.210938 1202.21875 663.550781 1211.308594 689 C 1218 708 1224 727.652344 1234.453125 745 C 1248.175781 768.0625 1277.757813 781 1280 809 C 1264.707031 804.59375 1247.636719 792.191406 1242 777 L 1241 777 C 1244.628906 801.558594 1271.269531 821.476563 1283.933594 842 C 1296 861.601563 1298.949219 884.800781 1307 906 C 1312.835938 921.070313 1322.804688 934.117188 1329 949 C 1320.460938 942.710938 1315.21875 931.171875 1310.230469 922 C 1300 903.472656 1290 884.527344 1282 865 L 1281 865 C 1278.566406 876.191406 1285 890.453125 1285.910156 902 C 1287.25 920.269531 1286.433594 938.769531 1288.171875 957 C 1292 998.648438 1306.378906 1033 1286.246094 1073 C 1282 1081.253906 1277.632813 1090.507813 1270 1096 C 1279 1068.152344 1288.960938 1042 1286.910156 1012 C 1285.4375 990.492188 1281.347656 969 1276 948 C 1272.816406 934.742188 1267.28125 920.734375 1267 907 L 1266 907 C 1266 959.171875 1275.8125 1010.066406 1254.28125 1060 C 1250.792969 1068.089844 1247 1078 1239.960938 1083.441406 C 1232.402344 1089.304688 1223.648438 1087 1215 1088.324219 C 1210.964844 1089 1207 1091 1203 1088.820313 C 1197.800781 1086.101563 1194.242188 1079.195313 1192 1074 C 1205.648438 1074 1219.457031 1074.710938 1233 1073 L 1233 1072 C 1220.339844 1068.347656 1207.523438 1058.136719 1207.710938 1044 C 1207.96875 1024.53125 1217.394531 1004 1221.574219 985 C 1228.300781 954.503906 1225.277344 920.457031 1209.574219 893 C 1199.90625 876.105469 1186.238281 862.585938 1173.574219 848 C 1170 844 1161 837.207031 1161.546875 831.148438 C 1161.851563 827.628906 1166.476563 828.03125 1169 827.714844 C 1177.378906 826.667969 1185.574219 828 1194 828 C 1180 814.074219 1164 795.761719 1142 801 C 1150.265625 789.519531 1168.488281 785.074219 1182 784 L 1182 783 C 1165.792969 779.007813 1150 758.828125 1147 742 C 1157.65625 744.464844 1167.496094 749.574219 1178 752.574219 C 1187.597656 755.3125 1198.667969 756.035156 1205.671875 764.042969 C 1219 779.464844 1214.515625 802 1211 820 C 1238.933594 800.320313 1229.65625 769 1215 744 C 1206.925781 730 1188.324219 729.535156 1177 718 C 1153 693.242188 1135.558594 648 1131 614 L 1132 614 C 1140.683594 639.503906 1157.71875 663.820313 1172.671875 686 C 1175.222656 689.789063 1185.535156 708.644531 1191.460938 704.378906 C 1194 702.464844 1191.527344 699 1190.421875 697 C 1186.824219 690.546875 1183.859375 683.730469 1180.859375 677 C 1171.839844 656.742188 1163.433594 636.175781 1154.230469 616 C 1151.59375 610.214844 1142.945313 597.695313 1144 591.316406 C 1144.8125 587.660156 1153.386719 589 1156 589.089844 C 1167.8125 590 1180.566406 597.757813 1188.570313 606.171875 C 1200 618.234375 1207.226563 633.695313 1215.425781 648 C 1225.585938 665.722656 1237.296875 682.492188 1247.800781 700 C 1253.503906 709.507813 1258.203125 723.285156 1266 731 C 1259.753906 712.53125 1250.414063 695.652344 1242.308594 678 C 1226.792969 644.207031 1210 610.457031 1188.574219 580 C 1177.976563 565.015625 1167.453125 549.449219 1154.910156 536 C 1150.53125 531.304688 1139 524.828125 1138 518.164063 C 1137.507813 514.714844 1142.214844 516 1144 516.433594 C 1147 517.257813 1164.183594 524.722656 1162 516 C 1160.753906 510.257813 1153 505.25 1149.285156 501 C 1138.253906 488.492188 1123.5 476.058594 1116 461 C 1135.453125 458.308594 1106.402344 444.429688 1103.5625 437 C 1101.40625 431.355469 1099.238281 414.800781 1109 415.4375 C 1118 416.027344 1127 425.539063 1134 430.574219 C 1155.871094 446.371094 1175.714844 464.523438 1193.269531 485 C 1234 532.570313 1265.390625 587.320313 1289.574219 645 C 1299.785156 669.347656 1304.472656 695.566406 1314.453125 720 C 1320.910156 735.808594 1330.5625 750.226563 1339 765 C 1354.5625 792.253906 1369 820.628906 1380.191406 850 C 1386.425781 866.445313 1390.628906 885.621094 1382 902 M 689 428 C 688.925781 436.808594 686.683594 445.324219 685.429688 454 C 685 456.808594 685.535156 461.238281 683.257813 463.351563 C 679.882813 466.488281 671.746094 460.507813 667 461.792969 C 650.789063 466.175781 638.453125 480.238281 621 481 C 626.671875 473.609375 636 470 643 463.824219 C 657.324219 451.042969 669.277344 432.683594 689 428 M 704 439 C 705.742188 443.183594 707.945313 447.042969 710 451 C 711.792969 454 713.253906 457.074219 715 460 C 728.191406 482 739 435.515625 751.90625 439.796875 C 757.785156 441.773438 759.980469 451.308594 763 456 C 768.488281 464.089844 776.601563 470.324219 785 475 C 785 471 784.964844 467 785.589844 463 C 786 460.320313 786.425781 457.617188 787 455.003906 C 789.476563 446.761719 796.308594 448 801.671875 453.328125 C 807.660156 459.292969 809 468 808.996094 476 C 808.96875 479 806.195313 488 809.40625 489.308594 C 812.390625 490.625 817.914063 488.59375 821 488.078125 C 830.933594 486.421875 840.886719 484.085938 851 484 C 846 493.3125 833.300781 502.367188 824 507 L 824 508 C 839.9375 502.574219 856.613281 487 874 488.089844 C 878.507813 488.398438 891.457031 489.480469 891 496.019531 C 890.539063 503.511719 879.691406 506.792969 875 511.210938 C 869.417969 516.695313 868.304688 536.214844 872.859375 543 C 877.3125 549.371094 889.1875 547.726563 896 549.476563 C 910.433594 553.191406 915.410156 562.253906 918 576 C 909.554688 575.636719 901.550781 573.503906 893 574.089844 C 866 576 839.855469 587 816 598.753906 C 791.519531 611 772.957031 623.628906 769 653 L 770 653 C 775.785156 640.824219 787 633 798 625.671875 C 822.1875 609.445313 848.652344 597 877 590.128906 C 888.933594 587.269531 904.296875 585 916 590 C 924.226563 593.375 925.273438 603.078125 929.464844 610 C 935 619.332031 943.53125 627.605469 953 633 L 953 634 C 930.738281 633.816406 909.332031 625.003906 887 625 L 887 626 C 930.835938 636.148438 964.332031 666.332031 995 697 C 990.214844 685.511719 983 674.734375 975.335938 665 C 973.488281 662.664063 966.90625 657.09375 969 653.617188 C 971.195313 650.410156 977.644531 654.140625 980 655.148438 C 990.804688 659.773438 1000.730469 666.226563 1010 673.425781 C 1036 693.722656 1060.210938 720 1072.550781 751 C 1076.445313 760.820313 1077.554688 771 1080 781 C 1061.179688 775.578125 1050.175781 756.453125 1036 744.300781 C 1029 738.433594 1020.972656 735.730469 1014 730.570313 C 1007.78125 726 1003 719.503906 997 714.664063 C 980.523438 701.507813 962.402344 690.320313 943 682 C 930 676.464844 916.601563 671.574219 903 668.015625 C 899.265625 667.035156 889.472656 666.160156 890.972656 673 C 892.5 680 912 684.320313 918 687.246094 C 939.632813 698 971.765625 712 986 732 C 971.21875 732 965.410156 728.664063 953 721.277344 C 950.191406 719.609375 946.777344 719.171875 944.65625 722.230469 C 940.484375 728.265625 954.402344 738.394531 958 742 C 970 754.152344 981.296875 767.289063 994 779 C 998.71875 783.222656 1006.335938 784.5 1010.296875 789.339844 C 1014.4375 794.398438 1013 803 1013 809 C 1013 821.34375 1014.6875 833.75 1016 846 C 1017.554688 857.679688 1019 869.398438 1021 881 C 1027.515625 919.175781 1046.660156 977.390625 1005 1004 C 1012.546875 986 1019 971.050781 1019 951 C 1019 946.574219 1020.710938 935.078125 1014.882813 933.347656 C 1007.488281 931.144531 1007.167969 949.078125 1006.332031 953 C 1001.285156 976.609375 987 999 974.320313 1019 C 970.734375 1024.691406 967.199219 1030.421875 963.410156 1036 C 962.621094 1037.140625 960.707031 1040.625 958.789063 1039.652344 C 955.539063 1038.011719 959.933594 1026.746094 960 1024 C 960.421875 1018.640625 958.339844 1013.300781 959.53125 1008 C 962 996.285156 969.890625 986 972.574219 974 C 980 940.691406 964.421875 908.207031 959 876 C 958 869.082031 957.476563 862 958.425781 855 C 959 850.632813 961.234375 844.222656 958.972656 840.105469 C 955.671875 834.097656 946 833.398438 941 829.316406 C 931.59375 821.785156 925.273438 809.199219 921.34375 798 C 918.480469 789.828125 918.179688 779.613281 914.558594 772 C 909.320313 761 897.390625 753.414063 889 745 C 885.351563 741.339844 876.367188 727.691406 870 732.425781 C 862.277344 738.421875 874.84375 748.585938 878.714844 753 C 886.394531 761.757813 895.285156 769.78125 901 780 C 908.894531 793.621094 912 808.789063 921 822 C 927.253906 831.109375 938.691406 838.550781 943.542969 848.015625 C 948 857 942.636719 868.472656 944.667969 878 C 947 889.050781 953.230469 899.078125 956.253906 910 C 960.984375 927.070313 960.804688 946.566406 958.714844 964 C 956.679688 981 947.523438 994.730469 944.617188 1011 C 943.699219 1016.121094 945.273438 1021 944.824219 1026 C 943.519531 1040.804688 936.535156 1055.628906 925.996094 1066 C 922.378906 1069.539063 915 1076.304688 909.332031 1075.472656 C 905.75 1075 908.738281 1068.824219 909.425781 1067 C 911.539063 1061.367188 922.4375 1044 911.988281 1041.761719 C 902 1039.644531 896.316406 1066.15625 894 1073 L 893 1073 C 888.390625 1053.632813 892.609375 1030.441406 903.515625 1014 C 917.875 992.359375 940.5 974.242188 943.714844 947 C 945.761719 929.632813 935.546875 911 930 895 C 924.316406 878.191406 920.859375 860.648438 914.574219 844 C 908 826.765625 898.613281 811.667969 893 794 L 892 794 C 895 807.070313 894.890625 821 898 834 C 887.960938 827.558594 879 809.671875 871.652344 800 C 869.445313 797.105469 864.925781 788.097656 860.539063 788.542969 C 857.832031 788.816406 860.519531 793.101563 861 794.039063 C 864 799.105469 867.605469 804 870.574219 809 C 883.210938 830.757813 892.957031 853.558594 902 877 C 893.863281 873.421875 887.207031 866.246094 882.222656 859 C 879.628906 855.230469 877.6875 848 872.960938 846.257813 C 869.792969 845.164063 867.382813 848.046875 868.464844 851.015625 C 871 858.324219 877.816406 865.601563 881.242188 873 C 884.664063 880.394531 891.191406 881.59375 896.957031 886.390625 C 905.1875 893.238281 904.714844 903.015625 900.6875 912 C 899.257813 915.1875 897.933594 918.078125 895 920 C 893.515625 911.675781 887.898438 906.382813 881 902 C 880.644531 910.28125 878.371094 919.613281 872.785156 926 C 871 928 866.613281 933 864 929.574219 C 861.566406 926.4375 863 918.765625 863 915 C 863 903.597656 863.894531 892 860.25 881 C 857.195313 871.785156 845.746094 868 843.433594 860 C 841.578125 853.574219 839.511719 845.589844 838.328125 839 C 837.808594 836.097656 838.445313 830.65625 834.785156 829.496094 C 831 828.339844 829.3125 833.265625 829.277344 836 C 829.234375 840 835.414063 856.207031 830.398438 858.289063 C 822.691406 861.484375 812.601563 844.546875 811 839 L 810 839 C 810.542969 851.628906 815.324219 863.570313 817 876 C 809 874 801.398438 872.066406 795 866.671875 C 792.703125 864.71875 788.796875 858.191406 785.308594 858.769531 C 781 859.46875 784.996094 868.027344 785.902344 870 C 790.535156 880.09375 799.175781 887.679688 805 897 C 779.972656 890.167969 758.925781 865 776 839.003906 C 785.660156 824.640625 800.316406 830.328125 811.773438 822 C 817 818.148438 816.890625 806.679688 820.550781 801 C 828.703125 788.339844 842.355469 780.5 849.511719 767 C 863.335938 741 847 713.28125 830.386719 693 C 824.890625 686.324219 818.699219 678 811 673.652344 C 802.703125 669.09375 788.488281 674 779 672.410156 C 773.199219 671.503906 767.285156 670.28125 762 667.621094 C 758 665.679688 754.5 661.664063 750 661.410156 C 742.1875 661 734.257813 667.746094 727 670 C 717 673 705 670.316406 696 674.007813 C 688 677.246094 681.238281 686.65625 675.71875 693 C 657.429688 714.019531 638 736.507813 654.453125 764 C 661.503906 775.824219 673.964844 783 681 794.015625 C 686.605469 802.824219 684 813.378906 693 820.609375 C 706.796875 831.726563 727.753906 826.144531 741.773438 835.417969 C 746.207031 838.351563 745.582031 844.425781 746.757813 849 C 749.394531 859.234375 754.566406 868.726563 757 879 C 744.351563 877.695313 740 865.132813 740 854 L 738 854 C 737 864.144531 732.609375 879.105469 722.984375 884.164063 C 719.867188 885.804688 713.644531 888.378906 710.601563 885.394531 C 704.699219 879.601563 710.285156 857.117188 712 850 C 704.875 856.824219 699.953125 865 690 868 C 691.902344 857.792969 694.183594 847.355469 695 837 L 693 837 C 692.402344 842.8125 681.292969 859.761719 673.601563 855 C 666.625 850.425781 681.367188 828.710938 672.929688 828 C 664.976563 827.167969 664 851.097656 661.601563 857 C 658.667969 864 649.316406 867 645.347656 874 C 636.25 890.351563 638.765625 911.308594 641 929 C 628.269531 926.433594 623.894531 910.261719 623 899 C 617.410156 904.589844 612 909.601563 609 917 C 600 909.496094 599.46875 893.34375 608 885.214844 C 613.546875 880.089844 621.269531 879.398438 624.53125 872 C 627.972656 864.191406 634.839844 856.648438 637.539063 849.003906 C 638.617188 846 636.265625 843.121094 633 844.328125 C 628.246094 846.117188 626.484375 853.109375 623.894531 857 C 619.316406 864 612.472656 870.445313 605 874 C 610.421875 851.128906 625.902344 828.71875 638.191406 809 C 639.59375 806.753906 652.902344 789.621094 647.757813 788.769531 C 643.226563 788.019531 638.320313 798.046875 636 801 C 626.730469 813.5 617.449219 828.585938 604 837 C 604.558594 824.214844 610.183594 811 614.34375 799 C 615.414063 796 619.820313 788.589844 617.226563 785.546875 C 614 781.820313 610.59375 790.113281 609.707031 792 C 605 802 600.617188 812 596.601563 822 C 587.484375 845 583.261719 869.460938 575.972656 893 C 570.503906 910.675781 561.546875 928.113281 562 947 C 562.566406 969.296875 583 987.03125 594.964844 1004 C 610.351563 1026 614.296875 1045 611 1071 C 601.863281 1063.429688 603.4375 1046.121094 593.957031 1040 C 589.671875 1037.128906 584.617188 1043 585.191406 1047 C 586.585938 1057.078125 594.667969 1066 597 1076 C 577.679688 1068.492188 564 1052.523438 560.261719 1032 C 558.871094 1024.601563 560.804688 1017.164063 559 1010 C 555.378906 994.335938 546.238281 981.316406 544.285156 965 C 541.929688 945.296875 545 923.726563 551.355469 905 C 554.316406 896.105469 559.890625 888.101563 562 879 C 564.398438 869.53125 557.652344 855.511719 561.601563 847.3125 C 564 842.34375 575.539063 843.136719 579.773438 838.785156 C 585.632813 832.757813 584.828125 820 587.34375 812 C 594.183594 790.652344 606 763.820313 624 749.519531 C 627 747 641.855469 739 635.664063 733.757813 C 631.300781 730.09375 622.242188 735 618 737 C 600.507813 745.113281 591 762 583.71875 779 C 580 787.609375 576.398438 797 574.234375 806 C 572.589844 813 572.386719 822 568 827.785156 C 562.894531 834.730469 546.59375 831.65625 543.644531 839.226563 C 541.472656 844.789063 546.492188 856.121094 547.410156 862 C 549 873.140625 547.351563 884.339844 543.972656 895 C 539.769531 908.253906 534 921.265625 528.574219 934 C 525.480469 941.117188 521.253906 949 522.304688 957 C 524.652344 975 538.3125 988.285156 543.894531 1005 C 545.820313 1010.757813 543.847656 1016.15625 544 1022 C 544 1025.378906 549.355469 1038.773438 545.351563 1040.652344 C 543 1041.6875 541 1037.320313 540.191406 1036 C 536.625 1030.390625 533.21875 1024.695313 529.800781 1019 C 517.261719 998.097656 503.734375 976.53125 496.722656 953 C 495.578125 949.164063 494.28125 930.769531 488 932.460938 C 482.472656 934 482.238281 945.464844 482 950 C 481.183594 969.539063 490.765625 985.601563 498 1003 C 457.273438 974.292969 473.808594 920 480.75 880 C 482.710938 868.722656 484.339844 857.359375 485.714844 846 C 487.183594 834 488.6875 821.210938 488.984375 809 C 489 804 487.460938 795.78125 490.859375 791.414063 C 494.835938 786.304688 503 782.324219 508 777.828125 C 519.550781 767.386719 530.457031 756.273438 542 745.828125 C 545.671875 742.507813 558.777344 733 555.289063 727.121094 C 553 723.484375 549.183594 724.003906 546 725.777344 C 534.210938 732.347656 527 737.628906 513 735 C 527.390625 714.570313 553.542969 702 575 690.308594 C 580.679688 687.238281 598.394531 682.792969 599.878906 676 C 601.507813 668.460938 590.90625 670.148438 587 671.347656 C 572.796875 675.710938 559.21875 682.035156 546 688.757813 C 516.925781 703.535156 494 727.203125 468.890625 746 C 451.75 758.617188 430.605469 767.109375 424 790 L 423 790 C 423.617188 775.691406 429.652344 761.730469 433.265625 748 C 434.894531 741.808594 434.835938 734.480469 438.851563 729.183594 C 443.714844 722.777344 453.777344 719.007813 461 716 L 461 715 C 451.355469 718.085938 442 720 432 720 C 438.394531 704.644531 449.851563 699.707031 463 691 C 483.40625 677.476563 504 658.535156 530 658 L 530 659 C 516.46875 668 507 684 502 699 C 515.871094 685.128906 529 669.824219 545 658.15625 C 567.519531 641.570313 599.167969 628.613281 626 621 L 626 620 C 599.386719 625.160156 572.886719 629.601563 546 633 L 546 632 C 559 627.542969 572.582031 619.378906 581.816406 609 C 587.6875 602.390625 591 591.644531 600 588.484375 C 612.269531 584.117188 627 589.578125 639 593 C 663.605469 600.089844 686.738281 610.339844 708 624.671875 C 719 632.132813 730 640.660156 736 653 L 737 653 C 732.617188 639.527344 728.4375 624.820313 718.816406 614.003906 C 710 604.171875 695.855469 598.746094 684 593.574219 C 657.375 582 626.578125 568.714844 597 576 C 599 561.703125 611.976563 547.03125 623 538.390625 C 627.265625 535.046875 635.761719 533.1875 638 528 C 640.582031 522.269531 627 509.085938 626.1875 502 C 625.847656 499.121094 625.921875 496 628.316406 494 C 632.195313 490.777344 638.433594 490.089844 643 488.128906 C 650.792969 484.78125 657.757813 479.089844 666 476.789063 C 672.933594 475 678.945313 478.765625 684 483.183594 C 685.625 484.605469 689.558594 490 692 488.792969 C 694.898438 487.601563 695.300781 479.554688 695.878906 477 C 698.28125 466.410156 697 447.386719 704 439 M 583 472 L 583 473 C 552.242188 473.019531 519 482 494 500.160156 C 482.589844 508.496094 474.722656 520.703125 463 528.640625 C 453.503906 535.070313 443 540 433 545.257813 C 430.441406 546.582031 424.347656 549.078125 424.921875 552.8125 C 426 560.195313 443.40625 553 447 551.667969 C 471.601563 543.464844 488 533.085938 508 517 C 501.726563 550.304688 475.308594 568.015625 460.808594 597 C 450.917969 616.769531 448.347656 639.132813 441.65625 660 C 431.367188 692.074219 412.585938 721.21875 388 744.089844 C 379.730469 751.78125 371.527344 760.457031 361 765 C 369 748.082031 384.367188 733.761719 394.65625 718 C 415.21875 686.496094 423.765625 657.09375 423 620 L 421 620 C 420.929688 646 400.421875 668.003906 384 686 C 380.84375 689.460938 366.214844 708.605469 360 699.398438 C 357.644531 695.652344 363.402344 689 365.34375 686 C 372.730469 675.121094 382.238281 665.253906 387.382813 653 C 393.539063 638.347656 394.308594 619 388.628906 604 C 386.273438 597.8125 380.191406 592.613281 379.238281 586 C 378.464844 580.609375 381.546875 575.6875 383.691406 571 C 389.304688 558.742188 394.917969 543.296875 407 536 C 405.722656 542.175781 403.511719 548 401.675781 554 C 401.375 555 399.820313 559 401.601563 559.367188 C 405 560.355469 409.558594 548.3125 410.78125 546 C 417 534 427 512.191406 439 505 C 462 491.195313 484.675781 478.390625 510 469 C 519.566406 465.382813 530.683594 460.011719 541 460.007813 C 556 460.003906 568.359375 470.722656 583 472 M 1093 561 C 1094.210938 553 1089 545 1088 537 C 1100.796875 543.65625 1107 560.746094 1113.246094 573 C 1115.488281 577.480469 1119 582.777344 1118.695313 588 C 1118.226563 594.570313 1112.277344 600 1110 606 C 1105.890625 617.652344 1105.738281 632 1108.425781 644 C 1113.539063 667 1133.847656 681.699219 1140 703 C 1124.859375 703 1117.40625 695.011719 1107.714844 684 C 1091.738281 666 1084.515625 651.105469 1079 628 L 1078 628 C 1078 651.265625 1079.46875 678.476563 1091.605469 699 C 1104.375 720.589844 1129 739 1133 765 C 1122 760.417969 1113.171875 750.183594 1105 742 C 1082.640625 719.605469 1065.519531 691.003906 1055.515625 661 C 1048.28125 639.300781 1045.339844 616.527344 1034.742188 596 C 1021 569.40625 994.75 551 982 524 C 1003.777344 527.75 1024.386719 542.296875 1046 548.152344 C 1050.777344 549.445313 1063 555.441406 1067.535156 552 C 1071.347656 549.039063 1062.710938 546 1061 545.148438 C 1048.195313 539.628906 1036.96875 534 1027 524 C 993.792969 491 953.519531 472.046875 906 481 C 911.792969 474.730469 921 472.625 929 470 C 940.535156 466.15625 951.632813 462.078125 964 463.09375 C 970.960938 463.664063 977.605469 467.636719 984 470.199219 C 997.546875 475.636719 1010.949219 481.210938 1024 487.753906 C 1031.941406 491.734375 1039 497.113281 1047 501.09375 C 1051.230469 503.222656 1055.347656 503.5 1058.824219 507.058594 C 1073.855469 522.4375 1078.859375 545.246094 1093 561 M 1048 495 C 1049.1875 496.1875 1049.585938 496.527344 1051 497 L 1051 498 C 1049 497.15625 1048.273438 497.003906 1048 495 M 575 513 C 581.390625 509.597656 590.59375 506.171875 597.996094 507.382813 C 601.636719 508 605.992188 511.527344 604.214844 515.683594 C 602 520.539063 578.644531 515.488281 575 513 M 927 524 C 930.660156 518.128906 941.4375 515.585938 947.984375 517.433594 C 950.953125 518.269531 956.421875 523.691406 952.96875 527 C 949.222656 530.449219 932 524.21875 927 524 M 902.320313 527 C 907.269531 526.121094 916.308594 539 922 541 C 928.203125 543.027344 935.691406 543.535156 942 541.695313 C 946 540.488281 950.433594 536.621094 954.957031 537.527344 C 968.675781 540.277344 951.171875 554.40625 945 555.425781 C 940.933594 556.101563 937.730469 553.636719 934 552.519531 C 925 550 916.328125 550 909.285156 542.816406 C 907.789063 541.320313 895.800781 528 902.320313 527 M 606 528 C 601 540.671875 585.5 541.605469 574.417969 545.175781 C 570.75 546.355469 570.679688 550.078125 565.984375 550 C 559.359375 549.621094 545.457031 541.578125 548.785156 533.230469 C 550.59375 528.699219 556.679688 531.011719 560 532.023438 C 568.816406 534.71875 577.820313 536.699219 587 534.476563 C 593.824219 532.820313 598.726563 528.332031 606 528 M 827 741 L 826 741 C 821.246094 733.398438 814.527344 728.480469 807 723.808594 C 805 722.664063 801.195313 719.089844 798.855469 719.730469 C 794.960938 720.796875 795.609375 733.597656 788.390625 729.761719 C 784.820313 728 783.914063 722.066406 781.582031 719 C 776.3125 712.070313 768.578125 708.390625 760 708 L 760 709 C 767.378906 711.191406 770.992188 716.585938 772.382813 724 C 772.734375 726 773.832031 730.210938 771.398438 731.222656 C 762 735.066406 749.597656 722.054688 741 722 C 736.574219 722 733.578125 728 730 730 C 731.734375 716.175781 723.609375 719.808594 715.433594 713 C 713.242188 711.167969 712.925781 704.148438 709 705.347656 C 702 707.523438 705.683594 719 701.273438 723.257813 C 696.695313 727.695313 682 727.734375 676 728 C 694.757813 663 826.402344 668.738281 827 741 M 501 699 L 502 700 L 501 699 M 1070 819 L 1071 819 C 1078.597656 842.761719 1085.699219 870 1085.996094 895 C 1086 901.691406 1088 920 1077 919.378906 C 1068 919 1064.589844 906.160156 1059 901 C 1062 924.671875 1072.300781 941 1062.546875 965 C 1059.269531 973.089844 1054.695313 982.695313 1046.984375 987.386719 C 1043.957031 989.230469 1037.53125 991.671875 1035.835938 987 C 1034.40625 982.78125 1038.238281 978.117188 1040.34375 975 C 1044.824219 968.371094 1057.921875 956 1058.265625 948 C 1058.480469 943 1051.878906 936.664063 1049.871094 932 C 1044.742188 920.0625 1041.578125 906.785156 1039.433594 894 C 1036 874 1034.234375 852.335938 1036.171875 832 C 1037 822 1042.9375 804.605469 1039.398438 795 C 1033 778 1009 767 995 758 C 1001 754.796875 1016.550781 744.414063 1023 745.539063 C 1031 747 1038.242188 759.558594 1042.1875 766 C 1056 788.648438 1061.835938 818.621094 1058.714844 845 C 1057.515625 855.121094 1055.996094 865.234375 1052.972656 875 C 1052 878.0625 1049 883.453125 1051 886.546875 C 1055.863281 894 1061 875.546875 1061.847656 873 C 1066.566406 855.761719 1070 837 1070 819 M 506 760 L 506 761 C 493.234375 766.5 482.660156 776 472 784.539063 C 468 787.761719 462.414063 791 460.605469 796 C 457.589844 804.441406 463.285156 819.070313 463.910156 828 C 465.398438 849.203125 464.976563 870 461.726563 891 C 459.707031 904.066406 457 917.695313 452.175781 930 C 450 935.265625 443.261719 941.273438 443.300781 947 C 443.363281 955.578125 458 970.234375 463 977 C 465.203125 979.746094 471.285156 985.441406 469.351563 989.394531 C 467.382813 993.425781 459.183594 988.726563 457 987.199219 C 448.261719 981.089844 442.371094 970.710938 438.453125 961 C 433 947.824219 434.300781 932.585938 437.210938 919 C 438.289063 914 443.484375 904.292969 442 899.355469 C 441.269531 896.554688 436 898 434 898.171875 C 425.34375 899.414063 419.285156 904.582031 415 912 L 414 912 C 414 880.1875 419.59375 850.042969 426 819 C 434 832 432.363281 854.210938 435.195313 869 C 436.167969 874.074219 436.3125 883.1875 441.222656 886.289063 C 447 890 447.523438 881.40625 446.902344 878 C 444.574219 865.175781 440 854.285156 440 841 C 440 814.4375 444.621094 791 458.8125 768 C 462.878906 761.460938 469.527344 749.601563 478 748.5 C 485.304688 747.546875 498.929688 757.101563 506 760 M 770.449219 770.242188 C 773.558594 770 777.96875 773.015625 781 774 C 787.660156 775.652344 795 776.652344 802 775.816406 C 807.523438 775.144531 816.25 769.292969 821.683594 771.644531 C 830.933594 775.644531 813.613281 789.769531 809 790.5625 C 805 791.234375 801.804688 788.71875 798 788.511719 C 790.171875 788.089844 785.363281 791.351563 778 786.199219 C 776.3125 785.019531 763 771.144531 770.449219 770.242188 M 677 777 C 685 776.832031 692.957031 774.550781 701 774.09375 C 706.917969 773.757813 712 775.757813 718 773.757813 C 720.832031 772.785156 730.601563 767.511719 732.289063 772.320313 C 734.558594 778.789063 722.472656 783.234375 718 783.816406 C 703 785.753906 686.253906 794.683594 677 777 M 1229 828 C 1229.863281 838.558594 1234.792969 848.570313 1236.738281 859 C 1240.644531 880 1242 901.761719 1242 923 C 1241.949219 954.757813 1240 987.308594 1237.910156 1019 C 1236.851563 1034.460938 1234.371094 1051.589844 1236 1067 C 1241 1064.066406 1240.511719 1057.28125 1241.269531 1052 C 1243.242188 1038.324219 1245.398438 1024.644531 1247.589844 1011 C 1255 964.523438 1264.1875 915.058594 1250 869 C 1245.8125 855.300781 1242.179688 836 1229 828 M 341 857 C 333.855469 874.160156 323.726563 890 314.425781 906 C 309 915.25 303.902344 925.675781 295 932 C 296.800781 911.394531 314.324219 893.023438 325.84375 877 C 330.722656 870.21875 334 862.050781 341 857 M 1164 858 C 1177.875 882.355469 1203.707031 904 1208 933 C 1191.808594 921.347656 1181.816406 895.296875 1172.746094 878 C 1169.804688 872.394531 1162.636719 864.589844 1164 858 M 589 888 C 583.890625 909.46875 587.855469 934.816406 592.882813 956 C 595 965 599.203125 974 600 983 C 579.84375 968.761719 576.199219 934.519531 579.921875 912 C 581.292969 903.695313 582.558594 894 589 888 M 920 889 C 933.960938 915.214844 932.808594 969.210938 904 986 C 910.871094 965 917.707031 943.222656 919.828125 921 C 920.75 911.386719 916.34375 897.710938 920 889 M 712 958 C 716.960938 952.375 718.503906 942.238281 720 935 L 721 935 C 721.851563 945.78125 724.992188 956.109375 725 967 L 727 967 C 727.179688 958.257813 729.820313 949.757813 730 941 L 731 941 C 732 954.414063 738.960938 966.324219 739 980 C 749 972.765625 749.992188 960.484375 750 949 C 783.242188 966.246094 777.664063 1017.578125 775 1048 C 774.304688 1056 775 1076.617188 769.261719 1082.398438 C 766.671875 1085 762.21875 1083.496094 759 1084.742188 C 755.269531 1086.21875 753.367188 1089.734375 748.996094 1090 C 727.761719 1090.710938 721.175781 1058 720 1042 C 719 1028 721.710938 1014.011719 722 1000 L 721 1000 C 717.25 1018.171875 709 1036.136719 709.453125 1055 C 709.726563 1066.773438 715 1076.714844 717 1088 C 708.460938 1084.417969 705.46875 1078.652344 701 1071 C 699.503906 1074.398438 697.925781 1076.703125 695 1079 C 683.867188 1058 683.867188 1032 687.425781 1009 C 688.722656 1000.640625 697 985 694.167969 977.078125 C 691.214844 969 684.347656 982.15625 683.34375 985 C 678.304688 999.304688 674 1014.738281 674 1030 L 673 1030 C 668.996094 1018.199219 666.839844 1004.449219 668.175781 992 C 668.578125 988.210938 672 980.488281 667.683594 977.832031 C 661.910156 974.359375 654.714844 989 653.652344 993 C 652.320313 998.125 654.734375 1003.816406 654.960938 1009 C 655.515625 1021.6875 654.304688 1038.800781 648 1050 L 647 1050 C 646.953125 1033.753906 650 1014.460938 639 1001 C 637 1009.375 631.738281 1015.484375 628 1023 C 624 1017.207031 626.558594 1007.503906 627.804688 1001 C 630.574219 986.546875 636 972.734375 643.429688 960 C 647 953.546875 653.960938 948.171875 656.195313 941 C 659.238281 931.242188 653.460938 912.011719 665 906.332031 C 671 903.359375 679.613281 908.101563 685 910.757813 C 702.777344 919.519531 716.980469 937.078125 712 958 M 870 1011 L 869 1011 C 859.507813 994 849.167969 973.613281 834 961 C 834 966.609375 833.453125 972.53125 834.925781 978 C 836 982.320313 839.789063 987.289063 839.242188 992 C 838.640625 997 830.871094 997.605469 829.4375 1003.003906 C 827.972656 1008.519531 830.527344 1015.402344 830.910156 1021 C 831.640625 1031.660156 831 1042.324219 832 1053 C 818.8125 1046.554688 815 1023 811.871094 1010 C 810.863281 1006 810 994 805.644531 992.207031 C 802.75 991.042969 802.773438 995.421875 803 997.003906 C 804.242188 1002.476563 807.203125 1007.558594 808.621094 1013 C 814.453125 1035.363281 818.765625 1070.625 797 1086 C 794.296875 1078.328125 788.824219 1081.609375 783 1084 C 784.972656 1075.695313 789.691406 1068.398438 791.574219 1060 C 796.554688 1037.785156 794.863281 1012.660156 787.972656 991 C 783 975.550781 772.488281 964 768 948 C 776.371094 951 779.300781 960 786 965 C 782.859375 954.402344 779.566406 942.828125 777 932 C 793.40625 936.292969 795.96875 948.003906 802 962 C 804.339844 953.671875 804.289063 947 800.6875 939 C 799.335938 936 793.421875 928.113281 795.242188 925 C 796.515625 922.554688 801.742188 921.324219 804 920.253906 C 813.265625 916 831.941406 913.820313 839 923.105469 C 843 928.269531 845 934.710938 848.789063 940 C 854.851563 948.464844 863.726563 954.746094 868.816406 964 C 876 977.316406 873.640625 997 870 1011 M 621 938 C 614.382813 940.21875 620.179688 947.628906 622 952 C 616.253906 950.546875 601.660156 940.679688 605 933.148438 C 608.917969 925 619.226563 932.828125 621 938 M 884 955 C 885.484375 949.570313 888 944.601563 889 939 C 887.199219 939.5625 885.878906 939.824219 884 940 C 886.5 936.761719 901 926.613281 901 937.042969 C 901.230469 944.558594 889.964844 952.390625 884 955 M 298 1048 C 298.898438 1041.324219 301 1034.796875 299.46875 1028 C 298 1022.378906 293.582031 1018 293.273438 1012 C 292.390625 995 303.804688 970 314.3125 957 C 319.726563 950.332031 326 944.433594 334 940.796875 C 335.96875 940 341 937.207031 343.167969 939.117188 C 345.210938 941.03125 341 944.328125 339.960938 945.425781 C 334.460938 950.613281 329.875 956.488281 326 963 C 317.859375 976.769531 313.691406 993.152344 312.171875 1009 C 310.835938 1023 311.710938 1040 298 1048 M 1203 1050 C 1191.632813 1041.226563 1191.277344 1026.039063 1189.714844 1013 C 1187.570313 995.128906 1183.542969 977.488281 1173.933594 962 C 1169.980469 955.628906 1165 950.503906 1160 945 C 1158.972656 943.808594 1155.234375 940.199219 1157.660156 938.605469 C 1167 932.460938 1182.757813 951.289063 1187 957 C 1197.578125 970.773438 1208.519531 993.175781 1207.941406 1011 C 1207.726563 1017.609375 1202.972656 1022.710938 1201.527344 1029 C 1199.90625 1036.078125 1202.441406 1043 1203 1050 M 199 947 C 199.890625 958 203.792969 969 201.773438 980 C 200.996094 984.269531 197.476563 987.019531 196 991 C 193.933594 996.777344 194.546875 1004 193.5625 1010 C 192.925781 1014 189.410156 1031.148438 183.46875 1030.078125 C 178.679688 1029.214844 178 1012.722656 178 1009 C 177.605469 992.351563 183 978.0625 189.574219 963 C 191.945313 957.53125 193.589844 950.070313 199 947 M 1304 948 C 1318 974.609375 1332.949219 1002.046875 1317 1032 C 1313 1027.210938 1312.203125 1020.75 1310.328125 1015 C 1305.375 999.796875 1302.265625 986 1300.832031 970 C 1300.230469 963.34375 1299.382813 953.3125 1304 948 M 423 1005 C 419.457031 1010.027344 414.824219 1013.804688 410 1017.574219 C 408 1019.132813 405.894531 1020.589844 404 1022.300781 C 397.347656 1028.402344 403.324219 1032.496094 410 1034.238281 C 419.753906 1036.785156 430.773438 1034.390625 440 1031 C 442.597656 1030 449.515625 1025.726563 451.933594 1028.695313 C 459.613281 1038.117188 438.605469 1051.253906 433 1054.261719 C 431.246094 1055.203125 425.453125 1058.480469 429.296875 1060.65625 C 438.320313 1065.757813 458 1054.171875 463.894531 1048 C 466.761719 1045 469.285156 1037 474 1036.546875 C 480 1036.105469 483.914063 1045.226563 487.179688 1049 C 489.585938 1051.78125 492.707031 1054.398438 493.898438 1058 C 496 1064.808594 489 1072.765625 485.667969 1078 C 475.554688 1093.195313 463.363281 1108.289063 455.863281 1125 C 447 1144.644531 461.847656 1158.109375 467 1176 L 468 1176 C 469.648438 1155.125 473.777344 1135.46875 478 1115 L 479 1115 C 481.683594 1126.597656 487.273438 1137.726563 493 1148 C 494.632813 1150.589844 497.765625 1158.117188 501.785156 1156.792969 C 507.804688 1154.808594 505.339844 1141.652344 508.738281 1137.226563 C 512.398438 1132.46875 519.867188 1133.660156 525 1132 C 532.460938 1129.320313 538.558594 1123.140625 543.238281 1117.003906 C 544.515625 1115.335938 547.234375 1110.089844 549.480469 1113.378906 C 556 1123 554.4375 1144 550 1154 C 546.921875 1161.101563 539.683594 1165.453125 541.277344 1174 C 546 1200.085938 564.296875 1225 580.609375 1245 C 585.371094 1251 590.21875 1257 596 1262 C 597.523438 1263.164063 601.355469 1266.039063 602.578125 1262.742188 C 604.226563 1258.296875 595.921875 1250.449219 593.699219 1247 C 585.847656 1234.8125 578.359375 1220.171875 575 1206 C 588.382813 1213.734375 598.382813 1225.042969 613 1231.425781 C 616.460938 1233 623.84375 1238.320313 627.523438 1235.304688 C 631.300781 1232.207031 626.476563 1228.261719 623.984375 1226.519531 C 614.578125 1220 605 1216 598.359375 1206 C 583.984375 1184.714844 582.703125 1157.660156 579.425781 1133 C 578.6875 1127.445313 576 1110.535156 580.515625 1106.609375 C 586.308594 1101.5 591.222656 1112 592.65625 1116 C 597.699219 1130.355469 600.347656 1146 601 1161 L 602 1161 C 603 1153.058594 605.992188 1142.367188 616 1143.121094 C 624.417969 1143.761719 634.492188 1159.796875 637 1144 L 638 1144 C 648.222656 1163.476563 649 1190.527344 649 1212 L 650 1212 C 654.417969 1190.65625 658 1171 658 1149 L 659 1149 C 662.304688 1162.757813 676.621094 1172.476563 683.21875 1185 C 688.75 1195.5 692.371094 1207.085938 692.894531 1219 C 693 1223 691.390625 1227 691.898438 1231 C 692.347656 1234.304688 695.5625 1232.714844 696.992188 1230.765625 C 705 1219.785156 696.832031 1195.261719 692.996094 1184 C 691.886719 1180.742188 686 1169.070313 690.601563 1166.617188 C 700 1161.53125 712.96875 1180.785156 716.214844 1187 C 729 1211.59375 725.945313 1242.832031 712 1266 C 720.742188 1262 729.328125 1257.59375 735.671875 1250 C 740.300781 1244.449219 742.398438 1233.578125 751 1233.152344 C 759.925781 1232.714844 762.976563 1243.253906 767.519531 1249 C 773.75 1257 782.398438 1261.289063 791 1266 C 778.679688 1242.582031 773.582031 1213.773438 785.972656 1189 C 789 1182.710938 800.472656 1164.824219 809.683594 1168.648438 C 814.957031 1171 810.5 1181.484375 809.332031 1185 C 805.445313 1196.71875 801.785156 1209.550781 803.425781 1222 C 803.847656 1225.199219 803.4375 1230.078125 805.738281 1232.621094 C 809.585938 1237 811 1229.613281 810.957031 1227 C 810.578125 1212 811.582031 1199.285156 819.816406 1186 C 827.335938 1174 839.9375 1164.070313 844 1150 L 845 1150 C 845 1167.824219 841.285156 1199.578125 854 1214 C 849.246094 1198 855.742188 1178.574219 859.847656 1163 C 861.539063 1156.574219 861.738281 1149.597656 867 1145 C 868.339844 1157 877 1144.445313 884.984375 1148.457031 C 891 1151.5625 892.554688 1158.460938 897 1163 C 895.207031 1147 901.265625 1128.457031 907.867188 1114 C 910.464844 1108.304688 919.890625 1101.164063 924.820313 1109.226563 C 928.839844 1115.800781 924.847656 1128 924 1135 C 921.203125 1160.347656 918.546875 1187.460938 903.652344 1209 C 897.875 1217.351563 889.859375 1223.007813 881 1227.746094 C 878.675781 1229 873.527344 1231.210938 875.175781 1234.746094 C 877.601563 1240 886.882813 1234.339844 890 1232.742188 C 903.773438 1225.679688 914.96875 1215.113281 928 1207 C 925.964844 1222.089844 916.886719 1236.757813 908.277344 1249 C 906 1252.191406 897.179688 1260.320313 899.253906 1264.636719 C 901.324219 1269 907.398438 1262.535156 909 1261 C 917.554688 1252.699219 925 1243.578125 932 1234 C 941.953125 1220.632813 950.300781 1206.25 956.851563 1191 C 959.300781 1185.289063 963.253906 1178.402344 962.851563 1172 C 962.433594 1165.363281 955.777344 1161 953.386719 1155 C 947.835938 1141.175781 949.824219 1125.261719 956 1112 C 962.886719 1117.605469 967 1125.53125 975 1130.121094 C 980.449219 1133.253906 990 1132.390625 994.273438 1136.703125 C 998.925781 1141.492188 999.972656 1153.652344 1002 1160 L 1003 1160 C 1009.40625 1144.617188 1022.703125 1132 1025 1115 L 1026 1115 C 1031.871094 1134.320313 1032.480469 1156.054688 1035 1176 L 1036 1176 C 1040.71875 1159.625 1056.871094 1147.351563 1049.933594 1129 C 1042.773438 1110.058594 1027.566406 1096.339844 1016.347656 1080 C 1010.453125 1071.414063 1005 1059.832031 1008.574219 1049.109375 C 1010.453125 1043.269531 1027.597656 1039.503906 1032.90625 1041.605469 C 1036.800781 1043.144531 1039.210938 1048.089844 1042 1051 C 1048 1057.179688 1066.386719 1068.503906 1075.792969 1064.386719 C 1080.457031 1062.34375 1073.878906 1058.378906 1072 1057.308594 C 1065 1053.40625 1044.828125 1041.070313 1052.179688 1030.332031 C 1054.757813 1026.566406 1060.847656 1030 1064 1031.191406 C 1075.8125 1035.660156 1117.46875 1040.035156 1095 1019.089844 C 1090.507813 1015 1086.289063 1011.257813 1083 1006 C 1099.261719 1011.546875 1119.484375 1031.265625 1128 1046 C 1115.59375 1046 1084 1043.140625 1082.324219 1062 C 1081.675781 1068.695313 1088.324219 1075.652344 1093 1079.535156 C 1106 1090.402344 1123.863281 1095 1135.816406 1107.171875 C 1140.175781 1111.652344 1143.828125 1118.554688 1142.769531 1125 C 1142.21875 1128.351563 1136.523438 1134.230469 1139.648438 1137.351563 C 1146.84375 1144.542969 1152.980469 1123.179688 1152.871094 1119 C 1152.402344 1101 1138.238281 1087.503906 1131 1072 C 1144.949219 1073.226563 1152 1086.335938 1160.300781 1096 C 1163.199219 1099.402344 1168.4375 1103.296875 1169.289063 1108 C 1170.273438 1113.328125 1158.488281 1113.246094 1161.636719 1118.257813 C 1167.710938 1128 1184 1125.808594 1192.945313 1131.363281 C 1203.363281 1138 1200.4375 1164.761719 1198 1175 C 1184.261719 1163.308594 1180 1148.199219 1160 1144 L 1160 1145 C 1177.589844 1152.371094 1182.988281 1170.199219 1183 1188 L 1182 1188 C 1178.804688 1175.757813 1167 1176.089844 1158 1182.109375 C 1145.941406 1190.03125 1140.9375 1204.609375 1130 1213.671875 C 1121.332031 1221 1111.398438 1221.515625 1101 1224 L 1101 1225 C 1113.953125 1225 1126.214844 1224.058594 1138 1218.019531 C 1143.167969 1215.367188 1152.480469 1206.410156 1158.722656 1208 C 1163.878906 1209.1875 1161.5 1218.527344 1161.171875 1222 C 1160 1233.210938 1160.894531 1244 1158 1255 C 1157.347656 1258.011719 1156.386719 1264.214844 1153.351563 1266 C 1150.445313 1267.394531 1145.507813 1263.503906 1143 1262.246094 C 1135.878906 1258.691406 1118.929688 1251.15625 1112.710938 1260.394531 C 1109.351563 1265.386719 1119.515625 1271.6875 1122 1275.039063 C 1129 1284.308594 1137 1311.675781 1122.980469 1318.816406 C 1108.3125 1326.238281 1104.910156 1297.539063 1094 1295.34375 C 1072.46875 1291.011719 1053.3125 1308.375 1036 1317 C 1037.425781 1300.761719 1049.355469 1283.757813 1058.734375 1271 C 1061 1268 1070 1259.511719 1065.578125 1255.464844 C 1062.953125 1253.066406 1059.867188 1256.242188 1058 1258.023438 C 1052 1263.726563 1046.910156 1270.222656 1041 1276 C 1030.933594 1285.804688 1020.242188 1296.679688 1008 1303.769531 C 999.398438 1308.75 989.339844 1310.566406 981 1316.105469 C 974.644531 1320.324219 966.894531 1333.679688 959.964844 1335.246094 C 948.984375 1337.730469 947.554688 1311.234375 948.171875 1305 C 948.417969 1302.484375 950.628906 1296.179688 946.734375 1295.257813 C 942.542969 1294.261719 939.175781 1301.273438 937.328125 1304 C 932.449219 1311.222656 922.925781 1329.667969 913.996094 1331.667969 C 893.183594 1336.320313 921.558594 1307.082031 902.425781 1308.210938 C 897 1308.53125 892.613281 1316.292969 889.574219 1320 C 880.5 1331.070313 871.183594 1342 861 1352 C 858 1354.796875 848.417969 1365.683594 843.617188 1362.785156 C 839.253906 1360.148438 845.648438 1346.28125 847 1343 C 853.628906 1327.058594 864 1311.417969 875.988281 1299 C 879.488281 1295.359375 885.5 1289.175781 878.898438 1285.117188 C 873.507813 1281.804688 861.71875 1295.605469 858 1299 C 844 1311.691406 829.53125 1323.652344 815 1335.613281 C 811 1338.773438 803.792969 1348.15625 798.316406 1347.742188 C 795 1347.503906 793.921875 1336.617188 793 1334 C 788.519531 1319.046875 780 1305.726563 775 1291 L 774 1291 C 767.304688 1311.582031 768 1329.75 768 1351 C 743 1343 714.570313 1319.265625 727 1290 C 709.859375 1302.074219 705.464844 1321.507813 703 1341 C 681 1331.753906 660.492188 1310.0625 642 1295.195313 C 637.492188 1291.574219 626.765625 1279.035156 620 1282.132813 C 612.933594 1285.484375 621 1293.058594 624 1296 C 636.976563 1309.128906 649.269531 1325 656.574219 1342 C 657.96875 1345.261719 665.308594 1360 660.398438 1362.351563 C 655.515625 1364.726563 647 1355.476563 644 1352.714844 C 632.710938 1342.808594 623.515625 1330.628906 614 1319 C 611 1315.253906 607.289063 1307.734375 602 1307 C 598 1306.464844 592.640625 1311.0625 592.832031 1315 C 593.1875 1322.386719 603.4375 1327.238281 591 1330.746094 C 589.738281 1331.101563 588.339844 1331.273438 587 1331.046875 C 578.480469 1329.554688 569.566406 1311.546875 564.625 1305 C 562.980469 1302.820313 558.988281 1296 555.601563 1296.632813 C 553 1297.167969 554 1303.308594 554.285156 1305 C 555.230469 1313.054688 554.816406 1321.753906 550.632813 1329 C 549.34375 1331.238281 546.605469 1335.597656 543.4375 1334.652344 C 537 1332.773438 530 1321.039063 524 1317.078125 C 516.457031 1312.144531 507.550781 1311.074219 500 1306.519531 C 486.539063 1298.402344 473.535156 1285.519531 462 1274.828125 C 456 1269.394531 451.753906 1262.574219 445.984375 1257.042969 C 443.929688 1255.070313 440.398438 1251.476563 437.335938 1253.710938 C 432 1257.53125 441.460938 1266.160156 443.867188 1269 C 454.558594 1281.625 466.523438 1300.09375 468 1317 C 451.664063 1307.554688 440.324219 1298.257813 421 1294.609375 C 416.398438 1293.742188 409.621094 1291.550781 405 1293 C 394.625 1296 396.179688 1324 380 1318.089844 C 363.894531 1312.339844 371.660156 1283.742188 378.636719 1274 C 381.175781 1270.460938 387.761719 1266.488281 388.367188 1262.015625 C 389.875 1251 367.339844 1256.820313 363 1258.792969 C 357.53125 1261.277344 352.507813 1264.628906 347 1267 C 342.539063 1250.652344 337.6875 1235.1875 339.714844 1218 C 340.359375 1212.519531 338.195313 1203.535156 346 1203.074219 C 363.882813 1202.015625 371 1232 391 1223.03125 C 394 1221.628906 396.535156 1219.335938 399 1217 C 374.199219 1224 365.972656 1196.769531 348 1184.75 C 339 1178.800781 325.378906 1175.15625 321 1188 L 320 1188 C 320 1172 325.734375 1152.078125 343 1147 L 343 1146 C 333.171875 1147.453125 323.859375 1152.699219 317.175781 1160.015625 C 313 1164.574219 310.535156 1171.015625 305 1174 C 304.78125 1163.464844 298.902344 1138.53125 308.277344 1130.703125 C 314.582031 1125.441406 327.359375 1124.058594 335 1120.246094 C 337 1119.191406 341.75 1117.828125 342.792969 1115.496094 C 344.179688 1112.398438 333.664063 1111.210938 333.75 1107 C 333.84375 1102.195313 340 1097.28125 342.828125 1094 C 351.757813 1083.566406 357.640625 1073 372 1070 C 363.929688 1087.054688 349.253906 1098.683594 348.210938 1119 C 347.976563 1123.5625 354.25 1143.210938 361.574219 1137.289063 C 365.195313 1134.359375 359 1128.210938 358.457031 1125 C 357.296875 1119.253906 361 1112.34375 364.527344 1108.015625 C 376.558594 1092.789063 399 1091 411.671875 1076 C 416.535156 1070.199219 421 1054.449219 413.773438 1048.726563 C 408.773438 1044.800781 399 1045.011719 393 1045 C 386.566406 1045 380.390625 1045.496094 374 1046 C 376.984375 1040.109375 383.234375 1036.371094 387.910156 1031.828125 C 398 1022 408 1007.664063 423 1005 M 452 1066 C 440.425781 1075.425781 432 1086.550781 425.78125 1100 C 418.699219 1115.003906 414.636719 1130.582031 401 1141.332031 C 394.476563 1146.472656 387 1150.546875 380 1154.71875 C 377.488281 1156.1875 373 1158.289063 373.972656 1162 C 375.675781 1169.078125 396.695313 1163.351563 402 1162.832031 C 404.609375 1162.574219 409.277344 1161.144531 410.757813 1164.320313 C 413.480469 1170.152344 401.933594 1183.8125 398 1187.253906 C 395.773438 1189.207031 391.609375 1193.207031 395.527344 1196 C 398.589844 1198.105469 403.238281 1195.117188 406 1193.753906 C 412.46875 1190.554688 421.484375 1185 428.996094 1187.742188 C 439 1191.644531 439.367188 1208.496094 443.785156 1217 C 452.496094 1233.777344 465.964844 1247.183594 481 1258.371094 C 484.941406 1261.304688 500.210938 1274.820313 505.378906 1271 C 508.28125 1268.742188 504.460938 1264.664063 502.941406 1263 C 496.574219 1256.011719 490 1249.503906 484.351563 1242 C 475.515625 1230.582031 466.296875 1219.078125 459.980469 1206 C 456.34375 1198.472656 456.316406 1189 451.351563 1182.039063 C 442.414063 1169.808594 423 1160.183594 425.316406 1142 C 427.355469 1125 436.652344 1104 443.425781 1088 C 446 1081.832031 454 1073 452 1066 M 1051 1068 C 1057.367188 1086.703125 1065.238281 1105.355469 1072 1124 C 1076 1135 1081.3125 1145.628906 1075.621094 1157 C 1070 1168 1058.328125 1173.808594 1051.996094 1184 C 1047.863281 1190.648438 1047 1199 1043.742188 1206 C 1037.222656 1219.410156 1027.664063 1231.402344 1018.398438 1243 C 1012.867188 1250 1007 1256.519531 1001 1263 C 999.558594 1264.59375 995.941406 1268 997.257813 1270.394531 C 999.917969 1275.570313 1013.386719 1265.085938 1016 1263.328125 C 1033 1252 1049.210938 1237.433594 1058.742188 1219 C 1063.515625 1209.765625 1064.414063 1191.304688 1076 1188 C 1083.894531 1185.570313 1093.234375 1192.570313 1100 1195.738281 C 1102.605469 1197 1107 1199.015625 1109.167969 1195.679688 C 1111 1192.5 1106.898438 1189.039063 1105 1187 C 1101.761719 1183.441406 1090.921875 1170.695313 1093.992188 1165.332031 C 1096.632813 1160.726563 1116.167969 1165.796875 1121 1166.085938 C 1123.742188 1166.246094 1127.976563 1167.21875 1129 1163.773438 C 1131.578125 1156.640625 1110.722656 1147 1106 1143.570313 C 1089.507813 1131.703125 1082.984375 1114.472656 1074.246094 1097 C 1068.921875 1086.347656 1062.304688 1073.273438 1051 1068 M 513 1074 C 513 1078.304688 512.898438 1082.273438 516.226563 1085.480469 C 519.386719 1088.527344 525.867188 1090.492188 527 1095.09375 C 528.90625 1101.621094 514.921875 1114.753906 512 1121 L 511 1121 L 511 1074 L 513 1074 M 993 1076 C 994.875 1091 994 1106.050781 994 1121 C 989.535156 1117.507813 976.414063 1101 978.40625 1095.042969 C 979.894531 1090.6875 985.800781 1089.039063 988.722656 1085.816406 C 991.328125 1083 991.492188 1079.351563 993 1076 M 485.226563 1157.136719 C 481.4375 1159 482 1164.558594 482 1168 C 482 1178.703125 484.171875 1190 487.695313 1200 C 499.898438 1235 530.710938 1253.050781 563 1266.714844 C 570.523438 1270 578.332031 1272.378906 586 1275.1875 C 588.527344 1276.113281 592.90625 1278.011719 595.378906 1276 C 601.453125 1271 584.5625 1265.269531 582 1264.136719 C 560 1254.410156 538 1239 533 1214 C 531.363281 1206 532.804688 1199.804688 534.84375 1192 C 535.574219 1189.210938 536.832031 1185 534.394531 1182.617188 C 525 1173.726563 520 1208.046875 513.882813 1204.363281 C 501.488281 1197.089844 495.265625 1178.042969 492.738281 1165 C 492 1161.6875 490 1154.785156 485.226563 1157.136719 M 1014.226563 1157.046875 C 1009.34375 1159.792969 1010 1169.257813 1008.84375 1174 C 1006 1184.570313 1000.628906 1198.230469 991 1204.367188 C 983.46875 1209.175781 979.667969 1191.460938 976.210938 1187.058594 C 974.203125 1184.496094 969.519531 1181.285156 967 1185.320313 C 964.945313 1188.816406 968.460938 1194.507813 969.335938 1198 C 971.234375 1205.585938 971 1212.449219 969 1220 C 962.324219 1244.636719 936.46875 1257.625 915 1267.304688 C 912.960938 1268.226563 898.300781 1275.511719 907 1277.640625 C 915.71875 1279.703125 931 1270.746094 939 1267.601563 C 971 1254.761719 1003.945313 1238 1015.921875 1203 C 1020 1191.027344 1020.976563 1178.539063 1021.40625 1166 C 1021.535156 1162.136719 1020 1153.746094 1014.226563 1157.046875 "/>
</g>
</svg>
