<?xml version="1.0" encoding="UTF-8"?>
<svg xmlns="http://www.w3.org/2000/svg" xmlns:xlink="http://www.w3.org/1999/xlink" width="1500pt" height="1500pt" viewBox="0 0 1500 1500" version="1.1">
<g id="surface1">
<path style=" stroke:none;fill-rule:nonzero;fill:rgb(0%,0%,0%);fill-opacity:1;" d="M 229 554 L 230 554 C 230 560.757813 230.496094 567.5625 235.339844 572.816406 C 239.742188 577.585938 246 579.351563 249.726563 585.015625 C 256.246094 595.175781 257.441406 607.730469 261 619 C 263.386719 626.417969 267.507813 633.175781 268.546875 641 C 270.207031 653.492188 263.636719 668.261719 260 680 C 251 709.0625 236.609375 742 240.285156 773 C 242.726563 793.636719 252.328125 810.453125 258.277344 830 C 265.253906 853 267.65625 876.730469 276.859375 899 C 282.945313 913.722656 293.355469 928.019531 298 943 C 299.867188 948.375 297.285156 953.601563 297 959 C 296.613281 968.390625 298 977.703125 299 987 C 301.363281 1005.410156 304.242188 1024 308 1042 C 310 1052.242188 313.988281 1062.503906 314.671875 1073 C 315 1079.464844 309.921875 1084.132813 306.429688 1089 C 300.730469 1097 296 1105.449219 291.4375 1114 C 277.796875 1139 267 1170.378906 267 1199 C 266.957031 1208.332031 266.996094 1217.667969 267 1227 C 267 1229.03125 266 1234.507813 268.46875 1235.652344 C 270.898438 1237 272.167969 1231.34375 272.574219 1230 L 279.71875 1206 C 287.820313 1179.109375 298 1152.785156 309 1127 C 311.816406 1120.796875 314.835938 1115 318 1109 C 319 1107.359375 320.574219 1103.054688 322.933594 1103.054688 C 327.6875 1103.054688 329.199219 1118.753906 328.675781 1122 C 325.195313 1143.460938 316.800781 1164 314 1186 C 313.792969 1189.015625 309.847656 1208.269531 313.496094 1209.078125 C 317.371094 1210 320.367188 1198.484375 321.425781 1196 C 326.960938 1183.03125 330.882813 1163.011719 341 1153 C 342.273438 1160.136719 348.820313 1167.125 348 1174.574219 C 347.480469 1179.34375 344.378906 1184.140625 343.398438 1189 C 340.761719 1202.101563 340 1214.761719 340.976563 1228 C 341.5 1235.671875 341.832031 1244.695313 348 1250 C 351.632813 1239 353.363281 1227.269531 356.578125 1216 C 357.273438 1213.5625 358.324219 1206.023438 362 1206.632813 C 366.546875 1207.351563 369.648438 1216.246094 370.46875 1220 C 371.625 1225.328125 369.273438 1230.675781 369 1236 C 368.632813 1245.21875 370 1254.175781 372.722656 1263 C 382 1294.5 404 1321.144531 427 1344 C 435 1352.007813 443.179688 1363 454 1367 C 442.957031 1337.820313 410.714844 1318.15625 405 1286 C 427 1301.546875 444.464844 1323.605469 467 1339.277344 C 509.527344 1369 559.785156 1385.046875 609 1399.425781 C 631.476563 1406 654.261719 1415 678 1415 C 675.878906 1412.429688 667 1407.441406 670.449219 1403.578125 C 672.941406 1400.753906 677.863281 1402.097656 681 1402.574219 C 689.648438 1404 699.257813 1405.496094 708 1405 C 741.40625 1402.675781 778 1402.273438 809 1388.304688 C 816.492188 1385 823.992188 1380.453125 832 1378.445313 C 834.28125 1378 839.625 1377.101563 839 1381.109375 C 838.445313 1385.742188 831.535156 1389 828 1391 C 820.246094 1395.554688 812.316406 1399.539063 804 1403 C 799.550781 1404.832031 794.515625 1405.652344 792 1410 C 808.382813 1405.394531 825 1404 841 1397.394531 C 860.214844 1389.613281 877.269531 1377.316406 897 1370.667969 C 905.3125 1368 914 1364.660156 923 1364.210938 C 925 1364.101563 932 1364.421875 931.367188 1368 C 930.640625 1371.820313 922 1373.3125 919 1374.332031 C 909.734375 1377.417969 886.953125 1378.304688 882 1387 C 921.355469 1386.675781 959.878906 1376.144531 994 1356.574219 C 1010 1347.371094 1024 1335.214844 1039 1324.425781 C 1061.992188 1307.824219 1084.84375 1292.40625 1101.574219 1269 C 1129 1230.566406 1144.28125 1184.796875 1157.71875 1140 C 1165.367188 1114.515625 1178.445313 1085.832031 1179 1059 L 1180 1059 C 1180.648438 1137.332031 1156 1215.769531 1110.574219 1280 C 1097.941406 1298 1084.800781 1316 1069.910156 1332 C 1059.636719 1343.089844 1045 1353.464844 1038 1367 C 1053.425781 1360.351563 1068 1348.6875 1081 1338.195313 C 1115.390625 1310.441406 1143.964844 1276.359375 1165.851563 1238 C 1175.652344 1220.816406 1183.773438 1202 1189.429688 1183 C 1191 1177.726563 1191.457031 1165.152344 1198 1163.347656 C 1203.992188 1161.707031 1204 1171.566406 1203.828125 1175 C 1202.484375 1189.378906 1200.253906 1204 1197.210938 1218 C 1189 1255.339844 1168.25 1291 1142.828125 1319 C 1135.722656 1327 1127.96875 1334.722656 1120 1341.714844 C 1114.96875 1346.128906 1108 1350 1105 1356 C 1125.261719 1347.5625 1144.609375 1331.367188 1160 1316 C 1214.609375 1261.472656 1239.457031 1182 1223.996094 1106 C 1219.207031 1082.511719 1212.199219 1059.039063 1202.71875 1037 C 1197.21875 1024.214844 1187.285156 1012 1190 998 L 1191 998 C 1198.707031 1026.183594 1216.292969 1052.40625 1228 1079 C 1251 1130.636719 1259.832031 1183.058594 1243.28125 1238 C 1233.453125 1270.621094 1213.941406 1300.105469 1192.246094 1326 C 1186.941406 1332.332031 1180.601563 1337.683594 1175.304688 1344 C 1173.78125 1345.816406 1170.199219 1349.761719 1172 1352.351563 C 1174.886719 1356.203125 1183.6875 1348.640625 1186 1347 C 1199.367188 1337.511719 1210.851563 1325.746094 1224 1316 C 1219.230469 1333.433594 1209.828125 1351.097656 1198.386719 1365 C 1190.933594 1374.050781 1179.636719 1382.050781 1175 1393 C 1202.828125 1380 1233.300781 1350 1242.277344 1320 C 1245.5 1309.273438 1241 1297.710938 1244 1288 C 1249.816406 1269.582031 1260 1253 1265 1234 C 1277.410156 1187.179688 1273.621094 1136.003906 1256.1875 1091 C 1243.203125 1057.480469 1224.945313 1026.335938 1211.601563 993 C 1209.71875 988.304688 1207.992188 983 1204.609375 979.109375 C 1201.484375 975.539063 1195.933594 974.425781 1195.652344 969 C 1194.421875 945.253906 1211.203125 926 1220 905 C 1230 881.757813 1233.554688 857.050781 1240.722656 833 C 1244.527344 820.230469 1252.195313 809 1255.523438 796 C 1263.855469 763.785156 1256.949219 733 1246.667969 702 C 1240.648438 684 1230.328125 661.308594 1231 642 C 1231.316406 634.632813 1236 628.796875 1238.25 622 C 1242.382813 609.449219 1243.355469 595.351563 1250.710938 584.015625 C 1258 572.554688 1270.289063 572.324219 1271 556 C 1288.171875 576.132813 1297.582031 603.257813 1325 612 C 1335.527344 615.316406 1351.941406 616.519531 1356.851563 604 C 1361.203125 593 1354.859375 581 1353.300781 570 C 1350.964844 553.644531 1352.9375 531.726563 1360.246094 517 C 1364 509.394531 1367.519531 501.433594 1373.183594 495 C 1384.40625 482.246094 1398.617188 473.652344 1407.945313 459 C 1426.332031 430.117188 1425 398 1425 365 L 1423 366 C 1423 343.703125 1417 322.175781 1416 300 C 1415.1875 280.382813 1421.421875 263.828125 1411.742188 245 C 1402.378906 226.789063 1382.347656 217.230469 1366 206.332031 C 1321.820313 177 1273.238281 154 1220 147.285156 C 1201.765625 145.015625 1183 145.820313 1165 149.449219 C 1155.386719 151.382813 1143.890625 158.234375 1134 155.753906 C 1123.84375 153.203125 1115.179688 146 1106 141.257813 C 1091.222656 133.636719 1075.550781 127.289063 1060 121.425781 C 1046 116.207031 1031.621094 111.144531 1017 108.753906 C 1007.984375 107.28125 998.886719 108.636719 990 106 C 975.488281 101.578125 965 87.011719 949 87.027344 C 934.179688 87.046875 913.523438 105.40625 905.441406 117 C 902.65625 121 899.328125 137.234375 893.945313 136.832031 C 889.414063 136.492188 884.636719 133.304688 880 132.464844 C 869.296875 130.519531 858.75 131.136719 848 132.171875 C 838 133.128906 822.59375 140 813 137.667969 C 808.40625 136.554688 807.636719 131.4375 805.300781 128 C 802.347656 123.652344 797.9375 120.3125 793 118.550781 C 783.375 115.109375 771.945313 117.554688 763 122 C 758.972656 124 754.753906 128.65625 750 128.382813 C 745.261719 128.105469 741 123.476563 737 121.324219 C 730.320313 117.75 721.613281 115.324219 714 116.289063 C 706.753906 117.207031 699.996094 120.316406 695.273438 126.015625 C 692.375 129.511719 691 135.6875 685.984375 136.589844 C 681 137.460938 675 134.140625 670 134.015625 C 645.851563 133.414063 622.929688 130.761719 601 141 C 600.191406 122.429688 586.980469 110.425781 574 99 C 566 91.703125 558.386719 85.035156 547 87.101563 C 532.628906 89.703125 522.476563 101.703125 509 106.453125 C 500.652344 109.394531 491.609375 107.230469 483 108.285156 C 470.378906 110 457.867188 114 446 118.425781 C 427.3125 125.410156 408.929688 133.519531 391 142.257813 C 382.816406 146.246094 374.953125 153.445313 366 155.46875 C 357.300781 157.4375 348.308594 151.828125 340 150.015625 C 324.433594 146.621094 307.90625 145.34375 292 146.039063 C 263 147.308594 234.960938 157.085938 208 167 C 185.304688 175.246094 161.523438 184.390625 142 199.039063 C 137 202.757813 134.753906 208.625 129.960938 212.46875 C 114.894531 224.539063 97 227.683594 87.785156 247 C 78.644531 266.144531 87.242188 282.546875 85.910156 302 C 82.722656 348.566406 64.964844 398.832031 85.3125 444 C 99.484375 475.460938 130.382813 494.382813 143.546875 527 C 148.550781 539.402344 149 561 146.335938 574 C 144 585 138.535156 600.457031 148.328125 609.46875 C 156.746094 617.214844 171.757813 614.164063 181 609.738281 C 201.980469 599.691406 221.503906 576 229 554 M 464 310 C 483.894531 299.53125 504.5625 290 523 277 C 539 265.710938 552.230469 250.769531 566 237 C 579.683594 223.316406 594.488281 210.167969 606.550781 195 C 611 189.363281 615.820313 182.4375 616.363281 175 C 616.796875 169.039063 611 161.527344 616.316406 156.429688 C 621 151.75 628.195313 153.511719 634 154 C 646.382813 154.757813 658.734375 152 671 153.730469 C 675.765625 154.410156 684.425781 155 685.382813 161.042969 C 686.605469 169 676 177.023438 671 181.425781 C 654.75 195.542969 637.828125 208.390625 621 221.800781 C 591.707031 245.140625 565.996094 272.761719 534 292.574219 C 492 318.550781 438.449219 336.332031 413 382 C 436.585938 375.207031 455.824219 352.066406 477 340 C 501.304688 326.148438 530.609375 323.238281 554 307.480469 C 570 296.632813 579.183594 279.253906 593 266.039063 C 612.539063 247.355469 636 231.753906 657 214.414063 C 672.539063 201.480469 693 188.699219 702.179688 170 C 705.839844 162.464844 705.21875 154 707.492188 146 C 709.277344 139.789063 714.363281 135.628906 721 136.710938 C 728.910156 138 741.433594 143.257813 743.339844 152 C 744.78125 158.617188 741.195313 167.535156 739.789063 174 C 734.222656 199.613281 723 227.347656 702.984375 245 C 686.863281 259 666.507813 267.023438 650 280.613281 C 630.429688 296.726563 615 318 591 328 C 558.949219 341.289063 523.503906 342.132813 491 354.054688 C 467.980469 362.496094 451 379 434 396 C 427.683594 402.308594 420 407.667969 415 415 C 441.238281 402.726563 463.230469 382.296875 490 371.453125 C 523.855469 357.738281 563.8125 367.652344 596 381.425781 C 631.308594 396.539063 656 429.160156 656 468 C 656 478.667969 657.851563 494 648.894531 501.722656 C 642.375 507.453125 635.179688 502.367188 630.429688 497 C 618 483.019531 608.757813 467 595 454.089844 C 575 435.601563 543.613281 418 516 416.089844 C 499.417969 415 482.992188 421.402344 467 424.789063 C 446.492188 429.132813 425.515625 431 405 435.210938 C 392.53125 438 381.460938 436.53125 369 434.589844 C 365.765625 434.085938 357.269531 432.015625 354.636719 434.457031 C 351.511719 437.359375 368.921875 444.320313 371 446 C 360.738281 452 349.703125 454.503906 341 463 C 344 463.011719 351.535156 462.777344 348.339844 468 C 345.433594 472.601563 338.976563 475.222656 335 479.089844 C 327.714844 486.429688 321.535156 495.1875 316 504 C 293.539063 540.289063 288 585.113281 288 627 C 278.738281 622.445313 278.367188 609 276 600 C 273.273438 588.59375 265.835938 578.117188 263.394531 567 C 261.421875 558.023438 263.429688 546.132813 263.527344 537 C 263.601563 530.300781 255.171875 525 256.421875 518.226563 C 257.785156 511 269.269531 519 272 514.394531 C 275.277344 509.191406 261.296875 505.652344 263.347656 500.601563 C 265 496.34375 281 503.734375 285 503 C 282.480469 500.503906 268.183594 491.46875 270.257813 487.59375 C 272.785156 483 289.230469 491.105469 293 492 C 291 489.824219 289 488 286.976563 485.828125 C 285.753906 484.632813 284.394531 483.429688 283.4375 482 C 274.578125 468.773438 304.167969 482 305 475.8125 C 306 469.40625 293.621094 465.058594 291 460 C 294.464844 459.5625 309.53125 460 310.367188 455.609375 C 311.335938 450.65625 298 448.34375 295 447 C 298.746094 444.214844 319.308594 443 318.21875 436.652344 C 317.316406 431.515625 306.570313 430 303 427 C 311.484375 422.742188 318.417969 426.675781 327 425 C 323.425781 421.789063 312.90625 417.628906 312.753906 412.214844 C 312.539063 405 330.941406 412.164063 334 413 C 330 408.609375 324.648438 405.230469 322 400 C 325.238281 399.746094 346.222656 401.304688 344.792969 397 C 343.53125 393 332.976563 389.6875 334.460938 385.226563 C 335.941406 380.777344 363.367188 381.59375 349.953125 372 C 348.75 371.085938 347.34375 370.421875 346 369.800781 C 344 369 342 368.382813 340 368 C 345 359 358.730469 367 364.214844 358.773438 C 368.613281 352.292969 356.734375 350 358.460938 344.429688 C 360.390625 338.339844 373.191406 345.351563 376 339.683594 C 378.992188 334 366.667969 331.519531 365.921875 327 C 364.855469 320.46875 384.402344 326 387 327 C 384 323.378906 377.253906 320.011719 376.582031 315.09375 C 375.496094 307.144531 392.683594 313.238281 396 314 C 392.816406 309.589844 384 306.257813 382.753906 301.070313 C 380.59375 292.570313 402.328125 302.097656 405 303 C 403 301.007813 400.96875 299.046875 399 297 C 397.855469 295.738281 396.589844 294.460938 395.652344 293 C 385.449219 277.066406 413.972656 289.804688 419 291 C 415.660156 287.691406 402.199219 279 405 273.316406 C 408.574219 266.699219 424.484375 276.460938 429 278 C 427 276.007813 424.976563 274.039063 423 272 C 421.53125 270.414063 420 268.804688 418.804688 267 C 409 252.730469 431 261.601563 436 264 C 437.453125 264.621094 439.804688 265.8125 441.183594 264.289063 C 445 260 432.382813 253.15625 436.710938 249.027344 C 440.726563 245.199219 459 253.183594 455 242.039063 C 454.582031 240.679688 453.660156 239.273438 453 238 C 466.378906 239.09375 474.199219 243.03125 472 226 C 498.296875 232.261719 520.882813 207.46875 528.65625 185 C 530.878906 178.582031 532.660156 171.820313 532.960938 165 C 533 162 531.878906 156.199219 534 153.644531 C 535.488281 152 538 152.707031 540 153 L 540 152 C 529.179688 146.476563 521.550781 139.398438 509 137.4375 C 475.542969 132.214844 430.699219 154 407 176.285156 C 398.449219 184.453125 392.484375 195.128906 384.570313 204 C 367.621094 223 346.539063 236.472656 330.882813 257 C 308.863281 286 295.730469 319.085938 276 349 L 275 349 C 281.457031 298 299.355469 240 337 203.039063 C 360.605469 180 390.488281 165.148438 420 151.21875 C 445.984375 139 475.246094 123.289063 505 126.171875 C 515.691406 127.203125 524.972656 131.609375 535 135 C 526.507813 123.820313 533.558594 121.09375 545 121 C 538.285156 114.378906 543 111.355469 551 113.238281 C 558.914063 115.132813 568 119.550781 573.90625 125.183594 C 581.757813 132.675781 579.617188 141 583 150 C 586.347656 158.152344 598 159.671875 598.722656 169 C 599.816406 186 580.191406 200.4375 570.804688 212 C 557.90625 228 546.675781 245.28125 531 258.699219 C 519.300781 268.714844 504.570313 274.289063 492 283.039063 C 481.179688 290.570313 473 300.675781 464 310 M 963 135 C 972.28125 131.140625 980.832031 127.152344 991 126.171875 C 1019.621094 123.398438 1048.617188 137.253906 1074 148.695313 C 1104.898438 162.625 1136.316406 177.15625 1160.996094 201.039063 C 1202.765625 241.457031 1215.855469 301.238281 1231 355 C 1224.691406 351.140625 1222.914063 341.367188 1219.753906 335 C 1211.945313 319.273438 1203.824219 303.78125 1194.308594 289 C 1182.574219 270.773438 1169.511719 252.324219 1153.910156 237.171875 C 1141.664063 225.273438 1127.261719 215.820313 1115 204 C 1107 196.367188 1101.613281 186.808594 1093.984375 179 C 1079 163.707031 1060.222656 152.476563 1040 145.667969 C 1014.519531 137.089844 978.753906 127.25 959 153 C 961.722656 152.203125 965.589844 151.136719 967.261719 154.316406 C 970 159.628906 968.539063 167.253906 969.4375 173 C 971.667969 187.273438 976.738281 202 986.300781 213 C 996 224.308594 1006.523438 223.523438 1018.910156 228.738281 C 1023 230.515625 1025.40625 234.675781 1030 236.058594 C 1034.824219 237.507813 1040.277344 236.328125 1044.871094 238.652344 C 1046.371094 239.410156 1059.449219 247.09375 1059.65625 247.601563 C 1060.917969 250.71875 1054.617188 254.144531 1058.378906 257 C 1063.433594 260.773438 1071.867188 253.242188 1076.339844 257.71875 C 1079.914063 261.296875 1069.902344 264.371094 1074.378906 268.386719 C 1078.953125 272.492188 1086.527344 265.824219 1091.808594 267.332031 C 1096.269531 268.605469 1091 273.738281 1092.878906 276.566406 C 1096.664063 282.820313 1106.59375 274.660156 1104 286 C 1105.996094 286 1108 286 1110 286.039063 C 1111.335938 286.101563 1112.691406 286.179688 1113.996094 286.46875 C 1127.507813 289.476563 1105.828125 297.765625 1107.460938 304 C 1108.3125 307.035156 1112.253906 306.753906 1114.382813 308.429688 C 1116.5 310.09375 1115 313.324219 1117.40625 315 C 1121 317.699219 1132.332031 317 1137 317 C 1135.210938 319.542969 1133 321.675781 1131 324 C 1116.789063 340.136719 1147.839844 333.773438 1149 341.433594 C 1150 347.753906 1131.546875 353.390625 1135.832031 359.398438 C 1140.34375 365.722656 1159.714844 355.613281 1162.25 366.109375 C 1164 373.425781 1150.566406 375.226563 1146 376.085938 C 1144.695313 376.328125 1140 376.769531 1140 378.78125 C 1140 381.027344 1146.816406 380 1148 379.71875 C 1154.445313 379 1169.269531 374.546875 1174.214844 380.652344 C 1180.457031 388.367188 1159.445313 395 1155 396.121094 C 1153.265625 396.613281 1149 397.339844 1149 399.824219 C 1149 402.585938 1154.421875 402 1156 401.699219 C 1161.820313 401 1195 394.09375 1176 407 C 1174 408.171875 1172 409.199219 1170 410.246094 C 1166.269531 412.160156 1163 414.195313 1160 417 C 1166 416.171875 1188.808594 405.492188 1192.863281 413.316406 C 1196.882813 421.070313 1174.4375 430.351563 1170 434 C 1178.308594 436 1186.761719 431.824219 1195 430.589844 C 1197.308594 430.246094 1203.515625 429.574219 1201.671875 434 C 1199.472656 439.03125 1191.554688 441.792969 1187 444.261719 C 1185.746094 445 1182 446.507813 1182.632813 448.488281 C 1183 450.394531 1186.8125 449.347656 1188 449.109375 C 1193.183594 448.070313 1217.449219 446.667969 1201.996094 454.621094 C 1200 455.609375 1198 456.300781 1196 457 C 1193 458.023438 1190 459.019531 1187 460 C 1194 465.121094 1201.867188 460.179688 1209.980469 461.109375 C 1216.566406 462 1213.953125 466.382813 1209.980469 469 C 1208.390625 470 1206.714844 470.777344 1205 471.566406 C 1201.644531 473.105469 1198.863281 474.65625 1196 477 C 1203 478.671875 1230.589844 476.503906 1213 487.675781 C 1211 489 1209 490.007813 1207 491 L 1207 492 C 1212.175781 491.34375 1227.835938 486.4375 1230.742188 493.238281 C 1233 498.589844 1218.378906 502.613281 1215 504 L 1215 505 L 1233 505 C 1229 509.792969 1223.820313 513.027344 1220 518 C 1224.949219 517.359375 1234.351563 513.605469 1238.167969 518.515625 C 1243.550781 525.4375 1229.835938 534.789063 1230.992188 542 C 1231.957031 548 1240.605469 548 1240.902344 555 C 1241.367188 566.089844 1232.960938 576.585938 1228.269531 586 C 1224.515625 593.535156 1223.535156 602 1221.789063 610 C 1220.453125 616.238281 1218.699219 622.523438 1213 626 C 1213 585.738281 1207.554688 541.554688 1185.308594 507 C 1179.46875 498 1173.394531 489 1165.828125 481.089844 C 1161.5 476.652344 1155.191406 474 1151.453125 469 C 1147.195313 463.253906 1153.964844 463.015625 1158 463 C 1149 455.476563 1135.328125 454 1128 445 C 1130.621094 444 1145.871094 439 1143 434.730469 C 1141 431.640625 1132.886719 434.09375 1130 434.613281 C 1117 437 1106 439.40625 1093 436.800781 C 1071.363281 432.5 1049.480469 429.429688 1028 424.347656 C 1011.957031 420.550781 995.769531 414.546875 979 416.171875 C 955.167969 418.476563 931.996094 433 913 446.578125 C 895.261719 459.339844 885 477.460938 871.386719 494 C 867.246094 499.023438 860.332031 507.417969 853 503.128906 C 841.292969 496.253906 842.480469 475.410156 843.84375 464 C 848.445313 425.5625 869.378906 396.613281 905 381 C 939.988281 365.394531 983.328125 357.390625 1019 375.269531 C 1042.625 387.109375 1059 409.433594 1086 415 L 1086 414 C 1075.679688 409 1068.976563 399 1061 391 C 1047.660156 377.640625 1034 365.539063 1017 357.257813 C 983.683594 341.140625 945 341.230469 911 327.394531 C 886.976563 317.664063 871 296.304688 851 281 C 834.964844 268.5625 815 261.324219 800 247.824219 C 780.652344 230.558594 772.671875 207.128906 762.71875 184 C 759.171875 175.757813 751.867188 165.3125 752.320313 156.003906 C 752.777344 146.628906 774.855469 137.453125 783 138.0625 C 795.867188 139.027344 792.910156 160.273438 796.476563 169 C 803.476563 186.144531 821.5625 198.148438 836 208.574219 C 859.523438 225.5625 883.980469 242 904.714844 262.425781 C 919.261719 276.753906 928.960938 295 946 306.796875 C 971 324.152344 1002.722656 328.304688 1029 343.429688 C 1049.347656 355.140625 1064.265625 374.308594 1087 382 C 1060.4375 337 1011.550781 318.035156 969 292 C 937.347656 272.527344 910.40625 247.324219 881 225 C 862.992188 211.144531 844.59375 197.367188 828 182 C 823.265625 177.5 813.214844 169.371094 813.65625 162.019531 C 814 155.238281 825.191406 155.320313 830 154.574219 C 842.859375 152.582031 855.96875 151 869 151.003906 C 873.726563 151.058594 880.964844 151.320313 884.667969 154.703125 C 889.21875 159 883.582031 167 883.484375 172 C 883.351563 179 889 186.0625 893.300781 191 C 908 208.296875 924.953125 224 941 240 C 950.621094 249.671875 959 260.785156 970 269.101563 C 989.695313 284.082031 1012.964844 295.019531 1034 308 C 1025.921875 298 1017.5 288.335938 1007 280.746094 C 994.429688 271.660156 979.910156 265.597656 968 255.5625 C 951.996094 242.074219 940.875 224.242188 927.996094 208 C 920.667969 198.757813 899.65625 179.792969 901.273438 167.003906 C 902.257813 159.207031 912.984375 157.203125 915.851563 150 C 919.550781 140.714844 917.230469 131 925 123.183594 C 928.714844 119.667969 934.691406 115.246094 940 115.328125 C 943.683594 115.386719 946.683594 118.15625 950 119.441406 C 958.523438 122.742188 969.433594 123.5 963 135 M 995 155.601563 C 1002.820313 152.269531 1014.734375 159.234375 1022 161.410156 C 1032.660156 164.601563 1044.335938 166.722656 1054 172.453125 C 1069.714844 181.773438 1080.460938 198.09375 1092.984375 211 C 1100.933594 219.191406 1106.386719 229.121094 1113.449219 238 C 1119.898438 246.109375 1127.671875 253.257813 1133.300781 262 C 1136.992188 267.734375 1138.800781 274.429688 1142.789063 280 C 1150 290.097656 1160.992188 296.480469 1167.921875 307 C 1204.929688 363.175781 1233.238281 426 1263.246094 486 C 1278.28125 516.066406 1292.246094 548.410156 1317 572 C 1322.679688 577.363281 1330.429688 580.554688 1335.722656 586.300781 C 1337 587.824219 1339.871094 592.039063 1336.640625 593.292969 C 1328.179688 596.566406 1311.949219 580.058594 1307 575 C 1283.589844 551 1267 518.738281 1252.246094 489 C 1234.691406 454 1223 415.691406 1202.796875 382 C 1187.429688 356.550781 1166.40625 335.667969 1148.664063 312 C 1141 301.828125 1137.816406 289.359375 1130.558594 279 C 1116.542969 259 1099.449219 241.003906 1085 221 C 1072.265625 203.003906 1055 182.304688 1032 177.808594 C 1022 176 1010.574219 183.5625 1001 178.683594 C 995.765625 176 986.726563 159.265625 995 155.601563 M 163 594 C 166.171875 580.652344 180 574.683594 188.828125 565 C 202.632813 549.664063 213.886719 531.085938 223.691406 513 C 238.605469 485.492188 250.917969 456.78125 265.257813 429 C 279.25 402 295.183594 375.828125 309.691406 349 C 318.484375 332.746094 326 315.691406 335.816406 300 C 341.769531 290.472656 351.230469 284.402344 358.410156 276 C 373 258.796875 386.199219 240.167969 398.191406 221 C 406.699219 207.410156 421.527344 187.46875 435 178.699219 C 447.199219 170.757813 461.34375 167.460938 475 163 C 481 161.011719 502.28125 151.265625 506.972656 158.316406 C 511.953125 165.808594 501.753906 179.503906 495 182 C 485 185.554688 472.644531 179.351563 462 182 C 433.363281 188.75 420.910156 214 406.574219 237 C 395.691406 254.472656 375.488281 261.109375 364.546875 278 C 356.199219 291 352.46875 306.128906 343.996094 319 C 326 346.109375 303.828125 370.027344 288.785156 399 C 278.175781 419.429688 271.746094 442 262.574219 463 C 255.203125 480 245.1875 495.824219 236.304688 512 C 223.910156 534.570313 210.308594 556.691406 192 575 C 184 583 174.628906 592.257813 163 594 M 337 169 C 333 177.394531 323.472656 182.078125 316 187 C 298.238281 198.683594 277.972656 205.636719 257 208.726563 C 239.71875 211.273438 217.269531 211 203 222.527344 C 201.761719 223.558594 197.847656 226.800781 200.464844 228.394531 C 206.507813 232.082031 222.472656 227.09375 230 228.464844 C 233.628906 229.125 239 230.519531 239.453125 235.019531 C 240 243.773438 220.566406 257 215 263 C 218.335938 261 221.457031 258.683594 225 257 C 220.957031 271.777344 211 284.429688 204.246094 298 C 191.9375 322.597656 181 352.203125 162.828125 373 C 155.945313 380.816406 149.5625 389 142.996094 397 C 141 399.261719 137.917969 404 134.429688 402 C 129.195313 399 128.660156 382.421875 128 377 C 126.246094 361.003906 132.894531 352 136.625 337 C 139.949219 323.722656 140 309 147.46875 297 C 152.5625 288.753906 163.460938 284.058594 165.601563 274 C 166.824219 268.257813 163.292969 245 155.988281 244 C 151.539063 243.28125 144.957031 263.144531 143 250 C 142.925781 248.691406 143 247.3125 143 246 C 143 244 143 242 143.300781 240 C 147 213.308594 168.640625 205.746094 190 195.242188 C 223.476563 178.785156 261.402344 166.058594 299 165.128906 C 311.675781 164.816406 324.359375 168.457031 337 169 M 1281 262 C 1284.484375 263.003906 1287.65625 264.609375 1291 266 C 1283.65625 258.65625 1276.402344 251.570313 1268 245.425781 C 1264.996094 243.226563 1260 240.417969 1260.464844 236.019531 C 1260.910156 231.535156 1266.351563 230.128906 1270 229.464844 C 1281 227.460938 1293.789063 228.480469 1305 228 C 1292.402344 215.269531 1268 209.726563 1251 207 C 1219.394531 201.722656 1182.929688 198 1161 171 C 1172.628906 164.453125 1187 166 1200 166 C 1238 166.015625 1277.183594 178 1311 194.753906 C 1325 201.804688 1342.863281 208.570313 1350.691406 223 C 1353.28125 227.769531 1362.4375 241.179688 1358.933594 246.664063 C 1355.847656 251.484375 1350.933594 243.214844 1347.226563 244.347656 C 1340.230469 246.484375 1340.578125 267.78125 1342.5625 273 C 1345.847656 281.636719 1354.589844 286.625 1358.320313 295 C 1363.332031 306.253906 1360.726563 318.265625 1362.429688 330 C 1363.738281 339.035156 1369.6875 345.453125 1372.214844 354 C 1374.984375 363.363281 1373 372.488281 1373 382 C 1373 387.484375 1374.589844 396.300781 1370.484375 400.683594 C 1367 404.304688 1362.429688 402.335938 1359.289063 399.515625 C 1351.683594 392.683594 1345.769531 383 1339.25 375 C 1323.941406 356.460938 1315.414063 333.324219 1304.753906 312 C 1296.652344 295.800781 1285.808594 279.589844 1281 262 M 763 414 L 764 414 C 774.640625 391.101563 777 365 780.730469 340 C 782.375 328.574219 782.628906 315.464844 787.996094 305 C 797.984375 285.523438 829.699219 290.691406 841 306 L 829 307 L 829 308 C 835.996094 308.558594 846.570313 310 851.605469 315.226563 C 854.5 318.320313 855.246094 322.726563 858.226563 325.789063 C 861.644531 329.308594 867.527344 330.691406 869.972656 335.105469 C 871.941406 338.65625 871 343.234375 873 347 C 876.324219 353.671875 881.996094 357.8125 880.675781 366 C 877.863281 383.375 861.636719 396.308594 850 408 C 844.734375 413.289063 839.171875 423.484375 831.996094 426.121094 C 823.867188 429.113281 823 417.179688 823 412 C 822.496094 390.78125 822.460938 370.378906 815.667969 350 C 814.644531 347 808.960938 326.179688 804.558594 328.207031 C 800.53125 330.0625 803.289063 346.417969 803.714844 350 C 806.25 371.429688 813.910156 395.496094 811.828125 417 C 809.292969 443.214844 800.789063 466.210938 801.960938 493 C 802.273438 500.113281 799.726563 514.019531 805.925781 519.363281 C 808.75 521.796875 810.335938 515.714844 810.855469 514 C 812.347656 509.070313 816 493.128906 823.816406 495.660156 C 830.257813 497.75 830.957031 509.59375 832.234375 515 C 835.652344 529.429688 842.875 542.566406 848.859375 556 C 851.558594 562.050781 855.539063 568.113281 855.410156 575 C 855.265625 582.628906 849.179688 586.632813 842 585.695313 C 830.316406 584.171875 817.875 574 806 576.53125 C 798.3125 578.257813 788 590.003906 780 585.816406 C 770.9375 581.023438 776.445313 563.074219 770 555 C 769 557.160156 768.292969 559.078125 767 561 C 757.984375 540.640625 753.183594 510.242188 753 488 C 740.28125 503.480469 746 526.046875 740 544 C 737.519531 540.3125 736.207031 536.171875 733 533 C 731.1875 547.027344 728.601563 561 726.949219 575 C 726.355469 580.035156 724.964844 586 718.996094 586.726563 C 708.722656 588.027344 701.242188 575.328125 690 576.097656 C 679 577 652.3125 596 645.742188 579 C 642.921875 571.710938 648.167969 562.386719 651.257813 556 C 658 542 664.703125 527.359375 668 512 C 669 507 670.558594 494.726563 677.988281 495.464844 C 686.769531 496.339844 689.226563 516.085938 694 522 C 708.785156 485.761719 690.613281 448.195313 687.171875 412 C 685.9375 399.039063 691.238281 385.71875 693 373 C 694.609375 361.378906 695.339844 349.648438 696.714844 338 C 696.925781 336.226563 698 328.054688 694.90625 328.054688 C 690.992188 328.054688 687 344.78125 686 348 C 679.46875 367.777344 679.25 389.378906 679 410 C 678.941406 415.347656 680.257813 428.683594 670.996094 426.441406 C 663.304688 424.578125 656.402344 412.402344 651 407 C 640.484375 396.480469 617.410156 377 619.253906 360 C 619.9375 353.734375 625.910156 350.496094 628 345 C 629.441406 341.800781 628.613281 338.132813 630.742188 335.214844 C 633.238281 331.792969 637.84375 331 640.722656 327.785156 C 643.484375 325 644 320.570313 648 319 C 653 316.785156 668 318.570313 669.21875 311.089844 C 670.171875 305.234375 657.816406 308 655 308 L 655 307 C 664.378906 303.828125 673.441406 300.082031 683 297.425781 C 692.609375 294.753906 707.886719 291.746094 713.425781 303.015625 C 716.914063 310.109375 715.214844 321.167969 716 329 C 718.421875 348 722 366.394531 725.996094 385 C 727.894531 394.171875 729 405 737 411 C 732.230469 396 731.398438 378.675781 729.832031 363 C 726 325.117188 727 286.152344 736 249 C 739.191406 236.386719 742.402344 224 744.410156 211 C 744.90625 207.816406 744.371094 198.628906 749.933594 200 C 754.441406 201.058594 754.929688 208.371094 755.882813 212 C 759 224.351563 763 236.488281 765.789063 249 C 773.722656 286.472656 772.449219 326.113281 768.828125 364 C 767.242188 380.617188 763 397.300781 763 414 M 1383 460 C 1387.890625 438.671875 1396.398438 419.101563 1397.910156 397 C 1400.335938 361.621094 1389.5625 326.800781 1385.285156 292 C 1384.191406 283.085938 1387.609375 275.652344 1387.960938 267 C 1388.28125 259.058594 1385.421875 251.441406 1383 244 C 1407.910156 252.46875 1395.46875 281.175781 1397.171875 299 C 1400.960938 338.679688 1410 378.128906 1402.195313 418 C 1399.449219 432.007813 1394.824219 451 1383 460 M 121 468 C 113.5 461.070313 109 448.378906 105.398438 439 C 87.605469 394.144531 103.449219 348.828125 103.996094 303 C 104.171875 288.296875 97.40625 272.058594 103.914063 258 C 105.414063 254.761719 110.726563 245.421875 115.394531 246.832031 C 118.835938 248 114.695313 257 114.25 259 C 111.671875 271.257813 118.402344 282.476563 114.988281 295 C 109 317 107.453125 339.476563 105.910156 362 C 104.652344 380.324219 102.355469 398.683594 105.433594 417 C 108.398438 434.621094 118.410156 450.464844 121 468 M 214 263 L 215 264 L 214 263 M 256 313 C 250.945313 328 240.304688 342.054688 239 358 C 250.300781 346.699219 257.980469 330.175781 271 321 C 263 355.195313 244.316406 387.1875 234.425781 421 C 230.355469 435 226.53125 454.222656 212 461 C 214.390625 452.742188 218.339844 445.160156 221 437 L 220 437 C 215.980469 449.328125 209.535156 465 199 473 C 201.824219 460.789063 206.917969 447.460938 212 436 C 202.710938 445.007813 200.816406 459.359375 188 465 C 190.226563 454.351563 196.871094 446 201 436 C 195.46875 441.578125 190.777344 448.261719 184 452.4375 C 182.308594 453.480469 175.25 456.617188 175.921875 452 C 176.542969 447.417969 183 443 185.996094 440 C 192.363281 433.554688 198.386719 426.378906 202 418 C 190.320313 427.503906 177.867188 440.605469 162 442 C 170.78125 428 182.667969 415.019531 193 402 C 180.679688 407.828125 169.59375 416 157 421.425781 C 154 422.664063 146.953125 427.117188 144 424 C 141.507813 421.222656 146.230469 417.15625 148 415.613281 C 154.839844 409.738281 162 404.386719 169 398.574219 C 189.746094 381.046875 209.191406 361.628906 227.960938 342 C 236.789063 332.769531 244.515625 319 256 313 M 1248 314 C 1275.839844 342 1299.628906 373.417969 1330 398.714844 C 1337 404.632813 1344.976563 409.589844 1351.980469 415.613281 C 1353.921875 417.285156 1358.429688 421.21875 1355.953125 424.167969 C 1353.214844 427.425781 1345.648438 422.613281 1343 421.21875 C 1331.617188 415.230469 1320.902344 408 1309 403 C 1317.777344 417.226563 1330.761719 428.726563 1339 443 C 1322.851563 438.347656 1312 425.117188 1298 417 C 1304.265625 425.210938 1309 434.320313 1316.285156 442 C 1318.890625 444.679688 1324.867188 448.230469 1324.453125 452.679688 C 1324 457.167969 1316.503906 452.28125 1315 451.210938 C 1307.953125 446.199219 1301.703125 438.796875 1298 431 L 1297 431 C 1301.765625 442.390625 1310 452.507813 1312 465 C 1298.769531 458.136719 1296.601563 443.65625 1288 433 C 1293.4375 444.585938 1299.953125 459.175781 1301 472 C 1290.585938 464.011719 1284.953125 449.132813 1281 437 L 1280 437 C 1282.710938 445.316406 1287.519531 453.394531 1289 462 C 1273.417969 452.171875 1270.5 433.15625 1264.996094 417 C 1253.953125 384.582031 1242.320313 352 1230 320 C 1244.761719 327.027344 1248.683594 348.539063 1262 358 C 1260.585938 347.503906 1255.636719 337.683594 1251.574219 328 C 1249.789063 323.738281 1246.628906 318.636719 1248 314 M 1308 402 L 1309 403 L 1308 402 M 212.332031 433.667969 C 212.277344 433.722656 212.222656 434.777344 212.667969 434.332031 C 212.722656 434.277344 212.777344 433.222656 212.332031 433.667969 M 201 435 L 202 436 L 201 435 M 309 579 C 312.558594 552.566406 319 520.585938 335.503906 499 C 353.617188 475.234375 390.5625 460.039063 419 453 C 436 448.597656 453.765625 451.621094 471 448.714844 C 481.203125 447 490.667969 442.570313 501 441.285156 C 537.414063 436.753906 572.859375 445.632813 595.960938 476 C 625.628906 515 621.214844 566.8125 593 605 C 587.554688 612.554688 575.417969 633.289063 565 634.027344 C 560.640625 634.351563 562 628.511719 562.726563 626 C 565.300781 617 569.496094 608.394531 571 599 C 576.726563 565.503906 578.308594 512.664063 551.960938 487.089844 C 526.433594 462.3125 495.386719 478.3125 466 484.191406 C 451.578125 487.078125 438.300781 483.285156 424 484.09375 C 400 485.445313 376.757813 496.398438 359 512.171875 C 345.585938 524.089844 334.550781 537.824219 325 553 C 319.753906 561.460938 317 572.753906 309 579 M 1192 580 C 1183 570.394531 1177.914063 556 1170.277344 545 C 1153 520.402344 1128 498.253906 1099 489.027344 C 1076.933594 482.035156 1054.644531 489 1033 484.113281 C 1003.722656 477.511719 967.492188 462.035156 944.667969 491 C 929.964844 509.660156 928.949219 531.382813 927.960938 554 C 927.292969 569.269531 926.414063 584.816406 929 600 C 930.691406 609.132813 934.984375 617.191406 937.5625 626 C 938.214844 628.234375 940 634.363281 935.851563 634.246094 C 932 634.144531 928.472656 629.457031 926 627 C 919 620.058594 912.511719 613 906.628906 605 C 877.859375 566.335938 874.488281 515.457031 903.894531 476 C 926.742188 445.347656 962.484375 436.484375 999 441.289063 C 1008.984375 442.601563 1018 447.191406 1028 448.726563 C 1047.691406 451.773438 1067.507813 449.742188 1087 455 C 1113.394531 462 1142 474.757813 1160.910156 495 C 1180.71875 516.277344 1191.761719 551.207031 1192 580 M 533 497.382813 C 542.402344 496 548.96875 507.09375 552.691406 514 C 563.296875 533.679688 565.417969 556.113281 563.910156 578 C 563.371094 585.816406 561.398438 601.578125 551.996094 603.667969 C 542.441406 605.789063 538.316406 592.789063 536 586 C 529 565.699219 526 543.390625 526 522 C 525.949219 514.449219 521.75 499.148438 533 497.382813 M 966 497.488281 C 978 497.355469 974 514.738281 974 522 C 973.964844 543.292969 970.980469 564.621094 964.71875 585 C 962.570313 592 959.3125 604.179688 950 604 C 938.984375 603.429688 937.261719 586.152344 936.285156 578 C 933.734375 556.671875 937.671875 534.15625 947.246094 515 C 950.898438 507.703125 956.613281 497.59375 966 497.488281 M 1156 545 L 1148 543 C 1155 552 1170.398438 569.726563 1168 582 C 1160.6875 576 1156.613281 566 1149.960938 559 C 1131 539.203125 1110.625 531.113281 1084 527.574219 C 1073.921875 526.234375 1064 528.109375 1054 529.164063 C 1051.539063 529.425781 1045.820313 531.054688 1044.75 527.582031 C 1043 522.277344 1054.703125 520 1058 519.285156 C 1074 516 1089.785156 518 1106 518 C 1092.25 508.601563 1072.191406 507.328125 1056 508.039063 C 1049.644531 508.316406 1035.878906 513.53125 1030.621094 508.273438 C 1026.28125 504 1035.445313 502 1038 501.398438 C 1049 499.136719 1060.253906 498.035156 1071.484375 497.414063 C 1101.957031 495.742188 1143.808594 516 1156 545 M 392 516 L 392 518 C 408.902344 518 425.199219 515.660156 442 519.425781 C 444.40625 520 460 524.324219 454.378906 529 C 450 532.441406 435.261719 527.671875 430 527.171875 C 414.757813 525.71875 397 529 383 535 C 370.660156 540.15625 359.550781 548 350.730469 558.003906 C 345.207031 564.371094 340.585938 575.292969 333 579 C 333.699219 565.53125 345.867188 553.523438 352 542 C 349.375 543.714844 346.988281 545.054688 344 546 C 345.933594 536.003906 355.476563 527.808594 363 521.613281 C 385.195313 503.339844 407.855469 498 436 498 C 445.242188 498.015625 454.941406 499.640625 464 501.464844 C 466.492188 502 473.351563 503.660156 470.914063 507.609375 C 468.835938 511 462.308594 510.136719 459 510 C 446.585938 509.058594 435.496094 507.34375 423 509.273438 C 412.609375 511 402.414063 515.09375 392 516 M 534 606 C 522.921875 595.039063 518.644531 573.53125 510.386719 560 C 504.863281 551 494.824219 544.054688 491 534 C 488.535156 527 490.40625 517.019531 498 514 C 509.582031 509.050781 515.949219 522.46875 519.394531 531 C 525.824219 547 526.902344 564.195313 529.285156 581 C 530.472656 589.382813 533.632813 597.539063 534 606 M 968 606 C 965.214844 599.34375 969.425781 590.78125 970.566406 584 C 973.6875 565.421875 974.679688 546.617188 982 529 C 985.320313 521.050781 992.578125 509 1002.996094 514.179688 C 1011.339844 518.40625 1012.265625 528.363281 1008.671875 536 C 1003.914063 546.113281 994.632813 553.5 988.8125 563 C 980.492188 576.570313 975.40625 592 968 606 M 403 585.34375 C 425.539063 580.757813 427.402344 622 408 626.464844 C 386.765625 631.363281 383.792969 589.253906 403 585.34375 M 1096 586.394531 C 1112.875 582.597656 1118.628906 609.25 1102 612.65625 C 1084.265625 616.285156 1078.75 590.277344 1096 586.394531 M 1071 906 L 1070 906 C 1066.761719 888.5625 1065 872 1058.945313 855 C 1049.253906 828.558594 1032.699219 806.03125 1018.453125 782 C 1008.765625 765.664063 1002.445313 746.496094 987 734.390625 C 976.605469 726.242188 963.265625 727.058594 951 724.550781 C 941.933594 722.695313 934.195313 718.273438 927 712.550781 C 910.589844 699.5 896.3125 684 879 672.027344 C 839.660156 645 781.378906 623.5625 733 628.171875 C 715.3125 630 699.449219 636.316406 683 642.574219 C 660.316406 651.203125 636.863281 660 617 674.15625 C 599.570313 686.683594 585.675781 703.515625 568 715.652344 C 550 728 526.179688 724.273438 509 737.527344 C 494.21875 749 488.433594 768.320313 479.574219 784 C 458.570313 821.179688 432.921875 858.324219 432 903 L 431 903 C 431 855.71875 452 811.386719 472.753906 770 C 484.867188 745.769531 495.933594 723.683594 518 707 C 532.34375 696 543 683.660156 561 679 L 561 678 C 546.253906 677.355469 553 668.253906 563 664.699219 C 578.695313 659.039063 597 663.101563 611.996094 655.175781 C 622.171875 649.769531 622.546875 638 635 635 C 621.378906 627.019531 629.398438 619.214844 642 615.441406 C 659.355469 610.242188 678.28125 612 696 607.765625 C 714.347656 603.421875 732.628906 592.214844 752 593.210938 C 778.496094 594.570313 806.410156 605.824219 832 612.371094 C 843.636719 615.347656 856.628906 614.003906 866.984375 621 C 870 623.058594 873.6875 626.765625 872.355469 631 C 871.855469 632.4375 868.371094 635 869.207031 636.507813 C 870.3125 638.675781 875 639.351563 876.960938 640.703125 C 881.472656 644 884 648.808594 889 651.636719 C 900.878906 658.546875 915.691406 659.113281 928 665.269531 C 941.171875 672 950.605469 683.328125 962 692.335938 C 973.328125 701.289063 986.558594 708 996.960938 718.089844 C 1011.8125 732.539063 1019.179688 753 1028.246094 771 C 1049.476563 813.460938 1070 857.632813 1071 906 M 372 598.476563 C 377.859375 597.199219 380.847656 603.066406 380.917969 608 C 381 618.824219 376 629.140625 376 640 C 375.988281 642.195313 377.320313 652.792969 373.785156 652.792969 C 369.40625 652.792969 367.847656 643.058594 367 640 C 364.609375 631.230469 358.476563 601.441406 372 598.476563 M 1130.957031 601 C 1141.707031 602 1132.914063 621.167969 1124 620.742188 C 1115 620.3125 1122.472656 600.175781 1130.957031 601 M 448 613.542969 C 455.296875 612.304688 457.59375 623.761719 449.984375 624.726563 C 442.472656 625.679688 440.675781 614.792969 448 613.542969 M 1156 619 C 1165.957031 672 1121 713.785156 1069 705.5625 C 1051 702.726563 1034 695 1019 685 C 1015.242188 682.523438 1006.914063 679.285156 1005.242188 675 C 1003.839844 671.21875 1007.773438 667.316406 1008.828125 664 C 1011.175781 656.621094 1009.464844 649.597656 1013 642 C 1021.804688 651.371094 1024.1875 665 1034 673.710938 C 1065.257813 701.613281 1114.765625 698.304688 1140 664 C 1146 655.773438 1150.851563 646 1153 636 C 1154.390625 630.351563 1153.449219 624.304688 1156 619 M 346 620 C 348.277344 673 404.40625 711.21875 453 684.6875 C 465.742188 677.730469 476.730469 667.011719 483.242188 654 C 484.539063 651.40625 487.191406 642 491.457031 645.464844 C 495.808594 649.097656 505.660156 672.386719 501.667969 676.582031 C 495.800781 682.746094 482.667969 686.472656 475 690.242188 C 433.464844 710.664063 368.96875 715.03125 348.8125 663 C 344.710938 652.421875 338.3125 630 346 620 M 1038.972656 626.175781 C 1042.664063 626.613281 1044 631.152344 1045.433594 634 C 1047.871094 639.3125 1065 664 1048 661.769531 C 1037.742188 660.46875 1032.84375 647 1032.183594 638 C 1031.894531 634.066406 1033.363281 625.507813 1038.972656 626.175781 M 1063 966 L 1062 966 C 1057.558594 955.539063 1056.738281 943.058594 1054 932 C 1046.304688 899.054688 1038.316406 862.1875 1018.5625 834 C 996.890625 803.070313 964.261719 785.429688 934 764.28125 C 903.894531 743.242188 874.988281 720.125 846 697.574219 C 817.988281 675.785156 787.375 653.585938 750 655.039063 C 679.605469 657.78125 629.46875 716.277344 577 755.625 C 550.234375 775.695313 517.804688 790.726563 495.285156 816.003906 C 470.398438 844 458.382813 878.136719 449.882813 914 C 445.996094 930.40625 445.566406 951 438 966 C 434.8125 961.726563 437 955.019531 437.730469 950 C 439.636719 936.644531 441.53125 923.308594 443.753906 910 C 451.785156 862 468.867188 821.554688 493.800781 780 C 503.546875 763.757813 511.40625 743.730469 530 736 C 544.835938 729.609375 559.746094 728.101563 574 719.550781 C 611.773438 697 642.675781 662.191406 684 645.453125 C 701.414063 638.398438 721.382813 636.363281 740 635.089844 C 763.785156 633.460938 797 637.527344 819 647.3125 C 849 660.789063 873.417969 684.574219 900 703.574219 C 911.996094 712.148438 925 720.742188 939 725.65625 C 952.269531 730.308594 967.988281 731.785156 979 741.210938 C 992 752.414063 999.472656 769.457031 1008.199219 784 C 1032.550781 824.585938 1048 864.34375 1056.425781 911 C 1059.183594 926.308594 1067.324219 951 1063 966 M 1122 1053 L 1120 1053 C 1120.214844 1027 1125.515625 990.300781 1139.695313 968 C 1145.394531 959.039063 1152.523438 951.476563 1160 944 C 1163.980469 940.019531 1170 935.550781 1171.933594 930.019531 C 1173.910156 924.058594 1167 925.320313 1164 927.265625 C 1157.597656 931.296875 1153.195313 937.753906 1147 942.054688 C 1144.675781 943.671875 1140.449219 946 1139.332031 942 C 1137.675781 935.714844 1143.394531 927.40625 1145.71875 922 C 1151.863281 907.71875 1157.359375 893 1161.972656 878 C 1177.726563 827.308594 1184.78125 774.558594 1191 722 C 1193.238281 704.828125 1197.304688 687.722656 1201.628906 671 C 1202.761719 666.625 1206 655.3125 1212.773438 659.046875 C 1218.84375 662.394531 1218.707031 675.089844 1220 681 C 1224.855469 700.621094 1233 719.257813 1237.425781 739 C 1241.574219 757.824219 1241.726563 776.4375 1235.972656 795 C 1232.554688 806.039063 1226.441406 816 1223 827 C 1217.820313 843.808594 1215.703125 861.253906 1209.996094 878 C 1200 907.171875 1185 934.597656 1169.394531 961 C 1151.296875 991.363281 1126.90625 1016.578125 1122 1053 M 379 1054 C 369.414063 1041.136719 369.8125 1021.078125 360.65625 1007 C 337.964844 972.117188 314.675781 939.722656 298.425781 901 C 288.503906 877.359375 284 853.464844 277.253906 829 C 271 806.730469 258.964844 787.808594 259 764 C 259 736.738281 271 710.792969 278.421875 685 C 280.21875 678.703125 281.5625 672.378906 283 666 C 283.335938 664.59375 283.941406 660.207031 286 660.207031 C 289.320313 660.207031 292.796875 671.472656 293.796875 674 C 299.910156 689.429688 302.957031 705.789063 306.199219 722 C 312.925781 755.632813 319 789.371094 325.800781 823 C 328.941406 838.71875 330.425781 854.714844 335.515625 870 C 341.214844 887.113281 347.300781 904.128906 353.683594 921 C 355.882813 926.808594 362 935.371094 360.476563 942 C 359.511719 946 355.394531 944.230469 353 942.605469 C 346.476563 938.171875 341.609375 931.648438 335 927.34375 C 332 925.5 325.558594 924.394531 326.890625 930.019531 C 328 935.355469 335.296875 940.296875 339 944 C 347.824219 952.824219 356.316406 962 362.21875 973 C 375.839844 998.644531 373.871094 1026.382813 379 1054 M 828 722 C 820.773438 719.035156 809.558594 719.699219 820 728.320313 C 827 734.042969 838.640625 734.824219 844.472656 741.527344 C 847.632813 745.164063 843.546875 749.101563 845.875 752.570313 C 849.242188 757.59375 855.589844 755.652344 857.472656 763 C 858.375 766.535156 858.59375 770.386719 858.230469 774 C 855.300781 803.210938 823.648438 796.46875 809.183594 780 C 805.796875 776.140625 802.839844 771.335938 803.226563 766 C 803.675781 759.761719 808 754.101563 804.257813 748 C 799.28125 740 787 732.742188 779.226563 741.109375 C 774 746.519531 773.574219 755 772.925781 762 C 771.304688 779.449219 769.777344 805.640625 788 815.582031 C 800 822.148438 820 815.285156 829.679688 826.214844 C 834.1875 831.324219 829.757813 838.378906 826.640625 843 C 818.488281 855.09375 804.558594 863.265625 790 864.332031 C 779 865.125 779.34375 858.03125 774 851 C 761.378906 834.277344 761.308594 808.453125 757.75 788 C 756.949219 783.402344 755.527344 763.632813 749.988281 762.632813 C 746.742188 762.042969 745.898438 768 745.425781 770 C 743.324219 779.277344 741.664063 788.671875 739.800781 798 C 737.378906 810.101563 738 831.53125 731.558594 841.769531 C 728 847.183594 721.363281 841 718.179688 846.164063 C 715 851.269531 720.6875 858.824219 716.257813 863.257813 C 713 866.425781 706.765625 864.601563 703 863.789063 C 690.222656 861.03125 678.292969 853 671 842 C 654.398438 816.421875 701 821.46875 713 814.003906 C 729.984375 803.421875 728.710938 777.101563 726.269531 760 C 725.386719 753.796875 724.761719 747.070313 720.605469 742.042969 C 712.644531 732.414063 699.433594 739 694 748 C 689.601563 755.378906 696 761.546875 694.589844 769 C 692.222656 780.640625 664.375 802.375 652.363281 792 C 645.605469 786.152344 664.191406 781.492188 660 775.539063 C 656.6875 770.757813 645 781.207031 642 783 C 644 776.445313 650.328125 769.109375 640 767 C 640.808594 763.136719 641.585938 757.628906 646 756.472656 C 649.796875 755.527344 653.546875 758 656.664063 754.683594 C 661.976563 749.261719 650.976563 748.8125 653.175781 744.339844 C 656 738.507813 672.273438 736.492188 678 734.65625 C 681.566406 733.511719 699.425781 728.40625 696 722.355469 C 693.578125 718 673.738281 726.613281 669 727 C 672.210938 719.703125 678.171875 714.425781 685 710.464844 C 695.5625 704.335938 708.40625 701.773438 720 698.28125 C 733 694.328125 745.96875 689 760 691.46875 C 771.882813 693.695313 781.796875 702 793 706 C 804.390625 710.125 819.90625 712.234375 828 722 M 747 696.027344 C 742 698.441406 739.445313 703.421875 734 705.058594 C 725.382813 707.644531 716.539063 704 709 710.226563 C 705.816406 713 695.820313 724.570313 705 726.472656 C 710.824219 727.660156 715.824219 721.722656 720 718.785156 C 726.230469 714.402344 734.359375 711.386719 742 711.039063 C 751.261719 710.617188 764.714844 711.664063 772.960938 716.304688 C 778.683594 719.523438 784.476563 731.371094 792.683594 727.257813 C 798.742188 724.21875 791.839844 715.710938 788.984375 713.214844 C 780.917969 706.15625 769.320313 703.683594 760 698.691406 C 755.972656 696.535156 751.628906 693.738281 747 696.027344 M 1127 716 L 1127 717 C 1106 729.25 1083.855469 732.039063 1060 732 C 1049.945313 732 1036.820313 731.308594 1028 726 C 1020.296875 721.207031 1011.773438 708.160156 1006 701 C 1019.511719 705.714844 1031.308594 715.429688 1045 720.574219 C 1073.421875 731.257813 1099.351563 725.355469 1127 716 M 491 703 C 486.261719 709.726563 478.820313 720.496094 471.984375 725.03125 C 441.898438 745 399.703125 728.367188 371 716 C 377 714.730469 385.929688 720.1875 392 722 C 404.8125 725.355469 417.742188 726.542969 431 726 C 454.339844 725 469.90625 709.203125 491 703 M 1088 783 C 1097 772 1113 768.710938 1124 759.675781 C 1135.59375 750.015625 1142.398438 737 1149.71875 724 C 1152.878906 718.441406 1156.332031 709.449219 1163 707.335938 C 1176.433594 703.097656 1169.265625 730.007813 1167 735 C 1153.769531 766.191406 1130.757813 807.753906 1092 808 C 1087.6875 808.027344 1082.289063 809.207031 1078 807.757813 C 1073.652344 806.183594 1076.367188 802.300781 1079 800.46875 C 1086.464844 795.421875 1111.214844 783.003906 1088 783 M 411 783 C 409.328125 783 407.648438 783 405.976563 783.015625 C 388.460938 783.582031 415.253906 797.511719 418.980469 800.105469 C 422.992188 803 424.953125 807 418.980469 808.46875 C 376.78125 819.210938 345.5625 767.578125 332.425781 736 C 330.21875 730.699219 322.359375 702.335938 336.996094 707.746094 C 344.375 710.472656 347.4375 720.660156 350.78125 727 C 357 739.007813 364.824219 749.742188 375 758.824219 C 385.480469 768.179688 402.25 772.441406 411 783 M 806.316406 723.085938 C 801.605469 725.710938 805.421875 735.335938 810.773438 732.710938 C 816.167969 730.066406 811.453125 720.226563 806.316406 723.085938 M 634 745 C 631 755 623.796875 771.710938 617.351563 780 C 614.496094 783.515625 609.21875 785.265625 605.226563 782.257813 C 601.6875 779.589844 601 773.824219 603.742188 770.328125 C 606.882813 766.15625 613 765.039063 616.960938 761.671875 C 623.171875 756.335938 626.722656 749.210938 634 745 M 868 746 C 872.890625 749.757813 875.988281 754.535156 880.175781 759 C 884.167969 763.175781 889.648438 764.644531 893.890625 768.390625 C 900.539063 774.257813 896.605469 786 887 783.675781 C 876.835938 781.308594 875.691406 765 872 757 C 870.460938 753.40625 867.339844 750.042969 868 746 M 844.242188 765.070313 C 837.28125 769 847.464844 781.164063 853.550781 777 C 859.347656 773 849.699219 762.054688 844.242188 765.070313 M 401 1007 L 400 1007 C 400 980.671875 399.457031 954.3125 391.253906 929 C 384.265625 907.4375 371.320313 888.148438 361.246094 868 C 345.882813 837.273438 333.609375 807.261719 325 774 C 341.207031 780.28125 346.539063 803.695313 357.589844 816 C 366.382813 825.628906 377.976563 832.355469 389 839.191406 C 395.25 843.066406 403 847.132813 406.542969 854 C 408.90625 858.765625 406.910156 864.085938 406 869 C 404.46875 878.558594 402.753906 888.320313 402 898 C 399.585938 934.558594 405.734375 970.347656 401 1007 M 1175 774 C 1171.679688 816.089844 1142 856.46875 1123.257813 893 C 1105.171875 928.042969 1095 967.464844 1100 1007 L 1099 1007 C 1090.496094 972.484375 1099.355469 935.105469 1095.832031 900 C 1094.890625 890.617188 1092.996094 881.027344 1090.277344 872 C 1089 868 1085.609375 862.382813 1086.914063 858.109375 C 1088 854.363281 1092.8125 853.429688 1096 852.1875 C 1104 849.046875 1111.84375 845 1119 840 C 1143 823.511719 1149.558594 787.199219 1175 774 M 518 925 C 526.355469 920 533.46875 912.636719 542 908 C 551.648438 902.554688 562.957031 900.289063 573 895.691406 C 589 888.355469 603.789063 878.511719 620 871.578125 C 628.621094 868 636.558594 866.144531 646 867.175781 C 649.582031 867.566406 655.882813 869 654.339844 874 C 652.679688 879.339844 643.53125 882 639 884.246094 C 623.515625 892 608.417969 900.40625 593 908.242188 C 588.71875 910.417969 575.675781 914.464844 574.632813 919.773438 C 573.902344 923.46875 582.519531 921.214844 584 921 C 589.636719 919.613281 611.441406 912.121094 614.351563 920.148438 C 616 924.714844 610.863281 929 608.285156 932 C 602 939.164063 596.214844 946.671875 594 956 C 624.449219 935.285156 650.605469 903 689 897.132813 C 701.597656 895.234375 716.339844 894.277344 728 900.273438 C 733.558594 903.132813 740.304688 910.238281 735.257813 916.722656 C 727.613281 926.539063 703.382813 915.183594 693 916.171875 C 672.257813 918.144531 656 932 642 946 C 649.316406 945 655.914063 941 663 938.71875 C 678.703125 934 694.558594 931.238281 711 932.039063 C 720.417969 932.5 733 942 728.257813 953 C 725.585938 959 713 955.007813 708 955 C 688.863281 955 671 960.796875 654 969.109375 C 607 992 575 1032.359375 560.574219 1082 C 557.652344 1092 552.476563 1102.5625 552 1113 C 560.644531 1105.589844 563.871094 1090.25 568.28125 1080 C 576.671875 1060.496094 586.722656 1042.0625 600.71875 1026 C 624 999.125 660 983.652344 694 975.128906 C 704.402344 972.511719 715.226563 969.488281 726 969.039063 C 730 969 738 969.625 734.953125 976 C 731.203125 983.242188 716 985 709 987.332031 C 688 994.3125 666.242188 1002.035156 648 1014.722656 C 618.535156 1035.203125 594.183594 1063.257813 574.355469 1093 C 553.210938 1124.71875 529.273438 1166 486 1169 C 476 1169.59375 468 1166 461 1159 C 457.957031 1156 453.691406 1148.5625 449.238281 1147.78125 C 445 1147.066406 452.445313 1163.667969 453 1166 C 424.679688 1163.683594 421.890625 1126.808594 418.246094 1105 C 417 1098.03125 415.304688 1091.074219 415 1084 L 416 1084 C 433 1110 461.300781 1169.300781 500 1138.191406 C 507 1132.511719 512.40625 1125.058594 518 1118 C 524.425781 1110 532.183594 1101.515625 534 1091 C 509.460938 1101.585938 491.191406 1141.59375 460 1122.050781 C 455.726563 1119.371094 452 1116 449 1112 C 445.171875 1107.148438 441.726563 1102 440 1096 C 449.597656 1098.769531 457 1105.628906 467 1108.105469 C 503.703125 1117.324219 518.460938 1091 536 1064 C 543 1053.238281 549.878906 1042.222656 556 1031 C 557 1029.261719 562 1022 560 1020.035156 C 557.21875 1017.632813 547.769531 1029.230469 546 1031 C 531.964844 1045.035156 521.5625 1062.53125 507 1076 C 492 1089.605469 474.191406 1086.066406 461 1072 C 445.460938 1055.214844 440.179688 1033.511719 435 1012 C 440.460938 1015.609375 440.917969 1024.289063 443.441406 1030 C 448 1040.542969 456.601563 1049.332031 468 1052.101563 C 486.824219 1056.671875 499.988281 1042.152344 511.996094 1030 C 530.972656 1010.796875 547.574219 989.214844 564.210938 968 C 575 954.03125 587 941.355469 596 926 C 582 929.203125 572.421875 944.324219 562.984375 954 C 542.519531 975 522 997.425781 498 1014.277344 C 491.761719 1018.636719 483.953125 1023.238281 476 1022.609375 C 465.835938 1021.804688 458.335938 1009.410156 463.179688 1000.015625 C 466.367188 993.828125 474.523438 992 480 988.453125 C 490 982.011719 498.621094 973.375 507 965 C 518.726563 953.277344 532.769531 943 542 929 C 517.984375 934.757813 498.558594 974 471 967.464844 C 452.675781 963.222656 467.734375 943.777344 476 937.785156 C 483.351563 932.460938 491.816406 929 499 923.332031 C 516.34375 909.769531 532.492188 893.550781 549 879 C 554.648438 874 560.410156 868.695313 564 862 C 565 860.203125 567.621094 855.8125 565.878906 853.816406 C 563.757813 851.386719 552.3125 858.640625 549 859 C 551.898438 850.476563 560.820313 843.339844 566.984375 837 C 568.5625 835.378906 573.441406 831.398438 572.457031 828.65625 C 571.453125 826 566 830.125 565 831 C 557.746094 836.195313 551 842.234375 544 847.789063 C 536.390625 853.785156 527.445313 859.355469 522.53125 868 C 518.292969 875.464844 518.632813 884.179688 512.785156 891 C 503.382813 902 489.460938 907.179688 476 911 C 481.582031 902 496.3125 898.113281 503.480469 889 C 511.4375 879 512.328125 865.6875 519 855 C 529.878906 838 548.507813 827.648438 566 818.757813 C 578 812.640625 590.820313 806.285156 604 803.128906 C 607.433594 802.308594 617.648438 800.488281 616.964844 807.027344 C 616.53125 811.148438 610.996094 813 608 814.757813 C 601.316406 818.816406 595.992188 824 591 830 C 578.367188 845.707031 572.355469 866 558.824219 881 C 545.683594 895.652344 522.980469 904.226563 518 925 M 1022 908 L 1022 909 C 1007 907.777344 989 897.167969 981.53125 884 C 977.910156 877.621094 977.578125 870.128906 973.210938 864 C 968.65625 857.613281 962 853.078125 956 848.195313 C 949 842.648438 942.867188 836.445313 936 831 C 934.925781 830.074219 930 825.589844 928.890625 828.53125 C 927.722656 831.578125 932.230469 835.191406 934 837 C 939.597656 842.703125 945.667969 848.128906 948 856 C 945.929688 854.710938 944 853.296875 941.996094 852 C 935.722656 847.566406 930.722656 849.246094 934.867188 857 C 939.53125 865.730469 944.90625 873.066406 952 880 C 966.972656 894.59375 983.382813 911.460938 1000 924.101563 C 1008.445313 930.527344 1018.652344 934.035156 1027 940.527344 C 1033.480469 945.570313 1041.949219 957.074219 1033.773438 964.582031 C 1028.492188 969.429688 1021 967.382813 1015 965.304688 C 1000.734375 960.375 989.875 950.019531 978 941.128906 C 976.195313 939.773438 961.253906 928 959.613281 931 C 958.621094 932.742188 962 935.3125 963 936.285156 C 967.773438 940.78125 972.386719 945.386719 977 950 C 988.628906 961.628906 999.871094 974 1013 984 C 1019.949219 989.242188 1030.277344 991.792969 1035.484375 999.015625 C 1040.976563 1006.628906 1036.335938 1018.597656 1028 1022 C 1016.167969 1026.804688 1004.460938 1018 996 1010.726563 C 974.71875 992.738281 955.65625 972.648438 936 953 C 928.949219 946 921.585938 939 914 932.429688 C 912.503906 931.152344 908 926.34375 905.746094 928.035156 C 903.34375 929.808594 907.972656 934.679688 909 936 C 914.949219 943.65625 920.730469 951.445313 926.804688 959 C 945 981.65625 964 1004 983.964844 1025 C 992.449219 1034 999.523438 1045.3125 1011 1051 C 1027.40625 1058.792969 1047.21875 1048.339844 1055 1033 C 1058.351563 1026.40625 1058.316406 1016.167969 1065 1012 C 1059 1035.191406 1053 1057.757813 1035 1075 C 1023.445313 1086.003906 1005.199219 1089.007813 993 1077 C 986.617188 1070.433594 983.613281 1061.402344 978.429688 1054 C 972.433594 1045.433594 964.367188 1038.355469 957 1031 C 954.785156 1028.789063 944.65625 1016.828125 940.933594 1019.546875 C 938.34375 1021.433594 944.539063 1030.164063 945.574219 1032 C 952.601563 1044.4375 959.453125 1057 967 1069 C 982.773438 1094.070313 998.207031 1118.097656 1032 1108.570313 C 1042 1105.753906 1050.257813 1099.324219 1060 1096 C 1048.539063 1123.519531 1019 1136.359375 995 1116.246094 C 987.71875 1110.179688 981.308594 1103.195313 974 1097.144531 C 972.570313 1096 968 1091.722656 965.996094 1093.542969 C 963.28125 1096 975.941406 1109 977.550781 1111 C 989.59375 1126.074219 1002.9375 1147.492188 1025 1146 C 1046.542969 1144.363281 1061.554688 1123.179688 1071 1106 C 1075.285156 1098.5625 1078.304688 1089.546875 1085 1084 C 1083.378906 1104.519531 1079 1132.574219 1069.726563 1151 C 1066.75 1157 1059.316406 1168.597656 1051.1875 1166.640625 C 1043.578125 1164.804688 1056.878906 1148.707031 1051.589844 1147.769531 C 1046.695313 1147 1040.921875 1158.023438 1037.960938 1161 C 1029.78125 1169 1020.261719 1172.429688 1009 1170.191406 C 982.523438 1165 957.472656 1144.507813 943.425781 1122 C 934.460938 1107.636719 929 1091.441406 920.1875 1077 C 910.53125 1061.246094 897.695313 1047.476563 884 1035.171875 C 859.601563 1013.253906 827.644531 1001.214844 797 991 C 789 988.375 767.1875 985 765.542969 975 C 764.371094 968 773.363281 968 778 968.039063 C 791.878906 968.625 806 973.832031 819 978.34375 C 838.210938 985.011719 859 991.484375 876 1003.027344 C 900.695313 1020 916 1046.085938 927.71875 1073 C 932 1083 936.226563 1093 940.398438 1103 C 940.820313 1104.011719 943.976563 1112.355469 945.972656 1110.078125 C 948.167969 1107.574219 943.585938 1099.597656 942.746094 1097 C 938.761719 1084.695313 935.871094 1072.089844 931.1875 1060 C 913 1013.179688 871.238281 977.21875 824 961.671875 C 813 958.054688 801.59375 955.730469 790 956.015625 C 785.199219 956.132813 776.609375 959.476563 772.515625 956.128906 C 769.804688 954 770.238281 950.039063 770.8125 947 C 772.859375 936.105469 781 933.148438 791 931.589844 C 814.347656 928 833.230469 935.449219 853 947 C 844.859375 930.660156 823.828125 915.070313 805 915.746094 C 794.945313 916.105469 785 918.015625 775 918 C 771 918 766.386719 918.382813 763.871094 914.773438 C 760 909.347656 765.589844 903 770 900 C 779.625 893.71875 792.441406 896 803 898.003906 C 828.210938 903.144531 851.664063 914.136719 872 930 C 882.648438 938.136719 891.222656 949.226563 903 956 C 901 948.109375 896.863281 941.195313 891.714844 935 C 888.574219 931.21875 882.988281 926.484375 883.257813 921.058594 C 883.5 916.152344 889.511719 917 893 917.015625 C 903 917.257813 915.4375 920.148438 925 923 C 911.476563 906.277344 885.835938 897.832031 867 888.742188 C 861.175781 886 846.511719 882.246094 844.972656 875 C 844 871 848.910156 868.660156 852 867.46875 C 860.574219 864.15625 869.972656 866.695313 878 870.3125 C 894.796875 878 910.4375 887.730469 927 895.742188 C 936.429688 900.304688 946.824219 902.738281 956 907.796875 C 964.96875 912.738281 971.671875 920.4375 981 925 C 971 903.605469 952.722656 894.277344 938.324219 877 C 926.78125 863.148438 921 845.351563 910 831 C 904.34375 823.429688 897 818.078125 889 813.28125 C 886.492188 811.800781 882 809.722656 882.972656 806.070313 C 884.203125 801 891.339844 802.054688 895 803.015625 C 906 806 916.8125 810.671875 927 815.753906 C 944.324219 824.394531 963 832.785156 975.675781 848 C 984.796875 859 985.484375 873.40625 993 885 C 1000.332031 896 1011.464844 901.050781 1022 908 M 881 842.476563 C 891.308594 840 906.390625 863 894.941406 865.523438 C 887.457031 867.265625 881.460938 857.78125 879.273438 852 C 878 849 876.847656 843.574219 881 842.476563 M 614.984375 847.449219 C 626.820313 846.453125 615.882813 864.71875 607 865 C 595.589844 865 607.699219 848.0625 614.984375 847.449219 M 748 860.328125 C 751.621094 860.015625 759.898438 860.453125 761.671875 864.394531 C 763.925781 869.402344 752.964844 875.683594 749 876 C 744.75 876.277344 733.941406 870.601563 736.175781 865.226563 C 737.726563 861.496094 744.535156 860.628906 748 860.328125 M 619.617188 954.042969 C 616.683594 956.300781 620.730469 960 623.382813 958 C 626.316406 955.699219 622.269531 952.003906 619.617188 954.042969 M 872.621094 954.046875 C 869 956.800781 875 962.546875 878.351563 960 C 881.714844 957.253906 875.871094 951.511719 872.621094 954.046875 M 600.957031 966 C 594.460938 966.140625 588.355469 974.308594 586.648438 980 C 585.515625 983.785156 585.851563 989.648438 591 989.636719 C 597.851563 989.621094 604.273438 981.058594 605.605469 975 C 606.421875 971.289063 605.929688 965.675781 600.957031 966 M 897 968.757813 C 887.851563 972.292969 896.613281 987.527344 904.890625 984.382813 C 913.753906 981.015625 905.484375 965.519531 897 968.757813 M 691 1130 C 691 1138 692.824219 1160.234375 678.175781 1151 C 674 1148.328125 670.667969 1138.398438 665 1139.035156 C 658.53125 1139.804688 673.425781 1165.566406 656 1156.820313 C 647.4375 1152.523438 644.609375 1141.285156 641.65625 1133 C 641 1131.296875 639.335938 1125.101563 636.460938 1126.347656 C 633.894531 1127.457031 634 1132.785156 634.183594 1135 C 634.535156 1140 641.613281 1157 638.929688 1160.351563 C 635.691406 1164.496094 628.21875 1155.203125 626.636719 1153 C 608.375 1127.527344 629.9375 1085.519531 647.328125 1065.015625 C 651.195313 1060.457031 656.460938 1057.378906 661 1053.5625 C 684.914063 1033.449219 713.554688 1003 747 1001.210938 C 755.203125 1000.789063 763.648438 1005 771 1008 C 786.882813 1014.753906 803 1021.484375 817 1032 C 838.265625 1047.820313 851.640625 1071.675781 865.203125 1094 C 870.746094 1103.128906 877.902344 1111.589844 880.957031 1122 C 884.261719 1133.261719 880.320313 1144.359375 872.914063 1153 C 870.667969 1155.570313 867 1160.425781 863 1160.367188 C 860.1875 1160.324219 860.492188 1157.019531 860.945313 1155 C 862.636719 1147.394531 865.5 1141.035156 864.910156 1133 C 864.796875 1131.445313 864.398438 1125.054688 861.988281 1125.054688 C 859.398438 1125.054688 857.648438 1134.089844 856.996094 1136 C 854 1144.515625 848.605469 1159.410156 837 1158 C 826.574219 1156.40625 842.605469 1139.03125 833.851563 1138.035156 C 825.363281 1137.074219 823.414063 1153.691406 814 1152.132813 C 803.652344 1150.402344 812.855469 1132.746094 806.695313 1131.632813 C 803.898438 1131.125 801.441406 1135.296875 799.828125 1137 C 795.753906 1141.164063 789.976563 1144.582031 784 1142.140625 C 776.421875 1139.042969 774.367188 1129.324219 774 1122 C 773.957031 1120.171875 774.890625 1113.054688 771.789063 1113.054688 C 768.476563 1113.054688 767 1119.6875 766.1875 1122 C 763.566406 1128.734375 760.414063 1135.449219 753 1137.773438 C 742.328125 1141.117188 735.210938 1132 731.875 1123 C 730.957031 1120.527344 729.800781 1112.054688 726.183594 1112.054688 C 722.660156 1112.054688 722 1130 720.871094 1133 C 713.644531 1152.039063 700.488281 1136.683594 691 1130 M 741 1009.46875 C 733.78125 1010.832031 726.546875 1017.355469 737 1020.773438 C 744.410156 1023.199219 754.515625 1022.648438 761.996094 1020.761719 C 768.445313 1019.128906 769.578125 1014.300781 762.984375 1011.480469 C 756.511719 1008.714844 747.882813 1008.167969 741 1009.46875 M 344 1100 C 365.886719 1112.652344 371 1138 386 1156 C 381.328125 1121.34375 349.175781 1103.046875 335.308594 1073 C 331 1064 323.464844 1045.585938 331 1036.324219 C 335 1031.261719 339.621094 1039 341.65625 1042 C 348.449219 1052.414063 353.625 1063.722656 358.769531 1075 C 372.394531 1105 382.578125 1137.65625 404.300781 1163 C 419.703125 1181 440 1194 462 1202.1875 C 476.625 1207.722656 492.574219 1211.347656 508 1208 C 512.808594 1207 526.71875 1199.746094 530.972656 1204.027344 C 534 1207.179688 529.628906 1215 528.230469 1218 C 522.574219 1230.410156 516.449219 1242.308594 509.398438 1254 C 507.929688 1256.4375 499.824219 1266.308594 502.816406 1269.054688 C 506.945313 1273 522 1258.492188 525 1256 C 544.875 1238.328125 557 1211.066406 581 1198.324219 C 587.703125 1194.753906 612.894531 1187.457031 616.652344 1199.121094 C 617.5 1201.75 613.960938 1204.113281 612.734375 1206.039063 C 610.414063 1209.679688 609.855469 1214.769531 610 1219 C 611.203125 1238.585938 613.972656 1255.542969 608.847656 1275 C 598.199219 1315.414063 554.761719 1355.679688 511 1340.136719 C 493.625 1334 479 1323 464 1312.746094 C 456.695313 1307.808594 448.300781 1304.390625 442 1298 C 436.183594 1292 433 1283.554688 427.714844 1277 C 419.863281 1267.519531 411 1258.648438 404.757813 1248 C 400.507813 1241 399 1232.53125 395.6875 1225 C 390.308594 1213.054688 383.609375 1201.714844 377.753906 1190 C 364 1162.792969 346.453125 1131 344 1100 M 1122 1137 C 1128.835938 1130.164063 1135.816406 1120.558594 1145 1117 C 1142.921875 1142.449219 1127.953125 1159.574219 1110 1176.085938 C 1102.921875 1182.59375 1095.769531 1190 1087 1194 L 1087 1195 C 1095.242188 1191.566406 1102.628906 1186.332031 1111 1183.230469 C 1113.359375 1182.355469 1117.894531 1180.34375 1119.96875 1182.78125 C 1122.226563 1185.441406 1119.644531 1190.355469 1118.597656 1193 C 1114.832031 1202.539063 1109.800781 1211.46875 1106 1221 C 1088.78125 1264.175781 1050.191406 1302 1006 1317.304688 C 985.945313 1324.300781 963.351563 1323.738281 944 1314.675781 C 937.859375 1311.800781 932 1301 926 1300.175781 C 916.777344 1299.113281 927.796875 1319.253906 919.433594 1312.40625 C 913.855469 1308 910.527344 1300.222656 907.21875 1294 C 895.441406 1271.824219 896 1254.460938 896 1230 C 896 1224 890.882813 1207.308594 895.601563 1203 C 900.84375 1198 919.933594 1200.476563 924.605469 1205.277344 C 931.171875 1212.027344 932.386719 1226.429688 936.308594 1235 C 950.203125 1265.347656 970 1283.398438 1004 1283 C 1013.726563 1283 1024 1280.402344 1033 1276.570313 C 1035.757813 1275.386719 1040.566406 1273.558594 1041 1270.09375 C 1041.621094 1266.410156 1036.175781 1267 1034 1267.125 C 1025.597656 1268.175781 1017.371094 1271 1009 1272.246094 C 1000.722656 1273.59375 991 1275.519531 983 1272.613281 C 962.417969 1265.253906 949 1236.503906 944 1217 C 952.761719 1219.597656 959.390625 1227.101563 967 1232 C 982.777344 1242 1002.574219 1248 1021 1242 C 1011.40625 1238 975.519531 1235.167969 983.644531 1215.277344 C 985.167969 1211.542969 989.90625 1212.609375 993 1212.828125 C 1000.707031 1213.378906 1009.425781 1211.816406 1017 1210.390625 C 1043.226563 1205.441406 1067.832031 1192.542969 1086.960938 1174 C 1112.898438 1148.644531 1125.449219 1111.46875 1139.574219 1079 C 1144 1068.675781 1149.441406 1058.78125 1155 1049 C 1156.980469 1045.519531 1158.96875 1039.789063 1162.984375 1038.175781 C 1166.621094 1036.714844 1167.367188 1041.507813 1167.710938 1044 C 1168.734375 1051.429688 1167.695313 1059 1165.5625 1066 C 1157.394531 1093.289063 1135.503906 1112.742188 1122 1137 M 686 1090 C 686.433594 1080.535156 691.609375 1072.285156 695.753906 1064 C 697.316406 1061 700.957031 1056 700.46875 1052.320313 C 699.484375 1045 687.195313 1060.550781 686 1062 C 676.90625 1075 674.390625 1090.269531 669.484375 1105 C 668.246094 1108.71875 663.425781 1117.691406 667.601563 1121 C 671.601563 1124.113281 678.761719 1119.527344 682 1117.210938 C 693.722656 1108.820313 701.648438 1096 715 1089.492188 C 746.519531 1074.449219 789.691406 1085.292969 812.574219 1111 C 815.5 1114.285156 830.601563 1128.210938 834.167969 1118.773438 C 835.996094 1114 831.339844 1106.394531 829.601563 1102 C 824.175781 1088.285156 821.625 1074.117188 812.621094 1062 C 810.523438 1059.175781 803 1048 798.617188 1050.257813 C 795.960938 1051.660156 798.449219 1056.28125 799.324219 1058 C 803 1065.503906 807.769531 1072.640625 811.859375 1080 C 812.644531 1081.414063 816.984375 1087.457031 814.292969 1088.792969 C 810.351563 1090.746094 804.558594 1079.351563 802.839844 1077 C 793.613281 1064.375 781.347656 1054.742188 768 1046.800781 C 762.621094 1043.601563 752.765625 1038.148438 752 1048 C 735.875 1040.457031 715 1040 704.46875 1057 C 698.316406 1067 695.1875 1082.738281 686 1090 M 1121 1137 L 1122 1138 L 1121 1137 M 1119.332031 1139.667969 C 1119.277344 1139.722656 1119.222656 1140.777344 1119.667969 1140.332031 C 1119.722656 1140.277344 1119.777344 1139.222656 1119.332031 1139.667969 M 813 1194 C 805.710938 1203.289063 790.9375 1205.050781 780 1207.195313 C 748.761719 1213.320313 711.355469 1213.488281 683 1197 C 690 1190 702.699219 1190 712 1188 C 743.691406 1181 782 1183.558594 813 1194 M 910 1316 C 901.289063 1313.4375 894.890625 1305.453125 886 1303.472656 C 877 1301.496094 880.871094 1310.027344 885 1313.238281 C 887.894531 1315.472656 890.667969 1317.179688 893 1320 C 886.171875 1319.460938 869.902344 1312.144531 864.273438 1315.179688 C 859.511719 1317.746094 868.265625 1325 865.253906 1330 C 859.515625 1339.523438 846 1345.285156 836 1348.644531 C 829 1351 821.238281 1352.734375 814 1351.382813 C 808.574219 1350.367188 801.492188 1345.347656 796 1348.183594 C 782.738281 1355.191406 780.179688 1374.203125 764 1379 C 764.851563 1377 765.785156 1375 766.753906 1373 C 775.515625 1355 752.617188 1374.207031 747 1376 C 747.710938 1373.515625 753.953125 1361.671875 749.640625 1360.59375 C 745.957031 1359.667969 741.851563 1365.75 739.84375 1368.003906 C 734 1374.464844 729.257813 1380.507813 720 1381 C 717.347656 1381.089844 706.300781 1382.0625 706.34375 1377.695313 C 706.371094 1375.144531 716.378906 1365.492188 710.667969 1363.816406 C 705.417969 1362.273438 697.234375 1371.5625 693 1374 C 694 1371.816406 699.625 1364.140625 696.351563 1362.175781 C 693.226563 1360.300781 688 1367 686 1368.535156 C 679 1374.171875 665.363281 1384.042969 656 1377.257813 C 649 1372.027344 658.371094 1364.527344 661.347656 1360 C 662.53125 1358.195313 664.617188 1353.480469 660.835938 1353.035156 C 657 1352.601563 653.421875 1357.65625 651 1359.832031 C 644.875 1365.332031 625.773438 1382 616.753906 1372 C 614.855469 1370 618.621094 1367.46875 620 1366.4375 C 625.90625 1362.097656 632.484375 1358.816406 637.695313 1353.5625 C 639.355469 1352 643.417969 1347.058594 639.664063 1345.242188 C 635.246094 1343.101563 625.660156 1352.21875 622 1354.394531 C 610.800781 1361.058594 601.40625 1363.777344 589 1359 C 592.261719 1354.746094 596.625 1352.011719 601 1349 C 604 1346.828125 620 1331.285156 607 1335.125 C 591.972656 1339.550781 580.355469 1359.351563 563 1351 C 569.546875 1344.117188 578.578125 1341.0625 586 1335.320313 C 597.707031 1326.257813 607.65625 1314 614.691406 1301 C 617.5 1295.816406 621.5625 1276 627.953125 1275 C 630.957031 1274.4375 630.355469 1278.324219 629.886719 1280.003906 C 629 1282.730469 620.800781 1299.152344 629 1298.078125 C 643.78125 1296.164063 644.46875 1264.65625 659 1264.203125 C 666.722656 1264 674.875 1269.5625 682 1272 C 698 1277.511719 714.796875 1283 732 1283 C 724.914063 1275.269531 714 1273 705 1268.214844 C 688.265625 1259.523438 671.386719 1249.121094 659.679688 1234 C 655.757813 1229 642.226563 1210.445313 651 1205.179688 C 659.382813 1200.316406 667 1211 673 1215 C 687.902344 1224.8125 707.636719 1227.433594 725 1229.71875 C 756.589844 1234 788.425781 1230.027344 818 1218.199219 C 826.558594 1214.777344 835 1210.558594 844 1208.160156 C 846.488281 1207.488281 851 1206.039063 853.304688 1208.027344 C 857.859375 1212.074219 846.964844 1226.394531 844.800781 1230 C 834.277344 1247.539063 821.277344 1267.246094 802 1276.097656 C 799.699219 1277.15625 783.371094 1280.515625 786.636719 1284.316406 C 790.285156 1288.566406 799.347656 1286.429688 804 1285.703125 C 816 1283.816406 827.480469 1277 837 1269.574219 C 841.949219 1265.734375 847.6875 1258.785156 853.894531 1257.152344 C 858.84375 1256 859.507813 1264.515625 864.988281 1262.027344 C 871 1259.269531 874.65625 1250.351563 878 1245.003906 C 879 1243.175781 881 1239.460938 883.726563 1240 C 888.457031 1240.726563 884.234375 1254.113281 883.753906 1257 C 881.507813 1270.441406 881 1282 890.324219 1293 C 896.386719 1300.273438 908.472656 1306.101563 910 1316 M 438 1258 C 441.242188 1269 451.53125 1278.261719 460 1285.410156 C 481.691406 1303.714844 508.796875 1318 538 1313.078125 C 549.484375 1311.144531 568.535156 1305.1875 574 1294 C 555 1298 536.863281 1310.8125 517 1308.828125 C 496.769531 1306.808594 478.4375 1293.355469 464 1280 C 456 1272.523438 448.335938 1262.003906 438 1258 M 1225 1315 L 1224 1316 L 1225 1315 "/>
</g>
</svg>
