<?xml version="1.0" encoding="UTF-8"?>
<svg xmlns="http://www.w3.org/2000/svg" xmlns:xlink="http://www.w3.org/1999/xlink" width="1500pt" height="1500pt" viewBox="0 0 1500 1500" version="1.1">
<g id="surface1">
<path style=" stroke:none;fill-rule:nonzero;fill:rgb(0%,0%,0%);fill-opacity:1;" d="M 431 546 L 432 546 C 432.773438 555.472656 436.585938 564.472656 437.714844 574 C 441 602.449219 443.851563 633.164063 455.230469 660 C 464.175781 681.09375 481.710938 696 487.84375 719 C 490.867188 730.328125 490 741.511719 491.171875 753 C 494.304688 786 492 819.210938 487.71875 852 C 481.304688 900.789063 471.238281 950 451 995 C 433.203125 1035.273438 407.203125 1071.59375 394 1114 C 381.238281 1155.144531 383 1199.609375 385.910156 1242 C 389 1289 390.652344 1339.496094 411 1383 L 412 1383 C 410.753906 1367.335938 406.339844 1351.636719 404.28125 1336 C 400.253906 1305.371094 400 1274.71875 397.910156 1244 C 395.289063 1205.699219 393.261719 1165.566406 403 1128 C 422 1056 481.75 996.535156 488 920 L 489 920 C 487.75 935.714844 482.292969 951.539063 479.199219 967 C 469 1017.320313 455 1071.515625 455 1123 L 457 1123 C 457 1105.683594 461.515625 1089 464.574219 1072 C 472.773438 1026.554688 486.882813 982.394531 495.390625 937 C 506.871094 875.707031 504 813.085938 504 751 L 505 751 C 507.199219 766 515.515625 780.578125 519.972656 795 C 521.628906 800.355469 519.941406 807.25 522.195313 812 C 529.210938 826.804688 543.410156 836.667969 546.535156 854 C 551.4375 881.179688 535 907.097656 535 934 L 534 934 C 533.96875 886 511.980469 840.449219 511 793 L 509 793 C 509 842.675781 515.308594 893.796875 522.285156 943 C 524.664063 959.789063 530 976.101563 531.832031 993 C 534.273438 1017.042969 530.441406 1041 532 1065 C 534.835938 1105.085938 543.554688 1141 557.929688 1178 C 561.628906 1187.519531 562.628906 1198 567.488281 1207 C 575.640625 1222.273438 587.972656 1236.367188 598.574219 1250 C 607.261719 1261.167969 615.179688 1277.058594 626 1286 C 622.796875 1272.167969 614.191406 1259.808594 608.308594 1247 C 593 1214 574.734375 1181.757813 563.519531 1147 C 560.390625 1137.308594 560.179688 1127 558.386719 1117 C 556.414063 1106.0625 552.527344 1095.15625 552 1084 C 551.277344 1066.636719 554 1049.296875 552.910156 1032 C 551.558594 1012.28125 543.480469 993.617188 541 974 C 562 997.0625 551.605469 1037.378906 580 1055.558594 C 603.300781 1070.476563 628.289063 1060.394531 649 1046.117188 C 655.691406 1041.5 670.527344 1026.554688 679 1029 C 686.992188 1031.109375 693.480469 1039.792969 700 1044.574219 C 702.660156 1046.527344 706.304688 1048.535156 707 1052.015625 C 708.328125 1057.441406 703.222656 1064.785156 701.894531 1070 C 698.398438 1083.742188 696.511719 1098 695.171875 1112 C 692.828125 1136.585938 702.617188 1161.222656 700.910156 1186 C 699.734375 1203.089844 689.9375 1215.394531 685 1231 C 698.261719 1223.808594 704.554688 1203.765625 707.871094 1190 C 715.816406 1157.003906 707.574219 1122.316406 714.199219 1089 C 715.816406 1081 716.808594 1069.242188 721.277344 1062.148438 C 724.964844 1056.304688 733.816406 1061 739 1062 C 751.65625 1064.5625 766.183594 1063.230469 778 1058 C 778 1078.101563 788.847656 1093 791.570313 1112 C 796.207031 1144.363281 795 1179.308594 795 1212 C 801.652344 1207.320313 800.246094 1189.578125 801 1182 C 804.800781 1151.542969 806.648438 1119.285156 800.601563 1089 C 798.820313 1080.078125 790.175781 1058.019531 795.601563 1050.09375 C 800.359375 1043.152344 811.367188 1038.195313 818 1033 C 820.515625 1031.027344 823.546875 1028 827 1028.078125 C 834.625 1028.382813 845 1039.253906 851 1043.574219 C 869.691406 1057.070313 890.585938 1069 914 1060 C 953 1045.023438 936.976563 999.625 962 974 C 961.605469 992.589844 950.976563 1010.347656 949.171875 1029 C 944.808594 1074.070313 948.464844 1116 930 1159 C 918.195313 1187.0625 903.457031 1213.78125 889.753906 1241 C 884.9375 1250.558594 873.917969 1263.066406 874 1274 C 884.359375 1264.539063 892.515625 1251.046875 901.210938 1240 C 939.191406 1191.761719 961.265625 1142.332031 967.835938 1081 C 969.6875 1063.710938 971 1046.398438 971 1029 C 970.945313 1018 968.867188 1007.035156 970.589844 996 C 973 980 978.335938 964.25 980.726563 948 C 985.582031 915.050781 987 882.054688 990.171875 849 C 991.871094 831.113281 996.953125 809.796875 995 792 C 987.449219 802.585938 986.699219 821.410156 984.585938 834 C 979.21875 866.003906 970 900.542969 970 933 L 969 933 C 968.609375 914.199219 961.640625 893.515625 958 875 C 956.296875 866.347656 953.601563 857 955.519531 848 C 958.890625 832.460938 973.398438 826.117188 981.257813 814 C 984.605469 808.78125 982.671875 801 984.296875 795 C 988.175781 781 996.535156 767.320313 999 753 L 1000 753 C 1000 805.113281 998.597656 857.179688 1004 909 C 1008.859375 952.679688 1022 995.394531 1032 1038 C 1038.921875 1066.714844 1042.214844 1096.503906 1049 1125 L 1050 1125 C 1050 1056 1023.789063 988.046875 1015 920 L 1016 920 C 1026.933594 1001.183594 1085 1065.789063 1101.789063 1145 C 1111.519531 1191 1110.730469 1241 1097.277344 1286 C 1092.234375 1303 1080.800781 1317.335938 1076 1334 C 1090.183594 1324 1097.21875 1304.578125 1103.398438 1289 C 1121.894531 1242.382813 1123.246094 1185.652344 1112.574219 1137 C 1100.328125 1081.15625 1067.867188 1034.589844 1047.203125 982 C 1022.53125 919.207031 1010.363281 845.355469 1012 778 C 1012.519531 757.359375 1011.972656 733.574219 1019.460938 714 C 1026.753906 695 1040.898438 679.265625 1047.65625 660 C 1060.320313 624 1064.742188 585.414063 1072 548 C 1074.628906 557 1072.203125 567 1073.285156 576 C 1077.398438 611 1081 647.058594 1094.203125 680 C 1100.214844 695.167969 1109.460938 711.4375 1125 718.480469 C 1130.378906 721 1136 722 1142 722 C 1183.292969 722.199219 1190.835938 675.355469 1203.871094 645 C 1207 637.535156 1210.960938 630.167969 1214.78125 623 C 1228.992188 596.328125 1258.207031 576.058594 1277.5625 553 C 1310.726563 513.484375 1328.359375 466.25 1337.425781 416 C 1341 395.535156 1345.847656 373.304688 1338.996094 353 C 1333.621094 337.070313 1322 324.183594 1312 311 C 1294.261719 287.410156 1274.980469 264.464844 1250 248.078125 C 1210.933594 222.453125 1163.757813 210.601563 1123 187.574219 C 1107.429688 178.78125 1091.703125 169.757813 1077 159.566406 C 1060.917969 148.414063 1045 134.710938 1026 129.042969 C 1010.492188 124.4375 1000.59375 131.335938 986 132.800781 C 978.75 133.527344 971.296875 130.191406 964 130.015625 C 948 129.625 932 132.007813 916 131 C 863.417969 127.308594 811.753906 112.308594 759 111.015625 C 709.425781 109.800781 662.917969 124.167969 614 128.828125 C 593.527344 130.78125 573.402344 128.144531 553 129.039063 C 542.28125 129.507813 531.554688 134.199219 521 134 C 514.484375 133.789063 509 129.820313 503 128.160156 C 494.207031 125.78125 484.609375 127 476 129.4375 C 460.914063 134 448.847656 144.390625 436 153 C 414.566406 167.359375 392.960938 182 370 193.742188 C 333.863281 212.394531 293.914063 223.496094 259 244.449219 C 229.191406 262.335938 206 289 186 317 C 179 326.78125 171.1875 336.171875 165.808594 347 C 154.285156 370.203125 162.230469 398.140625 167 422 C 174.414063 459.070313 184.722656 496.664063 206.722656 528 C 228.789063 559.4375 259.628906 583 283.335938 613 C 306.339844 642.113281 304.804688 685.769531 332.171875 711.699219 C 349.996094 728.59375 378.277344 723.53125 393.710938 706 C 414 683 418.519531 650.191406 423.414063 621 C 427.574219 596.1875 431 571.171875 431 546 M 1062 517 L 1061 517 C 1061 492.226563 1053.351563 468.179688 1048.804688 444 C 1046.574219 432.136719 1050.289063 421.035156 1047 409 C 1033.441406 357.164063 994.507813 316 939 316 C 944.855469 322 955.226563 323 963 325 C 977.234375 328.628906 991.742188 333.023438 1002.960938 343.003906 C 1022.328125 360.234375 1042.921875 396.335938 1042.921875 423 C 1042.921875 436.816406 1036.644531 450.148438 1036 464 C 1035 487 1037.414063 511.234375 1034.425781 534 C 1031 559.804688 1025.835938 585.253906 1022 611 C 1021.4375 615.808594 1019.699219 635.292969 1011.3125 633.167969 C 1005.179688 631.613281 1011.921875 615.511719 1012.765625 612 C 1018 590.050781 1026.203125 567.585938 1028 545 L 1027 545 C 1014.332031 606.402344 994.503906 668.492188 974.667969 728 C 965 756.828125 949 785.601563 945.285156 816 C 944 826.300781 941.6875 839.765625 942.210938 850 C 944 886.226563 958 921 961 957 C 942.640625 949.316406 940.921875 934.128906 936 917 C 934.550781 911.601563 930 906.773438 930.269531 901 C 930.433594 893.378906 935.296875 886.566406 935.90625 879 C 937.613281 858 928.578125 838.328125 932.425781 817 C 936.929688 792.027344 944.226563 767.59375 950.371094 743 C 953.273438 731.40625 958.785156 719.152344 957.910156 707 C 956.398438 686.023438 932.535156 677.742188 923.3125 661 C 912.691406 641.71875 917.210938 619.429688 909 600 C 907.453125 624.042969 910.609375 649.253906 914.273438 673 C 915.605469 681.632813 918.574219 690.257813 918.960938 699 C 919.878906 719.8125 913 738.574219 911.171875 759 C 909.800781 773.167969 913.394531 787 914 801 L 913 801 C 912.214844 797.734375 911.339844 795.417969 909 793 C 913.832031 810.152344 919.378906 827.554688 922.996094 845 C 924.914063 854.238281 924.839844 864 927 873 L 926 873 C 923.371094 868.5 921 863.8125 919 859 L 918 859 C 919 867.167969 921.71875 876 918.890625 884 C 913.828125 898.578125 903 905 903 922 C 905.984375 919.054688 907.609375 915.210938 910.328125 912.015625 C 911.929688 910.128906 925.71875 899.273438 926.785156 906.320313 C 927.234375 909.261719 924.660156 913.347656 923.601563 916 C 919.933594 925.160156 916 935 910.210938 943 C 907 947.179688 900 950.53125 898.613281 955.65625 C 897 961.09375 908 958 910 957.121094 C 918.433594 953.496094 922.589844 946.546875 927 939 L 928 939 C 928.242188 968.292969 942 1000.382813 929 1029 C 921.492188 1045.824219 902.539063 1054.175781 885 1049.253906 C 861.886719 1042.765625 845.367188 1022.085938 825 1010.425781 C 803 998 778.328125 993.800781 755 985 C 760.964844 981.289063 774 988.015625 778 980 C 779.484375 977.042969 776 976.285156 773.996094 976.585938 C 769.199219 977.269531 760 983.804688 755.644531 979.253906 C 751 974.558594 759.53125 958.097656 762.613281 954.015625 C 771.324219 942.476563 786.300781 943.203125 799 940.101563 C 809.355469 937.574219 818.496094 931.566406 825.910156 924 C 840.269531 909.226563 855.300781 891.226563 860.84375 871 C 864.171875 859 863.34375 846.289063 865.613281 834 C 868 821.058594 874.640625 809.441406 871.710938 796 C 867 774.765625 849.921875 753.71875 839.28125 735 C 833.578125 725 827.765625 715.003906 822 705 C 819.269531 700.226563 818 695 814 691 C 820 704 824.484375 717.378906 831.308594 730 C 845.605469 756.433594 862 781.257813 862 812 L 861 812 C 855.199219 784 838.507813 745.558594 805 744.039063 C 785.523438 743.15625 768.277344 753.195313 749 753 C 729.804688 752.800781 712.496094 742.660156 693 744.089844 C 663.382813 746.261719 645.804688 784.226563 642 810 L 641 810 C 641 782.175781 655.550781 761.011719 668.21875 737 C 676 722 681.828125 706.277344 689 691 C 679.824219 700.085938 674.488281 717 667.574219 728 C 654.28125 749.46875 635.828125 772.722656 630.808594 798 C 628.253906 811 635.175781 822.679688 637.539063 835 C 639.785156 846.703125 639 858.417969 642.425781 870 C 648.378906 890.761719 662.5625 908.527344 677.171875 924 C 684.320313 931.515625 693.820313 938 704 940.347656 C 715.835938 943.160156 729.835938 942.253906 738.671875 952.09375 C 741.871094 955.65625 753.21875 978.488281 744.851563 980.476563 C 739.335938 981.785156 730 974 725.464844 977.121094 C 722.46875 979.210938 727.246094 982.546875 728.992188 983.28125 C 734 985.441406 741.550781 984 747 984 L 747 985 C 723.28125 994.679688 698.523438 999.285156 676 1012.285156 C 655.980469 1024 637.679688 1043.707031 615 1050 C 599.570313 1054.015625 582.554688 1046 574.90625 1032 C 558.980469 1003.195313 575.378906 967.058594 576 937 L 577 937 C 579.378906 946.09375 582.984375 953.007813 592 957.097656 C 594.753906 958.34375 604.792969 962.101563 604.792969 956 C 604.792969 951.3125 596.210938 947.28125 593.527344 944 C 586.996094 936 579 920.175781 576.859375 910.003906 C 575.527344 904 582 903.417969 585.996094 906 C 591.480469 909.3125 596.515625 916.128906 599 922 L 600 922 C 599.855469 904.683594 588.339844 897.792969 583.25 883 C 580.386719 874.675781 584.320313 866.332031 585 858 L 584 858 C 582.4375 863 579.613281 867.53125 577 872 L 576 872 C 577.859375 864.1875 577.535156 856 579.210938 848 C 583.183594 829.175781 588.785156 810.515625 594 792 C 591.71875 794.402344 590.929688 796.828125 590 800 L 589 800 C 589 787.441406 592.996094 774.445313 591.828125 762 C 589.941406 741.832031 582 722.4375 583 702 C 583.570313 690 587.222656 678 588.714844 666 C 591.4375 644.125 593 622.035156 593 600 L 592 600 C 586.871094 621.546875 589.875 642.710938 578 663 C 568.8125 679.074219 547.25 686.78125 545.175781 707 C 543.976563 718.679688 550.203125 731 553 742 C 559.191406 765.101563 565 788.484375 569.386719 812 C 573.535156 835.015625 564.707031 857.039063 567.175781 880 C 567.910156 887 571.714844 893.074219 571.957031 900 C 572.1875 906.59375 568.476563 912 566.746094 918 C 562.316406 933.765625 560.40625 949.539063 543 956 C 543.550781 929.398438 553.515625 903.167969 557.574219 877 C 559.535156 864.355469 556.585938 854.371094 556 842 C 555.597656 832.015625 557.925781 822 556.714844 812 C 552.9375 781.238281 537.363281 753.089844 527.667969 724 C 509 668.476563 491.984375 611.765625 478 555 L 477 555 C 477.820313 574.085938 485.585938 593.621094 490.371094 612 C 491.519531 616.410156 497 628.484375 493.21875 632.351563 C 488.230469 637.34375 484 625 483 622 C 478.628906 606.699219 476.371094 590.710938 473.753906 575 C 470.5625 556 467.890625 536.390625 467 517 C 466.34375 501.089844 468.339844 485 466.828125 469 C 464.277344 442.183594 455.960938 420.144531 466.601563 394 C 474.664063 374.191406 484.714844 354.058594 502 340.679688 C 525.222656 322.703125 556.46875 321.746094 584 315.574219 C 595 313.109375 607.851563 307 617.816406 315.53125 C 630 326.28125 625.609375 345.832031 625 360 L 627 360 C 628.222656 344.660156 636.296875 328.515625 624.785156 315 C 612.21875 300.242188 597.859375 307.140625 582 311.105469 C 553.4375 318.242188 520.878906 318 497 337.464844 C 476.882813 354 457 388 453.300781 414 C 451.640625 425.519531 455.464844 436.246094 453.195313 448 C 448 474.757813 438.519531 501.460938 442 529 C 437.632813 521.707031 439.738281 511.15625 438.570313 503 C 435.238281 479.730469 432.277344 458.613281 431.996094 435 C 431.761719 415.3125 420.257813 398.070313 422.171875 378 C 423.535156 363.652344 425.3125 347.148438 431.488281 334 C 436 324.105469 443.421875 315.570313 448.6875 306 C 465.972656 274.597656 484 246.660156 505.625 218 C 517.671875 202.003906 527.765625 184.769531 538.65625 168 C 543 161.164063 546.59375 151.558594 554 147.417969 C 561.820313 143.0625 572.355469 143.695313 581 142.832031 C 595 141.425781 609 139.222656 623 137 C 661.878906 130.492188 701.546875 122.8125 741 122.054688 C 747.671875 122 754.363281 124.195313 761 124.828125 C 782.734375 127 804.328125 129 826 132 C 853 135.636719 879.808594 141.242188 907 143.828125 C 920.847656 145.148438 938.980469 142.191406 950.984375 150.800781 C 956.980469 155.101563 960 162.273438 964.429688 168 C 974.351563 181 984.617188 193.429688 993.667969 207 C 1004.660156 223.492188 1017.3125 239.027344 1027.550781 256 C 1036.871094 271.453125 1043.558594 288.308594 1052.425781 304 C 1066.65625 329.191406 1081 348 1081.871094 378 C 1082.214844 392 1074.609375 405.4375 1072.25 419 C 1069.652344 434 1072.257813 449.019531 1070.828125 464 C 1069 481.757813 1062.367188 499.199219 1062 517 M 883 201 C 865.492188 176.144531 832.234375 157.507813 806 143.230469 C 799.464844 139.675781 793.46875 135.269531 787 131.621094 C 785.425781 130.730469 781.824219 128.316406 780 130.070313 C 778.285156 132 780.785156 135.472656 781.765625 137 C 785.882813 143.410156 791.464844 147.8125 798 151.570313 C 816 162 834.492188 171.421875 852 182.691406 C 861.574219 189 871.535156 199 883 201 M 762 130 C 764.625 148 771 167.339844 777.847656 184 C 779.464844 188 777.867188 195.59375 780.605469 198.398438 C 783.960938 201.820313 793.445313 201.039063 798 202.519531 C 809 206.140625 819.304688 212.332031 828 220.171875 C 836 227.390625 842.378906 236.238281 848.574219 245 C 851.972656 249.800781 854.738281 256.121094 860 259 C 854.9375 237.125 841 214.21875 823 200.761719 C 813.574219 193.761719 800.5 192.464844 792.898438 183 C 780.40625 167.339844 778.171875 142.402344 762 130 M 620 201 C 630.507813 198.351563 638.894531 190.109375 648 184.601563 C 665.445313 174.050781 683.941406 164.757813 701 153.65625 C 708.804688 148.574219 718 141.644531 720 132 C 709.519531 134.484375 701 141.082031 692 146.550781 C 674.789063 157 657.617188 166.828125 642 179.613281 C 634.628906 185.644531 624 192.230469 620 201 M 737 132 C 729.761719 143 725 156 720 168 C 717.605469 174 716 181.039063 711.609375 185.785156 C 704.925781 193 690.464844 194.058594 682 199.75 C 661.339844 213.640625 648.453125 238.21875 643 262 C 647.84375 258.828125 649.554688 252 652.453125 247 C 657.503906 238.511719 663.75 230 671 223.171875 C 679.46875 215.34375 688.992188 209 700 205.34375 C 705.558594 203.5625 714.875 203.820313 719.566406 200.683594 C 724 197.710938 722.636719 188.589844 723.464844 184 C 725.636719 172 730.390625 159.695313 734 148 C 735.539063 143.125 738.796875 137.027344 737 132 M 1089 599 C 1083 588 1085 568.351563 1085 556 C 1085 516 1095.40625 478.421875 1100.71875 439 C 1106.902344 393.082031 1090.71875 351.339844 1077.71875 308 C 1071.671875 288 1068 265.542969 1055.789063 248 C 1046 234.300781 1031.753906 225 1019 214.386719 C 1000 199 985.660156 179 971.71875 159 C 969.550781 156 957.605469 142.71875 961.648438 139.179688 C 969.910156 132 986.644531 147.796875 992 152.425781 C 1016.90625 174 1042.589844 201 1059.933594 229 C 1069.441406 244.402344 1073.457031 263.039063 1079.34375 280 C 1088.300781 305.796875 1098.386719 331.199219 1107.34375 357 C 1114.882813 378.710938 1125.527344 400.382813 1123.910156 424 C 1119.828125 483.589844 1089.496094 539 1089 599 M 1259 518 C 1263.566406 500.347656 1264.910156 482.019531 1267.28125 464 C 1273 420.246094 1277.480469 377.511719 1267 334 L 1266 334 C 1266 382 1270.257813 437.609375 1243.304688 480 C 1232.257813 497.378906 1213 505 1201.636719 521 C 1189.472656 538 1197 561.734375 1194.714844 581 C 1191.304688 608.75 1177.984375 634.042969 1171.375 661 C 1169 670.214844 1174.195313 671.308594 1175.589844 679.089844 C 1177 688 1165.375 701.730469 1158 705 C 1142.980469 711.390625 1136.9375 689 1133 679 C 1120.234375 647 1110 615.765625 1110 581 C 1110 524.394531 1136.660156 471.390625 1136.660156 415 C 1136.660156 386.445313 1121 360.179688 1111.691406 334 C 1099.929688 301.089844 1090.257813 263.761719 1073.691406 233 C 1063.410156 214 1048.265625 198.589844 1034.613281 182 C 1023.308594 168.257813 1013.441406 153.703125 999 143 C 1009 133.210938 1028 142 1038 148.066406 C 1070.316406 168 1100.945313 190.726563 1135 207.753906 C 1171.835938 226.171875 1212.894531 237.488281 1247 261.027344 C 1267.683594 275.300781 1283.894531 294.03125 1298.871094 314 C 1308.386719 326.683594 1327.496094 345.507813 1328.890625 362 C 1329.980469 375 1315.394531 381.4375 1308.328125 390 C 1301.574219 398.1875 1300 410 1298.25 420 C 1294 444 1286 466.828125 1276.425781 489 C 1272.179688 498.753906 1267.617188 511.351563 1259 518 M 506 142 L 506 143 C 492.933594 145.527344 484.960938 161.519531 477 171 C 453.675781 199.15625 429.464844 225.613281 417.667969 261 C 406 295.734375 391.660156 329.421875 379.65625 364 C 374.59375 378.578125 367.183594 393.382813 366 409 C 363.917969 440 374.300781 470.320313 381.625 500 C 388.847656 529.269531 393 559.148438 393.617188 589.253906 C 394.261719 622.128906 380.863281 653.382813 368 683 C 363.5 693.832031 354.414063 714.804688 340 701.785156 C 335 697.199219 326.414063 686.554688 327.617188 679.089844 C 328.628906 672.8125 333.847656 671.414063 332 664 C 325.214844 634.78125 310.835938 608.003906 307.285156 578 C 304.941406 558.191406 313.445313 536.40625 299.480469 519.015625 C 287.605469 504.222656 270.324219 496.71875 259.695313 480 C 233.25 438.40625 237 384.109375 237 337 L 235 337 C 234.996094 354.488281 229.804688 371.546875 229 389 C 228 411 231.859375 433.257813 234.71875 455 C 237.519531 476.308594 239 498.238281 245 519 C 238.472656 513.605469 234.550781 504.460938 230.757813 497 C 221.78125 479.347656 215.558594 460.746094 209.332031 442 C 204.226563 426.621094 204.6875 405.648438 196.1875 392 C 190.5625 383 172.917969 374.265625 173 363 C 173.453125 346.796875 193.933594 327.257813 203 315 C 219.292969 293.445313 237.257813 273.503906 260 258.695313 C 294.753906 236.0625 335.574219 226.296875 372 207.109375 C 396.703125 194.101563 419.792969 178.804688 443 163.332031 C 463.449219 149.699219 480.511719 136.742188 506 142 M 543 140 C 532.824219 167 506.359375 193.578125 485 212 C 468 226.285156 450.195313 238.472656 440.257813 259 C 431.539063 277.011719 427.875 297.007813 421.976563 316 C 411.867188 348.523438 399.570313 381.484375 399.570313 416 C 399.570313 449.300781 411.78125 481.140625 415.714844 514 C 418.960938 541.132813 415 568 415 595 C 412.3125 588.613281 412.792969 580 411.726563 573 C 409.910156 561.257813 406.671875 549.542969 403.871094 538 C 393.65625 496 373 448 379.429688 404 C 381.984375 386.21875 389.769531 369.621094 396.1875 353 C 406.570313 326.113281 417.886719 298.5625 426.277344 271 C 430.351563 257.621094 433.515625 244.367188 440.3125 232 C 452.65625 209.535156 473 190 491 172 C 505 158 521.933594 141.722656 543 140 M 876 145 C 880.492188 152.777344 897.234375 158.136719 905 163.054688 C 921.4375 173.464844 938.515625 184.117188 954 196 C 961.863281 202 967.894531 210.828125 977 215 C 958.246094 175.355469 915.886719 155.320313 876 145 M 524 217 C 534 212.316406 541.761719 201.203125 551 194.722656 C 575.480469 177.535156 600.652344 161.046875 627 147 C 617.558594 143.039063 604.4375 151.382813 596 155.230469 C 569.378906 167.375 534.660156 188 524 217 M 751 147 C 750.449219 159.792969 746.390625 172.351563 744.578125 185 C 743.894531 189.789063 742.773438 197.023438 748 199.640625 C 753.734375 202.402344 757.695313 197.054688 757.953125 192 C 758.484375 181.511719 754.519531 170.410156 753.285156 160 C 752.75 155.46875 753.855469 150.769531 751 147 M 850 148 C 861.863281 182.785156 907.242188 190.488281 926 221 C 929 213 921 201.636719 915.90625 196 C 904 183.066406 887.929688 177 874 167 C 865.960938 161 859.195313 152 850 148 M 576 221 L 577 221 C 595.675781 190.621094 640.859375 183.671875 654 149 C 644.460938 152.046875 638 161.292969 630 167 C 609.410156 181.476563 576.25 190.628906 576 221 M 1119 209 C 1123.597656 228.394531 1136.433594 247 1144.691406 265 C 1152 281.078125 1152.796875 299.128906 1160.320313 315 C 1169.210938 333.75 1184.882813 349.738281 1196.332031 367 C 1202.878906 377 1209 387.292969 1214.21875 398 C 1216.625 403.078125 1218.246094 410.757813 1223 414 C 1218.574219 390.515625 1211.234375 368.144531 1205.476563 345 C 1201.875 330.53125 1200.789063 315.152344 1193 302 C 1184 286.398438 1166.46875 275.027344 1155.710938 260 C 1144.667969 244.574219 1134.25 220.257813 1119 209 M 282 413 C 286.300781 410 287.785156 402.667969 290.308594 398 C 295.570313 388.269531 301.589844 379.003906 308 370 C 320.648438 352.234375 335.785156 335 345 315 C 353 298.113281 355.222656 279.171875 362.425781 262 C 369.417969 245.324219 381.320313 227.589844 385 210 C 380.492188 213 378.382813 219.464844 375.574219 224 C 369.339844 234.070313 362.585938 243.730469 355.199219 253 C 341.742188 270 321.929688 284.679688 310.929688 303 C 301.953125 318 303 336.523438 299 353 C 294.390625 373 282.902344 392.335938 282 413 M 747 262 C 738.894531 297.042969 738 328.441406 744.425781 364 C 745.859375 372 747 392.511719 754 397 C 751 381.300781 753 364 753 348 C 753 319.640625 752.554688 290 749 262 L 747 262 M 564 264 C 556.742188 272.390625 550.925781 282.085938 542.910156 289.828125 C 534.589844 298 524.453125 303.269531 516.714844 312 C 514.855469 314.097656 501 325.402344 503.753906 328 C 509 332.796875 519.1875 320.089844 521.664063 317 C 532.851563 303.042969 547.671875 294.546875 557.425781 279 C 560 274.738281 565.441406 269.273438 564 264 M 937 264 C 946.640625 287.152344 964.925781 297.8125 980.246094 316 C 982.667969 319 994.363281 334.121094 999.246094 328.355469 C 1002 325 988.503906 314.488281 986.285156 312.003906 C 977.554688 302.222656 966 295.636719 957 286 C 950.515625 279 945.554688 268.816406 937 264 M 239 295 C 230.648438 309.292969 219.839844 323.277344 214.34375 339 C 203.523438 370 207.5625 414 217 445 L 218 445 C 218 409.46875 217.539063 377 226.375 342 C 229 331.222656 232 320.402344 236 310 C 237.898438 305.15625 241 300.171875 239 295 M 1262 295 C 1272.515625 327.316406 1283.585938 360 1286.828125 394 C 1288.363281 410.085938 1287 426 1287 442 L 1289 442 C 1290.902344 397.734375 1303.746094 358.597656 1278.320313 318 C 1273.667969 310.574219 1270 299.128906 1262 295 M 879 359 C 878.980469 351.621094 877.710938 344.410156 878 337 C 878.203125 333.289063 878.941406 329.542969 880 326 C 888 300.210938 916.484375 314 935 314 C 931.9375 309.648438 923.925781 309.195313 919 307.660156 C 908.414063 304.355469 896 301.273438 886 307.480469 C 870.46875 317 863.195313 346.792969 879 359 M 879 343 C 885.9375 339.371094 890.710938 332 894 325 C 885 326.738281 879.414063 334.058594 879 343 M 531 639 C 531 615 549.335938 587.753906 541.945313 564 C 538.207031 552 525.785156 549 517 541.675781 C 505.914063 532.4375 498.539063 520.679688 492 508 C 482.71875 490 472.941406 469.742188 472 449 C 470.550781 414.675781 491.21875 363.582031 520 344.09375 C 535.863281 333.351563 556.171875 330 575 330 C 568 324.519531 557 327.566406 549 328 C 508.644531 330 488.3125 365 475.679688 399 C 470.28125 413.59375 465 429.222656 465.453125 445 C 465.816406 460.820313 471.382813 476.144531 476.332031 491 C 487 523.074219 501.632813 552.058594 514.714844 583 C 519.972656 595.429688 522.5625 608.824219 525.199219 622 C 526.242188 627.21875 526.558594 635.632813 531 639 M 930 330 C 981.386719 330.003906 1009.523438 364.488281 1022.859375 411 C 1026.335938 423.132813 1030.5 436.238281 1029.960938 449 C 1029 469.273438 1019.890625 489.273438 1010.742188 507 C 1004.339844 519.40625 996.9375 532 985.996094 541 C 976.984375 548.261719 964 552 960.222656 564 C 952 589.246094 971.792969 613.066406 972 638 C 976.503906 634.6875 977.613281 627.214844 978.871094 622 C 982 609 982.800781 595.460938 988.308594 583 C 1006.773438 541.238281 1033.910156 498 1035.960938 451 C 1036.886719 430 1030.667969 408.296875 1022.574219 389 C 1009.863281 358.683594 991.652344 329 955 328.015625 C 948.632813 328 933.824219 324.101563 930 330 M 887 350 C 891.308594 346.507813 891.957031 341.324219 895.558594 337.328125 C 899.222656 333.257813 904.863281 332.339844 909 329 C 895.585938 325.042969 887.257813 338.003906 887 350 M 595 332 C 600.210938 339.246094 612.316406 351.632813 621 354 C 616.851563 341.832031 607.34375 335 595 332 M 906 341 C 904.8125 342.1875 904.472656 342.585938 904 344 C 910.503906 344 916.953125 343.554688 923 341 C 919.398438 338.539063 915.242188 339 911 339 L 911 338 C 914 337 915.484375 336 917 333 C 911.667969 333.625 904.722656 333.1875 900 336.089844 C 891.246094 341.570313 900.945313 342.601563 906 341 M 582 336 C 582.898438 338.125 582.875 338.101563 585 339 L 585 340 L 579 339 C 580.53125 341.207031 582 343.054688 584 345 C 576.839844 342.390625 571.296875 344.417969 564 345 C 566.300781 349.503906 570.511719 352 575 354 L 575 355 C 572.6875 355 560.417969 353.148438 559.921875 355.566406 C 559.414063 358.042969 563.457031 360.492188 564.964844 361.804688 C 570 366.3125 574.363281 371.824219 578.871094 377 C 585.472656 384.574219 595.335938 389.652344 600.890625 398.003906 C 609.925781 411.585938 613.5 429.589844 622 444 L 623 444 C 622.460938 432.152344 615.628906 420.5 612.746094 409 C 609.796875 397.234375 613 384.421875 608.867188 373 C 604.859375 362.21875 591.832031 353.183594 584 345 C 588.910156 347.582031 593.644531 350.457031 599 352 L 595 346 C 598.683594 347.417969 602 348.652344 606 349 C 601.375 339.167969 591.378906 338.257813 582 336 M 910 339.332031 L 910.332031 339.667969 C 909.839844 339.832031 909.226563 339.332031 910 339.332031 M 595 345 L 595 346 L 585 341 C 588.679688 340.464844 591.90625 343.109375 595 345 M 907 340.332031 L 907.332031 340.667969 C 906.839844 340.832031 906.226563 340.332031 907 340.332031 M 879 445 C 893.722656 437.804688 893.714844 414 901 401 C 910.949219 383.605469 931.332031 371.519531 943 355 C 937.773438 354 931.214844 354.757813 926 356 L 926 355 C 930.328125 353 934 349.820313 938 347 C 924.867188 337.644531 908.65625 350.796875 900.898438 361 C 890.5 374.675781 894 387.347656 891.5625 403 C 889.304688 417.441406 882.972656 431 879 445 M 885 523 C 879.496094 512.691406 869.457031 505 863.96875 494 C 846.894531 460 833.707031 418.207031 831 380 C 830.347656 369.152344 832.96875 358.761719 833 348 C 829.296875 350.582031 828.859375 355.773438 827.886719 360 C 825.339844 371.070313 824.757813 382.761719 825.828125 394 C 829 427.445313 837.632813 463 852.753906 493 C 859.296875 506.050781 869 521.597656 885 523 M 668 351 C 668 363.390625 670.78125 375.578125 669.910156 388 C 668.976563 401.34375 663.609375 415.050781 660.371094 428 C 651.925781 461.792969 644.636719 502.03125 615 524 L 615 525 C 630.488281 524.195313 642.515625 508.613281 649.21875 496 C 665.367188 465.601563 673.226563 427 677.285156 393 C 678.796875 380.378906 677.597656 360.503906 668 351 M 576 355 L 575 356 L 576 355 M 584 490 C 599 488.679688 607.386719 476.242188 608 462 C 614.476563 468 621 471.808594 630 472 C 624.582031 462.277344 615.453125 455.628906 609.875 446 C 596.8125 423.441406 592.367188 392.78125 565 382.066406 C 541.398438 372.828125 519.183594 382.464844 501 398.289063 C 495.585938 403 484.902344 412.65625 486.410156 421 C 487.410156 426.433594 499 428.117188 502.910156 432.042969 C 513.1875 442.421875 519.316406 455.53125 535 458.382813 C 549.496094 461.023438 564.40625 460.519531 579 462.574219 C 584 463.285156 591 463.054688 594 468.109375 C 598.507813 475.730469 586.820313 484 584 490 M 892 463 C 892.6875 478.023438 904.597656 486.492188 918 490 C 915.46875 484.011719 905.878906 476.144531 909.21875 469.019531 C 914 458.546875 938.230469 460 948 459 C 972.4375 456.214844 983.609375 447.664063 1001 431.019531 C 1004.253906 428 1013.535156 426 1014.679688 422 C 1017 413.34375 1007.230469 405.113281 1002 400.015625 C 985.34375 383.765625 958.925781 372.503906 936 381.230469 C 909.320313 391.390625 901.726563 426 888.1875 448 C 884.894531 453.378906 881.214844 458.328125 876.980469 463 C 875.683594 464.429688 872.433594 467.101563 873.347656 469.394531 C 875.789063 475.53125 889.703125 464.816406 892 463 M 1330 381 C 1329.433594 449.234375 1295.269531 518.714844 1248 566 C 1239 575 1231.347656 585.710938 1221 593 C 1223.332031 564.445313 1251.972656 547.136719 1268.714844 527 C 1285.453125 507 1292.863281 480.171875 1297.996094 455 C 1301.167969 439.441406 1301.8125 424.070313 1310 410 C 1315.195313 401.101563 1320.78125 386.011719 1330 381 M 283 593 C 272.261719 585.4375 264.222656 574.238281 255 565 C 213.960938 524 191 479.765625 179.800781 423 C 177 409.664063 173 395.640625 173 382 C 179.515625 385.105469 182.253906 392.046875 185.800781 398 C 194.230469 412.152344 200.519531 425.664063 203.246094 442 C 209 476.765625 219.328125 511.695313 244.171875 538 C 259.828125 554.515625 282.472656 567.488281 283 593 M 934 421 C 939 423.613281 942.75 428.191406 948 430.46875 C 956.558594 434.175781 980.839844 429.175781 971.347656 416.042969 C 965.257813 407.621094 954.285156 411 947 404.722656 C 944 402.21875 940.605469 397.3125 946 395.574219 C 973.753906 386.738281 997 427.351563 970.984375 443.519531 C 961.25 449.550781 943.941406 451 936.996094 440 C 933.34375 434.265625 934 427.46875 934 421 M 528 422 C 533.664063 424.382813 538.359375 428.589844 544 431.097656 C 552.667969 435 573.695313 428.496094 565.394531 416.042969 C 559.953125 408 548.308594 410.355469 541 405.007813 C 539 403.574219 533.746094 398 538.324219 396.316406 C 567.554688 386.3125 590.746094 428.507813 563 444.636719 C 543.929688 455.722656 528 441.070313 528 422 M 991 414 C 993.167969 418.085938 992.992188 421 991 425 L 990 425 C 990 421.300781 989.558594 417.433594 991 414 M 916 427 C 916.878906 437.070313 922 444.003906 930 450 L 930 451 C 925.617188 451.035156 913 454.570313 909.832031 451 C 908.277344 449.261719 910.609375 446.523438 911.375 445 C 914.242188 439.296875 912.503906 432.117188 916 427 M 589 428 C 589 432.324219 593.300781 446.699219 591.757813 449.382813 C 590 452.328125 572.6875 450 569 450 L 569 449 C 580.585938 444.144531 581.324219 436 589 428 M 933 465 C 937.226563 472 951.515625 473 959 473 C 981.699219 473.105469 1014.609375 456.621094 1019 432 C 1008.539063 437 1000 447.71875 990 454 C 971.902344 465.105469 953.480469 466 933 465 M 484 434 C 489.769531 458.074219 518.464844 475 542 475 C 550.460938 475.011719 565.980469 474.8125 569 465 C 549.316406 467.488281 527 466 510 455 C 500.65625 449 494 438.632813 484 434 M 1286.5 444.5 C 1285.871094 445.128906 1286.871094 446.128906 1287.5 445.5 C 1288 445 1287 444 1286.5 444.5 M 460 461 C 460 490.722656 459.519531 520.488281 463.285156 550 C 466.457031 575 475.816406 597.566406 465 622 C 450.398438 611.714844 450 598.308594 450 582 C 450 554 448.960938 523.675781 453 496 C 454.644531 486 454 469.285156 460 461 M 1044 461 C 1044.292969 475.21875 1050.476563 488.816406 1051.828125 503 C 1054 526.71875 1052 550.296875 1052 574 C 1052 592 1053.449219 613.160156 1037 625 C 1036.203125 615.25 1032 606 1032 596 C 1032 582 1036.59375 567.800781 1038.917969 554 C 1041.25 540.160156 1041.347656 526 1041.960938 512 C 1042.441406 501 1043 490.046875 1043 479 C 1043 473.382813 1041.8125 466.214844 1044 461 M 925 533 C 925 570.4375 932.621094 612.03125 942.859375 648 C 945.785156 658.277344 950 678.554688 960 684 C 950.710938 648.101563 944.195313 611.167969 935.882813 575 C 933 562.503906 933.789063 543 925 533 M 576 534 C 574.433594 553.667969 567.289063 574.003906 562 593 C 554.167969 622.511719 546.914063 653.675781 543 684 C 552.566406 678.148438 556.820313 659.183594 559.972656 649 C 566.679688 627.339844 568.988281 604.367188 572 582 C 574.347656 566.226563 577.957031 550 578 534 L 576 534 M 476 552 L 476 555 C 477 553.328125 477 553.671875 476 552 M 646 590 C 646 614.71875 647.207031 639.558594 642.914063 664 C 637.417969 695.300781 625.609375 726.109375 618 757 C 626.378906 752 630.476563 732 634.28125 723 C 647.363281 692.335938 655 661.34375 655 628 C 655 616 655.496094 599 646 590 M 854 591 C 852.316406 602.433594 847.550781 613.308594 847 625 C 845.636719 657 854.402344 686.375 865.574219 716 C 870.820313 730 875.777344 744.53125 884 757 L 885 757 C 880.597656 727.082031 867 698.445313 860.425781 669 C 854.691406 643.382813 856 617 856 591 L 854 591 M 537 771 C 546.964844 786.007813 550.609375 807.386719 552 825 C 532.941406 817 531.90625 802.554688 534.421875 785 C 535 780.242188 534.472656 775.21875 537 771 M 968 771 C 969.761719 780.457031 974.273438 795.648438 971.484375 805 C 968.929688 813.570313 958 821.304688 951 826 C 951 810.335938 955.472656 781.765625 968 771 M 838 833 C 829 831.691406 820 827.023438 811 828.300781 C 800.675781 829.738281 792.871094 837.132813 782 835.816406 C 769.464844 834.300781 760.335938 823.273438 747 825.210938 C 736.441406 826.742188 728.808594 836.554688 718 837.660156 C 709.605469 838.519531 701.871094 832.8125 694 831 C 690.253906 830 681.535156 831.5625 679 828.398438 C 676.359375 825.023438 678.78125 817.765625 679.414063 814 C 681.59375 801 683.921875 783.65625 699 779.613281 C 712.5625 776 725.507813 784.550781 739 784 C 756.921875 783.175781 772.535156 772 791 774.183594 C 809.789063 776.53125 816.355469 800.457031 825 814 C 829.234375 820.429688 835.226563 825.796875 838 833 M 722 873 C 719.5625 884.652344 712 889.117188 703 895.761719 C 700.347656 897.71875 697.503906 901.203125 694 901.453125 C 683.902344 902.179688 670.867188 886.269531 668 878 C 673.476563 880.539063 677.28125 885.683594 683 888 C 698 893.601563 709.507813 878.390625 722 873 M 783 873 C 792.566406 881.277344 806.457031 892.445313 820 888 C 825.953125 886 829.996094 881.507813 835 878 C 832.53125 886.382813 818.996094 902.398438 809 901.46875 C 805.394531 901.132813 802.757813 897.613281 800 895.632813 C 792.746094 890.429688 778.21875 884.503906 783 873 M 490.667969 912.667969 C 490.722656 912.722656 490.777344 913.777344 490.332031 913.332031 C 490.277344 913.277344 490.222656 912.222656 490.667969 912.667969 M 612 915 C 612.671875 921.183594 616.355469 927 623 927.773438 C 625.585938 928.109375 633.851563 927.042969 632.246094 922.585938 C 631.488281 920.472656 627.683594 921.074219 626 921 C 620.808594 920.347656 616.613281 917.152344 612 915 M 891 915 C 886.261719 917 882.257813 920.339844 877 921 C 875.316406 921.074219 871.503906 920.472656 870.753906 922.589844 C 869 927.28125 877.335938 928.109375 880 927.667969 C 886.84375 926.527344 890.636719 921.648438 891 915 M 1015 915 L 1015 919 L 1014 919 C 1014.175781 917.316406 1014.316406 916.507813 1015 915 M 490 916 L 490 920 L 489 920 C 489.175781 918.316406 489.316406 917.507813 490 916 M 644 925 C 635.398438 927.390625 647.289063 937 652.847656 935.640625 C 659.878906 934 649.492188 923.386719 644 925 M 854 925.742188 C 846.265625 928.746094 846.378906 938 855.996094 934.070313 C 863.304688 931.089844 862.234375 922.558594 854 925.742188 M 825.984375 938.671875 C 820.878906 939.097656 816.894531 946.429688 824 946.441406 C 830.304688 946.453125 833.949219 938.011719 825.984375 938.671875 M 672.660156 940.03125 C 668.667969 943.558594 678.902344 949.035156 682.289063 946 C 685.929688 942.703125 675.859375 937.203125 672.660156 940.03125 M 697 947 C 691.261719 947.59375 695.984375 953.089844 699.941406 952.792969 C 706 952.335938 701.425781 946.382813 697 947 M 801.335938 947.757813 C 796.71875 950.007813 803.6875 953.777344 806.792969 952.394531 C 811.554688 950.277344 804.527344 946.203125 801.335938 947.757813 M 716.65625 951.082031 C 714 953 718 956.636719 720.34375 955 C 722.878906 953.015625 718.945313 949.363281 716.65625 951.082031 M 782.355469 951.070313 C 779.40625 953 782.910156 956.328125 785.382813 954.71875 C 788 953 784.878906 949.515625 782.355469 951.070313 M 642 956.78125 C 635.679688 959.328125 643 965.4375 647.847656 963.394531 C 653.902344 960.804688 646.46875 955.082031 642 956.78125 M 856 956.757813 C 849 959.460938 856.894531 965.488281 861.765625 963.253906 C 867.753906 960.507813 860.417969 955.058594 856 956.757813 M 887 963 C 881.371094 952.535156 868.265625 963 881.976563 963 L 887 963 M 616 961 C 624 969.226563 631.726563 955.511719 620 959.09375 C 618.589844 959.542969 617.339844 960.296875 616 961 M 664.363281 961.066406 C 659.984375 963.777344 667 969.289063 670.378906 966.777344 C 674 964.003906 667.609375 959.058594 664.363281 961.066406 M 834 960.761719 C 829.703125 962.605469 832.949219 967.628906 836.929688 966.339844 C 842 964.679688 838.726563 959 834 960.761719 M 724 961 C 725.683594 964.34375 727.300781 965.425781 731 966 C 729.296875 962.828125 727.453125 962 724 961 M 771 967 C 774.699219 966.253906 776.664063 965 779 962 C 774.910156 962.308594 772.863281 963.300781 771 967 M 920 962 C 919.488281 968.484375 918.613281 976 913.785156 980.785156 C 910.953125 983.621094 902.933594 985.296875 903 990.089844 C 903 1000.109375 916.777344 995.824219 920.347656 991 C 926.320313 982.8125 923 971.132813 922 962 L 920 962 M 582 964 C 580.84375 973 577.671875 982.664063 582.996094 991 C 586.359375 996.242188 597.570313 1000.664063 600 992 C 600.867188 989.550781 599.574219 987.59375 597.769531 986.105469 C 594.339844 983.269531 590.300781 982 587.726563 978 C 584.808594 973.578125 585.523438 968.046875 582 964 M 706.378906 966.070313 C 701.898438 969.027344 710.855469 975 714.339844 972 C 717.988281 968.804688 709.421875 964.0625 706.378906 966.070313 M 792 965.800781 C 786.917969 967.539063 788.453125 974.457031 793.855469 972.238281 C 798 970.523438 796.828125 964.175781 792 965.800781 M 690 967 C 683.605469 969 692.417969 976 696.847656 974.667969 C 703 973 694.480469 965.589844 690 967 M 809 966.761719 C 803 968.0625 803.332031 976.210938 809.960938 974.546875 C 815.445313 973.171875 815 965.425781 809 966.761719 M 824 975 C 819.386719 975.492188 823.640625 980 826.851563 979.382813 C 831.679688 978.652344 827.28125 974.511719 824 975 M 674.75 976 C 672.347656 978.132813 677.5 980.148438 679.339844 978.796875 C 682.222656 976.675781 676.828125 974.132813 674.75 976 M 791 980.761719 C 785.796875 982.765625 789.304688 988.097656 793.886719 986.378906 C 799 984.445313 795.757813 979 791 980.761719 M 705.753906 982.011719 C 702.671875 985.011719 711.753906 988.414063 714.246094 986 C 717.328125 983 708.246094 979.585938 705.753906 982.011719 M 657.996094 982.800781 C 653.347656 983.597656 648.667969 992.46875 656 991.714844 C 661.3125 991.164063 664.84375 981.628906 657.996094 982.800781 M 841.609375 983.042969 C 836.925781 986.625 845.363281 993.808594 849.664063 991 C 854.683594 987.628906 845.675781 980 841.609375 983.042969 M 690 985.800781 C 685.226563 987.558594 687.933594 994.824219 692.855469 992.574219 C 697.382813 990.503906 694.835938 984.121094 690 985.800781 M 809 986 C 803.304688 987.644531 808.210938 994.664063 812.847656 993.148438 C 818 991.414063 813.617188 984.4375 809 986 M 627 994 C 628.996094 994 631 994.070313 633 994 C 645 993.441406 633.683594 980.332031 627 994 M 864.378906 987.132813 C 859.699219 990 869 995.269531 872.378906 993.386719 C 876.410156 991.132813 867.601563 985.207031 864.378906 987.132813 M 607 989 C 610.816406 1001.804688 625.546875 995.558594 612 990.445313 C 610.367188 989.816406 608.71875 989.40625 607 989 M 896 990 C 894.289063 990.140625 892.65625 990.296875 890.976563 990.667969 C 876.421875 994 891.578125 1003 896 990 M 670 996.085938 C 665.332031 998.414063 665.882813 1007.171875 671.777344 1003.800781 C 675.523438 1001.65625 675.433594 993.472656 670 996.085938 M 828.617188 996.046875 C 824.621094 999.089844 831.605469 1007.007813 835.378906 1003.351563 C 838.957031 1000 832.328125 993.222656 828.617188 996.046875 M 783 1009 L 783 1010 C 763.652344 1007.554688 743.503906 1009 724 1009 C 740.273438 999.0625 765.761719 1005.445313 783 1009 M 654.945313 1009 C 651.210938 1010 645.3125 1019.46875 652 1018.339844 C 656.453125 1017.589844 661.1875 1007.308594 654.945313 1009 M 845.609375 1009.046875 C 841.167969 1012.355469 849.402344 1021.195313 853.378906 1017.351563 C 857.179688 1013.675781 849.550781 1006.109375 845.609375 1009.046875 M 590 1016 C 591.539063 1031 610.667969 1025.378906 596 1018.261719 C 594 1017.304688 592 1016.605469 590 1016 M 915 1016 C 912 1016.53125 899.609375 1020 901.347656 1024.609375 C 904.675781 1033.472656 914 1019.160156 915 1016 M 635.945313 1018.800781 C 632 1020.085938 627.609375 1029.324219 634 1027.199219 C 637.945313 1026 642.390625 1016.675781 635.945313 1018.800781 M 864.363281 1019.070313 C 859.550781 1022.160156 867.777344 1028.652344 871.667969 1026.636719 C 876.890625 1024 868.601563 1016.347656 864.363281 1019.070313 M 614.445313 1030.117188 C 611.949219 1031.6875 615.363281 1034.144531 617.34375 1032.804688 C 619.691406 1031.21875 616.304688 1029 614.445313 1030.117188 M 891 1031 C 882.691406 1027.410156 885.304688 1036.648438 891 1031 M 795 1036 L 795 1037 C 786.964844 1040.753906 779.519531 1045.519531 771 1048.253906 C 747.542969 1055.78125 727.285156 1049.417969 707 1037 C 721 1035.710938 737.175781 1048.28125 752 1049.191406 C 768 1050.175781 780.375 1040.214844 795 1036 M 604 1075 C 606.226563 1081.546875 612 1085.527344 616 1091 C 620.972656 1097.722656 623 1105.8125 623.828125 1114 C 626.460938 1141.171875 613.234375 1167.699219 619.5 1195 C 623 1211 632 1225 639.691406 1239 C 649.300781 1256.722656 657.789063 1275 666.753906 1293 C 673.730469 1307.058594 679.996094 1321.558594 686 1336 C 688.492188 1341.496094 690 1350.390625 695 1354 C 692.964844 1340.230469 685.804688 1327 680.8125 1314 C 670.53125 1287.464844 659.929688 1261.101563 648.574219 1235 C 642.453125 1221 634 1208 630 1193 C 623.828125 1169 634.585938 1143.449219 633.984375 1119 C 633.488281 1098.757813 622.742188 1082.804688 604 1075 M 872 1075 C 864.425781 1087.289063 858 1098.773438 854.886719 1113 C 849.207031 1137.664063 851.777344 1163.195313 847.386719 1188 C 844 1207.078125 836.976563 1225.15625 832.652344 1244 C 827.265625 1267.464844 824.542969 1291.292969 820.566406 1315 C 818.175781 1329.238281 813 1343.496094 813 1358 L 814 1358 C 825.492188 1328 831.636719 1296.800781 840.425781 1266 C 847.425781 1241.480469 861.890625 1219.21875 866.386719 1194 C 870.339844 1171.8125 865.574219 1149.199219 864 1127 C 863.355469 1116.023438 864.914063 1102.460938 868.359375 1092 C 870 1087 874.941406 1080.191406 872 1075 "/>
</g>
</svg>
