<?xml version="1.0" encoding="UTF-8"?>
<svg xmlns="http://www.w3.org/2000/svg" xmlns:xlink="http://www.w3.org/1999/xlink" width="1500pt" height="1500pt" viewBox="0 0 1500 1500" version="1.1">
<g id="surface1">
<path style=" stroke:none;fill-rule:nonzero;fill:rgb(0%,0%,0%);fill-opacity:1;" d="M 594 176 C 615.679688 170.070313 635.503906 156 656 147 C 679.859375 136.3125 702 132 728 132 C 709.738281 147.015625 689 156.199219 677 178 C 697.269531 178 715.902344 167.8125 732 156.289063 C 737.433594 152.402344 748.59375 138.429688 755 138.347656 C 761.414063 138.261719 773.390625 153.359375 779 157.277344 C 795 168.546875 813.789063 175.273438 833 179 C 828.589844 164.007813 812.441406 151.636719 800 143.21875 C 794.382813 139.414063 788.167969 137.609375 784 132 C 818.789063 132 847.683594 143 879 157.308594 C 891.699219 163.140625 904 173.601563 918 176 C 908.394531 157.496094 877.730469 143.625 859 136.574219 C 845.722656 131.582031 831.835938 130 818 127.195313 C 801.449219 124 785.925781 119.25 769 118.089844 C 735.234375 115.777344 701.535156 123.53125 669 131.628906 C 647.796875 137 628.28125 146.398438 611 159.792969 C 604.796875 164.601563 597.421875 168.664063 594 176 M 418 179 L 418 180 C 412 181.136719 401.34375 182 397.65625 187.226563 C 395.863281 190 397.609375 193.089844 395.554688 195.609375 C 392.714844 199.09375 387.347656 199.425781 385.605469 204.042969 C 383.769531 209 387.914063 213.324219 383.757813 217.671875 C 376.707031 225.042969 365.203125 225.800781 357 231.46875 C 351.195313 235.609375 357.382813 238.753906 355 243.332031 C 353.339844 246.527344 348.695313 248.171875 346 250.378906 C 341 254.414063 337.746094 260 336 266 L 352 265 C 348.226563 270 343.167969 273.632813 340 279 C 351.691406 280.320313 341 292 337.230469 297 C 323.480469 315.195313 307.824219 333.671875 301.425781 356 C 295.523438 376.597656 295.6875 398 292.574219 419 C 289.476563 440 282.257813 460.730469 282 482 C 281.824219 497 281.746094 512.085938 283.171875 527 C 283.925781 535 287.839844 544.113281 286.515625 552 C 284.746094 562.5625 275 570.101563 269.875 579 C 262 592.351563 256.472656 609 253 624 L 252 624 C 254.695313 609.488281 256.695313 592.777344 257 578 C 251.746094 581.441406 248 591 247 597 L 246 597 C 246 587.734375 246.949219 578.679688 250.453125 570 C 255 558.660156 263.347656 547 261.890625 534.015625 C 261.238281 528.257813 254.929688 526.246094 252.765625 521 C 250.414063 515.296875 250.628906 509 249.699219 503 C 249.480469 501.585938 248.996094 497.207031 246.894531 497.207031 C 244.246094 497.207031 239.78125 504.183594 238 506 C 238 495.0625 236.464844 484.082031 232 474 L 231 474 C 229 476.609375 227.421875 479.136719 226 482 L 225 482 C 223.292969 475.066406 218.253906 449.453125 211 467 C 210.199219 469 209.5625 471 209 473 L 208 473 C 207.457031 466.113281 205 440.644531 195.714844 455 C 194.648438 456.601563 193.828125 458.253906 193 460 L 192 460 C 192 453.570313 191.503906 447.386719 191 441 C 184.730469 444 177 457.070313 177 443.023438 L 177 438 C 165.367188 444.742188 164 456.710938 164 469 L 163 469 C 159.214844 456 150.183594 444.246094 144.257813 432 C 136.738281 416.457031 133.300781 399.242188 127.65625 383 C 123.820313 372 115.316406 363.269531 112.289063 352 C 108.953125 339.570313 113.238281 329 116 317 L 117 317 C 119.855469 327.441406 130 333.140625 133 319 L 134 319 C 135.242188 330.773438 127.664063 339 126 350 C 136 346.125 144 334.613281 145 324 L 146 324 C 145.980469 350.550781 130.9375 379.316406 143.808594 405 C 145.507813 408.382813 155.320313 426 159.449219 425.078125 C 161.660156 424.613281 160.773438 420.402344 160.480469 419 C 159 412.425781 155.457031 406.566406 154 400 C 147.339844 369.609375 171.734375 346 173 317 C 186.402344 330.269531 186.289063 358.785156 183.871094 376 C 182.765625 384 178.964844 394 181.316406 402 C 183.351563 408.652344 190.714844 400 194.566406 402 C 198.304688 404.078125 196.988281 410.59375 199 413.796875 C 201.476563 417.199219 204.742188 413.824219 207.398438 415.824219 C 211 418.574219 207.695313 427.414063 207 431 C 213.785156 429.003906 217.335938 424.828125 221 419 C 222 423.519531 222 427.480469 221 432 C 230 429.34375 236.425781 422.179688 244 417 C 241.933594 420.542969 240 424.050781 239 428 C 244.566406 427.007813 255 416.636719 259.398438 417.628906 C 262.300781 418.289063 260.347656 425.164063 260.171875 427 C 259.179688 437.226563 257.210938 447.746094 257 458 C 280.972656 449.082031 271.203125 412.652344 281.515625 394 C 286.484375 385.007813 294 376.714844 294.90625 366 C 295.621094 357 288.886719 346.585938 292 338 C 293.925781 333.335938 298.761719 331.238281 300.761719 327 C 302.421875 323.351563 299.476563 320 301.296875 316 C 305.425781 307.007813 313.390625 300.34375 318.53125 292 C 324.550781 282.234375 325.34375 271.265625 329.878906 261 C 332.242188 255.644531 337.296875 252.195313 339.636719 247 C 342.683594 240.234375 332.484375 237 336 230 C 342.3125 218.136719 355.878906 211.800781 362 200 L 343 200 L 343 199 C 352.984375 198.128906 372.34375 192.625 379 185 C 365.191406 185 352.503906 187.382813 339 190 L 339 189 C 355.828125 183.671875 371 171.046875 388 164.683594 C 396.195313 161.601563 408 160.800781 414 154 C 403.414063 154 393.574219 152.738281 383 154.4375 C 363.484375 157.574219 345.234375 165.78125 326 170.113281 C 315.460938 172.484375 303 170.105469 293 175 C 286.652344 178.132813 286.25 186.789063 279.984375 190.648438 C 262.710938 201.292969 240 204.484375 221 211.003906 C 212.628906 214 206.292969 220.363281 198 223 C 162.441406 233.546875 108.929688 249.003906 103 293 L 107 292 C 100.40625 311.367188 92.613281 328 94 349 C 95.269531 366 107.738281 377.738281 113.304688 393 C 126.425781 429 139.824219 464.585938 160.691406 497 C 181.683594 529.605469 210.34375 558.234375 229 592 C 239.78125 611.121094 233.480469 623.144531 232 643 C 231.296875 654.339844 234.3125 665.753906 232.5625 677 C 231 687.019531 229 696.820313 229 707 C 229 710 228 715 230 717.398438 C 232.855469 721 240.671875 717.773438 244 716.5625 C 257.609375 711.621094 268.648438 703.195313 277.738281 692 C 301.4375 662.824219 306.398438 625 312.414063 589 C 314.472656 576.722656 318.992188 564.351563 320 552 L 321 552 C 319.589844 569.273438 315.972656 585.429688 316 603 C 316 615.027344 319.734375 627 318.910156 639 C 317.8125 655.078125 314.191406 671 313 687 C 310.761719 721 314 757 321.882813 790 C 331 828.613281 351.921875 861.738281 367 898 C 355.894531 886.804688 347.476563 873.734375 339.859375 860 C 336.554688 854.035156 334.539063 844.0625 329 840 C 333.984375 860.230469 335.496094 880.753906 344.308594 900 C 357.882813 929.644531 385 956.105469 405.921875 981 C 419 996.742188 432 1017.128906 449 1029 C 446.644531 1010.351563 450.699219 991.699219 448.828125 973 C 448 965.230469 446.683594 953.742188 437 959 C 437.363281 954.441406 439.296875 949.5625 438.8125 945 C 437.917969 936.554688 433 928.199219 432.171875 919 C 429.914063 895.324219 429 872.089844 422.574219 849 C 419.367188 837.773438 409 826.039063 407.640625 815.003906 C 406.351563 805 421 809.261719 422 802.734375 C 422.980469 797 410.269531 793 408.890625 787.003906 C 407.589844 781.363281 416 781.648438 415.417969 777 C 414.636719 771.082031 407.457031 767.808594 404.785156 763 C 402 758.144531 407.886719 755.5 406.65625 751.039063 C 405.40625 746.488281 398.972656 745.128906 398.464844 740.019531 C 397.738281 732.707031 409.921875 736.214844 408.507813 729 C 406.914063 720.8125 383.460938 712.398438 396.992188 704.421875 C 398.574219 703.488281 400.34375 702.789063 402 702 C 398.261719 699 391.1875 697.472656 388.972656 693 C 385.195313 685.097656 402 680.730469 407 680 C 403.578125 674.820313 394.882813 673.269531 389 673 C 396.714844 667.113281 405.773438 668 415 668 C 411.285156 662.730469 392.230469 650 406 645.558594 C 408.253906 645 410.699219 644.566406 413 644 L 413 643 C 410.289063 642 393.679688 634.828125 395.207031 631.425781 C 397.839844 625.550781 404.757813 624.816406 406 617 C 404.34375 617.464844 402.671875 618.015625 400.976563 618.320313 C 386.375 621 397 606.5625 399 601 C 395.640625 601.769531 385.777344 602.265625 387.496094 596.023438 C 392.542969 577.722656 417.5 598.503906 423 604 L 409 604 C 411.878906 609.628906 442.746094 624.09375 424 626.710938 C 422 627 420 627 418 627 C 421.441406 632.253906 447.921875 644.082031 427 647.269531 C 424.996094 647.574219 423 648 421 648 C 424.546875 653 429.472656 656.089844 433.828125 660.289063 C 441.871094 668.035156 446.222656 678.03125 459 675 C 456.53125 680.609375 443.636719 686.394531 443.636719 691.039063 C 443.636719 698.113281 456.96875 699.453125 460.574219 704.210938 C 468.234375 714.332031 440.359375 715 436 715 C 440.574219 726 450.308594 733.265625 455 744 C 444.703125 738 433 733.101563 421 733 C 430.195313 745.785156 441.804688 755 450 769 C 441 766.074219 431.519531 762.414063 422 762 C 425 765.742188 440.960938 778.777344 436.289063 784.398438 C 433.515625 787.730469 423.921875 786 420 786 C 424.355469 792 438.800781 798.421875 437.574219 807 C 436.65625 813.378906 428.933594 812.5 425.644531 816.511719 C 423.347656 819.304688 425.320313 824 426 827 C 439 874.285156 452 925.0625 456.828125 974 C 458.304688 989.445313 452.359375 1004.488281 453 1020 C 453.886719 1039.3125 460.976563 1057.601563 466 1076 L 465 1076 C 463 1072.648438 459.410156 1071.3125 457.417969 1068 C 453.714844 1061.683594 452.945313 1054.128906 448.777344 1048 C 426.195313 1014.789063 395.546875 985.433594 370.398438 954 C 359.894531 941 347.664063 928.644531 339.230469 914 C 330.683594 899.15625 326.785156 876 325.171875 859 C 324.519531 852.183594 326.203125 846 324.90625 839 C 323 829.203125 317.585938 820.503906 314.722656 811 C 308.378906 790 304 767.019531 304 745 L 303 745 C 301.691406 755.300781 300.339844 765.425781 288 766 C 291 775.117188 296.992188 782 302 790 L 278 781 C 282.691406 795.394531 293.824219 810.535156 309 815 L 309 816 C 297 813.230469 286 807.359375 274 805 C 280.882813 818.15625 296.210938 816.371094 306 825 C 295.847656 825 286 824.203125 276 825 L 276 827 C 288.734375 827.035156 299.457031 831.195313 311 836 L 311 837 C 298.839844 834.742188 288.820313 838.261719 277 840 L 277 842 C 289 842 296.894531 846.800781 308 850 L 308 851 C 297 850.527344 282 845.277344 276 858 C 284.253906 858.066406 293.925781 859 300 865 C 292.257813 865.0625 281.488281 867.007813 277 874 C 288.835938 875.59375 299 881.160156 306 891 C 296.910156 891 288 889.386719 279 889 C 281.699219 893.753906 287.578125 895.371094 292 898.359375 C 297.882813 902.332031 302.546875 907.53125 307 913 C 298.734375 911 290.203125 911 282 909 C 285.335938 914.089844 293 916.296875 298 919.769531 C 305 924.777344 310 931 315 938 C 309.664063 935.464844 304.683594 934.367188 299 933 C 302.226563 938.28125 309.277344 941.304688 314 945.296875 C 326 955.449219 338.492188 965.382813 348 978 C 332.453125 968.414063 319.683594 956.34375 305 946 C 312.28125 971.28125 334.320313 986 353 1002 C 337.40625 995.472656 324.671875 983.523438 309 977 C 313.894531 989.722656 330 1002.058594 342 1008 L 342 1009 C 326.546875 1004.539063 313.808594 992.199219 299 986 C 302.675781 1000.582031 317.304688 1013 331 1018 L 331 1019 C 324.230469 1019 317.714844 1019.152344 311 1020 L 311 1022 C 317.960938 1023.027344 324.195313 1026.386719 331 1028 L 331 1029 C 315.503906 1027.042969 299.597656 1022.320313 284 1022 L 284 1023 C 304.242188 1030 322.9375 1041.640625 344 1046 L 344 1047 C 327.359375 1046.65625 312.417969 1051.292969 296 1052 L 296 1053 C 305.804688 1058.722656 317.429688 1065.472656 329 1066 L 329 1067 C 322.902344 1067.050781 316.777344 1068.042969 311 1070 L 311 1071 C 322.898438 1077.773438 335.71875 1082.617188 346 1092 C 330.960938 1097.480469 319.71875 1086 306 1082 C 309 1090.035156 315.871094 1095.378906 322 1101.089844 C 333.496094 1111.800781 344.265625 1123.652344 359 1130 C 355 1134.011719 351.441406 1138 349 1143 C 355.800781 1142.707031 362.21875 1141.253906 369 1143 C 378 1145.109375 385.914063 1151 395 1153 L 395 1154 C 379.320313 1153.328125 358.988281 1148.113281 348 1163 C 368.957031 1157.097656 390 1160.632813 407 1175 C 401.320313 1175.722656 395.5625 1176.628906 390 1178 L 390 1179 C 406.199219 1183 415.953125 1199.390625 428 1209.699219 C 446.585938 1225.609375 472.527344 1236 497 1236 L 497 1238 C 489.945313 1238.304688 483 1240.632813 476 1239.710938 C 462.929688 1238.015625 452.378906 1230.566406 440 1227 C 443.890625 1242.433594 459.390625 1253.269531 471 1263 C 493 1281.246094 518.527344 1293.511719 544 1306.246094 C 562.613281 1315.554688 582.53125 1325.378906 604 1324 C 631.996094 1322 655.976563 1306.640625 683 1303 C 673.3125 1312 662.773438 1319.34375 651 1325.246094 C 648.898438 1326.300781 640.207031 1329.164063 640.207031 1332 C 640.207031 1334.125 644.511719 1335.109375 646 1335.558594 C 652.457031 1337.507813 660.363281 1337.710938 667 1336.535156 C 694.996094 1331.585938 714.59375 1308.578125 740 1298 C 728 1312.589844 714.6875 1326.578125 698 1335.6875 C 689.480469 1340.339844 679.824219 1342.089844 671 1346 L 671 1347 C 703.496094 1366 739.601563 1369.777344 776 1375.425781 C 807.300781 1380.277344 839.730469 1386.367188 871 1378.117188 C 889.578125 1373.214844 906.300781 1363.476563 923 1354.304688 C 951 1339 978.59375 1322.144531 1003 1301.128906 C 1029 1278.671875 1059 1262.054688 1071 1227 C 1060.722656 1228.769531 1052.167969 1235.667969 1042 1238.101563 C 1031.824219 1240.535156 1021.261719 1238.007813 1011 1238 L 1011 1237 C 1035.597656 1235.058594 1059 1227.371094 1079 1212.523438 C 1093.53125 1201.714844 1105 1188.058594 1120 1178 C 1114.421875 1176.234375 1108.816406 1176 1103 1176 C 1119.742188 1161 1141 1158.199219 1162 1163 C 1151.226563 1148.066406 1130.585938 1154 1115 1154 L 1115 1153 C 1123 1150.660156 1129.789063 1145.078125 1138 1143 C 1145.566406 1141 1153.378906 1142.398438 1161 1143 C 1159.261719 1139.265625 1153 1134.699219 1153.394531 1130.4375 C 1153.847656 1125 1165.984375 1120.140625 1170 1117.253906 C 1183.199219 1107.757813 1198.394531 1096.304688 1205 1081 C 1189 1086.058594 1179.550781 1093 1162 1093 C 1171.855469 1083.007813 1189 1080.464844 1198 1070 C 1192.46875 1068.636719 1186.679688 1067.453125 1181 1067 L 1181 1066 C 1192.945313 1065.480469 1204.417969 1059.804688 1214 1053 C 1201.902344 1045.753906 1177.84375 1047 1164 1047 L 1164 1046 C 1185 1043.15625 1205.34375 1030.78125 1225 1023 L 1225 1022 C 1209.195313 1022.324219 1193.773438 1027.753906 1178 1029 L 1178 1028 C 1185 1026.359375 1191.777344 1023.066406 1199 1022 L 1199 1020 L 1178 1019 L 1178 1018 C 1192.839844 1013.726563 1207.648438 1001.078125 1212 986 C 1196 990.597656 1184 1004.390625 1168 1009 L 1168 1008 C 1181.945313 1004 1195.507813 989 1203 977 C 1189.613281 980.179688 1178.773438 989.445313 1167 996 C 1183.46875 981.613281 1197.507813 965.394531 1206 945 C 1199.832031 948.53125 1195.363281 955.046875 1190 959.710938 C 1181.546875 967.0625 1171.878906 972.804688 1162 978 C 1176.300781 961.582031 1191.355469 943.640625 1212 935 L 1212 934 C 1206.179688 934.015625 1201.542969 935.488281 1196 937 C 1204.921875 926 1218.992188 920 1227 909 C 1218.75 909.023438 1210.910156 910.773438 1203 913 C 1211 903.09375 1219.890625 897 1231 891 C 1223.335938 886.40625 1211.222656 890.40625 1203 892 C 1209 881.445313 1220.980469 875 1233 874 C 1227 867 1217.898438 865.023438 1209 865 C 1215.21875 858.722656 1225.574219 858.023438 1234 858 C 1228.203125 846 1211.71875 850.539063 1201 851 L 1201 850 C 1212 848.078125 1221.261719 842.03125 1233 842 C 1226.320313 833.1875 1206.457031 836.59375 1197 837 L 1197 836 C 1209.570313 834.117188 1221 827.558594 1234 827 L 1234 825 C 1223.59375 824.179688 1213.292969 825.300781 1203 824 L 1203 823 C 1214.382813 822.503906 1229.90625 817 1235 806 C 1224 807 1213.769531 812.769531 1203 815 L 1203 814 C 1215.878906 810 1229.796875 794.703125 1231 781 C 1223.257813 784.335938 1216.53125 788.738281 1208 790 C 1213 782.570313 1218.882813 774.828125 1221 766 C 1208.851563 766 1207 756.613281 1207 746 L 1206 746 C 1205.183594 765.046875 1202.722656 784.652344 1197.277344 803 C 1193.679688 815.132813 1187.347656 826.644531 1184.667969 839 C 1179.183594 864.296875 1181.496094 891.070313 1168.878906 915 C 1160.816406 930.292969 1148.738281 943.578125 1138 957 C 1121 978.214844 1103.9375 999.355469 1086.269531 1020 C 1077.171875 1030.632813 1066 1040.402344 1058.226563 1052 C 1052.878906 1060 1052.886719 1067.519531 1045 1074 C 1050 1055.101563 1057.820313 1037 1057.820313 1017 C 1057.820313 1002.335938 1051.421875 990 1053.285156 975 C 1059.828125 922.398438 1076 871.625 1086.902344 820.042969 C 1088.53125 812.300781 1074.304688 815.640625 1072.832031 808 C 1071.480469 801 1086.246094 791.328125 1090 786 C 1086.257813 786 1076.335938 787.742188 1073.816406 784.398438 C 1069.480469 778.636719 1085.972656 765.753906 1089 762 C 1078.886719 762.210938 1069.503906 766 1060 769 C 1066.652344 753.019531 1080.507813 746.195313 1090 733 C 1077.714844 733.535156 1066.792969 740.269531 1055 743 C 1062.265625 734.679688 1071.808594 726 1075 715 C 1067.964844 715 1060.488281 715.757813 1054 712.441406 C 1051 711 1047.324219 708 1049.660156 704.328125 C 1053.175781 699.039063 1067.542969 698.578125 1067.652344 691.039063 C 1067.707031 687.453125 1054.582031 679.347656 1052 675 C 1064.800781 677.339844 1069.785156 667 1078 659.089844 C 1081.910156 655.386719 1086.597656 653 1089 648 C 1086.964844 648 1085 647.777344 1082.996094 647.378906 C 1062.824219 643.394531 1088.625 632.519531 1092 627 C 1090 627 1087.980469 627.058594 1085.996094 626.824219 C 1079.691406 626.09375 1077.976563 622.796875 1083 618.324219 C 1088.753906 613.25 1098.867188 611.308594 1103 605 C 1098.167969 605 1093.675781 604.210938 1089 603 C 1095.230469 596.785156 1104.183594 588 1114 589.378906 C 1126.902344 591.246094 1124.707031 602.5 1112 601 C 1113.582031 604.742188 1119.9375 610.632813 1118.578125 615 C 1116.894531 620.078125 1110.863281 616.027344 1107.644531 617.691406 C 1101.402344 621 1115.46875 630.191406 1118 631 C 1112.335938 635.8125 1104.746094 638.269531 1100 644 C 1120.308594 649.019531 1103 658 1096 668 C 1105.316406 668 1113.289063 668.449219 1122 672 L 1122 673 C 1119.621094 673.050781 1117.335938 673.167969 1114.996094 673.667969 C 1113.664063 674 1112.277344 674.269531 1111 674.765625 C 1098 679.792969 1120.667969 683.222656 1122.386719 689.714844 C 1123.988281 695.753906 1112.207031 695.429688 1112.207031 701 C 1112.207031 705.53125 1121.753906 705.644531 1120.386719 710.464844 C 1118.332031 717.714844 1098.742188 722.121094 1102.648438 731.683594 C 1104.269531 735.65625 1110.863281 733.257813 1112.597656 738.058594 C 1114.664063 743.789063 1106.984375 746.570313 1104.75 750.464844 C 1102.527344 754.339844 1108.523438 757.636719 1107 762 C 1104.996094 767.746094 1097.347656 770 1095.890625 776 C 1094.578125 781.308594 1104.386719 781.679688 1101.761719 788 C 1099.519531 793.398438 1089.808594 796.453125 1088.921875 801.816406 C 1088.171875 806.335938 1104.460938 806 1103.5 815 C 1102.925781 820.433594 1098.191406 825.265625 1095.808594 830 C 1091.988281 837.589844 1089.363281 845.820313 1087 854 C 1080 880 1078.902344 904.558594 1076.910156 931 C 1076.519531 936.179688 1072.957031 938.550781 1071.703125 943.089844 C 1070.53125 947.324219 1073 954.335938 1073 959 C 1062.667969 954.730469 1062.453125 966.449219 1061.425781 974 C 1058.960938 992.09375 1061.988281 1011 1062 1029 C 1079.65625 1020.816406 1091.472656 997.589844 1103.425781 983 C 1139 939.476563 1178.441406 897.417969 1181 838 L 1180 838 C 1172.453125 861.1875 1160.269531 881.722656 1143 899 C 1157 862.722656 1179 830.292969 1188 792 C 1194.398438 765.53125 1199 736.246094 1197.960938 709 C 1196.984375 686 1192.671875 663.101563 1191 640 C 1189.886719 622.449219 1194.992188 605.429688 1194.992188 588 C 1194.992188 575.324219 1190 563.472656 1189 551 L 1190 551 C 1191.597656 561.804688 1195.957031 572.089844 1197.574219 583 C 1203.320313 622 1206.742188 656.746094 1232 689 C 1240 699.382813 1261.25 722.167969 1276.957031 717.332031 C 1286.832031 714.292969 1279.207031 687.804688 1278.285156 680 C 1277 669.65625 1279.414063 659.367188 1278.960938 649 C 1278.464844 637.675781 1273.796875 626.34375 1274.375 615 C 1275 602 1283 589.664063 1290 579 C 1306.972656 553.296875 1328.433594 531.019531 1344.945313 505 C 1367.242188 470 1382.464844 432 1396.695313 393 C 1402.644531 376.738281 1416 364.144531 1416.960938 346 C 1417.769531 327.65625 1411.242188 313.097656 1405.871094 296.054688 C 1404.644531 292.152344 1407.382813 289.035156 1406.382813 285 C 1404 275.714844 1396.492188 266.679688 1389.960938 260.015625 C 1368.683594 238.300781 1341.445313 233.292969 1314 224 C 1306 221.316406 1300.566406 215.535156 1293 212.402344 C 1277 205.808594 1260.179688 202 1244 196 C 1237.808594 193.683594 1229.886719 191.8125 1225.277344 186.8125 C 1221.496094 182.707031 1221.589844 177 1215.957031 174.484375 C 1205.378906 170 1192 172 1181 169.347656 C 1160.800781 164.71875 1141.699219 155.828125 1121 153.285156 C 1112.917969 152.292969 1105 154 1097 154 C 1103 161.113281 1113.695313 161.660156 1122 165.015625 C 1138.558594 171.703125 1153.988281 184.089844 1171 189 L 1171 190 C 1156.972656 188.109375 1144.332031 185 1130 185 L 1130 186 L 1165 199 L 1165 200 L 1148 199 C 1153.441406 212 1168.566406 218.347656 1174.382813 231 C 1177.476563 237.726563 1167 240.28125 1169.175781 245.589844 C 1171 250.417969 1176.683594 254.175781 1179.179688 259 C 1184.601563 269.480469 1186 281.496094 1191.375 292 C 1195.679688 300.433594 1203.308594 306.199219 1208.328125 314 C 1210.703125 317.691406 1208.210938 320.355469 1209.324219 324 C 1210.714844 328.574219 1215.886719 331.46875 1217.773438 336 C 1221.636719 345.28125 1213.453125 354.570313 1214 364 C 1214.898438 375.679688 1224.378906 384.257813 1229.6875 394 C 1240.566406 414 1228.628906 446 1253 458 C 1253 443.117188 1248.636719 428.808594 1248 414 C 1255 419.660156 1262.792969 426.359375 1272 428 C 1270.5 424.34375 1268.917969 421 1268 417 C 1273.871094 422.617188 1280.285156 428.175781 1288 431 L 1288 418 C 1293 423.054688 1295.183594 428.585938 1303 430 C 1300.621094 420.351563 1299.253906 412.203125 1311 417 C 1311.3125 413.085938 1311.816406 403 1316.394531 401.445313 C 1321.605469 399.714844 1327.371094 408.609375 1329.515625 399 C 1332.4375 386 1324.179688 372.109375 1324.179688 359 C 1324.179688 343.257813 1332.480469 330 1336 315 L 1337 315 C 1338 341.207031 1359.363281 364.367188 1356.828125 391 C 1355.898438 400.800781 1342.882813 419.050781 1351 427 C 1356.277344 416.210938 1365 408 1368.242188 396 C 1374.757813 371.675781 1364.503906 346.402344 1364 322 L 1365 322 C 1365.984375 334.015625 1374.355469 345.476563 1385 351 C 1383.464844 339.609375 1377.484375 329.496094 1376 318 L 1377 318 C 1380.554688 330 1391.777344 328 1393 316 C 1401.253906 326.046875 1402.320313 339.707031 1399 352 C 1395.878906 364.125 1386.519531 373.367188 1382 385 C 1371.769531 412 1366 444.589844 1347 467 C 1346.96875 455.628906 1343.804688 443.621094 1333 438 L 1333 452 C 1330.390625 449.273438 1325.5625 441.207031 1321.429688 441.207031 C 1317.253906 441.207031 1317 456.015625 1317 459 L 1316 459 C 1314.546875 454.097656 1311.960938 450.226563 1308 447 C 1305.167969 455.367188 1303.183594 465.15625 1303 474 L 1302 474 C 1301.636719 472 1301 470 1300.382813 468 C 1292.765625 448.300781 1287 474.105469 1286 483 L 1285 483 C 1283.640625 477.339844 1279.195313 471.394531 1276.445313 480.003906 C 1273.933594 488 1273 496.792969 1273 505 C 1270 502 1267.398438 498.597656 1264 496 C 1261.910156 503.4375 1262.761719 512 1259.851563 519 C 1256.25 528 1249.785156 528.804688 1251.183594 540 C 1253.625 559.546875 1271 573.390625 1267 595 L 1266 595 C 1265 588.339844 1262 582 1259 576 L 1258 576 C 1258 589.4375 1258 602 1255 615 L 1254 615 C 1252.300781 602.386719 1248.394531 587.121094 1242 576 C 1236.765625 566.496094 1227.925781 559.378906 1226.628906 548 C 1224.683594 531 1229.722656 512.425781 1228.960938 495 C 1227.835938 469.265625 1221.457031 444.488281 1218.285156 419 C 1215.882813 399.695313 1216.382813 380 1211.523438 361 C 1206.230469 340.347656 1192.664063 323.710938 1180 307 C 1175 300.328125 1164.296875 290.789063 1163.285156 282.144531 C 1162.90625 279 1167.539063 278.804688 1167 275.8125 C 1166.59375 272.675781 1159.789063 270 1161.207031 266.597656 C 1162.796875 263 1171 267.328125 1171.402344 262 C 1171.964844 252.097656 1158 250.019531 1155.238281 243 C 1153.929688 239.625 1156.691406 236.414063 1154.382813 233.226563 C 1148.210938 224.703125 1132.386719 225.390625 1125.332031 216.816406 C 1121.757813 212.46875 1126.238281 208 1124.253906 203.183594 C 1122.460938 199 1117.34375 198.53125 1114.539063 195.363281 C 1112.425781 193 1113.96875 189.769531 1112.296875 187.214844 C 1108.53125 181.460938 1098 181.144531 1092 180 C 1094.546875 177 1096.734375 173.824219 1092.847656 170.703125 C 1082.5 162.394531 1061.699219 163 1053.636719 150.625 C 1050 145.207031 1067.460938 140.617188 1062.339844 136.023438 C 1060 134 1053.871094 135 1051 135.039063 C 1042.46875 135.414063 1033.707031 138 1026 141.488281 C 1021.976563 143.378906 1017.628906 147.367188 1013 147.433594 C 1007.410156 147.511719 1001.335938 141.222656 996 139.34375 C 981.867188 134.367188 967 131 952 131 C 937.328125 131 923.292969 131.34375 909 135.15625 C 907 135.65625 894.871094 138.488281 896.347656 141.511719 C 898.523438 146 914.417969 149.03125 919 150.8125 C 936.945313 157.785156 953.765625 167 968 180 C 960 176.679688 952.535156 172.765625 944 171 C 947.5 177.746094 953.785156 182.5 958.910156 188 C 969.585938 199.457031 979.886719 211.453125 993 220.25 C 1001.894531 226.21875 1011.976563 229.679688 1020 237 L 1006 237 L 1006 238 C 1026 247.40625 1050.902344 258.023438 1073 261 L 1073 262 C 1063.304688 262 1053.222656 261.546875 1044 265 L 1044 266 C 1060.75 268.128906 1075.710938 276.195313 1092 279 L 1092 280 C 1074.316406 277.617188 1060.683594 277.617188 1043 280 L 1043 282 C 1058.90625 284.054688 1075.261719 290.429688 1089 298.605469 C 1097.828125 304 1105.472656 311.011719 1115 315 L 1115 316 C 1103.90625 313.265625 1092.429688 311 1081 311 C 1079.195313 311 1068.847656 310 1070.347656 314 C 1072.175781 318.652344 1085.640625 322.429688 1090 325 C 1103.960938 332.652344 1117.894531 342.683594 1127 356 C 1112.476563 347.109375 1096.296875 340.046875 1079 340 C 1085.605469 348.113281 1096.664063 353.097656 1105 359.375 C 1121.285156 371.640625 1133.679688 384.324219 1142 403 C 1124.820313 391 1110.574219 371.554688 1091 363 C 1095.640625 380 1105.359375 395.332031 1111 412 C 1076.269531 385.304688 1031.933594 361.421875 1028 312 L 1027 312 C 1027 340.601563 1037.855469 370.246094 1054.894531 393 C 1082.710938 430.144531 1123.785156 458.457031 1137 505 C 1133.230469 502.125 1129.371094 499.828125 1125 498 C 1127.757813 507.640625 1133.335938 516.230469 1135.84375 526 C 1136.789063 529.675781 1137.371094 534.742188 1132.890625 536.355469 C 1128.964844 537.769531 1123.894531 534.671875 1120 534 L 1122 541 C 1106.886719 536.550781 1099.738281 521.171875 1093.691406 508 C 1083.367188 485.515625 1064.984375 449.441406 1037 447 C 1041.433594 453.296875 1047.195313 458.175781 1051 465 C 1035 455.066406 1023.4375 447.542969 1005 443 L 1005 442 L 1030 441 C 1022.335938 428.222656 1001 429 988 429 C 993.859375 423.277344 1000.78125 421.652344 1007 417 C 1001.773438 414.683594 996 413.5625 991 411 C 995.964844 409 1003.925781 407.492188 1007 403 L 985 402 C 987 394 978.976563 393.226563 973 391 L 973 390 L 983 391 L 983 390 C 974.820313 385.242188 965.789063 383 957 379.574219 C 923.167969 366.816406 884.929688 353.753906 858.925781 389 C 854.746094 394.660156 851.578125 401.195313 849.757813 408 C 847 418 849.21875 426.164063 850 436 L 849 436 C 845.558594 428.726563 840.46875 420.484375 833 417 C 833 422.078125 834 427.019531 835 432 C 825 422.046875 814.652344 413 814 398 L 815 398 C 816.40625 406 821.554688 412.445313 828 417 C 831.425781 402.609375 823 388.261719 822 374 L 823 374 C 825.773438 381.566406 831.761719 390 838 395 C 839.351563 387.722656 839 380.378906 839 373 L 840 373 C 840.828125 378.601563 843.195313 383.667969 845 389 L 846 389 C 848 380 846.964844 369.023438 854 362 C 853.527344 366.300781 853.773438 371 855 375 L 856 375 C 861.84375 365 866.777344 355.394531 875 347 C 874.234375 353.054688 874 359 874 365 C 883.644531 358.210938 894 350.667969 903 343 C 901 348.015625 898.488281 353 897 358 C 905 354.480469 910.878906 347.804688 920 347 L 920 348 C 914.429688 349.640625 909.960938 352.355469 908 358 C 953.59375 349.53125 992.238281 387.765625 1032 403.800781 C 1042.308594 408 1052.703125 413 1064 413 C 1059.410156 406.625 1052.316406 403.042969 1046 398.574219 C 1030.488281 387.605469 1011.730469 378.023438 998 365 C 1004.433594 365 1010.679688 364.179688 1017 363 C 1010.964844 354.824219 999.894531 351.203125 990 351 L 990 349 L 1002 347 C 991.390625 333.261719 966.558594 335 951 335 L 951 334 C 959.914063 332.464844 967.789063 327.753906 977 327 C 971.546875 316.507813 952.269531 317.007813 942 317 L 942 316 C 946.996094 315.148438 952.195313 313.628906 957 312 C 947.476563 301.09375 924.167969 303 911 303 L 911 302 C 918 300 929 295.464844 933 289 C 917 287.746094 905.566406 292.023438 891 298 C 896.339844 292.664063 901.75 288.214844 908 284 L 908 283 C 894.285156 283.597656 883 291.386719 871 297 C 875.191406 292.808594 879.277344 288.597656 884 285 L 884 284 C 872.972656 284.566406 864.761719 292.792969 855 297 C 858.605469 293.316406 861.976563 289.78125 864 285 C 859.316406 286 854.785156 287 850 287 L 850 286 C 861 282.753906 872 272.574219 878 263 C 869.53125 263.386719 862.871094 267.367188 856 272 C 857.363281 262.761719 860.972656 254.535156 861 245 L 860 245 C 854.511719 252.664063 848.875 259.53125 842 266 C 847.988281 253.390625 850.882813 239 851 225 L 850 225 C 846.578125 231 844 237.34375 839 242 C 842 231.78125 842.9375 216.097656 839 206 C 837.96875 203.210938 834.496094 196.1875 830.601563 197 C 827.394531 197.527344 829.472656 216.394531 823.476563 213.078125 C 814.304688 208.007813 814 192.210938 803 187 C 803.203125 191.726563 804 196.359375 805 201 L 804 201 C 800.953125 193.664063 795.699219 187.34375 791 181 L 790 181 L 790 190 L 789 190 C 785.914063 180.699219 775.542969 169.140625 768 163 C 768 206.824219 808.667969 232.800781 813.558594 274 C 815.382813 289.378906 803 302.09375 799 316 L 798 316 C 798 293 799.800781 268.746094 790.570313 247 C 778.660156 219 756.671875 197.460938 756 165 L 754 165 C 752.265625 178.730469 750.417969 193.460938 744.191406 206 C 736.648438 221.183594 724.542969 234 718.695313 250 C 711 271 713 293.191406 713 315 L 712 315 C 708 301.265625 695 290.304688 696.183594 275 C 697.734375 253.535156 713.199219 236.257813 724.308594 219 C 735 202.203125 742 184.082031 743 164 C 733.789063 168.296875 725.460938 180.042969 721 189 L 720 189 L 720 182 C 714.171875 186.816406 710.898438 194.253906 706 200 L 708 187 C 700.589844 190.453125 695.53125 198 691.78125 205 C 690.816406 206.820313 688.53125 214 686 214 C 682.820313 214 682 205.125 681.753906 203 C 681.3125 200.316406 681 197.71875 681 195 C 663.292969 202 669.171875 228.558594 671 243 L 670 243 C 668.25 237 664.238281 227.675781 659 224 C 659 238 663.261719 250.820313 667 264 C 660.949219 257.679688 656.214844 250.085938 649 245 C 649 254.539063 651.59375 263.164063 655 272 C 647.96875 268 640 263.394531 632 262 C 637.773438 272.355469 648.441406 280.746094 659 286 L 659 287 L 644 285 L 653 295 C 645.175781 290.644531 638.234375 284.8125 629 284 L 629 285 C 633.496094 288.425781 637 292.089844 640 297 C 629.308594 290 617 283.269531 604 283 C 608.457031 288.253906 614.675781 291.445313 619 297 C 606 292.613281 591.683594 283.304688 578 290 L 578 291 C 584.769531 295.464844 592 300 600 302 L 600 303 C 584.738281 302.683594 564.972656 302.191406 552 312 C 557.378906 313.824219 563.335938 315.507813 569 316 L 569 317 C 560.359375 317.179688 551.25 318.402344 543 321.027344 C 541 321.664063 535.207031 323 535.207031 325.820313 C 535.207031 328.097656 539.398438 329.089844 541 329.65625 C 547.394531 332 554.292969 334.011719 561 335 L 561 336 C 547.574219 336 533.914063 336.207031 521 340.34375 C 516.507813 341.785156 510.746094 343 508 347 L 522 350 L 522 351 C 511 351.46875 501.9375 356.085938 493 362 C 497.867188 365.621094 505 365.535156 511 366 C 497.5625 378.265625 480 387.625 465 398 C 458.414063 402.515625 449.554688 406.535156 446 414 C 466.984375 408.570313 487.789063 400.355469 507 390.21875 C 539.652344 373 565.710938 355 604 358 C 600.773438 352.65625 596.191406 349.121094 590 348 L 590 347 C 598.863281 347.777344 605 353.597656 613 357 C 612.175781 352.375 610 348.230469 608 344 C 618.332031 349.730469 626.824219 360.242188 637 365 L 636 347 C 643.742188 355.480469 649.664063 366 655 376 L 656 376 C 656.398438 371 657 366.082031 657 361 L 658 361 C 659.949219 370.425781 662.785156 379.402344 664 389 L 665 389 L 670 375 L 671 375 L 671 394 C 678.757813 391 684.699219 381.8125 687 374 L 688 374 C 687.484375 386 680 399 682 411 C 683.925781 421.628906 694.890625 402.054688 696 399 L 697 399 C 693.597656 413.714844 685.433594 422.566406 675 433 C 676 427.558594 676.996094 422.578125 677 417 C 669.726563 420.421875 663.800781 429.609375 661 437 L 660 437 C 661.171875 427.746094 662.792969 419.285156 660.789063 410 C 655.25 384.34375 630.289063 364.6875 604 365.019531 C 589.535156 365.199219 575.265625 371 562 376.203125 C 552.808594 379.8125 537.539063 382.511719 531 390 L 538 391 L 538 392 C 531.292969 392.546875 523.472656 393.734375 525 402 L 503 403 C 506.8125 408.769531 526.203125 410.785156 509 415.101563 C 507.351563 415.519531 505.707031 415.769531 504 416 C 507.472656 422.101563 517.519531 424.34375 523 429 C 509.445313 429 488.527344 430 479 441 L 503 442 L 503 444 C 485.765625 444.359375 472.507813 456.8125 459 466 C 462.945313 459.164063 469.691406 454.105469 473 447 C 443.636719 449.578125 426.675781 487.144531 415.246094 510 C 409 522.304688 402.269531 536.800781 388 541 C 389 538.628906 389.621094 536.550781 390 534 C 386.570313 535 382.59375 537.300781 379 537.164063 C 373.335938 537 373 531.164063 374 527 C 376.761719 516.796875 383 508.027344 386 498 C 381.675781 499.5 377.984375 501.792969 374 504 C 384 460.277344 425.90625 430.355469 452.550781 397 C 472.710938 371.761719 481 342.519531 485 311 C 481.460938 314 481.34375 320.667969 479.972656 325 C 476.796875 335.015625 472.460938 345.050781 466.933594 354 C 451.75 378.601563 425.957031 397.105469 401 411 C 406.496094 395 417.691406 380.128906 420 363 C 402.363281 371.382813 383.828125 389.289063 370 403 C 377.347656 385.355469 390.851563 371.238281 406 360 C 414.527344 353.511719 425.691406 348.765625 432 340 C 414.992188 340.351563 399.488281 349 384 355 C 393.429688 342.625 406.382813 332.433594 420 325.027344 C 427.289063 321.066406 439.355469 319.238281 444 312 C 427.355469 308.773438 414.332031 312.800781 398 315 L 398 314 C 410.484375 310.015625 421 298.234375 433 292.269531 C 443.46875 287.035156 457.476563 286.703125 467 281 C 453.425781 273.359375 436.632813 278 422 279 L 422 278 C 429.886719 276.128906 437 272.09375 445 270.234375 C 451.914063 268.621094 460.898438 268.660156 467 265 C 457.765625 262 447.644531 262 438 262 L 438 261 C 454.539063 259.648438 470.863281 251.257813 486 245.011719 C 491 243 499.648438 241.464844 503 237 L 488 237 L 488 236 C 512.476563 229.304688 529.773438 211.234375 547 194 C 553.914063 187.085938 563 180.164063 567 171 C 558.917969 173.734375 551.230469 177.75 543 180 L 543 179 C 550.496094 175.132813 556.691406 168.800781 564 164.453125 C 579.542969 155.207031 598.550781 146.773438 616 142 C 610.695313 136 601.457031 135.777344 594 134.117188 C 571.667969 129.140625 546.925781 129.347656 525 136.34375 C 517.421875 138.761719 506.445313 147.484375 499 147.546875 C 494.488281 147.585938 489.984375 143.445313 486 141.664063 C 478.253906 138.203125 469.445313 136 461 135.171875 C 457.871094 135 451 134 448.464844 136.027344 C 443.757813 140 457.945313 145.699219 457.945313 149.480469 C 457.945313 152.304688 451 154.742188 449 156.011719 C 439.277344 162.171875 424.96875 164.324219 416.320313 171.085938 C 412.726563 174 414.917969 177.300781 418 179 M 628 195 C 626.40625 177 616.390625 194.558594 610 200 L 610 192 C 597.925781 198.265625 592.824219 212.332031 584 222 C 583.753906 219.210938 582.773438 211 578.167969 212.347656 C 572.285156 214.207031 564.984375 231 560.996094 236 C 551.25 248.222656 540 259 528 269 C 520.917969 274.753906 512.375 279.433594 507 287 C 526.953125 283.5625 547 266.289063 564 255.808594 C 579 246.417969 594 236.441406 610 228.257813 C 618.46875 224 631.800781 220.785156 638.785156 214.582031 C 644.742188 209.292969 645.847656 200 649.269531 193 C 654.242188 183.054688 662.585938 175.230469 667 165 C 646.710938 168 641.167969 183 628 195 M 844 165 C 848.320313 175.011719 856.722656 182.335938 861.628906 192 C 865.226563 199.09375 866 209.058594 872.214844 214.605469 C 877.644531 219.574219 887.382813 222 894 225.246094 C 907.75 232.121094 921 240 934 248.34375 C 955.410156 262.320313 978.660156 281 1004 287 C 1000 279 989.726563 274.160156 983 268.566406 C 970.191406 258 958 246.085938 947.804688 233 C 944.496094 228.8125 937.355469 212.75 932 212 C 927.96875 211.265625 927.230469 219.386719 927 222 C 920.324219 215.265625 915.210938 207.675781 909.710938 200 C 908.507813 198.324219 905.285156 192.335938 902.511719 193.460938 C 900 194.417969 901 200.042969 901 202 L 900 202 C 897 195.503906 891.582031 188.472656 887 183 C 884.65625 186.554688 882.761719 189.785156 882 194 C 869.710938 182.738281 862 168.125 844 165 M 969 180 L 968 181 L 969 180 M 444 188 C 436.203125 204.480469 422.792969 222.242188 410.839844 236 C 405.964844 241.613281 400.84375 247.828125 394 251 C 399 242.03125 406.570313 234.398438 412.574219 226 C 422 212.722656 430 197.214844 444 188 M 1068 188 C 1079.425781 202.042969 1089.847656 216.664063 1100.886719 231 C 1106.496094 238.28125 1113.800781 244.777344 1118 253 C 1100.214844 242 1089.167969 223 1077.65625 206 C 1074.425781 201.257813 1066.382813 194.09375 1068 188 M 339 190 L 339 191 L 336 191 C 337.246094 190.316406 337.546875 190.25 339 190 M 1175 191 L 1175 192 L 1171 191 C 1172.808594 190.425781 1173 190.535156 1175 191 M 610 200 L 609 201 L 610 200 M 789 315 L 788 315 C 787.988281 298.808594 782.246094 284.066406 777 269 C 774.828125 262.757813 773.179688 254.082031 769 249 C 772.175781 262.296875 772.578125 275.519531 772 289 L 771 289 C 769.5625 278 765.753906 267.375 761.601563 257 C 760.585938 254.460938 758.90625 247.246094 755.714844 246.632813 C 752.199219 246 750.429688 253.753906 749.574219 256 C 745.398438 267 740.511719 278.113281 740 290 L 739 290 C 739 276.175781 740.269531 262.699219 742 249 L 741 249 C 733.988281 270.511719 723.480469 289.648438 723 313 C 718.921875 307.03125 721.445313 297.761719 722 291 C 723.816406 272.265625 728.484375 253.40625 737.871094 237 C 741.722656 230.269531 747.355469 222.058594 756 222.085938 C 766.539063 222.121094 771.769531 234 775.753906 242 C 786.992188 264.628906 789 290.125 789 315 M 417 246 C 402 268.671875 373 283.4375 348 292 C 355.59375 277.664063 376 273 389 265 C 398.441406 259.109375 406.769531 250.304688 417 246 M 1161 291 C 1137.386719 284.542969 1104.660156 268.597656 1093 246 C 1102.449219 250 1110.1875 258.234375 1119 263.550781 C 1133 272.03125 1151.203125 277.101563 1161 291 M 668 264 L 667 265 L 668 264 M 422 279 L 422 280 L 419 280 C 420.246094 279.316406 420.546875 279.25 422 279 M 1093 280.332031 C 1093.773438 280.332031 1093 280.832031 1092.667969 280.667969 L 1093 280.332031 M 376 291 L 376 292 C 360.402344 299.292969 347.839844 312.175781 332 319 C 338.765625 303.820313 360 293.140625 376 291 M 1177 319 C 1161 313 1149 298.664063 1133 292 C 1138.171875 290 1143.261719 293.039063 1148 295.140625 C 1159.464844 300.222656 1171.425781 307.28125 1177 319 M 655 297 C 653.363281 296.453125 653.546875 296.636719 653 295 C 654.636719 295.546875 654.453125 295.363281 655 297 M 871 297 L 870 298 L 871 297 M 602 303 L 601 304 L 602 303 M 398 315 L 397 316 L 398 315 M 355 319 C 350.914063 331 342.628906 339.382813 332 346 C 335.167969 335 343.738281 322.597656 355 319 M 1178 345 C 1170.855469 341 1163.644531 335 1159 328 C 1158 326.515625 1155 322 1157 320.160156 C 1159.25 318.34375 1163.59375 322.800781 1164.910156 324.09375 C 1170.742188 329.816406 1175.730469 337.125 1178 345 M 147 322 L 146 323 L 147 322 M 876 346 L 875 347 L 876 346 M 384 355 L 383 356 L 384 355 M 1128 356 L 1127 357 L 1128 356 M 324 407 C 324 402 323.378906 397.042969 323 392 C 322.882813 388.296875 325.457031 368.152344 332.585938 372.753906 C 343.554688 379.828125 332.316406 403.089844 324 407 M 1185 405 C 1179.578125 401.417969 1173.203125 379 1179.699219 374.085938 C 1185.554688 369.773438 1187.902344 390.109375 1187.558594 393 C 1187 397.085938 1185.914063 401.007813 1185 405 M 672 374 L 671 375 L 672 374 M 370 403 L 369 404 L 370 403 M 401 411 L 400 412 L 401 411 M 406 509 L 407 509 C 415.996094 487.070313 424.558594 464 443 448.132813 C 450.371094 441.808594 459.230469 436.488281 468 432.320313 C 473.71875 429.601563 480.796875 428 484 422 C 434.414063 424.128906 406.976563 461.769531 406 509 M 1027 423 C 1029.882813 427.398438 1036.402344 429.792969 1041 432.21875 C 1050.675781 437.324219 1060.621094 442.128906 1069 449.300781 C 1086.730469 464.476563 1094.273438 487.039063 1103 508 C 1107.828125 501 1102.761719 486.746094 1100.871094 479 C 1092.578125 445.039063 1061.367188 423.023438 1027 423 M 851 436 L 850 437 L 851 436 M 517 462 C 500.867188 462.335938 511.289063 467 518 472 C 509.488281 475.210938 500.335938 476.527344 492 480.3125 C 483.488281 484.179688 476.796875 490.476563 469 495.453125 C 466.253906 497.203125 455.671875 503 453.660156 497.679688 C 451.1875 491.140625 465.457031 484 469 480 L 457 479 C 463.214844 460.269531 502.773438 444 517 462 M 1054 478 C 1049.664063 479.828125 1045.660156 480 1041 480 C 1043.867188 482.640625 1061.308594 494.53125 1054.664063 499 C 1049.851563 502.164063 1041.714844 496 1038 493.277344 C 1023 483 1009 477.542969 992 472 L 992 471 L 1008 465 L 1008 464 L 994 462 C 1008.519531 442.503906 1044.761719 462.019531 1054 478 M 1053 467 C 1051.363281 466.453125 1051.546875 466.636719 1051 465 C 1052.636719 465.546875 1052.453125 465.363281 1053 467 M 459 466 L 458 467 L 459 466 M 1193 467 C 1193.75 484.445313 1199.378906 499.507813 1190 516 L 1189 516 C 1189.617188 501.664063 1187.449219 480.226563 1193 467 M 1347 467 L 1346 468 L 1347 467 M 319 468 C 320.269531 484.078125 321 500 321 516 L 320 516 C 315.390625 502 308.964844 481.414063 319 468 M 751 475 C 747.789063 499 740 522.144531 737 546 C 743.851563 539.132813 749.867188 532 754 523 C 761.667969 529.242188 766.910156 539 774 546 C 772 522 761.902344 499.09375 760 475 L 761 475 C 764.484375 483.085938 768.898438 490.683594 771.945313 499 C 774 504.777344 775 512.230469 779 517 C 776.34375 506 775 492.484375 775 481 L 776 481 C 779.433594 495.480469 788.933594 507.769531 793 522 L 794 522 C 793.886719 508.375 788.246094 494.183594 785 481 L 786 481 C 795.515625 497.722656 804 516.695313 810 535 L 811 535 C 809 520.445313 802.304688 506.730469 802 492 L 803 492 C 805.515625 500.546875 812.414063 507.097656 814 516 L 815 516 L 816 497 L 817 497 C 819.273438 505.09375 820.824219 513.578125 821 522 L 822 522 C 823.777344 517.382813 825.335938 513 826 508 L 827 508 C 831 515.199219 831.832031 523.828125 832 532 L 833 532 C 835.277344 527.117188 838.882813 523.738281 844 522 C 843.191406 528.410156 842.304688 534.667969 841 541 C 845.609375 538.160156 849.570313 535 855 534 C 853.640625 540.5625 844.648438 551.0625 845 556.566406 C 845.222656 559.652344 853.710938 560.304688 856 560.789063 C 867.460938 563.214844 879.410156 565.4375 891 567 C 886.199219 574.261719 872.433594 574.097656 865 578 C 880.835938 583.152344 908.898438 588.046875 915 606 C 907 604.53125 899 605 891 605 C 901.253906 613.425781 914.625 613.007813 926 619 C 919.527344 625.25 934.816406 636.761719 938.996094 642 C 954.597656 661.558594 974.9375 684.488281 982 709 L 983 709 C 977.503906 685.242188 961.539063 665.175781 954 642 C 963.417969 645.089844 970.375 651 978 657 C 974.375 648.335938 968 641.253906 963.78125 633 C 962.765625 631.078125 959.386719 626.203125 961 624.027344 C 962.558594 622.253906 967 623.003906 969 623 C 961.824219 615.824219 952.339844 609.671875 946 602 C 952.675781 602.003906 958.589844 603.195313 965 605 C 961.1875 598.800781 956 593.042969 954 586 C 962.59375 590.066406 967.988281 597 975 603 L 970 589 C 980.9375 592.71875 989 606.03125 997 614 C 989 595.171875 976.324219 580.101563 960 568 L 961 573 C 953.972656 570.667969 949.816406 562.789063 943 561 C 942.449219 560.734375 916.71875 566.746094 926.992188 557.160156 C 927.824219 556.386719 929 555.621094 930 555 C 927 554.140625 915.488281 551.414063 918.753906 546.402344 C 920.839844 543.195313 925.675781 543.417969 926.382813 539 C 927 534.242188 923 529 921 525 C 924 526.332031 927.570313 530 931 529.605469 C 935.601563 529.277344 939 523.179688 941.613281 520 C 947.675781 512.613281 954 504 963 500 C 958 513.386719 939.511719 525.730469 940.632813 541 C 941 546.390625 945.925781 550.007813 950.910156 551 C 957.453125 552.050781 963.535156 549 970 551.46875 C 983.214844 556.519531 996.46875 573 1012 566.648438 C 1023.429688 562.015625 1032.730469 552 1040.828125 543 C 1044.628906 538.796875 1048.621094 531.449219 1055 531.238281 C 1062.285156 531 1070 538.101563 1075.996094 541.527344 C 1077.671875 542.484375 1082.441406 544.554688 1080.824219 547.277344 C 1077.84375 552.296875 1062.390625 548 1058 547 C 1061 551.242188 1064.730469 554.085938 1069 557 C 1064 560.519531 1057.828125 560 1052 560 C 1055.1875 563.289063 1059 565.320313 1062 569 C 1057.710938 571.0625 1053.691406 571 1049 571 C 1062.789063 583.15625 1047.78125 579.773438 1038 579 C 1039.863281 581 1041.46875 582.792969 1043 585 C 1038.472656 585.644531 1034.417969 585.089844 1030 584 C 1032.867188 587.125 1035.339844 590.082031 1037 594 C 1031.363281 593.742188 1026.316406 591.730469 1021 590 C 1024.3125 599 1031.324219 603 1037 610 C 1034.667969 609.566406 1032.375 609.140625 1029.996094 609.039063 C 1008 608.117188 1034.273438 627 1025.972656 634 C 1023.746094 635.792969 1008 626.613281 1004 626 C 1009.847656 633.589844 1016.3125 641.671875 1019 651 C 1010.460938 649.34375 1001.71875 647.179688 993 647 C 996.886719 650.507813 1011.832031 655.03125 1010.964844 661.699219 C 1010.433594 665.765625 1002.847656 663.203125 1004.664063 669.042969 C 1005.40625 671.417969 1012.808594 687.433594 1006.484375 687.832031 C 1003.882813 688 1000.863281 684.664063 999 683.210938 C 992.90625 678.453125 986.402344 674.320313 980 670 C 983.511719 682 992.6875 692.230469 998.691406 703 C 1013.53125 729.617188 1029.664063 761 1031 792 L 1030 792 C 1017.394531 773.46875 997.265625 752.175781 992 730 L 991 730 C 993.859375 749.433594 1004 767 1004 787 C 1003.972656 795.601563 1002.519531 806 994 810 C 997 782.46875 986.332031 755.5625 978 730 L 977 730 C 982.382813 758.558594 972.886719 786.597656 976.285156 815 C 981.460938 858.269531 1008.40625 895.320313 1015.914063 938 C 1019.460938 958.140625 1019.8125 978.773438 1016.5625 999 C 1014.515625 1011.722656 1009.96875 1024.09375 1009 1037 C 1008.234375 1049.535156 1013 1061.644531 1014 1074 L 1013 1074 C 1010.820313 1070.085938 1008.558594 1066.746094 1005 1064 C 1006.945313 1070.578125 1006 1078.171875 1006 1085 C 1005.996094 1086.578125 1006.703125 1091.648438 1004.398438 1092.078125 C 1000.902344 1092.730469 996 1086.140625 994 1084 L 994 1113 C 987.253906 1109.710938 983 1102.023438 981 1095 L 980 1095 C 980.21875 1100.058594 981.363281 1105 982 1110 C 976.316406 1107.792969 972.84375 1103.777344 971 1098 L 970 1098 C 970.296875 1105 970.878906 1111.035156 970 1118 L 969 1118 C 966.953125 1108.105469 962.300781 1099.074219 958 1090 L 956 1099 L 955 1099 C 934.367188 1071.160156 903 1050.808594 889 1018 C 895.929688 1019.253906 900.191406 1024.195313 905 1029 C 901.601563 1020.238281 896.484375 1012.082031 894 1003 C 901.613281 1006.222656 907.984375 1013 915 1017.304688 C 925.394531 1024 936.171875 1028.644531 948 1032 C 930.589844 1010.410156 904.445313 996.734375 895 969 C 900.746094 970.367188 904.300781 974.703125 909 978 C 908.265625 976.339844 907.539063 974.726563 907 973 C 902.3125 956.589844 926.390625 969 933 970 C 925.308594 962.328125 917.300781 954.441406 909 947.4375 C 903.695313 943 896.324219 939.210938 893 933 C 898.25 934 903.664063 934.769531 909 935 C 903.875 925 906.367188 922.1875 917 925 C 912.628906 920.730469 908 917 906 911 C 914 915.296875 921.699219 920.625 931 922 C 920.847656 895.828125 900.640625 873.496094 892 847 C 897.222656 849.007813 901.480469 852.753906 906 856 C 905.875 841 901.644531 826.054688 901 811 C 916.839844 816.488281 926.574219 830.820313 940 840 C 934.421875 826.398438 931.839844 811.011719 925 798 C 922 792.488281 917.488281 788.105469 914 783 C 935.679688 785 948.707031 813.4375 953 832 L 954 832 C 952.359375 811.210938 948.707031 790.441406 936.652344 773 C 932.285156 766.679688 927 761 921 756.234375 C 919 754.722656 914.425781 752.3125 914.921875 749.261719 C 915.351563 746.625 919.960938 746.089844 922 745.664063 C 929 744.207031 936.980469 744.695313 944 746 L 944 745 C 935 740.449219 921 731.777344 916 723 C 922.664063 723.542969 928.722656 726 935 728 C 928 719.441406 919.304688 712 913 703 L 932 701 C 923.800781 694.03125 912.820313 689.472656 902 689 C 903.925781 685.046875 907.410156 682.523438 910 679 C 901.320313 679 892.601563 678.085938 884 677 L 884 676 C 887.925781 674.28125 891 672.207031 894 669 C 877 673.15625 852.460938 672.601563 839 660 C 854 650.441406 844.261719 640.464844 833 632 C 815.238281 618.386719 790.21875 611.011719 768 610.039063 C 734.878906 608.589844 689.855469 613.125 667.339844 641 C 659.695313 650.464844 674 659.242188 665.976563 665 C 651.460938 675.0625 632.851563 667 617 670 C 620.882813 672.375 624.6875 674.507813 629 676 L 629 677 C 619.179688 677 609.703125 678.765625 600 680 C 603.359375 683 607.613281 685.253906 610 689 C 598.820313 690.445313 587.691406 693.609375 579 701 C 581.90625 701.023438 593.386719 700.527344 594.65625 703.601563 C 595.660156 706.027344 592 709.410156 590.710938 711 C 585.597656 717 579.941406 722.148438 576 729 C 582 725.148438 588.828125 723.308594 596 723 L 596 724 C 586.300781 730.417969 575 736.476563 568 746 C 573.1875 745.035156 593.839844 742.203125 596.652344 748.636719 C 597.53125 750.640625 594.171875 752.667969 592.980469 753.664063 C 588 757.761719 583.441406 762.253906 579.171875 767 C 561.523438 786.609375 561.886719 807.101563 556 831 C 571.199219 812.503906 571.460938 789.535156 598 782 C 594.179688 788.710938 588.203125 794.011719 584.488281 801 C 577.730469 813.71875 573.601563 828.394531 569 842 C 580.941406 830.574219 594.660156 817.609375 610 811 C 609.996094 825.652344 606.835938 840.476563 605 855 C 609.738281 852.050781 613.9375 848.40625 619 846 C 617.253906 855.789063 610.242188 864.492188 605.425781 873 C 595.960938 889.714844 586.222656 906.652344 578 924 C 587 920.21875 595.488281 914.71875 605 912 C 601.332031 917.207031 596.496094 921.503906 592 926 C 603.757813 921.175781 607 924.292969 601 936 C 606.265625 934.519531 611.582031 933.683594 617 933 C 614 939.140625 608 942.269531 603 946.464844 C 594.898438 953.132813 585.199219 961.578125 579 970 C 591.988281 965.019531 607.867188 957.171875 604 978 C 607.695313 974.335938 611 971 616 969 C 607 995.429688 581.746094 1013.8125 562 1032 C 575.363281 1029 589.527344 1021.585938 601 1014.136719 C 606.480469 1010.578125 610.949219 1005.5625 617 1003 C 615.546875 1012.714844 609.71875 1021.070313 606 1030 C 610.589844 1025.023438 614.34375 1020.125 621 1018 C 613.867188 1042.753906 589.339844 1063.566406 571 1080.171875 C 564.960938 1085.636719 560.355469 1094.496094 553 1098 L 553 1090 L 552 1090 C 548 1099.25 542.21875 1107.6875 542 1118 L 541 1118 C 539.308594 1112.273438 540 1106 540 1100 C 536.394531 1104.128906 533.453125 1108.46875 528 1110 C 529 1105.386719 529.902344 1100.757813 530 1096 L 529 1096 C 527.628906 1103.121094 522.820313 1109 517 1113 L 516 1085 C 512.234375 1087.648438 509.195313 1091.042969 505 1093 L 505 1064 C 501.957031 1067.332031 499.472656 1071.132813 496 1074 C 498.550781 1061 502 1047.519531 500.828125 1034 C 498.542969 1010.378906 489.433594 988.191406 491 964 C 492.574219 942.339844 496.640625 920.46875 504 900 C 513.714844 873.328125 527.6875 848 533.335938 820 C 539.355469 790.167969 525.644531 760 533 730 L 532 730 C 523 757.265625 515.242188 780.796875 515 810 C 507.640625 804.222656 506 794 506 785 C 505.90625 765.402344 514 747.003906 521 729 L 520 729 C 513.792969 744.132813 505 757.4375 496 771 C 491.296875 778.054688 486.980469 786 480 791 C 482 775.101563 486.652344 748.535156 497 736 C 502.425781 741.207031 505 734.066406 506.335938 729 C 511.914063 707.046875 524.808594 690.121094 532 669 C 525.28125 674 517.410156 677.097656 511 682.46875 C 509.464844 683.792969 506 688.707031 503.5625 687.652344 C 497.921875 685.257813 505.167969 672.214844 505.863281 669.019531 C 507 663.738281 500.527344 665.324219 500 661.566406 C 499.226563 655.339844 514 650.222656 518 647 C 509.269531 647.691406 500.683594 650 492 651 C 495.339844 642 501.945313 634.191406 507 626 C 502.722656 627.214844 487.9375 636.347656 484.78125 634 C 477.886719 628.640625 498.660156 611.335938 484.992188 609.148438 C 483.378906 609 481.632813 609 480 609.039063 C 477.925781 609.132813 476 609.519531 474 610 C 478.5 602.222656 486.308594 597.808594 490 589 C 484.355469 591.316406 479.183594 593.71875 473 594 C 474.691406 590.371094 477.1875 588 480 585 L 467 585 C 468.808594 582.425781 470.792969 580.253906 473 578 C 464.847656 580.289063 444.871094 581 462 572 L 462 571 C 451 571 445.441406 566 459 562 L 459 561 C 453.75 560.023438 448.335938 559.230469 443 559 C 446.183594 554.492188 450.675781 551.347656 454 547 C 449.703125 547.542969 431.402344 552.15625 429.347656 546.785156 C 428.269531 544 433.203125 542.148438 435 541.308594 C 440.984375 538.507813 451.386719 530.453125 458 531.332031 C 464 532.144531 468.1875 539 472 543 C 480.460938 552.050781 488.785156 562.796875 501 567 C 516 572 528.332031 556.675781 541 551.363281 C 547.289063 548.726563 553.523438 551.695313 560 550.8125 C 564.796875 550.15625 569 547.007813 569.847656 542 C 572 526.179688 554 513 548 500 C 557 503.816406 563 512.597656 569 520 C 571.632813 523.257813 575.351563 529.261719 580 529.605469 C 583.417969 530 587 526.449219 590 525 C 588 529.101563 583 535.078125 584.695313 540 C 586.535156 545.59375 595.664063 543.460938 592 551 C 593.480469 550.015625 593.203125 550 595 550 L 595 551 C 590.554688 553.332031 586 554.589844 581 555 L 581 556 C 592 562.207031 571.910156 568.796875 574 556 C 565.472656 561 559.414063 570 550 573 L 551 568 C 535.582031 578.199219 519.246094 594.789063 514 613 C 521.226563 604.726563 529.515625 593.0625 540 589 L 536 603 C 542.253906 596.464844 547.652344 590 556 586 C 553.886719 593.1875 548.648438 598.59375 545 605 C 550.777344 603.042969 556.902344 602.050781 563 602 C 557.253906 610.136719 548 616 541 623 C 542.847656 622.773438 547.25 621.363281 548.34375 623.617188 C 549.738281 626.507813 546.1875 630.730469 544.808594 633 C 539.871094 641.128906 534.664063 649.199219 531 658 C 537.9375 651.117188 546 643.769531 556 642 C 554.683594 650.789063 549.261719 658.242188 545.257813 666 C 538.515625 679.066406 531.328125 693.621094 528 708 L 529 708 C 544.617188 676.601563 566.210938 645.789063 591 621 L 585 620 C 591.171875 611 610.238281 612.808594 619 605 C 610.601563 604.828125 603.382813 604.4375 595 606 C 606 587 627.734375 586 646 578 C 638.597656 574.554688 624.738281 574 620 567 C 631.648438 564.597656 643.277344 563.023438 655 561.078125 C 657.746094 560.625 664.738281 560.398438 665.371094 556.773438 C 665.851563 554.042969 662.460938 551.066406 661 549 C 658 544.417969 656.226563 539.308594 655 534 C 660.355469 535.273438 664.640625 537.675781 669 541 C 668.507813 538.609375 664 524.582031 667.605469 524 C 671 523.265625 676.351563 530.136719 679 532 C 679 525.007813 677.445313 513.488281 684 509 C 685.183594 514.121094 686.871094 519.195313 689 524 C 691 515.480469 692.304688 505.738281 693 497 L 694 497 C 695.332031 502.59375 695 508.28125 695 514 L 696 514 C 698.726563 507 702.523438 496.230469 709 492 C 705.652344 506 701.890625 520 699 534 L 700 534 C 707.453125 516.101563 716.5625 499 724 481 L 725 481 C 723.863281 495 717.289063 508 717 522 L 718 522 C 722.609375 508 730.390625 495.140625 735 481 L 736 481 C 735 493.648438 732 506.300781 732 519 L 733 519 C 735.648438 506.203125 741.609375 484.300781 751 475 M 515 499.453125 C 524 498.59375 526.917969 512.796875 516.996094 513.46875 C 507.898438 514.082031 505 500.390625 515 499.453125 M 995 499.453125 C 1004.34375 498.574219 1005.460938 512.832031 996 513.46875 C 986.589844 514.097656 985.621094 500.335938 995 499.453125 M 374 504 L 373 505 L 374 504 M 1215 516 C 1218.496094 531.257813 1218 544 1210 558 C 1204.527344 550 1206.464844 521.640625 1215 516 M 298 517 C 301.34375 527.277344 304 537.097656 303.996094 548 C 303.972656 550 304 557.792969 300.972656 557.792969 C 298 557.792969 296.347656 550.050781 295.671875 548 C 292.308594 537.792969 289.625 525.488281 298 517 M 1025 517 C 1023.863281 522 1021.902344 526.363281 1020 531 C 1022.84375 528.1875 1025.371094 525.691406 1029 524 C 1022.503906 546.550781 1003 552.257813 984 541.574219 C 977.773438 538.089844 971.464844 537.613281 965 535.046875 C 963.761719 534.542969 959.378906 532.679688 960.460938 530.601563 C 961.785156 528.0625 970.210938 533.253906 972 534 C 971.523438 532.066406 968.515625 522.207031 972.398438 522.207031 C 977.425781 522.207031 984.664063 534.15625 990 536.46875 C 1005.691406 543.265625 1014.398438 524.472656 1025 517 M 488 518 C 497.636719 528 509.179688 545.613281 525 534.363281 C 530.6875 530.316406 533.949219 523.261719 540 520 C 540.59375 525.039063 540 529.058594 539 534 C 543.179688 531.5625 547 529.496094 552 529 C 548.988281 537 538.832031 536.421875 532 539.335938 C 525.378906 542.164063 519.261719 546.636719 512 547.699219 C 497 550 485.175781 536.359375 482 523 C 485.328125 525.34375 488 528.125 491 531 C 489.304688 527 486.421875 522.453125 488 518 M 436 519 C 434.535156 523.585938 431.617188 527.023438 429 531 L 437 527 C 433.992188 534.761719 427.191406 539.519531 420 543.214844 C 417.945313 544.273438 413 547.191406 411 544.382813 C 409.320313 541.667969 412.8125 537.011719 414.390625 535 C 419.914063 528 427.792969 522.433594 436 519 M 1075 529 L 1083 531 C 1079.632813 527.308594 1076.984375 523.597656 1075 519 C 1083.425781 521.667969 1091 528.1875 1096.660156 535 C 1098.367188 537.117188 1101.703125 541.511719 1099.726563 544.382813 C 1098 547 1093.972656 544.671875 1092 543.738281 C 1084.917969 540.382813 1078.953125 536 1075 529 M 669 541 L 670 542 L 669 541 M 840 541 L 841 542 L 840 541 M 1189 547 L 1189 551 L 1188 551 C 1188.175781 549.316406 1188.316406 548.507813 1189 547 M 322 549 L 322 552 L 321 552 C 321.25 550.546875 321.316406 550.246094 322 549 M 959 567 L 960 568 L 959 567 M 298 581 C 297.785156 607.027344 291.652344 638.222656 278.847656 661 C 274.527344 668.683594 270.320313 676.800781 263 682 C 270.808594 658 277.84375 633.78125 286.308594 610 C 289.660156 600.582031 291.519531 588.824219 298 581 M 1215 582 C 1220 616.535156 1240.167969 648.140625 1248 682 C 1222.714844 661.546875 1213 613 1213 582 L 1215 582 M 550 745 C 556.300781 740.363281 559.535156 727 563.308594 720 C 573.472656 701.207031 583.742188 683.1875 599 668 C 604 663 611.269531 655.28125 619 654.574219 C 624.449219 654.078125 629.902344 658.53125 635 660 C 633.714844 656 632.671875 652 631 648 C 637.480469 649.171875 641.890625 654 648 656 C 650.40625 626.574219 691.984375 608.671875 715 597.246094 C 723.628906 593 734 591.089844 740 583 C 711.277344 583 684.433594 591.828125 658 602.398438 C 643.457031 608.214844 628.980469 614 617 624.289063 C 581.539063 655.128906 560.636719 700.449219 550 745 M 876 661 C 881 659 886.785156 654.441406 892.425781 655 C 901.933594 656 911.851563 667.320313 917.714844 674 C 935.808594 694.625 947.996094 719.171875 959 744 C 963.820313 732.402344 950.59375 708.703125 945.859375 698 C 933.53125 670.117188 914.277344 638.273438 889 620.4375 C 873.746094 609.679688 855.429688 603.53125 838 597.308594 C 822.582031 591.800781 807.222656 587.117188 791 584.589844 C 788.433594 584.191406 776.832031 582 775.175781 584.0625 C 773.378906 586.382813 778.585938 589.636719 780 590.53125 C 787 595.027344 795.484375 597.488281 803 601.246094 C 820.273438 610 838.429688 620 851.960938 634.003906 C 857 639.25 859.269531 650.144531 864 654.167969 C 867.929688 657.304688 873 647 877.351563 650 C 880 652 876.578125 658.554688 876 661 M 373 597 C 374 610.59375 378 624.257813 376.828125 638 C 373.714844 670.734375 362.335938 702.222656 360 735 C 357.890625 767.109375 363.488281 798.199219 366 830 L 365 830 C 357.386719 796.789063 340.824219 764.007813 344.171875 729 C 346.910156 700.328125 363.890625 676.6875 369.789063 649 C 372.1875 637.746094 373 626.472656 373 615 C 372.996094 609.335938 370.796875 602.261719 373 597 M 1139 598 C 1139 618.273438 1137.859375 638.332031 1143.722656 658 C 1150.21875 679.796875 1163.53125 700.007813 1165.828125 723 C 1169.421875 759 1155 795 1146 829 L 1145 829 C 1148.484375 785.242188 1154.300781 741.75 1145.550781 698 C 1140.714844 673.820313 1134.882813 650.816406 1135 626 C 1135 617.777344 1134.695313 605.171875 1139 598 M 513 613 L 514 614 L 513 613 M 817 648 L 817 649 L 694 650 C 700.695313 643.230469 712 641.304688 721 639.128906 C 741 634.261719 762.773438 633.28125 783 637.660156 C 794.574219 640.167969 805.421875 646.007813 817 648 M 847 700 C 843.660156 699 840.476563 697.597656 837 697 L 837 698 C 841.171875 700.078125 857.976563 711.582031 847 714 C 853.335938 725 857.746094 738.28125 856.957031 751 C 856.414063 759.738281 847 765.066406 839 762 C 833.421875 759.828125 829.738281 748.046875 835.515625 744.03125 C 838.464844 742 842.960938 744.195313 846 745 C 843.691406 742 840.386719 738.132813 841.648438 734 C 842.425781 731.445313 848.589844 726.601563 845.535156 724.027344 C 842.828125 721.75 837.316406 723.105469 834 721.433594 C 821.394531 715.074219 798.5 710.660156 784 712.105469 C 777.328125 712.769531 770.308594 719 770.167969 726 C 769.882813 740.125 790.851563 723.5625 791.964844 732.316406 C 792.40625 735.804688 787.410156 739.609375 785.464844 742 C 778.851563 750.117188 769.609375 763 777.710938 772.828125 C 786.3125 783.363281 806 794.238281 820 793.390625 C 827.511719 793 834.382813 789.03125 842 789.027344 C 855.234375 789.023438 868.402344 793.273438 876.199219 779 C 880.875 770.445313 881.335938 760.34375 883.425781 751 C 884.335938 747 886.621094 742.222656 885.667969 738 C 884.441406 732.574219 875.671875 730.558594 875.636719 725.304688 C 875.625 724.046875 883.710938 718.332031 885 718.378906 C 899.742188 719 891.816406 741.128906 888.988281 748 C 882.570313 763.605469 885.585938 789.703125 866 795.070313 C 861 796.402344 855.980469 796 851 796 C 853.789063 801 857.8125 804.832031 860 810 C 854 809.191406 849.273438 806.773438 844 804 C 846.875 808.226563 850 812.214844 852 817 C 848.296875 816.527344 844.628906 816 841 815 C 843.601563 829.679688 818.785156 847.515625 804.316406 840.398438 C 795.921875 836.265625 809.179688 815.765625 805.800781 809.316406 C 803.371094 804.691406 784.347656 806 779 803.660156 C 766.546875 798.285156 764.207031 786.152344 762.714844 774 C 762 769.273438 763.179688 758.375 756.894531 757 C 751.847656 756 749.429688 762.144531 749 766 C 747.933594 779.269531 747.773438 795.679688 734 802.621094 C 728.628906 805.328125 709.644531 804.652344 707.199219 809.316406 C 703.25 817 717.988281 835 707.851563 840.566406 C 694.417969 848 678.230469 833.359375 670.601563 824.503906 C 668.703125 822.296875 669.910156 817.816406 667.398438 816.3125 C 665 815 660.613281 816.28125 658 816 C 660.515625 811.628906 663.695313 807.796875 667 804 C 661.289063 806.378906 656.21875 809.160156 650 810 C 652.46875 805.039063 656 800.699219 659 796 C 654.679688 796 650.242188 796.292969 646 795.320313 C 626.546875 791 630.273438 768.789063 624.769531 754 C 621.265625 744.578125 612.324219 730.347656 621.226563 721.214844 C 628.425781 713.832031 630.53125 723.15625 638 722 C 635.851563 729.238281 627.902344 731.511719 625.832031 738.015625 C 624.574219 742 626.96875 747.117188 627.789063 751 C 630 761.511719 629.28125 774.179688 636.390625 783 C 644.96875 793.609375 657.433594 788.824219 669 789.054688 C 676.558594 789.203125 683.488281 793.078125 691 793.273438 C 703.574219 793.597656 728.609375 781.703125 735.257813 771 C 741 761.515625 731.855469 749 725.816406 742 C 723.753906 739.640625 718.582031 736 719 732.316406 C 720 724.289063 736.445313 733 739 735 C 739.988281 732.433594 741.324219 729.773438 741.578125 727 C 743.589844 705.019531 712 714.269531 701 715.710938 C 696.367188 716.3125 691.585938 715.488281 687 716.484375 C 683 717.320313 680.460938 720 677 721.546875 C 673.625 723.175781 668.285156 722 665.460938 724.179688 C 662.441406 726.671875 668.183594 732.136719 668.652344 735 C 669.34375 739.238281 666 742.707031 664 746 C 666.65625 744.585938 671.488281 741.417969 674.566406 743.132813 C 679.316406 745.78125 678.488281 758 674.582031 761 C 667 766.59375 655.832031 760.382813 654.328125 752 C 652 739.058594 659.230469 725.460938 664 714 L 658 714 C 660.855469 706.628906 667.460938 702.304688 673 697 L 664 700 C 668.8125 673.011719 710.808594 661.316406 734 665.144531 C 741 666.316406 748.371094 673.695313 755 673.695313 C 762.472656 673.695313 771.703125 665.617188 780 664.429688 C 804 661 839.804688 675.023438 847 700 M 673 696 L 674 697 L 673 696 M 742 809.621094 C 747 807.820313 750.582031 813 751.824219 817 C 754 824.402344 755 839.777344 745.984375 843.09375 C 738 846 725.230469 833.625 729.644531 825.644531 C 731.175781 823 735.707031 826.261719 737.398438 822.757813 C 739.460938 818.484375 736 811.769531 742 809.621094 M 783 823 C 782.929688 826.429688 782.585938 829.703125 781.554688 833 C 780.769531 835.527344 779.671875 838 777.773438 839.773438 C 759.664063 858 749.976563 810.554688 766 809.335938 C 776.175781 808.566406 770 820.269531 774 824.1875 C 775.898438 826.011719 780.851563 823.507813 783 823 M 1203 815 L 1202 816 L 1203 815 M 453 837 C 463.316406 868.703125 465.90625 899.78125 472.664063 932 C 474 938.707031 476.566406 944.820313 481.183594 950 C 482.890625 952 487.84375 955 487.367188 958 C 486.941406 960.589844 482.933594 962.652344 481 964.128906 C 475.246094 968.527344 470.570313 975 464 978 C 466.621094 970 470.304688 961.59375 470.542969 953 C 470.910156 939.703125 465.574219 926.757813 462.652344 914 C 459.40625 900 458.273438 885.398438 456.832031 871 C 455.917969 862 449.59375 845.347656 453 837 M 1059 837 C 1054.550781 861 1052.867188 885.1875 1048.195313 909 C 1045.324219 923.640625 1038.304688 938 1039 953 C 1039.457031 961.582031 1044 969.6875 1046 978 C 1041 975.167969 1023.695313 963.726563 1022.921875 958.050781 C 1022.421875 954.382813 1028.394531 952 1030.472656 949.675781 C 1034 945.6875 1035.757813 940.214844 1036.738281 935 C 1041.183594 911.355469 1042.25 887.394531 1048 864 C 1050.324219 855.25 1052.230469 843.375 1059 837 M 940 840 L 941 841 L 940 840 M 600 850 C 584.835938 866 569.820313 882 554.910156 898 C 544 909.769531 531.210938 922.507813 524 937 C 539 932.554688 551.261719 916.738281 562 906 L 560 917 C 565.316406 913.785156 568.605469 907.09375 572 902 C 579.480469 890.78125 586.769531 879.496094 593.8125 868 C 596.957031 863 602.449219 856.292969 600 850 M 909 850 C 910.492188 860 917.21875 868.785156 922.667969 877 L 950 918 L 951 918 C 950.609375 913.203125 949.300781 908.621094 948 904 C 960.558594 915 971.75 930.746094 987 938 C 977 915.125 953.546875 897.101563 937.171875 879 C 928.398438 869.304688 920.464844 856.628906 909 850 M 309 851.332031 L 309.332031 851.667969 C 308.839844 851.832031 308.226563 851.332031 309 851.332031 M 1200 851.332031 C 1200.773438 851.332031 1200 851.832031 1199.667969 851.667969 L 1200 851.332031 M 755 926 L 756 926 C 756 912 758.785156 898 761 884 C 762.257813 877 762.882813 869 767.417969 863.003906 C 773.453125 855.128906 782.519531 853 792 854.183594 C 794.976563 854.558594 802.765625 856.460938 802 860.765625 C 801.601563 863.75 796.222656 864.507813 794 865.519531 C 786 869.132813 780.960938 876.097656 774 881 L 774 870 C 761 884.464844 753.585938 921.433594 763.347656 939 C 770 951.246094 783.359375 958.253906 792.984375 968.003906 C 803 978.195313 811.683594 990 822 999.714844 C 837.277344 1014.097656 854.734375 1025.800781 870 1040.089844 C 895.449219 1064 907.921875 1098.519531 933 1123 C 946.234375 1136 964.417969 1145.617188 983 1138.773438 C 989.632813 1136.328125 996 1133.515625 1002 1129.65625 C 1010 1124.402344 1017.414063 1118.34375 1023.699219 1111 C 1032 1101.277344 1038.875 1089.109375 1043 1077 L 1044 1077 C 1041.367188 1088.382813 1039 1104.34375 1032.351563 1114 C 1026.996094 1121.609375 1016.636719 1127.46875 1009 1132.65625 C 1002.203125 1137.277344 994.867188 1141.472656 987 1144 C 967.457031 1150.183594 948.933594 1142 934 1129.410156 C 907.492188 1107.074219 896.246094 1072.292969 871.714844 1048.429688 C 862.71875 1039.675781 851 1035.144531 841 1028 C 828.703125 1019 818.882813 1007.449219 809 996 C 796 981 780.507813 967.792969 768.523438 952 C 765.59375 948.132813 761 934.789063 755 935.632813 C 749 936.4375 745.773438 948 742.625 952 C 732.226563 965.6875 718.683594 977 707.589844 990 C 696.515625 1003.128906 685.972656 1017 672 1027.074219 C 660.851563 1035.246094 648.902344 1038.6875 639 1049 C 618.40625 1070.570313 605.597656 1098.417969 584.960938 1120 C 568.855469 1137 547.261719 1151 523 1144 C 516.832031 1142.171875 509.46875 1139.71875 506 1134 C 516.46875 1132.0625 523 1138.21875 533 1140.191406 C 544.800781 1142.550781 557 1138.257813 567 1132 C 597 1112.597656 609.65625 1076.671875 631.613281 1050 C 646.585938 1031.816406 667.441406 1019.175781 685 1003.714844 C 696.457031 993.628906 704.980469 980.632813 716 970.171875 C 725.894531 961 737.410156 953.300781 745.226563 942 C 757.589844 924.128906 751.640625 885.441406 737 870 L 737 881 C 726.414063 873.601563 720.785156 865.265625 707 862 C 716.945313 850.398438 737.734375 851.53125 745.46875 865 C 754.285156 880.355469 755 908.582031 755 926 M 980 858 C 978.425781 866.070313 992.394531 894 975 890.605469 C 972.273438 890.078125 969.671875 888.761719 967 888 C 969.3125 911.0625 997.894531 919.828125 1004.894531 941 C 1008.300781 951.308594 998.855469 957.511719 990 959.570313 C 970.484375 964.109375 953.96875 955.550781 935 954 C 943.535156 967.363281 960 978.464844 975 983.253906 C 980.566406 985.03125 997.902344 984.488281 1000.957031 989.316406 C 1003.269531 993 999.972656 998.773438 998.199219 1002 C 992.519531 1012.351563 980.539063 1018.585938 969 1019.824219 C 965.644531 1020.1875 957 1018.757813 955.257813 1022.523438 C 953.4375 1026.136719 965.398438 1037 967.453125 1040 C 970.707031 1045 973.527344 1052.769531 980 1054.253906 C 986 1055.644531 990.5625 1049.265625 993.558594 1045 C 1001.578125 1033.585938 1005.34375 1019.507813 1008 1006 C 1015.425781 968.261719 1010.335938 928.792969 996.949219 893 C 992.832031 882 988.464844 866.375 980 858 M 528 859 C 524.683594 873.332031 515.671875 885.296875 510.695313 899 C 499.714844 929.222656 495.8125 963.113281 500.429688 995 C 502.851563 1011.738281 507 1028.5 516 1043 C 519 1047.8125 524.242188 1056 531 1054.523438 C 538.992188 1052.828125 543.347656 1041 547.761719 1035 C 551.3125 1030.246094 555.816406 1026.632813 558 1021 C 542.601563 1021 525.855469 1019.492188 515.214844 1007 C 512 1003.242188 505 993.066406 510.320313 988.601563 C 514.953125 984.636719 528.769531 985.425781 535 983.5625 C 550.84375 978.820313 567.453125 967.550781 577 954 C 557.96875 955.554688 540.519531 965.121094 521 960 C 512.738281 957.605469 503 952 505.789063 942 C 512 919.644531 541.871094 911.675781 543 887 C 541 888.027344 539 889.242188 536.996094 890.007813 C 516.894531 897.421875 529.976563 867.53125 530 859 L 528 859 M 563 905 L 562 906 L 563 905 M 917 925 L 918 926 L 917 925 M 349 978 L 348 979 L 349 978 M 1167 996 L 1167 997 C 1164 998.804688 1161 1000.539063 1158 1002 C 1160.609375 999.152344 1163.390625 997.367188 1167 996 M 355 1004 C 353.363281 1003.453125 353.546875 1003.636719 353 1002 C 354.636719 1002.546875 354.453125 1002.363281 355 1004 M 1157 1002 L 1156 1003 L 1157 1002 M 1155 1003 L 1154 1004 L 1155 1003 M 359 1005 L 358 1006 L 359 1005 M 343 1009 L 342 1010 L 343 1009 M 1167 1009.332031 L 1167.332031 1009.667969 C 1166.839844 1009.832031 1166.226563 1009.332031 1167 1009.332031 M 1102 1048 C 1096 1061 1081.714844 1071 1072 1081 C 1061.601563 1092 1053.828125 1105.730469 1049 1120 C 1060.3125 1112.03125 1068.96875 1095.335938 1083 1092 C 1081.921875 1100.550781 1080.632813 1108.769531 1078 1117 C 1094.257813 1113.136719 1101 1097.210938 1115 1090 C 1109.207031 1098.222656 1100.90625 1104.550781 1094.171875 1112 C 1081.320313 1126.203125 1069 1141.128906 1057 1156 C 1073.808594 1145.496094 1086.21875 1126.460938 1104 1118 C 1085 1152.074219 1049.640625 1183 1009 1183 L 1009 1182 C 1018.277344 1177.0625 1031.667969 1171.410156 1039 1164 L 1016 1164 C 1025.503906 1151.097656 1043.96875 1149 1056 1139 C 1042 1143.445313 1023.773438 1138.433594 1012 1147.527344 C 1004.609375 1153.238281 1000.210938 1161.742188 994.574219 1169 C 980.242188 1187.464844 960 1210.070313 935 1212 C 884.957031 1215.578125 868.367188 1167.539063 837 1139.171875 C 825.300781 1128.59375 811.34375 1123.195313 796 1120.425781 C 762.238281 1114.324219 715.566406 1113.386719 685 1131 C 644.742188 1154 626.800781 1225 569 1211 C 561.753906 1209.109375 555.207031 1206.109375 549 1202 C 540.625 1196.445313 532.964844 1189.628906 526.429688 1182 C 516.675781 1170.617188 506.59375 1158.195313 498 1146 C 530.289063 1160 538.867188 1210.113281 581 1208.40625 C 620.605469 1206.796875 636.257813 1157.035156 663 1135.3125 C 699 1106 759.636719 1106.441406 803 1114.804688 C 819.476563 1118 835.402344 1124 847.910156 1135.429688 C 863 1149.355469 872.683594 1168.308594 887 1183 C 902 1198.394531 921 1213.546875 944 1206.253906 C 967 1199 980.421875 1177.601563 995 1160 C 1004.550781 1148.632813 1019.449219 1143.753906 1028.238281 1132 C 1034.90625 1123.078125 1045.183594 1111.042969 1049.519531 1101 C 1052.820313 1093.351563 1049.34375 1085.773438 1054.914063 1078.042969 C 1058.464844 1073.121094 1064.28125 1073 1069 1069.695313 C 1079.851563 1062.128906 1089.644531 1053.171875 1102 1048 M 495 1144 L 495 1145 C 481.957031 1140 466.804688 1142 453 1139 L 453 1140 C 466.496094 1144.398438 485.511719 1152.207031 494 1164 L 471 1164 C 478.859375 1171.097656 492.175781 1178 502 1182 L 502 1183 C 460.960938 1183 423.65625 1153.042969 405 1118 C 423.574219 1126.015625 434.691406 1145.042969 452 1155 C 440.550781 1139.554688 423.546875 1126.519531 414 1110 C 415.742188 1110.824219 417.351563 1111.710938 419 1112.667969 C 434.605469 1121.585938 419.363281 1100.820313 425.601563 1098.457031 C 428.3125 1097.433594 432.214844 1101.625 434 1103.132813 C 441.210938 1109.238281 448.863281 1114.824219 456 1121 C 444.546875 1100.351563 425.695313 1082.5625 418 1060 C 420 1061 421.230469 1061.652344 423 1063 L 421 1058 C 431 1060.75 434.679688 1066.445313 442.347656 1072.023438 C 446.363281 1075 451.265625 1072 455.351563 1077.105469 C 460.832031 1084.167969 460.25 1095 463.464844 1103 C 469.3125 1117.78125 481.953125 1135.089844 495 1144 M 423 1063 C 423.769531 1064.3125 423.6875 1064.230469 425 1065 C 424.453125 1063.363281 424.636719 1063.546875 423 1063 M 426 1067 L 427 1068 L 426 1067 M 808 1069 C 817.195313 1079.253906 815.3125 1096.132813 801 1101 C 803.738281 1097 807 1093.121094 807.8125 1088 C 808.617188 1082 806 1074.542969 808 1069 M 703 1070 C 703 1081.816406 703.40625 1090.371094 709 1101 C 695.449219 1097.742188 692.789063 1078.785156 703 1070 M 1044.667969 1074.667969 C 1044.722656 1074.722656 1044.777344 1075.777344 1044.332031 1075.332031 C 1044.277344 1075.277344 1044.222656 1074.222656 1044.667969 1074.667969 M 467 1076 C 471.234375 1091.480469 482.566406 1107.683594 491.753906 1120.550781 C 495.453125 1125.734375 501.9375 1125.652344 504 1133 C 484.296875 1129.078125 474.644531 1109.230469 470 1092 C 468.851563 1087.1875 465.558594 1081 467 1076 M 717.839844 1088.207031 C 719.863281 1088.1875 721.566406 1092 723.214844 1093 C 726.476563 1094.824219 731.289063 1095.039063 735 1095.570313 C 748.21875 1097.464844 761.792969 1095.21875 775 1095 C 778.761719 1095 783.46875 1095 786.777344 1093 C 788.386719 1092 790.476563 1087.417969 792.699219 1088.347656 C 796.710938 1090.015625 795.792969 1101.742188 792.683594 1103.820313 C 788.476563 1106.628906 779.847656 1105 775 1105 L 736 1105 C 730.800781 1105 722.96875 1106.4375 718 1104.257813 C 714.429688 1102.574219 712.894531 1088.25 717.839844 1088.207031 M 497 1145 L 496 1146 L 497 1145 M 1115 1154 L 1114 1155 L 1115 1154 M 452 1155 L 453 1156 L 452 1155 M 1055 1158 C 1056.636719 1157.453125 1056.453125 1157.636719 1057 1156 C 1055.363281 1156.546875 1055.546875 1156.363281 1055 1158 M 454 1157 L 455 1158 L 454 1157 M 501 1195 C 487.277344 1206.328125 456.234375 1205.644531 448 1188 C 463.730469 1188.011719 486.316406 1189.5 501 1195 M 1063 1188 C 1051 1204.671875 1026.570313 1205.632813 1010 1196 C 1013.890625 1193.050781 1020.203125 1193.390625 1025 1192.585938 C 1037.558594 1190.480469 1050.238281 1188 1063 1188 M 1071 1198 C 1062.542969 1212.644531 1045.828125 1224.296875 1029 1226.699219 C 1025.984375 1227.132813 1009.207031 1228.578125 1009.207031 1223.613281 C 1009.207031 1219.046875 1019.644531 1216.101563 1023 1215.027344 C 1039 1210 1054.796875 1202.429688 1071 1198 M 440 1199 C 456.226563 1201.1875 471.578125 1210.140625 487 1215.332031 C 490.292969 1216.441406 500.917969 1218.484375 500 1223.597656 C 499.199219 1229 485.453125 1227 482 1226.421875 C 465.398438 1224.035156 448.519531 1213.734375 440 1199 M 741 1297 L 740 1298 L 741 1297 "/>
</g>
</svg>
