<?xml version="1.0" encoding="UTF-8"?>
<svg xmlns="http://www.w3.org/2000/svg" xmlns:xlink="http://www.w3.org/1999/xlink" width="1500pt" height="1500pt" viewBox="0 0 1500 1500" version="1.1">
<g id="surface1">
<path style=" stroke:none;fill-rule:nonzero;fill:rgb(0%,0%,0%);fill-opacity:1;" d="M 918 256 L 917 256 C 916.863281 239.472656 908.398438 223.8125 902 209 C 899.359375 203 897.226563 195.183594 891 192 C 891 215.828125 893.25 238.5 887.371094 262 C 885.203125 270.679688 882.617188 281.425781 875.816406 287.773438 C 871.410156 292 866.402344 290.066406 861 290.003906 C 849.320313 290 837.722656 289 826 289 C 806.316406 289 786.695313 287.738281 767 289.089844 C 755.402344 290 743.675781 293.261719 732 292.089844 C 715.433594 290.425781 699 280.777344 682 278.273438 C 659.242188 275 633.96875 272.574219 611 275.285156 C 601.675781 276.386719 592.324219 276.789063 583 278.132813 C 579.332031 278.660156 574.578125 280.605469 571 279 C 561 274.300781 557.199219 254.703125 557 245 C 547.84375 249.789063 543.449219 261.199219 542 271 L 541 271 C 535.179688 255.003906 523.425781 232.285156 505 229 C 506.597656 234.53125 519.179688 250.628906 514.800781 256.210938 C 512.863281 258.683594 500.9375 253.761719 498 253.25 C 485.460938 251.066406 471.550781 251.410156 461 259.527344 C 452.242188 266.269531 447.257813 276.730469 438 283 C 421.789063 293.691406 401.453125 299.160156 383 304.71875 C 366 309.816406 349.476563 316 332 319 C 289 326.453125 245 319.746094 205 341.308594 C 195.632813 346.355469 185.996094 352.785156 180.273438 362 C 165.449219 386 175.515625 423 184.574219 447 C 187.636719 455.113281 189.828125 466.089844 195 473 C 197.542969 467.253906 198.871094 461.28125 199 455 L 200 455 C 202 481 222.285156 501.003906 219 527 C 221.390625 525.15625 225.542969 518.066406 228.761719 518.632813 C 234.433594 519.625 233.996094 536 234 540 C 234 563.265625 230.675781 586 229 609 C 228.613281 616 226.800781 630.234375 235 633.398438 C 243.902344 636.8125 254.507813 629.609375 262 625.742188 C 277 618 291.453125 608.175781 305 598 C 311.5 593 317.367188 585.675781 325 582.433594 C 332.695313 579.164063 345.347656 590 353 592.230469 C 360.933594 594.609375 377 593.242188 382 601.214844 C 386.796875 609 375.671875 627.027344 372.242188 634 C 358.75 661.445313 343.886719 688.652344 338 719 C 345.65625 713.488281 348.882813 704.398438 354.378906 697 C 361.621094 687.246094 370.285156 679.339844 379 671 L 371 698 C 380.65625 696.257813 388.914063 688 397 682.691406 C 415.417969 671 441.691406 652.824219 464 651 L 464 652 C 458 654.816406 452.832031 658.605469 449 664 C 458.796875 663.226563 466.234375 661.765625 476 664 L 476 665 C 461.683594 665.039063 445.613281 670 437 682 C 450.488281 678.113281 460.214844 669.59375 475 673.746094 C 478.34375 674.683594 486.949219 677.027344 486.21875 682 C 485.757813 685 481.257813 687.148438 479.289063 689.175781 C 474.867188 693.722656 471.480469 698.824219 470 705 C 478.511719 702.550781 485.328125 696.308594 494 694.238281 C 495.742188 693.824219 502.925781 692.191406 502.21875 696.058594 C 501.246094 701.367188 491.382813 708 488.46875 713 C 487.636719 714.472656 485.28125 718.273438 487 720 C 489 721.679688 493.449219 718 495 717 C 501.351563 712.441406 508 708.242188 515 704.808594 C 516.617188 704.011719 521.394531 701.289063 523 703.121094 C 525 705.351563 518.25 710.035156 517 711.171875 C 509.21875 718.226563 502.425781 725.550781 500 736 C 505.871094 733.238281 508.738281 727.597656 513 723.015625 C 520.332031 715.390625 529.777344 708 540 705 C 531.421875 713.578125 523.457031 721.070313 520 733 C 529.738281 730.292969 536.519531 720.089844 546 716 C 542.253906 720.726563 538.585938 725.53125 536 731 C 541 729.292969 544.304688 725.683594 548 722 C 544.746094 733.554688 541 745 541 757 C 551.875 749.175781 557.195313 735.351563 567 726.285156 C 585.835938 709 610 697.546875 636 701.300781 C 645.9375 702.734375 655 707.539063 665 709 C 661.316406 703.378906 652 701 646 698.613281 C 623.789063 690.105469 601.863281 690.03125 580 699 C 596.535156 684.691406 619.898438 673.148438 642 680.359375 C 650.953125 683.28125 657.90625 689.488281 666 694 C 665.421875 681.355469 655 673.0625 644 668.816406 C 620.351563 659.820313 595.71875 670 575 681 C 587.570313 669 602.28125 658.164063 619 652.746094 C 626.265625 650.390625 645.59375 650.375 650.257813 644.683594 C 652.894531 641.46875 651.660156 636.773438 651.710938 633 C 651.828125 624.253906 653.929688 615.71875 654 607 C 650.421875 608.667969 647 613.585938 643.285156 614.222656 C 630.886719 616.300781 637.851563 603.167969 640 599 L 641 599 C 640.347656 602.171875 636.804688 613.648438 644 612.027344 C 649.257813 611 652.453125 602.171875 654.851563 598 C 662.796875 584.15625 677.570313 571.339844 682 556 L 683 556 C 676.601563 578.375 667.507813 597.515625 664.425781 621 C 663.859375 625.296875 661.519531 641.796875 667 643.246094 C 672.167969 644.546875 673.46875 637.386719 673.828125 634 C 674.949219 623.527344 675.308594 613 679.464844 603 C 682.476563 596 688.253906 590.25 691 583 L 692 583 C 693 591.324219 693.265625 599.71875 694.285156 608 C 694.539063 610.0625 694.667969 615.613281 697.417969 616.078125 C 706.175781 617.558594 707.742188 593.078125 708.425781 588 C 712.808594 555.410156 724.976563 523.03125 725 490 L 726 490 C 726.496094 501.394531 731 512.804688 733.195313 524 C 735.367188 535.269531 735.410156 547.339844 740 558 C 744 553 744.414063 546.203125 745.410156 540 C 747.527344 526.832031 749 513.332031 749 500 L 750 500 C 750.882813 510.816406 755 521.359375 757.195313 532 C 758.902344 540.707031 758.460938 549.773438 762 558 L 763 558 C 774 537 771.9375 505.171875 772 482 L 773 482 C 773 494.042969 777 505.371094 779.667969 517 C 784.738281 539.820313 791.414063 562.738281 794 586 C 794.816406 593.347656 796.308594 616.058594 806 617.832031 C 808.503906 618.292969 808.328125 613.617188 808.667969 612 C 810 605 809.304688 598.144531 810 591 C 810 589.484375 810.683594 584.125 813 584.667969 C 816.691406 585.527344 820.367188 593 822.167969 596 C 830.449219 610 829.234375 621.128906 832.332031 636 C 833.246094 640.386719 838.410156 645.257813 842.832031 640.832031 C 845.328125 638.335938 844 631.292969 844 628 C 844 615 841.894531 600.144531 836.667969 588 C 835.601563 585.523438 831.664063 579.511719 831 585 L 830 585 C 827.714844 578 822 572.273438 818 566 C 811.914063 556.355469 806.976563 546 803.722656 535 C 795 506 800.871094 472.164063 813.308594 445 C 818.753906 433.105469 827.40625 422.113281 832 410 L 833 410 C 823.734375 444 816 479 828 514 C 835.34375 503.3125 832.648438 481.804688 836 469 C 844.628906 438.046875 864.605469 411.808594 891 394 C 883.210938 412.707031 875.578125 428.601563 873 449 C 879.355469 445.421875 883 436 887.289063 430 C 894.84375 419.40625 903.476563 410.773438 913 402 C 902.847656 426.386719 888 445.503906 888 473 C 906.808594 464.226563 912.289063 442 936 440 L 936 441 C 922.734375 446.664063 918.644531 464.191406 916 477 C 925.203125 474.066406 932.730469 467 942 463.699219 C 965.578125 455.308594 988.792969 458.160156 1012 466 C 995 473.144531 971 472.4375 962 492 C 993.917969 483 1021.46875 480 1053 493.425781 C 1062.496094 497.488281 1069.957031 504.382813 1079 509 L 1079 510 C 1062.960938 509.667969 1047 504.28125 1031 508.128906 C 1024.925781 509.585938 1018 511.109375 1015 517 C 1054.574219 514 1096.34375 522.636719 1126 551 C 1110 543.460938 1094 541.71875 1077 539 C 1074.503906 538.511719 1059.382813 536 1061.347656 542 C 1062.910156 546.617188 1073.183594 548.605469 1077 551.304688 C 1085.996094 557.664063 1093.628906 567 1098 577 C 1082 565.679688 1059 562.011719 1040 562 C 1044.984375 569.609375 1059.339844 574.054688 1067 579.078125 C 1085.484375 591.203125 1106 607.429688 1117 627 C 1099.679688 609.824219 1074.707031 597.121094 1050 596.039063 C 1043 595.734375 1035.867188 595.707031 1029 597 C 1025.726563 597.503906 1021.328125 600 1018 599.1875 C 1014.402344 598.320313 1012.667969 593.824219 1009.894531 591.636719 C 1004.8125 587.625 997.8125 585.070313 992 582.257813 C 960.867188 567.195313 927.257813 567.8125 902 593 C 916.535156 559.316406 958.726563 559.738281 987 574 C 993.820313 577.402344 1007.53125 592.632813 1014.757813 591.550781 C 1022 590.453125 1004.863281 579.492188 1007.753906 575.742188 C 1010 572.765625 1016.765625 574.136719 1020 574 C 1027.492188 573.386719 1034.425781 571.15625 1039 565 C 1019 569.121094 1001.871094 566.742188 983 559 L 983 558 C 999.875 558 1016 552 1033 552 C 1029.335938 546.453125 1020 545.550781 1014 544.589844 C 995.335938 541.675781 974.800781 545.308594 957 551 C 964.59375 543.425781 972.816406 537.679688 982 532.199219 C 987.421875 529 994 527 997 521 C 976.496094 523.761719 958.359375 538.761719 941 549 C 949.363281 534 964.703125 525.058594 973 511 C 958.617188 513.5625 941.539063 527.1875 935 540 L 934 540 C 937.984375 530.429688 943.65625 522 947 512 C 934.257813 516.332031 923.558594 535.640625 920 548 L 919 548 C 922.230469 536.699219 928.59375 526.625 931 515 C 919.511719 523.09375 909 539 907 553 L 906 553 C 908.617188 532.296875 919 511.445313 920 491 L 919 491 C 906 509.117188 901.464844 531 896 552 C 888 535 892.722656 519.625 895 502 L 894 502 C 886 515.535156 885.640625 531.714844 886 547 C 886.195313 554.320313 888.539063 561 886 568 C 879.835938 560 878.898438 547.785156 877 538 C 869.507813 543 873.71875 556.664063 874.921875 564 C 875.414063 567.023438 876.96875 573.324219 872.785156 574.652344 C 869.539063 575.6875 867.609375 571.261719 866.621094 569 C 863.703125 562.324219 862.410156 555 860.421875 548 C 854.90625 528.648438 848.644531 507.339844 851.289063 487 C 852.550781 477.292969 858.332031 469.355469 860 460 C 845.523438 465.058594 844.1875 480.75 842.425781 494 C 837.378906 532 864.433594 561.542969 866 598 C 846.773438 585.027344 836.566406 566.378906 824.796875 547 C 821.847656 542.144531 814.695313 527.636719 808 527.636719 C 804.292969 527.636719 805.375 532.769531 806 535 C 808.320313 541.75 812.542969 548 816.203125 554 C 826 570.328125 846 580.636719 852.90625 599 C 856.597656 609 857 620.53125 857.289063 631 C 857.355469 636 855.605469 642.488281 859.515625 646.347656 C 864.285156 651.0625 873.921875 650.730469 880 653 C 893.539063 657.617188 909.5625 666.121094 918 678 C 899.675781 666.785156 875.285156 661.003906 854 666.476563 C 842.324219 669.480469 830.96875 677.386719 829 690 C 837.824219 687.457031 844.960938 681.203125 854 679.039063 C 877.5625 673.402344 893 687.609375 913 696 L 913 697 C 892 692.6875 875.214844 691.625 855 700.011719 C 849 702.476563 840.570313 705.441406 837 711 C 849.535156 709.3125 861.257813 704 874 703.089844 C 891.964844 702 910.757813 712 924 723.300781 C 934.234375 732.058594 941.703125 748.617188 953 755 C 950.929688 738.703125 942 726.75 936 712 C 945.320313 717.730469 952.941406 729 964 731 C 961.921875 722.230469 957 715 953 707 C 962.4375 714.113281 970 723.746094 980 730 C 979 720.558594 971.429688 715.386719 968.449219 707.035156 C 966 700.59375 974.980469 705.03125 977 706.519531 C 978.726563 707.785156 980.324219 709.21875 982 710.550781 C 984.558594 712.582031 987.167969 714.386719 990 716 C 988.347656 710.425781 984.886719 706.234375 981 702 C 997.902344 703.476563 1007.429688 718 1022 724 C 1019.980469 715.300781 1015 708.007813 1008 702.527344 C 1004.945313 700.171875 995.535156 697.367188 994.78125 693.226563 C 994 689.175781 1001.652344 689.03125 1004 689.003906 C 1015 689 1024.445313 693.558594 1035 696 C 1031.207031 686.21875 1020 681 1010 680 L 1010 679 C 1025.855469 675.226563 1039.78125 683.167969 1054 689 C 1051.480469 680.519531 1044 674.734375 1036 671.476563 C 1032.617188 670.097656 1023.832031 669.648438 1022.347656 665.714844 C 1021.214844 662.714844 1026.210938 662.148438 1028 662.046875 C 1033.671875 661.714844 1039 663.261719 1044 666.042969 C 1061.605469 676.011719 1068.835938 696.613281 1085 708 C 1082.59375 692 1069 676.035156 1057.996094 665.015625 C 1054.316406 661.382813 1041.289063 654.25 1042 648.273438 C 1042.886719 641.480469 1057.433594 655 1059 656.285156 C 1071.894531 667.640625 1080.609375 682.539063 1087.691406 698 C 1107.460938 741.175781 1108 788.726563 1108 835 L 1107 835 C 1103.582031 816.652344 1099.816406 787.214844 1084 775 C 1087.425781 791.546875 1094.441406 807.152344 1096.710938 824 C 1099.222656 842.648438 1097 861.277344 1097 880 L 1096 880 C 1095 857.132813 1084.785156 831.539063 1075.308594 811 C 1072 804.160156 1068.652344 794.035156 1062 790 C 1072.828125 823.273438 1086 857.535156 1086 893 L 1085 893 C 1084 882.195313 1078 872.507813 1073.246094 863 C 1061.796875 840.101563 1047.988281 819.328125 1029 802 C 1019.972656 793.761719 1009.542969 784 997 782 C 1002.746094 795.316406 1014.640625 805.605469 1023.347656 817 C 1041 840.285156 1059 865.394531 1069.574219 893 C 1076.390625 911.058594 1079.238281 929.703125 1077.910156 949 C 1077.332031 957.410156 1075 965.515625 1075 974 C 1083.734375 968.277344 1086.917969 950.730469 1087 941 L 1088 941 C 1093.808594 963.445313 1101.808594 987.65625 1102 1011 C 1094.949219 1006.035156 1089.453125 998.699219 1081 996 C 1083.203125 1013.050781 1084.976563 1031.292969 1089 1048 C 1083.566406 1042.566406 1078.578125 1036.25 1071 1034 C 1079.625 1056.234375 1092.949219 1077.550781 1094 1102 L 1093 1102 C 1089.273438 1094.027344 1084.257813 1086.128906 1077 1081 C 1077 1091.726563 1079.492188 1102.304688 1079.960938 1113 C 1080.570313 1127 1078.925781 1141.464844 1083 1155 C 1088.410156 1172.664063 1099.960938 1187.175781 1107 1204 C 1099 1196.117188 1089.734375 1185.203125 1078 1184 C 1085.8125 1198.027344 1094.332031 1210.671875 1099.65625 1226 C 1100.300781 1228 1105.683594 1241 1101.644531 1241 C 1094.867188 1241 1087.503906 1227.226563 1080 1225 C 1084 1237 1091 1247.21875 1102 1254 C 1105.363281 1256 1112.722656 1260.292969 1115.820313 1255.679688 C 1121.730469 1247 1102 1216.378906 1121 1217.21875 C 1125 1217.398438 1128.917969 1218.820313 1133 1219 C 1122.40625 1186.445313 1096 1162.714844 1096 1127 L 1097 1127 C 1098.269531 1135.035156 1109.511719 1136.589844 1111.363281 1128 C 1113.917969 1116.074219 1107.984375 1099.535156 1105 1088 C 1109.703125 1090.195313 1113.820313 1093.074219 1119 1094 C 1116 1083.761719 1109 1075.132813 1105.75 1065 C 1101.910156 1053.300781 1101.925781 1041 1099 1029 C 1105 1033.761719 1111.234375 1038.382813 1118 1042 C 1117.996094 1017 1114.628906 987 1107 963 C 1116.925781 971.460938 1128.839844 978 1142 979 C 1138.347656 971.027344 1130.914063 965.550781 1125.300781 959 C 1115.203125 947.222656 1101.980469 928.355469 1098.53125 913 C 1095.980469 901.65625 1102 887 1102 875 L 1103 875 C 1103 880.316406 1106.449219 890.167969 1112 882 C 1121.816406 868 1116.988281 841.089844 1118 825 C 1121.714844 772.074219 1124.40625 714.800781 1111 663 C 1120.347656 673.710938 1128.511719 685.390625 1135 698 C 1138.996094 705.425781 1139.914063 713.734375 1147 719 C 1147 705.707031 1148.898438 693.191406 1145.523438 680 C 1142.820313 669.4375 1137 660.53125 1132 651 C 1137.621094 655.085938 1143.609375 659.242188 1150 662 C 1147.957031 641.621094 1128.277344 624.425781 1119 607 C 1136.925781 614.464844 1153.472656 628.664063 1172 634 C 1168.621094 623.394531 1159.175781 615.003906 1151.574219 607.285156 C 1149 604.765625 1142.183594 600.367188 1143.347656 596.171875 C 1144.53125 592 1152.746094 587.035156 1156 584.171875 C 1158.972656 581.550781 1162.3125 578.644531 1166 577.089844 C 1176.855469 572.515625 1184.386719 587.519531 1190.175781 594 C 1203.335938 608.730469 1221.507813 614.808594 1239 622.695313 C 1243.582031 624.761719 1252.691406 630.738281 1257.773438 628 C 1263.335938 625 1261.675781 615.175781 1262.285156 610 C 1264.378906 592.25 1260.1875 571.039063 1265 554 C 1270.378906 535.242188 1280.863281 518.203125 1289.742188 501 C 1306 469.230469 1322.316406 436 1326 400 C 1328 381.414063 1330 352.695313 1315.816406 338.175781 C 1305 327.195313 1287.507813 325 1273 323 C 1241.921875 318.546875 1209.8125 321.222656 1179 315.671875 C 1170.636719 314.164063 1162.542969 308.019531 1155 304.246094 C 1139.820313 296.65625 1124.464844 289.664063 1109 282.695313 C 1089.839844 274.058594 1070.507813 265.699219 1052 255.691406 C 1039.671875 249.023438 1027.929688 241 1015 235.429688 C 1004.335938 231 990.496094 234.648438 981 229.820313 C 976.390625 227.472656 974.289063 223 974 218 C 973.929688 215.832031 975 209.808594 972.398438 208.789063 C 965.300781 206.0625 953 221 949 225 C 950.96875 210.386719 958.808594 196.089844 968.300781 185 C 972.929688 179.589844 979.460938 175.179688 983 169 C 972.585938 169.476563 964.65625 176.128906 957 182.589844 C 937.214844 199.285156 919 229.542969 918 256 M 952 245 C 950.34375 266 941.492188 289 933 308 C 938 303.703125 940.730469 296.6875 944 291 C 951.6875 277.625 960.90625 263 965 248 L 966 248 C 962.726563 272.316406 947.230469 292.832031 938 315 C 948 309.042969 958.476563 300.738281 970 298 L 970 299 C 959.867188 303.820313 950.769531 314 946 324 C 955.480469 318.179688 964.34375 312.472656 975 309 C 969.636719 315.496094 962.667969 319.652344 958 327 C 968.738281 324.449219 979.570313 313.71875 991 317 C 982.671875 327.082031 971.285156 332.457031 967 346 C 981.230469 341.359375 994.765625 333.652344 1010 333 L 1010 334 C 994.6875 336.296875 979.417969 351.496094 973 365 C 982.167969 360.121094 990.277344 354.46875 1001 354 C 994.523438 363.191406 985.257813 369.710938 982 381 C 995 372.011719 1006.65625 363.199219 1023 361 C 1015.429688 370.386719 1004.515625 377 999 388 C 1017.828125 379.195313 1029 370 1051 370 L 1051 371 C 1030.914063 375.648438 1016 391.0625 1003 406 C 1022.351563 401.414063 1038.53125 392.617188 1059 391 L 1059 392 C 1045.816406 395.050781 1034.570313 402.488281 1023 409.148438 C 1021.414063 410.0625 1011.277344 415.136719 1014.636719 418 C 1016.734375 419.597656 1021.769531 417.203125 1024 416.628906 C 1031.871094 414.605469 1039.882813 412.640625 1048 412 L 1048 413 C 1041.425781 414.796875 1035 418 1029 421 C 1027.6875 421.484375 1023.347656 423.214844 1024.921875 425.363281 C 1027 428.320313 1033 426.445313 1036 426.171875 C 1045.207031 425.292969 1054.746094 425 1064 425 L 1064 426 C 1053 427.613281 1043.214844 433.511719 1032 434 L 1032 435 C 1045.359375 438.753906 1061.308594 439.730469 1075 438 L 1075 439 C 1065.625 441.425781 1055.703125 444.582031 1046 445 C 1052.972656 452.121094 1077.179688 450 1087 450 L 1087 451 C 1075.65625 454.21875 1064.707031 456.519531 1053 458 C 1062.707031 467.390625 1086.972656 469.316406 1100 471 L 1100 473 C 1086.667969 473.273438 1074.308594 474.472656 1061 472 C 1074.441406 485.585938 1095.632813 489.828125 1108 506 C 1104.96875 504.738281 1093.507813 497.527344 1090.921875 501.617188 C 1089.523438 503.824219 1092.652344 506.519531 1094 507.828125 C 1098.953125 512.546875 1104.835938 517.070313 1111 520 L 1111 521 C 1094.8125 516.335938 1081.625 503.335938 1068 494.027344 C 1051.992188 483.09375 1032.542969 476.054688 1013 476 L 1013 475 C 1015.933594 474.125 1027.632813 474.277344 1028.367188 470.660156 C 1029.246094 466.347656 1017.808594 463.359375 1015 462.320313 C 1000.246094 457 985.683594 452.34375 970 450.589844 C 965.167969 450.050781 955.671875 453 951.753906 449.027344 C 949.5 446.773438 954.585938 444.085938 956 443.203125 C 959.566406 441 982.539063 432.472656 974.921875 428.648438 C 959.539063 421 931 425.640625 917 434.066406 C 914.195313 435.746094 904.558594 442.554688 902.972656 436 C 901.65625 430.3125 910.269531 426 914 423.601563 C 927.667969 415.332031 943.539063 408.429688 953 395 C 944.949219 399.75 936.695313 405.15625 928 408.648438 C 925.21875 409.765625 919 411.300781 918.425781 407 C 917.710938 402.496094 922.210938 399.214844 925 396.714844 C 932.523438 390 939.375 382.585938 946 375 C 926.210938 377.679688 912.652344 393.71875 896 403 C 904 391.433594 917.8125 387.023438 927 377 C 906.226563 374.375 885.183594 379.449219 869 393.300781 C 863.859375 397.699219 850.992188 418.097656 843.230469 415.339844 C 838.203125 413.550781 841.777344 406.035156 843.273438 403 C 849 391.359375 859.792969 385.226563 867 375 C 838.414063 381.617188 819.179688 408.207031 806.753906 433 C 802.925781 440.632813 798.28125 448.453125 797 457 L 796 457 L 798 444 C 787.441406 455.769531 784.65625 474.683594 784 490 L 783 490 C 782.542969 484.394531 781.328125 472.582031 777 468.464844 C 772 463.476563 772 477 772 479 L 771 479 C 770.484375 474.371094 768.710938 471.765625 765 469 L 765 483 L 764 483 C 758.980469 473.179688 757.335938 462.433594 754 452 L 753 452 C 753 459.71875 754 467.304688 754 475 C 753.996094 476.464844 754.675781 481.566406 752.609375 482.078125 C 749.917969 482.746094 747 473.832031 742 474 C 738.90625 456.09375 733 471.226563 733 481 L 732 481 C 726 467.597656 722.675781 454 710 445 C 713.5625 457.5625 715.972656 470 717 483 L 716 483 C 709.203125 450.171875 691.972656 410.566406 658 399 C 661 408 666.945313 415.527344 671 424 C 672.351563 426.769531 674.660156 432 671.53125 434.289063 C 665.824219 438.742188 655.925781 415.765625 653.574219 412 C 638.835938 388.382813 609.808594 367.238281 581 367 C 588.480469 379.21875 598.320313 390.820313 604 404 C 594.21875 398 585.289063 391.085938 574 388 C 581.269531 399.621094 591.550781 408 597 421 C 588.175781 417.195313 580 412.460938 571 409 C 577.820313 422.148438 591.476563 431.792969 599 445 C 589.960938 441.242188 581.667969 438 572 436 C 573.191406 439.605469 575.324219 442.609375 577 446 C 567.550781 443.34375 557.761719 441.832031 548 441 C 545.617188 440.703125 540.722656 439.054688 538.746094 441.03125 C 534.539063 445.242188 552.664063 457.339844 538 458 C 536.335938 458.054688 534.664063 458 533 458 C 520.59375 458 508.363281 459.707031 496 460 C 492.992188 460.070313 484.714844 459.773438 483.347656 463.339844 C 481.492188 468.167969 495 471.3125 498 472 L 498 473 C 487.945313 472.207031 478 469.441406 468 472.160156 C 456.957031 475.148438 448.257813 483.367188 439 489.65625 C 428.304688 497 415.933594 503.03125 404 508 C 414 495.664063 431.386719 491.601563 443 481 C 432.75 483.804688 423.691406 489.558594 413 491 L 413 490 C 433.832031 481.328125 456.835938 466.59375 474 452 C 454 457.59375 433.710938 458.308594 414 463 L 414 462 C 432.386719 452.199219 452.328125 444.171875 472 437.34375 C 481.800781 434 496.457031 431.316406 504 424 C 482 424 459.6875 426.257813 438 429 L 438 428 C 450.351563 423 461.996094 416.539063 475 413.15625 C 491 409 508.488281 409 525 409 L 525 408 C 506.496094 404.171875 486.261719 394.402344 476 378 C 492.476563 381.8125 506.921875 385 524 385 L 524 384 C 502.667969 377.058594 473 366.207031 462 345 C 488.875 353.59375 511 364 536 377 C 531 362.730469 515.269531 343.488281 501 338 L 501 337 C 514 337.269531 526.929688 344 538 350.285156 C 543 353.199219 548.839844 359.476563 554.875 360 C 560.902344 360.335938 554.886719 352.664063 553.53125 351 C 547.96875 344.160156 541 337.800781 533 334 L 533 333 C 547.667969 336.394531 554.464844 344.703125 566 353 C 561.503906 339.792969 552.398438 328 539 323 L 539 322 C 549.691406 324.015625 558.910156 328.085938 569 332 C 564.925781 324.691406 559.640625 318.636719 552 315 L 552 314 L 567 319 C 562.636719 309 554.488281 300.460938 545 295 L 545 294 C 554.230469 296.660156 561.308594 303.25 570 307 C 565.300781 297.078125 558.726563 290.441406 552 282 C 570.371094 287.304688 574.410156 308.097656 584.210938 322 C 592.960938 334.414063 609.515625 345.464844 622 354 C 619.597656 345.214844 614.167969 338.261719 608.886719 331 C 607.953125 329.71875 603.664063 325 605.828125 323.242188 C 608.710938 321.066406 620.59375 329.019531 624 330 C 618.210938 317.757813 607.601563 309.792969 600 299 C 621.644531 305 638.257813 322.253906 656 335 C 650.507813 321 641 309.285156 634 296 C 642.613281 297.535156 649.371094 304 656 309.199219 C 669.648438 320.140625 681.777344 333.484375 693.984375 346 C 699.769531 352 704.507813 359.113281 712 363 C 707.496094 347.140625 698.527344 333.445313 687.867188 321 C 680.269531 312.121094 669.59375 303 665 292 C 689.449219 297.820313 711.214844 297.003906 732 313.804688 C 738.722656 319.238281 744.613281 326 749.480469 333 C 751 335.277344 753.398438 340.75 756.890625 340.230469 C 764.699219 339.0625 753.621094 321.171875 752.472656 318 C 751.6875 316 750.675781 311.832031 754 311.546875 C 764.957031 310.65625 770.503906 334.117188 775 341 C 777.183594 333.230469 777.996094 325.0625 778 317 L 779 317 C 781.734375 325.410156 781.960938 339.632813 788 346 C 788.816406 336.003906 794.746094 310 805 306 C 815.636719 301.710938 830 307 841 307 C 843.328125 307.023438 851.550781 305.753906 851.882813 309.316406 C 852.5 316 838.964844 326.765625 836 333 C 866.519531 313 899.660156 294 903 253 L 904 253 L 903 310 C 907.621094 305.429688 909.734375 298.640625 912.859375 293 C 919.523438 281 928.929688 267.828125 931 254 L 932 254 C 931.566406 275 921.808594 296 914 315 C 934.605469 298.222656 938.574219 266.332031 952 245 M 1120 303 L 1120 304 C 1097.835938 304.015625 1081.8125 301.074219 1061 293 C 1070.671875 302.667969 1084 310 1092 321 C 1084.238281 317.75 1077.695313 312.320313 1070 309 C 1086.929688 326 1109.496094 348.222656 1116 372 C 1102.191406 365.5625 1094 349.148438 1081 341 C 1100.84375 368.316406 1111.710938 400.546875 1129.425781 429 C 1139 444.632813 1153.6875 455.363281 1164 470 L 1152 466 C 1155.988281 483.234375 1165.6875 499.210938 1175 514 C 1179.585938 521.15625 1184.296875 529.003906 1192 533 C 1179.769531 511.488281 1175 482.429688 1175 458 C 1180.558594 462.003906 1184.304688 467.753906 1187 474 L 1188 474 C 1184.753906 460 1178 444.480469 1166 436 C 1165 448.523438 1152.804688 434.226563 1149.746094 430 C 1139.988281 416.507813 1132.375 401.347656 1129 385 C 1136.40625 390.328125 1139.644531 399 1146 405 C 1138.273438 381.253906 1125.300781 360.339844 1119 336 C 1129.542969 341.019531 1136.765625 355.742188 1145 364 C 1142.664063 357.136719 1139.292969 350.582031 1136.257813 344 C 1135.503906 342.359375 1133.375 338.765625 1135 337.070313 C 1137.910156 334.234375 1144.925781 340.566406 1147 342.128906 C 1157.742188 350.210938 1167.28125 360.324219 1179 367 C 1173.777344 354.453125 1162 346.15625 1157 334 C 1175 341.804688 1189.824219 358.769531 1205 371 C 1196 357.519531 1181.5625 348.6875 1173 335 C 1185.75 339.035156 1196.40625 349.546875 1208 356 C 1200.476563 348.476563 1192.316406 341.328125 1187 332 C 1194.890625 334 1202.992188 332.40625 1211 333.171875 C 1232.398438 335.207031 1253.839844 336.34375 1275 340.601563 C 1289.257813 343.46875 1304.25 348.21875 1308 364 L 1300 359 C 1302.933594 371.683594 1308.574219 383 1309.828125 396 C 1310.847656 406.671875 1308 417.328125 1308 428 L 1307 428 C 1307 409.546875 1303.917969 383.769531 1290 370 C 1298.476563 392.472656 1292.191406 414.101563 1292 437 L 1291 437 C 1289.757813 421.257813 1287.265625 402.566406 1281 388 C 1278.902344 396.800781 1280.523438 406.039063 1279.910156 415 C 1278.789063 431.34375 1277.289063 447.664063 1276 464 L 1275 464 C 1274.347656 449 1267.628906 432.726563 1264 418 L 1263 418 L 1262 500 L 1261 500 C 1260.179688 481 1251 460.3125 1246 442 L 1245 442 C 1245 462.664063 1246.867188 483.289063 1245.960938 504 C 1245 523 1242.359375 542.042969 1244.171875 561 C 1245 570.316406 1248.652344 579 1250 588 L 1249 588 C 1241 559 1234 532.570313 1234 502 L 1233 502 C 1224.351563 532.78125 1230 563.476563 1240 593 C 1221.960938 580.257813 1216.640625 552.246094 1212 532 L 1211 532 C 1211 552.597656 1219.25 571 1221 591 C 1208.800781 581.066406 1210 563.476563 1200 553 C 1202.242188 561.660156 1205.1875 570.25 1207 579 C 1186.539063 572 1166.355469 544.367188 1158 525 C 1160.402344 525.101563 1166.667969 526.769531 1167.792969 523.667969 C 1169 520 1161.304688 514.371094 1159.171875 512 C 1151.46875 503.445313 1141.753906 492.015625 1137.96875 481 C 1135 472.550781 1146.5 474.160156 1142.496094 467 C 1137 457.238281 1125.625 452 1122 441 L 1127 442 C 1119.835938 429.601563 1105 423.410156 1101 409 C 1104.355469 409.765625 1107.558594 410.699219 1111 411 C 1100.902344 400.039063 1090.785156 390 1078 382 L 1078 381 C 1085.648438 381.160156 1092.789063 383.65625 1100 386 C 1089.25 370.75 1066.945313 359.09375 1050 352 L 1050 351 C 1060.917969 351 1071.242188 353.609375 1082 355 C 1074.664063 341 1055.550781 334 1041 330 C 1047.554688 322.574219 1059.5 327 1068 328 C 1057 317.046875 1044.453125 315 1032 307 C 1039 303.328125 1046.296875 304 1054 304 C 1043 291.542969 1027.921875 292.820313 1013 294 C 1019.65625 284.769531 1028.628906 285 1039 285 C 1026 274 1015.765625 280.710938 1001 282 C 1004.792969 273.320313 1012 267.230469 1018 260 C 1005.375 261.109375 996.765625 271.605469 985 275 C 988.902344 263.535156 996.703125 259.605469 1004 251 C 991.96875 254.414063 984.714844 262.472656 974 268 C 978.527344 248.441406 991.53125 242.351563 1010 249.230469 C 1026.265625 255.285156 1039.863281 266.484375 1055 274.691406 C 1075.816406 286 1097.949219 294.492188 1120 303 M 525 294 L 524 294 C 514.324219 281.410156 499.304688 277.003906 484 277 L 484 278 C 494.183594 282.753906 505.652344 287.402344 509 299 C 494.648438 295.074219 482.242188 286.246094 467 285 C 475.492188 292.238281 489 295.65625 493 307 C 477.675781 304.738281 465.882813 298.746094 450 300 C 457.964844 307.191406 468.277344 308.34375 472 320 C 461 316.484375 449.578125 314.03125 438 314 L 438 315 C 440 316 442 316.757813 444 317.757813 C 462 327 436.597656 327.390625 430 334 C 437 334.304688 445.199219 335 452 337 L 452 338 C 439.816406 338.101563 425.75 342.335938 415 348 C 423 350.585938 431.5 351 440 351 L 440 352 C 430.976563 353.351563 422.765625 358.464844 415 363 C 421.691406 364.59375 429 365.457031 436 366 L 436 367 C 429.234375 367.550781 422.394531 369.621094 416 372 C 414.695313 372.316406 410 373.347656 410 375.230469 C 410 379.261719 426 379.773438 429 380 L 429 381 C 416.503906 383 401.945313 388.769531 391 395 C 399.664063 397.746094 407.992188 398 417 398 L 417 399 C 407.238281 404.5625 398.699219 413.355469 391.617188 422 C 387.234375 427.347656 382.40625 435 393 433 L 393 434 C 386.523438 438.285156 376.925781 445.285156 374.28125 453 C 373.269531 456 375.746094 458.019531 374.382813 461.054688 C 371.621094 467.207031 366.332031 472.347656 362.699219 478 C 359.285156 483.304688 351.71875 494.359375 362 496 C 353 512 344 528.753906 334 544 L 333 544 C 334.332031 538.40625 334 532.71875 334 527 C 329.949219 531.636719 329.171875 539.269531 326.9375 545 C 323.3125 554.296875 317.835938 562.789063 314 572 L 313 572 L 313 542 L 312 542 C 307.710938 554.683594 302 566.683594 297 579 L 296 579 C 296.226563 568.113281 298.273438 556.53125 301 546 C 296.660156 551 296 559.011719 293.21875 565 C 287.433594 577.339844 279.746094 588.695313 274 601 L 273 601 C 275 590.152344 277.523438 579.0625 278 568 L 276 568 C 274.769531 583.074219 265.414063 604.070313 253 613 C 258.8125 598.023438 264.636719 583.492188 269 568 C 261.664063 576.316406 259.824219 587.058594 250 594 C 254.933594 579.417969 261.296875 566.019531 265 551 C 261.234375 553.648438 258.195313 557.042969 254 559 C 258.167969 544.207031 262 529.429688 262 514 L 261 514 C 258.515625 520 255 525.316406 252 531 L 251 531 C 251 512.808594 247 495.148438 247 477 L 245 477 L 244 506 L 243 506 C 237.296875 491.296875 234.757813 478.722656 236 463 L 235 463 C 232.785156 471 231 478.804688 231 487 L 230 487 C 222.902344 474.394531 221.773438 459.046875 220 445 L 219 445 C 216.917969 456.058594 217 466.785156 217 478 L 216 478 C 212.875 454.804688 205.71875 434 206 410 C 206 398.742188 208 385.644531 219 380 C 208.339844 374.648438 198.921875 378.394531 188 380 C 193.53125 369.339844 205.675781 363.445313 216 358.246094 C 241.6875 345.3125 268.253906 339 297 339 C 291.945313 346.023438 283.816406 348.121094 278 354 C 290.894531 348 305.441406 338.664063 320 338 C 310.238281 354.164063 289.394531 366.605469 276 380 C 293.191406 369.246094 307.242188 348 329 346 C 322.410156 361.269531 308 371 300 385 C 312 373 325 359.671875 341 353 C 339.289063 362.589844 331.683594 369.777344 327 378 C 335.738281 369.261719 345.390625 356 358 353 C 355 363.082031 349.402344 370.6875 345 380 L 346 380 C 350 372 356.855469 362.230469 365 358 C 362.4375 377.015625 349.96875 390.425781 340 406 C 329.839844 422.046875 321.851563 440.34375 318 459 L 319 459 C 323.292969 445.804688 329.347656 430.382813 341 422 C 334.996094 440.421875 324.980469 457.007813 318 475 C 327.296875 464.703125 328.953125 449.664063 341 441 C 336.542969 460.25 325.332031 477.40625 319 496 L 320 496 C 324.367188 485.511719 330.601563 476 336 466 C 337 464.386719 341 455.628906 343.9375 458.753906 C 346.515625 461.53125 342.304688 470 341.425781 473 C 337 487.691406 331.527344 501.75 326 516 L 327 516 C 338.597656 488.144531 352.183594 457.535156 368.230469 432 C 374 422.558594 382.863281 415.273438 389 406 C 379.949219 408.144531 371.792969 413.027344 363 416 C 369.476563 404.378906 379.253906 394.785156 387 384 C 380.976563 387.355469 375.6875 392.03125 369 394 C 376.484375 382.683594 387.496094 374.496094 397 365 L 379 369 C 387.453125 358.621094 402.195313 356 412 347 C 403.285156 347.6875 394.765625 348 386 348 L 386 347 C 401.558594 338.8125 420.601563 330.761719 431 316 C 414.191406 323 393.382813 329.375 375 325 C 380.234375 321.085938 387.890625 320 394 317.574219 C 408.703125 312.03125 423.6875 306.632813 438 300.136719 C 452.398438 293.597656 457.382813 279.054688 470 271 C 489.414063 258.527344 520.460938 272.304688 525 294 M 544 293 L 543 294 L 544 293 M 972 297 L 971 298 L 972 297 M 1208 356 L 1209 357 L 1208 356 M 1205 371 C 1205.546875 372.636719 1205.363281 372.453125 1207 373 C 1206.230469 371.6875 1206.3125 371.769531 1205 371 M 275 380 C 274 381.480469 274 381.203125 274 383 C 275.289063 381.558594 275.402344 381.765625 275 380 M 343 381 C 342 382.480469 342 382.203125 342 384 C 343.765625 383.019531 343.957031 382.777344 343 381 M 623 400 C 642.542969 420 660 449.699219 662.828125 478 C 664 490.105469 656.816406 503.746094 660 515 C 669.882813 502.746094 672.445313 482 677 467 C 679.175781 460.011719 683 451.796875 683 444.425781 C 683 439.0625 679.898438 434.222656 679 429 L 680 429 C 686 439 694 448.078125 698.546875 459 C 703.929688 472.316406 706.660156 492.03125 701.492188 505.828125 C 693.507813 527.136719 677.261719 544.703125 669 566 L 668 566 C 672.773438 545.183594 686.238281 527.371094 689 506 C 675.636719 519.652344 672.375 538 663 554 L 662 554 C 661.773438 543.472656 661.644531 534.671875 663 524 C 653.644531 532.644531 650.945313 549.015625 644.664063 560 C 643 562.683594 636.824219 569.09375 638.421875 572.453125 C 639.554688 575 643.746094 571.707031 645 571 C 641.925781 578.136719 637.171875 584.46875 635 592 C 628.648438 593.796875 625.957031 602 620 605 C 620 583.058594 634 563.269531 627 541 C 622.492188 549.550781 620.390625 558.824219 615 567 L 614 567 C 618 551 617.277344 537.175781 616 521 L 614 521 C 613.429688 534.277344 608 546.804688 607 560 L 606 560 C 606 542.554688 603.222656 513.191406 589 501 C 594.234375 523 594 548.496094 594 571 L 593 571 C 583 556 577 538.578125 568 523 C 567.320313 533.667969 572 544.074219 575.332031 554 C 576.335938 557.015625 579.230469 562.609375 576.382813 565.378906 C 572.644531 569.011719 568.1875 562.660156 566.4375 560 C 558.289063 547.589844 551 535.160156 539 526 C 543.191406 536.058594 550.96875 544.476563 554 555 L 553 555 C 542.464844 540.789063 530 531.777344 515 523 C 521.242188 536.140625 534.535156 546 539 560 C 526.527344 556.773438 513.542969 557.386719 501 554.574219 C 493.1875 552.824219 486.519531 548.558594 479 546 C 487.570313 560 498.21875 560.070313 512 566 L 512 567 C 496.933594 568.191406 483.222656 571 468 569 C 475.691406 576 484.40625 575.21875 494 577 C 487.867188 588.714844 474 583.332031 463 584.089844 C 436.484375 586 419.390625 602.132813 396 611 C 410.386719 590 435.304688 576.015625 459 568 L 459 567 C 434.613281 567.203125 412.296875 577.609375 389 583 L 389 582 C 407.183594 570.675781 421.714844 556.644531 443 550.746094 C 448.976563 549.089844 455.78125 547.707031 462 548.089844 C 464 548.222656 468.410156 549.652344 469.863281 547.382813 C 474.699219 539.824219 457.222656 535.816406 453 536.089844 C 432.785156 537.40625 416.535156 550.6875 398 557 C 409.644531 541.769531 430.636719 530.328125 448 523 C 455 520 465.308594 519 471 514 C 459.484375 513.507813 448.53125 513 437 514.425781 C 434.71875 514.722656 427.542969 516.355469 426.921875 512.726563 C 425.761719 506 445 505.566406 449 505.167969 C 465.496094 503.519531 482.417969 503.179688 498 510 C 505.28125 513 510.902344 518.628906 518 522 C 512.523438 509 501.328125 499.804688 489 493.320313 C 485.769531 491.621094 473.207031 488.722656 473.207031 484.214844 C 473.207031 479.460938 492 483 495 483.433594 C 519 487.480469 536.363281 501.511719 557 513 C 550.648438 485.632813 520.929688 475.40625 498 466 L 498 465 C 515.550781 465 533 464.308594 550 469.746094 C 558.253906 472.394531 565 477.601563 573 481 C 570.683594 468.007813 558.394531 455.324219 548 448 L 548 447 C 568.324219 449.625 583.890625 462.496094 603 468 C 597.890625 460.425781 591.203125 454.386719 586 447 C 601.730469 454.441406 610.410156 470 622 482 C 621.984375 457.085938 605.535156 437.367188 600 414 L 601 414 C 608.449219 423.785156 616.792969 432.722656 623.644531 443 C 628.359375 450.070313 631.742188 459.21875 638 465 C 637.992188 450.726563 634.867188 436.488281 630.332031 423 C 628 416.203125 622.347656 407.183594 623 400 M 834 409 L 833 410 L 834 409 M 218 479 L 217 480 L 218 479 M 795 479 C 794.550781 484.71875 794 490.242188 794 496 L 793 496 C 793 490.332031 792.269531 484.140625 795 479 M 412 491 L 411 492 L 412 491 M 318 496 L 319 497 L 318 496 M 845 566 C 840.671875 552.714844 834.953125 539.816406 829.421875 527 C 828 524 824.472656 514.78125 819.601563 518.222656 C 815.578125 521.066406 819.257813 529.660156 820.605469 533 C 825 544.054688 832.492188 562.488281 845 566 M 1113 521 L 1112 522 L 1113 521 M 697 524 L 696 525 L 697 524 M 696 526 L 695 530 L 694 530 C 694.5625 528.246094 694.917969 527.457031 696 526 M 694 531 C 691.636719 539.640625 687.390625 547.734375 684 556 L 683 556 C 684.429688 548 688.765625 537.316406 694 531 M 934 541 L 933 542 L 934 541 M 919 548 L 918 553 L 917 553 C 917.480469 551.039063 917.9375 549.691406 919 548 M 916.667969 554.667969 C 916.722656 554.722656 916.777344 555.777344 916.332031 555.332031 C 916.277344 555.277344 916.222656 554.222656 916.667969 554.667969 M 555 556 L 554 557 L 555 556 M 916 558 L 915 559 L 916 558 M 646 569 L 645 570 L 646 569 M 592 597 C 576 590.265625 566.742188 577.402344 548 576.089844 C 516.628906 574 497.839844 592 476 610.699219 C 459.25 625.058594 439.886719 636.1875 423 650.4375 C 412.378906 659.402344 403.652344 671.699219 391 678 C 400.757813 650 426.890625 617.5625 452 602.066406 C 462.804688 595.394531 475.21875 591.542969 487 587 C 483.300781 598.589844 472.269531 605 465 614 C 472.695313 608.136719 479.363281 601 487 595.015625 C 513.433594 574.3125 575.761719 550.160156 592 597 M 831.667969 585.667969 C 831.722656 585.722656 831.777344 586.777344 831.332031 586.332031 C 831.277344 586.277344 831.222656 585.222656 831.667969 585.667969 M 775 589 C 766.457031 608.269531 763.542969 631.414063 759.398438 652 C 758.496094 656.488281 753.4375 668.355469 757 672.289063 C 761.914063 677.679688 766.875 658.722656 767 656 L 768 656 L 767 708 L 768 708 C 773.800781 676.746094 791.339844 645 792 613 C 783.265625 620.488281 776.523438 641.726563 775 653 L 774 653 C 775.863281 638.242188 776.390625 623.820313 777 609 C 777.335938 602.25 779 595 775 589 M 1251 589 L 1250 590 L 1251 589 M 725 590 C 722.6875 597.824219 724.613281 606.039063 724.960938 614 C 725.964844 637 729.972656 659.453125 734.195313 682 C 735.710938 690.09375 734.394531 705 742 710 C 742 694.78125 741.910156 680.09375 740 665 L 741 665 C 742.640625 667.683594 744 668.816406 747 670 C 746 650 739.375 631.058594 733.722656 612 C 731.53125 604.621094 731 595.292969 725 590 M 902 593 L 901 594 L 902 593 M 644 594 L 643 595 L 644 594 M 643 596 L 642 599 L 641 599 C 641.683594 597.421875 641.804688 597.222656 643 596 M 951 599.285156 C 957.914063 598.503906 968.457031 606.621094 959.484375 612.566406 C 953.851563 616.300781 943.4375 613.480469 937 614.175781 C 933.339844 614.566406 929.714844 616.496094 926 616.527344 C 919.683594 616.582031 921.757813 605.628906 925.304688 603.140625 C 931.660156 598.671875 943.59375 600.125 951 599.285156 M 537 604.433594 C 544.480469 602.089844 561 602.785156 567.855469 606.574219 C 571.363281 608.53125 574.171875 617.085938 569.484375 619.382813 C 566.96875 620.617188 563.492188 619.082031 561 618.476563 C 553.664063 616.6875 542.804688 619.34375 536.277344 616.394531 C 531.730469 614.335938 532.570313 606 537 604.433594 M 989 606 C 999.171875 632.402344 982.996094 663.648438 953 665.816406 C 940.972656 666.683594 928.707031 660.386719 919 654 C 911.679688 649.179688 885.960938 632.699219 897.429688 621.335938 C 900 618.738281 902.488281 620.210938 903.894531 623.058594 C 911.347656 638.148438 917.773438 649.605469 935 655.25 C 958.324219 663 980.492188 650.203125 987.652344 627 C 989.777344 620.113281 986.738281 612.304688 989 606 M 1119 606 L 1118 607 L 1119 606 M 510 608 C 503.433594 635.589844 528.804688 667.660156 558 659 C 567.847656 656.019531 580.421875 650 586 641 C 588.414063 637.132813 587.492188 631 590.179688 627.617188 C 592.734375 624.554688 599.585938 628.332031 600.839844 631.214844 C 604 638.660156 585 651 580 654.328125 C 564.453125 664.804688 544.652344 672.273438 527 662.121094 C 511.457031 653.179688 492.992188 623.757813 510 608 M 1139 690 L 1138 690 C 1122.984375 664.535156 1104.566406 639.78125 1079 624 C 1096.707031 642.078125 1101.402344 660.492188 1107 684 L 1106 684 C 1094.363281 664.058594 1084.847656 644.789063 1067 629.289063 C 1057.257813 620.828125 1042.246094 617.691406 1034 608 C 1084.667969 608 1129 639 1139 690 M 451 626 C 456.558594 623 461.3125 619.222656 465 614 C 458.996094 616 453.691406 620.246094 451 626 M 708 632 C 708.417969 652.144531 718 676.261719 725.191406 695 C 728 702.828125 729.960938 710.800781 737 716 C 736.941406 694.390625 728.179688 673.558594 719.851563 654 C 716.699219 646.597656 714.253906 637.363281 708 632 M 1023 632 C 1020.4375 642.734375 1019 652.445313 1012.898438 662 C 996.386719 687.25 964.769531 695.71875 938 683 C 943.660156 680.789063 952.6875 684.140625 959 684 C 969.929688 683.71875 980.875 679.605469 990 673.761719 C 999.289063 667.808594 1007.472656 659.441406 1013.175781 650 C 1016.449219 644.574219 1017.664063 635.527344 1023 632 M 475 633 C 491.738281 668.777344 517.886719 688.070313 558 683 L 558 684 C 530.75 694.570313 502.238281 688.507813 484 664 C 478.28125 656.039063 470.722656 643.191406 475 633 M 792 647 C 779.226563 666 774.636719 686.222656 769 708 C 781 702 784.6875 675 789 663 C 790.878906 658.003906 794 652.265625 792 647 M 1024 652 L 1023 653 L 1024 652 M 740 663 L 739 664 L 740 663 M 789 672 C 779.746094 696 768 717.785156 768 744 L 769 744 C 770.378906 726.558594 777.257813 710.195313 783.425781 694 C 785.929688 687.417969 791.96875 679.144531 789 672 M 709 674 C 709.914063 684.476563 716 693.492188 719.988281 703 C 726.863281 719.570313 733.570313 739.023438 735 757 L 737 757 C 737 736 731.675781 715.167969 723 696 C 719.652344 688.175781 716 679.195313 709 674 M 919 678 L 918 679 L 919 678 M 575 681 C 574.453125 682.636719 574.636719 682.453125 573 683 C 573.546875 681.363281 573.363281 681.546875 575 681 M 560 682 L 559 683 L 560 682 M 358 817 L 359 817 C 366.660156 803.527344 368.410156 789.246094 379 777 L 379 863 C 385 859.5 386.710938 850.613281 387 844 L 388 844 C 386.921875 869.148438 389.492188 892 397.328125 916 C 399.886719 924 401 935.679688 409 940 C 408.984375 915.375 402.582031 891.765625 406.425781 867 C 409.628906 846.351563 422 828.011719 425 808 C 416.332031 812.074219 409.585938 824.019531 407 833 L 406 833 C 410.550781 813.335938 423 795 436.289063 780.003906 C 442.933594 772.460938 451.390625 767.257813 456 758 C 428 762.195313 411.632813 793.566406 394 812 C 394 785.746094 395.890625 759.035156 411.746094 737 C 418.804688 727.191406 427.855469 718.699219 437 711 C 439.792969 708.480469 447.363281 704.515625 447.363281 700.308594 C 447.363281 695.261719 430.253906 703 428 704 C 410.296875 711.6875 396.484375 726.515625 383 740 C 388.457031 729.746094 394.945313 720 402.4375 711 C 407.257813 705.289063 413.527344 700.695313 417 694 C 403.328125 696.050781 391 707 380 714.566406 C 375 718 369.613281 720.382813 366.921875 726.003906 C 362.691406 734.820313 363.855469 746.46875 362.835938 756 C 360.648438 776.394531 358 796.457031 358 817 M 541 704 L 540 705 L 541 704 M 618 707 C 626 712.617188 638 713.441406 647 718.425781 C 658.734375 725.015625 668.734375 737.257813 681 742 C 677 720.097656 638.84375 701 618 707 M 953 706 L 952 707 L 953 706 M 824 743 C 834.175781 740 841.246094 730.703125 850 725.089844 C 860.980469 718.046875 873.929688 714.65625 886 710 C 880.425781 706.191406 872 709 866 710.375 C 849 714.570313 829.246094 725.175781 824 743 M 517 824 C 526.320313 819.234375 536.320313 798.40625 541 789 L 542 789 C 540.28125 796.433594 537 803.398438 536 811 C 547.523438 803.601563 554.398438 780.480469 562 769 C 582.585938 738 606.328125 729 642 729 C 631.507813 720.535156 612.316406 722.507813 600 725.003906 C 554.871094 734.148438 528.550781 783.300781 517 824 M 856 729 L 856 731 C 867.402344 731 878.9375 730.125 890 733.441406 C 927 744.53125 934 783 951 812 L 952 812 C 951.824219 803.511719 949.289063 795.128906 947 787 L 948 787 C 951.957031 795 957.636719 802.050781 961.742188 810 C 964.472656 815.289063 966.894531 822.664063 972 826 C 971.226563 788.746094 939.464844 740.378906 904 728.75 C 886.851563 723.125 873 726.695313 856 729 M 544 821 C 553.3125 816.621094 560 803.15625 564 794 L 565 794 C 551.835938 825.621094 526.6875 848.347656 503 872 C 491.480469 883.5 480.308594 897.625 467 907 C 472.679688 894.191406 477.867188 882.34375 486.375 871 C 492.527344 862.796875 502.6875 854.765625 506 845 C 473.433594 852.734375 452 894.667969 452 926 L 451 926 C 451 899.644531 454.890625 877 470.746094 855 C 477.535156 845.605469 488.6875 839.242188 494 829 C 485.578125 830.503906 478.667969 836.613281 472 841.628906 C 442.675781 863.664063 435 891.09375 435 926 L 434 926 C 433.667969 918.261719 431.203125 910.746094 431 903 C 430.539063 883.539063 436.953125 864 448 848 C 454.992188 838.007813 465.613281 831.207031 472 821 C 421.253906 832.746094 408.753906 890.753906 415.273438 935 C 416.570313 943.816406 418.402344 952.574219 421.34375 961 C 423 966.195313 426.527344 971.296875 425.46875 977 C 422.714844 991.816406 411.941406 1007.175781 401.910156 1018 C 395.535156 1025 385.257813 1031.507813 383 1041 C 391.527344 1040 400.507813 1037.261719 408 1033 C 403.675781 1050.546875 399.347656 1067 388.792969 1082 C 383.195313 1090 373.714844 1096 369 1104 C 381.738281 1102.277344 393 1093.765625 402 1085 C 402 1122.722656 400 1160.410156 400 1198 C 406.777344 1195.789063 411.8125 1193 417 1188 C 415.640625 1205.082031 406.464844 1219.253906 396.976563 1233 C 393.914063 1237.433594 384.1875 1246.734375 385.816406 1252.722656 C 386.957031 1257 393.867188 1255.667969 396.996094 1256.394531 C 399.964844 1257.082031 402.996094 1260.488281 406 1260 C 411.34375 1259.046875 424.75 1244.078125 423.171875 1238.332031 C 421.742188 1233.128906 406.976563 1241 404 1242 C 413.523438 1232.476563 423.523438 1222.8125 428.535156 1210 C 433.300781 1197.820313 430.851563 1183 431 1170 C 431.175781 1155.632813 434 1141.414063 434 1127 C 425.824219 1130.167969 419.4375 1138.710938 417 1147 L 416 1147 C 416 1122 416.199219 1097.003906 417.910156 1072 C 418.429688 1064.421875 415.507813 1051.027344 422.375 1045.464844 C 428.679688 1040.363281 428.289063 1061 433.914063 1053.664063 C 438.800781 1047.410156 437.515625 1034.570313 439.375 1027 C 443.421875 1010.523438 449.996094 994.730469 458.425781 980 C 484.214844 935 527.605469 903 576 885.691406 C 590.78125 880.4375 606.261719 879.367188 621 875 L 621 874 C 567 874 514.335938 896 476 934 C 482.234375 921 495.167969 910.191406 506 901 C 540 871.566406 582.90625 854 628 854 L 628 852 L 574 851 L 574 850 C 589.984375 842.769531 606.550781 838.21875 624 836 L 624 835 C 598.46875 826.355469 566 839.332031 547 856 C 552.296875 845.367188 563 839.394531 573 833.71875 C 598.558594 819.179688 626.171875 817.066406 653 807 C 641.269531 799 616.226563 804.328125 603 806 L 603 805 C 611 802.675781 624.246094 798.695313 631 794 C 624.84375 791 619.648438 791.160156 613 792 L 613 791 C 629.597656 783.148438 644 774.503906 663 773 L 663 772 C 638.472656 764.816406 610.269531 783 593 798 C 596 790.605469 599.957031 783.429688 604.761719 777 C 626.5 748 659.765625 752.515625 691 755 C 677.746094 737.164063 646 743.730469 628 748.574219 C 619.269531 751 613.984375 743.796875 605 746.4375 C 576.464844 754.828125 548.378906 791.753906 544 821 M 807 756 L 807 757 C 818 755.507813 827.578125 751.539063 839 752.039063 C 868.699219 753.34375 894.265625 773 901 802 L 900 802 C 892.519531 782.695313 856.71875 767.171875 837 773 C 843.433594 777.46875 853.636719 778.167969 861 781.4375 C 869.617188 785.265625 876.5 792.21875 885 796 L 885 797 L 875 795 C 876.640625 800.722656 881.847656 803.5625 887 806 L 887 807 C 869.613281 807 852.445313 804 835 804 L 835 805 C 864.984375 814.523438 907 819 927 847 C 910.3125 834.273438 891 834 871 834 L 871 836 C 876 836.398438 881 837.386719 886 838.25 C 889.355469 838.832031 892.730469 839.472656 896 840.4375 C 897.695313 841 899.363281 841.542969 901 842.207031 C 920.492188 850.128906 883 854.570313 876 855 C 872.394531 855.167969 869.292969 855 867 858 C 905.398438 863 951.546875 869 981 897 C 955.914063 891.820313 930.847656 883.53125 905 883 L 905 885 C 924.554688 886.597656 945 899.710938 961 910.332031 C 1015.632813 946.753906 1051.519531 1010.5625 1061 1075 L 1063 1075 C 1063 1061 1061 1046.765625 1057.765625 1033 C 1056 1026 1052.589844 1019.277344 1052 1012 C 1050.925781 995 1058 976.519531 1058 959 L 1059 959 C 1059.1875 968.074219 1061.601563 977.070313 1063 986 C 1063.261719 987.097656 1063.734375 994.691406 1065.714844 994.078125 C 1068.203125 993.3125 1066.996094 984.007813 1067 982 C 1067 969.054688 1067.933594 957 1066 944 C 1061.207031 908.59375 1047.269531 874.042969 1026.421875 845 C 1018.21875 833.570313 1007 819.140625 993 815 C 999.355469 830.261719 1009.515625 844.070313 1016.742188 859 C 1029.445313 885.257813 1038 914.695313 1038 944 L 1037 944 C 1036 924 1023 901.171875 1013.425781 884 C 1009.550781 877.125 1006.492188 868.570313 999 865 C 1008.683594 890.105469 1022.53125 915.574219 1028 942 L 1027 942 C 1018 918.417969 1002 892 983 875.289063 C 963.398438 858.234375 932.238281 841.289063 928 813 L 929 813 C 930.726563 819 934 823.433594 939 827 C 937.980469 803.625 925.207031 773.132813 907.910156 757.300781 C 899 749.230469 879 745.351563 888 763 C 865.839844 741 833.433594 740.574219 807 756 M 617 754 C 613.765625 758.589844 609.863281 762.1875 605 765 C 608.234375 760.410156 612 756.8125 617 754 M 889 763 L 893 768 C 890.910156 766.445313 889.597656 765.511719 889 763 M 380 776 L 379 777 L 380 776 M 543 788 L 542 789 L 543 788 M 566 792 L 565 793 L 566 792 M 902 802 L 901 803 L 902 802 M 928 810 L 928 813 L 927 813 C 927.25 811.550781 927.316406 811.246094 928 810 M 406 834 L 405 835 L 406 834 M 929 849 C 927.363281 848.453125 927.546875 848.636719 927 847 C 928.636719 847.546875 928.453125 847.363281 929 849 M 710 852 C 712.914063 856.445313 718.691406 857.261719 723 860.109375 C 730.449219 865.03125 733.84375 872.40625 735 881 C 721.363281 869.378906 685.261719 858 673 878 C 692.546875 877.160156 708 878.695313 723 893 C 705.691406 888.523438 677.414063 883.179688 665 900 C 684.769531 898.4375 705.421875 894 722 908 L 671 907 C 676.460938 918.164063 694.191406 918.632813 705 920 L 705 921 C 678.484375 921 662 909.222656 638 901 C 641.507813 909.28125 650.917969 916.402344 659 920 L 659 921 C 638.367188 923.609375 619.265625 930.453125 602 942.195313 C 594.8125 947.082031 587.601563 951.8125 584 960 C 602.382813 957 620.203125 945.46875 638 939.671875 C 639.867188 939.0625 657.203125 933.546875 654.792969 939.832031 C 653.378906 943.515625 645.234375 944.261719 642 945.4375 C 632.355469 949 613.726563 954.386719 609 964 C 618.585938 962.019531 628.691406 960 638 957 C 613.960938 984.699219 572.558594 999 537 992 L 537 991 C 556.695313 988.101563 573.953125 977.453125 591 968 L 591 967 C 574.765625 970 560.335938 981.234375 544 985.117188 C 541.925781 985.609375 529.554688 987.46875 531.347656 991.378906 C 533 995.105469 546.324219 996.070313 550 996.800781 C 570.804688 1001 591 995.105469 612 996 L 612 997 C 603.960938 999.5625 597.601563 1005.433594 594 1013 C 598.195313 1011.789063 611.484375 1003 615.289063 1006.777344 C 617.742188 1009.246094 613.59375 1013.242188 612 1015 C 606.253906 1022.03125 599.402344 1029.667969 598 1039 C 601 1037.003906 619.753906 1020.175781 622.652344 1028.429688 C 624 1032.53125 611.589844 1040.34375 609 1043 C 597.949219 1054.5625 591 1069.164063 589 1085 C 595.898438 1081.710938 599.386719 1073.640625 604.289063 1068 C 611.925781 1059.21875 620.554688 1052.101563 631 1047 L 622 1075 C 631.707031 1073.242188 639.816406 1064.273438 647 1058 C 653.238281 1079.65625 675 1098.523438 696 1105.253906 C 703.5 1107.660156 722.804688 1106.003906 727.398438 1112.148438 C 732.890625 1119.496094 724.527344 1129.316406 722 1136 L 721 1136 C 720.824219 1132 718.535156 1115.207031 712.855469 1115.207031 C 709.179688 1115.207031 704 1125.441406 701.824219 1128 C 692.867188 1138.035156 682.867188 1146.617188 670 1151 L 670 1150 C 681.957031 1143.796875 695 1125 691 1111 C 679.75 1125.46875 671.414063 1137.730469 653 1144 L 653 1143 C 667.644531 1135.402344 674.328125 1117.664063 675 1102 C 665 1106.613281 657.4375 1118.066406 648 1124.332031 C 627 1138.214844 604 1149 581 1158.574219 C 573.242188 1161.828125 565.195313 1164.535156 557 1166.425781 C 553.570313 1167.214844 549.234375 1168.039063 548.359375 1172.054688 C 547.316406 1176.828125 550.519531 1183.519531 552 1188 C 556.972656 1203.050781 563.3125 1218.78125 576 1229 C 582.492188 1234.1875 591 1236.164063 596.90625 1242.042969 C 606.960938 1252.3125 612 1265.058594 624 1274.101563 C 631.496094 1279.804688 653.402344 1296.175781 663 1290 C 667.300781 1295 672.460938 1298.832031 679 1300 C 668.890625 1278.726563 646.695313 1264.523438 635 1244 C 649.886719 1258.578125 669 1267.535156 684 1282.015625 C 695 1292.746094 704.542969 1310.449219 720 1315 C 719.328125 1311.234375 715.464844 1306 716.707031 1302.164063 C 719.226563 1294.582031 728.207031 1306.289063 729.507813 1309 C 733.238281 1316.785156 733 1324.589844 733 1333 C 742.890625 1328.808594 749 1317.535156 754.972656 1309 C 762 1298.59375 769 1288.144531 772.972656 1276 C 779.875 1254.191406 777 1231.339844 777 1209 L 776 1209 C 768.34375 1232.53125 758.742188 1254.386719 749 1277 L 748 1277 C 746.339844 1256.695313 741.613281 1236.445313 740 1216 C 720.957031 1231 721.40625 1264.382813 728 1285 C 708.863281 1265 706 1244.558594 713 1219 C 699.773438 1226 697 1243.425781 697 1257 L 696 1257 C 694.339844 1246 687.386719 1236.324219 686.175781 1225 C 685.335938 1217.164063 687.996094 1211.324219 690 1204 C 679 1205.640625 674.808594 1214.761719 674 1225 C 672.742188 1244.238281 682.949219 1258.742188 693 1274 C 674 1258.632813 653 1235.199219 654 1209 C 654.28125 1202 658.480469 1196.640625 660 1190 C 636.910156 1196.695313 639.542969 1218.550781 642 1238 L 641 1238 C 635.980469 1217 613.675781 1187 637 1168.527344 C 640.921875 1165.4375 645.4375 1163.816406 650 1162 C 649.640625 1165 646.605469 1180.792969 651.839844 1180.792969 C 654.554688 1180.792969 656.851563 1174 658.390625 1172.09375 C 662.519531 1167.261719 668.414063 1165.488281 674 1163 C 672 1172.078125 667.292969 1184.722656 678 1190 C 678.617188 1176.554688 689.273438 1167.058594 701 1162 C 698.238281 1172.675781 696.277344 1188.363281 706 1196 C 709.667969 1183.078125 716.1875 1174.015625 727 1166 C 725.691406 1176.34375 724 1190.242188 731 1199 C 733 1195.484375 738.476563 1179.277344 744.316406 1182.035156 C 748.449219 1184 748.230469 1190.421875 752 1193 L 753 1177 C 762.390625 1182.140625 767.632813 1190.632813 776 1196 C 776 1186.144531 774.910156 1175.722656 770 1167 C 793.753906 1175.035156 807.277344 1189.425781 802 1215 C 822.816406 1203.582031 807.734375 1174 800 1160 C 815.722656 1166.546875 822.628906 1177.613281 833 1190 C 835.785156 1179 829.488281 1167.617188 825 1158 C 836.890625 1166 848.917969 1172.605469 851 1188 C 859.382813 1183.152344 855.371094 1171.285156 853 1164 C 883.488281 1182.078125 867 1235.230469 853.691406 1260 C 849.820313 1267.203125 844.621094 1273.722656 841 1281 L 840 1281 C 848.351563 1261 855.261719 1245.207031 854.996094 1223 C 854.960938 1220.089844 851.386719 1199.054688 845 1204.136719 C 842.945313 1205.796875 844.4375 1210.78125 844.429688 1213 C 844.394531 1219.761719 842 1226.777344 839.550781 1233 C 831.601563 1253.039063 819.195313 1270.796875 804 1286 C 814.21875 1266.582031 821 1248.117188 822 1226 C 812 1231.3125 808.820313 1247.65625 803.6875 1257 C 794.75 1273.261719 781.460938 1290.121094 767.960938 1302.828125 C 764 1306.476563 745.828125 1317.777344 748.710938 1324.355469 C 749.636719 1326.460938 753.472656 1325 755 1324.625 C 761.785156 1323 768.46875 1321.039063 775 1318.574219 C 798 1310 829.59375 1293.664063 837 1268 L 838 1268 C 834.277344 1281 824.960938 1293 816.410156 1303 C 811.609375 1308.691406 804.78125 1313.503906 803 1321 C 811 1317.488281 816 1311 823 1305.761719 C 829.554688 1301 836.949219 1297.511719 843 1292 C 863.316406 1273.089844 875.890625 1247.109375 883.972656 1221 C 887.453125 1209.765625 891.835938 1196 890.824219 1184 C 890.339844 1178.261719 886.347656 1169 892.226563 1164.757813 C 897.808594 1160.753906 903 1168 903.605469 1173 C 904.714844 1185 899.859375 1198.769531 896.339844 1210 C 883 1252.128906 852.917969 1281.429688 832 1319 C 844 1315.488281 854.230469 1303.660156 863 1295 C 877.324219 1281 891.5625 1266.714844 904.195313 1251 C 910.835938 1242.742188 915.429688 1232.453125 923 1225.054688 C 931.769531 1216.566406 948.21875 1217.269531 959 1211 C 949.308594 1224.761719 928 1229.546875 920 1243 C 942.335938 1238.378906 960.847656 1221.519531 973.328125 1203 C 1000.46875 1162.734375 1005 1108.703125 983.246094 1065 C 975.371094 1049.210938 964 1024.789063 946 1019 C 954 1036.246094 967.71875 1049.496094 974.308594 1068 C 990.953125 1114.730469 977.90625 1187.691406 927 1209 C 958.539063 1170.136719 975.824219 1108.320313 935.996094 1068 C 929.765625 1061.695313 923.484375 1055.109375 915 1052 C 919.3125 1066.65625 931.832031 1078.105469 936.921875 1093 C 944.808594 1116.082031 942 1139.273438 942 1163 L 941 1163 C 940.5625 1142 923.902344 1113.417969 905 1104 C 907.644531 1112.359375 913 1120 916.574219 1128 C 923.355469 1144 925 1160.074219 922 1177 L 921 1177 C 920.925781 1149.507813 899.289063 1126.261719 881 1108 C 872.53125 1099.546875 862.761719 1090.386719 851 1087 C 861.410156 1101.734375 877.945313 1112 888.847656 1127 C 890.410156 1129.152344 900.574219 1143.640625 891.941406 1143.167969 C 884.585938 1142.765625 878.972656 1130.144531 875.253906 1125 C 866 1112.398438 854 1097.503906 839 1092 C 841.8125 1098.035156 847.429688 1102.179688 851.910156 1107 C 854.847656 1110.160156 857.488281 1113.585938 860 1117 C 861.417969 1118.6875 871.355469 1130 866.578125 1131.539063 C 863.34375 1132.664063 859 1127.074219 857 1125.289063 C 848.804688 1118.207031 839 1113.113281 831 1105.828125 C 828.515625 1103.554688 824.355469 1097 820.3125 1098 C 815.285156 1099 819.738281 1110.339844 820.878906 1113 C 826 1125 837.367188 1136.355469 850 1140 L 850 1141 C 837.871094 1138.195313 827.449219 1132.628906 818 1124.5625 C 813.425781 1120.652344 810.308594 1115 805 1112 C 810.585938 1125.421875 818 1136.441406 829 1146 C 809.589844 1140.40625 801.675781 1120.777344 785 1113 C 784.644531 1121.261719 784.347656 1128.722656 785 1137 C 780.464844 1132.371094 776 1127.433594 772.546875 1122 C 770.851563 1119.414063 769.195313 1114.625 765.859375 1113.753906 C 758.503906 1111.824219 758 1131 758 1135 L 757 1135 C 755.597656 1127.144531 746.179688 1116.769531 752.433594 1109.109375 C 758.273438 1102 773.613281 1105.1875 782 1104 C 795.703125 1102.054688 807.429688 1095 816.910156 1085 C 821.394531 1080.289063 829.449219 1064.535156 836 1063.628906 C 839.289063 1063.175781 842.738281 1067.359375 845 1069.246094 C 850.464844 1073.804688 856 1078.8125 863 1081 C 860.371094 1071.390625 855.773438 1062.203125 852 1053 C 863.546875 1058.488281 872.671875 1069.039063 880.347656 1079 C 884.4375 1084.304688 888 1091.773438 894 1095 C 890.300781 1075.367188 881.800781 1058.03125 866.960938 1044.175781 C 865.199219 1042.527344 852 1034.035156 856.464844 1031.136719 C 859.582031 1029.074219 864.777344 1034 867 1035.652344 C 875.496094 1042.121094 883.519531 1050 894 1053 C 889.761719 1043 879.257813 1035 871 1028.261719 C 868.550781 1026.269531 860.929688 1022.179688 861.632813 1018.316406 C 862.453125 1013.78125 870.257813 1018.566406 872 1019.617188 C 882.390625 1026 891.300781 1033.1875 903 1037 C 896.949219 1022.710938 878 1013.265625 867 1003 C 879.675781 1006.597656 890.785156 1013.261719 903 1018 C 897.785156 1006.820313 877.859375 994.542969 867 989 L 867 988 C 890.171875 992.796875 910.226563 997 934 996.011719 C 937.648438 996 954.792969 995 954.792969 989.300781 C 954.792969 986.425781 941.351563 985 939 984.289063 C 921.558594 979.355469 906 969 889 964 C 900.324219 978.667969 930.839844 989.625 949 990 L 949 991 C 939.648438 991.078125 930.410156 992.730469 921 991.828125 C 891.9375 989.054688 863.371094 974.628906 842 955 C 852.257813 957 862.503906 960.78125 873 961 C 868 954.710938 860.957031 953 854 949.691406 C 845 945.601563 836.464844 939.726563 827 937 L 827 936 C 836.828125 937.25 850.460938 941.628906 858 933 C 843.507813 933 831.765625 928.757813 818 925 L 818 924 C 830.519531 921 843.269531 910.761719 850 900 C 840.488281 901.695313 831.78125 908.257813 823 912.136719 C 808.253906 918.65625 793.699219 920.589844 778 917 L 778 916 C 790.214844 918.269531 810.761719 916.761719 817 904 C 800.765625 904 785 907.667969 769 908 C 781.625 896.667969 799.917969 896.042969 816 894 C 812.96875 888.757813 805.644531 888.144531 800 888.015625 C 785.691406 887.6875 772.730469 894.15625 759 897 C 765 891 771.375 885.480469 779 881.492188 C 784.601563 878.5625 791.867188 878 795 872 C 783.632813 874.707031 772.328125 874.167969 761 878.21875 C 758 879.238281 751.574219 883.175781 748.601563 881.644531 C 745.582031 880.085938 747 872.492188 747.800781 870 C 751 859.253906 761.992188 854.820313 771 850 C 759.484375 845.179688 751 857.53125 741 859 C 736.464844 859.59375 732 855.179688 728 853.761719 C 722 851.734375 716 852 710 852 M 547 856 L 546 857 L 547 856 M 759 897 L 758 898 L 759 897 M 982 897 L 981 898 L 982 897 M 442 1076 C 446.460938 1073.300781 447.335938 1067.769531 448.710938 1063 C 452 1051.265625 459.796875 1039.027344 461 1027 L 462 1027 C 461.988281 1044.054688 458.433594 1061 458 1078 C 457.234375 1110 462.503906 1141.433594 471.289063 1172 C 474.402344 1182.828125 478 1193.523438 482.203125 1204 C 483.851563 1208.164063 485.21875 1213.421875 489 1216 C 488.882813 1202 484 1188.132813 484 1174 C 487 1176.816406 489.941406 1178.796875 494 1180 C 491.945313 1171.355469 485.242188 1163.03125 484.777344 1154.089844 C 482.523438 1110.730469 497.765625 1067.179688 509 1026 C 500.835938 1030.148438 496.632813 1042.117188 492.757813 1050 C 477.914063 1080.1875 479.332031 1107.683594 480 1140 C 472.308594 1130.464844 472 1114.824219 472 1103 C 471.996094 1070 483.59375 1036.074219 504 1010 C 513.277344 998.171875 528.726563 988.695313 535 975 C 514 982.128906 483.339844 1005.035156 477 1027 L 476 1027 C 483.3125 996.148438 510.335938 962.222656 532 940 C 541.839844 930 560 918.582031 566 906 C 511 924 462 971 446.429688 1027 C 442 1042.636719 442 1060 442 1076 M 723 908 L 722 909 L 723 908 M 928 910 C 938.566406 928.277344 958.378906 942.691406 971 960 C 1003.597656 1004.144531 1030 1062.238281 1030 1118 L 1029 1118 C 1028.914063 1086.828125 1015.546875 1051.15625 996.191406 1027 C 987.910156 1016.664063 977.257813 1006.148438 964 1003 C 971.769531 1019.621094 984.691406 1033.359375 992.742188 1050 C 1010.355469 1086.40625 1013.664063 1132.304688 998.394531 1170 C 993.703125 1181.578125 987.476563 1193.316406 979.535156 1203 C 974.34375 1209.328125 967 1214.195313 964 1222 C 977.828125 1218.21875 994.535156 1207.558594 1003 1196 C 1008 1189.113281 1010 1178.644531 1017 1173.335938 C 1028.527344 1164.601563 1018.207031 1191.386719 1024 1188.824219 C 1034.371094 1184.371094 1039.855469 1161.773438 1042.371094 1152 C 1049.292969 1125.109375 1049.539063 1097.1875 1043.996094 1070 C 1041.503906 1057.765625 1036.527344 1046.210938 1034 1034 L 1035 1034 C 1038.875 1043.164063 1045.917969 1052.289063 1051 1061 C 1052.824219 1056.320313 1049.960938 1051.398438 1048.199219 1047 C 1043.871094 1036.175781 1039.460938 1025.429688 1034.246094 1015 C 1017.601563 981.707031 996.378906 951.3125 966 929.152344 C 954.761719 921 942 912 928 910 M 476 934 C 475.453125 935.636719 475.636719 935.453125 474 936 C 474.546875 934.363281 474.363281 934.546875 476 934 M 754 1031 C 747.925781 1038 745.34375 1050.363281 742.34375 1059 C 740.925781 1063.089844 740 1068.425781 735.890625 1070.683594 C 730.28125 1073.738281 722.941406 1071.234375 717 1071.042969 C 703.871094 1070.625 685.496094 1077 675.183594 1066 C 671.972656 1062.53125 663 1053.414063 664.710938 1048.226563 C 666.691406 1042.039063 681.453125 1046.398438 686 1046.828125 C 705.773438 1048.710938 725.488281 1039.824219 721.675781 1017 C 719.351563 1003.105469 705.863281 990.347656 692 988.300781 C 686.335938 987.464844 668.667969 991.1875 667.425781 983 C 666.714844 978.207031 671.625 975 675 972.695313 C 684.996094 966.105469 696.324219 959.3125 707 954 L 707 953 C 695.347656 953 678.296875 954.207031 668 948 C 698.8125 931.765625 741.378906 942.613281 772 953 C 764.792969 943.664063 752.53125 941 742 937 C 758.433594 930 794 935.808594 807.894531 946.789063 C 814.519531 952.03125 818.230469 970 814.398438 977.683594 C 812.886719 980.75 808.683594 980 806 979.335938 C 798.230469 977.796875 789.976563 975.40625 782 975.472656 C 766.835938 975.59375 760.515625 1000.027344 761 1012 C 761.769531 1028.628906 778.453125 1038.597656 793 1042.101563 C 798.417969 1043.40625 813.8125 1042.289063 812.546875 1051.003906 C 809.832031 1069.714844 781 1067 768 1067 C 762.65625 1067 754.6875 1068.394531 750.433594 1064.347656 C 744.332031 1058.542969 753 1038.507813 754 1031 M 1029 942 L 1028 943 L 1029 942 M 884 960 C 885 962 886 962.738281 888 964 C 886.839844 962.019531 885.949219 961.261719 884 960 M 867 987 L 866 988 L 867 987 M 561 1255 C 557.617188 1245.078125 550.808594 1236.820313 544 1229 C 553 1232.757813 561.253906 1238.058594 571 1240 C 572.886719 1240.261719 580.792969 1242.296875 580.792969 1238.582031 C 580.792969 1235.042969 574.390625 1232.128906 572 1230.335938 C 564.175781 1224.453125 557.351563 1217.679688 551.285156 1210 C 545.746094 1203 540.984375 1195.148438 537.3125 1187 C 535.316406 1182.570313 534.550781 1176.789063 530.773438 1173.429688 C 520.316406 1164.128906 500.195313 1179.726563 500 1158 C 509.582031 1163.011719 520.6875 1161.832031 531 1160.425781 C 550.4375 1157.769531 567.996094 1152.777344 586 1145 C 594.5625 1141.300781 606.78125 1137 611 1128 C 588.921875 1129.804688 569.265625 1144.226563 547 1146 L 547 1145 C 558.910156 1142.273438 574.734375 1130.507813 577 1118 C 571 1120 556.40625 1134.179688 550.601563 1131.582031 C 546.21875 1129.617188 550.53125 1117.136719 551.425781 1114 C 556.433594 1096.460938 569 1082.253906 574 1065 C 556.855469 1073.109375 544.785156 1091.53125 538.695313 1109 C 536.933594 1114.054688 535.605469 1134.726563 530.835938 1136.792969 C 526.980469 1138.464844 527.972656 1118.523438 528 1116 C 528.246094 1095.445313 537.488281 1074.566406 543 1055 C 532.878906 1059.757813 525.492188 1075.507813 523 1086 L 522 1086 C 522.519531 1061 539 1041.367188 544 1018 C 538 1020.808594 534.570313 1026.796875 530.859375 1032 C 521.308594 1045.390625 513.734375 1060.472656 508.34375 1076 C 488 1134.429688 487.277344 1235.582031 561 1255 M 476 1028 L 475 1029 L 476 1028 M 852 1052 L 851 1053 L 852 1052 M 522 1086 L 522 1089 L 521 1089 C 521.25 1087.546875 521.316406 1087.246094 522 1086 M 1095 1102 L 1094 1103 L 1095 1102 M 1031 1118 L 1031 1127 L 1030 1127 C 1030 1124 1029.785156 1121 1031 1118 M 786 1137 L 785 1138 L 786 1137 M 652 1144.332031 C 652.773438 1144.332031 652 1144.832031 651.667969 1144.667969 L 652 1144.332031 M 546 1146.332031 C 546.773438 1146.332031 546 1146.832031 545.667969 1146.667969 L 546 1146.332031 M 833 1147 L 833 1148 L 829 1147 C 830.660156 1146.59375 831.242188 1146.691406 833 1147 M 484 1148 L 484 1151 L 483 1151 C 483.25 1149.546875 483.316406 1149.246094 484 1148 M 669 1151 L 668 1152 L 669 1151 M 626 1158 C 621.929688 1172.132813 614.632813 1184 613.171875 1199 C 609.222656 1239.773438 645.519531 1258.222656 662 1290 C 630 1272.234375 604.183594 1236.511719 604 1199 C 603.925781 1183.253906 607.296875 1161.335938 626 1158 M 800 1159 L 799 1160 L 800 1159 M 728 1165 L 727 1166 L 728 1165 M 484 1173 L 483 1174 L 484 1173 M 571 1190 C 574.847656 1204.070313 585 1215.28125 589 1229 C 579.984375 1223 562.226563 1201.582031 571 1190 M 1108 1204 L 1107 1205 L 1108 1204 M 522 1207 L 521 1208 L 522 1207 M 523 1209 C 529.996094 1225.214844 544.214844 1236.6875 554 1251 C 544.246094 1244 535.367188 1232 528.671875 1222 C 526.175781 1218.292969 522.230469 1213.625 523 1209 M 927 1209 L 926 1210 L 927 1209 M 630 1236 C 628.363281 1235.453125 628.546875 1235.636719 628 1234 C 629.636719 1234.546875 629.453125 1234.363281 630 1236 M 631 1237 C 632.597656 1239.304688 633.925781 1241.417969 635 1244 L 634 1244 C 632.480469 1241.667969 631 1239.773438 631 1237 M 642.667969 1239.667969 C 642.722656 1239.722656 642.777344 1240.777344 642.332031 1240.332031 C 642.277344 1240.277344 642.222656 1239.222656 642.667969 1239.667969 M 404 1242 L 403 1243 L 404 1242 M 840.667969 1260.667969 C 840.722656 1260.722656 840.777344 1261.777344 840.332031 1261.332031 C 840.277344 1261.277344 840.222656 1260.222656 840.667969 1260.667969 M 840 1263 L 839 1268 L 838 1268 C 838.480469 1266.039063 838.9375 1264.691406 840 1263 M 694 1274 L 693 1275 L 694 1274 M 840 1281 L 839 1282 L 840 1281 M 839 1283 L 838 1284 L 839 1283 M 804 1286 C 803.316406 1287.578125 803.195313 1287.777344 802 1289 C 802.691406 1287.609375 802.984375 1287.140625 804 1286 "/>
</g>
</svg>
