<?xml version="1.0" encoding="UTF-8"?>
<svg xmlns="http://www.w3.org/2000/svg" xmlns:xlink="http://www.w3.org/1999/xlink" width="1500pt" height="1500pt" viewBox="0 0 1500 1500" version="1.1">
<g id="surface1">
<path style=" stroke:none;fill-rule:nonzero;fill:rgb(0%,0%,0%);fill-opacity:1;" d="M 778 82 C 768.433594 91.539063 755 97.015625 746.214844 107.039063 C 741.992188 111.796875 740.246094 122.003906 733.90625 124.382813 C 725.40625 127.570313 708.203125 121.71875 699 121.089844 C 674.800781 119.433594 650.894531 121.132813 627 125.609375 C 563.652344 137.480469 502.171875 161.769531 449 198.347656 C 440.464844 204.21875 432 211.597656 425.925781 220 C 421.675781 225.828125 419.644531 234.144531 412.984375 238 C 406.847656 241.289063 397.839844 240.320313 391 241.609375 C 379.417969 243.796875 368.707031 247.757813 358 252.585938 C 335.613281 262.6875 314.8125 279.648438 298.714844 298 C 295.699219 301.4375 282.292969 313.019531 286 318.394531 C 289 322.640625 296.328125 316.757813 299 315.003906 C 310 307.679688 323.339844 299.597656 337 299 C 303.640625 332.378906 295.914063 374.203125 274.207031 414 C 263.628906 433.390625 240 440.191406 227.4375 458 C 209.167969 484 203.394531 516.636719 184 542 C 174.675781 554.390625 162 564.222656 148 570.691406 C 131.3125 578.335938 107.484375 582.203125 107 605 C 117.238281 602.050781 126.453125 596.441406 137 594 C 127 608.695313 120 624.128906 114.808594 641 C 113.792969 644.246094 108.671875 657 115 657.824219 C 120.582031 658.535156 128.429688 643.644531 132 640 C 132 653 132 666.464844 128.84375 679 C 125 693.054688 117.859375 705.460938 115.589844 720 C 114.953125 724.089844 113.386719 745.167969 120.945313 744.078125 C 126.820313 743.230469 127.621094 729.246094 130 725 C 136 714.691406 146.757813 711.03125 158 711 L 158 712 C 130 722.800781 125.207031 763.585938 116.304688 788 C 114.375 793.292969 102.574219 807.648438 105.285156 812.566406 C 108.316406 818.070313 118.851563 813.347656 123 812 C 119.851563 825.738281 115 840.246094 109 853 C 107.171875 857.09375 100 864 101.710938 868.769531 C 103 873.234375 109.914063 870.796875 113 870 C 112.25 878.542969 107.296875 886.328125 102 893 C 99.855469 896 94.605469 899.679688 95.738281 904 C 97 909.085938 104.992188 908 109 908 C 98.75 923.542969 100 939.320313 106.800781 956 C 108.289063 959.714844 114 975.628906 120.394531 971 C 124.863281 967.683594 118.5625 959.210938 116.96875 956 C 111.507813 945 107.828125 931.683594 113.328125 920 C 122.554688 900.394531 146.78125 894.792969 158.300781 877 C 170.183594 858.644531 167.65625 835.605469 171.613281 815 C 173.921875 803 181.203125 792.773438 184 781 C 165 786.605469 159.597656 814.277344 156.199219 831 C 149.632813 863.300781 141 893 106 902 C 115.90625 889.109375 117.570313 875.085938 124.261719 861 C 129.566406 850 138.816406 838.25 141 826 C 131.835938 831.296875 123.234375 842 120 852 L 119 852 C 128.765625 809.804688 152.4375 770 190 748 L 190 747 C 171.945313 747.148438 157 757.296875 147.355469 772 C 139 784.3125 132.867188 801.1875 117 805 C 133.703125 783.09375 134 753.160156 150.898438 731 C 155.410156 725.066406 160.738281 720.417969 166.996094 716.425781 C 169.628906 714.742188 173.730469 712.707031 173.453125 709 C 173 703.25 165.316406 702.441406 161 702 C 148.375 700.515625 138.429688 704 128 711 C 131.425781 699.011719 138.335938 688.457031 140.535156 676 C 142.90625 662.582031 139.277344 649.105469 144.628906 636 C 149 625 158.492188 617 165 607 C 151.214844 608.382813 138.578125 619.832031 129 629 C 138.914063 594.0625 174.214844 585 195.535156 559 C 215.347656 535 222.886719 504 237.863281 477 C 249.328125 456.449219 270.699219 446 283 427 C 289.886719 416.496094 292 403.816406 295.71875 392 C 299.980469 378 305.644531 364.203125 312.246094 351 C 320.175781 335.144531 330 320.355469 343 308.039063 C 346.519531 304.667969 357.464844 298.105469 356 292.226563 C 355 288.558594 349.824219 289.015625 347 289 C 337.289063 289 328.453125 291.050781 319 293 C 339.203125 273 365.230469 258.28125 393 252 C 401.695313 250 411 248.386719 420 248.039063 C 424.574219 248 429.769531 249.53125 433.957031 247.058594 C 439.644531 243.699219 441 236 445.214844 231 C 453.324219 221.429688 463.53125 213.515625 474 206.695313 C 519.410156 177.109375 571 157.207031 624 145.789063 C 643.644531 141.550781 664.777344 136.253906 685 137.039063 C 701.523438 137.683594 714.417969 144.300781 730 148 C 728.261719 142.550781 724.546875 138.402344 721 134 C 736.359375 134.128906 741.539063 151.28125 758 152 C 756 149.203125 750.609375 145 751 141.226563 C 751.753906 135.042969 774.171875 134.382813 779 134 C 775.734375 138.546875 772.253906 143 770 148 C 782.386719 145.058594 793 138.429688 806 137.171875 C 835.308594 134.332031 865 141.792969 893 149.574219 C 941.167969 163 987.773438 181.398438 1030 208.433594 C 1039.210938 214.332031 1048.6875 221.53125 1055.671875 230 C 1059.640625 234.8125 1061.46875 243.640625 1067 246.683594 C 1075.9375 251.449219 1092.839844 248.695313 1103 250.609375 C 1130.59375 255.816406 1162.660156 270.246094 1180 293 C 1170.644531 291 1162.699219 289 1153 289 C 1150 289.003906 1143.933594 288.28125 1142.972656 292.226563 C 1141.550781 298.046875 1152.53125 304.632813 1156 308.015625 C 1168.550781 320.257813 1178.910156 334.316406 1186.753906 350 C 1198.601563 373.699219 1201.769531 402.527344 1215.257813 425 C 1220.632813 434 1229.519531 439.132813 1237 446.089844 C 1246.671875 455.085938 1254.707031 465.472656 1261 477 C 1276.246094 504.078125 1284.402344 534.421875 1304 559 C 1323.492188 583.441406 1362 595 1370 628 C 1359.554688 620.046875 1349.523438 609.328125 1336 607 C 1340.769531 618.277344 1351.324219 626.023438 1355.25 638 C 1359.460938 651 1356.589844 664 1358.289063 677 C 1359.882813 689.234375 1366.347656 699.824219 1371 711 C 1360.296875 704 1349.839844 701 1337 702.171875 C 1333.179688 702.554688 1324.90625 703.578125 1325.464844 709.039063 C 1325.945313 713.730469 1331.65625 716 1335 718.21875 C 1341 722.441406 1346.171875 728.035156 1350.511719 734 C 1365.953125 755.242188 1367.589844 783.148438 1382 805 C 1365.824219 798.21875 1360 782.125 1350.238281 769 C 1340.308594 755.710938 1325.734375 747.046875 1309 747 L 1309 748 C 1346.804688 766 1375.429688 812.660156 1381 854 L 1380 854 C 1376.824219 843 1367.867188 831.703125 1358 826 C 1359.871094 838.488281 1369 849 1374.628906 860 C 1381.472656 873.683594 1383.167969 889.574219 1394 901 C 1352.207031 899.179688 1347.742188 847.214844 1339 817 C 1335.550781 804.386719 1328.683594 784 1314 781 C 1318.539063 792 1324.4375 802.242188 1326.574219 814 C 1330.203125 834 1328.9375 855.691406 1338.902344 874 C 1350 894.398438 1376.847656 900.25 1386 922 C 1390.753906 933 1387.960938 944.675781 1383 955 C 1381.429688 958.578125 1374.984375 966.449219 1378.78125 970.378906 C 1384.789063 976.589844 1391.859375 957.4375 1393.1875 954 C 1399.308594 938.191406 1399.480469 922.507813 1390 908 C 1394 908 1401.714844 909 1403.339844 904 C 1404.699219 899.667969 1399.761719 896 1397.515625 893 C 1391.96875 886 1388.488281 877.601563 1386 869 C 1388.898438 870.222656 1396 873 1397 868 C 1398 863 1391.351563 856.292969 1389.4375 852 C 1383.691406 839.09375 1380.289063 825.410156 1376 812 C 1380.582031 813.050781 1390.777344 818 1393.714844 811.773438 C 1396.179688 806.644531 1384.671875 792.558594 1382.691406 787 C 1372.324219 758 1366.234375 732.171875 1342 711 C 1353.714844 711.03125 1363.90625 715.257813 1369.675781 726 C 1371.445313 729.296875 1374 744.363281 1378.171875 744.363281 C 1385.605469 744.363281 1383.253906 722.675781 1382.910156 718 C 1381.964844 705.085938 1373.871094 694.207031 1370.429688 682 C 1366.511719 668.125 1367 653.273438 1367 639 C 1370.789063 643 1378.464844 658.132813 1383.929688 658.132813 C 1391.390625 658.132813 1386 644.347656 1385 641 C 1379.40625 624.050781 1374.667969 607.246094 1362 594 C 1373 595 1382.617188 601.617188 1393 605 C 1391.984375 583 1368.4375 578.222656 1352 570.691406 C 1337.269531 564 1324.644531 553.738281 1314.667969 541 C 1294.746094 515.5625 1288.734375 482.355469 1270.277344 456 C 1257 437.277344 1233.554688 429.585938 1222.3125 409 C 1211.453125 389.113281 1206.394531 366.441406 1196.679688 346 C 1188.441406 328.664063 1176.210938 312.804688 1163 299 C 1176.699219 299.625 1189.789063 308.527344 1201 315.691406 C 1203.679688 317.402344 1211.332031 323.433594 1213.34375 318 C 1216.289063 309.625 1196 294.007813 1191 289 C 1172.226563 270.316406 1148.503906 253.101563 1123 245.027344 C 1111.675781 241.445313 1099 242.691406 1088 238.4375 C 1076.625 234.074219 1072.417969 220.488281 1064.699219 212.089844 C 1054.300781 200.773438 1040 192.71875 1027 185.011719 C 943 135.710938 849.816406 109.222656 753 128 C 761.738281 119 783.96875 96.257813 778 82 M 650 250 C 644.339844 225.609375 612.6875 231.578125 605 209 C 600.503906 195.292969 608.628906 181.378906 618 172.003906 C 640.242188 149.765625 674 148.828125 703 155.652344 C 713 158.027344 722.820313 164.105469 733 165 C 726 155.480469 714.757813 153.300781 704 150.628906 C 675.386719 143.515625 641.371094 146 618 165.617188 C 602.289063 178.828125 590.675781 207.636719 607.324219 224.699219 C 614.964844 232.527344 626 232.742188 635 238.074219 C 640.601563 241.40625 644 247.222656 650 250 M 768 165 C 777.371094 163.0625 785.753906 158.457031 795 156.234375 C 818.222656 150.65625 844.742188 147.4375 867 158.257813 C 883 166.09375 895.800781 182.277344 892.675781 201 C 889.609375 219.355469 871.34375 224.015625 859 234.519531 C 853.761719 239.089844 849.632813 247.605469 854 254 C 856.203125 249.824219 857.21875 244.78125 860.394531 241.183594 C 866 234.726563 875.1875 233.09375 882 228.210938 C 897.210938 217.3125 901.53125 198.078125 895.304688 181 C 882 145 834.390625 144.546875 803 149.589844 C 791.449219 151.445313 773.59375 153.113281 768 165 M 989 221 C 994.199219 229 1010 233.746094 1018 239.195313 C 1037.9375 252.773438 1056.515625 270.71875 1064.65625 294 C 1069.765625 308.621094 1069.183594 322 1069 337 C 1068.859375 349.175781 1070 362 1068.714844 374 C 1066.921875 389.003906 1062 403.183594 1059.425781 418 C 1053.472656 451.003906 1050.824219 484.066406 1044 517 C 1030.554688 582 1050.261719 648 1035.347656 713 C 1029 740.230469 1020 766.382813 1006.691406 791 C 995.386719 812 980.847656 831.683594 972.425781 854 C 963.507813 877.628906 962.992188 907 961 932 L 960 932 C 961.828125 908.820313 954.875 881 963.464844 859 C 975.777344 827.496094 1004.464844 800.679688 1006 765 L 1007 765 C 1007.304688 770.523438 1010.8125 773 1011.8125 766 C 1013 757.472656 1014.320313 748.582031 1015 740 L 1016 740 C 1015.789063 742.679688 1015.273438 745.320313 1015 748 C 1014.996094 749.363281 1014.375 760.222656 1017.574219 758.652344 C 1023.648438 755.679688 1021.695313 736.5 1019 732 L 1018 736 L 1017 736 C 1019.316406 707.640625 1030.980469 681.03125 1031 652 L 1029 652 C 1028 674.171875 1019.628906 697.375 1009.753906 717 C 1004.308594 727.820313 996.367188 738.304688 993 750 L 992 750 C 995.996094 736.132813 1004.9375 724.570313 1007.535156 710 C 1011.167969 689.632813 1003.664063 671.796875 1001 652 L 999 652 C 1000.390625 669.636719 1003.667969 687.347656 1000.714844 705 C 997.867188 722.019531 988.417969 737 982.691406 753 C 976.429688 770.574219 973.804688 789.128906 968.574219 807 C 964.535156 820.816406 958 834 955 848 C 949 875.5625 957 906.824219 957 935 C 932.527344 913.617188 934 885.027344 934 855 C 950.5625 865.761719 940.691406 840.363281 938.34375 833 C 934.476563 821 933.9375 807.492188 928.191406 796 C 922.300781 784.222656 911.863281 775.609375 905.785156 764 C 902.207031 757.167969 898 747 900.316406 739.0625 C 903.816406 726.585938 914 756.679688 917.398438 750.621094 C 920 745.566406 915 736.710938 913.320313 732 C 907.257813 715.625 897.492188 691.519531 878 688 C 880.628906 693.394531 886 697.042969 889.5625 702 C 895 709.738281 898.597656 718.222656 902 727 C 897.964844 725.320313 894.398438 723.449219 890 723 C 893.195313 737 891.230469 752.621094 896.464844 766 C 901.671875 779.308594 913 788.5625 919.675781 801 C 926 813.027344 928.933594 829.742188 932 843 L 931 843 C 926.347656 833.207031 918.460938 822.46875 909 817 C 909.6875 832.011719 922.808594 840.421875 925.535156 854 C 929.695313 874.691406 923 896.804688 930 917 C 932.949219 925.640625 938.753906 931.59375 944.996094 938 C 947.863281 941 951 944 948.367188 948 C 938.507813 963.347656 916.46875 968.757813 900 963.652344 C 866 953.140625 838.433594 928.726563 804 918.027344 C 787 912.753906 755.757813 906.460938 749.914063 887 C 748 881 744.761719 871 748.742188 865.105469 C 753 859 762.609375 858.546875 769 855.6875 C 782.425781 849.683594 795.472656 842.503906 807 833.335938 C 817.488281 825 827.703125 813.207031 831.242188 800 C 833.222656 792.613281 831.519531 784 834.652344 777 C 836.960938 772 842 768.671875 845 764 C 850.507813 755.492188 850.808594 743.78125 849.828125 734 C 843.367188 669.367188 768.308594 662 717 666.828125 C 693.976563 669.019531 673.730469 671.085938 656 688.039063 C 636.773438 706.421875 625.777344 732.628906 633.722656 759 C 635 763.367188 636.84375 767.460938 640.183594 770.675781 C 642.253906 772.664063 646.792969 774.707031 646.792969 778.039063 C 646.792969 783.058594 638.328125 788.253906 635 791.285156 C 626.414063 799.238281 619.496094 809.199219 615 820 C 629.222656 813.367188 638.292969 793.1875 649 782 C 651.820313 796.542969 656.8125 810.027344 665.761719 822 C 669 826.378906 678.558594 832.652344 676.46875 839 C 673.480469 848.082031 660.789063 851.640625 653 855 C 635.777344 862 613.453125 873.734375 613 895 L 614 895 C 627 874.300781 650.714844 874.503906 667.984375 859.675781 C 672 856.097656 676.460938 841.671875 681.214844 840.730469 C 685.796875 839.824219 696.398438 847.757813 701 849.601563 C 710.230469 853.296875 726.972656 856.554688 733.566406 864.214844 C 739.351563 871 734.863281 886.167969 731 893 C 719.289063 914.402344 691.679688 918.085938 671 926.203125 C 663.8125 929.023438 656.753906 932.09375 650 936 C 623.308594 950.753906 586.375 983.316406 558 954 C 554.433594 950.265625 550.488281 945.808594 548.386719 941 C 545.410156 934.179688 559.984375 923.605469 562.277344 916 C 566.976563 900.429688 566.464844 884 569.460938 868 C 571.808594 855.558594 577.558594 844.125 581 832 C 578.582031 833.085938 577 834.242188 575 836 L 576 832 C 569.277344 834 564.664063 839.128906 559 843 C 561.914063 830.410156 563.820313 815.5 569.890625 804 C 576.277344 792 587 782.328125 591.226563 769 C 598.242188 746.238281 589 725.636719 611 709 L 611 708 C 599.804688 709 592.511719 717.488281 585 725 C 589 714.300781 594.578125 705 604 698 C 609.257813 694.054688 618.378906 692.308594 622 687 C 597.433594 691.628906 582.476563 705 575 729 C 573.664063 733.398438 568.355469 747.699219 572.601563 751.289063 C 577.558594 755.484375 582 743.046875 583 740 L 584 740 C 584 749 585 758.417969 581.910156 767 C 577.820313 778.363281 568.425781 786.601563 562.664063 797 C 558.503906 804.515625 557.628906 812.714844 556 821 C 554.65625 827.828125 552.941406 834.675781 549.945313 841 C 549 842.703125 547.320313 846.769531 544.773438 845.792969 C 541 844.390625 539.347656 836.183594 537.679688 833 C 530.964844 820.191406 524.835938 807 520.859375 793 C 516.847656 779 513.824219 764.398438 507.691406 751 C 499.871094 734 488 718.734375 481.695313 701 C 475.914063 685.125 477.351563 667.808594 472 652 L 471 652 C 470.640625 669.371094 468 687 472.746094 704 C 477.886719 722.558594 490.671875 737.832031 496.921875 756 C 503.589844 775.375 505.339844 796.03125 513.425781 815 C 521 833.046875 537.4375 850.5625 540.558594 870 C 542.359375 881.210938 537.230469 892 537 903 L 536 903 C 536 889 536.542969 874.492188 531.921875 861 C 519.421875 824.511719 489.652344 796.734375 477.746094 760 C 462.3125 712.386719 460.414063 661.613281 461 612 C 461.277344 589 463.5 566.207031 461.910156 543 C 460 517.273438 452.484375 492.171875 447.449219 467 C 442.933594 444.421875 440.519531 421.507813 435.574219 399 C 423.828125 345.515625 419 289.066406 466 250.464844 C 478.785156 240 493.988281 230.019531 509 223 L 509 222 C 497 222.007813 487.214844 227.730469 477 233.578125 C 453 247.285156 423.597656 272.242188 421 302 L 420 302 C 420.625 287.457031 427 274.695313 431 261 C 423 266.632813 418.707031 275 415.4375 284 C 413.710938 288.753906 413.453125 295 409.722656 298.722656 C 404 304.394531 392 304 385 307.796875 C 371.175781 315.214844 362.839844 330 357 344 C 367.871094 339 373.949219 326 383 318.214844 C 390.585938 311.785156 400.683594 309.644531 410 307 L 409 339 C 404.546875 336.558594 400.195313 333.695313 395 333.199219 C 369.871094 330.800781 365.285156 375.0625 362 392 C 372.589844 386.148438 377.34375 364 384.761719 354 C 388.429688 349.113281 394.515625 343 400.984375 347 C 408.632813 351.453125 406.417969 358.207031 401.671875 364 C 381.59375 388.5 372.996094 415.582031 361.808594 445 C 350 475.695313 336.71875 506 326.332031 537 C 321.753906 550.738281 321.875 567.285156 315.742188 580 C 302 608.320313 278.875 627.277344 260.476563 652 C 246.90625 670.238281 239.582031 691.421875 222 706.710938 C 209.847656 717.28125 194.425781 721.597656 182 731 C 200.566406 732.65625 228 715.660156 239.53125 702 C 245.90625 694.320313 247.804688 684.09375 256 678 C 277.785156 661.523438 298.183594 640.117188 309.691406 615 C 318.601563 595.554688 321.835938 574 329.425781 554 C 337.582031 532.554688 348.390625 512.140625 359.308594 492 C 374.183594 464.5625 391.316406 437.75 401.332031 408 C 404.679688 398.058594 408.78125 387.59375 409 377 L 410 377 C 409.988281 391.550781 406.851563 405.648438 405 420 C 409.503906 417 410.648438 410.070313 411.871094 405 C 415.273438 391 414.640625 376.070313 418 362 L 419 362 C 419 379.378906 425 396.816406 419.964844 414 C 414.539063 432.277344 401.84375 446.78125 392.425781 463 C 380.613281 483.339844 372 505.695313 368.425781 529 C 360.210938 582 373.855469 634.074219 382.566406 686 C 385.453125 703.21875 386.300781 720.707031 388.574219 738 C 392.171875 765.300781 382.347656 794.277344 377.921875 821 C 376.886719 827.234375 375.59375 833.691406 375.183594 840 C 375 841.550781 375 846.796875 378 845.652344 C 382.203125 844.019531 382.863281 833.757813 384 830 C 389 813.652344 394 797.300781 399.34375 781 C 406.273438 759.285156 411.484375 737 409.910156 714 C 406.832031 669.070313 386.324219 630.203125 413 588 C 418.347656 579.640625 424 572.015625 431 565 C 425.363281 595 413 624.164063 417.289063 655 C 421.921875 689.398438 442.320313 719 456 750 C 469.738281 780.535156 477 813.191406 487 845 C 493 864.660156 503.605469 885 507.722656 905 C 509 911.488281 504.605469 916.160156 502.546875 922 C 500.398438 928.089844 500.464844 935.644531 501.289063 942 C 505 970.636719 525.683594 991.394531 520 1022 L 519 1022 C 517.964844 1012 510.40625 1002.273438 502 997 C 503.277344 1013.039063 506.390625 1027.449219 494.789063 1041 C 488.199219 1048.699219 478.859375 1053.222656 472.46875 1061.003906 C 459 1077.289063 456 1098 440 1113 C 426.363281 1125.59375 408.894531 1130 394 1140.441406 C 379.875 1150.359375 367.636719 1168.648438 360 1184 L 359 1184 C 355.578125 1169.628906 363.394531 1158 364 1144 C 350.679688 1147.644531 340.5625 1156.441406 331 1166 C 338.667969 1147.679688 356.222656 1137.578125 368.699219 1123 C 384.6875 1104.320313 392 1078.230469 392 1054 C 378 1061.570313 371.566406 1086.371094 365 1100 C 352.390625 1127 328.835938 1144.011719 321.375 1174 C 318.714844 1184.691406 312.644531 1209.496094 324 1217 C 324 1193.347656 330.734375 1172 351 1158 C 348.425781 1169.257813 345.234375 1181.65625 352.648438 1192 C 358.28125 1199.832031 374 1205.40625 380 1195 C 356.320313 1194.429688 382.167969 1166.789063 389 1160.003906 C 395.511719 1153.539063 402.953125 1147 412 1144.488281 C 433.804688 1138.527344 454.421875 1146.222656 474 1132 C 471.308594 1136.722656 467.902344 1141 464.410156 1145 C 452.246094 1159.441406 412.597656 1191.554688 438 1211.074219 C 440.785156 1213.179688 443.828125 1214.671875 447 1216 C 445.371094 1209 439.1875 1202.71875 440.34375 1195 C 441.691406 1186 450.46875 1179.101563 457 1173.589844 C 469.992188 1162.621094 483.613281 1152 494.699219 1139 C 511.246094 1119.59375 524.601563 1089.769531 533.574219 1066 C 542.757813 1041.671875 543.53125 1014.074219 536.84375 989 C 531.195313 967.820313 521 950.410156 521 928 L 522 928 C 524.542969 935.472656 528.394531 942.398438 532.695313 949 C 539.234375 959.039063 548 969.210938 559 974.621094 C 567.621094 979 577.671875 978.261719 587 979.171875 C 596.371094 980.078125 605.558594 982.5625 615 983 C 624.980469 983.382813 634.929688 981.265625 645 982.09375 C 655 983 661.917969 992.097656 672 993 C 682.210938 993.726563 691.613281 988.585938 702 989.039063 C 720.460938 990 738.398438 994.441406 757 994 C 771.4375 993.632813 785.527344 989 800 989 C 809.957031 989 819 993.710938 829 993 C 840.464844 992 849.652344 983.261719 861 981.441406 C 878.308594 978.660156 896.511719 982 914 980 C 934 977.402344 952.558594 969.210938 965.332031 953 C 967.308594 950.492188 976 933.75 979.484375 935.347656 C 982.808594 937 978.851563 944.003906 978 946 C 973.578125 956.347656 968 966.070313 965 977 C 953.816406 1018.414063 964.734375 1066.144531 980.601563 1105 C 988.484375 1124.296875 1001.480469 1142 1017 1155.824219 C 1029.632813 1167.101563 1059.8125 1177.785156 1059.8125 1198 C 1059.8125 1204.375 1055 1209.324219 1053 1215 C 1067.492188 1211.523438 1074 1197.179688 1066.816406 1184 C 1054.859375 1162.242188 1027 1151.503906 1021 1126 C 1030.8125 1135.609375 1041.214844 1141 1055 1142 C 1064.921875 1142.585938 1074 1140.164063 1084 1142.761719 C 1094 1145.378906 1101.820313 1152 1109 1159 C 1116 1166.054688 1144 1194 1119 1195 C 1127 1205.039063 1143 1199.128906 1148.324219 1189 C 1153.242188 1179.644531 1150.90625 1167.832031 1149 1158 C 1167.882813 1173.378906 1174.800781 1193.066406 1175 1217 C 1185.984375 1207.550781 1180 1185.207031 1177.347656 1173 C 1171 1145.308594 1148.886719 1127.421875 1136.257813 1103 C 1127.875 1086.789063 1123.664063 1065.066406 1108 1054 C 1108 1078.730469 1115.996094 1105.039063 1132.300781 1124 C 1144.558594 1138.253906 1160.382813 1146.804688 1168 1165 C 1161.683594 1157.769531 1155.191406 1150.621094 1146 1147.070313 C 1144 1146.316406 1138 1143.621094 1136.777344 1146.605469 C 1135.296875 1150.117188 1139 1157.515625 1139.988281 1161 C 1142.191406 1169.03125 1141.644531 1176 1141 1184 L 1140 1184 C 1132.371094 1165.679688 1119.804688 1149.5 1103 1138.699219 C 1087.828125 1129 1070.59375 1124.148438 1057 1111.714844 C 1041 1097.027344 1039.210938 1076.269531 1026.472656 1060.003906 C 1021 1053.167969 1012.996094 1049.359375 1007.175781 1043 C 995.839844 1030.585938 994.242188 1012.789063 998 997 C 987.734375 1000.5 981.46875 1013.714844 981 1024 L 980 1024 C 979.417969 1010.40625 976.761719 998.433594 981 985 C 985.742188 970.164063 997 958.296875 1000.574219 943 C 1001.808594 937.480469 1002 932.265625 999.585938 927 C 996.332031 920.050781 990 916.414063 992 908 C 998.554688 882.410156 1013 858.378906 1020.972656 833 C 1028.972656 807.261719 1030.75 780 1041.425781 755 C 1054.839844 723.644531 1075.40625 695.132813 1081.574219 661 C 1085 641.765625 1084.980469 623 1079.574219 604 C 1074 585 1063.871094 567.269531 1063 547 L 1064 547 C 1065.890625 559.625 1075.585938 570.558594 1082.308594 581 C 1091 594.683594 1098 609.832031 1100.5625 626 C 1105.472656 657.136719 1090.199219 687.199219 1088 718 C 1086.210938 745.429688 1096.980469 773.277344 1104.972656 799 C 1108.507813 810.375 1112.453125 821.621094 1115.972656 833 C 1117.585938 838.210938 1117.914063 844.105469 1123 847 C 1125.21875 829.449219 1119 812.128906 1115.804688 795 C 1111.601563 773.222656 1109.570313 750.171875 1111 728 C 1115.773438 659.597656 1143.9375 595.609375 1131.386719 526 C 1127.640625 505.234375 1120.421875 485.429688 1110 467 C 1099.652344 448.207031 1085.929688 430.769531 1082.285156 409 C 1073.238281 355 1093 293 1048 251.089844 C 1040.363281 244.007813 1031.238281 238.027344 1022 233.257813 C 1011.664063 228 1000.644531 222.570313 989 221 M 465 482 C 464 462.183594 459 442.730469 457.171875 423 C 453.214844 381.613281 455.484375 338.308594 472.863281 300 C 478.417969 287.757813 486.617188 275.589844 496 266 C 502.308594 259.578125 512 254.21875 516 246 C 498.652344 250.746094 484.648438 266.164063 474 280 C 444.699219 318.714844 439.273438 370 443.828125 417 C 445.722656 436.554688 448 469 465 482 M 983 246 C 988.320313 253.53125 996.558594 258.441406 1002.984375 265 C 1012 274.34375 1019.472656 285.53125 1025.691406 297 C 1048.289063 338.6875 1047.628906 389.242188 1042 435 C 1040.25 451 1039 467.453125 1035 483 C 1041 480 1043 473.109375 1045.308594 467 C 1050.515625 452.386719 1053.203125 437.304688 1055.421875 422 C 1062.695313 371.753906 1057.429688 316 1023 276 C 1012.789063 264 998.976563 249.796875 983 246 M 1069 263 C 1072.566406 278.058594 1080.636719 291.605469 1083.539063 307 C 1086.824219 324.417969 1082.523438 341.710938 1084.171875 359 C 1086.304688 381.433594 1093 403.480469 1094 426 L 1096 426 C 1095.996094 417.800781 1095.496094 409.058594 1094 401 L 1095 401 C 1104.628906 442.613281 1134.511719 480.230469 1153.398438 518 C 1159.90625 531.019531 1166.636719 544.058594 1170.972656 558 C 1177.527344 579.0625 1181.515625 601.316406 1191.890625 621 C 1205 646.058594 1223.664063 662.800781 1244.984375 680.378906 C 1251.386719 685.65625 1253 694 1258.214844 700 C 1271.800781 716.03125 1296.523438 730.554688 1318 731 L 1318 730 C 1297.8125 721.71875 1278.460938 710.066406 1264.464844 693 C 1252.757813 678.722656 1245.679688 661.273438 1233.914063 647 C 1213.351563 622.042969 1187.691406 598.394531 1177 567 C 1178.1875 568.1875 1178.585938 568.527344 1180 569 C 1178.984375 545.375 1167.628906 522.574219 1159 501 C 1145.296875 466.730469 1132 432.265625 1118.398438 398 C 1112.492188 383.230469 1100.671875 373 1094.417969 359 C 1091.730469 353.039063 1095.289063 346.457031 1102 345.722656 C 1108 345.0625 1112.335938 350.808594 1115.570313 355 C 1123.839844 365.699219 1126.980469 383.410156 1137 392 C 1134.34375 371.433594 1124.664063 316.425781 1093 338 C 1093 332.449219 1089.542969 313.546875 1093 309.695313 C 1095.804688 306.628906 1105 312 1108 313.269531 C 1122 320.324219 1128.332031 338.59375 1142 344 C 1138 329.753906 1127.683594 314.046875 1114 307.644531 C 1107.238281 304.480469 1097.816406 305.097656 1092.226563 299.722656 C 1081.695313 289.601563 1082.34375 272.425781 1069 263 M 843 280 C 814.921875 289 799.324219 329.082031 799 356 C 798.9375 361.417969 796.378906 386 804 387.078125 C 811 388.101563 811.753906 369.289063 811.960938 365 C 812.886719 346 814.4375 326.207031 823.257813 309 C 828.632813 298.519531 838.367188 290.535156 843 280 M 662 287 C 665.398438 294.144531 671.257813 299.496094 675.640625 306 C 684.183594 318.675781 691.179688 334 693.714844 349 C 696 363.375 686.457031 386.773438 700 397 C 704.378906 362.367188 706.980469 335.347656 683.984375 306 C 678.179688 298.589844 670.96875 290.449219 662 287 M 1181 293 L 1180 294 L 1181 293 M 809 294 C 783.457031 306 777.199219 345.375 779.835938 370 C 780.453125 375.785156 781.292969 398 789 398.824219 C 797 400 795.214844 382.414063 794.910156 378 C 793.734375 360.804688 788.652344 344.15625 793 327 C 796.292969 315.046875 806.703125 305.539063 809 294 M 691 295 C 693.816406 304.570313 701.746094 311.679688 705.292969 321 C 712.363281 339.585938 708.996094 359 706.269531 378 C 705.648438 382.355469 701.910156 399.363281 710 399.363281 C 717.894531 399.363281 718.851563 374.519531 718.984375 369 C 719.605469 343.722656 719.742188 306 691 295 M 338 298 L 337 299 L 338 298 M 1163 298 L 1162 299 L 1163 298 M 717 300 C 720.296875 308 725.363281 314.800781 727.972656 323 C 737.710938 353.609375 735.332031 388.546875 720.21875 417 C 714.214844 428.304688 703 435.332031 697 446 C 739.203125 433.585938 746 372.519531 737 337 C 734 325.191406 728.824219 305.632813 717 300 M 782 300 C 746.785156 337 751.34375 424.351563 803 446 C 798.746094 436.460938 789.355469 429.644531 783.519531 421 C 772.78125 405.089844 767.871094 385.019531 767 366 C 766.40625 351.550781 768.359375 335.707031 773 322 C 775.289063 315.257813 782.582031 307.070313 782 300 M 420 303 L 420 308 L 419 308 C 419 306.035156 419.222656 304.769531 420 303 M 851 367 C 857.945313 361.828125 861 351 864 343 L 865 343 C 864.996094 347.421875 864.554688 351.621094 864 356 C 867.34375 354.097656 868.324219 351.730469 869 348 L 870 348 L 870 354 C 875.644531 350.785156 874.960938 344.328125 877.570313 339 C 880.371094 333.273438 886 329 892 327 C 891.4375 328.800781 891.175781 330.121094 891 332 C 895.980469 328.003906 912.316406 319.09375 914.738281 332.09375 C 915.261719 335 913.625 338.296875 913 341 C 916.175781 339 918.394531 335.734375 921 333 C 921.398438 337.519531 919.6875 341 918 345 C 919.933594 344.050781 923.195313 340.035156 925 340.054688 C 928.734375 340.09375 929.40625 347.609375 929 350 C 928 359.691406 919.691406 367 917 376 C 918.785156 375.484375 928.296875 370.476563 928.824219 373.503906 C 929.421875 377 924.246094 380.382813 922 382.101563 C 914.230469 388.042969 905.234375 392.722656 899.597656 401.003906 C 893.175781 410.445313 889.953125 423.613281 890.257813 435 C 890.4375 441.625 893 448.390625 892.472656 455 C 891.785156 462.445313 887.367188 469.042969 885 476 C 870.242188 450.710938 870.792969 423.140625 872 395 L 870 395 C 868 409.101563 863.355469 422.519531 865.429688 437 C 866.851563 447 870 456.152344 874.78125 465 C 877.230469 469.609375 882.285156 474.628906 882.671875 480 C 883 486.496094 877 492.636719 876 499 L 875 499 C 870.714844 483.339844 860.371094 465.421875 847 456 C 849.238281 467.613281 859.4375 478.144531 865.574219 488 C 871.488281 497.5 873.480469 512 881.328125 519.671875 C 887 525.363281 895.660156 526 903 528.035156 C 923 534 945.6875 540.777344 966 531.6875 C 982.238281 524.421875 994 511.238281 1001 495 C 1002.175781 492.558594 1004.996094 481.46875 1009.449219 484.753906 C 1012.203125 486.777344 1012.347656 493 1012.714844 496 C 1014.992188 515.335938 996.285156 522.453125 991 538 C 995.953125 538.046875 1003.773438 539.011719 1001.808594 546 C 998.742188 557 985.667969 563 978 570.171875 C 973.335938 574.578125 974.484375 579.132813 971.398438 584 C 965.628906 593.085938 953 596.789063 943 597 C 950.347656 609.621094 973.296875 598 978.648438 589 C 982.324219 583 984.738281 577.140625 990 572.039063 C 997.515625 564.761719 1007.304688 559.460938 1010.890625 549 C 1012.457031 544.4375 1012.292969 539.257813 1009.910156 535 C 1008.453125 532.394531 1004.542969 529.410156 1005.921875 526.09375 C 1009.683594 517.046875 1020.921875 516.023438 1021.90625 504 C 1022.953125 491.261719 1017.773438 479.1875 1014.882813 467 C 1011 451.179688 1008.640625 435.078125 1006.273438 419 C 1004.53125 407.1875 1002.703125 394.039063 993.816406 385.183594 C 984.695313 376.097656 970.3125 373.347656 958 372.171875 C 953 371.703125 946.519531 373.34375 942 371 C 929.859375 364.519531 939.363281 351.65625 936 342 C 933.464844 334 926.464844 329 926 320 C 916.550781 322.25 908.285156 318.199219 899 317 C 901 314.722656 902.699219 312.820313 904 310 C 874.515625 313.808594 851 337.386719 851 367 M 597 311 C 598.296875 313.714844 600 315.683594 602 318 C 592.191406 318.800781 583.996094 322 574 320 C 573.519531 328.769531 566 333.179688 563 341 C 559.722656 350.304688 569.214844 364.296875 557.816406 370.820313 C 553.191406 373.464844 546 371.679688 541 372.171875 C 525.949219 373.609375 508.613281 378.109375 500.351563 392 C 489.292969 410.597656 492.992188 433.566406 489.566406 454 C 486.765625 470.691406 478.6875 488 480 505 C 480.746094 513 487.269531 518.394531 488.570313 526 C 489.914063 534 484 541 486.96875 549 C 490.890625 560.011719 501.394531 565 508.816406 573.039063 C 513.707031 578.382813 515 585.765625 520 591 C 531.800781 602.824219 551.902344 599.320313 566 594 C 557 588 543 592.710938 533 587.457031 C 523.855469 582.664063 524.796875 577.21875 535 577 C 531.96875 572.570313 524.664063 571.265625 520 568.6875 C 511.828125 564.175781 503.460938 557.265625 498.90625 549 C 495.796875 543.359375 493.300781 532.179688 503 533 C 501 525.203125 494.269531 520 490.519531 513 C 485.324219 503.417969 487.84375 489.671875 495 482 C 495.597656 510.8125 526.472656 536.367188 554 537.789063 C 567.429688 538.484375 580.453125 532.460938 593 528.722656 C 600.417969 526.511719 609.347656 526.1875 615.996094 522.003906 C 623.898438 517.039063 624.777344 508 628.3125 500 C 634.992188 485.167969 648 472.402344 653 457 C 643.847656 463.449219 638 473.339844 632.863281 483 C 631.492188 485.511719 629.59375 493 625.996094 493 C 620.347656 493 618.992188 480.65625 620.367188 477 C 623.765625 468 630 460.347656 632.960938 451 C 638.84375 431.726563 633.796875 415.015625 631 396 L 629 396 C 629 420.75 636.800781 458.785156 616 478 C 614.777344 470 609.195313 463.210938 608.183594 455 C 606 438.578125 609.585938 421.019531 601 406 C 595.972656 397 588.195313 390.007813 580 383.652344 C 577.167969 381.453125 570.207031 377.472656 570.207031 373.332031 C 570.207031 369.167969 582 374.460938 584 375 C 578.253906 359.324219 565.628906 354.734375 573 337 C 575 340.152344 576.617188 342.339844 580 344 C 579.769531 339.796875 578.621094 337.285156 576 334 C 581.324219 333.832031 582.855469 337.5 587 340 C 582.496094 320.289063 599.546875 327.585938 610 333 L 608 326 C 613.410156 329.207031 618 332.261719 621.175781 338 C 623.925781 343.195313 624.761719 350.828125 630 354 L 630 348 L 631 348 C 631.515625 352 632.566406 354.097656 636 356 L 635 343 L 636 343 C 639.5625 350.632813 643.417969 362.796875 650 368 C 649.761719 339.101563 627.371094 312.324219 597 311 M 819 329 C 815.3125 342.085938 813.171875 355.660156 817 369 C 818 372.601563 820.828125 382.65625 826.550781 380.339844 C 830.308594 378.816406 827 372.402344 826.1875 370 C 822.949219 361.585938 820.277344 353.058594 819.664063 344 C 819.335938 339.117188 821.722656 333.214844 819 329 M 483 423 L 484 423 C 489 402 492.3125 384.011719 513 372.441406 C 522.332031 367.21875 544.324219 366.589844 550 358 C 511.988281 359.632813 474.941406 379.597656 483 423 M 949 359 C 954.175781 366 971 368.019531 979 371.425781 C 1001.191406 381 1013.957031 398.730469 1015 423 C 1020.359375 416.453125 1017.796875 404.503906 1015.558594 397 C 1007.234375 369.066406 975.234375 359.003906 949 359 M 247 533 C 286.636719 510.414063 292.988281 455.402344 308.859375 417 C 312.746094 407.601563 316.59375 398.042969 321.257813 389 C 324 383.554688 328.367188 378.34375 328 372 C 318 380.03125 310.863281 393.015625 304.578125 404 C 289 431.152344 278.96875 461.199219 266.988281 490 C 261.34375 503.570313 249.726563 519 247 533 M 1170 372 C 1172.949219 388.539063 1185.308594 406.003906 1192.753906 421 C 1206 448 1211.75 478 1227 504 C 1233.398438 515 1241.703125 527.335938 1254 532 C 1249.675781 517 1239.65625 503.320313 1233.425781 489 C 1220.550781 459.40625 1209.90625 428.476563 1192.679688 401 C 1186.363281 391 1179.863281 379 1170 372 M 411 373 L 410 374 L 411 373 M 1001 428 L 1000 428 C 990 404.34375 963 390.457031 938 393.71875 C 931.6875 394.539063 923.96875 394.660156 919 399 C 941.855469 393.492188 968.851563 398.3125 986 415.015625 C 989.765625 418.683594 998.273438 425 998.261719 431 C 998.253906 435 991.875 435.25 989 435.75 C 980.648438 437.203125 970.191406 439.089844 964 432 C 971.957031 430.5 979.957031 427.65625 988 427 L 988 425 C 973.398438 427 958.722656 428 944 428 L 944 427 C 954.742188 423.34375 965.605469 417.664063 974 410 C 956.867188 415 943.683594 429 925 429 C 930.308594 420.511719 938.273438 414.132813 944 406 C 928 418.179688 907.714844 434 897 451 C 890.980469 436.652344 897.84375 411 908.183594 400.09375 C 913.511719 394.519531 920.921875 391.8125 926.996094 387.238281 C 931.847656 383.585938 935 376 941 374 C 946.367188 372.261719 953.730469 375.066406 959 376.210938 C 985.238281 382 1000.445313 401.230469 1001 428 M 606 453 L 605 453 C 594.554688 434.261719 569.738281 415.734375 552 404 C 559.214844 412.257813 569.230469 419 574 429 C 559 425.132813 544 420.121094 529 417 C 535 422.527344 545 425.351563 553 427 L 553 428 C 541 427.488281 530.601563 421.5625 519 420 C 524 425.519531 531.378906 427.339844 537 432 C 528 436.453125 520.273438 433.621094 511 432.285156 C 507.824219 431.828125 501.867188 431.804688 503 427 C 504.644531 421.359375 511.722656 416 516 412.464844 C 534.703125 397.132813 557.195313 398 580 398 L 580 396 C 569.679688 396 559.304688 392.652344 549 393.105469 C 525 394.15625 511.601563 410.566406 499 429 C 496.46875 423 499 414 501 408 C 508.203125 387.222656 533.40625 370.652344 556 374.148438 C 562.761719 375.195313 565.792969 383.433594 571 387.210938 C 578 392.355469 586.609375 394.738281 592.960938 401.042969 C 606 414 605.996094 435.789063 606 453 M 352 378 C 302 418.714844 318.539063 490.089844 287.796875 541 C 265.667969 577.644531 216.773438 603.148438 210 649 C 221.628906 642.277344 230.511719 630.269531 241 621.804688 C 267.980469 600.027344 300.296875 581 313.535156 547 C 318.546875 534.1875 319.324219 519.503906 321.269531 506 C 324.175781 486 327.914063 466 332.210938 446 C 335.59375 430.328125 338.53125 413.804688 344.871094 399 C 347.421875 393.046875 354.351563 384.632813 352 378 M 1146 378 C 1149.34375 388.257813 1154.710938 397.710938 1157.972656 408 C 1164.351563 428.125 1168.410156 449.210938 1171.917969 470 C 1176.820313 499.03125 1175.769531 530.539063 1190.3125 557 C 1205.414063 584.484375 1232.785156 602.613281 1257 621.347656 C 1267.226563 629.265625 1277.523438 642.648438 1289 648 C 1281.519531 604.554688 1235.902344 578.539063 1213.699219 544 C 1190.207031 507.457031 1193 460.546875 1177.199219 421 C 1171 406 1161.484375 385.222656 1146 378 M 682 402 C 686.390625 410 690.9375 416.679688 691.675781 426 C 693.511719 449.265625 670.917969 469.226563 655 482.5625 C 645.394531 490.609375 629.675781 497.714844 626.53125 511 C 623.742188 522.789063 633.375 533.105469 638 543 C 634 539.609375 630.277344 536.703125 625 536 C 627.574219 544 631.550781 551.179688 634.300781 559 C 635.621094 562.757813 635.515625 566.75 639 569 C 638.960938 564.265625 636.679688 558 638 553.3125 C 639.183594 549.425781 643.359375 550.238281 642.21875 545 C 640 535.246094 628.921875 522.335938 632.746094 512 C 635.828125 503.671875 647.355469 498.03125 654 492.789063 C 672.671875 478.066406 689.996094 458.222656 694 434 C 696 422.492188 693.730469 407.515625 682 402 M 817 402 C 791.488281 432 817.546875 468.769531 842 489.699219 C 850 496.582031 863 502 867.667969 512 C 872.285156 522 860.210938 535.335938 858.535156 545 C 857.757813 549.496094 861 549.734375 862 553.300781 C 863.476563 558 862 565.085938 862 570 L 863 570 C 867.617188 559.585938 874 546.371094 875 535 C 870 537.179688 865.988281 540.335938 862 544 C 866.402344 534.582031 875.660156 525.136719 874.773438 514 C 873.800781 501.757813 860.714844 494.46875 852 488 C 836.824219 476.382813 821.714844 463.40625 813.257813 446 C 808.839844 437 807.347656 425.699219 810.765625 416 C 812.40625 411.339844 817.726563 407.023438 817 402 M 944 405 L 945 406 L 944 405 M 884 457 C 878.699219 442.777344 882.496094 432.410156 888 419 C 876.5 424.480469 871 450.253906 884 457 M 614 420 C 618.363281 435.265625 619 443.273438 617 459 C 625.972656 450.042969 626.542969 426 614 420 M 526 439 C 520 450.664063 504.523438 476.382813 491 479 C 493.757813 467.8125 494 456.34375 495.574219 445 C 495.988281 442 495.195313 436 498.433594 434.121094 C 503.390625 431.261719 519.820313 438.511719 526 439 M 1010 479 C 996 475 983.886719 454.089844 977 442 C 982.425781 441 995.785156 435.183594 1000.566406 436.789063 C 1003.738281 438 1003.320313 444.335938 1003.753906 447 C 1005.488281 457.695313 1007.285156 468.503906 1010 479 M 958 445.582031 C 969.363281 444.488281 974.5 462.4375 974.742188 471 C 975.25 489.09375 962.933594 505.300781 945 508.535156 C 929.898438 511.257813 912.515625 505.230469 905.378906 491 C 898.394531 477.078125 902 454.238281 920 451 C 924.742188 450.132813 933.878906 452.066406 931.378906 459 C 928.753906 466.046875 916.921875 463.023438 912.601563 469.109375 C 902 484 926.550781 503.046875 940 501.523438 C 951.777344 500.1875 973.871094 481.761719 964.257813 468.132813 C 960.378906 462.636719 951.492188 465.597656 948.195313 459.773438 C 944.902344 454 952.402344 446.121094 958 445.582031 M 589 470 C 580.507813 471.632813 565.84375 459.351563 576.226563 452.277344 C 592.421875 441.246094 598.480469 467.324219 597.960938 478 C 596.398438 510.082031 552.730469 518.023438 533.300781 497 C 523.847656 486.636719 522 471.671875 530 460.015625 C 534.296875 454 546.171875 446 553.890625 450.179688 C 557.675781 452.304688 559.335938 458 554.851563 460.144531 C 546.957031 464.136719 531.890625 461.332031 533.757813 475 C 538.964844 513.089844 588.996094 506.34375 589 470 M 886 485 L 887 485 C 888.554688 490.386719 891.386719 494.75 895 499 C 892 491.410156 889.417969 483.503906 894 476 C 900.554688 493.371094 906.53125 510.78125 928 514 L 928 515 C 919.265625 514.625 910.777344 512.074219 902 512 L 902 513 C 922.886719 519.679688 951.261719 528.40625 969.960938 512.53125 C 978 505.621094 982.613281 495.429688 987 486 C 987.808594 484.523438 992.34375 476.257813 987.835938 476.347656 C 982.296875 476.457031 976.707031 495.777344 973.894531 500 C 965.609375 512.441406 953 516 939 517 C 943.195313 514.484375 948.410156 514.59375 953 513 C 961.734375 509.699219 969.460938 502.746094 974.449219 495 C 977 491 979.574219 473.089844 984 472.644531 C 999 471.179688 997.460938 484 993.574219 493 C 986.996094 508.363281 976.429688 522 960 527.25 C 941.535156 533.300781 922.917969 527 905 522.117188 C 896.910156 520 887.246094 518.070313 883 510 C 878.636719 501.632813 882.769531 493 886 485 M 606 473 C 609.488281 482.5 608.652344 489.105469 604 498 C 606.371094 496 611 487.207031 614 487.207031 C 623.269531 487.207031 619.609375 508.746094 616.210938 512.671875 C 611.289063 518.351563 602.78125 519 596 520.746094 C 578.605469 525.570313 562.433594 533.605469 544 529.101563 C 527 525 514.660156 512.183594 507.257813 497 C 505.3125 493.003906 498.226563 479.773438 506 477.753906 C 510.898438 476.503906 512.234375 485 513.453125 488 C 518 499.34375 525.441406 510.453125 536 517 C 556.566406 529.546875 582.226563 518.757813 603 512 L 603 511 C 581.78125 516.488281 550.570313 523.601563 532 507.785156 C 522 499.273438 516.933594 486 512 474 C 519.488281 474.597656 518.300781 481.308594 520.46875 487 C 523 494 527.527344 500 533 505 C 551.757813 522.210938 582.210938 517.121094 596.839844 497 C 602.207031 489.617188 601 480.042969 606 473 M 1084 481 C 1090.683594 498.226563 1101.382813 513.734375 1105.339844 532 C 1109.605469 551.703125 1105.960938 571.140625 1107 591 C 1100.304688 586.238281 1096.714844 579 1092.601563 572 C 1083.382813 556.445313 1072.503906 538.421875 1071 520 L 1072 520 C 1075.25 531.285156 1083.414063 543.242188 1093 550 C 1090.902344 534.425781 1089.3125 518.511719 1086.714844 503 C 1085.566406 496.144531 1081 487.777344 1084 481 M 417 486 C 416 508.390625 405 529.320313 405 552 C 414 545.5625 420.746094 535.210938 425 525 L 426 525 C 422.59375 550.265625 404.957031 570.523438 393 592 L 392 592 C 392 556.089844 388.425781 514.105469 417 486 M 603 498 L 604 499 L 603 498 M 996 526 C 1003 520.5625 1007.28125 510.765625 1008 502 C 999.222656 506.183594 996 517 996 526 M 460 504 C 465.335938 531.511719 464.46875 575.664063 500 582 C 496.1875 573.277344 488.960938 566.597656 484.890625 558 C 478.792969 545.117188 475.847656 531 469.78125 518 C 467.242188 512.589844 465.597656 507 460 504 M 493 504 C 494.496094 511.703125 496.363281 521.242188 504 525 C 502.933594 516.730469 501.175781 508 493 504 M 898.5 511.5 C 897.871094 512.128906 898.871094 513.128906 899.5 512.5 C 900 512 899 511 898.5 511.5 M 934 515 L 934 516 L 929 516 C 930.769531 515.222656 932 515.089844 934 515 M 149 687 L 150 687 C 161.183594 666 176.871094 647.171875 190.847656 628 C 202.828125 611.570313 213.496094 594.136719 227.171875 579 C 235 570.199219 243.824219 561.140625 253 553.617188 C 257.617188 549.828125 264.761719 547 268 542 C 215.378906 543.09375 182.496094 602.296875 163.695313 644 C 157.765625 657.15625 150.1875 672.46875 149 687 M 1232 542 C 1235.699219 547.671875 1243.894531 551.535156 1249 556.171875 C 1260 566.207031 1270.914063 577.429688 1280.386719 589 C 1297.792969 610.269531 1313.289063 633.644531 1329.289063 656 C 1335.394531 664.527344 1342 679.566406 1351 685 C 1349.847656 671.785156 1342.171875 658.070313 1337 646 C 1319 604.195313 1284.289063 542.433594 1232 542 M 639 543 L 638 544 L 639 543 M 862 544 L 861 545 L 862 544 M 345 558 C 344.265625 575.144531 336.78125 591 329.246094 606 C 315.675781 633.144531 298.742188 658.167969 278.714844 681 C 268.449219 692.699219 256.449219 702.632813 246.886719 715 C 223.886719 744.761719 213.515625 782.132813 209.832031 819 C 207.539063 842 206.828125 865.421875 212.375 888 C 214.675781 897.371094 217.234375 907.691406 226 913 C 226 900.398438 230.632813 888.484375 231.828125 876 C 237.308594 819 250 764.230469 278.871094 714 C 289.804688 695 304 678.605469 317 661 C 333.601563 638.597656 340.253906 614.003906 344.753906 587 C 346 578.789063 350 565.378906 345 558 M 1152 559 C 1152 590.707031 1158.953125 623.65625 1175.449219 651 C 1188.6875 673 1207.3125 691.054688 1220.550781 713 C 1249.390625 760.804688 1261.945313 813.128906 1267.171875 868 C 1268.621094 883.253906 1274.9375 897.667969 1273 913 C 1282.574219 908.523438 1285.171875 897.496094 1287.347656 888 C 1292.671875 864.777344 1292 839.519531 1289.285156 816 C 1285.324219 783 1277.488281 750.066406 1258.480469 722 C 1249.253906 708.375 1236.230469 698 1225 686 C 1211 671 1198.347656 654.148438 1187 637 C 1176.558594 621 1167.621094 604 1160.8125 586 C 1157.636719 577.640625 1158 565.816406 1152 559 M 1176.667969 565.667969 C 1176.722656 565.722656 1176.777344 566.777344 1176.332031 566.332031 C 1176.277344 566.277344 1176.222656 565.222656 1176.667969 565.667969 M 628 570 C 614.734375 604.199219 595.910156 640.320313 560 654.800781 C 550.304688 658.710938 537.582031 663.664063 527 660.347656 C 521.6875 658.683594 509.632813 648.71875 514.617188 642.304688 C 517.546875 638.535156 524.773438 638.585938 529 637 L 529 636 C 525 636.316406 518.839844 639 515 637 C 509.601563 634 510 610.230469 510 604 L 508 604 C 508.308594 611.179688 513 631.351563 505.722656 636 C 502.285156 638.117188 496.789063 636.164063 493 636 L 493 637 C 497.386719 639 503 639.03125 506.722656 642.417969 C 510 645.679688 510 651.011719 512.367188 655 C 517.289063 663.617188 525.746094 666 535 666.828125 C 574 670.367188 605 634.28125 618.574219 602 C 621.761719 594.40625 631.214844 578 628 570 M 870 570 C 873 606.8125 901 646.640625 935 660.394531 C 946 665 959.9375 669 972 666.332031 C 987.269531 663.074219 984.570313 653 992.703125 643.394531 C 996 639.546875 1002.621094 639.296875 1007 637 L 1007 636 C 1003.316406 636.496094 997.734375 639.027344 994.277344 637 C 986.691406 632.410156 991.851563 611.238281 992 604 L 990 604 C 989.867188 610.453125 990.542969 633.679688 984.851563 637 C 980.765625 639.332031 974.386719 636.359375 970 636 L 970 637 C 974.394531 639 982.257813 638.5 985.355469 642.429688 C 992.261719 651.1875 974.53125 660.640625 968 661 C 951.238281 661.773438 933.65625 654.0625 920 645 C 901.691406 632.640625 892.722656 613.082031 883.246094 594 C 879.226563 586 876.828125 576.257813 870 570 M 138 593 L 137 594 L 138 593 M 847 594 C 856.75 617.0625 882.480469 631.75 887 658 C 872.4375 645.316406 852.707031 635 833 634 C 840.429688 651.21875 859.863281 658.195313 874 669 C 894.214844 684.203125 904.535156 709.453125 932 713 C 927.363281 706.207031 917.273438 703.484375 912 696 L 920 696 L 920 695 C 903.574219 688.113281 898.484375 671.125 892 656 C 883 635.210938 868 604.511719 847 594 M 648 595 C 628.351563 615.066406 620 642.328125 605.984375 666 C 599.585938 676.742188 589 683 582 693 C 592.574219 691.414063 599.910156 684 608 677.660156 C 623.234375 665.726563 648.792969 656.746094 658 639 C 643.308594 644.378906 629.335938 655.808594 616 664 C 621.441406 648 627.605469 630.542969 636.464844 616 C 639.976563 610.234375 649.433594 602.230469 648 595 M 1371 628 L 1370 629 L 1371 628 M 500 652 C 497.539063 670.265625 489 687.152344 494.429688 706 C 500.726563 728.351563 520.5 744.753906 521 769 L 523 769 C 522.929688 760.617188 522.609375 751 519.535156 743 C 514.257813 729.492188 504 718.074219 500 704 C 495 685.789063 501.226563 670 502 652 L 500 652 M 888 658 L 887 659 L 888 658 M 760 675.285156 C 799.613281 670.613281 848.453125 704.425781 843.824219 747 C 842.464844 759.550781 831.410156 762.0625 827.757813 772.015625 C 824.585938 780.65625 829.300781 790.636719 825 800 C 812.289063 828.539063 771.902344 853.4375 741 856.695313 C 732.230469 857.621094 723.753906 852.796875 716 849.425781 C 694.742188 840.175781 672.402344 827.175781 662.515625 805 C 658 795.070313 660.78125 783.710938 656.347656 774.003906 C 653.613281 768.027344 646.691406 766.292969 643 761 C 635.523438 749.554688 636.464844 730 642.378906 718 C 664.792969 673 718.597656 680.171875 760 675.285156 M 821 725 C 811.753906 686.074219 762 675.539063 728 678.828125 C 719.289063 679.671875 710.246094 680 702 683.257813 C 689.363281 688.308594 677.285156 697.078125 668 707 C 665.382813 710 659.976563 715.226563 660.53125 719.683594 C 660.9375 723 665.929688 721.765625 668 721.332031 C 675.714844 719.707031 682.992188 716.246094 690 712.753906 C 713.566406 701.007813 751.710938 697.65625 777 706.089844 C 792.492188 711.257813 804 723.652344 821 725 M 1029 710 C 1028 712.363281 1026.859375 714.640625 1025.875 717.003906 C 1025.277344 718.4375 1021.5 728.792969 1025 728.792969 C 1029.765625 728.792969 1030.191406 713 1029 710 M 128 711 L 127 712 L 128 711 M 1045 797 C 1051 794.035156 1054.1875 787.546875 1057.679688 782 C 1066.28125 768.355469 1073.695313 753.710938 1077.625 738 C 1078.535156 734.363281 1083.738281 718.535156 1079.410156 716.257813 C 1074 713.484375 1068.488281 729.808594 1067.199219 733 C 1059 753.144531 1049.882813 776 1045 797 M 454 797 C 450.894531 776 440.335938 753.441406 432 734 C 430.566406 730.65625 424.710938 715 419.5625 716.753906 C 415.441406 718.265625 420.554688 735 421.429688 738 C 426.898438 757.382813 437 785 454 797 M 675 789 L 676 789 C 682 810.375 711.363281 793 715.363281 779 C 719 766.257813 703.167969 738.671875 688.363281 751.738281 C 684.324219 755.304688 690.699219 758.765625 691.753906 762.015625 C 692.910156 765.597656 689.53125 769.230469 686.90625 771.195313 C 679 777.007813 663.921875 771.652344 664 785 C 664 798.136719 674.789063 808.5 682.574219 818 C 705 845.359375 744.605469 858 777 839.121094 C 787.8125 832.828125 793.398438 822.175781 801.300781 813 C 805.472656 808.15625 810.769531 804.496094 814.183594 799 C 817.335938 794 821.472656 778.832031 813.867188 775.601563 C 808.851563 773.476563 802.472656 777.027344 798.601563 772 C 795.386719 767.550781 797.746094 761 796.195313 756 C 792.644531 744.695313 777.613281 743.480469 769 749.648438 C 750 763.214844 767.300781 789.5625 784 795.453125 C 791.3125 798.03125 802.765625 798.660156 807 791 C 806.554688 801 791.714844 803.222656 784 801 C 769.8125 796.792969 753.863281 780 756.480469 764 C 759.214844 747.347656 782 736.398438 794.46875 750.300781 C 799.472656 756 798.324219 767.1875 805 771 C 814.675781 776.308594 829.179688 761.324219 827.757813 752 C 825.777344 739.027344 798.746094 730.433594 788 727.027344 C 753.96875 716.242188 716 716.265625 683 730.011719 C 673 734.140625 658.261719 739 652.769531 749.039063 C 646.851563 760 661.886719 772.273438 672 772 C 680.945313 771.644531 679.789063 763.253906 682.53125 757 C 685.179688 751 690.710938 746.597656 697 744.789063 C 710.382813 741 722.324219 751.730469 722.738281 765 C 723 778.417969 715.25 793.824219 704 801.03125 C 692.285156 808.535156 677 803.273438 675 789 M 341 729 C 310.945313 767 293 814.714844 293 863 C 293 878.136719 293 901.621094 303 914 C 304.589844 899.558594 302.757813 884.59375 304.171875 870 C 307 840.683594 315.386719 812 324.667969 784 C 328.882813 771.347656 332.71875 758.480469 337.425781 746 C 339.40625 740.75 343.28125 734.597656 341 729 M 370 729 C 358.925781 761.453125 337.398438 789 325.695313 821 C 315.613281 848.652344 315 879.078125 318.714844 908 C 320.722656 924.351563 319.300781 954.675781 337 963 C 334.40625 953 330.816406 942.355469 330 932 C 328.527344 909.695313 333.398438 888.101563 334.910156 866 C 336 848.164063 334.558594 829.28125 340 812 C 346.386719 792 356.945313 773.480469 364.800781 754 C 367.710938 746.777344 373.269531 736.796875 370 729 M 1157 729 C 1158.886719 752.6875 1172.453125 776.339844 1179.28125 799 C 1191 838.128906 1196 873.402344 1196 914 L 1197 914 C 1202.667969 903.242188 1203.890625 891 1205 879 C 1209.335938 840.0625 1199.609375 802.722656 1182.246094 768 C 1175.578125 754.664063 1169.570313 738 1157 729 M 482 731 C 481.40625 735.664063 480.246094 740.292969 480 745 C 479.90625 748 479.941406 751.015625 480 754 C 480 756 480.683594 769.46875 484.367188 767.652344 C 486.933594 766.390625 485.960938 760.25 486 758 C 486.214844 750.035156 490.472656 736 482 731 M 1128 731 C 1131.839844 761.359375 1152.375 784.738281 1159 814 C 1162.871094 830.324219 1161.558594 847.421875 1163.171875 864 C 1165.316406 886.101563 1170.453125 907.621094 1168.910156 930 C 1168 941.179688 1163.488281 952 1163 963 C 1179 951.523438 1178.875 927.722656 1180 910 C 1181.632813 887.496094 1183 863.261719 1178.550781 841 C 1173.644531 816.605469 1161.667969 794.40625 1149.421875 773 C 1144.414063 764.246094 1139.472656 755.417969 1135.8125 746 C 1133.859375 741 1132.679688 734.089844 1128 731 M 622 733 C 621.636719 750.609375 607.597656 760.253906 599 774 C 618 770.554688 624 749.53125 624 733 L 622 733 M 1017 736 L 1017 740 L 1016 740 C 1016.175781 738.316406 1016.316406 737.507813 1017 736 M 859 737 C 864.269531 753.167969 876 768.101563 893 773 C 890.367188 767.355469 885.285156 763.507813 881 759 C 874.230469 751.632813 868.355469 741.363281 859 737 M 1198 738 C 1203.339844 754.757813 1216.542969 768.519531 1221.972656 786 C 1230.644531 814 1233.371094 843.085938 1236.171875 872 C 1238.199219 893 1239.933594 914.054688 1236.5625 935 C 1234.367188 948.640625 1227.734375 960.035156 1224 973 C 1244.445313 963.464844 1249.234375 930.777344 1251 911 C 1255 868 1245.242188 819.507813 1227.230469 780 C 1220.203125 764.582031 1212.25 748.039063 1198 738 M 276 973 C 271.949219 963.269531 266 954.363281 263.652344 944 C 257.921875 920 260.398438 895.320313 262.832031 871 C 265.914063 840.175781 269 809.464844 279.34375 780 C 284.484375 765.195313 296.449219 753.25 301 739 C 287 745.464844 278.722656 765.832031 272.691406 779 C 253.59375 820.710938 242.679688 871.398438 249 917 C 251.429688 934.535156 257.246094 965.714844 276 973 M 490 746 C 488.378906 754.359375 487.910156 761.527344 488.835938 770 C 489 772 488.824219 777.792969 491.910156 777.792969 C 494.691406 777.792969 493.996094 771.632813 494 770 C 494 762.195313 495.847656 752.050781 490 746 M 992 750 L 987 764 L 986 764 C 987 759 988.703125 754 992 750 M 590 802 C 606.710938 795.664063 626.367188 776.570313 628 758 C 623 760.378906 619.824219 765.082031 616 769 C 606.832031 778.390625 594.730469 789.519531 590 802 M 859 763 C 865.894531 777.574219 879.453125 798.019531 895 804 C 890.472656 788.601563 874.597656 768 859 763 M 740 764 C 747.308594 781.582031 748.832031 798.101563 747 817 C 746.773438 820.222656 746.519531 834.703125 741.167969 834 C 736.453125 833.3125 736.230469 820.476563 736 817 C 735.226563 802.46875 730.21875 776.285156 740 764 M 985.667969 765.667969 C 985.722656 765.722656 985.777344 766.777344 985.332031 766.332031 C 985.277344 766.277344 985.222656 765.222656 985.667969 765.667969 M 848 771 C 848.429688 791.226563 867.410156 799 878.480469 813 C 889.449219 827 891 846 891 863 L 893 863 C 893 848.511719 895.976563 834.128906 890.910156 820 C 885.195313 804.074219 871.546875 797.753906 860 787 C 854.960938 782.171875 852.761719 775.710938 848 771 M 634 773 C 626.558594 788.640625 610 795.332031 599.210938 808 C 591 817.539063 588 831.742188 588 844 C 587.988281 850.148438 587.390625 857.746094 591 863 C 595.289063 847.148438 592.480469 831.65625 602.359375 817 C 609.839844 806 622 799.226563 629.300781 788 C 632 783.746094 635.980469 778.125 634 773 M 205 776 C 181.882813 806.316406 178.773438 848.421875 168.574219 884 C 163.726563 901 152.730469 915 145.871094 931 C 140.734375 943.003906 140.574219 956.5625 132 967 C 130.695313 950.445313 128.46875 935.292969 136.792969 920 C 140.632813 913 147.660156 908.160156 151 901 C 120.59375 909.761719 115.222656 941.34375 123.40625 967 C 124.949219 972 124 980 128.417969 983.378906 C 133.667969 987.496094 137.480469 978.625 139 975 C 148.511719 991.296875 158.984375 1004 171.425781 1018 C 173.363281 1020.199219 183.644531 1031.148438 186.351563 1024.679688 C 188.652344 1019.183594 178.59375 1006.824219 177 1001 L 178 1001 C 180.769531 1010.597656 188.277344 1020 195.171875 1027 C 198.871094 1030.746094 204 1033.398438 206 1027 L 207 1027 C 208 1032.664063 211.703125 1037.332031 212.671875 1043 C 213.40625 1047.304688 211.316406 1051.769531 212.332031 1056 C 212.992188 1058.648438 216.503906 1059.707031 216.761719 1062.300781 C 217 1066 213.496094 1069.214844 213.34375 1073 C 212.929688 1082.820313 222 1089 231 1087 C 228.425781 1093.1875 214.476563 1117.730469 225.226563 1122.394531 C 230 1124.484375 234.574219 1120.148438 238 1117.449219 C 246.804688 1110.507813 257 1105.214844 267 1100 C 259.59375 1111 251.34375 1122.226563 239 1128.089844 C 234.855469 1130.054688 223.59375 1131.789063 223.753906 1138 C 223.980469 1146.726563 246.339844 1146.382813 252 1145.570313 C 275 1142.277344 296.777344 1125.398438 306 1104 C 281.234375 1115.039063 269.632813 1143 238 1137 L 238 1136 C 267.347656 1133.421875 275.59375 1093.382813 288.699219 1073 C 295.421875 1062.539063 304.804688 1054.375 308 1042 C 311.265625 1030.21875 314.511719 1009.605469 301 1003 C 301 1033 287.210938 1069.242188 264.996094 1090 C 255 1099.175781 241.742188 1103.804688 231 1112 C 238.558594 1076 291.6875 1058.191406 276.300781 1015 C 273.9375 1008.371094 269.519531 1002.476563 265.195313 997 C 260 990.476563 254.839844 983.820313 248 979 C 248.980469 988.78125 255.3125 997.511719 257.84375 1007 C 264.269531 1031.070313 254.949219 1083.300781 221 1077 L 221 1076 C 247.621094 1067.570313 252.945313 1023.402344 243.535156 1001 C 238.207031 988.3125 228.320313 978.40625 224.203125 965 C 220.9375 954.355469 221 944.007813 221 933 L 220 933 C 210.851563 963.664063 228.660156 990.347656 229.960938 1020 C 230.421875 1030.492188 226.449219 1037.515625 223 1047 L 222 1047 C 219.253906 1025.746094 204.464844 1007.640625 198.746094 987 C 192.707031 965.210938 196 943.144531 196 921 L 195 921 C 177.507813 951.734375 190.308594 989 202 1019 C 189.261719 1004.410156 168.601563 981.003906 170.183594 960 C 172.277344 932.265625 198.789063 912.753906 200 885 C 194.375 888.671875 190.933594 897.578125 186.871094 903 C 179.925781 912.28125 171.679688 922 167.699219 933 C 159.960938 954.453125 166.175781 981.140625 169 1003 C 162.691406 995.777344 155.859375 988.523438 151.324219 980 C 134 947.574219 168.835938 920.414063 180.382813 893 C 190.484375 869.027344 193 842.441406 197.414063 817 C 198.929688 808 200.660156 799 202.894531 790 C 204 785.453125 206.785156 780.585938 205 776 M 1294 777 C 1294.914063 788.476563 1299 799.597656 1300.726563 811 C 1304.605469 837.308594 1307.335938 865.089844 1317.203125 890 C 1328.976563 919.722656 1367.40625 947.457031 1346.371094 983 C 1342.214844 990.027344 1336.726563 996.226563 1331 1002 C 1333.621094 981.703125 1338.796875 955 1332.25 935 C 1328.171875 922.546875 1319.519531 912.375 1311.882813 902 C 1307.722656 896.34375 1304.441406 889.496094 1299 885 C 1301.246094 912.496094 1326.484375 932.246094 1329.683594 959 C 1332.242188 980.398438 1309.902344 1006.222656 1297 1021 C 1306.660156 996.101563 1312.53125 975 1311 948 C 1310.59375 940.03125 1310.789063 926.433594 1303 922 C 1303 945 1306.765625 967.386719 1300.574219 990 C 1295 1010.222656 1279.695313 1026.703125 1278 1048 C 1260.738281 1027.746094 1271.839844 1005.441406 1277.988281 983 C 1282 968.296875 1283.550781 948 1280 933 L 1279 933 C 1279 946.8125 1277.675781 961.347656 1271.679688 974 C 1266.398438 985.144531 1257.320313 994 1253.722656 1006 C 1248.648438 1023 1251.722656 1042.171875 1259 1058 C 1263.527344 1067.746094 1272.652344 1070.339844 1279 1078 C 1248.761719 1080.386719 1233.839844 1040 1239.285156 1014 C 1241.855469 1001.78125 1249 991.101563 1252 979 C 1244.703125 982.785156 1239.828125 989.6875 1234.800781 996 C 1230.371094 1001.558594 1225.65625 1007.308594 1223 1014 C 1206 1057.789063 1260.671875 1076.023438 1269 1112 C 1257.460938 1103.617188 1243.589844 1098.691406 1233 1088.824219 C 1211.296875 1068.496094 1198 1032.109375 1198 1003 C 1184.3125 1009.535156 1187.429688 1031.171875 1191 1043 C 1194.679688 1055 1204 1062.769531 1210.5625 1073 C 1224 1094.179688 1232.714844 1131.609375 1262 1136 L 1262 1137 C 1243.445313 1137 1226.703125 1131.617188 1212 1120.113281 C 1205.628906 1115.121094 1201.460938 1107.476563 1194 1104 C 1200.949219 1123 1224 1144.011719 1245 1145 C 1251.21875 1145.242188 1276.660156 1148 1275.535156 1137.039063 C 1274.9375 1131.253906 1264.179688 1130 1260 1127.675781 C 1249 1122 1239.789063 1111.820313 1234 1101 C 1243 1105.820313 1252.882813 1110.652344 1261 1117.09375 C 1264.398438 1119.785156 1269 1124.199219 1273.890625 1122.382813 C 1282.898438 1119 1275.847656 1101.625 1273.21875 1096 C 1272.394531 1094.238281 1269.917969 1091 1270.664063 1089 C 1271.53125 1086.46875 1277 1087 1278.996094 1086.105469 C 1282.625 1084.675781 1286.484375 1080 1287.898438 1076.289063 C 1289.726563 1071.558594 1282.488281 1067.0625 1282.570313 1062.273438 C 1282.617188 1059.382813 1286.597656 1058.035156 1287 1055 C 1287.839844 1051.019531 1286.179688 1047 1286.757813 1043 C 1287.597656 1037.203125 1291 1032.386719 1293 1027 L 1294 1027 C 1295 1033.496094 1300 1031.394531 1303.984375 1028 C 1310.265625 1022.175781 1316.976563 1014 1320 1006 L 1321 1006 C 1319.425781 1011 1311.402344 1019.375 1313.648438 1024.679688 C 1316.382813 1031.144531 1327.824219 1019.105469 1330 1017 C 1342.824219 1004.476563 1354.996094 992.625 1360 975 C 1361.847656 978.117188 1365.652344 986.628906 1370.582031 984 C 1375.296875 981.316406 1374.882813 970.578125 1376.359375 966 C 1384.492188 940.785156 1377 909.382813 1348 901 C 1352.515625 909.703125 1360.546875 915.8125 1364.6875 925 C 1371 939 1368 953.34375 1368 968 L 1367 968 C 1361.28125 954.269531 1357.644531 939.410156 1351.359375 926 C 1342.886719 908 1332.371094 892.722656 1327.375 873 C 1321.34375 849.1875 1316.367188 824.796875 1306.988281 802 C 1303.632813 794 1300.570313 783.070313 1294 777 M 850 794 C 852.613281 805.296875 857.289063 819.011719 867 826 C 865.433594 814.386719 859.695313 801 850 794 M 607 846 C 620.195313 841 628.554688 827.242188 637.429688 817.003906 C 641.78125 812 646.910156 808.546875 649 802 C 630.476563 806.398438 613.519531 828.800781 607 846 M 834 803 C 834.191406 826 845 843.382813 859.714844 860 C 864.324219 865.238281 868.816406 872.6875 875 876 C 868.8125 861.144531 856.511719 850.28125 849.371094 836 C 844 825.378906 843 811.355469 834 803 M 651 827 C 633.28125 844.71875 603.59375 852.683594 596 879 C 604.597656 874.027344 609.648438 865.671875 617 859.300781 C 624.660156 852.667969 634.203125 849 641.910156 842.332031 C 645.949219 839 652.566406 832.726563 651 827 M 825 827 C 826.847656 833.507813 827.976563 840.496094 835 843 C 833 837.164063 830.625 830.085938 825 827 M 643 858 C 652.484375 853.078125 662.734375 841.25 666 831 C 654.894531 834.546875 645.785156 847 643 858 M 457 834 C 459.367188 850.105469 465.222656 865.785156 467.726563 882 C 476.21875 937.015625 474.835938 1002.570313 448.742188 1053 C 441.402344 1067.179688 429.871094 1078.449219 418 1089 C 411.972656 1094.121094 402.664063 1098.785156 399 1106 C 474.328125 1074.472656 493 970 478.800781 898 C 475.765625 882.730469 471.390625 867.617188 466 853 C 463.621094 846.339844 462.371094 839 457 834 M 813 834 C 815.683594 864.765625 843.609375 868.597656 859 890 L 860 890 C 856.914063 872.683594 839.246094 864.480469 828 853 C 822.339844 847.140625 819.488281 839.007813 813 834 M 1040 834 C 1034.289063 855 1025.269531 874.5 1021.261719 896 C 1007.757813 968.441406 1023.828125 1073.121094 1100 1105 C 1092.207031 1088.289063 1070 1079.445313 1058.667969 1065 C 1038.675781 1039.589844 1032.167969 1004.378906 1029.171875 973 C 1025.976563 939.59375 1028.238281 906.027344 1033.753906 873 C 1035.265625 864 1036.96875 855 1039.425781 846 C 1040.574219 842 1042.621094 837.769531 1040 834 M 575 836 C 570.46875 848 564.253906 858.175781 561.425781 871 C 557.683594 888 560.863281 915.808594 544 926 C 544.324219 910.1875 548.515625 894.71875 549.824219 879 C 550.289063 873.429688 546.59375 866.195313 549.195313 861.042969 C 551.464844 856.539063 557.28125 854.742188 561 851.671875 C 566.558594 847.085938 570 841.105469 575 836 M 559 843 L 558 844 L 559 843 M 933 843 L 932 844 L 933 843 M 792 847 C 796.589844 865.613281 808.75 880.332031 830 878 C 823.414063 872.542969 814.59375 870.445313 808 864.789063 C 802 859.71875 798.738281 850.492188 792 847 M 118.667969 852.667969 C 118.722656 852.722656 118.777344 853.777344 118.332031 853.332031 C 118.277344 853.277344 118.222656 852.222656 118.667969 852.667969 M 911 852 C 911.683594 860.648438 913.382813 869.398438 914.574219 878 C 914.878906 880.171875 914.742188 885.792969 918 885.792969 C 922.265625 885.792969 922 878.71875 921.984375 876 C 921.808594 867 918.398438 857.460938 911 852 M 1381.667969 854.667969 C 1381.722656 854.722656 1381.777344 855.777344 1381.332031 855.332031 C 1381.277344 855.277344 1381.222656 854.222656 1381.667969 854.667969 M 583 855 C 577.882813 857.515625 569.171875 871.59375 574.179688 877.339844 C 578.472656 882.261719 582.378906 867.238281 582.699219 865 C 583.175781 861.703125 583 858.320313 583 855 M 780 855 C 781.480469 863 782.4375 870.738281 786.324219 878 C 795.683594 895.480469 816.8125 901.792969 835 906 C 826 893.519531 808.871094 891.359375 798 881 C 790.789063 874 788 860.304688 780 855 M 702 856 C 693.820313 884.398438 668.234375 889.144531 648 905.042969 C 637.859375 913.054688 630.367188 928 626 940 C 637.40625 934.082031 642.726563 920.628906 652 912.09375 C 671.9375 893.734375 701.445313 888.097656 704 856 L 702 856 M 712 857 C 711.742188 869.535156 706.371094 881.792969 697.90625 891 C 693.601563 895.683594 687 899.46875 684 905 C 699.261719 899.804688 726.84375 875.136719 712 857 M 694 858 C 684.367188 869.796875 671.363281 876.523438 657 881 C 650.828125 883 637.925781 883 634 888 C 651.574219 884.738281 667.617188 886.082031 683 875 C 687.792969 871.339844 695.828125 864.679688 694 858 M 766 860 C 766 877.351563 773.269531 899.03125 793 902 C 788.355469 895.683594 782.191406 891.042969 778.3125 884 C 774 876.191406 772.984375 866 766 860 M 725 861 C 723.875 874.746094 712.636719 885.113281 712 899 C 722.691406 894.292969 725.515625 883.730469 727 873 C 727.609375 868.589844 729 864 725 861 M 754.300781 863.136719 C 748.554688 866.242188 755.785156 884.695313 757.914063 889 C 759 891.238281 761.554688 895.335938 764.671875 893.824219 C 767.601563 892.402344 766 888.246094 765.339844 886 C 764.171875 882.109375 761.488281 859.25 754.300781 863.136719 M 912 871 C 907 873.796875 904 886 908.722656 890.339844 C 912.273438 893.699219 912.914063 887.03125 912.710938 885 C 912.507813 883 912 881.023438 912 879 C 911.921875 876.339844 912 873.660156 912 871 M 389 872 C 363.9375 902.277344 382.449219 944.5 383.960938 979 C 384.785156 997.816406 375.90625 1010 371 1027 C 382.488281 1023.09375 387.300781 1008 389.386719 997 C 394.972656 968 386 939.070313 386 910 C 385.996094 902 386 894 387.464844 886 C 388.296875 881.410156 390.765625 876.523438 389 872 M 1109 872 C 1109.738281 889.191406 1113.410156 905.621094 1112.984375 923 C 1112.417969 946.132813 1107.980469 968.695313 1109 992 C 1109.589844 1004.113281 1115.960938 1023.597656 1129 1027 C 1124.417969 1016.050781 1118.324219 1007.035156 1116.4375 995 C 1112.660156 971 1120 946.15625 1121 922 C 1121.691406 906.53125 1122.644531 882.535156 1109 872 M 860 958 C 846.824219 959.773438 836 969 823 970.699219 C 813.273438 972.054688 802.90625 968 793 968.003906 C 782.308594 968.132813 771.691406 970.722656 761 971 C 744.253906 971.394531 727.679688 968.769531 711 968.039063 C 697.238281 967.4375 683.378906 975.054688 670 972.53125 C 658.570313 970.378906 649 961.726563 638 958 C 644 950.648438 654.460938 947.300781 663 943.574219 C 680.976563 935.730469 700.796875 930.078125 718 920.6875 C 723.25 917.820313 728.65625 914.394531 732.710938 910 C 734.871094 907.601563 737.605469 902.136719 741 901.632813 C 744.265625 901.167969 747 905.71875 749 907.5625 C 754.367188 912.320313 760.441406 916.257813 767 919 C 791.566406 929.214844 817.414063 932.28125 841 945.574219 C 847.582031 949.285156 855.238281 952 860 958 M 403 1025 L 404 1025 C 413 996.820313 410.765625 968.0625 412 939 C 412.523438 928 415.523438 917.050781 416 906 C 404.726563 910 405.453125 924.109375 404.285156 934 C 402.554688 948.683594 405.511719 963.382813 405.871094 978 C 406.257813 993.601563 403 1009.320313 403 1025 M 1083 906 C 1083.53125 918.367188 1086.683594 930.636719 1086.984375 943 C 1087.628906 969.214844 1083.289063 1000 1096 1024 C 1099.734375 1015.097656 1094.726563 1004.117188 1094 995 C 1092.546875 973 1095.695313 951 1094 929 C 1093.464844 920.460938 1092.28125 909.304688 1083 906 M 736 915.519531 C 724.394531 918 713.769531 925 703 929.574219 C 700.421875 930.703125 692.46875 933.253906 695 937.503906 C 698.527344 943.089844 712.8125 939.265625 718 939.039063 C 733.191406 938.375 748.738281 939.394531 764 939.015625 C 771 939 781.328125 939.644531 787.941406 937 C 797 933.296875 786 927.496094 782 926.078125 C 769 921.644531 749.59375 912.636719 736 915.519531 M 875 915 C 875.183594 919.019531 875.527344 922.621094 879 925 C 878.285156 921.3125 878 917.355469 875 915 M 902 917 C 900.828125 921.308594 901.851563 924.164063 904 928 L 905 928 C 904.507813 924.171875 904 920.324219 902 917 M 583 927 L 584 927 C 585.6875 924 586.648438 921.4375 587 918 C 583.894531 920.167969 583.492188 923.367188 583 927 M 604 919 L 601 928 C 603.910156 925.429688 605.46875 922.808594 604 919 M 919 919 C 921 925.4375 925.273438 928.636719 932 929 L 932 928 C 927 925.679688 923.390625 922.058594 919 919 M 558 932 C 564.484375 930.441406 568.921875 927 572 921 C 566.882813 923.164063 560.996094 927.273438 558 932 M 434 926 C 434 963.539063 428.722656 1000.628906 419.371094 1037 C 415.253906 1053.011719 403.742188 1070.800781 403 1087 C 413.257813 1079.707031 416.535156 1067.039063 421.28125 1056 C 433.878906 1026.695313 444.664063 992.28125 440.425781 960 C 439 949.574219 441.90625 934.179688 434 926 M 1065 926 C 1058.878906 936 1059 951.566406 1059 963 C 1059 993.828125 1064.960938 1022.402344 1076.601563 1051 C 1081.335938 1062.625 1085.871094 1079 1097 1086 C 1096.449219 1075.289063 1089.257813 1065.015625 1085.691406 1055 C 1079.636719 1038 1075.625 1019.753906 1072.425781 1002 C 1069.261719 984.464844 1067.304688 966.742188 1066 949 C 1065.597656 941.828125 1067.800781 932.671875 1065 926 M 959.667969 932.667969 C 959.722656 932.722656 959.777344 933.777344 959.332031 933.332031 C 959.277344 933.277344 959.222656 932.222656 959.667969 932.667969 M 681.996094 938.535156 C 673.75 940 664.648438 944.816406 658 949.789063 C 655.535156 951.652344 651 957.179688 657 957.585938 C 665 958.121094 680.238281 948.792969 685.664063 943.371094 C 689 940 685.507813 938 681.996094 938.535156 M 812.753906 940.027344 C 810.40625 942.367188 815.480469 945.554688 817 946.535156 C 821.550781 949.453125 837.859375 961.023438 843.289063 956 C 846 953.394531 840.765625 950 838.984375 949 C 834.90625 946.417969 817 935.691406 812.753906 940.027344 M 825 963 C 818 948.289063 794.539063 938.691406 779 940.171875 C 774 940.640625 763 940.65625 761.832031 947.027344 C 760.65625 952.75 768.386719 953 772 953 C 780.453125 953.042969 789.730469 950.640625 798 952.761719 C 807.5625 955.210938 814.921875 962.121094 825 963 M 671 963 C 680.375 962.570313 687.214844 956.304688 696 954 C 704.941406 951.507813 714.890625 953.449219 724 953.429688 C 727.980469 953.421875 735 952.628906 734.535156 947.039063 C 733.777344 939.75 720.941406 941 716 941 C 700.226563 941.007813 678.242188 947.472656 671 963 M 748.507813 948.28125 C 747.1875 949 748.179688 951 749.492188 950.269531 C 750.816406 949.660156 749.796875 947.664063 748.507813 948.28125 M 993 988 C 999.9375 987.371094 1003.898438 984 1005 977 C 1001.410156 979.339844 995.378906 984.511719 993 988 M 496 982 C 497.445313 987.027344 503 991.195313 507 986 C 502.515625 986 499.75 984.359375 496 982 M 362 989 C 357.25 999.15625 355.628906 1010.28125 352.574219 1021 C 343.269531 1053.640625 334.4375 1090.570313 313.496094 1118 C 303.382813 1131.25 289 1138.222656 276 1148 C 266 1155.238281 257.984375 1164 252.257813 1175 C 250.667969 1178.078125 246.570313 1184.03125 249 1187.523438 C 251.570313 1191.089844 255.976563 1186.804688 258 1185 C 265.21875 1178.417969 272.4375 1171.769531 281 1167 C 277 1179 276.332031 1189.691406 279.234375 1202 C 280 1205.445313 281.796875 1213.503906 286.910156 1212.246094 C 293 1210.746094 293.574219 1198.789063 295.464844 1194 C 302 1177.351563 318.726563 1166.550781 325 1150 C 305.800781 1159.121094 299.246094 1178.277344 286 1193 C 286 1178.382813 292.335938 1167.519531 299 1155 C 288.730469 1155.449219 279.320313 1160.125 270 1164 C 285.367188 1148.644531 306.410156 1143.347656 321.960938 1128.824219 C 347 1105.382813 351.621094 1067 356.921875 1035 L 361.921875 1004 C 362.765625 999 364.753906 993.691406 362 989 M 1136 989 C 1136 1003.671875 1139.488281 1017.605469 1141.917969 1032 C 1147 1062.464844 1150.6875 1099 1172.175781 1123 C 1187.980469 1140.734375 1211.917969 1146.652344 1229 1163 C 1219.640625 1159.109375 1210.820313 1156.417969 1201 1154 C 1203.453125 1167.753906 1212.695313 1178.226563 1213 1193 L 1212 1193 C 1204.941406 1178 1191.359375 1154.515625 1174 1150 C 1182.953125 1164.378906 1195.898438 1176.207031 1202.664063 1192 C 1204.957031 1197.355469 1205.898438 1209.371094 1212 1211.824219 C 1217.226563 1214 1218.84375 1205.257813 1219.574219 1202 C 1222.367188 1189.546875 1221.4375 1178.203125 1218 1166 C 1225.234375 1171 1231.765625 1176 1238 1182 C 1240.515625 1184.472656 1243.96875 1188.753906 1247.941406 1188.453125 C 1252.628906 1188.101563 1251.316406 1182.808594 1250 1180 C 1246 1171.683594 1240.878906 1163.816406 1234.570313 1157.171875 C 1216.402344 1138.015625 1191.980469 1132 1178.78125 1107 C 1165.410156 1081.832031 1156.46875 1053.167969 1148 1026 C 1144.613281 1015.023438 1144.316406 997.300781 1136 989 M 177 999 L 176 1000 L 177 999 M 643 1171 C 699.449219 1170 702.796875 1093 721.257813 1055 C 730.195313 1036.660156 746.203125 1021.238281 751 1001 C 739 1004.53125 729.925781 1015.820313 722 1025 C 696.28125 1055.460938 692.363281 1099.03125 674.753906 1134 C 670.183594 1143.074219 664.371094 1152 656.996094 1159 C 652.539063 1163.214844 645.871094 1165.464844 643 1171 M 994 1287 C 985.269531 1288.109375 976.835938 1290 968 1288.382813 C 949.652344 1285.074219 934.457031 1272.183594 921 1260.164063 C 891.980469 1234.253906 871.261719 1200 840 1176.375 C 810 1153.796875 768.65625 1136.054688 759.234375 1096 C 754.191406 1074.546875 760.679688 1053.273438 770.246094 1034 C 775 1024.257813 784.429688 1013 785 1002 C 775.582031 1007.027344 768.5 1019.308594 762.671875 1028 C 734 1070.566406 740.292969 1125.265625 779 1159.824219 C 793.914063 1173.144531 812.558594 1177.628906 830 1186.371094 C 841.289063 1192.03125 850.855469 1200.535156 859.828125 1209.285156 C 877.851563 1227 893.285156 1247 912 1263.828125 C 927.3125 1277.679688 947.507813 1293.402344 969 1295 C 978.5 1295.574219 987.898438 1295.210938 994 1287 M 1323 1002 L 1322 1006 L 1321 1006 C 1321.5625 1004.246094 1321.917969 1003.457031 1323 1002 M 1331 1002 L 1330 1003 L 1331 1002 M 170 1003 L 169 1004 L 170 1003 M 583 1063 C 591.566406 1065 602.273438 1061 610 1057.21875 C 631.460938 1047.132813 648.4375 1027.347656 656 1005 C 638.339844 1008.1875 623.871094 1030.050781 611.960938 1042 C 603 1050.761719 592.621094 1055.6875 583 1063 M 561 1136 C 571.476563 1140.355469 586 1127.210938 594 1121.578125 C 622.308594 1101.339844 650.226563 1078.273438 669.644531 1049 C 675.804688 1039.714844 681 1028.261719 681.910156 1017 C 682 1014.109375 682.976563 1007.746094 679.699219 1006.175781 C 675.925781 1004.371094 673.472656 1010.585938 672.246094 1013 C 667 1023.308594 662 1033.5625 655.421875 1043 C 631.300781 1076.8125 600.386719 1119.601563 561 1136 M 1007 1006 C 1007 1016.109375 1008.703125 1035 1018 1041 C 1017.804688 1031.613281 1015.589844 1011.359375 1007 1006 M 481 1041 C 491.859375 1035.144531 494 1019.019531 494 1008 C 485 1014 482.839844 1031.226563 481 1041 M 702 1009 C 695.992188 1016.332031 692.289063 1026 687.398438 1034 C 671.75 1060.082031 656.535156 1091 636.699219 1114 C 629.769531 1122.046875 620.773438 1126 612 1131.46875 C 610.371094 1132.488281 604 1136.402344 606.753906 1139 C 609.421875 1141.5625 614.765625 1137.410156 617 1136.0625 C 625.972656 1130.648438 635.945313 1126.546875 643.984375 1119.675781 C 654.925781 1110.324219 660.808594 1095.496094 667.257813 1083 C 675.234375 1067.550781 685 1053 692 1037 C 695.421875 1029.636719 703.714844 1017.164063 702 1009 M 803 1016 C 808.9375 1062 855.261719 1090.1875 899 1094 C 885.523438 1070.34375 856.347656 1064.183594 837 1046.824219 C 825.976563 1037 817.839844 1020.738281 803 1016 M 826 1016 C 830.917969 1049.304688 868.757813 1062.519531 897 1050 L 897 1049 C 876 1050 856.519531 1052.445313 840 1036 C 834 1030.082031 831.808594 1021.730469 826 1016 M 203 1019 L 204 1022 C 202.710938 1020.558594 202.597656 1020.765625 203 1019 M 562 1090 L 562 1092 C 595.394531 1092 620.429688 1072.09375 640.804688 1047 C 647.636719 1038.585938 655.421875 1031 658 1020 C 647.613281 1025.679688 638.890625 1042.105469 630.828125 1051 C 612.960938 1070.71875 588.695313 1086.554688 562 1090 M 1297 1021 L 1295 1027 L 1294 1027 C 1294.710938 1024.589844 1295.425781 1023 1297 1021 M 791 1031 C 796.734375 1070 823.179688 1097.335938 857 1114.246094 C 865.777344 1118.636719 876.871094 1126.652344 887 1126 C 868.753906 1109 842.269531 1102.265625 824 1084 C 815 1075.125 807.753906 1064.269531 802.257813 1053 C 798.726563 1045.753906 796.839844 1036.777344 791 1031 M 219 1059 L 218 1060 L 219 1059 M 778 1076 C 792.355469 1120.035156 843 1144.464844 884 1158.65625 C 900.273438 1164.308594 917.496094 1168.113281 933 1175.757813 C 952.453125 1185.347656 981.886719 1216 1002.535156 1192 C 1005 1189 1007.289063 1185.601563 1009 1182 C 1003.257813 1183.019531 998 1186.796875 992 1186.15625 C 982.328125 1185.132813 973 1177.648438 965 1172.800781 C 953.253906 1165.765625 940.726563 1160.199219 928 1155.203125 C 909.527344 1148 890.988281 1148.199219 872 1143.765625 C 852.222656 1139.148438 833.714844 1130.035156 817 1118.65625 C 807.753906 1112.359375 799.496094 1105.183594 793 1096 C 788.617188 1089.714844 784.855469 1079.75 778 1076 M 538 1108 C 542 1113.367188 552.179688 1110.707031 558 1110.050781 C 577.695313 1107.832031 599.304688 1098.605469 611 1082 C 597.699219 1085.160156 586.398438 1095.101563 574 1100.6875 C 563 1105.585938 549.804688 1107.066406 538 1108 M 856 1090 C 876.6875 1123.074219 917.898438 1149 957 1149 C 954.367188 1145.273438 950 1146.226563 946 1145.714844 C 938.414063 1144.777344 930.949219 1143 924 1139.691406 C 907.941406 1132.285156 894 1119.289063 881 1107.714844 C 873.242188 1101 866.457031 1092.507813 856 1090 M 1234 1100 L 1233 1101 L 1234 1100 M 537 1157 L 537 1159 C 574.207031 1159 613.671875 1134.171875 632 1102 C 618.421875 1106.324219 608.671875 1120.117188 598 1129 C 579.8125 1144 560.476563 1154.03125 537 1157 M 727 1113 C 723 1126.394531 713.902344 1139 707 1151 C 691 1178.679688 674.253906 1206.722656 651 1229 C 625.335938 1253.503906 593.636719 1273.652344 582 1309 C 571 1342.011719 583.476563 1403.777344 625 1410 C 617.46875 1393.097656 603.660156 1382.289063 604 1362 C 605 1310.34375 656.523438 1292.515625 687.828125 1262.574219 C 713.398438 1238.125 725.714844 1195.5625 726 1161 L 724 1161 C 723.917969 1190.40625 708.613281 1221.277344 687 1240.828125 C 670.597656 1255.667969 650.695313 1266.335938 635 1282.015625 C 607.269531 1309.761719 593.265625 1349 602 1387 L 601 1387 C 592.246094 1366.1875 583.203125 1349.761719 586.289063 1326 C 591 1288.660156 624.839844 1264.746094 651 1241.714844 C 679 1217 700.742188 1184.191406 715.859375 1150 C 720.816406 1138.792969 728.734375 1125.390625 729 1113 L 727 1113 M 489 1210 C 503.746094 1205.628906 516.671875 1192 531 1185.308594 C 554.589844 1174.507813 579.773438 1168.113281 604 1159.050781 C 615.433594 1154.773438 630.558594 1149.082031 638 1139 C 623.234375 1141.539063 609.332031 1150.175781 595 1154.566406 C 558.566406 1165.726563 505.9375 1169.535156 489 1210 M 400 1210 L 399 1210 C 394.320313 1193.597656 400.601563 1184 402 1168 C 392.300781 1175.160156 386.675781 1192.214844 389.707031 1204 C 390.792969 1208.207031 398.417969 1222.390625 404.398438 1218.710938 C 406.847656 1217.203125 405.929688 1212.375 406 1210 C 406.375 1202.664063 409.777344 1196.113281 411 1189 L 412 1189 C 412.324219 1196.058594 414.945313 1202.550781 422 1205 C 422 1198.390625 420.710938 1191.261719 423.363281 1185 C 430 1169.003906 446.996094 1159.179688 453 1143 C 423.902344 1145.539063 400 1182.09375 400 1210 M 750 1148 C 750 1190.050781 755 1239.453125 788 1269.714844 C 808.21875 1288.226563 833.628906 1296.257813 857 1309.425781 C 879.601563 1322.15625 902.894531 1340.777344 930 1341 L 930 1342 C 919 1343.613281 909.3125 1346.6875 898 1346 C 870.1875 1344 844.851563 1326.050781 829 1304 L 828 1304 C 833.835938 1336.710938 876 1353.003906 905 1353 C 918.253906 1353 937 1350.535156 942 1336 C 923 1336 902.910156 1330.75 888 1318.6875 C 877 1310 869.382813 1298 858 1289.746094 C 840 1277 818.726563 1269.710938 801 1256.523438 C 764.660156 1229.480469 753.839844 1190.804688 752 1148 L 750 1148 M 1078 1204 C 1084.25 1201.570313 1086.90625 1197.140625 1089 1191 C 1091.882813 1196.121094 1093.570313 1202.078125 1093.742188 1208 C 1093.824219 1211 1091.925781 1216 1094.742188 1218 C 1100.488281 1222.230469 1107.550781 1209 1108.777344 1205 C 1112.382813 1193.492188 1108 1174.039063 1097 1168 C 1100.839844 1182.0625 1105 1193.304688 1101 1208 C 1095.257813 1189.101563 1090.683594 1171.707031 1075.960938 1157.039063 C 1073.378906 1154.46875 1057.402344 1142.625 1054.710938 1150.316406 C 1052.820313 1155.71875 1062.902344 1165.140625 1065.886719 1169 C 1076.214844 1182.351563 1079.320313 1187.273438 1078 1204 M 1230 1163 L 1229 1164 L 1230 1163 M 269 1164.332031 C 269.773438 1164.332031 269 1164.832031 268.667969 1164.667969 L 269 1164.332031 M 1232 1164 L 1231 1165 L 1232 1164 M 1169 1165 L 1170 1169 L 1169 1169 C 1168.691406 1167.242188 1168.59375 1166.660156 1169 1165 M 499 1227 C 507.988281 1223.195313 515.441406 1215.324219 524 1210.425781 C 538.988281 1202 555.320313 1195.714844 570 1186.574219 C 572.664063 1185 591.488281 1174.640625 588.824219 1171.015625 C 585.46875 1166.441406 566.820313 1175 563 1176.78125 C 547.167969 1184.203125 533 1194 519 1204.152344 C 510.820313 1210.117188 501.992188 1217 499 1227 M 989 1258 C 980.34375 1228 951 1203.457031 926 1187.003906 C 919 1182.453125 911.851563 1178.382813 904 1175.695313 C 902 1175.0625 897.628906 1173.152344 896.257813 1175.578125 C 894.945313 1178 898.632813 1180.675781 900 1182 C 905.269531 1186.519531 911 1190.359375 917 1194.050781 C 934 1204.738281 950.789063 1215.628906 964.996094 1230 C 973.59375 1238.699219 978.953125 1251 989 1258 M 776 1176 C 780.4375 1230.308594 842.175781 1239.375 877 1268.085938 C 896.234375 1284 915.175781 1309 940 1316 L 940 1317 C 925.363281 1317 910.714844 1312.246094 898 1305.136719 C 890.277344 1300.820313 883.617188 1294.488281 875 1292 C 885.808594 1309.28125 908.421875 1323.050781 929 1324 C 933.398438 1324.15625 958 1326.542969 956.246094 1319 C 955 1314.527344 948.648438 1313 945 1311.28125 C 935.695313 1307.265625 927.632813 1303 921 1295 C 905.859375 1276.417969 893.832031 1258.691406 873 1245.4375 C 849.910156 1230.742188 821.894531 1225.519531 800 1208.765625 C 788.171875 1199.714844 786 1185.722656 776 1176 M 471 1274 C 503.503906 1288 524.441406 1249.359375 543 1230 C 552.363281 1220.296875 563.78125 1212.667969 575 1205.34375 C 586.777344 1197.65625 610 1189.515625 617 1177 C 585.308594 1183.625 550.28125 1202.785156 527 1225.039063 C 515 1236.488281 506.675781 1252 493.996094 1262.382813 C 486.824219 1268.332031 478 1269 471 1274 M 603 1237 C 627.410156 1231.351563 653.925781 1206.214844 661 1182 C 654.992188 1185.238281 651.195313 1192.652344 647 1198 C 640.554688 1206.597656 633 1214.621094 625 1221.824219 C 618.933594 1227.238281 607.332031 1230.648438 603 1237 M 629 1183 C 608.425781 1212.203125 566.609375 1222.164063 542.171875 1248.039063 C 522.996094 1268.335938 522 1297.203125 504.675781 1318 C 498.390625 1325.53125 491.675781 1326.371094 484 1331 C 500.613281 1336 517.316406 1324.109375 530 1315 C 528.25 1328 518.753906 1340.765625 528.390625 1353 C 530.59375 1355.796875 534.71875 1360.71875 538.851563 1359.339844 C 542.507813 1358.117188 541.605469 1354 541.285156 1351 C 539.964844 1339.136719 546.328125 1331.140625 548 1320 L 549 1320 C 549 1335.527344 555.222656 1355.140625 568 1365 C 566.507813 1346.234375 559.710938 1331.238281 564.234375 1312 C 568 1295.460938 577.289063 1280.449219 587.375 1267 C 593.300781 1259.101563 601 1252.144531 605 1243 C 570.84375 1252.34375 560 1283.828125 547.574219 1313 C 542.597656 1324.628906 535 1335 535 1348 L 534 1348 C 530 1317.652344 550.855469 1299.0625 555 1271 C 543 1275.609375 535.355469 1288 527 1297 C 536.203125 1257.222656 571.371094 1237.703125 601 1214 C 608.953125 1207.636719 616.882813 1201.328125 623.984375 1194 C 627 1191 630.550781 1187.53125 629 1183 M 500 1209 C 491.898438 1213.726563 482.578125 1217.65625 473 1217 C 470.375 1216.699219 464 1214 462.660156 1217.445313 C 460.671875 1222.269531 467.875 1223.804688 471 1224 C 478.792969 1224.351563 501.503906 1220.144531 500 1209 M 913 1222 C 918.335938 1231.222656 928.242188 1236.105469 935.714844 1243.425781 C 948.664063 1256.109375 960.464844 1271.359375 977 1279.628906 C 990 1286.179688 1006.601563 1287 1021 1287 C 1014.289063 1273 997.417969 1272.300781 985 1265.675781 C 959.449219 1252.050781 943.777344 1226.546875 913 1222 M 741 1226 C 745.671875 1245.625 743.535156 1266.273438 749.4375 1286 C 758.972656 1318 794 1348.234375 828 1351 C 812.207031 1323.679688 776.554688 1315.484375 760.863281 1287 C 754 1274.6875 750.644531 1259.761719 748.25 1246 C 747 1239.625 746.832031 1230 741 1226 M 673 1234 C 649.464844 1255.679688 611.1875 1278.367188 606 1313 C 612.878906 1308.496094 617.289063 1296.617188 622.425781 1290 C 633 1276.191406 645.699219 1264.789063 659 1253.5625 C 664 1249.308594 674.480469 1241.476563 673 1234 M 756 1255 C 756.226563 1282.351563 781.933594 1295.34375 801 1310 C 822.46875 1326.257813 840.21875 1347.28125 865 1359 C 816.914063 1379.421875 768.335938 1343.566406 745 1304 L 744 1304 C 746 1328.382813 769.820313 1349.527344 787 1364.425781 C 793.78125 1370.304688 800 1377.398438 809 1380 L 809 1381 C 766.75 1379.179688 725 1338.519531 725 1296 L 723 1296 C 723 1313 725.660156 1330.25 734.453125 1345 C 744.734375 1362.25 760.921875 1375.027344 774 1390 C 764.785156 1388 754.195313 1384.292969 746 1379.535156 C 701 1353.429688 707.601563 1299.761719 719 1258 C 709.5625 1265 706.871094 1278.039063 704.804688 1289 C 702.195313 1303 703.488281 1316.128906 704.828125 1330 C 706.785156 1350.210938 707.285156 1368.617188 719 1386 C 689 1373.105469 683 1328.183594 689.898438 1300 C 692.429688 1289.632813 699 1280.386719 701 1270 C 693 1276 688.765625 1286.011719 685.203125 1295 C 674 1323.238281 676.75 1360.59375 699.171875 1382.824219 C 706.617188 1390.210938 717.347656 1396.476563 728 1397 C 730.304688 1397.066406 737.539063 1398.054688 738 1394.6875 C 738.855469 1390 728.910156 1385.628906 726 1383 C 719 1376.257813 714.777344 1366.527344 714 1357 L 715 1357 C 719.398438 1372 734.910156 1384.253906 749 1389.574219 C 756.9375 1392.570313 766 1393.65625 772.984375 1398.789063 C 775.707031 1400.792969 778.371094 1403.40625 778.445313 1407 C 778.5 1409.597656 775.269531 1416.078125 779.316406 1417.246094 C 784 1418.609375 786.757813 1411.34375 787.480469 1408 C 789.707031 1397.75 783 1389.171875 778 1381 C 790.253906 1386.273438 803.851563 1388.828125 817 1390.574219 C 820.347656 1391.019531 828.792969 1392.507813 830.671875 1388.566406 C 832.175781 1385.421875 828.277344 1382.777344 825.996094 1381.527344 C 816.738281 1376.476563 807.582031 1369.050781 798 1365 L 798 1364 C 819.53125 1367.179688 837.535156 1375.367188 860 1370.335938 C 868.234375 1368.492188 878 1365.050781 882 1357 C 858 1353.78125 839.835938 1334.355469 823.828125 1318.085938 C 809.695313 1303.71875 792.710938 1292.617188 778 1279 C 770 1271.570313 764.703125 1261.257813 756 1255 M 630 1372 L 629 1372 C 627.800781 1357 624.933594 1345 629.746094 1330 C 633.320313 1319 641.796875 1310.105469 645 1299 C 622.402344 1311.597656 616.523438 1343.402344 621.667969 1367 C 623.53125 1375.542969 627.496094 1384 634 1390 C 636 1391.816406 640.382813 1395.277344 643.382813 1393 C 647 1390.101563 641.910156 1382.804688 640.488281 1380 C 632.886719 1365 642.804688 1352.664063 645 1338 L 646 1338 C 647.667969 1359.132813 662.578125 1395 690 1389 C 684.605469 1383.832031 678 1380.234375 673.636719 1374 C 662.601563 1358.585938 665.703125 1337.546875 672.203125 1321 C 674.953125 1314 679.675781 1307.4375 681 1300 L 680 1300 C 666.167969 1321 661 1341.257813 661 1366 L 660 1366 C 657.929688 1352 652.886719 1339.574219 655.464844 1325 C 658.222656 1309.386719 668.808594 1298.550781 673 1284 C 665 1288.566406 659.339844 1298.363281 654.574219 1306 C 642.394531 1325.53125 630 1348.515625 630 1372 M 425 1302 C 428.417969 1311.820313 439.441406 1311.148438 448 1309.714844 C 468.269531 1306.320313 485.367188 1293.757813 504 1286 C 494.5 1282.023438 479.402344 1291.589844 471 1295.753906 C 454.582031 1304 442.574219 1307.011719 425 1302 M 527 1297 L 526 1298 L 527 1297 M 531 1314 L 530 1315 L 531 1314 M 853 1316 C 856.640625 1323.738281 865.761719 1327.621094 874 1328 C 868.785156 1320.773438 861 1318.601563 853 1316 M 729 1351 C 731.632813 1360.144531 737.957031 1369 748 1370 C 743.546875 1363 736.695313 1354.589844 729 1351 M 661.667969 1366.667969 C 661.722656 1366.722656 661.777344 1367.777344 661.332031 1367.332031 C 661.277344 1367.277344 661.222656 1366.222656 661.667969 1366.667969 M 720 1386 L 719 1387 L 720 1386 M 603 1387 L 602 1388 L 603 1387 M 775 1390 L 774 1391 L 775 1390 "/>
</g>
</svg>
