<?xml version="1.0" encoding="UTF-8"?>
<svg xmlns="http://www.w3.org/2000/svg" xmlns:xlink="http://www.w3.org/1999/xlink" width="1500pt" height="1500pt" viewBox="0 0 1500 1500" version="1.1">
<g id="surface1">
<path style=" stroke:none;fill-rule:nonzero;fill:rgb(0%,0%,0%);fill-opacity:1;" d="M 206 513 C 195.554688 515.15625 184.828125 518 176 524.210938 C 172.902344 526.394531 167.296875 530.308594 169.289063 534.816406 C 172.195313 541.394531 186.328125 542 187.230469 549.042969 C 187.707031 553 182.519531 555.8125 180.300781 558.171875 C 171.316406 567.726563 161.621094 585.308594 181 587 L 181 588 C 171.890625 590.109375 162.960938 594.351563 155 599.203125 C 152.558594 600.691406 147.398438 603.222656 147.921875 606.789063 C 148.707031 612.144531 170.195313 617 175 618 C 170.277344 622.085938 161.984375 626.386719 160.574219 633 C 158.570313 642.386719 175.515625 648.339844 182 651 C 174 656 165.554688 660.246094 159 667.015625 C 156.597656 669.554688 153.195313 673.148438 155.648438 676.785156 C 159.480469 682.476563 170.210938 683 176 686 C 167.921875 689.488281 158.746094 696.070313 156.265625 705 C 155.359375 708.257813 157.515625 712.355469 156.375 715.183594 C 153.636719 722 141.863281 720.121094 146.226563 731 C 148.757813 737.3125 154 743.300781 159 747.828125 C 161.339844 750 165.8125 752.527344 166.230469 756.003906 C 166.726563 760.140625 160.699219 763.476563 158.300781 766.089844 C 152 772.828125 131.226563 810.058594 153 804 C 140.949219 823.691406 136.699219 846.746094 128.199219 868 C 126.578125 872.058594 118.742188 886.402344 123.605469 890 C 128.769531 893.683594 147 885.234375 153 884 C 142.167969 912 137 937.070313 137 967 C 144.632813 965.234375 152.574219 962.535156 159 958 C 156 969.761719 156 982 156 994 C 159 992.203125 161.453125 989.574219 164 987 L 164 1009 C 168.746094 1006.539063 172.242188 1002.753906 176 999 C 172 1020 171.175781 1042.28125 177 1063 C 186 1056.308594 192.925781 1045.074219 201 1037 C 198.875 1046 200 1056 200 1065 C 200 1089.035156 202.417969 1113.378906 207 1137 C 212.988281 1133.160156 216.195313 1125.441406 222 1121 C 222.910156 1142 234.28125 1167.753906 244 1186 C 250.34375 1178.148438 254.734375 1164.796875 257 1155 L 258 1155 C 260.308594 1161.132813 263.691406 1167.328125 267 1173 L 268 1173 C 269.203125 1163.46875 270.921875 1153.613281 271 1144 L 272 1144 C 277.195313 1163 289.765625 1180.613281 298.742188 1198 C 303 1206.511719 307.515625 1216.324219 317 1220 C 317 1201.59375 314 1183.378906 314 1165 L 315 1165 C 317.316406 1178 327.246094 1190.707031 333.71875 1202 C 334.984375 1204.203125 338.925781 1213.101563 342.449219 1211.652344 C 346.367188 1210.046875 348.460938 1193.015625 349 1189 L 350 1189 C 352.367188 1202.277344 364 1216.140625 371.722656 1227 C 373.871094 1230.054688 378.292969 1237.792969 382.609375 1237.792969 C 385.53125 1237.792969 387 1232.113281 388 1230 C 392.941406 1238.46875 410.351563 1277.46875 419 1255 L 420 1255 C 424.167969 1268.164063 434.367188 1281.542969 442 1293 C 445.378906 1298.070313 448.4375 1304.175781 454 1307 C 454.488281 1301.019531 456.570313 1295.453125 459 1290 C 465.65625 1306 478 1320 491 1331.285156 C 493.972656 1334 500 1342.179688 504.722656 1340.578125 C 509.855469 1338.828125 511.378906 1320.816406 512 1316 C 521.492188 1327.546875 527 1342.347656 539 1352 C 541.324219 1347.585938 542.875 1343 544 1338 L 545 1338 C 548 1348.554688 556.410156 1359.253906 564 1367 C 565.582031 1368.597656 570.253906 1374.566406 573 1372.824219 C 575.890625 1371.003906 576.570313 1361.179688 577 1358 C 586.296875 1366.25 593 1380.675781 604.984375 1385.761719 C 612.875 1389.109375 609.824219 1373.757813 619 1379.746094 C 626 1384.410156 646 1407.121094 651 1391 C 661.175781 1400.730469 672.976563 1407.808594 686 1413 C 689.375 1414.34375 696.949219 1418.480469 700.21875 1415.21875 C 702.363281 1413.078125 701 1408.671875 701 1406 C 700.828125 1398 699.632813 1390.027344 699 1382 C 710.757813 1393.242188 727.429688 1406.519531 744 1409 C 740.402344 1396.515625 732 1385.546875 728 1373 C 740.617188 1386 752.441406 1398.65625 768 1408.1875 C 772.621094 1411.019531 780.40625 1416.449219 785.773438 1412.394531 C 790 1409.15625 789.855469 1402.746094 791 1398 C 794.484375 1401.328125 798.753906 1406 804 1405.757813 C 808.851563 1405.644531 812.214844 1400.179688 817 1403.375 C 822.527344 1407.066406 828.902344 1421.363281 835.898438 1421.363281 C 844.9375 1421.363281 845 1391.113281 855 1404 L 856 1404 C 857.953125 1400 859.992188 1390.539063 863.703125 1388 C 866.324219 1386.082031 871.855469 1388.191406 875 1387.8125 C 881.328125 1387.054688 886.816406 1381.164063 893 1381.070313 C 899.597656 1381 902.417969 1387.8125 910 1385.691406 C 919.878906 1383 926.40625 1373.160156 933 1366 L 933 1371 C 946.410156 1363.359375 957.1875 1350.8125 968 1340 C 968 1349 967.523438 1358.0625 966.910156 1367 C 966.746094 1369.40625 965 1374.199219 967 1376.1875 C 970.195313 1379.34375 982.222656 1371.113281 985 1369.25 C 999 1359.757813 1019.664063 1342.746094 1025 1326 L 1026 1326 C 1026 1335 1026.757813 1344.167969 1025.714844 1353 C 1025.433594 1355.378906 1023.746094 1361.019531 1026 1363 C 1031.417969 1367.238281 1047.75 1351.207031 1051 1348 C 1059.773438 1339.328125 1064.878906 1326.171875 1073.523438 1318.296875 C 1077.355469 1314.808594 1079.320313 1321.570313 1082.496094 1319.246094 C 1089.800781 1314 1097.175781 1297.183594 1101 1289 C 1103.699219 1295.09375 1105 1301.652344 1107 1308 C 1108.1875 1311.730469 1109.554688 1315.375 1111 1319 C 1112.363281 1322.417969 1114.765625 1332.394531 1119 1333.078125 C 1122.960938 1333.6875 1125.4375 1325.609375 1126.574219 1323 C 1131.671875 1311.320313 1137.167969 1300 1141.796875 1288 C 1143 1284.582031 1143.730469 1278.039063 1146.660156 1275.636719 C 1151.863281 1271.363281 1156.59375 1293.824219 1162.402344 1291.652344 C 1166.347656 1290.179688 1168.207031 1280.570313 1169 1277 C 1172.824219 1262.195313 1174.6875 1245.246094 1175 1230 L 1176 1230 C 1177.425781 1248.039063 1182.949219 1266 1183 1284 C 1192.761719 1279 1196.59375 1267.339844 1201.246094 1258 C 1214.660156 1231.082031 1218 1200.679688 1218 1171 L 1219 1171 C 1219 1195.761719 1224 1220.199219 1224 1245 C 1232.609375 1241 1237.535156 1229.152344 1241.742188 1221 C 1253.226563 1198.746094 1262.910156 1175.355469 1264 1150 L 1265 1150 C 1266.964844 1157.1875 1270.316406 1164.53125 1274 1171 L 1275 1171 C 1279.222656 1137.574219 1282 1105.75 1282 1072 C 1289 1080.28125 1293.945313 1089.625 1297.328125 1100 C 1298.933594 1105 1298.625 1113 1303 1116 C 1305.402344 1097.394531 1309 1081 1309 1062 C 1319.613281 1066.410156 1328.496094 1069.296875 1340 1070.089844 C 1343.753906 1070.347656 1349.269531 1072.316406 1352.398438 1069.257813 C 1356.558594 1065.183594 1352.976563 1054.765625 1351.882813 1050 C 1347.523438 1031.074219 1339.992188 1015.070313 1331 998 L 1353 1004 C 1352 983.203125 1341.359375 962.546875 1335 943 C 1342.558594 948 1349.402344 954 1357 959 C 1359.199219 960.445313 1363.496094 964.160156 1366.398438 963.183594 C 1369.964844 962 1366.882813 950.605469 1366.335938 948 C 1363 932.210938 1355.789063 918 1350 903 C 1357.503906 908 1366.207031 913 1375 915 C 1370.96875 895.511719 1361 878.402344 1352 861 C 1357.210938 866.222656 1361.703125 874.300781 1368 878 C 1368 855.210938 1362 833.746094 1348.964844 815 C 1343.585938 807.351563 1331.789063 800.34375 1328.460938 792 C 1326.480469 787.035156 1321.179688 776.101563 1320.828125 771.109375 C 1320.492188 766.367188 1328.464844 767.566406 1328.851563 762 C 1329.9375 746.300781 1310.785156 728.058594 1297 724 C 1301.484375 717.203125 1299.25 712 1296 705 C 1298.65625 705 1301.347656 705.121094 1304 705 C 1321.582031 704 1302.703125 680.105469 1297 675.679688 C 1294.710938 674 1290.253906 672.019531 1289.207031 669.125 C 1288.230469 666.425781 1298 664.644531 1297.886719 659 C 1297.457031 648.0625 1288 643.566406 1283.730469 635 C 1281.5 630.589844 1285.277344 626.011719 1282.464844 621 C 1277.328125 612 1267.351563 606.160156 1260 599 C 1257.691406 596.730469 1253 593.4375 1252.632813 590.003906 C 1251.992188 585.199219 1264.253906 576.390625 1267 572 C 1259.753906 569.644531 1252.46875 567.542969 1245 566 L 1245 565 C 1249.8125 562.796875 1253.867188 559.253906 1257 555 C 1254.582031 554.277344 1252.527344 554.050781 1250 554 L 1250 553 C 1252.980469 552.136719 1264.703125 542.8125 1258 542 L 1258 541 C 1266.445313 540.046875 1264.574219 534.09375 1261.679688 528 C 1256.886719 518 1249.234375 508 1239 503 C 1244 498.25 1251.269531 493.730469 1253.992188 487 C 1259.433594 473.539063 1241.171875 466.503906 1231 465 C 1246.464844 447.769531 1238.34375 424.34375 1235.429688 404 C 1233.910156 393.402344 1234 382.683594 1234 372 C 1234 347.078125 1244.257813 323.089844 1241.828125 298 C 1239.824219 277.289063 1231 257.132813 1223.398438 238 C 1214.5 215.734375 1205.964844 193.320313 1197.203125 171 C 1191 155.34375 1188.832031 137.828125 1180.6875 123 C 1170 103.820313 1148.925781 95.167969 1128 93.171875 C 1046.695313 85.398438 1001 159.242188 952.910156 211 C 935.6875 229.488281 916.914063 243.203125 896 257 C 897.542969 253.019531 899.273438 249.21875 900 245 C 888.4375 247.675781 876.867188 253.492188 867 260 L 867 240 C 858 243 850.664063 250.621094 844 257 L 844 242 C 840.292969 244.609375 837.203125 247.796875 834 251 C 834 247.789063 834.984375 242.277344 832.820313 239.605469 C 830.636719 237 826.410156 239.128906 824 240.261719 C 816.597656 243.742188 809.816406 249.742188 802 252.179688 C 793.785156 254.746094 798 242.753906 790.957031 243.648438 C 784.453125 244.46875 776.621094 252 772 256.089844 C 770.546875 257.417969 767.238281 261.824219 764.855469 260.792969 C 761.949219 259.535156 761.371094 250.75 761 248 C 751.738281 252.40625 743.542969 262 739 271 L 738 271 C 738 268.359375 740 260 737.957031 258.132813 C 732.953125 254 725.453125 268.503906 720.609375 266.792969 C 717.972656 266 715.855469 261.046875 713.90625 259.09375 C 705.886719 251.0625 685.355469 239 691 259 C 686.941406 255 678 241.207031 672 241.207031 C 665.917969 241.207031 668 251.019531 663.683594 252.792969 C 659 254.601563 651.59375 234.363281 650 231 L 649 231 C 646.824219 234.824219 645 238.753906 644 243 L 643 243 C 641.1875 235.363281 637.257813 228 633.753906 221 C 632.859375 219.21875 631.265625 214.207031 628.742188 214.207031 C 624 214.207031 619.878906 232.199219 619 236 L 618 236 C 615 227.832031 609.285156 221.011719 605.875 213 C 605 211 604.175781 205.742188 600.949219 207.175781 C 594.394531 210.085938 593.261719 225.300781 586.828125 226.367188 C 581 227.316406 581.554688 216.046875 577.546875 214.347656 C 575.359375 213.417969 573.421875 217.640625 572.617188 219.003906 C 569.320313 224.582031 567.308594 230.6875 566 237 L 565 237 C 560 220.441406 555 242.363281 555 249 C 540.589844 241.417969 539.289063 233.804688 530.921875 221 C 523.398438 209.488281 514.886719 198.679688 507.574219 187 C 489.933594 158.820313 472.238281 130.019531 449 106.003906 C 438.339844 95 426.652344 83.675781 412 78.066406 C 398.328125 72.832031 386 75.164063 372 75 C 363 75 354.949219 73.398438 346 75.285156 C 309.882813 83 293.691406 129.824219 278.753906 159 C 264.480469 187 248.382813 215.175781 241.234375 246 C 238.890625 256.117188 239.421875 266.765625 237.574219 277 C 230.710938 315.074219 224.753906 353.230469 216.425781 391 C 214.988281 397.507813 216.332031 404.722656 214.566406 411 C 212.945313 416.730469 206.28125 418 202 421.054688 C 195.398438 426 188.714844 434.136719 185.96875 442 C 181 455.785156 201.65625 452.074219 201.960938 460.300781 C 202 463.75 195.972656 469.117188 194.929688 473 C 193.277344 479.136719 196 484.03125 196.617188 490 C 196.886719 493.265625 194.585938 496 194.71875 499 C 194.964844 505 202 509.515625 206 513 M 544 292 L 543 292 C 537.234375 283.453125 531.601563 273 524 266 C 524 279.0625 527.730469 292 528 305 C 521.894531 302 516.851563 296.8125 512 292 C 512.550781 304.800781 517 316.5 519 329 C 501.535156 322.226563 483.738281 314 479 294 L 478 294 C 478 309.726563 489.328125 322.484375 489.960938 338 C 490 341.570313 489.929688 353 484 352.078125 C 478.417969 351.316406 471.777344 340.363281 467 337 C 466.910156 347.773438 464.964844 359.410156 463 370 C 455.65625 366.191406 443.285156 357.019531 438.859375 350 C 435 344.070313 435.195313 337.007813 430.84375 331 C 421.300781 317.828125 408.730469 307.371094 402.453125 292 C 396.277344 277 392.699219 252.179688 379 242 L 378 256 C 364.890625 250 358.4375 232.339844 349 222 C 347.683594 227.691406 345.886719 233.476563 344 239 C 338 232.652344 335.796875 223.273438 331 216 C 322.363281 237.046875 312.667969 259 311 282 C 309.382813 307 318.371094 332.796875 328.890625 355 C 340.988281 380.542969 364 393.148438 364 424 L 363 424 C 356.527344 410.375 344.320313 400 336.605469 387 C 322.511719 363.300781 310.570313 331 305 304 L 304 304 C 304.683594 320 310 336 314.574219 351 C 322.839844 379.285156 330.925781 403 346.574219 428 C 353.382813 439 359 450.492188 364.753906 462 C 366.230469 465 370.617188 471.070313 368.785156 474.484375 C 366.628906 478.511719 357.726563 477 354 477.285156 C 332 480 318.8125 472 300 463 C 314.859375 482.261719 330.363281 492 355 492 L 355 493 C 348.644531 494.832031 343.421875 499.171875 337 500.761719 C 321.566406 504.578125 303 501.226563 288 497 C 295.40625 504.484375 310.632813 510.207031 321 511.699219 C 326.347656 512.472656 333 510.621094 337.867188 514 C 343.75 518 341.8125 525.554688 335 526.769531 C 326.347656 528.316406 316 523.625 308 521 C 309.746094 525.617188 312.679688 529.644531 315 534 C 308.835938 531.664063 303.742188 527.195313 298 524 C 304.34375 535 314.207031 546.015625 318 558 C 313.742188 557.015625 304.367188 552.003906 300.601563 555.617188 C 297.429688 558.667969 300.957031 565.175781 295.851563 566.683594 C 287.972656 569.007813 276.796875 563.511719 269 562 C 272.339844 567.660156 281.804688 579 277.96875 585.816406 C 273.652344 593.59375 260.453125 598.683594 254 605.039063 C 252.4375 606.597656 246.945313 611.433594 249.710938 614 C 252.6875 616.671875 259.96875 612.363281 263 611.355469 C 271.652344 608.472656 280.546875 607 289 611 L 289 612 C 275.804688 612.035156 249.820313 614.363281 241 625 C 260.648438 622.503906 280 615.054688 300 615 C 291 605.277344 273 604.039063 261 605 L 261 604 C 269 601.4375 276.28125 596 284 592.308594 C 286.800781 591.007813 291.480469 589.679688 291.746094 586 C 292 580.738281 285.238281 574.496094 283 570 C 288.710938 571.183594 296 575.050781 301.980469 573.667969 C 307.515625 572.359375 305.46875 566.585938 309.316406 564.027344 C 314.167969 560.800781 323.636719 564.574219 329 565 L 324 550 C 326.496094 550.316406 335.695313 552.8125 337.429688 550.398438 C 339.269531 548 331.324219 537.488281 330 535 C 339.492188 537.675781 348.636719 541 358 544 C 356 540.59375 349.929688 534.632813 350.945313 530.433594 C 351.984375 526.113281 367.316406 526.15625 371 526 C 366.277344 519.433594 358 516 354 509 C 371.660156 508.242188 383.90625 509.535156 401 515 C 397 503.414063 389.765625 492.222656 379 486 L 379 485 C 392.296875 488.828125 405.761719 493.691406 419 498 C 414.777344 490.039063 408.460938 483.722656 404 476 C 417.425781 476.109375 429.746094 482.421875 443 483 C 436 473.496094 427 463.085938 423 452 C 438 458 453.839844 460 469 465 C 464.90625 456.230469 453.925781 449.238281 446 444 L 446 443 L 463 442 C 453.90625 433 441.628906 426.367188 434 416 C 448.207031 418.753906 461.648438 425.066406 476 427 C 467.894531 416.410156 453.863281 413 447 401 C 458.75 405.53125 470.507813 408.421875 483 410 C 469.914063 399 454.332031 391.160156 448 374 C 461.722656 378 474 386.035156 488 390 C 486.613281 387.355469 485 384.757813 484 382 C 473.222656 356.007813 506.425781 374.117188 516 380 C 511.570313 369.730469 502.644531 362.121094 500 351 C 507.203125 355.105469 513.285156 360.765625 521 364 C 516.941406 354.304688 510.484375 346 505 337 C 513.863281 340.691406 521.863281 346 531 349 L 531 333 L 532 333 C 535.445313 338.605469 538.929688 344.382813 544 348.691406 C 545 349.585938 548.277344 352.617188 549.800781 351.09375 C 551.183594 349.710938 550 344.757813 549.914063 343 C 549.226563 334.398438 548.574219 325.480469 547 317 L 548 317 C 552.339844 327.425781 558.171875 346.023438 567 353 C 567 332.074219 570.699219 304.523438 554 288 C 554 294.4375 553.808594 300.613281 553 307 L 552 307 C 547.417969 297.199219 545.996094 291 546 280 C 546 278.058594 545 271.207031 548.316406 271.207031 C 554.425781 271.207031 563 284.492188 568 288 C 566 282.160156 565 276.132813 565 270 L 566 270 C 569.320313 284.003906 576.226563 296.707031 579 311 L 580 311 C 581.945313 295.59375 583 280.535156 583 265 L 584 265 C 586.328125 269.09375 587.636719 273.644531 591 277 C 591 264.175781 591.910156 250.558594 598 239 L 599 239 C 606 251.03125 611.445313 269.152344 621 279 C 621.199219 269.644531 626.449219 262 628 253 C 639.175781 259.128906 644.300781 277.777344 653 287 L 652 271 C 660.316406 275 662.757813 284 669 290 C 669 284.71875 670.398438 280.007813 672 275 C 682.984375 282.644531 692.566406 292.589844 703 301 L 703 274 C 719.339844 280.328125 719.894531 301.324219 733 311 C 733.25 299 739.519531 282.367188 751 277 C 750.367188 287 754.503906 310.527344 761 318 C 761.734375 301.171875 773.300781 279.675781 787 270 L 787 279 C 794.320313 274.503906 801.671875 269.398438 810 267 L 805 292 C 817 284 837.578125 259.285156 840 287 C 844.722656 283.523438 847.332031 278.015625 853 276 C 854.199219 284 858.8125 291 860 299 C 865.632813 293.367188 870.988281 288 878 284 C 877.300781 289.429688 868 312 874 314.164063 C 878.5625 315.738281 883.941406 311.28125 888 310 C 886.945313 318.355469 887 326.578125 887 335 C 895.503906 329.683594 901.632813 321.535156 910 316 C 909.957031 321.015625 907.402344 330 913 333 C 916.300781 334.472656 920.472656 331.820313 922.820313 335.320313 C 926.703125 341.097656 922.804688 351.769531 922 358 C 934 349.441406 946.699219 341.136719 959 333 C 958.539063 343.546875 954.183594 354.8125 949 364 C 946.222656 369.300781 940.601563 375.667969 940.476563 382 C 940.386719 386.484375 944.78125 388.734375 947 392.089844 C 949.71875 396.179688 950 401.296875 951 406 C 960 398.300781 972.4375 387 983 382 C 977.921875 397.609375 970.210938 411.125 960 424 C 971.722656 416.246094 981.722656 406 994 399 C 992.6875 414.050781 981 424.089844 971 434 C 983 430 997.464844 423.609375 1005 413 C 1001.460938 415.058594 997.878906 416.679688 994 418 C 996 405.46875 1004.265625 395 1006 382 C 1002.871094 384.195313 997.566406 391.085938 993.511719 390.832031 C 988.855469 390.542969 988 370.644531 988 367 C 976.457031 375.121094 968.398438 385.667969 954 389 C 954.433594 379.066406 958.835938 369.605469 961 360 C 964 347.210938 965.730469 333.128906 966 320 C 956.21875 329.359375 944.222656 339.191406 931 343 C 933.789063 333.167969 938.652344 324 941 314 C 935 318.210938 928.390625 321.683594 922 325.136719 C 920.390625 326.003906 916.863281 328.375 915 327 C 912.839844 325.0625 914.929688 319.195313 915.476563 317 C 917.972656 307 922.957031 298.382813 927 289 C 918 295.265625 911.882813 304.808594 902 310 C 894.558594 313.664063 890 310 892.597656 302.003906 C 893.242188 300 894.191406 298 895 296 L 883 298 C 885.4375 294.527344 890.484375 285 894.222656 283.300781 C 896.671875 282.191406 901.992188 285.085938 905 285 C 915.453125 284.285156 924.839844 278.761719 931.570313 271 C 969.753906 227 1004.1875 173 1052 138.710938 C 1077.964844 120.121094 1110.59375 108.105469 1142 120.066406 C 1159.496094 126.730469 1163.195313 143 1168.34375 159 C 1173 174 1178.652344 188.425781 1184.191406 203 C 1197.433594 237.820313 1217.464844 274.769531 1216.980469 313 C 1216.722656 333.46875 1204.929688 351.683594 1204 372 C 1203.386719 387 1208.1875 401.015625 1212.65625 415 C 1215.71875 424.585938 1219.398438 436.132813 1215.386719 446 C 1209.476563 460.535156 1188.539063 472 1177 482 L 1227 483 L 1227 484 C 1211.863281 489.152344 1198.730469 499.359375 1183 503 L 1183 504 C 1200.9375 505.414063 1221.644531 507 1233 523 C 1210.863281 517 1191 515 1168 515 C 1176.472656 522 1187.171875 521.453125 1196 527 C 1191 529.824219 1185 531.101563 1181 535 C 1196.753906 537 1212.328125 536.765625 1228 540 L 1228 541 C 1217.257813 542 1205.398438 544.65625 1196 550 C 1204 552.289063 1212.511719 554.824219 1221 555 C 1216.210938 564.21875 1198.332031 566 1189 568 L 1189 569 C 1203.445313 571 1217.730469 575.054688 1232 578 C 1227.859375 584.816406 1219.773438 585 1213 582.121094 C 1198.367188 576.042969 1182.996094 568.769531 1167 567.171875 C 1152.257813 565.695313 1138.8125 570.054688 1124 567 L 1124 566 C 1140 561.339844 1157.425781 546 1170 535 C 1154.738281 535.125 1140.902344 539 1126 533.1875 C 1121.566406 531.5 1114 529 1114.425781 523 C 1114.804688 515.464844 1124.933594 507 1129 501 C 1112.3125 504.109375 1091.976563 502.398438 1085 484 C 1090.691406 485.617188 1096.996094 488.402344 1103 487.683594 C 1119 485.765625 1129.527344 470.675781 1145 467 L 1145 466 C 1126.585938 467.503906 1110.957031 478.816406 1092 473 C 1078 468.648438 1069.5 449.160156 1056 449 C 1072.535156 425.523438 1096.570313 407 1111.394531 382 C 1121.753906 364.589844 1122 344.253906 1131.324219 327 C 1135.722656 318.804688 1143.671875 313.21875 1148 305 C 1151.527344 298.589844 1151.59375 291.0625 1152 284 C 1152.375 280 1154 275.09375 1152.257813 271.132813 C 1150.257813 266.589844 1144.976563 267.578125 1141 268.132813 C 1130.375 269.605469 1119.617188 272.460938 1110 277.269531 C 1092.984375 285.777344 1086 299.558594 1072.996094 312 C 1064.746094 319.652344 1054.410156 324.664063 1046 332.175781 C 1035.628906 341.429688 1028.675781 352.609375 1021 364 C 1050 361.621094 1071 335.773438 1097 325 C 1088.882813 337.277344 1081.78125 351.179688 1073.210938 363 C 1069.539063 368.058594 1063.242188 370.632813 1060 376.015625 C 1050.964844 391.601563 1049.648438 411.410156 1029 418 C 1032.316406 412.699219 1036.597656 408.40625 1041 404 C 1019.503906 410 995.859375 426.78125 981 443 C 991.914063 440.476563 1001.449219 434.570313 1012 431 C 1007.972656 439 1000.96875 445.523438 995 452 C 1004.503906 447.5625 1013.402344 441.566406 1024 440 C 1019.484375 446.488281 1013.433594 451.78125 1010 459 C 1014.933594 456.402344 1019.703125 453.804688 1025 452 C 1022.585938 455.667969 1019.894531 459.015625 1018 463 C 1030.320313 459.503906 1042.246094 455.613281 1055 454 C 1047.640625 464.421875 1035.445313 470.429688 1028 481 C 1044.277344 475.707031 1057.371094 476.351563 1072 486 L 1072 487 C 1063 485 1055.25 486.640625 1047 490 L 1047 491 C 1058.652344 491.03125 1070.96875 495.234375 1078 505 C 1075 505.261719 1062.769531 507.457031 1063.632813 512 C 1064.285156 515.441406 1072.28125 517.421875 1075 518.757813 C 1084.46875 523.410156 1100.398438 529 1107.621094 536.632813 C 1112.632813 542 1098.378906 545.054688 1097.769531 550.015625 C 1097 555.777344 1105 556 1106.652344 559.8125 C 1108.167969 563.808594 1096.253906 572 1094 575 C 1113.820313 568.289063 1128.757813 586 1149 586 C 1147.585938 591 1144.960938 595.292969 1143 600 C 1164.886719 601 1185.644531 606.363281 1204 618.671875 C 1207.675781 621.132813 1220.90625 628.730469 1219.167969 634.382813 C 1218.351563 637.039063 1212.613281 634.757813 1211 634.277344 C 1201.898438 631.585938 1194.308594 627.421875 1186 623 C 1189.816406 631.433594 1192.308594 644.035156 1198.226563 651 C 1212.457031 667.714844 1234.449219 679 1238 703 C 1218.980469 697 1208.820313 677.308594 1188 673 C 1192.691406 677.152344 1199 679.527344 1204 683.617188 C 1211.425781 689.703125 1217.277344 697.65625 1226 702 L 1226 703 C 1211.339844 702.695313 1197.667969 695.628906 1183 695 C 1192.519531 706.808594 1202.539063 719.183594 1209 733 C 1203.953125 733.398438 1199 734 1194 734 C 1200.195313 743.492188 1204.683594 752.816406 1207 764 C 1200.980469 762.757813 1195 760.820313 1189 760 C 1195.625 768.683594 1201.800781 779 1206 789 C 1190.316406 786.300781 1178.609375 772.285156 1168.574219 761.015625 C 1160.621094 752.085938 1151 742.394531 1170 742 C 1163.441406 735.445313 1147 728.421875 1143 720.6875 C 1140.386719 715.445313 1150.640625 713 1145.742188 707.214844 C 1137.738281 698 1111.753906 701.613281 1121 686 C 1080.503906 685.664063 1047.929688 664 1010 653.425781 C 991.476563 648.273438 967.863281 643.699219 956 627 C 960.855469 628.148438 965.359375 630.199219 970 632 C 957.335938 619.199219 934.226563 606.785156 916 606 L 916 607 C 941.34375 612 953.929688 631.550781 960 655 L 959 655 C 947.410156 636.132813 928.644531 615.1875 904 617.464844 C 892.199219 618.554688 883 624.824219 872 628 C 879.621094 614.75 895.535156 604.699219 909 598 L 909 597 C 886 600.078125 855.382813 613.546875 851 639 L 849 639 L 849 635 C 842.8125 641.121094 835.832031 666.003906 829 646 L 828 646 C 828 661.023438 822 680.707031 825.929688 695 C 829 706.726563 841 713.726563 848 723 C 857.796875 735.746094 865 750.214844 876 762 C 888.484375 775.308594 905.359375 784.074219 922 791 C 898 769 873.320313 752.148438 858.246094 722 C 855.824219 717.152344 844.984375 698.003906 850 693.03125 C 853.679688 689.4375 865.234375 696.15625 869 697.574219 C 884.5625 703.445313 900.617188 709.300781 917 712.390625 C 920.683594 713.085938 931.464844 716.15625 933.792969 711.429688 C 935.390625 708.195313 925.683594 707.148438 924 707 L 924 706 C 933.5625 704.707031 942.617188 700.109375 950 694 L 945 693 C 948.34375 688.253906 953 684.765625 956.441406 680 C 960.601563 674 961.925781 665 969 661.179688 C 974.460938 658.328125 980.734375 661 986 662.644531 C 996.972656 666.285156 1008.863281 668.234375 1019 674 L 1019 675 C 1012.851563 679.050781 1006.339844 682.007813 999 683 L 999 684 C 1015.898438 684 1033.914063 685.085938 1050 690.695313 C 1060.539063 694.371094 1069.808594 700.472656 1080 705 C 1087.351563 708.007813 1095.878906 709.128906 1102.894531 713 C 1108.378906 716 1107.839844 722.464844 1111.417969 727 C 1115.917969 732.601563 1123.246094 734.601563 1130 736 L 1130 737 C 1127.199219 737.675781 1119.789063 739.476563 1121.207031 743.789063 C 1122.460938 747.601563 1130.75 748.761719 1134 750.15625 C 1144.828125 754.804688 1154.476563 762 1164 768.710938 C 1174.398438 776.171875 1178.566406 783.761719 1163 785 L 1163 787 C 1173 787 1182.957031 787.730469 1193 789 L 1193 790 C 1180.707031 793.363281 1167.710938 801.144531 1164 814 C 1179.421875 809.570313 1202.996094 832.785156 1214 842 C 1199 850.621094 1183 845.691406 1167 845 C 1175.449219 862.757813 1195.589844 871.324219 1204 889 C 1189.875 885 1176.480469 874 1165 865 C 1171.167969 876.714844 1178.867188 887.316406 1183 900 C 1174.710938 898.757813 1167.316406 894 1160 890 C 1165.5 898.085938 1171.679688 906 1175.394531 915 C 1176.355469 917.355469 1178.761719 921.800781 1177.355469 924.355469 C 1176 926.683594 1171.714844 924.578125 1170 924 C 1162.425781 921.082031 1155.921875 916.4375 1150 911 C 1150 917.59375 1149.808594 924 1152.832031 930 C 1154.171875 932.6875 1158.652344 937.273438 1156.863281 940.484375 C 1153.898438 945.8125 1141.542969 941.578125 1137 941 C 1138.523438 943.609375 1139.839844 946.214844 1141 949 C 1136.429688 947.078125 1118.804688 932.664063 1121 946 C 1114.925781 946 1109 944.761719 1103 944 L 1103 945 C 1114.234375 946.511719 1125 947 1127 960 C 1113.765625 956.1875 1102.679688 948.371094 1089 945 L 1089 944 L 1098 944 L 1098 943 C 1095.8125 942.824219 1091.625 943 1090 941.011719 C 1088.308594 938.65625 1091.257813 932.46875 1092 930 C 1094.613281 921.679688 1097 903.316406 1107.773438 915.015625 C 1108.847656 916.195313 1109.738281 917.566406 1110.425781 919 C 1111.90625 922.085938 1112.1875 925.703125 1113 929 C 1118.328125 919 1117.921875 911.683594 1115 901 C 1113.367188 895 1109.996094 887.101563 1116 883 C 1108.375 879.519531 1118.253906 879.199219 1122 881 L 1119 884 C 1130.316406 884 1141.9375 884.359375 1153 887 C 1146.835938 882.304688 1137 885 1130 882 C 1124.332031 879.464844 1125.464844 875.636719 1131 875 C 1127 865.53125 1119.550781 857.339844 1118 847 C 1124.335938 848.308594 1130.535156 850.472656 1137 851 C 1132 844.238281 1127.46875 836.417969 1126.300781 828 C 1125.875 825 1125.660156 818.816406 1130 818.710938 C 1138 818.523438 1148.960938 832.449219 1155 837 C 1151.535156 828.671875 1147.695313 820.648438 1145 812 C 1144.300781 809.644531 1142.273438 805.03125 1144.644531 803.027344 C 1147.394531 800.703125 1153.71875 803 1157 803 L 1157 802 C 1152.863281 801.476563 1145.367188 801.648438 1142.746094 797.8125 C 1140.980469 795.226563 1143.9375 791.175781 1143 788 C 1140.679688 779.1875 1132.910156 774.292969 1125 771 L 1125 770 L 1142 769 L 1142 768 C 1132.167969 766.175781 1121.90625 764.335938 1112 763 C 1114.480469 765.554688 1116.503906 767.777344 1118 771 C 1014.636719 769 932.605469 827.394531 862 898 C 882.214844 885.367188 897.625 865.484375 916 850.425781 C 957.804688 816.160156 1005.4375 787.511719 1059 776.800781 C 1076.757813 773.25 1096.902344 770 1115 772.429688 C 1121.191406 773.316406 1129.210938 774.03125 1133.484375 779.214844 C 1139 786 1131.707031 786.746094 1131.242188 792.144531 C 1130.984375 795.097656 1133.6875 798.507813 1135 801 C 1055.425781 801.660156 979.53125 841.027344 917 887.117188 C 902.59375 897.734375 882.367188 906.503906 870 919 C 899.722656 906.621094 925 881.0625 952 863.691406 C 987.28125 841 1026.777344 825.261719 1067 814 C 1083 809.277344 1099.40625 806.785156 1116 804.574219 C 1120.9375 804 1130.203125 801.039063 1134.683594 804.027344 C 1138 806.320313 1137 812.460938 1137 816 C 1133.488281 814.132813 1127.316406 808.816406 1123.515625 812.410156 C 1120.199219 815.546875 1121.679688 821.417969 1116.890625 823.398438 C 1111.460938 825.640625 1104.3125 822.21875 1099 821 C 1105 827.070313 1110.820313 833.5 1115 841 L 1108 840 C 1113.492188 849.410156 1120 859.441406 1123 870 C 1118.410156 869.457031 1109 868.148438 1105.832031 872.433594 C 1103.292969 875.789063 1105.980469 879.410156 1102 882 L 1102 883 C 1109 884.472656 1113.214844 896.234375 1110.257813 903 C 1106.875 910.421875 1098.632813 900.242188 1095 904.53125 C 1093.234375 906.667969 1093.730469 911.347656 1093 914 C 1091.367188 921.28125 1089 929.273438 1085.671875 936 C 1084.832031 937.664063 1078.546875 945.050781 1076.8125 940.382813 C 1075.699219 937.382813 1079.28125 931.105469 1080 928 C 1076 932.136719 1072.570313 937.519531 1067 939.574219 C 1058.472656 942.722656 1047.746094 939.003906 1039 938.171875 C 1025.875 937 1012 938.191406 999 939.089844 C 990.238281 939.691406 976.542969 944.054688 968 941.679688 C 964.25 940.574219 965.304688 936.085938 964.605469 933 C 963.34375 927.425781 957 922 965 919 L 965 918 C 953.824219 918.230469 939.417969 923.695313 932.652344 933.039063 C 929.53125 937.347656 930.351563 944.820313 925.773438 948 C 916.808594 953.808594 899.507813 954.039063 889 957 L 889 958 C 898.429688 956.78125 907.738281 954.007813 917 952 C 919.785156 951.242188 925.625 949.03125 927.394531 952.449219 C 929.765625 957.027344 925.769531 962.808594 922.894531 966 C 915 974.609375 905.796875 981.613281 900.257813 992 C 890.910156 1009.535156 880.539063 1026 864 1037.558594 C 825.523438 1064.523438 763.722656 1062.492188 722 1044 L 722 1043 C 729.195313 1044.714844 736.6875 1043.796875 744 1045.085938 C 752 1046.496094 759.738281 1050 768 1050 C 774 1050 779.90625 1047.496094 786 1047 L 781 1040 C 795.421875 1040 809.65625 1038.117188 824 1038 C 814.917969 1025.144531 796.871094 1021.546875 788.265625 1009 C 776.761719 992.027344 808 967.433594 821 962 L 821 961 C 814.984375 962.164063 799.199219 967 798.191406 957 C 797.507813 950.222656 803.722656 944.066406 807.277344 939 C 816 926.457031 832 905 822.773438 889 C 816.578125 878.382813 804.878906 872.230469 794 867.578125 C 770.703125 857.617188 742.363281 852.351563 717 854.089844 C 686.96875 856.144531 647.429688 859 628.441406 886 C 617.90625 901.027344 624 918.773438 631 934 C 633.308594 939 640.890625 948 639 953.773438 C 637.585938 958.503906 630.492188 956.273438 627 956 L 627 957 C 633.957031 960.058594 652.492188 975 646.394531 984 C 642.523438 989.65625 634.726563 990.414063 630 995 C 638.773438 993 648 990.3125 657 989 L 657 990 C 644.644531 995.769531 633 1002.601563 620 1007 L 620 1008 C 636.738281 1008 651.800781 1001.234375 667 995 C 658.722656 1014 632.785156 1020.515625 614 1022 L 614 1023 C 625.679688 1025.167969 639.441406 1024.753906 651 1022 L 651 1023 C 642.96875 1028.484375 636.773438 1035.214844 631 1043 C 645.441406 1042.699219 658.953125 1035.425781 672 1030 C 669.390625 1039.066406 665 1046 678 1043 C 676 1047.585938 673.601563 1053.53125 668.960938 1056 C 665 1058.011719 660 1056.511719 656 1056.050781 C 645 1054.832031 634.484375 1052.640625 624 1049.574219 C 585.851563 1038.421875 560.21875 1013.253906 533.910156 985 C 525.871094 976.363281 513.273438 968 508.324219 957.003906 C 507 954.414063 507.480469 952.058594 510 950.703125 C 517.441406 947 528.941406 946.609375 537 945 C 539.355469 944.527344 543.925781 942.71875 546 944.199219 C 548 945.53125 547.902344 949 548 951 C 552.53125 946.183594 551.890625 941.507813 559 939 L 559 938 C 546.75 938.101563 534.855469 942.316406 523 945.011719 C 518 946.117188 512 949 507 947.679688 C 501.777344 946.289063 493.679688 926 498.605469 922.03125 C 501 920.019531 506 921.832031 509 922 C 519.390625 922.414063 530.980469 920.761719 540.960938 924.484375 C 543.886719 925.574219 546.667969 930.523438 549.621094 930.515625 C 558.296875 930.492188 546.59375 915.75 545 914 C 544.597656 926.355469 518.363281 919.804688 509 918.574219 C 505.597656 918.128906 500.246094 919 497.3125 917 C 493.996094 914.792969 494 909.148438 491.582031 906.105469 C 486.6875 900.226563 477.332031 898.144531 470 898.054688 C 454.304688 898 462.46875 914 453.867188 920.273438 C 450.625 922.667969 429.902344 927.554688 427.617188 923.394531 C 424 917 432.398438 904.722656 436 900 C 434.234375 900.734375 421.957031 907 423 901 C 423.675781 897.652344 428.375 897.199219 431 896.753906 C 438.6875 895.457031 447.203125 895.183594 455 895 C 476.488281 894.488281 497 893.464844 518 899.722656 C 530.269531 903.378906 541.707031 912.628906 554 915 C 546.796875 906.308594 532.449219 901.800781 522 898.332031 C 484.550781 886 444.390625 895 406 895 L 410 898 L 410 899 C 401.75 900.601563 393 901.066406 385 903 L 385 904 C 394.757813 903.800781 408 897.496094 416.941406 903.726563 C 422.746094 907.824219 419.609375 912.695313 415.996094 917 C 409.382813 925 404.882813 931.109375 394 932 L 394 933 C 409.351563 933 419.605469 926.664063 431 939 C 426.917969 928.394531 431.46875 926.070313 442 925.074219 C 444.578125 924.832031 452.1875 922.644531 453.746094 925.605469 C 455.796875 929.5 448.929688 933 449 936.625 C 449.207031 942.097656 460.875 945.1875 455.972656 952.683594 C 453.195313 957 445.171875 955.769531 441 955.285156 C 427 953.664063 408.289063 960.710938 395 956.167969 C 389.214844 954.160156 391.835938 946.273438 388.273438 942.355469 C 385.628906 939.453125 380.417969 941 377 938.734375 C 370.980469 934.765625 368.195313 927.761719 363 923 C 362.253906 926.699219 360.949219 928.664063 358 931 C 356.667969 924.621094 354.574219 918 352 912 C 348.605469 920 346.757813 929.484375 345 938 C 347.628906 935.257813 350 932.378906 353 930 C 353.839844 933.488281 353.535156 940 356.5625 942.292969 C 359.558594 944.675781 363.570313 941 366.941406 942 C 375.578125 944.363281 368.222656 954.589844 365 958 C 370.359375 956.140625 375.519531 950.601563 380.980469 950 C 384.707031 949.386719 387.632813 954.214844 384.394531 956.820313 C 379.796875 960.527344 370.441406 958.425781 365 959.210938 C 360.4375 960 356.472656 962.484375 352 963.472656 C 342.640625 965.535156 343.808594 956.300781 337.851563 955.78125 C 329.910156 955.089844 321.707031 961.671875 314 963 C 316.910156 952.363281 322.964844 942.152344 329 933 C 316.683594 938.15625 306.597656 948 293 950 C 298.675781 936.507813 309.316406 926.363281 314 912 C 305.300781 920 299.808594 931.6875 287 934 C 292 914.5 300.949219 896.507813 306 877 C 293.507813 889.359375 286.960938 905.550781 270 914 C 276.378906 898.679688 286.617188 885.246094 293 870 L 262 880 C 265.382813 870 270.34375 860.503906 278 853.09375 C 283 848.257813 289.710938 845.558594 294 840 C 285.804688 839.648438 272.222656 839.535156 278 829 L 262 832 C 265.398438 824.71875 273.414063 819.417969 280 815.078125 C 282.6875 813.308594 287.792969 811.300781 288.792969 808 C 291.535156 798.640625 269 802.425781 271 795 C 275.757813 778.085938 304.574219 769.195313 315.710938 757 C 329.964844 741.292969 331 716.121094 346 702.214844 C 355.480469 693.558594 370 693.289063 382 691.71875 C 397 689.738281 412 684.769531 427 683.175781 C 435.441406 682.269531 443.558594 685.730469 452 684.824219 C 461.800781 683.777344 470.757813 673.695313 480 674.152344 C 490.804688 674.6875 493.597656 690.574219 501 696.472656 C 516.558594 708.824219 541 712.519531 560 708 L 560 709 C 554.933594 712 549.730469 714.640625 544 716 L 544 717 C 559.378906 715.65625 569.324219 703.183594 583 698 C 582.871094 744.160156 542.519531 765.828125 513 793 C 530.167969 786 547.960938 777.59375 560.960938 764 C 570.175781 754.359375 575.976563 742.113281 584.617188 732.039063 C 593.96875 721.132813 606.472656 716 607.675781 700 C 609.363281 677.742188 592.183594 660.289063 595 638 C 586 644 584.652344 631.015625 580 625 C 571.933594 614.214844 550.847656 597.664063 537 609 C 560.359375 603.4375 578 626.636719 581 648 C 575.894531 644 572.792969 638.132813 567 634.628906 C 545.234375 621.472656 528 634.371094 508 642 C 516.5625 621.570313 537.574219 619.394531 557 623 C 544.71875 613 518.882813 614.101563 506 622 C 483.25 635.746094 479.875 667.148438 450 672.535156 C 444.335938 673.558594 438.625 672.097656 433 673 C 421.203125 674.609375 414 678.640625 402 674.300781 C 387.351563 669.070313 373.457031 654.503906 357 655.199219 C 350.257813 655.484375 351.5625 662 346.851563 664.683594 C 336.351563 670.71875 325.28125 669.238281 315 678 C 323.199219 678.652344 331 681.171875 339 683 L 339 684 C 328.929688 685.355469 304.613281 692.636719 301.496094 704 C 300.269531 708.40625 307.78125 708.007813 305.800781 713.042969 C 303 720.0625 296 726.484375 292.195313 733 C 291.25 734.550781 288.285156 738.097656 289.882813 740 C 292 742.5625 300.835938 742 304 742 C 299.839844 753.363281 286 773.480469 275.960938 780.273438 C 272 783 267.191406 782.539063 263 784.367188 C 258.609375 786.28125 255.234375 789.816406 251 792 C 255.570313 778 262 765.011719 269 752 C 262 754 255 755.628906 248 757 C 252.207031 742.429688 265 732.578125 274 721 L 248 722 C 250.789063 714.746094 256.855469 708.71875 262.285156 703.285156 C 264.570313 701 269.792969 698 269.792969 694.1875 C 269.792969 690 261 688.292969 258 687.347656 C 242.996094 682.664063 231.390625 687.070313 217 691 L 217 692 C 220.394531 693 223.746094 694.105469 227 695.453125 C 241.902344 701.621094 233.261719 713.183594 227 723 C 225.378906 725.644531 221.390625 730.355469 223.710938 733.566406 C 226.882813 738 239.960938 736.363281 245 737 C 240.894531 749.058594 231.992188 758.410156 227 770 C 233 769.738281 238.886719 768.050781 245 768 L 245 769 C 237.730469 773.546875 231.800781 779.753906 226 786 C 228.648438 786 233 784.550781 235.398438 786.21875 C 240 789.59375 233.941406 809 233 814 C 242.339844 811.347656 251.449219 808.800781 261 807 C 259.335938 812 255.734375 815.621094 253 820 C 255 819.117188 256.855469 818.503906 259 818 C 253.214844 826.214844 244.652344 832.050781 238.527344 840 C 237 842 233.183594 846.636719 234.417969 849.398438 C 235.359375 851.496094 239.191406 851 241 851 C 247.695313 851.078125 254.277344 852 261 852 C 258.527344 860.566406 251.898438 867.007813 248 875 C 242.398438 887.101563 241 900.785156 241 914 C 249.980469 908.40625 257.191406 900.234375 267 896 C 262 911 256.53125 922.574219 247 935 L 265 928 L 261 942 C 265 938.652344 269 935.300781 274 933 C 274 941.035156 268.597656 961.457031 273.742188 967.683594 C 278.953125 974 287.644531 965 293.683594 967.617188 C 296.863281 969.070313 295.921875 974.183594 296.289063 977 C 297.390625 985.457031 300.820313 993.421875 301 1002 C 310.203125 995.707031 317.199219 986.746094 328 983 C 326.582031 994.171875 325 1004.695313 325 1016 C 335.703125 1012.355469 345.644531 1007.46875 357 1006 C 351.585938 1018.554688 342.457031 1030 336 1042 C 340.855469 1041.613281 358.464844 1035 361.957031 1038.117188 C 363.796875 1039.78125 362 1044.0625 361.625 1046 C 359.847656 1053.257813 358 1060.492188 358 1068 C 363.234375 1064.773438 376 1053.328125 382.683594 1055.707031 C 386.207031 1057 385 1064.132813 384.984375 1067 C 384.601563 1081.644531 373.972656 1086.738281 365 1096 C 375.566406 1092.621094 388.855469 1088.429688 400 1091.570313 C 405.671875 1093.171875 409.949219 1101 416 1100.460938 C 421.4375 1100.117188 427 1095.082031 432 1093 C 431.757813 1104.742188 428.503906 1116.277344 428 1128 C 433 1125.308594 457.972656 1114.25 460 1126.109375 C 460.648438 1130 456.789063 1135 455 1138 C 462.84375 1137 469.90625 1133 478 1135 C 484 1136.375 487.382813 1139.304688 482.894531 1145 C 481.75 1146.398438 480.289063 1147.695313 479 1149 C 498.761719 1149 501.804688 1158.765625 509 1175 L 511 1170 L 512 1170 C 516 1185.585938 521 1199.359375 531.425781 1212 C 535.523438 1217 541.566406 1225.628906 547 1218 C 552.4375 1221.207031 558.351563 1218.714844 562.960938 1221.617188 C 570.703125 1226.492188 576.53125 1235.796875 584 1241.496094 C 595.21875 1250.0625 608.269531 1255.71875 619 1265 C 611 1250.183594 596.578125 1243.269531 584 1233.191406 C 573.300781 1224.617188 564.554688 1214 554 1205.226563 C 550.800781 1202.609375 546.292969 1202.507813 543.394531 1199.683594 C 537.3125 1193.765625 539 1184.183594 535.582031 1177.210938 C 527.703125 1162 520.355469 1142.105469 508.5625 1129.089844 C 494 1113.097656 468 1106 448 1110 C 449.316406 1104.308594 451 1098.523438 453 1093 C 448 1095 443.953125 1098.1875 439 1100 C 439.601563 1097.679688 440 1095.363281 440.566406 1093 C 440.84375 1091.347656 441 1089.671875 441.253906 1088.003906 C 442.488281 1075.785156 425.808594 1089.492188 420.511719 1086 C 416.675781 1083.394531 418 1072.207031 412 1072.207031 C 408.503906 1072.207031 407.550781 1079.070313 404.726563 1080.820313 C 400.425781 1083.484375 390 1083.582031 385 1084 C 389.542969 1074.394531 395.753906 1067.261719 394.910156 1056 C 394.59375 1051.789063 393 1046.074219 387.996094 1045.644531 C 382 1045.132813 375.601563 1050.386719 370 1052 C 371.519531 1044.160156 373.972656 1037 378 1030 C 367.671875 1031.3125 357.40625 1034.550781 347 1035 C 352.359375 1021.191406 361.769531 1010.375 371 999 C 361.539063 999 352.414063 998.597656 343 999 C 345.984375 986.441406 355 971.421875 366 964.25 C 368.175781 962.8125 370.492188 962 373 961.160156 C 392.644531 955.75 386 976 381 987 C 386.515625 984.066406 402.367188 975.40625 401.742188 968.011719 C 401.449219 964.542969 396.992188 961.617188 395 959 C 409.945313 959 425 958.351563 440 958 C 444.425781 958 452.679688 955 456.257813 958.601563 C 459.683594 962.101563 457.203125 968.789063 457 973 C 456.59375 984.484375 458 996.414063 458 1008 L 460 1008 C 460.292969 994.304688 470.710938 979.464844 485 978 C 479.292969 996 495 995.324219 505.996094 1006.015625 C 516.347656 1016.21875 518.414063 1029.242188 526.652344 1040 C 532.304688 1047.199219 540.800781 1049 545.675781 1058 C 550.9375 1067.804688 553 1078.691406 561 1087 C 573.753906 1100.105469 589.496094 1106.042969 598.511719 1123 C 612.230469 1148.8125 603.777344 1179.441406 616.371094 1205 C 625.78125 1224.089844 644 1231.398438 663 1238 C 696 1249.53125 727.789063 1256.777344 763 1254 L 763 1255 C 724.777344 1260 690 1256.679688 654 1242.199219 C 638 1235.800781 620.652344 1227.171875 611.464844 1212 C 598 1190.007813 605.535156 1161.195313 590 1140 C 576.855469 1122 553.621094 1115.824219 539.464844 1099 C 528.714844 1086.199219 526.605469 1068.621094 516.609375 1056.003906 C 508.621094 1046 493.875 1040.042969 482 1036 C 497.265625 1051.585938 515 1072.519531 521 1094 C 510.199219 1088 502.550781 1077.777344 493 1070 C 505 1092 519.714844 1116.660156 538 1134 C 547.664063 1143 563 1145.351563 571.210938 1156.039063 C 587.667969 1178 577.710938 1208.164063 597.175781 1230 C 646.214844 1285.019531 736.609375 1288.796875 802 1267 C 819.210938 1261.261719 837.316406 1255.214844 852 1244.238281 C 866 1233.675781 874.980469 1217.398438 880.65625 1201 C 883.347656 1193.21875 884 1184.144531 888.363281 1177.015625 C 893 1169.21875 903 1167.390625 910 1162.238281 C 916.808594 1157.183594 921.171875 1150 927 1144.015625 C 931.324219 1139.648438 936.769531 1136.605469 940.785156 1132 C 950.742188 1120.539063 944.367188 1104.257813 952 1092 C 956.3125 1085.402344 964.671875 1078.058594 973 1078.265625 C 977.765625 1078.386719 982.199219 1081 987 1080.734375 C 992.828125 1080.535156 998 1077.199219 1004 1077.179688 C 1013.539063 1077.148438 1022.378906 1082.65625 1031 1086 C 1025.296875 1080.296875 1018.539063 1074.792969 1014 1068 C 1012.996094 1066.292969 1009.6875 1061.203125 1012.617188 1059.644531 C 1017.542969 1057.023438 1027.851563 1066.3125 1031.96875 1061.355469 C 1035.921875 1056.605469 1028.6875 1046.804688 1035.433594 1042.316406 C 1039.753906 1039.445313 1047.582031 1044.402344 1050.820313 1041.109375 C 1056.304688 1035.53125 1046.464844 1016 1058 1014.269531 C 1060.929688 1014 1064 1014.773438 1067 1015 L 1061 999 L 1060 999 C 1059 1007.59375 1051.851563 1012.257813 1048.964844 1020 C 1047.4375 1024.105469 1048 1030.316406 1044.566406 1033.398438 C 1041 1036.371094 1035.984375 1034.054688 1032 1035.601563 C 1024.933594 1038.398438 1026 1049 1026 1055 C 1020.734375 1053.78125 1012.480469 1048.453125 1007 1050.617188 C 999.605469 1053.675781 1007.1875 1067.332031 1009 1072 C 979.769531 1066 955.480469 1069.0625 939 1097 L 938 1097 C 940.25 1087.550781 939.207031 1077.363281 942 1068 C 936.753906 1072.511719 934.523438 1080.050781 931 1086 C 925.507813 1096 918.886719 1105.210938 911.738281 1114 C 899.40625 1129.164063 879.324219 1138.8125 869.902344 1156 C 862.800781 1169 862.886719 1184.539063 857 1198 C 845.945313 1224.128906 819 1240.578125 792 1247 L 792 1246 C 821.640625 1236 841.523438 1208.277344 849.574219 1179 C 853.902344 1163.261719 854.441406 1146.378906 862.878906 1132 C 869 1121.535156 881.351563 1117 890 1109 C 902.300781 1097.507813 910.847656 1083.25 919.398438 1069 C 927.363281 1055.730469 940.390625 1045.109375 947.582031 1032 C 953.898438 1020.488281 949.714844 1004.519531 967 1003 C 962.875 995.253906 957.988281 982.257813 963.738281 974.109375 C 966 970.828125 972 970.640625 973.648438 967.4375 C 976.796875 961 965.289063 952.117188 967.789063 945.601563 C 968.933594 942.621094 977.398438 943.113281 980 943 C 992.605469 941.484375 1005.3125 940 1018 940 C 1030.40625 940 1042.683594 940.261719 1055 941.714844 C 1057.433594 942.003906 1065.472656 941 1066 944.261719 C 1066.5625 947 1062.882813 948.011719 1060.996094 948.621094 C 1052.929688 951.226563 1046.242188 955.269531 1040 961 C 1044.734375 958.800781 1049.59375 955.433594 1055 955.289063 C 1058.472656 955.195313 1062.386719 958.070313 1065.660156 956.074219 C 1070.480469 953.128906 1070 944.671875 1076.964844 944.371094 C 1080.824219 944.207031 1085.800781 948.535156 1089 950.453125 C 1101.996094 958.238281 1113.628906 971.3125 1115 987 C 1105.804688 982.648438 1097.945313 976 1088 973 C 1094.25 981.726563 1099.894531 990.199219 1101.714844 1001 C 1102 1003 1104 1010.28125 1101.394531 1011.171875 C 1096.941406 1012.609375 1087 1004 1083 1002 C 1084.480469 1007.140625 1087.199219 1011.648438 1088 1017 C 1079.976563 1013.203125 1072 1007 1068 999 L 1067 999 C 1070.59375 1016.367188 1082 1030.828125 1086 1048 C 1082 1046.363281 1078.535156 1044.332031 1075 1042 C 1074.945313 1048.742188 1073.289063 1055.285156 1073 1062 L 1072 1062 C 1060.628906 1047.597656 1059 1080.507813 1059 1088 L 1058 1088 C 1055.523438 1083.761719 1053.644531 1079.367188 1050 1076 C 1050 1090 1046 1103.195313 1046 1117 C 1042.535156 1115.386719 1038 1109.804688 1034 1110.753906 C 1028.214844 1112.121094 1028.8125 1121 1025.183594 1124.398438 C 1021.414063 1128.082031 1014 1124.332031 1010 1123 C 1013 1129 1016.457031 1134.5 1018 1141 C 1006.449219 1140.410156 1008 1153.738281 1008 1162 C 994.933594 1159.039063 1000 1172.433594 996.296875 1180 C 994 1184.28125 988.777344 1180.601563 985.652344 1184.191406 C 979.867188 1191 983.554688 1204.328125 985 1212 C 972.644531 1212.289063 967.382813 1223.066406 965 1234 C 959.773438 1258.210938 965.484375 1283.492188 958.570313 1308 C 952.890625 1328.136719 937.390625 1335 927 1313 L 926 1313 C 926 1327 925.785156 1342.167969 919.675781 1355 C 917.464844 1359.640625 912.210938 1367.40625 906.214844 1363.242188 C 900.316406 1359.148438 899.613281 1349.429688 898.84375 1343 C 896.511719 1323.523438 896.417969 1300.296875 900 1281 C 895.433594 1286 895 1294.621094 893.800781 1301 C 890.605469 1317 888.398438 1332.8125 886.828125 1349 C 886.261719 1355 885.972656 1370.363281 877 1370.363281 C 871 1370.363281 869.183594 1352.507813 868.210938 1348 C 863.175781 1324.722656 854.476563 1305.546875 834 1292 C 837.328125 1318.214844 844.757813 1341.09375 841.835938 1368 C 841.324219 1372.695313 839.667969 1389.78125 834.503906 1391.652344 C 831 1393 827.25 1386.042969 825.574219 1384 C 818.449219 1375.308594 808.964844 1366.671875 805 1356 L 804 1356 L 803 1385 C 773.996094 1364.386719 782.550781 1312.386719 742 1303 C 753.214844 1330 772.703125 1361.210938 774 1391 C 749 1376.652344 730.714844 1347.316406 713.425781 1325 C 707.480469 1317.324219 702.621094 1308.148438 695 1302 C 699.636719 1320.824219 703.839844 1341.574219 704 1361 C 697.171875 1357.8125 692.628906 1350.761719 688 1345 C 677.476563 1332 667.699219 1314.574219 656 1303 C 663.9375 1331.1875 679.65625 1359.570313 682 1389 C 656.558594 1379.355469 638.625 1351.414063 619 1334 L 625 1362 C 615.566406 1356.742188 608.648438 1348.476563 601 1341.015625 C 581.300781 1321.796875 564.601563 1299.058594 564 1270 L 562 1270 L 561 1327 L 560 1327 C 548.304688 1305.023438 539 1284.433594 539 1259 L 537 1259 C 537 1275 531 1290.078125 531 1306 C 523.863281 1300.488281 521.390625 1291.117188 518.203125 1283 C 509.582031 1261.042969 506 1237.480469 506 1214 L 504 1214 C 503.617188 1223 500.199219 1231.304688 498.449219 1240 C 494.835938 1258 491.785156 1277.722656 491 1296 C 482.523438 1292 477.46875 1280.78125 472.800781 1273 C 460 1252 446.523438 1228.34375 446 1203 L 444 1203 C 443.175781 1222.183594 443 1240.769531 443 1260 L 442 1260 C 432.507813 1243.746094 421 1224.351563 421 1205 C 414.242188 1211.246094 413.585938 1221 410 1229 C 404.273438 1222.089844 400.890625 1212.285156 397.601563 1204 C 387.773438 1179.226563 383 1152.597656 383 1126 L 382 1126 C 376.894531 1145.726563 369.613281 1174.824219 374 1195 L 373 1195 C 354 1162.738281 347.417969 1129.808594 349 1093 L 348 1093 C 341 1117 335 1136.6875 335 1162 L 334 1162 C 318.503906 1124.230469 296 1088.140625 296 1046 L 295 1046 C 290.664063 1061.386719 287.261719 1077.269531 284.425781 1093 C 282.796875 1102.035156 282.667969 1111.476563 279 1120 L 278 1120 C 268.402344 1105.445313 267.277344 1092.816406 268 1076 C 262.621094 1082 257.40625 1088.054688 255.671875 1096 C 252.640625 1110 254.941406 1126.664063 242 1136 C 240.4375 1116.210938 235.449219 1097 234 1077 C 232.976563 1060.773438 235 1044.277344 235 1028 L 234 1028 C 227.789063 1044.007813 219.238281 1058.671875 217 1076 L 216 1076 C 216.875 1055.585938 218.179688 1035.367188 220 1015 C 220.71875 1008.0625 225.203125 996.691406 223.226563 990.0625 C 221.734375 985.0625 216.28125 987.222656 213 988.785156 C 205.207031 992.503906 198.859375 998.25 195 1006 L 194 1006 C 194 978.382813 207 957.207031 220 934 C 204.679688 939 196 949.769531 183 958 C 183.855469 938.164063 195.996094 921.339844 206 905 C 195.734375 905 185.707031 905.402344 177 911.636719 C 170.511719 916.28125 165.992188 923 159 927 C 165.867188 891.578125 182 866.394531 202 837 C 186 837.683594 172.28125 847.054688 158 853 C 161.171875 842 168.972656 831.488281 178 824.527344 C 181.59375 821.757813 191.230469 819.191406 192.792969 814.726563 C 195.597656 806.726563 173 810.222656 170 811 C 173 802.832031 179.964844 797 187 792.039063 C 189.757813 790.121094 196.359375 787.75 197.792969 784.613281 C 198.945313 782.09375 192.414063 781 191 780.667969 C 183.234375 779.007813 176.476563 781.285156 169 783 C 175.773438 773.382813 185.847656 765.683594 196 760 C 199 758.152344 207 755.578125 206.367188 751.027344 C 205.417969 744.417969 185.378906 736.558594 180 733 L 180 732 C 189.554688 727.203125 199.46875 724.179688 209 719 C 210.804688 718 217.945313 715.507813 217.945313 713.003906 C 217.945313 710.546875 211.710938 709.226563 210 708.574219 C 201.78125 705.445313 193.59375 702 185 700 C 191.75 691.707031 203.199219 685.082031 213 681 C 208.449219 678.414063 191 675.183594 189.347656 670.53125 C 188.167969 667.4375 194 665.230469 196 664.246094 C 204.839844 659.773438 213.734375 656 221 649 C 213 648.347656 205.605469 645.03125 198 642.71875 C 195.785156 642.046875 190.421875 641.316406 190.921875 638 C 192.363281 628.214844 229.332031 617 207 610.292969 L 200 608.292969 C 196.367188 607.277344 192.738281 606.484375 189 606 L 189 605 C 200.574219 602.324219 211 597.128906 223 595.429688 C 233 594 243.199219 596.304688 253 593 C 261 590.066406 267.378906 583.789063 275 580 C 250.96875 568.238281 225 577 200 577 L 200 576 C 211.8125 568.710938 222.8125 560.226563 236 555.4375 C 252.449219 549.460938 269.800781 550 287 550 L 287 549 C 278 544.800781 269.75 540.34375 260 538 C 253 536.144531 244.191406 536.714844 238 533 C 250 526.589844 262.578125 525 276 525 C 271 520.597656 263 519.460938 257 516.691406 C 245 511.257813 234 504.003906 222 499 L 222 498 C 241.167969 488.207031 257.941406 498.480469 276 506 C 263.628906 487.664063 247 474.0625 224 474 L 224 473 C 235.4375 471.316406 247.757813 467 259 472.402344 C 265.363281 475.460938 270 481.128906 276 485 C 265.355469 462.539063 240.980469 449.824219 218 442 L 218 441 C 235 443.15625 249.898438 446.753906 266 453 C 257.59375 438.382813 242.613281 427.460938 239.464844 410 C 235.371094 387.296875 254.648438 366 258.246094 344 C 262.34375 319 256.214844 294.007813 259.285156 269 C 263.621094 233.722656 282.882813 202.253906 300 172 C 310.363281 154.105469 317.808594 130.445313 331.300781 115.015625 C 347.53125 96.449219 375.546875 94.160156 398 100.15625 C 414.589844 104.585938 426.425781 117.351563 437.269531 130 C 457.511719 153.605469 474 179.730469 492 205 C 505 223.226563 516.207031 242.671875 527.425781 262 C 533 271.675781 540.878906 281.160156 544 292 M 270 319 C 270.996094 295.765625 271.207031 271.515625 281 250 C 293.621094 222.417969 316.519531 200.53125 327.316406 172 C 336.675781 147.269531 346.382813 106.644531 381 113.261719 C 385.863281 114.191406 390.636719 116 395 118.324219 C 410.921875 127 421.601563 143.105469 432.425781 157 C 450.785156 180.5625 469.308594 204.035156 488.414063 227 C 497.785156 238.265625 507.484375 258.066406 522 263 C 517.480469 247.34375 504.171875 233.210938 495 220 C 479.207031 197.160156 461.9375 175.410156 444.25 154 C 433.539063 141.035156 423 127.1875 410 116.464844 C 393.363281 102.820313 364.570313 94.316406 346 109.679688 C 330 123.027344 328.609375 148 321 166 C 305 205.058594 262 236.035156 262 281 C 261.984375 291.078125 260.988281 312.230469 270 319 M 952 265 C 967.320313 255.417969 976.554688 238 987.425781 224 C 1011.570313 193.011719 1039.363281 165 1076 149.148438 C 1090 143.097656 1107.445313 137.160156 1123 140.679688 C 1150.886719 147 1151.503906 191.023438 1161 213 C 1173.320313 241.515625 1191.789063 267.183594 1194.828125 299 C 1196.753906 319.148438 1189.214844 339.082031 1187.464844 359 C 1186 374.101563 1194.898438 390.136719 1185.199219 404 C 1175.539063 417.808594 1157.753906 421 1144 429 C 1145.324219 412.253906 1154.585938 401.289063 1159 386 C 1131.191406 400.429688 1135 441.703125 1111 460 C 1117.539063 464.464844 1127.171875 459.738281 1134 457.722656 C 1148.929688 453.308594 1164.71875 455.652344 1180 453.078125 C 1184.4375 452.332031 1195.714844 451.355469 1197.824219 446.605469 C 1199.671875 442.453125 1190 433.824219 1190 428 C 1190 418.183594 1197.304688 409.683594 1198.699219 400 C 1200.335938 388.644531 1195.574219 377.320313 1196.210938 366 C 1196.785156 355.765625 1202.570313 346.6875 1205.253906 337 C 1208.671875 324.664063 1208.78125 310.707031 1207.910156 298 C 1205.421875 261.710938 1186.390625 233.25 1170.257813 202 C 1160.824219 183.726563 1162 159.4375 1150.210938 143.003906 C 1127.332031 111.433594 1076.214844 136.21875 1052 152.332031 C 1036.789063 162.453125 1023.414063 174.671875 1010.976563 188 C 997 202.828125 986.320313 220.109375 973.789063 236 C 966.609375 245.105469 956.214844 254.046875 952 265 M 350 191 C 356.347656 206.246094 367 218.699219 376.574219 232 C 390.359375 251.285156 403.339844 271.0625 417.625 290 C 425.539063 300.488281 435.390625 316.800781 449 320 C 434.851563 283.53125 408.320313 255.46875 383.589844 226 C 373.980469 214.550781 364 197.246094 350 191 M 364 191 C 380.171875 219.011719 410.828125 239.65625 430.996094 265 C 437.226563 272.828125 442.863281 281.128906 447.515625 290 C 449.828125 294.417969 450.96875 301 455 304 C 454.972656 264.1875 423.566406 236.34375 395 213.195313 C 385.546875 205.535156 375.839844 194.773438 364 191 M 982 288 C 1005 281.460938 1018.265625 265.402344 1036 250.4375 C 1050 238.589844 1065.878906 229.027344 1082 220.308594 C 1091.71875 215.054688 1101.800781 210.253906 1112 206.011719 C 1116.890625 204 1123.929688 202.5 1127 198 C 1077.65625 198 1037 229.429688 1005.828125 264 C 998.941406 271.628906 986.554688 279.089844 982 288 M 1005 325 L 1006 325 C 1009.816406 318.796875 1015.183594 313.390625 1018.585938 307 C 1021.417969 301.683594 1021.417969 296 1025.339844 291 C 1031.71875 283.097656 1040.351563 277.414063 1048 271 C 1075.203125 247.585938 1113 223 1151 232 C 1141.386719 211.5625 1107.828125 219.179688 1092 226.3125 C 1053.371094 243.714844 1005.390625 277.722656 1005 325 M 1021 325 C 1046.261719 317.722656 1065.835938 293.484375 1087 279.027344 C 1107.554688 265 1132.429688 260 1157 260 C 1148.238281 252.371094 1128.609375 256.132813 1118 257.574219 C 1087 261.785156 1060.765625 277 1039.832031 300 C 1033 307.445313 1024.660156 315.488281 1021 325 M 922 260 C 918.394531 268.359375 911.875 275.449219 904 280 C 908.34375 272.375 914.5625 264.75 922 260 M 927 288 L 928 289 L 927 288 M 400 316 C 415.855469 332.570313 425.507813 353.085938 436.308594 373 C 440.617188 381 447.769531 387.597656 451 396 C 442.875 393.691406 435.21875 390 427 388 C 430.71875 397 437.289063 403.730469 442 412 C 434.886719 410.054688 425 406.121094 420.742188 399.824219 C 418.441406 396.511719 419.175781 392.324219 416.683594 389 C 413 384.09375 408 381 406 375 C 416.839844 376.460938 426.972656 382 437 386 C 424 370 409.769531 354.160156 403.585938 334 C 401.953125 328.675781 398 321.480469 400 316 M 666 322 C 661.710938 331.691406 659.523438 342.648438 657.398438 353 C 656.953125 355.179688 656.277344 362 652.820313 361.367188 C 648.839844 360.691406 646.964844 354.082031 645.5625 351 C 642 343.441406 636.78125 336.777344 630 332 C 630.722656 337 633.601563 342.007813 632.589844 347 C 631.472656 352.53125 626.71875 356.621094 625 362 C 621 357.347656 618.378906 351.113281 613 348 C 613.28125 361.566406 611.796875 368.582031 606 381 L 605 381 C 604.917969 377.089844 604.371094 373.667969 603 370 L 602 370 C 599.910156 375.542969 599.375 381.285156 598 387 C 594.792969 383.796875 591.707031 380.609375 588 378 C 589 382.601563 591.195313 386.660156 593 391 C 589 387.238281 585.222656 383.734375 580 382 L 583 394 C 570.433594 388.15625 569.535156 396.503906 559 400.597656 C 550.933594 403.734375 541.5 404 533 405 L 533 406 C 541 407.515625 554.980469 412.546875 562.945313 409.398438 C 567.953125 407.414063 569 401.542969 575 400.34375 C 582.691406 398.765625 590.34375 402.34375 598 401.671875 C 609.53125 400.660156 618.550781 385.628906 625 401 L 626 401 C 627.769531 396.4375 630 388.132813 635 386.175781 C 641.519531 383.6875 644.394531 397 645 401 L 647 401 C 648.203125 393 653.847656 388.207031 656.773438 381 C 661.421875 369.558594 655.28125 350.753906 675 357 C 673.835938 350.550781 669.457031 345.410156 667.898438 339 C 666.554688 333.46875 668.175781 327.1875 666 322 M 714 323 C 715.6875 335.53125 719 347.144531 717.828125 360 C 717.414063 364.144531 714.371094 370.808594 719.230469 373.386719 C 728.503906 378.3125 738 363.382813 746 360.785156 C 763.453125 355.09375 787.828125 360.175781 804 367.78125 C 813.402344 372.203125 820.496094 378.039063 821 389 L 822 389 C 826.183594 377.808594 820 365.316406 809 361 L 809 360 L 812 360 C 806.949219 353.5625 790.273438 353.421875 791 345 C 779 347.808594 773.804688 353 776 338 C 768.523438 340.546875 762.78125 344.679688 757 350 L 759 336 C 752.496094 339.238281 747.246094 344 745 351 L 744 351 L 745 338 C 736.652344 341 736.699219 353 729.800781 355.339844 C 725.769531 356.734375 723.792969 352 722.925781 349 C 720.417969 340.339844 721.320313 329.296875 714 323 M 705 327 C 704.855469 333.785156 695.976563 350.601563 687.316406 349.230469 C 683.632813 348.644531 685.550781 341.207031 681 341.207031 C 673 341.207031 677 362 678 366 L 679 366 C 682.203125 360 694.707031 347.15625 702 347 C 706 346.722656 709.488281 350.402344 713 352 C 712.660156 344.050781 712.796875 331.308594 705 327 M 267 346 C 262.96875 367.691406 258.832031 400.621094 276 418 C 284.875 426.699219 297.554688 428.730469 306.996094 436.378906 C 312.304688 440.679688 314.859375 447.367188 320 451.570313 C 326.5 456.714844 340 460.300781 348 463 C 346 441 325.640625 423 308 412.203125 C 297.589844 406 286.28125 401.667969 278.328125 392 C 271.242188 383.378906 269.574219 370.753906 268.613281 360 C 268.171875 355.03125 269.695313 350.5 267 346 M 757 350 L 756 351 L 757 350 M 1080 454 C 1108.617188 447.199219 1120.898438 411 1133.308594 388 C 1138.914063 377.636719 1146.34375 367.792969 1151 357 C 1141.328125 361.511719 1133.507813 373 1126.753906 381 C 1108.714844 402.535156 1090.902344 428 1080 454 M 711 382 C 694.664063 390.035156 712.28125 409.054688 711.945313 390 C 711.898438 387.316406 711.335938 384.65625 711 382 M 840 383 C 840.246094 390.546875 844 392 851 392 C 848.707031 387.128906 845 384.519531 840 383 M 725 499 C 729.722656 492.371094 728.433594 482.722656 729.171875 475 C 731.183594 454 734.257813 431.25 731.714844 410 C 731 404.449219 728.261719 382.808594 719 384.832031 C 712.230469 386.355469 713.742188 406.820313 714.425781 412 C 718.21875 441 719.667969 470.300781 725 499 M 736 386 C 736 392.054688 736.929688 398 737 404 C 737 405.46875 736.472656 409.671875 738.601563 410.078125 C 742.339844 410.792969 744.652344 404.730469 744.875 402 C 745.414063 395.425781 740.984375 389.679688 736 386 M 698 412 L 698 403 C 698 401.050781 698.980469 391.207031 695.699219 391.207031 C 693.457031 391.207031 692.367188 395.394531 691.929688 397 C 690.257813 403.144531 692.285156 409.070313 698 412 M 721 390 C 722 396 722 402 722 408 L 721 408 C 719.480469 403 718.898438 395.011719 721 390 M 594 391 L 593 392 L 594 391 M 861 391 C 862.882813 397.40625 865.171875 400 872 400 C 869.738281 395.191406 866.179688 392.230469 861 391 M 681 421 C 685.851563 414 684 401.28125 684 393 C 673.675781 398.367188 677.210938 412.4375 681 421 M 584 394 L 583 395 L 584 394 M 754 398 L 754 415 C 762.246094 411.621094 761.5625 402 754 398 M 883 403 C 883 405.632813 882.8125 408.371094 883.1875 411 C 884.507813 420.101563 897.699219 415.21875 887.980469 406.148438 C 886.40625 404.679688 884.910156 404 883 403 M 768 405 L 768 424 C 778.570313 420.394531 777.367188 409.40625 768 405 M 1069 408 C 1065.5 423.117188 1056.5625 436 1042 442 C 1046.296875 434.566406 1053.238281 429.523438 1058.675781 423 C 1062.585938 418.304688 1064.84375 412.4375 1069 408 M 790 409 C 790 417.519531 790.980469 426.671875 789 435 C 805.492188 432.425781 800 416.738281 790 409 M 906 418 C 906 421.582031 909.238281 437.8125 916.253906 430.816406 C 919.921875 427.160156 908.59375 419.210938 906 418 M 809 419 C 808.707031 425.800781 808.574219 433.386719 807 440 C 821.246094 438.53125 819.628906 425.152344 809 419 M 829 428 C 828.996094 436.167969 827.550781 444.007813 826 452 C 829.777344 451 841 448.203125 842.695313 444.351563 C 845 439 832.898438 429.816406 829 428 M 969 436 C 970.636719 435.453125 970.453125 435.636719 971 434 C 969.6875 434.769531 969.769531 434.6875 969 436 M 609 436 C 610 443.222656 613.359375 450 615 457 C 619.277344 454.175781 624.304688 443 619.550781 438.601563 C 617 436.359375 612 436.589844 609 436 M 585 444 C 586.96875 447.433594 598.953125 460.175781 602.929688 453.667969 C 609.328125 443.179688 589.664063 443.097656 585 444 M 861 446 C 859.472656 450.503906 858.386719 455.253906 858 460 C 863.652344 459 869.230469 457.457031 875 457 C 871.261719 452.40625 866 449.097656 861 446 M 555 457 L 555 458 C 562 462.519531 568.773438 466.195313 574 473 C 576.558594 470 580.816406 458.132813 575.683594 455.601563 C 570.84375 453.222656 559.941406 455.539063 555 457 M 877 468 C 888 469.5 889.242188 470.699219 889 459 C 884.371094 460.78125 879.597656 463.707031 877 468 M 1009 459 L 1010 460 L 1009 459 M 520 474 C 522 478.167969 535.847656 490.683594 540.605469 487.339844 C 543 485.632813 548.496094 473.554688 544.394531 471.773438 C 539 469.476563 526 474 520 474 M 903 477 C 904 481.085938 904.199219 492 909.226563 493.183594 C 911.777344 494 927.917969 487.304688 926.652344 484.570313 C 924.558594 480.03125 907.621094 478.058594 903 477 M 1027 481 L 1028 482 L 1027 481 M 498 492 C 501.945313 499.214844 513.21875 505.753906 521 508 C 521.878906 501.476563 524.503906 496.003906 527 490 C 517.171875 490 507.746094 491.582031 498 492 M 636 492 C 636 524 649 553.769531 668 579 C 672.421875 584.675781 676.242188 595.230469 682 599 C 680.820313 589.664063 681 580.40625 681 571 L 682 571 C 687.40625 584 695 596 700.394531 609 C 702.523438 614.25 703.460938 623.558594 708 627 C 708 614.195313 712 606.121094 722 598 C 717.289063 617.773438 720.992188 644.386719 729 663 L 730 663 C 733.996094 631.417969 755.175781 610.246094 767 582 C 770 588.765625 771.382813 596.066406 774 603 L 775 603 C 776.980469 587.324219 779.210938 573.324219 786.371094 559 C 795.328125 541.085938 810.421875 524.359375 816 505 C 797.539063 513 785.210938 530.660156 772 545 C 772.214844 534.527344 775.550781 524.402344 776 514 C 765.699219 522 755.894531 545.183594 754 558 L 753 558 C 753 551.144531 753.730469 544.734375 755 538 C 750.816406 540.761719 749.601563 546.492188 747.800781 551 C 743.195313 562.515625 737.546875 575.480469 737 588 L 736 588 C 736 577 735.40625 565 738 554 C 729.226563 558.179688 724.566406 570.4375 721 579 C 715.980469 569 717 557.417969 714 547 L 713 547 C 712 554.40625 709.324219 561.53125 709 569 L 708 569 C 707.992188 557.390625 703.910156 546.515625 703 535 L 701 535 C 699.738281 544.78125 696 554.0625 696 564 L 695 564 C 693.929688 551 688 537.253906 683.425781 525 C 681.730469 520.472656 680.972656 514 677 511 L 677 533 L 676 533 C 670.910156 522.71875 666.292969 508.800781 659 500 C 654.753906 509.117188 654 518.085938 654 528 L 653 528 C 651.183594 521.820313 647 517 644.441406 511 C 641.648438 504.664063 641 497.023438 636 492 M 924 515 C 942.316406 507 924.425781 495 924 515 M 491 512 C 495 517.691406 501.320313 522 508 524 C 510 508.027344 504.898438 507.296875 491 512 M 925 537 C 936.632813 536.050781 950.230469 529.800781 954 518 C 939.792969 519.796875 929.660156 521.164063 925 537 M 471 525 C 475 529 480.410156 532 486 533 L 486 534 C 478.800781 534.019531 471.5 535.070313 465 538.378906 C 456.816406 542.539063 459.320313 546 466.976563 547.386719 C 468.660156 547.691406 470.296875 548 472 548 L 472 549 C 464.378906 552.554688 457.390625 561 455 569 L 461 568 L 461 569 C 444.464844 572.828125 416 584.457031 409 601 C 428.441406 590.167969 443.890625 574.113281 467 571 L 467 572 C 463.488281 573.359375 449 583 453 588 C 455 590.320313 463.964844 589.277344 467 590 C 461.527344 592.675781 456.679688 595.304688 454 601 C 458.695313 600.796875 463.433594 600.101563 468 599 C 461.722656 608.304688 455.503906 617.253906 452 628 C 463.664063 623.480469 470.71875 610.464844 481 603.519531 C 495 594.058594 511.902344 591 527 583.679688 C 532.640625 581 538.429688 570.515625 544 570.332031 C 556 570 571.257813 582 580 588.800781 C 582.929688 591.136719 587.453125 593.683594 589.246094 597.074219 C 591.695313 601.699219 584 602.148438 585.347656 606.039063 C 587.84375 614 605.183594 617.121094 612 615.46875 C 630 611.085938 619.578125 591.726563 619.578125 580 C 619.578125 575 623 568 619.398438 563.394531 C 614.226563 557.042969 599.515625 553.125 592 550 C 596.597656 562 615.339844 568.339844 613.746094 583 C 613 588.792969 604.644531 599.253906 598 597.425781 C 593.386719 596.15625 589.554688 590.433594 586 587.4375 C 579.308594 581.800781 571.871094 577 564 573.109375 C 543.339844 563.050781 522.742188 562.175781 501 557 L 501 556 C 509.433594 556 517.613281 555.660156 526 555 C 519.421875 547.347656 503.851563 543.203125 494 543 L 494 542 C 502.386719 541.339844 510.566406 541 519 541 C 515 536 506.367188 538.589844 501 535.144531 C 495.628906 531.621094 498 525.476563 494.257813 521.605469 C 490 517.332031 475.675781 523 471 525 M 906 551 C 920.515625 550 931 549.042969 945 554 L 945 555 C 914.609375 555 884.265625 558.4375 861 580.089844 C 855.449219 585.257813 844.847656 598.03125 836.417969 590.347656 C 825 580.066406 842.472656 564.304688 846 555 C 838.957031 557.070313 825.632813 563.605469 824.886719 572 C 824.433594 577.109375 828.183594 581.683594 827.816406 587 C 827.195313 596.007813 824.203125 608.304688 835 612.4375 C 845.527344 616.460938 867.5 602 851 596 C 871.171875 576 893.8125 563.617188 922 559.578125 C 935.726563 557.613281 953 560.617188 960 574 C 945.902344 564.050781 929.734375 569.675781 914 570 L 914 572 C 953 572.003906 994 599.015625 995 641 L 996 641 C 1002.339844 621 998.222656 597.777344 985.84375 581 C 980.617188 574 973 569.050781 968 562 C 996 563.226563 1012 585 1036 595 C 1023 572.71875 993.910156 567.734375 972 558.792969 C 964.925781 556 959.945313 550 953 547 L 953 546 L 970 541 C 954.835938 529.714844 938 538 923 543.574219 C 917.796875 545.535156 909.421875 546.441406 906 551 M 1257 542 L 1257 543 L 1254 543 C 1255.246094 542.316406 1255.546875 542.25 1257 542 M 537 570 L 537 571 L 532 572 C 533.75 570.746094 534.855469 570.386719 537 570 M 1201 589 C 1191 594.207031 1180.628906 592.664063 1170 591 C 1167.585938 590.523438 1160.726563 590.710938 1160 587.566406 C 1159.304688 583.183594 1164 579.152344 1168 579.230469 C 1177.34375 579.425781 1193.242188 584 1201 589 M 1255 618 L 1226 617 C 1238.503906 629.246094 1258.472656 635.277344 1269 649 C 1264.53125 650.257813 1254 651.171875 1252.257813 656.214844 C 1250.945313 659.691406 1255.433594 663.675781 1257.429688 666 C 1264.445313 674.171875 1274.730469 679.285156 1281 688 C 1268.816406 689.539063 1257.203125 687 1245 687 L 1245 688 C 1253.71875 691.214844 1261 696.636719 1267.984375 703 C 1269.972656 704.652344 1273.925781 707.429688 1273.167969 710.625 C 1272 715 1254.265625 718.507813 1259.464844 724.300781 C 1262 727.304688 1268.363281 728.007813 1272 729.449219 C 1282 733.464844 1295.800781 739.191406 1300 750 C 1287.851563 750 1274.84375 751.171875 1263 754 C 1275.230469 759.722656 1293.171875 764.515625 1299 778 C 1291.621094 778.582031 1284.429688 780 1277 780 C 1281.339844 785.058594 1288.402344 787.492188 1294 791.054688 C 1308.238281 800.117188 1330 815.117188 1335 832 C 1306.949219 820.492188 1278 811.503906 1250 800 C 1267.667969 817.617188 1290.542969 830.164063 1310 845.804688 C 1318.742188 852.832031 1328.890625 859.742188 1334 870 C 1307 859.796875 1286.859375 840.253906 1256 840 L 1256 841 C 1278.253906 849.632813 1311.75 867.363281 1319 892 C 1295.734375 877.511719 1276.285156 867.003906 1248 867 L 1248 869 C 1275.292969 871.230469 1293 897.738281 1304.246094 920 C 1308.410156 928.328125 1312.585938 936.523438 1313 946 L 1312 946 C 1295.570313 919.617188 1268.96875 894.128906 1237 890 L 1237 891 C 1258.261719 898.238281 1272.675781 919.011719 1281 939 C 1272.933594 936.371094 1265.507813 933.644531 1257 933 C 1255 932.652344 1249.273438 931.414063 1248.632813 934.421875 C 1248.175781 936.546875 1251.65625 938.429688 1253 939.421875 C 1258.382813 943.382813 1263.886719 947.125 1269 951.4375 C 1288.625 968 1302.898438 990 1317 1011 C 1321.882813 1018.324219 1326.695313 1025.796875 1329.984375 1034 C 1330.945313 1036.398438 1332.996094 1041 1329.679688 1042.382813 C 1319.714844 1047 1307.207031 1027.34375 1303 1021 C 1289.378906 1000.4375 1279.421875 977 1261.960938 959.015625 C 1254 951 1244.566406 945.640625 1235 940 C 1242.402344 950.054688 1253 958.082031 1260.996094 968 C 1280.34375 992.261719 1288 1017.449219 1288 1048 L 1287 1048 C 1285.367188 1027.511719 1275 1017.148438 1258 1008 C 1261.824219 1038.105469 1262 1067.648438 1262 1098 C 1248.390625 1088.332031 1245.800781 1070.3125 1243.246094 1055 C 1238.988281 1029.445313 1234.613281 995.644531 1212 979 C 1220.242188 1001 1231.515625 1029.527344 1232 1053 L 1231 1053 C 1224.417969 1044.363281 1215.902344 1035.707031 1206 1031 C 1225.191406 1064 1234.320313 1097.191406 1236.910156 1135 C 1237.914063 1149.683594 1236 1164.335938 1236 1179 L 1235 1179 C 1234.695313 1142 1215.726563 1103 1193.871094 1074 C 1186.652344 1064.453125 1178.761719 1053.019531 1169 1046 C 1191.761719 1097.113281 1203.421875 1157.679688 1193 1213 L 1192 1213 C 1191.261719 1177.277344 1174.363281 1130.671875 1147 1107 C 1147 1128.210938 1153 1149.054688 1155.714844 1170 C 1158.792969 1194.109375 1159.453125 1221.015625 1155 1245 L 1154 1245 C 1152.785156 1236.769531 1149 1229.03125 1146.882813 1221 C 1141.648438 1201.265625 1136.304688 1180.808594 1128.28125 1162 C 1124.902344 1154.082031 1122.644531 1142.402344 1117 1136 C 1126.265625 1183.777344 1138.859375 1240.664063 1121 1288 L 1120 1288 C 1118.972656 1275.398438 1111.378906 1264.414063 1109.285156 1252 C 1105.3125 1228.4375 1111.890625 1204 1095 1184 C 1095 1210.386719 1095.886719 1235 1089.882813 1261 C 1087.953125 1269.367188 1086.613281 1279.667969 1082 1287 C 1078 1280.484375 1073.921875 1274 1071 1267 C 1061.867188 1287.625 1063.378906 1311.222656 1044 1327 C 1044 1304.785156 1040.753906 1282.769531 1036.398438 1261 C 1034.65625 1252.285156 1030.554688 1241.300781 1043 1241 C 1038.734375 1223.085938 1043.929688 1202.230469 1066 1212 C 1060 1200.726563 1052 1190.148438 1051 1177 C 1044.785156 1184 1056.582031 1189 1053.351563 1195.398438 C 1051.914063 1198.320313 1046 1196.574219 1043.726563 1199.316406 C 1038.984375 1205 1036.582031 1219 1036 1226 C 1030.949219 1223.644531 1027.523438 1219.1875 1023 1216 C 1026 1226.34375 1022.8125 1238.453125 1022 1249 C 1019.980469 1279.78125 1014.882813 1321.726563 985 1339 C 986 1315.519531 989.894531 1292.566406 986.710938 1269 C 985.320313 1258.714844 974.433594 1244.398438 978.742188 1234.058594 C 983 1223.753906 994.601563 1238.210938 1000.253906 1231.5625 C 1002.777344 1228.59375 1001.25 1223.492188 1000.925781 1220 C 1000.203125 1212.230469 998 1201.164063 1003 1194.242188 C 1007.996094 1187.417969 1016 1198.019531 1021.667969 1193.382813 C 1027.394531 1188.601563 1018.507813 1170.445313 1018 1164 C 1017.65625 1157.320313 1020 1153.625 1027 1156.347656 C 1029 1157.152344 1031 1158.160156 1033 1159.105469 C 1036.347656 1160.703125 1039.730469 1162.25 1043 1164 C 1039.5625 1155.730469 1036.195313 1148 1034.753906 1139 C 1034.378906 1136.675781 1032.941406 1130.683594 1036.433594 1130 C 1041.632813 1128.6875 1053.828125 1139 1059 1141 C 1057.234375 1127.332031 1054 1115 1054 1101 C 1059.445313 1103.0625 1064.1875 1106.753906 1069 1110 C 1067 1101.269531 1063.292969 1092.101563 1064.429688 1083 C 1064.761719 1080.339844 1064.738281 1074.597656 1068.226563 1074 C 1073.636719 1073.066406 1080.476563 1081.664063 1085 1084 C 1083.363281 1078.820313 1079.554688 1060.570313 1085.433594 1057.117188 C 1090 1054.378906 1099 1060.722656 1103 1063 C 1101.207031 1055.246094 1097.4375 1048 1096.300781 1040 C 1096 1038.136719 1095 1032.628906 1097.601563 1031.828125 C 1102.734375 1030.210938 1115.710938 1041.058594 1122 1042 C 1119.289063 1033.667969 1116.566406 1025.726563 1115.425781 1017 C 1115 1014.007813 1114.5 1009.097656 1118.226563 1008 C 1123.8125 1006.171875 1130.734375 1013.34375 1135 1016 C 1134.929688 1007.621094 1133 999.390625 1133 991 C 1132.996094 989 1132 983.765625 1134.601563 982.660156 C 1137.949219 981.15625 1141 985.792969 1142.640625 988.003906 C 1147.96875 995.75 1150.953125 1004.695313 1157 1012 L 1156 959 C 1164.492188 961.5 1171.355469 967.742188 1179 972 C 1178.992188 960.441406 1175.542969 950 1172 939 C 1176 939 1188.238281 942.253906 1191.304688 940 C 1193.425781 938.242188 1191.59375 934 1190.972656 932 C 1188.851563 925.265625 1185.628906 919 1184 912 C 1193.351563 915 1200.929688 922.113281 1211 923 C 1206.425781 919.003906 1201.839844 915.472656 1199 910 C 1203 910 1207 909.589844 1211 908.511719 C 1215.4375 907.296875 1225.574219 903.746094 1225.652344 898.011719 C 1225.707031 894.199219 1220.480469 891.816406 1218 889.675781 C 1211.527344 884 1206.929688 876.246094 1200.960938 870 C 1198.601563 867.53125 1191.273438 862.359375 1192.460938 858.304688 C 1193.582031 854.476563 1202.828125 854.144531 1206 853.253906 C 1220.175781 849.269531 1229.195313 838 1242 832 L 1242 831 C 1223.199219 831.011719 1208.753906 831.148438 1193 819 C 1189 816.027344 1181.726563 811.683594 1181.738281 806.058594 C 1181.746094 801.667969 1187.792969 801.179688 1191 801.039063 C 1201.359375 800.582031 1212.984375 802.40625 1223 805 C 1221.984375 799.289063 1216.75 793 1217.503906 787.015625 C 1218 782.007813 1225.636719 780 1224.800781 774.574219 C 1223.832031 768.261719 1212 763.273438 1214.699219 756.304688 C 1216.976563 750.039063 1232.605469 756.355469 1232.167969 748 C 1231.964844 744.046875 1227.375 740 1225 737 C 1218.582031 728.59375 1211 721 1207 711 C 1216.773438 711.421875 1226.460938 714.761719 1236 716.789063 C 1239.605469 717.554688 1245.253906 719.738281 1248.851563 718.355469 C 1256 715.578125 1249.324219 700.636719 1247.574219 696 C 1242.730469 683.164063 1234.203125 672 1224.910156 662 C 1218.855469 655.496094 1210.882813 649.695313 1208 641 C 1219.855469 642 1230.367188 648.28125 1242 650 C 1229.917969 629.300781 1215.910156 615.433594 1196 602 C 1201.242188 598.699219 1217 590.554688 1223 591 C 1226.917969 591.234375 1230.179688 595.050781 1233 597.410156 C 1240.675781 604 1249.175781 609.734375 1255 618 M 234 639 C 249.375 639 264.542969 635 280 635 L 280 636 C 264.988281 640.417969 254.832031 655.300781 242 663.5625 C 235.355469 668 225.902344 670.757813 222 678 C 231.410156 678 240.621094 676.078125 250 676 L 250 674 L 237 672 L 237 671 C 257.546875 667.335938 274.785156 644 293 634 L 293 633 C 279.996094 633 267 631 254 631 L 254 630 C 258.425781 628.722656 262.167969 626.527344 266 624 C 257 620.394531 239 632.132813 234 639 M 894 631 L 894 632 C 889.441406 635.484375 885 639.46875 883 645 C 872.996094 672.617188 912.25 687.480469 924.648438 660 C 926.832031 655.160156 926.996094 650.207031 927 645 L 928 645 C 930.847656 650.433594 933.507813 656 934.34375 662 C 935.925781 673.632813 927 684.023438 916 686.480469 C 894.621094 691.222656 859.519531 677.144531 870.480469 650 C 872 646 874.847656 642.308594 878 639.46875 C 882.707031 635.425781 888.359375 633.1875 894 631 M 910 632.4375 C 921.300781 629.449219 927.96875 647.691406 915.996094 650.679688 C 904.257813 653.613281 898.222656 635.554688 910 632.4375 M 535 643 L 535 644 C 530.390625 647.515625 526 651.367188 524 657 C 519.628906 670 531.390625 685.703125 545 685.816406 C 553.6875 686 560.800781 679.308594 564.597656 672 C 566.929688 667.511719 566.996094 663 567 658 C 584 671.378906 570.464844 693.390625 553 696.535156 C 525.773438 701.4375 491.835938 668.292969 523 648 C 526.664063 645.574219 530.769531 644.003906 535 643 M 553 645.492188 C 564.199219 645.238281 566.398438 663 554 663 C 542.597656 663 540.890625 645.769531 553 645.492188 M 608 684 C 609.578125 688.757813 617.808594 696.5625 615.644531 701.761719 C 614.257813 705.09375 609.289063 703.261719 608.359375 707.148438 C 606.992188 712.828125 612 717.515625 607.683594 723 C 602.824219 728.78125 593.625 730 589.917969 737 C 587.59375 741.421875 591.367188 742.722656 595 743 L 595 744 C 574.691406 753.664063 565.660156 778.363281 546 790 L 546 791 C 553.265625 791 561.796875 792 567 786 L 562 786 C 566.285156 780.367188 569 773.3125 573.3125 768.089844 C 578.492188 761.765625 586.605469 757.542969 593 752.574219 C 597.429688 749.132813 602.886719 746.007813 600 740 C 621.671875 736.089844 626.453125 716.425781 625 698 C 627.710938 700.066406 632.761719 704.722656 636.503906 704.007813 C 638.863281 703.554688 639.441406 700.550781 642 700.402344 C 645.53125 700.207031 648.195313 702.761719 650.542969 699 C 654.511719 692.234375 645.539063 675 638 674 C 632.960938 673.222656 633 684 628.867188 685.800781 C 623.953125 688.015625 613.601563 684.015625 608 684 M 806 674 C 798 692 803.78125 705.773438 817 719 C 815 719.175781 813.800781 719.4375 812 720 L 812 721 C 814.644531 722 817.210938 722.609375 820 723.078125 C 833.675781 725.382813 833.636719 715.5625 827.722656 705.054688 C 826 702.054688 822.476563 700.433594 821.660156 697 C 820.585938 692.34375 822.632813 686.65625 823 682 C 816.511719 684 811.589844 688.308594 810 695 L 809 695 C 808.175781 688.460938 809.414063 679.699219 806 674 M 816 729 C 817 753.105469 842.394531 752.402344 854 767.09375 C 862.910156 778.214844 864.21875 794.503906 879 800 C 876 793.300781 870.515625 788.085938 868 781 C 866 775.0625 867.40625 766.285156 863.273438 761.304688 C 860.839844 758.375 857.257813 759.003906 854.1875 757.4375 C 851.601563 756.117188 852 753 849.648438 751.515625 C 845.453125 749 838.71875 748.816406 834 747 L 834 746 L 838 746 C 833 739.628906 823 732.699219 816 729 M 596 742.332031 C 596.773438 742.332031 596 742.832031 595.667969 742.667969 L 596 742.332031 M 718 776 L 724 775 C 720 780.542969 718.226563 799 730.355469 791.398438 C 732.417969 790.113281 731.414063 785.140625 731.941406 783 C 733.839844 775.304688 738.816406 769.011719 740 761 C 731.355469 764.449219 722.238281 767 718 776 M 666 785 C 664.570313 787 663 789 661.714844 791.003906 C 650.226563 807.621094 676 798.269531 666 785 M 923 792 C 924 793.457031 924.542969 794 926 795 C 925 793.074219 924.921875 793 923 792 M 561 793 C 557 793.585938 537.761719 800.71875 544.761719 807.164063 C 551.179688 813.078125 559.71875 797.359375 561 793 M 644 801 C 659.355469 801 647 788 644 801 M 510 796 C 511.636719 795.453125 511.453125 795.636719 512 794 C 510.6875 794.769531 510.769531 794.6875 510 796 M 790 800 C 791.925781 803.605469 794 806.519531 790 809 C 792.464844 815 796.585938 820.378906 796 827 C 809.835938 827 810.859375 817.386719 798 813 C 801.976563 810.253906 801.589844 808.015625 798 805 C 800.71875 800.277344 793.292969 800.078125 790 800 M 287 838 C 302.515625 831.441406 313.4375 817.234375 330 811.746094 C 376.226563 796.4375 440.90625 808.765625 484 829.253906 C 504 838.785156 522.875 850 540 864.082031 C 546.382813 869.390625 556.699219 878.269531 548.605469 887 C 544 891.667969 538.617188 886.65625 534 884.488281 C 522 879 508.972656 875.308594 496 873.429688 C 458 868 415.585938 869 380 884.148438 C 368.226563 889.191406 350.683594 896.816406 345 909 C 357.421875 902.078125 367.65625 892 381 886.453125 C 416 872.230469 461 871.804688 498 878 C 512.59375 880.335938 529.617188 884.625 541.984375 893.105469 C 546.96875 896.523438 547.796875 902.132813 552 906 C 553.203125 900.222656 556.683594 900.019531 562 900 L 562 899 C 558.9375 897.539063 554.660156 896.214844 553 893 C 551.523438 889.453125 554.476563 881.410156 559 882.058594 C 565.308594 883 562.269531 891 566.332031 892.210938 C 568.414063 893 572.792969 891.429688 572.792969 888.816406 C 572.792969 885.453125 567.171875 882.730469 565 880.816406 C 559.898438 876.3125 556 872 555 865 C 546.917969 869 542.75 861.136719 537 856.324219 C 523.945313 845.40625 508 836.828125 493 829.246094 C 449.347656 807.421875 390.230469 796.152344 342 806.003906 C 323 810 297 820.5625 287 838 M 648.324219 804.785156 C 642.746094 807.222656 651.925781 815.074219 656.378906 812.394531 C 660.652344 809.816406 651.96875 803.191406 648.324219 804.785156 M 541 826 C 549.621094 824.332031 553.921875 818.492188 554 810 C 547.363281 813.101563 543.742188 819.445313 541 826 M 652 827 C 647.535156 819 631.636719 825.316406 629.347656 833 C 627.742188 838.214844 639.191406 838.152344 641.777344 836.257813 C 646 833.152344 646.429688 828.582031 652 827 M 540 838 C 546.4375 836.085938 549.816406 832.246094 552 826 C 546 827.644531 542.3125 832.535156 540 838 M 630 866 C 662.265625 855.484375 692.429688 846.527344 727 848.039063 C 755.558594 849.289063 782 857 810 861 C 801.617188 849.105469 787.277344 844.089844 774 839.667969 C 739.707031 828.246094 701.839844 827.796875 668 841.203125 C 656.523438 845.75 636 855 630 866 M 534 852 C 543.691406 852.792969 548.722656 858.164063 557 862 C 555.347656 853.460938 549.730469 847.167969 549 838 C 542.339844 840.578125 537.71875 846.054688 534 852 M 1091 883 L 1091 884 C 1094.453125 884 1097.632813 883.800781 1101 883 C 1097.808594 882 1094.382813 883 1091 883 M 1004 891 C 1004.902344 893 1005 893 1007 894 C 996.488281 899.539063 983.355469 901.496094 972 905.027344 C 951.847656 911.289063 932 918.636719 912 925.332031 C 903.96875 928.019531 896 931.128906 888 933.652344 C 884.242188 934.824219 879.550781 935 877 938 C 909.96875 931.605469 942.179688 917.273438 974 906.667969 C 985.464844 903 1001 893.683594 1012 902 L 1005 901 C 1006.742188 907.09375 1009.167969 922.324219 1014 926 L 1015 914 C 1020.703125 917 1023 922.542969 1028 926 C 1027.554688 915.65625 1015.285156 890.191406 1033 897 L 1031 892 C 1050 892 1068.910156 885.820313 1088 885 C 1078.300781 881 1062.953125 885.289063 1053 887.195313 C 1037 890.234375 1020 891 1004 891 M 565.753906 902 C 562.726563 904.753906 571.957031 907 574.246094 905 C 577 902.195313 567.941406 900 565.753906 902 M 380 903 C 381.3125 904.617188 381.878906 904.691406 384 905 C 382.457031 903.734375 381.953125 903.511719 380 903 M 341 911 C 342.3125 910.230469 342.230469 910.3125 343 909 C 341.363281 909.546875 341.546875 909.363281 341 911 M 847 910 C 848 915.304688 850.953125 916 856 916 C 853.78125 912.363281 851 910.808594 847 910 M 568 920.746094 C 561.699219 923.597656 571.496094 930 575.675781 928.167969 C 581.222656 926 572.742188 918.726563 568 920.746094 M 851 939 C 867.300781 935 851 924.054688 851 939 M 389 933 L 389 934 L 392 934 C 390.753906 933.316406 390.453125 933.25 389 933 M 578 939.007813 C 574.175781 939.070313 572.925781 945.09375 577 945.453125 C 581.742188 946 582.960938 939 578 939.007813 M 703 938 C 692.742188 957.757813 660.65625 960 648 942 C 669 947 682.886719 946.375 703 938 M 800 941 C 794.640625 962.195313 761 969.605469 751 948 C 761.734375 948.460938 772.3125 951 783 948.472656 C 788.988281 947.066406 794.355469 943.351563 800 941 M 855 952 C 850.367188 953.285156 847.777344 963.386719 855 961.328125 C 861.554688 959.46875 862.878906 949.5 855 952 M 576 962 C 590.847656 964 584 951.023438 576 962 M 862 978 C 852.710938 967 846.785156 984.546875 862 978 M 400 983.175781 C 395.285156 985.226563 393.75 999.671875 400.960938 997.339844 C 406.855469 995.429688 405.96875 980.664063 400 983.175781 M 410.246094 997.347656 C 405.488281 999.1875 404.304688 1013.78125 411.957031 1011.339844 C 418.515625 1009.242188 415.246094 995.40625 410.246094 997.347656 M 419 997 C 419 1001.644531 420.402344 1013.550781 425.417969 1015.6875 C 428.777344 1017.121094 434 1016.574219 438 1018 C 434.695313 1008.46875 428 1001.324219 419 997 M 528 1020 C 532 1023.742188 533.320313 1029 537 1033 C 545.410156 1041.519531 554.960938 1043.511719 555 1057 C 551.242188 1054 549 1049.597656 545.816406 1046.09375 C 539 1039.042969 525.449219 1032.15625 528 1020 M 607 1121 C 599.910156 1112.535156 594.769531 1104 586 1096.613281 C 581 1092.492188 575.882813 1088.550781 571 1084.269531 C 565.644531 1079.550781 559.605469 1073.339844 558.328125 1066 C 558 1064.542969 557.375 1058.207031 560 1058.207031 C 563 1058.207031 569.617188 1073.390625 571.667969 1076 C 583.867188 1091.503906 609.746094 1099.261719 607 1121 M 626 1191 C 639 1180.648438 619.980469 1159.382813 617.613281 1146 C 614.269531 1127.058594 619.761719 1105.804688 630.359375 1090 C 634.378906 1084.003906 639.414063 1077 647 1075.40625 C 659.808594 1073 678.871094 1084.28125 689 1091.003906 C 698.417969 1097.253906 709 1105.113281 714.855469 1115 C 722.941406 1128.6875 701.472656 1120.066406 697 1116 C 700.53125 1121 706.78125 1123.617188 709.542969 1129.015625 C 712 1134.019531 708.21875 1136.625 708.859375 1141.171875 C 710.367188 1152 714.878906 1157.320313 712 1169 C 723.195313 1157.460938 715.824219 1145 719.433594 1132.003906 C 720 1129.605469 724.214844 1124.144531 726.398438 1128.335938 C 728.207031 1131.820313 727 1138.148438 727 1142 L 729 1142 C 729 1135.515625 730.1875 1129.402344 731 1123 C 739.898438 1129.71875 737.441406 1141.183594 739.449219 1151 C 740.929688 1158.230469 744.339844 1164.828125 746 1172 C 747.820313 1166 747 1159.09375 749 1153 C 750.25 1149.675781 754.179688 1145.808594 754 1142.285156 C 753.847656 1133.761719 747.75 1128.804688 751.46875 1119 C 758.742188 1099.820313 778.414063 1086.546875 796 1077.753906 C 806 1072.691406 816.316406 1068.453125 824.46875 1079.003906 C 833.800781 1091.085938 834 1112.394531 834 1127 C 834 1139.621094 832.660156 1152 828.644531 1164 C 808.585938 1224.222656 741.851563 1237 687 1222 C 666 1216.140625 641.820313 1206.140625 626 1191 M 1031 1086 L 1032 1087 L 1031 1086 M 968 1111 C 964.546875 1116 959.550781 1119.527344 957 1125 C 964 1124.667969 974 1119.035156 968 1111 M 949 1134 C 951.433594 1137.484375 955 1137.625 959 1137 C 956 1134 953 1134.015625 949 1134 M 942 1144 C 943.503906 1147.011719 944.761719 1148.074219 948 1149 C 946.484375 1146.082031 945 1145.078125 942 1144 M 911 1179 C 922.316406 1174.710938 929 1163.59375 942 1163 C 935.1875 1145.433594 916.378906 1169.609375 911 1179 M 726 1174 C 726 1184.359375 731.519531 1215.257813 718 1216 L 718 1217 L 733 1217 L 733 1216 C 723.355469 1212.453125 728 1183.121094 728 1174 L 726 1174 M 790 1247 L 789 1248 L 790 1247 M 776 1251 L 775 1252 L 776 1251 M 771 1252.332031 L 771.332031 1252.667969 C 770.839844 1252.832031 770.226563 1252.332031 771 1252.332031 M 768 1253 L 768 1254 L 765 1254 C 766.246094 1253.316406 766.550781 1253.25 768 1253 M 928 1279 C 928.878906 1287.777344 933.847656 1296.226563 937.753906 1304 C 938.636719 1305.757813 940.734375 1311.792969 943.605469 1310.652344 C 946.746094 1309.40625 948 1302 948.972656 1299 C 952.90625 1286.300781 954.773438 1272.257813 954 1259 C 941.277344 1265.609375 947.683594 1282.65625 928 1279 M 822 1283 C 822.339844 1287.261719 824 1291.734375 823.582031 1296 C 823 1301.046875 820.324219 1304.738281 821.789063 1310 C 824.398438 1319.367188 833.695313 1327.703125 832.769531 1338 C 831.964844 1347 822.199219 1350.558594 815 1346 C 810.265625 1343 808.910156 1338 807 1333 L 806 1333 C 806.5 1344.628906 823.285156 1365.339844 834 1350 C 844 1335.382813 826.890625 1319.238281 825.183594 1305 C 824.253906 1297.214844 828 1289.441406 822 1283 "/>
</g>
</svg>
