<?xml version="1.0" encoding="UTF-8"?>
<svg xmlns="http://www.w3.org/2000/svg" xmlns:xlink="http://www.w3.org/1999/xlink" width="1500pt" height="1500pt" viewBox="0 0 1500 1500" version="1.1">
<g id="surface1">
<path style=" stroke:none;fill-rule:nonzero;fill:rgb(0%,0%,0%);fill-opacity:1;" d="M 243 401 C 237.699219 401.65625 237.351563 414.398438 236.59375 419 C 233.355469 438.640625 229 459.066406 229 479 C 229 495.445313 229 511.289063 234.679688 527 C 240.390625 543.105469 250.890625 557.207031 254.78125 574 C 262.386719 606.789063 251.394531 640.519531 247.257813 673 C 245.675781 685.4375 250.519531 699 246.980469 711 C 243.199219 724 236.359375 735.59375 231.398438 748 C 217.71875 782.1875 203.632813 821.628906 205 859 C 207 915.507813 230.996094 969.566406 252.589844 1021 C 267.765625 1057.160156 284 1092.796875 305 1126 C 332.253906 1169 368.566406 1207 405 1242.019531 C 448.320313 1283.714844 495.875 1323.019531 549 1351.714844 C 618.792969 1389.410156 702.300781 1405.070313 781 1400 C 841 1396.027344 900.929688 1380.378906 954 1351.714844 C 1002.296875 1325.628906 1043.507813 1289.660156 1084 1253.132813 C 1126.335938 1215 1166.324219 1172.359375 1196.957031 1124 C 1215.65625 1094.480469 1229.871094 1062.71875 1244.285156 1031 C 1271.496094 971.128906 1301.476563 903.195313 1294.867188 836 C 1292 807.113281 1282.414063 778 1271.800781 751 C 1266.421875 737.382813 1258.929688 724.140625 1255 710 C 1251.644531 697.769531 1255 681 1253.867188 668 C 1251.796875 647.296875 1244.796875 626.804688 1244 606 C 1243.496094 592.070313 1243.976563 578.265625 1248.679688 565 C 1256.308594 543.484375 1269.523438 525.359375 1271.867188 502 C 1274.476563 476 1271.21875 450.644531 1266.589844 425 C 1265.679688 420 1264 401.332031 1258 402 C 1260.628906 381.226563 1266 361.035156 1266.960938 340 C 1269.503906 282 1257.847656 219.023438 1243 163 C 1238.53125 145.558594 1231.921875 127.15625 1218.828125 114.175781 C 1195.371094 91 1160.65625 100 1136 115.695313 C 1074.882813 154.628906 1035.359375 220 994.71875 278 C 982.214844 296 969.460938 313.550781 956.371094 331 C 951.214844 338 945.933594 349.011719 938 353 C 930.972656 356.480469 921.203125 350.78125 914 350.074219 C 893.695313 348.089844 873.355469 347.230469 853 349.171875 C 814.625 352.820313 775.613281 358 737 357 C 701.589844 356.117188 666.320313 350.507813 631 348.089844 C 616.511719 347.097656 601.351563 348.269531 587 350.160156 C 579.980469 351.082031 572 355.113281 565 353.71875 C 556.984375 352.152344 552.527344 342.050781 548.277344 336 C 536.714844 319.523438 524.25 303.710938 513 287 C 475.558594 231.382813 437.777344 172.230469 385 129.804688 C 362.921875 112.054688 331.582031 92.617188 302 102.027344 C 269.78125 112.28125 259.621094 153 253.800781 182 C 243 235.332031 232.652344 291.449219 235 346 C 235.839844 364.3125 240.699219 382.804688 243 401 M 1180 464 C 1181.777344 460.8125 1183.777344 458 1186 455 C 1183.644531 456 1181.46875 456.574219 1179 457 L 1181 452 C 1169.632813 456.765625 1163.738281 466.089844 1161.753906 478 C 1161.414063 480.042969 1159.320313 492 1163 492 C 1166.433594 492 1171.785156 484.171875 1174 482.015625 C 1180.886719 475.300781 1188.566406 470.183594 1198 468 C 1196 474.796875 1186.261719 490.785156 1192.9375 497.453125 C 1195.167969 499.679688 1198.167969 496.628906 1200 495.34375 C 1204.949219 492 1210.867188 489.339844 1217 490.683594 C 1239.917969 495.707031 1238 526.460938 1238 544 L 1239 544 C 1245.328125 530.449219 1250.875 519.492188 1248.820313 504 C 1247.671875 495.363281 1242.648438 488 1243 479 C 1243.503906 468.480469 1250.679688 459.324219 1252.535156 449 C 1254.234375 439.566406 1251 429.519531 1251 420 L 1252 420 C 1255.710938 449.351563 1262.953125 480.445313 1257.574219 510 C 1254 529.664063 1241.378906 546.007813 1235.722656 565 C 1228.625 588.8125 1231.46875 614 1236 638 C 1225 632.316406 1224 620 1222.835938 609 C 1220.785156 590 1222.476563 562.296875 1207 548 C 1206.496094 552 1206 567 1202.398438 568.824219 C 1198.613281 571 1194.304688 563.449219 1192.878906 561 C 1186.5 550.0625 1184 537.503906 1184 525 C 1179 529.105469 1176.773438 535 1175 541 C 1174.617188 543.035156 1174.542969 548.617188 1172.363281 549.652344 C 1169.746094 551 1167.652344 544.535156 1167 543 C 1163.664063 535 1160.9375 526.671875 1163 518 C 1158.449219 523.359375 1156.414063 530.511719 1151 535 C 1149.683594 525.214844 1147 516 1147 506 C 1142.816406 511 1140.226563 516.46875 1137 522 C 1132.226563 515.300781 1132.964844 506 1133 498 C 1133 465.140625 1159.828125 440.632813 1175 414 C 1160.847656 428.152344 1147.230469 442.359375 1136 459 L 1135 459 C 1137 449.160156 1141.390625 440.308594 1145 431 L 1137 435 C 1145.320313 415.019531 1163.683594 402.351563 1177 386 C 1170.898438 388.0625 1165 391.222656 1159 393 L 1159 392 C 1165.285156 388 1171.449219 383.097656 1177 378 C 1171.789063 377.34375 1167.207031 377.777344 1162 378 L 1162 377 C 1171.324219 374.3125 1184.691406 367.410156 1191 360 C 1184.371094 360 1178.484375 360.664063 1172 362 L 1172 361 C 1184.65625 353.71875 1196.660156 341 1205 329 C 1200.203125 329.390625 1195.621094 330.699219 1191 332 C 1193.988281 322 1202.773438 314.261719 1209 306 C 1204.496094 306.394531 1200.382813 308 1196 309 C 1199.941406 295.609375 1212.800781 287.140625 1219 275 C 1212 277.632813 1204.308594 279.488281 1197 281 C 1200.554688 268.476563 1207.773438 259.183594 1214 248 C 1209 250.34375 1204.203125 253.351563 1199 255 C 1198.941406 233.527344 1191.671875 213.164063 1172 202 C 1162.84375 196.625 1148.234375 193.75 1140 202 C 1149.699219 200 1161 204.054688 1167 212 C 1155.386719 212 1138.929688 211 1131 221 C 1142.300781 219.765625 1151.988281 225.832031 1162 230 L 1162 231 C 1149.84375 231 1137.695313 232.199219 1126 235.722656 C 1124.488281 236.175781 1113.8125 239.09375 1115.207031 241.480469 C 1116.714844 244.0625 1123.558594 243 1126 243.003906 C 1134 243.101563 1141.234375 244.578125 1148 249 L 1148 250 C 1134.253906 251.738281 1117 252.027344 1107 263 C 1119.53125 263 1131.550781 264.015625 1144 265 L 1144 266 C 1120.960938 266.003906 1095.890625 281.117188 1080 297 C 1096.96875 290 1110.601563 287 1129 287 L 1129 288 C 1108.296875 291.046875 1087.804688 304.832031 1073 319 C 1085.285156 314 1096.226563 304.601563 1110 304 L 1110 305 C 1094.339844 314.007813 1084.214844 330.402344 1076 346 C 1086 341.1875 1091.609375 330.023438 1102 326 C 1097 341.277344 1090.808594 357.144531 1081 370 C 1087.496094 367.28125 1093.191406 363 1100 361 C 1096.925781 383.726563 1079.84375 390.585938 1065 404 C 1079.652344 404 1091.972656 397.414063 1106 395 C 1097 426.410156 1076.183594 467.210938 1047 484 C 1047 473.265625 1045 462.726563 1045 452 L 1044 452 L 1041 458 L 1040 458 C 1040 441.742188 1042.730469 427 1044 411 C 1037.71875 416.734375 1032.394531 423.132813 1029 431 L 1028 431 C 1028 411 1032.535156 393.300781 1037 374 C 1029 379.546875 1024 387.480469 1020 396 L 1019 396 C 1021 387.421875 1020.96875 378.613281 1023.425781 370 C 1027 357.398438 1032.996094 346.015625 1038 334 C 1031.5 338.578125 1025.558594 345 1022 352 L 1021 352 C 1024 335.398438 1031.574219 325.546875 1039 311 C 1035 313.089844 1031 315.273438 1027 317 C 1037.722656 289.367188 1048.628906 261.34375 1062.257813 235 C 1067.476563 225 1074.671875 216.011719 1080 206 C 1053.457031 232.765625 1044.5 266.402344 1028.191406 299 C 1021.355469 312.660156 1010.695313 324 1003 337 C 989 360.675781 981 387.539063 981 415 C 966.75 409.785156 939.515625 389.421875 943.527344 372 C 945.761719 362.316406 954.40625 354.539063 960.339844 347 C 971.371094 333 981.746094 318.503906 992 304 C 1029 252.519531 1062.960938 200 1108 155 C 1127.492188 135.535156 1153.664063 112.328125 1183 112.339844 C 1199 112.347656 1210.941406 123.117188 1218.933594 136 C 1233.21875 159.023438 1235.519531 187 1240.390625 213 C 1251 270.25 1258.65625 324.070313 1249 382 C 1246 400.089844 1246.378906 423.339844 1233.789063 438 C 1220.402344 453.589844 1198.644531 458 1180 464 M 520 415 C 520 388.261719 512.394531 361.203125 499 338 C 492.328125 326.109375 482.570313 316.195313 476.257813 304 C 458 269 447.542969 234 420 204 C 440.394531 240.773438 460.898438 276.738281 474 317 L 462 311 C 470.742188 322.800781 479.339844 335.804688 480 351 L 479 351 C 474.816406 344.386719 470 339 464 334 C 473.191406 353.691406 481 371.800781 481 394 L 480 394 C 477.386719 385.738281 470.980469 379 464 374 C 471.773438 392.058594 473.996094 414.519531 474 434 L 473 434 C 470.792969 424.710938 464.761719 416.46875 457 411 C 460.617188 426.023438 461 441.640625 461 457 L 460 457 L 458 452 L 457 452 C 454.617188 462.011719 454 473.710938 454 484 C 425 467.265625 403.867188 426.234375 395 395 C 408.90625 397.082031 421.589844 403.703125 436 404 C 422 390 404.335938 383.578125 401 361 C 408 362.363281 414.351563 367.234375 421 370 C 410.6875 358 404 340 399 325 C 408.972656 330.761719 415.417969 341 426 346 C 416.769531 330.183594 407.433594 314.453125 391 305 L 391 304 C 404.390625 306.769531 415.550781 313.816406 428 319 C 415.648438 304.769531 391.675781 291.214844 373 288 L 373 287 C 390.871094 284.742188 405.71875 290.320313 422 297 C 405.609375 280.609375 384.171875 266.066406 360 266 L 360 265 C 372.375 264.023438 384.558594 263 397 263 L 397 262 C 382.398438 256.335938 368.574219 252 353 250 L 353 249 C 365.207031 244 375.917969 243 389 243 C 375.386719 230.019531 356.617188 231 339 231 L 339 230 C 349.84375 225.484375 359.636719 222.738281 371 220 L 371 219 C 358.796875 215.03125 346.925781 212.007813 334 212 C 340.75 202.644531 351.324219 202 362 202 C 354.480469 194.734375 340.691406 197 332 201 C 310.242188 211 302 232.71875 302 255 L 286 248 C 293 258.28125 299.929688 268.042969 304 280 C 296.195313 279.378906 288.816406 276.339844 281 276 C 290.339844 285.535156 300.65625 296.621094 306 309 C 301.234375 308.296875 296.820313 306.421875 292 306 C 297.875 314.59375 306.765625 322 310 332 C 305.378906 330.699219 300.796875 329.390625 296 329 C 304 340.554688 316.550781 351.765625 328 360 L 328 361 L 310 360 C 318.265625 367.589844 328.375 373.382813 339 377 L 339 378 L 324 378 C 329.699219 384.175781 337.960938 387 343 394 C 337 391 331.71875 387.589844 325 387 C 339 401.050781 359 414.535156 364 435 L 356 431 C 359.808594 439.59375 363.523438 449 366 458 C 351.246094 446 342.191406 427.371094 327 415 C 343.1875 438.675781 362 459.605469 367 489 C 368.765625 499.003906 369.613281 513.066406 364 522 C 361 517 358.28125 511.484375 356 506 C 353 513.097656 351.75 545.042969 342.578125 524.003906 C 341.707031 522.003906 340.828125 520.015625 340 518 L 339 518 C 338.96875 529.320313 337.742188 543.761719 328 551 C 327.578125 541.203125 324.585938 532.339844 318 525 C 317.898438 537.203125 314.601563 549.328125 308.6875 560 C 307.214844 562.65625 302.714844 570.78125 298.601563 568.742188 C 294.988281 567 294.496094 552 294 548 C 282.457031 561.578125 279 581.621094 279 599 C 279 612.140625 279.382813 630 266 637 C 266 616 271.855469 595.050781 267.550781 574 C 263.730469 555.328125 251.738281 540 246 522 C 236.925781 493.386719 239.722656 449.148438 250 421 L 251 421 C 250.570313 431 247.59375 441 249.46875 451 C 251.339844 461 258 469.609375 258.285156 480 C 258.46875 488.78125 253.40625 496.417969 252.289063 505 C 250.277344 520.433594 255.675781 530.625 262 544 L 263 544 C 263 528 261.742188 505.449219 276 494.417969 C 282.4375 489.453125 291 489.078125 298 493.085938 C 300.488281 494.515625 303.640625 498.675781 306.785156 498.230469 C 310 497.753906 310.882813 492.625 310.65625 490 C 309.996094 482.367188 305.859375 475 303 468 C 318.425781 470.3125 328.648438 483.640625 339 494 C 339.8125 475.09375 336.550781 462.304688 320 451 L 322 457 L 315 455 C 316.855469 457.609375 318.578125 460.136719 320 463 C 302 460.324219 274.554688 450.023438 264.929688 434 C 255.71875 418.664063 255 398.25 252.246094 381 C 242.5625 323 252 265.417969 261.917969 208 C 266 183.691406 269.507813 157.457031 282.449219 136 C 288.855469 125.382813 298 115.210938 311 113.300781 C 340.871094 109 366.394531 130.285156 387 148.832031 C 436.710938 193.570313 472.199219 252 510.710938 306 C 521.304688 321 532 335.730469 543.449219 350 C 549.265625 357.285156 557.496094 365.25 558.632813 375 C 559.3125 380.804688 555.246094 386 551.699219 390 C 543 400.105469 532.382813 409.816406 520 415 M 1084 199 C 1082.277344 201.308594 1081 203.316406 1080 206 C 1082.527344 204 1084.449219 202.328125 1084 199 M 416 200 C 417.261719 202 418 203 420 204 C 418.78125 202 418 201.15625 416 200 M 481 352 L 480 353 L 481 352 M 898 383 L 898 384 C 941.953125 396.660156 974.84375 437.636719 1002.753906 471 C 1031.234375 505.042969 1060.894531 539.625 1097 566 C 1122.542969 584.398438 1150.785156 599.035156 1175 619.4375 C 1192.457031 634.148438 1207 652.035156 1219.667969 671 C 1227.378906 682.59375 1237.738281 695.261719 1241 709 L 1227 706 C 1233.929688 714 1244.707031 720.6875 1248 731 C 1240.890625 729.527344 1234.65625 726.769531 1228 724 C 1234.433594 732.339844 1242.894531 736.828125 1249.605469 744.214844 C 1256.441406 751.738281 1249.652344 753.292969 1243 751.164063 C 1240.671875 750.417969 1238.351563 749.679688 1236 749 C 1242.277344 757.726563 1254.363281 761.304688 1258 772 L 1242 768 C 1249.6875 775.6875 1258.996094 783.195313 1264 793 L 1250 789 C 1255.683594 797.066406 1263.667969 803 1268 812 L 1257 812 C 1262.644531 817.660156 1267.738281 823.164063 1270 831 L 1263 828 L 1271 842 L 1266 841 L 1275 853 C 1265.546875 856.320313 1270.984375 866 1273 873 C 1264.753906 872.285156 1267.210938 882.363281 1266.960938 888 C 1266.210938 905.023438 1258 925 1247.539063 938 C 1215 978.195313 1171.5625 998.257813 1127 1021.257813 C 1114.511719 1027.703125 1101.632813 1043.371094 1088 1046.292969 C 1082.574219 1047.453125 1078.417969 1041.300781 1075 1038.039063 C 1071.796875 1035 1067.261719 1032.496094 1064.742188 1028.824219 C 1057 1017.574219 1076.542969 1007.605469 1082 1001 C 1077.921875 1001.011719 1074 1001.488281 1070 1002 C 1075.859375 995.164063 1091 988.082031 1100 988 L 1100 987 C 1063.316406 978.511719 1028.804688 964.328125 990 969.425781 C 981 970.601563 971.984375 970.648438 963 972.003906 C 960.984375 972.308594 953.960938 973.246094 955.347656 976.789063 C 956.460938 979.636719 960.84375 978.570313 963 978.113281 C 971 976.394531 978.773438 975.613281 987 974.828125 C 1021 971.59375 1053.625 979.507813 1087 984 L 1087 985 C 1075.613281 988.367188 1061.554688 985.460938 1050 984 C 1053.652344 987.703125 1058.332031 989.308594 1061 994 C 1055.777344 994 1051 993.050781 1046 992 C 1048.773438 995.207031 1055.867188 1003.503906 1047 1002 C 1049.753906 1009.144531 1053.699219 1016.449219 1055 1024 C 1031.96875 1016.160156 1011.1875 1005.714844 987 1000.800781 C 980 999.390625 973 998 966 997.171875 C 962.757813 997 958.167969 997.832031 955.5625 995.398438 C 950.980469 991.109375 950.769531 978 948.398438 972 C 942.289063 956.550781 931.785156 939.714844 918 930 C 925 945.820313 934.941406 961.363281 939.855469 978 C 941 982 945.324219 990.589844 942.730469 994.398438 C 940 998.40625 922.875 997 918 998.003906 C 916 998.402344 911 999.0625 911 1001.824219 C 911 1004.710938 916.492188 1003.480469 918 1003.246094 C 923.648438 1002.367188 937.523438 997.832031 942.621094 1001.117188 C 946.445313 1003.578125 940 1006.773438 941.1875 1009.503906 C 941.9375 1011.472656 944.652344 1012 945.425781 1014.148438 C 947.824219 1021.285156 946 1031.71875 945 1039 C 944.722656 1041 944.71875 1045.664063 942.410156 1046.554688 C 936.847656 1048.695313 925.734375 1032.378906 920.921875 1036.238281 C 918.652344 1038.058594 925.988281 1042.125 927 1042.6875 C 936.71875 1048.101563 942.824219 1052 939.867188 1064 C 939.332031 1066.195313 938.847656 1069.652344 936.570313 1070.785156 C 933 1072.515625 927.824219 1068.039063 925 1066.425781 C 914.796875 1060.601563 903.886719 1056.15625 893 1051.800781 C 890.257813 1050.703125 881.539063 1046 878.921875 1049.015625 C 875.753906 1052.816406 892 1056.289063 894 1057 C 907 1061 947.972656 1072.066406 928.472656 1090.679688 C 923.726563 1095.207031 918.683594 1089.488281 915 1086.433594 C 906.996094 1079.792969 896.40625 1069.015625 886 1067 C 895.421875 1078.570313 919.253906 1083.371094 923 1099 C 915 1097.414063 908.863281 1089.695313 902 1085.605469 C 894.253906 1081 886 1076.71875 878 1072.757813 C 877 1072.292969 868.8125 1068.226563 869.632813 1072.027344 C 870.496094 1076.039063 880.742188 1078.628906 884 1080.246094 C 893.238281 1085 901.800781 1090.585938 911 1095.246094 C 913.9375 1096.734375 919.503906 1099 918.941406 1103.015625 C 918 1109 909 1113.46875 905 1117 C 918.226563 1111.464844 928.820313 1100.667969 936.835938 1089 C 937.714844 1087.722656 943.402344 1079.417969 945.292969 1083.621094 C 948.726563 1091.261719 934.371094 1097.683594 930.878906 1101.507813 C 911.558594 1122.675781 880.519531 1129 853 1133.410156 C 829.234375 1137.226563 805.640625 1137.824219 782 1132.789063 C 775 1131.328125 768.414063 1129.40625 762 1126.5625 C 758.28125 1125 754.257813 1121.34375 750 1121.605469 C 745.6875 1122 741.808594 1125.363281 738 1127.101563 C 731.183594 1130.207031 723.34375 1132.15625 716 1133.539063 C 686.421875 1139.117188 653.945313 1137 625 1129.152344 C 604.582031 1123.648438 583 1116.160156 567 1101.824219 C 564.203125 1099.324219 551.589844 1088.402344 556 1083.753906 C 559 1080.632813 563.738281 1090.363281 564.925781 1092 C 572.480469 1102.398438 584 1114.03125 597 1117 L 597 1116 C 587.714844 1113 573.605469 1102.289063 581 1092 C 572.867188 1095.351563 562.554688 1083.257813 567.195313 1075.339844 C 569 1072.121094 573.902344 1070.734375 577 1069 C 587.296875 1063.226563 598.570313 1058.609375 610 1055.628906 C 612 1055.082031 623.523438 1053.054688 621.792969 1049.300781 C 619.996094 1045.40625 610.496094 1050.394531 608 1051.320313 C 596 1055.714844 584.753906 1061 574 1067.679688 C 571.191406 1069.433594 565.953125 1073.542969 563 1069.667969 C 555.554688 1059.089844 585.378906 1051.058594 592 1048.691406 C 593.457031 1048.171875 603.574219 1045.441406 601.792969 1042.683594 C 600.304688 1040.378906 593.660156 1044.289063 592 1045 C 584.398438 1048.257813 577.382813 1052.5625 570 1056.246094 C 567.621094 1057.433594 564 1060 561.242188 1058.757813 C 557.5 1057.113281 559.21875 1052.511719 561.28125 1050.328125 C 563.800781 1047.664063 581.335938 1041.097656 580.367188 1037.425781 C 579.535156 1034.269531 571.203125 1040 570 1040.695313 C 567.347656 1042.382813 562.746094 1047 559.316406 1046.117188 C 556 1045.402344 556.792969 1038.453125 556.410156 1036 C 555.203125 1028.265625 550.785156 1012 562 1011 C 560.585938 1009 557.183594 1006 557.207031 1003.277344 C 557.265625 996.4375 577.589844 1001.679688 581 1002.425781 C 582.574219 1002.769531 589.792969 1005.214844 589.792969 1001.8125 C 589.792969 999 585 998.222656 583 997.808594 C 578.589844 997 560.683594 998 558.605469 994.398438 C 556 990 560.226563 981.285156 561.667969 977 C 567.175781 960.640625 577.640625 946.449219 583 930 C 571.34375 941.65625 560.972656 953.691406 554.425781 969 C 551.65625 975.480469 550.710938 991 545.566406 995.257813 C 539.996094 1000 523.382813 998.816406 516 1000.625 C 491.90625 1006.535156 469.410156 1015.078125 446 1023 C 447.1875 1017.265625 450.371094 1011.769531 451.335938 1006.132813 C 452.457031 999.546875 446.40625 998 456 993 L 456 992 C 450.320313 992.453125 444.53125 993.636719 439 995 C 441.472656 990.4375 445.78125 988 449 984 C 436.898438 985.527344 424.203125 986 412 986 L 412 985 C 442.445313 975.097656 480.1875 970.519531 512 974.285156 C 520.765625 975.324219 529.347656 976.285156 538 978.113281 C 540 978.570313 544.535156 979.636719 545.652344 976.789063 C 547 973.078125 539 972.265625 537 972 C 527.238281 970.269531 516.894531 969.050781 507 969 C 479 969 451 971.753906 424 979.152344 C 411.414063 982.597656 399.519531 988.421875 387 992 L 387 993 C 392.601563 991.671875 398 988 404 988.097656 C 411.464844 988.238281 424.332031 997.121094 431 1001 L 431 1002 L 419 1001 C 424 1007.703125 441.554688 1018.292969 435.96875 1029 C 433.933594 1032.773438 429 1035.121094 426 1038.089844 C 422.503906 1041.5 418.769531 1047.652344 413 1046.511719 C 408 1045.542969 403.929688 1040.25 400 1037.429688 C 392.460938 1032.015625 384.265625 1027.4375 376 1023.242188 C 331.820313 1000.828125 284.664063 978.128906 253.210938 938 C 242.578125 924.4375 235 904.335938 235 887 C 234.976563 881.699219 236.558594 872.320313 229 873 C 229.789063 868.40625 232.820313 863.703125 232.667969 859.015625 C 232.566406 856 228.769531 853.78125 229.453125 850.789063 C 230.835938 844.734375 235.304688 838.324219 235.980469 832.1875 C 236.269531 829.589844 233.722656 830 232 830 C 234.28125 823.414063 246.601563 811.410156 234 812 C 238.191406 803.140625 245.460938 797 251 789 C 246.550781 790.152344 242.292969 791.347656 238 793 C 242.71875 783.082031 252.339844 775.660156 260 768 C 254.34375 769.308594 248.832031 772.246094 243 771 C 248.957031 762.566406 258.453125 757 266 750 C 259.746094 749.726563 254 752.175781 248 753 C 253.210938 740.574219 265.730469 735 273 724 C 266.554688 726.195313 260.902344 729.4375 254 730 C 258.476563 719.757813 267.964844 714.046875 274 705 C 269.800781 707 265.492188 708.070313 261 709 C 264.289063 695.144531 274.546875 682.660156 282.332031 671 C 316.179688 620.324219 366.765625 596 413 559 C 461.601563 520.242188 493.972656 467.03125 539 425.089844 C 558.945313 406.511719 579.828125 396.1875 603 383 C 596 380.8125 565.359375 380.382813 570.644531 367.277344 C 572.523438 362.613281 582.882813 363.273438 587 363 C 602.941406 361.128906 619.992188 359.320313 636 361.425781 C 680 367.21875 725.460938 372 770 370 C 796 368.816406 821.84375 363.308594 848 363 C 868.90625 362.746094 889 360.832031 910 362.828125 C 915 363.320313 928 362.082031 930.351563 368.226563 C 934.648438 379.664063 904.554688 381.5 898 383 M 728 478 C 725.882813 482.40625 725.882813 485.59375 728 490 L 729 490 C 729 486.015625 729.550781 481.695313 728 478 M 772 478 C 771 482 770.425781 485.472656 774 488 C 773.996094 484.269531 774.304688 481.039063 772 478 M 750 483 C 744.925781 500.167969 743.8125 521.0625 740.574219 539 C 736.433594 562 729.480469 586.496094 731 610 C 732.363281 628.632813 740.328125 645 743 663 L 745 663 L 744 652 L 745 652 C 747.554688 656.628906 750 638.707031 750 636 L 751 636 C 751 657.425781 743 677.730469 743 699 C 742.96875 706 742.738281 717.714844 749 722 C 749 697.277344 761.773438 674.722656 767 651 C 770.863281 634.332031 767.871094 617 770 600 C 765.738281 603 764.433594 609.070313 764 614 L 763 614 C 763.707031 597.796875 774.683594 584.679688 777 569 C 768.648438 575.007813 762.523438 586 761 596 L 760 596 C 761.179688 581.035156 763.996094 566.03125 764 551 C 759.320313 554.375 756.597656 558.46875 755 564 L 754 564 C 755.816406 550.5 760.960938 537.8125 761 524 C 756.792969 527.15625 755.667969 534.246094 753.640625 539 C 749.316406 549.101563 743.519531 557.730469 742 569 L 741 569 C 741.847656 549.320313 747.445313 529.667969 749 510 L 750 510 L 751 537 C 755 534.171875 753.984375 528.496094 754.574219 524 C 756 512.242188 759 492.410156 750 483 M 394 484 C 401 495.710938 407.617188 506.066406 419 514.253906 C 421.808594 516.273438 432.792969 520.386719 432.792969 524.214844 C 432.792969 528.371094 425.824219 533.152344 423 535.570313 C 412.390625 544.660156 401.453125 553.277344 390 561.28125 C 360.726563 581.734375 329.730469 598.550781 305 625 C 294.273438 636.613281 283.816406 649 274.722656 662 C 269.582031 669.359375 266.371094 678.558594 259 684 C 260.578125 671.507813 258.21875 655.371094 264.417969 644 C 269.828125 634.070313 283.175781 628.304688 290.910156 620 C 315.863281 593.214844 343 568.175781 366.566406 540 C 374.277344 530.714844 381.523438 520.371094 385.769531 509 C 388.695313 501.175781 388.992188 490.71875 394 484 M 723 499 C 723.628906 497.023438 724.335938 495.050781 724.675781 493 C 727 478.304688 713.820313 491 723 499 M 776 484 L 776 489.023438 C 776.199219 502.726563 785.628906 489.566406 776 484 M 1108 484 C 1121 534.570313 1156.40625 562.40625 1192 598 C 1202.203125 608.203125 1210.691406 620 1221 630 C 1225.464844 634.347656 1233.496094 637.726563 1236.546875 643.105469 C 1242.449219 653.511719 1242.96875 674.1875 1243 686 L 1242 686 C 1217.859375 630.050781 1164.539063 598.742188 1117 566 C 1103.726563 556.828125 1090.96875 547 1079 536.074219 C 1075.96875 533.34375 1067.519531 529 1068 524.101563 C 1068.535156 519.453125 1078.601563 516.535156 1082 514.25 C 1094 506.117188 1099 494.683594 1108 484 M 713 487 C 711.828125 491 712 495 712 499 L 711 499 C 710 497.078125 709.925781 497 708 496 C 710.636719 509 720.183594 495.261719 713 487 M 794 496 C 791.882813 497.21875 791 498 790 500 L 789 500 L 789 487 C 776.234375 493.28125 788.769531 509.335938 794 496 M 700 491 C 700 494.554688 697.914063 513.117188 702 514.078125 C 704.714844 514.660156 704.886719 509.402344 704.960938 508 C 705.292969 501.453125 705.394531 495.386719 700 491 M 800 491 C 795.914063 496.117188 792.996094 518.648438 804 511 C 805 518 810 518.425781 816 517 C 816.839844 532.324219 823.90625 505.214844 825 501 C 817.90625 504.457031 807 521.695313 807 504 C 797.363281 506 802.273438 496.570313 800 491 M 676 501 L 678 513 L 673 509 C 673 511.636719 675.953125 524.039063 670.515625 523.222656 C 666.8125 522.664063 664.429688 517.050781 660 518.421875 C 655 520.019531 657.816406 528.269531 654.273438 531.34375 C 650.386719 534.707031 640.261719 525.261719 636 524 C 636.222656 529 637.679688 533.339844 639 538 L 638 538 C 635.238281 532.195313 631.441406 527.53125 625 526 C 625.425781 528.46875 626 530.644531 627 533 C 623.882813 530.027344 621 527.5625 617 526 C 617 530.589844 620.703125 544.523438 626.867188 544.652344 C 631.253906 544.746094 627.652344 534.789063 627 533 C 633.460938 540.375 645 549.429688 642 533 L 643 533 C 650.589844 549.09375 659.910156 533.511719 660 523 C 669.96875 532.726563 678.957031 530.597656 679 516 L 680 516 C 680.496094 519.324219 681.4375 522.023438 683 525 C 684 523.398438 684.851563 520.304688 686.589844 519.3125 C 690.445313 517.109375 694 519.566406 697.257813 515 C 698.476563 513.136719 700.328125 506.6875 696.796875 506 C 692.835938 505.066406 694.683594 515.171875 688.957031 512.246094 C 683.746094 509.589844 681.394531 503.566406 676 501 M 828 509 C 823.476563 514.085938 817.367188 530.144531 830 529.832031 C 834.335938 529.726563 837.625 526.296875 841 524 C 841.238281 535.5625 849.878906 548.601563 858 533 L 859 533 C 856 546.558594 865.851563 540.171875 873 538 L 873 546 C 879.578125 542.390625 882.539063 533 884 526 C 879.835938 527 877 529.144531 874 532 L 876 525 C 869.648438 527.175781 865.894531 533.183594 863 539 L 862 539 C 863.675781 533.765625 865.519531 528.492188 866 523 C 861.542969 525.121094 851.382813 536.019531 846.742188 530.667969 C 844 527.574219 845.746094 521.167969 841.695313 519.136719 C 837.253906 517 834.246094 523.617188 830 523.65625 C 824.636719 523.707031 828.90625 512 828 509 M 679 513 L 679 516 L 678 516 C 678.25 514.546875 678.316406 514.246094 679 513 M 642 532 L 641 533 L 642 532 M 874 532 C 873.453125 533.636719 873.636719 533.453125 872 534 C 872.546875 532.363281 872.363281 532.546875 874 532 M 617 553 C 617.429688 550.675781 617.902344 548.371094 617.945313 546 C 617.976563 544.238281 615.796875 530.746094 612 534.753906 C 608.476563 538.492188 613.589844 550.664063 617 553 M 887.941406 534 C 880.878906 536 883.265625 551.683594 885.730469 550.652344 C 889.28125 549.171875 893 532.390625 887.941406 534 M 872 535 L 871 536 L 872 535 M 601 539 C 600.59375 543 601.480469 552.820313 606.386719 554.183594 C 614.75 556.511719 607.589844 545 605.839844 543.058594 C 604.355469 541.441406 602.773438 540.261719 601 539 M 890 551 C 891.796875 551 891.519531 551 893 550 C 893.867188 565.691406 911.675781 553 914 544 C 907.371094 546 901 549.605469 898 556 L 897 556 C 898.355469 550.148438 899.984375 545.078125 900 539 C 894.9375 541.410156 891.960938 545.832031 890 551 M 885 540 L 884 541 L 885 540 M 587 545 C 590 552.78125 596.699219 557.570313 605 558 C 601.757813 551.066406 594.507813 546.171875 587 545 M 595 560 C 593.558594 557.042969 581 544.777344 578.460938 552.214844 C 576.519531 557.757813 591.828125 560 595 560 M 907 559 C 912.242188 559 916 558 921 556 L 921 557 C 911.414063 562.261719 919.414063 566.128906 917.523438 573.039063 C 916.875 575.40625 911.921875 579.519531 914.660156 582 C 917.765625 584.738281 925.460938 580.53125 929 580 L 929 581 C 921.667969 582.324219 916 587.703125 910 591.574219 C 890 604.085938 867 625.6875 866 651 L 865 651 L 866 627 L 864 627 C 862 641.726563 860.609375 655.714844 866 670 C 870.3125 662.804688 869.769531 651.21875 872.691406 643 C 880.46875 621.148438 898.394531 597.710938 921 590 C 919.488281 592.289063 918 594.519531 917 597 L 921 597 L 921 598 C 917 601.414063 922.871094 603.035156 926 602.683594 C 934.203125 601.765625 944 599.328125 952 597 C 944.855469 591.289063 936.261719 594 928 595 L 928 594 C 931.554688 593.476563 934.71875 592.453125 938 591 L 938 590 L 931 590 L 931 589 L 935 588 C 933.621094 587.089844 932.558594 586.597656 931 586 C 933.367188 584.472656 935.1875 583.140625 937 581 C 934.582031 580.277344 932.527344 580.050781 930 580 L 930 579 C 934.96875 579 939.433594 578 944 576 L 944 575 C 941.210938 574.152344 932.574219 574.246094 931.207031 571.351563 C 930.222656 569.265625 934 567.121094 934.371094 565.109375 C 934.960938 561.097656 927.269531 562.003906 925 562 C 926.578125 559.347656 928 557 929 554 C 926.226563 554.410156 923.671875 555.148438 921 556 C 922.347656 554.230469 923 553.019531 924 551 C 916.503906 551.023438 911.527344 552.722656 907 559 M 576 564 C 564.175781 561.1875 564.308594 570 575 572 L 575 573 C 571.730469 573 560 571.28125 558.347656 574.75 C 556.3125 578.734375 570.972656 580 573 580 L 573 581 C 570 581.019531 567.730469 581.191406 565 582 L 565 583 C 601.996094 599.398438 633.636719 627 634 671 L 636 671 C 637.851563 656.429688 641.40625 641.503906 637 627 L 636 627 L 636 647 L 635 647 C 633.496094 614.132813 599.242188 602.464844 579 584 C 580.800781 584 588 583.25 584 581 L 584 580 C 590.183594 578.667969 582.464844 570.421875 581 567 C 594 564.8125 566.847656 547.316406 576 564 M 897 556 L 896 557 L 897 556 M 925 562 L 924 563 L 925 562 M 577 564 L 576 565 L 577 564 M 754 564 L 754 567 L 753 567 C 753.25 565.546875 753.316406 565.246094 754 564 M 920 566 L 919 567 L 920 566 M 741 569 L 741 574 L 740 574 C 740 572.035156 740.222656 570.769531 741 569 M 740 575 L 740 579 L 739 579 C 739.175781 577.316406 739.316406 576.507813 740 575 M 639 583 C 639.472656 588.792969 641.53125 593.785156 644 599 L 645 599 L 645 594 L 646 594 C 647 598 648.53125 601 652 603 C 651.332031 598.542969 648.210938 584.710938 642 588 C 641.25 585.746094 640.65625 584.6875 639 583 M 739 583 L 738 584 L 739 583 M 859 589 L 858 589 L 858 586 C 854.320313 588.734375 852.304688 591.605469 851 596 L 850 596 L 850 589 C 843.324219 594 841.515625 601.183594 840 609 C 843 607.519531 844.519531 606.105469 846 603 L 847 603 L 847 606 C 851.9375 601.800781 855.21875 595.1875 857 589 L 858 589 L 856 598 C 860.546875 594.09375 861.820313 588.707031 863 583 C 860.394531 584.578125 859.78125 586.058594 859 589 M 561 585 C 563.828125 590.753906 569.964844 593.554688 576 595 L 576 596 C 567.292969 594.828125 559.828125 593.359375 551 595 C 555 601 570 603.105469 576.980469 602.800781 C 580.808594 602.632813 582.382813 600.179688 579 598 L 579 597 L 585 597 C 579.632813 587.796875 570.832031 586.242188 561 585 M 930 586.332031 C 930.773438 586.332031 930 586.832031 929.667969 586.667969 L 930 586.332031 M 644 588 L 645 594 L 644 594 C 643.613281 591.730469 643.324219 590.164063 644 588 M 922 589.332031 L 922.332031 589.667969 C 921.839844 589.832031 921.226563 589.332031 922 589.332031 M 651 590 C 652.433594 597.605469 653.300781 605.324219 661 609 C 660.65625 601.496094 658 593.414063 651 590 M 928 595 L 928 596 L 925 596 C 926.25 595.316406 926.546875 595.25 928 595 M 579 596 L 579 597 L 576 597 C 577.246094 596.316406 577.546875 596.25 579 596 M 924 596 L 924 597 L 921 597 C 922.246094 596.316406 922.550781 596.25 924 596 M 850 597 L 849 598 L 850 597 M 671 621 C 671 618.007813 671 615 670.960938 612 C 670.851563 609.820313 667.277344 595.382813 663 599.753906 C 658.691406 604.234375 666.984375 618.722656 671 621 M 832 621 C 834.179688 618.578125 843.433594 600 836.726563 599.035156 C 827.960938 597.828125 830.296875 617 832 621 M 534 602 L 534 604 C 545.757813 604 557.242188 606 569 606 C 560.273438 596.742188 545 600.59375 534 602 M 931 605 L 931 606 C 942.757813 606 954.292969 604.007813 966 604 C 960 595.484375 938.597656 601.1875 931 605 M 847.667969 601.667969 C 847.722656 601.722656 847.777344 602.777344 847.332031 602.332031 C 847.277344 602.277344 847.222656 601.222656 847.667969 601.667969 M 948 609 C 959 612.28125 970.671875 610 982 610 C 974.339844 603.816406 956.324219 604 948 609 M 519 608 L 519 610 L 552 610 C 546.699219 603.039063 526.777344 607.386719 519 608 M 819 624 L 818 624 C 818 622.148438 818.300781 622.648438 817 622 C 811 640.605469 811.386719 661.410156 817.34375 680 C 819.238281 686 821.617188 694.476563 827 698 C 822 674.46875 818.800781 654 819 630 L 820 630 C 820 635.5 821 641 826 644 C 824.53125 632.394531 825 620.695313 825 609 C 819.574219 612.085938 819 618.238281 819 624 M 676 644 C 683 639.359375 682.171875 627.441406 681.984375 620 C 681.929688 617.710938 682 611.542969 678.925781 611 C 676 610.339844 675.679688 616.28125 675.429688 618 C 674.179688 626.578125 676 635.363281 676 644 M 506 621 L 510 621 L 510 622 C 503.21875 623.015625 492.5 626.832031 489 633 C 500.804688 629.675781 517.960938 629.164063 528 622 C 525.628906 621 523.550781 620.378906 521 620 L 521 619 C 527.867188 619 536 617.699219 542 614 C 532.621094 609.488281 512 611.667969 506 621 M 960 614 C 965.941406 617.628906 975 618.703125 982 619 L 982 620 L 973 621 C 975.492188 624.277344 980.183594 624.480469 984 625.660156 C 993.308594 628.535156 1002.570313 630.675781 1012 633 C 1008.390625 626.417969 998.207031 622.632813 991 622 L 991 621 L 996 621 C 990.425781 612.339844 968.640625 608.824219 960 614 M 763 614 L 763 617 L 762 617 C 762.25 615.546875 762.316406 615.246094 763 614 M 514 620 L 514 621 L 511 621 C 512.246094 620.316406 512.550781 620.25 514 620 M 562 620 L 562 621 C 587.542969 634.460938 609 644.125 625 670 C 628.191406 662.320313 620.753906 653.550781 616 648.015625 C 603.28125 633 581.53125 622.632813 562 620 M 876 665 L 875 665 C 878.855469 655.0625 884.191406 645.265625 887 635 C 873.691406 643 873.46875 659.601563 870 673 C 878.238281 670.636719 882.390625 660 888 654 C 897.511719 644.042969 907.960938 636.042969 920 629.4375 C 925.425781 626.457031 934.296875 625.035156 938 620 C 911.59375 623.558594 886.253906 640.371094 876 665 M 991 620 L 991 621 L 983 621 C 985.613281 620 988 620.007813 991 620 M 683 622 C 683 633.539063 684 644.484375 682.714844 656 C 680.960938 670.085938 676 684 675 698 L 676 698 C 684.859375 681.382813 691.742188 660 689.28125 641 C 688.414063 634.332031 688.214844 626.800781 683 622 M 755 624 C 755 638.78125 756.304688 653.175781 756 668 L 757 668 C 758.578125 660.347656 761.363281 652.804688 762 645 L 763 645 C 762.300781 661.210938 754 676.058594 752 692 L 751 692 C 751 678 754.835938 664.050781 754.996094 650 C 755 642 751.785156 631.664063 755 624 M 738.667969 631.667969 C 738.722656 631.722656 738.777344 632.777344 738.332031 632.332031 C 738.277344 632.277344 738.222656 631.222656 738.667969 631.667969 M 479 650 C 488.558594 648 497.753906 643.214844 507 640 C 508.625 639.429688 514.96875 637.628906 513.652344 634.8125 C 512.3125 632 505.339844 633.042969 503 633.464844 C 493.753906 635.128906 482.191406 640.636719 479 650 M 986 635 C 992.425781 641.015625 1003.320313 645.699219 1012 647 L 1012 648 C 1003.503906 648.101563 1006.234375 652 1012 655.394531 C 1018 659.027344 1023.886719 661.691406 1031 662 C 1027.707031 656.320313 1023 652.332031 1017 650 L 1017 649 L 1022 649 C 1015.589844 637.804688 998.304688 629.078125 986 635 M 615 635 C 617 646.746094 625 662 630 673 L 631 673 C 630.960938 659.1875 626.75 643.347656 615 635 M 739.667969 636.667969 C 739.722656 636.722656 739.777344 637.777344 739.332031 637.332031 C 739.277344 637.277344 739.222656 636.222656 739.667969 636.667969 M 741 640 L 740 641 L 741 640 M 763.667969 640.667969 C 763.722656 640.722656 763.777344 641.777344 763.332031 641.332031 C 763.277344 641.277344 763.222656 640.222656 763.667969 640.667969 M 595 643 C 597 646.648438 599.167969 649.175781 603 651 L 603 652 L 594 653 C 594 654.796875 594 654.519531 595 656 L 590 655 C 592.1875 660.597656 596.597656 663.332031 601 667.160156 C 605.464844 671.039063 614.519531 684.023438 620.851563 683.339844 C 627 682.671875 622.585938 672 621.21875 669 C 616 658.160156 607.625 645.277344 595 643 M 912 655 C 908.460938 655.53125 905.332031 656.71875 902 658 L 905 653 L 901 654 C 901.929688 650.070313 903.59375 646.746094 905 643 C 893.730469 647.359375 883.90625 659 879.453125 670 C 878.1875 673.128906 875 680.28125 878.742188 683 C 881.90625 685.300781 885.964844 681 888 679 C 895.234375 672.058594 907.777344 664 912 655 M 742 644 L 741 645 L 742 644 M 636.667969 647.667969 C 636.722656 647.722656 636.777344 648.777344 636.332031 648.332031 C 636.277344 648.277344 636.222656 647.222656 636.667969 647.667969 M 743 647 L 744 652 L 743 652 C 742.699219 650.070313 742.53125 649 743 647 M 471 662 C 481.195313 661.167969 491.9375 656.421875 498 648 C 487.285156 648.007813 475.277344 651 471 662 M 1017 648 L 1017 649 L 1014 649 C 1015.246094 648.316406 1015.546875 648.25 1017 648 M 901 650 C 899.203125 652.507813 897.507813 654.203125 895 656 C 896.796875 653.492188 898.492188 651.796875 901 650 M 604 658 L 598 655 C 600.886719 654.589844 602 656 604 658 M 901 654 C 900.453125 655.636719 900.636719 655.453125 899 656 C 899.546875 654.363281 899.363281 654.546875 901 654 M 607 655 C 608.1875 656.1875 608.527344 656.585938 609 658 C 607.453125 656.738281 607.191406 656.804688 607 655 M 598 658 L 595 657 C 596.765625 656.597656 596.558594 656.710938 598 658 M 895 657 C 893.671875 658.753906 892.753906 659.671875 891 661 C 892.328125 659.246094 893.246094 658.328125 895 657 M 902 658 L 901 659 L 902 658 M 601 659 L 600 660 L 601 659 M 457 682 C 469.371094 680.144531 481.96875 670 489 660 C 476.351563 660.269531 462.296875 670.644531 457 682 M 1012 660 C 1018.90625 669.800781 1031.957031 680 1044 682 C 1037.464844 670.695313 1025.527344 660.121094 1012 660 M 891 662 C 888.394531 667 886 671.804688 884 677 L 883 677 C 883.992188 671.246094 886.527344 665.808594 891 662 M 606 663 C 609.714844 667.03125 613.480469 671.117188 616 676 C 616.984375 674.519531 617 674.796875 617 673 L 618 673 L 619 678 C 613.96875 675.273438 607 668.785156 606 663 M 613 663 L 614 666 C 612.710938 664.558594 612.597656 664.765625 613 663 M 875 665 L 874 666 L 875 665 M 615 667 L 614 668 L 615 667 M 457 715 C 463.679688 714.136719 470.222656 712.070313 477 713.519531 C 498.851563 718.1875 504 744.53125 519 757.816406 C 537.386719 774.160156 572.40625 779.617188 596 774 L 596 775 C 592.359375 776.722656 589 778.515625 587 782 C 590.800781 781 599.765625 775.378906 603.382813 778.066406 C 607 780.78125 602 789.800781 601 793 C 608.640625 790.039063 614.6875 782.804688 617 775 L 618 775 C 618 789.03125 611 797.261719 607 810 C 618.402344 804.574219 627.894531 789.578125 629 777 L 630 777 L 629 786 L 630 786 C 633.664063 779.71875 636.402344 773.308594 637 766 L 638 766 L 638 774 C 642.296875 770.773438 642.253906 764.292969 646.339844 760.558594 C 650.472656 756.78125 656.542969 756.738281 660.984375 753.488281 C 669.605469 747.183594 671.570313 735 672 725 C 666.789063 729.546875 660.792969 755.109375 650.277344 750.746094 C 645.875 749 646 740 644.90625 736 C 641.300781 724.824219 634.355469 714.789063 626.710938 706 C 602.851563 678.578125 559.519531 661.496094 525 678.808594 C 512.886719 685 506.421875 697.632813 495 704.519531 C 484.300781 711 464.234375 703.207031 457 715 M 832 725 L 830 725 C 830 735.484375 831.769531 747.785156 841 754.347656 C 845.199219 757.320313 850.914063 757.042969 854.785156 760.429688 C 859.226563 764.3125 858.816406 771.003906 864 774 L 864 768 L 865 768 C 865.53125 774.070313 867.421875 781.832031 873 785 C 872.429688 782.621094 872 780.441406 872 778 L 873 778 C 874.191406 790 883 805 894 810 C 891 798 884 787.761719 883 775 L 884 775 C 886.710938 782.042969 892.296875 788.523438 899 792 C 898.488281 788.515625 894.601563 780.546875 897.644531 777.695313 C 900.792969 774.742188 910.3125 780.148438 914 781 C 911.6875 778.207031 909.273438 776.558594 906 775 L 906 774 C 930.8125 774.066406 956.445313 776.1875 978 761 C 995.664063 748.476563 1000.75 720 1023 714 C 1030.171875 712 1036.886719 714.082031 1044 715 C 1036.722656 702.667969 1017.878906 711.308594 1007 705.046875 C 995 698.210938 988.328125 685 976 678.808594 C 939 660.269531 897.632813 681.4375 872 709 C 865 716.546875 859.175781 726.105469 856.207031 736 C 854.914063 740.320313 854.984375 748.664063 849.890625 750.492188 C 839.765625 754.128906 832.992188 731.710938 832 725 M 979 696 C 966.566406 693.046875 956.746094 684 944 681.460938 C 931.695313 679.144531 920 684.042969 908 685 C 926.65625 667.53125 964.691406 677.304688 979 696 M 591 683 L 591 684 C 579.542969 683.761719 568.582031 679.375 557 681.464844 C 544.441406 683.730469 534.222656 692.65625 522 696 C 538.925781 673.019531 567.34375 677.527344 591 683 M 562 699.394531 C 577.90625 695.761719 585 720.757813 569 724.464844 C 553 728.160156 545.414063 703.183594 562 699.394531 M 933 699.394531 C 949.347656 695.660156 955.421875 720.671875 939 724.464844 C 923 728.136719 916.910156 703.070313 933 699.394531 M 614 724 C 613.917969 733.738281 612.515625 743.375 603 748 C 605.175781 740.03125 608.292969 730.101563 614 724 M 888 724 C 890 732.546875 895.585938 739.613281 898 748 C 890.554688 744.125 882.394531 732.25 888 724 M 515 728 C 522.828125 742.648438 535.488281 756.507813 551 763 L 551 764 C 537.492188 762 511.644531 744.21875 515 728 M 987 729 C 982.679688 747.183594 966.609375 762.480469 948 765 L 948 764 C 966.980469 757.421875 973.410156 741.453125 987 729 M 694 742 C 659.589844 768.449219 638.949219 800 614.277344 835 C 606.679688 845.796875 595 854.242188 589 866 C 600.183594 862.429688 609.53125 851.453125 617.171875 843 C 637 821.019531 651 795.503906 668.898438 772 C 674.578125 764.488281 681 757.511719 688 751.171875 C 690.859375 748.5625 694.84375 746.195313 694 742 M 805 742 C 810.953125 755 825.273438 763.699219 833.871094 775 C 851.679688 798.410156 865 825.023438 886 846 C 893.65625 853.667969 902.417969 862.648438 913 866 C 905.644531 854.242188 894.453125 845.488281 886.671875 834 C 864 800.628906 844.390625 758.398438 805 742 M 553 764.332031 C 553.773438 764.332031 553 764.832031 552.667969 764.667969 L 553 764.332031 M 365 786 C 371.914063 784 378.773438 779.636719 385 776 C 370.820313 817.644531 311.722656 822.523438 276 836 L 276 837 C 295.605469 836.59375 316.285156 828.082031 335 822.710938 C 339.898438 821.304688 352.179688 815.515625 356.589844 819.605469 C 359.382813 822.199219 357 826.402344 355.519531 829 C 350.894531 836.699219 343.328125 842.390625 336 847.328125 C 314.296875 862 291.550781 874.746094 269 888 C 260.71875 893 246.25 897.824219 241 906 C 258.675781 901 274.78125 889.628906 291 881.257813 C 317.667969 867.492188 347 856.042969 369 835 C 365 851.824219 350.734375 864.628906 337 874 L 337 875 C 349.230469 872.820313 358.234375 862.796875 368 856 C 359.3125 876.753906 339.675781 892.03125 332 913 C 340.839844 908.789063 346.574219 897.441406 352.609375 890 C 367.898438 871.160156 388.585938 852.339844 392 827 C 387.960938 830 385 834.0625 381 837 C 386 828.1875 390.507813 817.113281 392 807 C 388.824219 808.082031 385.917969 809.339844 383 811 C 386.25 803.234375 391.878906 797.230469 396 790 L 389 791 C 391.816406 781.21875 398.730469 774 403 765 C 387.894531 765.011719 371.796875 771.714844 365 786 M 1098 765 C 1102.628906 773.695313 1109.6875 781.265625 1112 791 C 1109.894531 790.355469 1108.203125 790.09375 1106 790 C 1108.917969 797.695313 1115.648438 803.007813 1118 811 L 1109 807 C 1110.789063 817.410156 1115.976563 827.320313 1120 837 C 1116.195313 834.066406 1113.804688 830 1110 827 C 1111 852 1135 871.695313 1149 890 C 1155 897.769531 1160.867188 908.738281 1170 913 C 1160.953125 891.386719 1140.648438 876.464844 1133 854 C 1141.945313 863 1153 873.054688 1166 875 C 1154.527344 861.117188 1140.390625 853.75 1133 836 C 1160.28125 854.558594 1188.742188 869.15625 1218 884.257813 C 1232.304688 891.640625 1246.410156 901.542969 1262 906 C 1256.816406 898 1242.246094 893 1234 888.148438 C 1211.351563 875.230469 1188.5 862.792969 1167 848 C 1161.355469 844.082031 1138.324219 829.800781 1144 820.433594 C 1147.453125 815 1160.46875 821.203125 1165 822.371094 C 1186.539063 828 1207.859375 835.1875 1230 838 L 1230 837 C 1202 827.730469 1169.949219 821.300781 1144 807.511719 C 1131.328125 800.777344 1120.410156 790.359375 1117 776 C 1122.84375 779.410156 1129.308594 783.792969 1136 785 C 1128.785156 771.097656 1112.878906 765.011719 1098 765 M 452 773 C 454.394531 780.097656 460.601563 785 463.316406 792 C 470.882813 811.726563 475.171875 840.785156 491 855.8125 C 501.507813 865.640625 529.207031 863.742188 537 851 C 509.398438 851 492.867188 840 480.371094 815 C 473.691406 801.644531 470.195313 774 452 773 M 964 851 C 968.257813 856.136719 974.5625 859 981 860.335938 C 989.324219 862.210938 999.234375 863.386719 1007 859 C 1023 849.609375 1030.328125 817.710938 1035 801 C 1037.765625 792 1040.796875 785 1046.703125 777.445313 C 1047.757813 776.117188 1049 774.023438 1046.664063 773.332031 C 1033.625 769.632813 1027.875 800.195313 1024.21875 808 C 1010.890625 836.449219 996.308594 851 964 851 M 872 776 L 871 777 L 872 776 M 1119 811 L 1118 812 L 1119 811 M 274 837 L 275 838 L 274 837 M 1121 837 L 1120 838 L 1121 837 M 368.667969 854.667969 C 368.722656 854.722656 368.777344 855.777344 368.332031 855.332031 C 368.277344 855.277344 368.222656 854.222656 368.667969 854.667969 M 649 1131 C 643.710938 1123 631.554688 1122.6875 627 1113 C 634.742188 1115.632813 639.421875 1123.210938 647 1126.558594 C 668.242188 1136 696 1136.40625 718 1129.328125 C 724.617188 1127.195313 747.621094 1121 744.378906 1111 C 742.503906 1105.285156 734.84375 1101.335938 730 1098.453125 C 715 1089.605469 697.507813 1086.386719 683 1077 C 655.652344 1059.015625 655 1027.191406 655 998 L 656 998 C 656 1027.042969 663.261719 1057.53125 688 1075.511719 C 698.226563 1083 710.773438 1086.671875 722 1092.246094 C 729.769531 1096.105469 741.78125 1107.59375 750 1108.347656 C 757.710938 1109.050781 769.847656 1096.617188 777 1093.308594 C 789 1087.71875 802.292969 1083.207031 813 1075.101563 C 836.625 1057.214844 846 1028.675781 846 1000 L 847 1000 C 847 1030.070313 843.242188 1061.070313 815 1078.769531 C 801.304688 1087.355469 784.917969 1090.308594 771 1098.605469 C 766 1101.503906 758.929688 1105.21875 757 1111.003906 C 753.976563 1120.617188 776.402344 1127.457031 783 1129.410156 C 804.859375 1136 831.804688 1136.386719 853 1127.125 C 860.941406 1123.652344 865.953125 1115.734375 874 1113 C 869.609375 1122.332031 858.429688 1122.59375 853 1130 C 862.359375 1131 870.597656 1128.210938 879 1124.21875 C 881.53125 1123.015625 886.363281 1121.347656 886.363281 1118 C 886.363281 1112.160156 875.832031 1108 872.464844 1104 C 864.207031 1094.378906 859.3125 1082.242188 856.660156 1070 C 852.878906 1052.535156 852.257813 1033.816406 853 1016 C 853.480469 1006 856.339844 996.203125 854.535156 986 C 845.746094 936.257813 794.875 927 753 925.039063 C 713.644531 923.316406 660.917969 933.503906 649.476563 978 C 646.546875 989.40625 647.980469 1000.488281 648 1012 C 648 1032.464844 648 1053 643.574219 1073 C 641 1084.410156 635.894531 1096.347656 627.824219 1105 C 624.683594 1108.3125 614.207031 1113 614.207031 1118 C 614.207031 1121.523438 619.332031 1123.449219 622 1124.546875 C 630.402344 1128 639.949219 1130.28125 649 1131 M 746 937.285156 C 764.9375 935.050781 786.238281 938.027344 803 947.3125 C 806.332031 949.160156 824.992188 964.65625 814.851563 967.683594 C 807.453125 970 798.414063 965.398438 792 962.242188 C 780.464844 956.574219 769 950.472656 756 949.171875 C 739.5625 947.527344 725.296875 954.101563 711 961.246094 C 704.167969 964.664063 693 971.082031 685.1875 967.398438 C 677.488281 963.828125 690.839844 951.660156 694 949.519531 C 709.421875 939.074219 728.234375 939.382813 746 937.285156 M 1251 944 C 1246.289063 958.46875 1240 972.527344 1240 988 L 1239 988 C 1231 979.785156 1231 997.492188 1231 1002 L 1225 998 C 1224.804688 1007.390625 1222.195313 1016.601563 1222 1026 C 1220 1024.394531 1219 1023.21875 1218 1021 C 1214 1029.019531 1213.644531 1039.269531 1212 1048 L 1207 1044 C 1206.378906 1052 1204.78125 1063.320313 1199.640625 1069.632813 C 1197.738281 1072 1194.804688 1071.214844 1193.183594 1074.113281 C 1188.753906 1082.03125 1187.351563 1091 1180 1097 C 1179.558594 1091.472656 1178.496094 1086 1176 1081 C 1172 1092.335938 1166.550781 1105 1160 1115 C 1155.945313 1110 1156.492188 1102.734375 1152 1098 C 1151.992188 1109.789063 1150.234375 1127.792969 1144 1138 C 1141.824219 1134.816406 1139.601563 1132 1137 1129 C 1136.933594 1137.277344 1134.523438 1145.640625 1130.726563 1153 C 1128.296875 1157.710938 1124.695313 1161.277344 1122 1155 C 1117.289063 1164.382813 1117.453125 1176.753906 1109 1184 L 1109 1177 C 1107.277344 1178.6875 1105.328125 1182.710938 1102.785156 1183.078125 C 1099.386719 1183.574219 1096.746094 1178.5625 1093.316406 1180.753906 C 1090.703125 1182.417969 1091 1186.355469 1090.699219 1189 C 1089.585938 1196.441406 1086.34375 1203.457031 1086 1211 C 1083.96875 1209.460938 1082.585938 1208.011719 1081 1206 L 1071 1230 C 1062.667969 1226.621094 1060.175781 1241.582031 1053 1245 C 1052.722656 1242 1051.957031 1239.019531 1051 1236 L 1050 1236 C 1045.6875 1246.289063 1035.714844 1258.410156 1026 1264.085938 C 1021.191406 1267 1021.476563 1262 1017.886719 1262.050781 C 1012.824219 1262.207031 1009 1275.148438 1008 1279 C 998 1275.691406 997.972656 1288 992.757813 1293.648438 C 987.273438 1299.730469 981.726563 1301.355469 978 1310 L 977 1310 L 977 1306 C 973.613281 1309.09375 970.835938 1315 966 1316.109375 C 962.816406 1317 961.273438 1312.53125 957.972656 1314 C 952.953125 1316.035156 947 1328 946 1316 C 938.851563 1322.34375 934.792969 1330.171875 925 1333 L 928 1323 C 921.34375 1329.652344 914.265625 1337.273438 905 1340 L 906 1334 C 895.34375 1340.285156 884 1350.121094 872 1353.496094 C 866.550781 1355.035156 866 1348 860.90625 1350.386719 C 856.398438 1352.535156 834 1371.367188 837 1356 C 832.425781 1359.183594 827.757813 1365.117188 822 1366.050781 C 818.757813 1366.574219 816.175781 1363.71875 813 1364.476563 C 809.898438 1365.214844 807.65625 1368.746094 804.226563 1368.453125 C 801.328125 1368.207031 801.382813 1363.144531 798.699219 1363.632813 C 794 1364.464844 794 1371.046875 790.363281 1372.746094 C 785.597656 1375 775.261719 1364.824219 772 1362 C 767.839844 1373.183594 756 1356.46875 750.90625 1355.632813 C 747.433594 1355.078125 743.746094 1361.683594 742 1364 C 736.257813 1360.261719 737.386719 1365.109375 732 1366.097656 C 729.566406 1366.558594 727.570313 1364.472656 724.960938 1365.136719 C 719.324219 1366.574219 714.445313 1371.71875 709 1374 C 708 1370.664063 706.226563 1364.527344 702 1364 C 698.730469 1363.425781 698.695313 1368.410156 695.722656 1368.824219 C 692.410156 1369.285156 689.953125 1365.472656 687 1364.613281 C 683.933594 1363.71875 681 1366.023438 678 1365.714844 C 672 1365.125 666.960938 1359 663 1355 C 659.722656 1372.3125 645 1351.332031 636.199219 1349 C 633 1348.058594 633.292969 1353.445313 629.921875 1353.21875 C 624.925781 1353 618.417969 1348.019531 614 1345.753906 C 609.601563 1343.5 595.941406 1331.765625 594 1339 C 584.890625 1336.097656 579.535156 1328.308594 572 1323 L 573 1332 C 564.695313 1329.246094 557.269531 1312.59375 552 1323 C 548.824219 1320.714844 545.769531 1315.613281 541.976563 1314.609375 C 538.605469 1313.714844 536.433594 1317.144531 532.960938 1315.199219 C 530 1313.554688 526 1307.054688 523 1310 L 522 1310 C 518 1300.785156 512.632813 1299.25 506.964844 1292.683594 C 501.699219 1286.578125 502.25 1276.125 492 1279 C 491.648438 1275.023438 488.507813 1262.128906 483 1262.054688 C 480.511719 1262.019531 480.332031 1266.417969 476.945313 1265.503906 C 472.523438 1264.308594 468.167969 1258.308594 465.289063 1255 C 462.441406 1251.726563 454.996094 1238.058594 450.425781 1238.054688 C 447.851563 1238.054688 448 1243.417969 448 1245 C 440.351563 1241.09375 439 1228.71875 429 1230 C 427.984375 1223.128906 425 1209.535156 416 1212 C 414.480469 1200.234375 409.964844 1188.789063 409 1177 C 401.34375 1182.0625 398.375 1187.046875 394 1177 L 391 1185 L 390 1185 C 387.292969 1175.097656 381.457031 1166.503906 381 1156 C 369.695313 1168 364 1138.460938 364 1130 C 361 1132.582031 358.617188 1135.300781 355 1137 C 354.808594 1127.753906 351.53125 1119.015625 349.804688 1110 C 348.9375 1105.472656 349.433594 1101.359375 346 1098 C 345.945313 1104.367188 344.984375 1110.648438 340 1115 C 337 1107.691406 332.957031 1101.179688 329.871094 1094 C 328.882813 1091.695313 328 1086.339844 325.460938 1085.207031 C 321.464844 1083.425781 321 1095.019531 321 1097 C 315.554688 1093 312.558594 1087.308594 310.34375 1081 C 309.492188 1078.574219 308.683594 1072.546875 306.273438 1071.183594 C 304.882813 1070.394531 303.75 1072.253906 303 1073 C 298.34375 1065.382813 295 1053 295 1044 L 289 1048 C 288.621094 1039.226563 286 1031 286 1022 L 279 1026 C 279 1016.519531 278.1875 1007.398438 277 998 L 270 1003 C 270 998.398438 270.230469 978.371094 262 988 L 261 988 C 261 973.199219 255.269531 961.125 252 947 L 253 947 C 279.824219 984.316406 313.476563 1006 353 1027.695313 C 365.792969 1034.71875 378.445313 1042 391 1049.398438 C 395.40625 1052.007813 402.648438 1054.679688 404.351563 1060.015625 C 406.503906 1066.742188 396.570313 1079 393.863281 1085 C 384.800781 1105.496094 382.996094 1127.664063 377 1149 C 382 1143.660156 381.621094 1135 382.753906 1128 C 385.527344 1111.058594 392.246094 1095.621094 399 1080 C 400.996094 1075.382813 404 1066.113281 410 1065.460938 C 416 1064.800781 422.296875 1073.296875 426 1077 L 441 1092 C 447.691406 1098.695313 453.777344 1106 460 1113 C 454.855469 1098 446.644531 1083.515625 436.789063 1071 C 432.273438 1065.265625 422.523438 1058.820313 420.175781 1052 C 417.980469 1045.625 435.449219 1028.050781 441 1037 L 442 1037 C 450.304688 1012.65625 495.320313 1005.570313 518 1005.015625 C 524 1005 542.507813 1003.433594 545.398438 1010.144531 C 547.566406 1015.183594 545.648438 1022.59375 546.171875 1028 C 546.625 1032.691406 547.683594 1037.34375 548.410156 1042 C 549 1046.808594 550.4375 1061.550781 541.171875 1058.214844 C 535.703125 1056.246094 533 1048.191406 528.90625 1044.46875 C 516.804688 1033.789063 499 1036 494.761719 1053 C 491 1067.351563 504.679688 1083.101563 513.289063 1093 C 519.273438 1100 527 1105.152344 520 1114 C 529.660156 1110 534.566406 1117.578125 541 1124 C 553.339844 1136.320313 567.382813 1147 583 1154.753906 C 594.847656 1160.675781 607 1164.398438 620 1167.347656 C 625.589844 1168.628906 633.324219 1168.230469 637 1173.214844 C 642.578125 1180.371094 637.261719 1189.480469 635.667969 1197 C 633.75 1206.046875 634.796875 1216.535156 638.46875 1225 C 643.898438 1237.527344 657.757813 1242.453125 669 1248.257813 C 695.605469 1262 722.582031 1280.285156 754 1279 C 784 1277.691406 808.757813 1261.75 834 1247.011719 C 845 1240.550781 857.910156 1235.535156 863.472656 1223 C 867.179688 1214.640625 867.492188 1204.753906 865.242188 1196 C 863.292969 1188.433594 858.347656 1179.347656 864.648438 1172.394531 C 869.238281 1167.328125 878.785156 1168 885 1166.574219 C 898 1163.65625 911.363281 1159.039063 923 1152.421875 C 936.445313 1144.773438 949.335938 1135.347656 959.910156 1124 C 965.480469 1118.019531 969.839844 1110 979 1112 C 974.648438 1102.78125 984 1096.117188 989.960938 1090 C 999.207031 1080.308594 1009.617188 1064.105469 1005.195313 1050 C 1004.355469 1047.316406 1002.792969 1045.066406 1000.890625 1043.019531 C 985.410156 1026.351563 973 1048 961.90625 1056.667969 C 957.667969 1060 953 1057.015625 952.628906 1052 C 951.769531 1041.679688 956 1030.503906 955.996094 1020 C 955.976563 1016.222656 954.503906 1010.695313 957.566406 1007.726563 C 962.785156 1002.671875 976.359375 1005 983 1005.015625 C 1007.285156 1005.609375 1047 1012.785156 1059 1036 C 1063.203125 1027.058594 1082.742188 1045.707031 1080.742188 1052 C 1078.535156 1059 1068.414063 1066.144531 1063.886719 1072 C 1054.257813 1084.460938 1046.882813 1098.023438 1042 1113 C 1048.847656 1106 1055 1098.167969 1061.960938 1091 C 1068.664063 1084 1079.761719 1066.261719 1089.984375 1065 C 1096.914063 1064 1101.445313 1078.109375 1103.691406 1083 C 1109.878906 1096.476563 1116 1110.390625 1118.996094 1125 C 1120.527344 1132.496094 1119 1144.023438 1124 1150 C 1119.980469 1128.351563 1117.238281 1108.640625 1108.574219 1088 C 1105.792969 1081.367188 1095 1068 1096 1061.003906 C 1096.859375 1056.476563 1102.578125 1053.621094 1106 1051.332031 C 1115.769531 1044.804688 1125.597656 1038.269531 1136 1032.78125 C 1160.898438 1019.644531 1187.539063 1008.382813 1209 989.710938 C 1224.417969 976.296875 1234.496094 955.65625 1251 944 M 669 964 C 665.917969 979 660 994.371094 667.824219 1009 C 670.949219 1015 678.765625 1022.148438 685.996094 1018.679688 C 699.574219 1012.164063 685 984.539063 706 989.53125 C 722.386719 993.429688 731.6875 1016.410156 721.210938 1030 C 715.808594 1037 707 1038.472656 699 1040 L 699 1039 C 707.796875 1035.335938 717.785156 1029.394531 721.371094 1020 C 725.191406 1010 713.839844 993.164063 703 993.21875 C 695.855469 993.253906 696.589844 1000 696.910156 1005 C 697.425781 1013.109375 696 1021.113281 687 1023.316406 C 657.355469 1030.523438 653.894531 979 669 964 M 834 965 C 841.421875 978.054688 842.941406 995.785156 837.894531 1010 C 834.171875 1020.5 822.925781 1027.15625 812 1023 C 798.886719 1017.683594 810.402344 994 797.996094 993.253906 C 787.640625 992.667969 776 1009.496094 779 1019 C 782.367188 1029.246094 792.679688 1035.117188 802 1039 L 802 1040 C 793.480469 1039 785 1037.066406 779.394531 1030 C 768.953125 1017 778.378906 995.5 793 990.132813 C 815.386719 982 801.886719 1011 813 1018 C 819 1021.683594 826.539063 1018 830.609375 1013 C 837.921875 1004.148438 838.542969 989.789063 836.335938 979 C 835.421875 974.539063 832.972656 969.488281 834 965 M 1100 988 L 1100 989 C 1107.5625 991.160156 1114.65625 995.152344 1122 998 C 1118.46875 991.792969 1106.761719 989 1100 988 M 373 998 L 373 999 C 377.359375 998.226563 382.4375 996.757813 385 993 C 380.855469 994.371094 376.988281 996.246094 373 998 M 546 1003 C 539.902344 1003 534 1002.476563 528 1002 C 532.363281 1000.171875 543.234375 998.78125 546 1003 M 972 1002 L 972 1003 L 956 1003 C 958.96875 998.695313 967.394531 1001.144531 972 1002 M 574.660156 1019.0625 C 571 1022 579.351563 1026.480469 582.339844 1024 C 585.863281 1021.035156 577.3125 1017 574.660156 1019.0625 M 921 1018.757813 C 915.769531 1021.015625 920.300781 1026.214844 924.851563 1024.253906 C 930.222656 1022 925.574219 1017 921 1018.757813 M 597.753906 1027.011719 C 594.6875 1030.015625 603.769531 1033.453125 606.246094 1031 C 609.421875 1027.804688 600.28125 1024.53125 597.753906 1027.011719 M 896.324219 1026.742188 C 891 1029.402344 898.445313 1032.777344 901.847656 1031.257813 C 907.898438 1028.550781 900.183594 1024.769531 896.324219 1026.742188 M 1019 1032 L 1019 1030 C 1003 1028.746094 987 1031 971 1031 C 968.578125 1031 954.789063 1031 958.753906 1036.585938 C 961.835938 1041.03125 969.929688 1037.601563 974 1036.804688 C 988.988281 1034 1003.738281 1032 1019 1032 M 480 1030 C 484 1032.804688 489.222656 1031.796875 494 1032.425781 C 505.320313 1034 516.816406 1034.445313 528 1037 C 530.691406 1037.46875 541.363281 1040.15625 541.363281 1035 C 541.363281 1029.449219 530.328125 1031 527 1031 C 511.355469 1031 495.703125 1030 480 1030 M 746 1035 C 746 1049.382813 747 1063.65625 747 1078 C 747 1081.050781 745.75 1090.792969 750.835938 1090.792969 C 755 1090.792969 754.964844 1082.679688 754.996094 1080 C 755 1067.671875 755 1055.328125 755 1043 L 756 1043 C 756 1053.347656 753.742188 1074.746094 763 1081.4375 C 773 1088.703125 792.207031 1080.226563 803 1078 L 803 1079 C 791 1084 778.496094 1088.527344 767 1094.371094 C 761.996094 1097 756.921875 1102.320313 751 1102.34375 C 744.683594 1102.363281 739.289063 1096.714844 734 1094 C 722.613281 1088.09375 709.949219 1083.636719 698 1079 L 698 1078 C 703.699219 1079.554688 709.191406 1081.5625 715 1082.789063 C 718.660156 1083.5625 722.246094 1084.058594 726 1084 C 756.289063 1083.386719 738.699219 1052.398438 746 1035 M 939 1061 C 931.804688 1052.296875 919 1048.554688 909 1044.285156 C 907 1043.476563 898.484375 1039.21875 897.632813 1043.226563 C 896.875 1046.769531 904.835938 1048.097656 907 1049 C 917.554688 1052.605469 927.871094 1059.332031 939 1061 M 549.300781 1059.421875 C 553 1061.023438 556.929688 1080.199219 552 1078.503906 C 547.855469 1077.054688 544.199219 1068.144531 544.332031 1064.042969 C 544.40625 1061.792969 546.554688 1058.273438 549.300781 1059.421875 M 952.246094 1059.753906 C 958.972656 1057.710938 955.273438 1076.578125 949 1078.246094 C 943.515625 1079.761719 948 1061.035156 952.246094 1059.753906 M 581 1092 C 592.933594 1087 609.496094 1076.625 617 1066 C 603.667969 1068 588.636719 1081.382813 581 1092 M 581 1100 C 595 1094.785156 606.855469 1084 621 1078.199219 C 622.933594 1077.421875 634.285156 1074.097656 631.824219 1070.550781 C 629.335938 1067 620.394531 1073.222656 618 1074.574219 C 607 1080.757813 587.183594 1088.691406 581 1100 M 805 1077 L 804 1078 L 805 1077 M 991 1090 C 991.546875 1091.636719 991.363281 1091.453125 993 1092 C 992.453125 1090.363281 992.636719 1090.546875 991 1090 M 507 1093 C 508.3125 1092.230469 508.230469 1092.3125 509 1091 C 507.363281 1091.546875 507.546875 1091.363281 507 1093 M 995 1093 C 995.546875 1094.636719 995.363281 1094.453125 997 1095 C 996.453125 1093.363281 996.636719 1093.546875 995 1093 M 979 1112 C 980.839844 1116 983.457031 1118.496094 987 1121 C 985 1117.054688 982.542969 1114.503906 979 1112 M 519 1114 L 520 1115 L 519 1114 M 484 1115 C 484 1130.410156 492.8125 1144.363281 502.261719 1156 C 530.585938 1191 572.765625 1198.324219 610 1218.800781 C 619.171875 1224 620.46875 1233.636719 625.453125 1242 C 631.601563 1252.320313 640 1261.210938 650 1268 C 662.742188 1276.664063 678.296875 1281.226563 693 1285.421875 C 740.917969 1299.09375 800.292969 1297.097656 845 1272.6875 C 857 1266.113281 867.53125 1255.765625 874.546875 1244 C 880.242188 1234.449219 882 1223.109375 893 1218.027344 C 927.574219 1202.039063 965.433594 1190.757813 992.996094 1163 C 1005.617188 1150.289063 1016.847656 1133.476563 1017 1115 C 1010 1120 1003.789063 1127.394531 1000 1135 C 996.726563 1130 993 1125.523438 988 1122 C 989.984375 1125.484375 997.746094 1132.480469 996.964844 1136.425781 C 995.550781 1143.546875 982.34375 1152 977 1156.195313 C 955.308594 1173.730469 930.695313 1187.800781 905 1198.574219 C 896.96875 1202 883.835938 1202.679688 877.417969 1208.648438 C 871 1214.546875 872.378906 1227.640625 866.609375 1235 C 854.832031 1250.023438 832.382813 1259.320313 816 1268.574219 C 767 1296.179688 723.605469 1289.117188 676 1263.230469 C 663.921875 1256.664063 650.347656 1251 640 1241.5625 C 635 1237 630.796875 1230.550781 628.773438 1224 C 627.25 1219.066406 627.832031 1212.324219 623.722656 1208.636719 C 616.992188 1202.601563 604.277344 1202 596 1198.601563 C 577.769531 1191.308594 560.234375 1182.039063 544 1171 C 529.507813 1161.089844 516 1150 504 1137 C 497.671875 1130.070313 492.703125 1119.144531 484 1115 M 503 1134 C 509.3125 1129.554688 515.753906 1123.558594 518 1116 C 511.578125 1119.25 505.261719 1127.1875 503 1134 M 966 1133 C 950.996094 1146.820313 934.652344 1160 915 1166.328125 C 902.804688 1170.347656 881 1170.339844 871.359375 1179 C 867.59375 1182.332031 872.246094 1193.589844 875.558594 1196.242188 C 881.617188 1201.09375 894.796875 1190.40625 900 1187.425781 C 918.855469 1176.640625 935.523438 1164.316406 952 1150.128906 C 956.585938 1146.183594 966.554688 1139.730469 966 1133 M 535 1135 C 548.878906 1159.125 577.835938 1176.464844 602 1188.757813 C 613 1194.402344 623.996094 1204.003906 629 1188 C 629.773438 1186 630.988281 1183.445313 630.578125 1181.109375 C 629.515625 1175.058594 612 1173.726563 607 1172.289063 C 591 1167.773438 575.171875 1163.289063 561 1154.539063 C 551.855469 1149 544.902344 1139.191406 535 1135 M 648 1141.453125 C 651.9375 1141.078125 655.199219 1144.039063 657.351563 1147.015625 C 662.738281 1154.472656 675 1184.515625 660 1185.796875 C 649.753906 1186.664063 642.707031 1161.082031 641.742188 1153 C 641 1148.09375 641.882813 1142.035156 648 1141.453125 M 850 1143.394531 C 857.863281 1141.632813 859.242188 1147.578125 858.960938 1154 C 858.628906 1161.574219 852.675781 1184 843.984375 1185.394531 C 839.757813 1186.152344 833 1184 832.644531 1179 C 831.839844 1169.703125 840 1145.605469 850 1143.394531 M 739 1191 L 739 1189 C 715.949219 1188.523438 708 1174.003906 708 1153 L 709 1153 C 711.398438 1164.582031 715.769531 1177.496094 728 1182 C 732.3125 1183.445313 739.84375 1185.640625 742.820313 1180.773438 C 746.667969 1174.480469 743.480469 1163.300781 745.773438 1156 C 746.394531 1154.023438 747.890625 1149.207031 750.59375 1149.207031 C 752.835938 1149.207031 753.992188 1154.417969 754.566406 1156 C 757 1163.203125 754.484375 1173.628906 758 1180 C 760.707031 1184.625 766.613281 1183.414063 771 1182.320313 C 783 1179.308594 788 1167 791 1156 L 792 1156 C 792 1180.089844 781.585938 1184.800781 760 1190 C 786.953125 1198 795.4375 1176.148438 805.628906 1157 C 809.390625 1150 822.648438 1140.289063 831.382813 1145.601563 C 834 1147.265625 831.480469 1152.746094 830.882813 1155 C 828.492188 1164.066406 826.269531 1173.363281 822.574219 1182 C 809.1875 1213.285156 771.203125 1217.703125 741 1214.828125 C 720.898438 1213 697.410156 1211.046875 684.773438 1193 C 677.960938 1183.265625 675.695313 1171.085938 672 1160 C 670.847656 1156.542969 667.9375 1151 669.617188 1147.320313 C 671.753906 1142.679688 682.847656 1146.683594 685.996094 1148.417969 C 697 1154.480469 697.925781 1169.527344 704.789063 1179 C 713 1190.472656 726 1191 739 1191 M 490 1150 L 491 1150 L 493 1146 C 491 1147.230469 490.777344 1148 490 1150 M 700 1218 C 688.664063 1223.445313 671.351563 1216.257813 661 1211.03125 C 657 1209.058594 651.207031 1206 650.582031 1201.054688 C 649.851563 1195.371094 669 1191.113281 672.894531 1193.617188 C 676.808594 1196.222656 678.910156 1201.574219 682 1205 C 687.199219 1210.488281 693.421875 1214.496094 700 1218 M 798 1219 C 803.964844 1213.414063 812 1211 817.894531 1205 C 821.710938 1201 824 1193.675781 830 1192.332031 C 834.925781 1191.214844 848 1195 848.453125 1201.042969 C 848.839844 1206.320313 841.949219 1209.824219 838 1211.675781 C 825.234375 1217.652344 811.859375 1219 798 1219 M 806 1229 L 806 1230 C 783.921875 1234.28125 762.34375 1231.46875 740 1232.015625 C 725.300781 1232.375 710 1235.429688 696 1230 C 702.640625 1225.464844 716 1227.589844 724 1226.828125 C 742 1225.105469 760.789063 1224 779 1225.089844 C 788 1225.714844 796.898438 1228.609375 806 1229 "/>
</g>
</svg>
