<?xml version="1.0" encoding="UTF-8"?>
<svg xmlns="http://www.w3.org/2000/svg" xmlns:xlink="http://www.w3.org/1999/xlink" width="1500pt" height="1500pt" viewBox="0 0 1500 1500" version="1.1">
<g id="surface1">
<path style=" stroke:none;fill-rule:nonzero;fill:rgb(0%,0%,0%);fill-opacity:1;" d="M 286 1039 C 278.597656 1043.082031 284.453125 1051.449219 287.246094 1057 C 293.9375 1070.285156 303.933594 1088.1875 319 1093 L 319 1094 C 299.65625 1096.617188 313.746094 1114.328125 322 1123 C 328.410156 1129.660156 340.472656 1133.019531 345.394531 1140.105469 C 349.417969 1146 343.351563 1153.058594 349.226563 1158.605469 C 358.453125 1167.3125 372.695313 1167.191406 381.78125 1178.003906 C 386.425781 1183.527344 383.398438 1187.742188 384.34375 1194 C 385 1199.378906 388.554688 1204 391.925781 1208 C 398 1215.375 405.722656 1221.585938 414 1226.382813 C 418.808594 1229.171875 425.800781 1230.714844 429.257813 1235.328125 C 435.539063 1243.710938 428.636719 1255.484375 439 1263.199219 C 448.449219 1270.171875 460.898438 1267.113281 471 1272 C 477.933594 1275.21875 480.914063 1282.816406 488 1286.097656 C 496.371094 1290 505.753906 1291.089844 514 1295.273438 C 522.757813 1299.71875 529.65625 1306.390625 539 1310 C 551.355469 1314.625 564.996094 1316.367188 577 1322 C 596.671875 1331 611 1352.769531 632 1359.226563 C 647.253906 1364 669 1371 685 1370 C 690.230469 1369.628906 693 1364.628906 698 1364.574219 C 728.289063 1364.25 758.664063 1365.664063 789 1364.347656 C 794.5625 1364.105469 797.328125 1369.808594 803 1370 C 814.890625 1370.140625 826.679688 1365.527344 838 1362.628906 C 845.246094 1360.773438 852.941406 1360.441406 860 1358 C 882.757813 1349.746094 897 1327.191406 920 1318.203125 C 931 1314 943 1312 954 1307.121094 C 961.546875 1303.800781 967.34375 1297.59375 975 1294.453125 C 983.820313 1291 993.457031 1289.554688 1001.996094 1285.191406 C 1008.523438 1282 1011.527344 1274.75 1018 1271.570313 C 1028 1266.617188 1040.652344 1269.671875 1049.816406 1262.210938 C 1059.351563 1254.445313 1052.597656 1243.183594 1058.742188 1235.390625 C 1062 1231.09375 1069.390625 1229.289063 1074 1226.546875 C 1082.523438 1221.476563 1090.265625 1215.484375 1096.816406 1208 C 1104.886719 1198.777344 1100.167969 1187.585938 1106.433594 1179 C 1115.261719 1167 1129.992188 1167.746094 1139.773438 1158.605469 C 1146 1152.738281 1140.394531 1145 1144.617188 1139.390625 C 1147.628906 1135.5 1154 1134.230469 1158 1131.53125 C 1167.242188 1125.300781 1178.589844 1114.113281 1181.707031 1103.003906 C 1183.578125 1096.34375 1173.996094 1096.550781 1175.207031 1092.773438 C 1178 1084 1191.558594 1075.261719 1196.773438 1067 C 1200.601563 1061 1205.484375 1054.003906 1207.359375 1047 C 1208.277344 1043.558594 1205.910156 1040.039063 1207.578125 1037 C 1216.425781 1020.308594 1227.59375 1008.050781 1232 989 C 1237.199219 967.570313 1235.648438 944.636719 1237.183594 923 C 1238 910.691406 1243.9375 896.453125 1241.847656 884.148438 C 1241 880.023438 1235.910156 881.425781 1235 877 C 1232.285156 860.125 1233.289063 843.808594 1228.277344 827 C 1225.410156 817.378906 1221.613281 807.589844 1216.386719 799 C 1212.910156 793.292969 1206.753906 787.722656 1205.40625 781 C 1203.773438 773 1209.316406 764.113281 1209.910156 756 C 1211.328125 736.636719 1208.894531 718 1205 699 C 1217.964844 702.796875 1216 690.777344 1214.839844 682 C 1213.628906 672.804688 1209.65625 663.796875 1204.769531 656 C 1201.949219 651.492188 1196.167969 645.730469 1196.605469 640 C 1197.191406 632.351563 1207.199219 624.414063 1211 618 C 1216.324219 609.304688 1215.257813 602.191406 1217.609375 593 C 1218.914063 588 1221.976563 583.425781 1221.871094 578 C 1221.757813 572.234375 1220.417969 566.8125 1221.464844 561 C 1223.726563 548.425781 1230 537 1230.910156 524 C 1231.539063 515 1230.933594 504.78125 1228.226563 496 C 1226.523438 490.472656 1221.621094 485 1221.847656 479 C 1222 473.035156 1226.414063 468.003906 1226.90625 462 C 1227.574219 454 1224.46875 446 1225.175781 438 C 1226.820313 419.328125 1232.945313 401 1234.832031 382 C 1239.65625 333.777344 1237.777344 284.792969 1224.421875 238 C 1214 201.503906 1214.414063 148 1169 137 C 1135 128.628906 1101.183594 151.761719 1079.84375 176 C 1038.25 223.246094 996.53125 270 966.78125 326 C 954.234375 349.617188 937.527344 367 919 386 C 913.578125 391.585938 908.324219 403.738281 900 405.140625 C 891.21875 406.621094 879.867188 403.015625 871 402.171875 C 858.621094 401 845.433594 401.710938 833 402.015625 C 806 402.675781 779.652344 411.332031 753 412 C 723.523438 412.707031 693.582031 404.335938 664 403.039063 C 646 402.257813 627.804688 401 610 403.429688 C 602 404.570313 591.957031 408.832031 585 402.773438 C 579.753906 398.058594 576.699219 391.214844 571.90625 386 C 562 375.285156 550.234375 366.769531 541.476563 355 C 524.378906 332.019531 512.820313 305.074219 497.308594 281 C 477 249.53125 451.945313 222 427.285156 194 C 402.414063 165.800781 370.972656 129.832031 329 136.4375 C 289.316406 142.683594 280.535156 180 274.195313 213 C 271.703125 226 266.277344 238.078125 263.425781 251 C 257.207031 279.152344 255 307.246094 255 336 C 255 356.457031 255.214844 376.722656 258 397 C 260 410.738281 264.628906 424.105469 265.675781 438 C 266.234375 445.429688 262.3125 452.496094 263.183594 460 C 263.953125 466.597656 268.277344 472.421875 268.773438 479 C 269.285156 485.785156 264.3125 491.742188 262.441406 498 C 259.398438 508.15625 258.800781 520.511719 260.4375 531 C 262.203125 542.304688 267.621094 552.679688 269.230469 564 C 271.28125 578.441406 269.535156 593.785156 274.546875 608 C 278.328125 618.71875 293.300781 629.734375 293.34375 641 C 293.367188 648.476563 286.339844 655 282.878906 661 C 277.617188 670.21875 274 682.316406 274.277344 693 C 274.410156 701 284 697.367188 285.644531 704.054688 C 287.796875 713.746094 281.488281 728.753906 281 739 C 280.632813 748.304688 280.976563 757.800781 282.4375 767 C 283 771.542969 285.566406 776.375 285.171875 781 C 284.476563 789.117188 277 796.378906 273 803 C 267.996094 811.210938 264.691406 820.726563 262 830 C 257.855469 845.691406 258.589844 861.273438 255.851563 877 C 255 881.3125 249.871094 879.503906 249 884.058594 C 247.367188 895.339844 252.46875 907.738281 252.960938 919 C 254.828125 961.578125 253.878906 1006.199219 286 1039 M 1139 556 C 1149.40625 545.59375 1159.632813 529.777344 1175 526.519531 C 1197.628906 521.722656 1191.6875 557.75 1186 569 C 1203.988281 565.371094 1207.347656 529.710938 1206.984375 515 C 1206.894531 511.238281 1200.898438 493.636719 1208 493.636719 C 1212.710938 493.636719 1213.382813 502 1214 505 C 1216.546875 518.019531 1214.328125 531.402344 1210.710938 544 C 1208.835938 550.515625 1204.71875 557.210938 1204.226563 564 C 1203.847656 569.1875 1207.398438 573.828125 1206.617188 579 C 1205.941406 583.445313 1202 586.4375 1201 590.714844 C 1200 595.238281 1202.300781 599.332031 1200.53125 604 C 1195.789063 616.507813 1181.382813 624.679688 1181 639 C 1180.710938 654.019531 1199.34375 664.671875 1197.808594 679 C 1197 685.125 1186.367188 683 1182 683 C 1191.734375 705 1195.554688 730.105469 1193.910156 754 C 1193.316406 762.628906 1185.679688 775.105469 1187.21875 783 C 1188 787.511719 1192.648438 791.394531 1195.253906 795 C 1200.210938 802 1204.175781 809.320313 1207.691406 817 C 1220.6875 845.386719 1220.511719 875.769531 1211 905 C 1215.792969 901.625 1219.335938 897 1225 895 C 1223.582031 912.832031 1214.757813 931.757813 1200.984375 943.386719 C 1199.929688 944.277344 1188.929688 952.085938 1192.464844 953.199219 C 1195.265625 954.078125 1199 951 1201 949.320313 C 1207.824219 944.074219 1212.804688 936.175781 1221 933 C 1220.980469 961.507813 1203.53125 982.351563 1177 991 C 1180 972.757813 1192.570313 954.207031 1188 935 L 1187 935 C 1185.933594 959.828125 1175.261719 983.582031 1161.644531 1004 C 1155.859375 1012.671875 1148 1020 1143 1029 C 1150.308594 1023.109375 1157 1017.269531 1163 1010 C 1166.203125 1006.207031 1169 999.59375 1173.375 997.039063 C 1179.511719 993.34375 1188.964844 994.707031 1196 990.546875 C 1199.503906 988.472656 1211.527344 976.757813 1215.355469 979.160156 C 1220.324219 982.28125 1210.628906 1002.296875 1208.679688 1006 C 1195.195313 1031.636719 1172.457031 1046.113281 1147 1058 L 1147 1059 C 1156.414063 1059 1165.167969 1056.003906 1174 1053 C 1176.796875 1052.046875 1182.421875 1049 1185.34375 1050.617188 C 1189.4375 1053.109375 1177.625 1066.003906 1175.828125 1068 C 1161.386719 1084.046875 1145 1089.066406 1126 1097 C 1133.679688 1100.242188 1143.710938 1100.339844 1152 1101 C 1154.351563 1101.074219 1160.410156 1100.042969 1161 1103.316406 C 1161.953125 1107.179688 1156.476563 1111.445313 1153.996094 1113.5625 C 1147.730469 1119 1140.765625 1123.472656 1133 1126.304688 C 1129.691406 1127.511719 1122.789063 1128.453125 1121 1132 C 1118.726563 1136.535156 1129 1140.011719 1125.953125 1145.773438 C 1123.679688 1150 1115.886719 1151.148438 1112 1153.453125 C 1104 1158.117188 1097.605469 1164.828125 1092 1172 C 1085.417969 1180.457031 1089.75 1189.167969 1084.347656 1197 C 1074.558594 1211.191406 1056 1213.492188 1044.226563 1224.527344 C 1037.246094 1231.019531 1044.265625 1240.488281 1039.820313 1247.660156 C 1037.335938 1251.671875 1031.21875 1252.386719 1027 1253.195313 C 1014 1255.675781 1000.929688 1253.019531 988 1252 C 990.507813 1255 1002 1263 999.167969 1267.300781 C 997 1270.441406 990.359375 1271.4375 987 1272.425781 C 978 1275.039063 968.847656 1277.832031 961 1283 C 942.957031 1294.433594 923.589844 1297.070313 905 1306.785156 C 889.378906 1315 878.167969 1329.363281 863 1338.125 C 854.585938 1343 845.867188 1342.0625 837 1345.101563 C 830.472656 1347.335938 819.449219 1355 812.320313 1351.398438 C 809.296875 1350 810.960938 1346 808.476563 1344 C 805.449219 1341.574219 800 1344.359375 797 1345.277344 C 789.9375 1347.367188 782.375 1349 775 1349 C 772.957031 1349.003906 768.792969 1349.660156 767.644531 1347.398438 C 766.367188 1345 768.417969 1340.546875 769 1338 C 749.410156 1349.390625 737.625 1346.171875 718 1338 C 723.648438 1355.824219 699 1348.28125 689 1345 C 686.210938 1344.097656 681.457031 1342 678.910156 1344.4375 C 676.902344 1346.441406 678.683594 1350 675.679688 1351.398438 C 672.28125 1353.046875 667.296875 1351.457031 664 1350.300781 C 653.714844 1346.691406 641.804688 1345.15625 632 1341.046875 C 613.457031 1333.269531 601.1875 1315 583 1306.320313 C 569.964844 1300.125 555.304688 1299 542 1293.546875 C 532.945313 1290 526.957031 1282.03125 518 1278.234375 C 510.617188 1275.101563 497.234375 1275 491.472656 1269.296875 C 486 1264.085938 496.722656 1256.277344 500 1253 C 485.214844 1253 465.746094 1259 452 1251 C 442.464844 1245.203125 451.789063 1232.742188 444.773438 1225.289063 C 433.808594 1213.644531 415.691406 1211.484375 405.339844 1199 C 400 1192.707031 403.78125 1188.777344 402.410156 1182 C 401 1176 394.933594 1169.519531 390.714844 1165.171875 C 386.417969 1160.738281 381.359375 1156.414063 376 1153.335938 C 372.3125 1151.222656 366.25 1149.691406 364 1145.785156 C 360.679688 1140 370.492188 1136.480469 368.792969 1132.613281 C 367.65625 1130.03125 360.449219 1128.46875 358 1127.421875 C 350.613281 1124.261719 328.582031 1114.242188 329.257813 1104.226563 C 329.484375 1100.828125 334.621094 1101.03125 337 1100.71875 C 345.511719 1099.59375 354.410156 1099 363 1099 C 357 1093 347.507813 1091.746094 340 1088.21875 C 324.820313 1081.082031 307.808594 1066.660156 303 1050 C 315.652344 1050.261719 329.664063 1056.054688 342 1059 C 335.402344 1051.304688 323.34375 1049 315 1043.25 C 293.476563 1028.785156 274 1004 274 977 C 283.511719 981 290.644531 988.734375 300 992.824219 C 305.492188 995.226563 312.875 994 317.671875 997.726563 C 328.847656 1006.433594 332.929688 1021.304688 347 1028 C 338.40625 1014.203125 327 1002.40625 319.308594 988 C 310.398438 971.566406 306.996094 953.78125 302 936 L 301 936 C 301 955.261719 308.746094 971.617188 313 990 C 295.53125 987 278 971.488281 272 955 C 270.988281 952 265.933594 936.136719 270.601563 934.460938 C 273.492188 933.425781 277.296875 938.324219 279 940.003906 C 285.304688 946.21875 290.859375 952.625 300 954 C 282.523438 936.667969 267 922.605469 267 896 C 272.398438 899.117188 276.808594 903.566406 282 907 C 279.652344 898.796875 275.175781 891.445313 273.449219 883 C 269 861.546875 274 837.777344 282.863281 818 C 287.816406 806.792969 300.753906 794.457031 303.242188 783 C 304.363281 778 300 771.109375 299 766 C 296.746094 755 296.320313 743.246094 297 732 C 297.855469 721 300.808594 709.710938 303.859375 699 C 304.910156 695.316406 308.589844 689.097656 307.867188 685.316406 C 306.761719 679.507813 293.238281 686.550781 292.648438 680.683594 C 291.226563 666.546875 310.703125 654.449219 309.609375 639 C 308.613281 625 294.660156 617.332031 289.996094 605 C 288.183594 600.214844 290.449219 596.148438 289.976563 591.425781 C 289.519531 586.8125 285 583.640625 284.382813 579 C 283.554688 573.636719 286.566406 568.496094 285.675781 563 C 281.648438 538.1875 267.59375 516.773438 282 492 C 290.445313 499.453125 281.414063 512.3125 282 522 C 282.929688 534.046875 288 556.78125 296.53125 565.773438 C 299.707031 569.179688 305 569.609375 309 572 C 301.753906 563 291 533.257813 308 527 C 322.242188 521.554688 344.757813 545 350 556 C 350.90625 545.792969 342.535156 533.757813 336.570313 526 C 320.203125 504.710938 293 492 281.324219 467 C 274.640625 452.714844 281.933594 441 279 426 C 265.933594 359.59375 268.40625 293.097656 286.859375 228 C 293.421875 205 291.335938 175.304688 313 159.789063 C 349.972656 133.308594 389 174.21875 411.949219 200 C 424.941406 214.636719 439.449219 228 451.914063 243 C 469.703125 264.574219 484.871094 288.265625 499.574219 312 C 509.773438 328.460938 518.167969 346.21875 529.425781 362 C 538.96875 375.371094 550.824219 387 561.914063 399 C 567.582031 405.164063 572.328125 415.746094 579 420.398438 C 583.625 423.511719 590 421.136719 595 420.429688 C 604.773438 419.023438 615 418.257813 625 418.015625 C 651.398438 417.367188 677.816406 419.027344 704 422.285156 C 716.625 424 729.28125 427.402344 742 428 C 756.316406 428.589844 769.988281 424.4375 784 422.273438 C 808.410156 418.507813 836.351563 414.824219 861 417.171875 C 873 418.3125 885 418.753906 897 420.285156 C 901.667969 421 907.5625 423.234375 911.816406 420.257813 C 918.535156 415.550781 923.378906 405.132813 929 399 C 950.894531 375.582031 968.605469 350.140625 985.425781 323 C 1011.332031 281.1875 1040.390625 242.050781 1073.910156 206 C 1091.851563 186.707031 1108.703125 162.386719 1135 154.027344 C 1140.554688 152.261719 1147 151 1153 151.128906 C 1194.738281 152.160156 1196.605469 191.617188 1203 223 C 1206.851563 242 1213.910156 260 1216.726563 279 C 1224 329.074219 1221.527344 379.457031 1211.601563 429 C 1209 441.722656 1215.429688 452.429688 1210 465 C 1201.53125 485.359375 1182 496.230469 1167 511.015625 C 1153.820313 524 1145.933594 539.101563 1139 556 M 305 228 L 307 228 C 307.261719 222 308.644531 215.75 310.699219 210 C 312.332031 205.429688 314.546875 201 317.527344 197 C 337.742188 171 370.679688 194.214844 389 210.285156 C 405.597656 225 418.921875 242.671875 432.425781 260 C 465.375 302.289063 490.878906 347.796875 516 395 C 511.480469 390.675781 506.6875 385.648438 501 383 C 501.378906 391.71875 505.660156 398.808594 508 407 C 504.859375 404 501.9375 401.042969 498 399 C 498.410156 418.808594 509.757813 435.332031 519 452 C 509.964844 443.65625 504 431.71875 495 424 C 495.171875 432.296875 498.335938 440 500 448 L 499 448 C 496 442 491.921875 436.476563 488 431 L 487 431 C 486 436.394531 487.90625 441.707031 489 447 L 488 447 C 484.992188 436.5625 478.390625 427.398438 475 417 C 478.773438 416.371094 476.273438 409 475.546875 406 C 472.828125 395.324219 467.925781 385.089844 463.589844 375 C 451.542969 347 431 324.53125 408 305.242188 C 400 298.679688 391.796875 289.441406 382 286 L 383 290 L 382 290 C 377 280.226563 368.917969 272.210938 363 263 C 354.613281 249.738281 348.847656 235 344 220 L 343 220 C 343 244.21875 351.914063 264 369 281 C 355.335938 273.390625 342.867188 262.441406 336.3125 248 C 332.214844 239 332.746094 225.765625 325 219 C 331.480469 254 349.613281 295.824219 390 303 L 385 293 L 386 293 C 389.203125 299.433594 394.175781 305 398 311 C 375.601563 301.675781 353.179688 290.527344 334 275.574219 C 324.839844 268.433594 317 254.824219 307 250 C 307.203125 274.132813 341.53125 299.816406 363 306 L 363 307 C 348.203125 302.738281 337 291.320313 323 286 C 329.699219 301.523438 348.527344 325.535156 365 331 L 365 332 C 335.320313 327 321.816406 299.191406 301 282 C 293.390625 300.035156 317.722656 312.613281 329 323 C 321.710938 319 315.738281 312.269531 308 309 C 310.363281 319 316 327.171875 321 336 C 317.28125 332.78125 313.613281 329.773438 309 328 C 315.492188 343.589844 317.195313 361.136719 325.878906 376 C 330 383.339844 337 389.042969 343 395 C 337.90625 394 333 391.769531 328 391 L 329 395 L 328 395 C 326.289063 389.601563 322.945313 384.8125 320 380 L 319 380 C 319.757813 416.492188 340 445 355 477 C 345.960938 468 337.582031 458.832031 330.695313 448 C 327 442.222656 324.800781 432.800781 319 429 C 323.464844 442.71875 330.230469 455.507813 339 467 C 308.628906 445.605469 294.59375 399.503906 293 364 C 292.351563 348.277344 295 332.71875 295 317 L 294 317 C 292.375 355 287.550781 388.210938 301.425781 425 C 307.808594 442 316 459.078125 329 472 C 336.296875 479.285156 348.558594 483.183594 353.992188 492.015625 C 357.984375 498.503906 357.210938 507.722656 358.886719 515 C 361.785156 527.589844 367 539.71875 371 552 L 365 550 C 365.75 557.480469 370.738281 563.597656 371.8125 571 C 372.363281 574.699219 369 577 369.90625 581.003906 C 370.585938 584.667969 374.542969 593.136719 369.730469 595.394531 C 360.972656 599.511719 348.886719 587.320313 341 585 C 343 592.203125 347.265625 598.496094 354 602 L 354 603 C 345 603 335.402344 603.597656 327 599.816406 C 314.292969 594.097656 304.796875 583 291 579 C 293.675781 586 299.582031 588.035156 305 592.378906 C 321.234375 605.386719 329.675781 611 351 611 L 351 612 C 343.429688 612.019531 336.5625 613.246094 329 612 C 319 610.171875 310.222656 606.027344 300 606 C 303.707031 617.710938 315.253906 626 315.738281 639 C 316.257813 653 303.339844 663 301 676 C 304.945313 675.5 314.261719 672.269531 317.351563 675.605469 C 320.464844 679 315.253906 685.773438 313.871094 689 C 308.921875 700.558594 305.957031 713.566406 304.28125 726 C 302.632813 738.25 301.621094 751.824219 304.289063 764 C 305.675781 770.332031 311.800781 777.316406 309.9375 784 C 307.921875 791.226563 301 796.613281 297.335938 803 C 286 822.621094 274.800781 850.230469 282 873 L 283 873 C 285.222656 845 293 817.777344 312 796 C 291.21875 833.324219 284.554688 871.515625 298.332031 913 C 302.605469 926 307.507813 942 319 950 C 313.449219 930.585938 301.433594 914 301 893 L 302 893 C 303.40625 909.003906 319.804688 926.792969 334 933 C 329 920.089844 316.890625 911.507813 312 898 C 299.332031 862.109375 310.785156 805.367188 346 785 C 340.476563 799.253906 327 810 321.425781 825 C 309.945313 855.515625 318 888.164063 338.261719 913 C 343.960938 920.019531 350.351563 928.648438 359 932 C 353.25 917.054688 339 906 332.4375 891 C 315.851563 853.625 333.308594 810.402344 363 784.300781 C 373.355469 775.210938 385.96875 768.816406 398 762.308594 C 403.859375 759.140625 412.292969 756.777344 416 751 C 399.800781 754.351563 384.511719 762.070313 370 769.78125 C 364.976563 772.449219 357 780.640625 351 779.726563 C 336.570313 777.515625 347.605469 751.722656 352.328125 746 C 369.898438 724.703125 403.363281 718.601563 427 706 L 427 705 C 416.171875 706.597656 405.917969 712.757813 396 717.136719 C 375 726.402344 354.609375 733.4375 338 750 C 333.695313 732 339.699219 714.066406 347.753906 698 C 368.867188 656 410.714844 634.636719 450 613 C 460 607.261719 470.671875 602.410156 481 597.246094 C 485.507813 595 492 593.214844 495 589 C 474.363281 593.269531 453.738281 604.382813 435 613.753906 C 383.9375 639.285156 317.589844 682.363281 322 748 C 322.957031 760.644531 328.273438 771.480469 333 783 C 313.691406 762.765625 317.746094 731.464844 326 707 C 340.761719 663.269531 372.964844 628 412 604.0625 C 426.308594 595.332031 442.574219 590.421875 457 582 L 457 581 C 442 581 428 584.429688 414 589 C 433.546875 572 456.957031 560.09375 481 550.8125 C 489.699219 547.453125 509.261719 545.324219 514 537 C 491.1875 542.492188 469.367188 546.433594 447 554 C 475.882813 525.117188 509.597656 514.6875 547 502 L 547 501 C 522.527344 501 502.25 512.621094 479 518 L 479 517 C 488.464844 514 496.664063 506.230469 505 501 C 518.269531 492.546875 532.371094 485.390625 546 477.578125 C 553.398438 473.335938 565.808594 468.640625 570 461 C 554.8125 464.597656 542.746094 475.753906 528 480 C 535 461.730469 543.988281 444.039063 544 424 L 545 424 C 545.375 428.589844 545.851563 433.464844 550 436 C 550 428.230469 549.609375 420.722656 549 413 C 556.875 417.597656 563.394531 425 571 429 C 570 410.320313 550.71875 397.480469 539 385 C 527.761719 373 519.722656 358.339844 509 346 C 506.40625 361.585938 521.816406 377 528 390 C 511.734375 369 500.699219 344.355469 486.308594 322 C 470.449219 297.367188 451.546875 275.128906 433.648438 252 C 416.363281 229.65625 400 206.039063 379.996094 186.003906 C 369.378906 175.386719 354.9375 163.339844 339 163.339844 C 308.238281 163.339844 302 205 305 228 M 964 389 C 971 375.4375 982.660156 362 983 346 L 982 346 C 970 362.675781 957.4375 379.386719 942.996094 394 C 933 404 920 413.777344 920 429 C 923.839844 426.296875 934 413.320313 939.398438 415.445313 C 942.925781 417 941 431.660156 941 435 C 944.488281 433.121094 945.386719 431 946 427 L 947 427 C 947.414063 447.050781 956.683594 461.546875 962 480 C 947.8125 474.09375 935.597656 463.304688 920 461 C 927.207031 471.144531 939.511719 475.046875 950 481 C 970.695313 492.335938 990.972656 506.539063 1012 517 L 1012 518 C 988.742188 510.132813 967.546875 503.117188 943 500 L 943 501 C 953.570313 506.542969 966.769531 507.460938 978 511.8125 C 1002.792969 521.414063 1025.765625 535.589844 1045 554 C 1022.230469 549.300781 999.511719 538.066406 976 538 L 976 539 C 986.820313 545.089844 1000.363281 547.03125 1012 551.425781 C 1035.5625 560.320313 1058.875 572.449219 1078 589 C 1063.886719 587.175781 1050 582.640625 1036 580 C 1039.265625 586.28125 1047 587 1053 589.78125 C 1066 596 1078.933594 603 1091 611 C 1129.691406 637 1160.351563 675.753906 1169.601563 722 C 1173.730469 742.65625 1174 766.527344 1159 783 C 1164.910156 765.636719 1170.230469 752 1168.910156 733 C 1164.902344 675.796875 1107 637.8125 1061 614.753906 C 1041 604.792969 1019.355469 592 997 589 C 1000 593.632813 1008 595.761719 1013 598.246094 C 1026.332031 605 1039.753906 611.421875 1053 618.257813 C 1104.210938 644.691406 1159 686.230469 1154 750 C 1131.242188 727.433594 1096 714.789063 1066 705 C 1069.488281 710.320313 1078.339844 712.339844 1084 715 C 1098.554688 721.34375 1114.597656 727.019531 1128 735.699219 C 1137.953125 742.144531 1147.1875 753.492188 1146.945313 766 C 1146.855469 770.605469 1145.300781 780.355469 1138.996094 780.03125 C 1132.859375 779.71875 1125.335938 772.199219 1120 769.308594 C 1106 761.765625 1091.5 754.554688 1076 751 C 1079.640625 757 1088.941406 760.121094 1095 763.257813 C 1106.800781 769.363281 1119 776.390625 1128.910156 785.429688 C 1157.953125 812.175781 1175.628906 854.398438 1158.6875 892 C 1151.746094 907.410156 1139 917.703125 1131 932 C 1139.199219 929.28125 1144.238281 922.066406 1149.964844 916 C 1171.167969 893.535156 1182.441406 860 1171.5625 830 C 1167.808594 819.648438 1162.917969 810.0625 1156.652344 801 C 1153 796 1148 792 1146 786 C 1155.621094 789.296875 1163 802.730469 1168.304688 811 C 1185.800781 838.519531 1189.867188 875.320313 1175 905 C 1169.882813 915.296875 1160.644531 922.230469 1155 932 C 1169.234375 929.246094 1182.175781 911.246094 1186 898 L 1187 898 C 1184.59375 916 1175.695313 932 1171 949 C 1181.492188 941.445313 1185.703125 926.613281 1190.1875 915 C 1206.636719 872.40625 1200.535156 830.171875 1177 792 C 1200.226563 816.269531 1199.199219 843.242188 1208 873 L 1209 873 C 1209 851.136719 1206.972656 830.117188 1197.691406 810 C 1193.613281 801.164063 1183 792.113281 1180.914063 783 C 1179.429688 776.625 1185.988281 768.242188 1187.332031 762 C 1189.835938 750.351563 1188.859375 738.726563 1187.914063 727 C 1186.894531 714.359375 1182.886719 700.539063 1177.6875 689 C 1176.332031 686 1171 679 1173.789063 675.742188 C 1176.507813 672.449219 1186 675 1190 675 C 1186 661.699219 1173.371094 652.003906 1174.84375 637 C 1176 625 1187.730469 617.707031 1189 606 C 1171.238281 609.300781 1156 612.148438 1138 612 L 1138 611 C 1148.75 611 1160.507813 612.144531 1170 606.03125 C 1175.320313 602.605469 1179 597.332031 1184 593.328125 C 1189.390625 589 1195.878906 586.632813 1199 580 C 1186.34375 582.257813 1177.222656 593.828125 1166 599.390625 C 1156.898438 604 1146.851563 603 1137 603 C 1142.484375 597.5 1148.566406 592 1150 584 C 1142.769531 587.808594 1135.902344 592.070313 1128 594.410156 C 1125.386719 595.179688 1121 597 1119.351563 593.679688 C 1116.652344 588.710938 1121.835938 579.03125 1123 574 C 1121 574.175781 1119.800781 574.4375 1118 575 C 1120.3125 566.542969 1125.226563 559 1126 550 L 1119 552 C 1124.625 540 1128.71875 527 1131.574219 514 C 1132.972656 507.65625 1132 499.816406 1135 494.003906 C 1138.761719 487.234375 1147.226563 484.488281 1153 480 C 1161.84375 473.085938 1168.582031 464.351563 1174.65625 455 C 1202 413 1199 367.441406 1197 320 L 1196 320 C 1196 333.660156 1198.84375 347.375 1197.910156 361 C 1195 401.472656 1180.890625 438.109375 1152 467 C 1159 454.34375 1167.660156 443.433594 1171 429 C 1165.605469 433 1163.441406 442.316406 1159.933594 448 C 1153 459.21875 1144.625 468.136719 1135 477 C 1148 453.394531 1168.785156 424 1170 396 C 1165.988281 399.011719 1164.945313 405.570313 1162.730469 410 C 1157.964844 419.53125 1150.695313 427.570313 1146 437 L 1145 437 C 1153.519531 417.226563 1167.535156 401.628906 1172 380 C 1167.523438 382.738281 1165.414063 388.09375 1164 393 C 1159 390 1152.285156 394 1147 395 C 1152.984375 389.015625 1160 383.25 1164.53125 376 C 1172.695313 362.777344 1175.761719 343.71875 1180 329 C 1176 330.285156 1173.191406 332.476563 1170 335 C 1174.1875 326.148438 1180.523438 319 1182 309 C 1173.308594 313.128906 1166.351563 320.242188 1158 325 C 1168 316.242188 1180.34375 308.734375 1188.46875 298 C 1189.835938 296.191406 1194.898438 283 1188.6875 284 C 1181.546875 285.027344 1173.851563 298.140625 1168.996094 303 C 1157.203125 314.789063 1142.347656 326.53125 1126 331 L 1126 330 C 1142.410156 323.050781 1160.550781 302 1168 286 C 1150.839844 291.085938 1137.28125 305.667969 1119 310 L 1119 309 C 1126 307 1132.605469 302.429688 1139 299 C 1157.71875 288.417969 1183.984375 273.078125 1184 249 C 1177 254.226563 1172.503906 262 1166 267.714844 C 1146.398438 285 1118.871094 304.011719 1093 310 C 1098 302.832031 1104.210938 296.011719 1108 288 C 1096.957031 291 1088.453125 300.535156 1080 307.746094 C 1057.480469 327 1039.53125 348.136719 1026.773438 375 C 1022 385 1018 395.429688 1015.371094 406 C 1014.652344 409 1012 416.355469 1016 417 C 1011.90625 426.832031 1005.578125 436.324219 1004 447 L 1003 447 C 1003.679688 441.644531 1004.886719 436.414063 1005 431 C 999.328125 435.03125 994.980469 440.730469 992 447 L 991 447 C 992 439.191406 995.355469 432 996 424 C 987.460938 431.058594 983 442.0625 974 449 C 981.957031 432 988.621094 418.339844 993 400 C 988.566406 402.066406 985.4375 405.5625 982 409 C 984.921875 400.421875 989.578125 392.214844 990 383 C 984.4375 385.644531 980.324219 389.6875 976 394 C 1004.554688 333 1043.328125 276.765625 1087.425781 226 C 1103.65625 207.3125 1131 178.777344 1159 185.523438 C 1171.554688 188.550781 1178.707031 200.550781 1182.480469 212 C 1184 216.714844 1183.90625 224 1188 227 C 1188 200.21875 1178.917969 153.769531 1142 165.039063 C 1136.933594 166.585938 1132.363281 169.050781 1128 172.027344 C 1122 176.082031 1116 180.734375 1111.171875 186.015625 C 1091.394531 207.335938 1074.421875 231.09375 1056.574219 254 C 1040 275.105469 1022.800781 295.671875 1008 318 C 992.65625 341.160156 982.996094 368.363281 964 389 M 1164 219 C 1159 244.394531 1146.453125 267.515625 1123 280 C 1138.3125 264.558594 1150.472656 242.496094 1148 220 C 1139.691406 231.109375 1136.839844 247.765625 1129.546875 260 C 1120.894531 274.511719 1105.832031 287.574219 1101 304 C 1127.167969 296.460938 1150.585938 272.8125 1160.398438 248 C 1163.402344 240.410156 1169 226.453125 1164 219 M 350 222 C 357.453125 249.25 380.574219 270.769531 398.925781 291 C 407.761719 300.742188 416.632813 311.664063 429 317 C 426.34375 302.09375 411.609375 279.453125 400 270 C 400.871094 278.496094 406.921875 284.832031 411 292 C 396.851563 278 382.808594 263 370.652344 247 C 364.359375 238.753906 359.792969 226.578125 350 222 M 1083 288 C 1085.972656 282.417969 1089.871094 277.320313 1091 271 C 1079.574219 280.445313 1064.238281 302.074219 1062 317 C 1071.679688 312.769531 1078.664063 304.335938 1086 297 C 1101.296875 281.703125 1116.296875 266.046875 1128.332031 248 C 1133.574219 240.140625 1139 232.695313 1140 223 C 1132.753906 227 1127.488281 236.707031 1122.246094 243 C 1109.566406 258.222656 1096.953125 274 1083 288 M 387 243 C 392.953125 263.234375 417.886719 282 431.910156 297 C 453 319.691406 470 346.382813 482 375 L 483 375 C 482.652344 333 441.871094 292.484375 413 266.714844 C 404.203125 259 397.789063 248.507813 387 243 M 1008 375 L 1009 375 C 1021.628906 344.667969 1039.804688 320 1062 296 C 1075.707031 281.375 1097.320313 263.152344 1104 244 C 1092.320313 249.445313 1081 264 1072 273 C 1045.785156 299.214844 1008.335938 334.636719 1008 375 M 1123 280 L 1122 281 L 1123 280 M 370 281 L 369 282 L 370 281 M 1083 288 C 1081.835938 290.214844 1080.914063 291.394531 1079 293 C 1080.207031 291 1081.246094 289.589844 1083 288 M 384 290 C 384.984375 291.480469 385 291.203125 385 293 C 383.710938 291.558594 383.597656 291.765625 384 290 M 413 294 C 411.363281 293.453125 411.546875 293.636719 411 292 C 412.636719 292.546875 412.453125 292.363281 413 294 M 370 309 L 370 310 L 363 308 C 365.53125 307.464844 367.511719 308.21875 370 309 M 372 310.332031 C 372.773438 310.332031 372 310.832031 371.667969 310.667969 L 372 310.332031 M 1093 310 L 1092 311 L 1093 310 M 1118 310.332031 C 1118.773438 310.332031 1118 310.832031 1117.667969 310.667969 L 1118 310.332031 M 1116 311 L 1115 312 L 1116 311 M 334 327 L 329 324 C 331.585938 324 332.355469 325 334 327 M 1158 325 C 1157.453125 326.636719 1157.636719 326.453125 1156 327 C 1156.546875 325.363281 1156.363281 325.546875 1158 325 M 1155 327 C 1154.453125 328.636719 1154.636719 328.453125 1153 329 C 1153.546875 327.363281 1153.363281 327.546875 1155 327 M 1125 331.332031 C 1125.773438 331.332031 1125 331.832031 1124.667969 331.667969 L 1125 331.332031 M 366 332.332031 C 366.773438 332.332031 366 332.832031 365.667969 332.667969 L 366 332.332031 M 1170 335 C 1169.453125 336.636719 1169.636719 336.453125 1168 337 C 1168.546875 335.363281 1168.363281 335.546875 1170 335 M 1174 342 L 1173 343 L 1174 342 M 318 344 C 322 350.15625 326.71875 356.40625 330 363 C 325.261719 359.363281 317 350.371094 318 344 M 1173 344 L 1172 345 L 1173 344 M 1172 346 C 1169.234375 352.644531 1165.929688 358.730469 1160 363 C 1163.507813 357.363281 1167.25 350.605469 1172 346 M 436 357 C 438.417969 359.546875 440.390625 362 442 365 L 443 365 L 442 361 L 443 361 C 453 377.214844 468.488281 394.015625 473 413 L 472 413 C 465 396.320313 452.929688 383 445 367 L 444 367 C 454.609375 389.722656 467.996094 411 478 434 C 481.730469 442.632813 487 451.488281 488 461 C 482 456.449219 478 448.6875 475 442 L 474 442 C 474 449.078125 475.445313 456 476 463 L 475 463 L 470 452 L 469 452 C 469 464.648438 473.742188 476.46875 474 489 C 465 482.371094 460.894531 471 452.910156 463.171875 C 430.222656 441.09375 401.261719 422.183594 372 410 L 372 409 C 401.765625 414.304688 423.660156 443.1875 452 451 C 436.636719 431 420.929688 408 397 398 L 397 397 C 418.871094 399.777344 430.238281 414.234375 445 429 C 436.644531 413.363281 421.863281 401.792969 414 386 C 434.308594 396.117188 439 420 455 434 C 447.257813 414.046875 432 398.515625 424 379 L 425 379 C 437 396 452.179688 414.636719 458 435 L 459 435 C 456.617188 417.300781 450.320313 397.609375 443.796875 381 C 441.210938 374.421875 433.886719 364.148438 436 357 M 1057 357 C 1050.941406 383.183594 1037.523438 407.242188 1032 434 L 1033 434 C 1041 416.65625 1049.953125 390.335938 1066 379 C 1056.230469 397.566406 1046.855469 416.03125 1036 434 C 1051.769531 420.054688 1058 393.78125 1078 385 C 1068.4375 399.457031 1055.429688 410.449219 1049 427 C 1063 413 1073.769531 398.679688 1095 397 L 1095 398 C 1070.191406 405.148438 1054.851563 433.390625 1038 451 C 1066.449219 441.3125 1089.269531 416.046875 1119 409 C 1113.964844 415 1104.800781 417.6875 1098 421.253906 C 1084.699219 428.230469 1071.238281 435.699219 1059 444.425781 C 1050 450.734375 1041.386719 457.5625 1034.464844 466 C 1028.238281 473.59375 1024 483.167969 1016 489 C 1016.566406 476.011719 1022.964844 464.121094 1023 451 L 1022 451 L 1016 463 L 1015 463 C 1015 455.277344 1016.9375 447.722656 1017 440 L 1016 440 C 1012.835938 446.695313 1008.726563 455.253906 1003 460 C 1007.667969 428.390625 1031.773438 399.289063 1045 371 L 1044 371 C 1037.753906 384.148438 1026.671875 394.382813 1021 408 L 1020 408 C 1024 393 1038.570313 369.59375 1051 360 L 1048 366 L 1049 366 C 1050.996094 362.152344 1053.472656 359.507813 1057 357 M 443.332031 365.667969 C 443.277344 365.722656 443.222656 366.777344 443.667969 366.332031 C 443.722656 366.277344 443.777344 365.222656 443.332031 365.667969 M 1047 366 L 1048 367 L 1047 366 M 1046 368 C 1045 369.476563 1045 369.203125 1045 371 L 1046 371 C 1046.214844 369.578125 1046.273438 369.328125 1046 368 M 424 377 L 423 378 L 424 377 M 964 389 L 963 390 L 964 389 M 529 390 L 528 391 L 529 390 M 963 391 L 962 392 L 963 391 M 530 392 L 529 393 L 530 392 M 1162.667969 393.667969 C 1162.722656 393.722656 1162.777344 394.777344 1162.332031 394.332031 C 1162.277344 394.277344 1162.222656 393.222656 1162.667969 393.667969 M 976 394 C 975.453125 395.636719 975.636719 395.453125 974 396 C 974.546875 394.363281 974.363281 394.546875 976 394 M 323 396 C 328 408.085938 336.492188 418.21875 342 430 L 341 430 C 335.8125 422.160156 321.378906 405.726563 323 396 M 330 396 L 329 397 L 330 396 M 509 407 L 508 408 L 509 407 M 982 409 L 981 410 L 982 409 M 414 469 L 414 468 C 424.746094 471.660156 433.3125 479.285156 443 485 C 433.71875 462.714844 413.367188 447.558594 395 433.003906 C 387.367188 427 378.699219 422.085938 373 414 C 381.386719 415.257813 387.960938 420.4375 395 424.808594 C 413.578125 436.351563 430.253906 450.808594 443.789063 468 C 448.726563 474.273438 454.855469 481.730469 455.660156 490 C 456 494.273438 454 499.285156 448.996094 498.664063 C 443.257813 498 439.503906 492 435.910156 488 C 429.261719 481 422.257813 474.226563 414 469 M 474 414 L 473 415 L 474 414 M 1118 414 C 1113.351563 422.253906 1103.304688 427.460938 1096 433.210938 C 1078.945313 446.632813 1055.371094 463.738281 1048 485 C 1057 478.054688 1066.921875 470.191406 1078 467 C 1070.550781 477.542969 1057.929688 486.550781 1048 494.789063 C 1044 498.015625 1037.351563 500.816406 1035.4375 494 C 1032.777344 484.410156 1043 472.742188 1048.449219 466 C 1064.847656 445.472656 1091.507813 420.292969 1118 414 M 1017 415 L 1016 416 L 1017 415 M 445 429 L 446 430 L 445 429 M 343 431 L 345 435 L 344 435 C 343.199219 433.261719 342.945313 432.804688 343 431 M 346 436 L 345 437 L 346 436 M 1145 437 L 1144 438 L 1145 437 M 347 438 L 346 439 L 347 438 M 382 445.332031 L 382.332031 445.667969 C 381.839844 445.832031 381.226563 445.332031 382 445.332031 M 1111 445 L 1110 446 L 1111 445 M 385 446.332031 C 385.773438 446.332031 385 446.832031 384.667969 446.667969 L 385 446.332031 M 1109 446 L 1109 447 C 1092.765625 451 1077.640625 462.296875 1063 470 C 1072.429688 456.621094 1092.839844 447.320313 1109 446 M 424 468 C 411 462.5625 400.414063 452.566406 387 448 C 397.953125 445.730469 418 459.652344 424 468 M 991 447 L 990 448 L 991 447 M 974 449 L 973 450 L 974 449 M 295 450 C 295 478 309.78125 495.035156 330 512.574219 C 336.253906 518.003906 341.605469 526.003906 350 528 C 348 520.207031 345.394531 506.382813 340.488281 500.105469 C 333.4375 491.085938 320.203125 486.234375 312.300781 477 C 305.53125 469.089844 302.554688 456.59375 295 450 M 1141 529 C 1149.46875 524.605469 1156.171875 516.570313 1163 510.039063 C 1181 492.726563 1195.996094 476.488281 1196 450 C 1188.28125 455.058594 1184.476563 469.605469 1178.382813 477 C 1170.761719 486.25 1159.226563 489.707031 1151 498.09375 C 1144.914063 504.496094 1141.1875 520.222656 1141 529 M 689 461 C 691.246094 462.800781 693 463.492188 696 464 L 696 465 C 688.953125 465 676.726563 463.703125 672 470 C 687.875 470.011719 703.195313 475.320313 719 476 C 716.710938 473 714.640625 471.238281 711 470 L 711 469 C 715 470.132813 727 476.734375 725 468 L 729 469 C 726.664063 463.703125 723.589844 460.660156 718 459 C 719.300781 461.820313 720.871094 463.722656 723 466 C 712.289063 461.605469 700.476563 456.703125 689 461 M 731 459 C 732.867188 463.460938 740 480.503906 745 481.367188 C 750 482.234375 756.679688 464.804688 758 461 C 748.9375 461 740 459 731 459 M 763 468 L 765 468 C 763 473 766.839844 473.339844 771 472.09375 C 778.222656 470 795 466.464844 799 460 C 788.429688 459.171875 779.882813 461.1875 770 465 C 771.863281 463.054688 773.46875 461.207031 775 459 C 769.386719 460.085938 765.871094 463.136719 763 468 M 770 465 L 770 466 L 767 467 C 768.222656 465.804688 768.421875 465.683594 770 465 M 725 468 C 723.363281 467.453125 723.546875 467.636719 723 466 C 724.636719 466.546875 724.453125 466.363281 725 468 M 770 477 C 779.59375 475.140625 789.273438 472.144531 799 471.171875 C 805.546875 470.515625 811.894531 472 818 469 C 807.851563 461.011719 776.5 465.546875 770 477 M 406 467 C 421 480.050781 444 497.429688 446 519 L 445 519 C 441.625 504.796875 429.960938 494 420 484 C 415.425781 479.425781 407.492188 473.476563 406 467 M 766 467 L 765 468 L 766 467 M 710 468 L 709 469 L 710 468 M 1084 468 C 1072.722656 487.511719 1049.558594 498.597656 1044 522 L 1043 522 C 1044.765625 501.765625 1066.242188 476.402344 1084 468 M 646 475 L 646 476 C 648.972656 477.558594 651.675781 478.503906 655 479 L 655 480 C 647.992188 480 640.941406 479 634 478 C 639.828125 487 658.609375 488.777344 668 486 C 664.304688 482.699219 659.882813 481.425781 655 481 L 655 480 C 666.6875 480.503906 678.253906 481 690 481 C 684.511719 477.1875 677.363281 478.238281 671 478 C 662.605469 477.59375 654.371094 475.359375 646 475 M 801 480 L 801 481 C 815.199219 481.253906 828 479.703125 842 477 C 832.765625 473.125 810.765625 477.675781 801 480 M 1135 477 L 1134 478 L 1135 477 M 856 479 C 848.664063 476 838.449219 480.296875 831 481.738281 C 829.363281 482.058594 823.234375 482.625 823.921875 485.53125 C 824.464844 487.832031 830.390625 487.023438 832 487 C 840.585938 486.3125 848.632813 483.300781 856 479 M 528 480 L 527 481 L 528 480 M 963 480 L 962 481 L 963 480 M 849 498 L 849 499 C 844.6875 499.445313 841.839844 500.699219 839 504 C 846.277344 504 853.792969 502.4375 861 503.285156 C 865.332031 503.796875 873.734375 506.03125 877.664063 503.648438 C 880.625 502 878.347656 499.15625 875.941406 498.433594 C 871 497 864 497.105469 859 497 L 859 496 C 868.742188 496 878.28125 494.027344 888 494 L 888 492 C 874 492 859.695313 488.695313 846 489.375 C 842.714844 489.539063 824.308594 493.550781 835 498.101563 C 839 499.808594 844.703125 498.035156 849 498 M 602 492 C 612.578125 500.453125 632.277344 496.527344 645 498 C 647.976563 498.28125 658.988281 500.292969 657.941406 494.160156 C 657 489 647.628906 490 644 490 C 629.960938 490 616 492 602 492 M 858 497 L 858 498 L 849 498 C 851.890625 496.785156 854.875 497.003906 858 497 M 652 504 C 644.28125 496.207031 632 498 622 498 C 619.667969 498.003906 611 497.402344 611.921875 501.789063 C 612.5 505 618.84375 504 621 504 L 652 504 M 571 523 C 583.804688 531.746094 607.339844 518.765625 621 517 L 621 515 C 604.488281 515.136719 587.441406 521.191406 571 523 M 869 515 L 869 517 C 886.339844 519.550781 901.195313 524.144531 919 524 C 914.859375 521 908 521.808594 903 521 C 891.570313 519 880.734375 515.03125 869 515 M 479 518 L 478 519 L 479 518 M 1013 518.332031 L 1013.332031 518.667969 C 1012.839844 518.832031 1012.226563 518.332031 1013 518.332031 M 1016 519 L 1015 520 L 1016 519 M 446.667969 520.667969 C 446.722656 520.722656 446.777344 521.777344 446.332031 521.332031 C 446.277344 521.277344 446.222656 520.222656 446.667969 520.667969 M 876 525 C 878.753906 529.761719 885 531.042969 890 533 C 902.28125 538 921.734375 545.648438 935 542 C 930.3125 538.3125 922.683594 537.78125 917 536 C 903.179688 531.574219 890 528.335938 876 525 M 556 541 L 556 542 C 575 544.011719 595.773438 535.066406 613 528 C 607.925781 524.59375 601.359375 527.675781 596 529.28125 C 582.777344 533.242188 569 536.59375 556 541 M 766 612 C 771.179688 608.109375 772.746094 597 775 591 C 781.78125 573.617188 794.214844 556.101563 798 538 C 791.867188 541.746094 788.863281 550.761719 785.753906 557 C 777.335938 574 768.433594 593.167969 766 612 M 674 539 C 680 564.425781 695.8125 589 704 614 L 705 614 C 704.84375 595 694.613281 575.738281 686.246094 559 C 682.820313 552.148438 680 544 674 539 M 693 539 C 696.804688 555.4375 707.410156 569.074219 712 585 L 711 585 C 708 577.128906 702.679688 568.125 696 563 C 701.46875 586.019531 717 603 717 628 C 727.296875 620.160156 715.644531 596.25 713 587 L 714 587 C 716.28125 595 719.632813 603.402344 723 611 L 724 611 C 723.84375 592.09375 713 573.492188 704.753906 557 C 701.691406 551 699 542.605469 693 539 M 719 539 C 723.855469 560 736 578.664063 739.914063 600 C 740.527344 603.472656 741.179688 619 746.878906 618.078125 C 752.210938 617.21875 752.527344 603.007813 753 599 C 756.347656 577.703125 767.183594 559.34375 773 539 C 759.683594 548.585938 749 574.027344 747 590 L 746 590 C 743.722656 573.085938 733 549.046875 719 539 M 549 565 C 563.707031 564.367188 578.339844 557.160156 591 550.140625 C 595.902344 547.421875 602 545 605 540 C 588.691406 540.339844 558.875 551.707031 549 565 M 816 540 C 801.292969 559.289063 787 590.441406 786 615 L 787 615 C 792.65625 597.613281 798.34375 579.222656 806.890625 563 C 810 556.792969 818.167969 547.335938 816 540 M 885 540 C 888 544.722656 895 546.777344 900 549.246094 C 913 555.753906 927.476563 563 942 565 C 939 559.253906 932.542969 557.019531 927 554.246094 C 914 547.777344 899.785156 540.121094 885 540 M 654 542 C 658.554688 557.78125 672.929688 573 681.398438 587 C 686 594.71875 690 605.144531 697 611 C 694.265625 592.488281 680.601563 576.5625 669.882813 562 C 664.910156 555.242188 660.722656 547.15625 654 542 M 836 543 C 821 564 798.414063 586.105469 793 612 C 798.265625 608.550781 800.980469 600.332031 804.203125 595 C 811.183594 583.445313 818.765625 571.6875 827 561 C 830.617188 556.324219 838.207031 549.382813 836 543 M 643 548 C 647.289063 562.472656 662.277344 575 670 588 L 671 588 C 668.691406 572.375 655.550781 557 643 548 M 631 549 C 636.589844 559.457031 645 567.171875 652.710938 576 C 656.363281 580.199219 659.300781 586.011719 664 589 C 660.46875 574.128906 645 555 631 549 M 846 549 C 835.980469 559.105469 821.496094 573.070313 820 588 L 821 588 C 825.902344 578.789063 832 570.070313 838.613281 562 C 841.621094 558.320313 846.832031 554.117188 846 549 M 828 590 L 829 590 C 837.980469 576.796875 852.808594 564.632813 859 550 C 846.683594 555.746094 830.414063 576.445313 828 590 M 616 551 C 619.855469 559.195313 629.503906 564.050781 636 570.089844 C 645.738281 579.144531 652.964844 591.710938 663 600 C 661.1875 579.414063 633.621094 558.339844 616 551 M 874 551 C 855.5625 564.664063 836 579.1875 827 601 C 832.859375 598.003906 835.386719 591 839.464844 586 C 846.253906 577.71875 854.617188 570.292969 863 563.664063 C 866.996094 560.507813 874.476563 556.792969 874 551 M 447 554 L 446 555 L 447 554 M 603 556 C 608.644531 568.101563 622.933594 575.175781 631.570313 585.015625 C 638.988281 593.460938 642.914063 607 651 614 C 649.953125 590.007813 623.878906 565.011719 603 556 M 886 557 C 866.648438 569.140625 842 589.457031 840 614 C 847.277344 608 849.441406 598.46875 854.789063 591 C 860 583.636719 867.515625 578.160156 874 572 C 877.773438 568.351563 886 562.515625 886 557 M 909 558 L 909 559 C 922.632813 568.273438 934.800781 579.132813 947 590.171875 C 954.710938 597.144531 961.203125 605 971 609 C 967.863281 602.273438 961.199219 597.199219 956 592 C 943.398438 579.398438 928 560 909 558 M 521 609 C 536.199219 604.148438 548.304688 585.582031 560 575.285156 C 565.761719 570.214844 574.910156 565.375 579 559 C 561.386719 560.546875 546.621094 581.378906 535 593 C 530 598 524.273438 602.6875 521 609 M 775 561 C 766.730469 576.527344 762 594.460938 762 612 L 763 612 C 766 600.382813 767.992188 588.519531 771.4375 577 C 772.925781 572.023438 776.835938 566.171875 775 561 M 795 563 C 784.511719 576.746094 774.746094 593.691406 772 611 C 771.769531 613.410156 768.945313 626.042969 772.285156 627.078125 C 773.945313 627.59375 775.277344 613.734375 775.664063 612 C 778.175781 600.792969 783.246094 590 789 580 C 791.847656 575.144531 797 569 795 563 M 717 564 C 719 579.59375 724.449219 597.292969 730 612 L 731 612 C 730.960938 597.738281 728.496094 574 717 564 M 586 568 C 590.230469 575 599.910156 579.671875 606 585.171875 C 615 593.328125 622.226563 603 629 613 C 631.355469 607 626.3125 599.695313 622.761719 595 C 613.800781 583.152344 600.566406 572 586 568 M 861 612 C 866.742188 608.742188 869.890625 600.058594 874.289063 595 C 882.28125 585.808594 897.921875 578.796875 903 568 C 884.445313 575.804688 864.925781 591.765625 861 612 M 1181 572 L 1186 570 C 1183.46875 569.289063 1182.484375 570 1181 572 M 503 636 C 511.652344 633.8125 517.515625 627 524 621.285156 C 539 608.054688 561.875 590.589844 570 572 C 551.679688 580.390625 536 602 522 616 C 515.667969 622.300781 506.84375 627.761719 503 636 M 921 574 C 925.933594 582.535156 933.984375 588.332031 941 595.039063 C 954.4375 608 969.523438 629.664063 988 635 C 979.589844 617 955.933594 603 942 589 C 936 583.023438 929.671875 575.570313 921 574 M 578 583 C 583 592.390625 599.511719 604.15625 609 609 C 604.265625 596.777344 590 587.09375 578 583 M 882 609 C 889.765625 605.378906 907 591.660156 911 584 C 899 587.757813 886.941406 597.546875 882 609 M 712.667969 585.667969 C 712.722656 585.722656 712.777344 586.777344 712.332031 586.332031 C 712.277344 586.277344 712.222656 585.222656 712.667969 585.667969 M 1079 589 L 1078 590 L 1079 589 M 469 675 C 472.441406 674.699219 475.644531 673.769531 479 673 L 479 674 C 468.335938 678.035156 446.972656 689.558594 442 700 C 457.179688 695.628906 470.523438 684 483 674.628906 C 488.933594 670.230469 495.609375 667.097656 500 661 L 496 662 C 504.238281 654.804688 512.308594 647.140625 521 640.503906 C 526 636.601563 532 634.007813 535 628 C 527.648438 631.09375 521.902344 637.066406 515 641 C 525.371094 631.074219 537 622.511719 546.910156 612 C 551.414063 607.175781 557.199219 599.097656 564.574219 599 C 573 598.773438 581.664063 607.53125 589 611 L 589 612 C 581 609.476563 563.964844 606.132813 558 614 C 566 613 572.949219 614.363281 581 615 L 581 616 C 565.367188 615.328125 546.613281 613.621094 536 628 C 542.800781 625.523438 548.65625 621.359375 556 620.300781 C 567.367188 618.660156 578.703125 622.515625 590 623 C 587.476563 619.613281 585 618 581 617 L 581 616 L 598 620 C 596.84375 618 596 617.21875 594 616 L 594 615 L 602 618 C 597.53125 608.496094 572.84375 593.828125 562 596.816406 C 552.328125 599.480469 543.621094 610.195313 536 616.390625 C 518.4375 630.667969 499.429688 644.175781 485 661.035156 C 480.320313 666.707031 473 668 469 675 M 889 618 C 891.84375 617.289063 894.347656 616.242188 897 615 C 896 616.515625 895.613281 617.339844 895 619 C 905.566406 618.136719 915.28125 612.273438 926 613 C 921 605.625 908.746094 609.484375 902 612 L 902 611 C 909.4375 607.789063 916.746094 600.015625 925 599.257813 C 937 598.144531 952.578125 620.640625 961 628 C 947.4375 620.78125 911.652344 602.339844 901 624 C 912.742188 621.105469 926.933594 618 939 620.519531 C 951.976563 623.285156 963 633.683594 973 642 C 983.769531 651 995.363281 659 1006 668 C 1001.355469 665.53125 996.90625 663 992 661 C 995.316406 667.195313 1002.386719 670.535156 1008 674.433594 C 1020.984375 683.457031 1034.261719 696.261719 1050 700 C 1041.890625 688.578125 1024.546875 679 1012 673 L 1012 672 L 1021 675 C 1018.859375 667.378906 1010.28125 662.144531 1003 660 C 1010 655.175781 989.402344 642.296875 985 639.332031 C 970.683594 629.691406 957.480469 618.378906 944 607.609375 C 939 603.65625 932.886719 596.308594 926 596.167969 C 919.933594 596.039063 912.378906 601.160156 907 603.640625 C 900.386719 606.683594 891.625 610.820313 889 618 M 803 610 C 794 631.351563 780.488281 658.527344 780 682 L 781 682 C 788.375 665.363281 792.988281 647.261719 798.671875 630 C 800.640625 624.019531 805.554688 616.265625 803 610 M 687 611 C 692.632813 634 698 661.511719 710 682 C 711.789063 677 708.277344 670.003906 706.859375 665 C 703.242188 652.234375 698.808594 639.738281 695 627 C 693.519531 621.375 692.390625 614.066406 687 611 M 594 614 L 594 615 L 589 613 C 591 612.589844 591.960938 613.03125 594 614 M 902 612 L 902 613 L 899 614 C 900.222656 612.804688 900.421875 612.683594 902 612 M 898 614 L 897 615 L 898 614 M 910 626 L 910 627 C 919.277344 627 929.953125 625.4375 939 627.761719 C 963.578125 634.070313 972.441406 658.609375 987 676 C 988.59375 666.09375 979.960938 657.042969 974 650 C 958.363281 631.171875 934.988281 615.246094 910 626 M 504 677 L 505 677 C 516.308594 657.640625 530 633 554 627.515625 C 563.511719 625.371094 572.472656 627.589844 582 628 C 577.421875 620.660156 562.585938 622.207031 555 623.300781 C 532.84375 626.492188 505.980469 654.441406 504 677 M 783 628 C 780.402344 647.277344 772.84375 665.324219 772 685 L 774 685 C 775.730469 671.59375 779.398438 658.222656 782.210938 645 C 783.339844 639.683594 786.527344 632.730469 783 628 M 962 628 C 964.285156 630 966.203125 631.644531 968 634 C 965.441406 632.386719 962.808594 631 962 628 M 706 629 C 709.363281 647.046875 711.46875 666.511719 717 684 L 718 684 C 717.886719 670.480469 713.8125 657.21875 711.425781 644 C 710.503906 639 710.574219 632.132813 706 629 M 970 634 C 971.1875 635.1875 971.527344 635.585938 972 637 C 970.453125 635.738281 970.191406 635.804688 970 634 M 974 637 L 977 641 C 975.242188 639.621094 974.460938 639.105469 974 637 M 515 641 C 511.507813 645.292969 506.8125 648.316406 502 651 C 505.417969 646.800781 510 643.203125 515 641 M 979 641 C 981.546875 643.242188 983.941406 645.304688 986 648 C 983 646.179688 979.878906 644.40625 979 641 M 520 675 C 538.359375 670.476563 557.910156 657.257813 577 657.714844 C 597.941406 658.214844 625.734375 693.582031 644.472656 670 C 646.585938 667.320313 648.308594 664.207031 649.449219 661 C 651.1875 656.128906 651 651.089844 651 646 C 642.429688 650 637.734375 663 627 662.601563 C 616.464844 662.324219 605.316406 650.816406 595 647.722656 C 574.695313 641.632813 554 650.820313 537 661.425781 C 531.222656 665.023438 523 668.808594 520 675 M 840 646 C 840 651.171875 840 656.105469 841.925781 661 C 843 664.128906 844.789063 667.277344 846.789063 670 C 864.890625 694.507813 894.640625 656.628906 916 658.089844 C 935.734375 659.441406 952 674.585938 972 675 C 967 668.691406 959.785156 665.410156 953 661.574219 C 936.535156 652.273438 916.457031 641.640625 897 647.441406 C 885.835938 650.765625 875 663.800781 863 662.773438 C 852.570313 662 848.671875 650.046875 840 646 M 988 648 C 989.1875 649.1875 989.527344 649.585938 990 651 C 988.453125 649.738281 988.191406 649.804688 988 648 M 500 652 L 499 653 L 500 652 M 494 656 L 493 657 L 494 656 M 492 657 L 492 658 C 490.253906 659 488.875 659.453125 487 660 L 487 659 L 492 657 M 1003 658 L 1002 659 L 1003 658 M 496 662 L 496 663 L 492 665 L 492 664 L 496 662 M 743 662 C 743 671 737.210938 696.070313 745 702 C 746 688.464844 745 675.492188 745 662 L 743 662 M 490 666 L 489 667 L 490 666 M 487 668 L 486 669 L 487 668 M 1012 671 L 1012 672 C 1009.777344 671.191406 1008 670.261719 1006 669 C 1008.390625 669 1009.847656 669.824219 1012 671 M 485 669 C 484.453125 670.636719 484.636719 670.453125 483 671 C 483.546875 669.363281 483.363281 669.546875 485 669 M 482 671 L 481 672 L 482 671 M 480 672 L 479 673 L 480 672 M 507 711 C 520.699219 706.628906 529.710938 692.371094 542 685.230469 C 570 669 593.433594 681.550781 620 693 C 615.695313 684 604 680.035156 595 677.003906 C 563.980469 666.574219 523.367188 682.6875 507 711 M 861 707 C 871.503906 702.101563 877.394531 690.347656 888 684.785156 C 909.394531 673.566406 933.734375 674.578125 954 687.699219 C 964.519531 694.511719 972.53125 704.574219 984 710 C 968.492188 676.746094 917.378906 666.058594 887 681.246094 C 876.285156 686.605469 864.558594 695 861 707 M 734 675 C 730.882813 685.253906 730 697.320313 730 708 C 730 712.351563 729 717.261719 733 720 C 734.765625 706.335938 739.625 688.285156 734 675 M 753 677 C 753 691.234375 749 706.753906 756 720 C 761.4375 712.039063 756.242188 697.117188 756 688 C 755.910156 683.828125 756.703125 679.617188 753 677 M 852 732 L 851 732 C 849.546875 723.558594 846.753906 708 842 701 C 838.269531 711 841.648438 720 843 730 L 842 730 C 839.996094 723.183594 835.628906 717 829 714 L 835 731 C 829.320313 726.632813 823.261719 722.484375 817 719 C 818.464844 727.121094 824.324219 734.140625 827 742 C 823.472656 738.324219 820.421875 734.609375 816 732 C 817.273438 746.507813 828.394531 758.585938 835 771 C 823.257813 761 810.359375 752.195313 800.46875 740 C 795.578125 734 792.878906 726.648438 789 720 L 788 720 C 791 741.375 806.652344 758.039063 822 771.832031 C 827.929688 777.160156 836.207031 781.226563 840.53125 788.015625 C 844.203125 793.773438 848.253906 802.097656 848.796875 809 C 849.472656 817.59375 841.578125 815.675781 837 811.671875 C 828 803.554688 826.421875 790.285156 821 780 L 820 780 C 821.628906 791.070313 825.746094 806 834 813.8125 C 839.277344 818.703125 851.183594 822.425781 852.566406 812 C 853.6875 803.539063 846.613281 794.679688 844 787 C 858 791.089844 864.375 804.121094 871 816 C 885.683594 841.476563 898.34375 868.046875 912 894 C 905.605469 887 902.386719 878.207031 897.71875 870 C 888.863281 854.421875 879.9375 839 870 824 C 865.914063 818 862 807 856 803 C 859.496094 820 870.5625 832 879.5625 846 C 895 870.488281 902.640625 901.308594 933 911 C 927.929688 903.820313 920 899.378906 915 892 C 908.773438 882.492188 904.851563 871.191406 899.753906 861 C 891 843.523438 881.539063 826.453125 872.753906 809 C 864.167969 792 852.40625 774.757813 852 755 C 859 767.046875 869.199219 763.824219 881 768 C 907 776.761719 931.828125 786.40625 956 767.332031 C 961.851563 762.714844 966.492188 756.695313 971.246094 751 C 975.84375 745.496094 989.226563 733.453125 989 726.015625 C 989 722.113281 984.589844 720 982 717.675781 C 976 712.683594 971.421875 706.484375 965.996094 701 C 947.273438 682.082031 918 671.046875 893 684.488281 C 883 690 875.882813 698.582031 868.574219 707 C 861.824219 714.777344 854.460938 721.640625 852 732 M 638 755 L 639 755 C 638.824219 776.28125 625 796 615.308594 814 C 601.75 839.074219 591.890625 868.605469 575.777344 892 C 570.386719 899.832031 561.839844 903.828125 556 911 C 586.640625 905.074219 593.863281 875.050781 607.605469 852 C 617.644531 835.15625 629.839844 821 636 802 C 628.40625 806.640625 623.628906 819.523438 618.949219 827 C 604.953125 849.359375 590.726563 872.429688 579 896 L 578 896 C 590.378906 866.269531 607.21875 838 623 810 C 626.210938 804.640625 635.265625 784.726563 643.667969 787.710938 C 647 789 644.59375 794 643.691406 796 C 641.3125 801.464844 634 816.324219 644 818.667969 C 661 822.675781 668.4375 791.59375 670 780 C 662 786.347656 662.40625 802.707031 654.675781 810.816406 C 651 814.515625 642.726563 818.285156 642.320313 810 C 641.976563 803 646.609375 793 650.351563 787.09375 C 653.949219 781.558594 661 778.15625 666 774 C 681.695313 760.101563 700.96875 742.539063 702 720 L 701 720 C 692.277344 740.242188 674.535156 758.457031 656 770 C 663.390625 758 670.449219 745.453125 675 732 C 670.566406 734.066406 667.4375 737.5625 664 741 C 666.566406 733.464844 670.894531 726.703125 673 719 C 666.5 722.089844 660.9375 727 655 731 C 656.804688 725.667969 659.171875 720.601563 660 715 C 654.960938 717.398438 651.742188 721.742188 650 727 L 649 727 C 650.628906 718.261719 650.375 710.761719 650 702 L 649 702 C 645.207031 710.558594 641.367188 720.726563 640 730 L 639 730 C 639 716.628906 640.441406 694.796875 626 688 C 630.714844 699.488281 633 710.558594 633 723 C 630.421875 716.265625 629 708.8125 624.609375 703 C 601.90625 674 558.242188 673 531 696 C 523.261719 702.476563 517.621094 711.089844 510 717.816406 C 507.28125 720.214844 502 722.695313 502.582031 727.015625 C 503.414063 734 513.914063 742.652344 518.199219 748 C 524.765625 756.195313 531.316406 764.359375 540 770.429688 C 560.269531 784.59375 584.808594 777.824219 606 769.808594 C 616.320313 766 635.269531 768.53125 638 755 M 852 726 L 853 726 C 857.550781 712.011719 861.34375 698.589844 867 685 C 853.5625 691.824219 852 713 852 726 M 376 756 C 411 746.097656 453 729.121094 466 691 C 456.558594 694.207031 448.886719 704.117188 442 711 C 431 722 419.339844 732 406 739.574219 C 398 744.132813 380.667969 748.289063 376 756 M 1024 691 C 1032.699219 725.507813 1080.191406 750.832031 1113 755 C 1107.90625 747.292969 1091 744 1083 739 C 1067.851563 729.585938 1055.355469 717.179688 1042 705.574219 C 1036.1875 700.523438 1031.324219 694 1024 691 M 370 793 C 399 781 423.421875 759.269531 453 747.8125 C 461 744.703125 469.445313 742.335938 478 741.285156 C 480.597656 741 486 742 487.800781 739.398438 C 489.773438 736.320313 488 727.683594 488 724 C 488 713.484375 490 703.292969 492 693 C 486.3125 696 484.488281 702.53125 481.753906 708 C 477.636719 716.234375 472.9375 724.511719 465.984375 730.710938 C 446.519531 748.074219 421.484375 760.078125 399 773 C 389.601563 778.402344 375.609375 783.234375 370 793 M 570 694.328125 C 580.367188 692.523438 597 700.203125 593.566406 713 C 592.277344 717.574219 587.558594 718 584.851563 721.226563 C 581.855469 725 581.773438 730.632813 576 731.277344 C 569.199219 732.035156 570 724 566.570313 720.316406 C 563.875 717.578125 559.460938 718.558594 557 715.566406 C 549.898438 707 561.867188 695.746094 570 694.328125 M 913 694.300781 C 923.3125 692.777344 939.558594 699.8125 934.398438 713 C 932.546875 717.660156 927.660156 716.355469 925 719.601563 C 922 723.273438 923.546875 731 916.988281 731.535156 C 910 732.222656 910.308594 723.152344 907 719.601563 C 904.609375 717 900.304688 718.253906 898.179688 714.773438 C 892.246094 705.0625 904.660156 695.53125 913 694.300781 M 1000 695 C 1000 706.046875 1002 717 1002 728 C 1002 731 1000.757813 737.703125 1003 740 C 1005.179688 742.125 1012 741.273438 1015 741.753906 C 1024.257813 743.265625 1033.3125 746.085938 1042 749.605469 C 1069.785156 761 1093 780.398438 1120 793 C 1115.328125 783.066406 1101.929688 779 1093 773.550781 C 1070.585938 760.105469 1045.167969 748.269531 1025 731.535156 C 1013.710938 722.160156 1012 702.292969 1000 695 M 550 711 C 548.414063 716 546.578125 720.769531 547.929688 726 C 555 753.828125 602 756.425781 602.871094 724 C 602.984375 719.320313 600.726563 715.210938 599 711 C 612.722656 717.472656 607.492188 737.292969 600.210938 747 C 585 767.109375 555.761719 756.664063 546.792969 737 C 542.925781 728.519531 542 717.253906 550 711 M 942 711 C 946.402344 717.253906 947.628906 723.527344 945.984375 731 C 940.984375 753.730469 913 766.546875 894 750.671875 C 883.269531 741.738281 877.90625 722.09375 890 712 C 888.773438 718 886.875 724.007813 888.964844 730 C 896.179688 750.660156 920.601563 753.757813 934.957031 739 C 944.472656 729.191406 940.910156 722.496094 942 711 M 529 751 C 522.589844 746.484375 517.308594 740.140625 512.464844 734 C 511.734375 733.074219 507.769531 728.539063 509.816406 727.347656 C 511.945313 726.105469 514.769531 730.757813 515.652344 732.003906 C 520 738.300781 524.757813 744.578125 529 751 M 983 726 C 980.832031 737 966.835938 750.777344 958 757 C 964 748.316406 973.539063 730.621094 983 726 M 649 728 L 648 729 L 649 728 M 664 741 L 663 742 L 664 741 M 777 746 C 780.867188 752.753906 788.445313 759 795 763 C 791.984375 755.214844 784.769531 749 777 746 M 640 753 L 639 754 L 640 753 M 537 759 C 535.363281 758.453125 535.546875 758.636719 535 757 C 536.636719 757.546875 536.453125 757.363281 537 759 M 1000 757 C 996.773438 769.472656 996.484375 782.464844 990 794 C 983.269531 806.46875 970.492188 816.027344 965 829 C 971 826.617188 975.410156 821.589844 980 817 C 992.964844 804.035156 1019 776 1000 757 M 525 829 C 519.9375 817.269531 509.800781 808.511719 502.75 798 C 494.890625 786.285156 491 772.011719 491 758 C 485 762.152344 485.453125 774.542969 486.617188 781 C 489.753906 798.429688 508.394531 822.566406 525 829 M 955 759 C 954.453125 760.636719 954.636719 760.453125 953 761 C 953.546875 759.363281 953.363281 759.546875 955 759 M 779 760 C 784.910156 769.488281 793.675781 782.183594 804 787 C 799.179688 776.808594 789.761719 764.171875 779 760 M 541 761 L 540 762 L 541 761 M 951 762 L 950 763 L 951 762 M 544 763 L 543 764 L 544 763 M 546 764 L 545 765 L 546 764 M 948 764 L 947 765 L 948 764 M 946 765 L 945 766 L 946 765 M 549 766 L 548 767 L 549 766 M 944 766 L 943 767 L 944 766 M 602 768 L 602 769 C 582.933594 777 569 775.378906 550 768 C 555.988281 767 563.664063 771.464844 570 772 C 580.941406 772.675781 591.382813 770.191406 602 768 M 942 767 L 941 768 L 942 767 M 935 770 L 935 771 C 919.945313 775.230469 906.558594 774.617188 892 769 C 897.765625 767.683594 904.222656 772 910 772.699219 C 918.480469 774 926.769531 771.699219 935 770 M 940 768 L 940 769 L 936 770 C 937.457031 769 938.246094 768.5625 940 768 M 656 770 L 655 771 L 656 770 M 836 771 L 835 772 L 836 771 M 334 783 L 333 784 L 334 783 M 316 791 L 313 796 L 312 796 C 313 793.644531 313.957031 792.625 316 791 M 1177 791 L 1176 792 L 1177 791 M 872 795 C 878 811.007813 900.574219 830.574219 918 832 C 913 826 905 823 899 818 C 890.199219 810.585938 883.390625 798.382813 872 795 M 574 833 C 590.8125 829.109375 611 813 618 797 C 606 799.316406 597.445313 814.539063 588 821.765625 C 583.390625 825.289063 576.886719 828 574 833 M 1060 805 C 1049.84375 815.378906 1046.515625 827.722656 1048.921875 842 C 1049.671875 846.460938 1050.222656 852.160156 1054 855 C 1053.652344 847 1051.988281 839.054688 1054 831 C 1056.265625 823.171875 1063.40625 813.191406 1060 805 M 430 856 C 438.914063 848.355469 440.988281 831.128906 439.894531 820 C 439.523438 816.21875 435.882813 806.085938 430.449219 807.753906 C 426.722656 809 429.867188 815 430.714844 817 C 436 830.058594 430 842.710938 430 856 M 368 832 C 379.332031 839.46875 389.203125 840.046875 397.328125 828 C 398.910156 825.652344 401.808594 822.289063 401 819.214844 C 399 811.660156 379.816406 813 375.375 817.003906 C 372.773438 819.363281 375.554688 822.144531 374.675781 825 C 373.742188 828 370 830 368 832 M 1123 832 C 1120.390625 830 1115.488281 828.304688 1114.300781 825 C 1113.253906 822 1116.714844 818.566406 1113.636719 816.140625 C 1108.710938 812.25 1090.625 812.019531 1089.425781 820.019531 C 1088.9375 823.269531 1091.28125 826.503906 1093 829 C 1101.351563 840.777344 1111.878906 838.328125 1123 832 M 600 823 C 587.527344 833.054688 576.542969 844.816406 564 854.714844 C 556 861.011719 546 864.511719 540 873 C 558.167969 868.03125 575.753906 854 589 841 C 593.421875 836.671875 602.425781 830.019531 600 823 M 888 823 C 889.527344 831 896.257813 836.636719 902 841.828125 C 915 853.664063 931.417969 870.378906 950 872 L 950 871 C 937.683594 862 924.648438 853.550781 913 843.570313 C 904.6875 836.449219 898 827.773438 888 823 M 402 830 C 396.855469 837.777344 390 844 381 846.558594 C 376 848.035156 370.464844 847.324219 366 850 C 376.597656 855.5625 388.34375 855 396.894531 846 C 400.566406 842.09375 405.492188 835.039063 402 830 M 1086 831 C 1089.167969 844.332031 1112.433594 867 1124 848 C 1115.625 848 1107.195313 848.234375 1100 843.199219 C 1094.820313 839.578125 1091.726563 833.726563 1086 831 M 865 846 C 866.890625 861 869.34375 876.523438 876.488281 890 C 884.542969 905.1875 897.351563 917 906.972656 931 C 911.742188 938 914.839844 953.332031 921 958 C 920 947.121094 919.238281 936.089844 914.6875 926 C 906.769531 908.429688 891.9375 895.324219 882 879 C 876.285156 869.609375 872.980469 853 865 846 M 623 847 C 616.34375 859.484375 612.445313 873.035156 604.65625 885 C 590.175781 907.238281 564.523438 929.101563 571 959 L 572 959 C 576.671875 924.332031 612.679688 905.480469 620.207031 872 C 621.890625 864.503906 626 854.476563 623 847 M 689 990 L 689 991 C 679.636719 990.261719 670.414063 988.027344 661 988 C 667 997.183594 691.601563 1002.160156 702 1005 L 702 1006 C 691.992188 1006 681.996094 1004.503906 672 1004.257813 C 669 1004.1875 663.65625 1004.664063 662.753906 1008.132813 C 661.585938 1012.609375 667.855469 1014.230469 671 1014.699219 C 680.644531 1016.140625 690.375 1014.027344 700 1014 L 700 1015 C 690.820313 1015.398438 669.378906 1020.121094 664 1028 C 678.890625 1028 693.253906 1024.164063 708 1023 L 708 1024 C 700.5625 1027.097656 693.679688 1031.109375 686 1033.667969 C 682 1035 677.335938 1035.355469 675 1039 C 686.976563 1038.484375 698.6875 1034.679688 710 1031 C 684.679688 1074.808594 614.558594 1062.386719 584 1032.828125 C 573.3125 1022.375 567.414063 1009.683594 562 996 L 561 996 C 561.203125 1005.800781 565.277344 1014.472656 569.78125 1023 C 591 1063.28125 635.800781 1076.421875 678 1066 C 697.945313 1061 730.464844 1051.121094 731 1026 L 732 1026 C 735 1043.109375 718.265625 1052 705 1058.21875 C 675.378906 1072.210938 641 1080.648438 609 1070.253906 C 580.410156 1061 563.496094 1036.417969 554.355469 1009 C 548.910156 992.671875 546.578125 971.695313 532 960.53125 C 515 947.574219 494.664063 960.425781 486.378906 977 C 479.351563 991.050781 481.265625 1008.414063 485.425781 1023 C 490.34375 1040.234375 499.511719 1054.53125 508 1070 C 518.261719 1088.144531 526.449219 1105.136719 540.285156 1121 C 551.933594 1134.351563 566.460938 1145.5625 577.671875 1159.003906 C 585.269531 1168.113281 585.558594 1181 593.328125 1190 C 603.417969 1201.640625 618 1206.246094 626.539063 1220 C 636.207031 1235.65625 641.199219 1256.355469 656 1268.320313 C 668.832031 1278.632813 685.621094 1278.113281 701 1280.589844 C 713.371094 1282.582031 725.433594 1287.046875 738 1288 C 755 1289.089844 768.59375 1284.34375 785 1281.261719 C 795.253906 1279.335938 805.828125 1279.585938 816 1277.101563 C 848.558594 1269.152344 849.988281 1233 869.289063 1211.003906 C 877 1202.097656 888.808594 1198.324219 896.671875 1189.824219 C 904.714844 1181.132813 904.1875 1168.097656 911.390625 1159.003906 C 924 1143 940.265625 1129 953.386719 1113 C 967 1096.316406 977.390625 1077.6875 988 1059 C 1001.617188 1035.007813 1017 1001.53125 1004.6875 974 C 997.222656 957.441406 978 944.683594 961 956.789063 C 934.570313 975.597656 939 1019.222656 919.191406 1044 C 889.375 1081.269531 836.203125 1080 796 1063 C 777.933594 1055.175781 756.210938 1047.664063 758 1025 L 759 1025 C 759.566406 1051.570313 794 1061.167969 815 1066.371094 C 859.324219 1077.390625 901.507813 1061.472656 922.246094 1020 C 926.261719 1012 930.257813 1004.085938 931 995 C 926.472656 998.328125 925.296875 1006.023438 922.890625 1011 C 918.976563 1019.097656 913.5 1026.691406 906.984375 1033 C 882.90625 1056 846.988281 1065 815 1055.410156 C 801.488281 1051.410156 787.503906 1044.054688 781 1031 C 792.34375 1034.691406 803.9375 1039 816 1039 L 816 1038 C 806.492188 1032.472656 793.855469 1026 783 1024 L 783 1023 C 797.40625 1024.136719 811.464844 1028 826 1028 C 823.433594 1023.558594 818.667969 1023.128906 814 1022 C 805 1019.398438 796.269531 1014.808594 787 1014 L 787 1013 C 797.6875 1013.007813 808.253906 1014.503906 819 1014 C 822.210938 1013.796875 828.429688 1012.683594 827.824219 1008.125 C 827.300781 1004.183594 820.933594 1004 818 1004.054688 C 807.6875 1004.246094 797.316406 1005.785156 787 1006 L 787 1005 C 800.929688 1002.601563 817.179688 995 830 989 L 830 988 C 820.230469 988.027344 810.742188 990.800781 801 991 C 809.738281 985.238281 819.859375 981.503906 826.472656 973 C 839.734375 956 845.683594 923.539063 838.636719 903 C 836.679688 897.296875 832.230469 893.1875 829.308594 888 C 824.304688 879.105469 819.507813 870 811 863.789063 C 791.335938 849.699219 764.804688 852 742 852 C 723 852 703.363281 851.289063 686 860 C 672.597656 866.671875 667.851563 876.480469 661.21875 889 C 657.710938 895.617188 652.238281 901.546875 650.527344 909 C 643.28125 940.570313 659 977.414063 689 990 M 805 880 L 805 881 C 787.242188 879.585938 769.960938 874.320313 752 873.089844 C 729.785156 871.566406 707.578125 876.546875 686 881 C 692.695313 872.328125 705.757813 869 716 866.375 C 746.519531 858.742188 778.320313 863.550781 805 880 M 924 866 C 928.917969 879 943.320313 893.722656 957 897 C 950.734375 886.636719 934.523438 872.082031 924 866 M 532 896 L 532 897 C 545.320313 894.625 559.746094 879 565 867 C 552.957031 872.664063 543.210938 888 532 896 M 277 880 C 277.597656 894 283.445313 913.171875 298 918 C 296.34375 907 285.433594 887.230469 277 880 M 1191 919 C 1204.425781 913.796875 1211.902344 894.457031 1213 881 C 1203.921875 886.148438 1192.820313 908.792969 1191 919 M 827 936 L 826 936 C 819.257813 915.316406 800.4375 896.34375 777 899.183594 C 767.222656 900.371094 758.828125 907.117188 749 908 C 738.980469 908.710938 731.363281 903.277344 722 901 C 703.691406 896.238281 687.769531 902.214844 675 916 C 669.816406 921.738281 668.460938 929.039063 664 935 C 658.230469 915.484375 676 900.445313 693 895.746094 C 707.90625 891.613281 723.855469 895 739 895 C 764.609375 895.011719 813.902344 884.691406 825.449219 917 C 827.617188 923.054688 827 929.679688 827 936 M 913 894 L 912 895 L 913 894 M 578 896 L 577 897 L 578 896 M 1187.667969 896.667969 C 1187.722656 896.722656 1187.777344 897.777344 1187.332031 897.332031 C 1187.277344 897.277344 1187.222656 896.222656 1187.667969 896.667969 M 457 955 L 459 955 C 461.957031 935 483.554688 923.527344 500 915.246094 C 506.863281 911.792969 517.347656 909.144531 521 902 C 490.828125 909.1875 457 917.140625 457 955 M 970 902 C 976 910.183594 986.257813 912 995 916.257813 C 1011.257813 924.183594 1026 938 1027 957 C 1032.84375 950.28125 1027.832031 940 1024.515625 933 C 1014 911.09375 992.910156 903 970 902 M 673 956 C 680 958.050781 686.355469 962.773438 694 963 C 709.226563 963.289063 723.976563 947.1875 718.75 932 C 715.929688 923.796875 708 919.558594 703 913 C 727.679688 918.160156 732.382813 954.75 712.984375 969.441406 C 700.671875 978.769531 677.25 970.3125 673 956 M 788 913 L 788 914 C 769.34375 925.671875 762.269531 952.707031 788 961.25 C 798.703125 964.804688 807.785156 958.363281 818 956 C 815 962 811 966 805 968.5625 C 797.84375 971.746094 788.777344 975 781 972.03125 C 754.910156 962.609375 761.945313 917 788 913 M 1212 913 C 1209.464844 916.421875 1206.808594 919.730469 1204 923 C 1202.394531 925.019531 1200.679688 927.011719 1198.953125 929 C 1197.984375 930.117188 1191.277344 939 1197 938.078125 C 1204.96875 937 1214.945313 920.238281 1212 913 M 277 914 C 278 921.214844 281 928.574219 286.183594 934 C 287.695313 935.574219 291.710938 939.773438 294.289063 938 C 296.492188 936.230469 293.503906 932.394531 292.46875 931 C 288 925.074219 282.988281 918.304688 277 914 M 508 1078 C 505.742188 1065.355469 493.628906 1057.007813 487.78125 1046 C 476.703125 1025.148438 465.273438 998.121094 469.617188 974 C 471.71875 962.3125 477.855469 952.492188 483 942 C 473.8125 946.296875 470 957 467 966 C 456.894531 996 468.484375 1022.746094 482.769531 1049 C 488.242188 1059.0625 495.96875 1075.140625 508 1078 M 1006 945 C 1018.496094 977.390625 1021.675781 1012 1006.214844 1044 C 1000.730469 1055.40625 989.359375 1063.117188 985 1075 C 1022.34375 1056 1036.886719 1010.179688 1022.808594 973 C 1019 963.09375 1016.449219 950 1006 945 M 1212 948 C 1209 955.703125 1202.5625 961.496094 1196 966.253906 C 1193.1875 968.292969 1187.636719 971 1187.636719 975 C 1187.636719 982.097656 1196.941406 975.753906 1199 974 C 1206.632813 967.015625 1213.511719 958.621094 1214 948 L 1212 948 M 276 949 C 278.230469 958.644531 283.28125 968.261719 291 974.660156 C 293.347656 976.589844 298.453125 980.234375 301.378906 977.355469 C 304 974.738281 300.9375 971.417969 298.941406 969.664063 C 291.71875 963.320313 284.640625 953.03125 276 949 M 389 955 L 389 957 C 400.503906 958.691406 411.222656 962 423 962 L 423 963 C 403.265625 963 384.59375 964.691406 365 961 C 368 966.511719 375.269531 967.195313 381 968.628906 C 395.828125 972.335938 410.625 976 426 976 L 426 977 C 419.964844 979.683594 415 984.449219 409 987.125 C 394.40625 993.5 377.753906 995 362 995 L 362 996 C 375.691406 1003.183594 391.414063 999.152344 406 998 L 406 999 C 398 999.6875 388.230469 1003 383 1009 C 393.632813 1009 403.554688 1006.40625 414 1005 L 414 1006 C 402 1009.519531 391.230469 1018.304688 380 1023.742188 C 375.570313 1026 368.988281 1027.015625 366 1031 C 374 1030.828125 380.566406 1027 388 1024.34375 C 406.589844 1017.828125 428.460938 1011.695313 441.675781 996 C 451 984.804688 454.703125 964.808594 440 956.007813 C 432.429688 951.480469 422 955.054688 414 955.828125 C 405.703125 956.621094 397.324219 955 389 955 M 1125 1031 L 1125 1030 C 1107.335938 1021.734375 1090.394531 1012.617188 1073 1004 L 1073 1003 C 1084.222656 1006 1095.386719 1008 1107 1008 L 1107 1007 C 1100 1003.78125 1092.539063 1000.128906 1085 999 L 1085 998 C 1099.171875 999.117188 1113.351563 1001.796875 1127 996 L 1127 995 C 1104.792969 995 1081.671875 992 1065 976 C 1080.535156 976 1096.246094 973.585938 1111 968.667969 C 1116 967 1122.949219 965.617188 1126 961 C 1106.351563 963.484375 1086.796875 963 1067 963 L 1067 962 C 1077 962 1092.195313 961.378906 1101 956 C 1094.265625 954.011719 1087.8125 955.820313 1081 955.820313 C 1071.402344 955.820313 1060.253906 951.136719 1051 955.574219 C 1039 961.328125 1038.242188 978.636719 1043.902344 989 C 1054.816406 1009 1079 1015.75 1099 1023.054688 C 1107.574219 1026.199219 1115.71875 1030.59375 1125 1031 M 848 1212 C 852.363281 1193.625 867 1191 877.605469 1178 C 881.625 1173.027344 882.746094 1166.070313 884 1160 C 876.988281 1163.019531 870.90625 1167.773438 864 1171 C 872.347656 1156.558594 889.324219 1148.351563 902 1138.191406 C 916.542969 1126.535156 931.722656 1108.539063 942 1093 C 932.804688 1101 922.257813 1108.3125 911 1113 L 911 1112 C 939.554688 1091.488281 974.519531 1061.113281 980 1024 L 979 1024 C 965.335938 1051.585938 935 1088.292969 902 1091 C 903.433594 1085 906 1079.828125 911 1076 C 909.964844 1091.351563 935.191406 1070.542969 941 1065.714844 C 959.238281 1050.550781 975.46875 1030.679688 983.304688 1008 C 986 999.78125 989 975.089844 974.996094 974.363281 C 968.925781 974.046875 964 981.394531 959 984 C 962 973.601563 974 960.21875 984.472656 971.328125 C 989.992188 977.210938 991.621094 987.222656 991.960938 995 C 992.800781 1014.308594 983.519531 1032.445313 974.78125 1049 C 967.394531 1063 960.980469 1078.261719 951.523438 1091 C 935.707031 1112.296875 915.246094 1129 898.328125 1149.015625 C 891.675781 1157 891.492188 1167.558594 886 1176 C 881.175781 1183.503906 872.492188 1186.453125 866 1192.183594 C 859.261719 1198.136719 855.207031 1206.691406 848 1212 M 591 969 C 591.578125 975.578125 594.316406 981.117188 601 983 C 597.859375 978.402344 594.71875 973.078125 591 969 M 891 983 C 896 979.359375 899 975.246094 900 969 C 895.632813 972 892.5625 978.097656 891 983 M 580 1077 C 581.894531 1078.464844 592 1089.449219 586.640625 1091.183594 C 580.957031 1093 567.773438 1083.78125 563 1081 C 540.253906 1067.671875 521.171875 1047.433594 511 1023 L 510 1023 C 513.175781 1062 550.855469 1092.0625 580 1113 L 580 1114 C 567.367188 1108.738281 555.855469 1100.429688 546 1091 C 554.234375 1105.773438 569.699219 1125 583 1135.332031 C 597.636719 1147 615.78125 1154.664063 626 1171 C 619.339844 1168 613.867188 1163 607 1160 C 609 1185.417969 636.988281 1188.78125 642 1213 C 635.773438 1208.191406 632.847656 1200.472656 626.984375 1195.183594 C 619.777344 1188.679688 610.589844 1185.125 604.789063 1177 C 599 1169.003906 598 1158.667969 591.671875 1151 C 575.644531 1131.585938 555.273438 1115.300781 539.898438 1095 C 531 1083.390625 526.75 1069.4375 519.398438 1057 C 509 1039.421875 497 1018.074219 497.179688 997 C 497.191406 988.28125 501.8125 977.730469 509 972.652344 C 516.320313 967.503906 527.65625 971.050781 530.214844 980 C 531.277344 983.703125 527.636719 986 524.511719 983.816406 C 518.871094 980 518 971 510.636719 981.015625 C 500.203125 995.128906 506.417969 1011.492188 514.453125 1025 C 525.59375 1043.726563 540 1060.710938 558 1073.277344 C 562.976563 1076.78125 582.269531 1091.757813 580 1077 M 913 974 C 916 981.425781 916.28125 985.550781 911 992 C 910 990.074219 909.921875 990 908 989 C 907.730469 992.097656 906.816406 995 906.324219 998 C 905.257813 1004.605469 908.890625 1010.339844 914.34375 1003 C 918.78125 997 920.308594 978.050781 913 974 M 881.65625 986.132813 C 879 988 883 991.597656 885.34375 990 C 887.890625 988.078125 883.867188 984.574219 881.65625 986.132813 M 606.316406 987.066406 C 603.894531 988.628906 606.195313 991.445313 608.398438 990 C 610.613281 988.410156 608.554688 985.625 606.316406 987.066406 M 801 991 L 800 992 L 801 991 M 615.355469 993.160156 C 612.351563 994.691406 615.929688 998.421875 618.34375 996.71875 C 620.683594 995.066406 617.5 992.070313 615.355469 993.160156 M 874.40625 993.15625 C 872.378906 994.371094 874.566406 997 876.402344 996.253906 C 878.675781 995.40625 876.527344 992 874.40625 993.15625 M 286 993 C 290.214844 1004.117188 301.292969 1012.605469 312 1017.125 C 314.765625 1018.289063 323.953125 1022.136719 325.652344 1017.609375 C 327 1014 319.230469 1011.714844 317 1010.691406 C 306.34375 1005.789063 297 996.535156 286 993 M 1203 993 C 1198 996 1192.972656 998.816406 1188 1001.800781 L 1178 1007.800781 C 1175.355469 1009.371094 1162.617188 1014 1165.175781 1018.398438 C 1167.355469 1022.273438 1175.433594 1018 1178 1016.742188 C 1185.636719 1013.054688 1204.410156 1003.273438 1203 993 M 579 997.347656 C 574.195313 999 577 1008.132813 581.53125 1005.824219 C 584.671875 1004.191406 582.886719 996.035156 579 997.347656 M 1084 997 L 1083 998 L 1084 997 M 645 1001 C 640.980469 1001.34375 643.664063 1006 646.867188 1005.535156 C 651 1005.054688 648.40625 1000.578125 645 1001 M 843 1001 C 839 1002.027344 842.472656 1006.378906 845.667969 1005.148438 C 849 1004 845.875 1000.113281 843 1001 M 418 1003 L 417 1004 L 418 1003 M 288 1004 C 291.621094 1017.132813 302.296875 1028.53125 314 1035.125 C 316.753906 1036.675781 326.367188 1041.792969 328.824219 1037.398438 C 331 1033.339844 322.375 1030 320 1028.6875 C 308 1022.109375 299.972656 1010.179688 288 1004 M 415 1004.332031 C 415.773438 1004.332031 415 1004.832031 414.667969 1004.667969 L 415 1004.332031 M 590.304688 1007.175781 C 586.976563 1008.816406 589.320313 1014 592.683594 1012 C 595.535156 1010.164063 593.394531 1005.652344 590.304688 1007.175781 M 896 1007.042969 C 893.671875 1009.511719 898.695313 1014.210938 900.917969 1011.21875 C 902.855469 1008.613281 898.269531 1004.78125 896 1007.042969 M 1201 1006 C 1189.382813 1012.652344 1180.34375 1023.339844 1168 1029.742188 C 1165.761719 1031 1158.421875 1033.664063 1160.40625 1037.410156 C 1162.710938 1041.757813 1172.300781 1036.628906 1175 1035.214844 C 1185.476563 1029.726563 1198.652344 1018.128906 1201 1006 M 884 1012 C 885.445313 1014.28125 886.308594 1014.582031 889 1015 C 887.28125 1013.160156 886.433594 1012.652344 884 1012 M 605 1014 C 599.925781 1013.195313 601.269531 1017.597656 605 1014 M 703 1013 L 702 1014 L 703 1013 M 616.464844 1023.015625 C 613.183594 1025.46875 619.871094 1028.628906 622.246094 1026.121094 C 624.96875 1023.253906 618.511719 1021.484375 616.464844 1023.015625 M 709 1022.332031 C 709.773438 1022.332031 709 1022.832031 708.667969 1022.667969 L 709 1022.332031 M 783 1022 L 783 1023 L 780 1023 C 781.246094 1022.316406 781.546875 1022.25 783 1022 M 868.660156 1023.023438 C 865.472656 1025.527344 872 1028.03125 874.246094 1026.015625 C 876.84375 1023.65625 870.625 1021.484375 868.660156 1023.023438 M 330 1024 C 332.503906 1042.570313 344.6875 1057.570313 356.832031 1071 C 390.433594 1108.152344 441.847656 1132 492 1133 C 487.980469 1127.695313 476.207031 1127.746094 470 1126.117188 C 453.757813 1122 437.6875 1115.285156 423 1107.140625 C 397.582031 1093.039063 374.167969 1076.050781 354 1055 C 345.289063 1046 339.769531 1031.542969 330 1024 M 1157 1025 C 1138.617188 1069 1088.238281 1101 1045 1116.308594 C 1029.300781 1122 1012.976563 1124.507813 997 1129 L 997 1130 C 1047 1130 1097.789063 1109 1132 1072 C 1141 1062.3125 1148.867188 1052 1154.753906 1040 C 1157 1035.394531 1160.378906 1029.640625 1157 1025 M 843 1028.785156 C 838 1030.746094 842.863281 1034.644531 846.832031 1033 C 851.441406 1030.769531 846.25 1027.601563 843 1028.785156 M 642.753906 1030.007813 C 639.972656 1032.640625 647.171875 1035 649.246094 1033 C 652 1030.359375 644.828125 1028.042969 642.753906 1030.007813 M 317 1061 C 321.714844 1073.171875 336 1082.609375 348 1087 C 350.449219 1088 359.746094 1091.679688 361.824219 1089 C 364.222656 1086 354.769531 1081.65625 353 1080.757813 C 341 1074.710938 329.824219 1064.703125 317 1061 M 1126 1090 C 1141.34375 1089.339844 1165.71875 1078.53125 1171 1063 C 1160.8125 1066.730469 1151.78125 1074 1142 1078.742188 C 1135.890625 1081.71875 1129.171875 1083.511719 1126 1090 M 476 1065 C 480.691406 1075 488.921875 1082.429688 495.574219 1091 C 503.871094 1101.6875 510.484375 1113.714844 519.300781 1124 C 528.519531 1134.753906 539.566406 1143.601563 548 1155 C 559.4375 1170.136719 565.226563 1189.332031 576.527344 1204 C 585.503906 1215.644531 600.242188 1220.625 608.640625 1233 C 620.828125 1251 626.785156 1272.335938 644 1286.675781 C 658.710938 1299 678 1299.128906 696 1302.25 C 713.484375 1305.285156 729.980469 1311.75 748 1311 C 763.933594 1310.261719 779.3125 1304.0625 795 1301.589844 C 810.695313 1299.117188 827 1299.058594 841 1290.535156 C 862 1277.660156 867 1252.394531 880 1233 C 888.871094 1220 903.914063 1214.820313 913.671875 1203 C 924.445313 1190 930.214844 1171.210938 940 1157 C 947.726563 1146 957.644531 1136.628906 965.984375 1126 C 974 1115.703125 980.589844 1104.304688 988.660156 1094 C 995.269531 1085.566406 1005 1078.140625 1009 1068 C 994.410156 1074.296875 984.925781 1088.074219 974 1099 C 958.289063 1114.710938 940.8125 1129.082031 927.476563 1147 C 917.472656 1160.445313 911.71875 1176.507813 901.839844 1190 C 892.480469 1202.785156 876.359375 1208.023438 867.210938 1221 C 854.765625 1238.648438 851.195313 1262 833 1275.390625 C 821 1284.222656 805.960938 1283.503906 792 1285.425781 C 777.839844 1287.375 764.351563 1293 750 1294 C 735.289063 1295 723 1291.328125 709 1288 C 692.503906 1284 673.765625 1286.480469 659 1276.636719 C 638.699219 1263.105469 634.808594 1238.214844 620.480469 1220 C 612 1209.355469 599.398438 1204 590.617188 1194 C 579.304688 1181 572.992188 1162.789063 561.996094 1149 C 549.957031 1134 533.589844 1123.511719 520 1110 C 506.304688 1096.226563 495.769531 1071 476 1065 M 363 1081 C 365.8125 1097.289063 381.195313 1107.554688 394 1116 C 413.882813 1129.105469 436.304688 1136.324219 459 1143 C 468.46875 1145.585938 477.25 1150.78125 487 1152.535156 C 495 1154 503.867188 1153 512 1153 L 512 1152 C 505.800781 1150.039063 499.261719 1150.285156 493 1148.574219 C 465.667969 1141.109375 437.976563 1132.230469 413 1118.691406 C 402 1112.785156 391.316406 1106 382 1097.710938 C 375.464844 1092 371 1085 363 1081 M 733 1149 C 739.597656 1141 743 1129.304688 744 1119 L 745 1119 C 749.65625 1128.265625 751.84375 1139.128906 755 1149 L 756 1149 C 753.679688 1131.773438 744.355469 1109.5625 754 1093.003906 C 760.917969 1081.378906 784.273438 1076.617188 793.363281 1088.105469 C 799.992188 1096.484375 800.558594 1111.71875 801 1122 L 803 1122 C 802.292969 1113.046875 799.960938 1102.394531 804 1094 L 805 1094 C 807.179688 1099.167969 807 1104.714844 809 1110 L 810 1110 C 809.230469 1104 811.753906 1087.574219 821.398438 1097.589844 C 823.992188 1100.285156 822.929688 1105.605469 823 1109 C 823.1875 1116 824.578125 1123.273438 826.425781 1130 C 830.792969 1146 835.617188 1161.261719 833.824219 1178 C 829.472656 1218.625 781.460938 1232.441406 749 1243 L 749 1244 C 762 1244 774.921875 1241.007813 788 1241 L 788 1242 C 758.414063 1253.414063 730.308594 1254.1875 701 1242 L 701 1241 C 714.445313 1241.035156 727.511719 1245 741 1245 L 741 1243 C 706 1240.152344 662 1213.265625 656.4375 1177 C 653.910156 1160.800781 660 1145.375 664 1130 C 666 1122.757813 663.960938 1103.527344 668.601563 1098.5625 C 677.773438 1088.757813 680 1104.234375 680 1110 L 681 1110 C 681.558594 1108.011719 682 1106.027344 682.535156 1104 C 683.414063 1099.246094 687.332031 1091.164063 687.957031 1101.003906 C 688.382813 1107.742188 687 1114.296875 687 1121 C 692 1110.765625 688.960938 1096 697.339844 1087.328125 C 708.273438 1076.226563 731.851563 1082.195313 737.515625 1096 C 744 1112.089844 737.460938 1133.15625 733 1149 M 1124 1082 C 1113 1090.285156 1104.511719 1101 1093 1108.484375 C 1060.761719 1130 1016.332031 1146.15625 978 1151 L 978 1152 C 986 1153.015625 993.90625 1153 1002 1153 L 1002 1154 C 997.8125 1155.636719 995.484375 1157.726563 994 1162 L 998 1162 L 998 1163 C 988.941406 1163.007813 979.703125 1164.339844 971 1167 C 968.902344 1167.53125 962 1169.410156 963.347656 1172.785156 C 964.734375 1176.386719 971.4375 1174.113281 974 1173.601563 C 983.585938 1171.6875 998.261719 1170.71875 1005 1163 C 1003.199219 1162.4375 1001.878906 1162.175781 1000 1162 L 1000 1161 C 1004.640625 1161 1024 1161.011719 1025 1155 C 1026 1148.621094 1009.910156 1151.769531 1007 1152 L 1007 1151 C 1016 1149.648438 1024.296875 1144.136719 1033 1141.34375 C 1057.5 1133.488281 1082 1126 1103 1110.371094 C 1109.890625 1105.242188 1127.953125 1092.253906 1124 1082 M 626 1095 C 623.476563 1100.410156 623.265625 1104.15625 624 1110 C 627.496094 1107 629.890625 1102.296875 634 1100 C 636.183594 1098.703125 644.53125 1097.179688 643.246094 1102.105469 C 642.46875 1105.097656 638.832031 1107.589844 637 1110 C 648 1108.796875 647.53125 1112.507813 648 1121 C 648.394531 1125.433594 650.519531 1128.34375 649.210938 1133 C 648.496094 1135.550781 646.390625 1143.496094 642.773438 1142.824219 C 631.425781 1140.71875 623.421875 1118.5625 621 1109 C 619.515625 1102.265625 616.335938 1093.300781 626 1095 M 866 1110 C 867.296875 1104.328125 867.785156 1100.640625 866 1095 C 874.414063 1093.667969 871.492188 1102.226563 870 1108 C 867.789063 1117.59375 859.933594 1140.300781 849 1143.109375 C 844.515625 1144.265625 840.648438 1131.429688 840.703125 1128 C 840.738281 1125.796875 842.214844 1113 843.363281 1112 C 845.417969 1110.078125 849.417969 1111 851 1109.066406 C 852.992188 1107 846.492188 1103.660156 848.175781 1100.601563 C 852.738281 1092.316406 863.714844 1107.320313 866 1110 M 341 1107 C 349.828125 1119.242188 369.425781 1121.484375 377.417969 1134 C 380.554688 1138.804688 371.804688 1139.277344 373.347656 1142.699219 C 375.253906 1147 386 1146.40625 389.683594 1149.652344 C 392.46875 1152.203125 392.808594 1157 394.929688 1160 C 399.59375 1167 407.359375 1172.796875 411.199219 1180 C 414.417969 1186.039063 406.507813 1190.304688 412.226563 1197 C 422.410156 1208.804688 440.929688 1212.476563 451.683594 1224.328125 C 456.96875 1230.15625 450.496094 1239 456.304688 1244.582031 C 465.96875 1254 501.765625 1250.042969 509 1239 C 495.707031 1236.570313 483.25 1244.214844 470 1243 C 463.308594 1242.226563 458.265625 1236.398438 462.707031 1230.09375 C 464.9375 1227 468.535156 1225 471 1222 C 460 1220.589844 451 1216.636719 443 1209 C 446 1209.023438 448.964844 1209.414063 452 1209.699219 C 453.804688 1210 468.316406 1207.609375 462.621094 1204.597656 C 459.355469 1203 453.597656 1204.074219 450 1204 C 442.707031 1203.808594 434.65625 1202.773438 428 1199.675781 C 425.628906 1198.570313 418.203125 1195.347656 420 1191.695313 C 424.496094 1182.820313 446.214844 1188.300781 454 1186 L 454 1185 C 436 1179.703125 417.949219 1182 407 1163 C 414.625 1165.480469 422 1168.371094 430 1170 C 426.523438 1163 418.242188 1160.347656 412 1156.058594 C 408 1153.320313 407.671875 1148.703125 403.941406 1145.789063 C 396.9375 1140.316406 388.765625 1138.222656 383 1131 C 386.367188 1131.800781 389.546875 1132 393 1132 C 388.359375 1125 364.914063 1122 382 1116 C 374.757813 1109.703125 350.550781 1106 341 1107 M 1106 1114 C 1108.316406 1118 1111.683594 1118 1116 1118 C 1112 1122.648438 1089.46875 1132 1106 1132 C 1100 1140.257813 1091.445313 1140.148438 1084.246094 1146.105469 C 1080.796875 1149 1081 1153.039063 1076.992188 1155.773438 C 1070.777344 1160 1062.488281 1163.132813 1059 1170 C 1067.320313 1168.277344 1074.949219 1164.625 1083 1162 C 1068.828125 1178.222656 1054.269531 1183.085938 1033 1184 L 1033 1186 C 1038 1186.640625 1042.894531 1187 1048 1187 C 1057 1187 1079.691406 1192.574219 1060 1200 C 1050.265625 1203.53125 1033.347656 1199 1025.378906 1204.300781 C 1022.375 1206.332031 1026 1208.226563 1028 1208.65625 C 1033.371094 1209.800781 1039.546875 1209 1045 1209 C 1040.796875 1213.011719 1036.53125 1216.324219 1031 1218.300781 C 1027.957031 1219.390625 1022 1219.464844 1019.753906 1222 C 1017.351563 1224.488281 1029.519531 1231.660156 1027.792969 1237.242188 C 1026.273438 1242.164063 1020.386719 1243.027344 1016 1243 C 1004.394531 1243 992.515625 1239.453125 981 1238 C 987 1249.136719 1007 1248.015625 1018 1248 C 1022.863281 1248 1028.675781 1248.023438 1032.425781 1244.351563 C 1038 1238.808594 1031.886719 1230.078125 1036.519531 1224.183594 C 1046.621094 1211.324219 1066.328125 1209 1076.65625 1197 C 1082.5625 1190.082031 1074.910156 1187.664063 1076.613281 1181.613281 C 1077.789063 1177.421875 1084.628906 1172.554688 1087.347656 1169 C 1091.441406 1163.636719 1093.371094 1155.21875 1097.589844 1150.636719 C 1102.304688 1145.515625 1111.804688 1145.339844 1118 1143 C 1116.28125 1140.550781 1112.199219 1137.203125 1112.207031 1134.039063 C 1112.214844 1129.621094 1119.789063 1127 1123 1125.246094 C 1131.410156 1121.011719 1146 1115.773438 1149 1106 C 1135.539063 1109.214844 1119.75 1113 1106 1114 M 910 1113 L 909 1114 L 910 1113 M 855 1114 C 856.515625 1123.441406 862.636719 1118 855 1114 M 632.371094 1116.175781 C 630.933594 1117.105469 630 1122 632.726563 1120.65625 C 634.882813 1119.683594 634.890625 1114.539063 632.371094 1116.175781 M 810 1120 L 810 1125.019531 C 810.207031 1135.285156 818.691406 1125.335938 810 1120 M 677.320313 1123.175781 C 674.523438 1124.714844 673.460938 1134.050781 677.832031 1131.824219 C 681 1130.175781 681.398438 1121 677.320313 1123.175781 M 640 1128 C 639.4375 1129.800781 639.175781 1131.121094 639 1133 C 641.445313 1131.390625 641.660156 1130.414063 640 1128 M 850.9375 1130.117188 C 850 1131 851 1133 852 1132 C 852.871094 1131.074219 851.925781 1129.128906 850.9375 1130.117188 M 1107 1131 L 1106 1132 L 1107 1131 M 817.445313 1139.046875 C 813.617188 1141.621094 817.808594 1148.117188 821.398438 1145.148438 C 824.660156 1142.457031 821.390625 1136.390625 817.445313 1139.046875 M 669.46875 1140.085938 C 665.730469 1142.425781 669.804688 1148.695313 673.398438 1146 C 676.503906 1143.578125 672.910156 1138 669.46875 1140.085938 M 498 1163 C 493.898438 1154.28125 483.929688 1152.09375 475 1152.003906 C 472.628906 1152 467.410156 1151.34375 466.347656 1154.273438 C 465 1157.703125 470.832031 1159.046875 473 1159.621094 C 481.304688 1161.816406 489.429688 1163 498 1163 M 1006 1152 L 1006 1153 L 1003 1153 C 1004.246094 1152.316406 1004.546875 1152.25 1006 1152 M 801 1197 C 811.589844 1194.484375 829.507813 1179.183594 823.984375 1166.171875 C 815.371094 1146 804 1172.09375 802.425781 1181 C 801.453125 1186.378906 801 1191.539063 801 1197 M 689 1196 C 687.828125 1190.320313 686.324219 1184.703125 685.261719 1179 C 684.320313 1174 684.308594 1167.441406 681 1163.148438 C 677.429688 1158.066406 668.753906 1159.683594 666 1165.042969 C 664 1169 666.621094 1173.367188 667.945313 1177 C 671.863281 1187.726563 676.488281 1195.734375 689 1196 M 407 1162 L 406 1163 L 407 1162 M 485 1164 C 492 1172.355469 505.820313 1172.597656 516 1174.246094 C 518.28125 1174.613281 525.386719 1176.429688 526.652344 1173.414063 C 528.257813 1169.601563 520.183594 1168 518 1167.375 C 507.207031 1164.667969 496 1164 485 1164 M 1003 1170 C 995.214844 1170.0625 987.488281 1171.554688 980 1173.640625 C 977.738281 1174.269531 972.746094 1175.484375 973.753906 1179 C 974.792969 1182.382813 980.203125 1182.109375 983 1181.824219 C 990.832031 1181.023438 999.5 1177.34375 1003 1170 M 489.753906 1172.039063 C 487.355469 1174.363281 492.480469 1177.347656 494 1178.199219 C 498.496094 1180.714844 510.785156 1186.445313 515.339844 1181.410156 C 517.746094 1178.75 514.171875 1176.449219 511.980469 1175.5625 C 508.269531 1174.058594 492.980469 1169 489.753906 1172.039063 M 639 1175 C 651 1193 666.238281 1215.164063 662 1238 L 661 1238 C 658.769531 1223 650.472656 1208.058594 644.800781 1194 C 642.59375 1188.53125 637.234375 1181 639 1175 M 851 1179 C 846.65625 1200 835.699219 1219.15625 828 1239 L 827 1239 C 827 1216.722656 835.253906 1195.441406 851 1179 M 514 1187 C 517.433594 1199 546.738281 1196 557 1196 C 547.328125 1185 526.925781 1190.078125 514 1187 M 932 1195 L 932 1196 C 942.917969 1196 970.492188 1198.160156 976 1187 C 962.300781 1187.28125 944 1188.195313 932 1195 M 812 1196 L 809 1199 L 810 1200 C 811.628906 1198.484375 812 1198.144531 812 1196 M 677 1199 L 677 1200 C 678.941406 1200.402344 679 1200.402344 681 1200 C 679.191406 1198.761719 679.222656 1198.816406 677 1199 M 931 1207 C 941.925781 1206.53125 953.257813 1204 964 1202 C 955.90625 1196 935.757813 1197.347656 931 1207 M 526 1201 L 526 1202 C 536 1204 546.726563 1206.558594 557 1207 C 551.535156 1196.484375 535.570313 1200.246094 526 1201 M 794 1210 C 804.398438 1209.425781 798 1201.828125 794 1210 M 689.175781 1207 C 687.183594 1209.476563 693.46875 1211.574219 695.246094 1210 C 697.878906 1207.613281 691 1204.640625 689.175781 1207 M 707.335938 1214.78125 C 701.929688 1217.328125 712.617188 1224.828125 716.675781 1223.164063 C 722.617188 1220.730469 711.957031 1212.605469 707.335938 1214.78125 M 778.980469 1214.640625 C 774.863281 1215.210938 767.730469 1223.453125 775 1222.601563 C 779.835938 1222.046875 787.238281 1213.503906 778.980469 1214.640625 M 729.4375 1220.085938 C 725.316406 1222.511719 729.523438 1229.140625 733.5625 1226.761719 C 737.667969 1224.34375 733.355469 1217.78125 729.4375 1220.085938 M 756.320313 1220.046875 C 752.609375 1222.402344 755.886719 1228 759.761719 1226 C 764.183594 1223.546875 760.5 1217.394531 756.320313 1220.046875 M 821 1239 C 821.535156 1245.792969 823.933594 1253.46875 817.890625 1258.582031 C 810 1265.257813 797.4375 1263.171875 788 1264.285156 C 758.300781 1267.789063 727.691406 1268.476563 698 1264.425781 C 688.667969 1263.148438 659.871094 1260.636719 666.1875 1244.0625 C 666.957031 1242.050781 668.5625 1240.425781 670.71875 1241.753906 C 675 1244.394531 676.167969 1250.054688 681 1252.425781 C 687.789063 1255.746094 696.730469 1254.023438 704 1256.359375 C 733.175781 1265.738281 757.980469 1263.316406 787 1255.488281 C 794 1253.59375 802.539063 1255.460938 808.984375 1252 C 814.441406 1248.816406 815.84375 1242.152344 821 1239 M 964 1257 C 966.980469 1262.230469 972.382813 1264.394531 978 1266 L 978 1267 C 969.183594 1267.183594 960.738281 1270 952 1270.828125 C 942.972656 1271.703125 933.980469 1270.332031 925 1272 C 929.734375 1278.707031 942 1275.144531 949 1275 C 936.710938 1286 913.601563 1287.605469 898 1292 C 900.324219 1289.453125 902.28125 1287 904 1284 C 894.644531 1287.101563 887.78125 1296.21875 881 1303 C 880.476563 1299.46875 879.929688 1296.199219 877 1294 C 877 1298.386719 876.894531 1317.285156 868.199219 1314.652344 C 865.355469 1313.792969 863.269531 1309 861 1307 C 861 1310.480469 864.417969 1333.074219 853.433594 1327.003906 C 850 1325.175781 852 1315.207031 847.878906 1315.207031 C 845.375 1315.207031 836.3125 1328.6875 834 1331 C 833.992188 1328.585938 834.570313 1324.730469 832.398438 1323.027344 C 829 1320.488281 823.332031 1323.292969 820 1324.277344 C 809.617188 1327.355469 799 1329.085938 789 1333 C 792 1327.683594 794.460938 1322.171875 795 1316 C 783.34375 1319.285156 772.199219 1322.726563 761 1327.425781 C 754.59375 1330.113281 747.207031 1334.378906 740 1333.230469 C 728 1331.320313 716.613281 1322.707031 705 1319.027344 C 702.449219 1318.222656 695.21875 1315.222656 692.8125 1317.199219 C 689.59375 1320 697.425781 1330.613281 699 1333 C 688.980469 1330.15625 678.976563 1327.273438 669 1324.28125 C 665.792969 1323.316406 660.617188 1320.613281 657.320313 1322.351563 C 654.195313 1324 655.507813 1328.300781 656 1331 C 651.964844 1327.714844 646.222656 1317 642.34375 1315.347656 C 637.3125 1313.300781 637 1327.519531 637 1330 C 625 1323.640625 627 1318.683594 628 1307 C 625.441406 1308.667969 623.871094 1313 620.894531 1313.652344 C 610.476563 1316.527344 612.902344 1296.644531 613 1292 L 612 1292 C 610 1295.550781 608.832031 1299.015625 608 1303 C 601 1296.023438 594 1285.386719 584 1283 L 590 1291 C 573.371094 1288.757813 555.421875 1283.410156 540 1277 L 540 1276 C 546.960938 1276 559.644531 1278.5625 564 1272 C 545.667969 1272 528 1267.777344 510 1267 L 510 1266 C 515.578125 1264.675781 520.410156 1262.574219 524 1258 C 516.382813 1258.0625 509.191406 1260 502 1262.332031 C 500.53125 1262.824219 495.207031 1264 495.207031 1266 C 495.207031 1268.269531 501.457031 1269 503 1269.347656 C 511.984375 1271.414063 522 1272.550781 530 1277.558594 C 534.882813 1280.636719 538.640625 1285.207031 544 1287.53125 C 561 1295 580.644531 1295.707031 597 1305.453125 C 613 1315 624.722656 1333.726563 643 1339 L 643 1331 C 649.632813 1335.46875 656.402344 1339.414063 664 1342 C 663.796875 1339.410156 662.28125 1335 664 1332.617188 C 666 1330 671.445313 1332.410156 674 1333.140625 C 682.332031 1335.527344 693.21875 1341.007813 701.941406 1340.667969 C 710.628906 1340.328125 703.554688 1326.1875 701 1323 C 714.738281 1330.230469 729.832031 1340.035156 746 1339 C 760.425781 1338 773 1329.410156 786 1324 C 784 1327.167969 778.539063 1335.699219 782.605469 1339 C 785.671875 1341.441406 791.699219 1339.195313 795 1338.371094 C 805.691406 1335.71875 816.207031 1332.226563 827 1330 C 825.660156 1334 825 1337.824219 825 1342 C 832.804688 1339.34375 839.898438 1335.566406 846 1330 C 846 1345.125 862.984375 1330.71875 869 1325.570313 C 877 1318.675781 883.542969 1310.046875 893 1305 C 908.585938 1296.421875 926.796875 1294.59375 943 1287.714844 C 950.875 1284.371094 956 1277.585938 964 1274.464844 C 973.675781 1270.632813 984.652344 1270.691406 994 1266 C 986.933594 1260.1875 972.953125 1258.15625 964 1257 M 591 1291 L 590 1292 L 591 1291 M 689 1311 C 693.359375 1316.359375 701 1317.59375 707 1314 C 701.6875 1310.796875 695 1311 689 1311 M 782 1315 C 787.234375 1316 791.234375 1315.390625 796 1313 C 792 1310 784.921875 1311 782 1315 "/>
</g>
</svg>
