<?xml version="1.0" encoding="UTF-8"?>
<svg xmlns="http://www.w3.org/2000/svg" xmlns:xlink="http://www.w3.org/1999/xlink" width="1500pt" height="1500pt" viewBox="0 0 1500 1500" version="1.1">
<g id="surface1">
<path style=" stroke:none;fill-rule:nonzero;fill:rgb(0%,0%,0%);fill-opacity:1;" d="M 674 129 C 676.816406 135.3125 682.476563 140 687 145 C 663 142 638.609375 137.382813 615 133 C 617.425781 140.316406 623.695313 144.738281 629 150 C 593 140 555.574219 146.683594 520 155.117188 C 508.769531 157.777344 496.929688 159.292969 486 163 L 486 164 L 527 165 L 527 166 C 509.324219 167.542969 492.195313 178.269531 475 182.625 C 444.722656 190.292969 415.320313 190.078125 386 202.71875 C 377.226563 206.503906 365.308594 210.640625 359 218 C 369.6875 218.460938 380.296875 221 391 221 L 391 222 C 379 222.546875 366.566406 228.480469 356 233.753906 C 331 246.167969 309.523438 263.46875 287 279.574219 C 277.65625 286.253906 258.457031 294.050781 253 304 C 275 298.292969 295.75 286.0625 319 286 L 319 287 C 305 288.417969 291.882813 300.152344 280 306.695313 C 246.617188 325.070313 214.734375 346.28125 183 367.332031 C 173.210938 373.824219 163 380.03125 153 386 C 150 387.738281 143.476563 390.078125 142.921875 394.039063 C 141.65625 403.074219 168.96875 399.8125 170.230469 407.710938 C 170.875 411.757813 161.257813 419 158.898438 422 C 149.851563 434 141.609375 445.390625 131 456 C 128.816406 458.183594 121 463.8125 122.347656 467.484375 C 123.265625 470.066406 127.863281 470 130 470 C 137.367188 470.191406 144.605469 471 152 471 C 146.507813 480.640625 138.734375 490 130 496.710938 C 126.820313 499.203125 117.609375 502.589844 116.921875 507 C 116.40625 510.222656 121.960938 510.292969 124 510.574219 C 128.507813 511.199219 148.976563 508.234375 150.578125 512.433594 C 151.816406 515.675781 147.28125 520.613281 145.570313 523 C 139.441406 531.554688 132 539.179688 128 549 C 131.785156 548.691406 135.28125 547.578125 139 547 C 145.429688 545.808594 151 550.296875 148.503906 557 C 145 566.097656 135 570.058594 132 579 C 143.597656 579 154.96875 577.589844 166 574 C 166 580.066406 162.664063 600.207031 166.757813 604.382813 C 171.414063 609.132813 192 597.753906 197 595 C 197 606.339844 197.707031 617 200 628 C 203.976563 624.589844 208.464844 609.054688 213.878906 609.054688 C 217 609.054688 219 615.800781 220.46875 618 C 227.238281 629 229.191406 632.117188 226.601563 645 C 219.480469 680.394531 213 728.371094 256 743 C 240.84375 758 210.269531 786.449219 225 811 C 232.289063 797.171875 236.910156 786.050781 249 775.171875 C 280 747.15625 321.183594 736.605469 347.765625 702 C 358 688.597656 365.632813 673.597656 368.996094 657 C 378.683594 609.199219 367.304688 552.726563 418 525 C 428.378906 519.160156 439.53125 517.136719 451 515 L 451 516 C 438.507813 520 431 531.28125 430 544 C 437.695313 540.40625 441.261719 532.101563 448 527.222656 C 458.949219 519.363281 473.359375 517.367188 482.53125 507 C 485.710938 503.289063 495.46875 490.300781 488.683594 486.042969 C 483.621094 483 465.421875 494 459 495.195313 C 442 498.460938 425.367188 500 409 505.691406 C 390.804688 512.175781 375.691406 522.707031 359 532 C 371.980469 517.140625 387.925781 503.699219 398.5625 487 C 416.5 459 425.988281 426.511719 441.257813 397 C 449.316406 381.421875 465.863281 369.40625 470 352 C 450.511719 358.351563 433 372.109375 422.871094 390 C 416 402 412.785156 415.414063 405.300781 427 C 395.296875 442.484375 378.996094 456.675781 362 464 C 366.867188 459 371.195313 453.5 374 447 C 366.816406 448.078125 359.871094 451.820313 354 456 C 359.308594 448.464844 369 444.277344 373 436 C 348.621094 441.046875 335.984375 461.511719 316 474 C 330 451.117188 358.503906 425.730469 386 421 L 386 419 C 366.84375 419.054688 351.28125 427 335 436 C 345.320313 414.277344 367.878906 396.785156 387 383.140625 C 394.800781 377.574219 409 372.136719 414 364 C 383.425781 358.304688 360.800781 374.269531 335 388 C 342.90625 380 350.445313 371.410156 357.996094 363 C 359 361.804688 364.886719 356.078125 362.183594 354.257813 C 358.933594 352.066406 346.722656 364 344 366 C 327.792969 377.613281 307.65625 387 288 391 L 288 390 C 297.574219 387 303.785156 377.695313 311 371.171875 L 361 326.074219 C 369 318.742188 380.367188 313 384 302 C 371 305 359.746094 313 348 318.730469 C 329.984375 327.738281 310.890625 335 294 346 C 308.390625 325.488281 329.605469 305.136719 348 288.089844 C 351.992188 284.390625 369.261719 275 368 268.601563 C 367.597656 266.023438 360.789063 267 359 267 C 349 267.003906 339.617188 269.015625 330 271 L 330 270 C 341.535156 266.605469 351.253906 257.179688 362 251.808594 C 378.746094 243.441406 397.320313 238.019531 415 232 C 421.40625 229.8125 427.792969 227.277344 434 224.570313 C 435.636719 224 439.792969 222.503906 439.792969 220.207031 C 439.792969 217.675781 433.777344 216.5625 432 216.035156 C 423.808594 213.601563 415.484375 213 407 213 L 407 212 C 416.40625 211.804688 425.636719 208.421875 435 207.285156 C 468.96875 203.167969 498.511719 196 531 185 C 546 180 562.921875 177.417969 577 170 C 573 167.023438 567.855469 166.617188 563 166 L 563 165 C 581.390625 165 599.519531 162.230469 618 163.039063 C 638 164 657.84375 167 678 167 C 675.390625 162.699219 670.734375 160.394531 666 159 L 666 158 C 697.273438 160.472656 726.1875 169.765625 758 169 C 783.621094 168.359375 808.269531 158.003906 834 158 L 834 159 C 828.371094 160.015625 823.550781 162.777344 821 168 C 861.6875 167.160156 901.285156 162.25 942 164 L 942 165 C 936.847656 167 931.664063 168.726563 928 173 C 939.726563 178.191406 952.890625 180.382813 965 184.691406 C 1005.238281 199.011719 1045.789063 211 1089 211 L 1089 212 C 1079.503906 212.007813 1069.449219 213.226563 1061 218 C 1059 219 1053 222.222656 1054.347656 225.148438 C 1055.230469 227.234375 1060 227.441406 1062 228 C 1070.339844 230 1078.683594 231.792969 1087 234 C 1115.613281 241.027344 1145.203125 249.273438 1168 269 C 1159 266.679688 1150.277344 265.617188 1141 266.039063 C 1139 266.128906 1132.207031 266.296875 1132.207031 269.339844 C 1132.207031 272 1136.304688 274.234375 1138 275.601563 C 1143.507813 280.039063 1148.664063 284.789063 1154 289.425781 C 1172 305.167969 1191.460938 326 1206 345 C 1185 338 1164.597656 325 1145 314.742188 C 1136.253906 310.226563 1127.929688 304.46875 1118 303 C 1122.914063 315.78125 1136.890625 323.675781 1147 332.082031 C 1163.183594 345.539063 1178.179688 360.40625 1194 374.285156 C 1200 379.59375 1205.824219 386.277344 1213 390 L 1213 391 C 1197.601563 386 1181.957031 381.082031 1168 372.691406 C 1157.753906 366.53125 1149.773438 356.398438 1138 353 C 1142.5625 367.285156 1158.621094 376.105469 1167 388 C 1141.253906 373.664063 1119 364 1089 364 C 1094.464844 371.355469 1104.679688 375.402344 1112 381 C 1131.492188 395.515625 1155.332031 413.445313 1166 436 C 1150 427.179688 1134.6875 419.050781 1116 419 C 1120.582031 425.230469 1134 428.363281 1141 432.28125 C 1157.871094 442 1176 455.671875 1184 474 C 1164.957031 460.585938 1152 441.71875 1128 436 C 1132.347656 444 1142.226563 447.742188 1147 456 C 1140.738281 452 1134.375 447.75 1127 446 C 1129.175781 453.34375 1134.855469 458.726563 1139 465 C 1124.597656 453.570313 1108.21875 444.355469 1097.441406 429 C 1089.46875 417.648438 1085.960938 404 1079 392 C 1068.707031 373.78125 1050.878906 358.726563 1031 352 C 1036.171875 369.578125 1053.363281 382.757813 1061.742188 399 C 1076.21875 427.066406 1084.621094 458.074219 1101.425781 485 C 1112.359375 502.519531 1128.632813 517.328125 1143 532 C 1126.625 523.375 1111.492188 512.46875 1094 506.054688 C 1077.203125 500 1059.421875 498.613281 1042 495.195313 C 1034.957031 493.816406 1019.421875 483.578125 1013.230469 486 C 1005.28125 488.734375 1015.929688 502.75 1018.757813 505.828125 C 1028.507813 516.453125 1042.945313 519 1053.996094 527.527344 C 1060 532.328125 1063.371094 540.386719 1071 543 C 1067.957031 530.65625 1063.386719 520 1050 516 L 1050 515 C 1058.925781 515.703125 1067.792969 518.179688 1076 521.722656 C 1132.90625 546.273438 1122.429688 607.210938 1132.449219 657 C 1135.976563 674.523438 1143.402344 689.804688 1154.234375 704 C 1166.3125 719.820313 1180.367188 735.003906 1198 744.6875 C 1212.988281 753 1230.355469 756.597656 1244 767.289063 C 1257.585938 778 1264.535156 792.496094 1273 807 L 1274 807 C 1274 790.480469 1272.277344 771.402344 1261.480469 758.015625 C 1256.667969 752.046875 1249.621094 748.160156 1244 743 C 1258.734375 741.707031 1270.945313 728.140625 1275.933594 715 C 1285.382813 690.117188 1277.613281 662 1272.667969 637 C 1270.902344 628.105469 1278.238281 623.066406 1282.203125 616 C 1283.265625 614.109375 1285.292969 608.191406 1288.253906 608.78125 C 1292.953125 609.71875 1296.742188 623.65625 1301 627 C 1303.953125 617.027344 1303.914063 604.390625 1304 594 C 1310.558594 598.664063 1318.386719 601.5 1326 604 C 1328.386719 604.78125 1333.472656 607.234375 1334.683594 603.679688 C 1336.589844 598.070313 1335.207031 589 1334.960938 583 C 1334.882813 581.089844 1333.519531 576.558594 1335.644531 575.351563 C 1337.917969 574.0625 1342.628906 576.453125 1345 577 C 1352.828125 578.390625 1361 579 1369 579 C 1365.914063 570 1355.84375 565.785156 1352.230469 557 C 1349.550781 550.484375 1354.378906 545.644531 1361 546.710938 C 1364.742188 547.3125 1368.191406 548.667969 1372 549 C 1368 538.621094 1359.253906 530.367188 1353.425781 521 C 1352.1875 519.011719 1347.570313 513.394531 1349.816406 511.027344 C 1353.527344 507.125 1371.714844 510.003906 1377 510 C 1378.667969 510 1384.589844 511 1385 508.4375 C 1385.863281 504.554688 1376.46875 500.59375 1374 499 C 1364 492.105469 1355.332031 481.167969 1349 471 C 1356.347656 471 1363.671875 469.59375 1371 469.089844 C 1372.867188 469 1377.570313 469.789063 1378.824219 468 C 1381.550781 464.015625 1364.730469 451.148438 1362 448.714844 C 1351.816406 439.621094 1346.640625 427.097656 1337.816406 417 C 1335.6875 414.566406 1328.84375 409.445313 1329.730469 405.652344 C 1330.308594 403.183594 1335 402.59375 1337 402 C 1343.949219 399.789063 1350.746094 397 1358 396 C 1355.222656 390.316406 1349.261719 387.558594 1344 384.398438 C 1333.933594 378.355469 1323.914063 372.238281 1314 366 C 1283.769531 346.765625 1254.296875 326.609375 1223 309.140625 C 1210.796875 302.328125 1198.589844 292.746094 1185 289 L 1185 288 C 1207.242188 291 1228.292969 302.8125 1251 303 C 1242.527344 291.222656 1226.828125 285 1215 277 C 1191 261.007813 1167.679688 243 1141 231.578125 C 1131.664063 227.582031 1121.269531 222.46875 1111 222 L 1111 221 C 1121.40625 221 1131.695313 219.300781 1142 218 C 1137 210 1122.480469 205.066406 1114 201.601563 C 1084.4375 189.53125 1054.214844 191.097656 1024 183.117188 C 1007.855469 179 992.527344 169.441406 976 167 L 976 166 C 988.332031 165.46875 1000.632813 164 1013 164 L 1013 163 C 1002.417969 159.652344 990.832031 158.335938 980 155.628906 C 963.453125 151.488281 946 145.789063 929 145.039063 C 909.492188 144.183594 891.234375 149.601563 872 150 C 877.707031 145.019531 885 140.691406 887 133 C 865.324219 138.160156 838.316406 144 816 144 C 821.238281 139.171875 826.683594 135 829 128 C 800.796875 137.175781 773.640625 152.796875 743 149.828125 C 718.644531 147.472656 697.777344 132.203125 674 129 M 816 144 L 815 145 L 816 144 M 837 157 L 837 158 L 834 158 C 835.25 157.316406 835.546875 157.25 837 157 M 409 389 C 416.175781 385.652344 421.269531 378.425781 427 373.089844 C 438.585938 362.296875 450 351.71875 459.625 339 C 469.4375 326 476.996094 311.007813 490 300.664063 C 497.78125 294.476563 506 289.699219 515 285.246094 C 516.550781 284.46875 522.921875 282.152344 521.652344 279.503906 C 520.171875 276.40625 513 279.621094 511 280.34375 C 500.8125 284 491 288.816406 482 294.695313 C 450.742188 315.050781 416.746094 351.472656 409 389 M 1090 388 C 1085 351.0625 1047.621094 313.714844 1018 294.34375 C 1009.527344 288.800781 1000.550781 284.089844 991 280.691406 C 988.648438 280 983 277.015625 980.753906 279.050781 C 977.996094 281.496094 984.585938 284.359375 986 285 C 995 289.105469 1003.335938 294.269531 1010.996094 300.753906 C 1023.484375 311.328125 1030.996094 326.054688 1040.628906 339 C 1049.585938 351.035156 1060.222656 360.734375 1071 371.039063 C 1076.941406 376.722656 1082.46875 384.488281 1090 388 M 1181 286 L 1180 287 L 1181 286 M 1185 287 L 1185 288 L 1182 288 C 1183.246094 287.316406 1183.550781 287.25 1185 287 M 297 322 C 289 348.652344 259.828125 367.5625 241 386 C 264.707031 378.273438 284 362.507813 307 353 C 296.652344 380.285156 252.820313 396.214844 228 406.714844 C 220.960938 409.695313 210.703125 411.015625 205 416 C 241.792969 416 275.417969 405.058594 310 394 C 304.953125 410 290.757813 425.578125 281 439 C 312.695313 421.351563 336.742188 389.492188 372 378 C 363 390.734375 347.644531 398.4375 337.171875 410 C 312.234375 437.527344 300.886719 468.425781 298 505 C 309.703125 495 319.945313 484.125 335 479 C 322 497.40625 290.414063 521.175781 313 545 C 319 512 347.332031 482 381 474 C 378.664063 489.800781 366.566406 503.277344 356.578125 515 C 338 536.707031 313.996094 561.351563 310 591 C 326.703125 577.40625 343 562.53125 362 552 C 355.613281 601.4375 326.214844 644.40625 307 689 C 321 686.058594 328.4375 675.234375 340 668 C 338.304688 675.15625 334.832031 682.058594 330.511719 688 C 312.648438 712.566406 265 755.71875 240.480469 715 C 224 688 244.347656 657.667969 243.917969 630 C 243.785156 621.648438 235.65625 616.75 231.902344 610 C 226 599.496094 222.847656 586.371094 219 575 C 216 580.128906 213.796875 585.296875 209 589 C 209 578.628906 211 568.414063 211 558 L 210 558 C 207.585938 564.648438 204.523438 572.425781 199 577 L 201 565 C 193.964844 568.4375 187.511719 573.789063 180 576 C 180.800781 570.046875 182.847656 564.578125 185 559 L 180 560 C 181.765625 554.570313 183.578125 549.179688 186 544 C 180.285156 545.320313 174.851563 547.242188 169 548 C 173 539.035156 182.390625 533.382813 186 524 C 180.589844 526.53125 174.933594 529.109375 169 530 C 173.222656 512.21875 186.960938 499.695313 198 486 C 182.960938 492.171875 167.503906 498 151 498 C 165.191406 478 183.398438 463 201 446 C 183.679688 448.332031 167.21875 455.757813 150 459 C 167 434.617188 186.902344 412.5625 205 389 C 198 389 190.816406 388.378906 184 390 C 191.464844 379.488281 204.53125 375 215 368 C 240.933594 351 267.933594 333.277344 297 322 M 1316 388 L 1316 389 L 1296 389 C 1312.65625 412.644531 1334.695313 432.332031 1349 458 C 1333.378906 455 1314.535156 451.433594 1300 445 C 1306.628906 454.410156 1316.820313 460.15625 1324.960938 468.089844 C 1333.988281 477 1342 488.191406 1350 498 C 1333.746094 497.300781 1318.851563 492.175781 1304 486 C 1313.367188 501.175781 1326.335938 512.621094 1332 530 C 1325.769531 529 1319.972656 526.019531 1314 524 C 1319.242188 532.359375 1326.804688 538.691406 1332 547 C 1325.796875 547 1320.734375 545.210938 1315 543 C 1316.835938 548.640625 1318.796875 554.183594 1320 560 L 1316 559 L 1321 575 C 1314 572.289063 1307.386719 568.726563 1301 565 L 1301 577 L 1300 577 C 1296.625 570.585938 1294 562.097656 1289 557 C 1291.351563 567 1291.566406 578 1292 588 C 1289.664063 586.070313 1285.402344 578.042969 1282.183594 578.632813 C 1278.722656 579.265625 1277.808594 587.308594 1276.972656 590 C 1274.515625 598 1271.832031 606.003906 1267.300781 613 C 1264.46875 617.375 1259.597656 621.117188 1257.742188 626 C 1254.777344 633.800781 1260.46875 645.21875 1262 653 C 1265.703125 671.824219 1270.167969 695 1261.675781 713 C 1253 731.375 1233.898438 737 1216 729.125 C 1193.421875 719.265625 1165.8125 691.472656 1160 667 C 1171.375 675 1180 683.277344 1193 689 C 1187 668.554688 1174.835938 649.171875 1165.78125 630 C 1153.3125 603.605469 1143.410156 576.722656 1138 548 C 1161 559.488281 1175.539063 583.761719 1200 594 C 1187.6875 576 1176.960938 556.246094 1163.574219 539 C 1146.925781 517.550781 1127.597656 499.425781 1119 473 C 1148.320313 483 1186.296875 511.15625 1187 545 C 1213.199219 524.765625 1174.980469 493.585938 1164 478 C 1178.34375 483 1194.257813 492 1201 506 L 1202 506 C 1202 469 1186.253906 435.25 1161.574219 408.039063 C 1151.964844 397.4375 1138.269531 389.644531 1130 378 C 1163.792969 387.734375 1190.695313 419.6875 1219 439 C 1211.394531 423 1198.367188 409.722656 1190 394 C 1226.300781 402.398438 1258.882813 416 1297 416 L 1297 415 C 1270.832031 407.628906 1246.273438 395.636719 1223 381.597656 C 1212 375.042969 1199.664063 366.304688 1195 354 C 1217.875 361.457031 1236.90625 376.804688 1259 386 C 1246.296875 373.332031 1232.839844 361.675781 1221 348 C 1215.460938 341.378906 1208.589844 333.816406 1207 325 C 1246.390625 338.414063 1278 371.652344 1316 388 M 1207 345 L 1206 346 L 1207 345 M 863 366 C 881.765625 363.1875 898.332031 352.554688 918 351 C 902.363281 337.34375 873.597656 353 863 366 M 584 350 C 593.347656 355 604 354.507813 614 357.4375 C 622 360 629.464844 365.144531 638 366 C 627.65625 351.359375 600.996094 339.617188 584 350 M 616 415 C 613 409.320313 608.535156 405.375 604 401 C 613.289063 405 621.664063 410.550781 632 411 C 624.414063 400.257813 611.742188 396 602 387.480469 C 595.429688 381.761719 596.269531 374.832031 586 373 L 586 372 C 596 372 607.261719 372.320313 617 370 C 608 357.40625 592 360.5 579 364.15625 C 575.484375 365.144531 567.707031 366.808594 565.921875 370.390625 C 563.558594 375.128906 573.945313 377.457031 571 382.605469 C 568 387.820313 557 387.789063 552 388.011719 C 549.984375 388.097656 545.402344 388.101563 545.347656 391.09375 C 545.253906 396 558.726563 396.738281 562 397.398438 C 580.539063 401.136719 597.375 412.25 616 415 M 916 372 L 916 373 C 905.707031 375 907 381.734375 900.761719 386.648438 C 889.867188 395.023438 877.335938 399.167969 869 411 C 879 410.535156 887.847656 404.8125 897 401 L 897 402 C 891.359375 405 887 409.527344 884 415 C 902.902344 412.207031 920 401.023438 939 397.460938 C 942.640625 396.773438 955.238281 396.761719 956 392 C 956.589844 389 951.898438 388.4375 950 388.136719 C 945 387.34375 933.4375 387.230469 930.921875 381.777344 C 928.761719 377.09375 939 374.476563 936.246094 371 C 929.175781 362.050781 908.269531 359.410156 898 361.515625 C 894.730469 362.183594 887.605469 363.414063 886.347656 367.105469 C 885.265625 370.269531 890 370.820313 892 371 C 900 371.503906 907.925781 372 916 372 M 664 378 C 680 427.484375 666.347656 471.125 632.710938 510 C 625.914063 518 618.953125 526 611 532.5625 C 606 536.773438 598.203125 540.316406 595 546 C 650.253906 535.589844 689.855469 482 683 426 C 681.316406 410.65625 677.179688 387.730469 664 378 M 834 379 C 795.726563 444.574219 832.335938 527.152344 905 546 C 900 535.824219 885 528.0625 877 520 C 860.230469 503.304688 845.910156 484 836.859375 462 C 830 445.648438 826.457031 427.714844 828.171875 410 C 829 401.335938 837 387 834 379 M 335 388 C 334.453125 389.636719 334.636719 389.453125 333 390 C 333.546875 388.363281 333.363281 388.546875 335 388 M 1168 388 C 1169.1875 389.1875 1169.527344 389.585938 1170 391 C 1168.453125 389.738281 1168.191406 389.804688 1168 388 M 288 391 L 287 392 L 288 391 M 519 392.527344 C 505.449219 395.640625 497.566406 408.5625 489.988281 419 C 482.4375 429.402344 473.980469 439.050781 467.191406 450 C 463.53125 456 459.371094 461.738281 456.339844 468 C 455.515625 469.699219 453.667969 474.363281 457.242188 474.363281 C 462.84375 474.363281 470.246094 464 473.574219 460 C 487 444.371094 497.757813 426.554688 511.289063 411 C 515 406.660156 519.226563 402.351563 523.996094 399.105469 C 525.597656 398.011719 529.601563 396.46875 529.652344 394.105469 C 529.730469 390.699219 520.816406 392.113281 519 392.527344 M 972.378906 392.726563 C 968.804688 394.644531 985.789063 406.730469 987.910156 409 C 1002.960938 425.105469 1014 444.527344 1028.835938 461 C 1031.699219 464.210938 1039.992188 476.59375 1045.382813 474.289063 C 1047.816406 473.246094 1045.699219 469.4375 1044.945313 468 C 1041.707031 461.824219 1037.625 456 1033.996094 450 C 1024 433.722656 1010.433594 410.46875 995 399.160156 C 989.820313 395.363281 979 389.136719 972.378906 392.726563 M 604 400 L 603 401 L 604 400 M 593 517 C 602.53125 519.8125 622 512.820313 625.734375 503 C 632 486 626.246094 455.113281 615.320313 441 C 592.191406 411.128906 551 420 528 443 C 523 448 518.378906 453 513 457.179688 C 511.5 458.390625 507.515625 460.492188 507.921875 463 C 508.585938 466.808594 517.550781 472.75 520.195313 476 C 538 498.015625 556.664063 502.65625 584 502 C 591.171875 501.808594 603.191406 496.589844 609.832031 499.605469 C 613.574219 501.304688 610.90625 505 608.9375 506.824219 C 604.296875 511.441406 598.285156 513.445313 593 517 M 908 518 C 904.847656 513.699219 887 508.292969 889.347656 501.316406 C 890.265625 498.558594 894.804688 499 897 499.171875 C 904.355469 499.832031 911.675781 501.578125 919 502.574219 C 941.429688 505.628906 964.761719 498.222656 978.765625 480 C 981 477 993.585938 465.273438 993 462.152344 C 992.628906 459.367188 987.960938 457.175781 986 455.535156 C 981.355469 451.609375 977.582031 446.570313 973.574219 442.003906 C 966.796875 434.28125 957.730469 428.285156 948 425.003906 C 924.1875 417 895 425.300781 882.515625 448 C 875.679688 460.328125 875.535156 473.386719 874.960938 487 C 874.695313 493.273438 873.558594 500.503906 877.515625 506 C 883.769531 514.65625 897.933594 517.566406 908 518 M 977 456 C 967.628906 453.222656 960.832031 445.03125 952 441 C 939 434.8125 925.953125 435 912 435 C 932 419 965.648438 438 977 456 M 589 434 L 589 435 C 574.921875 435 562 434.746094 549 441 C 540.378906 445 533.5625 452 525 456 C 535.371094 429.234375 566.332031 431.074219 589 434 M 335 436 C 334.453125 437.636719 334.636719 437.453125 333 438 C 333.546875 436.363281 333.363281 436.546875 335 436 M 1168 438 C 1166.363281 437.453125 1166.546875 437.636719 1166 436 C 1167.636719 436.546875 1167.453125 436.363281 1168 438 M 570 446.476563 C 577.578125 444.777344 582.53125 456.546875 573.980469 458.332031 C 566.3125 460 561.648438 448.371094 570 446.476563 M 914 446.605469 C 921 443.609375 928 453.589844 920.773438 457.386719 C 913.703125 461.074219 906.910156 449.707031 914 446.605469 M 557 447 C 555.96875 454.664063 554.410156 461 558.96875 468 C 572.492188 489 599.941406 472.703125 600 452 C 618.820313 458.402344 613.792969 481.742188 597 486.242188 C 582.3125 490.183594 563.457031 489.179688 551 479.710938 C 536.511719 468.632813 538.8125 451.21875 557 447 M 901 450 C 899.460938 468.484375 920.769531 485.398438 936.960938 471.660156 C 944.917969 465 945 456.59375 945 447 C 964.609375 451.65625 964.179688 469.328125 949 480.210938 C 935.640625 489.789063 912.734375 491.273438 898 484.085938 C 882.34375 476.445313 890 457.761719 901 450 M 1185 474 L 1184 475 L 1185 474 M 457 539 C 469.542969 538 478.578125 530.648438 488 523 C 488 545.601563 500 573 526 573 C 532.46875 573 543 573 547 567 C 539.71875 565.496094 532.460938 563.320313 525 563 L 525 562 C 527 562 539.792969 563.226563 539.792969 560 C 539.792969 557.804688 534.464844 557 533 556.480469 C 526.191406 554.109375 520.882813 549.519531 516.328125 544 C 505.339844 530.683594 501 510 501 493 C 492.503906 497 488.414063 507.050781 482.5625 514 C 474.878906 523.117188 464.410156 530 457 539 M 960 560 C 963.359375 562.054688 967 562.679688 971 563 L 971 564 C 965.171875 564.253906 959.355469 565.695313 954 568 C 958.507813 571.359375 965.425781 572.707031 971 573 C 999 574.234375 1012.984375 549.789063 1013 524 C 1022.953125 529.671875 1031.234375 537.261719 1043 539 C 1036.78125 525.664063 1020.230469 516.449219 1011.660156 504 C 1010 501.652344 1005.34375 493 1001.597656 494.347656 C 999.257813 495.269531 999.257813 501 998.921875 503 C 997.523438 511.425781 996 520 993.304688 528 C 986.695313 547 975.257813 550.398438 960 560 M 359 532 L 358 533 L 359 532 M 652 557 C 616.582031 582.460938 586.535156 618.566406 574.425781 661 C 570.28125 675.523438 570.515625 690.21875 568.574219 705 C 566.703125 719.253906 563.574219 731.765625 557.695313 745 C 556.402344 748 552.957031 754.449219 558 755.640625 C 572.554688 759 582.480469 733 585.253906 723 C 591.519531 700.414063 592 676.648438 598 654 C 602.59375 637.359375 610.410156 622.414063 619.691406 608 C 627.433594 596 635.628906 584.324219 644.347656 573 C 647.691406 568.660156 653.210938 563 652 557 M 848 557 C 851.226563 568 860.46875 577 867 586 C 877.59375 600.230469 887.714844 615.164063 895.628906 631 C 909.894531 659.535156 908.828125 691.707031 916.628906 722 C 919.40625 732.792969 924 744.222656 933 751.320313 C 935.761719 753.484375 940.789063 757.199219 944.550781 755.382813 C 948.492188 753.476563 944.839844 746.660156 943.714844 744 C 938.515625 731.683594 934.992188 719.25 933 706 C 930.976563 690.675781 931 675.058594 927 660 C 919.246094 630.164063 900.542969 604.542969 879 583 C 869.546875 573.546875 860.289063 562.8125 848 557 M 975 562 L 975 563 L 971 563 C 972.507813 562.316406 973.3125 562.175781 975 562 M 743 652.425781 C 707 657.15625 665.785156 666.453125 649.3125 703 C 637.171875 730 644.296875 765.117188 665 786 C 677.398438 798.21875 693.933594 805.140625 709 813.308594 C 723.253906 821.035156 737.769531 833 755 830.816406 C 769.507813 829.054688 782.4375 818.410156 795 811.78125 C 816.617188 800.375 838 790.722656 850 768 C 854.171875 760.351563 856.929688 751.550781 858 743 C 866.816406 681.21875 797.390625 645.261719 743 652.425781 M 507 669 C 502.335938 688.601563 510.476563 709.214844 509.984375 729 C 509.679688 741.238281 500.40625 751.730469 501 764 C 501.851563 777 513.953125 789.585938 516.789063 803 C 522.265625 829 520.472656 856 530 881 C 535.265625 894.585938 545.546875 904 554.535156 915 C 559.558594 921.15625 563.398438 928.320313 569 934 C 581.515625 946.433594 601 948 616 956.425781 C 660.589844 982 711 1007 764 1001.828125 C 807.488281 997.675781 846.828125 976.394531 884 955.015625 C 898.867188 946.464844 918 947.191406 930.910156 934.824219 C 936.308594 929.632813 939.285156 922.601563 944.183594 917 C 955 904.464844 966.691406 894.101563 972.304688 878 C 980.707031 854 978.972656 827.734375 984.210938 803 C 987 789.722656 999 777 999.890625 764 C 1000.613281 751.46875 991.265625 740.390625 990.175781 728 C 988.492188 709 994 688.335938 994 669 C 989.414063 673 988.300781 678.695313 985.742188 684 C 978.320313 699.378906 971.78125 713.53125 975 731 C 977 741.648438 984.238281 752 983.210938 763 C 982.296875 773 972.332031 777.511719 968.417969 786 C 964.683594 794.097656 966.929688 802.558594 967 811 L 966 811 C 964.265625 791.152344 948.609375 762.292969 930 754 C 932 768.015625 941.84375 779.632813 943.710938 794 C 946 812.46875 936 829.589844 931.898438 847 C 929.261719 858 931.851563 868.128906 930.828125 879 C 928.570313 903.039063 909.261719 931 882 925.738281 C 865.40625 922.589844 853.449219 908.441406 839 900.78125 C 820.257813 891 798.601563 888 780 877.6875 C 770.742188 872.632813 759.652344 856.324219 749 856.378906 C 738.882813 856.425781 727 873.710938 718 878.6875 C 699.621094 888.78125 678.390625 892.203125 660 902.3125 C 645.886719 910.070313 634.492188 923.5625 618 926.535156 C 594.859375 930.707031 573 906.304688 570.289063 885 C 568.746094 873.167969 571.878906 860.671875 569 849 C 564.878906 831.257813 554.480469 813.808594 557.4375 795 C 559.734375 780.425781 568.707031 768.226563 572 754 C 552.808594 765.039063 536.816406 789.773438 535 812 L 534 812 C 534.695313 803.167969 536.328125 793.332031 532 785 C 528.203125 777.09375 519 772.472656 518 763 C 517 751.820313 524 741.746094 525.914063 731 C 529 713.464844 522.445313 698.261719 514.484375 683 C 511.996094 678.226563 510.871094 673 507 669 M 811 777 C 805.253906 782.011719 798.226563 786 792 790.289063 C 787.71875 793.339844 783.484375 796.441406 779 799.1875 C 775.375 801.410156 766 808 761.601563 806.210938 C 758.992188 805.203125 759.875 798.269531 759.574219 796 C 758 784.390625 757 772.65625 756.179688 761.003906 C 755.769531 756.0625 757.683594 744.3125 750.28125 743.328125 C 744.636719 742.574219 743.246094 753.300781 743 757 C 742.386719 768.324219 742 779.75 740.574219 791 C 740 794.273438 740.507813 799.820313 737.484375 802 C 728.789063 808.164063 709.898438 792.371094 703 788.203125 C 700.488281 786.683594 693.207031 784 693.207031 780.386719 C 693.207031 777.058594 710 774 713 772.03125 C 727.296875 762.824219 728.96875 738 716.816406 726.214844 C 708.226563 718 690 722.441406 690.769531 736 C 690.972656 740.558594 697.796875 745.816406 696 749.824219 C 690.40625 763.054688 669.375 758.148438 665 747 C 657 725.761719 675.859375 703.648438 693 694 C 725 675.578125 782.726563 673.34375 812 698.300781 C 822.21875 707.011719 831.367188 718.511719 833.90625 732 C 836.949219 748.175781 827 758.105469 811 753.570313 C 808.230469 752.789063 802.429688 751.617188 801.34375 748.46875 C 800.277344 745.382813 804.960938 741.109375 805.589844 738 C 807.511719 728.554688 797.257813 719 788 721.648438 C 769.800781 727.046875 768.511719 755.515625 779.519531 767.816406 C 787 776.265625 800.5 776.550781 811 777 M 1152 730 C 1154.257813 739.503906 1160.925781 749.050781 1171 751 L 1171 752 C 1155 752 1142.464844 748.023438 1128 742 C 1129.40625 755.753906 1140.488281 768.257813 1147 780 L 1148 780 C 1148.847656 775.441406 1148.703125 764.496094 1156 766 C 1168 768.101563 1173.382813 788.097656 1179 797 C 1188.441406 811.578125 1202.425781 822.5625 1213.191406 836 C 1222.3125 847.382813 1227.890625 860 1234 873 C 1218.535156 868.074219 1210.515625 851 1196 844 C 1196 874.691406 1206.800781 903.589844 1217.425781 932 C 1223 947.0625 1230.710938 962.789063 1232 979 C 1206.632813 957 1193.773438 929.445313 1177 901 L 1176 901 C 1177.914063 945.433594 1212.539063 981 1213.546875 1025 C 1213.808594 1036.585938 1208 1044.449219 1205 1055 L 1204 1055 C 1199.691406 1040 1192.238281 1022.6875 1176 1018 C 1179 1028.746094 1185 1037.476563 1186 1049 C 1180.921875 1045.363281 1176 1041.75 1170 1040 C 1172.363281 1045.675781 1176.515625 1051.605469 1176.230469 1058 C 1175.96875 1064 1171.695313 1068.738281 1169.464844 1074 C 1165.355469 1083.675781 1161.53125 1094.585938 1160 1105 L 1159 1105 C 1154.722656 1091.605469 1143 1080.679688 1137.949219 1067 C 1137.320313 1065.320313 1134.640625 1056 1131.753906 1057.347656 C 1128.390625 1059.035156 1130.492188 1067.289063 1130.871094 1070 C 1132.722656 1083.320313 1133.683594 1096.726563 1135.425781 1110 C 1140 1146 1122.472656 1188.425781 1098 1214 C 1098.53125 1201.613281 1102.648438 1189.394531 1103.828125 1177 C 1105.523438 1159.214844 1103.371094 1140.085938 1098.277344 1123 C 1096.472656 1117 1091.203125 1096.636719 1083 1096.636719 C 1078.851563 1096.636719 1077 1103 1075.691406 1106 C 1071.28125 1115.527344 1065.941406 1124.609375 1061.246094 1134 C 1040.601563 1175.320313 1027.320313 1222 1018 1267 C 1027.957031 1264.195313 1031.316406 1251.191406 1035.859375 1243 C 1045.242188 1226.085938 1054.59375 1209.308594 1063.246094 1192 C 1067.507813 1183.480469 1073.316406 1174.460938 1075 1165 L 1076 1165 C 1076 1200.425781 1071.195313 1237.085938 1050.652344 1267 C 1042.882813 1278.316406 1031 1285.441406 1023 1296 C 1036 1295 1048 1287.582031 1059 1281 C 1085.273438 1265.203125 1109.332031 1244.039063 1128.335938 1220 C 1134 1212.777344 1139 1205.15625 1143.363281 1197 C 1145.246094 1193.398438 1146.578125 1187.027344 1150 1184.636719 C 1153.261719 1182.425781 1155.925781 1188.03125 1157.515625 1190 C 1163.21875 1197.046875 1171.316406 1201.570313 1180 1204 C 1182.261719 1204.4375 1187 1206.03125 1188.636719 1203.394531 C 1190.433594 1200.421875 1187 1194.78125 1186 1192 C 1182.238281 1182.539063 1178.832031 1173 1176.800781 1163 C 1171.640625 1137.617188 1178.546875 1121.777344 1188 1099 L 1189 1099 C 1189 1140.128906 1207.625 1187 1255 1187 C 1249.171875 1178.722656 1240.964844 1172.304688 1235 1164 C 1222.949219 1147.050781 1217.199219 1127.195313 1213.390625 1107 C 1212 1099.773438 1207.460938 1090.34375 1209.433594 1083 C 1211.667969 1074.691406 1222.570313 1067.089844 1227.5625 1060 C 1236.679688 1047.042969 1239.988281 1031.644531 1240 1016 L 1241 1016 C 1241.464844 1026.8125 1243.597656 1036.082031 1241.539063 1047 C 1238.886719 1061.0625 1230.867188 1072.574219 1227 1086 C 1249 1082.695313 1257.824219 1056 1261.390625 1037 C 1269.988281 991.414063 1259.507813 933.386719 1231 896 C 1239.585938 898.71875 1246.792969 905.371094 1254 910.574219 C 1274.355469 925.273438 1288.378906 939.378906 1301 961 C 1335.941406 935.203125 1288.566406 896.773438 1271 879 C 1266.339844 874.28125 1262.175781 869.144531 1258 864 C 1272.980469 872 1304 887.8125 1318 870 C 1284.683594 858.730469 1255.648438 836.347656 1229 814.078125 C 1214.351563 802 1199 790 1187 775 C 1203.929688 779.011719 1221.882813 789.050781 1236 799.042969 C 1240 802 1248.484375 814 1253.566406 813.078125 C 1257 812.507813 1255.617188 806.15625 1255.191406 804 C 1253.300781 794.40625 1248.242188 786.671875 1241 780.175781 C 1225 766 1204.453125 758 1186 747.6875 C 1174.902344 741.578125 1164.539063 733 1152 730 M 312 773 C 290.21875 804.039063 254.746094 828 224 849.277344 C 215.550781 855.15625 206.476563 860.605469 197 864.664063 C 193.714844 866.070313 186.867188 866.617188 185.175781 870.234375 C 182.496094 876 196.988281 877 200 877 C 214.84375 877.324219 230.980469 871.558594 243 863 C 239.546875 869.003906 234.882813 874.117188 230 879 C 212 897 163 934.734375 200 961 C 209.929688 930.539063 239.910156 909.113281 268 896 C 247 941 229.226563 985.1875 238.804688 1036 C 242.632813 1056.320313 251.558594 1080.667969 274 1086 C 270.273438 1070.3125 259.992188 1057.382813 257.4375 1041 C 256 1032.449219 259.632813 1024.445313 260 1016 L 261 1016 C 261 1030.628906 263.414063 1045.78125 272 1058 C 277.796875 1066.144531 289.53125 1072.691406 291.59375 1083 C 292.992188 1090.003906 288.78125 1099.109375 287.398438 1106 C 283.527344 1125.335938 278.882813 1144.441406 267.640625 1161 C 261.273438 1170.378906 251.726563 1177.085938 246 1187 C 252.613281 1187 258.660156 1186.570313 265 1184.480469 C 302.785156 1172.03125 307.648438 1133.691406 312 1100 C 316 1104.132813 318.214844 1110.613281 320.394531 1116 C 333 1147.117188 317.824219 1174.773438 310 1205 C 319.972656 1204.792969 330.378906 1201.289063 337.960938 1194.675781 C 340.597656 1192.371094 345.699219 1183 349.789063 1184.207031 C 353.621094 1185.457031 355.566406 1194.695313 357.257813 1198 C 362.839844 1209 370.492188 1218.738281 378.429688 1228 C 402.589844 1256.203125 439.597656 1288.257813 477 1296 C 470.691406 1282.46875 453.476563 1274.773438 445 1262 C 427.347656 1235.03125 424 1196.503906 424 1165 L 425 1165 C 436.234375 1192 451.328125 1218.015625 464.742188 1244 C 467.875 1250.070313 470.539063 1256.550781 474.761719 1262 C 475.757813 1263.261719 478.851563 1267.414063 480.933594 1265.824219 C 482.867188 1264.347656 480.742188 1258 480.414063 1256 C 478.671875 1245.609375 476.601563 1235.175781 473.847656 1225 C 464.960938 1192.136719 452.464844 1160.433594 437.246094 1130 C 432.65625 1120.820313 428.246094 1105.257813 420.609375 1098.335938 C 416.8125 1095 413.792969 1099 411.699219 1102.003906 C 407 1109.003906 403.894531 1117.046875 401.34375 1125 C 392 1154 394.828125 1186.210938 403 1215 C 357.464844 1168.496094 362.695313 1103.292969 374 1045 C 366 1048.796875 363.308594 1058.15625 360.667969 1066 C 356 1079.59375 351.492188 1097.503906 340 1107 C 339 1096.273438 334.785156 1085 330.574219 1075 C 328.34375 1069.789063 324.453125 1064.804688 324 1059 C 323.695313 1052.054688 328 1046.40625 330 1040 C 324.4375 1041.636719 320 1045.210938 315 1048 C 315.488281 1036.785156 322 1028.390625 325 1018 C 309.355469 1022.507813 299.648438 1039.617188 297 1055 L 296 1055 C 292 1041.675781 286.761719 1032.566406 288.171875 1018 C 292.390625 974.398438 325.875 939.09375 326 894 C 322.296875 896.78125 321.292969 902.773438 319.601563 907 C 316 916 311.851563 924.695313 306.988281 933 C 296 951.609375 279.324219 964.335938 264 979 C 269.253906 953.613281 279.523438 928.488281 290.308594 905 C 299.296875 885.417969 310.9375 865.132813 311 843 C 298.652344 847.203125 288.566406 855.519531 279 864.171875 C 276.339844 866.574219 270.554688 874.625 266.332031 873.457031 C 263.289063 872.617188 265 868 265.699219 866 C 268 859.339844 272.328125 853.140625 277 848 C 296.4375 827.113281 312 803.492188 329.484375 781 C 334.542969 774.484375 345.867188 755.144531 352.515625 771 C 353.339844 773 353.6875 775 354 777 C 362 772.433594 370.644531 752.035156 372 743 C 357.898438 747 345.847656 751 331 751 C 333.1875 749.136719 351 737.144531 346.183594 733.316406 C 342 730.128906 327.984375 738.5625 324 740.28125 C 301.996094 749.765625 279.261719 760 262 777.003906 C 255.300781 783.65625 249.253906 791.476563 247.46875 801 C 247 802.632813 245.808594 814.199219 249.617188 812.652344 C 253.417969 811.117188 256.28125 803.105469 259.175781 800.089844 C 265.53125 793.457031 273.785156 788.261719 282 784.257813 C 291.660156 779.550781 302.222656 777.335938 312 773 M 353 832 C 356.570313 829.382813 358.503906 824.113281 360 820 L 361 820 C 356 841.457031 350.496094 858.648438 355.425781 881 C 356.84375 887.441406 358 897.160156 364 901 C 364 881.3125 367.363281 868.238281 374 850 L 375 850 C 375 871.722656 377.292969 893.378906 379 915 L 380 915 C 383.398438 907.824219 387.296875 900.433594 390 893 L 391 893 C 391 911.675781 392.78125 930.28125 391.960938 949 C 391.21875 966 388 983.011719 388 1000 C 393.800781 996.199219 396 986.777344 399.695313 981 C 407.5625 968.628906 418 956.328125 431 949 C 420 973.550781 417 1005.589844 418.910156 1032 C 419.753906 1044.027344 420.339844 1057.3125 431 1065 C 430.667969 1057.296875 428 1049.714844 428 1042 C 428 1022.574219 433 1002.566406 438.425781 984 C 441.871094 972 445.574219 959.683594 450.203125 948 C 453.203125 940.433594 457.78125 933.121094 459 925 L 460 925 C 456.359375 971.148438 450.8125 1021.496094 475 1064 L 476 1064 C 476 1048.25 477.835938 1032.683594 478.910156 1017 C 479.617188 1006.695313 479 995.671875 483.347656 986 C 488.589844 974.207031 499.863281 964.550781 508.285156 955 C 517.53125 944.515625 527.460938 934.242188 537.28125 924.285156 C 539.9375 921.59375 547.496094 916 545.628906 911.320313 C 543.382813 905.796875 530 912.695313 527 914.464844 C 510.214844 924.179688 499.417969 939.542969 486 953 C 490.203125 938.40625 500.507813 923.425781 510.300781 912 C 514.890625 906.644531 524.679688 900.535156 525.664063 893.058594 C 526.613281 885.832031 515.78125 890.816406 513 892.476563 C 503 898.382813 495.421875 907.4375 491 918 L 490 918 C 489.363281 910 489.75 903.058594 490.871094 895 C 491 893.261719 492.589844 888.503906 490.933594 887.160156 C 488.695313 885.347656 484.84375 889.714844 483.617188 891.09375 C 480 895.039063 477.789063 904.242188 473 906.519531 C 468 909 457.304688 901.753906 460.257813 896.011719 C 462.414063 891.8125 466.402344 889.605469 468 885 C 456.523438 886 447.945313 890.707031 438 896 C 446.773438 877.484375 455.558594 859.027344 465.308594 841 C 470.386719 831.613281 478 821.636719 480 811 C 470 818 463.871094 828.621094 456.574219 838 C 442 856.710938 425.789063 877 415 898 L 414 898 C 413.945313 878.683594 405.710938 856 409.339844 837 C 410.183594 832.59375 422.464844 820.5625 419.839844 817.027344 C 416.964844 813.164063 397.289063 818.183594 393 819 C 390.585938 819.460938 385.890625 821 384.707031 817.679688 C 383.214844 813.628906 387.902344 806.664063 389.398438 803 C 394 791.554688 400.980469 779.46875 402 767 C 398 768.261719 395 770.324219 392 773 C 393.65625 768.707031 395.324219 764.570313 396 760 C 392.335938 762 389.289063 764.523438 386 767 C 386.351563 758.804688 389.335938 751.109375 390 743 C 379.207031 746.175781 373.851563 755.78125 368.578125 765 C 356.917969 785.386719 350 808.527344 353 832 M 1111 743 C 1112 751.613281 1115 759.164063 1115 768 C 1111.792969 764.796875 1108.707031 761.609375 1105 759 C 1105.394531 763.503906 1106.984375 767.617188 1108 772 C 1105.671875 770.816406 1103.488281 769.777344 1101 769 C 1102 782 1108.398438 795 1112.691406 807 C 1113.753906 810 1117.894531 817.101563 1115.394531 820.085938 C 1113.789063 822 1109.914063 820.324219 1107.996094 820 C 1101.769531 818.472656 1095.351563 817.511719 1089 817 C 1087.191406 816.757813 1081.644531 815.054688 1080.828125 817.605469 C 1079 823.234375 1090.964844 832.65625 1091.8125 839 C 1094.324219 857.808594 1088 879 1088 898 C 1062.3125 872.097656 1047.355469 836 1021 810 C 1020.792969 819.414063 1029.6875 830 1034 838 C 1044.359375 856.4375 1056.238281 876.019531 1063 896 C 1056 892.328125 1049.78125 888 1042 886.285156 C 1040.355469 886 1035.453125 884.371094 1034.175781 886.066406 C 1032.4375 888.371094 1037.683594 892.582031 1038.890625 894 C 1043.796875 899.761719 1040 903.417969 1034 906 C 1032.488281 906.582031 1030.722656 907.320313 1029 907.019531 C 1024.96875 906.285156 1023.816406 901.078125 1022 898 C 1019.234375 893 1015.191406 888.695313 1010 886 L 1010 918 L 1009 918 C 1006.683594 908 996.765625 898 988 893 C 985.570313 891.480469 975 886 974.828125 892.148438 C 974.46875 899.039063 985.609375 906.210938 989.535156 911 C 999.863281 923.59375 1008.75 940 1015 955 C 1001.511719 941.511719 989.597656 925.347656 973 915.453125 C 970.199219 913.785156 956.65625 905.304688 954.738281 911.320313 C 953.210938 916.097656 961.550781 923 964.285156 926 C 975.90625 939.183594 989 951 1000.828125 964 C 1025 991 1024 1028.445313 1024 1063 C 1034 1057.789063 1035.210938 1039 1037.425781 1029 C 1042.496094 1006.171875 1045.988281 983.46875 1044.960938 960 C 1044.460938 948.601563 1041 937.421875 1041 926 L 1042 926 C 1045 946.648438 1056.699219 967 1062.574219 987 C 1070.472656 1014 1071.1875 1037.339844 1070 1065 C 1080.835938 1057.183594 1082 1042.386719 1082 1030 C 1082 1002.515625 1071.558594 976 1071 949 C 1081.523438 958.691406 1092.203125 968.023438 1100.25 980 C 1104.234375 986 1106.453125 997 1112 1001 C 1111.949219 982.6875 1108.839844 964.296875 1108 946 C 1107.265625 928.300781 1109 910.6875 1109 893 L 1110 893 C 1111.859375 899.457031 1116 911.585938 1122 915 C 1122 893.5625 1126 872.542969 1126 851 L 1127 851 C 1134.402344 868.785156 1137 882 1137 901 L 1138 901 C 1151 880.171875 1146.324219 843.492188 1140 821 C 1142.820313 824.433594 1144.769531 828.179688 1147 832 C 1151.222656 825 1148.34375 814.632813 1147 807 C 1143.601563 786 1134.320313 750 1111 743 M 1109 772 L 1108 773 L 1109 772 M 392 773 L 391 774 L 392 773 M 1187 774 L 1186 775 L 1187 774 M 362 819 L 361 820 L 362 819 M 1126 850 L 1125 851 L 1126 850 M 269 895 L 268 896 L 269 895 M 731 916.285156 C 745 914.632813 759.902344 916 774 916 C 792.851563 916 811.683594 914 829 922.757813 C 834.460938 925.527344 853.257813 934.542969 854 941.039063 C 854.816406 947 841 953.597656 837 956.328125 C 815.949219 970.441406 792.746094 974.785156 768 977.714844 C 735.636719 981.546875 699.679688 977.585938 671 961.28125 C 665.621094 958.222656 646.207031 949.449219 646.207031 942.320313 C 646.207031 938.027344 658.730469 931.019531 662 928.722656 C 683.636719 913.507813 706.269531 919.203125 731 916.285156 M 1011 918 L 1010 919 L 1011 918 M 506 1018 C 508.355469 1014.617188 506.867188 1011 507 1007 C 507.570313 998.609375 507.96875 989.394531 512.351563 982 C 522 965.566406 539.996094 967.636719 554 958.296875 C 557.324219 956.078125 570.371094 944.683594 566.917969 940 C 564.789063 937 558.898438 938.589844 556 939 C 545.609375 940.472656 536.527344 946.757813 527 951 C 513.828125 956.507813 498.179688 964.578125 494.53125 980 C 491.964844 991 500.300781 1009 506 1018 M 993 1018 C 997.71875 1013.640625 999.285156 1008 1001.195313 1002 C 1003 996 1006.273438 989.605469 1005.890625 983 C 1004.5625 960 975.316406 953.066406 959 944.308594 C 955.34375 942.34375 933.710938 933 932.449219 941.277344 C 931.785156 945.683594 937.191406 950.289063 940 953 C 950.308594 962.484375 965.210938 962.710938 976 971.46875 C 992.171875 984.59375 989.570313 1000 993 1018 M 486 953 C 485.316406 954.578125 485.195313 954.777344 484 956 C 484.691406 954.609375 484.984375 954.140625 486 953 M 1017 957 C 1015.363281 956.453125 1015.546875 956.636719 1015 955 C 1016.636719 955.546875 1016.453125 955.363281 1017 957 M 541 1064 C 540.996094 1048.648438 537.675781 1033.421875 539.171875 1018 C 539.878906 1010.660156 546.511719 1003.503906 546.429688 997 C 546.375 992.550781 542.441406 988.410156 540 985 C 523.8125 997.027344 527.625 1029.011719 532 1046 C 533.742188 1052 535.609375 1060.46875 541 1064 M 960 1065 C 974.296875 1052.742188 974.871094 1023 971.335938 1006 C 970.550781 1002.25 967.464844 985.761719 961.984375 986.632813 C 957.371094 987.363281 954.675781 995.070313 955.40625 999 C 956.671875 1005.789063 961.773438 1011 962.710938 1018 C 964.808594 1034 960.324219 1049.25 960 1065 M 561 1053 C 561 1112.15625 592 1156.417969 622.425781 1205 C 639.222656 1232 664.664063 1258.558594 657 1292 C 678.390625 1286.59375 674.949219 1257.394531 671 1241 C 694.453125 1263.445313 716.339844 1284.257813 730.742188 1314 C 739.980469 1333.078125 743.289063 1353.21875 750 1373 L 751 1373 C 757.84375 1319 788.777344 1276.132813 829 1241 C 824.753906 1258.242188 824.410156 1286.171875 845 1293 C 843.480469 1287.691406 840.394531 1282.6875 840.601563 1277 C 840.96875 1267 846.855469 1257.546875 851.71875 1249 C 860.378906 1233.777344 869.433594 1218.671875 879 1204 C 908.410156 1159 940.964844 1109 941 1053 C 933.625 1056.628906 932 1066.085938 928.742188 1073 C 920.941406 1089.125 912.390625 1105.476563 901.847656 1120 C 870.523438 1163.152344 827 1200.023438 788 1236 C 797.660156 1194.246094 816.535156 1155.511719 820 1112 L 819 1112 C 806.203125 1141 796 1171.046875 783 1200 C 772 1225 757.234375 1250.550781 750 1277 L 749 1277 C 740 1239.015625 717 1201.703125 701.574219 1166 C 695.378906 1151.75 686.371094 1135.6875 685 1120 L 683 1120 C 683 1162.222656 702.695313 1197.269531 713 1237 C 677.46875 1201.46875 635.855469 1171.445313 605.476563 1131 C 593.585938 1115.171875 583.867188 1097.792969 575.257813 1080 C 570.9375 1071.066406 568.898438 1059.546875 561 1053 M 454 1054 C 451.570313 1063 452.550781 1073.699219 451.910156 1083 C 448 1139 467.34375 1194.171875 500.628906 1239 C 510 1251.785156 519.894531 1268.769531 533 1278 C 539.847656 1249.242188 519.597656 1224.761719 505.425781 1202 C 489 1175.671875 476 1146.109375 468.476563 1116 C 464.9375 1102 463.640625 1087.285156 460.800781 1073 C 459.484375 1066.375 458.972656 1059 454 1054 M 1046 1054 C 1033.496094 1076 1036.390625 1104.285156 1028.484375 1128 C 1016.21875 1164.796875 996.445313 1194.769531 977.425781 1228 C 971.351563 1238.617188 966.929688 1250.710938 966 1263 C 965.890625 1266 965 1274.433594 969.265625 1275.078125 C 973.507813 1275.730469 977 1267.734375 979 1265 C 987.515625 1253.652344 997.371094 1243.492188 1005.574219 1232 C 1032.722656 1194 1046 1148.050781 1049 1102 C 1049.898438 1090 1053 1064.269531 1046 1054 M 644 1117 C 641.792969 1107.347656 636.914063 1099.265625 636.183594 1089 C 635.730469 1082.582031 638.480469 1076.347656 639 1070 C 624 1079.796875 625.597656 1112.574219 644 1117 M 870 1075 C 870 1090.25 866.757813 1096.761719 860 1110 C 873.722656 1107.820313 883.804688 1083.445313 870 1075 M 527 1126 C 526.207031 1144.460938 523.226563 1161.773438 528.425781 1180 C 534.984375 1203 550 1223.480469 550.960938 1248 C 551.8125 1270 537.546875 1285.136719 533 1305 C 539.859375 1303.578125 546 1301.179688 552 1297.25 C 594.292969 1268.804688 567.449219 1216.6875 552 1182 C 576.753906 1198.375 596.496094 1224.613281 615.574219 1247 C 624.171875 1257.09375 632.683594 1272.257813 645 1278 C 644.957031 1262 636.371094 1247.449219 628.398438 1234 C 610.742188 1204.222656 589 1176.648438 563 1153.714844 C 551.917969 1144 541.769531 1130.261719 527 1126 M 856 1279 C 869 1272.523438 876 1258.699219 885 1248 C 904.703125 1225 923.359375 1202.054688 947 1183 C 934.472656 1219.808594 907.847656 1260.664063 944 1294 C 950.46875 1300 959.195313 1304.230469 968 1305 C 961.21875 1287.519531 949.878906 1271.324219 949 1252 C 947.910156 1226.070313 965.5 1205.078125 971.84375 1181 C 976.660156 1162.714844 971 1144.457031 971 1126 C 955.277344 1130.539063 944 1146 933 1157 C 910 1180 889.808594 1205.15625 873.199219 1233 C 864.871094 1247 856.34375 1262.332031 856 1279 M 1077 1164 L 1076 1165 L 1077 1164 M 948 1182 L 947 1183 L 948 1182 M 404 1215 L 403 1216 L 404 1215 "/>
</g>
</svg>
