<?xml version="1.0" encoding="UTF-8"?>
<svg xmlns="http://www.w3.org/2000/svg" xmlns:xlink="http://www.w3.org/1999/xlink" width="1500pt" height="1500pt" viewBox="0 0 1500 1500" version="1.1">
<g id="surface1">
<path style=" stroke:none;fill-rule:nonzero;fill:rgb(0%,0%,0%);fill-opacity:1;" d="M 363 274 C 369.582031 271.214844 374.714844 265.765625 381 262.3125 C 393.734375 255.3125 408.40625 251.070313 423 251 C 425.429688 251 442.945313 249.691406 442.945313 252.804688 C 442.945313 255.199219 435.558594 255.355469 434 255.574219 C 425 256.824219 416.652344 257.21875 412 266 C 419 263.394531 424 259.128906 432 261 L 432 262 C 403.386719 274.347656 380.964844 305.09375 349 309.699219 C 338.214844 311.253906 330 307.398438 320 305 C 323.996094 313.390625 334.335938 316.785156 343 318 C 364.394531 321 383.609375 306.210938 404 302 C 393.753906 312.160156 381.5 317.550781 369 324.308594 C 346.238281 336.617188 323 348.261719 301 361.8125 C 293 366.628906 285.410156 371.824219 278 377.296875 C 275.847656 379 271 382.03125 272.660156 385.398438 C 274.613281 389.707031 290.660156 383.375 294 382.421875 C 316.320313 376.050781 335.925781 362.355469 358 356 L 358 357 C 340.230469 365 313.242188 383.023438 303.347656 400 C 296.355469 412.003906 298 428.496094 287.699219 438.535156 C 272.648438 453.011719 248.324219 460.058594 231 472.027344 C 208.527344 487.546875 195 510.632813 177.570313 531 C 170.859375 539 159.355469 544.582031 154 553 C 184.996094 546.585938 200 517 219.285156 495 C 235.230469 476.824219 259.710938 461.277344 282 452 C 266.808594 467.191406 247 476.023438 232 491.039063 C 219 504 211.46875 521.496094 198.910156 535 C 186.964844 548 168.476563 562.820313 163 580 C 174.582031 573.304688 183.574219 560.425781 193 551 C 210.777344 533.222656 225.617188 512 244 495.09375 C 251.472656 488.222656 260.84375 484 269 478 C 257.492188 511.796875 224.921875 533.550781 212.46875 566 C 202.414063 592.191406 210.859375 628.496094 216 655 L 217 655 C 217 638.421875 222.292969 622.410156 223 606 L 224 606 C 224 628.148438 223.886719 650.0625 227.273438 672 C 230 690.6875 236.222656 710 234.910156 729 C 234.238281 738.742188 230.171875 747.605469 228 757 C 238.683594 750.003906 242.902344 724 243 712 L 244 712 C 244 732.019531 235.757813 744.800781 230 763 C 238 759.199219 242.199219 750 245.394531 742 C 253.671875 721.511719 251.214844 699 258 678 C 262.167969 683.632813 262.308594 690.238281 263.269531 697 C 266.539063 720 258.84375 742.601563 243.710938 760 C 237 767.5625 226 773.636719 221 782 C 255.675781 768.335938 274 733 274 697 L 275 697 C 281.589844 715.109375 284 728.578125 284 748 C 291.53125 743.269531 295.671875 735 299 727 L 300 727 C 299.984375 752 295.78125 779.28125 281.277344 800 C 275.238281 808.628906 266.472656 814.050781 260 822 C 283 818 300.460938 790 308.1875 770 C 322.28125 733.589844 314.929688 699.304688 314 662 C 313.527344 642.054688 317.789063 622.101563 323 603 L 324 603 C 324 630 322.570313 657.464844 328.425781 684 C 332.972656 704.621094 345.703125 722.410156 344 744 L 343 744 C 342.683594 729.066406 330.929688 715.3125 325 702 L 324 702 C 324 726 318.378906 747.828125 312.882813 771 C 307.644531 793.101563 302 815.421875 292.214844 836 C 285.347656 850.289063 273.988281 862 267 876 C 277.875 871 289.871094 856 292 844 L 293 844 C 291 859.453125 283 872.472656 276 886 C 283.996094 883 288.527344 875.066406 292.796875 868 C 303.273438 850.648438 314.21875 826.417969 316 806 L 317 806 C 314.335938 839.761719 316.738281 887.449219 358 897 C 352.9375 885 341.957031 876.777344 337.75 864 C 328.332031 835.390625 342.726563 812 345 784 L 346 784 C 345.371094 798.601563 343.523438 811.34375 346.261719 826 C 350 846.796875 361.550781 876.207031 386 878.824219 C 400.480469 880.378906 413 870.261719 424 862.128906 C 447.839844 844.28125 476.894531 829.8125 493.304688 804 C 503.402344 788.117188 507.929688 769 512.847656 751 C 515.746094 740.414063 518.519531 729.042969 516.675781 718 C 515.394531 710.328125 510.472656 704 507.425781 697 C 501.546875 683.503906 496 669.828125 491 656 C 479 623.035156 475 588 466.628906 554 C 462.5625 537.738281 452.683594 522.550781 450.300781 506 C 446.992188 483.042969 460.199219 462.433594 465.847656 441 C 472.75 414.78125 469.941406 387.113281 477.425781 361 C 482.90625 342 497.558594 327 503 308 L 504 308 C 503.621094 326.210938 489.804688 340.144531 484.722656 357 C 476.289063 385 474.910156 414.496094 468.996094 443 C 464.746094 463.480469 456 481.609375 457 503 C 457.761719 519.378906 466.992188 534.285156 470.765625 550 C 479.667969 587.105469 485.871094 625.054688 499 661 C 506 680.324219 522 699 522.960938 720 C 524 745.472656 513 780.597656 501.21875 803 C 496.6875 811.546875 488.90625 818.234375 485 827 C 497.847656 823.292969 507.433594 812.035156 521 810 C 518.238281 815.320313 510.289063 818.183594 508.347656 823.050781 C 507.390625 825.445313 516.507813 828.578125 517.167969 832.015625 C 518 837 510.941406 842 509 846 C 513.890625 846.621094 535.214844 848.089844 536.367188 854.011719 C 537.546875 860.042969 517.523438 861 514 861 C 517 865.011719 523.46875 865.652344 528 867.449219 C 538.730469 871.707031 548.988281 877.128906 560 880.65625 C 565.539063 882.429688 573.398438 883 577.566406 887.394531 C 582 892.164063 578 900.429688 577.289063 906 C 575.738281 918 576.472656 931.414063 579.640625 943 C 582.828125 954.652344 591.472656 962.261719 597.894531 972 C 601.207031 977.019531 602.53125 983.246094 606.527344 987.816406 C 610.355469 992.1875 617.542969 994.332031 619.800781 1000.003906 C 621.625 1004.59375 618 1013.15625 617.421875 1018 C 614.917969 1035 608.328125 1051.109375 596.824219 1064 C 590 1071.535156 578.695313 1078.230469 574 1087 C 595.835938 1078.527344 616.546875 1061.640625 627.960938 1041 C 632.753906 1032.328125 626.34375 1010 637 1007.320313 C 644.796875 1005.433594 653.257813 1011.34375 661 1012 C 675.183594 1013 692 1005.023438 704.910156 1014.109375 C 716 1022 716.257813 1038.832031 718.246094 1051 C 724.949219 1092.019531 717.460938 1128.214844 688 1159 C 691.21875 1145.453125 699.53125 1132.695313 705 1120 C 715.53125 1096.472656 720.601563 1065.207031 706 1042 C 703.65625 1054.414063 703.953125 1066.664063 700.277344 1079 C 691 1109.757813 673.984375 1137 655.71875 1163 C 639.761719 1185.800781 623.898438 1206.621094 602 1224 C 604.6875 1205.8125 617.476563 1189.015625 625.742188 1173 C 642.851563 1140 661.367188 1100 663 1062 L 662 1062 C 647.554688 1086.492188 632.199219 1111.257813 609 1128.523438 C 588 1144.113281 550.402344 1157.617188 546 1187 L 545 1187 C 545 1157.496094 549.992188 1128.320313 552.828125 1099 C 554.734375 1079.304688 554.511719 1059.679688 557 1040 C 549 1046 546 1066.6875 543 1076 C 534.808594 1100.570313 525.226563 1124.222656 508 1144 C 511.5625 1128.597656 518.847656 1114.054688 523.65625 1099 C 533.347656 1068.660156 541 1036 541 1004 L 540 1004 C 530.1875 1033 520.933594 1060.4375 507.246094 1088 C 504.894531 1092.734375 496.773438 1117 488.558594 1109.523438 C 479.863281 1101.695313 486.78125 1081.433594 488.789063 1072 C 495.917969 1038.480469 508.714844 1003.5 509 969 L 507 969 C 504.179688 1003.539063 476.726563 1030.472656 469 1063 L 468 1063 C 474.480469 1034.730469 485 1007.488281 491 979 C 471.46875 984.480469 477.324219 1018.378906 457 1022.5625 C 443 1025.410156 440.238281 998.652344 442.785156 990 C 446.789063 976.386719 459.488281 968 466.546875 956 C 477.515625 937.601563 482.996094 912.269531 483 891 L 482 891 C 473.324219 918.125 460 947.054688 436 964 C 442.496094 947.035156 456.328125 928.824219 459 911 C 445.621094 917 432.515625 933.171875 431 948 L 430 948 C 431.25 932.707031 440.277344 920.667969 446 907 C 443.699219 907.398438 442 908 440 909 C 443.890625 903.476563 449.777344 899.539063 452 893 C 436.292969 896.730469 425.949219 909.050781 415 920 C 415.515625 913.679688 417.386719 907.472656 420.628906 902 C 441.566406 866.613281 486.679688 877 519 887.027344 C 529.566406 890.308594 539.960938 894.121094 551 895.566406 C 554.386719 896.011719 561 896 561 891 C 561 883.226563 539.5 881.769531 534 879.546875 C 507.484375 869 480.871094 847.507813 450 852.214844 C 435.226563 854.464844 425.625 870.433594 414 878.25 C 403.460938 885.339844 391.792969 888.769531 382 897.289063 C 354 921.554688 334 964 334 1001 L 335 1001 C 339.929688 975.574219 352.933594 953.445313 371 935 C 366.417969 958.632813 363.546875 980.558594 371.355469 1004 C 376.367188 1019.046875 385.90625 1032.113281 391.574219 1047 C 397.867188 1063.527344 402.691406 1087.300781 414 1101 C 421 1084.152344 414.539063 1063.671875 414.863281 1046 C 415 1035.800781 420.382813 1027.574219 423 1018 L 424 1018 C 424 1032 427.3125 1045.644531 431 1059 C 432.171875 1062.59375 433.257813 1070.75 436 1073.246094 C 438.355469 1075.171875 441.539063 1071.398438 442.90625 1070 C 448 1064.546875 452.90625 1057.257813 455 1050 L 456 1050 C 452 1076.394531 433.917969 1098.636719 432 1126 C 431.550781 1134.074219 435.820313 1140.398438 443.984375 1134.425781 C 451.273438 1129.101563 458.289063 1118.558594 461 1110 L 462 1110 C 459.835938 1121.664063 460 1133.328125 462 1145 C 464.175781 1157 468 1165.777344 465 1178 C 464.265625 1181.367188 458.460938 1198.449219 463.601563 1200.183594 C 467.726563 1201.570313 478.25 1193.675781 482 1191.742188 C 502 1181.332031 517.996094 1169.003906 534 1153 C 530 1170.175781 523.960938 1186.332031 521.84375 1204 C 521 1210.085938 519.207031 1219.210938 522.316406 1225 C 528.882813 1237 546.636719 1220.015625 552 1215 C 554 1213.082031 557.828125 1208 560.894531 1210.546875 C 567.503906 1216.1875 571 1229.777344 576.660156 1237 C 593.28125 1258.222656 613.941406 1275.8125 631.714844 1296 C 639.285156 1304.601563 646.558594 1320 656 1326 C 651.378906 1306.023438 638.183594 1288.503906 626.65625 1272 C 623.292969 1267.1875 612.585938 1258.445313 613.96875 1252.003906 C 614.859375 1248 619.996094 1244.71875 623 1242.128906 C 631.632813 1234.695313 640 1227.089844 649 1220.003906 C 680.167969 1195.289063 719.183594 1177 736.691406 1139 C 751.441406 1107.03125 746.574219 1068.816406 737.289063 1036 C 734 1024.632813 730.6875 1013.3125 727.28125 1002 C 725.8125 997.132813 722.671875 991.199219 723.484375 986 C 724 982.398438 726.636719 979.554688 729 977 C 734.722656 971 754.179688 947 760.890625 962.003906 C 773 989.386719 767 1025.167969 767 1054 C 789.214844 1043.546875 779.804688 1004.753906 779 986 L 780 986 C 781.269531 994.585938 785.332031 1002.566406 787.347656 1011 C 787.894531 1013.296875 788.175781 1018.589844 791.234375 1019.078125 C 794.898438 1019.664063 796.96875 1013.585938 797.777344 1011 C 799.675781 1005 794.859375 983.675781 801 982.042969 C 804.921875 981.027344 810.1875 983.460938 814 984.195313 C 821.71875 985.683594 829.773438 986 837 989.328125 C 844.347656 992.796875 849.972656 998.667969 858 1001 C 873 1005 892.59375 1001.085938 903.675781 989.699219 C 908 985.140625 910 978.789063 914.328125 974.183594 C 918.496094 969.742188 924.492188 967.570313 928.480469 963 C 940 949.3125 942.714844 930.191406 941.960938 913 C 941.640625 905.734375 936.367188 890.175781 941.4375 884.328125 C 947.484375 877.351563 959.800781 876.207031 968 873 C 989.6875 864.511719 1016.371094 854.46875 1027 832 C 1022.621094 832.09375 1018.992188 833 1015 834.78125 C 1012.996094 835.710938 1011 836.710938 1009 837.570313 C 1003.90625 839.722656 995 840 1003 833.609375 C 1008.890625 829 1016.816406 824.816406 1024 822.785156 C 1026.328125 822.125 1031.242188 822.332031 1031 819 C 1030.492188 810 1017.582031 799 1013.308594 791 C 1002.402344 770.753906 994 743.152344 997.429688 720 C 1000.851563 696.109375 1015.394531 676 1022.28125 653 C 1031.667969 621.828125 1034.222656 589.046875 1044.195313 558 C 1051.6875 534.667969 1066.402344 515.730469 1063.828125 490 C 1061.660156 468.339844 1048 449.148438 1043.425781 428 C 1038.351563 405.003906 1041.886719 379.203125 1034.640625 357 C 1030.9375 345.660156 1021.472656 339.726563 1015.46875 330 C 1010 321.386719 1010 311.796875 1010 302 L 1011 302 C 1013.898438 323.519531 1032 332.523438 1039.546875 351 C 1048 372 1039.582031 396.148438 1044 418 C 1050 447.660156 1073.925781 475.046875 1070.828125 506 C 1068.945313 524.820313 1055.753906 540.613281 1049.4375 558 C 1038.960938 586.832031 1037.960938 618.570313 1029.574219 648 C 1024.179688 667 1013.34375 683.332031 1007.722656 702 C 1002 720.695313 1003 740.285156 1008 759 C 1019.203125 799.375 1049.914063 828.34375 1081 854.246094 C 1091 862.582031 1101.460938 872.558594 1114 877 C 1143.625 887.152344 1161.527344 857.058594 1168.972656 833 C 1172 822.800781 1174.910156 811.714844 1175 801 L 1176 801 C 1176 827.339844 1178 853.605469 1178 880 L 1179 880 C 1185.613281 856.527344 1195.996094 831.609375 1196 807 L 1197 807 C 1201.179688 838.03125 1219.535156 886.199219 1255 891 L 1255 890 C 1236.414063 879.035156 1226.210938 863.726563 1218 844 C 1220.847656 846.695313 1223.273438 848.734375 1227 850 C 1210 819.484375 1203.6875 790.175781 1197.75 756 C 1194.9375 739.816406 1191 723.5 1191 707 L 1190 707 C 1183 718.609375 1173 731.054688 1173 745 L 1172 745 C 1170 730.300781 1177 719.308594 1182.1875 706 C 1187 693.496094 1190 680.296875 1191.714844 667 C 1193.40625 653.386719 1193 639.699219 1193 626 C 1193 618.765625 1191.800781 610.648438 1195 604 C 1208.902344 640.101563 1198 678.148438 1197 715 C 1196.390625 745 1205.898438 777.628906 1224.804688 801 C 1232.441406 810.4375 1242.78125 818.304688 1254 823 C 1248.433594 810 1234 801.648438 1226.875 789 C 1216.242188 770.128906 1218 746 1218 725 L 1219 725 C 1219.910156 734.066406 1225.601563 744.082031 1234 748 C 1234 729.609375 1238.925781 714.617188 1243 697 L 1244 697 C 1244 731.390625 1260.613281 773.519531 1297 784 C 1289.648438 774.394531 1278.628906 767.71875 1271 758 C 1253.511719 735.660156 1249 705.660156 1259 679 C 1263.605469 685.226563 1263.4375 692.585938 1264.425781 700 C 1266.464844 715.289063 1266.710938 731.601563 1272.871094 746 C 1275.730469 752.675781 1279.191406 759.796875 1286 763 C 1280.609375 744.285156 1274 730.214844 1274 710 L 1275 710 C 1275 722.175781 1276.722656 747.613281 1288 755 C 1285.335938 745.609375 1282 736 1282 726 C 1282 705.726563 1288.65625 686.03125 1290.835938 666 C 1293.496094 641.484375 1292 617.550781 1292 593 L 1293 593 C 1295.265625 602.542969 1302 610.359375 1303.902344 620 C 1307 636.460938 1301 653.660156 1299 670 C 1302 667.457031 1302.207031 662.800781 1303 659 C 1305.613281 648.753906 1307.570313 638.441406 1309 628 C 1312 605.273438 1311.730469 581.300781 1302 560 C 1295.304688 544.832031 1283 532.742188 1274 519 C 1265.53125 506.210938 1259.902344 491.484375 1255 477 C 1274.761719 490.335938 1289.734375 507.71875 1305.910156 525 C 1317.199219 537.058594 1330.660156 550.292969 1347 555 C 1338.761719 543.304688 1326 536 1316 526 C 1304.738281 514.554688 1298 499.578125 1286.960938 488 C 1275.472656 476 1260.652344 468 1249 456 C 1236.648438 443.167969 1228.695313 426.320313 1222 410 C 1237.621094 422 1245.328125 440.617188 1258.175781 455 C 1270.203125 468.472656 1286.988281 476.640625 1298 491 C 1311.175781 508 1323.570313 532.488281 1347 536 C 1341.585938 528.472656 1332.734375 524.578125 1326.4375 517.828125 C 1315.664063 506.28125 1310 491 1299.710938 479 C 1290 468.042969 1276.828125 461.070313 1267.4375 450 C 1253.195313 433.199219 1242.410156 407.164063 1222 397 L 1222 396 C 1238 403.667969 1245.824219 422.304688 1262 430 C 1248.265625 393.765625 1206.425781 375.730469 1175 358.691406 C 1164.769531 353.144531 1155.523438 344.683594 1145 340 L 1145 339 C 1156.523438 341.640625 1167 345 1179 345 C 1161.898438 322.652344 1126.585938 319.476563 1110 296 C 1118.609375 296.394531 1126.21875 301.371094 1134 304.71875 C 1147.179688 310.390625 1161.425781 316 1176 316 C 1185 316 1196.734375 314 1201 305 C 1191.28125 306.671875 1183.210938 310.171875 1173 308.699219 C 1150.757813 305.496094 1133.953125 286.234375 1114 277.3125 C 1096.964844 269.695313 1076.675781 267.421875 1059 261 L 1059 260 C 1078.375 260 1091.8125 256.507813 1110 265 C 1104.1875 252.804688 1084.96875 251 1073 250 L 1073 249 C 1091 250.421875 1108.820313 249.800781 1126 256.429688 C 1136.519531 260.484375 1144.292969 270 1155 273 C 1145.578125 256.695313 1126.621094 249.203125 1109 245.601563 C 1075.523438 238.757813 1038.359375 246 1006 235.25 C 982 227.390625 962.558594 210 938 203.152344 C 921.5625 198.652344 904.605469 197.21875 888 193.574219 C 869 189.425781 850.4375 182.773438 831 181.324219 C 822.371094 180.679688 813.695313 183.546875 805 183 C 795 182.179688 786 176.078125 776 176.078125 C 766 176.078125 756.855469 181 747 181 C 735.703125 181.113281 724.558594 172.058594 714 173.1875 C 706 174.042969 702.785156 184.386719 694 185.699219 C 683.421875 187.277344 672.632813 185.289063 662 187.082031 C 624 193.457031 584 201.820313 548 215.054688 C 534 220.171875 521.496094 227.609375 508 233.6875 C 490.980469 241.355469 471.175781 239.570313 453 240.015625 C 436.664063 240.414063 419.847656 243 404 247 C 388.21875 250.816406 370.613281 258.714844 363 274 M 828 194 C 822.4375 202 815 208.5 809 216 C 821 212 831.988281 205.269531 845 205 L 845 206 C 826.921875 212.164063 810 228.359375 805 247 C 819 234.8125 835.605469 224.808594 854 221 L 854 222 C 837.285156 234.007813 822.847656 249.199219 804 258 L 804 259 C 824 263.351563 842.722656 238 861 233 L 861 234 C 839.976563 248.300781 825 270 810 290 C 815.972656 286.046875 820.921875 280.800781 827 277 C 825.214844 287.023438 816.570313 295.453125 817 306 C 821.625 297.5625 825.976563 290.292969 835 286 C 829.753906 302.128906 827.246094 319 822 335 C 832.636719 326.335938 840 310.011719 853 305 C 850.753906 322.679688 847.300781 342.296875 841 359 C 858.875 346.144531 862.941406 321.796875 887 316.039063 C 905.90625 311.515625 911.445313 327 921.667969 339 C 925.296875 343.140625 931.433594 345.257813 934.355469 350.039063 C 936.742188 354 934 357.65625 938 361.074219 C 952.917969 373.785156 973.765625 373.507813 980 395 C 972.632813 391.332031 967 385.007813 960 381 C 949.5625 374.796875 936.980469 371.199219 928 362.699219 C 922.71875 357.535156 919.191406 349.03125 914.515625 343 C 908.359375 335.0625 901.410156 320.121094 889 324 C 876.1875 327.8125 865.800781 341.042969 863.464844 354 C 862.320313 360.351563 865.265625 377.105469 855.980469 378.578125 C 835.289063 382 832 350 832 337 L 831 337 C 825.984375 354.675781 817.769531 371.140625 819 390 C 820.398438 408.652344 830.6875 425.601563 833.5625 444 C 835.476563 456.273438 828.777344 469.5 835.367188 481 C 843.300781 495 862.574219 488.335938 872.472656 501.003906 C 876.925781 506.703125 878.871094 513.734375 882.3125 520 C 886.707031 528.003906 892.847656 534.613281 896.691406 543 C 903.363281 557.5625 907.597656 573.28125 916 587 C 928.65625 607.398438 950.667969 619.28125 963 639 C 946.210938 631.753906 922.972656 615.777344 915 599 L 914 599 C 916.519531 610 921.238281 624.109375 930 631.472656 C 937.492188 637.628906 947.226563 639.40625 953.671875 647.015625 C 962 657 964.742188 672.40625 965.675781 685 C 966.609375 697.601563 957.65625 707.125 947 712.214844 C 943.804688 713.742188 937.816406 717.097656 934.515625 714.355469 C 931 711.472656 931 704.078125 929.964844 700 C 925.871094 686.039063 923 672.59375 923 658 L 922 658 C 920.863281 662 919.601563 672.015625 914.789063 673.246094 C 910.390625 674.378906 907.71875 668.042969 906.308594 665 C 901.6875 655.023438 898.667969 644.070313 900.300781 633 C 901.492188 625 909 616.261719 907.171875 608 C 904.984375 599 896.195313 593.714844 891.613281 586 C 887.363281 579 888 570 888 562 L 887 562 C 885 570.300781 880.519531 578.246094 882.527344 587 C 884.960938 597.59375 894 605 895.699219 616 C 897.390625 627.734375 893.835938 639.355469 896.285156 651 C 898.914063 663.488281 908.960938 670.636719 912.558594 682 C 921 709 920.996094 740 921 768 C 921 783.789063 923.730469 799.8125 917.546875 815 C 912 828.421875 900.363281 834.71875 887 828 C 895 839.421875 904.171875 836.710938 916 834 C 916 859.503906 914.445313 887.769531 910.726563 913 C 908.9375 925.167969 904.632813 937 903 949 C 947.53125 931.449219 921.65625 876.679688 929.210938 841 C 931.429688 830.519531 933.386719 819 937.453125 809 C 938.933594 805.386719 941.316406 800.523438 945.855469 800.378906 C 950.558594 800.226563 947.804688 806 946.640625 808 C 940.277344 819.441406 938.167969 833.328125 935 846 C 926.804688 880.75 957.949219 946 904 956.195313 C 897.695313 957.402344 890.382813 957.589844 884 956.816406 C 869.257813 955.027344 858.925781 943.015625 851.859375 931 C 839 909.25 832.738281 885 814 867.039063 C 807.925781 861.242188 800.664063 856.316406 793 853 C 785.5 849.484375 776 847.339844 771.480469 840 C 764.691406 829.261719 767.171875 814.476563 770.429688 803 C 771.683594 798.578125 773.632813 792.183594 779 791.425781 C 790 790 790.976563 811.027344 796.226563 817 C 803.898438 825.621094 812.828125 816.164063 820.890625 822.515625 C 827.199219 827.484375 823.25 834.632813 825.742188 841 C 828.394531 847.742188 836.824219 849.246094 843 851 C 838 841.054688 842.890625 829.039063 835.46875 820.09375 C 830.726563 814.378906 823.289063 811.628906 816 812.089844 C 811.359375 812.386719 803 815.054688 799.660156 810.582031 C 796.980469 807.15625 805.378906 803.070313 803 797 C 811.867188 796.816406 819.359375 793.53125 823 785 C 816.636719 787.335938 811.644531 787.28125 805 787 L 805 786 C 812.4375 783.46875 817.472656 779.511719 823 774 C 817.277344 774.722656 811.773438 775 806 775 L 806 773 C 823.617188 770.359375 838.757813 753.53125 845.6875 738 C 848.96875 730.644531 849.832031 723.144531 854 716 C 850.792969 716.570313 848 717.773438 845 719 C 850.300781 706.710938 861.710938 697.792969 863.699219 684 C 868.777344 648.78125 831.859375 608.519531 797 607 C 798.21875 603.140625 800.222656 599.636719 802 596 C 796.886719 598.417969 792.585938 601.660156 787 603 C 787.90625 600.820313 793.851563 591 790.445313 589.347656 C 788.261719 588.285156 779.964844 596.8125 777 597.773438 C 768.417969 600.5625 758 598.476563 750 595 C 753.1875 599.324219 757.351563 602.351563 762 605 L 762 606 C 756.167969 604.613281 750.933594 601.3125 745 600.324219 C 731 598 721 599.625 708 592 C 712.535156 598.4375 718.332031 603.785156 726 606 L 726 607 C 716.59375 607 707.335938 607.179688 698 606 C 700.816406 608.601563 703.671875 611 706 614 C 681.324219 627.738281 652 657 659.503906 688 C 662.445313 700.367188 672 708 677 719 L 667 715 C 671.191406 721.800781 671.53125 729.652344 675.613281 736 C 680.523438 743.640625 688.285156 748.746094 693.566406 756 C 697 761 700.410156 769.339844 703 775 L 697 773 C 698.582031 776.386719 701.617188 780.117188 701.5625 784 C 701.472656 790.480469 691 797.382813 701 801 C 696.199219 808.6875 695.730469 815.335938 692 823 C 688.46875 830.273438 679.960938 839 688 846 C 688.84375 836.410156 695.84375 830 700.546875 822 C 708.855469 808 709 791.066406 726 784 L 726 785 C 713.441406 793.578125 716.726563 800 711.851563 812 C 707.691406 822.25 693.257813 836 713 841 C 711.40625 833.640625 715.652344 828.734375 717.78125 822 C 720.59375 813.105469 719.582031 802.808594 725.789063 795.183594 C 730.28125 789.667969 740.464844 785.257813 746.609375 790.652344 C 756.226563 799.09375 757 829.675781 750.773438 840 C 746 847.8125 736.800781 849.53125 729 853 C 719.65625 857 711.1875 862.742188 704 870.039063 C 675.644531 899.285156 672.738281 963.710938 619 956.710938 C 613.832031 956.035156 608.660156 954.527344 604 952.191406 C 569.40625 935 586.621094 891.609375 586.980469 863 C 587 855.324219 585.214844 847.40625 583.371094 840 C 580.300781 827.648438 577 816.539063 571.828125 805 C 570.707031 802.53125 569.753906 798.007813 574 798.464844 C 585.171875 799.648438 586.609375 825 588.628906 833 C 591.746094 845.542969 593.800781 858.023438 592.910156 871 C 591.1875 896.15625 581.878906 919.820313 602 940 C 600.820313 935.105469 600 930.035156 600 925 L 601 925 C 602.933594 933.066406 608.277344 940.226563 615 945 C 606.496094 929 609.726563 910.46875 608.960938 893 C 608 873.5 604 854.628906 604 835 L 605 835 C 605.230469 846.234375 609.511719 857 611 868 L 612 868 C 612 861.617188 608.875 843.375 613.601563 838.742188 C 615.917969 836.476563 620 837.050781 623 836.035156 C 628.871094 834 633.464844 830.003906 637 825 C 624.972656 831.144531 607.414063 831.183594 602 816 C 599 807.25 600 797.105469 600 788 C 600 768.761719 598 745.09375 605 727 C 599.242188 726 602.648438 720.148438 603.574219 716 C 606 705.136719 605.925781 694 607.925781 683 C 609.777344 673 620 666.171875 623.480469 656 C 627.527344 643.578125 623.621094 630.691406 625.289063 618 C 626.828125 606.296875 636.695313 598.304688 638.671875 587 C 640.429688 577 634.226563 568.390625 632 559 L 631 559 C 631.738281 568.335938 633.746094 578.335938 628.929688 587 C 624.554688 595 614.246094 600.476563 613.253906 610 C 612.488281 617.324219 617.976563 624.242188 619.957031 631 C 622.996094 641.367188 620.195313 663.539063 610.671875 670.378906 C 603.484375 675.539063 600.382813 660.386719 600 656 L 598 656 C 599.851563 670.71875 595.59375 685 591.882813 699 C 590.792969 703.15625 590.808594 711.277344 587.296875 714.167969 C 584.265625 716.660156 579 714 576 712.570313 C 566 708.335938 555.832031 700.773438 555.460938 689 C 555 676.269531 560.757813 653.019531 570 644.105469 C 576.4375 638 585.820313 636 591.472656 629 C 597.800781 621.144531 600.9375 610.414063 604 601 L 603 601 C 595 617.746094 571.949219 631.511719 556 640 C 565 624.160156 581.945313 615 593.382813 601 C 605.839844 585.8125 612 567.328125 620.808594 550 C 627 537.472656 635.597656 527.523438 640 514 L 641 514 C 639 523.023438 636.488281 531.492188 633 540 C 643.753906 527.5625 643.363281 511.308594 652.636719 499.042969 C 660.925781 488.085938 677.28125 493.679688 684.996094 481 C 691.851563 469.726563 685.65625 453.527344 687.289063 441 C 689.578125 423.4375 699 407.800781 700.828125 390 C 701.9375 378.554688 698.550781 366.757813 695 356 C 692.949219 349.785156 691.617188 341.777344 687 337 C 688.410156 349.632813 683.574219 381.722656 664 378.578125 C 654.824219 377.09375 656.652344 358.453125 655.699219 352 C 653.847656 339.472656 642.753906 328.046875 631 324 C 619.515625 320 612.941406 332.53125 606.996094 340 C 601.515625 347 598.453125 356.746094 592.773438 362.816406 C 584.722656 371.414063 571 375.257813 561 380.792969 C 554.1875 384.507813 548.703125 390.144531 542 394 C 545 374 569.746094 372 582.875 361.230469 C 587.546875 357.421875 583 353.363281 586.359375 349.09375 C 589.539063 345 594.953125 342.710938 598.535156 338.824219 C 604.347656 332.527344 607.941406 323.714844 615 318.648438 C 628 309.320313 645.675781 320 654.710938 330.015625 C 662.773438 339.054688 668 352 678 359 C 674.632813 341.644531 667.363281 322.574219 667 305 C 679.949219 311.628906 686.191406 326.683594 698 335 C 692 319.796875 688.761719 302 685 286 C 692.714844 290.003906 697.242188 297.742188 703 304 C 699.3125 295.144531 694.421875 286.621094 693 277 C 698.683594 280.554688 703.316406 285.445313 709 289 C 693.261719 269.167969 678.808594 249 658 234 L 658 233 C 676.59375 238.367188 694 263.550781 715 259 C 699 246 678.414063 239.621094 666 222 C 683.652344 225.652344 698.367188 236.046875 713 246 C 706.328125 226.746094 689.507813 216.105469 673 206 L 673 205 C 684.90625 205.097656 697.738281 210.160156 708 216 C 703.902344 209.804688 698.328125 204.683594 695 198 C 705.65625 197.773438 710.914063 187.753906 720 187.148438 C 728.378906 186.589844 735.710938 192.558594 744 193 C 755.230469 193.503906 765.792969 188.753906 777 189.015625 C 786.691406 189.238281 795.375 194.414063 805 195.558594 C 812.527344 196.449219 820.421875 194.0625 828 194 M 764 541 C 761 528.414063 755.878906 517.335938 757.171875 504 C 759 483.402344 771 465.382813 773.710938 445 C 776.773438 421.433594 760.660156 401.097656 763.175781 378 C 764 369.136719 770 361.429688 772.652344 353 C 776.628906 340.316406 777.820313 327 780.882813 314 C 783.308594 303.78125 788 293.535156 788.910156 283 C 790.410156 262.550781 775 261.230469 766.367188 246 C 761.476563 237.402344 765 225.429688 765 216 C 761.257813 218.453125 759.976563 222.820313 758.722656 227 C 752.710938 247.039063 765.730469 254.390625 772.519531 271 C 775.386719 278.019531 775.539063 286.542969 774.828125 294 C 773 312.300781 772 330.828125 764.714844 348 C 760.40625 358 748.894531 366.234375 747.214844 377 C 745 390.230469 753 401.503906 755.539063 414 C 758.253906 428.152344 755.585938 442 753.246094 456 C 749.246094 480.003906 740.574219 523.707031 764 541 M 517 265 C 532.820313 269.089844 543.589844 260 550.21875 246 C 552.820313 240.507813 557 226.207031 565.683594 228.363281 C 571.480469 229.820313 564.902344 244 563.570313 247 C 557 262 531.351563 283.269531 517 265 M 996 266 L 996 267 C 990.957031 270.324219 985.574219 272.710938 980 275 C 984 277.035156 988.507813 278.046875 991.894531 281.214844 C 1003.308594 292 997.660156 307.140625 995 320 L 994 320 C 994 310.433594 995.636719 299.609375 990.636719 291 C 987.183594 285.050781 975.25 279.191406 978 272 C 964.402344 266.722656 959.347656 260.019531 956 246 C 955.46875 243.175781 951.320313 230.589844 957 230.753906 C 966.859375 231.019531 964.601563 249 966.597656 255 C 971.414063 269.472656 983.746094 268.527344 996 266 M 510 330 C 514.671875 315.648438 522.535156 301.160156 516.535156 286 C 514 279.628906 508.796875 275.109375 506 269 C 533.96875 275.703125 536.953125 319.558594 510 330 M 809 290 L 810 291 L 809 290 M 504.667969 306.667969 C 504.722656 306.722656 504.777344 307.777344 504.332031 307.332031 C 504.277344 307.277344 504.222656 306.222656 504.667969 306.667969 M 410 311 C 399 349.117188 361 372.722656 335 399 C 324.835938 409.277344 316.476563 426.378906 302 431 C 304.289063 419.191406 307 406.746094 314.527344 397 C 326.941406 381 347.734375 372.535156 361.984375 358 C 378.875 340.765625 387 321.71875 410 311 M 443 326 C 434.371094 356 398.507813 368.550781 394 402 L 395 402 C 403.902344 380.761719 432.507813 373 453 367 C 450.742188 374.800781 447.933594 383.066406 441.90625 388.816406 C 431.765625 398.484375 416.964844 401 407 411.015625 C 390.507813 428 387 455.503906 360 459 L 360 458 C 384.195313 446.488281 383.800781 411.683594 389 389 C 371.34375 407.03125 356 430.347656 329 434 C 335.511719 422.734375 347.171875 413.828125 355.71875 404 C 379.640625 376.496094 408.484375 340.367188 443 326 M 383 328 C 372.894531 349.265625 352.398438 354.269531 332 361 C 322.214844 364.230469 312.25 368.617188 302 370 C 309.617188 362.257813 320.566406 358 330 352.769531 C 346.824219 343.617188 364 332.367188 383 328 M 1188 331 C 1189.640625 367 1232.734375 375.589844 1255 395.183594 C 1276.511719 414.113281 1275.921875 443.46875 1294.183594 464 C 1303.203125 474.136719 1316.789063 479.222656 1330 481 L 1330 480 C 1318.515625 473.296875 1306.890625 468.492188 1299 457 C 1286.828125 439 1287 415.398438 1273.332031 398 C 1259.4375 380.425781 1235.785156 374.734375 1218 362.277344 C 1205.5625 353.570313 1199.304688 340 1188 331 M 1193 435 C 1169.574219 433 1143.714844 410.535156 1134 390 L 1133 390 C 1137.414063 412.761719 1135.964844 447 1161 458 L 1161 459 C 1133 456.773438 1131.292969 430 1114.960938 413.003906 C 1105.457031 403.132813 1092.226563 400.207031 1082 391.671875 C 1074.628906 385.511719 1071 377 1068 368 C 1089 375 1116.382813 381.714844 1126 404 L 1127 404 C 1123 378.023438 1097 365.648438 1089 342 C 1098.425781 343.414063 1106.339844 349.734375 1114 355.027344 C 1135 369.597656 1150.792969 389.433594 1168 408 C 1176 416.617188 1187.535156 424.464844 1193 435 M 359 355 L 358 356 L 359 355 M 528 439 C 533.46875 410.800781 541.945313 392.597656 572 386.210938 C 584 383.640625 597.378906 383.5 609 388.207031 C 613.621094 390.082031 620 394 618.664063 400 C 616.726563 408.175781 604.203125 400.300781 600 398.605469 C 566.824219 385.21875 553 428.140625 528 439 M 992 439 C 965 426.195313 953 383.367188 917 400.253906 C 913.300781 402 903.492188 406 902.425781 399 C 901.597656 393.507813 907.824219 390 912 388.257813 C 922.671875 384 934.796875 383.636719 946 385.613281 C 956.175781 387.414063 968 390.25 975.984375 397.214844 C 985.46875 405.496094 990.925781 426.71875 992 439 M 389 388 L 390 389 L 389 388 M 1222 395 L 1222 396 C 1220.421875 395.316406 1220.222656 395.195313 1219 394 L 1222 395 M 611 479 C 614.464844 479 633.40625 476.585938 631.167969 484.609375 C 629.816406 489.464844 609.339844 487 605 487.425781 C 584.90625 490.0625 556.949219 486.621094 545 468 C 541.648438 462.507813 541 456.226563 540 450 L 541 450 C 546.207031 465.265625 560.59375 480 577 482.675781 C 596.582031 486 621.320313 468 623.816406 448 C 626.269531 428.332031 607.578125 409.6875 588 411.089844 C 574 412.082031 560.488281 421.714844 553 433 C 552.328125 428.109375 557.628906 423.269531 561 420.175781 C 571 411 584.261719 405.515625 598 407.183594 C 622.597656 410.167969 631.765625 438.308594 624.300781 459 C 621.457031 467 615.691406 472.3125 611 479 M 969 434 L 968 434 C 960.480469 422 946.535156 412 932 411.09375 C 915.425781 410.074219 894.320313 426.378906 895.378906 444 C 898.214844 491.15625 965.28125 494.234375 978 451 L 979 451 C 977.632813 482.367188 944 488 919 488 C 911.261719 488 903.699219 487.234375 896 487 C 893.660156 487 889.402344 487.058594 888.921875 484 C 887.863281 477.007813 905.257813 479 909 479 C 895.625 463.640625 884.335938 438.574219 899.679688 420.089844 C 917.847656 398.207031 961 406.679688 969 434 M 438 414 C 432 432.214844 409.773438 441.199219 398.722656 457 C 383 479.25 380.441406 507 376.578125 533 C 375 542.640625 373.714844 552.289063 372.914063 562 C 372.769531 563.753906 372.433594 571 369.191406 569.652344 C 365.390625 568.214844 363.808594 560.398438 362.667969 557 C 358.289063 544 357.238281 530.535156 359.613281 517 C 367.335938 473.019531 390.265625 424 438 414 M 1148 570 L 1147 570 C 1147 548.710938 1140.859375 529.683594 1136.804688 509 C 1133.734375 493.347656 1132.503906 477 1123.933594 463 C 1118.738281 454.578125 1112.554688 446 1104.996094 439.4375 C 1095.953125 431.71875 1084.972656 426.402344 1082 414 C 1093.433594 417.121094 1105.800781 421.660156 1115 429.324219 C 1149 457.730469 1176.3125 530.125 1148 570 M 678 421 C 677.257813 438.320313 671.832031 454.28125 668 471 L 667 471 C 667 455.796875 668 433.34375 678 421 M 576 427 C 582.617188 420.371094 601.804688 419.183594 605.824219 430 C 608 436.242188 598 435 595 434 C 592.609375 433.105469 590.328125 432 588 431.011719 C 584 429.390625 580 428.367188 576 427 M 844 422 C 846 438 852.988281 452.574219 853 469 L 852 469 C 850.21875 455.789063 838.699219 435 844 422 M 944 427 L 932 431 C 929.679688 431.765625 927.351563 432.476563 925 433.140625 C 922.40625 434 913.1875 436.71875 914 431 C 915.847656 419 938.195313 420.355469 944 427 M 639 425 C 640.726563 438.375 643.792969 451.597656 645.574219 465 C 646.628906 473 646.769531 481 639 485 C 646.53125 466.515625 625.863281 444 639 425 M 882 425 C 882 434.019531 884.730469 443 883.828125 452 C 882.636719 464 877.632813 472.789063 880 485 C 874.503906 482.125 874 476.75 874 471 C 873.960938 458.410156 875.246094 435.75 882 425 M 575 430.777344 C 579.496094 430.445313 582.902344 436.464844 576.980469 436.742188 C 572.605469 437 569.515625 431.191406 575 430.777344 M 941.207031 431.644531 C 943.886719 430.605469 950.652344 434.414063 946.621094 436.386719 C 943.410156 438 936.488281 433.46875 941.207031 431.644531 M 958 433 C 960.429688 436.683594 963 440.542969 963.785156 445 C 968.367188 475.28125 911.273438 479.707031 911 447 C 926.441406 452.617188 941.894531 465.273438 953.855469 446 C 956.398438 442 956.171875 437.238281 958 433 M 563 434 C 563.289063 447.65625 575.820313 459.738281 590 456.472656 C 597.390625 454.769531 603 449 610 446 C 604.96875 466.367188 581.84375 479.3125 564 462.816406 C 556.320313 455.65625 552.457031 440.441406 563 434 M 425 572 L 427 572 C 427 562.734375 427.714844 554 430.4375 545 C 431.246094 542.347656 433 536.515625 436.910156 538.175781 C 444.449219 541.378906 441.570313 557.714844 442.171875 564 C 442.769531 570.304688 442.78125 576.820313 444.234375 583 C 448 599.078125 462.390625 626.050781 445 639 C 445 621.335938 440.9375 606.027344 437 589 L 436 589 C 440 640.21875 431 691.695313 417.425781 741 C 413.324219 755.753906 409.261719 782.558594 394 790 C 396.632813 776.023438 400.671875 762.542969 405 749 C 391.191406 763.105469 383.699219 783.347656 364 792 C 372.824219 766.085938 393.355469 745.484375 403.550781 720 C 422.296875 673.132813 423 627.46875 423 578 L 421 578 C 420.363281 592.636719 414.335938 611.382813 407 624 L 406 624 C 400.917969 614 402.65625 603 401.910156 592 C 399.707031 559.808594 406.824219 532.011719 414 501 C 403.640625 508.359375 398.773438 522 396.210938 534 C 390.636719 560.179688 393.996094 586.585938 394 613 C 384.835938 606 384 592.679688 382.71875 582 C 378.863281 552.308594 383 509.148438 401.792969 485 C 408.378906 476.464844 410.707031 464.796875 418.183594 457.105469 C 420.761719 454.453125 425.710938 450.820313 429.683594 452.617188 C 434.660156 455 432.300781 476.121094 431.828125 481 C 430.222656 497.609375 423.761719 513.269531 422.171875 530 C 420.84375 544 424.886719 558.078125 425 572 M 1125 612 C 1125 585.714844 1128.992188 559 1122.371094 533 C 1119.449219 521.589844 1114.890625 509.113281 1105 502 C 1118.285156 532 1117 561.238281 1117 593 C 1117 598 1119.800781 621 1112.710938 622.078125 C 1108.980469 622.730469 1106.964844 614.441406 1106 612 C 1101.925781 601 1099.707031 590.332031 1097 579 L 1096 579 C 1096 623.632813 1095.464844 669.664063 1111.8125 712 C 1118.433594 729.15625 1127.222656 745.476563 1137 761 C 1143.199219 770.703125 1152 780.386719 1154 792 C 1135.171875 783.042969 1127 764.394531 1114 750 C 1116.582031 763.3125 1123.40625 776.429688 1124 790 C 1109 779 1103.695313 753.066406 1099.375 736 C 1087 687.246094 1085.421875 639.695313 1082 590 L 1081 590 C 1079.65625 607 1073 623 1073 640 C 1052.949219 623.386719 1075.476563 588.726563 1075.984375 568 C 1076 561.292969 1074.566406 542.757813 1081.214844 538.753906 C 1085 536.398438 1087.316406 542.285156 1088.300781 545 C 1091.460938 553.699219 1092 563 1092 572 C 1098 563 1097.515625 549.414063 1096.285156 539 C 1094 520.761719 1090.265625 503.136719 1087.4375 485 C 1086.570313 479.421875 1083.96875 456.230469 1089.316406 453.070313 C 1093.277344 450.734375 1098.410156 455.457031 1100.894531 458.042969 C 1108.660156 466.125 1111.589844 478 1118 487 C 1135.371094 510.777344 1139.488281 553.242188 1135.574219 582 C 1134.199219 592.109375 1133.226563 605 1125 612 M 1190 466 C 1201 472.398438 1208 485.023438 1217 494 C 1213.761719 484.484375 1208.800781 475.035156 1202.769531 467 C 1201.285156 465.027344 1196.65625 460.46875 1198.253906 457.644531 C 1200 454.265625 1208.894531 459.230469 1211 460.476563 C 1221.851563 467 1229.945313 477.1875 1236 488 C 1256.957031 524.429688 1260.527344 566.386719 1266.285156 607 C 1267.476563 615.414063 1277.394531 638.484375 1270.398438 645.574219 C 1266.628906 649.390625 1263 643 1262.175781 640 C 1259.242188 630.285156 1260 619.03125 1259.171875 609 C 1257.320313 589.664063 1257.820313 564.21875 1247.636719 547.003906 C 1242.679688 538.628906 1233.660156 544.277344 1228.742188 537.773438 C 1224.753906 532.492188 1226 523.289063 1222.183594 517 C 1211.277344 499.308594 1195.851563 486.605469 1190 466 M 319 457 C 313.539063 466 308.359375 474.066406 305 484 C 312.519531 476.460938 318.792969 465 329 461 C 319 484.515625 297.28125 501.730469 290 527 L 289 527 C 290.492188 517 295.746094 507.613281 299 498 C 285.761719 506.285156 278.761719 522 273.203125 536 C 259 571.554688 261.460938 610.15625 250 646 C 245.523438 635.328125 250 618.253906 250.914063 607 C 254 568.070313 263.628906 527.007813 281.246094 492 C 288.46875 477.652344 301.175781 458 319 457 M 610 507 C 605.742188 513.117188 600.238281 518.191406 597 525 C 604.953125 525 613 524 621 523 L 611 534 L 615 534 C 606.925781 545.601563 602.199219 564.410156 591 573 C 593.59375 561.800781 599.851563 552 603 541 C 594.460938 542.585938 585.65625 542 577 542 L 577 541 C 585.410156 539.007813 593.664063 535 599 528 C 581.609375 529.375 560.347656 537.09375 549 519 C 564.378906 527.519531 576 524.535156 591 516 C 584.371094 514.421875 577.695313 515.582031 571 514.710938 C 557.34375 513 544.40625 506.082031 535 496 C 528.601563 489 524 479.757813 520.429688 471 C 519.535156 469 516.28125 461.617188 521 461.753906 C 525.613281 462 528.414063 467.785156 530.425781 471 C 536 480.035156 541.445313 489.140625 550 495.765625 C 567.46875 509.277344 589.207031 507 610 507 M 929 515 C 941.355469 529 956.574219 526.144531 971 519 C 959 537 939.933594 531.476563 922 528 C 926.945313 535 934.851563 539.0625 943 541 L 943 542 C 934.253906 543.105469 925.503906 544 917 541 C 921 551.714844 926.296875 562.125 930 573 C 915.992188 564.726563 917.273438 545 905 535 L 905 534 L 909 534 L 901 524 C 904.257813 524.066406 918.363281 527.425781 919.234375 522.566406 C 920 517.777344 910.183594 510.210938 908 506 C 929 506.003906 949.828125 510.34375 968 496.320313 C 977 489.308594 982.410156 479.285156 988.746094 470 C 990.570313 467.324219 993.898438 461.5625 997.816406 462.035156 C 1001.988281 462.542969 998.8125 469.003906 997.988281 471 C 994.519531 479.414063 990 488 984.332031 495 C 970.957031 511.792969 949 515 929 515 M 509 513 C 519 523.136719 530 534.515625 535.382813 548 C 539.585938 558.652344 539.1875 570.722656 544.378906 581 C 549.878906 592 561 597.5 564 610 L 563 610 C 556.636719 601.714844 546.707031 597.339844 540.417969 589 C 534.210938 580.761719 534.375 569.539063 528 561 C 526.765625 559 522.296875 554.308594 523.445313 551.648438 C 524.417969 549.398438 528.585938 551.5 530 552 C 525.199219 543.34375 520.496094 534.316406 515 526 C 512.582031 522.035156 508.605469 518 509 513 M 1011 514 C 1005.539063 527.113281 994.300781 538.105469 991 552 C 993.710938 551 996 550.253906 999 550 C 996.492188 555 991.644531 558.550781 990.394531 564 C 988.433594 572.539063 990.9375 581.546875 987.519531 590 C 984.597656 597.226563 977.550781 601.75 974.816406 609 C 971.726563 617.191406 976.765625 625.6875 969 632 C 968.65625 624.003906 964.796875 615 968 607.003906 C 970.539063 600.824219 977.425781 598 981.472656 593 C 988.230469 584.574219 988 575.167969 988 565 L 987 565 C 985.308594 572.109375 985.433594 579.300781 982 586 C 977.1875 595.410156 965.289063 602.726563 957 609 C 960.316406 597.511719 971.65625 591.628906 976.671875 581 C 980.664063 572.542969 980.425781 563 982.664063 554 C 986 540.117188 997.695313 520.203125 1011 514 M 790 520 L 790 521 C 805.246094 527.757813 819 532.570313 828.972656 547 C 839.992188 563.15625 847 591.1875 866 600 L 866 601 C 864.285156 601.140625 857.207031 601.332031 857.207031 604 C 857.207031 606.296875 871.410156 609.289063 873.675781 611.394531 C 881.886719 619.035156 889 634 890 645 L 892 645 C 892 634.414063 893 623.277344 889.957031 613 C 884.5 594.695313 868.53125 581 857.375 566 C 854.894531 562.6875 851.746094 559.097656 850.6875 555 C 849.554688 550.601563 851.378906 547.078125 848.425781 543.015625 C 836.871094 527.109375 808.613281 520.050781 790 520 M 1203 527 C 1204.242188 541.21875 1213.679688 553.519531 1221.332031 565 C 1232 581.140625 1242.488281 597.636719 1246.195313 617 C 1247.585938 624.269531 1250 646.738281 1241.777344 651 C 1233 655.355469 1230.261719 630.660156 1229.390625 626 C 1224.960938 602.367188 1216.996094 581.027344 1207.578125 559 C 1203.675781 550 1197.890625 536.613281 1203 527 M 314 528 C 314 561 293.886719 591.367188 288.414063 624 C 287.492188 629.5 285.546875 653.277344 276.210938 651.027344 C 266.914063 648.789063 270.261719 624.347656 271.460938 618 C 276 593.652344 291 574.003906 303 553 C 307.6875 545.09375 309.285156 535.5 314 528 M 242 539 C 230.324219 567.046875 217 593.664063 217 625 L 216 625 C 216 597.460938 212.574219 554.265625 242 539 M 1279 543 C 1299.289063 563.289063 1301.832031 584.53125 1304 612 L 1303 612 C 1297.628906 595.527344 1291 579.050781 1284.546875 563 C 1282.191406 557.210938 1276.53125 549.335938 1279 543 M 530.667969 565.667969 C 530.722656 565.722656 530.777344 566.777344 530.332031 566.332031 C 530.277344 566.277344 530.222656 565.222656 530.667969 565.667969 M 532 569 L 532 574 L 531 574 C 531 572.035156 531.222656 570.769531 532 569 M 533 575 C 534.308594 591 547.277344 593.621094 553.542969 606.003906 C 557.402344 613.632813 553 623.164063 552 631 C 545.277344 625.402344 549.78125 617.34375 547.296875 610 C 543.484375 598.730469 527 589.128906 533 575 M 296 709 C 291.578125 702.640625 292 690.582031 292 683 C 291.902344 662.785156 290.972656 642.558594 297 623 C 299 616.148438 301.433594 609.378906 304.757813 603.003906 C 305.519531 601.539063 307.199219 597.390625 309.488281 598 C 311.722656 598.441406 309.96875 602.8125 309.558594 604 C 307.289063 610.613281 304.71875 617.082031 303.464844 624 C 298.355469 652.144531 304.820313 681.410156 296 709 M 1222 710 C 1215.980469 706 1217.375 693.613281 1216.910156 687 C 1215.441406 666.027344 1217.414063 644.746094 1213.191406 624 C 1211.871094 617.511719 1209.472656 611.199219 1207.195313 605 C 1206.6875 603.621094 1204.566406 599.359375 1206.679688 598.347656 C 1209 597.207031 1211.355469 601.488281 1212.175781 603.003906 C 1215.535156 609.222656 1217.449219 616.324219 1219.667969 623 C 1229.597656 653 1222.25 679.742188 1222 710 M 626 631 C 633.242188 626.46875 638.347656 619.75 645 614.519531 C 650.957031 609.832031 658.488281 607.160156 664 602 C 644.472656 594.6875 629.96875 614 626 631 M 799 656 C 798.324219 665 789.851563 665.203125 784 670.328125 C 776.859375 676.761719 772 687 769.4375 696 C 760.195313 727.226563 769.78125 760.75 761 792 C 748.46875 786.105469 752.238281 771.382813 755.375 759 C 762 732.472656 767.554688 704 753.675781 678 C 741.734375 655.746094 718.9375 665.3125 701 673 C 695.433594 675.382813 680.308594 684.113281 676.605469 675 C 674.550781 669.761719 678.464844 662.4375 680.785156 658 C 688.582031 643.078125 701.863281 631.15625 718 626.027344 C 732.570313 621.398438 746.21875 624.621094 761 625 C 782 625.503906 800.640625 619.539063 820 631.46875 C 831 638.339844 840.746094 649.53125 844.996094 662 C 847.359375 669 848.304688 677.328125 839 678.785156 C 827 680.648438 827.769531 671.511719 820.890625 665.378906 C 814.980469 660.105469 806.421875 658.105469 799 656 M 690 780 C 687 767.789063 676.667969 756.425781 666 750.230469 C 658.632813 746 649.816406 744.398438 644.652344 737 C 633.761719 721.378906 640.21875 696.128906 642.574219 679 C 643.613281 671.480469 644.359375 664 647.808594 657 C 652.460938 647.703125 661.269531 640.703125 665 631 C 653.785156 634.230469 635 646.179688 630 657.015625 C 626.449219 664.773438 629.355469 674 629.910156 682 C 630.53125 691.085938 628.394531 701.160156 630.9375 710 C 632.53125 715.53125 636.898438 719.597656 638.75 725 C 641.570313 733.234375 638.300781 741.457031 643.789063 749 C 652.488281 761 675.605469 776.578125 690 780 M 830 781 C 846 776.371094 871.3125 762.378906 879 747 C 882.417969 740.167969 880 732.140625 882.6875 725 C 886.6875 713.808594 891 707.492188 891 695 C 891 683.324219 893.753906 667.617188 888 657 C 886.523438 654.074219 883 647.410156 879 647.347656 C 875.832031 647.289063 875.566406 652.742188 875.285156 655 C 874.316406 662.796875 876.9375 670.347656 878 678 C 880.453125 695.652344 887.792969 723.207031 875.582031 739 C 870.660156 745.34375 862.683594 747.058594 856 751 C 844.460938 757.460938 833.613281 768 830 781 M 444 661 C 440.449219 674.71875 442.984375 688.128906 443 702 C 443 708.289063 443 715.539063 437 719 C 437.6875 703.023438 431.757813 673.121094 444 661 M 1076 662 C 1086 680 1077.230469 701.636719 1082 721 C 1069.613281 711.648438 1076.6875 693 1076.984375 680 C 1077 674.042969 1075 668 1076 662 M 741 765 C 728.425781 761.273438 708.972656 746.789063 700.183594 737 C 697.394531 734 691.632813 726.003906 695 721.601563 C 698 717.617188 712 720.132813 717 719 C 742.304688 712.210938 734.433594 694.703125 730 676 C 754.828125 682 745.742188 719 728 728.003906 C 725 729.507813 707.355469 732.09375 707.460938 734.316406 C 707.667969 738.570313 713.859375 742.230469 717 744.183594 C 725.757813 749.628906 739.429688 753.25 741 765 M 851 684 L 852 684 C 851.421875 697.273438 833 713.355469 819 706 C 813.78125 703.191406 812.949219 696.609375 810 692.015625 C 807 687.410156 802.179688 684.476563 799 680 C 805.699219 678.019531 814.730469 679 816.605469 687.003906 C 817.410156 690.460938 815.847656 695.640625 818.601563 698.398438 C 828.703125 708.496094 846 691.15625 851 684 M 674 685 C 678.828125 697.738281 689.363281 700 700 706 L 700 707 C 689.167969 707 667.824219 700.144531 674 685 M 788 691 C 790.796875 701.808594 792.445313 715 805 718.695313 C 810.257813 720.265625 827.421875 716.425781 829.957031 720.332031 C 833.4375 725.699219 825.273438 732.8125 822 736 C 810.996094 746.53125 793.648438 761.332031 779 766 C 781.171875 754 793.5 751.066406 803 746.242188 C 806.5625 744.4375 814.578125 741.058594 814.652344 736.210938 C 814.730469 731.464844 802.207031 730 799 728.003906 C 788.527344 721.5 779.195313 702.070313 788 691 M 477 789 C 474 782 479.507813 773.152344 480.714844 766 C 483.605469 749 483.972656 731.335938 484 714 C 484 710.480469 483.855469 694 489.960938 695 C 496.324219 696 493.234375 713.757813 492.828125 718 C 490.441406 743.082031 482.605469 764.785156 477 789 M 1042 789 C 1037.285156 783.285156 1035.898438 775.054688 1034 768 C 1029.992188 751.550781 1027.402344 735 1026.984375 718 C 1026.902344 714.582031 1023.332031 693.683594 1030.882813 695.058594 C 1037.261719 696.222656 1035 712.578125 1035 717 C 1035 741.496094 1038.878906 764.828125 1042 789 M 245 707 L 245 712 L 244 712 C 244 710.035156 244.222656 708.769531 245 707 M 445 735 C 442 741.003906 435.582031 744 432.804688 750 C 426.460938 764.023438 425.878906 781.304688 420 796 C 418.992188 798.519531 413.46875 815 409 811.824219 C 404.808594 809 410.804688 793 411.847656 789 C 416.636719 771.292969 421.480469 736.089844 445 735 M 1101 777 C 1084.773438 773.101563 1091.769531 758.664063 1084 748.09375 C 1082.429688 745.714844 1072.75 740.234375 1074.347656 737 C 1076.253906 732.769531 1086.308594 740.679688 1087.816406 742.183594 C 1096.167969 750.535156 1100 765.535156 1101 777 M 461 747 C 463.566406 754 462.621094 760 462 767 C 460.371094 785.617188 458.675781 823.5625 437 830 C 442 815 444.425781 798.773438 450 784 C 437.976563 794.511719 432.617188 810.261719 417 817 C 423 796 440.914063 784.476563 453.46875 768 C 458.386719 761.542969 457.40625 753.753906 461 747 M 1060 756 C 1063.667969 773.730469 1074.550781 775 1085.90625 786.105469 C 1094.332031 794.371094 1099.570313 806.679688 1105 817 C 1090.804688 813 1080.328125 796.316406 1068 788 C 1068.667969 803.488281 1077.519531 816.320313 1081 831 C 1060.273438 825 1059 791.769531 1059 774 C 1059 768.382813 1057.8125 761.214844 1060 756 M 910 769 C 909.652344 777.050781 907 785 907 793 C 906.992188 795.386719 906.847656 800.503906 910 801.078125 C 913.675781 801.71875 912.996094 795 913 793 C 913 785.617188 914.941406 775.035156 910 769 M 1108 791 C 1108.992188 793.628906 1109.695313 796.269531 1110.371094 799 C 1110.785156 800.660156 1111.214844 802.320313 1111.550781 804 C 1114.859375 820.617188 1094.8125 797.820313 1108 791 M 319 800 L 318 801 L 319 800 M 318 803 L 318 806 L 317 806 C 317.25 804.546875 317.316406 804.246094 318 803 M 638 822 C 637 823.480469 637 823.203125 637 825 C 638.289063 823.558594 638.402344 823.765625 638 822 M 468 845 C 477.394531 845 485.996094 841.40625 495 839.128906 C 496.84375 838.660156 502.792969 838 502.792969 835.207031 C 502.792969 831.800781 494.726563 833.792969 493 834 C 482.558594 834.621094 474.539063 835.800781 468 845 M 1059 948 L 1058 948 C 1057.902344 936 1053.820313 917.371094 1041 913 C 1041.941406 935 1044.5 955.183594 1039.347656 977 C 1035.710938 992.378906 1026.601563 1006 1023 1021 L 1022 1021 C 1025.355469 994.597656 1033.777344 968.777344 1034 942 C 1023.363281 947.003906 1019.265625 961.578125 1016 972 C 1010.730469 989.035156 1009.238281 1007 1003.972656 1024 C 1000.585938 1035 994.824219 1043.796875 990 1054 L 989 1054 C 996.8125 1026.667969 1010.507813 1000.582031 1006.574219 971 C 1005.277344 961.226563 1004.363281 950.472656 996 944 C 982.351563 984.320313 993.683594 1033.605469 961 1067 C 965.378906 1048.074219 977 1030.789063 978 1011 C 962 1014.816406 945.535156 1030.691406 938.273438 1045 C 934.347656 1052.738281 933.390625 1062 928 1069 C 919.859375 1079.773438 905 1084.050781 893 1089 C 895.699219 1081.019531 899.269531 1073.273438 901 1065 C 885.488281 1068.589844 871.671875 1078.695313 861.808594 1091 C 851.941406 1103.3125 844.191406 1118.441406 829 1125 C 838 1112.304688 846.445313 1098.367188 850 1083 C 836.265625 1088.816406 826 1105 816.726563 1116 C 798 1138 772.332031 1157 758 1182 C 777.339844 1176.429688 795.210938 1163.441406 813 1154.257813 C 845.886719 1137.285156 880.777344 1120.460938 916 1109 C 881 1144 842.316406 1175.089844 798 1197.246094 C 777.652344 1207.421875 754.996094 1217.335938 732 1219 C 721.78125 1219.609375 712.890625 1216.453125 703 1215 L 703 1216 C 730.273438 1232 765.191406 1222.269531 793 1213 C 836.863281 1198.378906 877.578125 1175 914 1146.574219 C 936 1129.332031 956.21875 1109.679688 978 1092 C 976.472656 1104.085938 975 1115.460938 980.3125 1127 C 992.839844 1154.78125 1031 1167.296875 1058 1153 L 1058 1152 C 1042.722656 1153.214844 1031 1155.351563 1017 1147.121094 C 993.972656 1133.675781 988 1095.617188 1005 1075 C 1005 1093 1016.503906 1108.378906 1030 1119.191406 C 1061 1144.121094 1098.351563 1146 1136 1141 L 1136 1140 C 1126.855469 1138.453125 1117.371094 1140.4375 1108 1138.550781 C 1074.492188 1131.808594 1038.554688 1107.824219 1036 1071 C 1034.789063 1051.578125 1044.480469 1033.109375 1046 1014 L 1047 1014 C 1047 1041.230469 1045.914063 1074.160156 1059 1099 L 1060 1099 C 1055.597656 1043.203125 1085 989.164063 1085 933 L 1086 933 C 1096.941406 961.398438 1097 997.613281 1090.574219 1027 C 1088 1038 1081.652344 1048 1080 1059 L 1081 1059 C 1103.761719 1021.816406 1108.375 988.773438 1105 946 C 1115.554688 957.035156 1123.1875 970.597656 1132 983 C 1135.746094 973.8125 1124 959.199219 1120.308594 951 C 1107.441406 923 1103.972656 881.132813 1079 861 C 1070.621094 854.246094 1062.300781 847.433594 1054 840.585938 C 1051.871094 838.832031 1047.617188 834.230469 1044.601563 836.710938 C 1038.433594 841.789063 1047 856.410156 1050 861 C 1054.804688 868.195313 1060.730469 874.488281 1063 883 C 1069 904.550781 1059 926.363281 1059 948 M 833 930 L 832 930 C 830.988281 927.359375 830.296875 924.527344 829 922.003906 C 820.191406 904.820313 814.171875 927.714844 814 936 L 813 936 C 811.851563 931.164063 807.917969 919.003906 801 920.613281 C 797.390625 921.457031 796.347656 926.402344 792.789063 927 C 788.523438 927.675781 786.210938 924.078125 782.394531 928.152344 C 777.203125 933.695313 777 943 777 950 L 776 950 C 774 943.441406 773 935.71875 769 930.015625 C 763 921.1875 758 928.375 757.175781 936 C 756.886719 938.644531 757 941.34375 757 944 L 756 944 C 753.679688 926.777344 742.320313 926.777344 740 944 L 739 944 C 734.1875 935 716.769531 899 711 927 C 710.457031 929.675781 710 932.277344 710 935 C 706 931.066406 695.257813 916.347656 695.375 911 C 695.46875 907 699.3125 903.089844 701.628906 900 C 708.363281 891.015625 715.402344 881.054688 726 876.347656 C 736.753906 871.574219 747 876.605469 758 877 C 769 877.3125 779.839844 872.097656 791 874.519531 C 811 879 832 910.179688 833 930 M 992 922 C 991.875 919.09375 988.871094 907.46875 993.273438 906.632813 C 996.59375 906 998.472656 911.753906 999.304688 914 C 1002.601563 923 1005.242188 932.503906 1006 942 C 1022 926.003906 1013.335938 890.277344 991 885.808594 C 985 884.632813 962.371094 884.417969 965.710938 896 C 967 900.632813 977.371094 905.085938 980.816406 909 C 984.730469 913.453125 987 918.46875 992 922 M 440 909 C 438.203125 911.507813 436.507813 913.203125 434 915 C 435.796875 912.492188 437.492188 910.796875 440 909 M 402 917 C 398.914063 925 393.992188 932.53125 392.464844 941 C 390.628906 951.183594 392.71875 961.726563 390.914063 972 C 388 988.433594 383 1004.152344 383 1021 L 382 1021 C 381.351563 989.585938 371.996094 938.136719 402 917 M 1105 945 L 1104 946 L 1105 945 M 430 948 L 430 951 L 429 951 C 429.25 949.546875 429.316406 949.246094 430 948 M 802 1091 C 823.488281 1079.023438 840.222656 1061 864 1052.695313 C 880.472656 1047 897.84375 1048 915 1048 C 908.703125 1040.789063 896.871094 1040.804688 888 1039.714844 C 861.433594 1036.453125 837.230469 1051 819 1069 C 812.601563 1075.367188 804.816406 1082.175781 802 1091 M 456.667969 1048.667969 C 456.722656 1048.722656 456.777344 1049.777344 456.332031 1049.332031 C 456.277344 1049.277344 456.222656 1048.222656 456.667969 1048.667969 M 989 1054 L 988 1055 L 989 1054 M 869 1060 C 850 1058.507813 835.742188 1068 821 1079.128906 C 800.664063 1094.503906 781.808594 1112 763 1129 C 756.171875 1135.230469 730.203125 1151.332031 737.179688 1162.773438 C 743.976563 1174 765.761719 1150.519531 771 1146 C 794.796875 1125.464844 819 1105.511719 842 1084.089844 C 849.949219 1076.6875 863.46875 1069.144531 869 1060 M 467.667969 1063.667969 C 467.722656 1063.722656 467.777344 1064.777344 467.332031 1064.332031 C 467.277344 1064.277344 467.222656 1063.222656 467.667969 1063.667969 M 467 1066 L 466 1067 L 467 1066 M 979 1091 L 978 1092 L 979 1091 M 508 1144 L 507 1145 L 508 1144 M 535 1152 L 534 1153 L 535 1152 M 687.667969 1159.667969 C 687.722656 1159.722656 687.777344 1160.777344 687.332031 1160.332031 C 687.277344 1160.277344 687.222656 1159.222656 687.667969 1159.667969 "/>
</g>
</svg>
