<?xml version="1.0" encoding="UTF-8"?>
<svg xmlns="http://www.w3.org/2000/svg" xmlns:xlink="http://www.w3.org/1999/xlink" width="1500pt" height="1500pt" viewBox="0 0 1500 1500" version="1.1">
<g id="surface1">
<path style=" stroke:none;fill-rule:nonzero;fill:rgb(0%,0%,0%);fill-opacity:1;" d="M 289 438 L 290 438 C 293.5 424.472656 296.671875 410.710938 304.773438 399 C 314.675781 384.6875 329.253906 374.421875 343 364.128906 C 372.175781 342.28125 404 324.117188 432 300.5625 C 467.941406 270.222656 492.992188 232.457031 536 210.257813 C 586.808594 184.03125 643 170 700 166.089844 C 718.707031 164.808594 737.316406 167 756 167 C 774.726563 167 793.269531 164.808594 812 166.089844 C 865.355469 169.742188 918.863281 183.8125 966 209.308594 C 1010.445313 233.347656 1039 271.472656 1077 303.246094 C 1099.34375 322 1123.324219 338.652344 1147 355.578125 C 1167 370 1188 385 1201.5625 406 C 1208.339844 416.640625 1210.433594 427.269531 1214 439 C 1216.269531 433.589844 1214.785156 426.65625 1214 421 C 1211.472656 402.757813 1204.539063 385.359375 1192.90625 371 C 1175.433594 349.4375 1149.964844 336.101563 1127 321.308594 C 1098.667969 303.058594 1072 282.714844 1049 258 C 1029.960938 237.464844 1012.621094 216.101563 989 200.355469 C 954.269531 177.203125 912.464844 168 872 160.574219 C 852 157 832.175781 152.472656 812 151.089844 C 801.378906 150.363281 790.597656 150 780 151.289063 C 773.375 152.148438 766.675781 155.636719 760 155.398438 C 751.933594 155.109375 744 152 736 151.171875 C 724 150.023438 711 150.511719 699 151.039063 C 678.886719 152 658.753906 157.011719 639 160.574219 C 601.785156 167.289063 563.742188 175 530 192.78125 C 488.960938 214.449219 463.855469 255.320313 429 284.5625 C 404.632813 305.003906 376.382813 320.410156 350 338 C 331.640625 350.242188 313 363.4375 301.871094 383 C 292.488281 399.40625 289 419.277344 289 438 M 762 271 C 766 265.167969 766.714844 256 768.210938 249 C 771.375 234.339844 774.296875 219.617188 777.652344 205 C 778.828125 200 784.253906 187.5 782.222656 182.601563 C 781 180 774.320313 181 772 181 L 746 181 C 743.769531 181 738.644531 180.15625 737.351563 182.601563 C 734.738281 187.558594 743 202.113281 744.949219 207 C 752.769531 228 761 248.394531 762 271 M 890 222 L 890 223 C 920 237.09375 947.886719 250.605469 973 273.167969 C 987.839844 286.5 999 306.703125 1015 318 C 1013 305.140625 1003.351563 293.191406 995.847656 283 C 971.84375 250.414063 931.40625 223.777344 890 222 M 487 319 L 488 319 C 519.476563 272.347656 563.9375 246.191406 614 224 C 603 219.390625 587.246094 228.648438 577 232.308594 C 545.785156 243.453125 519.773438 263.339844 501.332031 291 C 495.726563 299.410156 488.746094 309 487 319 M 989 233 C 994.605469 244.253906 1004.96875 253.359375 1012.914063 263 C 1021.945313 274 1029.289063 286.320313 1035.628906 299 C 1048.585938 325 1057.332031 353.359375 1061.574219 382 C 1063.289063 393.589844 1062.875 405.554688 1065 417 L 1064 417 C 1057.9375 400.464844 1040 391.136719 1031.425781 376 C 1021.527344 358.707031 1016.441406 339.023438 1005.933594 322 C 980.980469 281.5625 942.824219 259.601563 898 248 C 901.683594 253.378906 912.191406 255.34375 918 258.246094 C 930.195313 264.347656 941.664063 272 952 281 C 955.867188 284.195313 965.476563 291 964.886719 297 C 964.339844 302.410156 951.703125 296.542969 949 295.671875 C 928.878906 289.179688 908.367188 295.578125 888 296 L 888 298 C 906.5625 296.535156 926 296.382813 944 302.355469 C 977.449219 313.496094 1006.609375 346.640625 1026 375 C 1006.296875 359.8125 988.695313 337.03125 965 328.066406 C 951.652344 323.015625 936.992188 324 923 324 L 923 325 C 941.734375 331.34375 959.359375 333.464844 975 347 C 962.613281 347.007813 943.65625 348 935 358 C 1016.511719 351.566406 1086.464844 440.101563 1087.945313 517 C 1088.375 539.246094 1070 552.125 1065.527344 572 C 1063.484375 581 1068 587.699219 1070 596 C 1065.808594 593.765625 1061.386719 591.824219 1057 590 C 1059.300781 600.03125 1067.957031 607.628906 1072 617 C 1067.519531 615 1063.644531 611.761719 1059 610 C 1060 622.40625 1070.957031 631.015625 1070 644 C 1068.949219 659.472656 1056.84375 670.800781 1052 685 C 1048.230469 696.605469 1054.464844 709.445313 1050.328125 722 C 1041.710938 748.15625 1024.414063 769.4375 1017.882813 797 C 1011 825.402344 1018.882813 855 1012.878906 883 C 1009.566406 898.484375 992.402344 906.796875 991 923 C 988.257813 958.144531 1008.515625 998.214844 1019 1031 L 1020 1031 C 1019.5625 1009.832031 1012.746094 989.414063 1013 968 C 1013 963.589844 1015.273438 947.179688 1022.894531 950.175781 C 1028 952.203125 1027.957031 960.523438 1028 965 C 1028 977.285156 1027.847656 990.796875 1029.285156 1003 C 1031.710938 1023.566406 1035.863281 1045.480469 1031 1066 C 1027.429688 1082 1015.929688 1095.664063 1014.175781 1112 C 1012.441406 1128.128906 1020.28125 1141.472656 1022.347656 1157 C 1023.277344 1164.023438 1020.1875 1171 1020 1178 C 1019.546875 1197 1025 1223.332031 1046 1230 C 1041 1222.15625 1034.816406 1216.097656 1032 1207 C 1023 1177.683594 1044 1158.679688 1044.957031 1131 C 1045.332031 1119.375 1037.59375 1109.402344 1037 1098 C 1036.238281 1081.5 1044.78125 1067.125 1045.910156 1051 C 1046.753906 1039 1043.558594 1028 1043 1016 C 1042 993.738281 1046 971.640625 1054.453125 951 C 1081.441406 885 1144.640625 830.308594 1150.824219 756 C 1153.371094 725.40625 1130.453125 699.003906 1122.425781 671 C 1115.503906 647 1122 623.28125 1118.570313 599 C 1116.578125 585.074219 1110.683594 569.6875 1096 565 L 1096 564 C 1101.285156 565.523438 1105.742188 568.328125 1109.984375 571.808594 C 1137.355469 594.253906 1125.183594 625.113281 1128.171875 655 C 1128.960938 663 1131.644531 670.695313 1134.605469 678 C 1145.246094 704.269531 1159.945313 726.300781 1157.910156 756 C 1155.9375 784.816406 1142.667969 810.25 1128.859375 835 C 1112.378906 864.546875 1094.40625 893.238281 1078.308594 923 C 1065.5625 946.570313 1054.742188 972.078125 1052.171875 999 C 1050.515625 1016.308594 1054 1033.652344 1052.910156 1051 C 1051.972656 1064.371094 1045 1076.652344 1044 1090 C 1043.214844 1102.492188 1047.503906 1112.203125 1050.523438 1124 C 1054.898438 1141.113281 1050.527344 1159.609375 1054.425781 1177 C 1059.371094 1199.070313 1081.265625 1217.636719 1095.714844 1234 C 1102 1241.261719 1110.621094 1251 1120 1254 C 1116.628906 1245.304688 1111.664063 1237.507813 1108 1229 C 1124.402344 1244.109375 1165.554688 1277.050781 1130 1294 L 1130 1295 C 1152 1294 1156.605469 1271.335938 1149.546875 1254 C 1141.648438 1234.605469 1122.828125 1221.484375 1111.695313 1204 C 1092.972656 1174.597656 1090.722656 1145.585938 1091 1112 L 1092 1112 C 1092 1149.324219 1103.53125 1179.664063 1125.425781 1210 C 1136.65625 1225.558594 1151.167969 1239.175781 1160.558594 1256 C 1168.90625 1271 1165 1284.285156 1149 1291 L 1149 1292 C 1177.246094 1292 1174.617188 1270.496094 1176 1249 C 1178.609375 1212.1875 1179.804688 1180 1170 1144 L 1171 1144 C 1179.816406 1163.8125 1188.972656 1179.222656 1188.972656 1202 C 1188.972656 1215.019531 1178.4375 1236.183594 1185.742188 1248 C 1197.171875 1266.484375 1225.808594 1274.480469 1246 1271.078125 C 1251.855469 1270.09375 1261.261719 1269 1265 1264 C 1244.953125 1266.535156 1214.46875 1266.65625 1205.480469 1244 C 1202.636719 1237 1204 1228.410156 1204.949219 1221 C 1206.679688 1205.59375 1209.519531 1190.34375 1211.730469 1175 C 1216.910156 1139.035156 1215 1107.625 1201 1074 C 1223.949219 1099 1229.644531 1133.378906 1223.914063 1166 C 1220.988281 1182.667969 1211.328125 1201 1216.441406 1218 C 1223.964844 1243.148438 1259.566406 1254 1283 1254 C 1290.703125 1254.011719 1297.996094 1254.671875 1305 1251 L 1305 1250 C 1282.445313 1247.148438 1260.992188 1239.097656 1249.3125 1218 C 1232.460938 1187.5625 1248.90625 1149 1238.652344 1116 C 1223 1066 1170 1028 1169 973 L 1170 973 C 1170.714844 1007.476563 1201.941406 1040 1221 1066 C 1237 1087.808594 1245.28125 1108.601563 1253 1134 L 1254 1134 C 1253.980469 1107.566406 1245.429688 1071.199219 1232.6875 1048 C 1226.582031 1037 1217.570313 1028.046875 1210 1018 C 1230.601563 1030.828125 1249.554688 1051.574219 1256.972656 1075 C 1260.644531 1086.605469 1257.574219 1099.042969 1263.878906 1110 C 1272.726563 1125.378906 1291.851563 1130.261719 1302.472656 1144 C 1307.636719 1150.683594 1307.203125 1164.125 1313 1169 C 1311 1159 1311.910156 1148.746094 1307.90625 1139 C 1303.839844 1129.101563 1295 1121.296875 1288.660156 1113 C 1284.96875 1108.28125 1276.355469 1098.652344 1280 1092.078125 C 1283.367188 1086.109375 1288 1092.632813 1290 1096 C 1296 1106.070313 1300 1117 1306.203125 1127 C 1317.914063 1146.292969 1334.222656 1168.070313 1331.828125 1192 C 1330.945313 1200.832031 1326.554688 1207.765625 1324 1216 C 1334.617188 1210.226563 1336.996094 1195.019531 1337 1184 C 1337 1164.765625 1328.867188 1147.695313 1318.253906 1132 C 1310.878906 1121.09375 1301.417969 1111 1297.785156 1098 C 1293.210938 1081.679688 1309.605469 1068 1302.191406 1053 C 1288.335938 1025.207031 1256 1012.394531 1237.746094 988 C 1198.898438 936.160156 1177 863.796875 1170 800 C 1166.648438 767.164063 1165.328125 733.554688 1172.210938 701 C 1181.933594 655.007813 1201.203125 613.09375 1197.910156 565 C 1196 538.054688 1189 510.535156 1175.574219 487 C 1170.570313 478.261719 1163.636719 471.238281 1158 463 C 1168.664063 466 1177.273438 473.453125 1188 476 C 1181.914063 460 1166.929688 445 1155 433 C 1161.464844 433.019531 1167.585938 434.722656 1174 435 C 1166.460938 421.234375 1178.71875 418.652344 1191 417 C 1184.902344 437.628906 1191.757813 464.34375 1198.332031 484 C 1217.773438 542.109375 1262.84375 588 1297.574219 637 C 1307.257813 650.683594 1316.253906 665.003906 1323.753906 680 C 1327 686.550781 1330 698.691406 1336 703 C 1332.488281 658.589844 1300.777344 619 1274.882813 585 C 1234.953125 532.660156 1193 474.050781 1193 406 L 1192 406 C 1188.929688 416.496094 1166.664063 406.789063 1160 403 C 1173.175781 398.785156 1180.8125 398.800781 1193 405 C 1190.523438 397.78125 1183.695313 395.488281 1177 393.054688 C 1161.460938 387.40625 1144.410156 384.734375 1128 383.171875 C 1122 382.609375 1114.222656 384.664063 1109 381.257813 C 1104.191406 378.066406 1103 372 1100.515625 367 C 1094.511719 355.488281 1088.285156 344.136719 1081.601563 333 C 1065.871094 306.800781 1046.59375 282.59375 1025 261 C 1014 250.089844 1003.488281 239.03125 989 233 M 310 403 C 313.679688 402.238281 317.300781 401.117188 321 400.464844 C 323.316406 400.054688 325.652344 400 328 400.003906 C 330.777344 400.027344 342.632813 402 335.882813 406 C 330.714844 409.121094 323.726563 409.351563 318 411 C 316 411.417969 312.296875 412.289063 312.347656 415 C 312.492188 423 335 417.664063 330.640625 429 C 329.8125 431.101563 328.179688 433.074219 327 435 C 333.4375 435 339.578125 433.132813 346 433 C 334 445 318.65625 460.253906 312 476 C 323.515625 474 332.539063 464.722656 344 462 C 311.261719 499.832031 296.535156 553.816406 304.4375 603 C 309.75 636.054688 323.230469 667.125 329.390625 700 C 335.453125 732.355469 335.589844 766.371094 331.714844 799 C 323.703125 866.445313 304.515625 935 263.253906 990 C 251.761719 1005.339844 236.632813 1017.558594 222 1029.753906 C 213.410156 1037 202.332031 1044.644531 197.402344 1055 C 191.253906 1068 205.613281 1082.320313 202 1097 C 194.839844 1127.347656 164 1149.503906 164 1182 C 163.949219 1193.003906 165.863281 1209.558594 177 1215 C 173.992188 1207.78125 170 1201 169.175781 1193 C 166.351563 1166.722656 184.585938 1144.449219 196.851563 1123 C 202 1114 205.339844 1104.023438 210.441406 1095 C 212 1092.128906 215.636719 1086.132813 219.257813 1090.335938 C 224.183594 1096.058594 216.738281 1105.546875 213.347656 1110 C 206 1119.484375 196.644531 1128.828125 192 1140 C 188.382813 1149.101563 189.21875 1158.675781 187 1168 C 192.863281 1163.539063 192 1151.222656 197.328125 1145.003906 C 209.863281 1130 228.199219 1123 238.535156 1105 C 244.246094 1095.128906 241.265625 1084.753906 245.226563 1075 C 253.941406 1053.527344 270.761719 1032.0625 288 1017 C 283.414063 1026.21875 276 1033.804688 271.257813 1043 C 263.722656 1057.574219 260 1073.363281 255.574219 1089 C 251.496094 1103 247 1116.292969 247 1131 L 248 1131 C 253.96875 1084.027344 293.6875 1053.125 316 1014 C 324.398438 999.628906 332.859375 983 333 966 L 334 966 C 333.515625 1024.765625 279.773438 1060.523438 262.671875 1113 C 257.371094 1129.25 256.296875 1147.015625 257 1164 C 257.820313 1181.824219 260.589844 1200.488281 251.878906 1217 C 240.726563 1238.140625 216 1248.808594 193 1249 L 193 1250 C 223.363281 1257.230469 278.726563 1250.21875 284.558594 1212 C 286.972656 1196.191406 278.363281 1177.519531 275.613281 1162 C 269.988281 1130.226563 277.332031 1097.699219 300 1074 C 286.648438 1106.542969 283.265625 1138.136719 288.425781 1173 C 290.894531 1189.671875 294.511719 1206.203125 296 1223 C 296.789063 1230.707031 298.445313 1238.808594 294.671875 1246 C 283.382813 1267.519531 256.355469 1264.605469 236 1263 C 239.597656 1267.789063 250.230469 1269.804688 256 1270.703125 C 275.941406 1273.816406 305 1265.453125 315.992188 1247 C 322 1236.703125 312.300781 1216.628906 312 1205 C 311.449219 1182 319.480469 1166.121094 329 1146 L 330 1146 C 321.78125 1182 324.5625 1214.691406 324.996094 1251 C 325.226563 1270.40625 326.734375 1291.5 351 1292 C 346.476563 1284.023438 335.910156 1283.085938 335 1272 C 333.566406 1251.125 359.953125 1230 371.574219 1215 C 394.597656 1185.28125 411 1154.074219 411 1116 L 412 1116 C 412 1149.507813 406.308594 1179.6875 386.972656 1208 C 376 1224.054688 358.703125 1235.480469 351.464844 1254 C 343.972656 1273.160156 349.746094 1294 373 1295 L 373 1294 C 335.449219 1279.03125 375.597656 1242.023438 394 1228 C 390 1237 384.535156 1245 381 1254 C 389.449219 1250.726563 395.71875 1242.28125 402 1236 C 417.339844 1220.660156 440.585938 1200.683594 446.511719 1179 C 450.574219 1164.125 447.429688 1149.007813 449.425781 1134 C 451 1121 459.492188 1110 460.824219 1097 C 462.492188 1081 451.316406 1066 450.183594 1050 C 449.34375 1038.164063 452.859375 1026 452.996094 1014 C 453.238281 993 447.605469 971.148438 439 952 C 415 897.757813 366 855.617188 351.375 797 C 345.203125 772.320313 342.707031 743.710938 350 719 C 354.902344 702.589844 364.554688 688.179688 369.996094 672 C 381.535156 637.679688 356.703125 588.570313 398 568 C 371.804688 594.269531 387.804688 633.214844 380.574219 666 C 373.914063 696.214844 351 724 353 756 C 357.820313 830.296875 422 885.683594 448.550781 952 C 456.328125 971.445313 461.359375 992 459.910156 1013 C 459.191406 1023.449219 455 1033.457031 455 1044 C 454.804688 1061 464.734375 1076.242188 464.660156 1093 C 464.605469 1104.738281 456.964844 1115.132813 456.375 1127 C 455.351563 1147.519531 470.746094 1165.511719 471.90625 1186 C 472.925781 1204 463.601563 1215.367188 454 1229 C 473.699219 1225.433594 482.382813 1197.375 481.984375 1180 C 481.785156 1171.277344 478.335938 1162.769531 479.171875 1154 C 480.734375 1137.574219 487 1122.796875 485.910156 1106 C 484.617188 1088.414063 472.175781 1073.386719 469.4375 1056 C 466.816406 1039.335938 472.992188 1022.648438 473 1006 C 473 992 473.328125 978.046875 474.835938 964 C 475.28125 959.808594 475.230469 951 481 950.175781 C 489.332031 949.203125 489.992188 964 490 969 C 490 989.613281 483 1009.367188 483 1030 L 484 1030 C 488.503906 994.402344 518.414063 961.167969 512.5625 924 C 509.992188 907.699219 493.824219 899.492188 489.761719 884 C 486.933594 873.222656 488.996094 863 489 852 C 489 832.613281 488.347656 813 483.625 794 C 476.929688 767.222656 460 745.65625 451.671875 720 C 447.707031 707.789063 453.636719 695.601563 449.90625 684 C 445 669 431.300781 657 432 640 C 432.519531 629.078125 440.5625 620.089844 444 610 C 438.605469 611 434.3125 613.710938 430 617 C 431.636719 606.078125 440.300781 599.4375 445 590 L 431 595 C 433.765625 589.160156 437.253906 582.648438 436.890625 576 C 436.328125 565.65625 428.757813 557.546875 423.871094 549 C 417.828125 538.429688 415 528.125 415 516 C 415 460.316406 449.59375 408.40625 495 378 C 515.683594 364.148438 540.71875 352.460938 566 359 C 560.589844 347.675781 542 347.03125 531 347 C 543.394531 332.058594 563 331.371094 580 325 L 580 324 C 564.996094 324 549.308594 322.636719 535 328.066406 C 512.734375 336.519531 499.28125 356.070313 481 370 C 486 361 493.871094 353.566406 500.910156 346 C 517.371094 328.296875 535.242188 310.5 559 303.203125 C 577 297.652344 596.289063 298 615 298 L 615 297 C 597.683594 293.738281 580.546875 291.796875 563 294.285156 C 551.773438 296 541.183594 300.492188 530 302 C 549.242188 276.746094 577.644531 266.324219 604 251 L 604 250 C 560.375 256.417969 515.484375 288.761719 493.453125 326 C 483.914063 342.121094 480.417969 361.050781 471 377 C 462.519531 391.765625 445.777344 399.824219 439 416 L 438 416 C 440.652344 405 439.507813 392.457031 441.273438 381 C 444.859375 357.785156 451.519531 334.378906 461.308594 313 C 469.949219 294.128906 480.21875 276.453125 492.886719 260 C 499.660156 251.203125 509.917969 243.796875 515 234 C 503.410156 237.410156 492.996094 248 484 255.578125 C 455.960938 279.605469 434.722656 310 415.425781 341 C 408.496094 352.1875 403.3125 372.585938 392.957031 380.566406 C 387.328125 385 378.617188 382.539063 372 383.171875 C 353.632813 385 321.722656 386.75 310 403 M 530 302 L 529 303 L 530 302 M 580 451 L 579 451 C 569.546875 428.296875 553.742188 408.117188 532 396 C 533.9375 402.585938 538.433594 408.191406 542 414 C 534.292969 412.101563 516.476563 407.214844 511 415 C 539.980469 416.324219 571.730469 445.441406 580.480469 472 C 583.84375 482.207031 580.90625 493.527344 584 503 C 589.890625 520.109375 602.292969 531.171875 599.710938 551 C 597.449219 568.347656 583.617188 577.148438 577 592 C 597.394531 589 607.441406 570 620 556 C 626.175781 549.261719 632.542969 542.480469 636 534 C 639.796875 525.308594 640.394531 515.691406 644.3125 507 C 661.949219 468 695.597656 432.820313 678.945313 387 C 675.796875 378.335938 670 365 662 360 C 669.285156 386.640625 686.71875 414.722656 657 435.378906 C 650.621094 439.8125 642.960938 441.742188 636 445 C 636 419.632813 638.355469 382.359375 615 365.636719 C 597.316406 353 576 363.664063 560 373.574219 C 555.546875 376.332031 543.925781 380.8125 543.75 387.015625 C 543.582031 393 553.679688 401.230469 556.972656 406 C 566.550781 420 573.914063 435.316406 580 451 M 868 458 L 867 458 C 860.4375 442.5 843 434.570313 836.339844 419 C 828.371094 400.46875 841.269531 383.289063 846 366 C 838.644531 369.113281 833.402344 375.683594 828.757813 382 C 798.335938 423.359375 835.613281 458 852.691406 495 C 858.628906 508 860.398438 522.230469 866.492188 535 C 870 542.542969 876.238281 548.492188 881.339844 555 C 893 570 904.542969 589.230469 925 592 C 918.785156 577.320313 904.515625 569.085938 902.289063 552 C 899.675781 532 911.25 521.421875 917.238281 504 C 920.867188 493.445313 918 481.664063 921.519531 471 C 929.871094 445.277344 960.675781 415.601563 989 415 C 983.226563 406.726563 966.328125 412.640625 958 413 C 962 407.703125 966.316406 402.136719 969 396 C 952.886719 403.074219 933 424.425781 927 441 C 926.90625 428.773438 940.21875 412.230469 947.515625 403 C 950.710938 399 958.390625 393 957 387 C 955.597656 380.632813 945.972656 376.28125 941 373.003906 C 923.609375 361.535156 898.851563 351.789063 882.175781 370.015625 C 860.875 393.285156 868 429.492188 868 458 M 481 370 C 480.453125 371.636719 480.636719 371.453125 479 372 C 479.546875 370.363281 479.363281 370.546875 481 370 M 694 404 C 694 414.414063 697.300781 424.5625 695.828125 435 C 694.679688 443.15625 689.878906 450.089844 688 458 C 705.214844 449.785156 709.371094 416.070313 694 404 M 308 414 C 308 431 308.304688 446.417969 303.574219 463 C 277.5625 554.152344 189.597656 610.277344 167 702 C 173 698.320313 176 689.011719 179.425781 683 C 187.3125 669.039063 195 655.066406 204.425781 642 C 241.246094 590.476563 291 542.238281 307.371094 479 C 311.414063 463.289063 313.433594 447.109375 312 431 C 311.664063 425 312.1875 418.796875 308 414 M 1155 432 L 1154 433 L 1155 432 M 926 441 L 923 451 L 922 451 C 922.570313 447.199219 923.574219 444.007813 926 441 M 449 529 C 454 526.214844 458.820313 513.710938 465.785156 519.449219 C 470.445313 523.289063 471.292969 530.785156 473.785156 536 C 478.730469 546.355469 486.945313 555 498 558.480469 C 512 563.078125 528.507813 562 542 556.128906 C 550.175781 552.625 558.671875 545 568 545.199219 C 575.265625 545.441406 579.96875 553 586 556 C 586.242188 526.613281 579 501.777344 556 481.175781 C 524.480469 453.03125 479.449219 466 463 504 L 462 504 C 465.355469 496 469.542969 488.039063 474.898438 481 C 478.855469 475.800781 483.578125 471.394531 489 467.75 C 510.371094 453.378906 535.816406 459.578125 555 474.667969 C 562.683594 480.714844 568.3125 489.121094 576 495 C 575.632813 487 571.449219 480.703125 567.398438 474 C 549.378906 444.191406 510.804688 432.089844 480 450.453125 C 452.71875 466.71875 449 500.203125 449 529 M 927 495 C 939.789063 486 947.496094 471.710938 962 464.785156 C 996.675781 448.226563 1029.949219 475.535156 1041 508 C 1028.285156 493.082031 1020.863281 474.730469 1001 467.699219 C 961.515625 453.722656 923.179688 497.582031 915.667969 533 C 914 540.328125 915.980469 547.632813 916 555 C 922.625 552.433594 927.324219 544.714844 935 545.226563 C 942.816406 545.753906 950 552.058594 957 555.136719 C 971.648438 561.597656 990.890625 564.164063 1006 557.660156 C 1015.808594 553.441406 1023.300781 545.699219 1027.6875 536 C 1030 530.683594 1030.375 523.257813 1035 519.332031 C 1042.167969 513.53125 1047.347656 525.8125 1051 530 C 1060 499.203125 1043 457.460938 1013 446.066406 C 978.996094 433.15625 930.421875 455.832031 927 495 M 580.667969 451.667969 C 580.722656 451.722656 580.777344 452.777344 580.332031 452.332031 C 580.277344 452.277344 580.222656 451.222656 580.667969 451.667969 M 1158 462 L 1157 463 L 1158 462 M 522 473.304688 C 527.492188 472.558594 535.398438 474 539.605469 477.800781 C 543.9375 481.730469 543 487.648438 536.996094 488.773438 C 530.535156 490 521.546875 488.738281 516 485.003906 C 508 479.613281 515.65625 474.167969 522 473.304688 M 969 474.328125 C 974 473.402344 984.722656 473 988.378906 477.429688 C 993.800781 484.234375 980 487.664063 976 488.386719 C 971.652344 489.152344 964 490.359375 960.320313 487.257813 C 954 482 964.269531 475.183594 969 474.328125 M 558 493 C 566.976563 502.777344 575 515.03125 578.371094 528 C 579.222656 531.3125 581.714844 538.324219 578.257813 541 C 574.988281 543.449219 566.550781 539 562 540 C 563.679688 528.628906 568 518.789063 568 507 L 566 507 C 565.703125 543 516.78125 572.0625 488.300781 543.699219 C 475 530.539063 476.753906 512.695313 479 496 L 480 496 C 484 523.449219 516.582031 541.601563 540 523.472656 C 550.753906 515.144531 550.574219 503 558 493 M 946 494 C 946.914063 515 968.769531 534.539063 990 530.53125 C 1006 527.488281 1018.636719 511.773438 1021 496 L 1022 496 C 1024 512.65625 1025.789063 531.664063 1012.816406 544.824219 C 994.277344 563.632813 959.203125 554 944.527344 535 C 938.453125 527.152344 936.417969 516.726563 936 507 L 935 507 C 932.742188 519.15625 935.378906 528 940 539 C 936.25 539.726563 927.882813 543.007813 924.601563 540.226563 C 921.371094 537.488281 923.609375 530.375 924.476563 527 C 927.347656 516 934.261719 498.003906 946 494 M 462 504 L 460 510 L 459 510 C 459.710938 507.589844 460.425781 506 462 504 M 859 523 C 853 534.015625 837.742188 569.25 864 563 C 860.308594 575.152344 857 590.269531 857 603 L 858 603 C 861.8125 595 867 588 871 580 C 874.355469 588 873 597.511719 873 606 C 876.960938 603.40625 878.722656 598.4375 880 594 L 881 594 C 882.46875 602 882 610 882 618 L 883 618 C 883.734375 615.464844 885 608.054688 888.671875 608.054688 C 892.242188 608.054688 890.261719 617.023438 894.277344 618.1875 C 900.257813 620 912.289063 617 919 617 C 915 608.753906 906.441406 603.171875 900.886719 596 C 892.546875 585.234375 886.390625 573.097656 878.5625 562 C 874.1875 555.800781 867.917969 551.199219 863.652344 545 C 858.898438 538.089844 862.683594 529.371094 859 523 M 642 524 C 641.996094 542.085938 632.527344 548.703125 623 563 C 615.535156 574.203125 609.480469 586.742188 600.699219 597 C 594.90625 603.769531 585.789063 609 582 617 C 587.839844 617 594.277344 616.246094 600 617.527344 C 601.996094 618 606 620.410156 607.972656 619 C 610 617.207031 609.976563 608.808594 611 606 C 614 609.722656 615.949219 613.671875 618 618 L 619 618 C 619 610.066406 617.863281 601.4375 621 594 C 623 598.515625 624.703125 604.183594 629 607 L 629 580 C 636 585.460938 640.265625 595.003906 644 603 L 645 603 C 643.933594 589.609375 640 576.484375 639 563 C 662.480469 569.535156 655 531.183594 642 524 M 948 527 C 954.8125 545 976.707031 552 994 546 L 994 545 C 972.3125 546 965 539.007813 948 527 M 302 534 C 274 556.789063 259.328125 586.464844 239.921875 616 C 223 641.59375 199.402344 662.632813 186.863281 691 C 178.695313 709.472656 181.242188 727.535156 179.910156 747 C 178.765625 763.738281 175 780.175781 175 797 L 176 797 C 180.191406 763.824219 186.320313 725.519531 202.730469 696 C 211 681 224.625 666.128906 242 662 L 242 663 C 235.558594 665.726563 230.851563 671.09375 226 676 C 193.617188 708.773438 204.730469 753 200.828125 794 C 199 811.566406 192.933594 827 189 844 L 190 844 C 204 819.761719 205 790.214844 205 763 L 206 763 C 208 779.007813 216 794.183594 219.574219 810 C 224 830.175781 224 850.460938 224 871 L 226 871 C 226 836.617188 230 802.433594 230 768 L 231 768 C 231.511719 793 247.515625 815.398438 250.710938 840 C 252.296875 852.214844 248.726563 863.546875 245 875 C 252.59375 870.691406 254.328125 858 255 850 C 257.183594 827.394531 251 805.539063 251 783 L 252 783 C 258.265625 809.375 275.890625 829.09375 273.910156 858 C 273 869.558594 270.523438 881.441406 265.691406 892 C 262.222656 899.578125 256.476563 906.71875 255 915 C 265 908.714844 271.898438 898.125 275.644531 887 C 277.558594 881.308594 278 870 285 868 C 295.855469 865 292.273438 877.824219 290.71875 883 C 285.664063 900 279 916 271.996094 932 C 262 954.554688 246 976.414063 228.984375 994 C 214.488281 1009 196.886719 1022 184.914063 1039 C 173.914063 1054.683594 178.445313 1074.773438 195 1084 C 191.367188 1076.207031 183.597656 1071.464844 183.265625 1062 C 182.878906 1051.035156 191.914063 1042.089844 199 1035 C 215.671875 1018.324219 234.65625 1004.050781 250.960938 987 C 271 966 283.386719 941.011719 293.574219 914 C 315.84375 855 334 791.617188 324.726563 728 C 318.710938 687.136719 298.988281 649.753906 292.4375 609 C 289.988281 593.75 289.191406 577.011719 293.429688 562 C 295.667969 554.0625 304.9375 542.214844 302 534 M 930 567 C 938.351563 593.203125 962.980469 610.085938 963 640 C 969.4375 635.121094 968.472656 621.183594 971.804688 614.003906 C 973.886719 609.515625 977.71875 607.195313 981.671875 611.152344 C 984.980469 614.464844 986.40625 619 990 622 C 990.703125 606 999.726563 608 1003 622 C 1007.316406 620.339844 1011.285156 618.828125 1016 619.09375 C 1018.9375 619.257813 1023.8125 621.109375 1026.378906 619 C 1029.304688 616.535156 1025.449219 609.753906 1027.742188 606 C 1035 594 1045.996094 587.65625 1049.84375 573 C 1052.246094 564 1052.289063 554.101563 1049.558594 545 C 1048.800781 542.460938 1046.929688 536.207031 1043.46875 536.207031 C 1040.757813 536.207031 1036.964844 548.65625 1035.535156 551 C 1028.949219 561.820313 1018.964844 570.066406 1007 574.300781 C 980 584 956.425781 567 930 567 M 498 623 C 502.671875 610.796875 511.621094 603.808594 512 622 C 516.601563 619.046875 518.496094 612.058594 523.984375 610.257813 C 532.886719 607.335938 535.996094 633.691406 538 639 C 541.40625 634.015625 541.234375 626 543.605469 620 C 548.675781 607.484375 555.609375 595.707031 562.28125 584 C 564 581 572.355469 571.285156 569.914063 567.746094 C 567 563.527344 555.566406 568.824219 552 570 C 535.445313 575.460938 517.386719 580.6875 500 576.335938 C 486.648438 573 475 563.4375 467.699219 552 C 465.726563 549 461.910156 536.179688 457.347656 537 C 452.589844 537.695313 451.167969 549.324219 450.589844 553 C 446.9375 576.21875 459.964844 587.238281 472.589844 604.003906 C 476 608.539063 472 614.59375 475 618.242188 C 477 620.714844 482.292969 619.121094 485 619 C 490.472656 618.574219 493.699219 619.636719 498 623 M 1214 546 C 1218 558.28125 1223.238281 571 1230 582 C 1245.1875 606.507813 1265.878906 629.308594 1262 660 L 1261 660 C 1254.429688 642.636719 1243.605469 625.675781 1235.246094 609 C 1231.988281 602.496094 1228.378906 593 1222 589 C 1235.261719 629.753906 1231.578125 670.75 1217.65625 711 C 1214.480469 720.183594 1210.746094 729.171875 1206.691406 738 C 1205.507813 740.578125 1203.855469 745.699219 1200.828125 746.652344 C 1195.765625 748.253906 1193 736.199219 1192 733 C 1187.828125 717.222656 1188 701.210938 1188 685 L 1187 685 C 1169.765625 751.613281 1177.773438 819 1197.972656 884 C 1205.957031 909.691406 1215.394531 935.679688 1229 959 C 1242.871094 982.738281 1260.886719 1003 1282 1020.566406 C 1294.355469 1031 1315 1042.558594 1317.894531 1060 C 1319.375 1069.101563 1312.175781 1075.664063 1308 1083 C 1326 1076 1325.46875 1051.714844 1316.25 1038 C 1305.621094 1022.179688 1288.925781 1011.777344 1276 998 C 1256.527344 977.007813 1240.96875 952.628906 1228.246094 927 C 1221 912.511719 1215.441406 897.324219 1210.332031 882 C 1208 875.023438 1206.886719 865.1875 1217.996094 868.652344 C 1226.296875 871.242188 1227.378906 881 1229.425781 888 C 1232.703125 899.425781 1238.839844 913.117188 1251 917 C 1236.222656 889.234375 1225.460938 861.78125 1234.429688 830 C 1238.945313 814 1249.253906 800.183594 1253 784 L 1254 784 C 1248.722656 812.421875 1242.796875 851 1258 877 L 1259 877 C 1257.171875 864.609375 1253.925781 854 1255.171875 841 C 1257.570313 816.175781 1269.28125 793.324219 1274 769 L 1275 769 C 1270.738281 802.71875 1274.742188 841.328125 1279 875 L 1280 875 C 1280 853.425781 1280.171875 832.25 1284.449219 811 C 1287.738281 794.652344 1294.628906 779.28125 1298 763 L 1299 763 C 1295.503906 782 1298.882813 807.726563 1304.746094 826 C 1306.726563 832.171875 1309 841.671875 1315 845 C 1309.371094 830.484375 1304.65625 816.59375 1303.171875 801 C 1300.910156 777.300781 1304 753.644531 1301.828125 730 C 1300.460938 715.675781 1295.882813 701.785156 1292 688 L 1293 688 C 1299.601563 702 1307.316406 714.011719 1311.972656 729 C 1319 752 1321 776.265625 1328 799 C 1332.832031 787.480469 1324.925781 768.21875 1324 756 C 1323 740.285156 1324.851563 723.359375 1321 708 C 1310.894531 666.183594 1280.601563 630.582031 1255.371094 597 C 1246.277344 585 1237 573 1227.601563 561 C 1223.464844 555.800781 1220 549 1214 546 M 1095 563.332031 C 1095.773438 563.332031 1095 563.832031 1094.667969 563.667969 L 1095 563.332031 M 406 564 L 406 565 L 398 568 C 400.421875 565.820313 402.859375 565 406 564 M 1216 622 C 1215.996094 650.742188 1205 678.261719 1205 707 L 1206 707 C 1211.527344 687.371094 1213.65625 667.152344 1216.28125 647 C 1217.28125 639.3125 1220.230469 629.058594 1216 622 M 462 631 C 465.800781 640.808594 500.980469 668.683594 475 669 L 466 669 C 471.359375 677.109375 513.402344 679.058594 489 691 L 489 692 C 494.914063 695 516.347656 697.777344 513 708 C 511.726563 712.242188 507.269531 714.414063 505 718 C 524.828125 717.589844 537.933594 699.722656 543 682 C 537 683.046875 531.671875 686.082031 526 688 C 527.820313 680.328125 532 673.28125 535 666 C 531.59375 667 521.945313 673.242188 519 669.382813 C 516.507813 666 521.421875 657 522 653 C 514.660156 657.570313 503.394531 665.195313 507 650 C 503 650.683594 498.949219 653.402344 495 652.441406 C 482.179688 649.328125 477 632.535156 462 631 M 995 649 C 996.277344 665.203125 989.71875 658.070313 979 653 C 980.199219 656.519531 986.589844 667 982.394531 670 C 978.746094 672.535156 970.464844 666.441406 967 665 C 968.816406 673 982 692.375 964 683.746094 C 962 682.789063 960 682 958 681 C 963.234375 699.171875 976.773438 717.578125 997 718 C 994.808594 715.273438 991.785156 713.039063 990 710 C 983 698.050781 1006.996094 695.667969 1013 692 C 1010.390625 690.234375 1005 688.554688 1004.632813 685 C 1004 681.605469 1008.519531 680 1011 679.042969 C 1019.332031 676.136719 1028 675.160156 1036 671 L 1036 670 C 1030.738281 668.445313 1021.648438 671.015625 1017.421875 667.140625 C 1014.222656 664.207031 1018.519531 659.5 1020.296875 657 C 1026.71875 648 1035 640.402344 1041 631 C 1032.464844 632 1024.234375 637.554688 1018 643.289063 C 1014.503906 646.632813 1011.3125 652.300781 1006 653.019531 C 1002 653.539063 998.328125 650.546875 995 649 M 677 676 C 690.648438 673.464844 700.394531 676.421875 713 681 L 713 682 C 684.277344 676.6875 662.894531 701 648 722 C 667.710938 719.046875 680.242188 699 700 694.667969 C 715.3125 691.421875 729.894531 698.296875 745 699 C 765.992188 700 788.59375 691.488281 809 698.355469 C 825.585938 704 837.964844 717.320313 854 724 C 851.230469 718.058594 845.6875 714 841.425781 709 C 827.6875 693.1875 810.710938 676.59375 788 682 L 788 681 C 801.496094 675.386719 811.550781 675 826 676 C 812.851563 650.65625 786.242188 665.175781 766 669.191406 C 758.703125 670.640625 750.410156 670.417969 743 670 C 728.824219 669 715.980469 660.570313 702 660.570313 C 691.65625 660.570313 680.496094 665.71875 677 676 M 243 661.332031 C 243.773438 661.332031 243 661.832031 242.667969 661.667969 L 243 661.332031 M 887 682 C 889.609375 691.320313 902.441406 705.402344 910 711.480469 C 911.949219 713.035156 919.285156 718.796875 921.867188 716 C 923.992188 713.574219 919.335938 706.125 918 704 C 910.964844 691.460938 900.40625 685.804688 887 682 M 580 716 C 594.601563 711.019531 608.195313 696.664063 615 683 C 596.96875 683.371094 581.8125 698 580 716 M 517 769 L 518 769 C 527.4375 753.582031 535.378906 737.285156 545 722 C 550 714 559 705.800781 562 697 C 528.59375 704 517 739 517 769 M 940 697 C 943.304688 704.804688 950.359375 710.738281 954.796875 718 C 965 734.734375 973.773438 752.289063 984 769 C 986.582031 763 985.167969 753.464844 984 747 C 979.929688 722.378906 964.269531 703.296875 940 697 M 615 826 L 614 826 C 613.191406 807.195313 605.867188 786.699219 611.441406 768 C 614.546875 757.578125 622.761719 750.636719 627 741 C 611.90625 748 606 763.164063 597.480469 776 C 594.914063 779.800781 588 785 587.832031 789.695313 C 587.542969 794.222656 597.738281 792.679688 597.652344 798.015625 C 597.554688 804.128906 586.71875 804 585.921875 809.171875 C 585 814.757813 597 815.589844 599 820.050781 C 601 824.554688 592.28125 824.664063 592.347656 829.015625 C 592.460938 836.585938 616 842.621094 622 844 L 618 835 L 619 835 C 624.4375 844 636.679688 839.71875 642.398438 847.226563 C 646.394531 852.476563 644.800781 862 648.363281 868 C 652.792969 875.621094 661 879.246094 668 884.027344 C 675.414063 889.097656 681.636719 895.535156 690 899.128906 C 704.652344 905.421875 726.574219 897.214844 737.894531 909.042969 C 749 920.65625 746.386719 943 747.828125 958 C 748.445313 964.4375 746.601563 973.097656 753 977 C 753 957.664063 748.4375 924.496094 762.328125 909.09375 C 774.550781 895.546875 796.746094 905.8125 812 898.191406 C 819.4375 894.476563 825.1875 888.382813 832 883.746094 C 838.773438 879.136719 847.324219 876.039063 852 869 C 856.367188 862.492188 854.46875 853 858.742188 847.339844 C 864 840.394531 875.582031 844 881 836.785156 C 885.402344 831.371094 885.464844 822.558594 886 816 C 887.609375 799.503906 891.605469 780.109375 886.25 764 C 880 745.226563 857.171875 737 842 727 C 833 721.117188 824.242188 715 814 711.519531 C 794.214844 705 774.265625 708 754 708 C 731.476563 708 706.675781 705.222656 685 712.515625 C 670.453125 717.410156 657.644531 727.234375 645 735.667969 C 635.480469 742.011719 624.785156 747.558594 617.929688 757 C 604.492188 775.503906 614.828125 805.058594 615 826 M 742 734.285156 C 768.542969 731.144531 796.828125 738.769531 821 749.148438 C 827.816406 752.078125 835.378906 755.285156 840.941406 760.328125 C 844.214844 763.296875 846.175781 768.089844 840.941406 770.257813 C 836.488281 772.101563 830.421875 770 826 769 C 815.371094 766.277344 804.90625 762.609375 794 761.285156 C 779 759.476563 766.632813 771 752 770.820313 C 734.835938 770.765625 720 760.359375 702 762.171875 C 690.699219 763.300781 680 768.203125 669 770.078125 C 665.445313 770.675781 659.511719 772.050781 657 768.347656 C 652.609375 761.683594 669.902344 754.308594 674 752.246094 C 695.445313 741.453125 718.34375 737.085938 742 734.285156 M 875 742 C 880.296875 750.007813 887.371094 756.675781 890.476563 766 C 897.890625 788.269531 890.277344 822.492188 881 843 C 890.503906 840.800781 922.839844 829 898 823 C 901.757813 819.570313 913.929688 814.746094 915.652344 810.46875 C 917.246094 806.523438 903.207031 803.460938 903.207031 798.039063 C 903.207031 792.589844 912.671875 793.734375 912.808594 789.570313 C 912.941406 785.523438 906.242188 780.128906 904 777 C 895.675781 765.097656 889.59375 747.652344 875 742 M 624 836 C 640.570313 829 660.273438 835 674.671875 820.535156 C 686.941406 808.261719 669.636719 787.542969 692 779.550781 C 722.726563 768.5625 735 815.210938 723.316406 836 C 712.589844 855 673.71875 876.449219 658.214844 851 C 656.570313 848.304688 652.832031 840.195313 659 840.675781 C 677.367188 842.089844 693.960938 856.375 710.824219 839.816406 C 723 828 724.851563 806.730469 712.90625 794.015625 C 708.78125 789.625 703.40625 785.386719 697 786.226563 C 678.464844 788.660156 690.585938 812.429688 683.851563 823 C 673.707031 838.824219 640.253906 840 624 836 M 877 835 C 872.582031 838.019531 866.191406 837.113281 861 837 C 846.988281 836.640625 824 836 816 822 C 810.550781 812.304688 819 776 795 788 C 769 801 777.65625 845.199219 806 848.519531 C 814.183594 849.480469 823.550781 846.207031 831 843.140625 C 834.300781 841.78125 839.988281 838.054688 843.667969 839.648438 C 848.191406 841.601563 842.699219 850.542969 841 853 C 834.871094 862 821.578125 862.027344 812 860.195313 C 787.230469 855.453125 770.890625 835.359375 772 810 C 772.890625 791.269531 791.664063 772.019531 811 780.53125 C 828.753906 788.351563 816 803.714844 822.179688 816 C 830.886719 833.410156 860.203125 835 877 835 M 499 800 C 499 830.539063 501.441406 859.65625 510.28125 889 C 512.457031 896.226563 513.984375 912.441406 520 917 C 520.394531 898 533.863281 885.417969 538 868 C 533.8125 868.363281 529.914063 869.5 526 871 C 527 847.007813 541.949219 825.457031 543 801 C 535.429688 805.140625 532 818 522 818.265625 C 511.785156 818.589844 507 804 499 800 M 1328 800 C 1328.683594 801.578125 1328.804688 801.777344 1330 803 C 1329.316406 801.421875 1329.195313 801.222656 1328 800 M 960 801 C 960 818.082031 965.796875 834.019531 971.34375 850 C 972.796875 854.179688 978.785156 864.359375 975.933594 868.589844 C 973.792969 871.757813 966.980469 868.441406 964 868 C 967.289063 878.019531 973.953125 886.21875 977.796875 896 C 980.394531 902.613281 980.40625 911.011719 984 917 C 995.6875 890.605469 1001.308594 856.695313 1002 828 C 1002.234375 819.113281 1004.582031 809.734375 1002 801 C 990 809.394531 982.402344 826.714844 968.183594 811 C 965.277344 807.769531 963 804.042969 960 801 M 616 826 L 616 829 L 615 829 C 615.25 827.550781 615.316406 827.246094 616 826 M 616.667969 830.667969 C 616.722656 830.722656 616.777344 831.777344 616.332031 831.332031 C 616.277344 831.277344 616.222656 830.222656 616.667969 830.667969 M 617.667969 833.667969 C 617.722656 833.722656 617.777344 834.777344 617.332031 834.332031 C 617.277344 834.277344 617.222656 833.222656 617.667969 833.667969 M 1128 866 C 1124.609375 880.640625 1115.917969 893.410156 1109.859375 907 C 1097.730469 934.21875 1086.753906 962.710938 1080.800781 992 C 1078 1005.617188 1076 1019.378906 1073.398438 1033 C 1072 1039.203125 1071.839844 1046.53125 1067 1051 C 1060 1036.597656 1065.558594 1017 1068 1002 C 1074 966.640625 1084 930.304688 1102 899 C 1108.96875 886.800781 1116 874 1128 866 M 374 867 C 384.523438 877.316406 391.785156 892.15625 398.769531 905 C 415 935.109375 427 966.347656 433.800781 1000 C 437.296875 1017.472656 441.550781 1034.53125 436 1052 L 435 1052 C 427 1032.601563 426 1012.28125 421.574219 992 C 416.664063 969.757813 409 948.117188 400.601563 927 C 394.769531 912.421875 388.289063 898.15625 381.515625 884 C 378.972656 878.683594 373.808594 873.109375 374 867 M 602 905 C 613.320313 903 623 893.734375 634 890 C 624.238281 904.472656 608.859375 916.601563 601 932 C 613 929.140625 622.328125 920 634 916 C 621 929.113281 605 945.128906 596 961 C 613.96875 957.796875 634 942.234375 648 931 C 644.769531 953 624.585938 963.023438 608 974 L 608 975 C 624.378906 972.792969 637.535156 962.453125 653 958 C 643.941406 967 633 974.789063 622 981 L 622 982 C 625.246094 981.71875 640.753906 975.613281 640.652344 982.121094 C 640.5625 988.023438 630.492188 992.699219 628 998 C 636.601563 996 644.230469 991.296875 653 989.613281 C 667 987 681.425781 988.59375 694 980.453125 C 703.617188 974.226563 709.410156 964.214844 717 956 C 720 952.808594 724.242188 948 729 947.621094 C 739 947.136719 736.464844 961.121094 736 967 C 744.585938 959.503906 738.855469 949.507813 738 940.089844 C 737 929.527344 743.300781 922.5625 733.816406 913.132813 C 724 903.394531 701 912.078125 688 906.535156 C 675.867188 901.421875 660.953125 889.429688 651 880.699219 C 647 877.3125 644 869.277344 638.960938 868.046875 C 634.328125 867 629.171875 871.398438 626 874.183594 C 616.371094 882.640625 607.445313 893.347656 602 905 M 766 967 C 764 961.222656 760.488281 947.339844 771 947.363281 C 783.910156 947.390625 795 972.007813 805 979 C 818.179688 988.265625 833 986.472656 848 989.667969 C 856.929688 991.578125 865 996.652344 874 998 C 870.425781 993.140625 860.984375 988.359375 860 982.109375 C 858.917969 974.386719 877 982.046875 880 983 C 874.71875 974.359375 855 962.691406 846 958 L 846 957 C 861.390625 962.015625 876.71875 972.578125 893 974 L 893 973 C 873.6875 961.730469 859.503906 953 852 931 C 868.953125 942.589844 884.664063 953.496094 904 961 C 898.382813 943.367188 877.914063 928.636719 866 915 C 877.96875 919.644531 888.59375 929 901 932 C 891.707031 917.074219 878.898438 903 867 890 C 878.390625 894 888 903.207031 900 905 C 893.566406 893.445313 884.597656 881 874 873 C 870.628906 870.34375 865.59375 866.183594 861 867.648438 C 855.460938 869.421875 853 877 848.90625 880.675781 C 839.273438 889.40625 823.992188 902 812 907 C 798.933594 912.257813 775.257813 903 765.761719 913.328125 C 756.8125 923.203125 763.527344 929.410156 762.65625 940 C 761.917969 949 755.277344 961.5 766 967 M 223 872 L 223 876 L 225 876 L 225 872 L 223 872 M 526 898 C 520.554688 917.371094 523.464844 937.484375 519 957 C 508.386719 1005.144531 477.863281 1051.613281 504.863281 1100 C 509.507813 1108.324219 515.183594 1115.335938 522 1122 C 530 1129.808594 539.511719 1135.765625 550 1139.679688 C 562.429688 1144.320313 573.800781 1146 587 1146 C 572.429688 1163.523438 549.714844 1172.777344 537 1192 C 557.871094 1184.359375 576.402344 1165.730469 596 1155 C 598.609375 1153.414063 614.742188 1144.101563 616.792969 1148.640625 C 617.921875 1151.132813 613.488281 1154.132813 611.996094 1155.410156 C 605.320313 1161.121094 598.648438 1167 592 1172.574219 C 575.644531 1186.699219 560.785156 1202.203125 545 1217 C 535.976563 1225.316406 523.925781 1234.371094 519 1246 C 532 1241.03125 540.800781 1228.28125 551 1219.285156 C 576.636719 1196.675781 601.339844 1170.574219 633 1156.3125 C 644.417969 1151.167969 654.957031 1152 667 1150.828125 C 670.835938 1150.472656 678.65625 1149 678.523438 1155.054688 C 678.265625 1167.140625 663.199219 1181.449219 655 1188.828125 C 626.855469 1214.160156 570.695313 1222.769531 567 1268 L 568 1268 C 572.761719 1260 577.222656 1251.832031 584 1245.171875 C 608.617188 1221.378906 643.988281 1214.523438 672 1196.136719 C 679.921875 1191 687.421875 1184.65625 693 1177 C 694.664063 1175 697.496094 1168.054688 700.660156 1168.054688 C 704.898438 1168.054688 702.699219 1181.6875 702 1184 C 698.621094 1196.75 687.753906 1207.175781 678 1215.410156 C 659.253906 1231.234375 638.84375 1242.832031 617 1253.753906 C 599.957031 1262.273438 579.683594 1273.308594 574 1293 C 588.230469 1281.515625 598 1268 615 1259.257813 C 652.25 1240.027344 716.894531 1233.074219 726 1182 L 727 1182 C 724.273438 1203.101563 715.273438 1226.160156 698 1239.472656 C 683.203125 1251 662.515625 1256.5 646 1265.21875 C 634.699219 1271.183594 611.703125 1277.03125 606 1289 C 620.425781 1289 632.652344 1281.453125 646 1277 C 684.328125 1264.210938 717.992188 1250.007813 747 1221 C 741 1250 721.253906 1290.285156 688 1293 L 688 1294 C 726.902344 1298.277344 747.253906 1260.386719 761 1231 C 772.863281 1268.105469 744.269531 1305.558594 717 1327.738281 C 708.34375 1334.78125 690.355469 1341.554688 685 1351 C 737.734375 1330.546875 785.402344 1282.636719 788 1223 L 789 1223 C 797.964844 1260.742188 840.507813 1291 873 1307.246094 C 884.632813 1313.0625 896.644531 1320.722656 910 1321 C 904.789063 1311 884.566406 1306.058594 875 1300.398438 C 845.996094 1283.238281 806.777344 1254.488281 806 1217 C 831.703125 1237.71875 855.378906 1260 883 1278.332031 C 893.523438 1285.351563 905 1295.074219 918 1297 L 918 1296 C 888.320313 1282 863.402344 1259.488281 841.84375 1235 C 831 1222.691406 820.734375 1210.09375 820 1193 C 826.203125 1199.253906 831.324219 1206 839 1210.546875 C 856.730469 1221.125 877.984375 1223.832031 896 1234 C 912.347656 1243 923.675781 1255.691406 934 1271 L 935 1271 C 933.28125 1259.375 926 1248.285156 917.984375 1240 C 896.9375 1218.390625 868.230469 1205.652344 848.285156 1183 C 841 1175 834 1166.523438 828.863281 1157 C 827.746094 1155 823.824219 1149.4375 825.933594 1147.183594 C 828.613281 1144.3125 836.898438 1147.832031 840 1148.628906 C 854 1152.246094 867.421875 1158 880 1165.148438 C 891.875 1172 903 1182.300781 916 1187 C 905.25 1169.8125 887 1157.699219 875 1141 C 931.46875 1143.425781 976.46875 1210.59375 983 1262 L 984 1262 C 984 1229.417969 970.816406 1195.277344 950.386719 1170 C 942.6875 1160.472656 934.480469 1151 923 1146 L 923 1145 C 935.214844 1145 946.949219 1142 958 1136.679688 C 967 1132.363281 975.914063 1126.175781 982.960938 1119 C 1009.859375 1091.535156 1012.644531 1051.289063 1002.574219 1016 C 997.621094 998.648438 989.316406 982.402344 984.429688 965 C 980.304688 950.324219 982 934.089844 981 919 C 980.570313 912.355469 980.175781 903 974 899 C 978 921.03125 970.988281 943 974.4375 965 C 981 1007.378906 1011.828125 1049.242188 984.65625 1091 C 980.535156 1097.328125 975.746094 1103.171875 969.984375 1108.078125 C 962.9375 1114.085938 954.867188 1119.148438 946 1122 C 929.863281 1127.105469 911.683594 1126 896 1119.546875 C 885.578125 1115.339844 876.253906 1108.484375 865 1106.464844 C 846.441406 1103.132813 829.316406 1117.410156 811 1118 C 788.292969 1118.441406 767.996094 1103.476563 745 1105.089844 C 729.933594 1106.144531 716.328125 1115 701 1114 C 680.179688 1112.484375 661.398438 1100.148438 640 1103.300781 C 628.21875 1105.035156 618.742188 1113.519531 608 1118 C 583.878906 1128.019531 554.578125 1127.246094 534 1109.699219 C 527.949219 1104.539063 522.675781 1098.65625 518.34375 1092 C 491.835938 1051.269531 517 1013 525.984375 972 C 529.660156 955.042969 528.21875 937.085938 526.285156 920 C 525.472656 912.816406 528.890625 905 526 898 M 655 956 C 654.453125 957.636719 654.636719 957.453125 653 958 C 653.546875 956.363281 653.363281 956.546875 655 956 M 1169 966 L 1169 973 L 1168 973 C 1168 970.457031 1168 968.332031 1169 966 M 644 1021 C 645.351563 1024.570313 650.207031 1029.828125 649.183594 1033.773438 C 648.316406 1037.113281 643.6875 1037.050781 641 1036.824219 C 632.804688 1036.148438 625.179688 1032.667969 617 1032 C 619.429688 1036.640625 631.1875 1043.597656 630.367188 1048.773438 C 629.890625 1051.808594 624.183594 1053.144531 622 1054.644531 C 609 1063.488281 604.40625 1061.671875 596 1048 L 595 1048 C 595 1056.808594 594.453125 1061 589 1068 C 596.394531 1070.175781 601.242188 1075.160156 606 1081 C 597.898438 1080 590 1077.105469 582 1079.289063 C 573 1081.660156 564.515625 1089.464844 555 1088.445313 C 542.867188 1087.148438 534.300781 1076 523 1072 C 524.292969 1080.585938 529.996094 1086.132813 536 1092 C 551.566406 1107.171875 573.285156 1116.402344 595 1111.101563 C 610.742188 1107.257813 622.882813 1096.117188 634 1085 C 651.195313 1067.804688 666.753906 1049.160156 684 1032 C 693.464844 1022.578125 708.5 1011 711 997 C 693 1002.726563 680 1027.660156 660 1027.652344 C 653.941406 1027.652344 649.207031 1023.460938 644 1021 M 788 997 C 798.511719 1022.238281 822.664063 1038 840.960938 1057 C 858.953125 1075.816406 873 1100.226563 899 1109 C 926.617188 1118.316406 969 1103.125 978 1073 C 965.738281 1075.1875 957.757813 1088.441406 945 1089 C 935.910156 1089.171875 928.316406 1082.339844 920 1079.773438 C 912 1077.316406 903.894531 1079 896 1081 C 900.816406 1075.488281 905.175781 1071 912 1068 C 907 1061 905.90625 1057.660156 907 1049 C 901.96875 1052.621094 896.308594 1063.464844 889 1061.21875 C 885.199219 1060.050781 882.246094 1056.558594 879 1054.410156 C 876.449219 1052.722656 870.417969 1051.03125 871.496094 1047 C 873 1040.765625 882 1036.800781 886 1032 C 877.433594 1032.371094 869.570313 1036.464844 861 1037 C 858 1037.058594 853.585938 1036.671875 852.996094 1033 C 852.390625 1029.105469 856.679688 1024.488281 858 1021 C 852.949219 1023.6875 847.886719 1027.328125 842 1027.777344 C 819.570313 1029.484375 808 1001 788 997 M 659 1078 C 668 1071.609375 679.257813 1054.785156 683 1074 L 684 1074 C 686.90625 1067.023438 690.714844 1061.398438 696 1056 L 695 1063 C 708 1053.636719 716.382813 1039.8125 732 1033.453125 C 757.558594 1023.050781 786.691406 1045.578125 789 1072 C 791.417969 1070.1875 792 1068 793 1065 C 797.296875 1070.175781 799.917969 1075 807 1076 C 802.785156 1068.273438 802.59375 1057.273438 815 1060.789063 C 825.875 1064 831.839844 1076 843 1078 C 830.300781 1051.152344 806.890625 1035.558594 784 1018.523438 C 774.578125 1011.507813 765.476563 1001.039063 753 1000.09375 C 739.394531 999.0625 728.953125 1008.105469 719 1016 C 697.757813 1033 668.777344 1051.296875 659 1078 M 289 1016 L 288 1017 L 289 1016 M 1210 1018 C 1208.363281 1017.453125 1208.546875 1017.636719 1208 1016 C 1209.636719 1016.546875 1209.453125 1016.363281 1210 1018 M 300.667969 1072.667969 C 300.722656 1072.722656 300.777344 1073.777344 300.332031 1073.332031 C 300.277344 1073.277344 300.222656 1072.222656 300.667969 1072.667969 M 1201 1073 L 1200 1074 L 1201 1073 M 654 1092 C 660.808594 1104.414063 684.6875 1105.058594 697 1105 C 713.429688 1105 726.613281 1091.757813 742 1092.054688 C 754 1092.285156 766.554688 1099.433594 778 1103 C 792.417969 1107.4375 807.199219 1108.15625 822 1105.191406 C 831.546875 1103.28125 841.84375 1099.730469 847 1091 C 830.808594 1093.179688 817.523438 1097.589844 801 1094 C 782.691406 1090 767.292969 1078.777344 748 1079.003906 C 730.347656 1079.214844 713.980469 1089.207031 697 1093.113281 C 681.453125 1096.6875 669.28125 1094.246094 654 1092 M 498 1119 C 499.273438 1133.597656 507.917969 1142 503 1157 C 514.953125 1147.609375 507.417969 1127.632813 498 1119 M 1002 1121 C 994.894531 1133.175781 988 1145.179688 997 1158 L 998 1158 C 997.261719 1153 995.191406 1148.125 996.636719 1143 C 998.523438 1136.3125 1005.988281 1128 1002 1121 M 967 1139 C 974 1195.257813 995 1250.792969 1053 1272 C 1048 1259.402344 1043.925781 1244.285156 1034.816406 1234.003906 C 1021.226563 1218.667969 1002.816406 1210.773438 990.746094 1193 C 984.179688 1183.332031 978.5625 1172.148438 975 1161 C 972.757813 1153.828125 972.398438 1144.578125 967 1139 M 332 1142 L 331 1143 L 332 1142 M 330.667969 1144.667969 C 330.722656 1144.722656 330.777344 1145.777344 330.332031 1145.332031 C 330.277344 1145.277344 330.222656 1144.222656 330.667969 1144.667969 M 533 1147 C 512.535156 1193 463 1222.050781 449 1271 C 486.222656 1251.183594 509.675781 1222.3125 524 1183 C 527.574219 1173.371094 537.3125 1157.300781 533 1147 M 487 1148 C 482.308594 1162 480.59375 1172 486 1186 L 487 1186 C 486.882813 1180.308594 485.5 1174.714844 486.183594 1169 C 487 1162.214844 491.695313 1154.199219 487 1148 M 1013 1148 L 1014 1189 L 1015 1189 C 1018.960938 1176.613281 1022.757813 1159 1013 1148 M 219 1194 C 216.511719 1204.753906 211.222656 1220.457031 200 1225 C 194.824219 1227 188.453125 1226 183 1226 L 183 1227 C 189.398438 1228.242188 197.605469 1230.714844 204 1228.257813 C 214.507813 1224.222656 219.519531 1204.015625 221 1194 L 219 1194 M 892 1195 C 897 1205.644531 906.992188 1213.226563 914.574219 1222 C 934.253906 1244.777344 954.988281 1285 988 1285 L 988 1283 C 972 1282.660156 962.910156 1269.203125 953.585938 1258 C 940.808594 1242.648438 928 1227.128906 914 1213 C 907.5 1206.5 900.507813 1198.792969 892 1195 M 1281 1195 C 1281.480469 1206.007813 1286.492188 1225 1298 1229.257813 C 1304.222656 1231.636719 1311.734375 1228.808594 1318 1228 L 1318 1227 C 1311.441406 1225.578125 1305.277344 1227.824219 1299 1224 C 1288 1217.300781 1289.320313 1203.304688 1281 1195 M 442 1196 L 442 1200 L 443 1200 C 442.824219 1198.316406 442.683594 1197.507813 442 1196 M 1059 1199 C 1062 1222.132813 1075.195313 1245 1084.425781 1266 C 1088.183594 1274.613281 1096.445313 1286.179688 1094.769531 1296 C 1093 1305.6875 1080.460938 1306.34375 1073 1308.746094 C 1060.980469 1312.617188 1052.5625 1321.0625 1052 1334 L 1053 1334 C 1057 1325.40625 1061.527344 1319 1071 1315.75 C 1080 1312.746094 1093.554688 1314 1099.257813 1305 C 1104.601563 1296.605469 1097.8125 1285.632813 1094.308594 1278 C 1086.578125 1261.164063 1078.484375 1244.285156 1071.8125 1227 C 1068.296875 1218 1066 1206.035156 1059 1199 M 440 1201 C 435.804688 1225.371094 419.675781 1249.65625 409.5625 1272 C 405.632813 1280.6875 397.445313 1290.8125 400.652344 1301 C 403.664063 1310.570313 414.777344 1311.195313 423 1313.015625 C 435.355469 1315.746094 446.984375 1322.554688 449 1336 L 450 1336 C 451.613281 1321 439.324219 1310.714844 426 1307.15625 C 419.226563 1305.347656 407.234375 1304 406.320313 1295 C 405.507813 1287.003906 412.316406 1277.183594 415.199219 1270 C 420.828125 1256 426.496094 1242 432.425781 1228 C 436.191406 1219.175781 441.203125 1210.730469 442 1201 L 440 1201 M 531 1278 C 542.488281 1275.777344 547.203125 1263.125 552.425781 1254 C 560 1240.597656 570.773438 1228.359375 583 1219 C 588.617188 1214.535156 594.546875 1210.511719 601 1207.488281 C 605.222656 1205.511719 611 1204.800781 614 1201 C 576.605469 1202.628906 556.5625 1238 540 1266 C 537.546875 1270.414063 533.496094 1273.632813 531 1278 M 748 1220 L 747 1221 L 748 1220 M 394.667969 1226.667969 C 394.722656 1226.722656 394.777344 1227.777344 394.332031 1227.332031 C 394.277344 1227.277344 394.222656 1226.222656 394.667969 1226.667969 M 1108 1228 L 1107 1229 L 1108 1228 "/>
</g>
</svg>
