<?xml version="1.0" encoding="UTF-8"?>
<svg xmlns="http://www.w3.org/2000/svg" xmlns:xlink="http://www.w3.org/1999/xlink" width="1500pt" height="1500pt" viewBox="0 0 1500 1500" version="1.1">
<g id="surface1">
<path style=" stroke:none;fill-rule:nonzero;fill:rgb(0%,0%,0%);fill-opacity:1;" d="M 322 911 C 330.347656 905.761719 334.558594 896.296875 343 891 C 338.445313 905.40625 337 919.359375 327.765625 932 C 325.429688 935.148438 319.609375 941.273438 322.835938 945.484375 C 326.757813 950.613281 337.6875 947.226563 343 947 C 340.324219 950.507813 329.449219 967.296875 338.226563 969.667969 C 345 971.5 352.925781 963.449219 358 960 C 341.382813 1000 330.277344 1036.601563 341.886719 1080 C 344.828125 1091.011719 351 1100.628906 355.574219 1111 C 360.675781 1122.726563 364.636719 1134.496094 372 1145 C 374.410156 1148.171875 377.394531 1153.703125 381.871094 1154 C 388.292969 1154.214844 384 1134 384 1130 L 385 1130 C 386.496094 1138.390625 392.171875 1145.378906 395.691406 1153 C 400.851563 1164.179688 404.480469 1177 406.738281 1189 C 407.765625 1194.492188 407.371094 1207 413.222656 1210 C 416.851563 1211.730469 419.621094 1208 420.890625 1205 C 424.246094 1197.460938 425.648438 1188.183594 426 1180 C 434 1189.554688 438.675781 1201.394531 438.984375 1214 C 439 1220.40625 435.566406 1232.257813 439 1237.832031 C 441.308594 1241.511719 445.203125 1239.390625 447.363281 1236.808594 C 451.566406 1231.792969 453.480469 1224.375 454 1218 L 455 1218 C 456.542969 1229.460938 460.941406 1240.285156 461 1252 C 461 1256.175781 459.71875 1263.371094 463.433594 1266.378906 C 473.355469 1274.40625 480.269531 1241.71875 487.871094 1246 C 491.675781 1248 493.800781 1252.824219 497 1255.609375 C 501.941406 1259.71875 507.472656 1262.121094 511.816406 1267.003906 C 518 1274 521.769531 1282.707031 527.519531 1290 C 535.542969 1300.183594 546.304688 1308 555.996094 1316.425781 C 561.746094 1321.453125 565.648438 1328.152344 573 1331 C 569.652344 1313.222656 561.878906 1298.546875 555 1282 C 567.632813 1289.039063 577.8125 1299.800781 590 1307.5625 C 616.746094 1324.601563 645.507813 1339.40625 673 1355.285156 C 681.910156 1360.429688 689.167969 1367.195313 694.550781 1376 C 695.949219 1378.285156 698.222656 1383.78125 701.785156 1382.652344 C 711 1379.734375 701.757813 1357.191406 700 1352 C 716.503906 1354.4375 732 1360.753906 749 1362 C 772.933594 1363.550781 797 1357.441406 820 1351 C 815 1358 812.625 1365.457031 813 1374 C 813 1376.523438 813.550781 1382.363281 817.179688 1382.363281 C 821.480469 1382.363281 823.742188 1375 825.789063 1372 C 831 1364.65625 838.34375 1359.019531 846 1354.398438 C 870.976563 1339.324219 897.300781 1326.347656 922 1311 C 936 1302.125 947.882813 1289.152344 963 1282 C 953.746094 1297.121094 945 1314 945 1332 C 959.988281 1321 979 1305 990.238281 1290 C 996.214844 1282.003906 1000 1272.230469 1007 1265.042969 C 1011 1261 1016.464844 1259.023438 1020.824219 1255.390625 C 1024 1252.734375 1026 1247.574219 1029.996094 1246 C 1037.183594 1243 1044.414063 1274 1053.566406 1267.289063 C 1057.183594 1264.683594 1055.960938 1257.804688 1056 1254 C 1056 1241.585938 1060.941406 1230.128906 1062 1218 L 1063 1218 C 1064.4375 1224.21875 1066.273438 1232 1070.53125 1237 C 1072.261719 1239 1075.777344 1241.652344 1077.972656 1238.636719 C 1081.570313 1233.695313 1077.871094 1221.828125 1078 1216 C 1078.34375 1202.488281 1082.855469 1189.023438 1092 1179 C 1092 1188 1092.839844 1196.777344 1096.46875 1205 C 1097.933594 1208.3125 1101.53125 1212.78125 1105.347656 1209.390625 C 1110.636719 1204.695313 1109.773438 1192.4375 1111.375 1186 C 1114.207031 1174.597656 1117.214844 1162.8125 1121.871094 1152 C 1124.960938 1144.828125 1129.824219 1138.558594 1132 1131 L 1133 1131 C 1132.910156 1135.390625 1128.933594 1151.503906 1134.316406 1153.628906 C 1140.449219 1156.046875 1148.25 1141.058594 1150.570313 1137 C 1155.792969 1128 1158.625 1117.582031 1162.863281 1108 C 1168.839844 1094.476563 1175.355469 1082.597656 1178.574219 1068 C 1183.246094 1046.820313 1183.429688 1024.828125 1176.972656 1004 C 1172.324219 989 1164 975.125 1160 960 C 1164.355469 963 1183 977.378906 1182.863281 964 C 1182.785156 960 1177 952 1178.445313 948.617188 C 1179.597656 946 1189.6875 948.351563 1192.679688 946.0625 C 1198.925781 941.292969 1188.292969 927.761719 1185.78125 923 C 1182 916 1178.988281 908.695313 1176.722656 901 C 1176.335938 899.691406 1174.246094 894.167969 1176.644531 893.632813 C 1181.757813 892.484375 1190.945313 908.636719 1196 911 C 1196.480469 899.777344 1197.589844 889.027344 1194.277344 878 C 1192 871 1187.417969 865.046875 1185.222656 858 C 1181 844.472656 1178.339844 829.796875 1174.429688 816 C 1166.195313 787 1163.46875 757.605469 1152.574219 729 C 1145 709.402344 1127.835938 690 1125 669 C 1122.269531 646.492188 1135 635 1143.484375 616 C 1150.664063 600 1146.605469 581.261719 1153.464844 565 C 1159.628906 550.382813 1174.355469 541.285156 1180.546875 526 C 1189.597656 503.65625 1189 478.425781 1185.574219 455 C 1184 444.671875 1180.269531 434.472656 1180 424 C 1179.570313 405.796875 1180.917969 387.042969 1183.289063 369 C 1184.335938 361.039063 1187 353.101563 1186.945313 345 C 1186.65625 330 1182.777344 315 1181 300 C 1177.5625 266.46875 1173.222656 233.097656 1166.601563 200 C 1159 162.171875 1141 114.03125 1094 116.105469 C 1064.835938 117.386719 1043.820313 136.488281 1023 154.574219 C 972.242188 198.667969 939.953125 260.515625 901.425781 315 C 881 343.671875 868.757813 384.128906 827 386 C 801.214844 387.09375 775.742188 381 750 382.039063 C 721.320313 383.296875 683.472656 396.234375 659 374.816406 C 640.988281 359.050781 631.359375 336.421875 617.972656 317 C 583 266.484375 551.378906 210.378906 508 167 C 486.78125 145.78125 461.347656 117.457031 429 116.039063 C 383.832031 114.058594 362.914063 154.832031 353.371094 193 C 344.996094 226.507813 341.515625 260.753906 337.835938 295 C 336.191406 310.273438 332.1875 325.605469 332 341 C 331.652344 370.394531 338.726563 399.25 337.984375 429 C 337.765625 438 333.726563 446.246094 332.425781 455 C 329 477.71875 328 502.125 336.230469 524 C 342.367188 540.433594 357.992188 548.75 364.53125 564 C 371.765625 581 368.183594 600.066406 375.429688 617 C 381.757813 631.789063 395.617188 645.660156 393.558594 663 C 390.828125 686 374.46875 704 366.425781 725 C 356.753906 750.398438 352.398438 776.632813 346.347656 803 C 342.445313 820.003906 336.835938 836 333.539063 853 C 331.765625 862.230469 325.398438 869.15625 322.785156 878 C 319.621094 888.695313 321 900.128906 322 911 M 546 273 C 540.253906 257.769531 534.792969 244.015625 526.1875 230 C 517.453125 215.765625 506.460938 202.515625 500 187 C 521.460938 199.390625 535.34375 224.3125 547.601563 245 C 563.9375 272.566406 586.535156 302.117188 592.996094 334 C 596.367188 350.636719 593 366.347656 593 383 L 592 383 C 591.6875 345.113281 579 301.222656 552 274 C 558 288.6875 567.222656 301.667969 571.972656 317 C 581.734375 348.5 579 382 575 414 L 574 414 C 565.191406 366.546875 561.984375 314.703125 529 276 C 540.9375 304.675781 553.296875 332 557.714844 363 C 561 387.167969 559 410.800781 559 435 L 558 435 C 553.796875 424.757813 549.246094 409.214844 542 401 C 543.804688 414.398438 550.257813 427.347656 549.984375 441 C 549.792969 450.617188 544.296875 458 539 446 L 538 446 C 538.960938 453.4375 540.957031 481.738281 532 461 L 531 461 C 531 470.324219 533.210938 482.527344 522 473 C 522.972656 477.089844 524.21875 490.832031 516 488.652344 C 511 487.339844 507.722656 477.75 504.6875 474 C 491.804688 458.0625 477.175781 438.003906 489 417 L 490 417 C 486.964844 429.746094 492.410156 446.148438 502 455 C 502.546875 428.484375 505.371094 404.351563 499 378 C 494.714844 359.453125 485 343.804688 479 326 L 480 326 C 490.484375 341.554688 499.859375 358 507.691406 375 C 511.878906 384.121094 515.433594 397.554688 522 405 C 515.890625 381.394531 507.898438 357.765625 496.742188 336 C 491 325.011719 482.761719 315.371094 478 304 C 493.792969 311.503906 508 329.105469 515 345 L 516 345 C 512 319.3125 487.46875 295.476563 469 279.285156 C 457.941406 269.585938 443.394531 259.230469 438 245 C 447.8125 250.589844 455 259.492188 464 266.347656 C 482.691406 280.757813 510.53125 296 521 318 L 522 318 C 518 306 507.816406 294.832031 499 286 C 484.664063 271.640625 469.65625 258.054688 455 244.039063 C 446 235.585938 434.609375 227.269531 431 215 C 442.695313 222.316406 449.628906 234.808594 460 243.699219 C 470.996094 253.128906 484 259.585938 496 267.671875 C 505 274 513 281.570313 522 288 C 509.765625 266.046875 487.945313 252.625 470 236 C 455 222 442.875 202.8125 435 184 C 451.800781 185.371094 470.34375 198.574219 477 214 L 478 214 C 471.46875 190.117188 429.375 151.3125 407.328125 178 C 391.355469 197.335938 397.226563 221.550781 399 244 L 398 244 C 395.433594 233 392 222.539063 392 211 C 381 223.792969 380.449219 242.019531 382.730469 258 C 387.503906 291.484375 409 322.046875 409 356 C 390.710938 349.78125 392.617188 325.515625 379 315 C 380.546875 351 394 383.519531 415.882813 412 C 428.738281 429 451.550781 447.625 458 468 C 431.398438 449.261719 408.621094 420 394.246094 391 C 388.472656 379.371094 387 359.371094 379 350 C 384.675781 373.566406 386.339844 396.214844 398.3125 418 C 414.699219 447.820313 441.910156 475 450 509 L 449 509 C 440.714844 491.488281 425.972656 477.175781 413.171875 463 C 408 457.359375 404.390625 450.222656 399 445 C 402.855469 473.488281 429.851563 494.214844 432.828125 524 C 434.964844 545.371094 411.738281 557.265625 413 579 C 416 574.1875 419 570 424 567 C 422.738281 582.453125 412.511719 595.210938 409 610 C 412.765625 606.246094 416.378906 602.671875 421 600 C 417.515625 608.324219 409.476563 622 399 614.347656 C 385 604.226563 388.667969 580.589844 383.453125 566 C 378.277344 551.523438 365.273438 542.496094 357 530 C 349 518 346.597656 502.257813 346 488 C 345.585938 476.363281 347.632813 463.210938 350.746094 452 C 351.652344 448.738281 353.292969 441.308594 357.976563 442 C 365 443 367.976563 460.375 368.710938 466 C 370.625 480.679688 367.371094 499.394531 379.183594 510.785156 C 383.617188 515.058594 389.960938 515.457031 394.824219 519 C 398.910156 522 403.832031 534.066406 409.957031 531.824219 C 416 529.601563 417 520.398438 416.984375 515 C 416.679688 499.652344 406.351563 485.4375 396 475 C 395.460938 481.832031 395.980469 488.167969 396 495 C 382.488281 484.398438 376.226563 457.566406 370 442 C 341.832031 371.574219 355.371094 297.339844 368.425781 225 C 373.8125 195.132813 384.691406 140.09375 424 140.078125 C 479.492188 140.0625 505.878906 211.820313 531.332031 250 C 536 257.183594 539.941406 267.007813 546 273 M 1123 494 L 1123 475 C 1111 483.371094 1101.636719 500.296875 1101 515 C 1100.820313 520.386719 1102 529.613281 1108 531.824219 C 1114 534.011719 1118.832031 521.742188 1123 519 C 1127.773438 516 1133.578125 515.542969 1137.984375 511.773438 C 1150.640625 501 1147.613281 482 1149.171875 467 C 1149.753906 461.449219 1153.332031 442.203125 1160.167969 441.058594 C 1164.554688 440.328125 1166 448.066406 1166.84375 451 C 1169.96875 462.691406 1171 475 1171 487 C 1171 502.191406 1168.355469 518.070313 1159.898438 531 C 1152 543 1140.59375 551.171875 1135.699219 565 C 1130.464844 579.785156 1133.5 601.339844 1120.894531 612.773438 C 1110.214844 622.457031 1100.214844 608.269531 1097 599 C 1101 602 1104.476563 605.652344 1109 608 C 1102.621094 596.023438 1095 580.652344 1094 567 L 1106 577 C 1102.617188 569.140625 1101.761719 560.347656 1097 553 C 1093.277344 547.175781 1086.363281 543.285156 1085.214844 536 C 1079.890625 502.246094 1111.316406 474.59375 1120 444 C 1114.609375 449.222656 1110.925781 456.359375 1105.828125 462 C 1093 476.175781 1078.277344 490.5 1070 508 L 1069 508 C 1073.261719 479.132813 1097 453.683594 1112.308594 430 C 1128 405.519531 1136.714844 379 1139 350 L 1137 350 C 1135.386719 387.488281 1108.167969 423.714844 1082 448.089844 C 1075 454.527344 1069 462 1061 467 C 1065.671875 451.117188 1080.933594 438.328125 1091.246094 426 C 1110.707031 402.738281 1127.617188 375.71875 1134.871094 346 C 1137.285156 336.113281 1140.304688 323.03125 1138 313 C 1131.359375 327.195313 1126.746094 350.304688 1110 356 C 1110.722656 321.058594 1131.476563 290.460938 1135 256 C 1136.8125 240.613281 1136.261719 222.488281 1126 210 C 1125.96875 221.820313 1122.363281 232.574219 1120 244 L 1119 244 C 1119.488281 220.347656 1127 196.570313 1109.671875 176.015625 C 1101.167969 166.011719 1089.785156 167.726563 1079 172.78125 C 1061.710938 181 1044.496094 194.578125 1040 214 L 1041 214 C 1047.972656 197.367188 1065.75 188.53125 1082 183 C 1072.371094 215.722656 1044.925781 234 1022 256.039063 C 1011.4375 266.261719 1003.582031 279 994 290 C 1003.59375 283.652344 1011.613281 275.121094 1021 268.425781 C 1033.84375 259.265625 1048 252.132813 1060 241.710938 C 1069.566406 233.375 1075.84375 221.449219 1087 215 C 1081.582031 229.289063 1066.835938 240 1056 250.089844 C 1033.894531 270.671875 1011.511719 289.707031 996 316 C 1016 298.695313 1035.246094 281 1056 264.398438 C 1063.777344 258.1875 1070.785156 249 1080 245 C 1070.996094 260.804688 1056 272 1043 284.089844 C 1031.824219 294.5 1022.957031 306.246094 1014.65625 319 C 1009.261719 327.289063 1002.496094 336.003906 1001 346 L 1002 346 C 1007.820313 329 1023.261719 312.410156 1039 304 C 1028.710938 339 997.65625 366.484375 996 405 L 997 405 C 1007.328125 378.382813 1020.230469 351.832031 1036 328 L 1037 328 C 1031.5625 348 1020.601563 365.359375 1016.449219 386 C 1011.789063 409.167969 1015.996094 431.757813 1016 455 C 1025.710938 445.054688 1031 430 1028 416 L 1029 416 C 1039.585938 440 1028.242188 457.230469 1013 475 C 1010.554688 478 1005.183594 489.515625 1001.648438 490.078125 C 993.195313 491.429688 994.703125 477.09375 996 473 C 984.636719 482.375 985.363281 471.386719 988 462 C 973.945313 478.417969 979.582031 454.730469 980 445 C 977 448 975.550781 451.273438 974 455 C 959 443.203125 971.390625 415.417969 976 401 C 968.699219 409.085938 962.875 425.488281 960 436 L 959 436 C 951.792969 397.183594 959.621094 349.625 973 313 C 977.738281 300.226563 984.785156 288.519531 990 276 C 959.320313 309.410156 944.917969 369.585938 944 414 L 943 414 C 940.53125 383 935.910156 354 944 323 C 948.675781 306.039063 956.898438 291.402344 965 276 C 939.4375 301.773438 926 342 926 378 L 925 378 C 924.183594 359.003906 923 340.597656 928.425781 322 C 936.171875 295 955.851563 268.058594 970.199219 244 C 981.425781 225.179688 995.84375 200.289063 1016 190 C 1004 218.386719 972.683594 241.160156 972 274 C 990.359375 243 1008.390625 211.4375 1029.425781 182 C 1047.652344 156.496094 1090.820313 122.011719 1120.960938 151.09375 C 1125.804688 155.769531 1129.628906 162 1132.628906 168 C 1147 197 1150.628906 230.492188 1155.273438 262 C 1163.859375 320.285156 1173.3125 374 1152 431 C 1147 444.441406 1141.578125 457.707031 1136.199219 471 C 1132.992188 479 1129.734375 488.421875 1123 494 M 599 323 C 605.898438 330.230469 608 336.164063 608 346 C 602 341.410156 595.882813 330.644531 599 323 M 919 324 C 917.738281 334.003906 918 339.597656 909 346 C 909.683594 337.363281 910.652344 328.433594 919 324 M 1038 326 L 1037 327 L 1038 326 M 882 381 C 878 390.710938 873.332031 400 868 409 C 878.1875 401.820313 883.898438 390.121094 894 383 C 891.578125 393.21875 885.871094 402.355469 885 413 C 891.558594 407.425781 899.683594 402.394531 908 400 C 905.515625 406 902 411.316406 899 417 C 906.609375 415 914 412.058594 922 411 C 918.96875 417.40625 913.746094 422.507813 911 429 C 916 427.03125 921.5 425.449219 927 425 C 923.4375 433.636719 929.949219 433.410156 937 433 C 935 435.339844 928 439.105469 928.632813 442.574219 C 929.191406 445.675781 935.691406 445.800781 938 446.128906 C 947.921875 447.542969 957.5 449.445313 966 455 L 966 456 C 955.835938 456 942.695313 456 933 453 C 940.347656 461.035156 957.667969 465.011719 968 468 L 968 469 L 955 470 C 960 475.546875 967.324219 477.039063 974 480 C 967 486.027344 981 488.269531 985 493 L 980 495 C 993.261719 501.203125 996.402344 512.148438 1006.171875 523 C 1015.878906 533.785156 1027.636719 540.777344 1040 548 C 1036.433594 550.667969 1031.898438 551.78125 1028 554 L 1046 560 C 1043.285156 562 1040 562.679688 1037 564 C 1044.261719 567.019531 1052.167969 569.117188 1059 573 C 1057.480469 575.300781 1054.824219 578.007813 1055.636719 581 C 1057 586.484375 1064.882813 591 1069 594.414063 C 1078.992188 602.730469 1089.449219 610.5 1096 622 C 1087.253906 622.382813 1079.792969 627.257813 1071 624.238281 C 1054.453125 618.558594 1044 600.105469 1035.601563 586 C 1025 568.554688 1014.808594 554.40625 997 544 C 1011.554688 560 1026.671875 573.03125 1033 595 C 1025.839844 593.722656 1019.371094 589.351563 1013 586 C 1022.363281 595.339844 1038.820313 603 1043 616 C 1035.515625 614.222656 1029 610 1022 607 C 1027.59375 612.59375 1032.980469 618.386719 1040 622.207031 C 1054 629.832031 1070.765625 632.175781 1075 650 C 1055.515625 645.492188 1042.195313 628.558594 1023 624 L 1023 625 C 1035.894531 630.371094 1047.234375 639.519531 1058 648.261719 C 1063.242188 652.519531 1069.667969 659.210938 1077 659 C 1083 658.550781 1087.355469 653.230469 1092 650 C 1091.285156 653.082031 1090.460938 656.167969 1089 659 C 1078.902344 678.617188 1058.679688 657.0625 1048 650 C 1054.570313 659.660156 1061.921875 669 1071 676.382813 C 1078.214844 682.300781 1087.480469 686.332031 1093 694 C 1073.746094 689.546875 1050.84375 681.761719 1035 669.761719 C 1020.789063 659 1011.839844 643 1002.574219 628 C 996.800781 618.730469 990.226563 610.148438 986 600 C 990.183594 601.621094 993.328125 604.492188 997 607 C 985.5 591 977.449219 574 960 563 L 960 562 C 971 565.25 979.890625 574.617188 990 580 C 975.796875 561.359375 950.785156 551 928 548 C 943 561.242188 964.929688 564.804688 972 587 C 950.714844 584.132813 929.683594 570 913 557.117188 C 902.359375 549.003906 892 538.222656 878 537 L 878 538 C 895.386719 544 903.550781 561.230469 917 572.5625 C 926.449219 580.523438 937.546875 587.316406 949 592 C 956.890625 595.199219 966 596.378906 973 601.558594 C 982.636719 608.714844 988.363281 620 992 631 L 986 629 C 993.195313 642.675781 1002 657 1008 671 C 992.578125 670.335938 979.632813 662.21875 970.515625 650 C 966 644 963.632813 636.464844 957.90625 631.328125 C 939.589844 615 905.792969 617 885 625 C 887.640625 619.703125 891.359375 615.488281 896 611.820313 C 926.503906 587.695313 952.695313 616.355469 979 631 C 972.644531 622.425781 965.4375 615 957 608.425781 C 949.773438 602.8125 941.820313 597.730469 933 595.039063 C 889.289063 581.699219 859.210938 637.351563 851 672 L 850 672 C 850.921875 660.425781 855.863281 648.707031 854 637 C 850.1875 643.535156 846 650.714844 844 658 L 843 658 L 843 651 L 842 651 L 836 668 C 828.453125 660.609375 835.257813 645.078125 836 636 L 835 636 C 832.636719 642.246094 828.585938 647.789063 826 654 L 825 654 C 823.878906 645.132813 825 637 825 628 L 824 628 C 823.265625 630.070313 822 634.566406 819 634.078125 C 816 633.589844 814.371094 628.25 812.898438 626 C 807.738281 618.113281 799.71875 611.542969 797.527344 602 C 791 573.804688 812 535.640625 833 518.464844 C 840.476563 512.335938 848.640625 509.40625 857 505 C 820.824219 502.671875 796.714844 539.257813 787.859375 570 C 785.320313 578.824219 781.964844 588.703125 783.300781 598 C 786 617.101563 802.335938 631.058594 807 650 L 803 649 C 807.1875 663.75 816 676.5 821 691 C 817.273438 689.128906 814.371094 686.402344 811 684 C 824.597656 706.117188 850.441406 719.757813 858 746 C 853.570313 745 849.320313 743.40625 845 742 C 857.902344 755 870.578125 772.574219 886 782.289063 C 894.414063 787.589844 904.523438 787.492188 914 789.261719 C 938.972656 794 961 798.019531 982 779 C 967 784 954 790.042969 938 789 C 919.730469 787.628906 896.941406 778.164063 884.175781 765 C 876.980469 757.441406 872.609375 747.605469 867 739 C 861 730.003906 853.257813 720.285156 850 710 C 857.222656 711.402344 864 713.726563 871 716 C 863.242188 708.167969 850.625 707.617188 845 697 C 872.40625 697.226563 894.859375 723 923 718.5625 C 938.578125 716.128906 954 708.515625 964.90625 697 C 970.363281 691.195313 974 679.597656 982 676.757813 C 987.957031 674.605469 996.371094 679.167969 1002 681 C 991.214844 698.246094 973 706 960 720 C 974 719 981.578125 713.808594 993 706 C 978.691406 726.296875 952.886719 742 928 740 C 934.179688 746 943.199219 744.203125 951 744.015625 C 966.1875 743.644531 980.507813 742.167969 991.984375 731 C 1005.578125 717.6875 1006 698.476563 1029 698 L 1029 697 C 1014 691.234375 1006.21875 697.652344 994 706 C 1013.207031 679 1047.191406 690.398438 1073 699 C 1081.511719 702 1094.734375 703.597656 1100.484375 711.09375 C 1104.632813 716.5 1103.65625 724.691406 1105.429688 731 C 1108.578125 742.234375 1114 752.71875 1121 762 C 1133.480469 778.304688 1154 790.527344 1155 813 L 1110 787 C 1124.429688 804.710938 1158.835938 813.605469 1165 838 C 1149.589844 830.8125 1143.179688 813.398438 1124 813 C 1137.308594 824.316406 1151.726563 833.140625 1159 850 C 1138 849.105469 1107.890625 843.074219 1091 860 C 1110.542969 853.792969 1134.167969 850.824219 1154 857.359375 C 1162.757813 860.242188 1172.886719 866 1176 875 C 1163.855469 872.191406 1152.714844 868.449219 1140 870.300781 C 1126.328125 872.289063 1114.605469 880.804688 1102 885.796875 C 1089.71875 890.660156 1077.75 891.632813 1065 894 L 1065 893 C 1080.320313 881.292969 1088.199219 855.824219 1094 838 C 1088.710938 844 1086.261719 853.1875 1081.945313 860 C 1066 885.117188 1050 912 1024 927.398438 C 1014.308594 933.132813 1003.652344 937.117188 993 940.667969 C 990.617188 941.460938 984.324219 944.804688 982 943 C 979 940.34375 981.929688 930.496094 982 927 C 977.257813 931.691406 974.855469 938.644531 970.765625 944 C 966.648438 949.382813 960.660156 958 954 960.394531 C 948.910156 962.335938 945.609375 954 947 950 C 952.371094 935.292969 970.941406 926.011719 977.6875 911 C 980.761719 904.152344 981.632813 894 972.996094 890.746094 C 967.257813 888.605469 961.808594 893.273438 958 897.039063 C 950.960938 904.117188 946.226563 913.519531 941 922 C 938.921875 925.515625 937 931.171875 932.957031 933 C 928 935 923.550781 928.25 920 926 C 913.214844 921.609375 904.925781 920.023438 897 920 L 897 921 C 907 922.28125 917.628906 924.367188 924 933 L 904 928 C 909.808594 933.125 920.734375 933.542969 924.5 941.175781 C 926.878906 946 923.6875 963.558594 917 962 C 920.460938 970.660156 908.261719 983.460938 899 982.667969 C 887.90625 981.707031 879 956 866 969 C 873 970.261719 890.796875 979 891.941406 987 C 892.820313 993.195313 873.308594 1002.191406 868 1001.496094 C 861 1000.582031 854.394531 987 848 983 C 851.941406 987 861.308594 994.089844 859.636719 1000.683594 C 858.484375 1005.234375 837.742188 1005.109375 834.226563 1003 C 826 998.054688 831.453125 982.554688 824 976 C 824.273438 982.304688 830.660156 994.75 827.394531 1000.398438 C 825.621094 1003.46875 819.5625 1001.253906 817 1000.625 C 807 998.203125 797.234375 994.441406 787 994 L 787 993 C 790.734375 991.097656 793.953125 988.066406 798 986.804688 C 802.261719 985.472656 806.957031 986.414063 810.890625 984 C 815.265625 981.128906 817 976.507813 821.960938 973.777344 C 830.558594 969 839.910156 966 841.621094 956 C 842.222656 952.539063 845.34375 950.34375 846 947 C 846.839844 944 844.460938 941.164063 844.855469 938 C 847 920.339844 851.453125 904.722656 845.972656 887 C 841.460938 872.394531 834 851.378906 821.960938 841.390625 C 813.921875 834.777344 801.832031 834 792 832 C 764 826.433594 731 824.078125 705 838 C 675.714844 853.445313 664.316406 890.273438 670.789063 921 C 672 927.128906 670.785156 932.433594 674 938 C 669.945313 940.757813 668.917969 942.65625 673 946 L 673 947 C 665.742188 952.328125 662.800781 960 674 963 C 673.3125 961.324219 672.511719 959.671875 671.878906 958 C 671.367188 956.609375 670.316406 948.65625 674.1875 951.175781 C 676.226563 952.503906 679 962.738281 678.59375 965 C 677.296875 971.191406 670 977.429688 667 983 C 672.742188 978.3125 677.847656 973.269531 680 966 C 683.304688 968.335938 683 971.335938 682 975 C 696.304688 967.203125 690 981.378906 687.757813 990 C 686.828125 993.503906 687 998.691406 684.273438 1001.398438 C 681.554688 1004.070313 659 1005.019531 657.417969 1001.257813 C 655.226563 996.464844 665.199219 987.824219 668 985 C 662.441406 989 657.203125 999.0625 650.90625 1001 C 644.398438 1003 623 991.730469 626.632813 984.039063 C 630.6875 975.203125 644.210938 971.546875 652 967 C 642.980469 964.164063 636.65625 967.71875 630 974.039063 C 626.816406 977.0625 622.921875 982.589844 618 982.378906 C 610.179688 982.042969 598.1875 970.605469 602 963 C 593.492188 963.648438 596 957 594.570313 951.015625 C 593.726563 947.765625 590.816406 945.402344 592.800781 942 C 596.988281 934.742188 607.425781 933.082031 613 927 C 606.539063 929.4375 599.652344 931.113281 593 933 C 599.609375 924.441406 611 922.777344 621 920 L 621 919 C 612.644531 920.0625 602.917969 921.339844 596 926.554688 C 593 928.765625 588.902344 935.417969 584.527344 933 C 581 931 578.960938 925.257813 577 922 C 572 913.710938 566.992188 905.3125 560.5625 898.039063 C 557.21875 894.257813 551.578125 889 546 889.757813 C 532 892 539.753906 911 544 918 C 559.769531 943.496094 583.890625 962.710938 601 987 C 587 985.773438 563.898438 970.6875 571 956 C 557.261719 971.074219 543 935.015625 535 927 C 535.25 930.183594 538.535156 940.605469 535.957031 943 C 533.671875 945 527.273438 941.3125 525 940.394531 C 514.582031 936.1875 503.765625 932.160156 494 926.574219 C 467.875 911.621094 451.886719 885 436 860 C 431.773438 853.277344 429.40625 843.589844 424 838 C 429 853.53125 436.675781 884 452 892 L 452 893 C 424.753906 893 403.972656 875.179688 378 870.464844 C 364.773438 868.0625 353.59375 871.5625 341 875 C 355.878906 843.730469 400 854.007813 426 860 L 426 859 C 402.882813 848.207031 384.265625 846.804688 359 850 C 365.421875 834.652344 378.96875 821.027344 394 814 L 394 813 C 377 813.359375 361.867188 826.597656 353 840 L 352 840 C 353.503906 830 360.550781 825 368 819 C 375.25 813.210938 381.539063 806.300781 389 800.757813 C 395 796.21875 402.402344 793.226563 407 787 C 399.425781 791.816406 390.640625 794.316406 383 799.066406 C 376.261719 803.253906 370.664063 809.554688 363 812 C 364.800781 790 384.8125 777.328125 397 761 C 403.496094 752.503906 409 742.3125 411.839844 732 C 413.609375 725.433594 412.3125 716.699219 416.515625 711.042969 C 421.882813 703.816406 433.90625 702.03125 442 699.332031 C 464.480469 692 499.703125 678.527344 518 701 C 509.207031 696.375 496.917969 690.234375 488 698 C 509.445313 698.445313 511.617188 718 524.175781 731 C 535.925781 743.007813 554 745.074219 570 745 C 576.480469 745 584.964844 744.398438 590 740 C 566.3125 739 545 731.085938 531 711 C 539.824219 715.644531 547.238281 718.179688 557 720 C 552.660156 714.761719 546 712.441406 541 708 C 531.328125 699.136719 523.445313 689 513 681 L 513 680 C 519.757813 677.007813 531 673.175781 537.824219 678 C 544.980469 683 548.753906 692.832031 555 699 C 563.34375 707.113281 573.78125 713.144531 585 716.253906 C 613.671875 724.199219 642.640625 705.578125 669 697 C 663.769531 705.308594 654.738281 706.054688 648 712 C 654.949219 712 661.292969 709.539063 668 708 C 665.183594 717.578125 658.316406 726.585938 653 735 C 646.484375 745.488281 641.300781 758.324219 631.960938 766.699219 C 607.601563 788.539063 563 795.707031 535 778 C 552.511719 799.136719 582.929688 792.53125 606 788.753906 C 616.21875 787.078125 626.34375 786.382813 635 780.074219 C 648.269531 770.394531 659.222656 753.332031 670 741 L 660 743 C 670.683594 718.238281 693.816406 705.070313 710 685 C 704.644531 688 698.859375 690.398438 693 692 C 697.964844 680.039063 708 671 713 659 C 714.84375 655 717.863281 647.199219 712 646 C 714.460938 627.753906 731 617.300781 734.382813 600 C 735.988281 591.476563 733.484375 582.257813 731.371094 574 C 725.402344 550.710938 713.171875 526.359375 692 513.464844 C 681.820313 507.261719 671.867188 507.214844 661 504 C 667.671875 511.300781 679.34375 514.339844 687 521.175781 C 707.769531 539.714844 722.339844 570 720.960938 598 C 720.417969 609.070313 711.910156 616.695313 705.679688 625 C 704 627.222656 701.914063 633.582031 698.882813 634.078125 C 695.847656 634.574219 694.726563 630.054688 694 628 L 693 628 L 693 656 L 692 656 C 689.734375 649.042969 686.96875 643.445313 682 638 C 682.886719 649 685.398438 658 684 669 C 678.816406 665.1875 676.425781 655 674 649 L 673 649 L 674 656 L 673 656 C 671 649.375 667.46875 643 664 637 C 663.359375 649.230469 667 661 668 673 L 667 673 C 659 639.742188 629.929688 584 588 594 C 576.679688 596.609375 566.886719 603.148438 558 610.464844 C 551 616.1875 543.527344 623.171875 539 631 C 559.9375 613 592 591.816406 619 610.09375 C 624.402344 613.757813 629.871094 618.734375 632 625 C 611.808594 617.222656 579 616.019531 561 630.390625 C 553 636.609375 551.558594 646.445313 545.609375 654 C 536.773438 665.214844 522.558594 669.277344 509 671 C 515.265625 656 525.734375 643.042969 532 628 C 529.949219 629.398438 528.355469 630.25 526 631 C 532.296875 594.433594 577.882813 592.785156 602 571.710938 C 614.878906 560.453125 621.890625 544 639 538 L 639 537 C 624.980469 539.070313 614.929688 550.070313 604 558.117188 C 586.949219 570.667969 565.382813 585 544 588 C 553.355469 566.324219 573.367188 562.117188 589 548 C 565.34375 553 545.5 562.097656 529 580 C 538.789063 573.523438 546.992188 565.585938 558 561 C 553.460938 567.164063 546.398438 570.589844 541 576.039063 C 532.5625 584.792969 525.703125 596.765625 521 608 C 524.449219 604.578125 527.78125 601.4375 532 599 C 528.296875 610 520.839844 618.460938 514.691406 628 C 505.8125 641.78125 497.355469 655.796875 485 666.824219 C 468.710938 681.363281 445 689.632813 424 694 C 430 686.058594 440.390625 681.089844 448 674.570313 C 456.511719 667.277344 462.792969 658.449219 470 650 C 458 656.0625 438.59375 679.503906 428.328125 658 C 427 655.402344 426.421875 652.820313 426 650 C 430.625 652.589844 434.296875 658.332031 440 658.589844 C 446.222656 659 452.335938 653.28125 457 650 C 469 641 483.308594 633.464844 494 623 C 479 631 459.855469 647.273438 443 649 C 447 632.03125 461.859375 630.519531 475 623.511719 C 482.804688 619.347656 488.8125 613.1875 495 607 C 488.21875 610 482.46875 614 475 615 C 480.234375 602.632813 494.632813 596 504 587 C 497.679688 589.632813 491.792969 593.789063 485 595 C 491.75 575.175781 505.640625 560.457031 519 545 C 499.46875 556.523438 489.789063 573.28125 478 592 C 470 604.730469 460.308594 620.171875 445 624.773438 C 437.515625 627.027344 430.46875 622.339844 423 622 C 427 609.292969 441.503906 600.421875 451 591.828125 C 454 589.011719 461.710938 583.613281 461.796875 579.015625 C 461.847656 576.535156 459 574.066406 458 572 C 462.5625 571.601563 475.511719 569.101563 477.792969 564.578125 C 478.976563 562.234375 473.175781 562.023438 474.347656 559.675781 C 476 556.351563 485.652344 554.296875 489 553 L 489 552 C 485.195313 551 481.234375 550.304688 478 548 C 486.855469 542.15625 497 538.191406 504.996094 531 C 517 519.648438 524.703125 504.660156 536 493 L 532 493 L 532 492 C 536.378906 489.417969 546.238281 486.261719 544 480 C 549.589844 476.023438 557 474.722656 562 470 L 549 469 L 549 468 C 560.199219 465.433594 575.664063 462.5 583 453 C 573.242188 456 561.21875 454.710938 551 456 L 551 455 C 560.179688 451.234375 569 447.410156 579 446 C 581.246094 445.683594 587.839844 445.695313 588.367188 442.683594 C 588.960938 439.308594 582.90625 435.363281 581 433 C 584 433 590.199219 434.019531 591.902344 430.683594 C 592.890625 428.742188 590.820313 425.601563 592.710938 424.121094 C 596 421.519531 604 427.460938 607 429 C 603.347656 422.808594 598.542969 416.710938 596 410 C 603.683594 411.589844 611.796875 414 619 417 C 615.929688 410.511719 611.777344 404.671875 609 398 C 617.59375 401.597656 624.804688 407.636719 633 412 C 630.714844 402.027344 625 392.058594 624 382 C 633.597656 389.765625 641.1875 401.1875 650 410 C 646.214844 401 640.613281 392.5625 638 383 C 653.644531 392.042969 662.6875 407.398438 682 410 C 679.824219 407.421875 678.210938 405.144531 677 402 C 704.78125 402 732.238281 398 760 398 C 777.359375 398.027344 794.699219 401.726563 812 403 C 821.597656 403.566406 831.355469 402 841 402 C 839.6875 405 837.914063 407.382813 836 410 C 856.351563 405.789063 866.433594 393 882 381 M 744 410 C 745.460938 415.105469 748 419.734375 749 425 C 743.28125 419.328125 737.492188 414.140625 730 411 C 730.179688 415.121094 731.171875 419 732 423 C 727.664063 418.292969 724 413.375 718 411 C 719.609375 420.03125 725.707031 430.5625 731 438 C 724.863281 434.164063 719.964844 428.308594 713 426 C 715 434.363281 721 440.257813 726 447 C 720.734375 443.53125 716.238281 439.574219 710 438 C 713.898438 445.324219 717.984375 452.230469 721 460 C 711.351563 452.148438 702 442.601563 689 442 C 700 468.714844 719.664063 491.625 732 518 L 733 518 C 732.992188 504.066406 728.265625 491.113281 724 478 C 731.332031 486.625 734.273438 504.519531 744 510 C 744 496 741.476563 479.714844 743 466 C 750.878906 474.640625 750.425781 484.75 756 494 C 757.25 492.082031 758.359375 490.570313 760 489 C 760.1875 490.070313 760.476563 493.183594 762.445313 491.824219 C 765 490.050781 765.4375 484.75 766.355469 482 C 768.414063 475.824219 770.75 470.054688 776 466 C 774 481.1875 773.34375 494.734375 774 510 C 781.292969 505.589844 788.640625 487.1875 791 479 L 792 479 C 790 492 784 503.65625 784 517 C 790.171875 513 792.957031 500.578125 796.246094 494 C 805 476.257813 822.5 461.097656 828 442 C 815.363281 443.101563 805.625 451.398438 797 460 C 798.277344 451.488281 803.933594 445.304688 808 438 C 800.8125 439.722656 795.277344 444 790 449 C 794.445313 441.023438 801.753906 434.558594 805 426 C 798 428.203125 792.566406 433.511719 787 438 C 790.746094 429 796.296875 420.378906 799 411 C 792.441406 413.539063 787.980469 418.738281 785 425 L 784 425 C 785.300781 420.378906 786.609375 415.796875 787 411 C 780 414 774.625 420.085938 769 425 C 770.488281 419.828125 773.445313 415.429688 774 410 C 769.710938 412.039063 762.84375 422 758.996094 422 C 754.992188 422 748.351563 412.074219 744 410 M 732.667969 423.667969 C 732.722656 423.722656 732.777344 424.777344 732.332031 424.332031 C 732.277344 424.277344 732.222656 423.222656 732.667969 423.667969 M 750 425 L 749 426 L 750 425 M 769 425 L 768 426 L 769 425 M 728 449 C 726.363281 448.453125 726.546875 448.636719 726 447 C 727.636719 447.546875 727.453125 447.363281 728 449 M 640 450 C 649.257813 455.652344 661.410156 455.117188 671 461 C 697.949219 477.253906 726.363281 514.746094 729 547 L 731 547 C 731 508.707031 713.84375 469.070313 676 454.203125 C 666.609375 450.515625 649.425781 444.351563 640 450 M 787 548 L 789 548 C 791.675781 515.261719 816.421875 481 843 463.355469 C 849.519531 459.03125 856.445313 456.289063 864 454.375 C 868.453125 453.246094 874.246094 453 877 449 C 862.378906 449 847.292969 450.722656 834 457.371094 C 801.257813 473.742188 787 513.328125 787 548 M 797 460 L 796 461 L 797 460 M 813 507 C 824.402344 500.105469 831 488.167969 844 482.3125 C 874.320313 468.644531 910.996094 480.160156 942 486 C 937.242188 477.648438 916.914063 475.117188 908 473 C 873.757813 464.257813 823.65625 462.128906 813 507 M 575 486 C 611 484.449219 643 465.382813 678 484.308594 C 688.917969 490.230469 694.820313 499.421875 704 507 C 703.761719 495.742188 696.347656 488.050781 688 481.261719 C 663.386719 461.242188 632.375 466 604 474 C 594.242188 476.789063 581.652344 477.523438 575 486 M 793 478 L 792 479 L 793 478 M 481 487 C 487.613281 496.234375 491.449219 506.25 497 516 C 499.632813 509.664063 502.433594 504 503 497 C 517.964844 504.78125 499.671875 530.070313 488 532 C 484 532.449219 484.3125 524.535156 484 522 C 483.171875 512.289063 477.222656 496.007813 481 487 M 545 504 C 568.832031 504 594.507813 500.832031 618 496.75 C 623.722656 495.757813 629.476563 494.488281 634.996094 492.65625 C 636 492.304688 640.667969 491.210938 639.652344 489.285156 C 637.296875 484.808594 622.195313 487 618 487 C 599.621094 487.007813 580.589844 490.480469 563 495.722656 C 557.3125 497.414063 548.40625 499 545 504 M 876 491 C 906.855469 498.136719 939 504 971 504 C 967 498.148438 958.328125 497.574219 952 496.117188 C 934.40625 492.074219 916 487.089844 898 487 C 891.433594 487 880.203125 485 876 491 M 1038 487 C 1037.992188 498.410156 1035.714844 509.730469 1034 521 C 1033.78125 523.480469 1033.972656 531.445313 1030.683594 532 C 1027.179688 532.542969 1022.367188 528 1020 525.816406 C 1012.238281 519 1003.441406 506.371094 1014 498 C 1016.210938 504.476563 1017.578125 511 1021 517 C 1024.558594 506.550781 1028.839844 493.761719 1038 487 M 465 500 C 472 508 473.925781 518 476 528 C 476.609375 530.277344 478.4375 537.230469 474.726563 538 C 470.933594 538.664063 469.726563 532.484375 469 530 C 466.652344 522 461.652344 508.050781 465 500 M 1053 500 C 1053 510.1875 1051.378906 519.144531 1048.894531 529 C 1048.261719 531.515625 1047.488281 538.558594 1043.273438 537.246094 C 1039.636719 536.121094 1041.335938 529.570313 1041.753906 527 C 1043.265625 517.75 1045.898438 506.558594 1053 500 M 899 509 C 904.574219 515.382813 914.34375 515 922 517.347656 C 937.9375 522.320313 951.234375 529.683594 966 537 L 966 538 C 954.289063 537.074219 941.71875 533.015625 930 535 C 937.757813 539.738281 947.894531 539.660156 956 544.453125 C 969.738281 552.578125 980.898438 564.464844 995 572 C 991.777344 562.519531 980.945313 555 974 548 C 996.566406 548 973.296875 533.71875 964 528.78125 C 944 518.171875 921.660156 510.789063 899 509 M 530 547 L 544 548 L 544 549 C 534.425781 553.554688 526.191406 562.289063 522 572 C 537.636719 566 549.84375 551.34375 565 543.757813 C 571 540.75 583 539.214844 587 534 C 574.871094 535 563 536.441406 551 538 C 567.628906 523.828125 595.546875 515.167969 617 512 L 617 510 C 593.988281 510 569.589844 518.3125 550 530.203125 C 543 534.425781 533.546875 539.457031 530 547 M 1070 520 C 1068 530.507813 1065.203125 542.355469 1067.3125 553 C 1068.363281 558.300781 1071.511719 563 1073 568 C 1066 566.367188 1057.195313 563.09375 1054.386719 556 C 1052.785156 552 1055 549 1056 545 C 1058.800781 535.035156 1059.890625 525.261719 1070 520 M 445 568 C 447 554.527344 452 546.371094 449.753906 532 C 449.460938 530.1875 447.597656 522.558594 450.5 522 C 455.582031 520.804688 460.230469 537.609375 461.28125 541 C 465.863281 555.773438 460 563.710938 445 568 M 550 538.332031 C 550.773438 538.332031 550 538.832031 549.667969 538.667969 L 550 538.332031 M 967 538 L 966 539 L 967 538 M 959 561 L 958 562 L 959 561 M 758 564 C 758 588.386719 755 612.601563 755 637 C 755 641 757.277344 659 753.398438 660.695313 C 749.859375 662.335938 743.617188 655 741 653 C 742.410156 656.722656 752.726563 667.714844 751.167969 671.070313 C 750.433594 672.652344 736.355469 670.007813 734 670 C 738.183594 675.808594 744.570313 680 751 683 C 744.714844 685.652344 738 685.570313 732 689 L 732 690 C 738.65625 692.109375 744.621094 694.035156 751 697 L 751 698 C 743.472656 697.027344 736.445313 694.097656 729 693 C 732.484375 702 742.335938 705.640625 749 712 C 739.484375 712.410156 736.257813 717.800781 747 721 L 747 722 C 743.789063 722.640625 742 723.542969 740 726 L 745 726 C 731.980469 740.175781 728 760.125 728 779 L 729 779 C 734.195313 765.449219 738 754.632813 752 748 C 748.808594 756.230469 744.730469 764.070313 744 773 C 747 770.671875 749.398438 767.816406 752 765 C 751.527344 787.753906 731.210938 790.058594 717.183594 802.667969 C 710.574219 808.613281 707.300781 819 704 827 C 720.265625 825.582031 735.355469 817.421875 752 817.015625 C 772.605469 816.511719 791.648438 825.394531 812 827 C 809.984375 819.625 806.96875 810 801.671875 804.183594 C 796.226563 798.359375 788.191406 796.25 782 791.472656 C 770.921875 783 767 770.523438 767 757 L 768 757 C 769.597656 761 771.871094 764.402344 774 768 L 775 768 C 774.683594 760.765625 772.367188 753.390625 769 747 C 781 754.027344 781.929688 766 786 778 C 792.601563 767 785.792969 746.820313 779.453125 737 C 776.894531 733.035156 770.726563 728.042969 770.738281 723 C 770.75 716.007813 781.953125 712.652344 785 707 C 780 707.386719 775.894531 707.613281 771 707 L 771 706 C 773.453125 706 788 704 784.824219 699 C 782.496094 695.28125 768.988281 695.082031 765 695 C 771.324219 689.191406 778.6875 684.394531 787 682 C 782.324219 675.300781 770.171875 678 764 681 C 767.867188 675.511719 773.851563 672 777 666 C 772.523438 666.09375 768.324219 667 764 668 C 766.914063 664.574219 769.214844 661.132813 771 657 C 758.339844 660.210938 762 644.703125 762 636 C 762 618.546875 761.820313 601.359375 760.171875 584 C 759.5625 577.632813 761.75 569.488281 758 564 M 655 599 C 646.195313 594.3125 638.695313 586.796875 629 584 C 632.433594 595.664063 643.6875 606.113281 654 612.046875 C 663.988281 617.789063 671.554688 610.535156 671.871094 600 C 672 594 666.292969 567.527344 656.226563 572.289063 C 648.261719 576.054688 653.800781 592.804688 655 599 M 890 584 C 879.9375 586.390625 872.378906 594 863 598 C 863.507813 594 864.460938 590.023438 864.828125 586 C 865.753906 576 858.632813 567.429688 851.878906 579.003906 C 846.554688 588.132813 840.738281 623.292969 862 612.429688 C 864 611.335938 866 609.8125 868 608.332031 C 871.59375 605.503906 874.773438 602.230469 878 599 C 882.644531 594.347656 886.789063 589.761719 890 584 M 504 586 L 505 587 L 504 586 M 597 634.300781 C 634.722656 629 647.214844 687.664063 607 692.710938 C 570.390625 697.300781 561 639.417969 597 634.300781 M 909 634.300781 C 944.996094 629.167969 959.707031 687 920 692.699219 C 883 698.019531 871.941406 639.582031 909 634.300781 M 915 704 L 915 703 C 934.324219 702.15625 954.882813 684.558594 953.621094 664 C 953 654.046875 946.640625 646.335938 942 638 C 948.507813 640.21875 951 645.535156 954.695313 651 C 957.722656 655.613281 963.246094 660.199219 963.691406 666 C 965.550781 690.128906 934 704 915 704 M 573 639 C 570 645.625 565 651.660156 564.183594 659 C 561 683.1875 582.359375 701.199219 605 703 C 586.222656 711 554 687.144531 553.21875 668 C 552.902344 661.441406 558.570313 657.179688 561.648438 652 C 564.871094 646.578125 566.628906 641.214844 573 639 M 601 640 L 601 642 C 603.257813 642.457031 605 643 606.945313 644.433594 C 621.574219 656.324219 588 667.082031 591.742188 650.003906 C 592.261719 647.527344 593.84375 645.210938 595 643 C 574.691406 652.46875 574.832031 690 602 685.785156 C 615.675781 683.703125 634.226563 663 624.855469 649.09375 C 619.605469 641.320313 609.5625 640.007813 601 640 M 907 642 L 907 644 C 909.203125 644.246094 911 644.496094 912.988281 645.742188 C 929 656.210938 903.71875 671.488281 901.269531 654.003906 C 900.980469 652 901.535156 650 902 648 C 883.703125 657 892 691.664063 914 686.46875 C 928 683.105469 948.378906 658.652344 933.785156 645.53125 C 926.632813 639.101563 915.660156 641 907 642 M 639 647 C 643.636719 655.328125 648.789063 663.101563 652.394531 672 C 653.328125 674.300781 655.933594 678.769531 654.648438 681.273438 C 652.644531 685.167969 638.226563 689.238281 634 691 C 636.335938 683 641.507813 675.738281 641.738281 667 C 641.914063 660.359375 636.496094 653.414063 639 647 M 875 651 C 872 667.023438 879.960938 679 886 693 C 880.785156 690.828125 866 686.105469 863 681.441406 C 859.222656 675.164063 870.558594 655.320313 875 651 M 414 655 C 419 664.820313 415.628906 675 412.566406 685 C 408.925781 697 401.34375 706.753906 396.3125 718 C 391 730 387 743.597656 383 756 C 389 750.066406 391.824219 742.097656 399 737 C 396 757 375.703125 766.804688 365 782 L 364 782 C 364.976563 759.292969 376.210938 734 388 715 C 393.210938 706.757813 400.53125 700 404.675781 691 C 409.628906 680.421875 407 664 414 655 M 1105 655 C 1105 682.386719 1119.324219 696.5 1131.6875 719 C 1142 738 1149.636719 760 1154 781 C 1138.558594 772 1122.523438 752 1117 735 L 1118 735 C 1123 742 1127.96875 750 1135 755 C 1128.917969 743.460938 1126.742188 730 1121.570313 718 C 1116.25 705.65625 1107.894531 695.09375 1104 682 C 1101.710938 673.515625 1097.898438 662.117188 1105 655 M 843 659 L 843 662 L 842 662 C 842.25 660.550781 842.316406 660.246094 843 659 M 514 740 C 519.25 746.355469 527.535156 750.535156 534 755.664063 C 543.5 763.207031 551.785156 774.09375 564 777.238281 C 587.195313 783.210938 624.335938 765.371094 637 746 C 614.929688 754.03125 594.839844 768.75 570 763.332031 C 559 761 552.203125 753.066406 543 747.464844 C 534 742.070313 524.261719 740.007813 514 740 M 879 746 C 883 751 888.808594 754.199219 894 758 C 909.917969 769.074219 935.78125 783.671875 956 776.449219 C 965.925781 773 973.265625 764.015625 981 757.289063 C 987.914063 751.277344 996 747 1003 741 C 981.34375 734.613281 964.402344 760.640625 944 763.570313 C 929.953125 765.589844 913.78125 761.445313 901 755.6875 C 893.800781 752.445313 886.839844 747.398438 879 746 M 425 786 L 435 783 C 429.414063 789.378906 423.480469 794.574219 416 798.6875 C 411 801.390625 404 803.191406 401 808 C 411.816406 808 424.710938 810.148438 433.984375 803.363281 C 446.464844 794.230469 443.609375 778.117188 447 765 C 450 754.292969 457 748.015625 466 742 C 448.367188 735.136719 439.777344 761.574219 433.523438 772 C 430.636719 776.808594 426.4375 780.46875 425 786 M 1051 741 L 1051 742 C 1059.199219 747.53125 1066.675781 753.125 1069.777344 763 C 1074.46875 778 1070.511719 797 1087 805.597656 C 1095.417969 810 1105.898438 808 1115 808 C 1107.855469 796 1090 796.65625 1083 783 C 1086.355469 783.765625 1089.558594 784.699219 1093 785 C 1084.828125 767.523438 1073 742.007813 1051 741 M 571 824 C 578.632813 820.441406 583.242188 812.585938 591 809 C 605.988281 801.816406 642.628906 805 646 783 C 616.605469 793.699219 584.269531 790 571 824 M 870 783 C 878.398438 804.679688 907.265625 801 925 808.464844 C 932.921875 811.804688 937.425781 819.46875 945 823 C 937.609375 791.070313 896 790.449219 870 783 M 672 785 C 668.515625 790.699219 666.28125 804.503906 660.773438 807.820313 C 657.304688 810 651.890625 809 648 809 C 652.964844 814.378906 664.90625 816.320313 672 818 L 672 819 L 661 817 C 667 825.289063 683 830 693 830 C 687.183594 820.316406 675.574219 814 671.558594 803 C 669.214844 796.574219 674 791 672 785 M 844 785 C 852.699219 807.578125 834.820313 813.386719 824 830 C 836.699219 829.734375 849 823 860 817 C 858.753906 816.316406 858.449219 816.25 857 816 L 857 815 C 861.535156 814.328125 865.816406 813 870 811 L 870 810 C 865.695313 809.660156 858.617188 810 855.433594 806.683594 C 849.445313 800.519531 852 791 844 785 M 577 827 C 587.953125 823 598.980469 815.132813 609 809 C 597.953125 801.457031 580.75 817.320313 577 827 M 907 807 C 909.984375 811.554688 916.3125 812.820313 921 815.261719 C 927.660156 818.734375 933 824.007813 940 827 C 935.414063 813.515625 919.941406 808.023438 907 807 M 641 816 C 634.238281 823.742188 627 831.566406 618.546875 837.371094 C 613 841.050781 607 834.164063 606 844 C 608.683594 843 610.691406 841.722656 613 840 C 612.859375 847 614.492188 858.351563 606 859 L 606 858 C 608.421875 856.617188 609 855.636719 610 853 C 599.332031 854.199219 604.554688 861.785156 608 868 C 601.773438 866.269531 599.773438 870.097656 595 870 C 592.289063 870 591.335938 865.761719 588 866.175781 C 579.871094 867.207031 590.53125 874.136719 593 875 C 589.679688 878.3125 583.484375 886.519531 578 884.746094 C 574.421875 883.59375 572.25 879.046875 568 879.582031 C 563.410156 880.175781 564.5625 885.578125 570 883 C 568.882813 888 569.488281 891 575 889 L 571 897 C 579.210938 894.652344 586.300781 890.691406 595 890 C 590.289063 895.117188 581.574219 897.097656 575 899 C 577.839844 902.253906 585 903.761719 586.253906 908.105469 C 587.308594 912.328125 580 916.476563 582.171875 920.15625 C 584.476563 924.167969 595 925 598 921.566406 C 604.800781 913.683594 604 894.214844 613 889.027344 C 619.5625 885.335938 629.304688 890.414063 636 891 L 636 890 C 628.238281 886.558594 620.464844 885.007813 612 885 C 617 869.148438 622.285156 851.339844 630.925781 837 C 634.359375 831.304688 643.480469 823.171875 641 816 M 857 816 L 857 817 C 851.210938 818.371094 845.917969 821.125 840 822 C 844.820313 819 851.375 817 857 816 M 875 817 C 881.847656 833.4375 891.714844 848.285156 898.398438 865 C 900 869.191406 905.59375 878.238281 902.933594 882.683594 C 900.230469 887.195313 885.964844 887.800781 881 890 L 881 891 C 887.789063 890.445313 899.90625 884.574219 905.570313 890.316406 C 912.613281 897.460938 911.675781 921 923 923.667969 C 924.65625 924.050781 926.402344 923.808594 928 923.480469 C 943 920.367188 927.71875 916.027344 931 908.105469 C 933 903.691406 939.976563 904.457031 941.652344 900.703125 C 943 897.398438 927.441406 893 925 892 L 925 891 C 933 891.171875 939.308594 895.632813 947 897 C 945.171875 893.472656 942.773438 891 940 888 C 943.492188 888 945.894531 888 949 889 C 950.480469 885.242188 952.246094 885.5 956 886 C 953.605469 877.746094 940.375 878.730469 939 887 L 928 882 C 938.757813 876.585938 930.257813 874.636719 929 867 C 927.390625 868.449219 926.9375 869.050781 926 871 L 925 871 C 922 863.8125 916.351563 865 910 867 C 909.773438 860.027344 904.863281 854.585938 904.378906 847.285156 C 904.1875 844.363281 907 842.070313 906.253906 839.105469 C 905.527344 836.242188 902.390625 835.066406 900 834 L 900 839 C 893.519531 834.570313 889 831.132813 892 823 C 883.816406 825 881.921875 819.800781 875 817 M 673 819.332031 C 673.773438 819.332031 673 819.832031 672.667969 819.667969 L 673 819.332031 M 601 820 C 602.460938 822.433594 603.289063 823.175781 606 824 C 604.539063 821.566406 603.710938 820.824219 601 820 M 676 820 L 675 821 L 676 820 M 900 826 C 905.980469 824.109375 901.882813 819.78125 900 826 M 838 822.332031 C 838.773438 822.332031 838 822.832031 837.667969 822.667969 L 838 822.332031 M 500 823 C 485.496094 840.058594 469 877.171875 501 888 L 499 871 L 500 871 C 501.417969 880.082031 508.839844 886.476563 511.910156 895 C 515.230469 904.230469 513.1875 912.640625 512 922 C 519.734375 916.253906 520.433594 907.289063 524 899 C 526.882813 906.472656 528.585938 914.246094 533 921 L 534 921 C 533.992188 910.710938 530.550781 900.238281 531.324219 890 C 532 880.714844 536.578125 872.222656 537 863 C 528.902344 868.828125 522.480469 880.128906 521 890 L 520 890 C 517 880 508.796875 872.191406 505.785156 862 C 504.753906 858.519531 505.199219 851.121094 501.566406 849.132813 C 498.617188 847.515625 494.519531 850.683594 492 852 C 494.203125 844.238281 502.300781 830.777344 500 823 M 628 829 C 626.554688 822.222656 621.859375 825.398438 628 829 M 835 823.332031 L 835.332031 823.667969 C 834.839844 823.832031 834.226563 823.332031 835 823.332031 M 1017 823 C 1017.210938 833.175781 1021.898438 842.464844 1025 852 C 1022.484375 850.714844 1018.4375 847.804688 1015.515625 849.363281 C 1012.175781 851.144531 1012.316406 858.753906 1011.25 862 C 1007.886719 872.257813 999 880 998 891 L 997 891 C 996 880.199219 988.746094 868.214844 980 862 C 981.507813 872.207031 986 881.523438 986.625 892 C 987 901.761719 983.765625 911.359375 983 921 C 990 915.785156 991.882813 906.304688 993 898 L 994 898 C 995.214844 907 998.433594 916.542969 1006 922 C 1004.214844 912.53125 1002.820313 903.308594 1006.242188 894 C 1008.988281 886.535156 1014.757813 880.628906 1017 873 L 1018 873 C 1017.597656 875.160156 1014.914063 886.535156 1018.472656 886.695313 C 1024.613281 887 1030.234375 876.683594 1032 872 C 1038.292969 856.167969 1030.414063 833 1017 823 M 833 824 L 832 825 L 833 824 M 591 826 C 591.386719 829.441406 591.976563 831.238281 595 833 C 594.492188 829.65625 593.601563 828.152344 591 826 M 931 831.15625 C 930 832.078125 931 834.433594 932.488281 833.675781 C 934 832.792969 932.363281 830 931 831.15625 M 539.769531 837.300781 C 538.472656 838.007813 540.175781 840.1875 541.363281 839.558594 C 542.691406 839 540.976563 836.640625 539.769531 837.300781 M 975 843 C 978.421875 841.773438 979.773438 840.421875 981 837 C 977.578125 838.226563 976.226563 839.578125 975 843 M 570 839 C 570.675781 841.296875 570.964844 841.773438 573 843 C 572.222656 841 571.871094 840.230469 570 839 M 602 839 C 598.78125 843.070313 600.214844 845.238281 605 847 C 604.816406 843.589844 604.351563 841.507813 602 839 M 945 844 L 946 844 L 948 839 C 945.71875 840.445313 945.417969 841.3125 945 844 M 963 839 C 963.417969 841.691406 963.71875 842.554688 966 844 C 965.347656 841.566406 964.839844 840.71875 963 839 M 553 841.324219 C 551.433594 842.039063 551.59375 845.078125 553.675781 844.253906 C 555.363281 843.582031 555 840.476563 553 841.324219 M 786 843 L 786 844 C 763.511719 848.640625 745.496094 848.027344 723 845 C 737.367188 832.335938 768.859375 843 786 843 M 912.515625 841.457031 C 910.410156 842.398438 912.324219 846.46875 914.410156 845.542969 C 916.453125 844.636719 914.535156 840.550781 912.515625 841.457031 M 603 841 L 602 842 L 603 841 M 918 845 C 922.804688 843.652344 919.339844 840 918 845 M 587.816406 844.355469 C 584.796875 846.402344 592.371094 856.679688 596.382813 854 C 601 850.703125 591.5 842 587.816406 844.355469 M 923.496094 848.085938 C 917.757813 851.808594 926 864.042969 931.246094 860 C 931.382813 859.789063 926.425781 846.1875 923.496094 848.085938 M 579 849 C 580.925781 855.492188 584.488281 859.183594 591 861 C 589.542969 855 584.804688 851 579 849 M 585.5 849.5 C 584.871094 850.128906 585.871094 851.128906 586.5 850.5 C 587 850 586 849 585.5 849.5 M 595 851 L 594 852 C 592.804688 850.777344 592.683594 850.578125 592 849 C 593.578125 849.683594 593.777344 849.804688 595 851 M 934 857 C 942.34375 852.515625 935.328125 848.503906 934 857 M 544 851 C 546.242188 863.363281 556.28125 857.394531 544 851 M 567.640625 853.066406 C 565.441406 854.695313 568.457031 857.113281 570.269531 855.257813 C 571.96875 853.511719 569.207031 852 567.640625 853.066406 M 953 855 C 948.46875 850.5 946.527344 856.484375 953 855 M 911.78125 855.066406 C 909.644531 856.691406 912.382813 859.40625 914.359375 858 C 916.476563 856.355469 913.714844 853.59375 911.78125 855.066406 M 972 854 C 972.898438 856.125 972.875 856.101563 975 857 C 974 855.074219 973.921875 855 972 854 M 498 884 C 491.222656 879 486.699219 868.363281 489 860 C 494.695313 865.242188 496.988281 876.484375 498 884 M 1018 885 C 1019.734375 879 1021.824219 873 1023.921875 867 C 1024.367188 865.734375 1025 861.207031 1026.992188 861.207031 C 1029.648438 861.207031 1028 867.71875 1027.902344 869 C 1026.738281 875.195313 1023.777344 882.046875 1018 885 M 965.183594 864.171875 C 963 864.542969 963.832031 867.46875 965.816406 867.097656 C 967.863281 866.714844 967.191406 863.808594 965.183594 864.171875 M 575 864 C 574.757813 867.40625 574.757813 883.230469 582.507813 878 C 585.855469 875.683594 582 874.390625 580 875 C 578.894531 871.105469 577 868.195313 577 864 L 575 864 M 696 864 C 693.542969 882.222656 678.207031 900.480469 688.417969 919 C 694.933594 930.820313 707.558594 930.109375 719 928.074219 C 724 927.167969 731.191406 925.121094 732 919 C 732.734375 913.6875 720.785156 899 714.894531 901.574219 C 711.472656 903.09375 713.457031 911.011719 712.257813 914 C 708.800781 922.4375 697.890625 918.554688 696.34375 911 C 693.507813 897.128906 706.613281 886.050781 718 881.453125 C 732.425781 875.628906 743.46875 879.203125 758 879.535156 C 773.722656 880 787.460938 876.035156 803 882.070313 C 813 886 821.75 894.78125 821.984375 906 C 822 911.238281 821.273438 917.777344 814.984375 918.757813 C 807 920 805.335938 913.222656 804.984375 907.003906 C 804.847656 904.542969 804.40625 900.683594 800.941406 902.058594 C 798.675781 903 796.804688 905.152344 795 906.71875 C 792 909.269531 788 912 787 916 C 783.875 929 807.957031 932.179688 816 930.320313 C 848.199219 923 825.648438 884 824 865 C 833.171875 870.542969 837 882 838.914063 892 C 844.996094 926.558594 817.480469 955.277344 785 962 C 789.976563 956 797.765625 953.359375 805 951 L 805 950 L 779 949 L 779 948 L 789 943 L 789 942 C 784.546875 942.191406 777.304688 945.265625 773.304688 942.804688 C 769.292969 940.34375 770.21875 934 769.828125 930 C 768.648438 918.003906 766.511719 906 765 894 L 764 894 C 760.933594 909.820313 759 926 760 942 L 759 942 C 754.671875 925.261719 755 908.148438 755 891 L 754 891 C 751 903.484375 749.753906 917.226563 748 930 C 747.582031 933.054688 748.246094 942 745.972656 944 C 743 946.566406 732.503906 942.679688 729 942 L 729 943 C 733.492188 945 738.394531 946.738281 741 951 L 716 951 C 721.945313 956.238281 732.460938 955.078125 737 962 C 705.742188 961.742188 682.855469 938 678.578125 908 C 676.511719 893.558594 679.785156 868.816406 696 864 M 950 865 C 951 868.714844 952.195313 870.179688 956 871 C 954.480469 868 953.308594 866.089844 950 865 M 939 871 C 937.28125 872.613281 939.332031 875.230469 941.542969 874 C 946.996094 870.796875 934.882813 862.652344 939 871 M 556.640625 868.15625 C 555.394531 869.1875 556.949219 871.386719 558.351563 870.675781 C 560 869.820313 558 867 556.640625 868.15625 M 910 867 L 909 868 L 910 867 M 590 869 L 589 870 L 590 869 M 962 870 C 961.914063 872.695313 962.480469 873 965 874 C 964 872.050781 963.609375 871.449219 962 870 M 598 875 L 597 876 C 595.804688 874.777344 595.683594 874.578125 595 873 C 596.578125 873.683594 596.777344 873.804688 598 875 M 931 878 C 927.867188 878.671875 925 880 922 881 L 923 877 C 921.421875 877.683594 921.222656 877.804688 920 879 C 916.96875 871.015625 928.316406 873.738281 931 878 M 597 880 L 597 881 L 593 882 C 594.457031 881 595.246094 880.5625 597 880 M 556 971 C 539.238281 979.796875 521.292969 974.570313 504 971 L 504 970 C 512.800781 971.136719 522 973.414063 531 971.773438 C 534.878906 971.058594 539.292969 967.1875 534.832031 964 C 529.296875 959.722656 518.59375 960.691406 512 960 C 489.824219 957.460938 451.730469 958.300781 442 933 C 452 935 460.417969 936 470 932 L 470 931 C 442.96875 931 424 914.765625 400 906 L 400 905 C 408.714844 905.023438 417.367188 907 426 908 C 421.636719 904.152344 415.285156 903.390625 410 901.128906 C 400.960938 897.257813 392 892.492188 384 887 C 392.484375 883.539063 404.605469 891.128906 413 893 C 420.613281 894.671875 428.171875 896.1875 436 896.148438 C 440.558594 896.128906 445.691406 894.269531 449.960938 896.460938 C 456.640625 900 460 909.359375 464.617188 915 C 473.515625 926 484.515625 935.488281 497 942.109375 C 514.589844 951.4375 543.503906 954.707031 556 971 M 1133 886 C 1126.214844 897.722656 1102.832031 905 1090 906 L 1090 908 C 1098.632813 907 1107.285156 905.023438 1116 905 L 1116 906 C 1096.71875 917.800781 1071 930 1048 931 C 1054.835938 937.433594 1067.679688 935 1076 933 C 1066.261719 958.324219 1029 956.679688 1007 959.574219 C 1000.414063 960.441406 983.511719 958.648438 980 966 C 978.269531 969.722656 984.476563 971.191406 987 971.386719 C 995.574219 972.054688 1004.449219 970.367188 1013 970 C 1003.464844 977.132813 986.257813 977.070313 975 975.246094 C 972.167969 974.785156 960.996094 974.089844 963.175781 969 C 965 964.347656 972.816406 962.1875 977 960.21875 C 990.695313 953.78125 1005.453125 949.804688 1019 943.03125 C 1031.816406 936.625 1043.460938 927.070313 1052.535156 916 C 1057.367188 910.101563 1060.523438 901 1067 896.742188 C 1073.660156 892.441406 1082.789063 896.40625 1090 895.699219 C 1104.414063 894.28125 1118.976563 889.453125 1133 886 M 940 887 L 939 888 L 940 887 M 922 892 C 920.363281 891.453125 920.546875 891.636719 920 890 C 921.636719 890.546875 921.453125 890.363281 922 892 M 663 927 L 663 928 C 665.199219 928.480469 665.800781 928.480469 668 928 C 665.988281 926.527344 665.476563 926.535156 663 927 M 407 927 C 423.921875 940.429688 441.347656 958.503906 462 966 C 473.832031 970.152344 487 967.167969 499 970.722656 C 516.324219 976 533.417969 985.425781 552 981 C 550.488281 998.183594 538.65625 998 525 994.371094 C 503.660156 989 484 973.808594 462 972 L 462 973 C 477.566406 980.269531 492.574219 990.75 509 996 C 524.664063 1001 541.730469 1001 558 1001 C 556.253906 1006.125 554 1012.09375 548.984375 1014.683594 C 543.5625 1017.394531 535.621094 1015 530 1013.800781 C 515.40625 1011 501 1007.605469 487 1003 C 498 1013.125 514 1018.824219 528 1024 C 535.78125 1026.804688 543.304688 1028.183594 541 1038 L 542 1038 C 546.398438 1031.414063 555.257813 1037.636719 558 1043 C 551.550781 1043.527344 545.546875 1045 539 1045 L 541 1039 L 540 1039 C 538.996094 1042.175781 537.398438 1045 536 1048 C 546 1048 557 1049.285156 567 1047.535156 C 573.933594 1046.3125 580.492188 1042.003906 587 1046 C 588.445313 1043.71875 589.3125 1043.417969 592 1043 C 588.503906 1036.238281 593 1030.140625 596.257813 1024 C 605.601563 1006 614 1001.703125 633 1008.808594 C 636 1010 641.945313 1010.625 643.972656 1013.511719 C 647.855469 1019.046875 640.171875 1030.089844 637.757813 1035 C 629.851563 1051.085938 621.777344 1072 621 1090 L 622 1090 C 625.699219 1071 633.335938 1053.425781 641.742188 1036 C 644.25 1030.800781 645.9375 1022 651.183594 1018.707031 C 655.484375 1016.09375 660.988281 1021.484375 663.816406 1024.289063 C 673.785156 1034.183594 672 1049.191406 672 1062 C 676.589844 1056.796875 677.859375 1047.777344 678 1041 L 679 1041 C 680.179688 1050.339844 681.203125 1060.746094 679 1070 C 685.742188 1063 684.78125 1050.292969 690 1042 C 695 1051.195313 693 1060.003906 693 1070 L 694 1070 C 696.234375 1063.140625 699.265625 1056.660156 702 1050 L 703 1050 C 702.738281 1062.695313 700 1075.28125 700 1088 C 705 1082.269531 707.289063 1071.394531 709 1064 L 710 1064 C 709.914063 1074.171875 705.1875 1089.765625 713 1098 L 714 1088 L 715 1088 C 716 1094 716.949219 1100 717 1106 L 719 1106 C 719 1097.125 719.890625 1088.785156 721 1080 L 722 1080 C 722 1089.21875 723.277344 1098 724 1107 L 726 1107 C 726 1099 727.363281 1091.042969 728 1083 L 729 1083 C 729.445313 1092.742188 734 1102 737 1111 L 738 1111 C 735.9375 1095.695313 727.679688 1078 735 1063 C 744 1075.140625 740.207031 1095.789063 750 1107 C 750 1098.023438 749.355469 1089 751 1080 L 752 1080 C 752.277344 1093.46875 756.992188 1106.441406 757 1120 C 763.34375 1112.703125 764.796875 1089.769531 765 1080 L 766 1080 C 766 1089.015625 767.613281 1098.003906 768 1107 L 769 1107 C 772 1092.074219 778 1078 781 1063 C 793.277344 1074.347656 783.191406 1099.113281 779 1112 C 783.953125 1106.496094 786.347656 1097.136719 788 1090 L 789 1090 L 789 1106 C 795.761719 1099.226563 793 1089.535156 793 1081 L 794 1081 C 795.625 1089.628906 796.898438 1098.296875 798 1107 L 799 1107 C 800.515625 1098.828125 800.515625 1090.171875 799 1082 L 800 1082 C 802.214844 1087.328125 804.691406 1092.339844 806 1098 L 807 1098 C 808.535156 1086 808.269531 1074.054688 806 1062 L 807 1062 C 811.757813 1070.152344 814.257813 1078.597656 815 1088 L 816 1088 C 816 1075 814 1062.027344 814 1049 L 815 1049 C 817 1056.132813 820.332031 1063.554688 824 1070 C 824.488281 1062.414063 822.824219 1054.363281 825 1047 L 828 1049 L 828 1044 L 829 1044 C 830 1053.039063 832.523438 1060.640625 836 1069 L 837 1069 C 835 1058.621094 837.1875 1049.296875 838 1039 L 839 1039 C 839.308594 1046.140625 840.175781 1056.476563 845 1062 C 845 1049.765625 843.929688 1035.128906 852.390625 1025.089844 C 854.9375 1022.066406 860.535156 1016.3125 864.957031 1018.136719 C 870.816406 1020.550781 873 1030.726563 875.425781 1036 C 882.972656 1053.351563 892.441406 1071 895 1090 L 896 1090 C 895.226563 1072.25 886.753906 1052.257813 879.988281 1036 C 877.769531 1030.671875 869.890625 1020.402344 872.617188 1014.417969 C 874.347656 1010.628906 882.460938 1010 886 1008.574219 C 891.886719 1006.390625 899.671875 1003.265625 906 1005.601563 C 916 1009.332031 929 1033.011719 925 1043 C 936.71875 1043.828125 947.335938 1048 959 1048.824219 C 966 1049.417969 973.78125 1048 981 1048 L 978 1041 L 977 1041 L 978 1045 C 971.273438 1045 964.386719 1044.160156 958 1042 C 962.988281 1037 969.289063 1033.4375 976 1037 C 974 1028.320313 981 1026.773438 988 1024.308594 C 1002.863281 1019 1018.371094 1014.09375 1030 1003 C 1015.484375 1009 1001.277344 1011 986 1013.804688 C 980.609375 1015 972.332031 1017.761719 967.183594 1014.820313 C 962.585938 1012.195313 960.792969 1005.625 959 1001 C 976.925781 1001 994.976563 1000.488281 1012 994.304688 C 1027.667969 988.613281 1041.25 978.363281 1057 973 L 1057 972 C 1035.386719 973.765625 1016 988.488281 995 993.207031 C 988.734375 994.609375 978 999 972.226563 994.398438 C 970.300781 993 965.480469 985.632813 968.648438 983.601563 C 973.34375 980.59375 985.207031 982.128906 991 980.765625 C 1000.753906 978.46875 1009.21875 972.527344 1019 970.453125 C 1031.203125 968 1044 969.707031 1056 965.453125 C 1076.820313 958.011719 1089.46875 936.515625 1110 929 C 1104.257813 944.140625 1087 954.648438 1077 967 C 1090.980469 960.386719 1101.316406 947.816406 1115 941 C 1114 950.535156 1106.339844 958.03125 1098 962 C 1105.695313 965.089844 1111.585938 959.320313 1119 958 C 1115 967.558594 1109 973 1100 977.78125 C 1097.597656 979.074219 1090.925781 982.074219 1091.632813 985.652344 C 1092.257813 988.824219 1097.570313 986 1099 985.238281 C 1105.636719 982 1111 976.625 1118 974 C 1117.378906 986 1107 993.398438 1097 998.214844 C 1074.929688 1008.824219 1047.507813 1016 1023 1017 L 1023 1019 C 1041.554688 1018.617188 1060 1015.179688 1078 1010.625 C 1088 1008.058594 1097.390625 1003.457031 1108 1003 C 1103.964844 1011.652344 1094.183594 1018.191406 1086 1022.6875 C 1065.402344 1034.007813 1037.414063 1041.085938 1014 1043 L 1014 1045 C 1041.355469 1045 1068.570313 1038.363281 1095 1032 C 1091 1040.242188 1080.808594 1045.160156 1073 1049.214844 C 1050.640625 1060.828125 1024 1066.792969 999 1067 L 999 1069 C 1015 1069.332031 1039.84375 1073.242188 1050 1087 C 1028.210938 1087 1006 1086.617188 985 1080.574219 C 966.945313 1075.398438 949 1064.832031 930 1064 L 930 1065 C 943.851563 1069.515625 955.871094 1077.617188 969 1083.691406 C 990.597656 1093.683594 1013.242188 1100.125 1037 1102 L 1037 1103 C 1010.886719 1113.710938 975.519531 1114.445313 950 1101 C 959.867188 1114.363281 981.175781 1116.257813 996 1121 L 996 1122 C 973.417969 1130.695313 947.640625 1132 924 1127.574219 C 916 1126.15625 908.554688 1124.261719 901 1121.65625 C 898.421875 1120.765625 894 1118.34375 891.546875 1120.476563 C 886 1125 907.429688 1131.554688 910 1132.289063 C 931.230469 1138.347656 953 1137 975 1137 L 975 1138 C 943 1159.667969 900.3125 1169.347656 864 1151.191406 C 849.847656 1144.113281 839 1133.039063 828 1122 C 838.847656 1154 872.363281 1173 905 1173 L 905 1174 C 873.652344 1176.496094 848.539063 1178.242188 823 1156 C 825.800781 1176.683594 844.269531 1183.546875 861 1191 C 837.269531 1206 812.328125 1183.753906 795 1170 C 799.671875 1181.382813 802.84375 1194.640625 809.546875 1205 C 814.578125 1212.769531 822.707031 1217.488281 828 1225 C 810.972656 1225 788.773438 1222.671875 781 1205 L 780 1205 C 781 1217 789.765625 1225.769531 793 1237 C 788 1235.605469 782.21875 1231.328125 777 1232.476563 C 771.394531 1233.714844 768.984375 1240.089844 767.640625 1245 C 764.566406 1256.230469 763.738281 1268.296875 759 1279 C 751.875 1269.472656 752.890625 1255.058594 749.558594 1244 C 748.191406 1239.460938 745.394531 1233.335938 740 1232.757813 C 734.691406 1232.191406 728.964844 1236.570313 724 1238 C 728.875 1227.554688 735.355469 1218.433594 738 1207 C 721.375 1218.664063 709.824219 1225 689 1225 L 689 1224 C 706.527344 1212.40625 716.589844 1190.777344 722 1171 C 705.546875 1182 678 1208.058594 657 1191 C 675.246094 1183 686 1175.742188 695 1157 C 667.398438 1172.308594 645.730469 1180.546875 614 1174 L 614 1173 C 649.949219 1173 673.988281 1152.035156 690 1122 C 681.199219 1129.117188 674.773438 1138 665 1144.304688 C 639 1161.171875 608.335938 1162.675781 579 1155.371094 C 567.699219 1152.5625 548.691406 1147.128906 543 1136 C 561.707031 1140.453125 587.640625 1138 606 1132.707031 C 611.648438 1131.125 617.976563 1129.746094 622.953125 1126.519531 C 624.632813 1125.433594 628.703125 1122.058594 625.574219 1120.128906 C 623.175781 1118.648438 619.304688 1121 617 1121.65625 C 610 1124.015625 603 1125.601563 596 1127 C 577.96875 1130.546875 560 1130.773438 542 1127.390625 C 535.289063 1126.132813 527.441406 1125.394531 522 1121 C 535.832031 1114.53125 556.59375 1112.261719 568 1102 C 537.992188 1108.191406 509.5625 1115.125 480 1103 L 480 1102 C 495.839844 1100 512.953125 1097.460938 528 1092 C 548.367188 1084.480469 566.832031 1072.824219 587 1065 L 587 1064 C 568.773438 1066.453125 551.707031 1075.4375 534 1080.117188 C 511.355469 1086.097656 488.296875 1087 465 1087 L 465 1086 C 481.933594 1078.09375 497.835938 1069.824219 517 1069 L 517 1067 C 493.3125 1067 468.3125 1060.503906 447 1050.363281 C 437.824219 1046 427.550781 1041 422 1032 C 435.296875 1033.6875 447.855469 1038.199219 461 1040.574219 C 474.890625 1043.085938 489 1043.234375 503 1045 L 503 1043 C 478.960938 1041.085938 449.46875 1034.316406 429 1021.304688 C 421.421875 1016.484375 413.230469 1011.152344 409 1003 C 419.464844 1003.832031 428.902344 1008.371094 439 1010.765625 C 456.722656 1015 476.816406 1018.21875 495 1019 L 495 1018 C 470.546875 1013.257813 444.742188 1010 422 999.21875 C 410.683594 994 399.625 986.640625 399 973 C 402.617188 974.71875 405.722656 977 409 979.28125 C 412.96875 982.050781 417.21875 985.371094 421.996094 986.578125 C 423.925781 987.066406 427.511719 987.046875 426 984.019531 C 423.800781 979.199219 416.222656 977.15625 412 974.53125 C 405.382813 970.421875 400.8125 964.566406 399 957 C 405.652344 959.730469 411.679688 963 419 963 C 412 957 403.742188 950.617188 402 941 C 416 945.785156 428.71875 960.605469 442 968 C 432.84375 958.648438 424.207031 948.742188 415.425781 939.039063 C 412.308594 935.597656 406.585938 932.035156 407 927 M 852 927 C 852 928.796875 852 928.519531 853 930 L 854 930 C 854.984375 928.519531 855 928.796875 855 927 L 852 927 M 849.855469 934.175781 C 847 936 849 942.195313 852.589844 940 C 855.492188 938 852.867188 932.335938 849.855469 934.175781 M 656.546875 935.324219 C 654.796875 936.128906 655.914063 939.054688 657.683594 938 C 659 937 658.199219 934.5625 656.546875 935.324219 M 663 935.066406 C 661.6875 936.601563 664.445313 939.53125 665.957031 938 C 667.46875 936.339844 664.628906 933.445313 663 935.066406 M 856 935 C 860.648438 940.453125 864.195313 935.449219 856 935 M 772 941 L 772 942 C 776 941.679688 780 941 784 940 C 779.996094 938.335938 775.9375 939.527344 772 941 M 644 946 C 649.390625 950.46875 651 943.089844 644 946 M 654 947 L 659 948 C 657.488281 945.363281 656 944.347656 654 947 M 661 949 C 662.839844 947.28125 663.347656 946.433594 664 944 C 661.71875 945.445313 661.417969 946.3125 661 949 M 863.753906 945 C 860.785156 947.613281 869.222656 949.320313 871.339844 947.722656 C 874.695313 945.179688 865.992188 943 863.753906 945 M 634 945 C 635.324219 947.070313 635.546875 947.140625 638 947 C 636.457031 945.734375 635.953125 945.511719 634 945 M 848 945 C 847.351563 948.433594 848.8125 960.296875 851 952 L 852 952 C 852.898438 954.125 852.875 954.101563 855 955 C 853.394531 951 851.808594 947.304688 848 945 M 876 945 C 877.863281 947.644531 879.828125 947.828125 883 948 C 881 945.527344 879 945.277344 876 945 M 855 947 L 855 951 L 856 951 C 856.183594 948.777344 856.238281 948.808594 855 947 M 653 953 C 655.296875 952.324219 655.773438 952.035156 657 950 C 654.867188 950.777344 654.230469 951.128906 653 953 M 859 950 L 859 951 C 860.746094 952 862 952.453125 864 953 C 862.3125 951.34375 861.253906 950.75 859 950 M 869 951 C 869.777344 953.488281 870.816406 955.671875 872 958 C 870.519531 957.015625 870.796875 957 869 957 C 873.335938 965.566406 878.84375 956.742188 869 951 M 611 957 L 611 958 C 617 957.257813 622.878906 954.824219 629 954 L 629 952 C 622.394531 952.140625 616.953125 954.34375 611 957 M 660 952 L 659 956 L 660 956 C 660.464844 954.070313 660.574219 953.808594 660 952 M 894 953 L 894 954 L 909 958 C 904.691406 954.445313 899.503906 953.238281 894 953 M 644.171875 956.171875 C 641.808594 956.582031 642.492188 960.402344 644.8125 959.554688 C 646.710938 959 646.375 955.789063 644.171875 956.171875 M 862.507813 956.324219 C 861.253906 957.023438 862 959.445313 863.492188 958.675781 C 864.746094 958 863.898438 955.554688 862.507813 956.324219 M 943.910156 956.753906 C 954.875 956.480469 945.816406 974.152344 938 974.574219 C 928 975.105469 936.84375 957 943.910156 956.753906 M 602 962 L 602 963 C 604.566406 962.261719 606.671875 961.316406 609 960 C 606.234375 959.53125 604.445313 960.632813 602 962 M 658 961 C 659.3125 960.230469 659.230469 960.3125 660 959 C 658.363281 959.546875 658.546875 959.363281 658 961 M 1160 959 L 1159 960 L 1160 959 M 845.472656 961.339844 C 843.949219 962.164063 844.75 965.621094 846.527344 964.660156 C 848 964 847.25 960.378906 845.472656 961.339844 M 913 960 C 914.222656 961.195313 914.421875 961.316406 916 962 C 914.777344 960.804688 914.578125 960.683594 913 960 M 653.5 961.5 C 652.871094 962.128906 653.871094 963.128906 654.5 962.5 C 655 962 654 961 653.5 961.5 M 828 965 C 820.292969 964.542969 814.269531 967.015625 807 969 C 811.882813 963.730469 822.179688 959.058594 828 965 M 662 967 C 664 965.773438 664.324219 965.296875 665 963 C 662.964844 964.226563 662.675781 964.703125 662 967 M 689 963.332031 C 689.890625 963.332031 689.890625 964.667969 689 964.667969 C 688 964.667969 688 963.332031 689 963.332031 M 853 969 C 855.203125 969 856.894531 968.644531 859 968 C 856.402344 966.203125 854.851563 966.402344 853 969 M 1075 969 C 1076.3125 968.230469 1076.230469 968.3125 1077 967 C 1075.363281 967.546875 1075.546875 967.363281 1075 969 M 836 975 C 839.441406 972.589844 840.410156 970.761719 845 971 C 840.445313 966.371094 836.449219 969.128906 836 975 M 846.5 969.5 C 845.871094 970.128906 846.871094 971.128906 847.5 970.5 C 848 970 847 969 846.5 969.5 M 583 976 C 584.457031 975 584.898438 974.457031 586 973 C 583.875 974 583.898438 974 583 976 M 918 988 C 919.519531 984.808594 927.621094 971.101563 932.351563 974.832031 C 938.96875 980.050781 920.851563 987.070313 918 988 M 696 974 C 698.472656 978.132813 699.835938 981.089844 705 981 L 704 987 C 714.960938 979.011719 721.394531 988.28125 732 993 L 732 994 C 721.644531 995.335938 711 997.441406 701 1000.152344 C 698.269531 1001 692.25 1003.527344 690 1000.394531 C 687.757813 997 692.230469 987.726563 693 984 C 693.929688 980.578125 694.34375 977.109375 696 974 M 1151 976 C 1164.261719 1008 1172.324219 1036.410156 1164 1071 C 1161.421875 1082.359375 1157.371094 1096.367188 1148 1104 C 1146.792969 1088.691406 1144 1073.378906 1144 1058 C 1136 1067.695313 1135.328125 1081.136719 1132.789063 1093 C 1128.480469 1113.105469 1118.90625 1145.027344 1102 1158 L 1102 1130 C 1093.34375 1139.621094 1090.609375 1152.183594 1083.933594 1163 C 1069.429688 1186.507813 1048.683594 1207.472656 1045 1236 L 1044 1236 C 1038.25 1216 1035 1199.097656 1035 1178 C 1018.65625 1192.007813 1026.277344 1219.292969 1017 1237 L 1016 1237 C 1016.171875 1216.328125 1017.375 1195.582031 1019 1175 L 1018 1175 C 1011.855469 1201.566406 1007.3125 1232.449219 995.242188 1257 C 991.320313 1265 987.402344 1276 979 1280 C 985.359375 1260.113281 989.246094 1241 988.996094 1220 C 988.882813 1210.347656 984.851563 1199.480469 986.21875 1190 C 988.238281 1176 1000.335938 1165.207031 1001 1150 L 1002 1150 C 1003.277344 1160.109375 1004 1169.800781 1004 1180 L 1005 1180 C 1008.34375 1167.113281 1013 1154.636719 1017.332031 1142 C 1019.570313 1135.265625 1021.453125 1127.753906 1027 1123 C 1028.566406 1134.644531 1031 1148 1037.207031 1158 C 1038.472656 1160.109375 1043.710938 1169.433594 1046.972656 1165.535156 C 1050.609375 1161.1875 1045.800781 1147.539063 1046 1142 C 1046.628906 1128.445313 1052.925781 1117.1875 1058 1105 L 1059 1105 C 1059 1118 1059 1132 1064.234375 1144 C 1065.5 1147 1070 1156.304688 1074.484375 1153.246094 C 1078.890625 1150.246094 1076.808594 1139.601563 1077.613281 1135 C 1080.964844 1116 1086 1099.5 1086 1080 C 1100.902344 1085.789063 1097.691406 1102.378906 1107 1112 C 1107.816406 1102 1110.878906 1093.167969 1109 1083 C 1107.792969 1075.761719 1101.484375 1067.421875 1103.984375 1060 C 1107.214844 1050.414063 1112.195313 1053.339844 1114.65625 1061 C 1118 1071.4375 1119 1082.105469 1119 1093 C 1125 1086.476563 1124.578125 1072.550781 1126 1064 C 1128 1052.539063 1134.476563 1042.433594 1136.535156 1031 C 1138 1022.234375 1136 1012.527344 1134 1004 C 1149.367188 1011.320313 1142.816406 1030.453125 1152 1041 C 1152.238281 1029.390625 1156 1017.640625 1154.714844 1006 C 1153.695313 997.476563 1147.65625 984.046875 1151 976 M 367 978 C 366.824219 999.164063 364.320313 1018.726563 366 1040 C 375.894531 1029.570313 368.746094 1012 384 1004 C 377.835938 1026 385.167969 1038.105469 390.523438 1059 C 393.472656 1070.519531 394 1082.496094 397 1094 L 398 1094 C 398 1083.21875 398.71875 1072.226563 402.4375 1062 C 405 1054.777344 410.28125 1049.183594 413.359375 1060 C 415 1066.304688 411.398438 1072.109375 409.746094 1078 C 406.648438 1089.046875 405.449219 1102.574219 413 1112 C 414.617188 1099.46875 419.695313 1085.414063 432 1080 C 431 1099.742188 436 1115.734375 439.535156 1135 C 440.316406 1139.410156 438.222656 1151.484375 443.429688 1153.742188 C 448 1155.769531 451.96875 1147.0625 453.335938 1144 C 458.984375 1131.339844 458 1117.511719 458 1104 L 459 1104 C 463.847656 1115.640625 470.660156 1127.011719 470.984375 1140 C 471 1145.238281 467.179688 1161.773438 470 1165.535156 C 473 1169.488281 479 1160 480.300781 1158 C 486.894531 1147.820313 490.480469 1135.089844 491 1123 L 492 1123 C 501.683594 1139.597656 508.667969 1162.277344 513 1181 L 514 1181 C 514 1171.589844 514.28125 1161.25 516 1152 L 517 1152 C 518 1166.019531 528.644531 1176.671875 530.65625 1190 C 532.636719 1203.121094 527.445313 1218.449219 528 1232 C 528.753906 1248.316406 534.9375 1264.308594 539 1280 C 529 1275.34375 523.589844 1262.753906 519.8125 1253 C 510 1228.058594 511 1199.007813 499 1175 C 498.457031 1183.414063 500.59375 1191.636719 500.960938 1200 C 501.488281 1212.066406 500 1224 501 1236 L 500 1236 C 489.769531 1218 497.609375 1195.277344 483 1179 C 482.996094 1196.488281 481.746094 1219.464844 473 1235 L 472 1235 C 469.730469 1207.203125 446.984375 1185.746094 433.453125 1163 C 427.179688 1152.457031 424.359375 1138.335938 415 1130 C 415 1140.082031 415.570313 1150 416 1160 L 415 1160 C 406.199219 1141.394531 394.21875 1126.28125 388.425781 1106 C 385.296875 1095.03125 382.621094 1084 379.425781 1073 C 377.957031 1068 377.632813 1062 374 1058 C 374 1073.476563 370 1088.523438 370 1104 C 360.261719 1097 356.925781 1084.136719 354 1073 C 346.996094 1044.617188 347 1002.035156 367 978 M 560.996094 979.476563 C 573.378906 976.824219 564.347656 995.828125 556 997.601563 C 543.203125 1000.320313 553.796875 981.019531 560.996094 979.476563 M 971 997 C 963.328125 998.417969 948.324219 995 949.464844 984.019531 C 950.628906 973 963.570313 984.304688 966 988 C 967.945313 991 969.558594 994 971 997 M 564 1018 L 564 1017 C 547 1017 558.96875 1003.296875 568 999 C 566.519531 998.015625 566.796875 998 565 998 C 573.367188 980.316406 578.980469 992.316406 590 999 C 593 1000.746094 599.953125 1000.347656 601.867188 1003.5625 C 603.363281 1006.082031 600.847656 1009.785156 599.753906 1012 C 596.710938 1018.152344 592.511719 1034.496094 586.605469 1038 C 582.386719 1040.386719 574.945313 1035.34375 571 1033.8125 C 567.765625 1032.554688 552.207031 1029.03125 552.207031 1025 C 552.207031 1021.46875 561.371094 1019.078125 564 1018 M 810 987 C 810.9375 989 811.390625 989.550781 813 991 C 812 989.050781 811.609375 988.449219 810 987 M 952 997 L 949 997 L 949 998 C 956 1003.304688 970.421875 1017 953 1017 C 955.429688 1018.660156 964.792969 1021.597656 964.792969 1025 C 964.792969 1027.710938 958.945313 1029 957 1029.679688 C 951.382813 1031.761719 934.90625 1042.175781 929.699219 1037.394531 C 924 1032.261719 921.683594 1019.792969 918.21875 1013 C 917 1010.671875 914.242188 1007.089844 915.367188 1004.3125 C 916.84375 1000.675781 923.941406 1001.34375 926.960938 999.6875 C 937 994.144531 943.230469 980.109375 952 997 M 797.511719 990.15625 C 796.417969 991 796.960938 993.472656 798.53125 992.675781 C 800 992 799 989 797.511719 990.15625 M 715 994 C 723.558594 993.527344 720 988 715 994 M 846 1015 C 839 1028 821.171875 1031.40625 808 1034 C 776.496094 1040.199219 738.515625 1039.625 707 1033.738281 C 693.941406 1031.300781 678.191406 1027.183594 671 1015 C 680.742188 1015 684 1014.4375 684 1025 C 684.886719 1022.386719 685 1018 687.5625 1016.195313 C 690 1014.410156 694 1016 697 1016 C 704.90625 1016.308594 712.210938 1016.636719 720 1015 C 748.558594 1008.441406 773.699219 1014 802 1016 C 816.523438 1017 831.421875 1015 846 1015 M 830 1017 L 830 1022 L 831 1022 C 830.910156 1020.035156 830.777344 1018.769531 830 1017 M 711 1062 L 710 1063 L 711 1062 M 1134 1128 L 1134 1131 L 1133 1131 C 1133.25 1129.546875 1133.316406 1129.246094 1134 1128 M 651 1211 C 656.957031 1215.078125 658.832031 1227.65625 662.605469 1234 C 671.867188 1249.578125 683.722656 1266 699 1276 C 690.816406 1264 682.300781 1252.660156 677 1239 C 693.980469 1248.769531 705.671875 1266.09375 724 1274 C 718 1264.34375 711.640625 1254.121094 709 1243 C 726.203125 1249.664063 731.765625 1272 744 1284 L 735 1254 C 750.488281 1265.148438 747.527344 1287.550781 760 1300 C 761.945313 1287.011719 771.515625 1262.097656 782 1254 C 780 1264.15625 775.507813 1273.796875 774 1284 L 775 1284 C 780.882813 1270.347656 794.722656 1248.53125 809 1243 C 805.96875 1253.527344 799.203125 1263 795 1273 C 811.585938 1263.550781 824.445313 1248.433594 841 1239 C 835.527344 1252.34375 827.773438 1264.585938 819 1276 C 834.335938 1266 846.28125 1249.664063 855.546875 1234 C 859.246094 1227.753906 861 1216.0625 867 1212 C 868.78125 1220.632813 869.457031 1228.234375 867.914063 1237 C 867.433594 1239.730469 864.585938 1246 866.210938 1248.355469 C 869.613281 1253.597656 885.898438 1242.449219 889 1240.277344 C 901.601563 1231.457031 911.523438 1219 919.78125 1206 C 924.960938 1198 929.589844 1186.675781 939 1183 C 938.921875 1197.167969 938.191406 1212.476563 933.644531 1226 C 930.472656 1235.4375 923.742188 1244.234375 922 1254 C 935.371094 1245.816406 946.886719 1237.117188 958 1226 C 964.757813 1219.238281 970.191406 1210.515625 978 1205 C 978 1221.199219 982.742188 1241 975 1256 C 969.941406 1266 957 1269.6875 948 1275 C 929.652344 1285.363281 913.3125 1304.570313 893 1311 C 897.234375 1298.488281 904.308594 1287.003906 907 1274 L 906 1274 C 895.667969 1304.539063 870.550781 1328.695313 841 1341 C 844.488281 1332.761719 851.851563 1326.179688 857 1319 C 864.503906 1309 870.484375 1297.636719 875 1286 C 862 1299.238281 852.578125 1315.34375 837 1326 C 794.96875 1354.648438 729.554688 1356.097656 686 1329.796875 C 666.925781 1318.277344 657.179688 1301.304688 642 1286 C 646.875 1297.710938 653 1309.832031 660.664063 1320 C 666.570313 1328 674 1334.402344 679 1343 C 647.628906 1330 623 1305.535156 611 1274 L 610 1274 C 612.71875 1287.136719 619.71875 1298.421875 624 1311 C 602.464844 1307.160156 586 1284.269531 568 1273.453125 C 558.503906 1267.789063 546.628906 1265.011719 541.878906 1254 C 535.609375 1239.460938 539.683594 1221.246094 540 1206 C 560.6875 1220.613281 571 1243.628906 596 1254 C 588 1229 575.515625 1210.5625 579 1183 C 587.984375 1187.203125 592.246094 1198.097656 597.515625 1206 C 605.898438 1218.566406 615.816406 1230.472656 628 1239.523438 C 631.445313 1242.082031 646.921875 1253.535156 650.957031 1248.382813 C 653.234375 1245.472656 650.1875 1239.179688 649.617188 1236 C 648 1227.550781 649 1219.242188 651 1211 M 964 1281 L 963 1282 L 964 1281 M 700 1351 L 699 1352 L 700 1351 "/>
</g>
</svg>
