<?xml version="1.0" encoding="UTF-8"?>
<svg xmlns="http://www.w3.org/2000/svg" xmlns:xlink="http://www.w3.org/1999/xlink" width="1500pt" height="1500pt" viewBox="0 0 1500 1500" version="1.1">
<g id="surface1">
<path style=" stroke:none;fill-rule:nonzero;fill:rgb(0%,0%,0%);fill-opacity:1;" d="M 355 726 C 359 724.796875 361.859375 722.816406 365 720 C 364.214844 723.429688 364.234375 739 367.316406 740.398438 C 372 742.753906 377.410156 738.660156 381 744.113281 C 385.207031 750.050781 383.296875 758.546875 386.402344 765 C 389.339844 771.101563 395.285156 774.410156 398.867188 780 C 404.539063 789 405.921875 801.695313 405.921875 812 C 405.921875 843.21875 382 873.074219 368.753906 900 C 364 909.5 357.933594 920.300781 357 931 C 359.953125 929 362.4375 926.546875 365 924 C 360.210938 935.5 355 946.257813 355 959 C 363.4375 954.53125 369.996094 943.464844 374 935 L 375 935 C 370.710938 953.050781 357.84375 966.429688 357 986 C 363 981.007813 367.386719 973.660156 373 968 C 369.546875 982.34375 362 996.496094 360 1011 C 366.410156 1006.390625 370 999.152344 376 994 C 371.226563 1014.046875 371.398438 1032 374 1052 L 375 1052 C 378.730469 1039.40625 378.464844 1030.621094 389 1021 C 385.328125 1035.1875 384 1050.398438 383.996094 1065 C 383.933594 1070.375 381.953125 1077.449219 387 1081 C 387.519531 1069.085938 394.816406 1060.050781 398 1049 L 399 1049 C 396.78125 1060.777344 390.527344 1077.496094 399 1088 C 402 1077.601563 405 1072 413 1064 C 409.300781 1075.570313 407 1088 407 1100 C 410.472656 1099 413 1097.203125 416 1095 C 416.179688 1103.683594 418.746094 1112.34375 418.726563 1121 C 418.71875 1124.316406 415.558594 1128.554688 417.707031 1131.582031 C 419.882813 1134.640625 424.640625 1135 428 1135 L 428 1137 C 411.925781 1137.335938 415.917969 1146.261719 429 1149 L 429 1150 C 425.464844 1151.78125 422 1156.507813 428 1157.773438 C 438 1160 448.816406 1159.109375 459 1161 L 459 1162 C 448.613281 1162 438.308594 1162.304688 428 1161 C 430.867188 1168.558594 436.492188 1173.625 444 1176.53125 C 447 1177.707031 455.300781 1178 456.792969 1181.21875 C 458.222656 1184.410156 443.746094 1189 442.753906 1193 C 441.855469 1196.714844 446.273438 1198.074219 449 1198.761719 C 456.476563 1200.632813 464.359375 1200 472 1200 C 470 1203.351563 462.980469 1211.378906 464.710938 1215.382813 C 465.699219 1217.667969 470.199219 1216.210938 472 1216.089844 C 479.941406 1215.5625 488 1216 496 1216 C 491.667969 1220.332031 486.613281 1224.394531 484 1230 C 497 1229.730469 508.855469 1224 521 1220 C 513 1230.421875 503 1235.558594 492 1242 L 492 1243 C 503 1249.417969 517.371094 1251 530 1251 L 530 1252 C 519.246094 1256.472656 509.753906 1259 498 1259 C 501.664063 1266.21875 510.429688 1269 518 1270 C 520.402344 1270.339844 528.59375 1270.066406 529.792969 1272.496094 C 530.925781 1274.792969 526.394531 1276.300781 524.996094 1276.777344 C 521.347656 1278.023438 510 1279.214844 510.921875 1285 C 511.738281 1291.117188 522.511719 1291.464844 527 1291.25 C 543.28125 1290.476563 558.738281 1282 574 1277 C 559 1291.554688 541.4375 1292.246094 524 1301 L 524 1302 C 540.300781 1307 556.386719 1300.261719 572 1296 L 572 1297 C 563.414063 1299.714844 554.222656 1305.648438 549 1313 C 574.285156 1314.085938 596.792969 1313.1875 622 1310 C 618 1319.734375 613.460938 1329.308594 613 1340 C 622.902344 1337.289063 631.625 1332.511719 642 1331.285156 C 645.640625 1331 651.90625 1330.738281 653.292969 1335.132813 C 654.675781 1339.515625 650.195313 1345.820313 649 1350 C 661.867188 1348.371094 674.996094 1343 675 1360 C 682.859375 1357.734375 690.21875 1353.632813 698 1351 C 696.382813 1357.257813 695.230469 1363.652344 694 1370 C 711.859375 1369.628906 720.574219 1358.457031 734 1349 C 735 1360.445313 745.855469 1376.523438 758.957031 1367.410156 C 764.933594 1363.253906 766.617188 1354.675781 768 1348 C 775.820313 1356.488281 782.75 1364 794 1367.644531 C 803.855469 1371 808.617188 1369.0625 806 1358.003906 C 805.566406 1355.59375 804.867188 1353.304688 804 1351 C 811.613281 1354.125 819 1357.824219 827 1360 C 826.945313 1357 825.746094 1352.089844 827.898438 1349.523438 C 831.574219 1345.136719 847.597656 1349 853 1349 C 851.335938 1345 847.53125 1339.660156 848.410156 1335.132813 C 849.28125 1330.652344 855.527344 1331 859 1331.171875 C 869.441406 1332.128906 878 1337.292969 888 1340 C 887.539063 1329.390625 881.527344 1320.355469 880 1310 C 903.921875 1316.1875 927.730469 1313.003906 952 1313 C 947.382813 1305.363281 937.234375 1300.015625 929 1297 L 929 1296 C 945.554688 1300.515625 960.753906 1303 978 1303 C 974 1297.132813 964.277344 1297 958 1295 C 946.90625 1291.441406 935.746094 1286 928 1277 C 943.371094 1282.003906 959.46875 1291.660156 976 1291.660156 C 979.914063 1291.660156 993.644531 1290 990.824219 1283.210938 C 988.382813 1277.328125 973.988281 1276.320313 969 1272 C 978 1270.320313 987.507813 1270.75 996 1266.671875 C 997.691406 1266 1003.757813 1262.761719 1001.824219 1260.023438 C 1000.636719 1258.34375 995.835938 1258.695313 994 1258.410156 C 986.832031 1257.285156 979.800781 1255.535156 973 1253 L 973 1252 C 984.171875 1248.457031 1001.695313 1251.507813 1010 1242 C 998.75 1235.433594 989.910156 1229.675781 981 1220 C 992.929688 1224.601563 1005 1230 1018 1230 C 1015.324219 1224.265625 1009.886719 1221 1006 1216 C 1013.960938 1216 1022 1215.5625 1030 1216.089844 C 1031.78125 1216.207031 1036.589844 1217.695313 1037.554688 1215.382813 C 1039 1211.652344 1030.902344 1203.082031 1029 1200 C 1037.324219 1200 1045.839844 1200.550781 1053.996094 1198.53125 C 1061.519531 1196.667969 1059.347656 1191.101563 1053.984375 1188 C 1052.382813 1187 1050.6875 1186.097656 1049 1185.300781 C 1046.375 1184.050781 1043.75 1183 1041 1182 L 1041 1181 C 1053.828125 1180 1068.761719 1174.277344 1073 1161 C 1062.859375 1161.800781 1053 1162.027344 1043 1162 L 1043 1161 C 1052 1159.242188 1060.945313 1159.582031 1070 1158.269531 C 1077.621094 1157.167969 1078.332031 1153.457031 1071 1150 L 1071 1149 C 1084 1148 1091 1138.390625 1074 1137 L 1074 1135 C 1077.199219 1135 1082 1134.742188 1083.929688 1131.582031 C 1085.710938 1128.566406 1083 1123.347656 1083 1120 C 1082.867188 1111.324219 1084.910156 1102.570313 1086 1094 L 1087 1094 C 1090.882813 1101.398438 1095.265625 1098.011719 1094.960938 1091 C 1094.574219 1082.101563 1091.226563 1072.609375 1089 1064 C 1095.816406 1071.128906 1099.960938 1078.671875 1103 1088 L 1104 1088 C 1107.605469 1075.167969 1105.640625 1062.792969 1103 1050 L 1104 1050 C 1107.894531 1059.398438 1111 1074.011719 1117 1082 C 1121.855469 1065.535156 1115 1039.003906 1113 1022 C 1123.601563 1029.632813 1122.839844 1041 1127 1052 C 1137.429688 1034.621094 1126.78125 1012.199219 1126 994 C 1131 999.554688 1134.988281 1006.726563 1142 1010 C 1137.507813 996.222656 1129 984 1129 969 C 1134 974.125 1138.367188 981 1145 984 C 1142.644531 975.640625 1141.214844 967 1137.511719 959 C 1133.40625 950.238281 1127.269531 942.554688 1125 933 L 1126 933 C 1129.351563 942 1136.675781 954.828125 1146 958 C 1145.894531 945.089844 1140.902344 933.261719 1135 922 C 1137.867188 925 1140.289063 928.121094 1144 930 C 1134.898438 886 1095.773438 853.757813 1096 807 C 1096 797.816406 1097.40625 786.703125 1102.800781 779 C 1106.355469 774 1112 770.589844 1114.898438 765 C 1118 758.570313 1116.210938 750.160156 1120 744.109375 C 1124.847656 736.691406 1139 745.3125 1135.570313 732.023438 C 1135 730.332031 1134.53125 728.667969 1134 727 C 1137.839844 726.296875 1137.753906 724.546875 1137 721 C 1140.214844 723.441406 1143 725.230469 1147 726 C 1145.371094 722.113281 1134.207031 706.828125 1137.902344 703.195313 C 1140.34375 700.792969 1147 703.441406 1150 704 C 1148.792969 695.824219 1143 687.40625 1144.226563 679 C 1145 673.121094 1149.808594 668.429688 1151.933594 663 C 1155.613281 653.597656 1157.355469 644 1162.425781 635 C 1175 613 1195 591.328125 1197.824219 565 C 1199.261719 551.589844 1195 539.089844 1193.285156 526 C 1191.210938 511.378906 1192.585938 496.652344 1190.714844 482 C 1189 469.179688 1183.980469 457 1183 444 C 1181.335938 418.542969 1192.371094 395.082031 1192.984375 370 C 1193.832031 335.433594 1183.257813 301.246094 1179 267 C 1175 232.8125 1175.28125 197.3125 1165.710938 164 C 1161.195313 148.289063 1152.363281 131.574219 1134 130.09375 C 1095.488281 127 1059.375 161.046875 1036.269531 188 C 1017.796875 209.554688 998.78125 231.019531 983.433594 255 C 970 276 962 299.058594 950.742188 321 C 944.742188 332.625 936.21875 342.601563 929.863281 354 C 921.183594 369.554688 920 388.425781 909.511719 403 C 899.46875 416.820313 885.566406 427.535156 875 441 C 868.953125 448.734375 864.511719 459.34375 855 463.46875 C 847.640625 466.65625 841.238281 462.621094 834 461.261719 C 825.484375 459.660156 817.550781 460.3125 809 461.167969 C 791.621094 463 774.46875 466.195313 757 467 C 733 468.007813 709.753906 465.078125 686 464.039063 C 674.980469 463.558594 664 466.027344 653 464.824219 C 636.519531 463.035156 631.386719 446.367188 622.484375 435 C 613.175781 423.113281 600.609375 414.320313 591.746094 402 C 581.777344 388.140625 581.335938 370.613281 573 356 C 566.886719 345 558.570313 335.183594 552.4375 324 C 544.347656 309.257813 539.703125 292.808594 531.691406 278 C 512.851563 243.167969 487.851563 211 460.910156 182 C 441 160.675781 418 139.585938 389 132.375 C 376 129.144531 360.53125 128.367188 350 138.105469 C 328 158.382813 328.453125 200.53125 325.828125 228 C 323.203125 255.480469 320 282.726563 315.585938 310 C 312.828125 326.453125 307.542969 343.269531 307 360 C 306.472656 386.597656 321.320313 412.414063 318.828125 439 C 317.425781 454 312.289063 468.148438 310.289063 483 C 308.316406 497.644531 309.765625 512.363281 307.839844 527 C 305.914063 541.625 300.527344 553 304 568 C 310 593 326 612.253906 338.574219 634 C 345.679688 646.417969 349.71875 661 355.582031 674 C 359.871094 683.511719 349 694.773438 352.695313 702.394531 C 354.433594 706.128906 360.609375 701.195313 363.210938 703.199219 C 367 706.175781 356 722.25 355 726 M 529 564 C 521.523438 560.183594 516.644531 554 510.960938 548 C 497 533.457031 481.972656 514.082031 481 493 C 480.414063 478.820313 487.617188 467.6875 488.960938 454 C 490 442.6875 485.238281 432.820313 483 422 C 499.925781 425.019531 511.808594 439.621094 530 440 C 517.960938 429.488281 504.703125 418 490 411.3125 C 482.238281 407.824219 473.496094 408.371094 466 404.121094 C 453.367188 397 443 385.660156 432 376.433594 C 417.726563 364.558594 402.40625 353.03125 398 334 L 397 334 C 397 375.558594 441.761719 396.597656 459.214844 430 C 463.921875 439.003906 466.742188 450 463.789063 460 C 461.386719 468.148438 455.449219 475.351563 455 484 C 454.558594 494.160156 458.773438 504 462.71875 513 C 471.871094 534.222656 485.332031 557.222656 506 569 C 500.925781 575.578125 491.945313 580.710938 484 583 C 485.171875 578.46875 487.46875 571.332031 483.480469 567.464844 C 479.539063 563.644531 478.730469 574.5 474 569.664063 C 467.769531 563.199219 465.707031 551.222656 462.574219 543 C 457.796875 530.445313 451.492188 520.496094 442 511 C 446.28125 526.660156 449.457031 542.28125 453.476563 558 C 455.730469 566.808594 460.25 574.824219 461 584 C 444.800781 576.429688 437.578125 563.695313 429 549 C 426.886719 558 429.722656 565.316406 431 574 C 401.585938 558.742188 406.515625 502.320313 368 502 C 372.613281 508.253906 379 512.035156 383 519 C 393.59375 537.074219 399 557.378906 412.210938 574 C 418 581.371094 424.636719 587.742188 432 593.546875 C 435.414063 596.238281 442 598.792969 443.605469 603.09375 C 444.945313 606.683594 441.574219 610.121094 439.949219 613 C 435.492188 621 435.511719 631.101563 428 637 C 427 630.308594 426.617188 623.566406 425 617 L 424 617 C 422.496094 621.445313 416.773438 642.667969 410.199219 640.652344 C 406.613281 639.558594 404.746094 632.585938 402 630 C 402 636.550781 402.964844 649.714844 399.398438 655.382813 C 396.984375 659.226563 388.191406 654.136719 387.320313 651 C 382.652344 633.425781 401.449219 617.144531 410 605 C 393 605.046875 376.929688 620 360 613.734375 C 354 611.546875 349.6875 605.703125 345.753906 601 C 335 588.246094 326 573.609375 323 557 C 321.644531 548.808594 321 537.023438 329 531.742188 C 335.390625 527.566406 344.566406 531 351 533 C 360.6875 536.226563 369 538.15625 379 535 C 368.667969 529 357.289063 523.1875 353 511 C 350.898438 504.558594 352.175781 497.585938 349.921875 491 C 339.457031 460.445313 338.671875 431.792969 334.714844 400 C 332 378.171875 327.203125 358.136719 330 336 C 334.46875 339.214844 337.53125 343.785156 342 347 C 338.78125 336.113281 341 324.195313 341 313 L 342 313 C 344.703125 317.308594 347.558594 321.25 351 325 C 348.390625 313.589844 349 302.355469 347 291 C 351.691406 294.625 353.578125 300.210938 358 304 C 354.289063 293.042969 353.238281 279.53125 353 268 L 354 268 C 358.425781 275.230469 361.378906 284.777344 367 291 C 366.960938 276.71875 361.328125 263.21875 361 249 C 360.988281 245.675781 361.246094 236.636719 366 236.636719 C 371.378906 236.632813 378.351563 245.351563 383 248 C 378.539063 237.28125 373 226 362 221 C 370.285156 213.25 382.484375 215 393 215.003906 C 426.660156 215.402344 461.167969 237.210938 481.332031 263 C 492 277 497.664063 294.007813 506.605469 309 C 522.390625 335.480469 546.480469 361.226563 546.429688 394 C 546.410156 405.214844 539.554688 415 539.261719 426 C 539 433.457031 545.300781 441.523438 542.398438 449 C 540.34375 454.203125 530.648438 454 529.921875 459.1875 C 529.402344 463 534.386719 465.433594 535 469 C 535.789063 472.769531 532.597656 476.355469 532 480 C 531.519531 484.082031 533.960938 488 533.253906 492 C 531.78125 500.429688 521.84375 508.777344 518.335938 517 C 510.265625 536 521.320313 547.769531 529 564 M 1139 220 L 1139 221 C 1127 226.214844 1123 238.546875 1117 249 C 1121.441406 246.234375 1130.445313 236.386719 1135.773438 237.035156 C 1140.375 237.597656 1139.984375 246.800781 1140 250 C 1140 263.757813 1132.371094 278.535156 1135 292 L 1136 292 C 1138.351563 283 1142 276 1147 268 L 1148 268 C 1147.753906 280 1146.21875 292.214844 1144 304 C 1147.710938 300.34375 1150 295.328125 1153 291 L 1154 291 C 1154 302.472656 1153.5625 312.796875 1151 324 C 1154.429688 320.40625 1157.183594 316.152344 1161 313 C 1158.449219 323.714844 1160 336.019531 1160 347 C 1163.976563 344 1166.894531 340 1171 337 C 1176 358.183594 1169.367188 380 1166.273438 401 C 1161.746094 431.730469 1161.285156 460.078125 1152 490 C 1149.890625 497 1150.472656 504.195313 1148 511 C 1143.847656 523.199219 1133.464844 529 1123 535 C 1133.726563 538.015625 1141.621094 535.460938 1152 532.425781 C 1158 530.652344 1166 528.003906 1171.984375 531.742188 C 1180.289063 537.039063 1179.636719 548.503906 1178.246094 557 C 1175 576.035156 1159.476563 607.148438 1140 614 C 1123.5625 619.582031 1107.390625 605.136719 1091 605 C 1099.902344 617.382813 1116 632 1113.835938 649 C 1113.300781 653.03125 1104.660156 660.128906 1101.742188 654.667969 C 1098.527344 648.660156 1099.289063 636.757813 1099 630 L 1098 630 C 1096.828125 632.8125 1094 641.792969 1090.285156 641.792969 C 1087.976563 641.792969 1086.351563 637.625 1085.425781 636 C 1081.820313 629.671875 1078.601563 623.339844 1078 616 L 1076 616 C 1075.449219 623 1075.246094 630.367188 1073 637 C 1066.410156 631.335938 1065.746094 621.386719 1061.652344 614 C 1060 611.15625 1056.277344 607.5625 1056.882813 604.039063 C 1057.558594 600.097656 1063 597.566406 1066 595.332031 C 1072.710938 590.039063 1078.90625 583.523438 1084.410156 577 C 1099.625 559 1106.324219 538.554688 1118.46875 519 C 1122.878906 512 1130.226563 507.71875 1135 501 C 1125.925781 503.757813 1118.214844 504.605469 1111.300781 512.089844 C 1094.632813 530.128906 1093.324219 562 1070 574 C 1072.800781 565.238281 1073.71875 558.097656 1073 549 L 1072 549 C 1066.527344 565.8125 1056.585938 577.058594 1040 584 C 1040.402344 574.804688 1044.800781 566.765625 1047 558 C 1051.347656 542 1053.59375 526.410156 1060 511 C 1036.976563 525.632813 1042.738281 557.546875 1023 573 C 1022.351563 569 1019 563.144531 1016.640625 570.023438 C 1015.238281 574.085938 1015.949219 578.785156 1016 583 C 1008.695313 579.542969 1002.460938 574.214844 995 571 C 999.917969 564.015625 1007 559.359375 1012.714844 553 C 1027.820313 536 1040.859375 514.703125 1045.195313 492 C 1047.382813 480.542969 1040.714844 471.648438 1037.925781 461 C 1035 450.40625 1037.441406 438.519531 1042.488281 429 C 1063 390.039063 1108.59375 372.3125 1109 323 L 1107 323 C 1105.449219 342 1090.921875 357.503906 1077 369.078125 C 1066 378.117188 1053.640625 389.402344 1041 395.722656 C 1034.339844 399.054688 1026.820313 399.007813 1020 402 C 1001.324219 409.734375 986.472656 424.203125 977 442 C 993.542969 434.265625 1005.960938 420.09375 1023 413 C 1018.761719 425.445313 1011.863281 436.503906 1011 450 C 1010.304688 463.8125 1019 476.234375 1019.289063 490 C 1019.617188 512 1004.910156 531.378906 991 547 C 985.300781 553.480469 979.972656 560.207031 972 564 C 977.800781 551.574219 986.789063 539.511719 984.699219 525 C 982.941406 512.8125 974 506.335938 969 496 C 966.179688 490.296875 969.546875 485.722656 968.570313 480 C 967.996094 476.625 965.1875 473.519531 965.53125 470 C 965.917969 466.03125 971.78125 463.171875 970.652344 459.105469 C 969 453.496094 960 454.546875 958 449 C 955.484375 441.710938 961.347656 433.277344 961.425781 426 C 961.570313 412.558594 953.597656 400.734375 955.285156 387 C 958.515625 360.691406 975 338.4375 989.332031 317 C 1001.285156 299.066406 1008.410156 278.148438 1021.503906 261 C 1044.621094 230.71875 1101.226563 200.210938 1139 220 M 456 308 C 459.90625 314 470 317.160156 476 321.078125 C 488.855469 329.527344 503.261719 340.832031 510 355 C 495 344.761719 472.484375 345 455 345 C 458.976563 352.003906 469.933594 353 477 355.34375 C 489 359.515625 501.570313 363.65625 513 369.371094 C 519.46875 372.605469 525.253906 377.445313 532 380 C 530.375 342.257813 491.914063 311 456 308 M 969 380 C 985.816406 373.632813 1000.507813 363 1018 357.34375 C 1027.710938 354.246094 1040.328125 353.503906 1047 345 C 1027.449219 345 1009.5 349 991 355 C 1006 334.667969 1027.292969 325.632813 1045 309 C 1036.714844 306.722656 1027.496094 311.785156 1020 315 C 994.945313 325.746094 970.25 351.300781 969 380 M 1150 324 L 1151 325 L 1150 324 M 991 355 L 990 356 L 991 355 M 483 367 C 487 375.714844 494.871094 381.773438 502 388 C 487.21875 386.007813 472.890625 380.183594 458 379 C 464.863281 387.285156 477.433594 389.742188 487 394 C 502.925781 400.683594 517.210938 411.445313 533 418 C 530.964844 392.414063 509.734375 367.554688 483 367 M 969 418 C 987 409.457031 1004.863281 400 1023 391.253906 C 1029.53125 388.148438 1039.273438 385.574219 1043 379 C 1028.277344 381 1014.285156 384 1000 388 C 1006.421875 381.710938 1015.625 376.128906 1018 367 C 991.945313 370.3125 969 390.367188 969 418 M 503 388 L 502 389 L 503 388 M 755 511 C 756.691406 509.148438 757.761719 507.199219 759 505 L 760 505 C 758.34375 513.007813 755.882813 521.359375 753 529 C 757.789063 525 759.789063 519 765 515 C 764.753906 527 761.804688 540.164063 757 551 C 762.890625 548.253906 766.726563 542.714844 772 539 C 771.453125 551.761719 767.445313 564.761719 764 577 C 771.96875 567.792969 777.679688 557.324219 784 547 L 785 547 C 782.757813 564.378906 778 585.597656 772 602 C 778 599 781.492188 593 787 589 C 784.851563 605.652344 777.328125 621.195313 776 638 L 777 638 C 781.238281 628.167969 788.414063 620.046875 794 611 L 795 611 C 794.65625 627.574219 787.753906 643.5 786.171875 660 C 783.902344 683.621094 785.296875 707.410156 786.910156 731 C 788.347656 752.011719 788.859375 772.8125 795.859375 793 C 805.546875 821 824 843.695313 841.625 867 C 860.480469 892.035156 876.984375 918.511719 893.679688 945 C 902.539063 959.054688 913.585938 972.601563 920 988 L 921 988 C 907.914063 949.554688 888.277344 909.128906 866.308594 875 C 849.859375 849.449219 828.5625 826 818 797 C 809.488281 773.429688 809 747.738281 809 723 L 807 723 C 806.9375 730.734375 805 738.253906 805 746 L 804 746 C 804 723 803.960938 700.195313 811.355469 678 C 816 664 825.941406 652.082031 830 638 C 825.625 642.375 821.539063 647.128906 816 650 C 818.46875 637 821.550781 622.257813 834 615 C 831.867188 620 828.972656 624.511719 826 629 C 843.445313 616.714844 857.488281 600.207031 881 606 L 881 607 C 858.722656 609 842.417969 630.339844 832 648 C 851.433594 636 867.714844 620.042969 892 619 L 892 620 C 876.996094 628 863.941406 640.058594 852 652 C 873.691406 643 893.515625 641 917 641 C 911.191406 649.179688 902.269531 653 893 656 C 905.246094 661.175781 923.191406 658.378906 936 656 L 936 657 C 929.242188 660.601563 922 664.054688 915 667 L 915 668 L 935 667 C 930.96875 673 919.308594 674.113281 913 677.269531 C 896.964844 685.292969 868.945313 703.589844 867 723 L 868 723 C 875.726563 696.738281 906.269531 696.53125 924 682 L 908 685 C 916 669.796875 945 673.253906 958 680 L 958 681 C 951.863281 683.316406 945.308594 684.226563 939 686 C 945 689.578125 951.949219 692 959 693 L 959 694 L 946 695 L 946 696 C 976.300781 704.601563 993.757813 729.421875 1007.78125 756 C 1012.886719 765.671875 1019.835938 775.664063 1019.980469 787 C 1020 800.199219 1011.3125 811 1005.308594 822 C 989.921875 850.3125 974.699219 882 942 893 L 942 894 L 966 893 C 962.964844 902 953.65625 904.621094 945 905 L 945 907 C 949 907 958.292969 905.542969 960.929688 909.5625 C 966.207031 917.613281 945.542969 932.652344 941 937 C 951.964844 939.066406 960 938.234375 971 936 C 968.507813 943.328125 962.242188 946.03125 957 951 C 966.234375 951 974 947.046875 983 945 L 981 956 C 993.800781 949.183594 1007.199219 947.625 1021 952 C 1019.277344 949.695313 1018 947.683594 1017 945 C 1023.285156 946.628906 1029.589844 949.054688 1036 950 C 1032 936.246094 1032.230469 913.675781 1051 927 C 1046.902344 914.183594 1042.996094 901.175781 1040.210938 888 C 1039.535156 884.8125 1037.203125 876.699219 1040 874.042969 C 1043 871.183594 1049.449219 876.464844 1052 878 C 1047.710938 867.234375 1037 858.308594 1035 847 C 1040.679688 849.5 1044.660156 853.664063 1049 858 C 1047.683594 848.21875 1043.773438 839 1043 829 C 1042.535156 821 1040.945313 797 1051 793.65625 C 1059.890625 790.796875 1068.5 808.117188 1071.691406 814 C 1084.503906 837.636719 1085.925781 864.125 1090.804688 890 C 1092 897 1100.445313 923.230469 1091 924 C 1099 955.320313 1080 982.371094 1074 1012 L 1073 1012 L 1071 994 L 1070 994 C 1068.65625 1011 1061.3125 1028 1052 1042 L 1051 1042 C 1052 1034.339844 1054 1026.511719 1056 1019 C 1052.273438 1023.277344 1051.765625 1030 1049.191406 1035 C 1043.550781 1046.183594 1033.570313 1056.148438 1022 1061 L 1023 1047 C 1013.402344 1056.464844 1008.292969 1067.21875 996 1074.546875 C 993.339844 1076.132813 986.824219 1080.699219 983.601563 1078.785156 C 978 1075.492188 985.222656 1058.339844 986.667969 1054 C 992.550781 1036.328125 997.894531 1018.277344 1001.550781 1000 C 1003 992.492188 1002.859375 984.242188 1005 977 C 999.203125 983.65625 997.363281 997.59375 994 1006 C 984.855469 1029 967.910156 1056.210938 966 1081 C 965 1094 971.429688 1106.164063 970.941406 1119 C 970.601563 1128 961.207031 1132 961 1142 C 954 1139.125 947.960938 1135 941 1132.203125 C 937.570313 1131 932 1130.324219 929.601563 1127.488281 C 927 1124.65625 928 1119.484375 927.996094 1116 C 927.914063 1109.269531 926.359375 1102.570313 924.996094 1096 C 920.320313 1073.449219 906 1054.304688 901 1032 L 900 1032 C 901.820313 1054.277344 911.953125 1077.222656 917 1099 C 918.378906 1104.324219 923 1119.601563 919.730469 1124.398438 C 917.980469 1127 912.632813 1126 910 1126 C 903.605469 1126.03125 894 1126 889 1130 C 896.707031 1128.570313 909.632813 1127 916.855469 1130.652344 C 921.394531 1133.039063 922.574219 1142.148438 917.722656 1145 C 911.597656 1148.445313 896.222656 1135.558594 891.921875 1142.417969 C 890.351563 1145 894.285156 1146.292969 896 1146.65625 C 898.722656 1147.226563 924 1148.597656 914.675781 1156.144531 C 911 1159.105469 906 1157.179688 902 1157.179688 C 892.65625 1157.179688 883.304688 1159.289063 874 1157 C 870.742188 1156.140625 862.246094 1150.390625 860.496094 1156.144531 C 859 1160.738281 865.902344 1162.273438 869 1162.710938 C 877.808594 1164 886.347656 1165.164063 895 1167.375 C 897.808594 1168.09375 903.519531 1169 902.941406 1173.054688 C 901 1186.070313 884.78125 1178.636719 878 1176.785156 C 876.300781 1176.320313 868.847656 1175.066406 869.632813 1179 C 870.488281 1183.035156 880.871094 1182.175781 883.980469 1183.058594 C 892.671875 1185.527344 916.3125 1191.039063 919.59375 1201.015625 C 921 1205.324219 915.695313 1208.644531 913 1211.050781 C 906.199219 1217.117188 897.855469 1225.828125 888 1223 C 886.765625 1230.808594 877.617188 1232 871 1233.625 C 855.570313 1237.484375 836.589844 1241.710938 826 1227 C 831.972656 1227.523438 837.449219 1230 843 1232 C 838.441406 1228.125 833.519531 1225.296875 828 1223 L 828 1222 C 833.34375 1223.429688 838.492188 1225.257813 844 1226 C 840.828125 1222.566406 819.691406 1210.210938 825 1221 C 818.257813 1218.191406 812.964844 1214.074219 807 1210 L 811 1222 C 807.632813 1220.546875 801 1215.082031 797.363281 1216.558594 C 794.367188 1217.730469 797 1221.542969 798.234375 1223 C 801.84375 1227.355469 806.878906 1230 812 1232 L 811 1227 L 812 1227 C 814.632813 1230.382813 817.285156 1233 821 1235 C 818.746094 1232.792969 816.574219 1230.808594 814 1229 L 814 1228 C 821 1229 827.578125 1231.289063 832 1237 C 813.855469 1237 796 1234.378906 778 1232 C 771.828125 1231.011719 761.4375 1231.253906 756.515625 1227 C 747.34375 1219.058594 755.789063 1200.121094 757.351563 1191 C 758.257813 1185.691406 756 1181.808594 757.699219 1176 C 758.871094 1171.789063 758.460938 1165.53125 762.277344 1162.617188 C 766.984375 1159.027344 782.703125 1165 789 1165 C 784.675781 1170.21875 778.203125 1172.773438 772 1175.1875 C 769.4375 1176.1875 764.382813 1177.132813 763.347656 1180.117188 C 761.804688 1184.550781 770.820313 1184 773 1184 C 783.765625 1184 796.695313 1182.65625 807 1179.425781 C 816.945313 1176.308594 834.878906 1158.160156 839.859375 1149 C 842.871094 1143.464844 840.964844 1137.445313 846 1133 C 846 1139.300781 846.679688 1146.09375 844 1152 C 837 1167.640625 812.691406 1185.769531 796 1189.332031 C 787 1191.21875 776 1186.023438 768 1191 C 760.429688 1195.429688 752.238281 1211.800781 758.515625 1220 C 762.414063 1225 769.40625 1226 775 1228 C 774 1225.292969 773.285156 1223 773 1220 C 776.605469 1222 778.746094 1225.492188 782 1228 C 779.945313 1224.730469 778.597656 1221.824219 778 1218 C 780.746094 1220.132813 787 1232 789 1225 L 805 1232 C 798.546875 1225.679688 792.714844 1217.714844 786 1212 L 787 1221 C 783.367188 1219.472656 780.257813 1217.214844 777 1215 L 777 1214 C 786.839844 1207.570313 799.195313 1210 808.910156 1203.398438 C 825 1192.421875 846.582031 1173 853.300781 1154 C 856.347656 1145.433594 854.644531 1136 855 1127 C 855.601563 1114.234375 857 1104 856 1091 C 855.476563 1083.160156 859.859375 1069.691406 857.253906 1063.042969 C 855.683594 1059.035156 851 1057.40625 848 1054.785156 C 841.941406 1049.640625 835.574219 1043.492188 831 1037 C 834 1035 836.714844 1033 839 1030 C 831 1030 823.730469 1028.765625 816 1027 C 818.902344 1022.746094 825.460938 1022.726563 828 1018.070313 C 831.753906 1011.324219 816 1012 813 1012 L 813 1011 C 825.417969 1001 805.207031 1004.667969 805.207031 998 C 805.207031 994.773438 811.875 991.746094 814 990 L 797 990 C 798.488281 987 800 985.589844 803 984 L 803 983 C 798 983.253906 794.484375 985.371094 790 987 C 790.488281 981.628906 793 978.359375 796 974 C 789.644531 975.527344 785.332031 979.476563 780 983 C 780 978.578125 780.445313 974.378906 781 970 L 772 978 C 771.246094 976.316406 769.402344 969.136719 766.539063 971 C 764.746094 972.039063 764.328125 975.792969 761.828125 975.792969 C 759.183594 975.792969 756 970.578125 754 969 C 753.765625 971.691406 753.394531 973.6875 752 976 C 743.636719 963.792969 741 972.316406 741 983 C 737.238281 980.328125 734.625 973 731.261719 971.207031 C 726.882813 969.023438 727.617188 980.335938 728 982 C 721.261719 980.800781 715.589844 976.769531 710 973 C 710.511719 978 713 981.507813 715 986 C 710 986 705.660156 985.746094 701 984 L 704 994 C 699.507813 993.070313 695.199219 992 691 990 C 692.769531 993.726563 698.734375 999.511719 698 1003.773438 C 696.886719 1010.269531 681.925781 1005.507813 678 1005 C 680.605469 1008.628906 686.632813 1014.199219 686.402344 1019 C 686 1026.242188 672.769531 1025 668 1025 C 669.613281 1027.226563 673.371094 1030.136719 673.363281 1033.074219 C 673.355469 1036.796875 668.371094 1039.765625 666 1042.039063 C 660.25 1047.550781 644.753906 1058.476563 644.691406 1067 C 644.644531 1074 647.308594 1080.070313 644.851563 1087 C 643.273438 1091.433594 635.8125 1094.03125 636.316406 1099 C 636.84375 1104.226563 643.988281 1104.671875 644.851563 1110.019531 C 647 1123.523438 642.65625 1137.652344 646.773438 1151 C 651.980469 1168 667 1181.21875 680 1192.425781 C 684.273438 1196.136719 688 1201.25 693 1204.0625 C 696 1205.808594 702 1208.492188 705.375 1209.394531 C 707.601563 1210 710.316406 1208.109375 712.382813 1209.328125 C 716.882813 1212 709 1219.429688 707 1221 C 707 1218.796875 707.355469 1217.105469 708 1215 C 701.214844 1216.015625 695.4375 1219.808594 689 1222 C 689.921875 1220.578125 694.265625 1215.738281 692.742188 1214 C 691.269531 1212.160156 686 1217.414063 685 1218.210938 C 677.851563 1223.269531 669 1226.652344 661 1230 L 661 1231 C 668.785156 1229 676.289063 1225.46875 684 1223 L 684 1224 C 665.789063 1235.183594 650.578125 1242.101563 629 1235 C 621.601563 1232.5625 608.234375 1230.140625 613 1220 C 603.871094 1227.042969 596 1217.296875 589 1211 C 586.453125 1208.6875 580.777344 1205.183594 581.753906 1201.101563 C 582.550781 1197.75 587.359375 1195.703125 590 1194.050781 C 598 1189 608.828125 1184.277344 618 1182.34375 C 620.621094 1181.796875 631.945313 1183.265625 631.945313 1179 C 631.945313 1175 624.980469 1176.640625 623 1177.15625 C 616.421875 1179 603.1875 1183.613281 600.753906 1173.039063 C 598.878906 1165 624 1163.667969 629 1163.167969 C 630.566406 1163.011719 638 1163.332031 637.367188 1160.203125 C 636.648438 1157.210938 628.34375 1157.140625 626 1157.039063 C 617.789063 1156.679688 609.199219 1156.566406 601 1157.089844 C 597.183594 1157.332031 592.558594 1158.46875 589.453125 1155.4375 C 581.414063 1147.589844 603.949219 1147.238281 606.996094 1146.8125 C 608.582031 1146.589844 612.875 1145.730469 611.792969 1143.183594 C 609 1136.640625 592.332031 1146.488281 587 1144.394531 C 582 1142.355469 581.417969 1133.246094 586 1130.574219 C 593 1126.683594 605.324219 1129 613 1129 L 613 1127 C 605.621094 1127 598.382813 1126.003906 591 1126 C 588.804688 1126 584.757813 1126.699219 583 1125 C 579.28125 1121.226563 583 1105 583.730469 1100 C 587.445313 1074 596.800781 1050.183594 609 1027 C 591.722656 1044.421875 580.445313 1068 576.25 1092 C 575 1099.117188 573.871094 1106.769531 574 1114 C 574 1118 576 1123.109375 573.820313 1126.773438 C 571.675781 1130.335938 566.539063 1130.578125 563 1132 C 555 1135 547.871094 1139.722656 540 1143 C 539.972656 1133 531.59375 1128.824219 531 1120 C 530.277344 1107.746094 535.839844 1096.148438 535.820313 1084 C 535.808594 1076.628906 532.746094 1069 530.308594 1062 C 520.84375 1035.410156 500.226563 1005.449219 499 977 L 497 977 C 500.367188 1003.492188 507.59375 1029.371094 514.859375 1055 C 515.867188 1058.554688 522.71875 1077.304688 518.394531 1079.304688 C 514.6875 1081.015625 508.804688 1076.1875 506 1074.332031 C 494.765625 1067 488.460938 1055.527344 478 1048 C 479.527344 1052.507813 480.390625 1057.28125 481 1062 C 459.703125 1053.085938 457.910156 1034.75 445 1019 L 450 1041 C 439.886719 1032.328125 433 1009.019531 432 996 L 430 996 C 429.957031 1001.109375 429.222656 1006.042969 428 1011 L 427 1011 C 420.582031 983.257813 401 953.378906 411 924 L 406 925 C 406.683594 909.09375 410.683594 893.652344 413.246094 878 C 416.167969 860.167969 417.757813 842 424.605469 825 C 428.625 815.078125 434.585938 801.015625 444 795.148438 C 453.351563 789.339844 456.203125 801 457.539063 808 C 460.722656 825 456.582031 841.734375 452 858 C 456.648438 853.355469 460.699219 849.203125 467 847 C 461.941406 857.816406 453.90625 866.523438 450 878 C 452.359375 876.394531 457.242188 871.199219 460.398438 873.136719 C 463.890625 875.285156 461.4375 884 460.921875 887 C 458.640625 900.800781 454.660156 913.582031 451 927 C 469.386719 912.472656 468.554688 937.355469 465 950 L 484 945 L 480 952 C 494.582031 947.367188 506 949.585938 520 955 C 515 939.703125 534.898438 950.8125 544 951 C 538.773438 946.433594 533.246094 942.257813 530 936 C 540 936.800781 549.765625 938 560 938 C 554.785156 930.59375 546.953125 925.738281 542 918 C 540.566406 915.570313 538 911.4375 540.617188 909 C 543.878906 905.632813 551.722656 907.019531 556 906 L 556 905 C 550.183594 904.746094 543.632813 903.484375 539 899.605469 C 537.8125 898.550781 534.28125 895.210938 536.660156 893.601563 C 540.683594 891 553.953125 894 559 894 C 552.28125 888.132813 542 887.203125 535 880.824219 C 516.414063 864.261719 507.382813 841 494.796875 820 C 488.222656 809.105469 480 798.410156 481 785 C 482.546875 767.203125 497.589844 745 507.882813 731 C 518.953125 716 533.769531 698.421875 554 698 L 554 697 C 549.578125 695.386719 545.683594 695.003906 541 695 L 541 694 C 548.402344 691.238281 555.742188 690.128906 562 685 C 554.71875 685 547.902344 683.207031 541 681 L 541 680 C 554.195313 675 583.726563 667.179688 592 684 C 586.921875 684 581.980469 683 577 682 C 584.679688 688.769531 598 691 607 696.695313 C 618 703.765625 624.867188 714.253906 635 722 C 617.914063 696.09375 595.738281 677.21875 565 669 L 565 668 L 583 668 C 577.726563 662.714844 569.792969 662.105469 565 656 C 578.929688 656 594.371094 660.242188 608 657 C 599 652.277344 588.757813 650.148438 583 641 C 605.601563 642 627.949219 643.246094 649 652 C 641.296875 644.296875 633.65625 636.335938 625 629.679688 C 619.867188 625.734375 613.238281 624 609 619 C 632.996094 620.03125 650.308594 636.21875 669 649 C 660 630.003906 640.636719 610 619 607 L 619 606 C 642 601.703125 656.449219 615.78125 674 628 C 671 624 668.496094 619.730469 667 615 C 678.367188 623.027344 682.300781 637 685 650 C 679.207031 647 675.289063 641.726563 670 638 C 676.578125 650.339844 684.839844 663.722656 689.253906 677 C 697.203125 701 697 726.117188 697 751 L 696 751 C 696 741 694 731.046875 694 721 L 693 721 C 687.910156 748.402344 690.328125 776.308594 680.1875 803 C 669.472656 831.199219 649.410156 853.589844 633.8125 879 C 612.816406 913.199219 596.382813 950.007813 581 987 C 587.574219 980.496094 591.640625 970 596.691406 962 C 610.289063 941 622.894531 919.15625 636.433594 898 C 653.679688 871.058594 678.734375 849 692.742188 820 C 708 788.164063 711.515625 751.785156 713 717 C 714.664063 680 713.957031 646.355469 705 610 L 706 610 C 711.789063 619.816406 716.875 629 725 637 C 721.785156 621.429688 714.6875 604.8125 714 589 C 719.679688 593.003906 723.539063 598.824219 729 603 C 723.527344 585.703125 716.378906 565.246094 716 547 L 717 547 C 721.371094 557.496094 727.570313 569.304688 737 576 C 732.292969 565.0625 729.246094 551 729 539 C 734 542.5625 737.941406 547.4375 743 551 L 735 515 C 740.996094 518 744.4375 524.058594 747 530 L 748 530 C 746.304688 521.800781 742.222656 514.277344 741 506 L 742 506 C 743.550781 508.136719 744.863281 509.449219 747 511 C 747 496 753.824219 496.246094 755 511 M 650 645 C 654.613281 655 667.304688 665.171875 677 670 C 671.75 659 661.195313 649.691406 650 645 M 824 670 C 832.78125 665.445313 845.277344 653.714844 850 645 C 839.714844 649 827.402344 659.347656 824 670 M 850.667969 652.332031 C 850.222656 652.777344 851.277344 652.722656 851.332031 652.667969 C 851.777344 652.222656 850.722656 652.277344 850.667969 652.332031 M 615 667 C 621.328125 680.816406 634.808594 690.636719 641 705 L 642 705 C 641.648438 688.519531 629.804688 673.390625 615 667 M 858 705 C 869 695.785156 876.878906 679 887 668 C 871.789063 668.359375 859.769531 692 858 705 M 597 670 C 601.285156 679.1875 611.816406 685.160156 619 692.039063 C 626.304688 699.035156 631.699219 708.148438 640 714 C 635 693.09375 616.789063 676.695313 597 670 M 860 714 C 870.917969 709 878.804688 694.285156 888 686.289063 C 894 681.0625 902.519531 677.398438 906 670 C 886 675.757813 865.527344 693.792969 860 714 M 874 729 C 883.675781 721.601563 891.480469 712.714844 902 706.054688 C 910 701 920.6875 698.035156 928 692 C 908.511719 686.640625 877.339844 710.289063 874 729 M 575 692 L 575 693 C 592.574219 704.59375 611.804688 711.679688 625 729 C 627.242188 722.671875 621 716.242188 616.960938 712 C 605.527344 700.078125 591.707031 692.003906 575 692 M 584 704 C 587.742188 712.023438 596.71875 717 603 723 C 593.527344 717.15625 584.882813 709.132813 574 706 C 578.261719 711.574219 584.292969 715.722656 589 721 C 579.746094 717.148438 571 710.019531 561 709 C 563.949219 713.003906 567.554688 715.785156 572 718 L 572 719 C 565 717.03125 558.253906 714.316406 551 714 L 551 715 C 554.277344 716.550781 557.515625 718.003906 561 719 L 561 720 C 551 718.730469 542 717.203125 532 718 L 532 720 C 538.179688 720.503906 543.988281 722.621094 550 724 L 550 725 C 541.976563 725 532.722656 723.71875 525 726 L 525 727 L 538 728 L 538 729 C 529.882813 729.355469 521 732.226563 514 736 L 514 737 C 521.332031 736.070313 528.601563 734.316406 536 734 L 536 735 C 525 736 515 742.394531 506 748 L 506 749 C 511.734375 749 517.421875 748.34375 523 747 C 519.421875 750.289063 514.601563 753 512 757 L 518 756 C 513.472656 764 504.964844 768.160156 500.652344 776 C 498.882813 779.21875 498 784.585938 502 786.398438 C 507.738281 789 516 787 519.53125 782 C 524 775.300781 525.472656 767 529.3125 760 C 536.230469 747.429688 548.398438 737.796875 562 733.359375 C 580.898438 727.195313 603.542969 736.003906 613.742188 753 C 620.835938 764.820313 623.667969 780 627.421875 793 C 630.679688 804.414063 634 817.027344 633.742188 829 C 633.421875 841 628.515625 852.207031 628 864 L 629 864 C 637 846.722656 644.671875 824.179688 639 805 C 646 808 652.214844 811 660 811 L 660 810 C 656 808.140625 652.175781 806.203125 648 805 L 648 804 L 660 804 L 660 802 L 653 802 L 653 801 C 658.363281 798.492188 666 795.238281 669 790 C 662 792.644531 655.171875 795.339844 648 797 C 655.375 789.625 663.789063 782.753906 668 773 C 661.625 776.308594 657 782.179688 651 786 C 654.914063 778.558594 658.285156 771.285156 660 763 C 655.226563 766.125 652.542969 773.648438 651 779 L 650 779 C 651.71875 770.667969 653.328125 762.5 654 754 C 649.484375 757.390625 647.800781 766.574219 647 772 L 646 772 L 646 747 L 644 747 L 643 768 L 642 768 C 641.996094 761.046875 642.3125 748.324219 636 744 C 637.496094 752.070313 636 759.167969 634 767 L 633 767 C 632.871094 751.570313 624.699219 734 612 725 L 614 734 C 604.222656 722.1875 598.171875 711.574219 584 704 M 904 719 L 911 709 C 900.597656 712.507813 891.554688 725.414063 887 735 L 886 735 L 889 725 C 876.550781 734.679688 868.285156 752.269531 867 768 L 866 768 C 865.394531 760.347656 865 751.308594 863 744 L 862 744 C 860.953125 752.09375 859 759.78125 859 768 L 858 768 L 858 747 L 856 747 C 855.847656 754.378906 854 761.609375 854 769 L 853 769 C 852.742188 763.132813 851 757.464844 849 752 L 848 752 C 848 759.785156 849.667969 767.265625 850 775 L 849 775 C 847.585938 770.09375 845.378906 764 841 761 C 842.730469 769.367188 846.277344 777 849 785 C 844.191406 780.796875 839.542969 776.203125 834 773 C 837.566406 782.269531 846 788.277344 852 796 C 844.820313 794.515625 838.289063 790.640625 831 790 L 831 791 C 837.234375 795 843 798.617188 850 801 L 850 802 L 840 802 L 840 804 L 852 804 L 852 805 C 848 806.203125 844.554688 808.054688 841 810 L 841 811 C 848 810.691406 854.769531 808.320313 861 805 C 861 820 860.601563 834.722656 865.355469 849 C 866.972656 854 868.582031 860.101563 873 863 C 871 853.390625 867.472656 844 867 834 C 866.175781 814.269531 871.492188 796.519531 877.667969 778 C 880.886719 768.339844 883.722656 758.007813 890.328125 750 C 901.589844 736.34375 918 727.398438 936 732.429688 C 951.484375 736.792969 964.578125 747.828125 972 762 C 975.488281 768.351563 976.835938 776.046875 981 782 C 984.652344 786.75 994.347656 790.105469 999.683594 786.0625 C 1003.335938 783.289063 1001.476563 778.101563 999.347656 775 C 994 767.257813 985.953125 761.308594 980 754 L 989 756 C 986.265625 751.738281 980.613281 749 976 747 L 976 746 L 994 749 C 987.703125 740.46875 975.429688 735.453125 965 735 L 965 734 C 973 734.347656 980.902344 736.832031 989 737 L 989 736 C 980.691406 733.640625 972.488281 731.597656 964 730 L 964 729 L 975 729 C 970.46875 722.503906 957 725 950 725 L 950 724 C 956.707031 723.414063 964.566406 722 971 720 L 971 719 L 940 719 L 940 718 C 946.195313 717.460938 953 716 959 714 L 959 713 C 947.183594 713.097656 936.363281 717.394531 925 720 L 925 719 C 930.785156 716.804688 936.234375 713 940 708 C 930 710.355469 921.628906 716.722656 912 720 C 916.902344 715.484375 922 711.488281 926 706 C 917.59375 707.515625 910.691406 714.042969 904 719 M 904 719 C 902.671875 720.753906 901.753906 721.671875 900 723 C 901.328125 721.246094 902.246094 720.328125 904 719 M 939 719 L 938 720 L 939 719 M 562 720.332031 C 562.773438 720.332031 562 720.832031 561.667969 720.667969 L 562 720.332031 M 912 720 L 911 721 L 912 720 M 925 720 L 924 721 L 925 720 M 1137 720 L 1136 721 L 1137 720 M 604 723 L 603 724 L 604 723 M 751 723 C 751 756.128906 749.507813 789.015625 747 822 C 746.640625 828.09375 740.425781 850.699219 748 852.679688 C 763.316406 856.636719 756 832.292969 756 825 C 755.84375 801.023438 753 777 753 753 C 753 745 755.933594 729.511719 751 723 M 551 725 L 550 726 L 551 725 M 950 725 L 950 726 L 947 726 C 948.25 725.316406 948.546875 725.25 950 725 M 883 733 L 882 734 L 883 733 M 615 734 L 614 735 L 615 734 M 570 736.4375 C 551.726563 739.292969 540.425781 750 532.242188 766 C 530 770.222656 526 775.039063 526.316406 780 C 526.539063 784.144531 529.386719 788.265625 531 792 C 540.867188 814.820313 560.523438 825.523438 585 821.703125 C 636.921875 813.601563 620.292969 728.585938 570 736.4375 M 885 798 L 884 798 C 883 794.46875 882 792 879 790 C 876.449219 809 870.898438 826.175781 878 845 L 879 845 L 878 831 L 879 831 C 881.390625 839.0625 888.378906 847.445313 896 851 L 895 848 C 898.992188 852 902.976563 855.496094 908 858 C 906.390625 852.425781 903.21875 847.773438 900 843 C 909.550781 849 917.4375 856.601563 928 861 C 925.601563 856 921 852.773438 917 849 C 923.367188 851.652344 929.441406 854.78125 936 857 C 933.664063 852.664063 929.488281 850 925 848 L 925 847 C 937.566406 848 949.242188 851 962 851 L 962 849 C 956.234375 848.75 950.652344 847.097656 945 846 L 945 845 C 957.550781 845 967.28125 840.714844 979 839 L 979 837 L 958 836 L 958 835 C 966.445313 834.632813 981.308594 831.671875 986 824 C 980.617188 825.246094 975.503906 827.257813 970 828 L 970 827 C 978 825.792969 984.492188 821.660156 991 817 L 991 816 C 985.265625 816.457031 979.640625 818 974 819 L 974 818 C 980.59375 815.066406 995 808 999 802 L 985 806 L 985 805 C 990.511719 802.425781 995.757813 799.09375 1001 796 C 995.882813 790.046875 984.996094 787.03125 978 791.726563 C 969.335938 797.605469 966.734375 809.734375 958 816.238281 C 935 833.320313 893.988281 829.203125 885 798 C 898 819.355469 923.328125 829.566406 947 818.214844 C 959.308594 812.3125 964.773438 801.757813 970.320313 790 C 972.492188 785.394531 975.683594 781.273438 973.773438 776 C 968 760.488281 956.691406 744.601563 941 738.464844 C 902.761719 723.503906 877.527344 765.328125 885 798 M 558 752 C 555 759.578125 548.691406 765.527344 548 774 C 546.84375 792 565.503906 808.25 583 802.777344 C 592.828125 799.707031 596.640625 792.484375 602.761719 785.058594 C 604 783.550781 606.949219 780.335938 608.957031 782.660156 C 610.871094 785 609 789.601563 608.359375 792 C 605.542969 802.253906 597.203125 810.191406 587 813.074219 C 574.289063 816.671875 559 815.070313 549 805.816406 C 531.613281 789.78125 536.480469 761.289063 558 752 M 575 752.394531 C 582.695313 750.664063 592.265625 753.042969 597.441406 759.183594 C 600.628906 763 603.296875 771.359375 596.890625 773.425781 C 589.699219 775.75 580.488281 773.578125 573 774.089844 C 569.527344 774.328125 565.457031 775.777344 562.226563 773.820313 C 551.769531 767.484375 568.621094 753.828125 575 752.394531 M 915 752.390625 C 922.601563 750.738281 931.609375 752.804688 936.582031 759.042969 C 939.6875 763 942.539063 772.519531 935.890625 774.566406 C 929.578125 776.511719 906.402344 776.453125 901.316406 772.257813 C 892.3125 764.824219 908.667969 753.765625 915 752.390625 M 943 752 C 963.617188 759.148438 968 787 954.480469 803 C 945 814 927.480469 817.195313 914 813.511719 C 904.390625 811 896.351563 803.015625 892.347656 794 C 891 791.03125 888.9375 785.589844 891.320313 782.621094 C 893 780.332031 895.980469 782.535156 897.367188 784.148438 C 903.617188 791.4375 905.980469 799 916 802.25 C 933.546875 808.082031 954.417969 793.160156 952.8125 774 C 952 765.464844 945.488281 759.808594 943 752 M 519 755 L 518 756 L 519 755 M 851 775 L 851 778 L 850 778 C 850.25 776.546875 850.316406 776.246094 851 775 M 850 785 L 849 786 L 850 785 M 651 786 L 650 787 L 651 786 M 619 789 C 611.277344 822.367188 573.582031 837.832031 545 817.789063 C 535.652344 811.234375 530.84375 795.105469 520.984375 791.007813 C 517.429688 789.53125 500.835938 789.015625 501.921875 796 C 502.511719 799.640625 511.902344 803.46875 515 805 L 515 806 C 510.707031 804.34375 506.570313 802.675781 502 802 L 502 803 C 510 807.707031 517.800781 813.769531 526 818 L 526 819 C 520 818.746094 514.789063 816.503906 509 816 L 509 817 C 513.996094 820.296875 519.226563 823.335938 525 825 L 525 826 C 521.636719 825.375 518.421875 825.027344 515 825 L 515 826 C 523.542969 830.046875 532.378906 834.796875 542 835 L 542 836 L 523 837 C 529.621094 846 545 845 555 845 L 555 846 L 538 849 L 538 851 C 550.457031 851 562.78125 849.367188 575 847 C 571.1875 850.296875 565.734375 852.8125 563 857 C 570 855.539063 576.375 852.71875 583 850 C 579 853.566406 575 856.683594 572 861 C 582.375 858.011719 590.195313 850.820313 599 845 C 596.878906 849.480469 593.761719 853.355469 592 858 C 597.265625 855.496094 601.5 851.652344 606 848 L 605 852 C 612.871094 847.445313 617.183594 839.722656 623 833 C 622.988281 837.078125 622.511719 841 622 845 C 625.894531 842.074219 626.585938 835.660156 626.910156 831 C 627.746094 819.097656 628.496094 797.742188 619 789 M 516 806 L 515 807 L 516 806 M 985 806 L 985 807 L 982 808 C 983.222656 806.804688 983.421875 806.683594 985 806 M 526 826.332031 C 526.773438 826.332031 526 826.832031 525.667969 826.667969 L 526 826.332031 M 529 827.332031 C 529.773438 827.332031 529 827.832031 528.667969 827.667969 L 529 827.332031 M 624 832 L 623 833 L 624 832 M 601 843 C 600.453125 844.636719 600.636719 844.453125 599 845 C 599.546875 843.363281 599.363281 843.546875 601 843 M 894 845 L 893 846 L 894 845 M 608 846 C 607.453125 847.636719 607.636719 847.453125 606 848 C 606.546875 846.363281 606.363281 846.546875 608 846 M 895 847 L 894 848 L 895 847 M 584 849.332031 C 584.773438 849.332031 584 849.832031 583.667969 849.667969 L 584 849.332031 M 747 857.757813 C 737.613281 861.285156 743.554688 876 752.957031 872.394531 C 762 869 755.832031 854.472656 747 857.757813 M 451.332031 858.667969 C 451.277344 858.722656 451.222656 859.777344 451.667969 859.332031 C 451.722656 859.277344 451.777344 858.222656 451.332031 858.667969 M 1049 858 L 1050 859 L 1049 858 M 750.800781 881.042969 C 747.976563 883.402344 752.9375 887.085938 755.25 884.398438 C 757.445313 882 752.898438 879.289063 750.800781 881.042969 M 366 923 L 365 924 L 366 923 M 375.667969 933.667969 C 375.722656 933.722656 375.777344 934.777344 375.332031 934.332031 C 375.277344 934.277344 375.222656 933.222656 375.667969 933.667969 M 623 940 C 621.257813 961.347656 605.859375 979.683594 604 1001 L 605 1001 C 615.609375 985 624.597656 959.402344 625 940 L 623 940 M 877 941 C 878.214844 956.34375 883.585938 971 889.578125 985 C 891.738281 990.066406 893.472656 997.679688 898 1001 C 896 986.597656 890 973.496094 885 960 C 882.769531 953.773438 881.691406 946 877 941 M 580.332031 987.667969 C 580.277344 987.722656 580.222656 988.777344 580.667969 988.332031 C 580.722656 988.277344 580.777344 987.222656 580.332031 987.667969 M 831 1139 C 822.621094 1150.613281 805.980469 1150.605469 793 1148.5625 C 786.894531 1147.601563 779.988281 1146 778.394531 1139 C 774.679688 1123.046875 793.214844 1104.578125 809.980469 1109.574219 C 819 1112.300781 812.898438 1125.722656 823 1127.636719 C 828.4375 1128.667969 833.449219 1123.105469 836 1119 C 842.300781 1109 845.253906 1091.699219 843.570313 1080 C 836.3125 1029.445313 779 1037 742 1037 C 713.839844 1037.046875 687.246094 1033 667.519531 1058 C 655.34375 1073.476563 656.984375 1092 661.628906 1110 C 663.476563 1117.171875 667.472656 1127.238281 676 1128.359375 C 687.292969 1130 683 1115.347656 688.433594 1110.742188 C 697.707031 1103 709.878906 1114.347656 716.207031 1119.441406 C 718.726563 1121.464844 721.789063 1122 723.347656 1125.109375 C 727.796875 1134 720.796875 1145.507813 712 1148.0625 C 698 1152.078125 679.640625 1150.832031 670 1139 C 680.285156 1140.328125 698.308594 1147.464844 707.996094 1142.542969 C 725.441406 1133.679688 702.71875 1117 692 1116 C 696 1126 687 1131 678 1131 C 667.648438 1131.125 658.492188 1125.273438 655.902344 1115 C 653.78125 1106.574219 652.972656 1096.667969 653 1088 C 653 1081.347656 654 1074.371094 656 1068 C 669.511719 1024 721.203125 1031 757 1031 C 789.371094 1031 829.714844 1027.539063 843.933594 1065 C 846 1070.683594 847.492188 1077 847.910156 1083 C 849.257813 1102.570313 845.46875 1138.28125 817 1130.0625 C 813.695313 1129.105469 810 1127.289063 808.757813 1124 C 807.984375 1122 809 1117.714844 806.59375 1117 C 798.738281 1114.316406 788.175781 1126.21875 787.371094 1133 C 786.703125 1138.675781 791.628906 1143.136719 797 1143.746094 C 807.714844 1145 820.347656 1140.351563 831 1139 M 815 1086 C 788.824219 1091 766 1097.148438 739 1096 C 714.347656 1095 691.773438 1086.046875 667 1088 C 671.441406 1075 680 1061 693 1055 C 698.492188 1052.382813 704.183594 1053.382813 710 1052.828125 C 723 1051.589844 735.882813 1050 749 1050 C 759.207031 1050 771.234375 1046.808594 780.984375 1051.003906 C 787.835938 1054 784.371094 1062.269531 789.316406 1065 C 795.75 1068.238281 801.21875 1056 808.785156 1062.433594 C 815.671875 1068.347656 813 1078.207031 815 1086 M 520 1161 C 528.597656 1155.066406 529.613281 1174 526 1179 C 533 1177.832031 536.964844 1185.757813 540.554688 1191 C 541.851563 1193 544.828125 1197 542.351563 1199 C 539 1201.71875 531.554688 1198.097656 528 1197.464844 C 514.917969 1195.132813 502.933594 1198 490 1198 C 495 1191.183594 502.855469 1187.761719 510 1183.574219 C 512 1182.335938 516.945313 1180.210938 516.945313 1177.234375 C 516.945313 1173.492188 509.296875 1174.011719 507 1174 C 494.320313 1174 482.316406 1171.816406 470 1169 L 470 1168 C 483.960938 1164.667969 499.695313 1164 514 1164 C 509 1153.617188 499.523438 1147 488 1146.089844 C 481.210938 1145.613281 468.375 1147.21875 464 1141 C 473.316406 1139.824219 482.667969 1139 492 1138 C 494 1137.601563 499.785156 1137.660156 500.792969 1135.441406 C 502.585938 1131.496094 491.289063 1128.734375 489 1128.023438 C 475.949219 1124 463 1124.332031 450 1128 C 458.683594 1109.773438 487.632813 1118.683594 503 1119 C 491.636719 1107.667969 482.511719 1106 467 1106 L 467 1105 C 474.90625 1103.363281 482.863281 1100.800781 490 1097 C 470.621094 1090.804688 447.425781 1085.640625 435 1068 C 455.382813 1070.746094 474.789063 1085.324219 494 1092.574219 C 499.9375 1094.816406 511.636719 1096.128906 514.972656 1102.109375 C 519.269531 1109.808594 512 1122.222656 514.359375 1131 C 515.949219 1137.070313 521.863281 1139.585938 524 1145.039063 C 526.492188 1150.667969 522.519531 1156.210938 520 1161 M 1067 1068 C 1056.519531 1086 1030.214844 1091 1012 1097 L 1012 1098 C 1019.996094 1099.550781 1027.289063 1102.484375 1035 1105 L 1035 1106 C 1019.605469 1106 1009.21875 1109 998 1120 C 1012.449219 1116.261719 1043 1111.097656 1051 1128 C 1033.390625 1123.050781 1011.734375 1124 997 1136 C 1011.382813 1137.816406 1025 1137.445313 1039 1142 L 1039 1143 C 1025.953125 1145.429688 1010.214844 1142.75 999 1151 C 996.734375 1152.582031 987.449219 1159.660156 991.460938 1163 C 993.90625 1165 999 1164 1002 1164.171875 C 1011.992188 1165.121094 1022.585938 1164.003906 1032 1168 C 1018.277344 1176.382813 997.335938 1172.097656 982 1177 L 982 1178 C 992.464844 1182.351563 1005.511719 1187.449219 1011 1198 C 1004.625 1196.8125 998.746094 1196.234375 993 1193 C 991.886719 1198.1875 972.390625 1197.160156 967 1198.695313 C 963.21875 1199.769531 959 1201.292969 960.417969 1206 C 961.34375 1209.117188 963.324219 1212.105469 964.777344 1215 C 966 1217.753906 967.488281 1220.566406 969.417969 1223 C 972.238281 1226.5625 976.304688 1228.5 980 1231 L 980 1232 C 969.695313 1232 953 1235 945 1228 L 947 1233 L 932 1233 C 937.945313 1245.515625 951.6875 1252.449219 957 1265 C 948 1262.691406 939.640625 1260.742188 932 1255.214844 C 928 1252.332031 923.257813 1244.757813 918 1244.621094 C 915.753906 1244.5625 913.796875 1246.140625 912 1247.269531 C 910.359375 1248.304688 908.632813 1249.242188 907 1250.324219 C 894.382813 1258.800781 920.476563 1259 917.652344 1265.441406 C 916.550781 1268 910 1267.058594 908 1267 C 897.425781 1266.183594 888 1261.746094 878 1259 C 883 1267.589844 887 1276.738281 892.671875 1285 C 896.1875 1290.203125 901.355469 1294.328125 904 1300 C 893 1297 883.726563 1292.164063 876.519531 1283 C 873.847656 1279.605469 870.730469 1269.035156 867.289063 1267.207031 C 865 1266.015625 863.941406 1271.816406 863.628906 1273 C 861.753906 1280.136719 862 1286 864 1293 C 854.394531 1290.148438 848.996094 1282.128906 844 1274 C 843 1288.070313 852 1299.679688 859 1311 C 844.28125 1310.359375 834.5625 1300 829 1287 C 813.902344 1303 821.464844 1314.589844 832 1330 C 818 1327.105469 812.503906 1317.496094 807.398438 1305 C 805.394531 1300.101563 802 1289.214844 796.914063 1287 C 791.71875 1284.632813 789.691406 1295.824219 788.894531 1299 C 784.914063 1315 789.472656 1324.742188 791 1340 C 776.53125 1332 772.269531 1315.367188 761 1304 C 760.472656 1308.089844 759.539063 1312.03125 758.421875 1316 C 757.570313 1319.015625 756.613281 1322 755.722656 1325 C 755 1327 754.695313 1329.015625 754 1331 C 749.765625 1345.027344 743.210938 1316.410156 741.972656 1312.003906 C 741.472656 1310.234375 740.5625 1306.265625 737.890625 1307.207031 C 733.785156 1308.65625 731.585938 1316.511719 729.691406 1320 C 725 1328.394531 719.515625 1336.199219 710 1339 C 713.554688 1325.265625 715.449219 1312 712 1298 C 711.363281 1295 709.390625 1284 704 1287 C 697.523438 1290.632813 695.355469 1302.546875 692.570313 1309 C 687.726563 1320.234375 680.644531 1326.695313 669 1330 C 675.765625 1320.28125 684.851563 1312 680.640625 1299 C 679.625 1296 677.34375 1289.023438 673 1289.632813 C 667.914063 1290.339844 665 1299.601563 661.894531 1303 C 656.417969 1308.679688 649.507813 1310.542969 642 1312 C 644.464844 1306.714844 649.335938 1303.214844 652 1298 C 655.601563 1291 656 1282.5625 658 1275 C 650.554688 1280.480469 646.640625 1289 638 1293 C 639.875 1283 638 1274.621094 635 1265 L 634 1265 C 627.699219 1283.621094 616.625 1294 598 1300 C 604.328125 1285.050781 618.273438 1274.402344 623 1258 C 613.546875 1263.515625 592.289063 1272.03125 582 1265 C 585.675781 1262.390625 595.867188 1259.316406 597.941406 1255.742188 C 600.3125 1251.65625 585.601563 1243.144531 582 1244 C 576.914063 1245.105469 573.804688 1251.503906 569.984375 1254.621094 C 563.285156 1260.09375 553.539063 1263.300781 545 1264 C 548.558594 1256.007813 557 1250.679688 562.609375 1244 C 564.300781 1242 568.550781 1238.125 567.195313 1235.109375 C 564.824219 1230 556.351563 1236.308594 555 1230 C 545.824219 1235 530.28125 1232 520 1232 L 520 1231 C 525.695313 1227.671875 531 1225.039063 534.351563 1219 C 537.519531 1213.238281 538.699219 1203.324219 545 1200.042969 C 552.363281 1196.308594 564.824219 1211.492188 564 1218 C 570.675781 1216.1875 574.746094 1220.789063 580 1224.328125 C 588.464844 1230.035156 597.5 1235.03125 607 1238.796875 C 618 1243.207031 630 1247.109375 642 1248.710938 C 651.261719 1250 660.992188 1249.324219 670 1252.042969 C 677.4375 1254.285156 683.207031 1259.664063 690 1263.214844 C 699.550781 1268.207031 710.488281 1271.550781 721 1273.789063 C 747.675781 1279.46875 774.355469 1277.621094 800 1268.304688 C 810.527344 1264.480469 818.835938 1257.21875 829 1253 C 836.660156 1249.738281 845.828125 1249.570313 854 1249 C 873.269531 1247.363281 895.421875 1241.15625 912 1231.074219 C 922.683594 1224.574219 930.34375 1211.722656 942 1223 C 936 1214 939.914063 1206.265625 950 1201.179688 C 952.636719 1200 956.335938 1201 958.332031 1198.511719 C 962.34375 1193.753906 965.277344 1180.777344 972 1179.542969 C 979 1178.28125 986.890625 1188.445313 992 1192 C 987.226563 1187.226563 976 1181.03125 973.605469 1175 C 970.964844 1168.167969 975.582031 1158.066406 983 1162 C 971.285156 1146.632813 983.75 1145.089844 987.441406 1131 C 989.640625 1122.613281 982 1111.546875 986 1104.042969 C 989.460938 1097.421875 1000.660156 1095.597656 1007 1093 C 1025.894531 1085.21875 1046.804688 1071 1067 1068 M 830 1072 C 833 1077.296875 835.953125 1083 837 1089 C 830.59375 1088.136719 824.515625 1086.132813 818 1086 C 822.660156 1081.742188 825.335938 1076 830 1072 M 624.316406 1129.800781 C 619.65625 1131.667969 624.449219 1139 628.679688 1136.710938 C 633 1134.378906 628.277344 1128.214844 624.316406 1129.800781 M 875 1130.175781 C 870.644531 1132.117188 873.1875 1139.324219 877.6875 1136.761719 C 881 1134.800781 879.214844 1128.40625 875 1130.175781 M 657 1132 C 658.742188 1137.503906 658.519531 1144 661 1149 C 664.789063 1156.378906 672.269531 1160.363281 677.828125 1166.089844 C 682.800781 1171.203125 686.785156 1177.4375 694 1179.507813 C 704.425781 1182.496094 717.179688 1184 728 1184 C 730 1184.003906 739 1185 738.367188 1181 C 737.824219 1178 733.304688 1177 731 1176 C 724.324219 1173.3125 717.492188 1170.816406 713 1165 C 719 1165 734 1159.273438 738.773438 1162.617188 C 742.808594 1165.546875 742.925781 1171.628906 744.167969 1176 C 745.851563 1182 744.199219 1184.335938 744.1875 1190 C 744.171875 1200 752.886719 1219 743.570313 1227.296875 C 739.25 1231.167969 730.464844 1230.757813 725 1231.804688 C 706.316406 1235.386719 688.742188 1236.15625 670 1237 C 673.335938 1231.226563 679.757813 1229.304688 686 1228 L 683 1232 C 685.976563 1230.441406 688.769531 1229 692 1228 L 692 1229 C 689.953125 1230.207031 688.589844 1231.246094 687 1233 C 692 1231 696.738281 1227.664063 702 1226 C 699.914063 1228.441406 697.941406 1229.703125 695 1231 L 695 1232 C 699.539063 1230.457031 702.699219 1227 707 1225 L 704 1231 C 710 1227.3125 717.609375 1229.171875 722 1224 L 718 1226 C 720.320313 1221.730469 723.390625 1219.472656 728 1218 L 727 1228 C 731.90625 1225.414063 738.734375 1224.351563 742.296875 1219.785156 C 749 1211.058594 740.65625 1194.535156 732 1190.316406 C 724.738281 1186.777344 714.90625 1191 707 1189.535156 C 689.175781 1186.320313 672.421875 1172 661.679688 1158 C 656.3125 1151.03125 652 1140.285156 657 1132 M 568 1134.300781 C 574.328125 1133.429688 582.613281 1140.777344 577.96875 1147.488281 C 576.335938 1150 572.527344 1150.21875 570 1151.027344 C 563 1153.234375 555 1160 548 1160.460938 C 541.421875 1161 540.445313 1149.085938 543.527344 1145.214844 C 548.347656 1139.164063 560.589844 1135.320313 568 1134.300781 M 930 1134.695313 C 936.222656 1132.714844 953.601563 1139.613281 957.683594 1144.214844 C 960.902344 1148 960.757813 1157.480469 955.773438 1160 C 953.433594 1161 951 1159.480469 949 1158.40625 C 943.617188 1155.570313 929.234375 1152.417969 926 1147.570313 C 923.699219 1144.039063 926 1136.027344 930 1134.695313 M 633.605469 1149.046875 C 630.371094 1151.476563 634 1157 637.683594 1155 C 641.871094 1152.496094 637.265625 1146.300781 633.605469 1149.046875 M 585 1158 C 575.421875 1159.21875 566.238281 1161.554688 557 1164.277344 C 555.65625 1164.675781 549.519531 1167 548.921875 1164.566406 C 548 1161.433594 556 1159.1875 558 1158.398438 C 566 1155.0625 579.480469 1147 585 1158 M 954 1165 C 942.691406 1164.765625 931 1160.097656 920 1158 C 925.976563 1147.765625 949 1157 954 1165 M 888 1161 C 891.183594 1159.664063 910.324219 1157.558594 910.964844 1162.300781 C 912.292969 1172.160156 891 1162.613281 888 1161 M 615 1160 C 611 1163.226563 604.230469 1166.65625 599 1166.472656 C 596.894531 1166.394531 592.363281 1164.5 593.460938 1161.589844 C 594.824219 1158 611.539063 1160 615 1160 M 518 1161 C 516.8125 1162.1875 516.472656 1162.585938 516 1164 C 517.992188 1163.152344 518.699219 1163 518 1161 M 920 1161.5625 C 926.832031 1160.652344 942.449219 1164.332031 947.574219 1169.074219 C 951.835938 1173.019531 942.902344 1181.226563 938.984375 1181.726563 C 933.492188 1182.429688 917.371094 1174.128906 913.621094 1170.03125 C 910 1166.148438 916.648438 1162.011719 920 1161.5625 M 523 1162 C 520.226563 1165 517.828125 1167.472656 516 1171 C 519.609375 1169.109375 523.59375 1166.457031 523 1162 M 552 1170 C 556.503906 1168.003906 561.246094 1166.453125 566 1165.152344 C 570.636719 1164 589.652344 1157.6875 590.941406 1166.09375 C 591.753906 1171.402344 582.347656 1173.097656 579 1175 C 566.304688 1181.746094 560 1184.5 552 1170 M 979 1163 C 980.925781 1167.546875 983.625 1170.683594 988 1173 C 985.679688 1169 983 1165.222656 979 1163 M 645.316406 1171.136719 C 640.554688 1173.632813 645.320313 1180.03125 649.757813 1178.214844 C 654.804688 1176.148438 649.460938 1169 645.316406 1171.136719 M 851 1171.136719 C 846.242188 1173.476563 850 1181.085938 854.761719 1178.710938 C 859.40625 1176.394531 855.84375 1169 851 1171.136719 M 592 1172.371094 C 596 1172 605.984375 1177.148438 603.742188 1182.445313 C 602.171875 1186.160156 581.859375 1198.070313 578 1198.148438 C 573 1198.246094 563.78125 1189.8125 567 1184.558594 C 570.421875 1179.125 585.777344 1173.019531 592 1172.371094 M 908 1173.449219 C 914.40625 1172 931.992188 1179.253906 934.863281 1185.261719 C 937.234375 1190.222656 929.34375 1197.296875 925 1198.082031 C 916.796875 1199.566406 888.183594 1178.378906 908 1173.449219 M 517 1184 L 517 1185 C 519.511719 1184 521.675781 1182.476563 524 1181 C 521.171875 1181 519.34375 1182.386719 517 1184 M 659.316406 1187.046875 C 655.511719 1189.460938 658.621094 1195.558594 662.695313 1193 C 666.597656 1190.457031 663.484375 1184.402344 659.316406 1187.046875 M 839.308594 1187.085938 C 835.644531 1189.238281 838.890625 1195.140625 842.554688 1193 C 846 1190.777344 843 1185 839.308594 1187.085938 M 514 1187 C 511 1189.453125 508.664063 1191.5 507 1195 C 510 1193 513 1190.652344 514 1187 M 613 1187 C 614.976563 1191.234375 617.765625 1194.023438 622 1196 C 619.550781 1192.117188 616.960938 1189.339844 613 1187 M 887 1190 C 888.636719 1189.453125 888.453125 1189.636719 889 1188 C 887.6875 1188.769531 887.769531 1188.6875 887 1190 M 613 1219 C 625.34375 1212.605469 632.367188 1201.316406 645.941406 1196.726563 C 648 1196 650.445313 1194 648.914063 1191.351563 C 646.367188 1187.15625 639.589844 1192.628906 637 1194.140625 C 627 1200 616.640625 1207.597656 613 1219 M 884 1192 C 885.3125 1191.230469 885.230469 1191.3125 886 1190 C 884.363281 1190.546875 884.546875 1190.363281 884 1192 M 888 1223 C 884.492188 1212.015625 873.34375 1202.195313 864 1196.003906 C 861.722656 1194.496094 854.535156 1189 852.40625 1193.289063 C 850.683594 1197 856.753906 1199.105469 859 1200.246094 C 870.359375 1206.03125 877.382813 1217 888 1223 M 881 1194 C 882.3125 1193.230469 882.230469 1193.3125 883 1192 C 881.363281 1192.546875 881.546875 1192.363281 881 1194 M 992 1192 L 993 1193 L 992 1192 M 837 1199.175781 C 831.746094 1200 834 1207.097656 838.855469 1206.417969 C 843.628906 1205.734375 841.289063 1198.640625 837 1199.175781 M 473 1199 L 472 1200 L 473 1199 M 1029 1199 L 1028 1200 L 1029 1199 M 661.4375 1201.046875 C 657.738281 1203.449219 660.878906 1209 664.851563 1207 C 669.539063 1204.527344 665.585938 1198.355469 661.4375 1201.046875 M 675.433594 1201.085938 C 671.734375 1203.277344 674.5 1210.011719 678.582031 1207.710938 C 682.441406 1205.535156 679.519531 1198.664063 675.433594 1201.085938 M 823.433594 1201.085938 C 819.738281 1203.28125 822.460938 1210.234375 826.582031 1207.761719 C 830.367188 1205.492188 827.546875 1198.640625 823.433594 1201.085938 M 628 1210 C 634.390625 1210 639.847656 1209.242188 644 1204 C 638.976563 1204.738281 631 1205.792969 628 1210 M 851 1208 L 864 1208 C 860.34375 1205.1875 853.984375 1203.796875 851 1208 M 647 1206 C 648.574219 1208.71875 649.925781 1209.371094 653 1210 C 651 1207.796875 649.777344 1206.753906 647 1206 M 841 1212 C 844.5625 1214.027344 847.9375 1215.390625 852 1216 L 852 1217 C 841 1215.382813 839.5625 1219.089844 851 1222 C 858 1223.609375 865.683594 1223 873 1223 L 873 1222 C 866.222656 1220 859 1218.304688 852 1218 L 852 1217 L 877 1218 C 871.527344 1214 865.265625 1215.816406 859 1214.480469 C 853 1213.214844 846.734375 1208.152344 841 1212 M 625 1217 L 625 1219 L 646 1218 L 646 1219 C 640.21875 1219.246094 634.5625 1220.4375 629 1222 L 629 1223 C 640 1223.09375 657 1226.273438 663 1214 C 660.328125 1215 657.773438 1215.589844 655 1216 C 656.664063 1214.34375 657.875 1213.027344 659 1211 C 647.882813 1211.097656 636.214844 1215.582031 625 1217 M 726 1214 L 726 1215 C 722.464844 1217.339844 718.988281 1219.539063 715 1221 C 716 1214.425781 719.582031 1212.125 726 1214 M 655 1227 C 661.785156 1227 667.855469 1225.226563 673.996094 1222.332031 C 675.808594 1221.476563 680.339844 1219.359375 679.246094 1216.582031 C 678.308594 1214.1875 674.316406 1216.53125 673 1217.183594 C 667.609375 1220 658.332031 1222 655 1227 M 654 1216.332031 L 654.332031 1216.667969 C 653.839844 1216.832031 653.226563 1216.332031 654 1216.332031 M 563 1218 C 560.925781 1221 559 1223.589844 558 1227 L 559 1227 C 560.867188 1224.125 563.46875 1221.496094 563 1218 M 827 1221 L 826 1222 L 827 1221 M 722.5 1222.5 C 721.871094 1223.128906 722.871094 1224.128906 723.5 1223.5 C 724 1223 723 1222 722.5 1222.5 M 820 1223 L 819 1224 L 820 1223 M 942 1223 L 944 1228 L 945 1228 C 944.25 1225.746094 943.65625 1224.6875 942 1223 M 847 1227 L 847 1228 L 853 1231 C 851.425781 1228.28125 850 1227.628906 847 1227 M 646 1231 C 648.300781 1230.601563 649.90625 1230.042969 652 1229 C 649.1875 1228.085938 648 1229 646 1231 M 659.332031 1231.667969 C 659.277344 1231.722656 659.222656 1232.777344 659.667969 1232.332031 C 659.722656 1232.277344 659.777344 1231.222656 659.332031 1231.667969 M 805 1232 C 805.546875 1233.636719 805.363281 1233.453125 807 1234 C 806.230469 1232.6875 806.3125 1232.769531 805 1232 M 685.667969 1233.332031 C 685.222656 1233.777344 686.277344 1233.722656 686.332031 1233.667969 C 686.777344 1233.222656 685.722656 1233.277344 685.667969 1233.332031 M 821 1235 L 822 1236 L 821 1235 M 813 1247 C 807.363281 1254.183594 797.417969 1256 789 1258.152344 C 765.707031 1264.429688 740.480469 1265.214844 717 1259.371094 C 708.585938 1257.28125 693.59375 1255.089844 689 1247 C 708.609375 1246.15625 728.414063 1240.773438 748 1241.019531 C 769.769531 1241.292969 791.171875 1247 813 1247 M 714 1250 C 720 1253.660156 732 1253.511719 736 1247 C 728.894531 1247.5625 720.8125 1248 714 1250 M 766 1247 C 768.671875 1256 780 1252.683594 787 1251 C 780.914063 1247.355469 772.757813 1248.609375 766 1247 M 734 1255 C 739.925781 1255 743.183594 1253.363281 746 1248 C 740.960938 1248.757813 736.53125 1250.386719 734 1255 M 754 1248 C 757 1253.824219 760.703125 1255 767 1255 C 764.355469 1250.339844 759 1248.765625 754 1248 M 749 1251 C 749.839844 1253.625 750.375 1254.160156 753 1255 C 751.847656 1252.75 751.25 1252.152344 749 1251 M 573 1295 L 572 1296 L 573 1295 M 929 1295 L 928 1296 L 929 1295 "/>
</g>
</svg>
