<?xml version="1.0" encoding="UTF-8"?>
<svg xmlns="http://www.w3.org/2000/svg" xmlns:xlink="http://www.w3.org/1999/xlink" width="1500pt" height="1500pt" viewBox="0 0 1500 1500" version="1.1">
<g id="surface1">
<path style=" stroke:none;fill-rule:nonzero;fill:rgb(0%,0%,0%);fill-opacity:1;" d="M 473 795 C 481.179688 792.410156 492.882813 782.140625 501.945313 787.027344 C 508 790.308594 509.65625 801.003906 511.78125 807 C 517.566406 823.308594 515 840.160156 515 857 C 515 866 516.175781 875 511.820313 883 C 499.761719 905.375 488 929.640625 474.308594 951 C 465.851563 964.132813 454.636719 975.425781 446.871094 989 C 434.988281 1009.769531 429.691406 1033.144531 415.976563 1053 C 406.386719 1067 394.617188 1079.109375 385 1093 C 365.632813 1121.085938 350.507813 1151.089844 338.574219 1183 C 331.886719 1201 325 1219.726563 325 1239 L 326 1239 C 339.578125 1208.367188 349.238281 1176.710938 365.308594 1147 C 383 1114.066406 408.378906 1087.503906 427.9375 1056 C 439.308594 1037.679688 445 1017 455.308594 998 C 462 985.390625 471.65625 975.003906 479.304688 963 C 486.179688 952.210938 490.714844 940.460938 496.257813 929 C 499.796875 921.6875 505.460938 914 507 906 L 508 906 C 502.429688 947.378906 484.167969 986.019531 480.171875 1028 C 475.945313 1072.34375 492.984375 1119.320313 515 1157 L 516 1157 C 514.425781 1141.308594 504.246094 1125.191406 499.722656 1110 C 491.738281 1083.214844 488.820313 1055 490 1027 C 491.851563 985.652344 507.988281 945.519531 515.804688 905 C 517.84375 894.433594 521.910156 883.800781 522 873 L 523 873 C 523.699219 881.800781 525.695313 890.046875 524.828125 899 C 523.167969 916.1875 516.503906 933.574219 518.171875 951 C 519.933594 969.480469 525.957031 987.332031 531.28125 1005 C 540 1034 549.484375 1062.726563 560.191406 1091 C 566 1106.578125 571.292969 1122.425781 577.191406 1138 C 579.203125 1143.308594 580 1151.6875 585 1155 C 575.851563 1110.683594 558.605469 1066.308594 555 1021 L 556 1021 C 559.355469 1062.066406 592.695313 1093.066406 606.574219 1130 C 612.476563 1145.707031 600.230469 1165.195313 600 1182 C 599.867188 1194.121094 602.804688 1207.808594 611.183594 1217 C 617 1223.347656 624.917969 1227.386719 630.5625 1234.003906 C 640.910156 1246.140625 647.199219 1259.019531 664 1263.101563 C 675.636719 1266 689.695313 1263.246094 697.785156 1254 C 703.6875 1247.230469 705.761719 1239.25 714 1234.351563 C 731 1224.148438 759.292969 1233.296875 775.996094 1241.570313 C 785 1246.039063 787.390625 1258 791.863281 1266 C 799.179688 1279.277344 809.296875 1291.089844 818.574219 1303 C 822.78125 1308.398438 826.804688 1316 833 1319 C 824 1292.585938 807.523438 1267.011719 792 1244 C 806.402344 1244 820 1243.367188 834 1239 C 846.640625 1235 860.304688 1227 874 1229.464844 C 891.964844 1232.695313 893.507813 1245.03125 905.183594 1255.480469 C 916.191406 1265.332031 934.945313 1265 948 1260 C 961.777344 1254.582031 964.707031 1243.40625 973.328125 1233 C 982 1222.378906 995.429688 1216.746094 1000.300781 1203 C 1009 1178.199219 995.714844 1157.691406 992.300781 1134 C 990.699219 1123 994.769531 1112 995.828125 1101 C 996.960938 1089.316406 995.234375 1077.660156 997.320313 1066 C 999.734375 1052.523438 1012 1044.308594 1017 1032 C 1022.445313 1018.578125 1018.351563 1003.753906 1022.746094 990 C 1028 973.242188 1041.175781 959.753906 1046 943 L 1047 943 C 1044.878906 970 1041.25 998 1034.625 1024 C 1026.578125 1055.78125 1015 1088 1015 1121 L 1017 1121 C 1020.957031 1091.621094 1034.292969 1063.316406 1042.574219 1035 C 1051.929688 1003.015625 1054.398438 970.703125 1059.753906 938 C 1062 923.296875 1068.71875 908.707031 1070 894 L 1071 894 C 1071 915.671875 1065 937.347656 1066 959 C 1066.679688 973.773438 1071.953125 988 1076 1002 C 1078.46875 1010.605469 1080.214844 1029 1088 1034 C 1087.992188 1020 1085 1006.054688 1085 992 L 1086 992 C 1087.421875 1006 1098.636719 1019 1103.300781 1032 C 1113.820313 1061.558594 1122.21875 1093 1131.28125 1123 C 1137.839844 1144.785156 1140 1166.613281 1143.425781 1189 C 1147.515625 1216.609375 1153.34375 1244.027344 1153.984375 1272 C 1154.269531 1284.386719 1151.253906 1296.660156 1151 1309 L 1152 1309 C 1164.625 1276.023438 1160.171875 1238.023438 1155.269531 1204 C 1152.398438 1184.066406 1151 1163.742188 1146.996094 1144 C 1142.394531 1121.429688 1133.839844 1100 1127 1078 C 1121 1058.785156 1117.265625 1039.039063 1110.65625 1020 C 1106.339844 1007.5625 1100.628906 995.257813 1093.796875 984 C 1089.585938 977.0625 1083.4375 970.757813 1080.761719 963 C 1077.351563 953.113281 1079 942.210938 1079 932 C 1079 894.449219 1079.703125 855.292969 1083.949219 818 C 1085 808.277344 1090.582031 800.394531 1092.476563 791 C 1093 788.292969 1091.488281 782.796875 1094.355469 781.199219 C 1102.210938 776.832031 1118.335938 790.523438 1126 792 C 1114.988281 778.476563 1091.753906 782.613281 1084.328125 767 C 1078.992188 755.785156 1082.234375 742.734375 1079 731 C 1077.355469 724.617188 1072 718 1073.410156 711 C 1075.550781 700.398438 1084.871094 691.0625 1087.625 680 C 1090.628906 668 1088.921875 654.25 1094.824219 643 C 1099.265625 634.539063 1108.660156 630.375 1113 622 C 1118.191406 612.3125 1109.734375 600.816406 1116.417969 592.003906 C 1132.332031 571.027344 1161.820313 565.027344 1170 537 C 1173.898438 524.078125 1169.527344 513.546875 1170.636719 501 C 1171.179688 495 1175.59375 490 1176.671875 484 C 1178.796875 472.199219 1177.316406 459.785156 1175.574219 448 C 1173.824219 436.191406 1166.402344 424.277344 1165.496094 413 C 1164.585938 401.59375 1168.742188 388.441406 1169.828125 377 C 1171.316406 361.378906 1170.371094 344.6875 1169.984375 329 C 1168.902344 284.757813 1156.417969 239.21875 1141 198 C 1132.886719 176.101563 1123.832031 153.152344 1108.714844 135 C 1104.632813 130.101563 1100.234375 125.472656 1095 121.785156 C 1064.324219 100.179688 1037 135.539063 1022.425781 159 C 1009.347656 180 999 202.613281 984.972656 223 C 973 240.300781 957.492188 255 948.257813 274 C 943.566406 283.722656 942.367188 294.789063 939 305 C 932.167969 325.703125 924.273438 346.011719 915.574219 366 C 907.515625 384.527344 894 402.574219 891.300781 423 C 890.671875 427.605469 900.261719 442.402344 894.683594 444.210938 C 889.675781 446 881.648438 438.710938 877 437.101563 C 869.941406 434.65625 864 436.40625 857 435.8125 C 851.394531 435.339844 846.496094 432.242188 841 431.324219 C 824.949219 428.644531 809.835938 437.316406 794 437.742188 C 783.917969 438.011719 773.925781 433 764 431.429688 C 755.328125 430.1875 746.683594 432 738 432 C 725 432.019531 716.476563 439.1875 705 443.792969 C 701.625 445.144531 695.742188 448.058594 692.742188 444.644531 C 688.828125 440.183594 691.945313 432.179688 691.921875 427 C 691.890625 420.578125 688.691406 413.777344 686 408 C 673.976563 380.492188 660.234375 354.074219 649.203125 326 C 643.421875 311.28125 640.421875 295.542969 634.546875 281 C 629.179688 267.714844 619 257.152344 610.425781 246 C 599 231.449219 588.210938 216.179688 579.304688 200 C 567.335938 178.257813 556.574219 154.605469 539.828125 136 C 532.285156 127.617188 522.816406 119 511 118.089844 C 486.835938 116.308594 471.507813 137 460.863281 156 C 437.214844 198.382813 426.5 246.277344 420.28125 294 C 417 318.21875 414.414063 343.546875 416 368 C 417.324219 386.046875 422.460938 404 421.984375 422 C 421.519531 440 413.695313 457.449219 414 476 C 414.292969 488.460938 420.75 498.476563 421.894531 510 C 423 521.121094 420 533.148438 423.210938 544 C 428.351563 561.414063 443.75 573.277344 458 583.277344 C 464.367188 587.75 472.863281 591.574219 477.484375 598.015625 C 483.402344 606.25 475.300781 617 479.839844 626 C 484.433594 635.1875 494.601563 639.800781 499.328125 649 C 504.753906 659.546875 503.386719 672 506.722656 683 C 509.949219 693.769531 519.492188 703.4375 521.59375 714 C 522.820313 720.171875 518.699219 727 517.617188 733 C 515.492188 744.789063 517.898438 757.621094 513.53125 769 C 511.527344 774.226563 508.585938 781.09375 502.996094 783.257813 C 492.695313 787.246094 479.546875 783 473 795 M 1141 439 C 1141 426 1146 413.476563 1149.574219 401 C 1153.488281 386.746094 1155.902344 371.734375 1156.910156 357 C 1160.300781 307.527344 1145.816406 256.453125 1130.332031 210 C 1122.820313 187.464844 1118.535156 152.042969 1095 140 C 1081.566406 133.117188 1064.984375 138.175781 1054 147.324219 C 1035.410156 162.808594 1027.1875 186.214844 1016.21875 207 C 1003.867188 230.40625 990.585938 253.546875 976.574219 276 C 970 286.460938 961 295.441406 956.453125 307 C 947.421875 329.277344 945.449219 354.199219 947 378 C 948.707031 401.476563 960.285156 423.160156 965 446 C 944 436.410156 934.277344 411 916 398 C 941.714844 431.703125 961 470.617188 986 505 C 1016 546.089844 1062.660156 586.1875 1073.191406 638 C 1076.367188 653.621094 1074 667.535156 1072 683 L 1071 683 C 1071 650.269531 1052.570313 620.421875 1031 597 C 1039.546875 617.5625 1053.769531 636 1058.335938 658 C 1062.421875 677.824219 1057 698.488281 1063.34375 718 C 1066 726.433594 1070.484375 734.289063 1072.332031 743 C 1073.988281 750.808594 1072.71875 759.460938 1075.5625 767 C 1078 774 1086.714844 780.085938 1085.726563 788 C 1084.625 797 1072.78125 800.316406 1070.175781 809 C 1062.621094 834.160156 1066 861.757813 1056.574219 887 C 1046 914.78125 1022.527344 936.351563 1018 967 L 1017 967 C 1021.378906 913.410156 1066.300781 866.476563 1062 812 L 1060 812 C 1059.933594 836 1048.984375 857.558594 1039.851563 879 C 1026.609375 910.082031 1012.546875 941.101563 1004.375 974 C 1000.617188 989.128906 1010.945313 1001.257813 1009.671875 1016 C 1008 1034.570313 989.171875 1045.417969 987.175781 1064 C 985.753906 1077.210938 987.816406 1090.746094 986.910156 1104 C 986 1116.316406 982 1129.695313 983 1142 C 984.324219 1155.570313 992.71875 1167.679688 991.90625 1182 C 991.4375 1190.304688 989.84375 1202.097656 981.960938 1206.722656 C 976.347656 1210.015625 967.632813 1208.050781 963.644531 1214.109375 C 961 1218.113281 964.246094 1223.554688 963.800781 1228 C 962.605469 1240 951.683594 1252 940 1254 L 940 1253 C 971.652344 1230.691406 956.367188 1182.738281 962.507813 1151 C 963.890625 1144 968 1137.335938 969.550781 1130 C 972 1117.09375 971.742188 1103.777344 975 1091 C 977.789063 1081.140625 982.746094 1072.136719 984.535156 1062 C 986.457031 1051.128906 979.296875 1040.601563 981.347656 1030 C 982.394531 1024.59375 987.1875 1022.164063 990 1018 C 993.246094 1013.566406 994.347656 1008.117188 995.628906 1003 C 1004.332031 968.183594 1007.871094 932.210938 1019 898 C 1012 904 1006.511719 916.277344 1004 925 L 1003 925 C 999 906.289063 982.671875 890.5 983 871 C 983.304688 858.261719 988.941406 845 992.996094 833 C 1004.386719 799.566406 1022.800781 767.792969 1030 733 C 1022.664063 741.320313 1020 757 1014.890625 767 C 1005.5 785.292969 995.429688 803.394531 984.796875 821 C 977 833.707031 968.492188 844.300781 970.175781 860 C 973.230469 888.523438 996.992188 908.449219 994.910156 939 C 993.59375 958.355469 992 981.636719 985.449219 1000 C 982.1875 1009.132813 972.878906 1014.605469 970.527344 1024 C 968 1033.480469 970.382813 1043.335938 969.960938 1053 C 969.503906 1063.398438 966.492188 1073.613281 966 1084 C 965.683594 1092.152344 967.652344 1100 968 1108 L 967 1108 C 961.9375 1070.441406 955.871094 1034 955 996 C 954.738281 983.664063 965.671875 976.523438 963.5625 963 C 960.214844 941.582031 947 924.542969 939 905 L 938 905 C 939.265625 920.515625 948 934.171875 947.996094 950 C 947.890625 960.332031 940.6875 966.5625 939.214844 976 C 937.753906 985.351563 940.9375 994.773438 941.828125 1004 C 942.75 1013.492188 941.699219 1023.636719 943.46875 1033 C 944.722656 1039.65625 948.722656 1045.480469 950.570313 1052 C 954.265625 1065.03125 955.390625 1078.734375 958 1092 C 960.734375 1106 965.371094 1120.75 962.332031 1135 C 957.511719 1157.601563 938.699219 1174.042969 927 1193 C 940.519531 1185.21875 952.394531 1169 959 1155 L 960 1155 C 958.296875 1176.578125 958.457031 1201.316406 951.640625 1222 C 948.457031 1231.65625 940.398438 1241.636719 929 1238.363281 C 911.980469 1233.472656 900.316406 1209.386719 887 1198.464844 C 870.882813 1185.246094 851.246094 1177.453125 834 1166 C 825 1160.113281 816.722656 1152.417969 817 1141 C 817.460938 1124.214844 845.269531 1128 856 1121.519531 C 864.414063 1116.441406 870.351563 1108 877 1101 C 890.332031 1087.097656 906 1073.324219 913.1875 1055 C 917.769531 1043.265625 917.96875 1031 913.5625 1019 C 911.699219 1014 907.382813 1009.308594 906.636719 1004 C 906 999.820313 908.910156 996.054688 909.492188 992 C 910.621094 984.109375 905.691406 975.773438 899 972 C 900.324219 977.375 904.757813 994 895.957031 995.214844 C 890.832031 996 886.507813 990.332031 883 987.464844 C 874.585938 980.578125 865.261719 974.433594 855 970.695313 C 838.261719 964.597656 820.4375 967.414063 803 967 C 788 966.621094 773.878906 963.4375 759 966.660156 C 742.304688 970.28125 730.316406 981.179688 717 991.105469 C 714 993.292969 705.859375 999.773438 702 996 C 699 993.007813 705.492188 978.054688 698.894531 978.054688 C 689.363281 978.054688 694 996.425781 694.695313 1001 C 695.765625 1009.226563 690 1015.46875 687.925781 1023 C 685 1033.613281 686.464844 1044.539063 689.429688 1055 C 695.628906 1077 711.238281 1086.808594 726.828125 1101.578125 C 733.695313 1108.085938 738.5625 1116.605469 746 1122.480469 C 757 1131.273438 795.277344 1128.765625 790.46875 1149 C 788.386719 1157.746094 780.191406 1164 773 1168.5625 C 757.863281 1178.203125 741 1185.058594 726 1194.695313 C 715.824219 1201.175781 705.617188 1208.289063 697.285156 1217.089844 C 690.695313 1224.050781 682.5625 1234.832031 672 1235.496094 C 662.589844 1236.089844 658 1226.269531 655 1219 C 647.285156 1200.382813 644.582031 1178 643 1158 L 644 1158 C 652.882813 1173.4375 667.558594 1184.660156 680 1197 C 668.785156 1175.710938 649.902344 1158.164063 644.660156 1134 C 641.265625 1118.339844 644.683594 1103.542969 646.871094 1088 C 648.644531 1075.375 649.296875 1062.46875 652 1050 C 653.996094 1041 658.75 1032.441406 658.984375 1023 C 659.324219 1009.335938 661.882813 992.4375 659.785156 979 C 658.566406 971.183594 651.453125 966.21875 651 958 C 650.191406 941.097656 655.457031 924.132813 660 908 C 655.773438 912.371094 653.976563 919.542969 651.246094 925 C 644.796875 938 631.65625 954.746094 633.199219 970 C 634.253906 980.414063 645.589844 985.070313 644.910156 996 C 643.464844 1019.203125 644 1042.828125 641.828125 1066 C 640 1084.125 634 1101.722656 634 1120 L 633 1120 C 633 1091.179688 637.433594 1058.15625 630.765625 1030 C 628.78125 1021.621094 623 1016.207031 618.878906 1009 C 612.558594 998.128906 610 985.328125 612.664063 973 C 616.324219 955.53125 623.6875 939.117188 628.574219 922 C 633.574219 904.472656 635.691406 885.289063 644.261719 869 C 648.675781 860.609375 656.730469 855.203125 662.671875 848 C 670.417969 838.605469 676.410156 823.289063 675.957031 811 C 675.257813 792.164063 655 792.296875 643 784.085938 C 635.59375 779.070313 631.394531 772.40625 622 771 C 628.484375 777.660156 634.234375 789 642 793.785156 C 650.777344 799.253906 666.660156 799.230469 669.96875 811 C 671.285156 815.6875 669 820.601563 667.667969 825 C 665.460938 831.644531 663.410156 838.570313 658.785156 844 C 652.5 851.382813 643.558594 855.8125 638 864 C 629.65625 876.691406 626.59375 892.625 622.28125 907 C 616.878906 925.011719 609.492188 943.09375 608 962 L 607 962 C 607 945 604.929688 926.472656 610 910 C 616 890.566406 630.890625 871.3125 627.789063 850 C 625.359375 833.28125 607.839844 814.496094 599.425781 800 C 589 782.085938 577.914063 763.820313 571.519531 744 C 568.316406 734.070313 567.328125 723.179688 565 713 L 564 713 C 564 745 572 770.492188 586.246094 799 C 596.300781 819.246094 612.445313 843.425781 615.699219 866 C 619 889.136719 598.78125 904.195313 597 926 C 588 919.078125 587.679688 906.605469 580 899 C 584.316406 915.675781 590.5 932.148438 593.996094 949 C 597.910156 968 599 987.390625 604 1006 C 606.65625 1015.09375 614.84375 1021.003906 616.875 1030 C 619.320313 1040.824219 616 1052 617.171875 1063 C 618.265625 1074 623 1084.234375 625.195313 1095 C 627.515625 1106.828125 627.234375 1119.386719 630 1131 L 631 1131 C 631.722656 1128 631.972656 1125.121094 632 1122 L 633 1122 C 633.230469 1133.199219 636.628906 1144 637.835938 1155 C 640.417969 1178.773438 638.785156 1202.105469 647.425781 1225 C 651.476563 1235.730469 657 1246.167969 668 1251 L 668 1252 C 657.328125 1250 642.210938 1245.785156 640.214844 1233 C 639.222656 1226.65625 645 1218.492188 640.5625 1213.226563 C 636.566406 1208.625 630 1210 625 1208 C 617.203125 1204.78125 613.421875 1195.78125 612.300781 1188 C 609.546875 1169 621 1152.347656 619.910156 1134 C 618.34375 1111.089844 620.421875 1083 613.25 1061 C 608.523438 1046.566406 594.730469 1037.0625 591.519531 1022 C 587.757813 1004.378906 597.542969 987.292969 593 969 C 585.210938 936.503906 569.902344 905.582031 556.71875 875 C 548.1875 855.210938 539 837 539 815 C 531.621094 823.476563 536.214844 837.605469 539.332031 847 C 547.21875 870.738281 560.347656 895.175781 564 920 L 563 920 C 556.289063 908 545.511719 898.097656 540.695313 885 C 532 861.46875 534.785156 836.042969 528.761719 812 C 526.425781 802.683594 513.328125 798.460938 513.214844 789 C 513 781.625 520.640625 775.828125 522.777344 769 C 524.996094 762 524.371094 754.226563 525.808594 747 C 527.308594 739.457031 530.621094 732.433594 532.523438 725 C 537.871094 704.089844 532.78125 682.0625 537.425781 661 C 542 640.007813 555.390625 622.503906 561 602 C 539.933594 624.027344 525 656.308594 525 687 L 524 687 C 521 674.507813 518.871094 663 520.171875 650 C 525.605469 595.640625 572 555.082031 603.996094 515 C 620.859375 493.816406 629.21875 472.226563 640.308594 448 C 647.394531 432.519531 656 416.683594 660 400 L 659 400 C 651.507813 419.308594 634.921875 439.078125 618 451 C 622.171875 429.480469 633.398438 409 634.910156 387 C 636.695313 361.101563 634.179688 333.269531 624.550781 309 C 619.28125 295.71875 609.875 286 602.425781 274 C 588.945313 252.402344 576.566406 230.128906 564 208 C 549.808594 183.011719 525.917969 122 486 144 C 461.945313 157.164063 458 193.214844 451.289063 217 C 437 266.265625 425.273438 319.558594 430.171875 371 C 431.734375 387.453125 435.597656 403.152344 440 419 C 442.710938 428 446.804688 436.558594 447 446 C 438.703125 443.109375 437.175781 433.585938 435 426 C 429.617188 407.246094 425.820313 387.484375 424.960938 368 C 422.304688 308 431 240.800781 454.851563 185 C 463.453125 164.804688 474.679688 136.757813 498 129.785156 C 529.648438 120.324219 549.296875 165.097656 560.246094 187 C 570.378906 207.265625 582.25 226.5625 595.425781 245 C 603.550781 256.367188 613.53125 266.585938 620 279 C 625.84375 289.816406 628 302.445313 632 314 C 637.910156 331.738281 645 349.191406 653.257813 366 C 660.78125 381.4375 669.886719 396.0625 676.398438 412 C 678.398438 417 683 424.585938 681.21875 430 C 679.484375 435.128906 673.457031 437.257813 670 441 C 672.972656 440.695313 678.800781 437.257813 681.398438 438.417969 C 684.5625 439.832031 684.585938 450.699219 687.394531 454 C 692.246094 459.339844 705.703125 456.410156 708.378906 463.226563 C 711 470.121094 699.40625 475.777344 695 478.65625 C 678.292969 489.5625 658.316406 499 647 516 C 666.6875 499 696.460938 489.367188 712.65625 469 C 715.667969 465.210938 717.355469 459.628906 714.683594 455.125 C 711.871094 450.390625 703.472656 452 710 445.105469 C 720.6875 434.222656 752.78125 428.753906 744 453 C 737.71875 470.523438 718.722656 479.710938 704 489.054688 C 682.46875 502.714844 659.65625 519.292969 647 542 C 671.390625 517.609375 701.835938 495.792969 732 479 C 723 498.148438 704 509.472656 689 523.171875 C 666.539063 543.457031 646.648438 566.589844 628.847656 591 C 621 601.625 610.6875 614.230469 607 627 L 608 627 C 622.546875 596 649.460938 566.769531 675 544.285156 C 693.980469 527.574219 715.515625 514 731.539063 494 C 739.730469 484 745 471 746.710938 458 C 747.523438 451.753906 744.804688 441.207031 752 438.007813 C 761 434.042969 771.28125 441.179688 780 442.675781 C 783.484375 443.273438 788.367188 442.542969 790.910156 445.5625 C 793.558594 448.707031 793.789063 455.074219 793.960938 459 C 795.636719 497.21875 797.785156 538.039063 777 572 C 766.621094 555.503906 768.800781 529.671875 768 511 L 766 511 C 765.871094 557.402344 714.613281 566.605469 680 581 L 680 582 C 690.824219 579.433594 701.382813 574.738281 712 571.34375 C 734.515625 564.152344 757.695313 559.535156 764 533 L 765 533 C 765 566.441406 782 599 776 632 C 783.425781 624.800781 787 611.179688 785.699219 601 C 784.785156 594.648438 780.996094 588.558594 782.390625 582 C 783.492188 576.8125 787.269531 572.691406 789.507813 568 C 794.214844 558.128906 798 546 799 535 L 800 535 C 803 544.164063 804.332031 554 807.816406 563 C 810.363281 569.648438 815.589844 575.796875 816.441406 583 C 817.171875 589.144531 813.792969 595 813.175781 601 C 812 612 816.855469 624.039063 824 632 C 817.957031 600 833 568.375 833 536 L 834 536 C 844.304688 571.019531 892.453125 569 919 583 C 909.476563 572.609375 893 569.195313 880 565.28125 C 859.800781 559.195313 842.527344 550.734375 834.207031 530 C 831.808594 524.023438 831 518.394531 831 512 L 829 512 C 829 526.363281 826.859375 540.753906 825 555 C 824.929688 557 824.570313 569.066406 821 567.652344 C 818.484375 566.542969 816.933594 561.390625 815.757813 559 C 810.933594 549.195313 807.636719 538.730469 805.609375 528 C 801.800781 507.796875 801 486.496094 801 466 C 800.972656 460.128906 799 449.472656 802.988281 444.515625 C 805.277344 441.566406 809.742188 442.234375 813 441.675781 C 820.84375 440.328125 828.8125 435.289063 837 436.367188 C 851.453125 438.269531 846.871094 453.765625 849.746094 464 C 852.53125 474 859.207031 483.074219 865.613281 491 C 887.675781 518.304688 918.71875 536.648438 942.960938 562 C 955 574.753906 966 588.8125 976.621094 603 C 981.167969 609.160156 984.355469 616.789063 990 622 C 972.59375 585.367188 943.277344 556.277344 915 528 C 902.574219 515.574219 883.675781 504.128906 876 488 C 904.785156 500.046875 931.167969 520.167969 953 542 C 940.996094 521 919.953125 503.554688 899 492 C 886.183594 484.710938 867.714844 479.621094 859 467 C 855 461.070313 849.5625 449.003906 853.9375 442.109375 C 859.839844 432.8125 882.472656 439.160156 888.675781 445.527344 C 890.300781 447.195313 891.316406 450.109375 888.765625 451.535156 C 886.527344 452.785156 884.433594 450.300781 882.175781 451.1875 C 875.699219 453.71875 878.695313 463.136719 881.558594 467 C 889 477.21875 902.203125 483.792969 913 490 C 926.660156 498 939.507813 506.371094 952 516 C 940.738281 500.015625 921.371094 490.421875 905 480.601563 C 899.742188 477.445313 887.378906 472.210938 887 465.003906 C 886.84375 459.058594 895.347656 457.539063 898.980469 454.605469 C 904.257813 450.351563 905.488281 444.429688 906 438 C 911.53125 439.582031 916 442 922 442 C 916 437.808594 905.339844 435.503906 902.78125 428 C 900.757813 422.058594 905.84375 414.230469 908 409 C 914.773438 394 921.800781 379.003906 928.691406 364 C 936.949219 346.011719 944.195313 327.824219 950.328125 309 C 953.910156 298.007813 955.375 286.351563 960.785156 276 C 976 246.601563 1001 223.085938 1016.246094 193 C 1025.558594 174.425781 1035.257813 156 1048.753906 140.003906 C 1055.53125 132 1065.902344 124.347656 1077 125.183594 C 1102 127.074219 1115.433594 157.417969 1124.777344 177 C 1151.824219 233.679688 1162.539063 302 1161 364 C 1160.546875 383.078125 1157 402 1151 420 C 1148.75 426.75 1147.441406 435.066406 1141 439 M 1102 598 C 1099.703125 588.328125 1093.761719 580.566406 1087.574219 573 C 1084.519531 569.261719 1079.484375 564.394531 1080.527344 559.015625 C 1081.753906 552.695313 1089.882813 551.652344 1095 550.371094 C 1106.4375 547.511719 1126.847656 546.308594 1133 535 C 1125.214844 542.21875 1114.972656 541.730469 1105 543.609375 C 1089.1875 546.59375 1074.738281 558.058594 1063.363281 541 C 1061.582031 538.332031 1059.699219 535.28125 1059.433594 532 C 1058.953125 526.050781 1064.320313 520.222656 1066.570313 515 C 1069.945313 507.175781 1071.699219 498.621094 1075.519531 491 C 1078.734375 484.578125 1084 479.632813 1087 473 C 1072 485.191406 1069.207031 507.550781 1053 519 C 1050 514 1046.367188 507.101563 1048.742188 501.015625 C 1051.863281 493.015625 1061.6875 486 1066 478 C 1077 458.441406 1085.402344 436.652344 1094 416 C 1083.605469 426.394531 1075.667969 436.75 1069.257813 450 C 1064.308594 460.230469 1060.902344 472.585938 1053 481 C 1047.289063 470.160156 1039.273438 443.789063 1045.179688 432 C 1049.226563 424 1059.8125 419.433594 1065.960938 413 C 1074 404.503906 1080.261719 388.601563 1082 377 L 1081 377 C 1079 382.785156 1073.5 405 1066.890625 406.117188 C 1062.949219 406.832031 1058.769531 401.8125 1056 399.664063 C 1048.527344 394 1040.347656 388.441406 1032 384 C 1037.742188 392 1047 397.046875 1055 402.710938 C 1057.769531 404.699219 1063.589844 408 1063.652344 412 C 1063.789063 420.304688 1047 409.480469 1045 408.3125 C 1030.808594 400.523438 1015.269531 395.410156 1001 387.691406 C 995.589844 384.765625 987.480469 381.378906 985.515625 375 C 983.5 368.441406 986 360.488281 987.25 354 C 991 332 1003.386719 312.542969 1008 291 L 1007 291 C 996.34375 325.339844 966.824219 353.808594 968 392 C 968.667969 411.546875 981.328125 426.828125 988.847656 444 C 999.191406 467.632813 1005 493.199219 1005 519 C 992.25 509.609375 985 489.394531 984 474 C 983.625 466.71875 985.875 460.234375 983.652344 453 C 977.332031 432.433594 966 413.421875 962.433594 392 C 951.726563 328.28125 984 279 1015.199219 227 C 1022 215.425781 1029.273438 204 1035.691406 192 C 1046.425781 172.152344 1057.78125 144.753906 1085 148.183594 C 1095.175781 149.46875 1100.835938 158.496094 1104.832031 167 C 1113.398438 185.21875 1118.929688 204.773438 1124.71875 224 C 1140.578125 276.636719 1154.617188 330.742188 1144.914063 386 C 1140.695313 410.039063 1130.734375 432.636719 1124 456 C 1122.183594 462.304688 1118.234375 469.613281 1117.496094 476 C 1116.734375 482.550781 1123.921875 488 1128 492 C 1137.226563 501.230469 1150.53125 511.496094 1149.894531 526 C 1148.921875 548.164063 1133.925781 562.246094 1120.429688 578 C 1114.6875 584.699219 1109.960938 594 1102 598 M 586 521 C 586 497.6875 586.609375 475.273438 594.34375 453 C 600 436.445313 611.96875 421.539063 614.703125 404 C 619.703125 372 600.390625 341.578125 585.28125 315 C 579.933594 305.59375 575.980469 292.371094 568 285 C 579.429688 306.722656 589.441406 330.070313 595 354 C 596.96875 361.808594 601 373.203125 597.347656 381 C 594.511719 386.695313 586.425781 389.539063 581 392.246094 C 565.601563 400 544.949219 408.082031 528 411 C 530.933594 404.761719 537.214844 401.773438 541.910156 397 C 550.570313 388.085938 558.492188 377.542969 565 367 C 555.167969 376.832031 545.429688 386.632813 536 397 C 533.664063 399.800781 529.667969 406.394531 525.214844 405.824219 C 521.800781 405.386719 520 399.535156 518.574219 397 C 513.582031 388.277344 508.585938 379.40625 505 370 L 504 370 C 508.546875 384.648438 516 399.285156 524.671875 412 C 531.59375 422.320313 540.316406 432 544.25 444 C 549.601563 460.328125 545 477.351563 545 494 C 532.949219 489.332031 529.601563 475.695313 524.691406 465 C 517.238281 448.765625 506.496094 432.757813 494 420 C 505.367188 441.585938 515.503906 464.292969 528.425781 485 C 532.882813 492.140625 545.65625 501.074219 546.851563 509.003906 C 548.546875 520.242188 535.945313 525.066406 528.183594 517.773438 C 521.683594 511.664063 519.722656 501.632813 515.523438 494 C 511.722656 487.101563 505.578125 482 502 475 L 501 475 C 505 483.59375 511.777344 490.652344 516.332031 499 C 520 506 521.683594 513.828125 524.863281 521 C 527 526.039063 532.214844 531.449219 532.679688 537 C 533 542.6875 524.488281 556.792969 518.816406 558.183594 C 514.371094 559.273438 508.960938 554.023438 505 552.558594 C 493.429688 548.277344 480.523438 549.261719 469 544.546875 C 456.234375 539.320313 459 520.574219 445 519 C 449.488281 505.472656 469.890625 499.476563 471.503906 485 C 472.183594 479 465.601563 470.121094 463.859375 464 C 457.441406 441.464844 446.539063 419 442.261719 396 C 432.40625 343.207031 442.777344 289.402344 455.628906 238 C 461 216.484375 466.738281 194.765625 474.574219 174 C 478.433594 163.785156 484.207031 153.398438 496 151.328125 C 507.972656 149.226563 518.902344 155.804688 526.984375 164.003906 C 542.695313 180 551.820313 206.714844 563.398438 226 C 591.941406 273.542969 626.898438 323.761719 622.910156 382 C 621 407.515625 609.46875 430.570313 603 455 C 601 463 604.335938 469.183594 604.910156 477 C 606 492.214844 600.433594 513.507813 586 521 M 1097 221 C 1097.90625 231.394531 1103 241.816406 1105.625 252 C 1109.664063 268.363281 1111.761719 285.226563 1112.910156 302 C 1114.71875 328.394531 1106 352.257813 1105 378 L 1107 378 C 1108.507813 366.808594 1112.996094 356.1875 1114.726563 345 C 1119 316.453125 1118.355469 286.066406 1111.371094 258 C 1108.3125 245.6875 1105.976563 230.589844 1097 221 M 484 228 C 476.585938 252.566406 469.171875 276.109375 468 302 C 467.222656 320.613281 471 339.332031 471 358 L 473 358 C 473 328.5625 470.175781 299.207031 475.25 270 C 476.972656 260.085938 479.636719 250.679688 482.246094 241 C 483.328125 237 485.503906 232 484 228 M 472 363 L 472 367 L 474 367 L 474 363 L 472 363 M 566 364 C 565 365.476563 565 365.203125 565 367 C 566.289063 365.558594 566.402344 365.765625 566 364 M 1029.5 382.5 C 1028.871094 383.128906 1029.871094 384.128906 1030.5 383.5 C 1031 383 1030 382 1029.5 382.5 M 1043 488 C 1033.234375 482.355469 1014.980469 470.539063 1008.996094 461 C 1003.925781 453 1004.960938 442 1002.277344 433 C 997.761719 418 989.882813 404.007813 985 389 C 993 390.433594 999.796875 396.148438 1007 399.753906 C 1016.621094 404.5625 1026.820313 408 1037 411.332031 C 1040.734375 412.578125 1052.535156 414.359375 1053.367188 419.109375 C 1053.914063 422.222656 1047.949219 424.382813 1046 425.789063 C 1040.726563 429.59375 1037.28125 434.601563 1036 441 C 1033 456.09375 1043 472.503906 1043 488 M 597 393 C 596.546875 403 590.566406 411.652344 587.722656 421 C 584 433.089844 583.714844 450.355469 577 461 C 574.691406 465 565.863281 478.160156 560.3125 477.09375 C 556 476.269531 557.722656 465.101563 557.242188 462 C 555 448 547 436.652344 538.246094 426 C 535.824219 423.097656 529 417.574219 531.792969 413.277344 C 534.792969 408.4375 545 408.78125 550 407.800781 C 566.3125 404.5625 581.542969 399 597 393 M 1099 409 C 1096.871094 411.277344 1095.300781 413.179688 1094 416 C 1096.644531 414.078125 1099 412.390625 1099 409 M 488 415 C 489.828125 417.347656 491.363281 418.617188 494 420 C 492.484375 417.082031 491 416.078125 488 415 M 1163 432 C 1165.789063 446.375 1167 460.363281 1167 475 L 1166 475 C 1165.992188 463.71875 1155.328125 440.824219 1163 432 M 428 442 C 429.464844 450.253906 426.171875 457.789063 426 466 L 425 466 C 425 458.347656 423.921875 448.800781 428 442 M 813 443 C 813 462.542969 816.410156 490 832 503.675781 C 840.898438 511.429688 853 513.617188 862 521.300781 C 869.757813 528 874.375 540 883 545 C 879.195313 531.800781 869.742188 518 859 509.519531 C 849.351563 502 838.179688 497.320313 830.789063 487 C 824.941406 479 821.863281 468.53125 819 459 C 817.378906 453.410156 817.203125 447.347656 813 443 M 712 548 C 721.9375 542.097656 727.304688 529.800781 736 522.183594 C 744.367188 515 755.765625 512.199219 763.984375 504.816406 C 778.703125 491.589844 781.949219 464.789063 782 446 C 777.929688 448.785156 777.300781 454.464844 776 459 C 773.222656 468.675781 770.914063 478.332031 765.53125 487 C 758.207031 498.796875 745.261719 504 735 512.464844 C 724.882813 521 716.496094 535.644531 712 548 M 1158 479 L 1157 479 C 1156.945313 472.382813 1156.515625 464.007813 1153.429688 458.019531 C 1150.609375 452.539063 1145 454 1144.632813 460 C 1143.839844 470.527344 1152 483.160156 1155.328125 493 C 1160.394531 508.542969 1160.167969 522.410156 1156 538 C 1154.722656 533.828125 1156.859375 529.335938 1156.945313 525 C 1157 517.652344 1154.410156 510.273438 1150.769531 504 C 1146.628906 497 1140.785156 490.800781 1135 485 C 1132.449219 482.441406 1127.410156 479 1127 475 C 1126.460938 469 1139.476563 455.222656 1144 451.671875 C 1145.949219 450.140625 1149.703125 446.667969 1152.4375 448.160156 C 1158.28125 451.355469 1157.984375 473.085938 1158 479 M 435 542 L 434 542 C 431.839844 531.523438 429.394531 520.730469 431.667969 510 C 434.214844 498.003906 441.953125 488 444.480469 476 C 445.976563 469 445 459.003906 436 464 C 439.226563 442.574219 450.628906 468.085938 454.226563 474 C 455.722656 476.441406 460.3125 479.148438 460.171875 482.210938 C 459.789063 490.601563 446.269531 500.625 441.515625 507 C 433.308594 518.003906 433.359375 529.011719 435 542 M 588 556 C 597.8125 551 604.773438 540.539063 613 533.285156 C 636.691406 512.398438 666.851563 486.761719 676 455 C 665.96875 460.5 658.390625 478.171875 650.710938 487 C 638 501.441406 623.535156 514.464844 610 528 C 602 536 592 545.289063 588 556 M 916 457 C 932 487.554688 953.519531 509.714844 980 531.261719 C 988.671875 538.316406 996.585938 548.589844 1007 553 C 993.558594 529.40625 967.402344 512.664063 949 493 C 938.445313 481.566406 929.882813 464.808594 916 457 M 425 467 L 425 472 L 424 472 C 424 470.035156 424.222656 468.769531 425 467 M 1087.5 470.5 C 1086.871094 471.128906 1087.871094 472.128906 1088.5 471.5 C 1089 471 1088 470 1087.5 470.5 M 1013 478 C 1017.738281 479.75 1034 487.058594 1028.96875 494.347656 C 1019.871094 507.316406 1013 484 1013 478 M 575 479 C 574.898438 484 571 506 561.605469 496.394531 C 555.210938 490 570.191406 480.535156 575 479 M 1025 506 C 1019.894531 512.390625 1017 507 1025 506 M 567.371094 507.75 C 569.703125 507 574.1875 511.097656 571.339844 512.746094 C 568.664063 514.292969 564 508.824219 567.371094 507.75 M 1100 616 C 1095.203125 627.117188 1085 635.757813 1083 648 C 1079.21875 641.730469 1079.71875 633.023438 1077.84375 626 C 1074.679688 614.132813 1069.664063 602.644531 1063.574219 592 C 1056.617188 580 1048.234375 568.460938 1038.949219 558 C 1032.925781 551.210938 1024.292969 544.328125 1020.445313 536 C 1016.976563 528.488281 1024.359375 523.121094 1028.675781 518 C 1029.976563 516.457031 1032.699219 511.296875 1035.339844 512.347656 C 1039.644531 514.058594 1045.34375 529.816406 1048.195313 534 C 1060.785156 552.476563 1079.167969 567.722656 1089 588 C 1094 598.472656 1084.882813 615.296875 1100 616 M 512 656 L 511 656 C 509.820313 642.476563 499.742188 633.539063 494 622 C 508 621.65625 498.742188 605.800781 503.890625 596 C 514.765625 575.285156 531.230469 557.832031 543.574219 538 C 546.511719 533.28125 551.425781 518.398438 556.355469 516.257813 C 559.285156 515 562.328125 519.242188 564 521.015625 C 570 527.476563 573.589844 532.546875 569.214844 541 C 562.558594 554 551.746094 564.078125 543.671875 576 C 527 600.519531 515.726563 626.527344 512 656 M 492 602 C 485.199219 598.105469 480.523438 590.488281 475 585.003906 C 463.207031 573.296875 448.542969 563.394531 443 547 C 441 541.4375 436 524.714844 444 521.621094 C 453.238281 518.164063 458.871094 541 465 545.363281 C 475 552.601563 488.664063 552 500 556.089844 C 505.34375 558.019531 511 561.570313 510.835938 568 C 510.4375 579.386719 495.320313 590.46875 492 602 M 645.5 542.5 C 644.871094 543.128906 645.871094 544.128906 646.5 543.5 C 647 543 646 542 645.5 542.5 M 953.5 542.5 C 952.871094 543.128906 953.871094 544.128906 954.5 543.5 C 955 543 954 542 953.5 542.5 M 678.5 582.5 C 677.871094 583.128906 678.871094 584.128906 679.5 583.5 C 680 583 679 582 678.5 582.5 M 718 583 L 718 585 C 741 586.003906 743.421875 602.003906 748.792969 620 C 753.488281 635.734375 748.179688 650.621094 744.652344 666 C 740 686 736 706.507813 736 727 C 744.3125 718.699219 743.882813 702 747.34375 691 C 756.558594 662.128906 767.175781 637.574219 755 608 C 751.480469 599.421875 749.480469 589.410156 740 585.480469 C 733 582.59375 725.375 583 718 583 M 861 728 L 863 728 C 863 706.832031 858.242188 686.433594 853 666 C 849.566406 651.773438 844.289063 636.757813 848 622 C 852.914063 603.828125 855 588.242188 877 585 L 877 583 C 851.273438 583.070313 838.492188 604 836.171875 628 C 832.914063 661.667969 856.558594 695.023438 861 728 M 1029.5 595.5 C 1028.871094 596.128906 1029.871094 597.128906 1030.5 596.5 C 1031 596 1030 595 1029.5 595.5 M 561.332031 600.667969 C 561.277344 600.722656 561.222656 601.777344 561.667969 601.332031 C 561.722656 601.277344 561.777344 600.222656 561.332031 600.667969 M 867 652 C 878.4375 645.386719 871 625.191406 885 618 C 908.777344 605.675781 926 623.488281 946 632.691406 C 962.949219 640.511719 980 645 995 656.808594 C 1003.273438 663.4375 1009.582031 675.570313 1019 680 C 1012.820313 658.234375 997.640625 642 977 633 C 967.277344 628.5625 956.644531 626.78125 947 622.328125 C 940.746094 619.441406 938.304688 613.523438 932.960938 609.652344 C 928 606.167969 922.605469 606.371094 917 605.828125 C 903 604.480469 879.910156 604.242188 870.652344 617.039063 C 864 626.191406 867.382813 641.417969 867 652 M 789 606 C 789.414063 626.136719 793.527344 646.824219 794.910156 667 C 797 699.253906 795.699219 731.730469 797.910156 764 C 799.515625 787.410156 798.863281 815.140625 811.480469 836 C 824.457031 857.457031 855.285156 861.449219 875 874.671875 C 902.84375 893.34375 915.554688 920.394531 926 951 C 905.554688 944.082031 888.65625 931.144531 872 917.800781 C 863 910.644531 854.226563 900.304688 843 897 C 851.546875 917.214844 875.25 936.757813 895 945.277344 C 903.292969 949 920.589844 949.34375 926.347656 956.226563 C 935.597656 967.285156 932 994.484375 932 1008 L 934 1008 C 934 997.359375 936 986.632813 934.714844 976 C 932.613281 959 925.605469 943 922.613281 926 C 919.351563 907.535156 921.8125 892.414063 905.960938 878.4375 C 892 866.183594 873.550781 860 856 855 C 837.480469 849.585938 819.34375 846 813.429688 825 C 806.296875 800 807.304688 772 806.996094 746 C 806.6875 720 804.988281 694 803 668 C 802 653.171875 799.984375 638.445313 796.371094 624 C 794.777344 617.621094 793.828125 610.78125 789 606 M 570 699 L 571 699 C 579.398438 686.308594 586.839844 672.75 598 662.171875 C 614.875 646.265625 637 638.757813 657 627.574219 C 672 619.113281 694.605469 608.597656 711 619.699219 C 722.238281 627.3125 721.761719 641.75 727 653 C 728.796875 648.714844 727.339844 644.484375 727.339844 640 C 727.339844 634.058594 729.222656 627.800781 727 622 C 720.996094 606.28125 696.714844 606.082031 683 608.808594 C 667 612 653 621.066406 639 628.691406 C 608.746094 645.054688 575.703125 660.371094 570 699 M 911 650 C 906.484375 650.359375 899.441406 653.410156 895.269531 651.007813 C 891 648.597656 894 643 895.96875 640.003906 C 901.199219 632 909.226563 631 918 631 C 915 628.722656 911.691406 628.160156 908 628.042969 C 887.550781 627.390625 888.367188 649 893 663 C 894 666.277344 896.433594 678.347656 901.785156 676.652344 C 906 675.320313 906.238281 665.550781 907.347656 662 C 908.597656 658 910 654.089844 911 650 M 677 632 L 677 633 C 686.359375 632.808594 694.84375 632.242188 700.890625 641.039063 C 702.816406 644 706.265625 650.230469 702.527344 653 C 698.207031 656.140625 689.789063 652.390625 685 652 C 686.589844 656.738281 691.917969 677.347656 697 678.078125 C 703.71875 679.023438 706.582031 658.546875 707.386719 654 C 711.273438 632 694.5625 628 677 632 M 919 631 L 920 632 L 919 631 M 921 631 C 924.503906 636.121094 934.34375 638 940 640.199219 C 955.398438 646.410156 969.542969 656.371094 985 662 C 981.289063 655.59375 973.359375 653 967 649.753906 C 952.351563 642.429688 937 634.710938 921 631 M 610 665 C 631.453125 657.144531 651.523438 644.328125 673 636 C 667.46875 633.75 661 638 656 640 C 643 645.179688 617.492188 652.648438 610 665 M 1019 643 C 1022.566406 650.160156 1028.675781 655.632813 1031.960938 663 C 1039.734375 680.4375 1040 702.226563 1040 721 C 1042.480469 715.246094 1042 708.175781 1042 702 C 1041.96875 683.148438 1040.730469 650.207031 1019 643 M 905 687 C 913.574219 682.820313 919.839844 671.148438 926 664 C 927.617188 662.191406 932.378906 657.542969 929.351563 655.042969 C 926.386719 652.589844 920.5625 656.324219 918.175781 658.105469 C 909 665 907.519531 676.769531 905 687 M 550 656 C 546.863281 669.675781 540 683 539 697 C 538 712 542.773438 727.375 539.824219 742 C 537.746094 752.320313 527.882813 757.671875 527 769 C 526 783.5 531.882813 797.570313 532 812 L 534 812 C 534 800.605469 533.539063 789.273438 535.433594 778 C 537 767.800781 541.394531 758.25 542.867188 748 C 545.214844 731.707031 544.367188 715.25 546.285156 699 C 547.425781 689.335938 547.621094 679.5625 549.660156 670 C 550.652344 665.351563 553 660.121094 550 656 M 692 689 C 689.753906 679.207031 687.171875 667 678.984375 660.390625 C 676.703125 658.550781 669.648438 654 667 657.605469 C 664.976563 660.671875 669.269531 665 671 667 C 677.765625 674.53125 683.695313 683.148438 692 689 M 986 662 C 987.8125 666 990 668.1875 994 670 C 992 666.230469 989.769531 664 986 662 M 1045 662 C 1048 678 1050.828125 693.820313 1051.910156 710 C 1052.515625 719.023438 1050 728 1051.429688 737 C 1055 762 1065 782.355469 1064 808 L 1065 808 C 1068.941406 796.351563 1070.777344 773 1067 761 C 1064.507813 752.660156 1057.386719 746.617188 1055.519531 738 C 1053 726.511719 1055 712.738281 1055 701 C 1055 689.578125 1056 669.207031 1045 662 M 608 665 C 607 666.480469 607 666.203125 607 668 C 608.289063 666.558594 608.402344 666.765625 608 665 M 673 759 L 674 759 C 674 741 677.210938 722.636719 667.824219 706 C 647.4375 670 601 696.046875 580 717 C 585 698.425781 599.464844 685.238281 606 668 C 593.9375 674.441406 584.371094 693.472656 580 706 C 579 709.144531 575.785156 717.191406 577.644531 720.339844 C 578.757813 722.222656 588.488281 717.125 592 718.6875 C 606.21875 725.027344 612.566406 742 628 746.238281 C 635.6875 748.367188 643.324219 748.125 651 746.074219 C 654.910156 745.03125 660.417969 741.222656 664.53125 742.210938 C 670.40625 743.621094 671.246094 754.355469 673 759 M 994 671 C 997.738281 681 1005.367188 689.78125 1010.574219 699 C 1013 703.386719 1014.695313 709.179688 1019 712 C 1016 697.664063 1008 677.582031 994 671 M 924 757 L 926 757 C 926.414063 752 927.53125 742.738281 933 740.617188 C 937.785156 739 943.441406 742.679688 948 743.53125 C 955.65625 745 964.550781 744.207031 972 742.074219 C 986.875 737.820313 990.859375 719.195313 1005 714.574219 C 1009.320313 713.164063 1013.679688 715.566406 1018 716 C 1014.890625 709.351563 1007.898438 705 1002 700.722656 C 983.367188 687.6875 951.433594 676.675781 933.808594 697.089844 C 918.90625 714.351563 923 736.339844 924 757 M 960 697.644531 C 967 697.238281 977.824219 709.808594 966.984375 710.351563 C 960.191406 710.691406 949.539063 698.253906 960 697.644531 M 636.996094 700.386719 C 647.339844 699.402344 639 712.414063 632 712.753906 C 621.261719 713.265625 630.449219 701.011719 636.996094 700.386719 M 941.4375 714.816406 C 945.574219 713.585938 950.773438 719.339844 955 720 C 963.609375 721 972.511719 714.472656 980.9375 716.761719 C 990.4375 719.34375 971.855469 732.542969 968 733.777344 C 960.9375 736.035156 949.90625 736.398438 944.394531 730.660156 C 942.273438 728.453125 936 716.40625 941.4375 714.816406 M 613 720 C 623 720.082031 635.289063 726 645 721.722656 C 647.675781 720.550781 654 714.300781 656.96875 717.648438 C 661.90625 723.421875 651.644531 733.609375 647 735.515625 C 634 740.8125 617.335938 733.074219 613 720 M 988 958 L 990 958 C 989 937 979 918.726563 972.746094 899 C 968.683594 886.449219 967.902344 872.242188 960.453125 861.015625 C 955.476563 853.519531 947 849.484375 941 843 C 936.34375 838 934.300781 831.441406 931.945313 825 C 930.378906 820.714844 927.703125 815.683594 928.945313 811 C 932.382813 798.046875 950.183594 799 958.957031 791.609375 C 964.6875 787 964.949219 777.652344 971 773.644531 C 975.457031 770.808594 981.191406 774 985.960938 771 C 991.910156 767.265625 994.34375 759.382813 998.515625 754 C 1007.433594 742.484375 1023.304688 732.101563 1026 717 C 1021.984375 719.574219 1019.914063 724.386719 1016.828125 728 C 1010 736 1001.632813 743.050781 996 752 C 992.753906 757.324219 990.761719 764.460938 985.816406 768.566406 C 980.488281 773 973 769.460938 967 771.394531 C 960.992188 773.28125 957.703125 780 953 783.660156 C 943.488281 791.386719 924.609375 792 923 807 C 921.742188 820.714844 928.765625 839.078125 938 849 C 944 855.347656 952 859.464844 956.867188 867 C 963.742188 878 962.355469 892.113281 966.355469 904 C 972.644531 922.683594 985.410156 938 988 958 M 1040 722 L 1040 725 L 1041 725 C 1040.75 723.546875 1040.683594 723.25 1040 722 M 932 725 C 932.957031 726.515625 933.386719 727.339844 934 729 L 933 729 C 932.199219 727.261719 931.945313 726.804688 932 725 M 579 726 C 581.9375 736 590 744 596.347656 752 C 601.695313 759.023438 605.726563 767 611 774 L 612 774 C 606.519531 759.03125 593.492188 733.582031 579 726 M 666 726 C 665.195313 729 664.324219 730.09375 662 732 C 663 729.542969 664 728 666 726 M 863 755 C 868 766 880.777344 772.761719 888.386719 782 C 893.203125 788 897.328125 797.347656 904 801 C 899.441406 779 885.914063 760.441406 863 755 M 735 756 C 715 767.621094 698 776.261719 696 802 C 707.6875 795 715.167969 777.589844 726 768.4375 C 729.75 765.273438 736.476563 761.644531 735 756 M 613 773 L 613 774 L 622 774 C 619 771.757813 616.539063 772.167969 613 773 M 689 864 C 700.890625 860.566406 711 851 722 845.257813 C 741.167969 835.367188 761.390625 828.691406 781 820 C 773 816.648438 762.855469 821.351563 755 823.371094 C 730.640625 829.632813 702.871094 841.824219 689 864 M 834 823 L 834 824 C 846.359375 828 857.679688 830.621094 869 837.449219 C 883.832031 846.398438 896 859.460938 911 868 C 903.730469 836.300781 862.195313 823 834 823 M 672 1022 L 674 1022 C 673.984375 1000.527344 667.203125 971.203125 686.183594 954.394531 C 690.730469 950.367188 697.5625 949.542969 703 947.136719 C 712.238281 943.054688 721.332031 937.261719 729 930.699219 C 742.402344 919.234375 753.777344 905.21875 768 894.757813 C 792.472656 876.757813 827 870.289063 855 884.269531 C 866.542969 890.058594 872.496094 900.152344 882 908 C 879.925781 884.402344 851.191406 872.320313 831 869 C 804.476563 864.453125 775.734375 872.460938 755 889.464844 C 730.347656 909.679688 714 934.609375 686 951 C 693.289063 928.597656 694.507813 900 713 883.175781 C 725.726563 871.691406 743.253906 865.566406 758 857.148438 C 763.347656 854.097656 771.59375 851.203125 775 846 C 764.96875 846.433594 756 850.753906 747 854.574219 C 728.347656 862.402344 709.230469 869.421875 697.359375 887 C 686.609375 903 682.921875 922.054688 677 940 C 671.988281 955.1875 664.386719 970.730469 664 987 C 663.726563 999.625 670.214844 1010 672 1022 M 508.667969 904.667969 C 508.722656 904.722656 508.777344 905.777344 508.332031 905.332031 C 508.277344 905.277344 508.222656 904.222656 508.667969 904.667969 M 565 921 L 564 922 L 565 921 M 550 938 C 554.757813 954.515625 567.507813 968.472656 574.691406 984 C 581.519531 998.761719 578.363281 1013.203125 583.363281 1028 C 587.445313 1040.085938 598.183594 1048.292969 603 1060 C 608.957031 1073.820313 607 1090.359375 607 1105 L 606 1105 C 598.980469 1094.726563 591 1085.125 585.257813 1074 C 570.949219 1046.28125 562.179688 1013.199219 554.628906 983 C 551.96875 972.378906 543.457031 947.746094 550 938 M 1047.667969 941.667969 C 1047.722656 941.722656 1047.777344 942.777344 1047.332031 942.332031 C 1047.277344 942.277344 1047.222656 941.222656 1047.667969 941.667969 M 1016.667969 968.667969 C 1016.722656 968.722656 1016.777344 969.777344 1016.332031 969.332031 C 1016.277344 969.277344 1016.222656 968.222656 1016.667969 968.667969 M 870 1062 C 872 1057.457031 877.589844 1054.015625 878.460938 1049 C 879.476563 1043.164063 873.324219 1038.527344 869 1036 C 856.785156 1028.589844 842.269531 1032.324219 829 1029.101563 C 818.988281 1026.667969 809.605469 1017.3125 799 1018.1875 C 787.921875 1019.101563 779 1027.625 768 1028.824219 C 755.5625 1030.179688 727.464844 1027.714844 722.847656 1044 C 721 1050.210938 729.429688 1056.042969 732 1061 C 705.398438 1061 700.558594 1033 711.871094 1013 C 725.890625 988.429688 750.210938 976 778 976 C 814.53125 976.175781 852.46875 974 882 999.300781 C 901.378906 1016 902.527344 1062 870 1062 M 470 983 C 466.398438 995.160156 466 1009.382813 464.828125 1022 C 461.382813 1057.628906 463.234375 1093.308594 476.601563 1127 C 480.277344 1136.269531 483.277344 1149 489 1157 C 490.445313 1142.761719 480.492188 1126 477.425781 1112 C 471.742188 1086.230469 471 1059.265625 471 1033 C 471 1022.15625 469.40625 1010.71875 470 1000 C 470.425781 994.714844 472.75 987.757813 470 983 M 502 1005 C 502 1042.335938 512 1079.355469 522.289063 1115 C 543.660156 1189.363281 574.460938 1263.460938 630 1319 C 657.449219 1346.449219 698.710938 1381.148438 740 1382 L 740 1381 C 720.335938 1373.582031 701.941406 1368 684 1356.304688 C 610 1308.199219 567 1226.265625 540 1145 C 528.929688 1111.789063 517.78125 1078.359375 510.800781 1044 C 508.90625 1034.679688 509.742188 1010.816406 502 1005 M 931 1009 L 931 1014 L 932 1014 C 932.464844 1011.523438 932.472656 1011.011719 931 1009 M 827 1048 L 828 1048 C 824.488281 1061.265625 828.523438 1064.277344 837.625 1073.375 C 840.796875 1076.542969 842.855469 1081.492188 848 1081.550781 C 853.855469 1081.617188 860.65625 1078 866 1075.796875 C 894.90625 1064.34375 907.3125 1040.710938 900 1010 C 912 1016 911 1037 908.714844 1048 C 904.203125 1069.402344 881.519531 1087 862 1094.535156 C 853.777344 1097.75 840.28125 1099.222656 833.226563 1092.605469 C 828.386719 1088.0625 829 1080 827.277344 1074 C 824.605469 1065 822 1056.761719 827 1048 M 555 1016 L 555 1019 L 554 1019 C 554.25 1017.550781 554.316406 1017.246094 555 1016 M 698 1032 C 701.71875 1059.582031 735.355469 1092.339844 765 1077.164063 C 782.886719 1068.007813 778.171875 1047.695313 762 1040 L 762 1039 C 782.964844 1041.824219 782.574219 1057.023438 780.289063 1074 C 779.335938 1081.085938 779.261719 1088.511719 772.957031 1093.199219 C 764 1099.808594 750.453125 1097.355469 741 1093.382813 C 720 1084.605469 686.589844 1059.191406 698 1032 M 1104 1049 L 1105 1050 L 1104 1049 M 1104 1051 C 1107.746094 1073.097656 1115 1095.351563 1114.996094 1118 C 1114.558594 1179.757813 1082.835938 1241.171875 1043.570313 1287 C 1031.898438 1300.621094 1018.199219 1313.402344 1004 1324.347656 C 997 1329.675781 985.527344 1334.539063 981 1342 C 1002.4375 1335.824219 1022.617188 1316.355469 1038 1301 C 1082.898438 1256.175781 1116.996094 1190.78125 1117 1126 C 1117 1107.824219 1115.570313 1091 1112 1073 C 1110.582031 1066 1109.203125 1056.328125 1104 1051 M 651.644531 1101.070313 C 649.5 1102.699219 652.300781 1105.753906 654.398438 1104.597656 C 656.988281 1103.167969 653.96875 1099.304688 651.644531 1101.070313 M 948.226563 1101.15625 C 946.464844 1102.214844 947.367188 1105.058594 949.453125 1104.253906 C 951.503906 1103.460938 950.378906 1100 948.226563 1101.15625 M 667.617188 1106.242188 C 665.699219 1107.390625 667.789063 1110.222656 669.632813 1109.554688 C 672 1108.679688 669.6875 1105 667.617188 1106.242188 M 932.511719 1107.117188 C 930.964844 1108.175781 932.675781 1110.269531 933.972656 1109 C 935 1108 933.785156 1106.246094 932.511719 1107.117188 M 686 1108.761719 C 680.175781 1111 683.199219 1117.613281 688.890625 1115.253906 C 694.300781 1113.007813 691.320313 1106.792969 686 1108.761719 M 911.335938 1108.78125 C 906.246094 1111.144531 915.257813 1116.390625 918.675781 1115.015625 C 924.167969 1112.800781 915 1107.019531 911.335938 1108.78125 M 969 1109 L 969 1112 L 968 1112 C 968.25 1110.546875 968.316406 1110.246094 969 1109 M 707.335938 1114 C 703 1115.429688 709 1120.171875 712.378906 1118.40625 C 716 1116.425781 709.648438 1113.105469 707.335938 1114 M 891.371094 1114.03125 C 888.265625 1116.085938 892 1119.117188 894.667969 1117.71875 C 898.253906 1115.78125 894.3125 1112.089844 891.371094 1114.03125 M 950 1125 C 949.632813 1127.738281 949 1130.332031 948.292969 1133 C 943.652344 1150.128906 961 1135.21875 950 1125 M 653 1126 C 640.984375 1134.230469 659.863281 1151.519531 655 1133.003906 C 654.46875 1130.644531 653.628906 1128.351563 653 1126 M 940.375 1135.175781 C 935.847656 1137.441406 935.679688 1153.269531 941.816406 1150 C 946.273438 1147.476563 945.839844 1132.441406 940.375 1135.175781 M 659.511719 1136.085938 C 654.4375 1139.144531 658.53125 1153.488281 664.484375 1150 C 669.257813 1147.050781 665.246094 1132.632813 659.511719 1136.085938 M 689.1875 1139.757813 C 682.371094 1142.546875 685.359375 1153.582031 693 1150.382813 C 702 1146.585938 697.507813 1136.355469 689.1875 1139.757813 M 909 1139.746094 C 901.988281 1143 909.820313 1152.53125 915.851563 1150.214844 C 923.183594 1147.398438 915.910156 1136.816406 909 1139.746094 M 708 1140.617188 C 700.835938 1142.308594 704.871094 1149.820313 710.980469 1148.382813 C 718 1146.691406 714 1139.179688 708 1140.617188 M 739 1144 C 735.691406 1139.058594 731.8125 1143.175781 739 1144 M 864 1144 C 867.316406 1143.46875 869.230469 1143 871 1140 C 867.4375 1140.273438 865.878906 1141 864 1144 M 890.335938 1141.027344 C 884.90625 1145 894.605469 1149.671875 898.664063 1146.820313 C 904 1143.054688 894.257813 1138.273438 890.335938 1141.027344 M 672 1142.085938 C 665.722656 1145.234375 668.261719 1160 675.855469 1156.632813 C 681.734375 1154.074219 678.824219 1138.785156 672 1142.085938 M 928 1142.085938 C 922.847656 1144.652344 922.492188 1159.601563 929.894531 1156.671875 C 936 1154.210938 935.371094 1138.570313 928 1142.085938 M 870 1161 C 872.386719 1166 875.8125 1167 881 1167 C 877.980469 1163.484375 874.460938 1162.058594 870 1161 M 723 1169 C 727.816406 1168 731 1166 734 1162 C 728.824219 1162.464844 724.902344 1164 723 1169 M 978 1167 C 980 1166.59375 980 1166.78125 981 1165 C 979.421875 1165.683594 979.222656 1165.804688 978 1167 M 621 1166 L 621 1167 L 624 1167 C 622.753906 1166.316406 622.449219 1166.25 621 1166 M 888 1167 C 892.371094 1179.820313 902.855469 1171.289063 888 1167 M 716 1168 C 701.4375 1170.597656 709 1181.214844 716 1168 M 670.710938 1171.039063 C 666.285156 1175 681.375 1182 685.339844 1178.683594 C 689.242188 1175.558594 674.351563 1167.804688 670.710938 1171.039063 M 907.601563 1171.175781 C 905 1172.730469 907.851563 1177.402344 910.398438 1175.824219 C 912.902344 1174.269531 910 1169.597656 907.601563 1171.175781 M 915 1175 C 921.347656 1182.191406 930 1177.570313 935 1171 C 927.800781 1169.433594 921.609375 1172.4375 915 1175 M 693.265625 1172.085938 C 690.925781 1173.566406 691.460938 1178.367188 694.625 1176.675781 C 697.378906 1175.199219 696.625 1170 693.265625 1172.085938 M 983.1875 1179 C 980.796875 1179.707031 982.355469 1182.378906 984.4375 1181.359375 C 986.28125 1180.453125 985 1178.238281 983.1875 1179 M 618 1180 L 618 1181 C 620 1182.042969 621.699219 1182.601563 624 1183 C 622.378906 1180.058594 621.3125 1179.5 618 1180 M 631 1185 C 632.851563 1184.796875 634 1184.796875 636 1185 C 634.226563 1182.316406 632.773438 1182.320313 631 1185 M 967 1182 L 967 1184 L 972 1185 C 970.554688 1182.71875 969.6875 1182.417969 967 1182 M 633 1195 C 633.980469 1196.78125 633.90625 1196.59375 636 1197 C 634.859375 1196 634.386719 1195.691406 633 1195 M 822 1203 L 822 1204 C 812 1207.710938 791.675781 1209.726563 784 1201 C 797.769531 1199.144531 809 1195.613281 822 1203 M 673 1202 C 677 1210.464844 683.492188 1204.53125 673 1202 M 922 1207 C 925.953125 1206.699219 927.820313 1206 929 1202 C 925.546875 1203 923.703125 1203.828125 922 1207 M 587 1205 C 592.390625 1231.046875 613.675781 1266.28125 639 1277 C 633 1264.246094 619 1256.394531 611 1245 C 602.574219 1233.035156 598.613281 1214.09375 587 1205 M 533 1230 C 535.214844 1244.785156 544.835938 1260.175781 552 1273 C 574.585938 1312.320313 612.808594 1355 658 1368 L 658 1367 C 624.503906 1344.402344 595.347656 1320.332031 570.652344 1288 C 561.6875 1276.257813 553.335938 1263.742188 545.859375 1251 C 541.839844 1244.144531 538.875 1235.425781 533 1230 M 774 1313 C 768.695313 1294.164063 767 1276.527344 767 1257 C 767 1254.5625 767.632813 1240.207031 763.765625 1240.207031 C 759.511719 1240.207031 759 1256.144531 759 1259 C 758.933594 1273.03125 761.210938 1285.789063 766 1299 C 767.855469 1304 769.292969 1310.28125 774 1313 M 324 1240 L 325 1241 L 324 1240 M 938 1254.332031 L 938.332031 1254.667969 C 937.839844 1254.832031 937.226563 1254.332031 938 1254.332031 M 976 1345 L 980 1343 C 977.691406 1342.441406 977.242188 1343.003906 976 1345 M 744.332031 1382.667969 C 744.277344 1382.722656 744.222656 1383.777344 744.667969 1383.332031 C 744.722656 1383.277344 744.777344 1382.222656 744.332031 1382.667969 "/>
</g>
</svg>
