<?xml version="1.0" encoding="UTF-8"?>
<svg xmlns="http://www.w3.org/2000/svg" xmlns:xlink="http://www.w3.org/1999/xlink" width="1500pt" height="1500pt" viewBox="0 0 1500 1500" version="1.1">
<g id="surface1">
<path style=" stroke:none;fill-rule:nonzero;fill:rgb(0%,0%,0%);fill-opacity:1;" d="M 496 1277 C 513.957031 1276.628906 532.777344 1263.179688 545 1251 C 588.714844 1207.425781 582 1138.546875 582 1082 C 584.628906 1084.625 595.957031 1097.777344 599.867188 1090.679688 C 602.855469 1085.257813 592.371094 1069.378906 590.199219 1064 C 581.660156 1042.824219 576 1019 576 996 C 592.246094 1013.796875 601.933594 1037.1875 611.425781 1059 C 614.816406 1066.800781 620.324219 1074.417969 621.496094 1083 C 622.570313 1091 618.632813 1099.136719 618 1107 C 616.816406 1125.515625 622 1145.804688 632.769531 1161 C 641.9375 1174.097656 654.980469 1178.769531 665.90625 1189.183594 C 675.636719 1198.460938 680.253906 1210.351563 692 1218.25 C 723 1239.136719 771.421875 1238.484375 804 1221.742188 C 819.570313 1213.738281 825.496094 1199.195313 838 1188.210938 C 850.898438 1177 864 1170.484375 873.394531 1155 C 882.628906 1139.515625 884.742188 1121.71875 883.960938 1104 C 883.617188 1096.242188 880 1088.800781 881.667969 1081 C 887.722656 1052.242188 907.707031 1027 920 1001 L 921 1001 C 920.804688 1024.65625 913.167969 1048.074219 908.210938 1071 C 906.683594 1078.066406 900.652344 1089.761719 902.359375 1097 C 904.570313 1106.046875 915 1091.34375 916 1088 L 917 1088 C 917.3125 1126 920.480469 1165.339844 931 1202 C 935.925781 1219.164063 941.824219 1236.585938 954.289063 1250 C 967.578125 1264.117188 988.214844 1273.113281 1007 1277 C 1001.910156 1266.09375 988.261719 1262.140625 980 1254 C 966.621094 1240.605469 959 1222.726563 953.34375 1205 C 939.316406 1161.101563 938 1114.636719 938 1069 C 938 1040.332031 937.410156 1011.128906 943.886719 983 C 948.957031 961 968.492188 946.746094 972.738281 924 C 976.816406 902.160156 975.675781 879.71875 980.652344 858 C 985.445313 837.074219 995.953125 818 1000.574219 797 C 1004.957031 777.125 1002.464844 755.691406 1011.808594 737 C 1026.863281 707 1057.933594 688.003906 1083 667.078125 C 1093.273438 658.503906 1107.824219 649 1113 636 C 1116.675781 627 1115 615.53125 1115 606 C 1115 582.683594 1112 560.09375 1111 537 C 1110.277344 519.785156 1118.621094 501.449219 1123.289063 485 C 1142.234375 418.242188 1141.484375 346.761719 1118.65625 281 C 1110.617188 258 1098.574219 220.316406 1068 222.09375 C 1034.550781 224.039063 1012.722656 252.632813 995.996094 278 C 977 306.59375 959.359375 336.035156 939.574219 364 C 915.941406 397.40625 890 430 872.257813 467 C 863.902344 484.269531 859.316406 503.058594 852.679688 521 C 850 528.027344 847.585938 538.617188 841.671875 543.640625 C 837.648438 547.058594 832.273438 543.308594 828 542.160156 C 818.597656 539.628906 808.640625 540 799 540 C 762.371094 540 725.617188 539.113281 689 540.015625 C 681.199219 540.207031 673.601563 545.046875 666 544.679688 C 658.921875 544.332031 654 532.480469 651.269531 527 C 647.332031 519.097656 646.554688 510.34375 643.972656 502 C 639.730469 488.269531 634.171875 475 627.753906 462 C 607 420.6875 576.367188 384.476563 551 346 C 529.394531 313.222656 510.941406 275.703125 483.828125 247.039063 C 467.828125 230.125 435.683594 212.203125 413 227 C 401.671875 234.339844 395 247.8125 390.203125 260 C 367.269531 318 359 383.574219 369.433594 445 C 372.859375 465.402344 378.761719 485.144531 384.421875 505 C 386.917969 513.761719 391 523 391.816406 532 C 392.480469 540.785156 389.328125 550.28125 388.285156 559 C 385.597656 581.476563 381.789063 617.453125 392.902344 638 C 399 649.367188 409.828125 657.285156 419 666.039063 C 447.316406 693.070313 488.175781 718.085938 503 756 C 508.835938 770.664063 505.898438 786.804688 508.804688 802 C 512.464844 821.132813 521 839 524.574219 858 C 528.703125 881 527 904.226563 531.460938 927 C 534.863281 945.054688 549.746094 957 553.960938 974 C 559.933594 998.339844 558.390625 1024.203125 560 1049 C 563.53125 1099.257813 567 1153.058594 551.972656 1202 C 546.347656 1220.175781 537.535156 1237.386719 523.960938 1251 C 515.292969 1259.628906 501.394531 1265.761719 496 1277 M 923 634 C 932.570313 634 943 633.699219 952 629.648438 C 967.6875 622.484375 955.527344 617 945 617 L 945 616 C 952 611.148438 958.863281 606.085938 965 600 C 959.578125 600 944.859375 604.246094 940.742188 601 C 936.40625 597.523438 935.535156 582.394531 934 577 C 927.851563 553.171875 916.613281 528 923 503 C 928.902344 481.078125 941.167969 459.667969 952 440 C 974 400.582031 999.890625 363 1027 327 C 1041.558594 308 1058.699219 290.226563 1070 269 C 1050.886719 282.464844 1035 306.296875 1019.871094 324 C 994 354.023438 970.777344 386 948.996094 419 C 933.277344 443 916.914063 468.386719 908.722656 496 C 899.824219 526 912.527344 554.273438 920 583 C 923.5625 596.050781 931.328125 610.34375 916 618 C 913 598.023438 899.21875 575.574219 879 570 C 892.527344 601.394531 905.570313 636.527344 924.671875 665 C 934.4375 679.558594 945.578125 693.636719 958 706 C 967.199219 715.15625 978.992188 723.140625 985 735 C 989.601563 744.0625 985.988281 751.652344 985 761 C 983 781.316406 978.960938 800.640625 972.515625 820 C 970.449219 826.207031 969.714844 834.664063 965.351563 839.773438 C 961.449219 844.339844 956 842.363281 951 842.339844 C 931 842.242188 926 822 908 814.453125 C 871.550781 799.601563 849.4375 836.769531 841 866 C 839.445313 871.699219 833.363281 877 833.363281 883 C 833.355469 891.039063 847.945313 885.304688 853 887.351563 C 860.234375 890.28125 866.371094 895.425781 874 897.511719 C 890.191406 902 912 895.777344 923.960938 884 C 928.441406 879.480469 931.636719 874.144531 933.238281 868 C 934.207031 864.292969 933.625 858.449219 936.589844 855.601563 C 939.308594 853 943.742188 854.519531 947 854.828125 C 950.203125 855.136719 955.722656 854 958.394531 856.027344 C 962.445313 859.257813 957.308594 879 956.714844 884 C 954.890625 899.402344 956.507813 915.257813 950.546875 930 C 943 948.378906 927.730469 962.429688 920 981 L 919 981 C 919.996094 968.460938 924.832031 956.394531 926.917969 944 C 929 931.5625 928.546875 918 933 906 C 924.539063 907.636719 918.828125 915.171875 913 921 C 902 932 889.488281 944.574219 873 945 C 867.539063 945.121094 854.363281 943.394531 852.832031 951.003906 C 851.277344 958.726563 865.449219 959.214844 870 958.570313 C 888.765625 956 901.433594 944.609375 917 935 C 913 985.121094 887.570313 1026.582031 871.34375 1073 C 864.847656 1091.589844 875.492188 1111.238281 870.265625 1131 C 860.960938 1166.1875 830.847656 1181.246094 797 1185.050781 C 784.738281 1186.429688 772.4375 1187.34375 761 1182 L 761 1181 C 786.6875 1177.539063 812.496094 1160 821.300781 1135 C 829.570313 1111.628906 824.375 1074.332031 802 1060.132813 C 793.351563 1054.644531 781.929688 1054 772 1054 L 772 1053 C 784 1046.09375 794 1047.71875 806 1054 C 796.921875 1040.28125 783.796875 1035 768 1039 C 774 1029.519531 784.375 1030.296875 794 1033 C 785.964844 1026.167969 774 1024.160156 767.390625 1016 C 762 1009.523438 760.203125 1000 758.601563 992 C 755.191406 975.070313 753 958.277344 753 941 C 748.714844 946 749.402344 953.789063 748.574219 960 C 746.472656 975.828125 746.691406 993 740.933594 1008 C 734.925781 1023.761719 719.324219 1022.652344 709 1033 C 718.851563 1030.746094 729 1028.796875 736 1038 C 717.882813 1036.570313 709.953125 1041.046875 697 1054 C 708.652344 1049.222656 724.277344 1043.355469 734 1055 C 723 1055 711.601563 1054.03125 702 1060.132813 C 692.257813 1066.324219 687.503906 1077.503906 684 1088 C 675 1114.679688 677.210938 1134.722656 697 1156 C 706.4375 1166 718 1173.183594 731 1177.65625 C 732.324219 1178.117188 741.953125 1180.484375 739.246094 1183 C 734.367188 1187.449219 721 1186.027344 715 1186 C 689.507813 1186 659.574219 1177.210938 643.925781 1156 C 632.597656 1140.648438 628.714844 1121.78125 630 1103 C 630.691406 1094.78125 635 1087.339844 633 1079 C 628.613281 1060.402344 617.332031 1041.746094 610 1024 C 597.941406 994.746094 589.957031 966.3125 586 935 C 593.714844 940.101563 599.828125 947.199219 608 951.6875 C 617 956.636719 629.632813 960.492188 640 958.671875 C 643.886719 958 652.496094 954.601563 649 949.226563 C 645.386719 943.1875 626.722656 945.574219 620 943.558594 C 606.464844 939.503906 597.296875 927.761719 587.960938 918 C 585.671875 915.605469 577.484375 905 573.601563 907.035156 C 569.410156 909.414063 573.539063 921.386719 573.949219 925 C 576.167969 944.472656 579 963 584 982 C 576.882813 976.117188 574 966.738281 569.546875 959 C 563.816406 949.367188 555.914063 940.664063 552 930 C 547.550781 917.339844 548.605469 902.265625 547.960938 889 C 547.613281 881.816406 541.570313 862.453125 546 856.589844 C 548.398438 853.46875 556.414063 853.46875 560 853.175781 C 572.691406 852.136719 569.8125 868.128906 574.714844 876 C 581.976563 887.660156 594.824219 894.636719 608 897.335938 C 626.597656 901.140625 638 890.59375 655 886.777344 C 658.972656 886 662.261719 888.515625 665.996094 888 C 669.804688 887.207031 672.992188 882.800781 672.472656 879 C 671.625 873 664.894531 868.582031 662.46875 863 C 651.535156 838 631.179688 800.078125 597 814.464844 C 580.425781 821.441406 573.78125 840.160156 556 842.285156 C 551.519531 842.820313 545.324219 844.234375 541.417969 841.140625 C 537 837.707031 536.761719 829 535.277344 824 C 529.878906 805.796875 527.234375 788 525.910156 769 C 525.230469 759.3125 516.191406 744.761719 518.667969 736 C 521.757813 725.0625 535 714.375 543 707 C 553.679688 697 562.511719 685.574219 571.347656 674 C 586.414063 654.25 593.949219 631.425781 603.863281 609 C 609.785156 595.597656 617.730469 583.230469 624 570 C 599 576 592.71875 598.289063 585 619 C 571.371094 609.167969 579 594 583.328125 581 C 592.378906 553.238281 601.863281 526.058594 593.574219 497 C 586.347656 471.679688 572.222656 449.152344 558.425781 427 C 535.691406 390.503906 510.183594 355.597656 482 323 C 467.445313 306 452.421875 283 434 270 C 444 288.101563 459.425781 304.171875 471.574219 321 C 511.605469 376.4375 558.503906 436.78125 578.972656 503 C 586.347656 527 576 552.203125 569.710938 575 C 567.753906 582 568.257813 593.117188 563.296875 598.679688 C 557.890625 604.75 544.464844 592.183594 541 599.320313 C 539 603.527344 547.722656 609.175781 550 612 C 540.566406 616.746094 543.671875 623.257813 552 627.671875 C 561.480469 632.703125 570.902344 632 581 630 C 576.601563 659.789063 549 685 529 705 C 525.359375 708.640625 514 725.699219 508.988281 725.078125 C 503.558594 724.410156 497.644531 714 494.28125 710 C 486.210938 700.722656 477.386719 692.214844 468 684.273438 C 462.980469 680.03125 456.476563 676.417969 452.652344 671 C 449.269531 666.183594 450.472656 660.191406 448 655 C 442 642.324219 427.351563 629.433594 431 614 C 433.976563 601.761719 454.292969 591.808594 449.878906 578 C 444 559.679688 421.519531 549.789063 413.308594 532 C 405.921875 516 401.886719 498.039063 397.628906 481 C 386.777344 437.617188 381.691406 392.460938 387.871094 348 C 391.851563 319.351563 397.75 290.5 409.695313 264 C 415.496094 251.132813 421.242188 237.527344 438 241.761719 C 470.367188 250 485 280 501.1875 306 C 524.796875 344.53125 548.921875 382.640625 574.34375 420 C 591.183594 444.746094 610.558594 467.714844 621.386719 496 C 625.621094 507.054688 626.832031 519 631 530 C 634.558594 539.128906 640.984375 547.371094 643 557 C 644.835938 565.007813 637.296875 578 643.5625 584.667969 C 646.316406 587.597656 650 586 651.859375 583 C 654 579.199219 653.644531 574.597656 656.433594 571.09375 C 663.324219 562.441406 677.605469 559.800781 688 559.089844 C 711 557.503906 734.835938 559 758 559 C 781.53125 559 805.605469 557.546875 829 560.171875 C 835.566406 561 843.304688 563.128906 846.996094 569.015625 C 848.984375 572.191406 850 583.035156 855.5625 582.230469 C 864 581 857.511719 563.019531 858.324219 558 C 860 547 867.40625 537.253906 871.546875 527 C 875.597656 517 876.988281 506.0625 881 496 C 894 463.363281 917.675781 436 937 407 C 964.410156 366 989.253906 323.121094 1016.667969 282 C 1026.746094 267 1038 253 1055 245.3125 C 1064.296875 241.15625 1074.425781 240.085938 1081.894531 248.019531 C 1096.972656 264.03125 1103.703125 295.050781 1108.425781 316 C 1120.964844 371.664063 1117.667969 426.820313 1103.871094 482 C 1099.890625 498 1096.609375 515 1090 530 C 1081.503906 550.136719 1056.550781 559.316406 1050 580 C 1043.96875 599.785156 1080.996094 607.652344 1072 629 C 1066.480469 642.578125 1058.902344 660.167969 1048.824219 671 C 1038.375 682.160156 1024.683594 690 1014 701.003906 C 1008.484375 706.753906 1004.582031 713.625 999.84375 720 C 998.402344 722 996 725.792969 993.3125 725.792969 C 988.757813 725.792969 978.3125 708.566406 975 705 C 955.667969 683.601563 931 662.742188 923 634 M 1083 309 C 1088.898438 340.300781 1093 373.097656 1090.910156 405 C 1089.839844 420.613281 1088.472656 436.539063 1085.921875 452 C 1084.253906 462.070313 1081 471.746094 1081 482 C 1090.832031 476 1091.804688 455.324219 1094.371094 445 C 1102.742188 411.363281 1105 376 1097.574219 342 C 1095.457031 332.410156 1092.480469 313.671875 1083 309 M 423 483 C 420.960938 457.15625 413.867188 432 412 406 C 409.84375 373.179688 413.371094 342.117188 420 310 C 408.761719 315.367188 407.183594 333.082031 405 344 C 398.21875 378 400.265625 412.558594 408.628906 446 C 411 455.53125 413.902344 478.105469 423 483 M 465 441 C 469 448.511719 480.535156 451 488 454.011719 C 505.570313 461.324219 522.980469 469.738281 540 478.246094 C 543.394531 480 560.871094 490.792969 563.746094 485.394531 C 567.351563 478.625 548.234375 468.121094 544 465.605469 C 520.773438 451.785156 491.65625 444.371094 465 441 M 1037 441 C 1011.5 442.097656 980.839844 451.167969 959 464.199219 C 954.894531 466.648438 936 477.089844 939.257813 483.394531 C 942 489.050781 959.460938 478.53125 963 477 C 980.472656 469.445313 997.667969 461.113281 1015 453.230469 C 1022.75 449.703125 1031.578125 448.019531 1037 441 M 939 497.066406 C 936.234375 500.359375 945 509 947 511 C 958.878906 523.402344 971.695313 535 986 544.332031 C 988.613281 546.066406 999.953125 554.667969 1002.863281 550.355469 C 1005.460938 546.507813 997.179688 538.539063 995 536 C 984 523.242188 971.921875 510.296875 957 502.179688 C 954 500.621094 942 493.6875 939 497.066406 M 560.941406 497.675781 C 542.449219 499.179688 523 521 511 533 C 509.496094 534.511719 494.546875 550.585938 501.320313 551.355469 C 506.714844 552 513.800781 546.773438 518 544 C 531.417969 535.125 543.769531 524.503906 554.984375 513 C 556.675781 511.269531 569.808594 497 560.941406 497.675781 M 570 519 C 565.609375 535.050781 553 544 545.632813 558 C 539.882813 569 540 584 540 596 C 555 584.414063 569 559.605469 572.386719 541 C 573.398438 535.265625 575.257813 522.714844 570 519 M 931 519 C 924.195313 545.308594 942.480469 580.714844 964 596 C 963 584.0625 963 570 957.621094 559 C 953.453125 550.71875 946 544.683594 941 537 C 937.300781 531.167969 936.167969 524 931 519 M 490 574 C 487.488281 554.546875 475.183594 538.699219 456 533.042969 C 451.742188 531.785156 439 528.476563 435.753906 532.738281 C 432.511719 537 444.554688 542.714844 447 544.4375 C 460 553.71875 473.523438 571.027344 490 574 M 1013 574 C 1028.761719 571.1875 1041.5 555.402344 1054 546.429688 C 1059.761719 542.289063 1067.503906 539.027344 1070 532 C 1039.542969 532 1021.519531 544 1013 574 M 409 554 C 414.894531 560.75 430.683594 572.574219 432.523438 581.003906 C 434.523438 590.164063 420.574219 600.472656 417.75 609 C 413.371094 622.21875 421 633.191406 426 645 C 404.46875 631.421875 406 602.3125 406 580 C 406 572 404.1875 561 409 554 M 1094 556 C 1095.824219 579.113281 1105.394531 624 1084 639 C 1086.421875 632 1090.574219 624.789063 1088.363281 617 C 1085 605.324219 1069.71875 596.566406 1068.335938 585 C 1067.375 577 1087.1875 559.175781 1094 556 M 501 560 C 501.890625 570.195313 507.976563 579.320313 510.976563 589 C 517.359375 609.609375 518.964844 631.550781 511.1875 652 C 504.925781 668.460938 497.316406 667.136719 482 666.089844 C 479.578125 666 467.207031 664.578125 467.207031 668.417969 C 467.207031 672.230469 474.199219 675.683594 477 677.207031 C 485.394531 681.773438 505 694.160156 514 688.296875 C 522.808594 682.480469 527.257813 671.394531 531 662 C 543.601563 630.375 537.96875 574.015625 501 560 M 999 560 C 969.367188 581.304688 959.808594 620.59375 968.882813 655 C 971.738281 665.824219 977.207031 682.464844 988 687.820313 C 997.621094 692.59375 1015 681.804688 1023 677 C 1025.648438 675.40625 1033.429688 671.789063 1032.167969 667.601563 C 1031.402344 665.050781 1025.84375 666.0625 1024 666.285156 C 1017.289063 667.109375 1007.496094 671.308594 1001 667.820313 C 987.25 660.28125 985 630.589844 986 617 C 986.960938 604.265625 989.691406 591 994 579 C 996 573.359375 1001.34375 566.015625 999 560 M 543 813 C 550.347656 811 553.246094 803.011719 557 797 C 565.1875 784.15625 573.902344 771.648438 582.332031 759 C 612 714.476563 642 669.007813 663.859375 620 C 670.539063 605.015625 683.242188 586.578125 684 570 C 676.796875 574 673.4375 583.164063 669.574219 590 C 661.355469 604.550781 652.398438 618.671875 643.800781 633 C 619.75 673.085938 596.96875 714 574.691406 755 C 564.289063 774.183594 551.390625 793 543 813 M 690 687 C 690 647.785156 698.597656 605 717 570 C 706.664063 572 700 581.324219 695.3125 590 C 683.933594 610.714844 682.496094 633.039063 682.984375 656 C 683.171875 664.765625 681.660156 681.488281 690 687 M 759 570 C 759 592.078125 763.933594 613.828125 762.960938 636 C 762 655.519531 756 674.378906 756 694 C 763.46875 688.136719 764.257813 677.628906 766.710938 669 C 773.308594 645.78125 777.21875 622.003906 772.738281 598 C 770.910156 588.199219 768.890625 574.65625 759 570 M 786 570 C 792.480469 592.496094 802.472656 614 807.574219 637 C 811.289063 653.804688 811.265625 671 812 688 C 819.820313 683 818.292969 667.304688 819.285156 659 C 822 635.480469 818.53125 609.410156 805.933594 589 C 800.988281 581 795.429688 572.792969 786 570 M 745 694 C 750.238281 686.328125 743.421875 673.394531 742.289063 665 C 739.371094 643.355469 737.5625 620.71875 740.425781 599 C 741.339844 592.039063 742.207031 585 742.828125 578 C 742.957031 576.5625 743.5625 572.359375 741.441406 572 C 738.628906 571.34375 736.824219 576.128906 736 578 C 732.867188 585.292969 730.699219 593.160156 729.4375 601 C 724.636719 630.820313 729.683594 667.65625 745 694 M 818 571 C 823.320313 591.550781 832.890625 608.828125 841.691406 628 C 862.710938 673.773438 889.671875 717.011719 918.859375 758 C 927.695313 770.410156 935.910156 783.308594 944.332031 796 C 948.242188 802 951.492188 809.695313 958 813 C 956.628906 805.042969 951.804688 799 947.871094 792 C 941 780.097656 934.546875 768 927.859375 756 C 903.941406 713.128906 879.875 670.335938 855 628 C 847 614.59375 838.851563 601.425781 831 588 C 827.335938 581.699219 824.941406 574.308594 818 571 M 750 742 C 745.394531 764.328125 746 786.292969 746 809 C 746 841.820313 746.863281 873.453125 751 906 L 752 906 C 755.722656 893.402344 753.1875 877.171875 754 864 C 756 835.789063 759 806.167969 755.425781 778 C 754.25 769.050781 758.1875 747.761719 750 742 M 678 747 C 681.9375 770 694.554688 790.175781 696.828125 814 C 697.765625 823.769531 698 835.398438 695.984375 845 C 694 854.128906 689.769531 862.59375 689 872 C 700.589844 866.59375 706.503906 852 708.738281 840 C 714 812 706.992188 760.796875 678 747 M 823 747 C 795.796875 765.578125 787.707031 807.40625 794.210938 838 C 796.6875 849.648438 801.828125 865.15625 813 871 C 812 860.761719 807 851.1875 805.4375 841 C 803 826.296875 804.796875 809.542969 807.425781 795 C 809.398438 784.066406 812.410156 773.019531 817.257813 763 C 819.472656 758.425781 824.414063 752.15625 823 747 M 902 776 C 895.339844 763.824219 873.308594 761.6875 861 763.183594 C 856.210938 763.765625 845.523438 767.359375 846.972656 774 C 848.179688 779.441406 855.972656 778.449219 860 778.046875 C 874.378906 776.601563 887.5 774.167969 902 776 M 601 775 C 616.554688 775 629.796875 777.335938 645 780.195313 C 649 781 656.359375 782.277344 657.996094 777 C 660 770.109375 650 765.832031 645 764.679688 C 633.96875 762.148438 607.898438 765 601 775 M 944 839 C 946.25 833.636719 944.230469 827.4375 942.988281 822 C 938.875 804 928 787.09375 910 780.699219 C 881.324219 770.539063 851.261719 789.175781 842.34375 817 C 838.871094 828 837 839.625 837 851 C 836.996094 853 835.878906 861.425781 838.375 862.078125 C 841.34375 863 841.953125 853.632813 842.261719 852 C 844.441406 840.429688 849.550781 828.503906 856.488281 819 C 860.324219 813.75 864.738281 809.3125 870 805.488281 C 873.957031 802.613281 878.390625 800.332031 883 798.699219 C 914.449219 787.570313 929.59375 817.15625 944 839 M 558 839 C 564.210938 835.824219 565.605469 828.726563 568.871094 823 C 573.855469 814.273438 580.371094 806.359375 589 801.070313 C 630.527344 775.597656 655 835.765625 665 865 C 670.421875 857.0625 666 841.832031 664.566406 833 C 658.273438 795.5625 619.523438 760.789063 582 786.773438 C 563 800 562.78125 819 558 839 M 614 833.542969 C 625.285156 831.65625 625.851563 852.394531 615 853.726563 C 604 855.066406 604.816406 835.082031 614 833.542969 M 888 833.542969 C 898.664063 831.777344 898.433594 851.667969 888.996094 853.664063 C 878 856 878.527344 835.109375 888 833.542969 M 920 835 C 928 842.425781 924.578125 845.496094 924 855 C 923.574219 863.355469 923.945313 872.1875 917.671875 878.699219 C 899.613281 897.441406 860.433594 895.300781 854.808594 867 C 853.234375 859.089844 855.25 852.632813 857 845 L 858 845 C 857.398438 852.636719 855.550781 860.710938 858.914063 868 C 868.445313 888.652344 893 888.203125 907.960938 874 C 914.382813 867.722656 919.449219 859.089844 919.894531 850 C 920 845 917.949219 840 920 835 M 580 842 C 578.46875 854.121094 578.628906 866.742188 588 876 C 608.589844 896 646.410156 880.445313 647 852 L 648 852 C 663.695313 898.363281 584 903.207031 578.425781 862 C 577.640625 856.242188 576.378906 846.78125 580 842 M 558 855 C 558 892.246094 577.519531 918.257813 617 915.085938 C 626.402344 914.328125 644.375 912.582031 650 904 C 623.945313 904.015625 595.855469 907.488281 576.175781 886 C 568 877.109375 566.664063 862.445313 558 855 M 854 904 C 857.433594 909.019531 867.289063 910.671875 873 912.105469 C 891.933594 917 917 918.316406 931.816406 903 C 943.78125 890.34375 944 871.238281 944 855 C 934.8125 861.070313 934.695313 880.214844 926.816406 889 C 908.613281 909.238281 878.183594 904 854 904 M 656 865 C 657.917969 869.074219 658 871.53125 654 874 C 654.25 871 654.625 868 656 865 M 848 866 L 849 873 L 848 873 C 847.21875 870.320313 846.933594 868.585938 848 866 M 700 898 C 692.195313 900.492188 687.554688 907 682.421875 913 C 672.996094 924.0625 663.902344 935.476563 656.453125 948 C 654.417969 951.421875 645.304688 965.480469 650.605469 969 C 656 972.390625 665.679688 959.347656 668.386719 956 C 680.269531 941.320313 698.3125 917.316406 700 898 M 804 898 C 804.449219 917.144531 822.917969 941.5625 834.449219 956 C 837.261719 959.519531 845.746094 972.117188 851.550781 969 C 857.507813 965.527344 848.511719 951.554688 846.394531 948 C 836.597656 931.53125 821.53125 906.734375 804 898 M 604 921 C 607.664063 934.050781 628 943.789063 638 932 C 624 932 616.367188 926.328125 604 921 M 898 921 C 886.960938 927.511719 878.988281 932 866 932 C 873.769531 941.03125 900.679688 934.355469 898 921 M 641 1060 C 647.773438 1048.085938 649 1033.800781 653.691406 1021 C 660 1003 669.699219 985.761719 674 967 C 666.304688 970.328125 662 978.277344 657.667969 985 C 646.203125 1002.277344 625.8125 1039.613281 641 1060 M 830 967 C 831.652344 987.230469 845.527344 1009.582031 852 1029 C 855.195313 1038.589844 856.933594 1052 863 1060 C 866.917969 1052 865.507813 1044.5 865 1036 C 863.675781 1011.550781 850.402344 981.371094 830 967 M 803 1113 C 796.742188 1109.832031 792.730469 1103.8125 786 1101 C 758.554688 1089 727.273438 1092 703 1108 C 703.726563 1094 716.960938 1088.070313 729 1085.128906 C 753 1079.261719 802.902344 1078.121094 803 1113 M 917.667969 1086.667969 C 917.722656 1086.722656 917.777344 1087.777344 917.332031 1087.332031 C 917.277344 1087.277344 917.222656 1086.222656 917.667969 1086.667969 M 700 1139 C 704.421875 1138.808594 708.613281 1137.558594 713 1137.175781 C 719.550781 1136.597656 731.894531 1142.164063 720.980469 1147.820313 C 713.617188 1151.636719 704 1144.597656 700 1139 M 804 1139 C 799.382813 1145.019531 787.695313 1153.257813 780.433594 1146.347656 C 773.210938 1139.472656 786.324219 1137 791 1137.300781 C 795.351563 1137.714844 799.640625 1138.65625 804 1139 M 819 1193 C 813.847656 1204.710938 800.488281 1211.136719 789 1215.304688 C 759.539063 1226 701.949219 1226.675781 685 1194 C 709.253906 1194.015625 726.726563 1213.207031 750 1214 C 765.6875 1214.464844 774.824219 1205.230469 788 1199.1875 C 797.492188 1195 808.863281 1195 819 1193 "/>
</g>
</svg>
