<?xml version="1.0" encoding="UTF-8"?>
<svg xmlns="http://www.w3.org/2000/svg" xmlns:xlink="http://www.w3.org/1999/xlink" width="1500pt" height="1500pt" viewBox="0 0 1500 1500" version="1.1">
<g id="surface1">
<path style=" stroke:none;fill-rule:nonzero;fill:rgb(0%,0%,0%);fill-opacity:1;" d="M 890 265 L 889 265 C 877.976563 239 864.171875 276.816406 862 288 L 861 288 C 856 274 846.78125 290.441406 841.816406 294.683594 C 835.359375 300.191406 829.550781 298.691406 828 309 C 821.367188 303.5625 809.195313 299.75 801.214844 305.089844 C 794 310 792.539063 315.105469 783 316.714844 C 753.46875 321.695313 722 322.035156 693 314 C 686.308594 312.132813 678.335938 309.765625 673.339844 304.671875 C 669.800781 301.0625 668.761719 295.484375 663.984375 293.027344 C 658.589844 290.253906 653.738281 296.359375 649 293.535156 C 635.355469 285.40625 631.390625 271 619.996094 261.324219 C 608.171875 251.347656 593.363281 245.503906 581 236.253906 C 565 224.378906 552 208.722656 540 193 C 525 173.242188 510.617188 152.449219 492 136 C 482.234375 127.296875 468.714844 119 455 120.300781 C 421.664063 123.578125 407.238281 160 396.398438 187 C 381 225.265625 361.921875 261.539063 352.652344 302 C 347.289063 325.394531 349 348.660156 345.8125 372 C 345.414063 375 344.226563 378.09375 340.945313 378.472656 C 338.300781 378.777344 335.4375 377.164063 333 376.355469 C 323.964844 373.363281 303.402344 373 313 388 C 314.519531 390.195313 316.246094 392.074219 318 394 C 306.90625 394.234375 296.953125 401.238281 303.351563 413 C 310 425.359375 323 433.363281 333 443 C 323.472656 441.789063 309.28125 436 300 438.808594 C 284.421875 443.53125 296.644531 461.027344 306 465 L 306 466 C 298 466.023438 287.632813 466.441406 281 471.636719 C 270 480.40625 281 493.8125 291 497 L 291 498 C 286.992188 497.683594 283 496.753906 279 497.175781 C 269.417969 498.175781 262 506.386719 266.417969 516 C 270.945313 526 280.863281 533.117188 289 540 C 291.902344 542.347656 297.546875 545.785156 298 550 C 298.601563 554 291.695313 556.382813 289 558.066406 C 280.539063 563.34375 256.296875 581.730469 272 592.257813 C 284.367188 600.484375 297.421875 580.746094 306 575.109375 C 317.226563 567.726563 332.957031 567.007813 346 567 C 340.71875 549.050781 321.667969 536.5625 309 524 L 325 524 C 328.382813 524 331.679688 523.734375 335 523.0625 C 342.222656 521.601563 350.824219 514.453125 343.773438 507.328125 C 337.707031 501.199219 327.726563 498.613281 320 495.28125 C 317.820313 494.339844 309.847656 492.003906 310.632813 488.558594 C 311.242188 486 319.941406 486.5625 322 486.433594 C 334.304688 485.664063 346.671875 486 359 486 C 355.902344 478.820313 350.789063 472.804688 347 466 C 355.769531 467.132813 364.171875 470.296875 373 471 C 367.398438 450.523438 349.886719 436.425781 339 419 L 372 430 C 367.695313 396 358.90625 361.433594 364.4375 327 C 370.746094 287.746094 393.65625 254.5625 407.574219 218 C 416.851563 193.628906 422 150.0625 453 143.519531 C 476.34375 138.574219 495.808594 168.714844 507.789063 184 C 520.5625 200.296875 531.941406 217.808594 546 233 C 563.945313 252.175781 584.824219 269 600.523438 290 C 605.660156 297 610.519531 304.722656 613 313 C 614.457031 317.371094 613.84375 323 616.738281 326.773438 C 624.335938 336.695313 637.585938 327.394531 639 318 L 640 318 C 640.765625 327.691406 640.566406 334.59375 638 344 C 644.527344 344 651.496094 343.28125 656.984375 339.351563 C 660.722656 336.675781 664 329.628906 669.285156 330.15625 C 673.9375 330.621094 678.601563 334.117188 683 335.65625 C 691.398438 338.589844 700.25 340.230469 709 341.75 C 743.855469 347.804688 777.308594 344.480469 811 334.347656 C 823.550781 330.574219 828.769531 342.542969 840 330 C 842.277344 343.234375 850 357.65625 862 364.472656 C 868.96875 368.480469 877.507813 370 883.957031 374.789063 C 889.40625 379 888.558594 387.765625 894 391 C 903.519531 396.371094 922 390.328125 923.441406 379 C 925.769531 359.363281 898.855469 378 891.515625 369.722656 C 887 364.777344 890.59375 357.558594 887.542969 352.109375 C 883 344.179688 870.890625 347.707031 865.355469 341 C 858.84375 332.808594 873.644531 311.175781 875 302 L 876 302 C 874.839844 311.191406 874.46875 323.5 879 332 C 884.398438 342.03125 893 335.699219 894.5625 327 C 904.210938 269.398438 940 215 977.730469 171 C 991.953125 154.410156 1016.929688 127.554688 1040 145 C 1057 157.722656 1061.359375 182.183594 1071.425781 200 C 1088.972656 231.066406 1106.433594 262.621094 1113.550781 298 C 1119.664063 328.382813 1116.355469 359.601563 1112 390 C 1110.257813 403.476563 1110.320313 418 1106.226563 431 C 1103 441 1093.90625 444.277344 1087 451.09375 C 1079.863281 458.324219 1075.996094 468.414063 1073 478 C 1068.355469 493.074219 1067 509.058594 1061.921875 524 C 1060 529.316406 1054.300781 537.117188 1056.605469 543 C 1059.816406 551 1072.875 545.699219 1078 543 C 1073.4375 557 1067.5625 570.589844 1061 583 C 1088.902344 583 1114.597656 592 1140 603 C 1150.269531 607.257813 1160.285156 614 1171 617 L 1171 618 C 1162 616.332031 1148.90625 615.429688 1140 616 C 1150.335938 632.480469 1173 644.0625 1187 658 C 1179 652.726563 1172.203125 646.191406 1163 643 C 1165.746094 651.082031 1174 657.097656 1180 663 C 1191 674.121094 1201.476563 685.78125 1211.390625 698 C 1247.175781 742.101563 1271 787.457031 1271 845 L 1270 845 C 1266.992188 825 1250.546875 805 1238.847656 789 C 1233.761719 782.101563 1228.226563 774.1875 1220 771 C 1221.578125 789.078125 1232.554688 810.160156 1241 826 C 1239.328125 825.316406 1232.757813 821.402344 1231.417969 823.789063 C 1229.363281 827.453125 1238.675781 840.675781 1240.578125 844 C 1249.8125 860.132813 1268.601563 891.277344 1291 888.746094 C 1295.605469 888.226563 1299.257813 884.730469 1299.480469 880 C 1299.757813 874.210938 1294.1875 870.460938 1293.226563 865 C 1291.722656 856.445313 1294 845.808594 1294 837 C 1294 818 1292.683594 799.425781 1286.972656 781 C 1274.449219 740.582031 1246.203125 708.691406 1222 675 C 1237 681.527344 1249.582031 695.628906 1267 696 C 1264.355469 687.007813 1257.832031 678.730469 1252.667969 671 C 1240 652.234375 1225.570313 634.4375 1209 619.089844 C 1200.488281 611.207031 1187 607.003906 1181.921875 596 C 1178.375 588.511719 1183 582.46875 1182 575 C 1192.203125 583.316406 1199.445313 597.511719 1212 602.515625 C 1226 608.160156 1227.5 590.679688 1222.367188 582 C 1217 573.105469 1209 566 1201 559.667969 C 1198 557.425781 1191.421875 554.355469 1190.753906 550.410156 C 1190.214844 547.207031 1195 542.410156 1198 542 C 1205.335938 540.523438 1213 548.464844 1217.910156 538 C 1221.894531 529.195313 1215.988281 519.101563 1209.960938 513.039063 C 1207.527344 510.59375 1202.261719 507.703125 1201.765625 504 C 1201.328125 500.683594 1205.207031 497.226563 1207 495 C 1214 487.148438 1229.785156 468.070313 1211 463.054688 C 1208 462.269531 1205 462.039063 1202 462.003906 C 1197.667969 462 1193.332031 462 1189 462 L 1189 461 C 1199.644531 460.066406 1217.191406 444.578125 1199.996094 438 C 1189 433.621094 1175.785156 441.414063 1165 443 C 1173.234375 432.285156 1182.347656 418.800781 1183.824219 405 C 1185 393.226563 1176.941406 387.261719 1166 392.183594 C 1162 394 1158.65625 396.742188 1155 399 C 1159 392 1166.503906 376.042969 1154.984375 371.285156 C 1148.996094 368.808594 1139.710938 383 1136 378.539063 C 1132.847656 374.683594 1135 362.808594 1135 358 C 1135 341.617188 1132.226563 325.3125 1130.914063 309 C 1128.929688 284.324219 1124.9375 258.097656 1115.796875 235 C 1105.730469 209.570313 1090 186.828125 1076.859375 163 C 1066.210938 143.796875 1053.304688 117.148438 1028 116.039063 C 1012 115.34375 997.949219 124.285156 987 135.015625 C 967.488281 154.140625 952.46875 178.222656 936 200 C 921 220.046875 898.71875 241.183594 890 265 M 402 263 C 410.746094 263 419.292969 261.375 428 261 C 418.679688 271.667969 404.695313 281.453125 398 294 C 401.859375 293.082031 405.34375 291.5 409 290 C 409 307 410.339844 322.457031 414.476563 339 C 418.269531 354.179688 424.871094 370.25 425 386 C 410 381.289063 393.535156 387.726563 400.46875 406 C 408.40625 427 427.996094 442 440.5625 460 C 444.230469 465.265625 447.808594 471.640625 449 478 C 449.652344 481 449 485.589844 444.980469 484.503906 C 434.6875 481.8125 428 464 419 458 C 422.34375 474.148438 429.332031 492.011719 439.679688 505 C 445.523438 512.308594 456.273438 516.550781 464.960938 511.582031 C 475.503906 505.554688 470.929688 493.382813 476.742188 485.183594 C 482.695313 476.785156 499.691406 476.183594 509 475 C 503.3125 460.003906 487.960938 447.355469 478 435 C 490 440.046875 501.597656 449 515 450 C 509.183594 436.265625 493.34375 426.472656 484 415 C 497.171875 420.683594 507.363281 430 522 432.246094 C 526.472656 433 535.644531 433.785156 537.289063 428 C 538.390625 424.011719 534.378906 420.496094 531.988281 418 C 524.957031 410.648438 518.683594 402.65625 512 395 C 524 401.390625 535.277344 412.554688 549 415 C 542.691406 400.382813 530.367188 389.382813 522 376 C 516.304688 366.714844 513.390625 355.132813 504.910156 347.808594 C 494.535156 339 481 334.234375 469 328.191406 C 461.75 324.566406 455.300781 319.453125 448 316 L 448 315 C 478 319 505.804688 337.539063 536 342 C 532.402344 334.285156 524.492188 330.050781 518 325 C 504.761719 314.660156 490.910156 305 479 293 C 499.265625 296.773438 520.3125 305 541 305 L 541 303 C 528.71875 301.339844 517 294.417969 506 289.308594 C 492 283 477.976563 277.3125 464 271.28125 C 454.316406 267.105469 439.851563 264 432 257 C 469 257 502.351563 283 539 283 C 514 247.574219 464.8125 227.519531 425 247.757813 C 417.863281 251.382813 406.386719 256.160156 402 263 M 936 352 C 944 348.261719 948.929688 340.019531 957 336 C 951.582031 352.015625 938.710938 365 934 381 C 947.855469 374.414063 961.574219 358.335938 967 344 L 968 344 C 966.941406 357 963.324219 372.089844 958 384 C 951.179688 400 942.957031 409 948.746094 427 C 950 431.023438 952.640625 440.363281 958 440.363281 C 963.609375 440.363281 970.195313 431 973.386719 427 C 984.976563 413 1003.703125 390.273438 1007 372 L 1008 372 C 1006.984375 395.660156 995.847656 420.3125 983.304688 440 C 977.269531 449.472656 967.226563 458.109375 964 469 C 976.632813 463 985.328125 451 998 445 C 993.308594 456.265625 983.425781 465.355469 980 477 C 986.988281 474 993.292969 469.570313 1000 466 C 994.757813 473 988.351563 481.070313 985 489 C 996 489 1006 491.164063 1013.671875 500.015625 C 1019.839844 507.285156 1022.308594 518.316406 1032 522.003906 C 1040.625 525.285156 1048 518.753906 1052.453125 512 C 1061.609375 498.066406 1066.65625 481.203125 1070 465 C 1063.316406 468.394531 1053.851563 491.761719 1045 488 C 1039.820313 485.488281 1041.671875 478.277344 1042.652344 474 C 1045.65625 461 1051.785156 448.757813 1056 436 C 1059.867188 424.289063 1064.347656 410.449219 1061.472656 398 C 1059.496094 389.460938 1051.496094 385.398438 1052 376 C 1053.808594 349 1065.996094 323.429688 1066 296 C 1072.382813 299.398438 1079.757813 302.367188 1087 303 C 1080.25 291.152344 1069.519531 282.460938 1061 272 C 1068.960938 273.542969 1076.902344 275.359375 1085 276 C 1079.375 266.433594 1064.175781 261.066406 1055 255.320313 C 1051 253 1046.824219 250 1042 250.253906 C 1031.75 251.144531 1020 260 1012 265.722656 C 989.472656 281.5625 963.308594 299 947.75 322 C 941.472656 331.324219 938.644531 341.265625 936 352 M 1043 264 L 1043 265 C 1031.605469 269 1039.886719 271.734375 1036.824219 278.722656 C 1034 285.089844 1023 281.402344 1030.703125 291 C 1031.566406 292 1032.203125 293 1033 294 C 1022 296.816406 1007.179688 298.699219 1022 310 L 1022 311 C 1007.300781 311.632813 994.347656 319.066406 980 321 C 989.742188 297.59375 1015 264.234375 1043 264 M 638.667969 316.667969 C 638.722656 316.722656 638.777344 317.777344 638.332031 317.332031 C 638.277344 317.277344 638.222656 316.222656 638.667969 316.667969 M 958 335 L 957 336 L 958 335 M 502 340 C 502.769531 341.3125 502.6875 341.230469 504 342 C 503.453125 340.363281 503.636719 340.546875 502 340 M 969 343 L 968 344 L 969 343 M 538 361 C 540.253906 373.644531 551.59375 387.582031 561 395.816406 C 565.367188 399.636719 570.976563 403.203125 577 401.347656 C 586.621094 398.382813 590.804688 387 600 383 C 609.992188 378.601563 623.402344 383.003906 629.988281 372 C 634.617188 364.261719 622.476563 346.128906 614 345.546875 C 605.21875 345 592.851563 362.476563 585 366.675781 C 568.785156 375.351563 553.402344 367.320313 538 361 M 512 394 L 511 395 L 512 394 M 1155 399 L 1154 400 L 1155 399 M 484 415 C 482.363281 414.453125 482.546875 414.636719 482 413 C 483.636719 413.546875 483.453125 413.363281 484 415 M 1122 415 L 1121 442 C 1128.199219 438.210938 1135 434.277344 1143 432 C 1137.9375 445.359375 1127.554688 456.65625 1122 470 C 1130.460938 470 1137.765625 467.210938 1146 466 C 1143.320313 472.40625 1138.949219 477.761719 1136 484 C 1150.976563 484.308594 1167.382813 482.21875 1182 486 L 1182 487 C 1173.519531 490 1154.878906 496.675781 1149.742188 504.109375 C 1140.808594 517.03125 1164 526 1173 528 L 1173 529 C 1164.234375 535.175781 1156 544.152344 1150 553 C 1148.316406 555.511719 1143.53125 561.148438 1146.53125 564.140625 C 1149.230469 567 1154.582031 565.828125 1158 566.171875 C 1165.300781 567 1172.210938 569.382813 1179 572 L 1179 573 C 1166 571 1164.953125 586.796875 1154.984375 587 C 1146.441406 587 1138 580.015625 1130 577.746094 C 1117.324219 574.1875 1104 575 1091 575 L 1091 574 C 1103 572.375 1116.289063 565.71875 1122.648438 555 C 1125.484375 550.21875 1130.949219 532.523438 1120.957031 531.53125 C 1114.207031 531 1106.578125 540.3125 1103 545 L 1102 545 C 1103 532 1106 519.222656 1106 506 C 1099.871094 508.640625 1094.578125 512.4375 1088 514 C 1092.390625 480.003906 1096 440.4375 1122 415 M 478 434 L 477 435 L 478 434 M 382 441 C 384.703125 449.488281 390.925781 456.300781 393.652344 465 C 398 479.316406 398.929688 494.550781 403 509 C 399.28125 508.53125 393.726563 506.753906 390.316406 509.027344 C 387.316406 511.03125 387.902344 516 388 519 C 388.453125 528.527344 392.226563 537.546875 393 547 C 390.171875 544.402344 387.296875 542 384 540 C 374.441406 534.125 360 536.773438 363.941406 551 C 366.734375 561.105469 378 569.222656 388 571 L 388 572 C 374.960938 572.035156 361.53125 579.28125 349 578.679688 C 344.492188 578.460938 341.742188 574.257813 338 572.277344 C 331 568.660156 323.339844 570.429688 317 574.351563 C 305.574219 581.453125 323.886719 583.035156 315.8125 592 C 307.667969 601.027344 296 606.5 287 614.429688 C 278 622.109375 270.929688 632.042969 263.410156 641 C 253.253906 653.101563 242.703125 664.769531 234 678 C 230.707031 683.011719 226.375 689.78125 229.574219 696 C 232.53125 701.535156 239.328125 700.054688 244 697.722656 C 254 692.722656 263.550781 683.3125 272 676 C 260.316406 694.761719 244.863281 711 233.449219 730 C 209.933594 769.191406 202.851563 812.128906 208.726563 857 C 210.171875 868.046875 194.226563 884 203.226563 892.722656 C 214.753906 904 229.359375 880.714844 234.859375 873 C 254 846.054688 271.558594 805.523438 273 772 C 267.214844 775.398438 263.425781 782.617188 259.578125 788 C 248.996094 802.808594 229.898438 825.472656 228 844 L 227 844 C 227 786 251.222656 739.425781 285.882813 694 C 294.519531 682.679688 303.941406 672.058594 314 662 C 319.902344 656.097656 328.253906 650.082031 331 642 C 315.382813 647.71875 303.367188 660.695313 290 670 C 301 657.246094 313.257813 645.394531 327 635.425781 C 331.378906 632.25 344.726563 626.433594 346.652344 621.496094 C 348 618 337.257813 615.464844 335 615.183594 C 322 613.574219 313.226563 621.632813 303 628 C 323.757813 600.753906 360.636719 596.75 391 586.667969 C 399.5625 583.824219 408.230469 581 417 578.746094 C 420 578 424.914063 578.277344 426.382813 574.773438 C 427.925781 571.085938 425.292969 566.398438 424 563 C 421 554.796875 418.703125 546.308594 416 538 C 421.855469 538.046875 432.171875 541.089844 435.972656 534.773438 C 440.546875 527.171875 429.617188 514.191406 427.4375 507 C 419.214844 480 416.621094 445.667969 382 441 M 334 443 L 333 444 L 334 443 M 999 444 L 998 445 L 999 444 M 293 498.332031 C 293.773438 498.332031 293 498.832031 292.667969 498.667969 L 293 498.332031 M 861 711 L 860 702 C 870.632813 709.566406 883.527344 711.652344 896 714.425781 C 900.519531 715.429688 906.386719 718.058594 910.996094 716.394531 C 916.929688 714.246094 919.894531 706.445313 925 702.789063 C 928.503906 700.277344 933.425781 699.433594 936 696 L 929 696 C 934.90625 688.808594 941.664063 684.261719 951 683 C 948.28125 678 942.664063 674.386719 938.871094 670 C 927.191406 656.503906 911.769531 641.460938 893 639.183594 C 882.976563 638 874.550781 640.789063 865 643 L 865 642 C 870.285156 639.800781 875.195313 636.796875 881 636.175781 C 896.347656 634.527344 908.925781 645.152344 923 649 C 909.664063 627.695313 880.515625 625.070313 860 637 C 859.988281 619.636719 855.378906 636.613281 846 631 C 846 647 841.699219 655.417969 833.605469 669 C 831.9375 671.792969 828.519531 681 824 679.652344 C 816.648438 677.402344 808.511719 657.773438 805.800781 651 C 790.644531 613.144531 801.726563 579.648438 824 548 C 814.722656 548.425781 807.90625 554.382813 801 560.085938 C 780 577.382813 769.761719 603.496094 777.722656 630 C 786.859375 660.429688 815 678.308594 840 695 C 847.25 700 853.339844 707.027344 861 711 M 652 554 C 656 562.691406 665.992188 567.800781 671.300781 576 C 686.253906 599.089844 684.566406 621.628906 678 647 C 684.574219 643.785156 686.78125 636.5625 689 630 L 690 630 C 690 640.558594 689.960938 650.589844 688 661 C 695.578125 655.050781 697.433594 644 699.625 635 C 708 600.613281 690 559.121094 652 554 M 1182 574 L 1181 575 L 1182 574 M 864 611 C 884.285156 610.128906 899.84375 601.214844 920 610 C 934.609375 616.148438 943.933594 634.417969 959 638 C 948.5625 601.214844 918.433594 581.675781 882 599.257813 C 875.609375 602.34375 868.449219 605.316406 864 611 M 522 643 C 532.378906 637 538 625.039063 548 618.042969 C 557 611.675781 569.71875 606.214844 581 607.175781 C 590.199219 608 598.734375 611.808594 608 612 C 577.726563 578 523.953125 598.1875 522 643 M 1172 618.332031 C 1172.773438 618.332031 1172 618.832031 1171.667969 618.667969 L 1172 618.332031 M 1175 619 L 1174 620 L 1175 619 M 616 624 C 616.523438 627.554688 617.546875 630.71875 619 634 C 599 629.40625 562.8125 623.792969 557 653 C 572.640625 644.640625 585.8125 632.601563 605 636.667969 C 611.570313 638.0625 616.933594 641.386719 623 644 L 623 645 C 589.992188 634.261719 556 652.777344 536 680 C 540.542969 682 556.945313 690 556.945313 695.65625 C 556.945313 698.113281 548.941406 697.777344 550.347656 700.289063 C 552.941406 705 566.324219 704.277344 570.683594 709.214844 C 575.4375 714.601563 570.535156 723 570 729 L 571 729 C 574.683594 724.03125 579 719.5 582 714 L 583 714 L 582 735 L 583 735 C 586.519531 728.394531 589.261719 720 596 716 C 599.671875 713.621094 618 711.308594 621 714.617188 C 624.179688 718.023438 621.941406 726.054688 621 730 C 626.671875 726.804688 628.277344 719.554688 633 715.226563 C 641 708.070313 648 700.554688 656 693.042969 C 659.4375 689.789063 664.4375 688 667 684 C 661.8125 681.382813 662 677.308594 662 672 C 660.425781 673 658 675.566406 656 674.796875 C 652.359375 673.359375 650.78125 665.3125 649.21875 662 C 644.210938 651.390625 639.183594 636.589844 630 629 L 631 640 C 625.917969 634.796875 622.46875 627.507813 616 624 M 303 628 C 302.453125 629.636719 302.636719 629.453125 301 630 C 301.546875 628.363281 301.363281 628.546875 303 628 M 632 640 L 631 641 L 632 640 M 865 643 L 865 644 L 862 645 C 863.222656 643.804688 863.421875 643.683594 865 643 M 624 645.332031 C 624.773438 645.332031 624 645.832031 623.667969 645.667969 L 624 645.332031 M 882 652.300781 C 914 649.253906 921.855469 697.707031 888 701.816406 C 869.519531 704.058594 843.617188 683.734375 856.855469 664.003906 C 862.351563 655.808594 872.726563 653.179688 882 652.300781 M 599 655.300781 C 609.269531 653.820313 622.921875 656.082031 629.351563 665.015625 C 640.210938 680.105469 626.597656 702.058594 610 705 C 600 706.523438 587.402344 705.179688 580.53125 697 C 567.496094 681.203125 580.574219 658 599 655.300781 M 879 657.53125 C 857.496094 662.757813 866.511719 695.445313 888 690.605469 C 908.75 686 900.207031 652.378906 879 657.53125 M 1188 658 L 1191 662 C 1189.242188 660.621094 1188.460938 660.105469 1188 658 M 602 660.554688 C 578.804688 663.109375 584.8125 697.476563 607 694.8125 C 628.929688 692.179688 622.386719 658.308594 602 660.554688 M 886.996094 661.53125 C 895.566406 661 896.464844 675.050781 887.996094 675.664063 C 878.855469 676.324219 877.53125 662.175781 886.996094 661.53125 M 600.996094 665 C 609.828125 666.011719 608 680 599 678.726563 C 590 677.628906 592 663.734375 600.996094 665 M 290 670 C 289.453125 671.636719 289.636719 671.453125 288 672 C 288.546875 670.363281 288.363281 670.546875 290 670 M 1222 674 L 1221 675 L 1222 674 M 273 675 L 272 676 L 273 675 M 955 690 C 959.253906 696.234375 972 698.003906 979 700 C 1001.863281 706 1026.296875 705.273438 1047 692.796875 C 1052.175781 689.675781 1058.824219 686.25 1062 681 C 1049.429688 681 1038.347656 685.578125 1026 686.832031 C 1002.335938 689.234375 978.800781 690 955 690 M 434 702 C 465.699219 702 497.277344 697 529 697 C 523.9375 692 516.765625 691 510 689.347656 C 491.574219 685.203125 473 685.03125 455 691 C 448.226563 693.238281 437.710938 695.457031 434 702 M 639 732 L 649 729 L 624 759 C 654.945313 759 675 729.617188 675 701 C 666.496094 704.789063 661 712.828125 654 718.675781 C 648.746094 723.050781 642 725.597656 639 732 M 527 709 C 523.8125 712.683594 520.8125 716.484375 518.878906 721 C 513 734.390625 519.828125 748.210938 531 756.210938 C 547.8125 768.253906 569.195313 769.4375 589 771 C 585.804688 766.164063 578.210938 765 573 763 C 563.3125 759.191406 553.882813 754.605469 546 747.699219 C 533 736.363281 536 721.144531 527 709 M 811 710 C 813.488281 728.492188 824.851563 747.054688 842 755.214844 C 848.664063 758.386719 859.519531 760.433594 866 756 C 859.515625 751.195313 852.960938 746.527344 847 741.074219 C 844 738.441406 838.339844 734.148438 845 733 C 842.394531 728.410156 837.347656 727.488281 833 725 C 825.375 720.375 819.585938 712.742188 811 710 M 898 753 C 901.792969 759.203125 911.21875 761.152344 918 762.128906 C 934.804688 764.546875 958 760.753906 965.519531 743 C 967.960938 737.203125 969.941406 713.207031 959 713.207031 C 955.636719 713.207031 954.230469 718.558594 953 721 C 949.585938 729 945.289063 737.015625 940 744 C 929.984375 757.503906 912.792969 755.746094 898 753 M 277 862 L 278 862 C 293.496094 827.210938 318 790 344 762 C 352.992188 752.4375 362.738281 743.539063 373 735.453125 C 378 731.390625 384.671875 729 388 723 C 335.5625 732.347656 306.992188 774.390625 289.945313 821 C 285.285156 833.746094 277.625 848.339844 277 862 M 1106 723 C 1114.894531 733.761719 1129.625 741.410156 1140 751.089844 C 1157.371094 767.296875 1172.316406 787.410156 1185.65625 807 C 1194.261719 819.640625 1203.242188 832.007813 1211.316406 845 C 1214.9375 850.832031 1216.585938 858.71875 1223 862 C 1210 822.21875 1194 782 1164 752 C 1149.832031 738 1126.660156 723.429688 1106 723 M 281 900 C 287.390625 896.554688 290.488281 888.191406 293.78125 882 C 300 870.203125 306.71875 858.554688 313.425781 847 C 325.632813 826 340.828125 807.171875 358 790 C 366.261719 781.738281 380 774 386 764 C 375.773438 764.53125 364.929688 772.066406 356 776.78125 C 309 801.519531 290.535156 850.828125 281 900 M 1111 764 C 1114.386719 771.238281 1122 775.183594 1128 780.289063 C 1138.621094 789.527344 1149.398438 799.296875 1158.570313 810 C 1182.371094 837.777344 1196 870.796875 1216 901 C 1220.566406 890.097656 1210.816406 867.59375 1206.945313 857 C 1190.800781 812.8125 1159.464844 774.03125 1111 764 M 671 926 C 681.746094 924.179688 681.507813 925.742188 680 936 C 683.296875 934.753906 686 933 689 931 L 688 944 C 692 942.117188 694.863281 939.128906 698 936 C 698 941.101563 698.359375 946 699 951 C 702.238281 949.273438 704.449219 946.636719 707 944 C 707.625 947.363281 707.972656 950.578125 708 954 C 725.492188 945.492188 723.691406 965 710 971 C 711.539063 967.417969 712.480469 964 713 960 C 704.296875 962.066406 696.632813 967.5 689 972 L 692 963 C 680.34375 966.183594 669.277344 971.472656 657 972 C 659.4375 969.105469 661 966.691406 662 963 C 656 965 650.203125 966 644 966 C 645.316406 963.671875 646.261719 961.566406 647 959 C 641.957031 959 635.828125 960 631 958.296875 C 624.949219 956.25 620.625 950.382813 616 946.285156 C 599.976563 932.082031 588.234375 913.171875 577.203125 895 C 570.589844 884.109375 562.324219 865 548 863.183594 C 528 860.703125 513 885.652344 522 903 C 525.292969 909.363281 531.933594 909.058594 537 913.226563 C 544.953125 919.769531 550.789063 928.425781 556.308594 937 C 572.296875 962 581.332031 990.144531 595.308594 1016 C 604 1032.367188 613.320313 1048.765625 624 1064 C 628.640625 1070.546875 635.734375 1076 639.425781 1083 C 641.707031 1087.359375 640.636719 1092.316406 641.464844 1097 C 642.753906 1104.292969 645.644531 1111.035156 648 1118 C 633.292969 1100.746094 626 1078.214844 611.332031 1061.09375 C 603 1051.542969 589 1047.832031 580.171875 1038 C 573.273438 1030.371094 568.945313 1014.246094 561 1009 C 562 1023 564.621094 1038.746094 573.519531 1050 C 577.917969 1055.566406 592.351563 1062.820313 593.367188 1070 C 594.320313 1076.527344 578.890625 1076.449219 579.921875 1083 C 580.925781 1089.148438 600.585938 1087.121094 599.367188 1093.777344 C 598.511719 1098.464844 586.761719 1101.460938 583 1103.011719 C 567.488281 1109.414063 553.464844 1117.621094 541 1129 C 537.265625 1132.3125 524.734375 1140.34375 529.757813 1146.566406 C 535.480469 1153.652344 547 1145.601563 552 1141.789063 C 566.589844 1130.378906 589.671875 1107.816406 610 1110.183594 C 619.554688 1111.296875 628 1118.035156 636 1123.054688 C 656.894531 1136.382813 674.65625 1155.546875 698 1164.796875 C 720.199219 1173.59375 745.5 1175.339844 769 1171.5625 C 776.464844 1170.363281 783.929688 1168.640625 791 1166 C 794.628906 1164.546875 798.929688 1161.351563 802.984375 1162.417969 C 814.449219 1165.429688 824.824219 1188 828.988281 1198 C 838.597656 1221.089844 844 1244 840.710938 1269 C 838 1288 829.542969 1306.105469 828 1325 L 829 1325 C 846.300781 1288.003906 854.496094 1239.066406 840.304688 1200 C 836.460938 1189.421875 831 1179.003906 824.335938 1170 C 821.511719 1166.25 814.308594 1161 813.769531 1156.039063 C 813 1150.628906 827.96875 1142.664063 832 1140 C 832.640625 1144 840.691406 1142.808594 844 1143.132813 C 855.167969 1144.238281 867.378906 1147.585938 877 1153.429688 C 901.6875 1168.421875 920 1202.199219 920 1231 L 922 1231 C 925.9375 1200 907.558594 1154 877 1142 C 862.757813 1136.328125 846.777344 1139.695313 832 1140 C 847.949219 1126.199219 878 1100.558594 900 1109.453125 C 917 1116.375 930.210938 1130.023438 945 1140.574219 C 949.925781 1144.085938 958.484375 1150.5625 964.851563 1146.820313 C 969.964844 1143.816406 966.804688 1138.261719 963.890625 1135 C 957 1127.433594 948.476563 1120.246094 940 1114.695313 C 930.285156 1108.339844 919.570313 1103.585938 909 1099 C 905.519531 1097.304688 898.632813 1095.253906 897.207031 1091.234375 C 895 1085.152344 916.835938 1084.667969 918.652344 1080.390625 C 921 1074.828125 902.492188 1072.3125 904.347656 1066 C 906.464844 1058.78125 920.730469 1051 925.671875 1045 C 934.621094 1034.140625 936.992188 1017.640625 937 1004 C 928.386719 1010 924 1027.578125 916.699219 1036 C 907.929688 1046.109375 894 1048.234375 885.617188 1058.039063 C 870.195313 1076 862.484375 1099.105469 847 1117 C 850.207031 1109.179688 853.796875 1101.527344 854.695313 1093 C 855.230469 1088 852.933594 1083 855.316406 1078 C 858.644531 1071.1875 866.710938 1068 871.960938 1063 C 879.808594 1055.347656 885.269531 1045.394531 890.574219 1036 C 911 999.71875 923.296875 959.457031 945.425781 924 C 949.25 918 953.765625 910.671875 960 906.738281 C 964.765625 903.730469 970.460938 904.503906 973.558594 899 C 982.863281 882.292969 966 860.066406 948 861.214844 C 937.367188 862 931.558594 870.671875 926.605469 879 C 916.34375 896.246094 909.195313 915.097656 898.308594 932 C 882.777344 956.113281 859 979.460938 828 974.5625 C 816.992188 972.828125 808.523438 965.40625 798 963 C 801.234375 970.726563 805.714844 977.355469 814 980 L 814 981 C 801.445313 980.460938 786.402344 978.265625 778.851563 967 C 772.601563 957.667969 777 954.75 783.789063 948.609375 C 785.382813 947.167969 786.902344 944 789.210938 943.632813 C 792.269531 943.164063 796.269531 947.726563 799 949 L 799 935 C 803.78125 938 808.417969 941.003906 814 942 L 806 927 C 810.894531 928.179688 815.964844 929 821 929 C 818.46875 926 814 923.105469 813 919 C 811.285156 911.53125 819.613281 900.734375 820.714844 893 C 823.292969 875 823.363281 854.144531 813.535156 838 C 795.84375 809 768.242188 816.132813 740 818.828125 C 730.394531 819.746094 720.574219 818.046875 711 819.289063 C 692.222656 821.730469 675.257813 834.511719 667.875 852 C 661.945313 866.050781 662.789063 884.363281 666 899 C 668.625 911 676 913.722656 671 926 M 779 827 C 765.605469 844.34375 739.359375 836.214844 721 841.722656 C 707 846 696 856.664063 682 860 C 692.71875 826.144531 729.769531 832.785156 757 831 C 764.390625 830.402344 771.742188 828.40625 779 827 M 310 932 L 311 932 C 309.492188 913 313.34375 895.613281 323.464844 879 C 328.296875 871.066406 336.308594 865.089844 339 856 C 332 858.304688 327 864 322 869 C 304.265625 886.734375 295 909.488281 310 932 M 1158 856 C 1161.203125 866.03125 1169.894531 874.824219 1175 884 C 1183.996094 899.546875 1187 913.320313 1187 931 C 1195.179688 926.179688 1196.292969 914.5625 1195 906 C 1192.316406 885.265625 1176.820313 865 1158 856 M 259 857 C 245.855469 868 237.242188 885 225 897 C 210.554688 911.339844 186.511719 923.660156 179.75 944 C 176.707031 953.152344 178.90625 968.117188 192 962 C 199 958.609375 203.996094 951 207 944 L 208 944 C 195.242188 977.066406 191 1012.785156 191 1048 C 191 1058.011719 190.898438 1082.503906 206.996094 1079.640625 C 216.53125 1078 218.21875 1050.507813 220.375 1042 C 227.34375 1014.484375 238.34375 987.617188 252.425781 963 C 259.332031 951 274.5 934.804688 276 921 C 247.84375 929 225 957.019531 217 985 L 216 985 C 222.433594 954 237.453125 923.367188 249.199219 894 C 253 884.4375 263.308594 867.363281 259 857 M 1230 857 C 1231.570313 868.644531 1237.972656 878.421875 1242.574219 889 C 1254.710938 917 1271.515625 947.636719 1276 978 L 1275 978 C 1268.789063 958.375 1252.535156 939.007813 1238.925781 924 C 1233.496094 918.011719 1228.222656 911 1220 909 C 1231.933594 951.371094 1262 985.46875 1272 1029 C 1274.402344 1039 1274.984375 1049.800781 1275 1060 C 1275 1065.785156 1275.242188 1072.214844 1281 1075.230469 C 1299.597656 1084.777344 1298.773438 1054.816406 1299 1045 C 1299.863281 1010.371094 1304 974.214844 1287 942 C 1297 948 1303.191406 964.378906 1314 967.425781 C 1333.539063 973 1323.453125 945.011719 1317.984375 938 C 1304.203125 920.335938 1283.324219 909.332031 1268 893 C 1257.59375 881.75 1245 861.820313 1230 857 M 413 872 L 413 873 C 430.992188 881.378906 451.664063 883 469 893 C 448.265625 899.746094 415.5625 907.628906 402 926 C 417.511719 925.324219 433.480469 920 449 918 C 445.261719 921.738281 441.253906 925.171875 439 930 C 443.988281 930 449 929.820313 454 930.039063 C 461.855469 930.382813 483.769531 933.222656 470.90625 944.332031 C 469 946 467 947.296875 465 948.644531 C 450.921875 958.039063 434.753906 962.140625 420 970 C 427.476563 975.136719 437.617188 972.039063 446 972 C 469.8125 972 513.203125 968.445313 517.699219 938 C 518.53125 932.371094 517.652344 926.558594 516.714844 921 C 508.617188 873 450.554688 872 413 872 M 979 930 C 991.214844 959.335938 1022.519531 973 1053 973 C 1059.582031 973.003906 1074.867188 976 1079 970 C 1063.941406 966 1048.617188 957.484375 1036 948.421875 C 1032.75 946.085938 1024.410156 941.179688 1026.257813 936.132813 C 1029.480469 927.316406 1053.890625 931 1061 931 C 1058.84375 926.375 1054.921875 923.144531 1052 919 C 1068 919.003906 1083.195313 925 1099 927 C 1095.890625 920.472656 1088.988281 917.191406 1083 913.601563 C 1068.515625 905 1052.285156 894.410156 1035 893 L 1035 892 C 1050.675781 885.570313 1067.660156 879.46875 1084 875 C 1079.664063 869 1064.589844 872.203125 1058 872.828125 C 1035.570313 875 1003.351563 872.285156 988.851563 894 C 984.515625 900.496094 983.832031 909.402344 984 917 C 984 920.105469 985.84375 924.777344 984.535156 927.683594 C 983.53125 930 981 930 979 930 M 348 891 C 328.199219 902 318 921.359375 318 944 C 317.972656 950.140625 317.398438 957.757813 321 963 C 328.8125 947.4375 328.6875 929 337.4375 913 C 340.53125 907.34375 348.941406 897.460938 348 891 M 1151 893 C 1157.851563 918.050781 1176.4375 937.78125 1177 965 C 1180.773438 960.046875 1180 952 1180 946 C 1179.96875 926 1171.585938 900.550781 1151 893 M 366 916 C 359.613281 940.625 344.59375 957.472656 327.828125 976 C 321 983.4375 313 989.171875 308 998 C 335.328125 996.75 364.507813 974.351563 384 957.050781 C 391.441406 950.445313 400.308594 943.542969 404 934 C 382.648438 939.070313 369.449219 960 349 967 C 356.941406 956 363.183594 944.375 366.347656 931 C 367.519531 926.039063 369.28125 920.335938 366 916 M 1131 918 C 1131.390625 937.027344 1139.335938 954.289063 1151 969 C 1130.625 963.121094 1117.347656 943 1097 936 C 1100.398438 946.648438 1111.824219 955.167969 1120 962.28125 C 1130 971 1140.445313 979 1152 985.574219 C 1172.898438 997.535156 1199.464844 1008.128906 1207.894531 1033 C 1210 1039.386719 1209 1045.453125 1209 1052 C 1196.871094 1042.222656 1182 1029.761719 1167 1025 C 1170.558594 1033.085938 1178 1036.210938 1183.214844 1043.015625 C 1198.496094 1063.582031 1214.371094 1091 1209 1117 L 1208 1117 C 1204.34375 1096.738281 1179.683594 1085.050781 1161 1085 C 1166 1111.117188 1169.355469 1137.683594 1163.789063 1164 C 1159.261719 1185.421875 1147.183594 1205.78125 1147 1228 C 1153.675781 1224 1158.695313 1214.425781 1163 1208 C 1179.945313 1182.695313 1186 1152.097656 1186 1122 L 1187 1122 C 1188 1125.277344 1190.242188 1128.539063 1190.476563 1132 C 1190.972656 1139.488281 1185.75 1146 1187.226563 1154 C 1188.972656 1163.515625 1200.445313 1164.617188 1206.535156 1158.660156 C 1208.902344 1156.34375 1210.832031 1153.503906 1213 1151 C 1213 1165.136719 1211.894531 1179.34375 1208 1193 C 1206 1199.578125 1203 1208 1208.417969 1213.773438 C 1218 1224.335938 1228.210938 1207 1230.78125 1199 C 1238.4375 1175.320313 1237.175781 1147.4375 1234.828125 1123 C 1233.523438 1109.375 1230.246094 1095.636719 1224.988281 1083 C 1223.273438 1079 1217.171875 1071.707031 1219.789063 1067.210938 C 1225.761719 1057 1232.519531 1061 1235.277344 1070 C 1239.445313 1083.816406 1237.78125 1100 1243.804688 1113 C 1247.433594 1121 1258.449219 1124.128906 1263.773438 1116 C 1270 1106.054688 1263 1091.765625 1264.171875 1081 C 1268 1040 1257.464844 1005 1235.808594 970 C 1228.800781 958.699219 1219.195313 940.746094 1205 938 C 1212.648438 967.488281 1229.34375 992.4375 1239.304688 1021 C 1242.890625 1031.285156 1243 1041.488281 1245 1052 L 1244 1052 C 1240.199219 1036.003906 1225.328125 1017 1212 1007.773438 C 1205 1003.023438 1196.769531 1001.054688 1190 996.210938 C 1178.410156 988 1168.300781 975.078125 1159.449219 964 C 1151.996094 954.667969 1145.34375 944.566406 1139.78125 934 C 1137 929 1135.835938 921.195313 1131 918 M 263 1065 C 273.988281 1086 265.230469 1097.773438 261.753906 1119 C 258 1141.34375 256.648438 1166.597656 260.613281 1189 C 261.984375 1196.738281 264.339844 1206.277344 271 1211.144531 C 275.972656 1214.664063 284.589844 1215.660156 287.257813 1209 C 290.234375 1201.523438 285.871094 1192.230469 284 1185 C 281.5 1174.074219 282.359375 1162.816406 280 1152 L 281 1152 C 284.863281 1161 292 1170.335938 301 1174.734375 C 305.769531 1177.09375 311.785156 1176.019531 315.609375 1180.148438 C 319 1184 320.382813 1189.59375 323 1194 C 330.234375 1205.773438 339.28125 1218 352 1224 C 350.222656 1214.039063 343.277344 1205 338.808594 1196 C 332.445313 1183.269531 327.871094 1169 325.261719 1155 C 322.691406 1141.234375 320.828125 1127.027344 322.171875 1113 C 323.8125 1095.804688 329 1079.375 329 1062 L 328 1062 C 318 1079 305.878906 1094.140625 296 1111 C 294.8125 1113.050781 289 1127.148438 286.351563 1125.792969 C 280.25 1122.726563 287.351563 1102.59375 288.722656 1098 C 294.425781 1079 302.796875 1060.539063 312.308594 1043 C 316.789063 1034.742188 323.265625 1027.652344 327 1019 C 313.738281 1019.605469 287.4375 1032.160156 281 1044 L 280 1044 C 282.996094 1032 290.167969 1020.234375 292 1008 C 275.679688 1014 254.886719 1033.078125 250 1050 L 249 1050 C 253.816406 1014.257813 277.679688 982.019531 283 946 C 271.339844 951.4375 265.289063 967.109375 259.757813 978 C 244.523438 1008 233.394531 1038.320313 231 1072 C 230.386719 1082.289063 228.722656 1097.765625 234 1107 C 237 1112.179688 244 1117.128906 249.945313 1113.257813 C 257 1108.480469 255.578125 1097.410156 256 1090 C 256.699219 1081.125 259.664063 1073.132813 263 1065 M 902 958 C 898 989.363281 882.421875 1015.328125 862 1039 C 858.421875 1043.144531 843.585938 1064 837.964844 1057.675781 C 836 1055.589844 834.953125 1052.511719 833.78125 1050 C 823.988281 1029.042969 845.382813 1024.097656 857.472656 1011.535156 C 860.746094 1008.132813 855 1000.101563 859.601563 997.289063 C 862.539063 995.480469 866.726563 999.523438 869 1001 C 863 980.734375 885.957031 965 902 958 M 602 959 C 618.652344 972.21875 635 986.230469 636 1009 L 637 1009 C 639.824219 1002.660156 647.417969 1001 647.441406 1010 C 647.449219 1012.292969 643.757813 1016 645.632813 1017.738281 C 648.847656 1021.003906 654.378906 1021.601563 657.773438 1025.183594 C 664.269531 1032.035156 669.785156 1056.183594 658.351563 1061.824219 C 652.664063 1064.628906 642.492188 1045 640 1041 C 628 1022.046875 617.878906 1001.753906 609.398438 981 C 606.882813 975 599.613281 965.734375 602 959 M 349 967 L 348 968 L 349 967 M 1152 969 L 1151 970 L 1152 969 M 629 978 C 634.730469 979.359375 640 982.15625 646 982.671875 C 649.730469 983 654.285156 981 657.6875 983.179688 C 661.777344 985.820313 662.714844 992.8125 664.722656 997 C 668.195313 1004 672.585938 1004.328125 671.726563 1014 C 671.5 1016.585938 672.796875 1023.195313 669.679688 1024.289063 C 665.40625 1025.785156 660.1875 1020 658 1017 C 653.632813 1011 652.382813 1003 647.472656 997.105469 C 641.410156 990 633.839844 986.683594 629 978 M 869 978 C 865.691406 982.496094 860.894531 985.507813 857.558594 990 C 854.183594 994.542969 853.703125 1000.449219 850.351563 1005 C 847.613281 1008.636719 843.488281 1009.6875 840 1012.417969 C 837 1014.808594 833.585938 1021.578125 829.316406 1021.652344 C 826.253906 1021.710938 827 1016 827 1014 C 826.988281 1008.230469 824.863281 991.667969 830.316406 988.027344 C 833.992188 985.574219 840.746094 987.230469 845 986.5625 C 853.5625 985.214844 861 981.285156 869 978 M 1277 978 L 1277 981 L 1276 981 C 1276.25 979.546875 1276.316406 979.246094 1277 978 M 1278 982 L 1277 983 L 1278 982 M 767 983.734375 C 771.636719 983.101563 776.804688 986.636719 781 988 C 788 990.238281 795.582031 991.125 803 991.828125 C 806.648438 992.175781 812.523438 991 815.394531 993.742188 C 818.304688 996.648438 815.90625 1003.457031 815.425781 1007 C 814 1016.722656 814.671875 1027.355469 816.285156 1037 C 818.679688 1051.300781 829.761719 1064.035156 830.90625 1078 C 832.835938 1101.523438 815.351563 1120.566406 799 1135.164063 C 790.769531 1142.515625 782.410156 1149.488281 771 1150.695313 C 763.519531 1151.488281 751.632813 1148.320313 749.613281 1140 C 747.609375 1131.757813 752 1118.027344 752 1109 C 752 1080.433594 750.890625 1051.375 754.285156 1023 C 755.507813 1012.785156 757.921875 1002.8125 760.976563 993 C 762 989.621094 762.832031 984.332031 767 983.734375 M 746 984 C 746.214844 986.695313 749.917969 1001.792969 745 1001.792969 C 739.921875 1001.792969 744.496094 986.113281 746 984 M 216 985 L 216 988 L 215 988 C 215.25 986.546875 215.316406 986.246094 216 985 M 713 985.289063 C 730.421875 983.027344 735.988281 1006.378906 738.984375 1020 C 746.296875 1053.226563 742.351563 1087.539063 739.171875 1121 C 738.480469 1128.230469 743.253906 1136.292969 741.550781 1143 C 739.875 1149.585938 730.871094 1152 725 1152.699219 C 696.269531 1156.699219 661.191406 1113 663.324219 1086 C 664.695313 1068.660156 677.8125 1053.804688 680.574219 1036 C 682.28125 1025.007813 682 1014.097656 682 1003 C 682 999.472656 680.699219 992.539063 683 989.601563 C 685.253906 986.800781 690 988.664063 693 988.742188 C 699.75 989 706.363281 986.152344 713 985.289063 M 343 1093 C 350.859375 1089 354.578125 1077.144531 359.332031 1070 C 370.882813 1052.640625 382 1034.777344 397 1020.003906 C 402 1015 407.839844 1010.703125 412.9375 1005.714844 C 414 1004.558594 417 1002 415.246094 1000.042969 C 413.21875 998.042969 408.972656 1000.3125 407 1001.273438 C 399.785156 1004.789063 392.949219 1009.816406 387 1015.171875 C 363 1036.679688 348.835938 1061.683594 343 1093 M 1149 1081 C 1142.921875 1054.734375 1126 1028.765625 1105 1012.210938 C 1101.769531 1009.664063 1084.386719 995.371094 1080 1000.066406 C 1076.488281 1004 1093.535156 1015.769531 1095.996094 1018.089844 C 1109 1030.398438 1119.925781 1045.664063 1130.625 1060 C 1136 1067.335938 1140.371094 1077 1149 1081 M 370 1157 L 372 1157 C 372 1122.195313 378.519531 1088.234375 394.246094 1057 C 398.550781 1048.453125 403.824219 1040.464844 409.808594 1033 C 413.445313 1028.460938 418.398438 1024.710938 420 1019 C 403.808594 1023.695313 393.6875 1035.75 385.578125 1050 C 366.621094 1083.324219 370 1120.359375 370 1157 M 1077 1021 C 1079.953125 1030 1088.4375 1036.324219 1093.65625 1044 C 1105 1060.820313 1115 1081.328125 1116 1102 L 1115 1102 C 1113.65625 1086.71875 1100.570313 1073 1092 1061 L 1091 1061 C 1091 1080 1098 1100.207031 1104 1118 C 1106.570313 1125.78125 1108.6875 1134.589844 1114 1141 C 1115.558594 1138.027344 1116.503906 1135.324219 1117 1132 L 1118 1132 C 1118.777344 1142.210938 1116.800781 1152 1116 1162 C 1125.210938 1155.222656 1124 1132.285156 1124 1122 C 1124 1087.5 1118.769531 1031 1077 1021 M 249 1050 L 249 1053 L 248 1053 C 248.25 1051.546875 248.316406 1051.246094 249 1050 M 410 1065 C 379.429688 1083 380.5 1111.589844 383 1143 C 388.957031 1139.609375 390.421875 1130.300781 391.789063 1124 C 394.957031 1109.433594 399.585938 1096.589844 405.695313 1083 C 407.996094 1078 412.167969 1070.570313 410 1065 M 449 1071 C 430.769531 1102.238281 402 1139.304688 402 1177 C 402 1191.066406 406.839844 1205.417969 412.78125 1218 C 417.800781 1228.632813 423.773438 1243.761719 435 1249 C 430 1234.277344 421.375 1219.773438 420.183594 1204 C 419.644531 1196.824219 422.578125 1189.058594 423.753906 1182 C 426.265625 1167 428 1152 431.871094 1137 C 435.738281 1121.539063 440.476563 1106.171875 445.34375 1091 C 447.308594 1085 451.660156 1077.398438 449 1071 M 1044 1073 C 1045.824219 1096 1058.21875 1118.507813 1065.65625 1140 C 1072.539063 1160 1075 1182.023438 1075.960938 1203 C 1076.800781 1222.15625 1065 1235.1875 1062 1253 C 1071.339844 1246.402344 1076.265625 1236 1081.246094 1226 C 1087.953125 1212.585938 1093.320313 1198.160156 1093.960938 1183 C 1095 1156.816406 1079.78125 1132 1067.425781 1110 C 1061.199219 1099 1055.304688 1079.644531 1044 1073 M 1139 1111 C 1144.796875 1142.230469 1135.660156 1176 1124.574219 1205 C 1118.769531 1220.246094 1108.726563 1235.316406 1108 1252 L 1109 1252 C 1123.839844 1218.683594 1140.335938 1186.453125 1146.246094 1150 C 1148 1139.019531 1150 1117.773438 1139 1111 M 847 1117 L 846 1118 L 847 1117 M 648.667969 1118.667969 C 648.722656 1118.722656 648.777344 1119.777344 648.332031 1119.332031 C 648.277344 1119.277344 648.222656 1118.222656 648.667969 1118.667969 M 350 1131 C 342.285156 1164.648438 351.890625 1197.800781 365.425781 1229 C 369.84375 1239.183594 374.4375 1253.660156 383 1261 C 379.695313 1238.621094 367.21875 1216.535156 360.34375 1195 C 353.582031 1173.8125 352 1153.050781 352 1131 L 350 1131 M 574 1237 L 576 1237 C 576 1210.1875 584.476563 1178.515625 607 1161.761719 C 621.941406 1150.648438 641.757813 1147 660 1147 C 652.59375 1140 636.464844 1141.378906 627 1142.730469 C 579.753906 1149.480469 574 1197.769531 574 1237 M 371 1158 C 371.40625 1160.09375 371.21875 1160.019531 373 1161 C 372.316406 1159.421875 372.195313 1159.222656 371 1158 M 1036 1169 C 1039 1193.332031 1039.199219 1220.523438 1025.300781 1242 C 1017.472656 1254.09375 1001.585938 1262.171875 997 1276 C 1039.410156 1270.613281 1063.734375 1238.703125 1050.976563 1197 C 1048 1187.5625 1045.695313 1173.738281 1036 1169 M 498 1276 C 491 1264.328125 476.898438 1257.214844 469.464844 1245 C 455.753906 1222.480469 462.984375 1197.554688 463 1173 C 456.261719 1177.121094 452.667969 1188.109375 449.246094 1195 C 442.964844 1207.65625 438 1223.816406 441.761719 1238 C 447.523438 1260.484375 476.191406 1275.0625 498 1276 M 990 1174 C 990 1204.589844 988 1235.398438 979.574219 1265 C 974.621094 1282.347656 966.496094 1298.253906 960 1315 C 967.816406 1310.722656 973.679688 1298.316406 978.65625 1291 C 995.359375 1266.453125 1008.765625 1241.421875 1005.925781 1211 C 1004.855469 1199.554688 1001.347656 1179.546875 990 1174 M 525 1316 C 528.570313 1306.832031 518.414063 1290.039063 515.722656 1281 C 509 1258.644531 507 1232.246094 507 1209 C 506.988281 1201.238281 506.722656 1193.71875 506 1186 C 505.964844 1184.546875 506.320313 1179.207031 503.894531 1179.207031 C 501.308594 1179.207031 498.910156 1185.132813 497.96875 1187 C 493.773438 1195.339844 490.839844 1204.667969 490 1214 C 486.898438 1253.457031 505.851563 1283.226563 525 1316 M 892 1208 C 891.882813 1250.664063 866.351563 1295.609375 848.257813 1333 C 843.746094 1342.324219 837.863281 1352.132813 834.753906 1362 C 833.671875 1365.425781 832.777344 1370.785156 837 1372.351563 C 842.253906 1374.195313 846.894531 1368.8125 849 1365 C 855.511719 1354.039063 854.1875 1341.238281 858.953125 1330 C 864.523438 1317 878.246094 1308 885.910156 1296 C 897.179688 1278.425781 898.238281 1259.210938 897.996094 1239 C 897.910156 1232 898.21875 1212.027344 892 1208 M 628 1357 C 620 1329.804688 594 1309 578.671875 1286 C 564.796875 1265.320313 561.621094 1244 557 1220 C 546.523438 1227.148438 548.402344 1251.269531 550.460938 1262 C 556.222656 1292.035156 578.285156 1314.285156 599 1335 C 607 1343.054688 616.191406 1355 628 1357 M 954 1220 C 954 1255.503906 956 1290.125 933.347656 1320 C 926.867188 1328.5 919.351563 1336.5 911 1343.191406 C 906.265625 1347 899.28125 1350 896 1355 C 904.917969 1354.59375 913.433594 1349.417969 921 1345 C 949.421875 1328.351563 966.996094 1294.648438 967 1262 C 967 1249.832031 966.195313 1226.691406 954 1220 M 541 1227 C 520.921875 1265.160156 526.925781 1301.671875 558 1332 C 567 1341 577.917969 1351.066406 591 1353 C 587.894531 1343.636719 579.472656 1335.472656 573.246094 1328 C 562 1314.511719 550.855469 1301 545 1284 C 541.503906 1273.570313 539.171875 1260.019531 540.171875 1249 C 540.773438 1242.355469 544.988281 1233 541 1227 M 869 1357 C 879 1353.671875 887.183594 1344.082031 895 1337.28125 C 916.375 1318.691406 934.570313 1300.417969 941 1272 C 943.339844 1262.335938 943.242188 1252.765625 944.171875 1243 C 944.339844 1241.214844 946.378906 1233.722656 943.710938 1233 C 941.738281 1232.328125 940.898438 1239 940.625 1240 C 938.417969 1248.792969 934.890625 1257 930.742188 1265 C 919.28125 1287.199219 902.179688 1306.25 887 1326 C 880.328125 1335 870.1875 1345.414063 869 1357 M 598 1238 C 589 1268.105469 612.636719 1292 627.304688 1315 C 632.304688 1323 634 1332.308594 639 1340 C 641.949219 1313.171875 618.984375 1289.363281 607.808594 1267 C 603.550781 1258.480469 603.449219 1245.152344 598 1238 M 728 1284 C 727.992188 1293.296875 726.28125 1302.566406 722.214844 1311 C 716 1323.6875 709.277344 1327 713 1342 C 702.484375 1331.476563 697.363281 1319.613281 690 1307 L 689 1307 C 687.46875 1309.574219 686 1312 684 1314 C 683.21875 1308.6875 681.871094 1302.570313 679 1298 C 676.984375 1305.011719 678.863281 1314.773438 679.871094 1322 C 683.554688 1348.519531 695.96875 1383.335938 728 1384 C 723.425781 1375.78125 716.949219 1369 712 1361 C 716.203125 1361 723 1362.265625 726.484375 1359.257813 C 728.515625 1357.464844 728.375 1350.363281 731.316406 1350.457031 C 739.761719 1350.730469 749.414063 1365.222656 757 1369 C 760.433594 1350.566406 764.199219 1334.726563 773 1318 C 763.738281 1319.367188 755.5 1324.617188 747 1328.28125 C 744.269531 1329.457031 739.433594 1332.542969 736.433594 1331 C 732.75 1328.8125 734 1321.453125 734 1318 C 733.988281 1309.714844 735.414063 1289.171875 728 1284 "/>
</g>
</svg>
