<?xml version="1.0" encoding="UTF-8"?>
<svg xmlns="http://www.w3.org/2000/svg" xmlns:xlink="http://www.w3.org/1999/xlink" width="1500pt" height="1500pt" viewBox="0 0 1500 1500" version="1.1">
<g id="surface1">
<path style=" stroke:none;fill-rule:nonzero;fill:rgb(0%,0%,0%);fill-opacity:1;" d="M 481 661 L 482 661 C 483.230469 689.203125 501.570313 714.714844 504.382813 743 C 505.363281 753 502 763.195313 501.171875 773 C 500 784.015625 500.554688 796 501 807 C 503 852 511.894531 896.425781 518 941 C 521 963 521.460938 985.113281 525 1007 C 526.414063 1015.066406 526.824219 1026 535 1030 C 529.230469 1005.773438 538.90625 986 546.945313 964 C 552.960938 947.605469 557.171875 930.402344 558.828125 913 C 563.667969 862.210938 540.535156 813.34375 544 763 C 527.953125 771 534.992188 801.007813 535 815 L 534 815 C 533.234375 806.304688 527.613281 799.535156 526 791 L 525 791 L 524 833 L 523 833 C 522.976563 824.441406 522.25 812.046875 517 805 C 511.675781 819.222656 516.640625 836.511719 518.730469 851 C 523 881.527344 530 912.0625 530 943 C 540 937.765625 542.972656 911.414063 543 901 L 544 901 C 544 921.738281 536.503906 938.351563 533 958 L 532 958 C 526.78125 931.09375 525.367188 904.085938 521.71875 877 C 517.332031 844.449219 509.824219 812.066406 512 779 C 514.566406 743 526.398438 708.027344 529.828125 672 C 531 658.792969 527.414063 646.03125 526.171875 633 C 525 622.367188 527 611.554688 525 601 C 521.847656 584.460938 501.632813 583.171875 494.921875 569 C 489.847656 558.296875 493.847656 546 489.910156 535 C 485.628906 523.0625 476.191406 514.265625 472.347656 502 C 461.578125 467.628906 465.375 411.539063 489 383 L 488 386 C 497.890625 384.085938 505.445313 374.3125 515 370.453125 C 522.367188 367.476563 532.582031 368.160156 538 362 C 522.949219 362.011719 510.191406 366.058594 497 373 C 522.519531 347.550781 555.382813 331.617188 581 306 C 586.984375 300.015625 593.171875 294.175781 598.957031 288 C 600.796875 286.035156 604.550781 282.5 602.863281 279.449219 C 599 272.53125 582.492188 285 579 287.476563 C 557.789063 303.261719 538 321.730469 518 339 C 501.289063 353.414063 483.808594 367.058594 473.320313 387 C 453 425.394531 459.898438 472.695313 463.828125 514 C 465.742188 534.097656 464.988281 555.828125 465 576 L 464 576 C 463.214844 558.003906 455.195313 540 452.425781 522 C 449.230469 501.410156 450.601563 480.574219 448 460 L 447 460 C 444.945313 467.308594 444 474.417969 444 482 L 443 482 C 443 436.566406 451.890625 397.140625 468.800781 355 C 479.398438 328.585938 499.921875 298.109375 500 269 C 490.523438 276.320313 487.507813 290 481.546875 300 C 473.988281 312.679688 463.347656 322.652344 453 333 C 455.265625 328.695313 457.496094 325 458 320 C 446.992188 326.414063 442.539063 340.160156 435 350 C 420.550781 369.253906 400.449219 386 390 408 C 396 407 400.78125 403.21875 406 400 C 394.203125 412.046875 381.726563 426.460938 377 443 C 379.417969 442 380.988281 440.757813 383 439 C 380.773438 444.351563 377.871094 449.195313 377 455 C 380.222656 453.503906 382.445313 451.480469 385 449 C 377.910156 466.03125 366.394531 482 366 501 C 372 497.316406 373.640625 489.03125 376.605469 483 C 382.335938 471.34375 389.496094 459.828125 398 450 C 386 475.410156 370 503.078125 370 532 C 377.519531 527.386719 378.601563 514.636719 381.871094 507 C 389.972656 488.082031 403.824219 473 413 455 L 414 455 C 395.359375 499.773438 377 542.410156 377 592 C 381.328125 589.128906 381.207031 583.738281 382.210938 579 C 384 570 386.816406 561 389.425781 552 C 399.339844 518.070313 413.996094 487.71875 429 456 L 430 456 C 409.871094 504.40625 400.507813 552.777344 396.910156 605 C 395.703125 622.527344 391.941406 646 396 663 L 397 663 C 401.472656 649.011719 401.554688 633.503906 404.261719 619 C 407 603.449219 412.746094 587.773438 414 572 L 415 572 C 415 591.152344 414.925781 611.125 411.390625 630 C 405.9375 659.09375 395.746094 688.203125 395 718 C 393.800781 767.539063 411.5625 814.691406 427 861 C 433.792969 881.375 440.289063 901.789063 447.566406 922 C 450 929.058594 450.753906 939.234375 458 943 C 454 912.65625 438.933594 883 429.332031 854 C 415.5625 812.535156 401 768.28125 404 724 C 405.535156 703 411.503906 683 418 663 L 419 663 C 419 680.066406 421.214844 697 421.960938 714 C 422.648438 729.683594 421.828125 745.453125 424.433594 761 C 430 794.386719 442.324219 826.539063 451.578125 859 C 468.613281 918.75 485.609375 979.046875 497.800781 1040 C 510.21875 1102.089844 521.199219 1173.203125 501.976563 1235 C 481.628906 1300.398438 423.488281 1349.023438 357 1362.398438 C 330 1367.8125 298 1370.761719 273 1357.101563 C 260.785156 1350.457031 250.753906 1340.386719 241.71875 1330 C 233.738281 1320.828125 224.410156 1311.265625 219.414063 1300 C 214.925781 1290 222.8125 1272.246094 225.371094 1262 C 234.898438 1224 253.78125 1190.050781 270.742188 1155 C 307.542969 1079 313.777344 993.058594 308 910 C 306.277344 883.535156 304.207031 857.316406 300.429688 831 C 299.285156 823.035156 300.996094 809.554688 293 805 C 295.5 836.667969 302.207031 868.21875 302.984375 900 C 304.421875 958.683594 293.359375 1018.058594 275.976563 1074 C 253.898438 1145.046875 203.179688 1210.332031 197 1286 C 183.871094 1273 174.613281 1258.664063 168.667969 1241 C 159.894531 1215 152.605469 1186.585938 157.617188 1159 C 161.273438 1139 173.492188 1121.371094 183.574219 1104 C 202.824219 1070.832031 224.652344 1039 240.691406 1004 C 252.53125 978.210938 260.199219 950 264.917969 922 C 267.410156 907.253906 267.5625 891.441406 271 877 C 266.382813 879.699219 266.574219 885.097656 265.867188 890 C 264.515625 899.398438 262.246094 908.75 260 918 C 254.730469 941.433594 247.238281 964.308594 236.742188 986 C 229.9375 1000.0625 218.605469 1014.832031 215 1030 L 214 1030 C 222.964844 991 231 953.054688 234.828125 913 C 238.417969 875.328125 236.566406 836.632813 247.722656 800 C 254.230469 778.621094 269.871094 765.296875 279 746 C 271 748.691406 265.570313 756.558594 260.652344 763 C 247.320313 780.46875 239.761719 800.777344 234.882813 822 C 223 873.039063 219.820313 925.667969 209.550781 977 C 203.585938 1006.820313 192.277344 1034.042969 184 1063 L 183 1063 C 180 1025.390625 159.339844 991 159.339844 953 C 159.339844 912.210938 185.316406 879.628906 196 842 C 184.261719 848.328125 180.367188 868.734375 174.753906 880 C 152.195313 925.257813 141.992188 970.65625 156.425781 1020 C 163.585938 1044.484375 183.363281 1084.300781 163 1107 C 162.875 1092 156.476563 1076.328125 152 1062 C 139.550781 1022 119.363281 978.757813 131.429688 936 C 145 888 177.730469 844.804688 202.574219 802 C 240.179688 737.207031 265.617188 667.121094 285 595 C 292 569.304688 304.777344 542 305 515 L 306 515 C 305.996094 550.664063 300 586.257813 300 622 C 299.9375 659.800781 305.894531 697.398438 306 735 L 308 735 C 308 701 304.179688 667.117188 305 633 C 306.617188 567.636719 314 501.578125 330 438 C 340 398.59375 363.703125 345.167969 408 336 C 378.585938 368.03125 353 411.070313 344.449219 454 C 339.933594 476.445313 341 499.4375 337.574219 522 C 330 570.75 313.839844 615.796875 316 666 C 321.351563 787.289063 367 903.613281 367 1025 L 369 1025 C 369 995 370.710938 965.140625 367.828125 935 C 360 853.625 341.675781 773.597656 336 692 C 334.367188 667 334.777344 641.109375 337.171875 616 C 338.558594 601.433594 342.699219 586.566406 343 572 L 344 572 C 344 629.296875 340.445313 687 347.285156 744 C 357.328125 827.703125 382 909.8125 387.910156 994 C 389.191406 1012.722656 386 1031.328125 386 1050 C 391.609375 1045.054688 390.496094 1037.820313 391.425781 1031 C 393.585938 1015.144531 392.34375 997.359375 396 982 L 397 982 C 397 1004.480469 399.980469 1026.507813 397.828125 1049 C 395.507813 1073.320313 387.59375 1095.320313 383 1119 C 390.519531 1114.71875 393.484375 1098 396.308594 1090 C 407.796875 1057.722656 410 1028.738281 410 995 L 411 995 C 411.253906 1007.351563 415.1875 1019.730469 416.714844 1032 C 421.234375 1068.3125 424.964844 1105.566406 419.574219 1142 C 417 1158.78125 413.554688 1175.804688 405.742188 1191 C 400.867188 1200.476563 390.929688 1208.304688 389 1219 C 402.546875 1214.675781 408.894531 1198.71875 414.753906 1187 C 431.484375 1153.535156 438 1115.191406 438 1078 L 439 1078 C 439 1100 445.40625 1122.0625 446.910156 1144 C 449 1174.574219 439 1208 421.796875 1233 C 411 1248.421875 397.195313 1262.269531 382 1273.253906 C 373.6875 1279.261719 360.546875 1283.332031 356 1293 C 372.542969 1290.761719 387.191406 1278.222656 400 1268.347656 C 414 1257.433594 427 1245.011719 436.921875 1230 C 463.5 1189.554688 462.703125 1137 455.574219 1091 C 436 965.214844 387.980469 846.078125 366.25 721 C 357.507813 670.671875 359 620 359 569 C 359 526.652344 352.875 484.675781 363.882813 443 C 380.675781 379.4375 430.46875 330.527344 472.835938 283 C 495 258.019531 505.269531 224.046875 530 201.089844 C 551.609375 181.035156 581.859375 174.703125 609 165.667969 C 636.394531 156.542969 665.871094 146.070313 695 145.011719 C 706.503906 144.59375 718.851563 143.203125 727.90625 152.105469 C 744.378906 168.289063 741.179688 200.074219 743.171875 221 C 746.996094 261.230469 747 302.582031 747 343 C 747 368.101563 745.410156 395.285156 750 420 L 751 420 C 754.96875 403.328125 751.289063 384.082031 752 367 C 754 320 752.46875 273 755.910156 226 C 757.453125 205 754.582031 168.199219 771 152.183594 C 780.171875 143.398438 792.535156 144.570313 804 145 C 833.980469 146.078125 863.765625 157.128906 892 166.328125 C 920.847656 175.730469 951.570313 183.074219 973.984375 205.039063 C 996.703125 227.296875 1006.597656 259.085938 1027.289063 283 C 1072.363281 335.097656 1123 384.46875 1139 454 C 1147.726563 491.464844 1142 532 1142 570 C 1142 612.402344 1142.921875 655 1136.726563 697 C 1130.785156 737.351563 1119.363281 776.550781 1109.375 816 C 1086 908 1059.558594 999.335938 1044 1093 C 1033 1159.242188 1044.570313 1227.054688 1101 1269.625 C 1113.664063 1279.179688 1126.71875 1290.804688 1143 1293 C 1138.730469 1284.246094 1126.546875 1280.28125 1119 1274.625 C 1104.84375 1264.011719 1091.734375 1251.421875 1081.425781 1237 C 1058.40625 1204.785156 1052.433594 1164.769531 1055 1126 C 1056 1110.339844 1060.679688 1094.621094 1061 1079 L 1062 1079 C 1062.300781 1115.242188 1069.484375 1153.382813 1085.753906 1186 C 1092 1198.796875 1098 1213 1112 1219 C 1109 1209.035156 1100.566406 1201.199219 1095.785156 1192 C 1088.1875 1177.382813 1084 1161.15625 1081.433594 1145 C 1075.332031 1108.609375 1078.386719 1071.351563 1083.28125 1035 C 1085.203125 1020.730469 1089.878906 1006.4375 1090 992 L 1091 992 C 1090.992188 1004.660156 1089.21875 1017.273438 1090 1030 C 1091.34375 1048.304688 1096.863281 1066.453125 1101.859375 1084 C 1104.800781 1094.335938 1108.71875 1112 1117 1119 C 1116.277344 1110.730469 1112.261719 1103 1110 1095 C 1106.726563 1082 1104.507813 1068.386719 1103.167969 1055 C 1100.347656 1026.820313 1104 999.121094 1104 971 L 1105 971 C 1105 990.503906 1106.777344 1009.636719 1108.949219 1029 C 1109.683594 1035.546875 1108.949219 1046 1115 1050 C 1114.800781 1026 1111.859375 1002.191406 1114.171875 978 C 1121.390625 902.433594 1143.355469 829.230469 1152.714844 754 C 1159.984375 695.589844 1157 636.757813 1157 578 L 1158 578 C 1158.3125 593.238281 1162.382813 608.777344 1163.828125 624 C 1166 647.238281 1165.984375 671.648438 1164.960938 695 C 1161.738281 768.558594 1144.980469 841.171875 1135 914 C 1131.21875 941.59375 1131 969.183594 1131 997 C 1131 1004.046875 1128.675781 1020.53125 1135 1025 C 1135 1012.363281 1133.226563 999.597656 1134 987 C 1136.503906 951.75 1144.890625 917.554688 1151.800781 883 C 1164 822 1176.921875 761.027344 1182.828125 699 C 1185.878906 667 1185.300781 633.679688 1179.574219 602 C 1175.421875 579.015625 1167.664063 557 1163 534 C 1157.828125 508.617188 1162.214844 482.609375 1156.347656 457 C 1145.886719 411.335938 1118.882813 374.046875 1093 336 C 1126.230469 345.433594 1147.34375 380 1160 410 C 1173.78125 442.007813 1178.777344 477.761719 1183.28125 512 C 1189.53125 559.53125 1195 607.046875 1195 655 C 1195 672.730469 1194.734375 690.324219 1193.960938 708 C 1193.5625 717.035156 1190.351563 726.039063 1193 735 L 1194 735 C 1200 718.644531 1196.925781 701 1198 684 C 1200.464844 649.304688 1201.289063 613.746094 1198.910156 579 C 1197.523438 558.761719 1194 538.292969 1194 518 L 1195 518 C 1195.226563 545.175781 1208.195313 574.097656 1215.578125 600 C 1235.308594 669.203125 1260.46875 736.789063 1297 799 C 1322.34375 842.128906 1356.378906 886.042969 1369.265625 935 C 1385.214844 995.59375 1341.683594 1050.175781 1337 1109 L 1336 1109 C 1334 1098.398438 1327.53125 1091.582031 1328 1080 C 1329.484375 1047 1348.664063 1017.6875 1351.828125 985 C 1355 951.078125 1345 916.324219 1330.242188 886 C 1324.3125 874 1316.648438 849.125 1305 842 C 1307.566406 853.097656 1313.550781 862.703125 1318 873 C 1329 897.667969 1340.761719 923.574219 1341.960938 951 C 1343.695313 990.640625 1318 1025.558594 1318 1065 L 1317 1065 C 1315.433594 1054.527344 1310.175781 1044.132813 1307 1034 C 1301 1015 1296 995.535156 1292 976 C 1281.257813 924.113281 1277.359375 870.425781 1264.871094 819 C 1259.886719 798.476563 1252.410156 780 1239.625 763 C 1234.660156 756.40625 1229.816406 749.308594 1222 746 C 1224.875 755.769531 1233.351563 762 1238.90625 770 C 1246.878906 781.699219 1251.863281 795.296875 1255 809 C 1264 847.027344 1263.429688 886.363281 1267.171875 925 C 1270.574219 960.1875 1278 993.695313 1286 1028 L 1285 1028 C 1281.695313 1016.523438 1273.703125 1007 1268.859375 996 C 1257.542969 970.679688 1247.933594 945 1240.882813 918 C 1238.476563 908.832031 1236.652344 899.378906 1235.273438 890 C 1234.542969 885.0625 1234.660156 879.71875 1230 877 C 1242.820313 929.035156 1246.253906 980.828125 1272.308594 1029 C 1287.734375 1057.515625 1305.300781 1085 1321.421875 1113 C 1331.292969 1130.222656 1342.96875 1148.480469 1343 1169 C 1343 1199.347656 1337 1228 1325.800781 1256 C 1322.738281 1263.578125 1316.449219 1281.042969 1307 1282.671875 C 1301.554688 1283.640625 1299.738281 1263.109375 1298.765625 1259 C 1292.347656 1232 1282.527344 1205 1270.242188 1180 C 1261 1161.289063 1250.503906 1143.253906 1242.425781 1124 C 1217.320313 1064.175781 1200.882813 998 1198 933 C 1196.90625 907.128906 1197.710938 880.722656 1200.171875 855 C 1201.761719 838.339844 1205.996094 821.761719 1206 805 C 1198.570313 810 1200 824.105469 1199 832 C 1195.402344 858.269531 1193 884.546875 1191.960938 911 C 1188 999.679688 1196 1087.660156 1236.246094 1168 C 1251.871094 1199.25 1267.890625 1231 1276.371094 1265 C 1279 1276 1285.289063 1291.316406 1279.675781 1302 C 1274 1312.554688 1265.894531 1322.210938 1257.925781 1331 C 1228.515625 1363.441406 1192 1370.28125 1150 1364.269531 C 1081.417969 1354.46875 1017.707031 1303.765625 999 1236 C 988 1195.632813 988.707031 1154.257813 992.832031 1113 C 1001.691406 1024.378906 1031.597656 940.636719 1054 855 C 1063.40625 819.660156 1071.925781 783.390625 1075.835938 747 C 1078.796875 719.425781 1078.535156 691.425781 1082 664 L 1083 664 C 1084.546875 674.480469 1089.277344 684.59375 1091.574219 695 C 1096.34375 716.589844 1097.445313 739.0625 1094.714844 761 C 1089.414063 803.609375 1074.679688 845.601563 1060.65625 886 C 1054 905.066406 1044.609375 923.792969 1042 944 C 1049.648438 939.804688 1050.898438 928.660156 1053.34375 921 C 1059.554688 901.566406 1066.609375 882.371094 1073 863 C 1086.238281 823 1103.9375 779.734375 1104.984375 737 C 1105.894531 699.820313 1094.269531 665.296875 1088.4375 629 C 1085.878906 613.070313 1086.335938 595.210938 1086 579 L 1087 579 C 1087.902344 600 1095.949219 621.410156 1100 642 C 1100.449219 644.296875 1103.835938 663.105469 1105 661.824219 C 1107.359375 659.589844 1106 652 1106 649 C 1105.980469 636 1105.417969 622.101563 1104.171875 609 C 1098.933594 554 1090.375 505.339844 1069 454 L 1070 454 C 1082 479.621094 1095.425781 502.675781 1104.328125 530 C 1108.316406 542.226563 1112.46875 554.53125 1115.625 567 C 1117.773438 575.476563 1118.71875 585.355469 1123 593 L 1124 593 C 1123.996094 544.40625 1104.246094 499 1086 455 C 1106 477 1117.894531 506 1129 533 L 1130 533 C 1130 501.328125 1111.308594 480 1103 451 C 1111 459.789063 1117.414063 470.394531 1122.753906 481 C 1126.339844 488.125 1128.5625 497 1135 502 C 1132.539063 483 1122.230469 467.363281 1115 450 C 1117.578125 452.175781 1119.855469 453.789063 1123 455 C 1121.441406 448.433594 1117.820313 443.039063 1115 437 C 1117.277344 439.128906 1119.179688 440.699219 1122 442 C 1114.855469 417.203125 1088.527344 396.527344 1071 379 C 1084.175781 388.273438 1093.746094 401.613281 1109 408 C 1107.503906 400.265625 1101.351563 394.066406 1096.652344 388 C 1085.796875 374 1072.65625 361.738281 1062.75 347 C 1056.421875 337.582031 1052.621094 325.515625 1042 320 C 1043.210938 325.089844 1045.582031 329.402344 1048 334 C 1035.179688 323 1025.605469 311.71875 1017 297 C 1011.628906 287.777344 1008.835938 275.523438 1000 269 C 1002.742188 302.566406 1023.585938 336.175781 1035.796875 367 C 1051.210938 406 1058 444.265625 1058 486 L 1057 486 C 1056.992188 477.351563 1056 468.136719 1053 460 L 1052 460 C 1052 480.683594 1050 501.257813 1050 522 C 1050 528.527344 1047.648438 540.113281 1054 544 C 1055.515625 532.066406 1058.484375 520.023438 1059 508 L 1060 508 C 1062 534.574219 1070 560.375 1071.910156 587 C 1074.804688 629.253906 1068.699219 674 1055.332031 714 C 1051.421875 725.746094 1046.992188 737.289063 1043 749 C 1040.945313 755.035156 1039.796875 762.582031 1035 767 C 1035.226563 739.792969 1041.488281 712.753906 1045.921875 686 C 1053.582031 639.738281 1061 594 1061 547 L 1060 547 C 1057.191406 556.507813 1057.898438 568.074219 1056.835938 578 C 1055 594.085938 1052.445313 610.082031 1049.574219 626 C 1042.433594 665.605469 1028.234375 705 1024.167969 745 C 1022 766.265625 1028.25 790.707031 1023 811 L 1022 811 C 1011.1875 782 1018.394531 752.40625 1022.726563 723 C 1028.910156 681.046875 1034.277344 639 1040 597 C 1042.6875 578.652344 1045.984375 560.414063 1048 542 C 1048.6875 536.332031 1051.230469 527 1046 523 C 1043.648438 540.457031 1037 557.175781 1037 575 L 1036 575 C 1036 553.667969 1035.632813 532.257813 1037 511 C 1040.257813 464.726563 1048 410.09375 1016.539063 371 C 1004.867188 356.550781 990 345.550781 976 333.574219 C 960.839844 320.65625 946.359375 307 931 294.25 C 924 288.5 916.625 282.148438 908 279.089844 C 905.421875 278.175781 899.894531 276.378906 898.738281 280.242188 C 897.253906 285.195313 905 291.058594 908 294 C 918.945313 305.015625 928.921875 316.648438 941 326.535156 C 963 344.554688 990.210938 356.644531 1008.535156 379 C 1023.492188 397.246094 1029 421.113281 1031.714844 444 C 1033.875 462.242188 1033 489.652344 1026.910156 507 C 1023 517.398438 1014.53125 525.367188 1011.222656 536 C 1007.949219 546.503906 1011.6875 559.21875 1006.558594 569 C 999.601563 582.265625 979 584.164063 976.328125 600 C 974.265625 611.53125 975.972656 624.253906 974.828125 636 C 973.71875 647.441406 970 659.46875 971.171875 671 C 974.59375 707.550781 988.347656 742.152344 989.960938 779 C 991.496094 814.089844 984.832031 850.363281 979.726563 885 C 977.742188 898.476563 974 912.359375 974 926 L 973 926 C 973 906.019531 978 885.746094 980.871094 866 C 986.226563 828 990 789.253906 983.753906 751 C 981.863281 739.664063 980.6875 727.585938 976 717 L 975 717 C 975 748 981.457031 777 979 808 L 978 808 C 978 801.753906 979.824219 792 974 788 L 975 803 C 968.300781 802 968 812.035156 967 817 L 966 817 C 966 802.222656 971.332031 774.535156 958 764 C 958 810.339844 937.914063 855.621094 941 902 C 943.253906 933.601563 958.726563 960.648438 965.765625 991 C 968.824219 1004.1875 967 1016.695313 967 1030 C 975.601563 1023.59375 975.761719 1011.832031 977 1002 C 980.234375 979.710938 983.28125 957.421875 985 935 C 988.53125 892.148438 997.972656 850 1000.910156 807 C 1002.46875 784.257813 995.40625 760.203125 998.289063 738 C 1001.707031 711.6875 1018.449219 687.691406 1019 661 C 1021.882813 671.480469 1015.550781 688.203125 1013.753906 699 C 1009 726.816406 1005 754 1003 782 C 1001.480469 805.472656 1004.886719 829.515625 1005 853 C 1005 884.820313 1001.636719 916.421875 997.84375 948 C 987.367188 1035.273438 962.632813 1121.640625 976.273438 1210 C 986.855469 1278.53125 1029.722656 1342.71875 1094 1371.136719 C 1114.742188 1380.308594 1136.605469 1384.003906 1159 1386.171875 C 1185.820313 1388.765625 1213.40625 1385.742188 1238 1374.109375 C 1268.851563 1359.519531 1281.613281 1331.5625 1302.324219 1307.003906 C 1307.347656 1301.046875 1314.425781 1297.542969 1319.710938 1292 C 1329.660156 1281.308594 1335.984375 1267.394531 1341.1875 1254 C 1352.191406 1225.6875 1360.351563 1195.605469 1358.960938 1165 C 1358.449219 1153.703125 1352.664063 1143.234375 1351.285156 1132 C 1349.769531 1119.636719 1352.386719 1106.1875 1354.433594 1094 C 1360.738281 1056.492188 1382.269531 1023.453125 1388.566406 986 C 1392 965.324219 1389.289063 944.039063 1383.574219 924 C 1370.839844 879.378906 1341.917969 843.066406 1318.203125 804 C 1293.507813 763.320313 1274.316406 719.40625 1257.425781 675 C 1236.328125 619.539063 1223.730469 561.429688 1209.371094 504 C 1200.230469 467.429688 1192 430.730469 1174.742188 397 C 1161.898438 372.121094 1144.960938 346 1120 332 C 1106.457031 324.246094 1087.636719 328 1077 317 C 1057.589844 297 1035.960938 274.4375 1020.695313 251 C 1008.894531 233 1001.71875 210 984.984375 195.4375 C 966.609375 179.542969 941.859375 174.113281 920 164.574219 C 883.769531 148.765625 848.804688 134 809 130.171875 C 786.269531 128.007813 764.578125 132.265625 742 132 C 716.339844 131.691406 690.515625 129.015625 665 133.613281 C 630.484375 140 602.863281 155.578125 571 168.546875 C 548.929688 177.53125 526.238281 183.421875 509 201 C 496.558594 213.714844 490.660156 230.726563 482 246 C 475.363281 258.144531 466 268.710938 456.832031 279 C 447.863281 289 438.925781 299 430 309 C 426.214844 313.34375 423 319 417.996094 322 C 410 326.761719 397 324.371094 388 327.695313 C 367.527344 335.152344 352 352.53125 340 370 C 312.433594 410 302.214844 457.65625 290.628906 504 C 274.441406 568.738281 259.449219 634 234.601563 696 C 218.667969 735.828125 201.300781 775.511719 178.574219 812 C 150.78125 856.625 114.832031 902.417969 111 957 C 108 1001.402344 131.605469 1040.421875 142.847656 1082 C 146.925781 1097.070313 150.328125 1114.339844 148.828125 1130 C 146.898438 1150.210938 139.175781 1167.0625 141.171875 1188 C 144.230469 1220.148438 154.214844 1255.40625 173 1282 C 180.886719 1293.078125 192.859375 1300 200.847656 1311 C 220.300781 1337.78125 238.558594 1366.621094 271 1379 C 374 1418.046875 494 1333.269531 520 1234 C 539.171875 1161.53125 526.480469 1087.105469 519.167969 1014 C 513.5 957.308594 506.570313 900.714844 501.171875 844 C 498.511719 816.066406 498.535156 788 495.828125 760 C 492.628906 727 482.425781 694.175781 481 661 M 577 201 C 561.476563 211 538.320313 234 533 252 L 532 252 C 534.914063 241.800781 540.5625 232.671875 542 222 C 534.398438 227.480469 531.996094 236.144531 527.574219 244 C 519.398438 258.523438 514.636719 274.425781 508.945313 290 C 505.597656 299.164063 500.433594 308.296875 499 318 C 507.480469 311.699219 516 295.402344 518 285 L 519 285 C 523.636719 288.796875 531.339844 272.464844 533.230469 269 C 542.480469 252.035156 554.316406 235.460938 565.894531 220 C 569.460938 215.238281 578.472656 207.371094 577 201 M 922 201 C 925 209.347656 931.484375 215.824219 936.667969 223 C 947.464844 238 959.742188 253.609375 968.167969 270 C 969.472656 272.546875 980 290.824219 981 283 L 982 283 C 983.621094 293.804688 992.394531 311.246094 1001 318 C 1000.269531 309.09375 995.789063 301.238281 992.683594 293 C 986.589844 277 980.984375 260.476563 973.246094 245 C 969.355469 237.21875 966.183594 228.304688 959 223 C 959.96875 235 966.917969 244.730469 970 256 C 960.78125 242.332031 951.214844 229.46875 940.425781 217 C 935 210.777344 930 203.59375 922 201 M 514 314 C 524.605469 310.382813 529.558594 296.605469 535.589844 288 C 547.847656 270.507813 560.199219 253.003906 573 236 C 580 227 589.183594 219.003906 593 208 C 581.703125 210.25 574.289063 223 567 231 C 546.847656 254.078125 522.707031 284 514 314 M 907 208 C 911.261719 220.292969 921.464844 228.757813 928.984375 239 C 941.242188 255.6875 953.683594 272.246094 965.847656 289 C 972 297.546875 977.242188 307.78125 986 314 C 985 304.390625 978.6875 296.15625 974 288 C 962 267.191406 947.992188 248.023438 932 230 C 925.179688 222.0625 918 210.203125 907 208 M 900 235 C 901 246 911.980469 254 918.574219 262 C 933.660156 280.40625 948.242188 299.046875 964.996094 316 C 971.785156 323 977.398438 332 987 335 C 984 324.800781 976.207031 317.207031 969.886719 309 C 956.230469 291.265625 941.730469 275 926 259 C 917.75 250.648438 910.75 240.355469 900 235 M 514 334 C 524 330.628906 530.707031 320.308594 538 313 C 553.5625 297.40625 567 280 581 263 C 588 254.605469 597.828125 246.777344 601 236 C 589.753906 238.175781 582.5 250.296875 574.984375 258 C 559.246094 274.136719 544.875 291.140625 531 309 C 524.898438 317.074219 517.402344 324.191406 514 334 M 486 325 C 491.84375 320.71875 495 309.460938 498.246094 303 C 508.746094 282.011719 517.671875 263.226563 522 240 C 514.511719 243.683594 512.347656 253.753906 509.398438 261 C 501.445313 280.527344 487.726563 304 486 325 M 979 240 C 981.863281 262.175781 991.851563 284.195313 1001.753906 304 C 1005 310.648438 1008.488281 321.015625 1015 325 C 1010.535156 303.425781 999.972656 281.21875 991.28125 261 C 988.277344 254.019531 986 244 979 240 M 531.667969 252.667969 C 531.722656 252.722656 531.777344 253.777344 531.332031 253.332031 C 531.277344 253.277344 531.222656 252.222656 531.667969 252.667969 M 584 269 C 592.910156 268.808594 600.359375 264.019531 609 262.464844 C 622 260.105469 636.324219 262.535156 649 266 C 651.238281 266.476563 666.730469 272.742188 666.652344 268.683594 C 666.53125 262.316406 651.679688 258.539063 647 257 C 629.335938 251.1875 593.683594 248.296875 584 269 M 832 270 C 847.722656 270 862.308594 262.191406 878 262.003906 C 892.449219 261.832031 904 269.363281 918 270 C 914 261.726563 905.304688 258.210938 897 255.722656 C 877.945313 250.011719 844.609375 252.480469 832 270 M 531 255 L 530 256 L 531 255 M 971 256 L 970 257 L 971 256 M 680 272.070313 C 677.507813 274.5625 681.867188 285.039063 682.710938 288 C 687 303.234375 690.921875 319.078125 691 335 C 691.257813 388.476563 682.597656 439.507813 656.769531 487 C 652.226563 495.351563 646.652344 503.289063 642.796875 512 C 640.53125 517.113281 641.6875 521.648438 648 518.542969 C 664.597656 510.382813 675.261719 489.171875 682 473 C 700.574219 429.75 709.300781 378 704.828125 331 C 703.273438 314.660156 702.78125 296.613281 694.320313 282 C 692.726563 279.246094 684.316406 268 680 272.070313 M 817.851563 271.800781 C 799.863281 275.171875 797 309.125 796.996094 323 C 796.371094 374 797 425.484375 818.769531 473 C 825 487 831.902344 500.234375 843 511 C 846.238281 514.085938 852.550781 520.832031 857.683594 519.628906 C 862.945313 518.390625 857.316406 509.316406 856 507 C 849 494.824219 841 483 835.425781 470 C 814.609375 422.191406 803 368 811.753906 316 C 813.679688 304.550781 816.761719 293.339844 819.210938 282 C 819.707031 279.699219 822.933594 271 817.851563 271.800781 M 519.667969 282.667969 C 519.722656 282.722656 519.777344 283.777344 519.332031 283.332031 C 519.277344 283.277344 519.222656 282.222656 519.667969 282.667969 M 708 316 C 711 329.070313 707 343.570313 708 357 C 709 370.632813 714.300781 383.691406 716.996094 397 C 718.558594 404.714844 717.441406 415.441406 722 422 C 726.734375 412.328125 726 398.613281 726 388 L 726 326 L 725 326 C 721.667969 333.480469 718.671875 341.796875 718 350 C 715.1875 340.492188 717.910156 321.640625 708 316 M 790 316 C 786.1875 326.109375 784 338.207031 784 349 L 783 349 C 782.832031 341 780 334 776 327 L 775 327 C 775 350.277344 773.628906 375 775.828125 398 C 776.519531 405.253906 774 417.355469 781 422 C 781.609375 392.40625 795.867188 366.375 792.285156 336 C 791.550781 329.769531 793.921875 321.175781 790 316 M 629 326 C 623.316406 341.171875 626 359.128906 626 375 L 625 375 C 623.878906 362.230469 614.3125 347.285156 604 340 C 604.773438 349.449219 609.878906 357.828125 612 367 L 611 367 C 607.199219 355.101563 593.871094 343.429688 582 340 L 585 345 C 577.214844 343.15625 570 339.660156 562 339 C 565 345 570 348.714844 575 353 C 566 350.109375 557.445313 347.195313 548 347 C 550.566406 352.390625 555.375 355.34375 561 357 L 561 358 C 548.851563 356.429688 537.328125 354 525 354 L 525 355 C 532.609375 359 541.789063 359.285156 550 361.722656 C 570.71875 368 590 378.054688 602 397 L 596 395 C 600.609375 409 614 419.6875 619.683594 434 C 621 437.429688 623.296875 443.007813 627.988281 442.027344 C 633.253906 441 635.589844 433.445313 636.84375 429 C 640 417.566406 641.277344 406 640.984375 394 C 640.875 389.46875 640.804688 383 637 380 C 637 384.4375 636.8125 388.632813 636 393 L 635 393 C 635 377.113281 632.171875 361.78125 631 346 C 630.65625 339.664063 632.722656 331.449219 629 326 M 869 326 C 869 347.3125 868.914063 370 865 391 L 864 391 C 864 387 864.171875 383 863 379 L 862 379 C 857.941406 392.734375 859.953125 414.3125 863.746094 428 C 865 432.664063 867 441 872.960938 441.535156 C 878 442.050781 879.6875 434.511719 881 431 C 886.449219 417.242188 900.714844 408.421875 905 395 C 902.699219 395.398438 901 396 899 397 C 909.582031 380.085938 928 368.3125 947 362.722656 C 956.9375 359.769531 967.445313 359.230469 977 355 L 977 354 C 963.3125 354 950.496094 356.257813 937 358 L 937 357 C 943.25 356 949.195313 353 952 347 C 942.644531 347.402344 934 351 925 353 L 925 352 C 930.96875 349.472656 935.644531 345.078125 938 339 C 930 340.070313 922.449219 343.125 915 346 L 919 341 C 906.792969 342.257813 893.398438 355.539063 890 367 L 889 367 C 890.910156 357.773438 895.628906 349.300781 897 340 C 886.464844 345 880.710938 362 876 372 L 875 372 C 875 360.605469 874.964844 349.304688 873.425781 338 C 872.808594 333.488281 873 328.765625 869 326 M 453 333 L 452 334 L 453 333 M 1049 334 L 1048 335 L 1049 334 M 586 345 L 585 346 L 586 345 M 914 346.332031 L 914.332031 346.667969 C 913.839844 346.832031 913.226563 346.332031 914 346.332031 M 578 355 L 575 354 C 576.765625 353.597656 576.558594 353.710938 578 355 M 925 353 L 925 354 L 922 355 C 923.222656 353.804688 923.421875 353.683594 925 353 M 564 358 L 564 359 L 561 359 C 562.246094 358.316406 562.546875 358.25 564 358 M 961 362 C 965.882813 367.589844 974.34375 367.757813 981 370.453125 C 990.664063 374.367188 999.933594 384.65625 1010 386 C 1003.277344 366.730469 979 362.011719 961 362 M 497 373 C 495.449219 375.136719 494 376.449219 492 378 C 493.550781 376 494.863281 374.550781 497 373 M 909 395 C 937.488281 389.105469 969.964844 370.144531 994.910156 395.089844 C 999.847656 400.027344 1003.953125 406.039063 1007.550781 412 C 1013.265625 421.472656 1017.933594 431.621094 1021.773438 442 C 1024 448.332031 1024.667969 455.414063 1030 460 C 1029.773438 433 1016.957031 392.34375 992 378.515625 C 972.847656 368 946.980469 373 928 381.308594 C 920.835938 384.480469 911.789063 387 909 395 M 471 460 C 476.210938 455.449219 476.78125 448.253906 479 442 C 482.410156 432.765625 486.902344 423.363281 492 415 C 497.46875 406.246094 503.777344 398 512 391.527344 C 535 373.796875 568.804688 389.722656 593 396 C 590 387.484375 579.871094 384.078125 572 381.34375 C 553.589844 375 530.53125 369.113281 512 378.378906 C 485.394531 391.679688 471 431.710938 471 460 M 1071 379 C 1069.363281 378.453125 1069.546875 378.636719 1069 377 C 1070.636719 377.546875 1070.453125 377.363281 1071 379 M 492 379 L 490 383 L 489 383 C 489.9375 381.050781 490.390625 380.449219 492 379 M 427 380 C 421.605469 387.660156 413.652344 394.628906 406 400 C 411.195313 392.648438 419.648438 385.179688 427 380 M 546 391 C 547.535156 393.722656 549 394.71875 552 396 L 552 397 C 536.222656 397 511.59375 401 504 417 L 510 416 C 501 423.765625 489.554688 430 486 442 C 488.832031 441 491.34375 439.453125 494 438 C 489 443.421875 484.851563 449.191406 482 456 C 485.382813 455 488 453 491 451 C 481.710938 468.652344 477 485 477 505 C 485.824219 498.070313 483.527344 478 495 474.457031 C 499.839844 473.003906 503.515625 480 505.882813 483 C 512.949219 492.242188 520.753906 501 532 505 C 547 510.367188 564.988281 506.519531 579 499.742188 C 585.882813 496.410156 598.988281 488 606.730469 493.152344 C 611.21875 496.171875 607.621094 503.121094 606.332031 507 C 601.96875 520.152344 597.550781 533.117188 592.398438 546 C 577.785156 582.53125 562 618.671875 546.988281 655 C 539.972656 672 529 687.09375 529 706 C 534.476563 701.769531 537.382813 695.289063 540 689 L 541 689 C 544.386719 694.496094 548 691.597656 552 688 C 552 693.375 551.871094 698.351563 558 694 C 556.316406 699.175781 553.648438 704.519531 554 710 C 564.996094 703.503906 570.996094 686 566 674 C 564.316406 676.550781 563.519531 679 563 682 L 562 682 C 563 673.324219 564 664.753906 564 656 C 560.398438 658.464844 559.613281 663 559 667 C 554.292969 648.363281 569.660156 621.832031 576.398438 605 C 581 593.480469 586.480469 582.367188 591.425781 571 C 606.480469 536.394531 618 501.042969 618 463 C 618 445.605469 616.449219 426.46875 603.699219 413.175781 C 596.410156 405.570313 585.746094 401.164063 576 397.691406 C 566.195313 394.199219 556.386719 391.820313 546 391 M 942 666 L 941 666 C 940.664063 662.175781 940.179688 658.390625 937 656 C 937 667.433594 938.457031 678 941 689 L 940 689 C 938.914063 684.308594 937.554688 679.550781 936 675 L 935 675 C 930 685.117188 936.894531 705.0625 947 710 C 946.65625 702.480469 942.949219 696.132813 941 689 L 942 689 C 944.351563 695 948.75 696.558594 949 689 C 954 693.503906 956.523438 694.027344 960 688 C 962.921875 694.179688 967 704 974 706 C 969 686.726563 960.191406 670.210938 952.425781 652 C 938.917969 620.316406 925.367188 588.660156 911.71875 557 C 905.527344 542.636719 900.410156 528 895.65625 513 C 894 508.210938 890.195313 501.226563 891.359375 496.109375 C 893 488.492188 907.335938 493.234375 912 495 C 931.730469 501.761719 952 513.246094 973 503.214844 C 982.445313 498.6875 989 491 995.574219 483 C 997.738281 480.367188 1000.957031 474.628906 1005 475.035156 C 1013.589844 476 1020 499.074219 1022 506 C 1026.507813 502.816406 1025.691406 495 1025 490 C 1023.507813 474.8125 1015.273438 463.417969 1009 450 C 1012 453 1014.835938 455.011719 1019 456 C 1015.945313 448.699219 1011.519531 442.636719 1006 437 C 1009.300781 439 1012.289063 441 1016 442 C 1011.683594 432 1002.566406 421.503906 992 418 L 992 417 L 996 417 C 984.515625 401.042969 967.957031 397 949 397 C 951.171875 395.066406 953.183594 393.257813 955 391 C 946 391.386719 936.503906 394 928 396.671875 C 917.84375 400 907 403.667969 899 411.183594 C 882.609375 426.816406 882.75 454.1875 884.832031 475 C 889.742188 524.136719 908.386719 568.070313 927.71875 613 C 934.765625 629.378906 941.628906 648 942 666 M 604 399 C 602.363281 398.453125 602.546875 398.636719 602 397 C 603.636719 397.546875 603.453125 397.363281 604 399 M 899 397 C 898.453125 398.636719 898.636719 398.453125 897 399 C 897.546875 397.363281 897.363281 397.546875 899 397 M 991 412 L 990 413 L 991 412 M 991 416.332031 L 991.332031 416.667969 C 990.839844 416.832031 990.226563 416.332031 991 416.332031 M 936 418.457031 C 955 418.027344 957.4375 437.34375 937 438 C 916.980469 438.390625 915 419 936 418.457031 M 557 419.339844 C 562.90625 418.199219 571.882813 418.105469 576.953125 421.703125 C 586.945313 428.792969 575.515625 436.171875 568 437.535156 C 562.214844 438.585938 554.695313 437.828125 550.226563 433.605469 C 543.847656 427.570313 550.203125 420.652344 557 419.339844 M 586 424 C 591 422.238281 595.566406 426.554688 598.960938 430.015625 C 608.445313 439.691406 610.742188 452.113281 612.285156 465 C 612.628906 468 614.875 481.109375 610.546875 482.078125 C 606.816406 483 604.710938 470.378906 604 468 C 600.261719 452.144531 601.367188 433.816406 586 424 M 914 423 C 910.300781 428 905.503906 431.269531 902.902344 437 C 898.53125 446.640625 900 458 897.625 468 C 896.847656 471.121094 894.679688 482.792969 890.324219 482.792969 C 885.855469 482.792969 887.632813 464.832031 887.949219 462 C 889.753906 446 896.664063 427.117188 914 423 M 497 435 C 495.894531 436.457031 495.457031 437 494 438 C 495 436.542969 495.542969 436.101563 497 435 M 1115 436 L 1114 437 L 1115 436 M 384 438 L 383 439 L 384 438 M 592 444 C 592 452.195313 591.707031 460.203125 586.46875 467 C 567 492.046875 528.246094 476 528 446 L 529 446 C 537.527344 464 559.59375 473.519531 577 462 C 583.839844 457.328125 586.78125 450 592 444 M 909 445 C 913.996094 451 917.21875 457.433594 924 462 C 943.515625 474.71875 962.234375 462.160156 973 445 L 974 445 C 973.9375 468.167969 951.652344 485.511719 929 477.449219 C 917.636719 473.40625 903.519531 458.0625 909 445 M 400 447 L 399 450 L 398 450 C 398.683594 448.421875 398.804688 448.222656 400 447 M 436 447 C 435.453125 448.636719 435.636719 448.453125 434 449 C 434.546875 447.363281 434.363281 447.546875 436 447 M 1114 447 C 1114.984375 448.480469 1115 448.203125 1115 450 L 1114 450 C 1113.785156 448.578125 1113.726563 448.328125 1114 447 M 386 448 L 385 449 L 386 448 M 494 448 C 492.894531 449.457031 492.457031 450 491 451 C 492 449.542969 492.542969 449.101563 494 448 M 1009 450 C 1007.363281 449.453125 1007.546875 449.636719 1007 448 C 1008.636719 448.546875 1008.453125 448.363281 1009 450 M 1102 448 C 1102.984375 449.480469 1103 449.203125 1103 451 C 1101.710938 449.558594 1101.597656 449.765625 1102 448 M 1085 452 L 1086 455 C 1084.710938 453.558594 1084.597656 453.765625 1085 452 M 1069 453 L 1068 454 L 1069 453 M 415 454 L 414 455 L 415 454 M 430.667969 454.667969 C 430.722656 454.722656 430.777344 455.777344 430.332031 455.332031 C 430.277344 455.277344 430.222656 454.222656 430.667969 454.667969 M 520 454 C 526.207031 475.707031 548.261719 496.628906 572 488 C 581.601563 484.378906 587.21875 475.554688 596 471 C 596 475 596.820313 478.28125 598 482 C 577.441406 484.769531 562 505.742188 540 499.214844 C 528.234375 495.730469 520.921875 485.679688 514.34375 476 C 513.417969 474.636719 505.9375 464.703125 510.269531 464.035156 C 515.453125 463.238281 521.316406 477.625 523.898438 481 C 531.980469 491.539063 544.734375 498.15625 558 495 C 543.183594 488.433594 530 485 522.640625 469 C 520.511719 464.4375 517.992188 459 520 454 M 984 454 C 983.355469 468.820313 973.796875 481.136719 961 488.101563 C 955.578125 491.050781 948.476563 491.753906 944 496 C 958 496 969 491.28125 977.984375 480 C 980.796875 476.425781 986.660156 461.644531 991 461.035156 C 995.414063 460.4375 992.945313 467.339844 992 469 C 988.203125 476.449219 982 485.039063 975.910156 490.816406 C 958.59375 507.234375 938.953125 497.730469 921 488.753906 C 917.648438 487.078125 905.921875 484.503906 904.40625 481.273438 C 903.265625 479 905.445313 474 905 471 C 913.796875 475 919 483.703125 928 487.652344 C 943.550781 494.558594 963.339844 485.734375 973 473 C 977.609375 467.109375 979.335938 459.632813 984 454 M 595 622 C 595.203125 597.261719 610.355469 573.808594 618.304688 551 C 626.5 527.484375 628.390625 501.246094 634 477 C 622.761719 482.367188 622.800781 498.285156 621.269531 509 C 617.277344 537 603.386719 561.804688 596.628906 589 C 594.886719 596.003906 587.996094 617.460938 595 622 M 867 477 C 872.902344 499.800781 874.988281 523.433594 881.425781 546 C 886 562.5 894.234375 577.753906 899.644531 594 C 902.820313 603.535156 904 613.742188 908 623 C 911.941406 613.605469 907.1875 598.390625 904.574219 589 C 897.484375 563.484375 885.257813 539.234375 880.921875 513 C 878.992188 501.335938 879 483.175781 867 477 M 743 481 C 739.878906 485.421875 738.246094 489.578125 738 495 L 737 495 L 736 487 L 735 487 C 733.765625 502.652344 729.484375 519.464844 733.476563 535 C 737 548.730469 747.238281 558.761719 750 573 L 751 573 C 752.175781 558.613281 763.808594 548.539063 767.511719 535 C 771.769531 519.40625 767 502.796875 767 487 C 764.273438 489.074219 764 491.675781 764 495 L 763 495 C 761.636719 489.746094 761.171875 484.703125 756 482 C 758.894531 494.152344 760.347656 509.59375 758.570313 522 C 757 532.136719 752.445313 541.773438 752 552 L 751 552 C 744.96875 537.492188 742 523.71875 742 508 C 742 500.339844 745.683594 488 743 481 M 493 501 C 487 519.585938 501.261719 531.054688 519 532.828125 C 538.886719 534.820313 557 523.570313 575 517.054688 C 583 514.113281 591.957031 514.011719 600 511 L 600 510 C 589.503906 507 577.960938 511.359375 568 514.667969 C 552.613281 519.773438 535.222656 525.355469 519 521.496094 C 506 518.425781 502.570313 508.339844 493 501 M 1007 501 C 1003.832031 506.15625 1000.738281 511.464844 995.960938 515.320313 C 969.242188 537 932 509.242188 903 509 C 908.269531 514.707031 917 513.761719 924 516.238281 C 944.507813 523.535156 964.492188 535.382813 987 532 C 1000.269531 530 1019.355469 515 1007 501 M 575 732 L 574 732 C 575.273438 716 582.730469 701.070313 584 685 C 574.625 690.734375 572.269531 709.1875 569 719 C 556 757.761719 557.277344 797 559 837 C 559.546875 848.597656 560.875 860.484375 562.425781 872 C 563 876.621094 562.707031 881.371094 567 884 C 567 848.6875 567.691406 813.5625 575.882813 779 C 584.253906 743.691406 599.417969 710.726563 609.574219 676 C 619.980469 640.433594 623.734375 602.660156 642.425781 570 C 652 553.023438 664.8125 537.78125 680 525.460938 C 687.851563 519.089844 703.441406 514 708 505 C 696.269531 508.328125 685.171875 512.652344 675 519.519531 C 627.96875 551.28125 620.914063 615.824219 602.945313 665 C 595 686.496094 577 709.027344 575 732 M 793 505 C 797.617188 514.382813 814.777344 520.308594 823 527.085938 C 839.71875 541 852.433594 558.023438 862.691406 577 C 879 607.269531 880.914063 642.480469 890.425781 675 C 901 711.371094 917.375 746 925.574219 783 C 933 817.1875 932.277344 850.492188 935 885 C 938.757813 882.140625 937.773438 877.308594 938.285156 873 C 939.546875 862.367188 940 851.59375 941.425781 841 C 946.695313 801 945.683594 755.230469 931.191406 717 C 927.765625 708 925 692.546875 918 686 C 918 701.707031 925.742188 715.597656 927 731 C 903.84375 691.328125 891.320313 645.136719 876.34375 602 C 864.484375 568 851.574219 532.113281 818 513.4375 C 810 509.070313 801.597656 507.226563 793 505 M 441 508 C 444.3125 517.761719 443 535.582031 450 543 C 450.640625 538 451 533.101563 451 528 L 452 528 C 452 550.59375 457.785156 572.679688 460.71875 595 C 467.253906 644.710938 474.210938 694.335938 481 744 C 483.488281 761 484.9375 777 482.421875 794 C 482 796 480.726563 811.460938 476.800781 808.824219 C 473 806.34375 475.785156 796.558594 476 793 C 477.773438 778 478.621094 763.03125 476.574219 748 C 469.921875 699.132813 454.652344 652 447.421875 603 C 445.550781 590.351563 444.4375 577.691406 443.167969 565 C 442.570313 559.023438 443 551.730469 439 547 C 439 621.46875 465 694 465 768 L 464 768 C 458.964844 758 456.839844 745.640625 452.945313 735 C 433.441406 681.667969 425.765625 628.546875 429.910156 572 C 431 556.636719 433 541.09375 436.210938 526 C 437.449219 520.148438 437.855469 513.144531 441 508 M 1194 512 L 1194 517 L 1193 517 C 1193 515.035156 1193.222656 513.769531 1194 512 M 619 658 C 624.347656 655 624.855469 648.503906 626.425781 643 C 629.300781 633 632.628906 622.578125 636.863281 613 C 646 592.097656 660 576.214844 677 561.167969 C 685.28125 553.8125 698.1875 548.316406 703 538 C 673.917969 548 646.59375 568.554688 634.425781 597 C 626 616.546875 624.269531 637.632813 619 658 M 798 539 C 803.65625 547.011719 812.59375 552.011719 820 558.273438 C 833 569.300781 845.832031 581.410156 854.933594 596 C 862.871094 608.71875 867.714844 622.832031 872.328125 637 C 874.636719 644.070313 875 653 881 658 C 878.632813 629.023438 869.171875 590.617188 848.828125 569.039063 C 841.9375 561.730469 832.53125 556.722656 824 551.601563 C 815.667969 546.597656 807.839844 540.453125 798 539 M 1086 573 L 1086 578 L 1085 578 C 1085 576.035156 1085.222656 574.769531 1086 573 M 478 579 C 494.449219 608.660156 496.304688 639.21875 502 672 C 503.628906 680.765625 510.695313 685.453125 512.683594 693.039063 C 514.847656 701.3125 510.578125 712 509 720 L 508 720 C 497 686.082031 487.179688 652.046875 480.609375 617 C 478.65625 606.558594 472 588.746094 478 579 M 1025 579 C 1024.980469 610.238281 1016.246094 641.078125 1008 671 C 1003.726563 687.351563 1000.925781 704.445313 994 720 C 989.648438 714.160156 986.332031 700.308594 988.316406 693.105469 C 990.21875 686.210938 997.191406 682.226563 998.738281 674 C 1003 651 1005.816406 627.5625 1012.289063 605 C 1014.941406 595.769531 1016.894531 585.023438 1025 579 M 666 689 C 671.417969 686.335938 673 680.816406 676.359375 676 C 681 669 687.535156 663 691 655 L 692 655 C 691.429688 657.378906 691 659.558594 691 662 C 698 658 701.972656 650.253906 709 646.433594 C 717.800781 641.648438 730.847656 643.472656 736 633 C 727.703125 635 717.84375 634.519531 710 637.007813 C 704.933594 638.617188 701.332031 643 697 645.75 C 692.875 648.457031 687.933594 649.339844 684 652.394531 C 671.488281 662.105469 669.402344 674.746094 666 689 M 811 662 L 810 657 C 818.660156 666.410156 824.207031 681.316406 834 689 C 833.964844 676 828.628906 661.671875 818 653.394531 C 814 650.335938 809 649.492188 805 647 C 800.820313 644.222656 797.597656 640.074219 793 638.089844 C 786.988281 635.496094 777.589844 635.03125 771 633.671875 C 769.929688 633.449219 764.328125 632.296875 764.921875 635 C 765.460938 637.320313 770 638.460938 772 639.28125 C 778.269531 642 787.734375 643.660156 793 647.535156 C 799.398438 652.222656 803.203125 659.371094 811 662 M 480.667969 656.667969 C 480.722656 656.722656 480.777344 657.777344 480.332031 657.332031 C 480.277344 657.277344 480.222656 656.222656 480.667969 656.667969 M 654 666 C 645.34375 672.589844 637.675781 680.324219 630 688 C 630.972656 683.304688 632.582031 678.785156 633 674 C 618.355469 681 609 708 607 723 C 622.191406 715.410156 634.464844 695.789063 645.273438 683 C 649 678.585938 656.191406 672.335938 654 666 M 845 666 C 849.683594 682 867.335938 697 878 709 C 882.910156 714.3125 887.195313 720.363281 894 723 C 892.804688 708.363281 881.941406 679.308594 867 674 C 868.210938 678.292969 869.402344 682.574219 870 687 C 861.742188 680.132813 855.582031 669.511719 845 666 M 562 682 L 562 685 L 561 685 C 561.25 683.546875 561.316406 683.246094 562 682 M 560.667969 686.667969 C 560.722656 686.722656 560.777344 687.777344 560.332031 687.332031 C 560.277344 687.277344 560.222656 686.222656 560.667969 686.667969 M 871 687 L 870 688 L 871 687 M 560 689 L 559 690 L 560 689 M 559 692 L 558 693 L 559 692 M 252 708 C 247.613281 716.367188 246.9375 727 244.625 736 C 241 749.683594 236.367188 763 230.988281 776 C 211.703125 822.742188 183.957031 869.300781 176.730469 920 C 174.234375 937.503906 174.839844 958.050781 180 975 C 181.921875 981.195313 182.8125 988.78125 189 992 C 185 975.261719 178.890625 959.488281 180 942 C 183.496094 892.28125 213.933594 845 231 799 C 238.964844 777.773438 245.648438 756.257813 250 734 C 251.433594 726.675781 254.957031 715.054688 252 708 M 665 708 C 658.703125 716.1875 653.511719 725.179688 646.710938 733 C 639.617188 741.152344 631.355469 748.289063 626.261719 758 C 618.578125 772.648438 616.570313 788.773438 614.835938 805 C 612 831.417969 611.703125 859.625 623.96875 884 C 631.929688 899.820313 645.503906 909 656.699219 922 C 664.550781 931.15625 670.734375 942.0625 681 949 C 691.609375 956 704.742188 957 716 962.609375 C 729 969.230469 740.441406 985 757 980.210938 C 762 978.761719 766.425781 975.535156 771 973 C 768.871094 975.277344 767.300781 977.179688 766 980 C 783.601563 982.226563 798 973.363281 815 973 L 815 974 C 802 975.121094 790 981.386719 777 982 C 773.175781 982.128906 764.476563 980.324219 761.707031 983.601563 C 759.332031 986.417969 762.957031 991.414063 764.246094 994 C 768.539063 1002.589844 772 1013.148438 780 1019 C 779.628906 1014.457031 778.167969 1010.371094 777 1006 L 778 1006 C 779.324219 1010.175781 781 1013.8125 785 1016 L 780 1001 L 781 1001 C 784.609375 1008.597656 790.792969 1017.210938 799 1020 C 798.726563 1013.703125 796.40625 1008.074219 795 1002 L 796 1002 C 797.371094 1004.546875 798.21875 1005.1875 801 1006 L 799 1000 C 802.175781 1002.511719 806.871094 1007.457031 810 1003 C 818.632813 1010.335938 825.917969 1010.746094 818 999 L 822 999 C 820.988281 995.296875 819.570313 991.8125 819 988 C 823.558594 990 827.363281 993.21875 832 995 C 831.769531 984 827.578125 977.414063 821 969 C 827.414063 968.722656 833.535156 967.019531 840 967 C 837.882813 961.597656 840.75 960.289063 846 960 C 845 958 845 958 843 957 L 843 956 C 853.46875 952.246094 857.609375 941.527344 863.882813 933 C 881 909.632813 899.371094 882.683594 896 852 C 888.683594 860.300781 886.382813 875.1875 880.546875 885 C 872 899.09375 859.910156 907.191406 849.300781 919.039063 C 841.855469 927.355469 837.566406 938.34375 828.984375 945.675781 C 817.617188 955.386719 802.582031 957.515625 789 962.546875 C 782.621094 965 777 970 771 973 C 787.570313 957.78125 812 959 827.828125 943.710938 C 835.695313 936.121094 840.789063 926.050781 848.285156 918.089844 C 860.417969 905.207031 872.414063 897 879.570313 880 C 889.386719 857 888.609375 831.398438 886.167969 807 C 884.566406 791 883 774.632813 875.730469 760 C 870 748.792969 860.5625 740.445313 852.589844 731 C 846.40625 723.671875 841.78125 713.613281 834 708 C 838 735.230469 867.65625 754.144531 875 781 L 874 781 C 863.414063 748 815.644531 741.59375 787 748.234375 C 773.6875 751.324219 760.976563 758 747 757 C 721.34375 755.113281 700.714844 742.597656 674 747.425781 C 655.796875 750.714844 632.660156 761.769531 627 781 L 626 781 C 628.882813 761.753906 645.265625 745.601563 655.667969 730 C 659.542969 724.183594 667.910156 715.472656 665 708 M 1247 708 C 1248.628906 787 1304.703125 851.808594 1318.738281 927 C 1321.34375 941 1321.9375 955.03125 1319.195313 969 C 1317.660156 976.828125 1314 984.113281 1313 992 C 1326.460938 981.363281 1325 952.4375 1325 937 C 1325 879 1287.800781 825.808594 1268 773 C 1262.886719 759.195313 1257.59375 745.386719 1254.234375 731 C 1252.46875 723.425781 1252.75 713.757813 1247 708 M 927.667969 731.667969 C 927.722656 731.722656 927.777344 732.777344 927.332031 732.332031 C 927.277344 732.277344 927.222656 731.222656 927.667969 731.667969 M 955 731 C 955 750.777344 965.902344 768.320313 971 787 C 975.261719 784 974.382813 776.738281 973.699219 772 C 972 760.441406 963.203125 739.183594 955 731 M 544 732 C 540.523438 747.027344 520.277344 770.304688 531 786 C 537.9375 770.320313 545.953125 749.285156 546 732 L 544 732 M 758 783 L 758 784 C 778.566406 777.523438 801.582031 777 823 777 L 823 778 C 814 780 800.691406 781.527344 794 788 C 808 788 828.566406 782.5 839 795 C 828.777344 793.101563 818.292969 795.558594 808 796 L 808 798 C 819.957031 796.589844 837.972656 796.632813 846 807 C 842.632813 807.800781 839.453125 808 836 808 C 841.167969 813 847.390625 813.328125 850 821 L 829 813 C 835.804688 822.652344 847 828 852 839 C 845.527344 837.230469 839.828125 834.296875 833 834 C 835.734375 836.546875 838.3125 838.660156 840 842 C 823.449219 838.015625 808.363281 839.257813 792 843 C 794.878906 839 798.472656 835.527344 802 832 C 794.65625 835.058594 787.996094 839.273438 781 843 C 781.8125 837.5 783.75 832.074219 786 827 C 780.460938 831.578125 777.71875 838.589844 772 843 L 773 826 L 771 826 C 770.3125 832.710938 766.457031 838.351563 763 844 L 762 844 L 762 832 C 758.796875 835.300781 757 840 755 844 L 754 844 C 753 836.617188 751 829.488281 751 822 L 749 822 C 748.9375 829.488281 746.953125 836.617188 746 844 L 745 844 L 740 832 C 738.8125 836.226563 738 839.65625 739 844 L 738 844 C 734.601563 838.179688 732.21875 831.4375 727 827 C 728.515625 832.078125 728.957031 837.695313 729 843 C 722.777344 838.414063 720.320313 831.246094 715 826 L 720 843 C 712.9375 839.238281 706.640625 834.601563 699 832 C 703 836 707.652344 839.449219 711 844 C 702 842 693.316406 838.402344 684 838.039063 C 675.59375 837.710938 667.332031 840.339844 659 841 C 661 838.234375 662.949219 836.589844 666 835 L 666 834 C 659.71875 834.285156 654 837.089844 648 838 C 653.484375 827.429688 665 822.347656 672 813 C 664.804688 815.757813 657.429688 819 650 821 C 652.792969 815.015625 657.898438 811.269531 664 809 L 664 808 L 654 807 C 663 796.058594 680.242188 798 693 798 L 693 797 C 681.996094 794.730469 673 794.523438 662 795 L 662 794 C 677.433594 788.046875 689.84375 788 706 788 C 698.484375 781.824219 688.710938 778.421875 679 778 L 679 777 C 700.910156 776.058594 724.734375 773.320313 745 784 C 736.957031 774.546875 720.636719 772.085938 709 769.804688 C 682.324219 764.570313 646.640625 766 633.878906 795 C 627.667969 809.117188 629 825 629 840 C 629 855.035156 628 872.671875 638.328125 885 C 650.96875 900.253906 666.605469 892.816406 683 898 C 669.285156 916.566406 643.71875 902.535156 634.453125 887 C 618 859.679688 614.703125 823.671875 626 794 C 628.703125 787.109375 632.496094 780.601563 637.300781 775 C 656.765625 752.289063 688.804688 751.492188 716 757.003906 C 728.375 759.511719 741.195313 764.773438 754 764 C 789.246094 761.539063 823.65625 742.066406 856 767.519531 C 861 771.511719 865.246094 776.464844 868.546875 782 C 885.203125 810 884.207031 844.550781 871.988281 874 C 864.582031 892 850.828125 906.703125 830 903.699219 C 826.636719 903.214844 809 898.601563 813 892.738281 C 815.726563 889 827.179688 891.136719 831 891.753906 C 843.789063 893.824219 856.738281 896.578125 864.199219 883 C 870.328125 872 870 859.316406 870 847 C 870 818.296875 866.21875 787.65625 836 775.453125 C 811.367188 765.503906 781.542969 773.394531 758 783 M 594 773 C 582.976563 778.421875 580 801 578 812 C 570 852.210938 574 898.277344 587 937 C 591.722656 951.167969 598.792969 966.550781 590.332031 980 C 589.378906 981.496094 588.304688 984.164063 591 984.125 C 596.257813 984.050781 599.878906 978.085938 601.523438 974 C 606.285156 962.15625 603 949.066406 601 937 C 594.804688 899.394531 581.351563 861.558594 583 823 C 583.804688 805.554688 588.71875 789.519531 594 773 M 907 773 C 908.902344 788 916.296875 802 916.960938 817 C 918.785156 858.597656 907.476563 899.554688 899.398438 940 C 897.472656 949.648438 891.574219 983.199219 908.847656 984 C 911.515625 984.074219 911.28125 981.738281 910.382813 980 C 902.832031 965.171875 909.636719 951.152344 914.667969 936 C 927.300781 898 929.738281 854.425781 923 815 C 920.988281 802.605469 917.296875 781.085938 907 773 M 625.667969 781.667969 C 625.722656 781.722656 625.777344 782.777344 625.332031 782.332031 C 625.277344 782.277344 625.222656 781.222656 625.667969 781.667969 M 875.667969 781.667969 C 875.722656 781.722656 875.777344 782.777344 875.332031 782.332031 C 875.277344 782.277344 875.222656 781.222656 875.667969 781.667969 M 976 807 L 976 814 L 975 814 C 975 811.457031 975 809.332031 976 807 M 977 815 L 977 825 L 976 825 C 976 821.585938 975.671875 818.164063 977 815 M 978 828 L 978 832 L 977 832 C 977.175781 830.316406 977.316406 829.507813 978 828 M 652 872 C 649.75 864.367188 659 856.515625 665 853.324219 C 679.972656 845.285156 700 848.597656 712.996094 859.328125 C 730.28125 873.757813 733 900.308594 721.53125 919 C 712.800781 933.0625 689 944 674 933.148438 C 670 930.300781 659.230469 916 665.601563 911.195313 C 670.265625 907.695313 679.714844 915.320313 684 917.125 C 696.316406 922.308594 708.203125 920.21875 716.210938 909 C 731 888.089844 712.308594 857 689 852.46875 C 673 849.476563 660 859.058594 652 872 M 850 873 C 839 862.289063 831.617188 849.761719 814 852.300781 C 784.859375 856.5 765.226563 899.304688 793 918.085938 C 804.25 925.691406 814.722656 921 826.941406 922.058594 C 832.730469 922.605469 829.265625 928.070313 826.671875 930.671875 C 814.675781 942.691406 791.871094 934.023438 782.46875 923 C 768.757813 906.828125 768.863281 881.25 782.328125 865 C 800.199219 843.433594 842.410156 841.054688 850 873 M 604 852 C 604 876.40625 611.460938 896.441406 625.882813 916 C 631.570313 923.714844 637.65625 931.035156 643 939 C 645.328125 942.46875 648.804688 945.675781 648 950 C 655.917969 954 656.894531 960.085938 666 963 C 664.183594 964.296875 663 965.136719 662 967 C 668.675781 967.003906 674.589844 968.195313 681 970 C 675.421875 974.34375 672.414063 979.273438 670.347656 986 C 669.804688 987.765625 668 992.226563 670.605469 993.289063 C 674.242188 994.804688 680.167969 988.765625 683 987 C 681.273438 991 679.722656 994.808594 679 999 L 684 998 C 670.792969 1015.328125 691.769531 1004.660156 699 998 C 698.382813 1005.699219 704 1005 707 999 L 708 999 C 706.28125 1006.257813 703 1012.378906 703 1020 C 710.929688 1016.511719 717.523438 1009.355469 720 1001 L 721 1001 C 719.753906 1006.382813 717.742188 1011.496094 717 1017 L 718 1017 C 719.714844 1014.375 721 1012 722 1009 L 723 1009 L 721 1018 C 729.984375 1012.125 733.199219 1002.542969 737 993 C 737.96875 990.570313 741 985.277344 738.355469 983.03125 C 734.949219 980.175781 724.304688 984 720 984 C 707 984.039063 697 978.292969 685 975 C 692.445313 969.507813 696.453125 974.75 704 977.25 C 712.539063 980.078125 725.277344 982.578125 734 980 L 734 979 C 730.398438 977.664063 726.535156 974 723 974 C 722.519531 971.636719 722.363281 971.480469 720 971 C 720.984375 969.519531 721 969.796875 721 968 C 714.476563 967.515625 709 962.394531 703 960.066406 C 694.832031 957 685.445313 955.824219 678 951.03125 C 666.464844 943.601563 659.949219 930.390625 651.621094 920 C 642.574219 908.71875 631 900.203125 623 888 C 616.464844 878.113281 614.253906 858.269531 604 852 M 956 903 L 956 908 L 955 908 C 955 906.035156 955.222656 904.769531 956 903 M 738 1170 C 743.941406 1171.804688 757.871094 1168.519531 761.96875 1172 C 765.625 1175 763.773438 1182.828125 764.171875 1187 C 765.460938 1200.574219 763.410156 1216.691406 770.53125 1229 C 776.570313 1239.429688 789.636719 1239.597656 797.945313 1247.214844 C 804.6875 1253.390625 801 1265 808.226563 1270.257813 C 814.394531 1275 826.90625 1271.445313 834 1271.257813 C 851.769531 1270.792969 864.84375 1276.699219 883 1271.113281 C 904.179688 1264.601563 907 1249.417969 919.519531 1234.015625 C 925.984375 1226 936 1222.085938 942.621094 1214 C 957.800781 1195.113281 967 1163.035156 965.960938 1139 C 964.746094 1111.246094 949.5 1087.367188 954.613281 1059 C 958.265625 1038.742188 965.425781 1019 962.710938 998 C 960.234375 979 949 962.21875 943.722656 944 C 940.597656 933.464844 943 911.601563 933 905 C 933 921.070313 931.308594 939.191406 934 955 C 936.457031 968.507813 943.503906 983.078125 941.570313 997 C 939.421875 1012.484375 927.730469 1026.640625 911 1026 C 894.199219 1025.277344 886.671875 1008.488281 872 1005 C 878.707031 1021.027344 897.757813 1039.664063 916 1041.582031 C 934.980469 1043.578125 950.273438 1020.675781 951 1004 L 952 1004 C 951.988281 1020.539063 941.808594 1027.738281 937 1042 L 944 1040 C 940 1056.308594 939.484375 1073 933.996094 1089 C 930.578125 1099 922.570313 1106.796875 920 1117 C 926.703125 1114.527344 931.984375 1110.570313 936.484375 1105.003906 C 937.5625 1103.667969 939.882813 1099.199219 942 1100.207031 C 947.25 1102.449219 949.414063 1123 950.246094 1128 C 954.882813 1156.375 945.917969 1201.039063 914 1210.210938 C 890.695313 1217 872.878906 1192.179688 861.289063 1176 C 844.695313 1152.828125 826 1130.582031 815 1104 C 807.238281 1085.269531 804 1054.644531 788 1041 C 789.195313 1055.628906 798 1068.492188 800 1083 L 799 1083 C 795.515625 1071.15625 784.558594 1062.726563 777.488281 1053 C 769.515625 1042.027344 764.582031 1027.527344 764 1014 L 762 1014 C 762 1028.765625 762.324219 1041.164063 768 1055 L 767 1055 C 759.878906 1039.742188 755.277344 1025 754 1008 C 753.625 1001.386719 755 989.125 749 985 C 749 1009.6875 743.308594 1030.132813 735 1053 L 734 1053 C 737.535156 1040.050781 740 1028.558594 740 1015 C 731.632813 1019.761719 732.742188 1034 729.535156 1042 C 723.523438 1057.242188 706.625 1066.398438 702 1082 L 701 1082 C 702.863281 1068.167969 710.175781 1055.648438 713 1042 C 707.253906 1045 705 1051.457031 702.246094 1057 C 695 1071.464844 691.710938 1087.054688 685.796875 1102 C 677.179688 1123.773438 662.191406 1141.679688 649.332031 1161 C 639.28125 1176.105469 630.171875 1193.238281 615 1204 C 593.894531 1219 572.296875 1206 560.453125 1186 C 545.195313 1160.402344 545 1123.167969 559 1097 C 563.441406 1106.386719 570.636719 1114.515625 581 1117 C 578.199219 1109.347656 572.351563 1103.398438 569 1096 C 561.480469 1079.105469 557 1058.511719 557 1040 C 560.238281 1042.207031 563 1043.417969 567 1044 C 564.726563 1038.179688 559.554688 1035 555.925781 1030 C 550.929688 1023.175781 549 1015.339844 549 1007 L 550 1007 C 550.710938 1022.476563 568 1042.050781 584.742188 1041.234375 C 587.910156 1041.078125 592 1037.464844 595 1036.140625 C 608.5 1030.089844 623.605469 1020 628 1005 C 613 1008.535156 605.347656 1025.820313 588 1025.820313 C 574.4375 1025.820313 561.527344 1014.1875 559.324219 1001 C 556.578125 984.5625 564.273438 968.042969 566.570313 952 C 568.738281 937 567 920.265625 567 905 C 558.605469 910.75 559.378906 934.464844 556.707031 944 C 551.226563 963.554688 539.222656 981.488281 537.171875 1002 C 535.207031 1021.625 542.203125 1040.023438 545.738281 1059 C 551 1087.324219 536.761719 1112.320313 534.171875 1140 C 531.996094 1163.226563 543.480469 1189.542969 555 1209 C 561.511719 1220 572.59375 1224 580.894531 1233.003906 C 587.566406 1240.3125 589.554688 1250.605469 596.183594 1258 C 614.910156 1278.824219 639.855469 1274 664 1271.46875 C 673 1270.5625 685.832031 1275.414063 693.867188 1269.296875 C 700.554688 1264.203125 696.988281 1254.117188 702.277344 1248.105469 C 709.308594 1240.113281 721.660156 1240.457031 728.46875 1232 C 736.191406 1222.316406 733.539063 1208.421875 734 1197 C 734.433594 1188.007813 736.871094 1179 738 1170 M 571 906 C 571 928.628906 578.535156 950.40625 579 973 C 584.644531 969.535156 585.6875 961.203125 585.960938 955 C 586.730469 937.433594 575.289063 923 573 906 L 571 906 M 927 906 C 923.445313 921.496094 916.765625 936.210938 914.578125 952 C 913.554688 959.414063 915 969 922 973 C 925 956.78125 925.585938 940.351563 927.171875 924 C 927.734375 918.152344 930.859375 911.097656 927 906 M 957 910 C 957.78125 920 961 929.3125 962.75 939 C 963.203125 941.585938 963.378906 947.488281 966.203125 948.792969 C 968.496094 950 969.40625 945.339844 969.710938 944 C 971 938.195313 971.878906 932 972 926 L 973 926 C 972.957031 942.050781 968.332031 958 968 974 L 967 974 C 966.347656 959.058594 960.890625 943.78125 958.414063 929 C 957.449219 923.246094 954.695313 915.539063 957 910 M 318 913 C 318 970.398438 314.933594 1025.238281 299.847656 1081 C 284.414063 1138.058594 256.695313 1194.484375 252 1254 C 258.320313 1250 258.382813 1241.65625 260 1235 C 264 1220.054688 269.636719 1205.472656 275 1191 C 299.941406 1124.457031 322 1062.015625 322 990 C 322 971 321 952 321 933 C 321 927.285156 323 916.644531 318 913 M 1180 913 C 1176.390625 928.15625 1179.640625 945.480469 1178.960938 961 C 1177 1004.398438 1179.296875 1047.613281 1189.894531 1090 C 1197.363281 1120 1209.320313 1148.21875 1220 1177 C 1226.707031 1195 1234.40625 1212.542969 1239.265625 1231 C 1241.179688 1238.265625 1241 1249.507813 1248 1254 C 1248 1226.683594 1236.515625 1199 1228.71875 1173 C 1212.582031 1119.429688 1192.183594 1066.007813 1186 1010 C 1183.714844 987.195313 1181.730469 964 1182 941 C 1182 932.480469 1186 920.078125 1180 913 M 1092 985 L 1092 991 L 1091 991 C 1091 988.746094 1091 987.050781 1092 985 M 332 987 C 325.3125 1009.617188 324.695313 1035.667969 320.195313 1059 C 312.507813 1099 301.683594 1137.6875 292 1177 C 301.472656 1171.625 304.90625 1150.808594 308.34375 1141 C 320.882813 1105.21875 331 1066.148438 332 1028 C 332.210938 1019.105469 332.480469 1010 333 1001 C 333.425781 996.066406 335.203125 991.226563 332 987 M 410 988 L 410 995 L 409 995 C 409 992.457031 409 990.332031 410 988 M 1166 988 C 1169.714844 1003.605469 1167.558594 1022 1169.167969 1038 C 1172.378906 1070.117188 1178.785156 1102.355469 1189 1133 C 1192.480469 1143.441406 1196.34375 1153.769531 1200.398438 1164 C 1202.300781 1168.796875 1203.398438 1174.179688 1208 1177 C 1206.671875 1160.71875 1200.335938 1144 1196.371094 1128 C 1188.667969 1097.179688 1180.980469 1066.359375 1175.753906 1035 C 1173.867188 1023.695313 1172.347656 1012.34375 1170.730469 1001 C 1170 996.070313 1170.699219 990.746094 1166 988 M 685 997 L 684 998 L 685 997 M 709 998 L 708 999 L 709 998 M 799 1000 C 797.363281 999.453125 797.546875 999.636719 797 998 C 798.636719 998.546875 798.453125 998.363281 799 1000 M 721.667969 999.667969 C 721.722656 999.722656 721.777344 1000.777344 721.332031 1000.332031 C 721.277344 1000.277344 721.222656 999.222656 721.667969 999.667969 M 779.667969 999.667969 C 779.722656 999.722656 779.777344 1000.777344 779.332031 1000.332031 C 779.277344 1000.277344 779.222656 999.222656 779.667969 999.667969 M 727 1000 L 726 1001 L 727 1000 M 775 1000 L 774 1001 L 775 1000 M 726 1002 L 724 1009 L 723 1009 C 723.507813 1006.164063 724.199219 1004.246094 726 1002 M 776 1002 L 777 1006 L 776 1006 C 775.691406 1004.242188 775.59375 1003.660156 776 1002 M 1287 1028 L 1288 1033 L 1287 1033 C 1286.5625 1031 1286.378906 1030 1287 1028 M 213.667969 1030.667969 C 213.722656 1030.722656 213.777344 1031.777344 213.332031 1031.332031 C 213.277344 1031.277344 213.222656 1030.222656 213.667969 1030.667969 M 666 1036 C 661.796875 1044.734375 662.496094 1056.46875 660.921875 1066 C 657.804688 1085 652.902344 1104 642.304688 1120 C 636 1129.488281 624.839844 1142.371094 612 1138.347656 C 604.261719 1136 600.296875 1127.527344 594 1123 C 595.371094 1132.320313 598.808594 1144.71875 607 1150.296875 C 619.433594 1158.738281 634.878906 1147.445313 642.671875 1138 C 659 1118.203125 664.648438 1086 666 1061 C 666.464844 1053.316406 669 1043.3125 666 1036 M 834 1036 C 834 1067.484375 836.332031 1101 852 1129 C 859.253906 1141.59375 878.988281 1162.78125 894.816406 1149.441406 C 901.878906 1143.488281 903.816406 1132.253906 907 1124 C 897.269531 1127.769531 892.570313 1139.699219 881 1139 C 869.339844 1138.101563 861.394531 1126.1875 856 1117 C 842.355469 1093 836 1063.632813 836 1036 L 834 1036 M 805 1039 C 805.890625 1047.683594 812 1054.738281 814.5625 1063 C 820.808594 1083.636719 824.726563 1104.03125 835.578125 1123 C 839.394531 1129.671875 842.746094 1137.589844 850 1141 C 847.441406 1130.207031 840.789063 1121.238281 836.8125 1111 C 828.648438 1090 823.914063 1053 805 1039 M 695 1040 C 676.285156 1054.386719 671.71875 1090.769531 663.199219 1112 C 659.355469 1121.578125 652.765625 1130.753906 651 1141 C 673 1125.417969 678.550781 1090.050781 686 1066 C 688.214844 1059 696 1047 695 1040 M 584 1073 L 583 1073 C 572.347656 1095.132813 599.609375 1100.796875 615 1095 C 637 1086.53125 651.671875 1063.304688 656 1041 C 648.425781 1045.15625 646.980469 1056.273438 642 1063 C 633.371094 1075 611.203125 1093.199219 595 1085.425781 C 589.738281 1083 587 1077.648438 584 1073 M 845 1041 C 848.460938 1066.691406 874.957031 1104.363281 905 1097.605469 C 914.597656 1095.445313 927.535156 1078.578125 915 1072 C 912.933594 1083.40625 901.714844 1088.699219 891 1086.101563 C 876.90625 1082.679688 863.308594 1071.289063 855.929688 1059 C 852.390625 1053.109375 851 1044.765625 845 1041 M 734 1053 C 733.316406 1054.578125 733.195313 1054.777344 732 1056 C 732.691406 1054.609375 732.984375 1054.140625 734 1053 M 769 1055 L 771 1059 L 770 1059 C 769.199219 1057.261719 768.945313 1056.804688 769 1055 M 700.667969 1082.667969 C 700.722656 1082.722656 700.777344 1083.777344 700.332031 1083.332031 C 700.277344 1083.277344 700.222656 1082.222656 700.667969 1082.667969 M 763 1084 C 764.320313 1088.183594 763 1102.171875 765.933594 1104.535156 C 768 1106.347656 770.34375 1102.539063 771 1101 C 773.859375 1096 774.882813 1089.6875 775 1084 C 785.359375 1091.824219 780.65625 1107.046875 776 1117 L 775 1117 C 777.246094 1109.003906 777 1101.242188 777 1093 L 775 1093 C 775 1104.773438 772.753906 1115 769 1126 L 768 1126 L 771 1113 C 767.480469 1115.757813 765.453125 1119.296875 763 1123 C 761.4375 1121.277344 761.285156 1119.402344 759 1121 C 753.585938 1115.738281 752 1114.242188 752 1106 C 748.625 1109.210938 747.667969 1113.460938 747 1118 L 742 1114 L 743 1117 L 739 1116 C 739.414063 1120.734375 741.214844 1124.648438 743 1129 C 735.960938 1125.023438 735.214844 1117.375 730 1112 C 732 1117.25 734.449219 1122.578125 736 1128 L 735 1128 C 728.4375 1116.753906 726 1106 726 1093 L 724 1093 C 724 1101.761719 724.324219 1109.582031 727 1118 L 726 1118 C 722.300781 1111.054688 719 1102 720.300781 1094 C 720.5625 1092.199219 721.570313 1086.261719 724.507813 1087 C 727.175781 1087.519531 728 1101.21875 730 1104 C 737.320313 1114.410156 740.304688 1089.742188 741 1086 L 742 1086 C 743 1091.351563 744.761719 1096.511719 745 1102 L 747 1102 L 748 1089 L 749 1089 C 750 1093.324219 750.90625 1097.523438 751 1102 L 753 1102 C 753 1096.167969 754.257813 1090.746094 755 1085 L 756 1085 C 757.847656 1090 758.492188 1096 762 1100 C 762 1095 761 1088.722656 763 1084 M 801 1084 L 800 1085 L 801 1084 M 735 1085 L 734 1104 L 733 1104 C 733 1098 731.761719 1090.40625 735 1085 M 701 1115 C 707.507813 1121.511719 713.414063 1128.558594 720 1135 C 724.289063 1139.171875 728.949219 1143.054688 734 1146.300781 C 764 1165.671875 780.574219 1130.035156 801 1115 C 786.269531 1150.382813 747.441406 1168.394531 718 1139 C 712.285156 1133.296875 700.285156 1124.015625 701 1115 M 768 1127 L 767 1128 L 768 1127 M 680 1227 C 679 1221.398438 676.484375 1216.429688 675 1211 L 676 1211 C 678.175781 1214.183594 680.398438 1217.148438 683 1220 C 679.980469 1205.417969 669.414063 1193.664063 667.300781 1179 C 666.84375 1176 665.933594 1166.128906 669.59375 1164.347656 C 672.273438 1163.042969 675.265625 1175.1875 676 1177 C 680.832031 1187 688.378906 1195 697 1201.574219 C 698.957031 1203.09375 704.476563 1208.488281 707.292969 1206.746094 C 711 1204.453125 700.566406 1190.335938 698.972656 1188 C 696.277344 1184.058594 693.316406 1180.417969 689.984375 1177 C 684.480469 1171.351563 678.5625 1166.148438 675 1159 C 686.738281 1164.230469 693 1176.832031 705 1182 C 696 1172.617188 688 1161.828125 685 1149 C 692.910156 1153.710938 696.625 1163.335938 704 1169 C 699.765625 1161.390625 694 1154.589844 691.925781 1146 C 691.398438 1144 690 1138.214844 693.316406 1137.632813 C 697.992188 1136.804688 705 1149 707.84375 1152 C 715.453125 1160.660156 720.753906 1169.042969 718.671875 1181 C 717.71875 1186.472656 714.484375 1191.339844 714.261719 1197 C 713.945313 1205.125 717.652344 1213.617188 712.195313 1221 C 706.773438 1228.148438 698.796875 1225.6875 692 1230 C 687.421875 1232.683594 686 1238.171875 681.894531 1241.347656 C 673.804688 1247.503906 660.351563 1243 654.378906 1236 C 648.664063 1229.226563 643.761719 1219 644 1210 C 644 1207 645.464844 1200.496094 649.375 1200.035156 C 652.914063 1199.621094 656.832031 1204.785156 658.960938 1207 C 665.78125 1214.09375 671.589844 1221.65625 680 1227 M 797 1169 C 804.953125 1163.140625 808.417969 1153.171875 816 1147 C 813.992188 1162 804 1171.171875 796 1183 C 806.488281 1176 814.605469 1164.421875 826 1159 C 821.914063 1167 814 1172.089844 808.667969 1179 C 801.445313 1188.167969 796.40625 1198.726563 791 1209 C 811 1204.21875 826 1180.652344 829 1161 L 831 1161 C 833.886719 1183.71875 822.53125 1198.679688 817 1220 C 820.558594 1217.253906 822.820313 1214 825 1210 L 826 1210 L 820 1227 C 827.488281 1222.316406 833.890625 1215.597656 839.714844 1209 C 842.367188 1206 845.648438 1200.804688 850 1200.210938 C 857.851563 1199.140625 857.691406 1208.222656 856.277344 1213 C 851.933594 1227.683594 842.332031 1249.414063 823 1243.195313 C 816.585938 1241.125 815.992188 1234.234375 810.894531 1230.742188 C 805 1226.800781 797.921875 1228.792969 792 1223.671875 C 781.292969 1214.308594 786.949219 1206.496094 786.527344 1195 C 786.300781 1189 782.925781 1183 781.667969 1177 C 778.855469 1163.636719 790 1156 797.816406 1147 C 799.9375 1144.585938 803.175781 1137.414063 806.863281 1137.347656 C 810.808594 1137.273438 809.257813 1144 808.761719 1146 C 806.730469 1154.503906 801 1161.417969 797 1169 M 573 1184 C 574.472656 1188.613281 588.757813 1204.273438 592.304688 1194 C 594.453125 1187.535156 585.925781 1177.65625 582.570313 1173 C 580.824219 1170.574219 576.472656 1163.382813 572.617188 1164.753906 C 566.6875 1167 583 1180.761719 573 1184 M 924.953125 1165.175781 C 918.292969 1167.777344 910.964844 1181.609375 908.480469 1188 C 906 1194.101563 909.492188 1198.304688 916 1196.144531 C 919.613281 1195 926.972656 1190.191406 926 1185.546875 C 925.707031 1183.25 923 1182.714844 923.421875 1180 C 923.84375 1175.652344 927.613281 1172.300781 928.214844 1168.058594 C 928.527344 1166 927.238281 1164.285156 924.953125 1165.175781 M 675 1209 L 674 1210 L 675 1209 M 648 1237 L 646 1232 C 652.648438 1235.167969 660.414063 1247.550781 650.941406 1252.425781 C 645.183594 1255.394531 637.269531 1252.503906 632 1249.675781 C 625 1246 620.367188 1240 619.304688 1232 C 618.882813 1229 619.167969 1223.679688 623 1222.832031 C 628.820313 1221.601563 642.859375 1234 648 1237 M 856 1230 L 852 1237 C 857.433594 1233.824219 871.773438 1221.296875 877.851563 1222.816406 C 881.269531 1223.671875 881 1228.265625 880.960938 1231 C 880.628906 1238.832031 875.855469 1246 869 1249.582031 C 851.175781 1259.308594 836.429688 1240.238281 856 1230 M 601 1237 C 609.535156 1242.753906 626.445313 1245.765625 630 1256 C 623 1255.238281 600.828125 1245.015625 601 1237 M 902 1237 C 895.808594 1245.386719 880.269531 1254.167969 870 1256 C 874.984375 1246.476563 892.199219 1240.589844 902 1237 "/>
</g>
</svg>
