<?xml version="1.0" encoding="UTF-8"?>
<svg xmlns="http://www.w3.org/2000/svg" xmlns:xlink="http://www.w3.org/1999/xlink" width="1500pt" height="1500pt" viewBox="0 0 1500 1500" version="1.1">
<g id="surface1">
<path style=" stroke:none;fill-rule:nonzero;fill:rgb(0%,0%,0%);fill-opacity:1;" d="M 355 764 C 366.433594 760.636719 374.554688 751.085938 387 750 C 383.699219 756.359375 377.859375 760.558594 373.324219 766 C 364.378906 776.738281 360 790.636719 356.882813 804 C 356 807.203125 352.851563 816.585938 357.433594 818.292969 C 362.722656 820.261719 371 811.785156 375 809.21875 C 379.3125 806.441406 383.726563 803.828125 388 801 C 379.984375 825.648438 370.792969 850.730469 365 876 C 367.929688 876.003906 373 875.183594 374.800781 878.316406 C 376.671875 881.824219 373.730469 888.359375 373 892 C 370.699219 905.453125 369 919.816406 366 933 C 374.308594 930.347656 381 923.132813 388 918 C 382.222656 940.328125 378 965 378 988 C 377.996094 994 376 1006.199219 379.601563 1011.339844 C 381.464844 1014.007813 385.710938 1009.234375 386.960938 1008 C 392 1003 396 997 398 990 L 399 990 C 398.996094 1011.636719 396.445313 1033.765625 392.199219 1055 C 390.351563 1064.25 389.304688 1074.648438 384.652344 1083 C 379.707031 1092 370.632813 1097.046875 361 1099.523438 C 357.960938 1100.304688 349 1100.164063 348.644531 1104.277344 C 347.804688 1112.234375 355.851563 1122.78125 364 1118.144531 C 382 1108 397 1089.484375 414 1077 C 414 1107 411 1135.105469 417 1165 C 418.46875 1172.449219 419.492188 1188.460938 426 1193 C 426.578125 1165 434.429688 1140.484375 442 1114 L 443 1114 C 444.457031 1124 448.734375 1133.613281 452 1143 C 452.75 1145.144531 454.863281 1152 458.3125 1149.246094 C 461.742188 1146.660156 461.398438 1139 462.210938 1135 C 464.4375 1124.464844 467.652344 1113.394531 473 1104 C 479.421875 1123.734375 482.371094 1144.3125 488.746094 1164 C 494 1180.46875 502.992188 1195.546875 508.328125 1212 C 510.648438 1219.15625 510.269531 1226.738281 512 1234 C 521.742188 1226 524.703125 1212 527 1200 L 528 1200 C 528.632813 1207.203125 532.207031 1213.785156 535.71875 1220 C 544.613281 1235.734375 556.703125 1259.691406 575 1265 C 573.476563 1256.148438 568.222656 1248 564.246094 1240 C 554.644531 1220.800781 544.464844 1205.183594 531.925781 1188 C 527.234375 1181.566406 525.722656 1170.402344 519 1166 C 518 1173 517.628906 1180.050781 516.570313 1187 C 516.355469 1188.40625 516 1193 513.957031 1193 C 511.757813 1193 510.625 1188.535156 510 1187 C 507.578125 1181.046875 505.46875 1175.003906 503.191406 1169 C 496 1150.1875 489.808594 1131.375 484.425781 1112 C 482.59375 1105.417969 481 1092.445313 475.925781 1087.660156 C 473 1085.003906 468.996094 1090.050781 467.300781 1092.003906 C 461.96875 1098.144531 457.390625 1106 456 1114 L 455 1114 C 452.765625 1102 453 1090.160156 453 1078 C 437.273438 1085.394531 432.945313 1110.792969 421 1123 C 421 1098.648438 433.5 1076.1875 434 1052 C 421.960938 1056 412.574219 1067.207031 403 1075 C 403 1055.71875 408.597656 1037.144531 409.910156 1018 C 410.78125 1005.308594 406.484375 992.535156 408.4375 980 C 411 963.070313 418.644531 947.164063 420 930 C 401 937.347656 393.828125 967.3125 389 985 L 388 985 C 391.71875 961.214844 388.503906 936.78125 401.453125 915 C 403.289063 912 414.636719 897.632813 410.929688 894.121094 C 408 891.417969 395.496094 898.171875 392 899 C 399.910156 884.160156 412.191406 868.453125 416 852 C 402 856.753906 387.933594 881.34375 384 895 L 383 895 C 383.1875 872.445313 393.746094 847.53125 406 829 C 414 816.792969 426.351563 804.476563 430 790 C 415.351563 795.636719 394.78125 818 390 833 L 389 833 C 391 817.523438 398.519531 802.332031 407.898438 790 C 412.75 783.625 419.605469 778.324219 423 771 C 403.316406 774.816406 388.265625 783.386719 371 793 C 377.6875 779 385.796875 768.171875 398 758.261719 C 404.183594 753.238281 416.75 748.152344 419.199219 740.003906 C 420.628906 735.242188 415.683594 733.46875 412 732.671875 C 403.382813 730.796875 394 734.363281 386 737 C 393.382813 729 401 721.410156 408.714844 713.714844 C 410.785156 711.644531 414.777344 705.511719 418.351563 706.601563 C 420.808594 707.351563 421.648438 712 422.328125 714 C 424.464844 720.472656 425.496094 728.382813 429.648438 734 C 437 744.03125 464 748 476 748 C 472 756.402344 445.644531 777.484375 466 777 C 468 777 470 776.742188 472 776.335938 C 475.351563 775.648438 478.644531 774.691406 482 774 C 478.632813 785.367188 467.742188 792.09375 458 797.714844 C 454.621094 799.664063 445.929688 802.558594 444.347656 806.300781 C 442.597656 810.425781 464 807.652344 461 816.019531 C 458.789063 822.667969 450.488281 828.4375 446.234375 834 C 438.21875 844.484375 433 856.625 426.574219 868 C 422.496094 875.121094 416.46875 881.761719 415 890 C 431.9375 884.222656 442.546875 868 461 865.300781 C 468.40625 864.234375 474.902344 866.371094 482 868 L 482 869 C 465.328125 872 436 893.214844 430 909 C 434 908.644531 455.898438 901.667969 457.230469 909 C 457.886719 912.371094 449.273438 916.460938 447 918.15625 C 439.335938 924 433.640625 932.828125 431 942 C 444.816406 939.535156 456 928.105469 471 930.300781 C 476.742188 931.148438 480.953125 934.5 486 937 L 486 938 C 462.710938 939.003906 443.597656 948.402344 429.882813 967 C 427.859375 969.746094 414.40625 985.78125 419.617188 988.757813 C 422 990.183594 426 987 428 985.65625 C 434.246094 981.613281 440.671875 976.128906 448 974.195313 C 456 972.066406 464.488281 978.019531 472 980.078125 C 481.796875 982.765625 490.179688 981.246094 500 980 C 481.382813 998.632813 463 1023.476563 463 1051 C 475.65625 1044.695313 483 1028.535156 498 1027 C 492 1041.53125 486.707031 1057.367188 492 1073 C 505.5625 1063.726563 514.574219 1044.621094 532 1042 L 528 1052 C 535.234375 1050.117188 541.554688 1043.816406 548 1040 C 538 1063.664063 519.292969 1083.425781 514 1109 C 523.949219 1105 538.628906 1092 549.941406 1093.503906 C 557.246094 1094.539063 553 1111.0625 553 1116 C 552.992188 1133.304688 556.488281 1150.65625 554.828125 1168 C 554.332031 1173.207031 550.265625 1185 554.179688 1189.351563 C 557.527344 1193.175781 562.78125 1185.128906 564.371094 1183 C 571 1174.050781 580 1162.164063 582 1151 L 583 1151 C 583 1171.171875 587.222656 1192 584.574219 1212 C 584.347656 1213.734375 582.785156 1229.476563 586.585938 1227.652344 C 590 1226 589.777344 1214.460938 590.746094 1211 C 594.394531 1198 600.859375 1185 610 1175 C 610 1197.726563 619 1221.070313 627.1875 1242 C 630.3125 1250.066406 632.578125 1260 641 1264 L 642 1240 L 643 1240 C 648.328125 1252.433594 652.886719 1263.40625 654.71875 1277 C 656 1287.410156 655.480469 1302 661 1311 C 663.914063 1306.226563 665.257813 1287 671.578125 1285.769531 C 674.636719 1285.226563 676.566406 1292.007813 677.421875 1294 C 681 1302.5625 683.796875 1314.824219 691 1321 C 691 1312.5 691.449219 1303.355469 693 1295 L 694 1295 C 696.417969 1308.566406 708.511719 1324.792969 720 1332 L 720 1313 L 721 1313 C 723.390625 1323.445313 732.875 1337.078125 743 1341 L 744 1330 C 747.980469 1334.105469 748.496094 1346.386719 753.222656 1348.652344 C 755.722656 1350 760.40625 1330.5625 761 1328 L 762 1328 L 764 1341 C 773.886719 1336.390625 780.535156 1323.550781 785 1314 L 786 1314 L 786 1332 C 797.835938 1324.59375 810.503906 1308.003906 813 1294 L 814 1294 C 814 1301.605469 813 1314.460938 817 1321 C 822.382813 1311.777344 825.820313 1301.65625 830.308594 1292 C 831.320313 1289.824219 834 1283.011719 837.449219 1285.636719 C 844.347656 1291 839.796875 1305.542969 847 1311 C 848 1287.613281 855 1265.609375 863 1244 L 864 1244 C 864 1247 863.363281 1262.792969 867.898438 1262.792969 C 872.203125 1262.792969 877 1248.316406 878.421875 1245 C 886.675781 1225.714844 898.933594 1202.777344 902 1182 L 903 1182 C 906.582031 1194.433594 914.328125 1205.238281 917.523438 1218 C 917.929688 1219.625 919 1229.234375 922.367188 1227.652344 C 925.976563 1226 922.667969 1212.242188 922.285156 1209 C 919.964844 1189.335938 923 1169.71875 923 1150 L 924 1150 C 928.472656 1160.640625 935.59375 1172.34375 942 1182 C 943.6875 1184.535156 947.472656 1191.457031 951.484375 1189.59375 C 954.914063 1188 953 1181 953 1178 C 952.867188 1166 951.945313 1154 951 1142 L 952 1142 C 957.785156 1155.410156 968.871094 1161.042969 966.824219 1142 C 965.53125 1130 957.84375 1120.1875 954 1109 C 953 1106.140625 951 1096.191406 954.601563 1094.351563 C 957.390625 1093 962.554688 1096.078125 965 1097.257813 C 973.585938 1101.402344 981.433594 1107 990 1111 C 989.488281 1086.414063 971.320313 1062.128906 959 1042 C 965.238281 1045 970.59375 1049.320313 977 1052 C 976.628906 1048.363281 975.371094 1045.367188 974 1042 C 985.527344 1043.726563 993.289063 1053 1000.960938 1061 C 1003.796875 1064 1007.378906 1070.234375 1011.773438 1071 C 1016 1071.644531 1015.964844 1062.574219 1015.996094 1060 C 1016 1048 1011.695313 1037.34375 1008 1026 C 1021 1033.671875 1029.574219 1049.015625 1043 1055 C 1042.921875 1026.234375 1028.515625 1003.582031 1011 982 C 1019.496094 982 1028.671875 983 1037 981.113281 C 1044.875 979.335938 1053.78125 974.101563 1062 975.34375 C 1072.664063 977 1078.976563 987.800781 1089 991 C 1088.554688 982.429688 1083.175781 975.496094 1077.996094 969 C 1063.875 951.289063 1042.988281 939.015625 1020 939 C 1031.5625 929.167969 1046 926.378906 1060 933.378906 C 1065.667969 936.238281 1069.867188 941.042969 1076 943 C 1073.507813 929.195313 1059 920.53125 1051 910 C 1059.453125 910.070313 1067.582031 912.640625 1076 913 C 1071.820313 898.523438 1058 889.410156 1047 880.246094 C 1041.210938 875.421875 1035.628906 870.359375 1028 869 L 1028 868 C 1053.730469 863.011719 1063.347656 879.65625 1085 889 C 1082.308594 871.03125 1071 846.257813 1059.984375 832 C 1057.320313 828.597656 1042.589844 816.726563 1044.207031 812.5625 C 1045.882813 808.257813 1060.210938 809.003906 1064 809 C 1060.628906 803.445313 1053.316406 800.503906 1048 797 C 1038 790.472656 1029 783.4375 1023 773 C 1028.261719 773.710938 1046 781.675781 1049.929688 776.257813 C 1056.21875 767.472656 1030 760 1034.171875 751.316406 C 1035.476563 748.570313 1040.449219 748.617188 1043 748.28125 C 1051.3125 747.183594 1059.574219 746.390625 1067 742.121094 C 1074 738.074219 1080 731.566406 1083 724 C 1084.714844 720 1084.769531 711.425781 1088.652344 708.753906 C 1092 706.355469 1096.886719 713 1099 715 C 1107.371094 723 1115.804688 730.804688 1124 739 C 1114.246094 738.222656 1104.703125 735.21875 1095 734 C 1092.3125 733.496094 1086 731.609375 1084.289063 734.601563 C 1081.328125 739.410156 1092 746.785156 1095 749.28125 C 1109.910156 762.257813 1124.558594 775.015625 1135 792 C 1118.59375 783 1104 773.460938 1085 771 C 1087.816406 780.574219 1096.199219 787 1101.640625 795 C 1109.199219 806.21875 1113.84375 819.230469 1118 832 C 1106 818.171875 1095.972656 797 1078 790 C 1080.179688 804.546875 1091.980469 816.304688 1099.972656 828 C 1111.425781 844.769531 1122 867.378906 1123 888 L 1122 888 C 1118 877.15625 1103.417969 855.207031 1092 852 C 1096.90625 869 1108 883.019531 1113 900 L 1091 891 C 1093.277344 903.613281 1104.734375 914.082031 1109.546875 926 C 1116.363281 943 1116 961.152344 1116 979 L 1115 979 C 1112.523438 962.234375 1101.714844 937.832031 1086 930 C 1086 945.152344 1090.265625 960.09375 1092.574219 975 C 1097.71875 1008.160156 1104 1042.40625 1104 1076 C 1093.835938 1065.808594 1083.824219 1050.355469 1070 1045 C 1077 1070 1085.984375 1097 1086 1123 C 1070.890625 1112 1070.765625 1087 1054 1078 C 1054 1090.746094 1052 1103.3125 1052 1116 L 1051 1116 C 1048.957031 1104.132813 1036.949219 1084.335938 1026 1079 C 1025.980469 1109.148438 1013.707031 1138 1004.332031 1166 C 1002.652344 1171.046875 998.710938 1192.003906 992.914063 1193.367188 C 990.746094 1194 990.316406 1189.25 990.175781 1188 C 989.863281 1185.277344 991.25 1168.207031 986.957031 1168.207031 C 984.921875 1168.207031 983.472656 1172.589844 982.753906 1174 C 979.652344 1180.101563 976.238281 1186.058594 972.851563 1192 C 963.585938 1208.238281 953.652344 1224.113281 943.808594 1240 C 938.441406 1248.660156 931.542969 1257.703125 930 1268 C 939.816406 1266.222656 944 1257.453125 949.429688 1250 C 960.347656 1234.792969 977 1219.371094 980 1200 L 981 1200 C 981.230469 1211.109375 985.464844 1228.359375 996 1234 C 996 1211 1008.871094 1191.367188 1016 1170 C 1023 1148.640625 1025 1124.589844 1034 1104 C 1038.90625 1115.804688 1043.269531 1127.347656 1045.574219 1140 C 1046 1142.347656 1046.699219 1151.09375 1050.882813 1149.652344 C 1056.441406 1147.742188 1060 1130.171875 1061.574219 1125 C 1062 1123.457031 1063 1117.015625 1065.832031 1118.207031 C 1069.3125 1119.71875 1070.597656 1127.777344 1071.667969 1131 C 1076.476563 1145.476563 1076.464844 1160.0625 1078.425781 1175 C 1078.894531 1178.570313 1077.726563 1189.667969 1081.503906 1191.652344 C 1083.570313 1192.742188 1085 1187.152344 1085.574219 1186 C 1088 1179.265625 1089.8125 1172.058594 1091.195313 1165 C 1096.894531 1136 1095.3125 1106.277344 1093 1077 C 1103.171875 1084.539063 1110.820313 1094.035156 1117 1105 C 1119.617188 1109.328125 1122.339844 1117.691406 1128 1118.578125 C 1133.777344 1119.476563 1146 1110.511719 1143.746094 1104.042969 C 1140.695313 1095.3125 1124.355469 1093.035156 1119.417969 1084 C 1114.980469 1076 1114.566406 1065 1113 1056 C 1109.558594 1034.695313 1107 1012.578125 1107 991 C 1110.894531 995.582031 1117.753906 1011.792969 1124.566406 1011.792969 C 1128.492188 1011.792969 1128.90625 992.183594 1128.984375 989 C 1129.585938 964.578125 1126.570313 940.273438 1119 917 C 1126.617188 922.203125 1132.984375 930.324219 1142 933 C 1140.46875 921 1138.328125 909 1135.789063 897 C 1134.710938 892 1131.917969 885.265625 1132.605469 880.058594 C 1133.390625 874.125 1142 878 1141.640625 871 C 1141.210938 863.742188 1137.261719 856 1135 849 C 1129.710938 833 1123.609375 817.238281 1119 801 C 1126.28125 806.335938 1133.90625 812.15625 1142 816.191406 C 1143.882813 817.128906 1149.839844 820.386719 1151.304688 817.382813 C 1152.804688 814.3125 1149.867188 807.175781 1149 804 C 1145.757813 789.828125 1141.53125 776.539063 1130.996094 766.003906 C 1128.695313 763.703125 1114.648438 754.394531 1117.636719 751 C 1124.210938 743.070313 1139.933594 756.238281 1145 760 C 1146.679688 761.039063 1152.507813 765.703125 1153.640625 761.667969 C 1154.753906 757.703125 1151.507813 752.304688 1149.6875 749 C 1144.472656 739.535156 1136 732.402344 1128 725.425781 C 1124.414063 722.3125 1117.964844 718 1116.972656 713 C 1114.96875 703 1140.175781 697 1132.257813 686.46875 C 1126.234375 678.453125 1113.761719 672.742188 1106 666.246094 C 1103.449219 664.109375 1098.207031 660.828125 1098.207031 657.039063 C 1098.207031 651.753906 1108.371094 649 1111.996094 646.648438 C 1118 643 1119.660156 636.773438 1119.960938 630 C 1120.6875 613.582031 1118.976563 598 1111.742188 583 C 1106.914063 573.027344 1096 562.558594 1096 551 C 1096 544.6875 1099.867188 539 1101.574219 533 C 1104.96875 521.160156 1107.421875 508.316406 1107.960938 496 C 1108.636719 480.605469 1107.570313 465.039063 1104 450 C 1100.957031 436.277344 1094.667969 422.140625 1094 408 C 1092.613281 376 1100.886719 344 1097.828125 312 C 1095 283.410156 1080.382813 254.148438 1071.332031 227 C 1064.910156 207.734375 1060.480469 184 1047.191406 168.039063 C 1025.890625 142.585938 991.234375 153.226563 972.289063 175 C 932.300781 221 903.332031 281.828125 876.246094 336 C 868.84375 350.808594 861.648438 365.710938 853.269531 380 C 850.398438 385 845.742188 392.816406 839 392.097656 C 830.984375 391.246094 825.324219 379.246094 822 373 C 813 379.289063 810.511719 390.46875 801.984375 397.101563 C 772.972656 419.664063 739.210938 418 708 400.6875 C 701.234375 397 697.371094 391.394531 693.320313 385 C 691.460938 382.0625 689.324219 376.695313 685.820313 375.40625 C 682 374.027344 679.433594 378.484375 677.660156 381.003906 C 673.519531 387 668 394.597656 660 390.542969 C 646.238281 383.6875 641.898438 363.722656 635.742188 351 C 619.738281 318 602.984375 285.195313 585.304688 253 C 570.671875 226.355469 553 201.292969 534.871094 177 C 526.203125 165.4375 516.78125 152.253906 501 151.089844 C 445.730469 147.015625 438 224.066406 424.308594 263 C 418.519531 279.261719 410.292969 295.515625 409 313 C 406.996094 343.410156 415.738281 373.5625 412.828125 404 C 409.890625 434.773438 395.667969 463.707031 397 495 C 397.535156 506.308594 399.660156 518.050781 402.476563 529 C 403.964844 534.769531 407.632813 541 407.632813 547 C 407.632813 557.5625 398.230469 570.070313 394.691406 580 C 390.996094 590.378906 386.578125 602.820313 387.210938 614 C 387.511719 619.347656 390.941406 624 391.308594 629 C 391.71875 634.699219 387 640.226563 388.355469 646 C 390 653.640625 404.550781 650.742188 405.671875 659.71875 C 406 663.597656 400.566406 667 398 669 C 391.570313 674 377.578125 680.726563 374 688.09375 C 369.816406 697.039063 388.789063 703.089844 386.304688 713 C 381.371094 732.644531 355.484375 741.285156 355 764 M 591 475 C 585.90625 484.144531 578.789063 493.65625 569 498.097656 C 561.664063 501.421875 552.453125 501.019531 546 506.394531 C 533.601563 517 525.679688 547.175781 525 563 L 526 563 C 535.921875 539.164063 555.21875 518.347656 576 503.429688 C 592.878906 491.3125 613.664063 481.121094 625 463 L 597 467 C 606.519531 453.59375 630 435.011719 647 433.175781 C 658.445313 432 668.769531 436.515625 680 437 C 673.894531 431.15625 663.5 425 661.695313 416 C 659.441406 405 679.535156 405.296875 686 406.667969 C 702.894531 410.253906 718.320313 419.578125 734 426.425781 C 739.917969 429.007813 746.355469 434.171875 753 434.371094 C 760.347656 434.589844 767.527344 429.242188 774 426.425781 C 790.207031 419.371094 807.28125 409 825 406.300781 C 839.558594 404.203125 850.886719 413 838.90625 426 C 835.414063 429.816406 831.375 433.097656 828 437 C 837.554688 434.234375 847.828125 428.382813 858 429.097656 C 865 429.597656 871.367188 434.125 877 438.140625 C 888.394531 446.265625 902.855469 454.636719 910 467 C 901 465 891.734375 466 883 463 C 893.324219 483 917.914063 492.695313 934 507.171875 C 951.738281 523.132813 964.773438 547.34375 984 561 C 979.871094 548.792969 974.804688 537 969.71875 525 C 967.492188 519.824219 965.878906 513.367188 961.671875 509.394531 C 955.890625 504 947 505 940 502.449219 C 928.683594 498.421875 920.253906 487.296875 917 476 C 920.457031 476.148438 939.71875 481.289063 936.535156 473 C 933.960938 466.292969 924.183594 463 919 458.675781 C 906.597656 448.34375 898.347656 434.324219 885 425 C 874.226563 417.316406 862.738281 417 863 401 C 863.800781 373.78125 882.632813 346.738281 895.988281 324 C 908.527344 302.652344 921.910156 281.785156 933.691406 260 C 944.289063 240.40625 953 219.695313 965.34375 201 C 978 181.425781 997.652344 158.253906 1024 167.546875 C 1040.222656 173.269531 1045.804688 189.074219 1051 204 C 1060.625 231.652344 1070.324219 259.242188 1079.667969 287 C 1082.527344 295.5 1086.890625 304 1087.671875 313 C 1088.273438 320 1085.566406 327.070313 1085 334 C 1083.96875 350.253906 1083 366.699219 1083 383 C 1083 397 1085.726563 415.386719 1078.582031 428 C 1074.308594 435.519531 1064 434 1058.175781 440.054688 C 1045.410156 453.277344 1037.867188 472.257813 1031 489 C 1045.945313 479.625 1057.496094 461.503906 1070 449 C 1073.886719 445.117188 1080.582031 436 1086.890625 436.542969 C 1093.34375 437.125 1094.609375 456.015625 1095.410156 461 C 1098.691406 481.410156 1098.230469 501.726563 1094.199219 522 C 1092 532.613281 1091.851563 544.296875 1078 541 C 1081.894531 550.488281 1085.664063 560.421875 1091.355469 569 C 1098.664063 580.019531 1107.9375 589.097656 1108.910156 603 C 1109.210938 607.28125 1110 615 1106.4375 618.140625 C 1100.675781 623.21875 1079 621.257813 1075 615 C 1080.621094 613.699219 1094.890625 611.035156 1095.863281 604 C 1096.410156 600 1092.429688 595.570313 1091 592 C 1089.949219 589 1089.34375 585.703125 1086.773438 583.433594 C 1078 575.78125 1066 582.746094 1064.1875 566 C 1063.367188 558.5 1068.210938 553 1070 546 C 1071.578125 540.433594 1070.699219 534.675781 1071 529 C 1071.316406 525.679688 1073.238281 520.382813 1070.972656 517.421875 C 1067.597656 513.015625 1057 522.535156 1054 524.394531 C 1042.480469 531.265625 1028.671875 536.339844 1018.183594 525 C 1007.777344 513.664063 1000.695313 488 1006 473 C 1009 465.050781 1016 459.136719 1020.386719 452 C 1028 439.425781 1033.539063 425.128906 1037.574219 411 C 1042.820313 392.609375 1037.457031 379.101563 1037 361 C 1036.722656 349.105469 1040.902344 337.832031 1041 326 L 1040 326 C 1035.261719 336.152344 1031.847656 348.621094 1025.867188 358 C 1021.625 364.652344 1014.53125 369 1010.824219 376 C 1005.964844 385.238281 1003.90625 395.671875 999 405 L 998 405 C 998 388.195313 996 370.371094 1004.324219 355 C 1009 346.058594 1018.320313 340.117188 1022.585938 331 C 1026 323.6875 1021 313.8125 1025.9375 307.304688 C 1028.617188 303.65625 1034 304.339844 1038 303.210938 C 1045.308594 301.101563 1053.296875 295.050781 1054.367188 287 C 1055.773438 276.414063 1041.230469 267 1035.300781 260 C 1028.40625 252 1022.277344 240.792969 1012 236.613281 C 986.496094 226.242188 959.191406 262 948.453125 280 C 946.191406 283.804688 944.210938 288 942.695313 292 C 941.734375 294.636719 940.855469 297.320313 940 300 C 936.53125 311.304688 942 313.007813 951 306.796875 C 959.796875 300.703125 966.914063 292.175781 976 286.5625 C 978.984375 284.71875 984.269531 282.550781 987.257813 285.601563 C 991.777344 290.222656 986.484375 300.050781 982.785156 303.480469 C 977.433594 308.457031 970 310.496094 966 317.003906 C 962.574219 322.582031 962.496094 330 960.1875 336 C 955.171875 349.195313 947.769531 361.785156 938 372 C 947.40625 368.085938 956.734375 363.230469 965 357.253906 C 971.535156 352.527344 977.410156 346 985 343 C 982.804688 354.332031 980.367188 366.207031 973.894531 376 C 965.398438 389 952.722656 398.21875 944 411 C 946.753906 410.214844 949.292969 409.019531 952 408.101563 C 970.617188 401.769531 958.46875 423.742188 957 432 C 963.355469 428.289063 970.183594 424.671875 977 422 C 978.882813 421.105469 983.285156 419.257813 984.183594 422.332031 C 985.171875 425.726563 981 429.695313 979.242188 432 C 973.730469 438.699219 963.953125 446.425781 961.515625 455 C 960.316406 459.183594 964.75 464.398438 964.960938 469 C 966.242188 497 975.523438 530.128906 1002 544.480469 C 1012.609375 550.234375 1037.589844 549.347656 1046.996094 541.660156 C 1049 540 1059.324219 525.070313 1061.945313 527.832031 C 1064.1875 530.191406 1060.753906 536.699219 1059.675781 539 C 1056 546.527344 1050.25 554 1043 558.046875 C 1040.933594 559.238281 1033 561 1033 564 C 1033 567.617188 1043.179688 565 1045 564.496094 C 1047.714844 564 1050.347656 563 1053 562 C 1050.652344 567.332031 1047 571.246094 1042 574.09375 C 1039.214844 575.636719 1033.363281 576.621094 1032.347656 580.128906 C 1030.882813 585.160156 1039.503906 588.183594 1043 589 C 1054.492188 591.605469 1073.226563 591.457031 1085 590 C 1080.847656 604 1063.488281 606 1051 606 C 1062.933594 624.039063 1083.316406 630 1104 630 C 1094.839844 642.726563 1074.878906 643.140625 1061 639 C 1066.9375 647.230469 1085.71875 650.023438 1088 660 C 1089 664 1084 665.363281 1084 669 C 1084 673.089844 1090.171875 674.320313 1088.992188 679.003906 C 1083.792969 699.644531 1054 708.757813 1036 708 C 1010.445313 706.832031 988.507813 688.730469 971.910156 671 C 965.789063 664.460938 958.296875 658.566406 955 650 C 956.847656 650.34375 963.71875 652.285156 963.652344 648.683594 C 963.589844 645.046875 958.394531 641.828125 956 639.714844 C 950 634.429688 943.824219 628.265625 940.28125 621.003906 C 937.226563 614.742188 943.339844 611.453125 938.46875 605 C 928.277344 591.507813 912.21875 586.574219 898 579 C 905.789063 597.402344 925.796875 612.097656 937.761719 628 C 943.289063 635.351563 943 644.574219 948.488281 652 C 956.917969 663.621094 968.410156 672.636719 979 682.167969 C 997.515625 698.832031 1019.339844 719 1046 719 C 1055.183594 719 1064.375 715.804688 1073 713 C 1068.6875 720.300781 1046.769531 725.808594 1061.976563 730.074219 C 1063.640625 730.539063 1065.292969 730.769531 1067 731 L 1067 732 C 1046.378906 738.59375 1030.511719 739.402344 1011 729 C 1017.179688 741.402344 1027.554688 751 1033 764 C 1014.527344 760.175781 1006.90625 744.382813 996.972656 730 C 990.171875 720.148438 982.449219 711.449219 974 703 C 979.605469 719.457031 991 733.445313 998.742188 749 C 1005.226563 762.308594 1008.367188 778.230469 1009 793 C 1012.695313 789.105469 1012.957031 784.183594 1013 779 C 1020 784 1025.371094 791.105469 1032 796.675781 C 1034.242188 798.558594 1038.605469 800.664063 1039 804 C 1039.925781 809.683594 1025.246094 806.722656 1030.632813 815 C 1042 832.503906 1063.550781 839.640625 1067 863 C 1061.738281 860.808594 1056.679688 857.324219 1051 856.328125 C 1032.742188 853.128906 1018.351563 866.832031 1003 874 C 1002.886719 860.523438 998 847.53125 998 834 C 993.320313 838.566406 993.757813 847 991.5625 853 C 986 868.246094 977.382813 890.144531 964 900 C 964.796875 881.488281 976 849.683594 962 834 C 960.679688 850.730469 959 870.050781 953.644531 886 C 950.3125 896 940.597656 906.183594 941 917 C 941.503906 924.0625 947.4375 930 953 933.453125 C 955.644531 935.167969 962.363281 937.097656 962.363281 941 C 962.363281 947.664063 946.574219 948.804688 942 949 L 942 950 C 947 951.433594 952.648438 953.191406 958 953 C 962 952.664063 966 950.3125 970 952.195313 C 977.3125 955.675781 981.507813 965.347656 987 971 C 1002.46875 987 1026 1004.035156 1028 1028 C 1013.304688 1021.007813 1002.671875 1008.089844 987 1002 C 991.847656 1013.636719 999.28125 1024 1003.332031 1036 C 1004.242188 1038.699219 1007.578125 1045.441406 1004.96875 1048 C 1001.714844 1051.09375 993.605469 1044.746094 991 1043 C 978.796875 1034.648438 968.609375 1023.214844 957 1014 C 956.851563 1017.828125 960.652344 1026.269531 957.957031 1029.292969 C 956.183594 1031.28125 952.695313 1029.066406 951 1028.070313 C 944.621094 1024.308594 939.273438 1019 933 1015 C 941 1033.671875 955.328125 1049.242188 963.421875 1068 C 964.546875 1070.605469 972 1084.5 968.355469 1086.300781 C 962.183594 1089.300781 949.1875 1075.582031 944 1073 C 944 1102.402344 942 1131.660156 942 1161 C 927.171875 1150.054688 924.703125 1126.75 911 1115 C 911 1135.050781 913 1155.003906 913 1175 L 912 1175 C 906.171875 1162.734375 901.535156 1145.828125 892 1136 C 889.902344 1152.589844 889.351563 1169.550781 886.386719 1186 C 883.84375 1200.097656 878.835938 1213.796875 877 1228 L 876 1228 C 876 1205.28125 873.25 1186.273438 865 1165 L 864 1165 C 864 1171.691406 866 1178.34375 865.871094 1185 C 865.484375 1200.730469 859.484375 1216.230469 854.671875 1231 C 852 1239.113281 850.757813 1249.207031 844 1255 C 841.25 1246.308594 841 1236.078125 841 1227 C 827.515625 1238.589844 832 1265.226563 823 1280 C 820.21875 1272.625 818.945313 1265 815 1258 C 810.75 1273.09375 806.242188 1287.53125 798 1301 C 792.644531 1293.164063 793 1274.46875 793 1265 L 792 1265 C 785.574219 1280.746094 785.363281 1305 771 1316 C 767.984375 1303.339844 771 1289.613281 768 1277 C 763.808594 1285.34375 761.9375 1295.203125 758.679688 1304 C 757.707031 1306.628906 756.480469 1312.539063 753.496094 1313.652344 C 750 1315 748.671875 1308.003906 748 1306 C 744.769531 1296.375 741.75 1286.765625 739 1277 L 738 1277 C 735 1289.269531 735.261719 1304.363281 735 1317 C 725.433594 1308.800781 722.34375 1291.652344 719 1280 C 717.5 1274.769531 717 1269 713 1265 C 713 1277.089844 710 1289 710 1301 C 699.433594 1292.707031 693 1272.0625 693 1259 C 687 1264.023438 686.253906 1272 684 1279 L 683 1279 C 679.425781 1266.398438 676.460938 1253.660156 673 1241 C 672.542969 1239 671 1230.054688 668 1230.054688 C 665.746094 1230.054688 666 1234.617188 666 1236 C 665.871094 1242.449219 664.507813 1248.601563 664 1255 C 656.839844 1250.667969 655 1236.609375 653 1229 C 647.699219 1208.59375 642.316406 1185.328125 634 1166 C 628.464844 1189.246094 631 1212.613281 633 1236 L 632 1236 C 627 1202.59375 614.285156 1171.46875 614 1137 C 603.570313 1145.496094 599.703125 1162 595 1174 L 594 1174 C 594 1154.292969 594.59375 1134.636719 595 1115 C 580 1126.488281 580.632813 1150 565 1161 C 565 1139.164063 564.273438 1116.675781 561.714844 1095 C 561.355469 1092 562.417969 1076.519531 559.398438 1075.539063 C 557 1074.765625 553.714844 1078.121094 552 1079.359375 C 546.714844 1083.175781 541.601563 1086.417969 535 1087 C 539.382813 1076.316406 542.511719 1065 548.453125 1055 C 556.347656 1041.726563 567.675781 1029.632813 573 1015 C 563.476563 1021.476563 554.941406 1030 544 1034 C 545 1027.222656 547.6875 1020.757813 549 1014 C 536.921875 1022.25 527.914063 1034 516 1042.277344 C 512.621094 1044.644531 505.835938 1050.257813 501.320313 1048.351563 C 497 1046.574219 501 1038.824219 502 1036 C 506 1024.304688 512.875 1012.722656 519 1002 C 503.570313 1007.617188 493.359375 1021.167969 479 1028 C 480.867188 1004.511719 500.484375 989.539063 516 974 C 521.9375 968.054688 527.402344 959.21875 535 955.316406 C 543.703125 951 555.496094 953.777344 565 949 C 557.964844 946.113281 550.589844 943.832031 544 940 L 544 939 C 552 934.3125 563 930.171875 565.425781 920 C 567.789063 910.003906 557.425781 899 554 890 C 547.476563 872.640625 544 852.511719 544 834 L 542 834 C 541.8125 856.65625 540 877.269531 543 900 C 524.75 887.109375 515.902344 855.640625 510 835 L 509 835 C 507.246094 844.300781 506.605469 853.65625 505.269531 863 C 504.945313 865.285156 505 870.585938 502.4375 871.671875 C 500 872.632813 496.804688 869.722656 495 868.585938 C 488.664063 864.605469 482 860.753906 475 858.355469 C 460.429688 853.453125 451.621094 859.078125 438 863 C 445 842.414063 463 832.429688 473.996094 815.003906 C 478.796875 807.296875 466.261719 809.238281 467.753906 803 C 469.304688 796.402344 480.246094 793.101563 484.675781 788.675781 C 488 785.308594 489.644531 781.226563 494 779 C 494.230469 784.324219 494 791.15625 498 795 C 498 759.132813 518.992188 737.246094 532 706 C 513 725.238281 502.6875 755 476 764 C 479.277344 750.214844 491.195313 741 498 729 C 487.398438 732.054688 478.609375 739.15625 467 739 C 462.726563 738.765625 444.585938 738.074219 444.753906 732 C 444.863281 727.796875 451.234375 724.394531 454 722 C 445 721.816406 435 720 433 710 C 440.550781 713 448.789063 717.304688 457 717.785156 C 487.445313 719.578125 515 693.035156 535 674.039063 C 542.515625 667 551.859375 660.511719 557.9375 652 C 562.898438 645.054688 560.828125 635.621094 566.515625 628 C 579 611.074219 596.773438 598 608 580 C 593.808594 583.285156 572.257813 593.53125 565.207031 607 C 562.390625 612.378906 567.40625 617 563.628906 623 C 556.996094 633.761719 546.472656 641 539 651 L 551 650 C 547.832031 657.207031 541.925781 663.007813 536.921875 669 C 520.550781 688.609375 494.445313 709.320313 467 706.828125 C 450.453125 705.328125 434.648438 698.296875 423.285156 686 C 420.820313 683.28125 413.261719 676.664063 415.242188 672.433594 C 416.613281 669.496094 422.261719 669.292969 425 669.089844 C 431.777344 668.582031 438.414063 668.640625 443 663 C 435.804688 665.128906 428.273438 663 421 662 C 428.90625 652.769531 441.601563 649.5 449 639 C 437 641.203125 423.652344 642.535156 412 638.636719 C 410 638.003906 396 631.617188 400.660156 628.601563 C 404.382813 626.152344 411.886719 629.820313 416 629.820313 C 427.617188 629.820313 438.863281 623.378906 448 617 C 450.425781 615.128906 455.644531 612.5625 456.21875 609.304688 C 456.695313 606.59375 452.777344 606.226563 450.996094 606 C 443.585938 605 435.488281 603.554688 429 599.519531 C 426.980469 598.253906 422.183594 595 424 592 C 426.273438 588.601563 437.40625 588.335938 441 588.089844 C 454.984375 587.125 465.917969 589.507813 477 579 C 467.75 576.375 457.398438 573 454 563 C 461.554688 563.0625 468.511719 566.722656 476 565 C 464.914063 556.058594 453.386719 554.234375 446.269531 540 C 444.816406 537.097656 441.496094 531 443.605469 527.660156 C 445.964844 524.011719 452 533.550781 453 535 C 463.609375 548.714844 482.761719 550.199219 499 546.472656 C 528.75 539.640625 539.601563 498.664063 542.167969 473 C 542.679688 468 546.902344 459.5 545.859375 455 C 542.890625 442.195313 525.855469 436 522 423 C 529.804688 423.359375 536.78125 427.265625 544 430 C 545.636719 430.558594 550.316406 433.078125 551.789063 431.1875 C 553 429.441406 551.214844 425.691406 550.550781 424 C 547.925781 417.328125 544.625 411.019531 543 404 C 550 406.3125 557.242188 409 564 412 C 556.382813 397.078125 540 389.347656 530.800781 376 C 525.535156 368.472656 524.386719 357 524 348 C 532.941406 350.144531 539 357 547 361.097656 C 552.957031 364.3125 559.753906 364.65625 566 367 C 559.417969 351.191406 552.375 330.789063 540.5625 318.171875 C 532.535156 309.597656 514.824219 303.085938 519.433594 288.109375 C 521.285156 282.09375 528.289063 284.816406 532 287.25 C 541.261719 293.320313 548.695313 302 558 308 C 565.179688 312.710938 570 311.105469 567.570313 302 C 567 300 566.316406 298 565.574219 296 C 564.316406 292.648438 563 289.273438 561.5625 286 C 553.59375 268.0625 539 251.078125 522 241.230469 C 514.660156 237 504.523438 233.011719 496 236 C 484.945313 239.539063 479 251 471.824219 259 C 465.457031 266.132813 452 275.464844 452 286 C 452 303.386719 474.558594 296.824219 480.820313 307.226563 C 484.683594 313.636719 480.390625 323.003906 483.558594 330 C 487.644531 339.023438 496.957031 344.414063 501.824219 353 C 511.511719 370.066406 509 387.421875 509 406 L 508 406 C 498.628906 373.222656 470.804688 353.21875 468 318 L 466 318 C 466 336.316406 467.796875 354.617188 466.960938 373 C 466.539063 382.289063 461.730469 390.539063 463.664063 400 C 467.378906 418.148438 474.488281 436.730469 483.308594 453 C 491.683594 468.449219 502 477.296875 498.917969 496 C 495.949219 513.617188 487.199219 539.324219 464 530.53125 C 453.578125 526.582031 445 519 435 514 C 436.308594 524.347656 433.617188 534.757813 435.464844 545 C 437 554.179688 444.355469 564.53125 439.683594 574 C 434.839844 583.804688 425.476563 577.796875 419.433594 583.519531 C 414.703125 588 414.53125 599.058594 410 605 C 413 606.308594 429.261719 613.132813 425.246094 618.140625 C 420.554688 624 396.496094 621.4375 397.449219 612 C 400 585.640625 419.902344 565.636719 427 541 C 414 544.046875 413.261719 532 411.871094 522 C 408.996094 501.441406 408.597656 481.589844 411.578125 461 C 412.261719 456.296875 413 437.058594 419 436.546875 C 424.847656 436.0625 432 444.699219 436 448.171875 C 450.652344 461.425781 461.789063 479.582031 478 491 C 469.714844 475.28125 464.996094 458.632813 452.824219 445 C 449.75 441.554688 446.28125 437.589844 442 435.652344 C 437.183594 433.476563 431.371094 434.316406 428.570313 429 C 420.546875 413.546875 424.394531 389.734375 423.984375 373 C 423.660156 359.753906 423 346.203125 421.828125 333 C 421 326.128906 418.570313 319 419.304688 312 C 421.664063 289.683594 434.886719 265.324219 442 244 C 448.972656 223.105469 454.816406 195.582031 468.527344 178.003906 C 477.964844 166 495.929688 160.804688 510 167.324219 C 530.613281 177 543.175781 201.78125 553.253906 221 C 576 264.484375 602.582031 306 624.242188 350 C 633.394531 368.613281 645.507813 392.628906 639 414 C 636 423.695313 624.429688 424.394531 617 429.132813 C 603.996094 437.425781 595.96875 452.03125 584 461.621094 C 579.414063 465.296875 570 468.738281 568.347656 475 C 566 483.0625 588 475.675781 591 475 M 572 431 C 577 426.566406 577.863281 420.234375 579.722656 414 C 583.203125 402.3125 587.425781 391 590 379 C 591.25 374 592 362.691406 583.3125 364.421875 C 578.820313 365.316406 579.871094 376.605469 579.425781 380 C 577.183594 397.019531 574.195313 414 572 431 M 936 438 C 938.820313 431.273438 934.722656 423.542969 932.859375 417 C 929 404 926.386719 392.484375 926.742188 379 C 926.828125 375.722656 926.167969 366.203125 921 367 C 914.574219 368 914.636719 380.550781 915.761719 385 C 920.292969 403 928 421.285156 936 438 M 753 486 L 754 486 C 754 469 759 452.148438 759 435 C 756.429688 435.46875 749.84375 434.550781 748 436.117188 C 745.300781 438.472656 747.539063 446.003906 747.828125 449 C 749 461.148438 749.296875 474.292969 753 486 M 847 501 C 837.6875 505.761719 833.230469 524.21875 833 534 C 845.667969 526.78125 861.414063 514.386719 866 500 C 860 501.691406 847.832031 511.691406 847 501 M 645 501 C 645.648438 504 646.808594 506.320313 648 509 C 645.703125 507.664063 637.640625 502.253906 635 505.066406 C 633.304688 507.121094 636.867188 512.210938 637.863281 514 C 641.796875 521.074219 646.742188 530.679688 655 533 C 653.660156 527.367188 654.339844 521.632813 653 516 L 654 516 C 657.597656 523 664 529.574219 672 531 C 668.867188 523.410156 669.464844 515.082031 664.867188 508.003906 C 662.804688 504.828125 658 500 657 506 L 645 501 M 626 508 C 626 520.707031 627.960938 540.222656 642 545 C 640.304688 540.019531 637 535.210938 636.265625 530.003906 C 634.726563 521 636.800781 513.265625 626 508 M 870 541 C 878.34375 537.097656 879.929688 529.507813 880 521 C 873.785156 522.699219 867.996094 525.671875 862 528 C 864.503906 522.1875 868.4375 517.199219 870 511 C 863.941406 512.171875 848.667969 525 854 532.398438 C 858.699219 539 869 528.496094 870 541 M 550 621 C 556.585938 617.253906 556.59375 607.664063 558.425781 601 C 563 584.304688 566.9375 567.085938 573.453125 551 C 574.796875 547.683594 584 532.203125 579.957031 529.175781 C 574.660156 525.335938 566 543.65625 565 547 C 556.925781 570.824219 554.570313 596.402344 550 621 M 862 528 L 861 529 L 862 528 M 910 530 C 908.863281 532 903.339844 544.480469 900.179688 542 C 897.710938 540 900.777344 531.738281 901 529 C 896.65625 531.253906 893.445313 534.5625 890 538 L 890 528 C 887.355469 529.53125 885.550781 531.476563 883.773438 534.003906 C 881.652344 537.023438 876.613281 544.566406 879.269531 548.390625 C 881.582031 551.726563 887.226563 547.246094 890.285156 547.417969 C 900.628906 548 916.878906 551.769531 912.957031 536.003906 C 912.363281 533.613281 911.511719 532 910 530 M 606 538 L 597 530 C 595.238281 536 596.234375 542 597 548 L 598 548 L 600 543 C 602.5625 545.21875 605 547.207031 608 549 C 609.308594 544.191406 612 546 616 547 C 616.8125 536.699219 625.558594 550.144531 627.527344 543 C 628.875 538 621.480469 527.328125 620 536 C 611.976563 531.269531 605 525.417969 606 538 M 955 621 C 957.863281 614.175781 954.214844 605.8125 952.652344 599 C 948.898438 582.621094 946.601563 566.015625 941.328125 550 C 939.964844 546 934.550781 528 927.371094 532.136719 C 923.363281 534.449219 933.609375 549.535156 934.933594 553 C 943.382813 575.0625 945.429688 599.40625 955 621 M 843 725 C 836.578125 702.375 830 681.675781 832 658 C 821.957031 664.265625 826.226563 684.199219 827 694 C 820.871094 691.140625 811.695313 687.414063 808.652344 681 C 803.679688 670.410156 806.703125 652.785156 804.574219 641 C 801.21875 622.414063 785.902344 605.53125 789.328125 586 C 791.65625 572.722656 803.6875 563.523438 810.960938 553 C 813 549.8125 818.335938 542.496094 812.769531 540 C 806.242188 537 799.246094 543 795.96875 548 C 787.964844 560.363281 784.984375 576.652344 783.285156 591 C 781.402344 607 789.636719 622 793 637 C 795.414063 647 796.464844 657.777344 796.960938 668 C 797.207031 673.082031 796.386719 682.382813 799 686.773438 C 801 690.171875 805.964844 691 808.910156 693.394531 C 813 697 816.414063 702 820 706 C 826.179688 713.164063 833.210938 723.050781 843 725 M 675 658 C 680.480469 680.753906 669.539063 703.011719 665 725 C 674.777344 722.457031 682.730469 711.570313 688.800781 704 C 691.941406 700.082031 694.921875 695.507813 699 692.511719 C 701.804688 690.46875 705.828125 690 707.683594 686.773438 C 710.535156 682 709.769531 672.554688 710 667 C 710.554688 656.378906 711.78125 645.363281 714.234375 635 C 717.679688 620.449219 725 606.351563 723 591 C 721.460938 578.035156 717.960938 544.472656 702 541.578125 C 694.433594 540.203125 693.433594 547.730469 695.996094 553 C 701.472656 564.257813 712.421875 572.378906 715.320313 585 C 718.425781 598.53125 711 609.820313 706.695313 622 C 702.875 632.484375 702 643.050781 700.574219 654 C 699.199219 664.328125 700.964844 678 692.894531 685.816406 C 690.808594 688 686.546875 691.621094 683.316406 691.003906 C 679.890625 690.347656 681 683.425781 681 681 C 681 673.445313 682.789063 662.191406 675 658 M 866 601 L 866 602 C 853.355469 603.03125 841.640625 610.394531 838 623 C 857.199219 617.472656 872.339844 609 893 609 C 887.582031 593.191406 864 594 852 586 C 849.375 584.140625 843.421875 573.484375 841 574 C 834.945313 575.015625 834.988281 592 838.433594 595.363281 C 844.789063 601.585938 857.796875 601 866 601 M 608 609 C 617.269531 608.601563 625.773438 607.296875 635 609.429688 C 646.964844 612.195313 657.386719 619.214844 669 623 C 666.472656 612.253906 655.800781 604 645 603 C 652.589844 600.757813 664.398438 603.574219 670.566406 597.488281 C 673.667969 594.429688 671.3125 577.207031 666.28125 577.207031 C 664.390625 577.207031 658.984375 587.425781 655.984375 589.003906 C 642.75 596 616 594.609375 608 609 M 877 621.523438 C 855.597656 626 844.753906 657.289063 841.261719 676 C 840.5 680.074219 837.273438 703 845 701.675781 C 851.316406 700.652344 857.726563 693.769531 864 691.546875 C 873 688.351563 883 689.355469 892 686 C 900.210938 682.679688 906.324219 675.6875 914 671.519531 C 918 669.28125 931.96875 670.210938 933.867188 668 C 937 664.179688 926 653.445313 923.832031 651 C 913 639.0625 905 633.144531 891 626.433594 C 886 624.082031 882.941406 620.316406 877 621.523438 M 571 669 C 576.765625 668.753906 582.335938 667.164063 588 669.109375 C 597.882813 672.496094 604.386719 681.660156 614 685.523438 C 622.847656 689.074219 632.910156 688.261719 642 691.039063 C 647 692.609375 659 703.234375 663.683594 701.578125 C 666.605469 700.523438 666.589844 694.523438 666.828125 692 C 667.734375 682.5 665.417969 672 662.304688 663 C 658 650.792969 652.746094 636.136719 641.910156 628.222656 C 624.25 615.328125 600.253906 631.554688 588.574219 645 C 582.175781 652.367188 574 659.449219 571 669 M 609 641.621094 C 611.660156 640.707031 615.320313 642 615.367188 645.058594 C 615.421875 648.730469 611.539063 651.484375 610.746094 655 C 609.203125 662 616.78125 668.703125 623 669.621094 C 629.664063 670.605469 641.722656 665 641.222656 657 C 641 654.359375 631.929688 643.179688 639.214844 642.546875 C 644.589844 642.078125 646.730469 650.015625 646.957031 654 C 647.519531 664 643.847656 672 634 675.238281 C 621.972656 679.394531 610.738281 672.308594 605.878906 661 C 603.574219 655.628906 601.765625 644.167969 609 641.621094 M 895 641.542969 C 902.703125 640.164063 903.613281 651.003906 902.472656 656 C 900.257813 665.664063 892.84375 674.160156 883 676.316406 C 872.253906 678.667969 861.183594 670.660156 859.328125 660 C 858.386719 654.578125 859.292969 645.820313 865 643.238281 C 867.835938 642 870.84375 643.683594 870.417969 647 C 869.902344 651 865.285156 652.785156 865 657 C 864.710938 666.351563 878.734375 670.550781 886 668.566406 C 891 667.179688 897.4375 660.691406 896.460938 655 C 895.855469 651.460938 887 643 895 641.542969 M 940 670 C 940.988281 677.34375 945.308594 684.550781 944.890625 692 C 944.480469 699.375 939.457031 705.625 936.269531 712 C 929.207031 726.125 923.921875 743 911.960938 753.816406 C 905.335938 760 891.640625 760.222656 887 767 C 894.171875 766.09375 902 767 909 764.449219 C 921.78125 760 931.324219 746.070313 938.1875 735 C 948.363281 718.585938 949 693 972 693 C 964.914063 683 951.183594 674.820313 940 670 M 535 694 C 538.46875 693.488281 542.527344 691.609375 545.996094 692.78125 C 557.453125 696.65625 561.699219 722.328125 567.453125 732 C 575.941406 746.269531 588 762.511719 605 767.074219 C 611.65625 769 619 768 626 768 C 618 757.679688 603.335938 761.207031 594 752.785156 C 583.695313 743.320313 579.339844 728 572.574219 716 C 568.664063 709.074219 562.390625 701.082031 561.367188 693 C 560.472656 686 566.488281 680.140625 565 673 C 555.808594 679.277344 542 685.503906 535 694 M 409.5 677.445313 C 413.566406 679 415.382813 690.316406 412.398438 693.140625 C 408.675781 696.660156 392.8125 697.738281 388.378906 695.261719 C 385.601563 693.714844 388.605469 691.191406 390 690.011719 C 393.523438 687.203125 404.820313 675.824219 409.5 677.445313 M 1097.394531 680.648438 C 1102.609375 678.539063 1111.355469 686 1114.941406 689.015625 C 1116.832031 690.636719 1120.398438 694.113281 1116.675781 696 C 1111.691406 698.179688 1099.867188 698.183594 1095.320313 695 C 1091.683594 692.207031 1093.242188 682.324219 1097.394531 680.648438 M 719 689 C 719 712.085938 746.25 735.203125 768.90625 723.425781 C 778 718.671875 787.660156 700 789 690 C 775.699219 692.683594 771.652344 710.164063 759 714.371094 C 741.703125 720.121094 731.535156 695.503906 719 689 M 651 773 C 660.417969 765.335938 666.824219 752.660156 674 743 C 679 736.335938 685.597656 730.167969 688 722 C 666.476563 724.21875 651 754.011719 651 773 M 819 722 C 822.652344 733.464844 832.667969 743.339844 839.574219 753 C 844.335938 759.664063 848.242188 767.140625 855 772 C 855 752.691406 840.507813 725.355469 819 722 M 1125 739 L 1124 740 L 1125 739 M 1023 772 L 1022 773 L 1023 772 M 483 773 L 482 774 L 483 773 M 857 778 C 857.175781 799.417969 871.203125 817.390625 877.921875 837 C 880.777344 845.339844 880.1875 854.355469 881.429688 863 C 882.726563 872.023438 886.25 881 886.910156 890 C 888 905.742188 881.746094 925.679688 875.570313 940 C 868 957.222656 845.65625 981.652344 826 984.492188 C 818.902344 985.519531 810.859375 982 804 980.425781 C 792.886719 978 776 975 774.21875 961 C 772.515625 948.746094 782 952.375 789 950.164063 C 793.714844 948.652344 798.300781 944.832031 801.910156 941.5625 C 815.949219 929 831 899.375 827.535156 880 C 822.421875 851.597656 770.640625 811.136719 751 849 C 738.300781 828.351563 720.945313 835.011719 704 846 C 694.382813 852.097656 687.375 856.3125 684 868 C 677.535156 892.054688 685.390625 920.25 701.464844 939 C 707.441406 946 733.261719 952.152344 730.328125 963 C 727 975.089844 712.246094 977.808594 702 980.234375 C 694.921875 982 686.375 986 679 984.644531 C 672.941406 983.625 667.792969 978.644531 663 975.152344 C 649.746094 965.488281 636.511719 955.613281 630 940 C 616 906.414063 620.648438 876 629 842 C 631 834.171875 631.382813 825.570313 634 818 C 636.21875 812.121094 641.324219 808.429688 644.175781 803 C 647.941406 795.824219 648.988281 787 650 779 C 638.195313 784.519531 633.640625 800.582031 627.1875 811 C 624.472656 815.375 620.394531 819.707031 619.699219 825 C 618.675781 832.828125 623.996094 840.007813 622.675781 848 C 620.886719 858.804688 612.992188 867.480469 610 878 C 606.203125 892.699219 611 909 615 923 C 607.257813 915.191406 602 906.679688 599 896 C 596.796875 887.164063 596.328125 874.503906 587.90625 869 C 582.867188 865.535156 579 868.734375 578.304688 874 C 576.925781 882.492188 579.457031 891.132813 582.425781 899 C 599.511719 944.308594 612.511719 1002.691406 665 1017 C 668.628906 1018 673.949219 1022 667.886719 1024.53125 C 657.730469 1028.828125 639.949219 1014 633 1008.078125 C 618.546875 996.0625 605.238281 981.296875 597.4375 964 C 589.753906 947 586 924.410156 570 913 C 570.714844 929.570313 578 945.765625 581.195313 962 C 582.570313 969.183594 581.488281 978.636719 585.84375 985 C 590.246094 991.214844 602.785156 995 609 1000.285156 C 623.835938 1013.300781 638 1030 650.785156 1045 C 658.71875 1054.417969 652.257813 1068 656 1079 C 666.464844 1110.144531 690.550781 1148.53125 722 1161.769531 C 775.941406 1184.46875 826.167969 1134.375 845.574219 1089 C 848.167969 1083 851.476563 1075.683594 851.738281 1069 C 852 1061.140625 848.871094 1053.105469 853.804688 1046.003906 C 865 1029.78125 882.609375 1012.730469 897 999.039063 C 902.921875 993.40625 910.582031 989.609375 915.582031 983 C 920.5 976.496094 921.410156 966.667969 923.71875 959 C 928.265625 944 934.886719 928.6875 937 913 C 919.566406 923.289063 915.9375 948.789063 908.574219 966 C 900.953125 983.800781 886 998.691406 871 1010.347656 C 864.71875 1015.191406 850.597656 1028 842 1026.714844 C 837.574219 1026.054688 835.273438 1019 839.316406 1016.316406 C 843 1013.824219 849.601563 1014.691406 854 1013.25 C 861.488281 1010.796875 868 1005.832031 874 1000.710938 C 899.839844 978.230469 908.703125 936.832031 921 906 C 924.871094 896.292969 928.296875 886.578125 927.984375 876 C 927.871094 872.128906 926.507813 865.066406 920.984375 867.289063 C 912.503906 870.699219 909.695313 882.085938 908 890 C 905.1875 903.109375 902.613281 916 891 924 C 896 910.699219 902.503906 894.320313 897.453125 880 C 894 870.632813 886.273438 864.035156 884.464844 854 C 879.851563 828.417969 880.914063 795.613281 857 778 M 1136 792 L 1135 793 L 1136 792 M 389 834 L 388 835 L 389 834 M 513 890 C 513.640625 887.066406 513.640625 885 513 882 C 524.300781 889.070313 532.789063 900.3125 543 909 C 545.609375 911.039063 552.847656 914.640625 551.652344 919 C 550.679688 922.378906 544.964844 924.398438 542 925.664063 C 530.640625 930.515625 519.792969 928.097656 508 928 C 513 933.59375 526.671875 942.597656 528.246094 950 C 529.667969 956.65625 517.535156 962.335938 513 965 C 495.816406 975.042969 478.800781 973.558594 460 969.800781 C 457 969.203125 444.582031 968.523438 443.460938 965.402344 C 441.5625 960.113281 457.347656 952.5625 461 951.015625 C 466.183594 948.820313 471.550781 947.023438 477 945.628906 C 485.890625 943.355469 495 943.121094 504 941 C 489.515625 925.277344 477.230469 920 456 920 C 464.480469 910.136719 489.371094 905.261719 502 905 C 492.300781 896.527344 467.457031 896.007813 455 896 C 460 889 478.667969 872.285156 488 873.371094 C 497.21875 874.449219 506 884.441406 513 890 M 1051 898 L 1051 899 C 1035.292969 899 1017.792969 897.71875 1003 904 C 1018.726563 911.355469 1036.796875 911.160156 1052 920 L 1052 921 C 1038.796875 921 1008.253906 920.234375 1005.175781 939 C 1004.300781 944.292969 1013.582031 945 1017 945.652344 C 1027.738281 948.117188 1039 950.683594 1049 955.492188 C 1051.734375 956.8125 1057.683594 960 1057 963.691406 C 1056.453125 967.667969 1040.492188 970 1037 971 C 1020 975.289063 1001.921875 976 988 963.699219 C 984.46875 960.601563 978.507813 955.105469 978.378906 950.003906 C 978.191406 942.789063 994 934.339844 998 928 C 980.734375 930.183594 968.289063 927.046875 953 919 C 959.410156 910.644531 970 904.605469 977.984375 897.574219 C 983 893 986.761719 887.234375 993 884 L 993 890 C 999.386719 885.265625 1007.679688 876 1016 875.269531 C 1021.46875 874.824219 1025.273438 879.589844 1029 882.820313 C 1035.683594 888.613281 1043.679688 893.058594 1051 898 M 723 929 C 729.921875 925.3125 737.511719 925.613281 740.992188 917 C 746.917969 902.320313 723.179688 889.355469 711 892 C 708 892.550781 699.800781 896.730469 705.207031 900.070313 C 707.167969 901.285156 722.558594 901.828125 711.941406 907.539063 C 705.570313 911 697.894531 905.726563 697 899 C 696 889 706.257813 887.003906 714 887.003906 C 726.820313 887.003906 742.34375 893.621094 746.210938 907 C 750.441406 921.632813 737.824219 936.132813 723 929 M 785 927 C 775.804688 938.597656 759.507813 925.101563 760.214844 913 C 761 898.253906 775 888.105469 789 887.089844 C 796.363281 886.554688 807.261719 888.097656 808.769531 897 C 810 904.738281 802.773438 911.765625 795 910.515625 C 792.199219 910.0625 786.910156 906 790.617188 903.042969 C 793.769531 900.570313 798.304688 904.195313 801.457031 900.769531 C 806.558594 895.222656 793.824219 891 790 891.339844 C 765.976563 893.625 754.957031 927 785 927 M 1124 889 L 1123 890 L 1124 889 M 382.667969 895.667969 C 382.722656 895.722656 382.777344 896.777344 382.332031 896.332031 C 382.277344 896.277344 382.222656 895.222656 382.667969 895.667969 M 1051 909 L 1050 910 L 1051 909 M 753 1053 C 758.601563 1038.039063 754.539063 1021.488281 756.574219 1006 C 757 1001.546875 756.207031 995.289063 759 991.515625 C 762.414063 987.300781 769.605469 989.515625 774 990 C 786.332031 991.070313 798.683594 991.65625 811 992.828125 C 815.230469 993.234375 821 992 823.6875 996.226563 C 828.378906 1004 825.664063 1016.441406 826 1025 C 826.421875 1033.710938 828.679688 1042.226563 827.828125 1051 C 826.167969 1068.175781 816.269531 1081.796875 807.425781 1096 C 801.851563 1105 797.539063 1115.195313 788 1120.660156 C 772.96875 1129.273438 764.28125 1124 749 1122.339844 C 739.539063 1121.359375 730.433594 1126.265625 721 1122.519531 C 712 1119 707.652344 1110.265625 702 1103 C 691.285156 1088.789063 678.78125 1073 679 1054 C 679 1046.066406 682.339844 1038.746094 683.5625 1031 C 684.894531 1022.527344 685.324219 1013.558594 685.910156 1005 C 686 1001.722656 684.9375 996.371094 687.601563 994 C 691.96875 989.742188 706.253906 991 712 991 C 719.960938 991 735.867188 987 742.785156 991.027344 C 747.28125 993.691406 748.371094 1001.355469 749.523438 1006 C 753.359375 1021.429688 749.378906 1037.785156 753 1053 M 499 1026 L 498 1027 L 499 1026 M 959 1041 L 958 1042 L 959 1041 M 415 1076 L 414 1077 L 415 1076 M 835 1085 C 820.738281 1121.757813 785 1163.410156 741 1155.671875 C 733.753906 1154.402344 727.496094 1149.417969 721 1146.257813 C 716 1144 710.335938 1143 706 1139.582031 C 693.855469 1130.324219 684 1111.332031 677 1098 C 690.722656 1108.105469 695.429688 1127 709 1137.480469 C 738 1160.28125 779 1155.042969 803.714844 1129 C 815.933594 1116 822.277344 1096.660156 835 1085 "/>
</g>
</svg>
