<?xml version="1.0" encoding="UTF-8"?>
<svg xmlns="http://www.w3.org/2000/svg" xmlns:xlink="http://www.w3.org/1999/xlink" width="1500pt" height="1500pt" viewBox="0 0 1500 1500" version="1.1">
<g id="surface1">
<path style=" stroke:none;fill-rule:nonzero;fill:rgb(0%,0%,0%);fill-opacity:1;" d="M 405 810 C 404 818.585938 398 826.398438 394.246094 834 C 387.425781 847.644531 381.167969 861.71875 379.285156 877 C 377.816406 889 377.960938 901.324219 381 913 C 385 927.019531 392.613281 941.386719 393.773438 956 C 394.363281 963.425781 389.910156 971 388.234375 978 C 385.402344 990 385 1001.773438 385 1014 L 386 1014 C 388.402344 1002.363281 391 991.242188 399 982 C 399 1007 388 1030.597656 388 1056 L 389 1056 C 391.320313 1043.542969 395.90625 1030.535156 397 1018 L 398 1018 C 398 1041.511719 387.675781 1070.292969 394.441406 1093 C 397.339844 1102.726563 403.949219 1111.234375 410.261719 1119 C 413.753906 1123.296875 419.519531 1128.375 420.71875 1134 C 422.257813 1141.234375 412.859375 1142 408 1142 C 411.40625 1147 419 1147 424 1150 C 433 1155.609375 437.167969 1166.824219 438 1177 L 440 1177 C 439.753906 1171.238281 436.761719 1162.421875 440 1157.148438 C 442.257813 1153.480469 453 1152 454.539063 1157.226563 C 455.433594 1160.449219 451.238281 1163.625 449.699219 1166 C 447.300781 1169.707031 447 1173.710938 447 1178 C 446.871094 1204.339844 453.484375 1230.65625 465.78125 1254 C 469.460938 1261 474 1271.832031 481 1276 C 477.976563 1253.5625 470 1233.011719 470 1210 L 471 1210 C 471 1238 485.445313 1267.265625 499 1291 C 503.167969 1298.296875 507.726563 1310.554688 515 1315 C 506.507813 1289 498.800781 1262.152344 494.4375 1235 C 492.359375 1222.054688 493.398438 1209 491 1196 C 502.875 1209.011719 508.8125 1233.191406 527 1239 C 525.558594 1229.378906 519.746094 1220.25 516.667969 1211 C 510.710938 1193.117188 507 1175 507 1156 C 507 1149 506.925781 1142 508.925781 1135 C 509.398438 1133.355469 510.46875 1129.054688 512.78125 1129.054688 C 515.292969 1129.054688 515.339844 1135.375 515.578125 1137 C 516.910156 1146 517.972656 1155 518.828125 1164 C 522.617188 1203.785156 532.683594 1238.21875 545 1276 L 546 1276 C 545.1875 1257.390625 535.910156 1239.011719 531.652344 1221 C 527.675781 1204.164063 528.988281 1189 529 1172 L 530 1172 C 530 1183.773438 531.230469 1195.34375 532.871094 1207 C 533.691406 1212.832031 534.378906 1219.058594 540 1222 C 540 1210.632813 539.699219 1199.304688 540.832031 1188 C 542 1175.316406 542.4375 1162.40625 545.628906 1150 C 546 1148 548.527344 1137.457031 552.316406 1140 C 557.324219 1143.183594 556 1158 556 1163 C 556 1185.523438 553 1208.558594 555.714844 1231 C 556.753906 1239.703125 557.589844 1248.371094 559.261719 1257 C 559.558594 1258.53125 560.648438 1265.019531 563.503906 1263.652344 C 565.675781 1262.617188 564.996094 1258 565 1256 L 565 1232 C 565 1207.265625 567.503906 1181.511719 575.695313 1158 C 577.957031 1151.507813 581.328125 1137.828125 588.863281 1135.496094 C 593.179688 1134.160156 590.539063 1141.378906 589.996094 1143 C 587 1152 582.417969 1160.382813 582 1170 C 591.359375 1165.394531 593.527344 1151 597.285156 1142 C 608.652344 1115.109375 621.277344 1086 636.464844 1061 C 639.199219 1056.507813 654.722656 1037.015625 660.933594 1047.316406 C 664 1052.570313 656.28125 1065 656 1071 C 664.570313 1066.515625 665 1052.160156 672.300781 1045.328125 C 681.761719 1036.308594 681.804688 1049.628906 679 1056 C 677.707031 1059.371094 676 1062.476563 675 1066 C 679 1064.050781 684.933594 1054.105469 689.664063 1055.613281 C 695.773438 1057.558594 683.648438 1068.027344 682 1069.386719 C 667.214844 1081.578125 649.699219 1093 640 1110 C 666 1099.003906 682 1067.621094 711 1061 C 702 1075.03125 684.648438 1080.222656 676 1094 C 683.902344 1090.246094 690.890625 1084.210938 698 1079.140625 C 701.574219 1076.59375 719.316406 1062.21875 722.878906 1068.332031 C 726.339844 1074.269531 715.894531 1089.703125 713.246094 1095 C 702.796875 1116 694.554688 1136.761719 691.574219 1160 C 690.632813 1167.367188 691.304688 1182.417969 698 1187 C 691.96875 1154.515625 703.496094 1123.714844 717.753906 1095 C 722 1086.351563 724.445313 1074.710938 732 1068.230469 C 740.648438 1061 744.851563 1073.0625 745 1080 C 746.582031 1079 748.230469 1076 750.222656 1075.628906 C 756.371094 1074.792969 761.554688 1088.8125 764 1093 L 765 1093 C 764.980469 1085.371094 763 1078.304688 761 1071 C 772.859375 1083 783.863281 1096.601563 792.550781 1111 C 796.558594 1117.648438 799.917969 1130.527344 806 1135 C 802 1118.160156 792.964844 1103.320313 782.195313 1090 C 778.777344 1085.777344 767 1077.300781 768 1071.242188 C 768.640625 1067.308594 774.296875 1070.644531 776 1071.617188 C 783.996094 1076.179688 791 1082.007813 798 1088 C 815.695313 1103.261719 834.71875 1118.234375 844.691406 1140 C 848.925781 1149.238281 851.21875 1159.082031 853.199219 1169 C 854 1173.550781 854 1180.058594 858 1183 C 854.632813 1169 856 1154.117188 851.480469 1140 C 843.730469 1116.476563 821.929688 1101.570313 803 1087.371094 C 796.863281 1082.769531 790 1078.300781 785.5625 1072 C 784 1070 781.765625 1066.003906 784.527344 1064 C 787.796875 1061.476563 792.574219 1066.074219 795 1068 C 803.640625 1074.296875 812.363281 1080.539063 823 1083 C 819.828125 1075.652344 814.273438 1070 808.914063 1064 C 807.398438 1062.347656 803.300781 1059.289063 803.769531 1056.667969 C 804.3125 1053.625 811 1055 813 1055.074219 C 821.859375 1056 830.839844 1058.011719 838 1063.527344 C 849.625 1072.484375 857 1085.511719 867 1096 C 881.742188 1111.378906 898.761719 1124.320313 910.972656 1142 C 930 1169.601563 942.625 1202.488281 945.828125 1236 C 947.355469 1252 943.417969 1269.5 948 1285 L 949 1285 C 949.539063 1259 953.960938 1234.140625 949.566406 1208 C 945.972656 1186.632813 935.375 1167.136719 931 1146 C 943.816406 1157 949.226563 1172.398438 954 1188 C 964.476563 1222 968 1258 961.390625 1293 C 958.757813 1307 952.378906 1320.175781 950 1334 C 961.605469 1325.648438 966.238281 1309 970.945313 1296 C 984.367188 1259.269531 989 1218 989 1179 L 990 1179 C 990 1190.167969 994 1201 995 1212 L 996 1212 C 996 1193.707031 997.574219 1177.027344 1000 1159 L 1001 1159 L 1001 1231 L 1002 1231 C 1005.960938 1218.472656 1005.769531 1204.015625 1007 1191 C 1008.460938 1179 1012 1167.015625 1013 1155 L 1014 1155 C 1013.636719 1198.777344 996 1241.46875 996 1285 L 997 1285 C 1009.789063 1217.125 1028.632813 1150.238281 1039.304688 1082 C 1040.429688 1074.804688 1044.476563 1068.324219 1045.75 1061 C 1049.699219 1038.316406 1050.550781 1013.007813 1049.984375 990 C 1049.367188 964.703125 1046.542969 938.425781 1039.574219 914 C 1035.640625 900.21875 1027.425781 887.09375 1025 873 C 1040.753906 887.371094 1051.8125 878 1045 859 C 1039 842 1025.394531 828.152344 1011 817.746094 C 980.9375 796.011719 941.449219 780 904 780 C 895.824219 780 872.765625 778.066406 868.175781 787.074219 C 865.941406 791.460938 882.597656 791.234375 885 791.578125 C 904.5625 794.382813 924.203125 803 944 803 L 944 804 C 925.25 804 907.550781 811.617188 889 812 L 889 814 C 907.589844 814 926.421875 813.332031 944 820.453125 C 974 832.652344 994.21875 860 1008.246094 888 C 1037.394531 946.449219 1040 1010.339844 1040 1074 L 1039 1074 C 1038.996094 1059.175781 1033.9375 1045.3125 1030.652344 1031 C 1023.964844 1002 1016.519531 973.171875 1003.78125 946 C 997.816406 933.28125 991 916.117188 980 907 C 986.214844 928.585938 1000.335938 947 1006 969 C 1015.199219 1003.605469 1013.265625 1043.453125 1014 1079 L 1013 1079 C 1012.777344 1068.269531 1008.964844 1057.363281 1006.371094 1047 C 999.757813 1020.539063 991.546875 995 976.332031 972 C 968.824219 960.6875 959.722656 947.039063 946 943 C 949.808594 956 963 963.574219 970.84375 974 C 985.230469 993.5 995.914063 1018 998.84375 1042 C 1000 1052.027344 1000 1062 1000 1072 C 1000 1073.109375 1000.429688 1082.386719 997.59375 1080.792969 C 993.390625 1078.429688 992.359375 1058.773438 991.398438 1054 C 987.746094 1036 982.480469 1018.1875 975.601563 1001 C 972.8125 994.039063 970 985.476563 963 982 C 963 1029.292969 974.867188 1076.484375 975 1124 L 974 1124 C 969.460938 1090.300781 959.671875 1050 941.304688 1021 C 925.9375 997 903.859375 978.46875 886.425781 956 C 878.847656 946.230469 875.648438 933.265625 868 924 C 866 931.730469 868.660156 941.058594 869 949 L 868 949 C 865.582031 943.820313 862.777344 935.15625 858 932 C 862.675781 950.027344 873.230469 962.574219 881 979 C 870.953125 969 861 957.585938 849 950 C 856.257813 975.1875 883.558594 990.621094 897.300781 1012 C 908.6875 1029.707031 910.824219 1051.8125 915 1072 C 917.589844 1084.496094 921.960938 1097.277344 923 1110 L 922 1110 C 921 1098.753906 915.242188 1087.621094 911.667969 1077 C 906.390625 1061.316406 902.949219 1044.097656 893.910156 1030 C 885.796875 1017.347656 873 1007.554688 862 997.714844 C 853.742188 990.429688 846.535156 980.074219 836 976 C 846.8125 1007.753906 869 1036 882 1067 C 866.28125 1050 852.847656 1030.269531 840 1011 C 834.628906 1003 828.574219 988.691406 820 984 C 827.183594 1006.464844 837.734375 1026.496094 847 1048 C 841.464844 1043.773438 835 1040.613281 830 1035.824219 C 825.472656 1031.554688 822.773438 1025.75 817 1023 C 817 1029 817.636719 1035.269531 819 1041 C 805.199219 1025.039063 800 1004.730469 800 984 L 798 984 C 798 995 798.324219 1006.390625 801 1017 C 803.765625 1026.789063 808.636719 1036 810 1046 L 809 1046 C 807.375 1037 801.632813 1028.792969 798.75 1020 C 794 1005.566406 793 990.074219 793 975 L 791 975 C 789.285156 996.710938 789 1017.246094 789 1039 L 788 1039 C 787.867188 1032.53125 786.574219 1022.421875 779.957031 1019.21875 C 775.859375 1017.234375 771.390625 1020.417969 768.417969 1016 C 766.472656 1013 764.621094 999.207031 760.296875 999.207031 C 757.546875 999.207031 757.222656 1005.1875 757 1007 C 756.675781 1012.621094 755.261719 1028 759 1032.378906 C 761.183594 1035 765.371094 1032.15625 768 1032.023438 C 771.992188 1031.816406 775.527344 1034.386719 779 1036 L 779 1037 C 763.242188 1041.429688 748.992188 1040.027344 733 1040 C 729.339844 1040 719.386719 1041.644531 716.921875 1038.1875 C 714.503906 1034.796875 724.261719 1032.808594 726 1032.375 C 736.492188 1029.746094 744.714844 1029.652344 755 1033 C 754.972656 1023 754.84375 1009.625 752 1000 C 749.542969 1002.15625 748.640625 1003.789063 748 1007 L 747 1007 C 746.539063 997 741.871094 983.523438 734 977 C 728.683594 992.703125 735 1009.261719 737 1025 L 736 1025 C 732 1008.210938 725.605469 995.691406 727 978 C 719.703125 983.480469 713.332031 1006 712 1015 L 711 1015 C 711 1003.21875 713.902344 991.722656 714 980 L 713 980 C 708.671875 993.285156 699.222656 1007.066406 698 1021 L 697 1021 C 697.636719 1013 699.933594 1005.121094 700 997 C 692.242188 1002.765625 688.175781 1014.816406 686 1024 L 685 1024 C 687.277344 1008.507813 697.925781 995.742188 700.824219 981 C 701.765625 976.226563 700.285156 963.75 705.304688 961.199219 C 710 958.75 723.238281 963.578125 728 965.464844 C 735 968.292969 741 974 743.933594 981 C 744.886719 983.34375 746.261719 989.667969 749.878906 989.078125 C 753.78125 988.441406 753.71875 980.753906 755 978 C 757.894531 972.804688 762.917969 969.527344 768 967 C 766.65625 977.410156 764.171875 987.78125 768 998 L 769 998 C 769.65625 989.703125 769.320313 978 774.648438 971.105469 C 779 965.460938 786.71875 965.066406 793 963 C 804.800781 959 816.871094 954.546875 827 947.074219 C 838.574219 938.535156 846 926.121094 853.398438 914 C 863.996094 896.339844 876.726563 877.035156 878.828125 856 C 881.96875 824.597656 869.601563 803.34375 843 787.601563 C 833.917969 782.230469 824.433594 777 814 774.667969 C 811.179688 774.070313 803.3125 773 804 778.054688 C 805 785.316406 818.632813 789.195313 824 792.464844 C 837.953125 801 850.722656 812.226563 861.960938 824 C 866.257813 828.503906 872.402344 835.179688 871.5625 842 C 869.496094 858.777344 842.796875 850.683594 833 848.011719 C 817.382813 843.75 801 841.597656 785 844.285156 C 774 846.113281 763.253906 852.089844 752 851.738281 C 739.726563 851.355469 730.25 842.03125 719 838.359375 C 711.601563 836 688 838.367188 685.738281 829 C 683 818.378906 707.386719 813.203125 714 811 C 748.550781 799.484375 779.882813 795 816 795 L 816 794 C 807 789.273438 773.863281 781.339844 791 768 C 792.910156 766.414063 794.910156 765.191406 797 764 L 797 763 C 787.46875 764 779 770.09375 770 773 C 756.226563 777.355469 741.738281 779.148438 728 783.671875 C 718 787 709 793.109375 699 796 C 703 791 722 780.523438 720.914063 774.015625 C 719.992188 769.0625 714 768.125 710 768.015625 C 699.777344 767.742188 690.488281 769.609375 681 773.453125 C 653.230469 784.703125 627.261719 812.484375 623.289063 843 C 621.464844 857.023438 629.285156 868.089844 635.242188 880 C 645.28125 900.082031 651.722656 923 667 940 C 671.648438 945.140625 676.753906 949.597656 683 952.730469 C 686.671875 954.570313 693 956 694.671875 960.105469 C 696.3125 964.25 692.777344 970.761719 692 975 C 689.523438 992.246094 686 1007.765625 674 1021 C 674 1017.238281 674.3125 1013.699219 675 1010 C 667.839844 1014.03125 662.960938 1025 657 1031 C 662 1015 647.480469 1027.757813 642 1033 C 649 1007.820313 663 985.109375 670 960 C 663.984375 964 660.3125 973.003906 656.574219 979 C 646.277344 995.535156 629.464844 1016.566406 626 1036 L 625 1036 C 628.402344 1010.734375 641 986.460938 648 962 C 641.515625 966.285156 638.828125 979.046875 635.695313 986 C 625.496094 1008.621094 615.996094 1031 605 1053 L 604 1053 C 607.914063 1043.597656 613.480469 1035.117188 615.550781 1025 C 619.335938 1006.484375 616.859375 987.628906 619.289063 969 C 620.832031 957.164063 626.480469 946 627 934 L 626 934 C 619.828125 953 610.421875 970.753906 605 990 C 596.855469 1020.308594 593.234375 1051.640625 585 1082 C 582.542969 1091.613281 577.289063 1100.335938 575 1110 L 574 1110 C 575.878906 1096.0625 579 1083.226563 578.996094 1069 C 578.746094 1048.003906 574.769531 1027 578.285156 1006 C 580.617188 992.066406 587.648438 980 593 967 C 584.617188 971 578.515625 980.6875 573 988 C 557 1010 544.179688 1040.605469 542 1068 L 541 1068 C 541 1050.402344 544.792969 1033.363281 547 1016 L 546 1016 C 527.300781 1048.160156 524.976563 1084.074219 525 1120 L 524 1120 C 519 1087 517 1050 526.429688 1017 C 528.554688 1009.464844 533 1003.164063 536 996 C 531.3125 997.394531 527.984375 1000.285156 524 1003 C 531.429688 985.761719 549.453125 972.375 555 955 C 543.824219 959.65625 534.546875 967.554688 526 976.003906 C 504.339844 997.417969 477.667969 1030.820313 477 1063 L 476 1063 C 476 1037.152344 483.949219 1014.136719 500.425781 994 C 508.867188 983.679688 522.730469 975.445313 528 963 C 512.375 964.601563 501.585938 982.363281 493.289063 994 C 469.558594 1027.289063 451 1066.34375 451 1108 L 450 1108 C 449.46875 1095.652344 446.582031 1083.394531 446 1071 C 445.351563 1055.261719 447.996094 1039.691406 448 1024 L 447 1024 C 438.855469 1049.46875 433 1076.210938 433 1103 L 432 1103 C 430.855469 1095.222656 427.996094 1088 427 1080 L 426 1080 C 423.476563 1089 422 1098.667969 422 1108 L 421 1108 C 420.996094 1093.609375 417 1079.390625 417.453125 1065 C 418.203125 1032.171875 425.726563 999.28125 438.425781 969 C 444.375 954.808594 451.683594 941.363281 459.28125 928 C 461.320313 924.410156 467.402344 916.800781 465.355469 912.378906 C 463.421875 908.199219 458.738281 915.535156 457.816406 917 C 452.425781 925.542969 447.375 934.328125 442.199219 943 C 424.988281 972 407.472656 1006.714844 406 1041 L 405 1041 C 405 1023.363281 403.316406 1006.472656 406.609375 989 C 414 949.113281 436.8125 912.328125 457.398438 878 C 472 853.46875 490.679688 824.773438 518 813 C 509 822.722656 502.925781 834.347656 499.289063 847 C 498.640625 849.257813 494.84375 859.054688 498.601563 860.167969 C 502.203125 861.234375 507.480469 854.808594 510 853 C 518.921875 846.125 528.59375 840.578125 539 836.449219 C 565.609375 826 588.859375 832 616 834 C 600.695313 814.496094 561.34375 818.425781 541 825.699219 C 533.730469 828.296875 527.679688 833.632813 520 835 C 537.964844 813 566.6875 801.210938 595 805.300781 C 605.355469 806.796875 614.984375 812.15625 625 815 C 620 804.644531 605.4375 801.347656 595 800 L 595 799 C 606.898438 797.242188 622.84375 791.421875 633 785 C 626.78125 781.25 618 781.535156 611 780.832031 C 586 778.332031 562.695313 784.046875 538 786 C 565.796875 760.628906 609.921875 748.582031 647 752.171875 C 658.617188 753.292969 669.695313 757.40625 681 760 C 675.359375 751.390625 657.503906 748.3125 648 746.398438 C 624.96875 741.765625 599.414063 740.53125 577 748.695313 C 567.246094 752.246094 559.386719 759 550 763 C 557.882813 738.3125 600.375 729 623 732.4375 C 633.554688 734.089844 643.378906 738.628906 654 740 C 650.632813 736 641.945313 735.308594 637 733.667969 C 612.527344 725.546875 592.21875 730.261719 569 739.550781 C 549.5 747.351563 530.632813 755.097656 514 768.285156 C 484.3125 791.824219 467.601563 826 449 858 C 441.222656 871.808594 427.816406 886 423 901 L 422 901 C 429 865 442.511719 835 465.804688 806 C 473.183594 797 481.226563 788.007813 490 780.175781 C 495.632813 775.144531 502.453125 771.496094 505 764 C 490.777344 767.378906 480.894531 780.105469 471 790 C 449.789063 811.214844 433.902344 836.292969 425 865 C 421 877.613281 422.554688 890.546875 419.757813 903 C 416.695313 916.640625 403.300781 935 394 945 C 393.609375 926.136719 393.253906 908.632813 397.652344 890 C 410.910156 834 451.652344 783.601563 502 756.308594 C 516.382813 748.511719 532 742.390625 548 738.375 C 559.542969 735.449219 572.367188 734.601563 583 729 C 577.875 725.5 569.867188 727 564 727.730469 C 549.851563 729.746094 535.675781 732.078125 522 736.28125 C 457.203125 756.203125 405.484375 815.816406 387 880 L 386 880 C 384 869.484375 388.449219 859.652344 392.1875 850 C 398.386719 834 403.980469 816.277344 415.300781 803 C 422.324219 794.765625 434.414063 788.828125 439 779 C 407.980469 795.507813 375.511719 822.167969 367 858 L 366 858 C 369.9375 808.546875 417.238281 790 448 760 C 471 737.519531 497 714.070313 514.65625 687 C 529.765625 663.734375 538.261719 636.660156 554.425781 614 C 560.757813 605.125 568 596.761719 577 590.4375 C 582.546875 586.527344 591.261719 583.722656 595 578 C 574.324219 578.171875 559 592.1875 548.8125 609 C 533.363281 634.199219 524 671.292969 499 689 C 501.382813 681 508 675.675781 512.789063 669 C 519.175781 660 522.96875 649.082031 523 638 L 522 638 C 516.484375 650.367188 509 660.15625 497 667 C 508 653.03125 522.902344 628.714844 521 610 C 513.296875 620.136719 509.453125 631.714844 496 636 C 501 631 506.382813 626 509 619 C 496.253906 623.152344 480 631.824219 475 645 L 474 645 C 478.296875 626.441406 495 616.519531 503 600 C 483.457031 605.640625 466.222656 623.367188 446 606.671875 C 442.566406 604 439.6875 600.523438 437 597 C 453 597 467.925781 594.214844 482 586 L 482 585 C 474.335938 585.15625 466.660156 587.199219 459 587 C 448.898438 586.636719 439.707031 583.246094 430 581 L 430 580 C 444.171875 580 474.226563 579.390625 483 566 C 464.59375 569.808594 442.859375 579.597656 426 566 C 439.972656 564.234375 454.699219 563 468 558 L 468 557 C 451 558.332031 436.605469 561.273438 420 556 C 426.78125 553 433.871094 552 441 550 L 441 549 C 437.542969 549 419 549.523438 419 544.324219 C 419 540.792969 426.558594 539.175781 429 538.128906 C 439.773438 533.496094 449.84375 525 462 524.214844 C 473.707031 523.488281 482.4375 534 491 540.242188 C 502.460938 548.675781 515.40625 554.007813 529 558 C 534.464844 559.40625 547.21875 565 552.394531 560.820313 C 556.492188 557.550781 549.859375 541.726563 547.632813 538.039063 C 544.484375 532.820313 539 531.652344 534 529.015625 C 520.617188 522.035156 497.425781 493.601563 523 486 C 514.488281 502.238281 530.769531 516.175781 547 515.742188 C 559.992188 515.394531 571.691406 508.132813 584 505 C 614.632813 496.800781 644.695313 501.03125 666.910156 525 C 673 531.6875 678.476563 539.582031 682 548 L 683 548 C 681.8125 534.417969 672.171875 522 666.246094 510 C 660.203125 497.828125 657 483.585938 657 470 L 658 470 C 660 484.402344 673.613281 506.757813 687 513 C 685.507813 503 681.375 493.472656 682 483 C 683.746094 458.6875 696.210938 436.792969 700.386719 413 C 702.28125 402.1875 699.222656 391.757813 699 381 C 709.960938 392.199219 712 404 712 419 C 716.222656 415.828125 716.613281 409 717.410156 404 C 719.542969 390.753906 719.546875 377.308594 718 364 C 713.921875 327.230469 694.921875 288.011719 662 269.015625 C 644.527344 259 621.375 254.289063 602 249 L 602 248 C 612.246094 250 622.609375 250 633 250 C 629.859375 244.441406 623.972656 241.179688 619 237.347656 C 606 227.425781 592 217.339844 575 217.339844 C 565.226563 217.339844 555.792969 221 546 221 C 547.402344 223.273438 548.515625 224 551 225 L 551 226 C 543.53125 227.539063 536.664063 229 529 229 C 531.507813 232.796875 535.644531 233.617188 540 234 L 540 235 C 532.703125 237.828125 525.945313 241 518 241 C 520.683594 245.761719 526.363281 248 530 252 C 522.945313 252.558594 516 253 509 253 C 510.515625 257.09375 513 259.066406 517 261 C 510 264 502.402344 264 495 264 C 497.332031 268 501.398438 270.332031 505 273 C 500.457031 274.289063 492 276.265625 500 280 L 500 281 C 492.777344 281.328125 486 284.175781 480 288 L 480 289 L 489 290 L 489 291 C 485.871094 292.019531 470.613281 297 480 300 L 480 301 C 472.984375 301.304688 457.441406 304.304688 452.753906 310.070313 C 450.496094 313 455.972656 314.703125 454.792969 317.277344 C 453.691406 319.6875 448.832031 321.664063 447 324 L 449 324 C 445.210938 327.277344 441 330.011719 438 334 C 441.269531 335.25 444.585938 336.21875 448 337 L 448 338 C 442 339.417969 436.773438 341.742188 435 348 L 438 347 C 424 362.191406 417.441406 384.539063 401 397.320313 C 396.210938 401.042969 386.578125 407.644531 380 405.222656 C 370.609375 401.691406 395.316406 394 382 390.34375 C 380.734375 390.003906 379.316406 390.0625 378 390 L 378 388 C 388.472656 387.542969 403.25 383.101563 408 373 L 395 373 L 395 372 C 397.6875 371.085938 407 368.578125 405.652344 364.351563 C 404.882813 362.117188 398.195313 360.683594 400.636719 357.800781 C 405.449219 352.113281 415.648438 355.128906 421 349 L 409 349 L 409 348 C 416.359375 347.007813 423.304688 344.132813 430 341 L 430 340 C 427.957031 339.390625 426 339.152344 423.996094 338.828125 C 406 336.085938 430.492188 329 433 325 C 419.71875 323.792969 431 318 438 317 C 436.222656 313.757813 430.199219 311.496094 429.632813 308 C 428.558594 301.425781 446 301.011719 450 301 C 448.445313 298.308594 444.285156 297.3125 443.207031 294.714844 C 442.191406 292.269531 446.484375 291.3125 448 291 C 453.28125 289.464844 460.683594 290 464 285 C 461.269531 285 458.6875 284.5 456 284 L 456 283 C 463 282.6875 471.90625 281 478 277 C 474.550781 275 470.945313 275.011719 467 275 L 467 274 C 469.683594 273 483.457031 269.097656 481.652344 264.828125 C 480.75 262.6875 472.816406 262.277344 474.207031 259.195313 C 475.683594 256 481.742188 256.007813 484 253 C 482.261719 252.738281 480.652344 252.46875 478.976563 252 C 461.90625 246.1875 489.574219 243.3125 492.339844 240.273438 C 495.621094 236.664063 487.925781 234.246094 489.207031 230.703125 C 490.472656 227.207031 496.179688 227.21875 497.914063 223.800781 C 501.640625 216.460938 485.507813 217 482 217 C 487.46875 212.257813 494.675781 209.78125 502 210.105469 C 505.632813 210.265625 511.980469 212.757813 515.382813 211.226563 C 517.894531 210.097656 515.457031 206.53125 517 205 C 518.765625 203.285156 521 207 523 205.25 C 528.257813 201 529.324219 189.035156 532 183 C 533.652344 186.710938 534.988281 190.460938 537 194 L 538 194 C 538 184.242188 540.507813 175.328125 543 166 L 544 166 C 544 171.4375 542.230469 180.367188 547 184 C 547.496094 172.5625 555 163.199219 556 152 L 557 152 C 557.558594 159.054688 558 166 558 173 L 559 173 C 562.613281 165.804688 565.632813 156 567 148 L 568 148 C 568 155 567 162.414063 569 169 C 573.664063 162.207031 577.757813 146.300781 579 138 L 580 138 C 580 142 579.703125 145.640625 582 149 C 588.578125 137.683594 589.480469 127 601 119 C 598.839844 125.382813 595.179688 132.117188 595.179688 139 C 595.183594 153.28125 609.398438 162.167969 621 167 C 614.304688 171.242188 608.328125 176.15625 606 184 C 618.355469 181.140625 629 176.691406 642 177.015625 C 644.414063 177.074219 652.945313 177.253906 652.945313 181.003906 C 652.945313 184.144531 646 185.136719 644 186.109375 C 636.902344 189.386719 639.777344 195 643 200 C 630.730469 200.636719 632.753906 210 643 213 L 643 214 C 629.773438 216.730469 619 213.617188 606 213.039063 C 597.496094 212.667969 589.421875 214.636719 581 215 L 581 217 C 612.972656 217.019531 630.859375 232 655 250.253906 C 691 277.605469 731.410156 306.121094 732.742188 356 C 733.789063 395.347656 707.535156 427.527344 702 465 L 703 465 C 725.742188 422.34375 748 377.160156 733.277344 328 C 728 311 716.417969 298 709 282 C 718 288.035156 727.335938 297.492188 737 302 C 735.699219 291.761719 732.28125 282.699219 729 273 C 737.324219 278.222656 742.914063 287.25 751 292 C 749.917969 284.667969 746.664063 278 744 271 C 749 274.558594 752.785156 279.523438 759 281 L 757 271 C 762.359375 276.824219 766.664063 284.578125 774 288 C 772.292969 281 770.578125 273.273438 770 266 L 771 266 C 773.839844 278 782.3125 287.480469 784 300 L 786 300 C 786.433594 294.558594 787.898438 289.332031 789 284 L 790 284 C 793 295.472656 794.546875 305.71875 789.558594 317 C 787.699219 321.214844 777.839844 339 771.859375 331.667969 C 768.691406 328 770.496094 321.5 770 317 C 760.339844 329 765.371094 347.371094 772.863281 359 C 790.328125 386.101563 816.441406 408.785156 827 440 L 828 440 C 827.746094 427.695313 820.976563 417.113281 816.453125 406 C 808.976563 387.628906 805.757813 367.03125 812.695313 348 C 817.890625 333.746094 831.460938 327.601563 838 315 C 817.382813 316 809.71875 338.226563 804.722656 355 C 803.582031 358.816406 802.363281 373.167969 798.476563 374.792969 C 795.789063 376 793 370.632813 791.847656 369 C 787 362.46875 780 354.605469 780 346 C 780 335.558594 790.859375 326.636719 794.300781 317 C 803.496094 291.246094 793.953125 273.113281 780 252 C 796.296875 263.476563 799.457031 281 807 298 C 821.328125 274.078125 784.792969 244.699219 765 240 C 769.378906 247.609375 775 253.511719 778 262 C 770.59375 256.121094 763 250.355469 756 244.128906 C 754 242.441406 749.496094 239.460938 750.460938 236.3125 C 751.691406 232.3125 759.839844 234.765625 762.773438 233 C 767.359375 230.167969 766 222.535156 766 218 C 773.792969 224.402344 782.425781 225.195313 792 227 C 788.5 221.699219 779.851563 219.601563 775 215 C 782.730469 213.164063 789.351563 216.375 797 217 L 797 216 C 791.390625 213.5 786.195313 211.707031 782 207 C 795.984375 207 810 204.222656 824 207.503906 C 830.398438 209.015625 836.785156 211.640625 841.953125 215.761719 C 843.433594 217 847.699219 220.652344 844.574219 222.394531 C 837.839844 226.144531 822.828125 217.578125 816 216 C 820.628906 223.664063 828.714844 228.652344 834 236 C 824.820313 233 816.773438 228.261719 807 227 C 811.210938 233.425781 821.171875 236.4375 826.710938 242.171875 C 844.839844 261 836.972656 277 834 299 C 846.414063 293.164063 852 273.558594 847.894531 261 C 846.382813 256.496094 835.683594 245.148438 840.257813 241.484375 C 845 237.671875 853.261719 238 859 238 C 875.976563 238.074219 893.96875 241.5625 910 247.078125 C 916.28125 249.242188 924.976563 255.558594 931.867188 253.679688 C 937.53125 252.132813 935.707031 244.148438 934.902344 240 C 932.667969 228.433594 923.375 215.773438 912 212 L 912 211 C 932.171875 210.121094 947.605469 192.148438 944.699219 172 C 943.484375 163.582031 937.847656 157.066406 936 149 C 953.84375 157 955.945313 175 962 191 L 963 191 C 963.179688 182.308594 964.976563 173.710938 965 165 L 966 165 C 969 171.53125 970.902344 180.257813 975 186 C 978 178 982.640625 170.191406 985 162 L 986 162 L 985 196 C 990 192.167969 992 178.214844 993 172 L 994 172 C 995.230469 187.078125 999.769531 199.699219 996 215 C 1002.21875 211 1003.855469 201 1004 194 L 1005 194 C 1009.644531 213.511719 998 229.113281 998 248 L 999 248 C 1002.683594 241.695313 1005.898438 236.300781 1012 232 C 1009.875 235.019531 1003.515625 246 1009.316406 248.355469 C 1013 250 1019.242188 247 1023 246 C 1020.453125 248.5625 1018 251.046875 1016 254 C 1018.796875 254.222656 1026.359375 254.019531 1027.964844 256.738281 C 1030.839844 261.609375 1018.753906 264.527344 1016 264.824219 C 1003.382813 266.199219 990.558594 264 978 264.257813 C 964.492188 264.621094 952 268.289063 939 271 L 939 270 C 941.964844 268.824219 943.464844 267.796875 945 265 C 928.597656 265 916.476563 270.765625 901 275 C 905.277344 270.101563 909.992188 265.285156 912 259 C 892.207031 260.617188 878.871094 274.082031 863 284 C 864.625 279.199219 865.597656 274.058594 866 269 C 856 277.46875 848.269531 298.089844 848 311 C 856 308.242188 859 300.457031 863.925781 294 C 870 285.613281 878.386719 278.148438 888 274 C 886.613281 276 885.332031 278 884.273438 280.003906 C 873.933594 301.070313 908.273438 279.832031 916 278 C 908 287.132813 900.761719 297.066406 898 309 C 909 300 915.464844 288.054688 929 281.269531 C 959 266.183594 992.988281 271.785156 1025 274.828125 C 1036.46875 276 1048.808594 274.46875 1060 277.488281 C 1073.597656 281.15625 1082.707031 293.164063 1096 297 L 1096 298 C 1085.902344 296.640625 1076.234375 293.164063 1066 292.171875 C 1051.777344 290.789063 1038.175781 292 1024 292 L 1024 294 C 1074.574219 294.003906 1117 327.03125 1151 361 C 1133 348.769531 1117.234375 334.714844 1098 324.308594 C 1059.914063 303.707031 1015.296875 301.105469 974 313 C 952.535156 319 928.324219 329.683594 917 350 C 936.515625 343.78125 951.632813 327.140625 972 321 C 1013 308.265625 1061.429688 312.535156 1097 338 C 1116.804688 352.035156 1130.949219 372 1148 389 C 1119.742188 377.230469 1098 358 1066 358 L 1066 359 C 1077.644531 365.765625 1090.449219 369.699219 1102 377.054688 C 1124.808594 391.574219 1142.949219 413.808594 1154.742188 438 C 1161 451.097656 1166 465.601563 1168.410156 480 C 1168.714844 482 1171.398438 494.320313 1166.949219 493.367188 C 1164 492.761719 1163.386719 487.21875 1162.644531 485 C 1159.96875 477.011719 1156.238281 469.261719 1151.988281 462 C 1140 441.695313 1117 413.710938 1093 408 C 1097.773438 418.027344 1111.871094 426.484375 1120 434.089844 C 1135 448.191406 1148.554688 465.226563 1155 485 C 1144.761719 477.640625 1135.761719 468.707031 1125 462.066406 C 1116.449219 456.785156 1106.738281 453.574219 1098 448.574219 C 1074.632813 435.199219 1055.972656 423.535156 1028 428.613281 C 1019 430.234375 998.300781 433.253906 993 441 C 1008.167969 439.082031 1023.695313 433.078125 1039 433.078125 C 1068.316406 433.078125 1101.253906 450.289063 1124 467.652344 C 1133.492188 475 1143.578125 484.152344 1147 496 C 1134.980469 492.015625 1124.234375 481.386719 1113 475.308594 C 1090.558594 463.171875 1064.652344 455.003906 1039 455 L 1039 456 C 1076.574219 472.65625 1107.914063 489.085938 1131.304688 525 C 1137.410156 534.378906 1142 544.394531 1145.667969 555 C 1146.222656 556.667969 1149.65625 564.671875 1146.394531 565.367188 C 1142.210938 566.265625 1137.816406 556.664063 1135.960938 554 C 1128.792969 543.707031 1117.972656 530.605469 1106 526 C 1122.769531 551.347656 1145 575.777344 1145 608 L 1144 608 C 1143.484375 596.753906 1136.714844 587.074219 1130.667969 578 C 1118 559.046875 1103.808594 541.265625 1085 528.035156 C 1076 521.792969 1063.503906 517.582031 1056 510 C 1065 509.609375 1073.890625 508 1083 508 L 1083 507 C 1071 504.179688 1058.980469 505.054688 1047 506 L 1047 505 C 1054.402344 504.410156 1061.539063 502.152344 1069 502 L 1069 501 C 1062 498.644531 1054.3125 497.578125 1047 497 L 1047 496 C 1055 496 1062.972656 496 1071 497 C 1063 488 1043.273438 488 1032 488 L 1032 487 C 1036.894531 486.277344 1044.925781 485.054688 1048 481 C 1038.652344 481.191406 1029.363281 483 1020 483 C 1027.640625 476.722656 1037 476.8125 1045 472 C 1031.367188 468 1015.578125 470 1002 473 C 1006.902344 468.109375 1011.582031 463.769531 1018 461 L 1018 460 C 1005 460.5625 994.339844 467.703125 983 473 C 986.761719 468.105469 991 463 993 457 L 970 465 C 974.78125 460.257813 982.453125 456.53125 986 451 C 965.324219 457 961.441406 471.828125 948 486 C 953.449219 443.109375 1000.832031 415.285156 1042 418.089844 C 1065.882813 419.714844 1084.828125 428.5625 1107 436 C 1097.554688 422.628906 1079.179688 417.085938 1064 413.15625 C 1058.433594 411.714844 1045.945313 412.371094 1043 406.179688 C 1041.632813 403.195313 1045.847656 401.035156 1048 400.132813 C 1055.273438 397.09375 1063.328125 397.257813 1071 396.4375 C 1077 395.785156 1083.773438 397 1090 397 L 1090 396 C 1070.984375 390.65625 1050.433594 392.179688 1032 387 C 1046.738281 376.09375 1070.417969 383.6875 1087 385 L 1087 384 C 1047 365.34375 979.429688 374 960 419 L 959 419 C 964.609375 394.746094 982 371.011719 1008 367.300781 C 1019 365.710938 1035.273438 370.652344 1045 364 C 1035.964844 360.160156 1025.671875 360 1016 360 C 1006.484375 360 997 360 988 363.078125 C 935.378906 381.121094 949.777344 455.125 915 490 C 915 472.65625 926.695313 458 928.519531 441 C 930 426.5625 917.40625 443.140625 916 449 L 915 449 C 918.921875 428 919.378906 406.496094 912.484375 386 C 911.605469 383.386719 904.296875 362.671875 900 366.832031 C 898.1875 368.609375 899.574219 373 899.921875 375 C 901.167969 382.652344 902.214844 390.339844 903.410156 398 C 906.621094 418.570313 906.328125 439.335938 891 455 L 892 431 C 886.621094 434.0625 886.863281 440.617188 883 445 C 882.742188 414 867.238281 383.378906 865 352 C 864.523438 343.707031 867 322 860.6875 315.753906 C 858 313.320313 854.480469 319.351563 853.480469 321 C 836 349.667969 842 393.40625 852.691406 423 C 858.375 439 867.519531 454 869.710938 471 C 871 481.707031 866.972656 493.535156 865 504 C 877.960938 499.628906 891.636719 480.257813 894 467 L 895 467 C 894.410156 480.761719 890.574219 495.800781 884 508 C 878 519.453125 868.175781 529.554688 867 543 L 868 543 C 876.933594 524 895 505.523438 917 503.175781 C 926.796875 502.125 936.277344 504.800781 946 505 L 946 506 C 937 506 927.558594 505 919 507.441406 C 898 513.65625 883 536 873 554 C 885.445313 550.40625 894.34375 539.640625 907 536.15625 C 943.203125 526.191406 988.445313 542.710938 1007 576 C 977 546.101563 943.265625 539.089844 903 550.578125 C 894.253906 553.074219 876.203125 556.125 871 564 C 915.324219 553.324219 960.863281 564.464844 982.628906 608 C 988.183594 619.109375 990.460938 630.8125 992 643 L 993 643 C 993 624.578125 988.675781 607.429688 978.328125 592 C 974.378906 586.109375 970 580.21875 964.914063 575.285156 C 963 573.480469 959.359375 571.164063 959.769531 568.105469 C 960.644531 561.609375 972.285156 564.65625 976 565.769531 C 991.625 570.460938 1002.234375 583.15625 1016 591 C 1014.851563 583.214844 1011.691406 574.503906 1007.226563 568 C 1005.296875 565.191406 1000.371094 561 1001.445313 557.109375 C 1002.695313 552.667969 1010.539063 551.496094 1014 549.390625 C 1021.707031 544.699219 1025.570313 536 1033 531 C 1035.394531 529.40625 1041.566406 527.828125 1039.671875 533.023438 C 1038 537.269531 1033 541 1030 544 C 1026.628906 547.328125 1022.875 550.238281 1020 554 C 1031.617188 552.4375 1042 548.25 1054 549.089844 C 1078.441406 550.800781 1103.640625 572 1108.550781 596 C 1110.652344 606.292969 1106.824219 615 1106 625 L 1104 625 C 1103.40625 617.722656 1100.761719 608.699219 1094 605 C 1098.976563 626.699219 1091.4375 642.75 1091 664 L 1090 664 C 1089.925781 636.71875 1077.601563 609.640625 1065 586 L 1064 586 C 1064 604.597656 1063.203125 623.441406 1064 642 C 1057.332031 634 1056 625.195313 1056 615 L 1054 615 L 1053 668 L 1052 668 C 1050 661.691406 1045.824219 656.324219 1043.75 650 C 1040.480469 640.03125 1040 628.425781 1040 618 L 1039 618 C 1037.890625 626.253906 1034.730469 634.574219 1035 643 C 1035.835938 659.5 1045.34375 671.246094 1053 685 C 1040.84375 676 1028.351563 663.695313 1026 648 L 1024 648 C 1024.382813 666.566406 1033.824219 682.386719 1038 700 C 1031.734375 693.175781 1025.984375 685.296875 1021.808594 677 C 1019.636719 672.679688 1018.769531 666.035156 1015 663 C 1018 686.410156 1034.410156 706.164063 1046 726 C 1033.589844 718.269531 1021.628906 707.261719 1012.328125 696 C 1007.597656 690.269531 1005.179688 683.457031 999 679 C 1001.960938 701 1016.820313 719.71875 1034 732.625 C 1048.277344 743.351563 1069 754.542969 1072 774 L 1071 774 C 1066.855469 752.589844 1035.765625 741.652344 1020 730.253906 C 1000.550781 716.195313 988 695.453125 971 679.039063 C 954.257813 663 930.199219 652 907 650 C 911.90625 656.691406 925.679688 659.351563 933 663.308594 C 953 674.160156 979.546875 689.09375 989 711 C 977.738281 708 962.457031 704.613281 951 708 L 951 709 C 1016.351563 717.4375 1055.664063 784 1082.246094 837 C 1090.601563 853.710938 1101 871 1106 889 L 1105 889 C 1099 868.609375 1080.84375 848.304688 1067.800781 832 C 1034 790 994.925781 731 938 720.613281 C 908 715.179688 880.476563 728.214844 855 742.574219 C 846.382813 747.433594 833.496094 750.796875 830 761 C 864.480469 753.019531 890.476563 718.75 929 724.300781 C 957.5625 728.414063 977.371094 755.628906 997 774 C 1055.4375 828.347656 1115.683594 900.304688 1109 985 L 1108 985 C 1103.28125 966.757813 1103.722656 942.667969 1092 927 C 1088.496094 959 1094.609375 991 1090 1023 C 1088 1038 1084.601563 1054.820313 1074 1066 C 1071.335938 1054.402344 1077.6875 1039.167969 1077.984375 1027 C 1078.886719 990.15625 1073.460938 953.019531 1058.851563 919 C 1053.746094 907.121094 1048.609375 892.011719 1037 885 C 1042 902.464844 1052.515625 918 1056.574219 936 C 1067 983.195313 1059.808594 1030.5 1049 1077 C 1044.625 1096.539063 1039 1116.824219 1039 1137 C 1038.988281 1144.082031 1037.359375 1152.789063 1043 1158 C 1043 1141.535156 1048.234375 1125.28125 1053.949219 1110 C 1054.605469 1108.246094 1061.625 1091.605469 1063.9375 1097.296875 C 1066.597656 1104 1060.398438 1116.601563 1058.574219 1123 C 1052.527344 1144.179688 1043 1164.585938 1043 1187 L 1044 1187 C 1046.8125 1175.328125 1048.441406 1163.53125 1052 1152 C 1055.175781 1142 1060.433594 1131.472656 1062 1121 L 1063 1121 C 1063 1140.195313 1067.179688 1159 1068 1178 L 1070 1178 C 1069.402344 1164.132813 1066.269531 1150 1068.4375 1136 C 1072.636719 1109.074219 1087.203125 1085.746094 1095 1060 C 1101.753906 1038.398438 1103.304688 1015.699219 1109.429688 994 C 1113.734375 978.742188 1124.609375 963.824219 1126 948 L 1127 948 C 1125 971.269531 1112.292969 990.695313 1109 1013 L 1110 1013 C 1116.835938 1001.285156 1123.785156 989 1128 976 L 1129 976 C 1129 996.378906 1124.503906 1014.457031 1119 1034 C 1130 1027.777344 1139 1001.15625 1140 989 L 1141 989 C 1149 1020.484375 1143 1046.132813 1128.753906 1075 C 1123 1086.570313 1113.605469 1098.746094 1110 1111 C 1121 1106.730469 1130.175781 1095.710938 1139 1088 C 1132.300781 1111.59375 1110.625 1120.300781 1099 1140 C 1136.878906 1131.238281 1167.203125 1110.007813 1193 1082 C 1187.339844 1099.390625 1180.222656 1115.25 1167.828125 1129 C 1162 1135.308594 1154.332031 1139.542969 1149 1146 C 1179.492188 1146 1210.6875 1126.8125 1220.253906 1097 C 1225 1082 1223.871094 1063.472656 1221 1048 L 1222 1048 C 1226.480469 1067.355469 1238.8125 1084.246094 1236.828125 1105 C 1231.507813 1160.6875 1178 1204.082031 1142.828125 1243 C 1131.984375 1255 1117.625 1266 1111 1281 C 1127.566406 1272.746094 1141.699219 1257 1156 1245.261719 C 1171.167969 1233 1188.589844 1223.234375 1203 1210 C 1193.894531 1227.105469 1180.734375 1245.089844 1179 1265 L 1180 1265 C 1192.8125 1238 1208.507813 1215 1230 1194.015625 C 1234.207031 1190 1246.617188 1175 1252.996094 1176.460938 C 1257.339844 1177.476563 1260.648438 1183.695313 1263 1187 C 1269.765625 1196 1275.917969 1207.765625 1286 1213 C 1280.992188 1192 1279 1174.710938 1279 1153 C 1286.871094 1160 1290.933594 1170.402344 1296.746094 1179 C 1310.238281 1199 1324.472656 1218.464844 1338.574219 1238 C 1346.855469 1249.464844 1354.238281 1262.714844 1366 1271 C 1363.242188 1261.433594 1357.980469 1252.34375 1354.425781 1243 C 1344.992188 1218.210938 1336.25 1194.539063 1321.945313 1172 C 1306.589844 1147.800781 1287.394531 1126.21875 1272 1102 C 1249.261719 1066.019531 1233.730469 1026 1209.28125 991 C 1192.175781 966.523438 1165.886719 946.5 1152.257813 920 C 1142 900.25 1146.492188 874.546875 1142.75 853 C 1138.664063 829.492188 1131 807 1124.578125 784 C 1120.59375 770.023438 1116 755.722656 1117 741 C 1117.828125 731 1123.410156 722.210938 1126.933594 713 C 1130.597656 703.429688 1132.214844 693.191406 1132.910156 683 C 1134.222656 664 1129.542969 645.027344 1128.984375 626 C 1128.875 622.242188 1125.605469 610.6875 1129 608 C 1131.390625 606 1133.734375 611.585938 1134.285156 613 C 1137.175781 620.40625 1137.417969 629.007813 1141.417969 636 C 1143.429688 639.492188 1148.441406 643.035156 1150.851563 638 C 1154.628906 629.726563 1149.3125 618.472656 1149 610 C 1148.410156 590.265625 1155.675781 571 1152.5625 551 C 1151.398438 543.554688 1149.550781 536.019531 1146.796875 529 C 1145.566406 526 1142.628906 521.523438 1144 518.09375 C 1150.4375 503.703125 1160.238281 519 1165.183594 524 C 1167 525.746094 1170.753906 528.578125 1173.398438 526.300781 C 1176.613281 523.53125 1175 514.6875 1174.574219 511 C 1173.488281 502.726563 1169 480 1173.601563 473.039063 C 1179.5 464.101563 1193 459.792969 1202 454.546875 C 1205.566406 452.441406 1209.851563 449 1213.273438 453.164063 C 1218 459.3125 1218.210938 471.515625 1219.609375 479 C 1223.984375 502.390625 1227.546875 528.300781 1245 546 C 1252.957031 554.042969 1264 561 1275.996094 558.773438 C 1284.203125 557.257813 1283.386719 548.328125 1282.195313 542 C 1278.28125 521.195313 1274.183594 501.398438 1282.453125 481 C 1293.40625 454 1322.882813 442.527344 1340.535156 421 C 1355 403.300781 1360.59375 380.527344 1366.710938 359 C 1372 340.109375 1378.5625 320.710938 1379.910156 301 C 1381.175781 282.507813 1378.628906 257.363281 1358 250.597656 C 1345.800781 246.597656 1332.917969 250.738281 1321 244.507813 C 1311 239.355469 1303 231.265625 1294 225.027344 C 1282.722656 217.339844 1269.867188 211.796875 1257 207.34375 C 1221.441406 195.039063 1182.28125 194.445313 1148 178.21875 C 1119.566406 164.761719 1101.441406 137.191406 1074 122.308594 C 1049.222656 109 1023.9375 112.082031 1000 126 C 1001 121 1002.765625 116.171875 1003 111 C 993.960938 115.832031 987.179688 122.820313 980 130 C 984.535156 113.417969 997.605469 105.257813 1005 91 C 984.570313 92.796875 971.390625 116.132813 971 135 L 970 135 C 969.429688 127.761719 969.199219 117.042969 965 111 C 960.554688 121.03125 956 133 956 144 L 954 144 C 953.335938 137.515625 950.226563 132 945 128 C 945 132.464844 946.835938 142.257813 942.683594 145.226563 C 939.3125 147.640625 932.980469 144 931.449219 149.148438 C 929.773438 155 934.539063 161.40625 935.34375 167 C 936.914063 178 928.441406 188.617188 919 193.089844 C 893.929688 205 861.960938 191.503906 837 185.375 C 813.40625 179.582031 787.375 174.265625 763 175.042969 C 747.308594 175.542969 731.753906 181.355469 716 179.828125 C 700 178.285156 685.382813 170.570313 670 166.628906 C 653.363281 162.367188 631.222656 166.140625 619 153 C 598.1875 130.34375 616.785156 101.066406 617 75 C 610.550781 79.730469 604.691406 95.148438 604 103 L 603 103 C 602.414063 95.589844 603.867188 85.101563 601.566406 78.152344 C 599.242188 71.125 593.863281 81.539063 593 84 C 592.308594 86 591.652344 88 591 90 L 590 90 C 590 86.332031 590.769531 81.4375 588.820313 78.148438 C 585.726563 73 579.476563 75.136719 578 80 C 569.28125 72 560.78125 75 550 75 L 499 75 C 490.535156 75 482.371094 73.078125 474 75.355469 C 449.441406 82.03125 440 114.621094 414 121.101563 C 400.660156 124.40625 386.5625 123.453125 373 125.28125 C 353.210938 128 333.972656 133.542969 314 135 C 296.253906 136.125 278.539063 135.191406 261 139.015625 C 238.257813 144 221 161.625 199 168.277344 C 174 175.769531 127.449219 173.808594 121.464844 207 C 120.332031 213.28125 120.472656 221.421875 124 227 C 128.328125 233.734375 134.273438 235 134.910156 244 C 138.347656 292.695313 142.492188 339 166.308594 383 C 184.96875 417.496094 214.421875 447.414063 240.910156 476 C 246.652344 482.195313 255.859375 490.359375 257.59375 499 C 259.480469 508.414063 252.804688 521.390625 264 527.542969 C 273.414063 532.621094 284.21875 524.242188 291 518.5625 C 309.273438 503.253906 320.910156 481.464844 339 466.324219 C 353 454.550781 371.625 464.414063 375.566406 482 C 377.304688 489.757813 373.523438 499.753906 374 508 C 375 522.382813 381.449219 535.714844 382.828125 550 C 383.992188 562.011719 380.921875 574 382 586 C 383.234375 597.484375 390 607.761719 390.910156 620 C 392.253906 639.636719 386.597656 658.429688 391.628906 678 C 396.886719 698.457031 407.285156 718.515625 417.308594 737 C 420.363281 742.632813 430.671875 753.277344 429.183594 760 C 427.332031 768.34375 409 777.707031 403 784.003906 C 380.523438 808 364.652344 837.738281 358.199219 870 C 356.804688 877 351 894.03125 356 900.339844 C 358.238281 903 360.417969 898.515625 361 897 C 363.625 891.550781 364.738281 885.585938 366.8125 880 C 373 863.199219 379.394531 847 387.78125 831 C 391.992188 823.019531 396.757813 814.277344 405 810 M 553 117 C 549.585938 109.695313 547.914063 101.773438 540.984375 96.800781 C 522.351563 83.429688 484 94.730469 468 108 C 469.644531 107.472656 478.792969 103.675781 478.792969 107.351563 C 478.792969 112.378906 468.515625 116.683594 465 119.003906 C 452.460938 127.273438 438.75 136.578125 430 149 C 437.925781 143.59375 445.582031 135.492188 455 132.789063 C 458 132 463.9375 131.066406 465.914063 134.417969 C 469.503906 140.507813 451.550781 146 448 147.785156 C 425.421875 159.519531 412.316406 182.441406 405 206 C 397.558594 230.117188 395.890625 255.464844 390.351563 280 C 383.25 311.425781 369.753906 340.433594 360 371 C 352 396 347.496094 422.359375 335.753906 446 C 324.609375 468.425781 308.367188 487.558594 287 500.808594 C 280.925781 504.574219 273.507813 511 266 511.335938 C 257.222656 512 273 495 274.84375 493 C 292.738281 472.5625 307 448.226563 319.246094 424 C 348.222656 366.050781 362.855469 302.53125 381.976563 241 C 394.445313 201 407 158.386719 435.289063 126 C 459.523438 98.105469 490.722656 83.578125 527 79.285156 C 548.386719 76.753906 569.871094 96.5625 553 117 M 579 80 L 578 81 L 579 80 M 1250 299 C 1239.996094 286.386719 1230.867188 274.144531 1219 263.089844 C 1207.210938 252.109375 1193.199219 242.199219 1185 228 C 1197.175781 228.523438 1206.839844 234 1217 240 C 1210.78125 233.785156 1204.488281 228.605469 1197 224 L 1197 223 C 1214.851563 223.765625 1227.722656 232 1243 240 C 1237.929688 235.613281 1232.453125 231.058594 1226 229 L 1226 228 C 1240.953125 228.011719 1252.578125 234.410156 1266 240 C 1257.867188 232.53125 1247.730469 225.089844 1237 222 L 1237 221 C 1272.945313 221 1294.574219 242.390625 1316.386719 269 C 1322.683594 276.679688 1328.796875 284.40625 1333.785156 293 C 1335 295.28125 1337.472656 299.621094 1340.777344 298.078125 C 1354.242188 291.800781 1333.734375 270 1342.601563 263.027344 C 1349.96875 257.253906 1362.921875 270.191406 1365.46875 276 C 1373.386719 294.066406 1362.671875 315.820313 1357.195313 333 C 1350.695313 353.382813 1349.582031 376 1339 395 C 1328.863281 413.691406 1311.46875 426 1296 440 C 1287.3125 447.808594 1281 456 1275.28125 466 C 1273.859375 468.480469 1270.675781 475.792969 1267.21875 475.792969 C 1263 475.792969 1262 464 1261.589844 461 C 1258.996094 444.378906 1265 428 1262 411 L 1263 411 C 1268.761719 419.710938 1273.910156 428.304688 1274 439 C 1295 419.546875 1283.273438 386.804688 1278 364 C 1285.359375 369.421875 1290.703125 387.191406 1299 389.652344 C 1304.777344 391.347656 1305 378.175781 1304.960938 375 C 1304.335938 359.085938 1294.6875 345 1294 329 L 1295 329 C 1301.695313 339.117188 1307.75 349.714844 1314.191406 360 C 1315.753906 362.492188 1318.945313 369.035156 1322.6875 368.367188 C 1325.480469 368 1324.992188 363 1324.996094 361 C 1325 353.199219 1323 345.570313 1321.425781 338 C 1314.289063 306.171875 1297 282 1270 264 C 1279.851563 278 1294.601563 289.285156 1295 308 C 1281 304 1271.964844 290.160156 1259 284 C 1271.289063 296.394531 1280.710938 312 1284.871094 329 C 1285.855469 333.039063 1289.742188 344.324219 1283.773438 346.292969 C 1280 347.5 1275.671875 343.78125 1273 341.761719 C 1264.773438 335.542969 1257.761719 327.78125 1250 321 C 1259.953125 337.140625 1268.246094 353.535156 1273 372 C 1274.417969 377 1278 387.125 1273.4375 391.242188 C 1269.351563 394.828125 1263.207031 390 1260 387.328125 C 1249.21875 379 1239.933594 368 1231.652344 357 C 1230 355 1222.480469 342.167969 1219.21875 346.464844 C 1215.753906 351.03125 1223.6875 361.359375 1226 365 C 1234.683594 378.09375 1252 393.488281 1248.773438 411 C 1246.304688 424 1231.972656 403.003906 1228.828125 400.363281 C 1225.941406 398 1222.5 397.796875 1221.472656 402.023438 C 1219.253906 411.167969 1227.984375 424.730469 1231.1875 433 C 1240.855469 458 1249.859375 483.148438 1259.800781 508 C 1263 516 1266.714844 524 1269.558594 532 C 1271.175781 536.613281 1271 541 1264.996094 539.386719 C 1253.203125 536.519531 1245.390625 525.550781 1240.871094 515 C 1231 492 1230.445313 465.527344 1221.574219 442 C 1209.949219 411.167969 1189 385.058594 1175.863281 355 C 1169 339.675781 1164.714844 323.414063 1158 308 C 1152.382813 294.460938 1144.226563 282 1139.515625 268 C 1134 251.738281 1133 234.226563 1124.6875 219 C 1118.625 208.058594 1107 203 1100 193 C 1112.496094 198.203125 1122.515625 207.773438 1135 213 C 1115.601563 184.480469 1081.996094 138.359375 1043 141.089844 C 1026 142.269531 1013.617188 153.5 998 158 C 1000 151 1005.425781 146 1011 141.285156 C 1032.867188 123.015625 1058.683594 125.507813 1081 141.425781 C 1100.820313 155.566406 1118.917969 172.359375 1134.5625 191 C 1147.617188 206.554688 1158.191406 224.183594 1172.171875 239 C 1184 251.515625 1199.65625 260.402344 1213 271.261719 C 1224.773438 281 1236 292.445313 1250 299 M 980 130 L 979 131 L 980 130 M 318 146 L 318 147 C 297.226563 155.648438 280.65625 171 261 181 L 261 182 C 275.308594 178 288.453125 170.097656 303 166 C 297.832031 172.257813 290 176.652344 284 182.171875 C 276 189.4375 269.4375 198.226563 262 206 C 281 196 298.957031 183.742188 321 182 L 321 183 C 295.359375 199.082031 275 228.398438 269 258 L 270 258 C 276.484375 238.074219 288.921875 213.40625 312 210 C 297 230.269531 276.195313 247.546875 275 275 C 283 267 288.761719 255.644531 298 249 C 293.289063 268.125 290.988281 288.265625 285 307 C 296 295 295.585938 274.285156 308 264 C 307.996094 289.367188 302.855469 316.613281 296 341 C 301 335.449219 303.671875 326.613281 307.304688 320 C 316.792969 302.722656 326.414063 285.21875 334 267 L 335 267 C 333 282.238281 332.867188 298.785156 326.5625 313 C 319.746094 328.351563 307.199219 340.261719 301 356 C 313.839844 344.792969 326 333.214844 337.984375 321 C 343.742188 315.097656 348.242188 307.800781 355 303 C 353 347.753906 323 382 293 412 C 309.558594 403.550781 294.890625 422.09375 292 429 C 295.394531 426.609375 302.699219 417.320313 307.394531 418.828125 C 311.300781 420.082031 305.691406 429.171875 304.6875 431 C 298.367188 442.507813 288.621094 452.167969 283 464 L 282 464 C 282 443.191406 276.757813 422.8125 277 402 C 277 394.171875 282.195313 381.457031 277.859375 374.273438 C 275 369.683594 271 375.433594 269.476563 378.003906 C 265.238281 385 262.660156 394 262 402 L 261 402 C 261 386.308594 260.214844 370.363281 264 355 C 257.738281 361.390625 252.984375 368.613281 248 376 L 247 376 C 250.832031 361.191406 253.554688 346 257 331 C 223.464844 358.125 237.476563 409 244 444 L 245 444 C 246.609375 437 249.410156 430.210938 250 423 L 251 423 C 251.289063 437 259.394531 448.394531 264.1875 461 C 265.691406 465 268.855469 472.664063 265.972656 476.636719 C 262.199219 482 253.515625 470.53125 251.285156 468 C 239 454.207031 228.65625 439.121094 216.917969 425 C 200 404.707031 182 384.785156 170.269531 361 C 155 330.605469 150.636719 298.203125 146.714844 265 C 145.394531 253.816406 144.53125 242.253906 144 231 C 143.847656 226.65625 145 220.804688 141.683594 217.433594 C 137.433594 213.285156 129.445313 214 124 214 C 134.542969 194 171.316406 191 191 186.347656 C 211.207031 181.71875 225.632813 168.808594 244 160.308594 C 267 149.664063 292.839844 146 318 146 M 351 289 C 348.996094 282.230469 355.613281 273.441406 357.5625 267 C 363.476563 247.4375 366.277344 227 374.285156 208 C 376.8125 202.019531 379.453125 195.746094 384 191.058594 C 385.171875 190 388 186.804688 389.933594 188.175781 C 391.632813 189.472656 389.808594 193.503906 389.328125 195 C 387.390625 201.0625 385 207 383 213 C 374.199219 239.351563 361.617188 263.496094 351 289 M 745 265 C 723.859375 260 719.953125 236.546875 708 222 C 710.582031 231.183594 712 240.464844 712 250 L 711 250 C 708.496094 241 703.375 228.058594 697 221 C 698.339844 231.589844 700.777344 242.316406 701 253 L 700 253 C 699.230469 251.621094 698.507813 250.257813 697.605469 249 C 687.503906 234.390625 690.730469 255.730469 691 262 L 690 262 C 684.605469 254.722656 678.933594 245.035156 670 242 C 670.929688 244.410156 675.410156 253 672.304688 254.828125 C 669.710938 256.488281 664.957031 252 663 250.671875 C 652.5625 243.65625 637.929688 233 659 233 C 656.792969 229.203125 648.632813 213.546875 655.621094 210.347656 C 659 208.789063 662.273438 220 663 222 C 673.578125 198.289063 708.476563 201.335938 724.867188 219.042969 C 728.980469 223.488281 730.207031 229.398438 732 235 L 733 235 C 733 223.160156 734 211.765625 735 200 C 733 203.75 731.273438 213 726.785156 214.289063 C 717.773438 217.03125 715 202.324219 720.226563 197.390625 C 732 186.066406 758 187.453125 773 189.425781 C 776.253906 190 789.792969 189.605469 789.792969 194.691406 C 789.792969 198.414063 779.453125 198.425781 777 198.714844 C 764.925781 200.144531 751 196.1875 742.277344 207.015625 C 730.445313 221.445313 744.296875 248.613281 745 265 M 178 314 C 180.492188 312.445313 186.257813 306.652344 189.398438 308.253906 C 193 310.160156 190.667969 321.753906 190.285156 325 C 189.179688 334.386719 187.402344 360 196 366 C 196 360 196.769531 352.832031 198.789063 347.003906 C 199.796875 344.097656 202.269531 340.683594 204.996094 344.207031 C 208.296875 348.46875 208 356 208.921875 361 C 210.867188 373 211.957031 385.371094 218 396 C 222.34375 390 222.382813 381 225.285156 374 C 231 360.046875 239.503906 347.289063 246.691406 334 C 249.171875 329.417969 256.558594 318.742188 255 313.335938 C 253.910156 309.132813 248.578125 314.746094 247.425781 316.019531 C 241 323 233.328125 330.648438 229 339 L 228 339 C 231 323 236.792969 308.386719 242 293 C 232.703125 294.027344 226.75 302.417969 221 309 C 222.753906 296 230 284.695313 233 272 C 225.25 273.605469 218.597656 276.648438 212 281 C 217.875 267.367188 230.667969 255.523438 231 240 C 222.230469 242.582031 212.851563 250.738281 209 259 L 208 259 C 214.558594 235 228 213.125 237 190 C 223.503906 190.699219 215.339844 203 209.808594 214 C 200.5625 232.476563 194.992188 252.476563 188.484375 272 C 183.875 285.824219 178 299.207031 178 314 M 260 208 C 261.636719 207.453125 261.453125 207.636719 262 206 C 260.6875 206.769531 260.769531 206.6875 260 208 M 590 242 L 590 243 C 594.1875 245.175781 605.40625 253.703125 601.929688 259.570313 C 599.851563 263.074219 593.484375 263 590 263.433594 C 581.445313 265 571.753906 266.277344 565 272.214844 C 557.402344 279 558.773438 288.523438 554.625 297 C 548.375 309.773438 538 319.492188 530 331 C 537 328.714844 544.4375 326.058594 549.828125 320.816406 C 559.691406 311.226563 564.285156 297.660156 576 289.75 C 603.691406 271.050781 640.558594 286.191406 664 304.667969 C 671.855469 311 677.824219 319.242188 686 325 C 674 305.601563 657.976563 285.195313 635 278.746094 C 624.734375 276 613.554688 277.003906 603 277 C 600.285156 277 593.746094 278 592.347656 274.714844 C 591.230469 272.160156 605.660156 270 607.71875 268.03125 C 611.207031 265 605.648438 260.707031 608.65625 258.027344 C 611 256 616.265625 257.621094 619 258.082031 C 628.253906 259.640625 637.300781 262.078125 646 265.605469 C 673.238281 276.636719 695.382813 302.832031 700.535156 332 C 702.175781 341.28125 701 351.589844 701 361 L 700 361 C 687.816406 341.160156 674.996094 316.703125 654 305 C 666 329.71875 686.949219 354.492188 684.816406 384 C 683.925781 396.308594 676.875 406.808594 672.398438 418 C 669.289063 425.773438 666.5625 441.125 659.652344 446.339844 C 653 451.277344 655.976563 433.023438 650.660156 435.207031 C 647.8125 436.375 647.285156 441.421875 647 444 C 646.460938 452.351563 647.738281 461.234375 644 469 L 643 469 C 640 463.121094 639 456.542969 639 450 L 637 450 L 637 488 L 636 488 C 633.675781 472.191406 630 457.136719 630 441 C 621.34375 451.5625 621 466 622 479 L 621 479 C 615.496094 459.425781 620.769531 442.410156 618.828125 423 C 617.734375 412.0625 611.453125 402.597656 609 392 C 614.878906 393.648438 618.785156 398.785156 623 403 C 621 392.128906 611.476563 384.390625 604 377.003906 C 578.773438 352.078125 537.40625 339.011719 507 364 C 519.3125 361.609375 532.285156 356.367188 545 357.09375 C 575.492188 358.828125 594.359375 387.675781 600 415 L 599 415 C 586.429688 393.6875 565.5625 375.726563 540 373.171875 C 530.484375 372.21875 521.402344 374.257813 512 375 L 512 377 C 547.539063 377 574.199219 390.226563 579 428 L 578 428 C 564 407.554688 544.304688 391.617188 519 389.171875 C 507.984375 388.105469 497 391 486 391 L 486 393 C 491.675781 393.046875 499 393.042969 504 396 C 495.929688 401 483.875 397.179688 475 397.179688 C 465.292969 397.179688 455.746094 400 446 400 L 446 402 C 455.519531 402 465.792969 401 475 403.773438 C 477.414063 404.53125 484.492188 407.441406 481.914063 411.148438 C 479.917969 414.019531 473 414.117188 470 415 C 461.753906 417 453.632813 419.550781 447 425 C 471.65625 417.167969 500.265625 417.269531 525 424.722656 C 534.277344 427.515625 546.628906 431.699219 551 441 C 542.210938 441 533.800781 438.074219 525 438 L 525 439 C 529.589844 440.304688 533.746094 441.828125 538 444 L 538 445 C 515.292969 445 493.605469 436.765625 471 436.042969 C 448.183594 435.316406 422.953125 446.328125 406 461 C 438 444.152344 479.777344 433.515625 514 451 L 514 452 L 498 453 L 498 454 L 504 457 L 504 458 C 498.226563 458 492.722656 457.722656 487 457 C 487.964844 458.558594 491 462.109375 489.25 464 C 486.355469 467 476.703125 463.179688 473 463.179688 C 459.574219 463.179688 443 466 430 469 L 430 470 C 447.878906 470 466.460938 468.382813 484 472 L 484 473 L 464 480 L 464 481 L 470 481 L 470 482 C 450 486.566406 426.726563 492 410 504.160156 C 403.191406 509.125 396.828125 515.511719 391.464844 522 C 389.808594 524.003906 387.316406 528.792969 384.277344 528.792969 C 379.550781 528.792969 384.304688 514.273438 385 512 C 390.226563 495.648438 402.269531 485.632813 414 474 C 400.585938 479.585938 391.898438 493.003906 379 498 C 381 488.019531 386 479.789063 391 471 C 387.859375 474.109375 384.9375 477 381 479 C 386.167969 466.589844 392.820313 453.238281 403 444.183594 C 410.226563 437.761719 420 435 426 427 C 413.867188 430.144531 404.921875 435.015625 396 444 C 391 449.023438 387.335938 456.78125 381 460 C 384.46875 445.597656 387.84375 433.667969 400 423.808594 C 407 418.078125 416.90625 415.597656 423 409 C 418.890625 409.085938 415 410.011719 411 409 C 418.179688 399.027344 429.699219 399.253906 438 392 L 424 392 L 424 391 C 448 379.582031 474 368.203125 501 366 L 501 365 C 483.699219 360.136719 466.3125 364.800781 449 367 L 449 366 C 470.769531 351.191406 488.351563 334.566406 516 345 C 514.3125 339.664063 507.273438 332.058594 509.617188 326.214844 C 511.378906 321.828125 518 322.039063 519.171875 317 C 519.886719 313.542969 515.175781 309.773438 517 306.601563 C 518.972656 303.628906 524 305.488281 525.839844 301.773438 C 527.765625 297.527344 521.1875 293.640625 524.621094 289.433594 C 528 285.234375 534.78125 288.347656 538.683594 284.566406 C 542.285156 281.070313 540.351563 275.1875 542.890625 271 C 547 264.054688 561.332031 250.808594 559.867188 242.015625 C 559.339844 239 555.902344 236.394531 554 234 C 559.296875 232.015625 564.40625 232 570 232 C 567 223 571.683594 222 580 222.003906 C 590.40625 222.132813 599.992188 227.609375 607.996094 234 C 617.714844 241.507813 613.546875 245.765625 603 244 C 598.605469 243.144531 594.484375 242.09375 590 242 M 1142 229 C 1142.382813 247.496094 1154 264.316406 1160.800781 281 C 1174 313.734375 1183.40625 350 1200 381 L 1201 381 C 1198.796875 364 1192.21875 347.324219 1187 331 L 1188 331 C 1193.730469 343.058594 1205.292969 363.050781 1216 371 C 1214.820313 357.488281 1209.597656 343.039063 1205.859375 330 C 1204.699219 326 1200.878906 318.398438 1204.601563 314.742188 C 1209.707031 309.734375 1227.511719 314.179688 1234 315 C 1230.949219 310.246094 1224.832031 308.304688 1220 305.691406 C 1209.3125 300 1197.296875 295 1188 287 C 1206.332031 294.632813 1223.984375 305.304688 1244 308 C 1240.664063 303.449219 1233 301.78125 1228 299.574219 C 1217.394531 295 1206.476563 289.621094 1197 283 C 1176.738281 268.710938 1165.453125 238.070313 1142 229 M 1013 231 L 1012 232 L 1013 231 M 771 236 C 775.65625 245.167969 788.273438 249.1875 796 255.46875 C 802.960938 261.125 809.835938 268.074219 815.535156 275 C 819.441406 279.742188 822.5 286.035156 828 289 C 821.609375 265.636719 796.238281 238.21875 771 236 M 1243 240 C 1243.546875 241.636719 1243.363281 241.453125 1245 242 C 1244.230469 240.6875 1244.3125 240.769531 1243 240 M 1266 240 L 1267 241 L 1266 240 M 780 252 C 778.363281 251.453125 778.546875 251.636719 778 250 C 779.636719 250.546875 779.453125 250.363281 780 252 M 744 270 L 743 271 L 744 270 M 938 271.332031 L 938.332031 271.667969 C 937.839844 271.832031 937.226563 271.332031 938 271.332031 M 212 281 L 211 282 L 212 281 M 910 330 C 923 324 930.488281 307.25 944 300 C 967.859375 287 993 297 1018 298 C 1011.6875 290.636719 1000 289.804688 991 288 C 955.171875 281 923.886719 294.753906 910 330 M 1188 286 L 1187 287 L 1188 286 M 1097 298.332031 C 1097.773438 298.332031 1097 298.832031 1096.667969 298.667969 L 1097 298.332031 M 1101 299 L 1100 300 L 1101 299 M 577 303 L 577 305 C 603.246094 305 629 311.714844 645.253906 334 C 653.808594 346 657.765625 359.558594 665 372 C 668.34375 364.035156 662.609375 352.644531 659.996094 345 C 646.636719 306 614 298.003906 577 303 M 577 314 L 577 315 C 591.929688 320.601563 606.953125 322.40625 620 332.667969 C 629.828125 340.398438 636 355.496094 647 361 C 644 328.359375 605.800781 310.359375 577 314 M 857 452 C 853.960938 428.0625 836.710938 408.675781 834.175781 385 C 831.769531 362.566406 844.984375 343 845 321 C 837.28125 325.539063 832.777344 337.710938 830.429688 346 C 823 372.035156 830.242188 399.828125 840.578125 424 C 844 432.3125 848.875 447.425781 857 452 M 888 389 C 888 374.667969 885.964844 358.351563 892.328125 345 C 896.480469 336.289063 905 330.824219 909 322 C 886 324.019531 879.804688 349 881 368 C 881.429688 374.316406 882.378906 385.273438 888 389 M 1019 324 L 1019 325 C 1036.597656 327.222656 1053.875 330.457031 1070 338.257813 C 1081.386719 343.765625 1091.90625 353.511719 1104 357 C 1085.601563 331 1048.707031 324 1019 324 M 257 330 L 258 331 L 257 330 M 932 362 C 951.960938 351.484375 968.890625 340.378906 992 338.171875 C 1010.621094 336.390625 1028.554688 341.621094 1047 342 C 1041 336.1875 1029.972656 334.390625 1022 332.660156 C 998.558594 327.585938 973.78125 332.265625 953 344 C 945 348.28125 935.960938 353.507813 932 362 M 546 339 C 568.558594 339 587.355469 342 602.867188 360.003906 C 611.3125 370 618.261719 389.40625 630 395 C 625.902344 367.148438 602.84375 332.003906 572 332.003906 C 564.742188 332.003906 550.679688 332.769531 546 339 M 611 346 C 615.753906 360 634.445313 366 641.6875 379 C 649.785156 393.703125 644.679688 415 654 428 C 672.378906 393 643.65625 356.644531 611 346 M 932 452 C 937.273438 449 938 440.652344 939 435 C 941.460938 421 939.773438 405.125 946.378906 392 C 952.738281 379.355469 967.238281 372.542969 973 360 C 966.425781 360.578125 961.453125 364 956 367.433594 C 923.753906 388.082031 932 419.453125 932 452 M 1152 361 L 1151 362 L 1152 361 M 783 381 C 783 395.578125 785 409.746094 788 424 L 787 424 C 785 417.203125 782.457031 408.679688 777 404 C 777 431.59375 796.246094 452.617188 803.960938 478 C 807 488.265625 805.824219 498.539063 805 509 L 807 509 C 809.277344 491.359375 811.261719 476.792969 809 459 C 811.355469 460 813.53125 460.574219 816 461 C 811.304688 443 799 430.058594 792.464844 413 C 788.496094 403 790 389.75 783 381 M 1149 389 L 1148 390 L 1149 389 M 959 419 L 958 424 L 957 424 C 957.480469 422.039063 957.9375 420.691406 959 419 M 726 545 C 730.753906 519.394531 726.726563 490.246094 737.441406 466 C 744.867188 449.1875 766.683594 438.382813 770 420 C 727.894531 426.3125 720 473.625 720 508 C 720 517.78125 718.617188 537.796875 726 545 M 291 429 L 292 430 L 291 429 M 809 458 L 808 459 L 809 458 M 403.667969 462.332031 C 403.222656 462.777344 404.277344 462.722656 404.332031 462.667969 C 404.777344 462.222656 403.722656 462.277344 403.667969 462.332031 M 970 465 L 969 466 L 970 465 M 391 470 L 392 471 L 391 470 M 414 473 L 415 474 L 414 473 M 548 474.324219 C 556.253906 473 565 474.367188 571.984375 479.222656 C 574.96875 481.324219 581.601563 487.53125 574.9375 489.566406 C 566.328125 492.195313 543.492188 490.695313 536.191406 485.144531 C 529 479.691406 544.335938 475 548 474.324219 M 1120 487 C 1124.679688 488 1143.640625 494.710938 1139.761719 501.683594 C 1134.230469 511.625 1121.71875 491 1120 487 M 979 490.285156 C 983.828125 489.699219 990.699219 490 994.765625 493.007813 C 1001.230469 498 992.230469 501.367188 988 501.824219 C 981.203125 502.566406 973.644531 501.207031 967 499.789063 C 965.519531 499.472656 960.207031 499 960.207031 496.710938 C 960.207031 492.261719 975.851563 490.667969 979 490.285156 M 390 543 C 391.511719 525.796875 408.988281 514 422 505 C 424.90625 503 434.484375 494.828125 438.289063 498.070313 C 442 501.253906 431.933594 508.625 430 510.246094 C 417.644531 520.605469 404.496094 536.101563 390 543 M 792 501 C 792.472656 512.042969 792.261719 520.550781 788 531 L 787 531 C 786.9375 523.480469 784.996094 516.390625 784 509 C 776.601563 514 777.769531 528.101563 776.828125 536 C 775.675781 545.71875 771 554.582031 768.746094 564 C 766 574.351563 766 585.390625 766 596 L 768 596 C 769.3125 581 781.222656 570.359375 788.546875 558 C 794.761719 547.511719 796.996094 535.050781 797 523 C 797 515.617188 797.460938 506.648438 792 501 M 525 539 C 510 539 496.664063 530.636719 488.816406 518 C 487 515.144531 481.328125 506.339844 485 503.070313 C 488.285156 500.191406 493.6875 507 495.335938 509.003906 C 504.285156 520.035156 516.226563 528.222656 525 539 M 1009 502 C 1026.238281 513 1016 539.304688 998 543.761719 C 980.960938 548 966.167969 534.640625 951 529.34375 C 944.726563 527.152344 938.445313 526.589844 932 525.226563 C 930.398438 525 926.351563 524 927.921875 521.453125 C 931.699219 515.371094 948.46875 520.328125 954 521 C 967.726563 522.492188 999.664063 530.179688 1009.253906 516 C 1012.421875 511.175781 1008 506.804688 1009 502 M 566 522 L 580 518 L 580 519 C 569.949219 521.410156 558 529.308594 554 539 C 582.800781 527.828125 610.839844 518.203125 638 540.464844 C 646.199219 547.183594 651.46875 561.15625 660 566 C 656.613281 552.265625 651.875 542.183594 643 531 C 654.277344 538.023438 663.953125 547.765625 671 559 C 674.636719 550.0625 663.476563 536.816406 658.570313 530 C 642.402344 507.527344 614.207031 498.199219 588 507.34375 C 580 510.117188 569.800781 514.023438 566 522 M 953 506 L 953 507 L 947 507 C 949 506.125 950.746094 506.046875 953 506 M 820 509 C 801 537.796875 782 574.738281 782 610 L 783 610 C 790.386719 585.6875 795.554688 562.421875 806.308594 539 C 809.769531 531.460938 821.34375 517.078125 820 509 M 428 521 C 422.335938 533 411.175781 541.824219 402 551 C 398.316406 554.683594 392.414063 559 390.605469 564 C 389 568.429688 398.953125 574.179688 400.640625 579 C 403.867188 588.21875 404.300781 598.347656 405 608 C 405.277344 611.378906 406 616.304688 410 617.171875 C 413.429688 618 417.234375 614.53125 420 613 C 418.902344 621.140625 415 628.742188 417 637 C 419.601563 634.148438 421.824219 631.183594 424 628 L 425 628 C 427.480469 647.53125 441 661.480469 446.253906 680 C 452.574219 702.796875 447.914063 730 445 753 C 434.730469 745.609375 430.519531 731.773438 424.691406 721 C 416.269531 705.425781 407.253906 690.355469 402.894531 673 C 397 650.171875 398.792969 626.253906 396.914063 603 C 396.402344 596.660156 395 589.816406 392.480469 584 C 389.515625 577.503906 384.765625 573.691406 386.226563 566 C 389.8125 547.117188 409.632813 526.300781 428 521 M 643 530 L 642 531 L 643 530 M 532 626 L 533 626 C 540 609 549.269531 592.277344 564 580.667969 C 571.792969 574.527344 589.382813 570.136719 594 562 C 584.464844 564.46875 575.238281 566.4375 566 570 C 581 549.730469 603.300781 536.328125 627 552.105469 C 634.539063 557.125 638.613281 566.519531 646 571 C 640.285156 541.558594 613 532 586 535.050781 C 576.855469 536.09375 564 539 557 545.390625 C 550.859375 551.238281 558.355469 559 555.46875 566 C 546.933594 587 532.496094 602 532 626 M 750 562 C 750 592.128906 755.449219 618.546875 761 648 L 762 648 C 761.839844 628.460938 754 609.433594 752.171875 590 C 751.351563 581.402344 754.574219 569.636719 750 562 M 566 570 L 565 571 L 566 570 M 1008 576 L 1010 581 L 1009 581 C 1008.191406 579.042969 1007.730469 578.023438 1008 576 M 929 577 C 936.726563 592 955.511719 600.679688 965.253906 615 C 972 625.054688 977.464844 636.492188 981.332031 648 C 983.585938 654.695313 984.332031 663 988 669 C 990.515625 660.496094 988 651.449219 986.398438 643 C 980.609375 614.691406 958.464844 584 929 577 M 816 610 C 844.574219 600.269531 871.460938 582.230469 903 590 C 896.699219 580.800781 870.925781 585 861 585 L 861 584 C 864.234375 583.441406 867 582.386719 870 581 C 864.542969 578.714844 858.351563 581.3125 853 583 C 838.460938 587.492188 820.664063 594 816 610 M 669 583 C 673.558594 591.027344 690.195313 595.695313 698 601.027344 C 713.996094 612 724.539063 629.078125 740 640 C 739 620 719.46875 595.761719 701 589 C 701.941406 591.828125 703 593.671875 705 596 C 692.984375 591 681.558594 586.539063 669 583 M 572 603 C 582 601 591.730469 597.792969 602 597.089844 C 623.554688 595.613281 643.277344 601.25 664 606 C 649.917969 588.058594 613.941406 588 594 592.425781 C 586.179688 594.175781 577 596.488281 572 603 M 911 601 L 911 602 C 928.375 608.738281 943.761719 617.175781 955.550781 632 C 962.238281 640.410156 965.960938 653.109375 974 660 C 969.570313 627.144531 944.199219 602.429688 911 601 M 800 638 C 811.167969 636.007813 820.730469 627.636719 831 623.152344 C 833.300781 622.148438 839.902344 618.242188 842.167969 620.789063 C 844 623 840.820313 626.386719 839.53125 627.824219 C 834.644531 633.277344 827.546875 636.683594 821 639.691406 C 788.402344 654.660156 765 678.28125 765 716 L 766 716 C 774.664063 701.152344 778.871094 684.8125 791.171875 672.089844 C 830 632 891.277344 655.304688 932 679.453125 C 947.707031 688.765625 962.300781 703.238281 981 706 C 974.277344 694.371094 961.574219 686.480469 951 678.628906 C 917.214844 653.542969 880.882813 641 839 641 C 843.398438 633.097656 849 623.75 857 619.007813 C 863.847656 615 872.9375 617.617188 880 619.722656 C 896.632813 624.675781 912.550781 636.476563 930 638 C 909.660156 609.203125 861 601.039063 830 613.605469 C 818.613281 618.203125 805.335938 626.492188 800 638 M 781 612 C 781.769531 613.3125 781.6875 613.230469 783 614 C 782.453125 612.363281 782.636719 612.546875 781 612 M 523 706 C 531.464844 701.183594 537 680.605469 542.425781 672 C 550.871094 658.46875 561.335938 646 573 635.089844 C 578.980469 629.523438 588.808594 625 593 618 C 551.289063 629 532.371094 668 523 706 M 649 620 L 649 621 C 659 623.394531 669 624.191406 679 627.515625 C 703 635.621094 719.402344 651.433594 732 673 C 735 665 725.441406 654.011719 720.871094 648 C 705.480469 627.773438 674.679688 614.097656 649 620 M 708 621 C 714.222656 633.191406 725.359375 643.289063 733.789063 654 C 737.601563 659 740.691406 665.78125 746 669 C 738.761719 651.609375 725.167969 630 708 621 M 563 667 C 572.257813 664.402344 576.894531 653.515625 584 647.617188 C 598.496094 635.589844 615.339844 630 634 630 C 629.8125 624.476563 616.324219 624.683594 610 625.578125 C 587 629 571.609375 646.324219 563 667 M 496 636 L 495 637 L 496 636 M 630 649 L 630 651 C 639 652.339844 647.8125 655.8125 657 657 L 657 658 C 639 658 621.769531 659.382813 604 661.71875 C 597.792969 662.535156 588.484375 662.015625 585 668 C 606.988281 662.582031 628 671 650 671 L 650 672 C 642.332031 674.492188 634.878906 675.535156 627 677 C 641.417969 684 664.960938 671.390625 679 667.429688 C 681.941406 666.597656 695.8125 665.421875 695 661 C 694.277344 656 683.855469 654.339844 680 653.375 C 663 649.128906 647.238281 649 630 649 M 1116.996094 657.410156 C 1128.28125 655.421875 1118.863281 684.136719 1117.574219 690 C 1110.742188 721.113281 1101.511719 751.457031 1092.574219 782 C 1090.417969 789.378906 1088 796.722656 1085.664063 804 C 1084.898438 806.246094 1083.953125 810.589844 1081 811.078125 C 1077.441406 811.703125 1077.242188 803.195313 1077 801 C 1076.308594 789.648438 1076 778.394531 1076 767 C 1076 739.042969 1072.664063 706 1087.824219 681 C 1093.652344 671.402344 1105.359375 659.460938 1116.996094 657.410156 M 497 667 L 496 668 L 497 667 M 869 678 L 869 679 C 886.523438 679 904.355469 679.367188 920 688.335938 C 927.851563 693 933.351563 700.21875 941 705 C 932.285156 675.386719 894.398438 670.476563 869 678 M 664 687 L 664 688 C 690 687 723.835938 679.378906 742.238281 704 C 748.234375 712.019531 751.886719 721.574219 755 731 C 756.507813 735.558594 757 742.015625 761 745 C 762 731 766.421875 718.472656 759.621094 705 C 743.839844 673.734375 690.96875 671.316406 664 687 M 1054 685 L 1053 686 L 1054 685 M 772 739 L 773 739 C 795.835938 705.152344 829.328125 688 870 688 C 863.550781 684.136719 853.304688 686 846 686 C 816.875 686.011719 775.367188 706.121094 772 739 M 465 752 C 488.851563 738.769531 510.867188 723.507813 538 717.425781 C 556.839844 713.203125 575 715.632813 594 713.828125 C 613.648438 712 633.390625 709.640625 653 713.085938 C 671.347656 716.304688 686.554688 726 704 731 C 697.570313 722.066406 686 717.734375 676 714.355469 C 673 713.402344 664.351563 712.367188 663.632813 708.714844 C 662.386719 702.414063 683.710938 704 687 704 C 699.886719 704 713.757813 704.128906 723.996094 713.183594 C 733.789063 722 737.96875 735.757813 750 742 C 747.84375 727.386719 739 706.753906 724 701.75 C 711 697.433594 695.488281 700.550781 682 700 C 668 699.351563 653.910156 697 640 699.464844 C 628.832031 701.472656 619.5625 708.113281 608 709 C 578 711 551.195313 705.832031 522 715.667969 C 507.246094 720.636719 493.882813 728.730469 481 737.332031 C 474.984375 741.351563 468 745.261719 465 752 M 782 747 C 804.765625 746.8125 826.59375 727.492188 848 720.355469 C 881.476563 709.195313 911 712.679688 945 719 C 938.929688 709.074219 916.699219 705.421875 906 703 C 869.71875 694.273438 833.558594 699.429688 804 723.003906 C 795.53125 729.757813 786.734375 737.046875 782 747 M 1039 700 L 1038 701 L 1039 700 M 1047 726 L 1046 727 L 1047 726 M 748 761 C 742.839844 752.074219 734 746.328125 724 744.621094 C 722 744.304688 713.207031 743.601563 713.207031 747.011719 C 713.207031 749.21875 719.425781 751 721 751.578125 C 729.484375 755.203125 738.722656 760.183594 748 761 M 839 764 C 877.445313 764 915.363281 770 952 781.746094 C 970.710938 787.808594 988.324219 800.347656 1008 803 C 998.175781 789.34375 977.5 783.226563 963 775.742188 C 954.257813 771.230469 944.210938 766.714844 937 760 C 932.601563 755.730469 930.460938 748.683594 924.957031 746 C 907.484375 737.148438 876.230469 749.476563 859 754.722656 C 853 756.535156 842.605469 758.71875 839 764 M 444 776 C 445.636719 775.453125 445.453125 775.636719 446 774 C 444.363281 774.546875 444.546875 774.363281 444 776 M 1072.667969 774.667969 C 1072.722656 774.722656 1072.777344 775.777344 1072.332031 775.332031 C 1072.277344 775.277344 1072.222656 774.222656 1072.667969 774.667969 M 440 779 C 441.3125 778.230469 441.230469 778.3125 442 777 C 440.363281 777.546875 440.546875 777.363281 440 779 M 537 786.332031 C 537.773438 786.332031 537 786.832031 536.667969 786.667969 L 537 786.332031 M 519 812 L 518 813 L 519 812 M 520 835 L 519 836 L 520 835 M 903 836 L 903 837 C 911.347656 840.59375 920.535156 842 929 845.203125 C 937 848.402344 944.597656 853.578125 953 856 L 953 857 C 943.601563 857 934.4375 855 925 855 L 925 856 C 936.363281 859 947.996094 860.59375 956.699219 869.300781 C 963.519531 876.121094 966.253906 886.058594 974 892 C 973.582031 887 972 882.011719 971 877 C 989.269531 895.269531 999.898438 915.035156 1014 936 C 1016.894531 926 1009.824219 913.476563 1006.667969 904 C 991.605469 858.816406 949 838 903 836 M 954 857 L 953 858 L 954 857 M 570 858.441406 C 543 861.390625 514.179688 869.71875 495 890.003906 C 482.804688 903.058594 475.179688 919.558594 468.601563 936 C 461.636719 953.402344 455.925781 971.222656 450 989 C 449.289063 991.136719 443.582031 1005.792969 448.304688 1005.792969 C 454.191406 1005.792969 456.617188 993.144531 458 989 C 464 970.816406 470.441406 952.496094 478.304688 935 C 489.597656 910 504.574219 886.191406 531 875 C 541 870.558594 552.222656 868 563 866.082031 C 566.800781 865.441406 574.644531 865.777344 577.246094 862.492188 C 580.34375 858.589844 571.855469 858.234375 570 858.441406 M 1025 872 L 1024 873 L 1025 872 M 486 956 C 498.488281 951.265625 507.808594 938 518 929.613281 C 535.589844 915.164063 555.539063 903.15625 576 893.257813 C 585.742188 888.546875 608.640625 885.445313 614 876 C 604 878.386719 593.886719 879.175781 584 882.34375 C 555.5625 891.453125 530 908.113281 509 929 C 500.535156 937.359375 491.199219 945.011719 486 956 M 971 876 L 970 877 L 971 876 M 880 883 C 881.792969 890 884.386719 899.597656 874 898 C 874.527344 904.035156 876.480469 910.132813 878 916 C 873.597656 911.597656 869.425781 907.136719 864 904 C 867 914.742188 874.195313 925.019531 879.246094 935 C 880.296875 937.066406 883 943.777344 886.410156 941.824219 C 889 940.324219 887.613281 935.265625 887.246094 933 C 885.757813 924 882.867188 915.046875 881 906 L 882 906 C 884.578125 911 888.441406 914.789063 893 918 C 892.8125 909 888.257813 887.773438 880 883 M 1107 889 L 1108 893 L 1107 893 C 1106.691406 891.242188 1106.59375 890.660156 1107 889 M 600 922 C 613.789063 918.695313 624.359375 905.035156 625 891 C 615.773438 895.683594 603.660156 912.34375 600 922 M 725 892 C 717.367188 907.324219 694.75 922.152344 677 919.8125 C 669.867188 919 651.746094 906.171875 659.742188 897.566406 C 665.449219 891.425781 678.683594 900.347656 685 901.53125 C 699.476563 904.246094 711.78125 895.808594 725 892 M 777 894 C 785.660156 897.28125 792.351563 903.777344 802 904.824219 C 810.730469 905.773438 833.371094 896.628906 839 905.226563 C 845.609375 915 826 923.808594 819 924 C 802.429688 924.394531 782.878906 909.171875 777 894 M 923 896 C 928.191406 909.40625 943.242188 920.117188 952.410156 931 C 965 946 976.96875 961.628906 987.65625 978 C 993.472656 987 998.394531 999.609375 1007 1006 C 1004.832031 994 996.425781 981.34375 989.949219 971 C 972.984375 944 950.5 913.199219 923 896 M 422 901 L 421 902 L 422 901 M 482 985 C 490.851563 981 496.570313 971 504 964.589844 C 518.507813 952.347656 534.421875 942.058594 551 933 C 563 926.160156 584.488281 922 593 911 C 552.671875 916.433594 498 946.199219 482 985 M 604 946 C 615.976563 942 629.253906 924 633 912 C 616.878906 913.652344 608.421875 932.433594 604 946 M 628 979 C 632.316406 976.171875 633.921875 970.382813 636.425781 966 C 641.800781 956.605469 649.929688 947.4375 653 937 C 634.816406 941.359375 628.710938 962.40625 628 979 M 810 968 C 805.839844 980.789063 797.234375 1005.496094 813 1014 C 812.972656 1004 809.878906 994 810 984 C 810.261719 978.632813 813.46875 972.652344 810 968 M 685 977 L 680 989 C 684 986.519531 686.800781 981.660156 685 977 M 882 979 L 881 980 L 882 979 M 778 993 L 778 997 L 779 997 C 779.183594 994.777344 779.238281 994.808594 778 993 M 524 1003 C 523.316406 1004.578125 523.195313 1004.777344 522 1006 C 522.683594 1004.421875 522.804688 1004.222656 524 1003 M 685 1024 L 684 1025 L 685 1024 M 604 1053 L 603 1054 L 604 1053 M 883 1067 L 882 1068 L 883 1067 M 648 1283 C 640 1273.707031 637.429688 1261.714844 635 1250 C 629.554688 1223.6875 629.707031 1196.464844 634 1170 C 635.777344 1159.742188 638.207031 1149.714844 641.960938 1140 C 643 1137 647 1131 645.355469 1127.621094 C 643 1123.367188 636 1131.421875 634.753906 1133.015625 C 626.691406 1142.394531 618.460938 1154 615 1166 L 614 1166 C 619 1143.644531 630.34375 1122.171875 642.691406 1103 C 645 1099.355469 656.992188 1087 653.917969 1082.617188 C 649.488281 1076.347656 634.628906 1092.34375 632 1095 C 614.726563 1112.476563 602.546875 1135.136719 596.882813 1159 C 587.386719 1199.027344 590.503906 1243.46875 610.308594 1280 C 617.996094 1294.179688 629.542969 1305.417969 638 1319 C 632.351563 1316.652344 627.273438 1314.058594 621 1314.019531 C 619.457031 1314.011719 615.296875 1313.746094 615.347656 1316.210938 C 615.4375 1320.710938 629.605469 1324.097656 633 1326 C 650.691406 1335.210938 665.71875 1348.535156 681 1361.246094 C 683.761719 1363.546875 697.207031 1376.664063 700.878906 1371.382813 C 703.1875 1368.058594 698.394531 1361.773438 696.859375 1359 C 691 1348.636719 685.285156 1338.050781 681 1327 C 689.222656 1332.789063 694.421875 1341.632813 703 1347 C 699.71875 1333.1875 689.316406 1323.570313 680.613281 1313 C 669.875 1300 660.554688 1285.5625 653.871094 1270 C 648.796875 1258.175781 644.808594 1244 645 1231 C 645.503906 1216 650.875 1201.054688 651 1186 L 652 1186 C 652 1216.523438 652 1247.730469 662 1277 C 665.464844 1287.253906 670.625 1302.058594 681 1307 C 675.253906 1283.667969 669.308594 1261.035156 667 1237 C 666.8125 1234.171875 663.738281 1215.054688 668.921875 1215.054688 C 672 1215.054688 673 1224 673.722656 1226 C 677.4375 1238.523438 679.816406 1251.664063 684 1264 L 685 1264 C 685 1225 670.695313 1189.578125 679.425781 1150 C 682.902344 1134.238281 688.242188 1117.761719 696.816406 1104 C 702 1095.414063 711 1089 714 1079 C 690.371094 1085.808594 665.296875 1114.046875 658 1137 C 654.730469 1147.417969 655.816406 1158.460938 653.253906 1169 C 647.589844 1192.273438 639.976563 1214.707031 641 1239 C 641.6875 1253.824219 646.832031 1268.191406 648 1283 M 1015 1080 L 1015 1086 L 1014 1086 C 1014 1083.746094 1014 1082.050781 1015 1080 M 744 1081 L 744 1087 L 745 1087 C 745.328125 1084.375 745.429688 1083.183594 744 1081 M 743 1089 L 743 1092 L 744 1092 C 743.75 1090.546875 743.683594 1090.246094 743 1089 M 827 1091 C 838.488281 1111 858.617188 1124.269531 873.828125 1141 C 881.40625 1149.335938 889.589844 1164.289063 899 1170 C 888.96875 1146 870.890625 1124.523438 851 1108 C 843.746094 1102 835.925781 1094.382813 827 1091 M 742 1093 L 742 1100 L 744 1100 C 743.859375 1097.191406 743.589844 1095.3125 742 1093 M 772 1109 C 782.984375 1147.707031 790.976563 1186.609375 789.984375 1227 C 789.734375 1237.179688 783.875 1246.304688 783.585938 1256 C 783.234375 1268 788 1279.242188 788.910156 1291 C 790.320313 1311.585938 786.585938 1333.445313 780.253906 1353 C 776.648438 1364.144531 771.523438 1375.695313 764.320313 1385 C 759.253906 1391.542969 751.523438 1396.445313 748 1404 C 759.515625 1399.179688 769.402344 1390.636719 777.195313 1381 C 809.953125 1340.488281 803 1295.089844 803 1247 L 804 1247 C 804.332031 1263.097656 810 1278.746094 809.996094 1295 C 809.800781 1314.160156 803.507813 1333 802 1352 C 807.613281 1348.160156 808.726563 1337.375 809 1331 L 810 1331 C 809.730469 1344.0625 806.242188 1358.007813 801 1370 C 799.769531 1373.246094 795 1380.828125 798 1384.214844 C 800.714844 1387.285156 805.996094 1382.617188 807.960938 1380.816406 C 814.769531 1374.5625 817.585938 1366 818.867188 1357 C 822 1334.46875 823.46875 1310.765625 821.910156 1288 C 821 1275.335938 818 1262.703125 818 1250 L 819 1250 C 820.507813 1267.285156 828.578125 1284.378906 830.714844 1302 C 832.808594 1319.28125 830 1337 832 1354 L 833 1354 C 836.28125 1312.40625 838.371094 1268 828 1227 C 822.675781 1205.394531 812.433594 1184.246094 803.304688 1164 C 795.929688 1147.636719 786.671875 1119.832031 772 1109 M 574 1110 L 574 1113 L 573 1113 C 573.25 1111.546875 573.316406 1111.246094 574 1110 M 717 1110 C 719.195313 1119.226563 718.222656 1129.523438 719.167969 1139 C 722.421875 1171.535156 722.871094 1203.386719 724 1236 L 723 1236 C 721.632813 1218.652344 718.804688 1201.40625 718 1184 C 717.785156 1178.222656 719.195313 1167.671875 714 1164 C 716.28125 1176.285156 715 1189.53125 715 1202 C 715 1231.738281 712.9375 1262.304688 715 1292 C 716.78125 1316.167969 728.972656 1337.171875 732 1361 L 733 1361 C 735.167969 1333.542969 744.769531 1306.613281 745 1279 L 746 1279 C 746 1307.671875 743.429688 1336.101563 736.726563 1364 C 735.246094 1370.152344 723.851563 1386 730.320313 1391.394531 C 737 1397.070313 746.707031 1386.660156 750.320313 1382 C 762.332031 1366.507813 766.984375 1346.039063 769.574219 1327 C 771.238281 1314.769531 769.625 1302.3125 771.28125 1290 C 774 1269.429688 780.484375 1250 781.910156 1229 C 784.363281 1193.15625 771.984375 1155.496094 754 1125 L 753 1125 C 753 1142.675781 756 1160.195313 756 1178 L 755 1178 C 754.730469 1165.085938 749.234375 1152.601563 746.804688 1140 C 745 1131.078125 745.914063 1121.605469 743 1113 L 742 1113 C 742.238281 1142 753.753906 1170 748.195313 1199 C 744.441406 1218.585938 737.785156 1237.535156 730.398438 1256 C 725.472656 1268.320313 718.28125 1281.507813 718 1295 C 713.863281 1280.605469 722 1258.4375 725 1244 C 731.179688 1213.101563 736.707031 1181.351563 730.398438 1150 C 728.496094 1140.53125 725.554688 1115 717 1110 M 924 1110 L 924 1113 L 923 1113 C 923.25 1111.550781 923.316406 1111.246094 924 1110 M 572.667969 1114.667969 C 572.722656 1114.722656 572.777344 1115.777344 572.332031 1115.332031 C 572.277344 1115.277344 572.222656 1114.222656 572.667969 1114.667969 M 526 1121 L 525 1122 L 526 1121 M 441 1133 C 443 1134.234375 445 1135.390625 447 1136.789063 C 448.996094 1138.265625 452.515625 1140.808594 452 1143.722656 C 451.5625 1147.167969 443 1148.234375 441 1146 C 439.660156 1144.4375 440.59375 1141 440.488281 1139.003906 C 440.363281 1136.695313 440 1135.140625 441 1133 M 471 1135 C 471 1145.347656 472.617188 1155.65625 471.910156 1166 C 471.289063 1175.082031 468.390625 1184 468 1193 L 467 1193 C 466.390625 1179 466 1165.164063 467.714844 1151 C 468.375 1145.402344 467.574219 1139.808594 471 1135 M 931 1145 L 930 1146 L 931 1145 M 825 1151 C 827.242188 1167.648438 834.945313 1183.5625 838.574219 1200 C 848 1243.140625 851.398438 1286.675781 841 1330 C 836.777344 1348.28125 829.601563 1366.082031 817.984375 1381 C 815.503906 1384.183594 805 1394 808 1398.398438 C 810 1401.457031 817.285156 1400 820 1398.773438 C 830.300781 1394.460938 833.574219 1382.515625 837 1373 C 844.628906 1352.289063 851.390625 1331.171875 852.910156 1309 C 854 1293 851 1277.035156 851 1261 L 852 1261 C 864 1292.464844 866.8125 1330.640625 852.6875 1362 C 847 1374.363281 835.714844 1383.570313 831 1396 C 841.574219 1393 848.195313 1383.8125 853.996094 1375 C 868.945313 1352.285156 871.453125 1324.476563 872 1298 L 873 1298 C 873 1313.382813 875 1328.585938 875 1344 L 876 1344 C 880.894531 1332.621094 880 1320.105469 880 1308 C 880 1269 864.238281 1232.273438 849 1197 C 843 1183.199219 836 1161.230469 825 1151 M 877 1164 C 893.585938 1222.441406 920.496094 1276.5 897.945313 1338 C 894 1348.542969 889.230469 1359.074219 882.320313 1368 C 877.972656 1373.617188 871.515625 1378 868 1384 C 878.898438 1383.140625 889.871094 1379.757813 897 1371 C 904.703125 1376 914.839844 1363.09375 918 1357 L 919 1357 C 917.636719 1360.746094 917 1364.015625 917 1368 C 942.308594 1357.285156 948 1321 948 1297 L 946 1297 C 945.953125 1314.546875 938.386719 1331.832031 927 1345 C 931.792969 1333.488281 938 1323 942 1311 C 942.867188 1308.375 946.191406 1301.511719 943.933594 1299.027344 C 941.738281 1296.613281 934 1298 931 1298 L 931 1297 C 941.21875 1292.117188 941 1278.824219 941 1269 C 941 1243.046875 935.65625 1217.71875 927.972656 1193 C 925.546875 1185.191406 923 1170.675781 916 1166 C 921.324219 1191.796875 929.796875 1216.378906 930.960938 1243 C 931.753906 1261.113281 926.871094 1278.125 925.171875 1296 C 922.917969 1319.652344 926.578125 1337 909 1356 C 929.683594 1305.582031 919 1257.078125 899.398438 1208 C 894.289063 1195.222656 889.554688 1171.382813 877 1164 M 614 1167 L 613 1168 L 614 1167 M 439.667969 1179.332031 C 439.222656 1179.777344 440.277344 1179.722656 440.332031 1179.667969 C 440.777344 1179.222656 439.722656 1179.277344 439.667969 1179.332031 M 1042.332031 1189.667969 C 1042.277344 1189.722656 1042.222656 1190.777344 1042.667969 1190.332031 C 1042.722656 1190.277344 1042.777344 1189.222656 1042.332031 1189.667969 M 702 1312 C 707.335938 1305 703.257813 1290.195313 702.285156 1282 C 699.910156 1262 701 1241.1875 701 1221 C 701 1217.234375 701.300781 1195.242188 696 1195.347656 C 688.949219 1195.484375 690.992188 1218.546875 691 1223 C 691 1253.261719 699.625 1282.144531 702 1312 M 507 1241 C 508.40625 1273.730469 527 1302.71875 527 1336 L 528 1336 C 534.21875 1326.296875 539.386719 1330 544.21875 1339 C 550.265625 1350.378906 553.964844 1363.074219 554 1376 C 556 1374.402344 557.816406 1368.171875 561 1369.207031 C 566.902344 1371.113281 569.816406 1383.265625 573 1388 C 584.636719 1405.113281 598 1425 620 1425 C 616.742188 1418.722656 610.875 1415 606 1410 C 599 1402.753906 593 1394.472656 587.585938 1386 C 586 1383.742188 577.75 1373.578125 580.933594 1371 C 582.765625 1369.390625 585.886719 1373 587 1374.023438 C 591.636719 1378.394531 595.640625 1383.347656 599.976563 1388 C 610.179688 1399 623.742188 1419 638 1424.398438 C 643.914063 1426.632813 652.804688 1425 659 1425 C 652.636719 1411.628906 638.320313 1404.8125 630 1393 C 644.890625 1401.65625 663.761719 1408.636719 681 1410 C 676.863281 1403.664063 667.4375 1399.773438 662 1394 C 660.769531 1392.636719 656.921875 1389.15625 658.832031 1387.027344 C 660.894531 1384.730469 669 1385.8125 672 1385.425781 C 675 1385.03125 677.972656 1385.003906 681 1385 C 675.269531 1374 662.59375 1367.375 653 1360.011719 C 650.945313 1358.433594 644.738281 1352.761719 642 1355.707031 C 638.394531 1359.671875 644.609375 1371 646 1375 C 638.441406 1367.101563 632.480469 1357 624 1350 C 622.378906 1356.804688 623.460938 1363.15625 624 1370 L 623 1370 C 618.816406 1355.472656 608.261719 1343.304688 606 1328 L 604 1328 C 603.996094 1330.746094 603 1352 598.257813 1349.078125 C 594.785156 1347.050781 593.515625 1340.480469 592.191406 1337 C 587.355469 1324.273438 584.75 1311 580.558594 1298 C 576.632813 1286 571 1294.058594 569.609375 1302 C 569 1304.65625 568.691406 1307.332031 568.246094 1310 C 567.519531 1314.367188 567 1318.566406 567 1323 L 566 1323 C 562.511719 1308.339844 563 1292.003906 563 1277 C 558.914063 1280.09375 558.546875 1287.175781 557.871094 1292 C 556 1305 556 1318 556 1331 L 555 1331 C 550.953125 1319 547.992188 1306.503906 545 1294 C 543.761719 1288.101563 543.621094 1281.269531 539 1277 L 539 1306 C 524 1288 525.3125 1256.175781 507 1241 M 803 1241 L 803 1245 L 802 1245 C 802.175781 1243.316406 802.316406 1242.507813 803 1241 M 884 1258 C 887 1281.53125 902.585938 1304 894 1328 C 888.507813 1344.039063 875.46875 1357 863.960938 1369 C 856.765625 1376.523438 848 1383.660156 845 1394 C 855 1388.765625 862.746094 1378.59375 869.921875 1370 C 889 1347.042969 905.417969 1321.179688 898.789063 1290 C 896.710938 1280.214844 893.449219 1263.183594 884 1258 M 758.667969 1273.667969 C 758.722656 1273.722656 758.777344 1274.777344 758.332031 1274.332031 C 758.277344 1274.277344 758.222656 1273.222656 758.667969 1273.667969 M 758 1277 C 755.816406 1304.453125 745.558594 1332.054688 740 1359 L 739 1359 C 740.386719 1342.03125 745.902344 1324.621094 749.574219 1308 C 751.757813 1298.117188 753.210938 1286 758 1277 M 639 1319 L 638 1320 L 639 1319 M 681 1326 L 680 1327 L 681 1326 M 755 1329 C 753.699219 1338.597656 748.832031 1347.71875 744 1356 L 743 1356 C 745.882813 1347.148438 748.53125 1336 755 1329 M 927 1345 C 925.441406 1348.273438 923.792969 1350.6875 921 1353 C 922.703125 1350 924.425781 1347.359375 927 1345 M 921 1354 L 920 1357 L 919 1357 C 919.683594 1355.421875 919.804688 1355.222656 921 1354 M 909 1356 C 908 1358 907.609375 1358.550781 906 1360 C 906.953125 1358.234375 907.566406 1357.394531 909 1356 M 899 1370 L 898 1371 L 899 1370 "/>
</g>
</svg>
