<?xml version="1.0" encoding="UTF-8"?>
<svg xmlns="http://www.w3.org/2000/svg" xmlns:xlink="http://www.w3.org/1999/xlink" width="1500pt" height="1500pt" viewBox="0 0 1500 1500" version="1.1">
<g id="surface1">
<path style=" stroke:none;fill-rule:nonzero;fill:rgb(0%,0%,0%);fill-opacity:1;" d="M 1103 220 C 1103 216.550781 1106 205.519531 1102.972656 203.160156 C 1098.847656 200.101563 1090 211.546875 1088 214 C 1093 192.820313 1069 206.800781 1061 213.464844 C 1047.46875 224.613281 1042.175781 242 1032.640625 256 C 1027.386719 263.773438 1019.671875 268.621094 1013 275 C 1015 260 1023.761719 246.160156 1025 231 C 1003.363281 236.140625 981 262.054688 975 283 L 974 283 C 979.535156 245.382813 1009 208.46875 1038 185.664063 C 1046 179.261719 1055.992188 176.058594 1064 170 C 1048.898438 166.726563 1032.28125 178.601563 1021 187.128906 C 990.386719 210.273438 960.730469 240.207031 945.425781 276 C 939.710938 289.367188 937.335938 304.5625 939.589844 319 C 940.515625 325 941.394531 331.816406 947 335 C 947 299.566406 959.871094 267.558594 983 241 C 973.691406 263.359375 963.449219 283.8125 959.25 308 C 957.5 318.085938 954.761719 338.441406 971.855469 327.0625 C 978.183594 323 979.597656 306.035156 982 299 C 987.941406 281.636719 997.992188 265.785156 1010 252 C 1004 272.628906 998 293 993.800781 314 C 993.171875 317.152344 988.914063 333.363281 995 333.363281 C 1000.386719 333.363281 1004.988281 313.285156 1007.695313 309 C 1018.484375 292 1036.832031 278.492188 1055 270 C 1046.519531 284.375 1032.65625 299 1028 315 C 1045.347656 305.019531 1059.632813 289 1075 276.25 C 1076.417969 275.078125 1091.761719 262.785156 1091.652344 269.191406 C 1091.585938 273.207031 1085.746094 277 1083 279.195313 C 1074 286.46875 1064.886719 293.347656 1057.175781 302 C 1054.386719 305.125 1047.476563 312.785156 1051 317.398438 C 1053.289063 320.328125 1059.960938 319 1063 318.335938 C 1074.226563 316.035156 1084.414063 312 1096 314 L 1096 315 C 1087.203125 316.136719 1067.261719 318.316406 1062 326 L 1068 326 L 1068 327 C 1057.660156 327 1047.394531 325.164063 1037 326.171875 C 1023 327.519531 1009.710938 332.550781 996 335.195313 C 983 337.695313 969.648438 338.109375 957 342.027344 C 925.621094 351.738281 898.480469 372.734375 876.949219 397 C 859 417.167969 842.191406 443.222656 841 471 C 847.308594 466.683594 850.667969 452 854.257813 445 C 861.65625 430.664063 872 417.738281 883 406 C 912.722656 374.34375 960.699219 346 1004 339.273438 C 1024.417969 336.121094 1043.605469 339 1064 339 L 1064 340 C 1026.523438 340 988.699219 356.816406 957 375.601563 C 945.378906 382.488281 931.980469 388.679688 924 400 C 943 394.488281 959.394531 379.832031 978 372.449219 C 1007.285156 360.832031 1039.882813 359 1071 359 L 1071 360 C 1055.652344 360.128906 1039.933594 367 1026 373 C 1023.613281 374 1008.964844 379.71875 1016.167969 383.105469 C 1028 388.707031 1046.230469 380.441406 1058 378.003906 C 1083.523438 372.71875 1107.246094 373 1133 374 C 1125.9375 364.59375 1100.796875 364 1090 364 L 1090 363 C 1104.832031 357 1117.691406 360.34375 1133 361 L 1133 360 C 1115 352.304688 1092.898438 358.480469 1076 350 C 1096.929688 344.117188 1119.34375 342 1141 342 C 1132.625 325 1099.640625 328 1084 328 L 1084 327 C 1096.34375 326.023438 1109.386719 322.539063 1121 318.304688 C 1123.191406 317.503906 1132.234375 314.453125 1130.652344 311 C 1129.316406 307.777344 1118 307 1115 306.425781 C 1097.992188 303.351563 1082 304 1065 306 L 1065 305 C 1071.714844 302.160156 1077.636719 297.066406 1084 293.425781 C 1097.726563 285.574219 1112 279.382813 1122.5625 267 C 1128.371094 260.109375 1143 241.058594 1126 241 L 1126 240 C 1138.515625 237.683594 1145.96875 245.515625 1153 255 L 1154 255 C 1153.765625 249.527344 1152.480469 244.261719 1151 239 L 1152 239 C 1153.28125 242 1154.277344 243.464844 1157 245 L 1157 231 L 1158 231 C 1159.210938 234.328125 1160.726563 237.28125 1163 240 L 1166 225 C 1168.910156 228.433594 1170.941406 233 1175 235 C 1175.296875 232.660156 1175.640625 230.328125 1176 228 C 1179.777344 204 1195 240.375 1199 243 L 1199 226 L 1200 226 C 1201.253906 254.75 1210 282.765625 1210 312 L 1209 312 C 1207 308.527344 1204.503906 306.75 1201 305 C 1201 320.148438 1197.648438 335 1197 350 C 1194.4375 347.453125 1191.953125 345.074219 1189 343 C 1186 355.460938 1187.386719 369.199219 1185 382 L 1184 382 C 1181.5625 376.773438 1177.363281 373.078125 1172 371 C 1171.660156 387.445313 1166.339844 403.609375 1166 420 L 1164 420 C 1163.816406 416 1163.472656 412.378906 1160 410 L 1160 416 L 1159 416 C 1155.300781 408.261719 1146.570313 407.332031 1143 416.003906 C 1138 428.0625 1150.8125 446.070313 1132 450.179688 C 1129.335938 450.761719 1126.714844 451 1124 451 C 1130.675781 444.324219 1138.808594 438.132813 1142 429 C 1130.441406 430.007813 1120.269531 437.054688 1109 439.574219 C 1089 444.03125 1066.933594 442.703125 1047 439 C 1052.824219 449.621094 1074 452.460938 1085 454.386719 C 1088.945313 455.078125 1094.285156 454.433594 1097.703125 457 C 1103.523438 461 1087.398438 464.03125 1085 464 C 1081.648438 464 1078.355469 463.144531 1075 463 C 1078 468.175781 1085.359375 470.3125 1091 472 C 1106.683594 476.089844 1123 473.328125 1139 473 L 1139 474 C 1133.652344 474.234375 1113 476.207031 1110 480.738281 C 1108.214844 483.585938 1112 486.804688 1114 488.378906 C 1119.367188 493 1125.988281 495.082031 1133 495 C 1148 494.65625 1163.558594 492.445313 1178 488 C 1191 484 1204.390625 477.011719 1218 475 C 1214.554688 478.445313 1203.578125 486.195313 1204.832031 491.773438 C 1206 497 1219.738281 498.265625 1224 499.671875 C 1243.242188 506.011719 1258.921875 521.492188 1278 527 C 1268 513 1252 504.277344 1237 496.753906 C 1234.503906 495.503906 1221 491 1221 488 C 1221 485.398438 1228 482.507813 1230 481.304688 C 1237.859375 476.1875 1247.945313 469.691406 1252 461 C 1241 461.464844 1230.769531 465.144531 1220 466 C 1227.625 456.425781 1240.597656 450.519531 1244.210938 438 C 1246.3125 430.71875 1240.914063 423.476563 1242.707031 417 C 1243.738281 413.269531 1262.886719 396.636719 1247 399.671875 C 1245.648438 400 1244.316406 400.328125 1243 400.722656 C 1240.648438 401.421875 1238.332031 402.242188 1236 403 C 1242.777344 396.277344 1254.671875 391.277344 1260 384 C 1242.46875 385.53125 1228 399.589844 1215 410 C 1209 414.695313 1202.269531 419 1199 426 L 1213 426 C 1202.59375 435 1189.332031 438.441406 1177 443.71875 C 1171.261719 446.175781 1164 448.277344 1161 454 L 1167 454 L 1167 455 C 1153.953125 455.570313 1141.898438 462.261719 1129 464 L 1129 463 C 1142.824219 456 1154.320313 438.605469 1155 423 L 1156 423 C 1156.382813 432 1159 440.078125 1157 449 C 1166.671875 444.058594 1172.738281 428.800781 1178.671875 420 C 1184.484375 411.371094 1190.710938 402.472656 1198 395.089844 C 1207.851563 385.324219 1219.363281 377.0625 1225 364 C 1217.820313 367.035156 1212.234375 373 1205 376 C 1218 360.625 1216.597656 348.238281 1219.4375 330 C 1221.535156 316.546875 1224.65625 303.699219 1224.984375 290 C 1225.570313 265.6875 1221 241.328125 1221 217 L 1220 217 C 1218.496094 222.046875 1217.707031 227.757813 1217 233 L 1216 233 C 1217.941406 217.632813 1221.460938 197.085938 1217 182 C 1214.558594 185.511719 1214.183594 189.78125 1214 194 L 1213 194 C 1213 184.347656 1213 174.585938 1214.285156 165 C 1214.460938 163.546875 1214.839844 156 1217.546875 156.632813 C 1220.859375 157.546875 1218.296875 172.71875 1223 176 L 1225 169 L 1226 169 C 1224.347656 178 1224 187 1224 196 C 1226 195.101563 1226 195.125 1227 193 L 1228 193 C 1227.566406 203.058594 1226 213 1226 223 L 1227 223 C 1227.644531 221 1227.90625 219.203125 1228 217 L 1229 217 C 1229 231 1226 248.683594 1230 262 C 1231.875 259.484375 1232.535156 257.097656 1233 254 L 1234 254 C 1233.996094 269.71875 1231 285.238281 1231 301 C 1234.910156 297.648438 1237.449219 293 1239 288 L 1240 288 C 1239.820313 309.765625 1239.734375 340 1231 360 C 1222.859375 379.300781 1204.734375 396.125 1199 416 C 1209.742188 411 1227.339844 401 1234 391 C 1239.902344 382.097656 1237.84375 370 1239.808594 360 C 1242 348.5 1247.65625 337.730469 1248.828125 326 C 1249.914063 315.144531 1246 304.761719 1246 294 C 1245.945313 288.144531 1249 281.746094 1248.277344 276.042969 C 1247.515625 271.078125 1241 270.574219 1239.265625 266 C 1235.484375 256.324219 1241 243.566406 1243 234 C 1226.449219 233.464844 1237.808594 207.074219 1238.949219 197 C 1240 186.714844 1233 187.597656 1231.34375 179 C 1229.96875 172.34375 1232.894531 165.695313 1231.851563 159.039063 C 1230.488281 150.339844 1219.238281 138 1212 133.480469 C 1200.523438 126.554688 1194.273438 132.636719 1184 137.558594 C 1180.277344 139.34375 1176.363281 139.265625 1173.183594 142.226563 C 1169.894531 145.292969 1168 149.558594 1164.816406 152.699219 C 1160.371094 157.027344 1154.609375 159.484375 1151.363281 165.003906 C 1147.621094 171.367188 1147.273438 179.105469 1142.609375 185 C 1138 190.730469 1131.46875 194.53125 1126 199.289063 C 1118.195313 206.078125 1111.539063 214.054688 1103 220 M 1192 178 C 1194.433594 167.734375 1198.890625 158.632813 1200 148 C 1200.441406 144.746094 1201.457031 140.753906 1205 139.707031 C 1213.261719 137.324219 1216.988281 147.800781 1215 153.828125 C 1211.511719 164.601563 1202.203125 173.597656 1192 178 M 1188 171 L 1187 171 C 1187.71875 167.527344 1188.597656 164.261719 1190 161 C 1182.710938 166.371094 1178 175.113281 1174 183 L 1173 183 L 1174 177 C 1167 184.601563 1164.933594 194.152344 1159 202 C 1157 195.582031 1157 188.664063 1157 182 C 1151.800781 187.144531 1148.996094 194.511719 1143.910156 200 C 1127.441406 217.765625 1105.4375 236.332031 1083 246 L 1083 245 C 1104.425781 230.820313 1124.320313 216 1141.910156 197 C 1146.628906 192 1151 186.21875 1154.191406 180 C 1155.710938 177 1156.46875 171.816406 1159.359375 169.753906 C 1162.566406 167.464844 1163.464844 173.042969 1164 175 C 1166 170.269531 1175.816406 139.707031 1176 160 C 1178.355469 156.210938 1194.253906 133.203125 1197.679688 147.019531 C 1199.734375 155.308594 1191.273438 164.078125 1188 171 M 451 238 L 451 227 C 462.199219 237.726563 469.945313 249 478 262 C 480.386719 258.015625 480 253.527344 480 249 C 487.738281 256.757813 493 267.683594 502 274 L 501 264 C 510.910156 274 519 285.433594 530 294.382813 C 532.871094 296.738281 539.183594 303 543.296875 300 C 550 295.105469 544.292969 276.8125 544 270 L 545 270 C 548 287 562.945313 304.160156 570 320 L 571 320 C 571 308.128906 567.464844 298 563 287 L 564 287 C 570.484375 300.097656 576.660156 314.375 584 327 L 585 327 C 586.613281 322.191406 586.199219 318 586 313 L 587 313 C 590 323.324219 598.535156 332.738281 604 342 C 579.699219 329.21875 556.902344 332 531 328 C 526.589844 327.152344 523.414063 323.167969 519 322 C 506 318.320313 492.226563 318 479 318 L 479 317 L 533 316 C 530.304688 309.0625 524 305.558594 518 301.8125 C 504.28125 293.40625 488 286.164063 472 284 C 475.304688 293 482.839844 300.304688 492 303 L 492 304 C 479.683594 306.285156 467.285156 307.289063 455 310.117188 C 451.585938 311 443.546875 311.464844 443 316.09375 C 442.367188 322.175781 453.835938 324.363281 458 325.191406 C 475.382813 328.652344 493.371094 328 511 328 L 511 329 C 492.339844 329 472.214844 331.476563 454 335.652344 C 445.746094 337.542969 437.246094 340 432 347 C 448.472656 347.011719 464.613281 352 481 352 L 481 353 C 466 353.039063 448 355.527344 435 363 L 435 364 C 444.347656 366.761719 458 365 468 365 L 468 366 C 451.972656 366.339844 426.597656 377.363281 419 392 C 434.304688 390 448.464844 388 464 388 L 464 389 C 460.550781 390 447.65625 395 451 400.296875 C 453 403.421875 458.875 403 462 403.285156 C 470.785156 404.363281 491.472656 402.320313 495.394531 413.042969 C 497.636719 419.167969 487.527344 422.777344 484.859375 427.039063 C 481.601563 432.242188 484 438.429688 482.566406 444 C 481.261719 448.769531 476.480469 451.410156 474.902344 456 C 473.308594 460.636719 480.191406 465.78125 477.976563 469.394531 C 475.433594 473.546875 466.570313 467.042969 465.421875 473.226563 C 464.734375 477 468 481 469.691406 484 C 473.996094 492 479.488281 500.277344 482 509 C 468.851563 504.550781 455.769531 499.167969 443 493.71875 C 436.441406 491 428.847656 487.066406 430 497 C 425.433594 492.433594 420.929688 487 415 484.050781 C 409.925781 481.632813 404 481.539063 399 479 C 393.566406 476.265625 389.5625 471.480469 384 469 C 388.621094 479.722656 396.203125 489 400 500 C 397.734375 498 395.703125 496.386719 393 495 C 398 516.375 416.628906 533.527344 430 550 C 422.59375 550.585938 414.707031 552 408 555.273438 C 404 557.191406 399.441406 561.804688 395 562.03125 C 391.929688 562.191406 389.292969 559.144531 391.464844 556.417969 C 393.738281 553.566406 398.699219 552.808594 402 552 C 405.503906 551 408.773438 549.699219 412 548 L 412 547 C 381.738281 527.042969 360.207031 539.347656 331 553 C 343.910156 534.671875 366.496094 525.730469 388 523 C 379.402344 499.519531 358.5625 501.117188 338 502 L 338 501 C 347 496.511719 354.953125 490.726563 365 488.238281 C 369.167969 487.207031 375.519531 486.667969 377.214844 482 C 379.582031 475.222656 369.734375 469 365 466.3125 C 348.183594 457 329.191406 455.113281 311 450 L 311 449 C 342.320313 447.65625 367.800781 453.675781 397 465 C 395.269531 455.417969 387.386719 446.761719 381.859375 439 C 369.851563 422.140625 358.714844 405.714844 344 391 C 355.363281 396.375 361.207031 409 372 414 C 365.738281 398 357.269531 381.222656 346 368 C 350.46875 371.214844 353.265625 376.261719 358 379 C 356.320313 358.429688 348 340.117188 349 319 C 349.34375 312.148438 357.613281 289.265625 362 306 L 361 306 C 358.488281 298.488281 355.230469 308.757813 354.46875 312 C 352.464844 320.503906 352.28125 330.3125 353 339 C 356.699219 375.382813 375.574219 403.582031 395.660156 433 C 402.789063 443.4375 410.898438 460 423 465 C 416.867188 450.269531 407.730469 437 402 422 C 399.542969 415.34375 399.375 405.179688 393 401 C 393 403.730469 393.5 406.3125 394 409 L 393 409 C 385.484375 392.828125 382 376 382 358 C 379.527344 360 379.277344 362 379 365 L 378 365 C 375.292969 346.585938 376.617188 329.515625 377 311 C 373.976563 312.761719 373.386719 314.558594 373 318 L 372 318 C 372.433594 297 382.824219 277.410156 383 256 C 385.476563 258.699219 387 261.691406 390 264 C 388.96875 255.796875 391.339844 249.070313 392 241 L 393 241 C 395 247.300781 397 253.402344 398 260 L 400 260 L 400 241 L 401 241 C 403 250 406.230469 259.25 409 268 L 410 268 L 410 261 C 410 259.667969 409.960938 258.328125 410 257 C 410.707031 239.800781 416 268 417.300781 269.621094 C 420.902344 275 421.984375 262.691406 422 261 L 423 261 C 429 281.519531 452.367188 295.5 472 300 C 467 291 457.277344 286.199219 453 276 C 473.769531 280.804688 493.753906 290.140625 515 293 C 511.96875 288.003906 505.816406 285.410156 501 282.308594 C 491.453125 276.160156 482 269.671875 473 262.765625 C 460.179688 253 448 242 437.171875 230 C 432 224.386719 427.703125 215 421.675781 210.617188 C 416.527344 207 412 216 408 213.027344 C 402.484375 209 407.917969 198.179688 402 194 C 401.75 205.636719 393.746094 207.828125 384 211 C 384 204.152344 384.222656 197.5625 382 191 C 378.714844 196.472656 377.519531 205.640625 377 212 L 376 212 C 375.953125 206.507813 375.976563 199.300781 371 196 C 370.214844 201.820313 367.855469 207.214844 367 213 L 366 213 C 364.210938 205.496094 357.867188 202.3125 351 200.003906 C 349.246094 199.414063 344.933594 197.328125 343.644531 199.644531 C 338.617188 208.65625 351 225 347.96875 234.667969 C 346.566406 239.175781 339.496094 233.324219 337.691406 237.40625 C 334.609375 244.386719 341.355469 254.679688 340.394531 262 C 339.660156 267.488281 332 264.703125 330.433594 270.058594 C 328 278.003906 332.996094 288.671875 333 297 C 320.441406 293.382813 329.320313 317.191406 330.882813 324 C 331.371094 326.144531 333 330.242188 331.683594 332.308594 C 329.972656 335 321.648438 332.210938 319 332 C 321.804688 345.585938 327.257813 357.511719 335 369 C 328.691406 367 322.59375 364 316 363 C 318.742188 371.105469 322.4375 378.453125 328 385 C 317.78125 385 299.765625 379.011719 291 385 C 320.90625 396.28125 353.503906 404.773438 361 441 C 309.535156 423.578125 247 441.722656 202 468 L 202 469 C 213.980469 468.484375 225.34375 463.421875 237 461.003906 C 255.628906 457.140625 274.980469 455.785156 294 457.089844 C 306.886719 458 319.984375 460.683594 332 465.449219 C 340.484375 468.816406 348.992188 474.394531 358 476 L 358 477 C 352.28125 477.015625 345.46875 476.613281 340 478 C 341.542969 479.15625 346.945313 480.828125 346.945313 483.003906 C 346.941406 485.828125 338 488.753906 336 490.089844 C 329.875 494.019531 312.1875 511.363281 316.695313 520.351563 C 318.226563 523.402344 326 518.25 328 517.453125 C 341 512.140625 352.53125 515.421875 366 516 L 366 518 C 347.496094 519 331.535156 534.824219 322.871094 550 C 319.808594 555.371094 309.863281 575.6875 323 571 C 318.703125 578.019531 315 584.746094 314 593 C 321.640625 587.574219 325.789063 578.796875 332 572 C 345.785156 557.21875 360.171875 547.734375 380 544 L 380 545 C 368.804688 550.574219 357.875 560.367188 353 572 C 361.671875 570.035156 368.722656 564.589844 378 565 L 378 566 C 368.210938 570.660156 362.484375 580.234375 356.667969 589 C 343.933594 608.183594 332.855469 629.039063 325.746094 651 C 323 659.460938 320.996094 668.074219 321 677 C 321 678.742188 320.285156 684.792969 323.210938 684.792969 C 326 684.792969 327.300781 680.070313 327.972656 678 C 330.613281 670 331.480469 661.207031 334 653 C 342.535156 625.535156 362.960938 602 388 588 C 362.855469 613.144531 336 643.425781 336 681 L 338 681 C 339.699219 642.054688 385.433594 608 422 605 L 422 606 C 378.539063 628.183594 358 686.46875 358 732 L 359 732 C 366.425781 702 380.300781 678.082031 407 660.695313 C 415 655.449219 423.992188 650.472656 433 647.066406 C 437.605469 645.324219 443.949219 645.304688 446.914063 641 C 448.78125 638.070313 453.910156 625.238281 447.851563 624.53125 C 443 624 436.933594 629 433 631.140625 C 413.65625 642 396.679688 653.429688 380 668 C 388.324219 648.011719 404.769531 632 421 618.132813 C 425.824219 614.039063 441.800781 607.65625 443.652344 602 C 445 597.523438 436.589844 596.539063 434 596.085938 C 423.515625 594.238281 413.222656 595.128906 403 598 C 418.902344 583.496094 440 584.140625 460 585 L 460 584 C 446.503906 576.125 433.171875 576 418 576 L 418 575 C 436.382813 567.355469 450.703125 570 470 570 L 470 569 C 455.917969 560.78125 444.578125 561 429 561 C 438.195313 549.683594 457.625 555.023438 470 556 L 470 555 C 461.347656 551 442.347656 547.308594 436.601563 539.773438 C 432.390625 534.25 431.769531 522 430 515 C 441.9375 527 453.503906 539.816406 469 547.214844 C 473.933594 549.570313 481.714844 553.074219 486.816406 549.398438 C 491.53125 546 493.71875 539 496.605469 534 C 503 523.15625 509.949219 511.425781 520 503.519531 C 528.285156 497 538.265625 493.496094 548 489.808594 C 552.652344 488.046875 559 487.25 562 483 C 553.992188 483.734375 545.976563 484 538 485 C 527.90625 486.050781 518.800781 489.652344 509 491.453125 C 506.527344 492 502.402344 491.414063 502.347656 488.046875 C 502.226563 481 523.195313 480.273438 528 480.039063 C 548 479.066406 564.546875 469.398438 581 458.65625 C 586.691406 455 594.679688 451.070313 598 445 C 586 447.304688 574.261719 451 563 455.449219 C 559.855469 456.695313 553.292969 460.488281 551 455.761719 C 547.953125 449.179688 563.394531 447.121094 567 446.398438 C 587.78125 442.234375 609 436.824219 630 434 L 630 432 C 585.585938 432 545 443.042969 504 459 C 517.6875 447.078125 533.355469 438.015625 550 431 C 554.761719 428.828125 569.285156 426.699219 571.863281 422.296875 C 574.855469 417.183594 559.359375 405.175781 556 402.300781 C 536.554688 385.65625 511.277344 378 486 378 L 486 377 C 497.519531 375.445313 508.367188 370.714844 520 369.285156 C 538.171875 367.054688 557.480469 371.4375 573 381.066406 C 583.332031 387.476563 589.992188 399.121094 600 405 C 594.886719 392 585.785156 377.226563 572 372 L 572 371 C 591.535156 372.597656 603.484375 388.296875 619 398 C 616.914063 384.132813 604 375.050781 593 368.054688 C 566.328125 351.160156 529.546875 342.019531 498 342 L 498 341 C 509.664063 339.519531 521 336.078125 533 336.078125 C 576.988281 336.078125 617 353 642 390 L 643 390 C 642.980469 361.230469 623.765625 341 613 316 C 625.882813 327.253906 637.597656 339.214844 646.394531 354 C 650.589844 361.050781 653.65625 375.242188 660 380 C 658.597656 347.335938 640.929688 319 615 299.628906 C 606.675781 293.433594 596.402344 286 586 284 C 588.1875 298.8125 598.824219 310.789063 605 324 L 604 324 C 589.269531 294.421875 559.507813 268.4375 536 246 C 523 233.539063 509.886719 220.03125 493 213 C 503 239.503906 533.648438 255.003906 535 286 C 518.914063 276.699219 507.96875 257.460938 494 245.183594 C 487.773438 239.714844 480.601563 239 474 234.738281 C 466.179688 229.753906 461.980469 221.082031 454.984375 215.226563 C 451.367188 212.199219 446.585938 212.761719 443 209.761719 C 436.589844 204.144531 436.414063 193.800781 428.957031 189.003906 C 418.8125 182.480469 405.914063 179.355469 395 175.6875 C 388 173.339844 383.945313 169.046875 376 170.464844 C 366.316406 172.195313 341.824219 186.828125 355.222656 198.664063 C 356.59375 200 358.527344 200.777344 360 199.339844 C 366 193.644531 370.269531 184.792969 379 181.136719 C 385 178.636719 389.46875 188.515625 395 189.457031 C 398 190 400.972656 187.441406 403.894531 189 C 408.808594 191.289063 409.191406 198.628906 414 201.246094 C 419.953125 204.394531 420.859375 194 427.484375 202.007813 C 435.367188 211.566406 440.453125 232.058594 451 238 M 1080 213 C 1077 225.601563 1072.667969 238 1068 250 C 1079.363281 243.433594 1082.902344 230.453125 1093 223 C 1089.863281 230.527344 1085.78125 241.296875 1080.335938 247.363281 C 1071.316406 257.40625 1051.621094 263.144531 1040 270.203125 C 1030.824219 275.777344 1023.300781 283.699219 1014 289 C 1020.394531 278 1032 272.332031 1040.410156 263 C 1053 248.523438 1061 220.34375 1080 213 M 1103 220 L 1102 221 L 1103 220 M 356 221 L 355 234 L 354 234 C 354 229.492188 353.84375 225.058594 356 221 M 1173 223 L 1173 231 L 1172 231 C 1172 228.164063 1171.902344 225.613281 1173 223 M 1134 232 C 1130 235.597656 1124.597656 236.300781 1120 239 C 1114.746094 242 1110.589844 246.589844 1105 249.09375 C 1102.726563 250.113281 1095.890625 252.6875 1094.832031 248.722656 C 1093.738281 244.632813 1100.332031 242.347656 1103 241.144531 C 1113.199219 236.535156 1123.238281 234.59375 1134 232 M 1215.667969 234.667969 C 1215.722656 234.722656 1215.777344 235.777344 1215.332031 235.332031 C 1215.277344 235.277344 1215.222656 234.222656 1215.667969 234.667969 M 986 236 L 985 237 L 986 236 M 985 238 L 984 241 L 983 241 C 983.683594 239.421875 983.804688 239.222656 985 238 M 1126 241 L 1125 242 L 1126 241 M 1011 251 L 1010 252 L 1011 251 M 1234.667969 252.667969 C 1234.722656 252.722656 1234.777344 253.777344 1234.332031 253.332031 C 1234.277344 253.277344 1234.222656 252.222656 1234.667969 252.667969 M 356 256 L 356 260 L 355 260 C 355.175781 258.316406 355.316406 257.507813 356 256 M 353 263 L 353 272 L 352 272 C 352 269 351.785156 266 353 263 M 501 263 L 500 264 L 501 263 M 544 267 L 544 270 L 543 270 C 543.25 268.546875 543.316406 268.246094 544 267 M 1056 269 L 1055 270 L 1056 269 M 1219 269 C 1220 274.621094 1220.953125 280.273438 1221 286 L 1220 286 C 1219.890625 280.644531 1217.199219 274.023438 1219 269 M 453 275 L 452 276 L 453 275 M 352 276 L 352 280 L 351 280 C 351.175781 278.316406 351.316406 277.507813 352 276 M 974 283 L 974 286 L 973 286 C 973.25 284.550781 973.316406 284.246094 974 283 M 563 286 L 562 287 L 563 286 M 937 288 C 930.566406 296.429688 925.949219 306 922.671875 316 C 921 321 921 329 916.722656 332.257813 C 910.460938 337.125 895.585938 333.570313 888 334.089844 C 870.628906 335.277344 851.535156 340.371094 836 348.273438 C 824.4375 354.15625 816.503906 365.292969 809.695313 376 C 806.871094 380.445313 804.773438 388.386719 799.894531 391 C 793.632813 394.257813 780 389.089844 773 389.003906 C 751.652344 388.75 730.242188 387 709 387 C 701.238281 387 689 391.054688 682 387.425781 C 672.195313 382.335938 669.664063 366 660 359 C 661.328125 366.722656 671.578125 381.324219 668.648438 389 C 666.902344 393.339844 658.917969 393.1875 655 394.128906 C 646 396.277344 629 399.773438 624 408 C 667.589844 408 704 427.113281 746 435 C 742.527344 429.589844 734.507813 427 729 424 C 712.574219 414.757813 695.371094 409.699219 678 403 C 702 392.355469 731.535156 396.417969 756 403.425781 C 766.652344 406.480469 776.820313 412.085938 788 413 C 786.195313 410.425781 781.316406 406.515625 781.769531 403.109375 C 782.460938 398 793.609375 396.6875 795.785156 401.277344 C 797.554688 405.007813 793 412.28125 792 416 C 789 426.132813 785.507813 438.539063 788 449 C 781.652344 447.691406 775.441406 445.832031 769 445 C 773.507813 451.605469 786.515625 454.75 793 460.300781 C 806.917969 472.210938 815.839844 488.476563 823 505 C 841.539063 546.65625 848.542969 592.488281 864.574219 635 C 869.28125 647.476563 875.371094 672.535156 887 680 C 885 670.140625 880.808594 661 879.273438 651 C 874.835938 622.3125 878 594.070313 888 567 L 889 567 C 889 606.4375 895 645.550781 895 685 C 902.484375 679.613281 905.648438 671.222656 909 663 C 917.183594 644.140625 925 619.574219 926 599 C 908.65625 605.679688 906.652344 634.445313 901 650 L 900 650 C 899 639.300781 899 628.757813 899 618 C 899 576.089844 898.964844 503.160156 947 485.230469 C 955.839844 482 964.722656 482 974 482 C 967.769531 473.707031 949.339844 476.746094 941 479.699219 C 913.570313 489.40625 894.699219 518 874 537 C 874.449219 515.191406 885.21875 499.066406 891 479 C 882.695313 485 878.21875 495.066406 873.753906 504 C 862.574219 526.355469 855 550 855 575 L 854 575 C 851.503906 543.660156 840.183594 506 824 479 C 820 472.332031 815 465.738281 808.984375 460.808594 C 805.949219 458.316406 799.292969 455.773438 798.179688 451.785156 C 795.257813 441.34375 800 426.132813 802.628906 416 C 817.519531 358.167969 869.433594 334.648438 925 345 C 925.546875 332.242188 929.476563 319.105469 933.34375 307 C 935 301.316406 939.394531 294 937 288 M 1065 306 L 1064 307 L 1065 306 M 613 315 L 612 316 L 613 315 M 606 324 L 609 330 L 608 330 C 606.679688 327.820313 605.75 326.492188 606 324 M 610 331 L 609 332 L 610 331 M 913 352 C 907.707031 344.273438 888 348 880 349.25 C 843.503906 355.601563 823.214844 389.476563 812.332031 422 C 809.382813 430.824219 796.234375 460.703125 814.851563 459.679688 C 819.40625 459.429688 818.289063 450.296875 818.71875 447 C 820.464844 433.550781 823.953125 420.308594 829.78125 408 C 845.273438 375.269531 876.332031 352 913 352 M 346 367 L 345 368 L 346 367 M 572 370 L 572 371 L 569 371 C 570.246094 370.316406 570.546875 370.25 572 370 M 466 387 L 465 388 L 466 387 M 344 390 L 343 391 L 344 390 M 899 495 C 903.234375 492 904.757813 485.445313 907.464844 481 C 911.8125 474 917.734375 467.121094 925 463 C 947.839844 449.539063 975 454.417969 1000 456.828125 C 1018.234375 458.59375 1036.953125 458.648438 1055 462 C 1051.800781 448.578125 1036 449 1025 449 C 1009.675781 449 994.25 449.28125 979 447.828125 C 961.226563 446.140625 942.34375 443.492188 925 449 C 946.488281 424.402344 980.710938 397.730469 1014 392 L 1014 390 C 959.8125 390.007813 903.5 440 899 495 M 1034 417 C 1050 412.46875 1066.238281 409 1083 409 L 1083 410 C 1076.894531 411.746094 1070.988281 414.527344 1065 416.691406 C 1063.617188 417.191406 1059.207031 418.226563 1059.207031 420.222656 C 1059.207031 423.382813 1068.808594 424.53125 1071 425 C 1083.582031 427.132813 1097.238281 428.28125 1110 426.714844 C 1118 425.730469 1126.679688 424.214844 1134 420.671875 C 1135.839844 419.78125 1140.824219 417.410156 1139.652344 414.589844 C 1138.710938 412.3125 1133.878906 413 1132 413 C 1124.320313 413 1116.609375 414.289063 1109 415.28125 C 1101.609375 416.242188 1094.460938 417 1087 417 C 1093.945313 410.371094 1106.261719 405.757813 1109 396 C 1090.285156 398.363281 1072.21875 398.730469 1054 404.671875 C 1046.59375 407.085938 1037.652344 409.527344 1034 417 M 1161 416 L 1160 417 L 1161 416 M 723 443 L 723 444 C 742.175781 452.253906 762.746094 455.035156 780 468 C 786.996094 473.109375 792.964844 478.8125 797.960938 486 C 800.890625 490.21875 802.664063 496.160156 807 499 C 803.464844 455.753906 759.835938 440.09375 723 443 M 1219.941406 442.578125 C 1226.773438 441.78125 1221.828125 451.558594 1220.289063 454 C 1215.480469 461.632813 1205.960938 472.570313 1196 472.707031 C 1188.457031 472.808594 1193.25 465.15625 1195.679688 462 C 1200.339844 456 1211.890625 443.515625 1219.941406 442.578125 M 518 543 L 519 543 C 552.777344 497.4375 615.390625 464 671 455.273438 C 685.652344 453.011719 699.355469 454 714 454 C 701.914063 441.796875 675.394531 445.210938 660 447.28125 C 617.246094 453.042969 580.875 477 549 504.71875 C 537.9375 514.34375 520.726563 527.71875 518 543 M 789 449 L 788 450 L 789 449 M 796 452 L 795 453 L 796 452 M 504 459 L 503 460 L 504 459 M 638 468 L 638 470 C 664 470 690.992188 470.523438 715 482 C 748.867188 498 773.355469 537.308594 791 569 C 776.914063 552.824219 764.992188 530 747 518 C 752 531.792969 762.976563 544 769.742188 557 C 779.933594 576.757813 785.460938 598.3125 789.800781 620 C 791.867188 630.335938 793.757813 640.726563 796 651 C 797 655.285156 797.203125 660.351563 801 663 C 801 645.574219 803.640625 628.371094 804 611 C 811.378906 618.378906 817.175781 625.570313 821.742188 635 C 824 640 825.359375 647.824219 830 651 C 826.679688 635 819.65625 620 816 604 L 817 604 C 821 618.160156 830.539063 631.566406 836.691406 645 C 843.996094 661 848.367188 677.5 854 694 C 857 687 853.214844 678.1875 851.804688 671 C 847.769531 650.425781 842.195313 630.488281 834.398438 611 C 816.363281 566 788 524 750 493.398438 C 735 481.441406 718.875 469.636719 700 465 C 678 459.394531 659.558594 466.238281 638 468 M 1128 464 L 1127 465 L 1128 464 M 1220 466 L 1219 467 L 1220 466 M 1219 474 L 1218 475 L 1219 474 M 990 483 L 990 484 C 1036.574219 484 1078.527344 495.453125 1111.960938 530.003906 C 1122.722656 541.125 1132.578125 553.414063 1141.574219 566 C 1146.171875 572.433594 1149.875 582.160156 1157 586 C 1141.828125 532.539063 1097.933594 492 1043 481.609375 C 1026.324219 478.464844 1005.953125 476 990 483 M 431 497 L 430 498 L 431 497 M 401 500 L 400 501 L 401 500 M 338 502 L 337 503 L 338 502 M 990 506 C 995 513.738281 1015.425781 517 1024 521.246094 C 1048.449219 533.550781 1072.847656 549.441406 1093 568 C 1070.269531 557.246094 1052.46875 540 1028 532 C 1032.570313 540.050781 1048.222656 545.332031 1056 550.515625 C 1075.902344 563.785156 1098.507813 580.824219 1109 603 C 1103.222656 597.222656 1097.648438 590.238281 1090 587 C 1095.773438 598.1875 1106.914063 606 1114.253906 616 C 1133.445313 642.546875 1151.554688 674.820313 1159 707 L 1158 707 C 1151.363281 684 1132.320313 662.027344 1117.246094 644 C 1111.179688 636.746094 1104.730469 627.070313 1096 623 C 1098.980469 633.054688 1107.929688 640.800781 1114 649 C 1122.449219 660.09375 1129 672.8125 1135.691406 685 C 1146.695313 705.347656 1155 727.347656 1163.1875 749 C 1166 757 1167 765.492188 1171 773 L 1172 773 C 1171.445313 760.0625 1168.464844 746.699219 1166 734 L 1167 734 C 1168.796875 737.453125 1170.84375 739.726563 1174 742 C 1173.972656 699.589844 1154 656.523438 1134.308594 620 C 1125.261719 603.308594 1118.648438 584.457031 1107.570313 569 C 1080.445313 531.144531 1036.933594 506 990 506 M 483 509 L 482 510 L 483 509 M 1173 531 L 1173 532 C 1159 531.394531 1149.40625 522.542969 1137 518 C 1139.769531 528.128906 1146 537.242188 1155 543.035156 C 1159 545.714844 1168.695313 547.308594 1170.964844 552 C 1172.492188 555.039063 1166.652344 559.546875 1165.226563 562 C 1162 567.5 1162.214844 574.769531 1165.804688 580 C 1171.242188 588 1179.613281 593.101563 1188 597.378906 C 1189.726563 598.257813 1194.988281 600.515625 1193.792969 603.277344 C 1192.757813 605.671875 1187.84375 605.210938 1185.828125 605 C 1177.714844 604.105469 1170.886719 599.402344 1163 598 C 1173.625 612.308594 1204.855469 620.636719 1222 622 L 1222 623 C 1208.59375 626.066406 1196.417969 627 1183 623 C 1173.886719 620.257813 1165.324219 614.65625 1156 613 C 1162.640625 624.492188 1176.261719 634.332031 1189 638 L 1189 639 C 1180.835938 640.230469 1171.941406 647.492188 1179.417969 655.671875 C 1183.972656 660.652344 1192.65625 662.53125 1199 664 L 1199 665 C 1195 665.820313 1168.714844 673.175781 1180.320313 681 C 1190.691406 688 1210.855469 674.496094 1217.695313 667.5625 C 1224.453125 660.710938 1215.777344 660.324219 1216.632813 654 C 1217 650.785156 1221.1875 647.578125 1223 645 C 1218.9375 645 1215 645.039063 1211 645.804688 C 1208 646.363281 1204 648.109375 1201 646.800781 C 1198.898438 645.785156 1196.769531 642.257813 1199.410156 640.515625 C 1202.910156 638.203125 1208.984375 639 1213 638.195313 C 1221.539063 636.5625 1229 633.796875 1235.996094 628.332031 C 1238.480469 626.351563 1244.886719 621.398438 1242.839844 617.515625 C 1239.71875 611.597656 1220 614.199219 1214 610.574219 C 1209.292969 607.660156 1216.753906 603.699219 1212.808594 599.085938 C 1205.359375 590.378906 1192.710938 585.585938 1184 578 C 1212.835938 578 1235.71875 580.644531 1261 596.425781 C 1270.628906 602.4375 1277.929688 613.304688 1288 618 C 1287.5625 616.65625 1287 615.3125 1286.667969 614 C 1282 598.195313 1297.621094 615.136719 1301 618 C 1300.976563 583.429688 1275.289063 557.617188 1247 541.425781 C 1237.464844 536 1223.597656 534.066406 1216 526 C 1234.960938 526 1244.359375 536.691406 1261 543 C 1258.300781 537.207031 1252.925781 534 1249 529 C 1268.382813 533.484375 1279.730469 549.414063 1297 557 C 1293.273438 544.339844 1280.832031 538.121094 1270 532.230469 C 1244 518.15625 1209.914063 506.648438 1180 510.574219 C 1172.769531 511.523438 1152.589844 510.105469 1147.890625 516.699219 C 1145.835938 519.578125 1149.953125 522.035156 1152 523.203125 C 1158.351563 526.824219 1165.664063 530.355469 1173 531 M 1249 528 L 1248 529 L 1249 528 M 1282 589 C 1269.476563 587.117188 1262.179688 576 1253 568.464844 C 1242.179688 559.589844 1229.328125 553.210938 1217 546.746094 C 1214.21875 545.285156 1197 536.824219 1201 532.066406 C 1203.871094 529 1222.476563 537.050781 1226 538.449219 C 1247.875 547.128906 1278 563.101563 1282 589 M 1177 532 L 1177 533 L 1173 533 C 1174.507813 532.316406 1175.316406 532.175781 1177 532 M 468 694 L 469 694 C 486.390625 664.089844 500.519531 634.351563 522.398438 607 C 538.964844 586.292969 564.742188 566.425781 574 541 C 564.242188 545.550781 557.3125 556.398438 549.960938 564 C 537.644531 576.722656 522.464844 589.820313 508 600 C 511.945313 573.273438 536 556.574219 546 533 C 533 539.019531 521.585938 558.476563 513.660156 570 C 488.347656 606.796875 468 648.484375 468 694 M 485 735 L 486 735 C 496 708.144531 501 682.15625 516.203125 657 C 540 617.578125 576.917969 585.296875 618 564.753906 C 634.570313 556.46875 652.304688 549.371094 671 548.089844 C 691.175781 546.707031 705.371094 553.632813 724 559 C 717.277344 549.660156 705.824219 545.453125 695 543 C 669.484375 536.828125 642.78125 542.050781 619 552.28125 C 547.402344 583.085938 485 654.058594 485 735 M 331 553 C 330.453125 554.636719 330.636719 554.453125 329 555 C 329.546875 553.363281 329.363281 553.546875 331 553 M 473 604 L 472 604 C 477 586.347656 491.597656 573 497 556 C 479.949219 568.265625 468 595.125 460 614 C 458.5 617.503906 450.910156 632.707031 456.378906 635.652344 C 458.324219 636.703125 459.796875 632.078125 460.308594 631 C 462.921875 625.460938 465.582031 620 467 614 L 468 614 C 466.730469 619.53125 466.414063 627 464.28125 632 C 461.546875 638.535156 454.988281 644.050781 451 650 C 443 662.09375 436.9375 675.804688 434 690 C 439.296875 686.390625 442.351563 678 447 673 C 442.167969 685.527344 437.503906 699.390625 439 713 C 442.40625 708.429688 444.179688 701.429688 446 696 L 447 696 C 445.644531 713.152344 446.859375 730 447 747 C 450.65625 744.617188 452.960938 740.203125 456 737 C 455.992188 751.101563 452.730469 775.308594 437 780.722656 C 430.929688 782.8125 423.328125 780.015625 417 780 C 419.621094 785.496094 422.886719 789 429 790 L 429 791 C 423.890625 791 418.960938 790.222656 414 789 C 414.234375 794.050781 415.691406 797.183594 419 801 C 415 799.546875 411.179688 798.539063 407 798 C 410.773438 806.027344 420 809.410156 425.675781 816.015625 C 432.476563 824 434.921875 834.078125 440 843 L 433.996094 843 C 431.671875 843.011719 421.597656 843.566406 425.660156 848.3125 C 430.671875 854.160156 443.519531 856.476563 450 862 C 443.652344 862 437.207031 861.523438 431 863 C 438.269531 871.480469 451.597656 874.667969 460 883 C 455.910156 881.300781 441.707031 873 438.601563 879.316406 C 435.867188 885 440.867188 893.023438 443 898 C 450.664063 916 462.71875 930.667969 472.980469 947 C 479.410156 957.230469 471.457031 967.089844 472.464844 978 C 475.371094 1009.492188 496.667969 1037 528 1043 C 523.890625 1033.324219 513 1027.820313 506.429688 1020 C 490.664063 1001.625 480 979.429688 480 955 C 491.949219 967 508.949219 976.8125 515.546875 993 C 521.769531 1008.273438 525.347656 1024.632813 531.601563 1040 C 533.875 1045.582031 536 1054.367188 541 1058 C 535.714844 1022.078125 522 989.023438 522 952 C 522 936 521 921.28125 533 909 C 533 920.824219 527 948.175781 539 956 C 540.769531 942.292969 545.648438 929.375 548.871094 916 C 551 907.058594 551.480469 897.277344 555.824219 889 C 561.855469 877.507813 573.722656 867.816406 581.28125 857 C 594.625 838 605.796875 817.398438 618.667969 798 C 628.464844 783.234375 640.378906 769.484375 649 754 C 628 763 615.953125 790.066406 597 803 C 603.628906 787.160156 620.523438 778.300781 627 763 C 589.199219 783.125 554.589844 827.492188 541 868 L 540 868 C 540 817.386719 566.652344 766.796875 608 737.722656 C 620.433594 729 636.195313 718 652 717.214844 C 661 716.828125 669 725.414063 677 728.769531 C 692.289063 735.253906 708.496094 738 725 738 C 717.476563 747.335938 709.796875 758 708 770 L 709 770 C 718.78125 754.078125 730.449219 738.410156 749 732.359375 C 753 731.015625 769.238281 726.648438 770.230469 734.109375 C 770.683594 737.523438 766 741 764 743 L 745 762 C 725 782 705.421875 803.097656 681 817.546875 C 672 823 662.417969 825.824219 653 830 L 653 831 C 684.355469 831 711.335938 812 732.996094 791 C 751.851563 772.71875 769.945313 751.449219 798 749.324219 C 814.175781 748.097656 823.277344 760.800781 837 766 C 832.570313 743.230469 806.683594 736.425781 786 736 L 786 735 C 788.40625 734 799.605469 732.285156 800.246094 730.398438 C 802.28125 724.429688 789.683594 721.203125 786 720.449219 C 769 717 754.648438 720.492188 739 727 C 743.734375 722.265625 748.277344 717.035156 754 713.46875 C 756.660156 711.8125 761.40625 710.375 762.171875 707 C 763 702.597656 757.8125 698 755.449219 695 C 749.335938 687.328125 742.492188 679 741 669 C 753.433594 678 765.636719 686.429688 780 692 C 780 685.429688 779.25 679.441406 778 673 L 779 673 C 780.945313 681.183594 786.175781 691.273438 794 695 C 792.710938 678.816406 784 663.6875 777.851563 649 C 757 600.378906 723.839844 551.699219 664 556.089844 C 652.664063 557 643.378906 564 634 569.550781 C 624 575.574219 613.425781 580.539063 603 585.753906 C 582.714844 596 557.457031 607.082031 545 627 C 555.773438 624 565.175781 615.621094 575 610.308594 C 591.484375 601.394531 608.875 594.140625 625 584.546875 C 635.191406 578.480469 644.449219 570 656 566.441406 C 673 561.328125 691.644531 567 707 574.757813 C 743.449219 593.285156 767.90625 630.691406 777 670 L 776 670 C 770.582031 653.035156 744.53125 645.570313 729 642 C 724.613281 641 714.296875 637.5625 710.648438 641.601563 C 707.226563 645.390625 714 652 716 655 C 685 655.003906 656.765625 669.175781 631 685 C 641 670.800781 657.441406 661 672 652 L 672 651 C 637.859375 652.488281 610.449219 690 591.199219 714 C 546.539063 769.828125 514 834.101563 507.171875 906 C 505.238281 926.3125 509 946.730469 509 967 C 491.863281 950 491.910156 925.527344 475 907 C 481.738281 910.207031 485.59375 916.757813 492 920 C 488.238281 908.464844 482.394531 897.621094 475 888 L 491 889 C 483.476563 877 470.480469 869.328125 461.898438 858 C 449.484375 841.609375 442.882813 813.269531 423 804 L 423 803 C 465.449219 803 465 755.613281 470.433594 724 C 472 714 475 704.054688 477 694 C 467.183594 698.578125 459.925781 711 457 721 L 456 721 C 456 698.101563 460 676 466.722656 654 C 469.570313 644.644531 475.296875 635.558594 477 626 L 469 629 C 478.34375 613 484.378906 595.253906 493.3125 579 C 497.914063 570.621094 505.53125 563.753906 507 554 C 491.976563 561.0625 477.433594 588.492188 473 604 M 1191 561 C 1202.191406 549 1230.347656 561.144531 1242 567.261719 C 1246.199219 569.464844 1255.363281 574.253906 1255.363281 580 C 1255.363281 586.03125 1244.394531 581 1242 579.742188 C 1225.746094 572 1206.636719 569.199219 1191 561 M 1094 568 L 1097 570 L 1097 571 L 1093 569 L 1094 568 M 792 569 L 795 575 L 794 575 C 792.679688 572.820313 791.75 571.492188 792 569 M 324 570 L 323 571 L 324 570 M 942 625 C 950.847656 620.261719 957 609 965 602.464844 C 985.355469 585.773438 1015 575.226563 1041 583.75 C 1053.851563 588 1062.339844 600 1075 604 C 1070 593 1060.578125 586 1050 580.757813 C 1007.882813 560.007813 959.421875 583.152344 942 625 M 797 578 C 795.363281 577.453125 795.546875 577.636719 795 576 C 796.636719 576.546875 796.453125 576.363281 797 578 M 798 579 L 797 580 L 798 579 M 503 860 L 505 860 C 505 845.242188 506.695313 830.695313 507 816 L 508 816 C 508 824 508.65625 833.546875 515 839 C 515 806.011719 535.835938 779.21875 548 750 C 537.222656 755.773438 524.347656 779.40625 521 791 L 520 791 C 528.820313 758.75 549.804688 728.773438 567.691406 701 C 575 689.546875 585 677.769531 590 665 C 579.648438 669.613281 572 679.582031 562 685 C 568.628906 671.011719 581 660 587 646 C 562.75 658.378906 545 690.605469 535.449219 715 C 530.765625 726.804688 531 743.054688 520 751 C 520.3125 736.007813 529 719.53125 535 706 C 557.960938 654.382813 607.433594 603.746094 666 598.171875 C 689.785156 596 712.984375 608 735 615 C 731.335938 599.582031 709.34375 595.125 696 593 C 655.597656 586.238281 613.980469 598.007813 582 623.449219 C 530.230469 664.636719 504.507813 733.46875 500 798 C 498.660156 819 502.828125 839.273438 503 860 M 815 599 L 814 600 L 815 599 M 507.667969 600.667969 C 507.722656 600.722656 507.777344 601.777344 507.332031 601.332031 C 507.277344 601.277344 507.222656 600.222656 507.667969 600.667969 M 815.667969 602.667969 C 815.722656 602.722656 815.777344 603.777344 815.332031 603.332031 C 815.277344 603.277344 815.222656 602.222656 815.667969 602.667969 M 1110 603 L 1109 604 L 1110 603 M 423 604 L 422 605 L 423 604 M 472 604 C 471.402344 607.476563 470 610.660156 469 614 L 468 614 C 468.636719 610.300781 469.730469 607.003906 472 604 M 1009 604 C 1012.925781 611 1023.214844 610.8125 1030 613.464844 C 1044 619 1054.761719 629.40625 1068 636 L 1068 637 C 1057.871094 632.78125 1048.496094 627.421875 1038 624 C 1040.953125 630.042969 1047.902344 633.417969 1053 637.613281 C 1060.992188 644.191406 1067.746094 651.683594 1075 659 C 1058.355469 648 1044.1875 635.058594 1026 626.257813 C 1018.808594 622.777344 1003.792969 622.332031 998.359375 617.398438 C 995.253906 614.578125 997.835938 608.632813 998 605 C 984.535156 610.808594 974 622.210938 963 631.386719 C 947.636719 644.03125 925.402344 656 916 674 C 937.46875 665.0625 954.941406 648.546875 977 640.699219 C 981 639.242188 1000.542969 629.316406 998.882813 637.019531 C 996.9375 646.039063 989 643.546875 983 647.144531 C 972.359375 653.488281 964.894531 664.152344 955 671.523438 C 951.597656 674.054688 939.957031 680.007813 943 685.683594 C 945.742188 690.503906 955.238281 687 959 685.65625 C 974.480469 680.722656 990.816406 678.265625 1007 679.828125 C 1016.296875 680.730469 1026.726563 685.246094 1036 683.785156 C 1043.269531 682.640625 1045.667969 675.378906 1052 673 C 1059.730469 669.792969 1073.238281 677.269531 1080 680.785156 C 1100 691.199219 1117 707 1131.574219 724 C 1138.449219 732.070313 1146.894531 748.40625 1157 752 C 1140.8125 702.261719 1118.550781 647.613281 1070 621.308594 C 1051 611.058594 1029.824219 608.039063 1009 604 M 628 635 L 635 633 L 635 634 C 619.773438 641.234375 596.816406 663.28125 595 681 C 609.980469 674 621.644531 660.414063 636 652.011719 C 661.925781 637 690.355469 632 720 632 L 720 630 C 707 628.328125 695 627 682 627 L 682 626 C 696.558594 624.730469 710 620 725 620 C 719.984375 615.242188 710.660156 615.179688 704 615.015625 C 685.265625 614.554688 665.546875 617.523438 648 624.191406 C 641.757813 626.566406 631.46875 629 628 635 M 681 627.332031 C 681.773438 627.332031 681 627.832031 680.667969 627.667969 L 681 627.332031 M 469 629 L 468 630 L 469 629 M 643 629 L 642 630 L 643 629 M 641 630 L 641 631 L 635 633 C 636.949219 631.425781 638.589844 630.710938 641 630 M 990 658 C 992.226563 653.234375 1000.535156 633.710938 1006.867188 635.085938 C 1011.429688 636.078125 1009.578125 642.34375 1007.992188 645 C 1004 651.515625 996.757813 655.1875 990 658 M 622.5 636.5 C 621.871094 637.128906 622.871094 638.128906 623.5 637.5 C 624 637 623 636 622.5 636.5 M 1069 637 L 1068 638 L 1069 637 M 1033 662.621094 C 1041.214844 659.726563 1039 672.488281 1033 674.339844 C 1025.382813 676.632813 1027.78125 664.484375 1033 662.621094 M 379.667969 668.667969 C 379.722656 668.722656 379.777344 669.777344 379.332031 669.332031 C 379.277344 669.277344 379.222656 668.222656 379.667969 668.667969 M 727 694 C 718 693.214844 706.664063 688.769531 700.789063 681.699219 C 698.820313 679.332031 695.460938 673.789063 698 670.78125 C 700.628906 667.742188 705.863281 671.453125 708 673.226563 C 714.914063 679 721.839844 686.675781 727 694 M 778 670 L 778 673 L 777 673 C 777.25 671.546875 777.316406 671.246094 778 670 M 448 672 L 447 673 L 448 672 M 719.320313 672.648438 C 724.699219 670.402344 732.367188 681.09375 726.679688 683.757813 C 721.722656 686.078125 713.820313 675 719.320313 672.648438 M 1189 684 C 1193 697 1191 707.816406 1190 721 C 1193.929688 718.726563 1200.667969 706.652344 1205.566406 708.347656 C 1210 710 1206.472656 719.40625 1205 722 C 1202.265625 727 1197 730.617188 1195 736 C 1193.738281 740 1195 744 1194.710938 748 C 1193.746094 756.691406 1191.6875 765.269531 1191 774 C 1194 771.6875 1196 769 1198.464844 766.003906 C 1207 755.710938 1211.367188 763.078125 1206.597656 773 C 1201.894531 782.785156 1191.199219 787.152344 1186 796 C 1204 793.554688 1217 778 1221.84375 761 C 1222.796875 757.636719 1225.964844 750 1224.308594 746.617188 C 1222.847656 743.679688 1216.957031 747.054688 1215 747.796875 C 1209 750.039063 1200.570313 746.820313 1199.742188 739.390625 C 1199.421875 736.488281 1210.601563 729.019531 1212.640625 726 C 1219.511719 715.824219 1220.785156 703.753906 1223 692 C 1217.882813 692.765625 1212 697.140625 1207 696.382813 C 1200.277344 695.382813 1195.265625 686.792969 1189 684 M 631 685 C 630.453125 686.636719 630.636719 686.453125 629 687 C 629.546875 685.363281 629.363281 685.546875 631 685 M 1065 693 C 1071.179688 701.371094 1082.847656 706.664063 1091 713.199219 C 1105 724.535156 1117.808594 737.355469 1129.714844 751 C 1146.542969 770.289063 1161 791.261719 1174.574219 813 C 1181 823.449219 1186.242188 836.636719 1194 846 C 1196 833 1184 813.792969 1179 802 C 1163.605469 766.371094 1139.597656 732.304688 1107 710.667969 C 1094.796875 702.566406 1080 693.65625 1065 693 M 898 741 C 903.273438 738.039063 906.167969 731.484375 910.175781 727 C 918.589844 717.578125 929 710 942 709.089844 C 957.53125 708.027344 973.753906 714.722656 988 720.050781 C 992.386719 721.691406 1002 728.320313 1006.636719 727.066406 C 1009.488281 726.28125 1007.207031 722.519531 1006.191406 721.171875 C 1003.191406 717.195313 993.421875 713.476563 993.347656 708 C 993.222656 699.164063 1012.496094 700 1018 700 C 1009.640625 692 992.523438 694.828125 982 695.828125 C 949.359375 699 909.726563 705.035156 898 741 M 724 727 C 710.667969 735.039063 687.46875 727.757813 676 719.238281 C 673.296875 717.230469 659 706.105469 664.617188 702.070313 C 669.5 698.511719 676.503906 709.285156 679 712 C 691.539063 725 706.949219 727 724 727 M 1159.667969 707.667969 C 1159.722656 707.722656 1159.777344 708.777344 1159.332031 708.332031 C 1159.277344 708.277344 1159.222656 707.222656 1159.667969 707.667969 M 495 713 C 488 731.246094 478 753.152344 480.871094 773 C 481.953125 780.785156 483.339844 790.085938 491 794 C 487.335938 765 501.550781 740.21875 508 713 C 498.933594 720.769531 491 740.183594 490 752 L 489 752 C 489.46875 741.132813 498.984375 722.773438 495 713 M 831 725 L 831 727 C 845.816406 729.230469 852.675781 743.140625 859 755 C 869.402344 739.777344 843 725.554688 831 725 M 541 726 C 538.355469 730.746094 535.4375 734.808594 531 738 C 533.363281 733.03125 536.511719 729.191406 541 726 M 739 727 L 738 728 L 739 727 M 457 736 L 456 737 L 457 736 M 547 749 C 548.578125 748.316406 548.777344 748.195313 550 747 C 548.421875 747.683594 548.222656 747.804688 547 749 M 926 765 C 942.804688 763.675781 960 759 977 760.089844 C 992.910156 761.179688 1007.59375 767.457031 1023 769 L 1023 770 C 1000.375 770 978 769 956 774.628906 C 947.527344 776.820313 935.816406 780.214844 930 787 C 939.769531 785.5625 949 782.117188 959 781.171875 C 981.652344 779.003906 1004 782.820313 1026 788.375 C 1046.988281 793.691406 1068.316406 808.054688 1090 809 C 1085.761719 798.0625 1073.714844 791 1065 783.75 C 1033.792969 758 1003.554688 746.109375 963 753.804688 C 953.972656 755.515625 931.417969 757.234375 926 765 M 489 753 L 489 757 L 488 757 C 488.175781 755.316406 488.316406 754.507813 489 753 M 777 776 L 777 777 C 802.847656 775 825.238281 775.410156 848 790.089844 C 857 796 862.640625 806.140625 872 811 C 862.863281 771.523438 810.324219 758.507813 777 776 M 746 789 C 724.214844 810.605469 691.96875 833 683 864 C 691.316406 859.519531 697.269531 847.789063 704 841 C 701 850 699.449219 859 694.535156 867 C 677.949219 894.242188 652.527344 916.410156 648 950 C 652.234375 947 653.910156 939.671875 656.246094 935 C 661.664063 924.160156 667.445313 913.609375 674.886719 904 C 679.378906 898.203125 684.828125 892.144531 691 888.109375 C 694.421875 886 699.617188 885.421875 702.4375 882.488281 C 706.921875 877.816406 708 870.132813 713 865 C 729.875 847.304688 750.34375 835.609375 772 824.753906 C 780.25 820.617188 788.832031 815.050781 798 813.3125 C 806 811.789063 814 813.367188 822 814 L 822 815 C 806.238281 815.6875 793 826.023438 780 833.574219 C 762 844 741.8125 851.601563 726 865.300781 C 719.242188 871.15625 715.972656 880 708.984375 885.472656 C 702.863281 890.3125 695.175781 892.660156 689 897.519531 C 675.320313 908.28125 661.546875 929.28125 660 947 L 661 947 C 670 928 682.539063 911.667969 700 899.441406 C 706.546875 895 714.558594 893 721 888.363281 C 727.734375 883.515625 731.675781 875.796875 738 870.4375 C 750.636719 859.742188 766.179688 854.039063 782 850 C 797.316406 846 813.261719 843.667969 829 842.171875 C 837.835938 841.328125 846.496094 842.183594 855 839 L 855 838 C 847.941406 837.105469 841 836 834 836 L 834 835 C 842.21875 831.589844 849.285156 826.660156 858 824.140625 C 859.625 823.671875 864.792969 823 864.792969 820.582031 C 864.792969 816.175781 854.195313 813.214844 851 812.054688 C 836.25 806.695313 818.847656 801.660156 803 803.171875 C 783.617188 805.015625 765.785156 810.445313 749 820.453125 C 737 827.519531 726.9375 837.199219 715 844 C 719.644531 830.265625 727.449219 817.492188 736.234375 806 C 739.667969 801.511719 747.632813 795.152344 746 789 M 916 801 C 929.503906 798.703125 941 796 955 796 C 945.679688 785.164063 924.21875 791.410156 916 801 M 519.667969 791.667969 C 519.722656 791.722656 519.777344 792.777344 519.332031 792.332031 C 519.277344 792.277344 519.222656 791.222656 519.667969 791.667969 M 1021 800 C 1031.996094 815.277344 1055.570313 818.246094 1071 827.8125 C 1093.605469 841.828125 1111.492188 864 1125.921875 886 C 1141.285156 909.425781 1152.828125 935.484375 1161.667969 962 C 1164.527344 970.578125 1166.949219 990.414063 1175 995 C 1175 932.210938 1143 877.277344 1097 835.832031 C 1075.925781 817 1050.414063 800.082031 1021 800 M 422 802.332031 C 422.773438 802.332031 422 802.832031 421.667969 802.667969 L 422 802.332031 M 597 803 L 596 804 L 597 803 M 1139 806 C 1146 822.769531 1162.382813 835 1169.847656 852 C 1171.601563 856.019531 1178 869.65625 1168.980469 869.636719 C 1160.972656 869.621094 1153.839844 859.40625 1147 856 C 1153.503906 871.460938 1166.871094 883.332031 1173.574219 899 C 1180.652344 915.550781 1181.453125 936.828125 1191 952 C 1196 943 1195.535156 933 1196.714844 923 C 1196.933594 921.160156 1196.234375 914.054688 1199.214844 914.054688 C 1203 914.054688 1204.9375 923 1208 925 C 1201.445313 889.824219 1192.492188 860.476563 1169.390625 832 C 1161.300781 822.03125 1151.695313 810.046875 1139 806 M 578 1091 C 575 1068.773438 567.3125 1047.5 565.171875 1025 C 561.175781 983.050781 569.601563 939.304688 584.425781 900 C 592.230469 879.296875 602.183594 860 613.601563 841 C 619.554688 831.128906 628.761719 822.226563 632 811 C 625.652344 814.648438 620.976563 822.214844 616.628906 828 C 606.886719 841 597.617188 854.136719 589.203125 868 C 567.367188 904 543.5625 945.734375 543 989 C 542.761719 1009.527344 548.449219 1031.066406 556 1050 C 561 1063 567.21875 1081.828125 578 1091 M 977 821 L 977 822 C 1015.460938 823.652344 1049.925781 838.121094 1081 860.429688 C 1092 868.332031 1100.351563 880.269531 1112 887 C 1098.355469 849.730469 1051.269531 825 1014 820.285156 C 1001.714844 818.777344 989.246094 820.746094 977 821 M 847 821 L 847 822 C 830.835938 828.234375 812.542969 837.636719 795 838 C 800 818.414063 831.277344 821 847 821 M 915 970 C 920.609375 946.382813 947 941.359375 962.984375 926.824219 C 970.984375 919.496094 973 911.183594 975 901 C 968.464844 903 964.664063 909.140625 958 911.0625 C 941 916 928.300781 902 927 886 C 944.78125 914 999 887.488281 976.777344 855 C 967.53125 841.542969 947.632813 825.078125 930 827.289063 C 919 828.65625 909.898438 836.027344 899 837 C 888.753906 837.734375 878 834.199219 868 836.527344 C 848.589844 841 827 865.355469 828.273438 886 C 828.558594 891.050781 831.855469 895.25 833.210938 900 C 835.261719 907.183594 834.765625 914.316406 838.765625 921 C 851.332031 942.011719 877.730469 941.289063 897 952.335938 C 904.847656 957 907.960938 965.484375 915 970 M 927 886 L 926 886 L 927 870 C 916 874.085938 903.1875 872 892 870.078125 C 884.230469 868.796875 875.867188 867 868 868.46875 C 864 869.226563 858 874.488281 854.316406 873.261719 C 851.351563 872.316406 851.878906 867.347656 852.1875 865 C 853.238281 857.007813 860 851.539063 867 848.324219 C 888.242188 838.378906 922.628906 837.617188 945 843.378906 C 953.851563 845.65625 967.9375 851.230469 968.765625 862 C 969 865.472656 967 869.34375 962.984375 868.289063 C 958 867.027344 955.273438 862.160156 950 861.164063 C 934.839844 858.269531 927 873.234375 927 886 M 1024 865 C 1027.523438 869.695313 1036.722656 871.609375 1042 874.246094 C 1052.96875 879.730469 1063 886.714844 1072 895.089844 C 1108.292969 929 1128.460938 996.191406 1109 1043 C 1101.417969 1026 1101.582031 1006 1096.847656 988 C 1088.363281 955.796875 1071.359375 927.777344 1047 905.089844 C 1033.851563 893 1005.878906 868.246094 991 891 C 996.304688 889.484375 1001.296875 886.613281 1007 887.316406 C 1017.496094 888.605469 1025.523438 896.480469 1032 904 C 1044.589844 918.101563 1056.339844 933 1066.1875 949 C 1105.445313 1013 1102.75 1093.109375 1068.742188 1159 C 1060.796875 1174.390625 1050.484375 1188.191406 1040 1202 C 1034.292969 1209.777344 1026.511719 1218 1023 1227 C 1068.839844 1201.453125 1094.476563 1145.558594 1110.332031 1098 C 1113.714844 1088 1116.472656 1077 1122.523438 1068.003906 C 1123.5625 1066.460938 1128.347656 1059.332031 1130.882813 1062 C 1134 1065.0625 1126.273438 1081.253906 1124.996094 1085 C 1119.894531 1100 1113.328125 1114.621094 1106.769531 1129 C 1103 1137.109375 1097.417969 1145 1097 1154 C 1109 1144.542969 1116.453125 1122.582031 1123.246094 1109 C 1145.609375 1064.277344 1163.582031 1014.753906 1155.410156 964 C 1152.699219 947.160156 1146.480469 931.15625 1137 917 C 1132.984375 911.003906 1129 904.421875 1122 902 C 1133.980469 930.621094 1156.414063 952.128906 1143 985 C 1138.917969 971.566406 1137.671875 958.058594 1131.691406 945 C 1112.867188 904 1070.914063 867.015625 1024 865 M 1208 879 C 1208 900.707031 1210.410156 922.351563 1207.714844 944 C 1205.367188 963 1197.734375 980.476563 1195 999 L 1194 999 C 1195 985.5625 1198 972.566406 1198 959 C 1189.429688 964.386719 1188 987.539063 1185.28125 997 C 1180 1014.527344 1172 1031.0625 1163 1047 C 1154.476563 1062.523438 1144.449219 1077.792969 1143 1096 C 1147.929688 1093.304688 1150.609375 1087.59375 1153.667969 1083 C 1161 1072 1167.429688 1060.285156 1174.425781 1049 C 1179.644531 1040.578125 1184.972656 1032.035156 1192 1025.003906 C 1196.359375 1020.648438 1203.5 1017.265625 1206.558594 1012 C 1210.757813 1004.550781 1210.21875 994.167969 1211.425781 986 C 1215 961.488281 1215 938.59375 1215 914 C 1215 903.535156 1215.761719 887.027344 1208 879 M 699 1226 C 696 1220 689.183594 1216.378906 684 1212.195313 C 674.355469 1204.410156 663 1195.820313 655.394531 1186 C 650.425781 1179.59375 649.328125 1170.574219 646.972656 1163 C 641.308594 1144.761719 635.453125 1126.007813 633 1107 L 631 1107 C 631 1129 635 1151 641 1172 C 593.660156 1117.640625 599 1043.355469 614 978 C 609.253906 981.136719 607.542969 988.804688 605.691406 994 C 600.640625 1008.179688 594 1022.617188 590 1037 L 589 1037 C 586.902344 1022.8125 581.402344 1009.71875 582 995 C 583.308594 965.734375 593.183594 937.214844 605.785156 911 C 610.703125 900.769531 617.675781 891.492188 622 881 C 616.214844 884.511719 612.863281 892.378906 609.320313 898 C 599.597656 913.425781 590.753906 929.226563 583.578125 946 C 575.261719 965.449219 568.96875 986.738281 568 1008 C 567.363281 1023.402344 568.285156 1039.449219 573.8125 1054 C 577.398438 1063.4375 584 1071.308594 586.960938 1081 C 589.851563 1090.476563 590.308594 1100.492188 593.34375 1110 C 609.179688 1159.613281 641.828125 1218.738281 699 1226 M 634 1017 C 641.625 1013.101563 643.570313 1002.195313 647.257813 995 C 655.316406 979.277344 664.761719 964 675.660156 950 C 706.320313 911 758.945313 888 808 884 C 804 881.058594 798.710938 882 794 882 C 780.90625 882.019531 767.789063 884.351563 755 887.003906 C 690 900.472656 645.769531 953.832031 634 1017 M 461 883 L 460 884 L 461 883 M 886 895 C 891.648438 914.292969 868.988281 926.113281 853 920 C 849.222656 918.40625 837.453125 912.035156 842.617188 906.601563 C 847.285156 901.695313 860 907.316406 866 907 C 874.765625 906.289063 879.675781 900.078125 886 895 M 459 903 C 470.785156 908.464844 482.21875 922.707031 486.25 935 C 487.242188 938.027344 490 946.601563 486.398438 949 C 482.195313 951.5 477.417969 942.589844 475.8125 940 C 469.535156 930 459.625 915.054688 459 903 M 475 906 L 474 907 L 475 906 M 1005 921 C 1019.652344 938.726563 1041 948.191406 1047 973 L 1046 973 C 1039.195313 958.703125 1024.292969 948 1010 942 C 1013 948.597656 1019 953.136719 1022 960 L 1021 960 C 1015.324219 949.054688 1000.722656 939.378906 989 936 C 999.808594 950.683594 1015.390625 959.34375 1023 977 L 1022 977 C 1014.242188 961.425781 987.433594 941.71875 970 939 C 977.277344 948.019531 987.429688 953.703125 993.523438 964 C 996.722656 969.40625 997.226563 975.164063 999 981 C 983.480469 967.214844 978.230469 944.035156 956 937 C 959.894531 945.351563 968.738281 950.222656 974.714844 957 C 985.429688 969.160156 994 983 1000 998 L 999 998 C 991.332031 982.605469 970.363281 959 954 953 C 955.574219 963.648438 961.523438 973.023438 962 984 L 961 984 C 958.914063 973.214844 948 966.390625 938 964 C 941.601563 970.679688 949.882813 976.140625 955 982 C 947.65625 979 940.675781 976.160156 933 974 C 935.726563 978.34375 943.34375 980.824219 948 983 L 948 984 C 938.746094 981.039063 923.675781 974.40625 914 976.394531 C 908.777344 977.46875 904.429688 981.269531 900 984 L 900 961 L 899 961 C 896.175781 983.226563 884 998.390625 867 1012 C 876 998.167969 887.242188 984.394531 888 967 L 887 967 C 878.453125 985.035156 866.8125 993 851 1004 C 850.972656 1000.578125 850.625 997.363281 850 994 C 841.457031 999 834 1010 827 1017 C 836.429688 995.121094 856.976563 976.78125 859 952 C 851.964844 957.15625 847.914063 970.75 842.523438 978 C 831.464844 993 817.8125 1003.675781 802 1013 C 807.371094 996.488281 813.988281 979.582031 814 962 C 806.878906 967.347656 802.441406 985.742188 798.242188 994 C 788 1014 774.699219 1034.171875 759 1050 C 750.4375 1001.734375 797.792969 956.730469 833 933 L 833 932 C 817.941406 934.257813 803.546875 946.601563 792 955.800781 C 764.648438 977.589844 742.421875 1004.664063 726.753906 1036 C 721 1047.222656 714.554688 1060.269531 714 1073 L 715 1073 C 719.613281 1064.34375 722.785156 1055.050781 731 1049 C 723.265625 1069.507813 718.5 1090.585938 710 1111 L 709 1111 C 707.789063 1095.683594 707.988281 1081.332031 708 1066 L 707 1066 C 698.628906 1109.167969 693.777344 1151.367188 708 1194 C 712.460938 1207.367188 718.863281 1225.796875 730 1235 C 728.605469 1218 719.800781 1202.414063 719 1185 C 717.902344 1159.074219 727.617188 1136.109375 731 1111 L 732 1111 C 732.503906 1122.757813 731.910156 1135.363281 733.578125 1147 C 733.851563 1149 734 1157.792969 737 1157.792969 C 738.964844 1157.792969 740 1153.359375 740.480469 1152 C 742.882813 1144.789063 743.925781 1137.226563 746.332031 1130 C 755.496094 1102.515625 770.726563 1077.597656 792 1058 C 775.433594 1089.121094 760.625 1119.097656 753.601563 1154 C 751.777344 1163.0625 750.324219 1171.773438 749.871094 1181 C 749.609375 1186.230469 750.730469 1191.574219 757 1188 C 779.320313 1174.574219 779 1139 785.722656 1117 C 793.546875 1091.023438 812.429688 1071.675781 832 1054 C 843.761719 1043.257813 856 1032.335938 872 1029 C 859.566406 1042.539063 848.183594 1061 844 1079 C 849.277344 1074.472656 852.183594 1067 855.8125 1061 C 861.636719 1051.507813 868 1043 876 1035 C 873.488281 1040.378906 870.390625 1045.152344 869 1051 C 875.859375 1047 880.371094 1035.644531 890 1036.71875 C 893.859375 1037.148438 897.324219 1040 901 1041 C 905 1018.144531 937.691406 1030.046875 952 1033 C 952 1029.8125 949.324219 1012.515625 952.894531 1011.765625 C 957.761719 1010.742188 965.507813 1022.328125 969 1025 C 968.910156 1020.601563 964.1875 1005 968.601563 1002.214844 C 970.933594 1000.828125 974.804688 1003.144531 977 1004 C 984.789063 1006.789063 992.414063 1009.785156 1000 1013.140625 C 1028.953125 1026 1046.6875 1045 1059 1074 C 1062.734375 1082.347656 1067.972656 1091.710938 1067.972656 1101 C 1067.96875 1108.671875 1063.328125 1115.234375 1060.230469 1122 C 1051.503906 1141.0625 1039.429688 1158.644531 1023 1172 C 1014.589844 1178.691406 1002.222656 1182.015625 997 1192 C 1041.453125 1183.378906 1076.976563 1139.019531 1074.960938 1093 C 1073.792969 1066.367188 1061.894531 1042.488281 1056 1017 L 1057 1017 C 1060 1028 1066.535156 1037.675781 1071 1048 C 1075.71875 1058.273438 1078.796875 1069.585938 1085 1079 C 1090.980469 1067.667969 1082.746094 1046.746094 1080.210938 1035 C 1073 1002.261719 1063.199219 966.457031 1038.996094 942 C 1029.886719 932.796875 1018 923.265625 1005 921 M 622 1042 C 622 1016.023438 624.703125 989 632.746094 964 C 637 950.554688 644.46875 938.3125 649 925 C 642.609375 928.625 639.417969 938.613281 636.246094 945 C 625.6875 966.269531 621 988.652344 618.285156 1012 C 617.289063 1020.332031 613.675781 1036.484375 622 1042 M 712 1212 C 709.902344 1196.492188 699.753906 1182.152344 695.425781 1167 C 690.777344 1150.703125 691.652344 1132.734375 687 1117 L 686 1117 L 685 1147 L 684 1147 C 680.351563 1134.332031 671.519531 1124.191406 668.660156 1111 C 664.203125 1090.414063 668.589844 1068.507813 678.320313 1050 C 683.585938 1040 691.519531 1031.386719 696 1021 C 685.425781 1025.476563 676.757813 1037 670 1046 C 668.664063 1048.054688 664.808594 1057 662 1057 C 659.46875 1057 657.984375 1050.8125 657.488281 1049 C 654.972656 1039.792969 657.503906 1029.746094 660.8125 1021 C 669.59375 997.816406 683.335938 977.242188 698.804688 958 C 706.351563 948.609375 720.945313 937.746094 724 926 C 716.515625 928.039063 712 934.632813 706.960938 940 C 696.378906 951.0625 686.253906 962.265625 677.671875 975 C 658.941406 1002.785156 642.558594 1040.632813 645 1075 C 645.917969 1086.226563 652 1097.734375 654.195313 1109 C 657.347656 1125.4375 659.757813 1141.617188 666.769531 1157 C 675.953125 1177.148438 689.984375 1203.652344 712 1212 M 1023 960 L 1024 963 C 1022.710938 961.558594 1022.597656 961.765625 1023 960 M 1025 964 L 1024 965 L 1025 964 M 888 965 L 889 966 L 888 965 M 1022 987 C 1015 984.066406 1006.308594 976.785156 1003 970 C 1012 971.210938 1018.269531 979.148438 1022 987 M 1047.667969 973.667969 C 1047.722656 973.722656 1047.777344 974.777344 1047.332031 974.332031 C 1047.277344 974.277344 1047.222656 973.222656 1047.667969 973.667969 M 930 974 L 931 975 L 930 974 M 1049 976 L 1048 977 L 1049 976 M 1024 978 L 1023 979 L 1024 978 M 963 985 L 962 986 L 963 985 M 927 987.285156 C 932.941406 986.558594 944.335938 985.304688 949.621094 988.703125 C 955 992.1875 942.550781 997.492188 940 997.816406 C 930 999.070313 919.972656 997.53125 910 999 C 907.402344 999.21875 901.808594 1000.605469 900.257813 997.523438 C 898.84375 994.722656 903 992.828125 905 992.09375 C 911.847656 989.464844 919.757813 988.175781 927 987.285156 M 1001 999 L 1000 1000 L 1001 999 M 1194 999 L 1194 1002 L 1193 1002 C 1193.25 1000.546875 1193.316406 1000.25 1194 999 M 1193 1003 L 1192 1004 L 1193 1003 M 542 1111 C 537.433594 1101.207031 526.339844 1095 519.285156 1087 C 503.53125 1069.132813 490.300781 1050.390625 484.375 1027 C 483.375 1023.050781 479.921875 1002.09375 472.511719 1006.289063 C 464.425781 1011 473.222656 1034 475.34375 1040 C 483.503906 1063.5 499 1083.585938 519 1098.371094 C 525.851563 1103.46875 533.421875 1109.472656 542 1111 M 1054.667969 1012.667969 C 1054.722656 1012.722656 1054.777344 1013.777344 1054.332031 1013.332031 C 1054.277344 1013.277344 1054.222656 1012.222656 1054.667969 1012.667969 M 1055.667969 1015.667969 C 1055.722656 1015.722656 1055.777344 1016.777344 1055.332031 1016.332031 C 1055.277344 1016.277344 1055.222656 1015.222656 1055.667969 1015.667969 M 879 1032 C 877.898438 1033.457031 877.457031 1034 876 1035 C 877 1033.542969 877.542969 1033.101563 879 1032 M 985 1038 C 993.394531 1063.792969 996.734375 1087.757813 987.65625 1114 C 983.648438 1125.585938 974 1136.066406 972 1148 C 996.246094 1128.386719 1003.972656 1095.445313 998.195313 1066 C 996.417969 1057 993.523438 1043.023438 985 1038 M 1013 1045 C 1015.203125 1054.261719 1013 1064.507813 1013 1074 C 1013 1105.25 1006 1136.78125 986.765625 1162 C 977.402344 1174.238281 964.175781 1185.65625 948 1186 L 948 1188 C 958 1187.792969 967.539063 1184.15625 977 1181 C 1011.765625 1169.402344 1051 1142.433594 1052 1102 C 1042.898438 1107.5625 1036.867188 1123.066406 1029 1131 C 1035.800781 1113.367188 1045.914063 1090.722656 1038 1072 L 1037 1072 C 1035.902344 1080.632813 1032.257813 1088.488281 1031 1097 C 1026.648438 1082.273438 1033.695313 1051 1013 1045 M 526 1055 C 526 1089.09375 557.59375 1133.023438 594 1136 C 588.507813 1113.089844 559.972656 1100.445313 545.171875 1084 C 537.589844 1075.578125 534.1875 1062.039063 526 1055 M 793 1057 L 792 1058 L 793 1057 M 975 1063 C 967.808594 1085.101563 961.527344 1108.097656 949.1875 1128 C 929.988281 1159 899.25 1179.71875 867 1195 L 867 1196 C 910.886719 1192.414063 955 1150.179688 970.1875 1111 C 974.878906 1099 985 1074.519531 975 1063 M 560 1154 C 555.660156 1145.179688 539.871094 1142.027344 532 1136.101563 C 515.648438 1123.792969 502 1108.265625 492.757813 1090 C 489.75 1084.085938 487.339844 1078 484.214844 1072.003906 C 483.511719 1070.691406 481.566406 1066.3125 479.414063 1067.347656 C 477.261719 1068.378906 477.21875 1074.007813 477 1076 C 476.488281 1085.394531 479.523438 1095.765625 483.890625 1104 C 493.773438 1122.648438 510.878906 1140.226563 531 1147.5625 C 540.402344 1151 550.433594 1151.3125 560 1154 M 964 1066 C 952.511719 1085.6875 941.953125 1104.332031 926 1121 C 932.1875 1106.144531 945.492188 1087.726563 944 1071 C 938.234375 1079.082031 936.496094 1091.054688 931.691406 1100 C 920.5625 1120.707031 905.667969 1140.160156 888 1155.714844 C 873 1168.785156 857.421875 1180.269531 840 1189.691406 C 832.652344 1193.664063 817.914063 1196.449219 813 1203 C 865.625 1196 923.230469 1161.328125 948.21875 1114 C 953.808594 1103.410156 958.21875 1092.347656 962 1081 C 963.605469 1076.183594 966 1071 964 1066 M 899 1072 C 880.335938 1114 855.75 1146.023438 818 1173 C 810.523438 1178.34375 803.507813 1183.621094 799.273438 1192 C 798.199219 1194.128906 795.433594 1199 797.835938 1201 C 800.523438 1203.335938 806.347656 1200.058594 809 1199 C 819 1195 828.925781 1190.667969 838 1184.644531 C 865.230469 1166.570313 886.929688 1138 897.332031 1107 C 900.636719 1097.171875 905.890625 1081.257813 899 1072 M 1156 1083 C 1160.371094 1091.109375 1171.507813 1097.214844 1177.960938 1104 C 1180 1106.253906 1184.617188 1110.269531 1183.554688 1114 C 1182.527344 1117.308594 1177.773438 1117.035156 1175 1116.714844 C 1166.308594 1115.703125 1157.765625 1113.375 1149 1113 C 1155.199219 1126.296875 1172.289063 1131.402344 1183 1140.324219 C 1192.949219 1148.617188 1199.398438 1160.53125 1210 1168 C 1209.996094 1131.511719 1190.257813 1097.261719 1156 1083 M 828 1093 C 820.804688 1110.28125 813.34375 1129.832031 802.242188 1145 C 795.574219 1154.113281 786.578125 1160.585938 779.183594 1169 C 775.863281 1172.78125 765.78125 1187.058594 772.601563 1192 C 775.214844 1193.796875 779.574219 1191.355469 782 1190.21875 C 790.210938 1186.371094 797.226563 1181.117188 804 1175.15625 C 824 1157.488281 858.730469 1117.058594 828 1093 M 926 1121 L 925 1122 L 926 1121 M 1158 1134 C 1161.515625 1145.015625 1171 1154.769531 1176.691406 1165 C 1186.328125 1182.777344 1189 1198.199219 1189 1218 C 1179.738281 1208.324219 1169.34375 1195.46875 1155 1194 C 1158.746094 1202.011719 1164.496094 1209 1168 1217 C 1177.886719 1238.648438 1179.949219 1259.800781 1177 1283 L 1178 1283 C 1184.285156 1272.230469 1185.671875 1257.609375 1193 1248 C 1194.878906 1253.042969 1195.953125 1257.601563 1196 1263 L 1198 1263 C 1199.5 1251.394531 1202.921875 1239.773438 1202.921875 1228 C 1202.921875 1195.160156 1188 1151.339844 1158 1134 M 456 1150 C 462.476563 1166.714844 484.457031 1182.457031 497 1195 C 483.789063 1191.25 471 1186.242188 458 1182 C 460.800781 1190.0625 470.277344 1194.035156 477 1198.515625 C 493.785156 1209.703125 512.371094 1227 533 1230 L 533 1231 C 507.425781 1230.789063 481 1218.808594 457 1211 C 459.761719 1215.566406 466.324219 1217.414063 471 1219.753906 C 481.851563 1225.179688 492.535156 1231 503 1237.011719 C 557.304688 1269 619.964844 1292 681 1263 L 681 1262 C 666.246094 1263.285156 651.992188 1269 637 1270 C 625.34375 1270.710938 614.472656 1268 603 1267 L 603 1266 C 616.425781 1263 629.210938 1257.78125 643 1256 L 643 1254 C 624.503906 1254.792969 606.558594 1258.363281 588 1257 C 585.621094 1256.722656 568 1252.585938 573.464844 1248.175781 C 577 1245.230469 585.621094 1247.246094 590 1246.828125 C 603.191406 1245.574219 616.21875 1243.761719 629 1240.140625 C 633.570313 1239 640 1238 643 1234 C 626.976563 1234.332031 611 1236 595 1236 C 586.816406 1236 578.828125 1237.203125 572 1232 C 578.46875 1230.40625 585.34375 1229.285156 592 1229 L 592 1227 C 567.628906 1227 541.316406 1224.460938 522 1208 C 549.613281 1208.230469 594.71875 1219.140625 614 1192 C 598.863281 1194.605469 586 1205.601563 570 1205 C 540.25 1203.585938 513 1186.8125 489 1171 C 478.367188 1164 468.472656 1153.601563 456 1150 M 1099 1166 C 1088 1187.785156 1083.949219 1231.464844 1050 1229 C 1052.753906 1242.007813 1069.1875 1233.394531 1076 1228.78125 C 1092.277344 1217.765625 1105 1201.269531 1114.21875 1184 C 1116.75 1179.207031 1122.445313 1170.097656 1120.351563 1164.378906 C 1119 1160.757813 1110.332031 1174.792969 1107 1174.792969 C 1103.179688 1174.792969 1101 1168.523438 1099 1166 M 871 1220 C 870.894531 1258.585938 835.625 1300.214844 797 1306 L 797 1308 C 827 1305.617188 861 1291 870.972656 1260 C 875.226563 1246.609375 873 1233.632813 873 1220 L 871 1220 M 960 1228 C 966.398438 1238.550781 979.625 1241.785156 983.777344 1255 C 996.78125 1296.34375 940 1320.117188 911 1331.800781 C 899.433594 1336.441406 885.71875 1341.015625 880 1353 C 904.242188 1351.070313 927.578125 1338.710938 950 1330.191406 C 952.777344 1329.136719 970.859375 1322.011719 970.539063 1329.226563 C 970.363281 1333.207031 964.824219 1336.757813 962 1339 C 953.535156 1345.101563 938.503906 1350 933 1359 C 967.632813 1351.832031 1011.351563 1322.417969 1020 1286 C 1006.996094 1291.414063 995 1300 983 1307 C 987.625 1298.085938 997.210938 1293.03125 1000.214844 1283 C 1007.71875 1258 984 1231.550781 960 1228 M 535 1231.332031 L 535.332031 1231.667969 C 534.839844 1231.832031 534.226563 1231.332031 535 1231.332031 M 846 1240 C 841.75 1252.5625 837.359375 1266 827 1274.789063 C 815.734375 1284.464844 800 1285.121094 786 1286.089844 C 754.511719 1288.257813 724.238281 1283 693 1283 L 693 1284 C 731.363281 1294 780.667969 1309.492188 819 1292.132813 C 833.550781 1285.546875 860 1257.226563 846 1240 M 1044 1295 C 1070.570313 1287.515625 1103.871094 1277 1108 1245 C 1099.71875 1247 1094.21875 1255 1088.84375 1261 C 1081.742188 1269.066406 1074.285156 1276.011719 1065 1281.546875 C 1058.644531 1285.335938 1047.710938 1288.460938 1044 1295 M 932 1250 C 930.199219 1292 894.265625 1314.050781 859 1328.199219 C 848.710938 1332.328125 838 1337.507813 827 1339 L 827 1341 C 836.777344 1340.578125 846.492188 1337.800781 856 1335.648438 C 884.984375 1329.09375 920.546875 1319.671875 932.535156 1289 C 937.382813 1276.605469 934.265625 1263 934 1250 L 932 1250 M 1050 1333 C 1078.410156 1330.519531 1112.980469 1296.816406 1113 1268 C 1106.640625 1271 1102.238281 1277.738281 1097.730469 1283 C 1089.328125 1292.800781 1081 1303 1072 1312 C 1065.414063 1318.597656 1054.648438 1325.085938 1050 1333 M 690.667969 1282.332031 C 690.222656 1282.777344 691.277344 1282.722656 691.332031 1282.667969 C 691.777344 1282.222656 690.722656 1282.277344 690.667969 1282.332031 M 1038 1370 L 1038 1371 C 1063.183594 1371 1105.3125 1352.394531 1106 1323 C 1094.820313 1326.707031 1087.769531 1339.164063 1079 1346.5625 C 1066.554688 1357.0625 1052.570313 1363.183594 1038 1370 M 960 1371 C 982.921875 1370.527344 1014.304688 1356.015625 1018 1331 C 1003.390625 1334.464844 992 1352.636719 979 1360.394531 C 973.46875 1363.6875 963.765625 1366 960 1371 "/>
</g>
</svg>
